%TF.GenerationSoftware,KiCad,Pcbnew,(5.1.9)-1*%
%TF.CreationDate,2021-10-01T07:45:35+02:00*%
%TF.ProjectId,poly_kb_1Ux4,706f6c79-5f6b-4625-9f31-5578342e6b69,rev?*%
%TF.SameCoordinates,Original*%
%TF.FileFunction,Copper,L2,Bot*%
%TF.FilePolarity,Positive*%
%FSLAX46Y46*%
G04 Gerber Fmt 4.6, Leading zero omitted, Abs format (unit mm)*
G04 Created by KiCad (PCBNEW (5.1.9)-1) date 2021-10-01 07:45:35*
%MOMM*%
%LPD*%
G01*
G04 APERTURE LIST*
%TA.AperFunction,SMDPad,CuDef*%
%ADD10R,2.000000X1.500000*%
%TD*%
%TA.AperFunction,SMDPad,CuDef*%
%ADD11C,0.127000*%
%TD*%
%TA.AperFunction,SMDPad,CuDef*%
%ADD12R,0.300000X0.650000*%
%TD*%
%TA.AperFunction,SMDPad,CuDef*%
%ADD13R,0.300000X1.150000*%
%TD*%
%TA.AperFunction,ComponentPad*%
%ADD14C,2.200000*%
%TD*%
%TA.AperFunction,ComponentPad*%
%ADD15R,1.500000X1.500000*%
%TD*%
%TA.AperFunction,SMDPad,CuDef*%
%ADD16R,0.600000X0.450000*%
%TD*%
%TA.AperFunction,ViaPad*%
%ADD17C,0.609600*%
%TD*%
%TA.AperFunction,ViaPad*%
%ADD18C,0.800000*%
%TD*%
%TA.AperFunction,Conductor*%
%ADD19C,0.300000*%
%TD*%
%TA.AperFunction,Conductor*%
%ADD20C,0.500000*%
%TD*%
%TA.AperFunction,Conductor*%
%ADD21C,1.000000*%
%TD*%
%TA.AperFunction,Conductor*%
%ADD22C,0.250000*%
%TD*%
%TA.AperFunction,Conductor*%
%ADD23C,0.254000*%
%TD*%
G04 APERTURE END LIST*
%TO.P,C1,1*%
%TO.N,/Keyboard/sheet605ED2EB/3V3*%
%TA.AperFunction,SMDPad,CuDef*%
G36*
G01*
X166388500Y-94174500D02*
X166388500Y-94674500D01*
G75*
G02*
X166163500Y-94899500I-225000J0D01*
G01*
X165713500Y-94899500D01*
G75*
G02*
X165488500Y-94674500I0J225000D01*
G01*
X165488500Y-94174500D01*
G75*
G02*
X165713500Y-93949500I225000J0D01*
G01*
X166163500Y-93949500D01*
G75*
G02*
X166388500Y-94174500I0J-225000D01*
G01*
G37*
%TD.AperFunction*%
%TO.P,C1,2*%
%TO.N,/Keyboard/sheet605ED2EB/GND*%
%TA.AperFunction,SMDPad,CuDef*%
G36*
G01*
X164838500Y-94174500D02*
X164838500Y-94674500D01*
G75*
G02*
X164613500Y-94899500I-225000J0D01*
G01*
X164163500Y-94899500D01*
G75*
G02*
X163938500Y-94674500I0J225000D01*
G01*
X163938500Y-94174500D01*
G75*
G02*
X164163500Y-93949500I225000J0D01*
G01*
X164613500Y-93949500D01*
G75*
G02*
X164838500Y-94174500I0J-225000D01*
G01*
G37*
%TD.AperFunction*%
%TD*%
%TO.P,C1,1*%
%TO.N,/Keyboard/sheet605ED2EB/3V3*%
%TA.AperFunction,SMDPad,CuDef*%
G36*
G01*
X147338500Y-94174500D02*
X147338500Y-94674500D01*
G75*
G02*
X147113500Y-94899500I-225000J0D01*
G01*
X146663500Y-94899500D01*
G75*
G02*
X146438500Y-94674500I0J225000D01*
G01*
X146438500Y-94174500D01*
G75*
G02*
X146663500Y-93949500I225000J0D01*
G01*
X147113500Y-93949500D01*
G75*
G02*
X147338500Y-94174500I0J-225000D01*
G01*
G37*
%TD.AperFunction*%
%TO.P,C1,2*%
%TO.N,/Keyboard/sheet605ED2EB/GND*%
%TA.AperFunction,SMDPad,CuDef*%
G36*
G01*
X145788500Y-94174500D02*
X145788500Y-94674500D01*
G75*
G02*
X145563500Y-94899500I-225000J0D01*
G01*
X145113500Y-94899500D01*
G75*
G02*
X144888500Y-94674500I0J225000D01*
G01*
X144888500Y-94174500D01*
G75*
G02*
X145113500Y-93949500I225000J0D01*
G01*
X145563500Y-93949500D01*
G75*
G02*
X145788500Y-94174500I0J-225000D01*
G01*
G37*
%TD.AperFunction*%
%TD*%
%TO.P,C1,1*%
%TO.N,/Keyboard/sheet605ED2EB/3V3*%
%TA.AperFunction,SMDPad,CuDef*%
G36*
G01*
X128288500Y-94174500D02*
X128288500Y-94674500D01*
G75*
G02*
X128063500Y-94899500I-225000J0D01*
G01*
X127613500Y-94899500D01*
G75*
G02*
X127388500Y-94674500I0J225000D01*
G01*
X127388500Y-94174500D01*
G75*
G02*
X127613500Y-93949500I225000J0D01*
G01*
X128063500Y-93949500D01*
G75*
G02*
X128288500Y-94174500I0J-225000D01*
G01*
G37*
%TD.AperFunction*%
%TO.P,C1,2*%
%TO.N,/Keyboard/sheet605ED2EB/GND*%
%TA.AperFunction,SMDPad,CuDef*%
G36*
G01*
X126738500Y-94174500D02*
X126738500Y-94674500D01*
G75*
G02*
X126513500Y-94899500I-225000J0D01*
G01*
X126063500Y-94899500D01*
G75*
G02*
X125838500Y-94674500I0J225000D01*
G01*
X125838500Y-94174500D01*
G75*
G02*
X126063500Y-93949500I225000J0D01*
G01*
X126513500Y-93949500D01*
G75*
G02*
X126738500Y-94174500I0J-225000D01*
G01*
G37*
%TD.AperFunction*%
%TD*%
%TO.P,C3,1*%
%TO.N,/Keyboard/sheet605ED2EB/3V3*%
%TA.AperFunction,SMDPad,CuDef*%
G36*
G01*
X155681500Y-88961500D02*
X155341500Y-88961500D01*
G75*
G02*
X155201500Y-88821500I0J140000D01*
G01*
X155201500Y-88541500D01*
G75*
G02*
X155341500Y-88401500I140000J0D01*
G01*
X155681500Y-88401500D01*
G75*
G02*
X155821500Y-88541500I0J-140000D01*
G01*
X155821500Y-88821500D01*
G75*
G02*
X155681500Y-88961500I-140000J0D01*
G01*
G37*
%TD.AperFunction*%
%TO.P,C3,2*%
%TO.N,/Keyboard/sheet605ED2EB/GND*%
%TA.AperFunction,SMDPad,CuDef*%
G36*
G01*
X155681500Y-88001500D02*
X155341500Y-88001500D01*
G75*
G02*
X155201500Y-87861500I0J140000D01*
G01*
X155201500Y-87581500D01*
G75*
G02*
X155341500Y-87441500I140000J0D01*
G01*
X155681500Y-87441500D01*
G75*
G02*
X155821500Y-87581500I0J-140000D01*
G01*
X155821500Y-87861500D01*
G75*
G02*
X155681500Y-88001500I-140000J0D01*
G01*
G37*
%TD.AperFunction*%
%TD*%
%TO.P,C3,1*%
%TO.N,/Keyboard/sheet605ED2EB/3V3*%
%TA.AperFunction,SMDPad,CuDef*%
G36*
G01*
X136631500Y-88961500D02*
X136291500Y-88961500D01*
G75*
G02*
X136151500Y-88821500I0J140000D01*
G01*
X136151500Y-88541500D01*
G75*
G02*
X136291500Y-88401500I140000J0D01*
G01*
X136631500Y-88401500D01*
G75*
G02*
X136771500Y-88541500I0J-140000D01*
G01*
X136771500Y-88821500D01*
G75*
G02*
X136631500Y-88961500I-140000J0D01*
G01*
G37*
%TD.AperFunction*%
%TO.P,C3,2*%
%TO.N,/Keyboard/sheet605ED2EB/GND*%
%TA.AperFunction,SMDPad,CuDef*%
G36*
G01*
X136631500Y-88001500D02*
X136291500Y-88001500D01*
G75*
G02*
X136151500Y-87861500I0J140000D01*
G01*
X136151500Y-87581500D01*
G75*
G02*
X136291500Y-87441500I140000J0D01*
G01*
X136631500Y-87441500D01*
G75*
G02*
X136771500Y-87581500I0J-140000D01*
G01*
X136771500Y-87861500D01*
G75*
G02*
X136631500Y-88001500I-140000J0D01*
G01*
G37*
%TD.AperFunction*%
%TD*%
%TO.P,C3,1*%
%TO.N,/Keyboard/sheet605ED2EB/3V3*%
%TA.AperFunction,SMDPad,CuDef*%
G36*
G01*
X117581500Y-88961500D02*
X117241500Y-88961500D01*
G75*
G02*
X117101500Y-88821500I0J140000D01*
G01*
X117101500Y-88541500D01*
G75*
G02*
X117241500Y-88401500I140000J0D01*
G01*
X117581500Y-88401500D01*
G75*
G02*
X117721500Y-88541500I0J-140000D01*
G01*
X117721500Y-88821500D01*
G75*
G02*
X117581500Y-88961500I-140000J0D01*
G01*
G37*
%TD.AperFunction*%
%TO.P,C3,2*%
%TO.N,/Keyboard/sheet605ED2EB/GND*%
%TA.AperFunction,SMDPad,CuDef*%
G36*
G01*
X117581500Y-88001500D02*
X117241500Y-88001500D01*
G75*
G02*
X117101500Y-87861500I0J140000D01*
G01*
X117101500Y-87581500D01*
G75*
G02*
X117241500Y-87441500I140000J0D01*
G01*
X117581500Y-87441500D01*
G75*
G02*
X117721500Y-87581500I0J-140000D01*
G01*
X117721500Y-87861500D01*
G75*
G02*
X117581500Y-88001500I-140000J0D01*
G01*
G37*
%TD.AperFunction*%
%TD*%
%TO.P,C5,1*%
%TO.N,Net-(C5-Pad1)*%
%TA.AperFunction,SMDPad,CuDef*%
G36*
G01*
X158716500Y-91673500D02*
X158716500Y-91333500D01*
G75*
G02*
X158856500Y-91193500I140000J0D01*
G01*
X159136500Y-91193500D01*
G75*
G02*
X159276500Y-91333500I0J-140000D01*
G01*
X159276500Y-91673500D01*
G75*
G02*
X159136500Y-91813500I-140000J0D01*
G01*
X158856500Y-91813500D01*
G75*
G02*
X158716500Y-91673500I0J140000D01*
G01*
G37*
%TD.AperFunction*%
%TO.P,C5,2*%
%TO.N,Net-(C5-Pad2)*%
%TA.AperFunction,SMDPad,CuDef*%
G36*
G01*
X159676500Y-91673500D02*
X159676500Y-91333500D01*
G75*
G02*
X159816500Y-91193500I140000J0D01*
G01*
X160096500Y-91193500D01*
G75*
G02*
X160236500Y-91333500I0J-140000D01*
G01*
X160236500Y-91673500D01*
G75*
G02*
X160096500Y-91813500I-140000J0D01*
G01*
X159816500Y-91813500D01*
G75*
G02*
X159676500Y-91673500I0J140000D01*
G01*
G37*
%TD.AperFunction*%
%TD*%
%TO.P,C5,1*%
%TO.N,Net-(C5-Pad1)*%
%TA.AperFunction,SMDPad,CuDef*%
G36*
G01*
X139666500Y-91673500D02*
X139666500Y-91333500D01*
G75*
G02*
X139806500Y-91193500I140000J0D01*
G01*
X140086500Y-91193500D01*
G75*
G02*
X140226500Y-91333500I0J-140000D01*
G01*
X140226500Y-91673500D01*
G75*
G02*
X140086500Y-91813500I-140000J0D01*
G01*
X139806500Y-91813500D01*
G75*
G02*
X139666500Y-91673500I0J140000D01*
G01*
G37*
%TD.AperFunction*%
%TO.P,C5,2*%
%TO.N,Net-(C5-Pad2)*%
%TA.AperFunction,SMDPad,CuDef*%
G36*
G01*
X140626500Y-91673500D02*
X140626500Y-91333500D01*
G75*
G02*
X140766500Y-91193500I140000J0D01*
G01*
X141046500Y-91193500D01*
G75*
G02*
X141186500Y-91333500I0J-140000D01*
G01*
X141186500Y-91673500D01*
G75*
G02*
X141046500Y-91813500I-140000J0D01*
G01*
X140766500Y-91813500D01*
G75*
G02*
X140626500Y-91673500I0J140000D01*
G01*
G37*
%TD.AperFunction*%
%TD*%
%TO.P,C5,1*%
%TO.N,Net-(C5-Pad1)*%
%TA.AperFunction,SMDPad,CuDef*%
G36*
G01*
X120616500Y-91673500D02*
X120616500Y-91333500D01*
G75*
G02*
X120756500Y-91193500I140000J0D01*
G01*
X121036500Y-91193500D01*
G75*
G02*
X121176500Y-91333500I0J-140000D01*
G01*
X121176500Y-91673500D01*
G75*
G02*
X121036500Y-91813500I-140000J0D01*
G01*
X120756500Y-91813500D01*
G75*
G02*
X120616500Y-91673500I0J140000D01*
G01*
G37*
%TD.AperFunction*%
%TO.P,C5,2*%
%TO.N,Net-(C5-Pad2)*%
%TA.AperFunction,SMDPad,CuDef*%
G36*
G01*
X121576500Y-91673500D02*
X121576500Y-91333500D01*
G75*
G02*
X121716500Y-91193500I140000J0D01*
G01*
X121996500Y-91193500D01*
G75*
G02*
X122136500Y-91333500I0J-140000D01*
G01*
X122136500Y-91673500D01*
G75*
G02*
X121996500Y-91813500I-140000J0D01*
G01*
X121716500Y-91813500D01*
G75*
G02*
X121576500Y-91673500I0J140000D01*
G01*
G37*
%TD.AperFunction*%
%TD*%
%TO.P,C6,1*%
%TO.N,Net-(C6-Pad1)*%
%TA.AperFunction,SMDPad,CuDef*%
G36*
G01*
X160085500Y-92816500D02*
X160085500Y-92476500D01*
G75*
G02*
X160225500Y-92336500I140000J0D01*
G01*
X160505500Y-92336500D01*
G75*
G02*
X160645500Y-92476500I0J-140000D01*
G01*
X160645500Y-92816500D01*
G75*
G02*
X160505500Y-92956500I-140000J0D01*
G01*
X160225500Y-92956500D01*
G75*
G02*
X160085500Y-92816500I0J140000D01*
G01*
G37*
%TD.AperFunction*%
%TO.P,C6,2*%
%TO.N,Net-(C6-Pad2)*%
%TA.AperFunction,SMDPad,CuDef*%
G36*
G01*
X161045500Y-92816500D02*
X161045500Y-92476500D01*
G75*
G02*
X161185500Y-92336500I140000J0D01*
G01*
X161465500Y-92336500D01*
G75*
G02*
X161605500Y-92476500I0J-140000D01*
G01*
X161605500Y-92816500D01*
G75*
G02*
X161465500Y-92956500I-140000J0D01*
G01*
X161185500Y-92956500D01*
G75*
G02*
X161045500Y-92816500I0J140000D01*
G01*
G37*
%TD.AperFunction*%
%TD*%
%TO.P,C6,1*%
%TO.N,Net-(C6-Pad1)*%
%TA.AperFunction,SMDPad,CuDef*%
G36*
G01*
X141035500Y-92816500D02*
X141035500Y-92476500D01*
G75*
G02*
X141175500Y-92336500I140000J0D01*
G01*
X141455500Y-92336500D01*
G75*
G02*
X141595500Y-92476500I0J-140000D01*
G01*
X141595500Y-92816500D01*
G75*
G02*
X141455500Y-92956500I-140000J0D01*
G01*
X141175500Y-92956500D01*
G75*
G02*
X141035500Y-92816500I0J140000D01*
G01*
G37*
%TD.AperFunction*%
%TO.P,C6,2*%
%TO.N,Net-(C6-Pad2)*%
%TA.AperFunction,SMDPad,CuDef*%
G36*
G01*
X141995500Y-92816500D02*
X141995500Y-92476500D01*
G75*
G02*
X142135500Y-92336500I140000J0D01*
G01*
X142415500Y-92336500D01*
G75*
G02*
X142555500Y-92476500I0J-140000D01*
G01*
X142555500Y-92816500D01*
G75*
G02*
X142415500Y-92956500I-140000J0D01*
G01*
X142135500Y-92956500D01*
G75*
G02*
X141995500Y-92816500I0J140000D01*
G01*
G37*
%TD.AperFunction*%
%TD*%
%TO.P,C6,1*%
%TO.N,Net-(C6-Pad1)*%
%TA.AperFunction,SMDPad,CuDef*%
G36*
G01*
X121985500Y-92816500D02*
X121985500Y-92476500D01*
G75*
G02*
X122125500Y-92336500I140000J0D01*
G01*
X122405500Y-92336500D01*
G75*
G02*
X122545500Y-92476500I0J-140000D01*
G01*
X122545500Y-92816500D01*
G75*
G02*
X122405500Y-92956500I-140000J0D01*
G01*
X122125500Y-92956500D01*
G75*
G02*
X121985500Y-92816500I0J140000D01*
G01*
G37*
%TD.AperFunction*%
%TO.P,C6,2*%
%TO.N,Net-(C6-Pad2)*%
%TA.AperFunction,SMDPad,CuDef*%
G36*
G01*
X122945500Y-92816500D02*
X122945500Y-92476500D01*
G75*
G02*
X123085500Y-92336500I140000J0D01*
G01*
X123365500Y-92336500D01*
G75*
G02*
X123505500Y-92476500I0J-140000D01*
G01*
X123505500Y-92816500D01*
G75*
G02*
X123365500Y-92956500I-140000J0D01*
G01*
X123085500Y-92956500D01*
G75*
G02*
X122945500Y-92816500I0J140000D01*
G01*
G37*
%TD.AperFunction*%
%TD*%
%TO.P,C2,1*%
%TO.N,/Keyboard/sheet605ED2EB/4V2*%
%TA.AperFunction,SMDPad,CuDef*%
G36*
G01*
X158047500Y-92093500D02*
X157547500Y-92093500D01*
G75*
G02*
X157322500Y-91868500I0J225000D01*
G01*
X157322500Y-91418500D01*
G75*
G02*
X157547500Y-91193500I225000J0D01*
G01*
X158047500Y-91193500D01*
G75*
G02*
X158272500Y-91418500I0J-225000D01*
G01*
X158272500Y-91868500D01*
G75*
G02*
X158047500Y-92093500I-225000J0D01*
G01*
G37*
%TD.AperFunction*%
%TO.P,C2,2*%
%TO.N,/Keyboard/sheet605ED2EB/GND*%
%TA.AperFunction,SMDPad,CuDef*%
G36*
G01*
X158047500Y-90543500D02*
X157547500Y-90543500D01*
G75*
G02*
X157322500Y-90318500I0J225000D01*
G01*
X157322500Y-89868500D01*
G75*
G02*
X157547500Y-89643500I225000J0D01*
G01*
X158047500Y-89643500D01*
G75*
G02*
X158272500Y-89868500I0J-225000D01*
G01*
X158272500Y-90318500D01*
G75*
G02*
X158047500Y-90543500I-225000J0D01*
G01*
G37*
%TD.AperFunction*%
%TD*%
%TO.P,C2,1*%
%TO.N,/Keyboard/sheet605ED2EB/4V2*%
%TA.AperFunction,SMDPad,CuDef*%
G36*
G01*
X138997500Y-92093500D02*
X138497500Y-92093500D01*
G75*
G02*
X138272500Y-91868500I0J225000D01*
G01*
X138272500Y-91418500D01*
G75*
G02*
X138497500Y-91193500I225000J0D01*
G01*
X138997500Y-91193500D01*
G75*
G02*
X139222500Y-91418500I0J-225000D01*
G01*
X139222500Y-91868500D01*
G75*
G02*
X138997500Y-92093500I-225000J0D01*
G01*
G37*
%TD.AperFunction*%
%TO.P,C2,2*%
%TO.N,/Keyboard/sheet605ED2EB/GND*%
%TA.AperFunction,SMDPad,CuDef*%
G36*
G01*
X138997500Y-90543500D02*
X138497500Y-90543500D01*
G75*
G02*
X138272500Y-90318500I0J225000D01*
G01*
X138272500Y-89868500D01*
G75*
G02*
X138497500Y-89643500I225000J0D01*
G01*
X138997500Y-89643500D01*
G75*
G02*
X139222500Y-89868500I0J-225000D01*
G01*
X139222500Y-90318500D01*
G75*
G02*
X138997500Y-90543500I-225000J0D01*
G01*
G37*
%TD.AperFunction*%
%TD*%
%TO.P,C2,1*%
%TO.N,/Keyboard/sheet605ED2EB/4V2*%
%TA.AperFunction,SMDPad,CuDef*%
G36*
G01*
X119947500Y-92093500D02*
X119447500Y-92093500D01*
G75*
G02*
X119222500Y-91868500I0J225000D01*
G01*
X119222500Y-91418500D01*
G75*
G02*
X119447500Y-91193500I225000J0D01*
G01*
X119947500Y-91193500D01*
G75*
G02*
X120172500Y-91418500I0J-225000D01*
G01*
X120172500Y-91868500D01*
G75*
G02*
X119947500Y-92093500I-225000J0D01*
G01*
G37*
%TD.AperFunction*%
%TO.P,C2,2*%
%TO.N,/Keyboard/sheet605ED2EB/GND*%
%TA.AperFunction,SMDPad,CuDef*%
G36*
G01*
X119947500Y-90543500D02*
X119447500Y-90543500D01*
G75*
G02*
X119222500Y-90318500I0J225000D01*
G01*
X119222500Y-89868500D01*
G75*
G02*
X119447500Y-89643500I225000J0D01*
G01*
X119947500Y-89643500D01*
G75*
G02*
X120172500Y-89868500I0J-225000D01*
G01*
X120172500Y-90318500D01*
G75*
G02*
X119947500Y-90543500I-225000J0D01*
G01*
G37*
%TD.AperFunction*%
%TD*%
D10*
%TO.P,J5,1*%
%TO.N,/Keyboard/sheet605ED2EB/GND*%
X153606500Y-86932500D03*
%TA.AperFunction,SMDPad,CuDef*%
D11*
%TO.P,J5,2*%
%TO.N,CS1*%
G36*
X154606500Y-88182500D02*
G01*
X154606500Y-88482500D01*
X153406500Y-89682500D01*
X152606500Y-89682500D01*
X152606500Y-88182500D01*
X154606500Y-88182500D01*
G37*
%TD.AperFunction*%
%TA.AperFunction,SMDPad,CuDef*%
%TO.P,J5,3*%
%TO.N,CS2*%
G36*
X153406500Y-90182500D02*
G01*
X154606500Y-91382500D01*
X154606500Y-91682500D01*
X152606500Y-91682500D01*
X152606500Y-90182500D01*
X153406500Y-90182500D01*
G37*
%TD.AperFunction*%
%TA.AperFunction,SMDPad,CuDef*%
%TO.P,J5,4*%
%TO.N,CS3*%
G36*
X154606500Y-92182500D02*
G01*
X154606500Y-92482500D01*
X153406500Y-93682500D01*
X152606500Y-93682500D01*
X152606500Y-92182500D01*
X154606500Y-92182500D01*
G37*
%TD.AperFunction*%
%TA.AperFunction,SMDPad,CuDef*%
%TO.P,J5,5*%
%TO.N,CS4*%
G36*
X153406500Y-94182500D02*
G01*
X154606500Y-95382500D01*
X154606500Y-95682500D01*
X152606500Y-95682500D01*
X152606500Y-94182500D01*
X153406500Y-94182500D01*
G37*
%TD.AperFunction*%
%TA.AperFunction,SMDPad,CuDef*%
%TO.P,J5,6*%
%TO.N,CS5*%
G36*
X154606500Y-96182500D02*
G01*
X154606500Y-96482500D01*
X153406500Y-97682500D01*
X152606500Y-97682500D01*
X152606500Y-96182500D01*
X154606500Y-96182500D01*
G37*
%TD.AperFunction*%
%TA.AperFunction,SMDPad,CuDef*%
%TO.P,J5,7*%
%TO.N,CS6*%
G36*
X153406500Y-98182500D02*
G01*
X154606500Y-99382500D01*
X154606500Y-99682500D01*
X152606500Y-99682500D01*
X152606500Y-98182500D01*
X153406500Y-98182500D01*
G37*
%TD.AperFunction*%
%TA.AperFunction,SMDPad,CuDef*%
%TO.P,J5,8*%
%TO.N,CS7*%
G36*
X154606500Y-100182500D02*
G01*
X154606500Y-100482500D01*
X153406500Y-101682500D01*
X152606500Y-101682500D01*
X152606500Y-100182500D01*
X154606500Y-100182500D01*
G37*
%TD.AperFunction*%
%TA.AperFunction,SMDPad,CuDef*%
%TO.P,J5,9*%
%TO.N,CS8*%
G36*
X153406500Y-102182500D02*
G01*
X154606500Y-103382500D01*
X154606500Y-103682500D01*
X152606500Y-103682500D01*
X152606500Y-102182500D01*
X153406500Y-102182500D01*
G37*
%TD.AperFunction*%
%TA.AperFunction,SMDPad,CuDef*%
%TO.P,J5,10*%
%TO.N,/Keyboard/sheet605ED2EB/CS*%
G36*
X153706500Y-90182500D02*
G01*
X153706500Y-89682500D01*
X154606500Y-88782500D01*
X154606500Y-91082500D01*
X153706500Y-90182500D01*
G37*
%TD.AperFunction*%
%TA.AperFunction,SMDPad,CuDef*%
G36*
X153706500Y-94182500D02*
G01*
X153706500Y-93682500D01*
X154606500Y-92782500D01*
X154606500Y-95082500D01*
X153706500Y-94182500D01*
G37*
%TD.AperFunction*%
%TA.AperFunction,SMDPad,CuDef*%
G36*
X153706500Y-98182500D02*
G01*
X153706500Y-97682500D01*
X154606500Y-96782500D01*
X154606500Y-99082500D01*
X153706500Y-98182500D01*
G37*
%TD.AperFunction*%
%TA.AperFunction,SMDPad,CuDef*%
G36*
X153706500Y-102182500D02*
G01*
X153706500Y-101682500D01*
X154606500Y-100782500D01*
X154606500Y-103082500D01*
X153706500Y-102182500D01*
G37*
%TD.AperFunction*%
%TD*%
D10*
%TO.P,J5,1*%
%TO.N,/Keyboard/sheet605ED2EB/GND*%
X134556500Y-86932500D03*
%TA.AperFunction,SMDPad,CuDef*%
D11*
%TO.P,J5,2*%
%TO.N,CS1*%
G36*
X135556500Y-88182500D02*
G01*
X135556500Y-88482500D01*
X134356500Y-89682500D01*
X133556500Y-89682500D01*
X133556500Y-88182500D01*
X135556500Y-88182500D01*
G37*
%TD.AperFunction*%
%TA.AperFunction,SMDPad,CuDef*%
%TO.P,J5,3*%
%TO.N,CS2*%
G36*
X134356500Y-90182500D02*
G01*
X135556500Y-91382500D01*
X135556500Y-91682500D01*
X133556500Y-91682500D01*
X133556500Y-90182500D01*
X134356500Y-90182500D01*
G37*
%TD.AperFunction*%
%TA.AperFunction,SMDPad,CuDef*%
%TO.P,J5,4*%
%TO.N,CS3*%
G36*
X135556500Y-92182500D02*
G01*
X135556500Y-92482500D01*
X134356500Y-93682500D01*
X133556500Y-93682500D01*
X133556500Y-92182500D01*
X135556500Y-92182500D01*
G37*
%TD.AperFunction*%
%TA.AperFunction,SMDPad,CuDef*%
%TO.P,J5,5*%
%TO.N,CS4*%
G36*
X134356500Y-94182500D02*
G01*
X135556500Y-95382500D01*
X135556500Y-95682500D01*
X133556500Y-95682500D01*
X133556500Y-94182500D01*
X134356500Y-94182500D01*
G37*
%TD.AperFunction*%
%TA.AperFunction,SMDPad,CuDef*%
%TO.P,J5,6*%
%TO.N,CS5*%
G36*
X135556500Y-96182500D02*
G01*
X135556500Y-96482500D01*
X134356500Y-97682500D01*
X133556500Y-97682500D01*
X133556500Y-96182500D01*
X135556500Y-96182500D01*
G37*
%TD.AperFunction*%
%TA.AperFunction,SMDPad,CuDef*%
%TO.P,J5,7*%
%TO.N,CS6*%
G36*
X134356500Y-98182500D02*
G01*
X135556500Y-99382500D01*
X135556500Y-99682500D01*
X133556500Y-99682500D01*
X133556500Y-98182500D01*
X134356500Y-98182500D01*
G37*
%TD.AperFunction*%
%TA.AperFunction,SMDPad,CuDef*%
%TO.P,J5,8*%
%TO.N,CS7*%
G36*
X135556500Y-100182500D02*
G01*
X135556500Y-100482500D01*
X134356500Y-101682500D01*
X133556500Y-101682500D01*
X133556500Y-100182500D01*
X135556500Y-100182500D01*
G37*
%TD.AperFunction*%
%TA.AperFunction,SMDPad,CuDef*%
%TO.P,J5,9*%
%TO.N,CS8*%
G36*
X134356500Y-102182500D02*
G01*
X135556500Y-103382500D01*
X135556500Y-103682500D01*
X133556500Y-103682500D01*
X133556500Y-102182500D01*
X134356500Y-102182500D01*
G37*
%TD.AperFunction*%
%TA.AperFunction,SMDPad,CuDef*%
%TO.P,J5,10*%
%TO.N,/Keyboard/sheet605ED2EB/CS*%
G36*
X134656500Y-90182500D02*
G01*
X134656500Y-89682500D01*
X135556500Y-88782500D01*
X135556500Y-91082500D01*
X134656500Y-90182500D01*
G37*
%TD.AperFunction*%
%TA.AperFunction,SMDPad,CuDef*%
G36*
X134656500Y-94182500D02*
G01*
X134656500Y-93682500D01*
X135556500Y-92782500D01*
X135556500Y-95082500D01*
X134656500Y-94182500D01*
G37*
%TD.AperFunction*%
%TA.AperFunction,SMDPad,CuDef*%
G36*
X134656500Y-98182500D02*
G01*
X134656500Y-97682500D01*
X135556500Y-96782500D01*
X135556500Y-99082500D01*
X134656500Y-98182500D01*
G37*
%TD.AperFunction*%
%TA.AperFunction,SMDPad,CuDef*%
G36*
X134656500Y-102182500D02*
G01*
X134656500Y-101682500D01*
X135556500Y-100782500D01*
X135556500Y-103082500D01*
X134656500Y-102182500D01*
G37*
%TD.AperFunction*%
%TD*%
D10*
%TO.P,J5,1*%
%TO.N,/Keyboard/sheet605ED2EB/GND*%
X115506500Y-86932500D03*
%TA.AperFunction,SMDPad,CuDef*%
D11*
%TO.P,J5,2*%
%TO.N,CS1*%
G36*
X116506500Y-88182500D02*
G01*
X116506500Y-88482500D01*
X115306500Y-89682500D01*
X114506500Y-89682500D01*
X114506500Y-88182500D01*
X116506500Y-88182500D01*
G37*
%TD.AperFunction*%
%TA.AperFunction,SMDPad,CuDef*%
%TO.P,J5,3*%
%TO.N,CS2*%
G36*
X115306500Y-90182500D02*
G01*
X116506500Y-91382500D01*
X116506500Y-91682500D01*
X114506500Y-91682500D01*
X114506500Y-90182500D01*
X115306500Y-90182500D01*
G37*
%TD.AperFunction*%
%TA.AperFunction,SMDPad,CuDef*%
%TO.P,J5,4*%
%TO.N,CS3*%
G36*
X116506500Y-92182500D02*
G01*
X116506500Y-92482500D01*
X115306500Y-93682500D01*
X114506500Y-93682500D01*
X114506500Y-92182500D01*
X116506500Y-92182500D01*
G37*
%TD.AperFunction*%
%TA.AperFunction,SMDPad,CuDef*%
%TO.P,J5,5*%
%TO.N,CS4*%
G36*
X115306500Y-94182500D02*
G01*
X116506500Y-95382500D01*
X116506500Y-95682500D01*
X114506500Y-95682500D01*
X114506500Y-94182500D01*
X115306500Y-94182500D01*
G37*
%TD.AperFunction*%
%TA.AperFunction,SMDPad,CuDef*%
%TO.P,J5,6*%
%TO.N,CS5*%
G36*
X116506500Y-96182500D02*
G01*
X116506500Y-96482500D01*
X115306500Y-97682500D01*
X114506500Y-97682500D01*
X114506500Y-96182500D01*
X116506500Y-96182500D01*
G37*
%TD.AperFunction*%
%TA.AperFunction,SMDPad,CuDef*%
%TO.P,J5,7*%
%TO.N,CS6*%
G36*
X115306500Y-98182500D02*
G01*
X116506500Y-99382500D01*
X116506500Y-99682500D01*
X114506500Y-99682500D01*
X114506500Y-98182500D01*
X115306500Y-98182500D01*
G37*
%TD.AperFunction*%
%TA.AperFunction,SMDPad,CuDef*%
%TO.P,J5,8*%
%TO.N,CS7*%
G36*
X116506500Y-100182500D02*
G01*
X116506500Y-100482500D01*
X115306500Y-101682500D01*
X114506500Y-101682500D01*
X114506500Y-100182500D01*
X116506500Y-100182500D01*
G37*
%TD.AperFunction*%
%TA.AperFunction,SMDPad,CuDef*%
%TO.P,J5,9*%
%TO.N,CS8*%
G36*
X115306500Y-102182500D02*
G01*
X116506500Y-103382500D01*
X116506500Y-103682500D01*
X114506500Y-103682500D01*
X114506500Y-102182500D01*
X115306500Y-102182500D01*
G37*
%TD.AperFunction*%
%TA.AperFunction,SMDPad,CuDef*%
%TO.P,J5,10*%
%TO.N,/Keyboard/sheet605ED2EB/CS*%
G36*
X115606500Y-90182500D02*
G01*
X115606500Y-89682500D01*
X116506500Y-88782500D01*
X116506500Y-91082500D01*
X115606500Y-90182500D01*
G37*
%TD.AperFunction*%
%TA.AperFunction,SMDPad,CuDef*%
G36*
X115606500Y-94182500D02*
G01*
X115606500Y-93682500D01*
X116506500Y-92782500D01*
X116506500Y-95082500D01*
X115606500Y-94182500D01*
G37*
%TD.AperFunction*%
%TA.AperFunction,SMDPad,CuDef*%
G36*
X115606500Y-98182500D02*
G01*
X115606500Y-97682500D01*
X116506500Y-96782500D01*
X116506500Y-99082500D01*
X115606500Y-98182500D01*
G37*
%TD.AperFunction*%
%TA.AperFunction,SMDPad,CuDef*%
G36*
X115606500Y-102182500D02*
G01*
X115606500Y-101682500D01*
X116506500Y-100782500D01*
X116506500Y-103082500D01*
X115606500Y-102182500D01*
G37*
%TD.AperFunction*%
%TD*%
D12*
%TO.P,J1,1*%
%TO.N,/Keyboard/sheet605ED2EB/GND*%
X158365500Y-89217500D03*
%TO.P,J1,2*%
%TO.N,N/C*%
X158865500Y-89217500D03*
%TO.P,J1,3*%
%TO.N,/Keyboard/sheet605ED2EB/GND*%
X159365500Y-89217500D03*
%TO.P,J1,4*%
%TO.N,Net-(C5-Pad1)*%
X159865500Y-89217500D03*
%TO.P,J1,5*%
%TO.N,Net-(C5-Pad2)*%
X160365500Y-89217500D03*
%TO.P,J1,6*%
%TO.N,Net-(C6-Pad1)*%
X160865500Y-89217500D03*
%TO.P,J1,7*%
%TO.N,Net-(C6-Pad2)*%
X161365500Y-89217500D03*
%TO.P,J1,8*%
%TO.N,/Keyboard/sheet605ED2EB/4V2*%
X161865500Y-89217500D03*
%TO.P,J1,9*%
%TO.N,/Keyboard/sheet605ED2EB/3V3*%
X162365500Y-89217500D03*
%TO.P,J1,10*%
%TO.N,/Keyboard/sheet605ED2EB/CS*%
X162865500Y-89217500D03*
%TO.P,J1,11*%
%TO.N,/Keyboard/sheet605ED2EB/RESET*%
X163365500Y-89217500D03*
%TO.P,J1,12*%
%TO.N,/Keyboard/sheet605ED2EB/D-C*%
X163865500Y-89217500D03*
%TO.P,J1,13*%
%TO.N,/Keyboard/sheet605ED2EB/SCLK*%
X164365500Y-89217500D03*
%TO.P,J1,14*%
%TO.N,/Keyboard/sheet605ED2EB/SDIN*%
X164865500Y-89217500D03*
%TO.P,J1,15*%
%TO.N,Net-(C4-Pad1)*%
X165365500Y-89217500D03*
%TO.P,J1,16*%
%TO.N,/Keyboard/sheet605ED2EB/3V3*%
X165865500Y-89217500D03*
D13*
%TO.P,J1,0*%
%TO.N,N/C*%
X157730500Y-86407500D03*
X166500500Y-86407500D03*
%TD*%
D12*
%TO.P,J1,1*%
%TO.N,/Keyboard/sheet605ED2EB/GND*%
X139315500Y-89217500D03*
%TO.P,J1,2*%
%TO.N,N/C*%
X139815500Y-89217500D03*
%TO.P,J1,3*%
%TO.N,/Keyboard/sheet605ED2EB/GND*%
X140315500Y-89217500D03*
%TO.P,J1,4*%
%TO.N,Net-(C5-Pad1)*%
X140815500Y-89217500D03*
%TO.P,J1,5*%
%TO.N,Net-(C5-Pad2)*%
X141315500Y-89217500D03*
%TO.P,J1,6*%
%TO.N,Net-(C6-Pad1)*%
X141815500Y-89217500D03*
%TO.P,J1,7*%
%TO.N,Net-(C6-Pad2)*%
X142315500Y-89217500D03*
%TO.P,J1,8*%
%TO.N,/Keyboard/sheet605ED2EB/4V2*%
X142815500Y-89217500D03*
%TO.P,J1,9*%
%TO.N,/Keyboard/sheet605ED2EB/3V3*%
X143315500Y-89217500D03*
%TO.P,J1,10*%
%TO.N,/Keyboard/sheet605ED2EB/CS*%
X143815500Y-89217500D03*
%TO.P,J1,11*%
%TO.N,/Keyboard/sheet605ED2EB/RESET*%
X144315500Y-89217500D03*
%TO.P,J1,12*%
%TO.N,/Keyboard/sheet605ED2EB/D-C*%
X144815500Y-89217500D03*
%TO.P,J1,13*%
%TO.N,/Keyboard/sheet605ED2EB/SCLK*%
X145315500Y-89217500D03*
%TO.P,J1,14*%
%TO.N,/Keyboard/sheet605ED2EB/SDIN*%
X145815500Y-89217500D03*
%TO.P,J1,15*%
%TO.N,Net-(C4-Pad1)*%
X146315500Y-89217500D03*
%TO.P,J1,16*%
%TO.N,/Keyboard/sheet605ED2EB/3V3*%
X146815500Y-89217500D03*
D13*
%TO.P,J1,0*%
%TO.N,N/C*%
X138680500Y-86407500D03*
X147450500Y-86407500D03*
%TD*%
D12*
%TO.P,J1,1*%
%TO.N,/Keyboard/sheet605ED2EB/GND*%
X120265500Y-89217500D03*
%TO.P,J1,2*%
%TO.N,N/C*%
X120765500Y-89217500D03*
%TO.P,J1,3*%
%TO.N,/Keyboard/sheet605ED2EB/GND*%
X121265500Y-89217500D03*
%TO.P,J1,4*%
%TO.N,Net-(C5-Pad1)*%
X121765500Y-89217500D03*
%TO.P,J1,5*%
%TO.N,Net-(C5-Pad2)*%
X122265500Y-89217500D03*
%TO.P,J1,6*%
%TO.N,Net-(C6-Pad1)*%
X122765500Y-89217500D03*
%TO.P,J1,7*%
%TO.N,Net-(C6-Pad2)*%
X123265500Y-89217500D03*
%TO.P,J1,8*%
%TO.N,/Keyboard/sheet605ED2EB/4V2*%
X123765500Y-89217500D03*
%TO.P,J1,9*%
%TO.N,/Keyboard/sheet605ED2EB/3V3*%
X124265500Y-89217500D03*
%TO.P,J1,10*%
%TO.N,/Keyboard/sheet605ED2EB/CS*%
X124765500Y-89217500D03*
%TO.P,J1,11*%
%TO.N,/Keyboard/sheet605ED2EB/RESET*%
X125265500Y-89217500D03*
%TO.P,J1,12*%
%TO.N,/Keyboard/sheet605ED2EB/D-C*%
X125765500Y-89217500D03*
%TO.P,J1,13*%
%TO.N,/Keyboard/sheet605ED2EB/SCLK*%
X126265500Y-89217500D03*
%TO.P,J1,14*%
%TO.N,/Keyboard/sheet605ED2EB/SDIN*%
X126765500Y-89217500D03*
%TO.P,J1,15*%
%TO.N,Net-(C4-Pad1)*%
X127265500Y-89217500D03*
%TO.P,J1,16*%
%TO.N,/Keyboard/sheet605ED2EB/3V3*%
X127765500Y-89217500D03*
D13*
%TO.P,J1,0*%
%TO.N,N/C*%
X119630500Y-86407500D03*
X128400500Y-86407500D03*
%TD*%
D14*
%TO.P,SW1,2*%
%TO.N,Net-(D1-Pad2)*%
X158305500Y-93662500D03*
%TO.P,SW1,1*%
%TO.N,/Keyboard/sheet605ED2EB/KeyRow*%
X164655500Y-91122500D03*
%TD*%
%TO.P,SW1,2*%
%TO.N,Net-(D1-Pad2)*%
X139255500Y-93662500D03*
%TO.P,SW1,1*%
%TO.N,/Keyboard/sheet605ED2EB/KeyRow*%
X145605500Y-91122500D03*
%TD*%
%TO.P,SW1,2*%
%TO.N,Net-(D1-Pad2)*%
X120205500Y-93662500D03*
%TO.P,SW1,1*%
%TO.N,/Keyboard/sheet605ED2EB/KeyRow*%
X126555500Y-91122500D03*
%TD*%
%TO.P,C4,1*%
%TO.N,Net-(C4-Pad1)*%
%TA.AperFunction,SMDPad,CuDef*%
G36*
G01*
X166134500Y-92650500D02*
X166134500Y-93150500D01*
G75*
G02*
X165909500Y-93375500I-225000J0D01*
G01*
X165459500Y-93375500D01*
G75*
G02*
X165234500Y-93150500I0J225000D01*
G01*
X165234500Y-92650500D01*
G75*
G02*
X165459500Y-92425500I225000J0D01*
G01*
X165909500Y-92425500D01*
G75*
G02*
X166134500Y-92650500I0J-225000D01*
G01*
G37*
%TD.AperFunction*%
%TO.P,C4,2*%
%TO.N,/Keyboard/sheet605ED2EB/GND*%
%TA.AperFunction,SMDPad,CuDef*%
G36*
G01*
X164584500Y-92650500D02*
X164584500Y-93150500D01*
G75*
G02*
X164359500Y-93375500I-225000J0D01*
G01*
X163909500Y-93375500D01*
G75*
G02*
X163684500Y-93150500I0J225000D01*
G01*
X163684500Y-92650500D01*
G75*
G02*
X163909500Y-92425500I225000J0D01*
G01*
X164359500Y-92425500D01*
G75*
G02*
X164584500Y-92650500I0J-225000D01*
G01*
G37*
%TD.AperFunction*%
%TD*%
%TO.P,C4,1*%
%TO.N,Net-(C4-Pad1)*%
%TA.AperFunction,SMDPad,CuDef*%
G36*
G01*
X147084500Y-92650500D02*
X147084500Y-93150500D01*
G75*
G02*
X146859500Y-93375500I-225000J0D01*
G01*
X146409500Y-93375500D01*
G75*
G02*
X146184500Y-93150500I0J225000D01*
G01*
X146184500Y-92650500D01*
G75*
G02*
X146409500Y-92425500I225000J0D01*
G01*
X146859500Y-92425500D01*
G75*
G02*
X147084500Y-92650500I0J-225000D01*
G01*
G37*
%TD.AperFunction*%
%TO.P,C4,2*%
%TO.N,/Keyboard/sheet605ED2EB/GND*%
%TA.AperFunction,SMDPad,CuDef*%
G36*
G01*
X145534500Y-92650500D02*
X145534500Y-93150500D01*
G75*
G02*
X145309500Y-93375500I-225000J0D01*
G01*
X144859500Y-93375500D01*
G75*
G02*
X144634500Y-93150500I0J225000D01*
G01*
X144634500Y-92650500D01*
G75*
G02*
X144859500Y-92425500I225000J0D01*
G01*
X145309500Y-92425500D01*
G75*
G02*
X145534500Y-92650500I0J-225000D01*
G01*
G37*
%TD.AperFunction*%
%TD*%
%TO.P,C4,1*%
%TO.N,Net-(C4-Pad1)*%
%TA.AperFunction,SMDPad,CuDef*%
G36*
G01*
X128034500Y-92650500D02*
X128034500Y-93150500D01*
G75*
G02*
X127809500Y-93375500I-225000J0D01*
G01*
X127359500Y-93375500D01*
G75*
G02*
X127134500Y-93150500I0J225000D01*
G01*
X127134500Y-92650500D01*
G75*
G02*
X127359500Y-92425500I225000J0D01*
G01*
X127809500Y-92425500D01*
G75*
G02*
X128034500Y-92650500I0J-225000D01*
G01*
G37*
%TD.AperFunction*%
%TO.P,C4,2*%
%TO.N,/Keyboard/sheet605ED2EB/GND*%
%TA.AperFunction,SMDPad,CuDef*%
G36*
G01*
X126484500Y-92650500D02*
X126484500Y-93150500D01*
G75*
G02*
X126259500Y-93375500I-225000J0D01*
G01*
X125809500Y-93375500D01*
G75*
G02*
X125584500Y-93150500I0J225000D01*
G01*
X125584500Y-92650500D01*
G75*
G02*
X125809500Y-92425500I225000J0D01*
G01*
X126259500Y-92425500D01*
G75*
G02*
X126484500Y-92650500I0J-225000D01*
G01*
G37*
%TD.AperFunction*%
%TD*%
D10*
%TO.P,J6,5*%
%TO.N,CS4*%
X170624500Y-94932500D03*
%TO.P,J6,4*%
%TO.N,CS3*%
X170624500Y-92932500D03*
%TO.P,J6,3*%
%TO.N,CS2*%
X170624500Y-90932500D03*
%TO.P,J6,2*%
%TO.N,CS1*%
X170624500Y-88932500D03*
%TO.P,J6,6*%
%TO.N,CS5*%
X170624500Y-96932500D03*
%TO.P,J6,1*%
%TO.N,/Keyboard/sheet605ED2EB/GND*%
X170624500Y-86932500D03*
%TO.P,J6,7*%
%TO.N,CS6*%
X170624500Y-98932500D03*
%TO.P,J6,8*%
%TO.N,CS7*%
X170624500Y-100932500D03*
%TO.P,J6,9*%
%TO.N,CS8*%
X170624500Y-102932500D03*
%TD*%
%TO.P,J6,5*%
%TO.N,CS4*%
X151574500Y-94932500D03*
%TO.P,J6,4*%
%TO.N,CS3*%
X151574500Y-92932500D03*
%TO.P,J6,3*%
%TO.N,CS2*%
X151574500Y-90932500D03*
%TO.P,J6,2*%
%TO.N,CS1*%
X151574500Y-88932500D03*
%TO.P,J6,6*%
%TO.N,CS5*%
X151574500Y-96932500D03*
%TO.P,J6,1*%
%TO.N,/Keyboard/sheet605ED2EB/GND*%
X151574500Y-86932500D03*
%TO.P,J6,7*%
%TO.N,CS6*%
X151574500Y-98932500D03*
%TO.P,J6,8*%
%TO.N,CS7*%
X151574500Y-100932500D03*
%TO.P,J6,9*%
%TO.N,CS8*%
X151574500Y-102932500D03*
%TD*%
%TO.P,J6,5*%
%TO.N,CS4*%
X132524500Y-94932500D03*
%TO.P,J6,4*%
%TO.N,CS3*%
X132524500Y-92932500D03*
%TO.P,J6,3*%
%TO.N,CS2*%
X132524500Y-90932500D03*
%TO.P,J6,2*%
%TO.N,CS1*%
X132524500Y-88932500D03*
%TO.P,J6,6*%
%TO.N,CS5*%
X132524500Y-96932500D03*
%TO.P,J6,1*%
%TO.N,/Keyboard/sheet605ED2EB/GND*%
X132524500Y-86932500D03*
%TO.P,J6,7*%
%TO.N,CS6*%
X132524500Y-98932500D03*
%TO.P,J6,8*%
%TO.N,CS7*%
X132524500Y-100932500D03*
%TO.P,J6,9*%
%TO.N,CS8*%
X132524500Y-102932500D03*
%TD*%
D15*
%TO.P,J2,1*%
%TO.N,/Keyboard/sheet605ED2EB/KeyCol*%
X168084500Y-86169500D03*
%TD*%
%TO.P,J2,1*%
%TO.N,/Keyboard/sheet605ED2EB/KeyCol*%
X149034500Y-86169500D03*
%TD*%
%TO.P,J2,1*%
%TO.N,/Keyboard/sheet605ED2EB/KeyCol*%
X129984500Y-86169500D03*
%TD*%
D16*
%TO.P,D1,1*%
%TO.N,/Keyboard/sheet605ED2EB/KeyCol*%
X159863500Y-98234500D03*
%TO.P,D1,2*%
%TO.N,Net-(D1-Pad2)*%
X157763500Y-98234500D03*
%TD*%
%TO.P,D1,1*%
%TO.N,/Keyboard/sheet605ED2EB/KeyCol*%
X140813500Y-98234500D03*
%TO.P,D1,2*%
%TO.N,Net-(D1-Pad2)*%
X138713500Y-98234500D03*
%TD*%
%TO.P,D1,1*%
%TO.N,/Keyboard/sheet605ED2EB/KeyCol*%
X121763500Y-98234500D03*
%TO.P,D1,2*%
%TO.N,Net-(D1-Pad2)*%
X119663500Y-98234500D03*
%TD*%
D15*
%TO.P,J7,1*%
%TO.N,/Keyboard/sheet605ED2EB/KeyCol*%
X156146500Y-103695500D03*
%TD*%
%TO.P,J7,1*%
%TO.N,/Keyboard/sheet605ED2EB/KeyCol*%
X137096500Y-103695500D03*
%TD*%
%TO.P,J7,1*%
%TO.N,/Keyboard/sheet605ED2EB/KeyCol*%
X118046500Y-103695500D03*
%TD*%
%TO.P,J9,1*%
%TO.N,/Keyboard/sheet605ED2EB/KeyCol*%
X168084500Y-103695500D03*
%TD*%
%TO.P,J9,1*%
%TO.N,/Keyboard/sheet605ED2EB/KeyCol*%
X149034500Y-103695500D03*
%TD*%
%TO.P,J9,1*%
%TO.N,/Keyboard/sheet605ED2EB/KeyCol*%
X129984500Y-103695500D03*
%TD*%
%TO.P,J8,1*%
%TO.N,/Keyboard/sheet605ED2EB/KeyCol*%
X156146500Y-86169500D03*
%TD*%
%TO.P,J8,1*%
%TO.N,/Keyboard/sheet605ED2EB/KeyCol*%
X137096500Y-86169500D03*
%TD*%
%TO.P,J8,1*%
%TO.N,/Keyboard/sheet605ED2EB/KeyCol*%
X118046500Y-86169500D03*
%TD*%
D16*
%TO.P,D1,2*%
%TO.N,Net-(D1-Pad2)*%
X100613500Y-98234500D03*
%TO.P,D1,1*%
%TO.N,/Keyboard/sheet605ED2EB/KeyCol*%
X102713500Y-98234500D03*
%TD*%
D13*
%TO.P,J1,0*%
%TO.N,N/C*%
X109350500Y-86407500D03*
X100580500Y-86407500D03*
D12*
%TO.P,J1,16*%
%TO.N,/Keyboard/sheet605ED2EB/3V3*%
X108715500Y-89217500D03*
%TO.P,J1,15*%
%TO.N,Net-(C4-Pad1)*%
X108215500Y-89217500D03*
%TO.P,J1,14*%
%TO.N,/Keyboard/sheet605ED2EB/SDIN*%
X107715500Y-89217500D03*
%TO.P,J1,13*%
%TO.N,/Keyboard/sheet605ED2EB/SCLK*%
X107215500Y-89217500D03*
%TO.P,J1,12*%
%TO.N,/Keyboard/sheet605ED2EB/D-C*%
X106715500Y-89217500D03*
%TO.P,J1,11*%
%TO.N,/Keyboard/sheet605ED2EB/RESET*%
X106215500Y-89217500D03*
%TO.P,J1,10*%
%TO.N,/Keyboard/sheet605ED2EB/CS*%
X105715500Y-89217500D03*
%TO.P,J1,9*%
%TO.N,/Keyboard/sheet605ED2EB/3V3*%
X105215500Y-89217500D03*
%TO.P,J1,8*%
%TO.N,/Keyboard/sheet605ED2EB/4V2*%
X104715500Y-89217500D03*
%TO.P,J1,7*%
%TO.N,Net-(C6-Pad2)*%
X104215500Y-89217500D03*
%TO.P,J1,6*%
%TO.N,Net-(C6-Pad1)*%
X103715500Y-89217500D03*
%TO.P,J1,5*%
%TO.N,Net-(C5-Pad2)*%
X103215500Y-89217500D03*
%TO.P,J1,4*%
%TO.N,Net-(C5-Pad1)*%
X102715500Y-89217500D03*
%TO.P,J1,3*%
%TO.N,/Keyboard/sheet605ED2EB/GND*%
X102215500Y-89217500D03*
%TO.P,J1,2*%
%TO.N,N/C*%
X101715500Y-89217500D03*
%TO.P,J1,1*%
%TO.N,/Keyboard/sheet605ED2EB/GND*%
X101215500Y-89217500D03*
%TD*%
D14*
%TO.P,SW1,1*%
%TO.N,/Keyboard/sheet605ED2EB/KeyRow*%
X107505500Y-91122500D03*
%TO.P,SW1,2*%
%TO.N,Net-(D1-Pad2)*%
X101155500Y-93662500D03*
%TD*%
%TA.AperFunction,SMDPad,CuDef*%
D11*
%TO.P,J5,10*%
%TO.N,/Keyboard/sheet605ED2EB/CS*%
G36*
X96556500Y-102182500D02*
G01*
X96556500Y-101682500D01*
X97456500Y-100782500D01*
X97456500Y-103082500D01*
X96556500Y-102182500D01*
G37*
%TD.AperFunction*%
%TA.AperFunction,SMDPad,CuDef*%
G36*
X96556500Y-98182500D02*
G01*
X96556500Y-97682500D01*
X97456500Y-96782500D01*
X97456500Y-99082500D01*
X96556500Y-98182500D01*
G37*
%TD.AperFunction*%
%TA.AperFunction,SMDPad,CuDef*%
G36*
X96556500Y-94182500D02*
G01*
X96556500Y-93682500D01*
X97456500Y-92782500D01*
X97456500Y-95082500D01*
X96556500Y-94182500D01*
G37*
%TD.AperFunction*%
%TA.AperFunction,SMDPad,CuDef*%
G36*
X96556500Y-90182500D02*
G01*
X96556500Y-89682500D01*
X97456500Y-88782500D01*
X97456500Y-91082500D01*
X96556500Y-90182500D01*
G37*
%TD.AperFunction*%
%TA.AperFunction,SMDPad,CuDef*%
%TO.P,J5,9*%
%TO.N,CS8*%
G36*
X96256500Y-102182500D02*
G01*
X97456500Y-103382500D01*
X97456500Y-103682500D01*
X95456500Y-103682500D01*
X95456500Y-102182500D01*
X96256500Y-102182500D01*
G37*
%TD.AperFunction*%
%TA.AperFunction,SMDPad,CuDef*%
%TO.P,J5,8*%
%TO.N,CS7*%
G36*
X97456500Y-100182500D02*
G01*
X97456500Y-100482500D01*
X96256500Y-101682500D01*
X95456500Y-101682500D01*
X95456500Y-100182500D01*
X97456500Y-100182500D01*
G37*
%TD.AperFunction*%
%TA.AperFunction,SMDPad,CuDef*%
%TO.P,J5,7*%
%TO.N,CS6*%
G36*
X96256500Y-98182500D02*
G01*
X97456500Y-99382500D01*
X97456500Y-99682500D01*
X95456500Y-99682500D01*
X95456500Y-98182500D01*
X96256500Y-98182500D01*
G37*
%TD.AperFunction*%
%TA.AperFunction,SMDPad,CuDef*%
%TO.P,J5,6*%
%TO.N,CS5*%
G36*
X97456500Y-96182500D02*
G01*
X97456500Y-96482500D01*
X96256500Y-97682500D01*
X95456500Y-97682500D01*
X95456500Y-96182500D01*
X97456500Y-96182500D01*
G37*
%TD.AperFunction*%
%TA.AperFunction,SMDPad,CuDef*%
%TO.P,J5,5*%
%TO.N,CS4*%
G36*
X96256500Y-94182500D02*
G01*
X97456500Y-95382500D01*
X97456500Y-95682500D01*
X95456500Y-95682500D01*
X95456500Y-94182500D01*
X96256500Y-94182500D01*
G37*
%TD.AperFunction*%
%TA.AperFunction,SMDPad,CuDef*%
%TO.P,J5,4*%
%TO.N,CS3*%
G36*
X97456500Y-92182500D02*
G01*
X97456500Y-92482500D01*
X96256500Y-93682500D01*
X95456500Y-93682500D01*
X95456500Y-92182500D01*
X97456500Y-92182500D01*
G37*
%TD.AperFunction*%
%TA.AperFunction,SMDPad,CuDef*%
%TO.P,J5,3*%
%TO.N,CS2*%
G36*
X96256500Y-90182500D02*
G01*
X97456500Y-91382500D01*
X97456500Y-91682500D01*
X95456500Y-91682500D01*
X95456500Y-90182500D01*
X96256500Y-90182500D01*
G37*
%TD.AperFunction*%
%TA.AperFunction,SMDPad,CuDef*%
%TO.P,J5,2*%
%TO.N,CS1*%
G36*
X97456500Y-88182500D02*
G01*
X97456500Y-88482500D01*
X96256500Y-89682500D01*
X95456500Y-89682500D01*
X95456500Y-88182500D01*
X97456500Y-88182500D01*
G37*
%TD.AperFunction*%
D10*
%TO.P,J5,1*%
%TO.N,/Keyboard/sheet605ED2EB/GND*%
X96456500Y-86932500D03*
%TD*%
%TO.P,J6,9*%
%TO.N,CS8*%
X113474500Y-102932500D03*
%TO.P,J6,8*%
%TO.N,CS7*%
X113474500Y-100932500D03*
%TO.P,J6,7*%
%TO.N,CS6*%
X113474500Y-98932500D03*
%TO.P,J6,1*%
%TO.N,/Keyboard/sheet605ED2EB/GND*%
X113474500Y-86932500D03*
%TO.P,J6,6*%
%TO.N,CS5*%
X113474500Y-96932500D03*
%TO.P,J6,2*%
%TO.N,CS1*%
X113474500Y-88932500D03*
%TO.P,J6,3*%
%TO.N,CS2*%
X113474500Y-90932500D03*
%TO.P,J6,4*%
%TO.N,CS3*%
X113474500Y-92932500D03*
%TO.P,J6,5*%
%TO.N,CS4*%
X113474500Y-94932500D03*
%TD*%
D15*
%TO.P,J9,1*%
%TO.N,/Keyboard/sheet605ED2EB/KeyCol*%
X110934500Y-103695500D03*
%TD*%
%TO.P,J8,1*%
%TO.N,/Keyboard/sheet605ED2EB/KeyCol*%
X98996500Y-86169500D03*
%TD*%
%TO.P,J7,1*%
%TO.N,/Keyboard/sheet605ED2EB/KeyCol*%
X98996500Y-103695500D03*
%TD*%
%TO.P,J2,1*%
%TO.N,/Keyboard/sheet605ED2EB/KeyCol*%
X110934500Y-86169500D03*
%TD*%
%TO.P,C4,2*%
%TO.N,/Keyboard/sheet605ED2EB/GND*%
%TA.AperFunction,SMDPad,CuDef*%
G36*
G01*
X107434500Y-92650500D02*
X107434500Y-93150500D01*
G75*
G02*
X107209500Y-93375500I-225000J0D01*
G01*
X106759500Y-93375500D01*
G75*
G02*
X106534500Y-93150500I0J225000D01*
G01*
X106534500Y-92650500D01*
G75*
G02*
X106759500Y-92425500I225000J0D01*
G01*
X107209500Y-92425500D01*
G75*
G02*
X107434500Y-92650500I0J-225000D01*
G01*
G37*
%TD.AperFunction*%
%TO.P,C4,1*%
%TO.N,Net-(C4-Pad1)*%
%TA.AperFunction,SMDPad,CuDef*%
G36*
G01*
X108984500Y-92650500D02*
X108984500Y-93150500D01*
G75*
G02*
X108759500Y-93375500I-225000J0D01*
G01*
X108309500Y-93375500D01*
G75*
G02*
X108084500Y-93150500I0J225000D01*
G01*
X108084500Y-92650500D01*
G75*
G02*
X108309500Y-92425500I225000J0D01*
G01*
X108759500Y-92425500D01*
G75*
G02*
X108984500Y-92650500I0J-225000D01*
G01*
G37*
%TD.AperFunction*%
%TD*%
%TO.P,C6,2*%
%TO.N,Net-(C6-Pad2)*%
%TA.AperFunction,SMDPad,CuDef*%
G36*
G01*
X103895500Y-92816500D02*
X103895500Y-92476500D01*
G75*
G02*
X104035500Y-92336500I140000J0D01*
G01*
X104315500Y-92336500D01*
G75*
G02*
X104455500Y-92476500I0J-140000D01*
G01*
X104455500Y-92816500D01*
G75*
G02*
X104315500Y-92956500I-140000J0D01*
G01*
X104035500Y-92956500D01*
G75*
G02*
X103895500Y-92816500I0J140000D01*
G01*
G37*
%TD.AperFunction*%
%TO.P,C6,1*%
%TO.N,Net-(C6-Pad1)*%
%TA.AperFunction,SMDPad,CuDef*%
G36*
G01*
X102935500Y-92816500D02*
X102935500Y-92476500D01*
G75*
G02*
X103075500Y-92336500I140000J0D01*
G01*
X103355500Y-92336500D01*
G75*
G02*
X103495500Y-92476500I0J-140000D01*
G01*
X103495500Y-92816500D01*
G75*
G02*
X103355500Y-92956500I-140000J0D01*
G01*
X103075500Y-92956500D01*
G75*
G02*
X102935500Y-92816500I0J140000D01*
G01*
G37*
%TD.AperFunction*%
%TD*%
%TO.P,C5,2*%
%TO.N,Net-(C5-Pad2)*%
%TA.AperFunction,SMDPad,CuDef*%
G36*
G01*
X102526500Y-91673500D02*
X102526500Y-91333500D01*
G75*
G02*
X102666500Y-91193500I140000J0D01*
G01*
X102946500Y-91193500D01*
G75*
G02*
X103086500Y-91333500I0J-140000D01*
G01*
X103086500Y-91673500D01*
G75*
G02*
X102946500Y-91813500I-140000J0D01*
G01*
X102666500Y-91813500D01*
G75*
G02*
X102526500Y-91673500I0J140000D01*
G01*
G37*
%TD.AperFunction*%
%TO.P,C5,1*%
%TO.N,Net-(C5-Pad1)*%
%TA.AperFunction,SMDPad,CuDef*%
G36*
G01*
X101566500Y-91673500D02*
X101566500Y-91333500D01*
G75*
G02*
X101706500Y-91193500I140000J0D01*
G01*
X101986500Y-91193500D01*
G75*
G02*
X102126500Y-91333500I0J-140000D01*
G01*
X102126500Y-91673500D01*
G75*
G02*
X101986500Y-91813500I-140000J0D01*
G01*
X101706500Y-91813500D01*
G75*
G02*
X101566500Y-91673500I0J140000D01*
G01*
G37*
%TD.AperFunction*%
%TD*%
%TO.P,C3,2*%
%TO.N,/Keyboard/sheet605ED2EB/GND*%
%TA.AperFunction,SMDPad,CuDef*%
G36*
G01*
X98531500Y-88001500D02*
X98191500Y-88001500D01*
G75*
G02*
X98051500Y-87861500I0J140000D01*
G01*
X98051500Y-87581500D01*
G75*
G02*
X98191500Y-87441500I140000J0D01*
G01*
X98531500Y-87441500D01*
G75*
G02*
X98671500Y-87581500I0J-140000D01*
G01*
X98671500Y-87861500D01*
G75*
G02*
X98531500Y-88001500I-140000J0D01*
G01*
G37*
%TD.AperFunction*%
%TO.P,C3,1*%
%TO.N,/Keyboard/sheet605ED2EB/3V3*%
%TA.AperFunction,SMDPad,CuDef*%
G36*
G01*
X98531500Y-88961500D02*
X98191500Y-88961500D01*
G75*
G02*
X98051500Y-88821500I0J140000D01*
G01*
X98051500Y-88541500D01*
G75*
G02*
X98191500Y-88401500I140000J0D01*
G01*
X98531500Y-88401500D01*
G75*
G02*
X98671500Y-88541500I0J-140000D01*
G01*
X98671500Y-88821500D01*
G75*
G02*
X98531500Y-88961500I-140000J0D01*
G01*
G37*
%TD.AperFunction*%
%TD*%
%TO.P,C2,2*%
%TO.N,/Keyboard/sheet605ED2EB/GND*%
%TA.AperFunction,SMDPad,CuDef*%
G36*
G01*
X100897500Y-90543500D02*
X100397500Y-90543500D01*
G75*
G02*
X100172500Y-90318500I0J225000D01*
G01*
X100172500Y-89868500D01*
G75*
G02*
X100397500Y-89643500I225000J0D01*
G01*
X100897500Y-89643500D01*
G75*
G02*
X101122500Y-89868500I0J-225000D01*
G01*
X101122500Y-90318500D01*
G75*
G02*
X100897500Y-90543500I-225000J0D01*
G01*
G37*
%TD.AperFunction*%
%TO.P,C2,1*%
%TO.N,/Keyboard/sheet605ED2EB/4V2*%
%TA.AperFunction,SMDPad,CuDef*%
G36*
G01*
X100897500Y-92093500D02*
X100397500Y-92093500D01*
G75*
G02*
X100172500Y-91868500I0J225000D01*
G01*
X100172500Y-91418500D01*
G75*
G02*
X100397500Y-91193500I225000J0D01*
G01*
X100897500Y-91193500D01*
G75*
G02*
X101122500Y-91418500I0J-225000D01*
G01*
X101122500Y-91868500D01*
G75*
G02*
X100897500Y-92093500I-225000J0D01*
G01*
G37*
%TD.AperFunction*%
%TD*%
%TO.P,C1,2*%
%TO.N,/Keyboard/sheet605ED2EB/GND*%
%TA.AperFunction,SMDPad,CuDef*%
G36*
G01*
X107688500Y-94174500D02*
X107688500Y-94674500D01*
G75*
G02*
X107463500Y-94899500I-225000J0D01*
G01*
X107013500Y-94899500D01*
G75*
G02*
X106788500Y-94674500I0J225000D01*
G01*
X106788500Y-94174500D01*
G75*
G02*
X107013500Y-93949500I225000J0D01*
G01*
X107463500Y-93949500D01*
G75*
G02*
X107688500Y-94174500I0J-225000D01*
G01*
G37*
%TD.AperFunction*%
%TO.P,C1,1*%
%TO.N,/Keyboard/sheet605ED2EB/3V3*%
%TA.AperFunction,SMDPad,CuDef*%
G36*
G01*
X109238500Y-94174500D02*
X109238500Y-94674500D01*
G75*
G02*
X109013500Y-94899500I-225000J0D01*
G01*
X108563500Y-94899500D01*
G75*
G02*
X108338500Y-94674500I0J225000D01*
G01*
X108338500Y-94174500D01*
G75*
G02*
X108563500Y-93949500I225000J0D01*
G01*
X109013500Y-93949500D01*
G75*
G02*
X109238500Y-94174500I0J-225000D01*
G01*
G37*
%TD.AperFunction*%
%TD*%
D17*
%TO.N,/Keyboard/sheet605ED2EB/GND*%
X101663500Y-90183310D03*
D18*
X111663520Y-88092510D03*
D17*
X106009992Y-91513182D03*
D18*
X99741706Y-88079525D03*
X98598126Y-90336855D03*
D17*
X120713500Y-90183310D03*
X139763500Y-90183310D03*
X158813500Y-90183310D03*
D18*
X130713520Y-88092510D03*
X149763520Y-88092510D03*
X168813520Y-88092510D03*
D17*
X125059992Y-91513182D03*
X144109992Y-91513182D03*
X163159992Y-91513182D03*
D18*
X118791706Y-88079525D03*
X137841706Y-88079525D03*
X156891706Y-88079525D03*
X117648126Y-90336855D03*
X136698126Y-90336855D03*
X155748126Y-90336855D03*
D17*
%TO.N,/Keyboard/sheet605ED2EB/3V3*%
X104711500Y-88328500D03*
X109079690Y-89138334D03*
X98855184Y-88441184D03*
X128129690Y-89138334D03*
X147179690Y-89138334D03*
X166229690Y-89138334D03*
X117905184Y-88441184D03*
X136955184Y-88441184D03*
X156005184Y-88441184D03*
X123761500Y-88328500D03*
X142811500Y-88328500D03*
X161861500Y-88328500D03*
%TO.N,/Keyboard/sheet605ED2EB/4V2*%
X101258534Y-90892466D03*
X104392585Y-91005148D03*
X123442585Y-91005148D03*
X142492585Y-91005148D03*
X161542585Y-91005148D03*
X120308534Y-90892466D03*
X139358534Y-90892466D03*
X158408534Y-90892466D03*
%TO.N,/Keyboard/sheet605ED2EB/CS*%
X97891302Y-94424500D03*
X99278803Y-94436970D03*
X98508315Y-98107500D03*
X99647531Y-98347315D03*
X118328803Y-94436970D03*
X137378803Y-94436970D03*
X156428803Y-94436970D03*
X117558315Y-98107500D03*
X136608315Y-98107500D03*
X155658315Y-98107500D03*
X116941302Y-94424500D03*
X135991302Y-94424500D03*
X155041302Y-94424500D03*
X118697531Y-98347315D03*
X137747531Y-98347315D03*
X156797531Y-98347315D03*
%TO.N,/Keyboard/sheet605ED2EB/RESET*%
X105218823Y-93739212D03*
X102933500Y-93662500D03*
X101409500Y-95186500D03*
X121983500Y-93662500D03*
X141033500Y-93662500D03*
X160083500Y-93662500D03*
X124268823Y-93739212D03*
X143318823Y-93739212D03*
X162368823Y-93739212D03*
X120459500Y-95186500D03*
X139509500Y-95186500D03*
X158559500Y-95186500D03*
%TO.N,/Keyboard/sheet605ED2EB/D-C*%
X111694134Y-98996500D03*
X130744134Y-98996500D03*
X149794134Y-98996500D03*
X168844134Y-98996500D03*
%TO.N,/Keyboard/sheet605ED2EB/SCLK*%
X111359692Y-99751055D03*
X130409692Y-99751055D03*
X149459692Y-99751055D03*
X168509692Y-99751055D03*
%TO.N,/Keyboard/sheet605ED2EB/SDIN*%
X108295787Y-97302530D03*
X127345787Y-97302530D03*
X146395787Y-97302530D03*
X165445787Y-97302530D03*
%TO.N,/Keyboard/sheet605ED2EB/LED_DOUT*%
X102454053Y-88165005D03*
X99504540Y-92392500D03*
X121504053Y-88165005D03*
X140554053Y-88165005D03*
X159604053Y-88165005D03*
X118554540Y-92392500D03*
X137604540Y-92392500D03*
X156654540Y-92392500D03*
%TO.N,/Keyboard/sheet605ED2EB/LED_DIN*%
X108064879Y-86907326D03*
X111207354Y-92706043D03*
X130257354Y-92706043D03*
X149307354Y-92706043D03*
X168357354Y-92706043D03*
X127114879Y-86907326D03*
X146164879Y-86907326D03*
X165214879Y-86907326D03*
%TO.N,Net-(D1-Pad2)*%
X102298500Y-96710500D03*
X121348500Y-96710500D03*
X140398500Y-96710500D03*
X159448500Y-96710500D03*
%TO.N,/Keyboard/sheet605ED2EB/KeyRow*%
X97896739Y-102094374D03*
X116946739Y-102094374D03*
X135996739Y-102094374D03*
X155046739Y-102094374D03*
%TO.N,/Keyboard/sheet605ED2EB/KeyCol*%
X111569500Y-102044500D03*
X107505500Y-98488500D03*
X109535134Y-98828668D03*
X108013504Y-86169496D03*
X126555500Y-98488500D03*
X145605500Y-98488500D03*
X164655500Y-98488500D03*
X128585134Y-98828668D03*
X147635134Y-98828668D03*
X166685134Y-98828668D03*
X130619500Y-102044500D03*
X149669500Y-102044500D03*
X168719500Y-102044500D03*
X127063504Y-86169496D03*
X146113504Y-86169496D03*
X165163504Y-86169496D03*
%TO.N,CS7*%
X97891340Y-100520500D03*
X99406561Y-101555685D03*
X118456561Y-101555685D03*
X137506561Y-101555685D03*
X156556561Y-101555685D03*
X116941340Y-100520500D03*
X135991340Y-100520500D03*
X155041340Y-100520500D03*
%TO.N,CS6*%
X99504500Y-100012500D03*
X97880009Y-99780975D03*
X116930009Y-99780975D03*
X135980009Y-99780975D03*
X155030009Y-99780975D03*
X118554500Y-100012500D03*
X137604500Y-100012500D03*
X156654500Y-100012500D03*
%TO.N,CS5*%
X111997146Y-97815325D03*
X97980500Y-97472500D03*
X117030500Y-97472500D03*
X136080500Y-97472500D03*
X155130500Y-97472500D03*
X131047146Y-97815325D03*
X150097146Y-97815325D03*
X169147146Y-97815325D03*
%TO.N,CS4*%
X98055690Y-95694500D03*
X111855243Y-94553440D03*
X130905243Y-94553440D03*
X149955243Y-94553440D03*
X169005243Y-94553440D03*
X117105690Y-95694500D03*
X136155690Y-95694500D03*
X155205690Y-95694500D03*
%TO.N,CS3*%
X97891303Y-93178650D03*
X111337202Y-93434167D03*
X130387202Y-93434167D03*
X149437202Y-93434167D03*
X168487202Y-93434167D03*
X116941303Y-93178650D03*
X135991303Y-93178650D03*
X155041303Y-93178650D03*
%TO.N,CS2*%
X111637365Y-91630500D03*
X97883756Y-91763219D03*
X130687365Y-91630500D03*
X149737365Y-91630500D03*
X168787365Y-91630500D03*
X116933756Y-91763219D03*
X135983756Y-91763219D03*
X155033756Y-91763219D03*
%TO.N,CS1*%
X111637365Y-89717462D03*
X98107498Y-89471498D03*
X130687365Y-89717462D03*
X149737365Y-89717462D03*
X168787365Y-89717462D03*
X117157498Y-89471498D03*
X136207498Y-89471498D03*
X155257498Y-89471498D03*
%TD*%
D19*
%TO.N,/Keyboard/sheet605ED2EB/GND*%
X101215500Y-89217500D02*
X101215500Y-89735310D01*
X101215500Y-89735310D02*
X101663500Y-90183310D01*
X100857310Y-90093500D02*
X101215500Y-89735310D01*
X100647500Y-90093500D02*
X100857310Y-90093500D01*
D20*
X97217500Y-87439500D02*
X98470490Y-87439500D01*
X96710500Y-86932500D02*
X97217500Y-87439500D01*
X98470490Y-87612510D02*
X98361500Y-87721500D01*
X98470490Y-87439500D02*
X98470490Y-87612510D01*
X112823530Y-86932500D02*
X111663520Y-88092510D01*
X113220500Y-86932500D02*
X112823530Y-86932500D01*
D19*
X102215500Y-89217500D02*
X102215500Y-89631310D01*
X102215500Y-89631310D02*
X101968299Y-89878511D01*
X101968299Y-89878511D02*
X101663500Y-90183310D01*
D20*
X106009992Y-91925992D02*
X106984500Y-92900500D01*
X106009992Y-91513182D02*
X106009992Y-91925992D01*
X106984500Y-94157500D02*
X107251500Y-94424500D01*
X106984500Y-92900500D02*
X106984500Y-94157500D01*
X98470490Y-87439500D02*
X99101681Y-87439500D01*
X99101681Y-87439500D02*
X99741706Y-88079525D01*
X98931066Y-90003915D02*
X98598126Y-90336855D01*
X99741706Y-88523137D02*
X98931066Y-89333777D01*
X98931066Y-89333777D02*
X98931066Y-90003915D01*
X99741706Y-88079525D02*
X99741706Y-88523137D01*
X117520490Y-87612510D02*
X117411500Y-87721500D01*
X136570490Y-87612510D02*
X136461500Y-87721500D01*
X155620490Y-87612510D02*
X155511500Y-87721500D01*
X126034500Y-92900500D02*
X126034500Y-94157500D01*
X145084500Y-92900500D02*
X145084500Y-94157500D01*
X164134500Y-92900500D02*
X164134500Y-94157500D01*
D19*
X121265500Y-89217500D02*
X121265500Y-89631310D01*
X140315500Y-89217500D02*
X140315500Y-89631310D01*
X159365500Y-89217500D02*
X159365500Y-89631310D01*
D20*
X117520490Y-87439500D02*
X118151681Y-87439500D01*
X136570490Y-87439500D02*
X137201681Y-87439500D01*
X155620490Y-87439500D02*
X156251681Y-87439500D01*
X118791706Y-88079525D02*
X118791706Y-88523137D01*
X137841706Y-88079525D02*
X137841706Y-88523137D01*
X156891706Y-88079525D02*
X156891706Y-88523137D01*
X125059992Y-91925992D02*
X126034500Y-92900500D01*
X144109992Y-91925992D02*
X145084500Y-92900500D01*
X163159992Y-91925992D02*
X164134500Y-92900500D01*
D19*
X120265500Y-89217500D02*
X120265500Y-89735310D01*
X139315500Y-89217500D02*
X139315500Y-89735310D01*
X158365500Y-89217500D02*
X158365500Y-89735310D01*
X120265500Y-89735310D02*
X120713500Y-90183310D01*
X139315500Y-89735310D02*
X139763500Y-90183310D01*
X158365500Y-89735310D02*
X158813500Y-90183310D01*
X121265500Y-89631310D02*
X121018299Y-89878511D01*
X140315500Y-89631310D02*
X140068299Y-89878511D01*
X159365500Y-89631310D02*
X159118299Y-89878511D01*
D20*
X131873530Y-86932500D02*
X130713520Y-88092510D01*
X150923530Y-86932500D02*
X149763520Y-88092510D01*
X169973530Y-86932500D02*
X168813520Y-88092510D01*
X116267500Y-87439500D02*
X117520490Y-87439500D01*
X135317500Y-87439500D02*
X136570490Y-87439500D01*
X154367500Y-87439500D02*
X155620490Y-87439500D01*
D19*
X121018299Y-89878511D02*
X120713500Y-90183310D01*
X140068299Y-89878511D02*
X139763500Y-90183310D01*
X159118299Y-89878511D02*
X158813500Y-90183310D01*
D20*
X126034500Y-94157500D02*
X126301500Y-94424500D01*
X145084500Y-94157500D02*
X145351500Y-94424500D01*
X164134500Y-94157500D02*
X164401500Y-94424500D01*
X117520490Y-87439500D02*
X117520490Y-87612510D01*
X136570490Y-87439500D02*
X136570490Y-87612510D01*
X155620490Y-87439500D02*
X155620490Y-87612510D01*
X115760500Y-86932500D02*
X116267500Y-87439500D01*
X134810500Y-86932500D02*
X135317500Y-87439500D01*
X153860500Y-86932500D02*
X154367500Y-87439500D01*
X118151681Y-87439500D02*
X118791706Y-88079525D01*
X137201681Y-87439500D02*
X137841706Y-88079525D01*
X156251681Y-87439500D02*
X156891706Y-88079525D01*
X132270500Y-86932500D02*
X131873530Y-86932500D01*
X151320500Y-86932500D02*
X150923530Y-86932500D01*
X170370500Y-86932500D02*
X169973530Y-86932500D01*
X117981066Y-90003915D02*
X117648126Y-90336855D01*
X137031066Y-90003915D02*
X136698126Y-90336855D01*
X156081066Y-90003915D02*
X155748126Y-90336855D01*
X125059992Y-91513182D02*
X125059992Y-91925992D01*
X144109992Y-91513182D02*
X144109992Y-91925992D01*
X163159992Y-91513182D02*
X163159992Y-91925992D01*
D19*
X119697500Y-90093500D02*
X119907310Y-90093500D01*
X138747500Y-90093500D02*
X138957310Y-90093500D01*
X157797500Y-90093500D02*
X158007310Y-90093500D01*
D20*
X118791706Y-88523137D02*
X117981066Y-89333777D01*
X137841706Y-88523137D02*
X137031066Y-89333777D01*
X156891706Y-88523137D02*
X156081066Y-89333777D01*
X117981066Y-89333777D02*
X117981066Y-90003915D01*
X137031066Y-89333777D02*
X137031066Y-90003915D01*
X156081066Y-89333777D02*
X156081066Y-90003915D01*
D19*
X119907310Y-90093500D02*
X120265500Y-89735310D01*
X138957310Y-90093500D02*
X139315500Y-89735310D01*
X158007310Y-90093500D02*
X158365500Y-89735310D01*
D21*
X151574500Y-86932500D02*
X153606500Y-86932500D01*
X134556500Y-86932500D02*
X132524500Y-86932500D01*
X113474500Y-86932500D02*
X115506500Y-86932500D01*
D19*
%TO.N,/Keyboard/sheet605ED2EB/3V3*%
X105215500Y-88832500D02*
X104711500Y-88328500D01*
X105215500Y-89217500D02*
X105215500Y-88832500D01*
X108715500Y-89217500D02*
X109000524Y-89217500D01*
X109000524Y-89217500D02*
X109079690Y-89138334D01*
X98614868Y-88681500D02*
X98855184Y-88441184D01*
X98361500Y-88681500D02*
X98614868Y-88681500D01*
X108534500Y-94297500D02*
X109332511Y-93499489D01*
X109332511Y-89391155D02*
X109079690Y-89138334D01*
X109332511Y-93499489D02*
X109332511Y-89391155D01*
X124265500Y-88832500D02*
X123761500Y-88328500D01*
X143315500Y-88832500D02*
X142811500Y-88328500D01*
X162365500Y-88832500D02*
X161861500Y-88328500D01*
X128050524Y-89217500D02*
X128129690Y-89138334D01*
X147100524Y-89217500D02*
X147179690Y-89138334D01*
X166150524Y-89217500D02*
X166229690Y-89138334D01*
X117411500Y-88681500D02*
X117664868Y-88681500D01*
X136461500Y-88681500D02*
X136714868Y-88681500D01*
X155511500Y-88681500D02*
X155764868Y-88681500D01*
X128382511Y-89391155D02*
X128129690Y-89138334D01*
X147432511Y-89391155D02*
X147179690Y-89138334D01*
X166482511Y-89391155D02*
X166229690Y-89138334D01*
X127765500Y-89217500D02*
X128050524Y-89217500D01*
X146815500Y-89217500D02*
X147100524Y-89217500D01*
X165865500Y-89217500D02*
X166150524Y-89217500D01*
X128382511Y-93499489D02*
X128382511Y-89391155D01*
X147432511Y-93499489D02*
X147432511Y-89391155D01*
X166482511Y-93499489D02*
X166482511Y-89391155D01*
X124265500Y-89217500D02*
X124265500Y-88832500D01*
X143315500Y-89217500D02*
X143315500Y-88832500D01*
X162365500Y-89217500D02*
X162365500Y-88832500D01*
X127584500Y-94297500D02*
X128382511Y-93499489D01*
X146634500Y-94297500D02*
X147432511Y-93499489D01*
X165684500Y-94297500D02*
X166482511Y-93499489D01*
X117664868Y-88681500D02*
X117905184Y-88441184D01*
X136714868Y-88681500D02*
X136955184Y-88441184D01*
X155764868Y-88681500D02*
X156005184Y-88441184D01*
%TO.N,/Keyboard/sheet605ED2EB/4V2*%
X100647500Y-91643500D02*
X100647500Y-91503500D01*
X100647500Y-91503500D02*
X101258534Y-90892466D01*
X104715500Y-89217500D02*
X104715500Y-90682233D01*
X104715500Y-90682233D02*
X104392585Y-91005148D01*
X119697500Y-91643500D02*
X119697500Y-91503500D01*
X138747500Y-91643500D02*
X138747500Y-91503500D01*
X157797500Y-91643500D02*
X157797500Y-91503500D01*
X119697500Y-91503500D02*
X120308534Y-90892466D01*
X138747500Y-91503500D02*
X139358534Y-90892466D01*
X157797500Y-91503500D02*
X158408534Y-90892466D01*
X123765500Y-89217500D02*
X123765500Y-90682233D01*
X142815500Y-89217500D02*
X142815500Y-90682233D01*
X161865500Y-89217500D02*
X161865500Y-90682233D01*
X123765500Y-90682233D02*
X123442585Y-91005148D01*
X142815500Y-90682233D02*
X142492585Y-91005148D01*
X161865500Y-90682233D02*
X161542585Y-91005148D01*
%TO.N,Net-(C4-Pad1)*%
X108215500Y-89694500D02*
X108215500Y-89217500D01*
X108902500Y-90381500D02*
X108215500Y-89694500D01*
X108902500Y-91983592D02*
X108902500Y-90381500D01*
X108534500Y-92351592D02*
X108902500Y-91983592D01*
X108534500Y-92900500D02*
X108534500Y-92351592D01*
X127584500Y-92351592D02*
X127952500Y-91983592D01*
X146634500Y-92351592D02*
X147002500Y-91983592D01*
X165684500Y-92351592D02*
X166052500Y-91983592D01*
X127952500Y-91983592D02*
X127952500Y-90381500D01*
X147002500Y-91983592D02*
X147002500Y-90381500D01*
X166052500Y-91983592D02*
X166052500Y-90381500D01*
X127265500Y-89694500D02*
X127265500Y-89217500D01*
X146315500Y-89694500D02*
X146315500Y-89217500D01*
X165365500Y-89694500D02*
X165365500Y-89217500D01*
X127584500Y-92900500D02*
X127584500Y-92351592D01*
X146634500Y-92900500D02*
X146634500Y-92351592D01*
X165684500Y-92900500D02*
X165684500Y-92351592D01*
X127952500Y-90381500D02*
X127265500Y-89694500D01*
X147002500Y-90381500D02*
X146315500Y-89694500D01*
X166052500Y-90381500D02*
X165365500Y-89694500D01*
%TO.N,Net-(C5-Pad2)*%
X102806500Y-90509471D02*
X102806500Y-91503500D01*
X103215500Y-90100471D02*
X102806500Y-90509471D01*
X103215500Y-89217500D02*
X103215500Y-90100471D01*
X121856500Y-90509471D02*
X121856500Y-91503500D01*
X140906500Y-90509471D02*
X140906500Y-91503500D01*
X159956500Y-90509471D02*
X159956500Y-91503500D01*
X122265500Y-90100471D02*
X121856500Y-90509471D01*
X141315500Y-90100471D02*
X140906500Y-90509471D01*
X160365500Y-90100471D02*
X159956500Y-90509471D01*
X122265500Y-89217500D02*
X122265500Y-90100471D01*
X141315500Y-89217500D02*
X141315500Y-90100471D01*
X160365500Y-89217500D02*
X160365500Y-90100471D01*
%TO.N,Net-(C5-Pad1)*%
X102715500Y-89992344D02*
X101917500Y-90790344D01*
X101917500Y-90790344D02*
X101917500Y-91503500D01*
X102715500Y-89217500D02*
X102715500Y-89992344D01*
X121765500Y-89992344D02*
X120967500Y-90790344D01*
X140815500Y-89992344D02*
X140017500Y-90790344D01*
X159865500Y-89992344D02*
X159067500Y-90790344D01*
X120967500Y-90790344D02*
X120967500Y-91503500D01*
X140017500Y-90790344D02*
X140017500Y-91503500D01*
X159067500Y-90790344D02*
X159067500Y-91503500D01*
X121765500Y-89217500D02*
X121765500Y-89992344D01*
X140815500Y-89217500D02*
X140815500Y-89992344D01*
X159865500Y-89217500D02*
X159865500Y-89992344D01*
%TO.N,Net-(C6-Pad2)*%
X104175500Y-91729500D02*
X104175500Y-92646500D01*
X103807783Y-90724442D02*
X103807783Y-91361783D01*
X104215500Y-90316725D02*
X103807783Y-90724442D01*
X103807783Y-91361783D02*
X104175500Y-91729500D01*
X104215500Y-89217500D02*
X104215500Y-90316725D01*
X122857783Y-90724442D02*
X122857783Y-91361783D01*
X141907783Y-90724442D02*
X141907783Y-91361783D01*
X160957783Y-90724442D02*
X160957783Y-91361783D01*
X123225500Y-91729500D02*
X123225500Y-92646500D01*
X142275500Y-91729500D02*
X142275500Y-92646500D01*
X161325500Y-91729500D02*
X161325500Y-92646500D01*
X123265500Y-90316725D02*
X122857783Y-90724442D01*
X142315500Y-90316725D02*
X141907783Y-90724442D01*
X161365500Y-90316725D02*
X160957783Y-90724442D01*
X123265500Y-89217500D02*
X123265500Y-90316725D01*
X142315500Y-89217500D02*
X142315500Y-90316725D01*
X161365500Y-89217500D02*
X161365500Y-90316725D01*
X122857783Y-91361783D02*
X123225500Y-91729500D01*
X141907783Y-91361783D02*
X142275500Y-91729500D01*
X160957783Y-91361783D02*
X161325500Y-91729500D01*
%TO.N,Net-(C6-Pad1)*%
X103187500Y-92618500D02*
X103215500Y-92646500D01*
X103187500Y-92265500D02*
X103187500Y-92618500D01*
X103377771Y-92075229D02*
X103187500Y-92265500D01*
X103377771Y-90546327D02*
X103377771Y-92075229D01*
X103715500Y-90208598D02*
X103377771Y-90546327D01*
X103715500Y-89217500D02*
X103715500Y-90208598D01*
X122427771Y-90546327D02*
X122427771Y-92075229D01*
X141477771Y-90546327D02*
X141477771Y-92075229D01*
X160527771Y-90546327D02*
X160527771Y-92075229D01*
X122765500Y-90208598D02*
X122427771Y-90546327D01*
X141815500Y-90208598D02*
X141477771Y-90546327D01*
X160865500Y-90208598D02*
X160527771Y-90546327D01*
X122765500Y-89217500D02*
X122765500Y-90208598D01*
X141815500Y-89217500D02*
X141815500Y-90208598D01*
X160865500Y-89217500D02*
X160865500Y-90208598D01*
X122237500Y-92618500D02*
X122265500Y-92646500D01*
X141287500Y-92618500D02*
X141315500Y-92646500D01*
X160337500Y-92618500D02*
X160365500Y-92646500D01*
X122237500Y-92265500D02*
X122237500Y-92618500D01*
X141287500Y-92265500D02*
X141287500Y-92618500D01*
X160337500Y-92265500D02*
X160337500Y-92618500D01*
X122427771Y-92075229D02*
X122237500Y-92265500D01*
X141477771Y-92075229D02*
X141287500Y-92265500D01*
X160527771Y-92075229D02*
X160337500Y-92265500D01*
%TO.N,/Keyboard/sheet605ED2EB/CS*%
X97214500Y-94424500D02*
X97206500Y-94432500D01*
X97891302Y-94424500D02*
X97214500Y-94424500D01*
X105715500Y-89217500D02*
X105715500Y-90334041D01*
X101303902Y-95948500D02*
X99792372Y-94436970D01*
X105715500Y-90334041D02*
X104995180Y-91054361D01*
X104995180Y-92870820D02*
X101917500Y-95948500D01*
X101917500Y-95948500D02*
X101303902Y-95948500D01*
X99792372Y-94436970D02*
X99278803Y-94436970D01*
X104995180Y-91054361D02*
X104995180Y-92870820D01*
X101303902Y-96589597D02*
X99647531Y-98245968D01*
X101303902Y-95948500D02*
X101303902Y-96589597D01*
X99647531Y-98245968D02*
X99647531Y-98347315D01*
X98488500Y-98107500D02*
X98508315Y-98107500D01*
X98488500Y-98127315D02*
X98508315Y-98107500D01*
X98488500Y-100393500D02*
X98488500Y-98127315D01*
X98183315Y-98432500D02*
X98508315Y-98107500D01*
X97206500Y-98432500D02*
X98183315Y-98432500D01*
X97356500Y-101282500D02*
X97206500Y-101432500D01*
X97994846Y-101282500D02*
X97356500Y-101282500D01*
X98488500Y-100788846D02*
X97994846Y-101282500D01*
X98488500Y-100393500D02*
X98488500Y-100788846D01*
X98488500Y-93789500D02*
X97891302Y-94386698D01*
X98488500Y-91376500D02*
X98488500Y-93789500D01*
X97891302Y-94386698D02*
X97891302Y-94424500D01*
X98274386Y-91162386D02*
X98488500Y-91376500D01*
X97936386Y-91162386D02*
X98274386Y-91162386D01*
X97206500Y-90432500D02*
X97936386Y-91162386D01*
X117538500Y-91376500D02*
X117538500Y-93789500D01*
X136588500Y-91376500D02*
X136588500Y-93789500D01*
X155638500Y-91376500D02*
X155638500Y-93789500D01*
X120967500Y-95948500D02*
X120353902Y-95948500D01*
X140017500Y-95948500D02*
X139403902Y-95948500D01*
X159067500Y-95948500D02*
X158453902Y-95948500D01*
X116941302Y-94386698D02*
X116941302Y-94424500D01*
X135991302Y-94386698D02*
X135991302Y-94424500D01*
X155041302Y-94386698D02*
X155041302Y-94424500D01*
X116264500Y-94424500D02*
X116256500Y-94432500D01*
X135314500Y-94424500D02*
X135306500Y-94432500D01*
X154364500Y-94424500D02*
X154356500Y-94432500D01*
X118842372Y-94436970D02*
X118328803Y-94436970D01*
X137892372Y-94436970D02*
X137378803Y-94436970D01*
X156942372Y-94436970D02*
X156428803Y-94436970D01*
X124765500Y-89217500D02*
X124765500Y-90334041D01*
X143815500Y-89217500D02*
X143815500Y-90334041D01*
X162865500Y-89217500D02*
X162865500Y-90334041D01*
X120353902Y-95948500D02*
X120353902Y-96589597D01*
X139403902Y-95948500D02*
X139403902Y-96589597D01*
X158453902Y-95948500D02*
X158453902Y-96589597D01*
X117233315Y-98432500D02*
X117558315Y-98107500D01*
X136283315Y-98432500D02*
X136608315Y-98107500D01*
X155333315Y-98432500D02*
X155658315Y-98107500D01*
X124045180Y-91054361D02*
X124045180Y-92870820D01*
X143095180Y-91054361D02*
X143095180Y-92870820D01*
X162145180Y-91054361D02*
X162145180Y-92870820D01*
X120353902Y-95948500D02*
X118842372Y-94436970D01*
X139403902Y-95948500D02*
X137892372Y-94436970D01*
X158453902Y-95948500D02*
X156942372Y-94436970D01*
X116256500Y-98432500D02*
X117233315Y-98432500D01*
X135306500Y-98432500D02*
X136283315Y-98432500D01*
X154356500Y-98432500D02*
X155333315Y-98432500D01*
X117538500Y-100393500D02*
X117538500Y-100788846D01*
X136588500Y-100393500D02*
X136588500Y-100788846D01*
X155638500Y-100393500D02*
X155638500Y-100788846D01*
X124765500Y-90334041D02*
X124045180Y-91054361D01*
X143815500Y-90334041D02*
X143095180Y-91054361D01*
X162865500Y-90334041D02*
X162145180Y-91054361D01*
X117538500Y-100788846D02*
X117044846Y-101282500D01*
X136588500Y-100788846D02*
X136094846Y-101282500D01*
X155638500Y-100788846D02*
X155144846Y-101282500D01*
X124045180Y-92870820D02*
X120967500Y-95948500D01*
X143095180Y-92870820D02*
X140017500Y-95948500D01*
X162145180Y-92870820D02*
X159067500Y-95948500D01*
X117044846Y-101282500D02*
X116406500Y-101282500D01*
X136094846Y-101282500D02*
X135456500Y-101282500D01*
X155144846Y-101282500D02*
X154506500Y-101282500D01*
X116941302Y-94424500D02*
X116264500Y-94424500D01*
X135991302Y-94424500D02*
X135314500Y-94424500D01*
X155041302Y-94424500D02*
X154364500Y-94424500D01*
X118697531Y-98245968D02*
X118697531Y-98347315D01*
X137747531Y-98245968D02*
X137747531Y-98347315D01*
X156797531Y-98245968D02*
X156797531Y-98347315D01*
X117538500Y-98107500D02*
X117558315Y-98107500D01*
X136588500Y-98107500D02*
X136608315Y-98107500D01*
X155638500Y-98107500D02*
X155658315Y-98107500D01*
X117538500Y-93789500D02*
X116941302Y-94386698D01*
X136588500Y-93789500D02*
X135991302Y-94386698D01*
X155638500Y-93789500D02*
X155041302Y-94386698D01*
X116986386Y-91162386D02*
X117324386Y-91162386D01*
X136036386Y-91162386D02*
X136374386Y-91162386D01*
X155086386Y-91162386D02*
X155424386Y-91162386D01*
X116406500Y-101282500D02*
X116256500Y-101432500D01*
X135456500Y-101282500D02*
X135306500Y-101432500D01*
X154506500Y-101282500D02*
X154356500Y-101432500D01*
X117538500Y-100393500D02*
X117538500Y-98127315D01*
X136588500Y-100393500D02*
X136588500Y-98127315D01*
X155638500Y-100393500D02*
X155638500Y-98127315D01*
X120353902Y-96589597D02*
X118697531Y-98245968D01*
X139403902Y-96589597D02*
X137747531Y-98245968D01*
X158453902Y-96589597D02*
X156797531Y-98245968D01*
X117538500Y-98127315D02*
X117558315Y-98107500D01*
X136588500Y-98127315D02*
X136608315Y-98107500D01*
X155638500Y-98127315D02*
X155658315Y-98107500D01*
X117324386Y-91162386D02*
X117538500Y-91376500D01*
X136374386Y-91162386D02*
X136588500Y-91376500D01*
X155424386Y-91162386D02*
X155638500Y-91376500D01*
X116256500Y-90432500D02*
X116986386Y-91162386D01*
X135306500Y-90432500D02*
X136036386Y-91162386D01*
X154356500Y-90432500D02*
X155086386Y-91162386D01*
%TO.N,/Keyboard/sheet605ED2EB/RESET*%
X105425191Y-91270936D02*
X105425191Y-93532844D01*
X106215500Y-90480627D02*
X105425191Y-91270936D01*
X106215500Y-89217500D02*
X106215500Y-90480627D01*
X105425191Y-93532844D02*
X105218823Y-93739212D01*
X101840552Y-95186500D02*
X101409500Y-95186500D01*
X102933500Y-94093552D02*
X101840552Y-95186500D01*
X102933500Y-93662500D02*
X102933500Y-94093552D01*
X124475191Y-91270936D02*
X124475191Y-93532844D01*
X143525191Y-91270936D02*
X143525191Y-93532844D01*
X162575191Y-91270936D02*
X162575191Y-93532844D01*
X121983500Y-93662500D02*
X121983500Y-94093552D01*
X141033500Y-93662500D02*
X141033500Y-94093552D01*
X160083500Y-93662500D02*
X160083500Y-94093552D01*
X125265500Y-89217500D02*
X125265500Y-90480627D01*
X144315500Y-89217500D02*
X144315500Y-90480627D01*
X163365500Y-89217500D02*
X163365500Y-90480627D01*
X120890552Y-95186500D02*
X120459500Y-95186500D01*
X139940552Y-95186500D02*
X139509500Y-95186500D01*
X158990552Y-95186500D02*
X158559500Y-95186500D01*
X125265500Y-90480627D02*
X124475191Y-91270936D01*
X144315500Y-90480627D02*
X143525191Y-91270936D01*
X163365500Y-90480627D02*
X162575191Y-91270936D01*
X124475191Y-93532844D02*
X124268823Y-93739212D01*
X143525191Y-93532844D02*
X143318823Y-93739212D01*
X162575191Y-93532844D02*
X162368823Y-93739212D01*
X121983500Y-94093552D02*
X120890552Y-95186500D01*
X141033500Y-94093552D02*
X139940552Y-95186500D01*
X160083500Y-94093552D02*
X158990552Y-95186500D01*
%TO.N,/Keyboard/sheet605ED2EB/D-C*%
X111605512Y-95488615D02*
X111605512Y-96923017D01*
X110045500Y-87693500D02*
X110553499Y-88201499D01*
X111605512Y-96923017D02*
X111412336Y-97116193D01*
X106715500Y-89217500D02*
X106715500Y-88102500D01*
X111412336Y-98714702D02*
X111694134Y-98996500D01*
X107124500Y-87693500D02*
X110045500Y-87693500D01*
X110622544Y-88856807D02*
X110622544Y-94505647D01*
X111412336Y-97116193D02*
X111412336Y-98714702D01*
X110622544Y-94505647D02*
X111605512Y-95488615D01*
X110553499Y-88787762D02*
X110622544Y-88856807D01*
X110553499Y-88201499D02*
X110553499Y-88787762D01*
X106715500Y-88102500D02*
X107124500Y-87693500D01*
X130655512Y-95488615D02*
X130655512Y-96923017D01*
X149705512Y-95488615D02*
X149705512Y-96923017D01*
X168755512Y-95488615D02*
X168755512Y-96923017D01*
X129095500Y-87693500D02*
X129603499Y-88201499D01*
X148145500Y-87693500D02*
X148653499Y-88201499D01*
X167195500Y-87693500D02*
X167703499Y-88201499D01*
X129672544Y-94505647D02*
X130655512Y-95488615D01*
X148722544Y-94505647D02*
X149705512Y-95488615D01*
X167772544Y-94505647D02*
X168755512Y-95488615D01*
X129603499Y-88787762D02*
X129672544Y-88856807D01*
X148653499Y-88787762D02*
X148722544Y-88856807D01*
X167703499Y-88787762D02*
X167772544Y-88856807D01*
X129672544Y-88856807D02*
X129672544Y-94505647D01*
X148722544Y-88856807D02*
X148722544Y-94505647D01*
X167772544Y-88856807D02*
X167772544Y-94505647D01*
X130462336Y-97116193D02*
X130462336Y-98714702D01*
X149512336Y-97116193D02*
X149512336Y-98714702D01*
X168562336Y-97116193D02*
X168562336Y-98714702D01*
X130655512Y-96923017D02*
X130462336Y-97116193D01*
X149705512Y-96923017D02*
X149512336Y-97116193D01*
X168755512Y-96923017D02*
X168562336Y-97116193D01*
X125765500Y-89217500D02*
X125765500Y-88102500D01*
X144815500Y-89217500D02*
X144815500Y-88102500D01*
X163865500Y-89217500D02*
X163865500Y-88102500D01*
X126174500Y-87693500D02*
X129095500Y-87693500D01*
X145224500Y-87693500D02*
X148145500Y-87693500D01*
X164274500Y-87693500D02*
X167195500Y-87693500D01*
X125765500Y-88102500D02*
X126174500Y-87693500D01*
X144815500Y-88102500D02*
X145224500Y-87693500D01*
X163865500Y-88102500D02*
X164274500Y-87693500D01*
X129603499Y-88201499D02*
X129603499Y-88787762D01*
X148653499Y-88201499D02*
X148653499Y-88787762D01*
X167703499Y-88201499D02*
X167703499Y-88787762D01*
X130462336Y-98714702D02*
X130744134Y-98996500D01*
X149512336Y-98714702D02*
X149794134Y-98996500D01*
X168562336Y-98714702D02*
X168844134Y-98996500D01*
%TO.N,/Keyboard/sheet605ED2EB/SCLK*%
X107215500Y-89217500D02*
X107215500Y-88491500D01*
X107215500Y-88491500D02*
X107583489Y-88123511D01*
X107583489Y-88123511D02*
X109842616Y-88123511D01*
X109842616Y-88123511D02*
X110094511Y-88375406D01*
X110094511Y-88375406D02*
X110094511Y-88936901D01*
X110094511Y-88936901D02*
X110192533Y-89034923D01*
X110192533Y-89034923D02*
X110192533Y-94715607D01*
X110192533Y-94715607D02*
X111175501Y-95698575D01*
X111175501Y-95698575D02*
X111175501Y-96744901D01*
X110982325Y-96938077D02*
X110982325Y-99373688D01*
X110982325Y-99373688D02*
X111359692Y-99751055D01*
X111175501Y-96744901D02*
X110982325Y-96938077D01*
X126633489Y-88123511D02*
X128892616Y-88123511D01*
X145683489Y-88123511D02*
X147942616Y-88123511D01*
X164733489Y-88123511D02*
X166992616Y-88123511D01*
X129242533Y-89034923D02*
X129242533Y-94715607D01*
X148292533Y-89034923D02*
X148292533Y-94715607D01*
X167342533Y-89034923D02*
X167342533Y-94715607D01*
X128892616Y-88123511D02*
X129144511Y-88375406D01*
X147942616Y-88123511D02*
X148194511Y-88375406D01*
X166992616Y-88123511D02*
X167244511Y-88375406D01*
X129144511Y-88936901D02*
X129242533Y-89034923D01*
X148194511Y-88936901D02*
X148292533Y-89034923D01*
X167244511Y-88936901D02*
X167342533Y-89034923D01*
X129242533Y-94715607D02*
X130225501Y-95698575D01*
X148292533Y-94715607D02*
X149275501Y-95698575D01*
X167342533Y-94715607D02*
X168325501Y-95698575D01*
X126265500Y-88491500D02*
X126633489Y-88123511D01*
X145315500Y-88491500D02*
X145683489Y-88123511D01*
X164365500Y-88491500D02*
X164733489Y-88123511D01*
X130032325Y-96938077D02*
X130032325Y-99373688D01*
X149082325Y-96938077D02*
X149082325Y-99373688D01*
X168132325Y-96938077D02*
X168132325Y-99373688D01*
X130225501Y-96744901D02*
X130032325Y-96938077D01*
X149275501Y-96744901D02*
X149082325Y-96938077D01*
X168325501Y-96744901D02*
X168132325Y-96938077D01*
X130032325Y-99373688D02*
X130409692Y-99751055D01*
X149082325Y-99373688D02*
X149459692Y-99751055D01*
X168132325Y-99373688D02*
X168509692Y-99751055D01*
X129144511Y-88375406D02*
X129144511Y-88936901D01*
X148194511Y-88375406D02*
X148194511Y-88936901D01*
X167244511Y-88375406D02*
X167244511Y-88936901D01*
X130225501Y-95698575D02*
X130225501Y-96744901D01*
X149275501Y-95698575D02*
X149275501Y-96744901D01*
X168325501Y-95698575D02*
X168325501Y-96744901D01*
X126265500Y-89217500D02*
X126265500Y-88491500D01*
X145315500Y-89217500D02*
X145315500Y-88491500D01*
X164365500Y-89217500D02*
X164365500Y-88491500D01*
%TO.N,/Keyboard/sheet605ED2EB/SDIN*%
X107715500Y-89217500D02*
X107715500Y-88738498D01*
X107900476Y-88553522D02*
X109664500Y-88553522D01*
X109664500Y-89115017D02*
X109762522Y-89213039D01*
X109762522Y-89213039D02*
X109762522Y-94834478D01*
X109762522Y-94834478D02*
X108443511Y-96153489D01*
X108443511Y-97154806D02*
X108295787Y-97302530D01*
X108443511Y-96153489D02*
X108443511Y-97154806D01*
X107715500Y-88738498D02*
X107900476Y-88553522D01*
X109664500Y-88553522D02*
X109664500Y-89115017D01*
X126950476Y-88553522D02*
X128714500Y-88553522D01*
X146000476Y-88553522D02*
X147764500Y-88553522D01*
X165050476Y-88553522D02*
X166814500Y-88553522D01*
X128714500Y-89115017D02*
X128812522Y-89213039D01*
X147764500Y-89115017D02*
X147862522Y-89213039D01*
X166814500Y-89115017D02*
X166912522Y-89213039D01*
X126765500Y-89217500D02*
X126765500Y-88738498D01*
X145815500Y-89217500D02*
X145815500Y-88738498D01*
X164865500Y-89217500D02*
X164865500Y-88738498D01*
X128812522Y-89213039D02*
X128812522Y-94834478D01*
X147862522Y-89213039D02*
X147862522Y-94834478D01*
X166912522Y-89213039D02*
X166912522Y-94834478D01*
X128812522Y-94834478D02*
X127493511Y-96153489D01*
X147862522Y-94834478D02*
X146543511Y-96153489D01*
X166912522Y-94834478D02*
X165593511Y-96153489D01*
X127493511Y-97154806D02*
X127345787Y-97302530D01*
X146543511Y-97154806D02*
X146395787Y-97302530D01*
X165593511Y-97154806D02*
X165445787Y-97302530D01*
X127493511Y-96153489D02*
X127493511Y-97154806D01*
X146543511Y-96153489D02*
X146543511Y-97154806D01*
X165593511Y-96153489D02*
X165593511Y-97154806D01*
X126765500Y-88738498D02*
X126950476Y-88553522D01*
X145815500Y-88738498D02*
X146000476Y-88553522D01*
X164865500Y-88738498D02*
X165050476Y-88553522D01*
X128714500Y-88553522D02*
X128714500Y-89115017D01*
X147764500Y-88553522D02*
X147764500Y-89115017D01*
X166814500Y-88553522D02*
X166814500Y-89115017D01*
%TO.N,/Keyboard/sheet605ED2EB/LED_DOUT*%
X102454053Y-88165005D02*
X101386803Y-88165005D01*
X99841086Y-92055954D02*
X99504540Y-92392500D01*
X101386803Y-88165005D02*
X99841086Y-89710722D01*
X99841086Y-89710722D02*
X99841086Y-92055954D01*
X121504053Y-88165005D02*
X120436803Y-88165005D01*
X140554053Y-88165005D02*
X139486803Y-88165005D01*
X159604053Y-88165005D02*
X158536803Y-88165005D01*
X120436803Y-88165005D02*
X118891086Y-89710722D01*
X139486803Y-88165005D02*
X137941086Y-89710722D01*
X158536803Y-88165005D02*
X156991086Y-89710722D01*
X118891086Y-89710722D02*
X118891086Y-92055954D01*
X137941086Y-89710722D02*
X137941086Y-92055954D01*
X156991086Y-89710722D02*
X156991086Y-92055954D01*
X118891086Y-92055954D02*
X118554540Y-92392500D01*
X137941086Y-92055954D02*
X137604540Y-92392500D01*
X156991086Y-92055954D02*
X156654540Y-92392500D01*
%TO.N,/Keyboard/sheet605ED2EB/LED_DIN*%
X111052555Y-88678691D02*
X111052555Y-92551244D01*
X111052555Y-92551244D02*
X111207354Y-92706043D01*
X110983510Y-88609646D02*
X111052555Y-88678691D01*
X110983510Y-87896384D02*
X110983510Y-88609646D01*
X110350615Y-87263489D02*
X110983510Y-87896384D01*
X108421042Y-87263489D02*
X110350615Y-87263489D01*
X108064879Y-86907326D02*
X108421042Y-87263489D01*
X127114879Y-86907326D02*
X127471042Y-87263489D01*
X146164879Y-86907326D02*
X146521042Y-87263489D01*
X165214879Y-86907326D02*
X165571042Y-87263489D01*
X130102555Y-92551244D02*
X130257354Y-92706043D01*
X149152555Y-92551244D02*
X149307354Y-92706043D01*
X168202555Y-92551244D02*
X168357354Y-92706043D01*
X130102555Y-88678691D02*
X130102555Y-92551244D01*
X149152555Y-88678691D02*
X149152555Y-92551244D01*
X168202555Y-88678691D02*
X168202555Y-92551244D01*
X129400615Y-87263489D02*
X130033510Y-87896384D01*
X148450615Y-87263489D02*
X149083510Y-87896384D01*
X167500615Y-87263489D02*
X168133510Y-87896384D01*
X130033510Y-87896384D02*
X130033510Y-88609646D01*
X149083510Y-87896384D02*
X149083510Y-88609646D01*
X168133510Y-87896384D02*
X168133510Y-88609646D01*
X127471042Y-87263489D02*
X129400615Y-87263489D01*
X146521042Y-87263489D02*
X148450615Y-87263489D01*
X165571042Y-87263489D02*
X167500615Y-87263489D01*
X130033510Y-88609646D02*
X130102555Y-88678691D01*
X149083510Y-88609646D02*
X149152555Y-88678691D01*
X168133510Y-88609646D02*
X168202555Y-88678691D01*
%TO.N,Net-(D1-Pad2)*%
X101155500Y-93662500D02*
X101155500Y-94297500D01*
D22*
X100774500Y-98234500D02*
X102298500Y-96710500D01*
X100563500Y-98234500D02*
X100774500Y-98234500D01*
D19*
X120205500Y-93662500D02*
X120205500Y-94297500D01*
X139255500Y-93662500D02*
X139255500Y-94297500D01*
X158305500Y-93662500D02*
X158305500Y-94297500D01*
D22*
X119824500Y-98234500D02*
X121348500Y-96710500D01*
X138874500Y-98234500D02*
X140398500Y-96710500D01*
X157924500Y-98234500D02*
X159448500Y-96710500D01*
X119613500Y-98234500D02*
X119824500Y-98234500D01*
X138663500Y-98234500D02*
X138874500Y-98234500D01*
X157713500Y-98234500D02*
X157924500Y-98234500D01*
D19*
%TO.N,/Keyboard/sheet605ED2EB/KeyRow*%
X98057626Y-102094374D02*
X97896739Y-102094374D01*
X98918511Y-101233489D02*
X98057626Y-102094374D01*
X98918511Y-99759552D02*
X98918511Y-101233489D01*
X99365929Y-99312134D02*
X98918511Y-99759552D01*
X100070170Y-99312134D02*
X99365929Y-99312134D01*
X107505500Y-91122500D02*
X107505500Y-92232308D01*
X107505500Y-92232308D02*
X107759500Y-92486308D01*
X100237792Y-99144512D02*
X100070170Y-99312134D01*
X107759500Y-92486308D02*
X107759500Y-93314692D01*
X107759500Y-93314692D02*
X108013500Y-93568692D01*
X108013500Y-93568692D02*
X108013500Y-96719311D01*
X108013500Y-96719311D02*
X107710986Y-97021825D01*
X107786206Y-99073302D02*
X102794470Y-99073302D01*
X107710986Y-97021825D02*
X107710986Y-97828478D01*
X108090302Y-98769206D02*
X107786206Y-99073302D01*
X107710986Y-97828478D02*
X108090302Y-98207794D01*
X108090302Y-98207794D02*
X108090302Y-98769206D01*
X102794470Y-99073302D02*
X102723260Y-99144512D01*
X102723260Y-99144512D02*
X100237792Y-99144512D01*
X127140302Y-98769206D02*
X126836206Y-99073302D01*
X146190302Y-98769206D02*
X145886206Y-99073302D01*
X165240302Y-98769206D02*
X164936206Y-99073302D01*
X126760986Y-97828478D02*
X127140302Y-98207794D01*
X145810986Y-97828478D02*
X146190302Y-98207794D01*
X164860986Y-97828478D02*
X165240302Y-98207794D01*
X127063500Y-96719311D02*
X126760986Y-97021825D01*
X146113500Y-96719311D02*
X145810986Y-97021825D01*
X165163500Y-96719311D02*
X164860986Y-97021825D01*
X117968511Y-99759552D02*
X117968511Y-101233489D01*
X137018511Y-99759552D02*
X137018511Y-101233489D01*
X156068511Y-99759552D02*
X156068511Y-101233489D01*
X126836206Y-99073302D02*
X121844470Y-99073302D01*
X145886206Y-99073302D02*
X140894470Y-99073302D01*
X164936206Y-99073302D02*
X159944470Y-99073302D01*
X119120170Y-99312134D02*
X118415929Y-99312134D01*
X138170170Y-99312134D02*
X137465929Y-99312134D01*
X157220170Y-99312134D02*
X156515929Y-99312134D01*
X127140302Y-98207794D02*
X127140302Y-98769206D01*
X146190302Y-98207794D02*
X146190302Y-98769206D01*
X165240302Y-98207794D02*
X165240302Y-98769206D01*
X121844470Y-99073302D02*
X121773260Y-99144512D01*
X140894470Y-99073302D02*
X140823260Y-99144512D01*
X159944470Y-99073302D02*
X159873260Y-99144512D01*
X119287792Y-99144512D02*
X119120170Y-99312134D01*
X138337792Y-99144512D02*
X138170170Y-99312134D01*
X157387792Y-99144512D02*
X157220170Y-99312134D01*
X121773260Y-99144512D02*
X119287792Y-99144512D01*
X140823260Y-99144512D02*
X138337792Y-99144512D01*
X159873260Y-99144512D02*
X157387792Y-99144512D01*
X117107626Y-102094374D02*
X116946739Y-102094374D01*
X136157626Y-102094374D02*
X135996739Y-102094374D01*
X155207626Y-102094374D02*
X155046739Y-102094374D01*
X118415929Y-99312134D02*
X117968511Y-99759552D01*
X137465929Y-99312134D02*
X137018511Y-99759552D01*
X156515929Y-99312134D02*
X156068511Y-99759552D01*
X126555500Y-91122500D02*
X126555500Y-92232308D01*
X145605500Y-91122500D02*
X145605500Y-92232308D01*
X164655500Y-91122500D02*
X164655500Y-92232308D01*
X126555500Y-92232308D02*
X126809500Y-92486308D01*
X145605500Y-92232308D02*
X145859500Y-92486308D01*
X164655500Y-92232308D02*
X164909500Y-92486308D01*
X117968511Y-101233489D02*
X117107626Y-102094374D01*
X137018511Y-101233489D02*
X136157626Y-102094374D01*
X156068511Y-101233489D02*
X155207626Y-102094374D01*
X126809500Y-92486308D02*
X126809500Y-93314692D01*
X145859500Y-92486308D02*
X145859500Y-93314692D01*
X164909500Y-92486308D02*
X164909500Y-93314692D01*
X126809500Y-93314692D02*
X127063500Y-93568692D01*
X145859500Y-93314692D02*
X146113500Y-93568692D01*
X164909500Y-93314692D02*
X165163500Y-93568692D01*
X127063500Y-93568692D02*
X127063500Y-96719311D01*
X146113500Y-93568692D02*
X146113500Y-96719311D01*
X165163500Y-93568692D02*
X165163500Y-96719311D01*
X126760986Y-97021825D02*
X126760986Y-97828478D01*
X145810986Y-97021825D02*
X145810986Y-97828478D01*
X164860986Y-97021825D02*
X164860986Y-97828478D01*
%TO.N,/Keyboard/sheet605ED2EB/KeyCol*%
X98996500Y-86169500D02*
X98996500Y-86296500D01*
X98996500Y-86296500D02*
X99962501Y-87262501D01*
X110934500Y-103695500D02*
X109537500Y-103695500D01*
X109537500Y-103695500D02*
X109410500Y-103822500D01*
X109410500Y-103822500D02*
X100393500Y-103822500D01*
X100266500Y-103695500D02*
X98996500Y-103695500D01*
X100393500Y-103822500D02*
X100266500Y-103695500D01*
X111569500Y-102044500D02*
X111569500Y-102004163D01*
X111569500Y-102004163D02*
X109557668Y-99992332D01*
X109557668Y-98851202D02*
X109535134Y-98828668D01*
X109557668Y-99992332D02*
X109557668Y-98851202D01*
D22*
X107505500Y-98488500D02*
X102806500Y-98488500D01*
D23*
X102763500Y-98445500D02*
X102806500Y-98488500D01*
X102763500Y-98234500D02*
X102763500Y-98445500D01*
D19*
X107582452Y-86169496D02*
X108013504Y-86169496D01*
X106489447Y-87262501D02*
X107582452Y-86169496D01*
X99962501Y-87262501D02*
X106489447Y-87262501D01*
D22*
X100396716Y-88582320D02*
X100396716Y-87696716D01*
X100396716Y-87696716D02*
X99962501Y-87262501D01*
X102806500Y-98488500D02*
X102555499Y-98739501D01*
X102555499Y-98739501D02*
X100070031Y-98739501D01*
X98893510Y-93957262D02*
X98893510Y-92114490D01*
X100070031Y-98739501D02*
X99902409Y-98907123D01*
X99199953Y-98907123D02*
X99073894Y-98781064D01*
X99073894Y-98781064D02*
X99073894Y-97480710D01*
X99902409Y-98907123D02*
X99199953Y-98907123D01*
X99436075Y-89542961D02*
X100396716Y-88582320D01*
X99073894Y-97480710D02*
X98667301Y-97074117D01*
X98667301Y-97074117D02*
X98667301Y-94183471D01*
X98893510Y-92114490D02*
X99436075Y-91571925D01*
X98667301Y-94183471D02*
X98893510Y-93957262D01*
X99436075Y-91571925D02*
X99436075Y-89542961D01*
X126555500Y-98488500D02*
X121856500Y-98488500D01*
X145605500Y-98488500D02*
X140906500Y-98488500D01*
X164655500Y-98488500D02*
X159956500Y-98488500D01*
X121856500Y-98488500D02*
X121605499Y-98739501D01*
X140906500Y-98488500D02*
X140655499Y-98739501D01*
X159956500Y-98488500D02*
X159705499Y-98739501D01*
X118249953Y-98907123D02*
X118123894Y-98781064D01*
X137299953Y-98907123D02*
X137173894Y-98781064D01*
X156349953Y-98907123D02*
X156223894Y-98781064D01*
X118952409Y-98907123D02*
X118249953Y-98907123D01*
X138002409Y-98907123D02*
X137299953Y-98907123D01*
X157052409Y-98907123D02*
X156349953Y-98907123D01*
D19*
X119443500Y-103822500D02*
X119316500Y-103695500D01*
X138493500Y-103822500D02*
X138366500Y-103695500D01*
X157543500Y-103822500D02*
X157416500Y-103695500D01*
D22*
X119446716Y-88582320D02*
X119446716Y-87696716D01*
X138496716Y-88582320D02*
X138496716Y-87696716D01*
X157546716Y-88582320D02*
X157546716Y-87696716D01*
D19*
X128607668Y-99992332D02*
X128607668Y-98851202D01*
X147657668Y-99992332D02*
X147657668Y-98851202D01*
X166707668Y-99992332D02*
X166707668Y-98851202D01*
D23*
X121813500Y-98445500D02*
X121856500Y-98488500D01*
X140863500Y-98445500D02*
X140906500Y-98488500D01*
X159913500Y-98445500D02*
X159956500Y-98488500D01*
D22*
X121605499Y-98739501D02*
X119120031Y-98739501D01*
X140655499Y-98739501D02*
X138170031Y-98739501D01*
X159705499Y-98739501D02*
X157220031Y-98739501D01*
X118123894Y-97480710D02*
X117717301Y-97074117D01*
X137173894Y-97480710D02*
X136767301Y-97074117D01*
X156223894Y-97480710D02*
X155817301Y-97074117D01*
X117943510Y-92114490D02*
X118486075Y-91571925D01*
X136993510Y-92114490D02*
X137536075Y-91571925D01*
X156043510Y-92114490D02*
X156586075Y-91571925D01*
D19*
X130619500Y-102004163D02*
X128607668Y-99992332D01*
X149669500Y-102004163D02*
X147657668Y-99992332D01*
X168719500Y-102004163D02*
X166707668Y-99992332D01*
D22*
X118123894Y-98781064D02*
X118123894Y-97480710D01*
X137173894Y-98781064D02*
X137173894Y-97480710D01*
X156223894Y-98781064D02*
X156223894Y-97480710D01*
D19*
X128587500Y-103695500D02*
X128460500Y-103822500D01*
X147637500Y-103695500D02*
X147510500Y-103822500D01*
X166687500Y-103695500D02*
X166560500Y-103822500D01*
D22*
X119120031Y-98739501D02*
X118952409Y-98907123D01*
X138170031Y-98739501D02*
X138002409Y-98907123D01*
X157220031Y-98739501D02*
X157052409Y-98907123D01*
X118486075Y-89542961D02*
X119446716Y-88582320D01*
X137536075Y-89542961D02*
X138496716Y-88582320D01*
X156586075Y-89542961D02*
X157546716Y-88582320D01*
D19*
X128607668Y-98851202D02*
X128585134Y-98828668D01*
X147657668Y-98851202D02*
X147635134Y-98828668D01*
X166707668Y-98851202D02*
X166685134Y-98828668D01*
X125539447Y-87262501D02*
X126632452Y-86169496D01*
X144589447Y-87262501D02*
X145682452Y-86169496D01*
X163639447Y-87262501D02*
X164732452Y-86169496D01*
X128460500Y-103822500D02*
X119443500Y-103822500D01*
X147510500Y-103822500D02*
X138493500Y-103822500D01*
X166560500Y-103822500D02*
X157543500Y-103822500D01*
D22*
X118486075Y-91571925D02*
X118486075Y-89542961D01*
X137536075Y-91571925D02*
X137536075Y-89542961D01*
X156586075Y-91571925D02*
X156586075Y-89542961D01*
D19*
X119316500Y-103695500D02*
X118046500Y-103695500D01*
X138366500Y-103695500D02*
X137096500Y-103695500D01*
X157416500Y-103695500D02*
X156146500Y-103695500D01*
D22*
X117717301Y-97074117D02*
X117717301Y-94183471D01*
X136767301Y-97074117D02*
X136767301Y-94183471D01*
X155817301Y-97074117D02*
X155817301Y-94183471D01*
D19*
X119012501Y-87262501D02*
X125539447Y-87262501D01*
X138062501Y-87262501D02*
X144589447Y-87262501D01*
X157112501Y-87262501D02*
X163639447Y-87262501D01*
X126632452Y-86169496D02*
X127063504Y-86169496D01*
X145682452Y-86169496D02*
X146113504Y-86169496D01*
X164732452Y-86169496D02*
X165163504Y-86169496D01*
X118046500Y-86169500D02*
X118046500Y-86296500D01*
X137096500Y-86169500D02*
X137096500Y-86296500D01*
X156146500Y-86169500D02*
X156146500Y-86296500D01*
D22*
X117717301Y-94183471D02*
X117943510Y-93957262D01*
X136767301Y-94183471D02*
X136993510Y-93957262D01*
X155817301Y-94183471D02*
X156043510Y-93957262D01*
D23*
X121813500Y-98234500D02*
X121813500Y-98445500D01*
X140863500Y-98234500D02*
X140863500Y-98445500D01*
X159913500Y-98234500D02*
X159913500Y-98445500D01*
D22*
X119446716Y-87696716D02*
X119012501Y-87262501D01*
X138496716Y-87696716D02*
X138062501Y-87262501D01*
X157546716Y-87696716D02*
X157112501Y-87262501D01*
D19*
X118046500Y-86296500D02*
X119012501Y-87262501D01*
X137096500Y-86296500D02*
X138062501Y-87262501D01*
X156146500Y-86296500D02*
X157112501Y-87262501D01*
D22*
X117943510Y-93957262D02*
X117943510Y-92114490D01*
X136993510Y-93957262D02*
X136993510Y-92114490D01*
X156043510Y-93957262D02*
X156043510Y-92114490D01*
D19*
X129984500Y-103695500D02*
X128587500Y-103695500D01*
X149034500Y-103695500D02*
X147637500Y-103695500D01*
X168084500Y-103695500D02*
X166687500Y-103695500D01*
X130619500Y-102044500D02*
X130619500Y-102004163D01*
X149669500Y-102044500D02*
X149669500Y-102004163D01*
X168719500Y-102044500D02*
X168719500Y-102004163D01*
%TO.N,CS8*%
X97966499Y-103074501D02*
X97599500Y-103441500D01*
X112953499Y-102665499D02*
X98022499Y-102665499D01*
X97219500Y-103441500D02*
X96710500Y-102932500D01*
X113220500Y-102932500D02*
X112953499Y-102665499D01*
X98022499Y-102665499D02*
X97966499Y-102721499D01*
X97599500Y-103441500D02*
X97219500Y-103441500D01*
X97966499Y-102721499D02*
X97966499Y-103074501D01*
X117016499Y-102721499D02*
X117016499Y-103074501D01*
X136066499Y-102721499D02*
X136066499Y-103074501D01*
X155116499Y-102721499D02*
X155116499Y-103074501D01*
X117072499Y-102665499D02*
X117016499Y-102721499D01*
X136122499Y-102665499D02*
X136066499Y-102721499D01*
X155172499Y-102665499D02*
X155116499Y-102721499D01*
X117016499Y-103074501D02*
X116649500Y-103441500D01*
X136066499Y-103074501D02*
X135699500Y-103441500D01*
X155116499Y-103074501D02*
X154749500Y-103441500D01*
X132270500Y-102932500D02*
X132003499Y-102665499D01*
X151320500Y-102932500D02*
X151053499Y-102665499D01*
X170370500Y-102932500D02*
X170103499Y-102665499D01*
X116269500Y-103441500D02*
X115760500Y-102932500D01*
X135319500Y-103441500D02*
X134810500Y-102932500D01*
X154369500Y-103441500D02*
X153860500Y-102932500D01*
X132003499Y-102665499D02*
X117072499Y-102665499D01*
X151053499Y-102665499D02*
X136122499Y-102665499D01*
X170103499Y-102665499D02*
X155172499Y-102665499D01*
X116649500Y-103441500D02*
X116269500Y-103441500D01*
X135699500Y-103441500D02*
X135319500Y-103441500D01*
X154749500Y-103441500D02*
X154369500Y-103441500D01*
D21*
X151574500Y-102932500D02*
X153106500Y-102932500D01*
X132524500Y-102932500D02*
X134056500Y-102932500D01*
X113474500Y-102932500D02*
X115006500Y-102932500D01*
D19*
%TO.N,CS7*%
X96386510Y-100502490D02*
X95956500Y-100932500D01*
X97873330Y-100502490D02*
X96386510Y-100502490D01*
X97891340Y-100520500D02*
X97873330Y-100502490D01*
X108950324Y-98464169D02*
X108950324Y-99125438D01*
X108950324Y-99125438D02*
X108071228Y-100004534D01*
X100594024Y-100004534D02*
X100482613Y-100115945D01*
X100482613Y-100115945D02*
X100336663Y-100172156D01*
X100336663Y-100172156D02*
X100183800Y-100172156D01*
X99406561Y-100949395D02*
X99406561Y-101555685D01*
X100183800Y-100172156D02*
X99406561Y-100949395D01*
X108071228Y-100004534D02*
X100594024Y-100004534D01*
X110122303Y-98588793D02*
X109726033Y-98192523D01*
X111105962Y-100932500D02*
X110122303Y-99948841D01*
X109221970Y-98192523D02*
X108950324Y-98464169D01*
X109726033Y-98192523D02*
X109221970Y-98192523D01*
X110122303Y-99948841D02*
X110122303Y-98588793D01*
X113474500Y-100932500D02*
X111105962Y-100932500D01*
X128000324Y-98464169D02*
X128000324Y-99125438D01*
X147050324Y-98464169D02*
X147050324Y-99125438D01*
X166100324Y-98464169D02*
X166100324Y-99125438D01*
X119532613Y-100115945D02*
X119386663Y-100172156D01*
X138582613Y-100115945D02*
X138436663Y-100172156D01*
X157632613Y-100115945D02*
X157486663Y-100172156D01*
X119233800Y-100172156D02*
X118456561Y-100949395D01*
X138283800Y-100172156D02*
X137506561Y-100949395D01*
X157333800Y-100172156D02*
X156556561Y-100949395D01*
X129172303Y-98588793D02*
X128776033Y-98192523D01*
X148222303Y-98588793D02*
X147826033Y-98192523D01*
X167272303Y-98588793D02*
X166876033Y-98192523D01*
X130155962Y-100932500D02*
X129172303Y-99948841D01*
X149205962Y-100932500D02*
X148222303Y-99948841D01*
X168255962Y-100932500D02*
X167272303Y-99948841D01*
X127121228Y-100004534D02*
X119644024Y-100004534D01*
X146171228Y-100004534D02*
X138694024Y-100004534D01*
X165221228Y-100004534D02*
X157744024Y-100004534D01*
X115436510Y-100502490D02*
X115006500Y-100932500D01*
X134486510Y-100502490D02*
X134056500Y-100932500D01*
X153536510Y-100502490D02*
X153106500Y-100932500D01*
X129172303Y-99948841D02*
X129172303Y-98588793D01*
X148222303Y-99948841D02*
X148222303Y-98588793D01*
X167272303Y-99948841D02*
X167272303Y-98588793D01*
X116923330Y-100502490D02*
X115436510Y-100502490D01*
X135973330Y-100502490D02*
X134486510Y-100502490D01*
X155023330Y-100502490D02*
X153536510Y-100502490D01*
X118456561Y-100949395D02*
X118456561Y-101555685D01*
X137506561Y-100949395D02*
X137506561Y-101555685D01*
X156556561Y-100949395D02*
X156556561Y-101555685D01*
X128271970Y-98192523D02*
X128000324Y-98464169D01*
X147321970Y-98192523D02*
X147050324Y-98464169D01*
X166371970Y-98192523D02*
X166100324Y-98464169D01*
X128776033Y-98192523D02*
X128271970Y-98192523D01*
X147826033Y-98192523D02*
X147321970Y-98192523D01*
X166876033Y-98192523D02*
X166371970Y-98192523D01*
X132524500Y-100932500D02*
X130155962Y-100932500D01*
X151574500Y-100932500D02*
X149205962Y-100932500D01*
X170624500Y-100932500D02*
X168255962Y-100932500D01*
X116941340Y-100520500D02*
X116923330Y-100502490D01*
X135991340Y-100520500D02*
X135973330Y-100502490D01*
X155041340Y-100520500D02*
X155023330Y-100502490D01*
X128000324Y-99125438D02*
X127121228Y-100004534D01*
X147050324Y-99125438D02*
X146171228Y-100004534D01*
X166100324Y-99125438D02*
X165221228Y-100004534D01*
X119644024Y-100004534D02*
X119532613Y-100115945D01*
X138694024Y-100004534D02*
X138582613Y-100115945D01*
X157744024Y-100004534D02*
X157632613Y-100115945D01*
X119386663Y-100172156D02*
X119233800Y-100172156D01*
X138436663Y-100172156D02*
X138283800Y-100172156D01*
X157486663Y-100172156D02*
X157333800Y-100172156D01*
D21*
X151574500Y-100932500D02*
X153106500Y-100932500D01*
X132524500Y-100932500D02*
X134056500Y-100932500D01*
X113474500Y-100932500D02*
X115006500Y-100932500D01*
D19*
%TO.N,CS6*%
X102972586Y-99503313D02*
X102901376Y-99574523D01*
X108520313Y-98184301D02*
X108520313Y-98947322D01*
X100415908Y-99574523D02*
X100248286Y-99742145D01*
X108942102Y-97762512D02*
X108520313Y-98184301D01*
X111284078Y-100502489D02*
X110552314Y-99770725D01*
X110552314Y-99770725D02*
X110552314Y-98410677D01*
X111650511Y-100502489D02*
X111284078Y-100502489D01*
X109904149Y-97762512D02*
X108942102Y-97762512D01*
X99774855Y-99742145D02*
X99504500Y-100012500D01*
X110552314Y-98410677D02*
X109904149Y-97762512D01*
X102901376Y-99574523D02*
X100415908Y-99574523D01*
X108520313Y-98947322D02*
X107964322Y-99503313D01*
X100248286Y-99742145D02*
X99774855Y-99742145D01*
X107964322Y-99503313D02*
X102972586Y-99503313D01*
X113220500Y-98932500D02*
X111650511Y-100502489D01*
X96710500Y-98932500D02*
X97558975Y-99780975D01*
X97558975Y-99780975D02*
X97880009Y-99780975D01*
X127992102Y-97762512D02*
X127570313Y-98184301D01*
X147042102Y-97762512D02*
X146620313Y-98184301D01*
X166092102Y-97762512D02*
X165670313Y-98184301D01*
X119465908Y-99574523D02*
X119298286Y-99742145D01*
X138515908Y-99574523D02*
X138348286Y-99742145D01*
X157565908Y-99574523D02*
X157398286Y-99742145D01*
X119298286Y-99742145D02*
X118824855Y-99742145D01*
X138348286Y-99742145D02*
X137874855Y-99742145D01*
X157398286Y-99742145D02*
X156924855Y-99742145D01*
X132270500Y-98932500D02*
X130700511Y-100502489D01*
X151320500Y-98932500D02*
X149750511Y-100502489D01*
X170370500Y-98932500D02*
X168800511Y-100502489D01*
X118824855Y-99742145D02*
X118554500Y-100012500D01*
X137874855Y-99742145D02*
X137604500Y-100012500D01*
X156924855Y-99742145D02*
X156654500Y-100012500D01*
X121951376Y-99574523D02*
X119465908Y-99574523D01*
X141001376Y-99574523D02*
X138515908Y-99574523D01*
X160051376Y-99574523D02*
X157565908Y-99574523D01*
X116608975Y-99780975D02*
X116930009Y-99780975D01*
X135658975Y-99780975D02*
X135980009Y-99780975D01*
X154708975Y-99780975D02*
X155030009Y-99780975D01*
X122022586Y-99503313D02*
X121951376Y-99574523D01*
X141072586Y-99503313D02*
X141001376Y-99574523D01*
X160122586Y-99503313D02*
X160051376Y-99574523D01*
X127570313Y-98947322D02*
X127014322Y-99503313D01*
X146620313Y-98947322D02*
X146064322Y-99503313D01*
X165670313Y-98947322D02*
X165114322Y-99503313D01*
X128954149Y-97762512D02*
X127992102Y-97762512D01*
X148004149Y-97762512D02*
X147042102Y-97762512D01*
X167054149Y-97762512D02*
X166092102Y-97762512D01*
X127570313Y-98184301D02*
X127570313Y-98947322D01*
X146620313Y-98184301D02*
X146620313Y-98947322D01*
X165670313Y-98184301D02*
X165670313Y-98947322D01*
X115760500Y-98932500D02*
X116608975Y-99780975D01*
X134810500Y-98932500D02*
X135658975Y-99780975D01*
X153860500Y-98932500D02*
X154708975Y-99780975D01*
X129602314Y-98410677D02*
X128954149Y-97762512D01*
X148652314Y-98410677D02*
X148004149Y-97762512D01*
X167702314Y-98410677D02*
X167054149Y-97762512D01*
X127014322Y-99503313D02*
X122022586Y-99503313D01*
X146064322Y-99503313D02*
X141072586Y-99503313D01*
X165114322Y-99503313D02*
X160122586Y-99503313D01*
X130700511Y-100502489D02*
X130334078Y-100502489D01*
X149750511Y-100502489D02*
X149384078Y-100502489D01*
X168800511Y-100502489D02*
X168434078Y-100502489D01*
X130334078Y-100502489D02*
X129602314Y-99770725D01*
X149384078Y-100502489D02*
X148652314Y-99770725D01*
X168434078Y-100502489D02*
X167702314Y-99770725D01*
X129602314Y-99770725D02*
X129602314Y-98410677D01*
X148652314Y-99770725D02*
X148652314Y-98410677D01*
X167702314Y-99770725D02*
X167702314Y-98410677D01*
D21*
X151574500Y-98932500D02*
X153106500Y-98932500D01*
X132524500Y-98932500D02*
X134056500Y-98932500D01*
X113474500Y-98932500D02*
X115006500Y-98932500D01*
D19*
%TO.N,CS5*%
X112879971Y-96932500D02*
X111997146Y-97815325D01*
X113220500Y-96932500D02*
X112879971Y-96932500D01*
X96710500Y-96932500D02*
X96710500Y-97040504D01*
X97980500Y-97472500D02*
X97980500Y-96910504D01*
X96386510Y-96502490D02*
X95956500Y-96932500D01*
X97572486Y-96502490D02*
X96386510Y-96502490D01*
X97980500Y-96910504D02*
X97572486Y-96502490D01*
X115436510Y-96502490D02*
X115006500Y-96932500D01*
X134486510Y-96502490D02*
X134056500Y-96932500D01*
X153536510Y-96502490D02*
X153106500Y-96932500D01*
X116622486Y-96502490D02*
X115436510Y-96502490D01*
X135672486Y-96502490D02*
X134486510Y-96502490D01*
X154722486Y-96502490D02*
X153536510Y-96502490D01*
X131929971Y-96932500D02*
X131047146Y-97815325D01*
X150979971Y-96932500D02*
X150097146Y-97815325D01*
X170029971Y-96932500D02*
X169147146Y-97815325D01*
X115760500Y-96932500D02*
X115760500Y-97040504D01*
X134810500Y-96932500D02*
X134810500Y-97040504D01*
X153860500Y-96932500D02*
X153860500Y-97040504D01*
X117030500Y-97472500D02*
X117030500Y-96910504D01*
X136080500Y-97472500D02*
X136080500Y-96910504D01*
X155130500Y-97472500D02*
X155130500Y-96910504D01*
X132270500Y-96932500D02*
X131929971Y-96932500D01*
X151320500Y-96932500D02*
X150979971Y-96932500D01*
X170370500Y-96932500D02*
X170029971Y-96932500D01*
X117030500Y-96910504D02*
X116622486Y-96502490D01*
X136080500Y-96910504D02*
X135672486Y-96502490D01*
X155130500Y-96910504D02*
X154722486Y-96502490D01*
D21*
X151574500Y-96932500D02*
X153106500Y-96932500D01*
X132524500Y-96932500D02*
X134056500Y-96932500D01*
X113474500Y-96932500D02*
X115006500Y-96932500D01*
D19*
%TO.N,CS4*%
X97472500Y-95694500D02*
X98055690Y-95694500D01*
X96710500Y-94932500D02*
X97472500Y-95694500D01*
X113220500Y-94932500D02*
X112234303Y-94932500D01*
X112234303Y-94932500D02*
X111855243Y-94553440D01*
X131284303Y-94932500D02*
X130905243Y-94553440D01*
X150334303Y-94932500D02*
X149955243Y-94553440D01*
X169384303Y-94932500D02*
X169005243Y-94553440D01*
X115760500Y-94932500D02*
X116522500Y-95694500D01*
X134810500Y-94932500D02*
X135572500Y-95694500D01*
X153860500Y-94932500D02*
X154622500Y-95694500D01*
X132270500Y-94932500D02*
X131284303Y-94932500D01*
X151320500Y-94932500D02*
X150334303Y-94932500D01*
X170370500Y-94932500D02*
X169384303Y-94932500D01*
X116522500Y-95694500D02*
X117105690Y-95694500D01*
X135572500Y-95694500D02*
X136155690Y-95694500D01*
X154622500Y-95694500D02*
X155205690Y-95694500D01*
D21*
X151574500Y-94932500D02*
X153106500Y-94932500D01*
X132524500Y-94932500D02*
X134056500Y-94932500D01*
X113474500Y-94932500D02*
X115006500Y-94932500D01*
D19*
%TO.N,CS3*%
X97243302Y-92469302D02*
X97206500Y-92432500D01*
X97891303Y-93178650D02*
X97891303Y-92684303D01*
X96386510Y-92502490D02*
X95956500Y-92932500D01*
X97709490Y-92502490D02*
X96386510Y-92502490D01*
X97891303Y-92684303D02*
X97709490Y-92502490D01*
X113220500Y-92932500D02*
X111838869Y-92932500D01*
X111838869Y-92932500D02*
X111337202Y-93434167D01*
X116941303Y-92684303D02*
X116759490Y-92502490D01*
X135991303Y-92684303D02*
X135809490Y-92502490D01*
X155041303Y-92684303D02*
X154859490Y-92502490D01*
X116941303Y-93178650D02*
X116941303Y-92684303D01*
X135991303Y-93178650D02*
X135991303Y-92684303D01*
X155041303Y-93178650D02*
X155041303Y-92684303D01*
X115436510Y-92502490D02*
X115006500Y-92932500D01*
X134486510Y-92502490D02*
X134056500Y-92932500D01*
X153536510Y-92502490D02*
X153106500Y-92932500D01*
X116293302Y-92469302D02*
X116256500Y-92432500D01*
X135343302Y-92469302D02*
X135306500Y-92432500D01*
X154393302Y-92469302D02*
X154356500Y-92432500D01*
X116759490Y-92502490D02*
X115436510Y-92502490D01*
X135809490Y-92502490D02*
X134486510Y-92502490D01*
X154859490Y-92502490D02*
X153536510Y-92502490D01*
X132270500Y-92932500D02*
X130888869Y-92932500D01*
X151320500Y-92932500D02*
X149938869Y-92932500D01*
X170370500Y-92932500D02*
X168988869Y-92932500D01*
X130888869Y-92932500D02*
X130387202Y-93434167D01*
X149938869Y-92932500D02*
X149437202Y-93434167D01*
X168988869Y-92932500D02*
X168487202Y-93434167D01*
D21*
X151574500Y-92932500D02*
X153106500Y-92932500D01*
X132524500Y-92932500D02*
X134056500Y-92932500D01*
X113474500Y-92932500D02*
X115006500Y-92932500D01*
D19*
%TO.N,CS2*%
X113220500Y-90932500D02*
X112335365Y-90932500D01*
X112335365Y-90932500D02*
X111637365Y-91630500D01*
X96710500Y-90932500D02*
X97541219Y-91763219D01*
X97541219Y-91763219D02*
X97883756Y-91763219D01*
X132270500Y-90932500D02*
X131385365Y-90932500D01*
X151320500Y-90932500D02*
X150435365Y-90932500D01*
X170370500Y-90932500D02*
X169485365Y-90932500D01*
X131385365Y-90932500D02*
X130687365Y-91630500D01*
X150435365Y-90932500D02*
X149737365Y-91630500D01*
X169485365Y-90932500D02*
X168787365Y-91630500D01*
X115760500Y-90932500D02*
X116591219Y-91763219D01*
X134810500Y-90932500D02*
X135641219Y-91763219D01*
X153860500Y-90932500D02*
X154691219Y-91763219D01*
X116591219Y-91763219D02*
X116933756Y-91763219D01*
X135641219Y-91763219D02*
X135983756Y-91763219D01*
X154691219Y-91763219D02*
X155033756Y-91763219D01*
D21*
X151574500Y-90932500D02*
X153106500Y-90932500D01*
X132524500Y-90932500D02*
X134056500Y-90932500D01*
X113474500Y-90932500D02*
X115006500Y-90932500D01*
D19*
%TO.N,CS1*%
X112422327Y-88932500D02*
X111637365Y-89717462D01*
X113220500Y-88932500D02*
X112422327Y-88932500D01*
X97736510Y-88666514D02*
X97736510Y-89100510D01*
X97572486Y-88502490D02*
X97736510Y-88666514D01*
X97736510Y-89100510D02*
X98107498Y-89471498D01*
X97140510Y-88502490D02*
X97572486Y-88502490D01*
X96710500Y-88932500D02*
X97140510Y-88502490D01*
X116786510Y-88666514D02*
X116786510Y-89100510D01*
X135836510Y-88666514D02*
X135836510Y-89100510D01*
X154886510Y-88666514D02*
X154886510Y-89100510D01*
X116786510Y-89100510D02*
X117157498Y-89471498D01*
X135836510Y-89100510D02*
X136207498Y-89471498D01*
X154886510Y-89100510D02*
X155257498Y-89471498D01*
X116622486Y-88502490D02*
X116786510Y-88666514D01*
X135672486Y-88502490D02*
X135836510Y-88666514D01*
X154722486Y-88502490D02*
X154886510Y-88666514D01*
X131472327Y-88932500D02*
X130687365Y-89717462D01*
X150522327Y-88932500D02*
X149737365Y-89717462D01*
X169572327Y-88932500D02*
X168787365Y-89717462D01*
X116190510Y-88502490D02*
X116622486Y-88502490D01*
X135240510Y-88502490D02*
X135672486Y-88502490D01*
X154290510Y-88502490D02*
X154722486Y-88502490D01*
X132270500Y-88932500D02*
X131472327Y-88932500D01*
X151320500Y-88932500D02*
X150522327Y-88932500D01*
X170370500Y-88932500D02*
X169572327Y-88932500D01*
X115760500Y-88932500D02*
X116190510Y-88502490D01*
X134810500Y-88932500D02*
X135240510Y-88502490D01*
X153860500Y-88932500D02*
X154290510Y-88502490D01*
D21*
X151574500Y-88932500D02*
X153106500Y-88932500D01*
X132524500Y-88932500D02*
X134056500Y-88932500D01*
X113474500Y-88932500D02*
X115006500Y-88932500D01*
%TD*%
M02*
