%TF.GenerationSoftware,KiCad,Pcbnew,(5.1.9)-1*%
%TF.CreationDate,2021-10-01T07:45:35+02:00*%
%TF.ProjectId,poly_kb_1Ux4,706f6c79-5f6b-4625-9f31-5578342e6b69,rev?*%
%TF.SameCoordinates,Original*%
%TF.FileFunction,Paste,Top*%
%TF.FilePolarity,Positive*%
%FSLAX46Y46*%
G04 Gerber Fmt 4.6, Leading zero omitted, Abs format (unit mm)*
G04 Created by KiCad (PCBNEW (5.1.9)-1) date 2021-10-01 07:45:35*
%MOMM*%
%LPD*%
G01*
G04 APERTURE LIST*
%ADD10R,0.950000X0.800000*%
%ADD11R,2.000000X1.500000*%
G04 APERTURE END LIST*
D10*
%TO.C,LED1*%
X160750500Y-88202500D03*
X163480500Y-88202500D03*
X160750500Y-86422500D03*
X163480500Y-86422500D03*
%TD*%
%TO.C,LED1*%
X141700500Y-88202500D03*
X144430500Y-88202500D03*
X141700500Y-86422500D03*
X144430500Y-86422500D03*
%TD*%
%TO.C,LED1*%
X122650500Y-88202500D03*
X125380500Y-88202500D03*
X122650500Y-86422500D03*
X125380500Y-86422500D03*
%TD*%
D11*
%TO.C,J4*%
X170624500Y-94932500D03*
X170624500Y-92932500D03*
X170624500Y-90932500D03*
X170624500Y-88932500D03*
X170624500Y-96932500D03*
X170624500Y-86932500D03*
X170624500Y-98932500D03*
X170624500Y-100932500D03*
X170624500Y-102932500D03*
%TD*%
%TO.C,J4*%
X151574500Y-94932500D03*
X151574500Y-92932500D03*
X151574500Y-90932500D03*
X151574500Y-88932500D03*
X151574500Y-96932500D03*
X151574500Y-86932500D03*
X151574500Y-98932500D03*
X151574500Y-100932500D03*
X151574500Y-102932500D03*
%TD*%
%TO.C,J4*%
X132524500Y-94932500D03*
X132524500Y-92932500D03*
X132524500Y-90932500D03*
X132524500Y-88932500D03*
X132524500Y-96932500D03*
X132524500Y-86932500D03*
X132524500Y-98932500D03*
X132524500Y-100932500D03*
X132524500Y-102932500D03*
%TD*%
%TO.C,J3*%
X153606500Y-94932500D03*
X153606500Y-92932500D03*
X153606500Y-90932500D03*
X153606500Y-88932500D03*
X153606500Y-96932500D03*
X153606500Y-86932500D03*
X153606500Y-98932500D03*
X153606500Y-100932500D03*
X153606500Y-102932500D03*
%TD*%
%TO.C,J3*%
X134556500Y-94932500D03*
X134556500Y-92932500D03*
X134556500Y-90932500D03*
X134556500Y-88932500D03*
X134556500Y-96932500D03*
X134556500Y-86932500D03*
X134556500Y-98932500D03*
X134556500Y-100932500D03*
X134556500Y-102932500D03*
%TD*%
%TO.C,J3*%
X115506500Y-94932500D03*
X115506500Y-92932500D03*
X115506500Y-90932500D03*
X115506500Y-88932500D03*
X115506500Y-96932500D03*
X115506500Y-86932500D03*
X115506500Y-98932500D03*
X115506500Y-100932500D03*
X115506500Y-102932500D03*
%TD*%
%TO.C,J4*%
X113474500Y-102932500D03*
X113474500Y-100932500D03*
X113474500Y-98932500D03*
X113474500Y-86932500D03*
X113474500Y-96932500D03*
X113474500Y-88932500D03*
X113474500Y-90932500D03*
X113474500Y-92932500D03*
X113474500Y-94932500D03*
%TD*%
%TO.C,J3*%
X96456500Y-102932500D03*
X96456500Y-100932500D03*
X96456500Y-98932500D03*
X96456500Y-86932500D03*
X96456500Y-96932500D03*
X96456500Y-88932500D03*
X96456500Y-90932500D03*
X96456500Y-92932500D03*
X96456500Y-94932500D03*
%TD*%
D10*
%TO.C,LED1*%
X106330500Y-86422500D03*
X103600500Y-86422500D03*
X106330500Y-88202500D03*
X103600500Y-88202500D03*
%TD*%
M02*
