%TF.GenerationSoftware,KiCad,Pcbnew,(5.1.9)-1*%
%TF.CreationDate,2021-10-01T07:45:35+02:00*%
%TF.ProjectId,poly_kb_1Ux4,706f6c79-5f6b-4625-9f31-5578342e6b69,rev?*%
%TF.SameCoordinates,Original*%
%TF.FileFunction,Legend,Bot*%
%TF.FilePolarity,Positive*%
%FSLAX46Y46*%
G04 Gerber Fmt 4.6, Leading zero omitted, Abs format (unit mm)*
G04 Created by KiCad (PCBNEW (5.1.9)-1) date 2021-10-01 07:45:35*
%MOMM*%
%LPD*%
G01*
G04 APERTURE LIST*
%ADD10C,0.153000*%
%ADD11C,0.150000*%
%ADD12C,0.127000*%
%ADD13C,0.300000*%
%ADD14C,0.180000*%
%ADD15C,0.120000*%
%ADD16R,2.000000X1.500000*%
%ADD17R,0.300000X0.650000*%
%ADD18R,0.300000X1.150000*%
%ADD19C,1.700000*%
%ADD20C,4.000000*%
%ADD21C,2.200000*%
%ADD22R,1.500000X1.500000*%
%ADD23R,0.600000X0.450000*%
G04 APERTURE END LIST*
D10*
X157162523Y-103574809D02*
X157238714Y-103612904D01*
X157391095Y-103612904D01*
X157467285Y-103574809D01*
X157505380Y-103536714D01*
X157543476Y-103460523D01*
X157543476Y-103231952D01*
X157505380Y-103155761D01*
X157467285Y-103117666D01*
X157391095Y-103079571D01*
X157238714Y-103079571D01*
X157162523Y-103117666D01*
X138112523Y-103574809D02*
X138188714Y-103612904D01*
X138341095Y-103612904D01*
X138417285Y-103574809D01*
X138455380Y-103536714D01*
X138493476Y-103460523D01*
X138493476Y-103231952D01*
X138455380Y-103155761D01*
X138417285Y-103117666D01*
X138341095Y-103079571D01*
X138188714Y-103079571D01*
X138112523Y-103117666D01*
X119062523Y-103574809D02*
X119138714Y-103612904D01*
X119291095Y-103612904D01*
X119367285Y-103574809D01*
X119405380Y-103536714D01*
X119443476Y-103460523D01*
X119443476Y-103231952D01*
X119405380Y-103155761D01*
X119367285Y-103117666D01*
X119291095Y-103079571D01*
X119138714Y-103079571D01*
X119062523Y-103117666D01*
X169367166Y-100590404D02*
X168833833Y-100590404D01*
X169176690Y-101390404D01*
X150317166Y-100590404D02*
X149783833Y-100590404D01*
X150126690Y-101390404D01*
X131267166Y-100590404D02*
X130733833Y-100590404D01*
X131076690Y-101390404D01*
X168948119Y-94824570D02*
X168948119Y-95357903D01*
X169138595Y-94519808D02*
X169329071Y-95091237D01*
X168833833Y-95091237D01*
X149898119Y-94824570D02*
X149898119Y-95357903D01*
X150088595Y-94519808D02*
X150279071Y-95091237D01*
X149783833Y-95091237D01*
X130848119Y-94824570D02*
X130848119Y-95357903D01*
X131038595Y-94519808D02*
X131229071Y-95091237D01*
X130733833Y-95091237D01*
X154895585Y-98079965D02*
X154857490Y-98118060D01*
X154819395Y-98232346D01*
X154819395Y-98308536D01*
X154857490Y-98422822D01*
X154933680Y-98499012D01*
X155009871Y-98537108D01*
X155162252Y-98575203D01*
X155276538Y-98575203D01*
X155428919Y-98537108D01*
X155505109Y-98499012D01*
X155581300Y-98422822D01*
X155619395Y-98308536D01*
X155619395Y-98232346D01*
X155581300Y-98118060D01*
X155543204Y-98079965D01*
X154857490Y-97775203D02*
X154819395Y-97660917D01*
X154819395Y-97470441D01*
X154857490Y-97394251D01*
X154895585Y-97356155D01*
X154971776Y-97318060D01*
X155047966Y-97318060D01*
X155124157Y-97356155D01*
X155162252Y-97394251D01*
X155200347Y-97470441D01*
X155238442Y-97622822D01*
X155276538Y-97699012D01*
X155314633Y-97737108D01*
X155390823Y-97775203D01*
X155467014Y-97775203D01*
X155543204Y-97737108D01*
X155581300Y-97699012D01*
X155619395Y-97622822D01*
X155619395Y-97432346D01*
X155581300Y-97318060D01*
X135845585Y-98079965D02*
X135807490Y-98118060D01*
X135769395Y-98232346D01*
X135769395Y-98308536D01*
X135807490Y-98422822D01*
X135883680Y-98499012D01*
X135959871Y-98537108D01*
X136112252Y-98575203D01*
X136226538Y-98575203D01*
X136378919Y-98537108D01*
X136455109Y-98499012D01*
X136531300Y-98422822D01*
X136569395Y-98308536D01*
X136569395Y-98232346D01*
X136531300Y-98118060D01*
X136493204Y-98079965D01*
X135807490Y-97775203D02*
X135769395Y-97660917D01*
X135769395Y-97470441D01*
X135807490Y-97394251D01*
X135845585Y-97356155D01*
X135921776Y-97318060D01*
X135997966Y-97318060D01*
X136074157Y-97356155D01*
X136112252Y-97394251D01*
X136150347Y-97470441D01*
X136188442Y-97622822D01*
X136226538Y-97699012D01*
X136264633Y-97737108D01*
X136340823Y-97775203D01*
X136417014Y-97775203D01*
X136493204Y-97737108D01*
X136531300Y-97699012D01*
X136569395Y-97622822D01*
X136569395Y-97432346D01*
X136531300Y-97318060D01*
X116795585Y-98079965D02*
X116757490Y-98118060D01*
X116719395Y-98232346D01*
X116719395Y-98308536D01*
X116757490Y-98422822D01*
X116833680Y-98499012D01*
X116909871Y-98537108D01*
X117062252Y-98575203D01*
X117176538Y-98575203D01*
X117328919Y-98537108D01*
X117405109Y-98499012D01*
X117481300Y-98422822D01*
X117519395Y-98308536D01*
X117519395Y-98232346D01*
X117481300Y-98118060D01*
X117443204Y-98079965D01*
X116757490Y-97775203D02*
X116719395Y-97660917D01*
X116719395Y-97470441D01*
X116757490Y-97394251D01*
X116795585Y-97356155D01*
X116871776Y-97318060D01*
X116947966Y-97318060D01*
X117024157Y-97356155D01*
X117062252Y-97394251D01*
X117100347Y-97470441D01*
X117138442Y-97622822D01*
X117176538Y-97699012D01*
X117214633Y-97737108D01*
X117290823Y-97775203D01*
X117367014Y-97775203D01*
X117443204Y-97737108D01*
X117481300Y-97699012D01*
X117519395Y-97622822D01*
X117519395Y-97432346D01*
X117481300Y-97318060D01*
X154895585Y-94075233D02*
X154857490Y-94113328D01*
X154819395Y-94227614D01*
X154819395Y-94303804D01*
X154857490Y-94418090D01*
X154933680Y-94494280D01*
X155009871Y-94532376D01*
X155162252Y-94570471D01*
X155276538Y-94570471D01*
X155428919Y-94532376D01*
X155505109Y-94494280D01*
X155581300Y-94418090D01*
X155619395Y-94303804D01*
X155619395Y-94227614D01*
X155581300Y-94113328D01*
X155543204Y-94075233D01*
X154857490Y-93770471D02*
X154819395Y-93656185D01*
X154819395Y-93465709D01*
X154857490Y-93389519D01*
X154895585Y-93351423D01*
X154971776Y-93313328D01*
X155047966Y-93313328D01*
X155124157Y-93351423D01*
X155162252Y-93389519D01*
X155200347Y-93465709D01*
X155238442Y-93618090D01*
X155276538Y-93694280D01*
X155314633Y-93732376D01*
X155390823Y-93770471D01*
X155467014Y-93770471D01*
X155543204Y-93732376D01*
X155581300Y-93694280D01*
X155619395Y-93618090D01*
X155619395Y-93427614D01*
X155581300Y-93313328D01*
X135845585Y-94075233D02*
X135807490Y-94113328D01*
X135769395Y-94227614D01*
X135769395Y-94303804D01*
X135807490Y-94418090D01*
X135883680Y-94494280D01*
X135959871Y-94532376D01*
X136112252Y-94570471D01*
X136226538Y-94570471D01*
X136378919Y-94532376D01*
X136455109Y-94494280D01*
X136531300Y-94418090D01*
X136569395Y-94303804D01*
X136569395Y-94227614D01*
X136531300Y-94113328D01*
X136493204Y-94075233D01*
X135807490Y-93770471D02*
X135769395Y-93656185D01*
X135769395Y-93465709D01*
X135807490Y-93389519D01*
X135845585Y-93351423D01*
X135921776Y-93313328D01*
X135997966Y-93313328D01*
X136074157Y-93351423D01*
X136112252Y-93389519D01*
X136150347Y-93465709D01*
X136188442Y-93618090D01*
X136226538Y-93694280D01*
X136264633Y-93732376D01*
X136340823Y-93770471D01*
X136417014Y-93770471D01*
X136493204Y-93732376D01*
X136531300Y-93694280D01*
X136569395Y-93618090D01*
X136569395Y-93427614D01*
X136531300Y-93313328D01*
X116795585Y-94075233D02*
X116757490Y-94113328D01*
X116719395Y-94227614D01*
X116719395Y-94303804D01*
X116757490Y-94418090D01*
X116833680Y-94494280D01*
X116909871Y-94532376D01*
X117062252Y-94570471D01*
X117176538Y-94570471D01*
X117328919Y-94532376D01*
X117405109Y-94494280D01*
X117481300Y-94418090D01*
X117519395Y-94303804D01*
X117519395Y-94227614D01*
X117481300Y-94113328D01*
X117443204Y-94075233D01*
X116757490Y-93770471D02*
X116719395Y-93656185D01*
X116719395Y-93465709D01*
X116757490Y-93389519D01*
X116795585Y-93351423D01*
X116871776Y-93313328D01*
X116947966Y-93313328D01*
X117024157Y-93351423D01*
X117062252Y-93389519D01*
X117100347Y-93465709D01*
X117138442Y-93618090D01*
X117176538Y-93694280D01*
X117214633Y-93732376D01*
X117290823Y-93770471D01*
X117367014Y-93770471D01*
X117443204Y-93732376D01*
X117481300Y-93694280D01*
X117519395Y-93618090D01*
X117519395Y-93427614D01*
X117481300Y-93313328D01*
X167678023Y-90189100D02*
X167754214Y-90151004D01*
X167868500Y-90151004D01*
X167982785Y-90189100D01*
X168058976Y-90265290D01*
X168097071Y-90341480D01*
X168135166Y-90493861D01*
X168135166Y-90608147D01*
X168097071Y-90760528D01*
X168058976Y-90836719D01*
X167982785Y-90912909D01*
X167868500Y-90951004D01*
X167792309Y-90951004D01*
X167678023Y-90912909D01*
X167639928Y-90874814D01*
X167639928Y-90608147D01*
X167792309Y-90608147D01*
X167297071Y-90951004D02*
X167297071Y-90151004D01*
X166839928Y-90951004D01*
X166839928Y-90151004D01*
X166458976Y-90951004D02*
X166458976Y-90151004D01*
X166268500Y-90151004D01*
X166154214Y-90189100D01*
X166078023Y-90265290D01*
X166039928Y-90341480D01*
X166001833Y-90493861D01*
X166001833Y-90608147D01*
X166039928Y-90760528D01*
X166078023Y-90836719D01*
X166154214Y-90912909D01*
X166268500Y-90951004D01*
X166458976Y-90951004D01*
X148628023Y-90189100D02*
X148704214Y-90151004D01*
X148818500Y-90151004D01*
X148932785Y-90189100D01*
X149008976Y-90265290D01*
X149047071Y-90341480D01*
X149085166Y-90493861D01*
X149085166Y-90608147D01*
X149047071Y-90760528D01*
X149008976Y-90836719D01*
X148932785Y-90912909D01*
X148818500Y-90951004D01*
X148742309Y-90951004D01*
X148628023Y-90912909D01*
X148589928Y-90874814D01*
X148589928Y-90608147D01*
X148742309Y-90608147D01*
X148247071Y-90951004D02*
X148247071Y-90151004D01*
X147789928Y-90951004D01*
X147789928Y-90151004D01*
X147408976Y-90951004D02*
X147408976Y-90151004D01*
X147218500Y-90151004D01*
X147104214Y-90189100D01*
X147028023Y-90265290D01*
X146989928Y-90341480D01*
X146951833Y-90493861D01*
X146951833Y-90608147D01*
X146989928Y-90760528D01*
X147028023Y-90836719D01*
X147104214Y-90912909D01*
X147218500Y-90951004D01*
X147408976Y-90951004D01*
X129578023Y-90189100D02*
X129654214Y-90151004D01*
X129768500Y-90151004D01*
X129882785Y-90189100D01*
X129958976Y-90265290D01*
X129997071Y-90341480D01*
X130035166Y-90493861D01*
X130035166Y-90608147D01*
X129997071Y-90760528D01*
X129958976Y-90836719D01*
X129882785Y-90912909D01*
X129768500Y-90951004D01*
X129692309Y-90951004D01*
X129578023Y-90912909D01*
X129539928Y-90874814D01*
X129539928Y-90608147D01*
X129692309Y-90608147D01*
X129197071Y-90951004D02*
X129197071Y-90151004D01*
X128739928Y-90951004D01*
X128739928Y-90151004D01*
X128358976Y-90951004D02*
X128358976Y-90151004D01*
X128168500Y-90151004D01*
X128054214Y-90189100D01*
X127978023Y-90265290D01*
X127939928Y-90341480D01*
X127901833Y-90493861D01*
X127901833Y-90608147D01*
X127939928Y-90760528D01*
X127978023Y-90836719D01*
X128054214Y-90912909D01*
X128168500Y-90951004D01*
X128358976Y-90951004D01*
X166687523Y-103574809D02*
X166763714Y-103612904D01*
X166916095Y-103612904D01*
X166992285Y-103574809D01*
X167030380Y-103536714D01*
X167068476Y-103460523D01*
X167068476Y-103231952D01*
X167030380Y-103155761D01*
X166992285Y-103117666D01*
X166916095Y-103079571D01*
X166763714Y-103079571D01*
X166687523Y-103117666D01*
X147637523Y-103574809D02*
X147713714Y-103612904D01*
X147866095Y-103612904D01*
X147942285Y-103574809D01*
X147980380Y-103536714D01*
X148018476Y-103460523D01*
X148018476Y-103231952D01*
X147980380Y-103155761D01*
X147942285Y-103117666D01*
X147866095Y-103079571D01*
X147713714Y-103079571D01*
X147637523Y-103117666D01*
X128587523Y-103574809D02*
X128663714Y-103612904D01*
X128816095Y-103612904D01*
X128892285Y-103574809D01*
X128930380Y-103536714D01*
X128968476Y-103460523D01*
X128968476Y-103231952D01*
X128930380Y-103155761D01*
X128892285Y-103117666D01*
X128816095Y-103079571D01*
X128663714Y-103079571D01*
X128587523Y-103117666D01*
X168871928Y-89325404D02*
X169329071Y-89325404D01*
X169100500Y-89325404D02*
X169100500Y-88525404D01*
X169176690Y-88639690D01*
X169252880Y-88715880D01*
X169329071Y-88753976D01*
X149821928Y-89325404D02*
X150279071Y-89325404D01*
X150050500Y-89325404D02*
X150050500Y-88525404D01*
X150126690Y-88639690D01*
X150202880Y-88715880D01*
X150279071Y-88753976D01*
X130771928Y-89325404D02*
X131229071Y-89325404D01*
X131000500Y-89325404D02*
X131000500Y-88525404D01*
X131076690Y-88639690D01*
X131152880Y-88715880D01*
X131229071Y-88753976D01*
X154895585Y-102050833D02*
X154857490Y-102088928D01*
X154819395Y-102203214D01*
X154819395Y-102279404D01*
X154857490Y-102393690D01*
X154933680Y-102469880D01*
X155009871Y-102507976D01*
X155162252Y-102546071D01*
X155276538Y-102546071D01*
X155428919Y-102507976D01*
X155505109Y-102469880D01*
X155581300Y-102393690D01*
X155619395Y-102279404D01*
X155619395Y-102203214D01*
X155581300Y-102088928D01*
X155543204Y-102050833D01*
X154857490Y-101746071D02*
X154819395Y-101631785D01*
X154819395Y-101441309D01*
X154857490Y-101365119D01*
X154895585Y-101327023D01*
X154971776Y-101288928D01*
X155047966Y-101288928D01*
X155124157Y-101327023D01*
X155162252Y-101365119D01*
X155200347Y-101441309D01*
X155238442Y-101593690D01*
X155276538Y-101669880D01*
X155314633Y-101707976D01*
X155390823Y-101746071D01*
X155467014Y-101746071D01*
X155543204Y-101707976D01*
X155581300Y-101669880D01*
X155619395Y-101593690D01*
X155619395Y-101403214D01*
X155581300Y-101288928D01*
X135845585Y-102050833D02*
X135807490Y-102088928D01*
X135769395Y-102203214D01*
X135769395Y-102279404D01*
X135807490Y-102393690D01*
X135883680Y-102469880D01*
X135959871Y-102507976D01*
X136112252Y-102546071D01*
X136226538Y-102546071D01*
X136378919Y-102507976D01*
X136455109Y-102469880D01*
X136531300Y-102393690D01*
X136569395Y-102279404D01*
X136569395Y-102203214D01*
X136531300Y-102088928D01*
X136493204Y-102050833D01*
X135807490Y-101746071D02*
X135769395Y-101631785D01*
X135769395Y-101441309D01*
X135807490Y-101365119D01*
X135845585Y-101327023D01*
X135921776Y-101288928D01*
X135997966Y-101288928D01*
X136074157Y-101327023D01*
X136112252Y-101365119D01*
X136150347Y-101441309D01*
X136188442Y-101593690D01*
X136226538Y-101669880D01*
X136264633Y-101707976D01*
X136340823Y-101746071D01*
X136417014Y-101746071D01*
X136493204Y-101707976D01*
X136531300Y-101669880D01*
X136569395Y-101593690D01*
X136569395Y-101403214D01*
X136531300Y-101288928D01*
X116795585Y-102050833D02*
X116757490Y-102088928D01*
X116719395Y-102203214D01*
X116719395Y-102279404D01*
X116757490Y-102393690D01*
X116833680Y-102469880D01*
X116909871Y-102507976D01*
X117062252Y-102546071D01*
X117176538Y-102546071D01*
X117328919Y-102507976D01*
X117405109Y-102469880D01*
X117481300Y-102393690D01*
X117519395Y-102279404D01*
X117519395Y-102203214D01*
X117481300Y-102088928D01*
X117443204Y-102050833D01*
X116757490Y-101746071D02*
X116719395Y-101631785D01*
X116719395Y-101441309D01*
X116757490Y-101365119D01*
X116795585Y-101327023D01*
X116871776Y-101288928D01*
X116947966Y-101288928D01*
X117024157Y-101327023D01*
X117062252Y-101365119D01*
X117100347Y-101441309D01*
X117138442Y-101593690D01*
X117176538Y-101669880D01*
X117214633Y-101707976D01*
X117290823Y-101746071D01*
X117367014Y-101746071D01*
X117443204Y-101707976D01*
X117481300Y-101669880D01*
X117519395Y-101593690D01*
X117519395Y-101403214D01*
X117481300Y-101288928D01*
X169367166Y-92547070D02*
X168871928Y-92547070D01*
X169138595Y-92851832D01*
X169024309Y-92851832D01*
X168948119Y-92889927D01*
X168910023Y-92928023D01*
X168871928Y-93004213D01*
X168871928Y-93194689D01*
X168910023Y-93270880D01*
X168948119Y-93308975D01*
X169024309Y-93347070D01*
X169252880Y-93347070D01*
X169329071Y-93308975D01*
X169367166Y-93270880D01*
X150317166Y-92547070D02*
X149821928Y-92547070D01*
X150088595Y-92851832D01*
X149974309Y-92851832D01*
X149898119Y-92889927D01*
X149860023Y-92928023D01*
X149821928Y-93004213D01*
X149821928Y-93194689D01*
X149860023Y-93270880D01*
X149898119Y-93308975D01*
X149974309Y-93347070D01*
X150202880Y-93347070D01*
X150279071Y-93308975D01*
X150317166Y-93270880D01*
X131267166Y-92547070D02*
X130771928Y-92547070D01*
X131038595Y-92851832D01*
X130924309Y-92851832D01*
X130848119Y-92889927D01*
X130810023Y-92928023D01*
X130771928Y-93004213D01*
X130771928Y-93194689D01*
X130810023Y-93270880D01*
X130848119Y-93308975D01*
X130924309Y-93347070D01*
X131152880Y-93347070D01*
X131229071Y-93308975D01*
X131267166Y-93270880D01*
D11*
X156724328Y-99592985D02*
X155924328Y-99592985D01*
X156686233Y-99592985D02*
X156724328Y-99516795D01*
X156724328Y-99364414D01*
X156686233Y-99288223D01*
X156648138Y-99250128D01*
X156571947Y-99212033D01*
X156343376Y-99212033D01*
X156267185Y-99250128D01*
X156229090Y-99288223D01*
X156190995Y-99364414D01*
X156190995Y-99516795D01*
X156229090Y-99592985D01*
X156190995Y-98869176D02*
X156724328Y-98869176D01*
X156990995Y-98869176D02*
X156952900Y-98907271D01*
X156914804Y-98869176D01*
X156952900Y-98831080D01*
X156990995Y-98869176D01*
X156914804Y-98869176D01*
X156229090Y-98145366D02*
X156190995Y-98221557D01*
X156190995Y-98373938D01*
X156229090Y-98450128D01*
X156267185Y-98488223D01*
X156343376Y-98526319D01*
X156571947Y-98526319D01*
X156648138Y-98488223D01*
X156686233Y-98450128D01*
X156724328Y-98373938D01*
X156724328Y-98221557D01*
X156686233Y-98145366D01*
X156190995Y-97802509D02*
X156990995Y-97802509D01*
X156495757Y-97726319D02*
X156190995Y-97497747D01*
X156724328Y-97497747D02*
X156419566Y-97802509D01*
X156190995Y-94602509D02*
X156229090Y-94678700D01*
X156267185Y-94716795D01*
X156343376Y-94754890D01*
X156571947Y-94754890D01*
X156648138Y-94716795D01*
X156686233Y-94678700D01*
X156724328Y-94602509D01*
X156724328Y-94488223D01*
X156686233Y-94412033D01*
X156648138Y-94373938D01*
X156571947Y-94335842D01*
X156343376Y-94335842D01*
X156267185Y-94373938D01*
X156229090Y-94412033D01*
X156190995Y-94488223D01*
X156190995Y-94602509D01*
X156724328Y-93992985D02*
X156190995Y-93992985D01*
X156648138Y-93992985D02*
X156686233Y-93954890D01*
X156724328Y-93878700D01*
X156724328Y-93764414D01*
X156686233Y-93688223D01*
X156610042Y-93650128D01*
X156190995Y-93650128D01*
X156229090Y-92964414D02*
X156190995Y-93040604D01*
X156190995Y-93192985D01*
X156229090Y-93269176D01*
X156305280Y-93307271D01*
X156610042Y-93307271D01*
X156686233Y-93269176D01*
X156724328Y-93192985D01*
X156724328Y-93040604D01*
X156686233Y-92964414D01*
X156610042Y-92926319D01*
X156533852Y-92926319D01*
X156457661Y-93307271D01*
X137674328Y-99592985D02*
X136874328Y-99592985D01*
X137636233Y-99592985D02*
X137674328Y-99516795D01*
X137674328Y-99364414D01*
X137636233Y-99288223D01*
X137598138Y-99250128D01*
X137521947Y-99212033D01*
X137293376Y-99212033D01*
X137217185Y-99250128D01*
X137179090Y-99288223D01*
X137140995Y-99364414D01*
X137140995Y-99516795D01*
X137179090Y-99592985D01*
X137140995Y-98869176D02*
X137674328Y-98869176D01*
X137940995Y-98869176D02*
X137902900Y-98907271D01*
X137864804Y-98869176D01*
X137902900Y-98831080D01*
X137940995Y-98869176D01*
X137864804Y-98869176D01*
X137179090Y-98145366D02*
X137140995Y-98221557D01*
X137140995Y-98373938D01*
X137179090Y-98450128D01*
X137217185Y-98488223D01*
X137293376Y-98526319D01*
X137521947Y-98526319D01*
X137598138Y-98488223D01*
X137636233Y-98450128D01*
X137674328Y-98373938D01*
X137674328Y-98221557D01*
X137636233Y-98145366D01*
X137140995Y-97802509D02*
X137940995Y-97802509D01*
X137445757Y-97726319D02*
X137140995Y-97497747D01*
X137674328Y-97497747D02*
X137369566Y-97802509D01*
X137140995Y-94602509D02*
X137179090Y-94678700D01*
X137217185Y-94716795D01*
X137293376Y-94754890D01*
X137521947Y-94754890D01*
X137598138Y-94716795D01*
X137636233Y-94678700D01*
X137674328Y-94602509D01*
X137674328Y-94488223D01*
X137636233Y-94412033D01*
X137598138Y-94373938D01*
X137521947Y-94335842D01*
X137293376Y-94335842D01*
X137217185Y-94373938D01*
X137179090Y-94412033D01*
X137140995Y-94488223D01*
X137140995Y-94602509D01*
X137674328Y-93992985D02*
X137140995Y-93992985D01*
X137598138Y-93992985D02*
X137636233Y-93954890D01*
X137674328Y-93878700D01*
X137674328Y-93764414D01*
X137636233Y-93688223D01*
X137560042Y-93650128D01*
X137140995Y-93650128D01*
X137179090Y-92964414D02*
X137140995Y-93040604D01*
X137140995Y-93192985D01*
X137179090Y-93269176D01*
X137255280Y-93307271D01*
X137560042Y-93307271D01*
X137636233Y-93269176D01*
X137674328Y-93192985D01*
X137674328Y-93040604D01*
X137636233Y-92964414D01*
X137560042Y-92926319D01*
X137483852Y-92926319D01*
X137407661Y-93307271D01*
X118624328Y-99592985D02*
X117824328Y-99592985D01*
X118586233Y-99592985D02*
X118624328Y-99516795D01*
X118624328Y-99364414D01*
X118586233Y-99288223D01*
X118548138Y-99250128D01*
X118471947Y-99212033D01*
X118243376Y-99212033D01*
X118167185Y-99250128D01*
X118129090Y-99288223D01*
X118090995Y-99364414D01*
X118090995Y-99516795D01*
X118129090Y-99592985D01*
X118090995Y-98869176D02*
X118624328Y-98869176D01*
X118890995Y-98869176D02*
X118852900Y-98907271D01*
X118814804Y-98869176D01*
X118852900Y-98831080D01*
X118890995Y-98869176D01*
X118814804Y-98869176D01*
X118129090Y-98145366D02*
X118090995Y-98221557D01*
X118090995Y-98373938D01*
X118129090Y-98450128D01*
X118167185Y-98488223D01*
X118243376Y-98526319D01*
X118471947Y-98526319D01*
X118548138Y-98488223D01*
X118586233Y-98450128D01*
X118624328Y-98373938D01*
X118624328Y-98221557D01*
X118586233Y-98145366D01*
X118090995Y-97802509D02*
X118890995Y-97802509D01*
X118395757Y-97726319D02*
X118090995Y-97497747D01*
X118624328Y-97497747D02*
X118319566Y-97802509D01*
X118090995Y-94602509D02*
X118129090Y-94678700D01*
X118167185Y-94716795D01*
X118243376Y-94754890D01*
X118471947Y-94754890D01*
X118548138Y-94716795D01*
X118586233Y-94678700D01*
X118624328Y-94602509D01*
X118624328Y-94488223D01*
X118586233Y-94412033D01*
X118548138Y-94373938D01*
X118471947Y-94335842D01*
X118243376Y-94335842D01*
X118167185Y-94373938D01*
X118129090Y-94412033D01*
X118090995Y-94488223D01*
X118090995Y-94602509D01*
X118624328Y-93992985D02*
X118090995Y-93992985D01*
X118548138Y-93992985D02*
X118586233Y-93954890D01*
X118624328Y-93878700D01*
X118624328Y-93764414D01*
X118586233Y-93688223D01*
X118510042Y-93650128D01*
X118090995Y-93650128D01*
X118129090Y-92964414D02*
X118090995Y-93040604D01*
X118090995Y-93192985D01*
X118129090Y-93269176D01*
X118205280Y-93307271D01*
X118510042Y-93307271D01*
X118586233Y-93269176D01*
X118624328Y-93192985D01*
X118624328Y-93040604D01*
X118586233Y-92964414D01*
X118510042Y-92926319D01*
X118433852Y-92926319D01*
X118357661Y-93307271D01*
D10*
X164413909Y-86785404D02*
X164413909Y-85985404D01*
X164223433Y-85985404D01*
X164109147Y-86023500D01*
X164032957Y-86099690D01*
X163994861Y-86175880D01*
X163956766Y-86328261D01*
X163956766Y-86442547D01*
X163994861Y-86594928D01*
X164032957Y-86671119D01*
X164109147Y-86747309D01*
X164223433Y-86785404D01*
X164413909Y-86785404D01*
X163613909Y-86785404D02*
X163613909Y-86252071D01*
X163613909Y-85985404D02*
X163652004Y-86023500D01*
X163613909Y-86061595D01*
X163575814Y-86023500D01*
X163613909Y-85985404D01*
X163613909Y-86061595D01*
X163271052Y-86747309D02*
X163194861Y-86785404D01*
X163042480Y-86785404D01*
X162966290Y-86747309D01*
X162928195Y-86671119D01*
X162928195Y-86633023D01*
X162966290Y-86556833D01*
X163042480Y-86518738D01*
X163156766Y-86518738D01*
X163232957Y-86480642D01*
X163271052Y-86404452D01*
X163271052Y-86366357D01*
X163232957Y-86290166D01*
X163156766Y-86252071D01*
X163042480Y-86252071D01*
X162966290Y-86290166D01*
X162585338Y-86252071D02*
X162585338Y-87052071D01*
X162585338Y-86290166D02*
X162509147Y-86252071D01*
X162356766Y-86252071D01*
X162280576Y-86290166D01*
X162242480Y-86328261D01*
X162204385Y-86404452D01*
X162204385Y-86633023D01*
X162242480Y-86709214D01*
X162280576Y-86747309D01*
X162356766Y-86785404D01*
X162509147Y-86785404D01*
X162585338Y-86747309D01*
X161861528Y-86785404D02*
X161861528Y-85985404D01*
X161556766Y-85985404D01*
X161480576Y-86023500D01*
X161442480Y-86061595D01*
X161404385Y-86137785D01*
X161404385Y-86252071D01*
X161442480Y-86328261D01*
X161480576Y-86366357D01*
X161556766Y-86404452D01*
X161861528Y-86404452D01*
X160947242Y-86785404D02*
X161023433Y-86747309D01*
X161061528Y-86709214D01*
X161099623Y-86633023D01*
X161099623Y-86404452D01*
X161061528Y-86328261D01*
X161023433Y-86290166D01*
X160947242Y-86252071D01*
X160832957Y-86252071D01*
X160756766Y-86290166D01*
X160718671Y-86328261D01*
X160680576Y-86404452D01*
X160680576Y-86633023D01*
X160718671Y-86709214D01*
X160756766Y-86747309D01*
X160832957Y-86785404D01*
X160947242Y-86785404D01*
X160337719Y-86785404D02*
X160337719Y-86252071D01*
X160337719Y-86404452D02*
X160299623Y-86328261D01*
X160261528Y-86290166D01*
X160185338Y-86252071D01*
X160109147Y-86252071D01*
X159956766Y-86252071D02*
X159652004Y-86252071D01*
X159842480Y-85985404D02*
X159842480Y-86671119D01*
X159804385Y-86747309D01*
X159728195Y-86785404D01*
X159652004Y-86785404D01*
X145363909Y-86785404D02*
X145363909Y-85985404D01*
X145173433Y-85985404D01*
X145059147Y-86023500D01*
X144982957Y-86099690D01*
X144944861Y-86175880D01*
X144906766Y-86328261D01*
X144906766Y-86442547D01*
X144944861Y-86594928D01*
X144982957Y-86671119D01*
X145059147Y-86747309D01*
X145173433Y-86785404D01*
X145363909Y-86785404D01*
X144563909Y-86785404D02*
X144563909Y-86252071D01*
X144563909Y-85985404D02*
X144602004Y-86023500D01*
X144563909Y-86061595D01*
X144525814Y-86023500D01*
X144563909Y-85985404D01*
X144563909Y-86061595D01*
X144221052Y-86747309D02*
X144144861Y-86785404D01*
X143992480Y-86785404D01*
X143916290Y-86747309D01*
X143878195Y-86671119D01*
X143878195Y-86633023D01*
X143916290Y-86556833D01*
X143992480Y-86518738D01*
X144106766Y-86518738D01*
X144182957Y-86480642D01*
X144221052Y-86404452D01*
X144221052Y-86366357D01*
X144182957Y-86290166D01*
X144106766Y-86252071D01*
X143992480Y-86252071D01*
X143916290Y-86290166D01*
X143535338Y-86252071D02*
X143535338Y-87052071D01*
X143535338Y-86290166D02*
X143459147Y-86252071D01*
X143306766Y-86252071D01*
X143230576Y-86290166D01*
X143192480Y-86328261D01*
X143154385Y-86404452D01*
X143154385Y-86633023D01*
X143192480Y-86709214D01*
X143230576Y-86747309D01*
X143306766Y-86785404D01*
X143459147Y-86785404D01*
X143535338Y-86747309D01*
X142811528Y-86785404D02*
X142811528Y-85985404D01*
X142506766Y-85985404D01*
X142430576Y-86023500D01*
X142392480Y-86061595D01*
X142354385Y-86137785D01*
X142354385Y-86252071D01*
X142392480Y-86328261D01*
X142430576Y-86366357D01*
X142506766Y-86404452D01*
X142811528Y-86404452D01*
X141897242Y-86785404D02*
X141973433Y-86747309D01*
X142011528Y-86709214D01*
X142049623Y-86633023D01*
X142049623Y-86404452D01*
X142011528Y-86328261D01*
X141973433Y-86290166D01*
X141897242Y-86252071D01*
X141782957Y-86252071D01*
X141706766Y-86290166D01*
X141668671Y-86328261D01*
X141630576Y-86404452D01*
X141630576Y-86633023D01*
X141668671Y-86709214D01*
X141706766Y-86747309D01*
X141782957Y-86785404D01*
X141897242Y-86785404D01*
X141287719Y-86785404D02*
X141287719Y-86252071D01*
X141287719Y-86404452D02*
X141249623Y-86328261D01*
X141211528Y-86290166D01*
X141135338Y-86252071D01*
X141059147Y-86252071D01*
X140906766Y-86252071D02*
X140602004Y-86252071D01*
X140792480Y-85985404D02*
X140792480Y-86671119D01*
X140754385Y-86747309D01*
X140678195Y-86785404D01*
X140602004Y-86785404D01*
X126313909Y-86785404D02*
X126313909Y-85985404D01*
X126123433Y-85985404D01*
X126009147Y-86023500D01*
X125932957Y-86099690D01*
X125894861Y-86175880D01*
X125856766Y-86328261D01*
X125856766Y-86442547D01*
X125894861Y-86594928D01*
X125932957Y-86671119D01*
X126009147Y-86747309D01*
X126123433Y-86785404D01*
X126313909Y-86785404D01*
X125513909Y-86785404D02*
X125513909Y-86252071D01*
X125513909Y-85985404D02*
X125552004Y-86023500D01*
X125513909Y-86061595D01*
X125475814Y-86023500D01*
X125513909Y-85985404D01*
X125513909Y-86061595D01*
X125171052Y-86747309D02*
X125094861Y-86785404D01*
X124942480Y-86785404D01*
X124866290Y-86747309D01*
X124828195Y-86671119D01*
X124828195Y-86633023D01*
X124866290Y-86556833D01*
X124942480Y-86518738D01*
X125056766Y-86518738D01*
X125132957Y-86480642D01*
X125171052Y-86404452D01*
X125171052Y-86366357D01*
X125132957Y-86290166D01*
X125056766Y-86252071D01*
X124942480Y-86252071D01*
X124866290Y-86290166D01*
X124485338Y-86252071D02*
X124485338Y-87052071D01*
X124485338Y-86290166D02*
X124409147Y-86252071D01*
X124256766Y-86252071D01*
X124180576Y-86290166D01*
X124142480Y-86328261D01*
X124104385Y-86404452D01*
X124104385Y-86633023D01*
X124142480Y-86709214D01*
X124180576Y-86747309D01*
X124256766Y-86785404D01*
X124409147Y-86785404D01*
X124485338Y-86747309D01*
X123761528Y-86785404D02*
X123761528Y-85985404D01*
X123456766Y-85985404D01*
X123380576Y-86023500D01*
X123342480Y-86061595D01*
X123304385Y-86137785D01*
X123304385Y-86252071D01*
X123342480Y-86328261D01*
X123380576Y-86366357D01*
X123456766Y-86404452D01*
X123761528Y-86404452D01*
X122847242Y-86785404D02*
X122923433Y-86747309D01*
X122961528Y-86709214D01*
X122999623Y-86633023D01*
X122999623Y-86404452D01*
X122961528Y-86328261D01*
X122923433Y-86290166D01*
X122847242Y-86252071D01*
X122732957Y-86252071D01*
X122656766Y-86290166D01*
X122618671Y-86328261D01*
X122580576Y-86404452D01*
X122580576Y-86633023D01*
X122618671Y-86709214D01*
X122656766Y-86747309D01*
X122732957Y-86785404D01*
X122847242Y-86785404D01*
X122237719Y-86785404D02*
X122237719Y-86252071D01*
X122237719Y-86404452D02*
X122199623Y-86328261D01*
X122161528Y-86290166D01*
X122085338Y-86252071D01*
X122009147Y-86252071D01*
X121856766Y-86252071D02*
X121552004Y-86252071D01*
X121742480Y-85985404D02*
X121742480Y-86671119D01*
X121704385Y-86747309D01*
X121628195Y-86785404D01*
X121552004Y-86785404D01*
X154870185Y-90011233D02*
X154832090Y-90049328D01*
X154793995Y-90163614D01*
X154793995Y-90239804D01*
X154832090Y-90354090D01*
X154908280Y-90430280D01*
X154984471Y-90468376D01*
X155136852Y-90506471D01*
X155251138Y-90506471D01*
X155403519Y-90468376D01*
X155479709Y-90430280D01*
X155555900Y-90354090D01*
X155593995Y-90239804D01*
X155593995Y-90163614D01*
X155555900Y-90049328D01*
X155517804Y-90011233D01*
X154832090Y-89706471D02*
X154793995Y-89592185D01*
X154793995Y-89401709D01*
X154832090Y-89325519D01*
X154870185Y-89287423D01*
X154946376Y-89249328D01*
X155022566Y-89249328D01*
X155098757Y-89287423D01*
X155136852Y-89325519D01*
X155174947Y-89401709D01*
X155213042Y-89554090D01*
X155251138Y-89630280D01*
X155289233Y-89668376D01*
X155365423Y-89706471D01*
X155441614Y-89706471D01*
X155517804Y-89668376D01*
X155555900Y-89630280D01*
X155593995Y-89554090D01*
X155593995Y-89363614D01*
X155555900Y-89249328D01*
X135820185Y-90011233D02*
X135782090Y-90049328D01*
X135743995Y-90163614D01*
X135743995Y-90239804D01*
X135782090Y-90354090D01*
X135858280Y-90430280D01*
X135934471Y-90468376D01*
X136086852Y-90506471D01*
X136201138Y-90506471D01*
X136353519Y-90468376D01*
X136429709Y-90430280D01*
X136505900Y-90354090D01*
X136543995Y-90239804D01*
X136543995Y-90163614D01*
X136505900Y-90049328D01*
X136467804Y-90011233D01*
X135782090Y-89706471D02*
X135743995Y-89592185D01*
X135743995Y-89401709D01*
X135782090Y-89325519D01*
X135820185Y-89287423D01*
X135896376Y-89249328D01*
X135972566Y-89249328D01*
X136048757Y-89287423D01*
X136086852Y-89325519D01*
X136124947Y-89401709D01*
X136163042Y-89554090D01*
X136201138Y-89630280D01*
X136239233Y-89668376D01*
X136315423Y-89706471D01*
X136391614Y-89706471D01*
X136467804Y-89668376D01*
X136505900Y-89630280D01*
X136543995Y-89554090D01*
X136543995Y-89363614D01*
X136505900Y-89249328D01*
X116770185Y-90011233D02*
X116732090Y-90049328D01*
X116693995Y-90163614D01*
X116693995Y-90239804D01*
X116732090Y-90354090D01*
X116808280Y-90430280D01*
X116884471Y-90468376D01*
X117036852Y-90506471D01*
X117151138Y-90506471D01*
X117303519Y-90468376D01*
X117379709Y-90430280D01*
X117455900Y-90354090D01*
X117493995Y-90239804D01*
X117493995Y-90163614D01*
X117455900Y-90049328D01*
X117417804Y-90011233D01*
X116732090Y-89706471D02*
X116693995Y-89592185D01*
X116693995Y-89401709D01*
X116732090Y-89325519D01*
X116770185Y-89287423D01*
X116846376Y-89249328D01*
X116922566Y-89249328D01*
X116998757Y-89287423D01*
X117036852Y-89325519D01*
X117074947Y-89401709D01*
X117113042Y-89554090D01*
X117151138Y-89630280D01*
X117189233Y-89668376D01*
X117265423Y-89706471D01*
X117341614Y-89706471D01*
X117417804Y-89668376D01*
X117455900Y-89630280D01*
X117493995Y-89554090D01*
X117493995Y-89363614D01*
X117455900Y-89249328D01*
X168910023Y-96568736D02*
X169290976Y-96568736D01*
X169329071Y-96949689D01*
X169290976Y-96911593D01*
X169214785Y-96873498D01*
X169024309Y-96873498D01*
X168948119Y-96911593D01*
X168910023Y-96949689D01*
X168871928Y-97025879D01*
X168871928Y-97216355D01*
X168910023Y-97292546D01*
X168948119Y-97330641D01*
X169024309Y-97368736D01*
X169214785Y-97368736D01*
X169290976Y-97330641D01*
X169329071Y-97292546D01*
X149860023Y-96568736D02*
X150240976Y-96568736D01*
X150279071Y-96949689D01*
X150240976Y-96911593D01*
X150164785Y-96873498D01*
X149974309Y-96873498D01*
X149898119Y-96911593D01*
X149860023Y-96949689D01*
X149821928Y-97025879D01*
X149821928Y-97216355D01*
X149860023Y-97292546D01*
X149898119Y-97330641D01*
X149974309Y-97368736D01*
X150164785Y-97368736D01*
X150240976Y-97330641D01*
X150279071Y-97292546D01*
X130810023Y-96568736D02*
X131190976Y-96568736D01*
X131229071Y-96949689D01*
X131190976Y-96911593D01*
X131114785Y-96873498D01*
X130924309Y-96873498D01*
X130848119Y-96911593D01*
X130810023Y-96949689D01*
X130771928Y-97025879D01*
X130771928Y-97216355D01*
X130810023Y-97292546D01*
X130848119Y-97330641D01*
X130924309Y-97368736D01*
X131114785Y-97368736D01*
X131190976Y-97330641D01*
X131229071Y-97292546D01*
D11*
X166020690Y-96778404D02*
X166020690Y-95978404D01*
X166020690Y-96283166D02*
X165944500Y-96245071D01*
X165792119Y-96245071D01*
X165715928Y-96283166D01*
X165677833Y-96321261D01*
X165639738Y-96397452D01*
X165639738Y-96626023D01*
X165677833Y-96702214D01*
X165715928Y-96740309D01*
X165792119Y-96778404D01*
X165944500Y-96778404D01*
X166020690Y-96740309D01*
X165373071Y-96245071D02*
X165182595Y-96778404D01*
X164992119Y-96245071D02*
X165182595Y-96778404D01*
X165258785Y-96968880D01*
X165296880Y-97006976D01*
X165373071Y-97045071D01*
X167201642Y-97595071D02*
X166896880Y-97595071D01*
X167087357Y-97328404D02*
X167087357Y-98014119D01*
X167049261Y-98090309D01*
X166973071Y-98128404D01*
X166896880Y-98128404D01*
X166630214Y-98128404D02*
X166630214Y-97328404D01*
X166287357Y-98128404D02*
X166287357Y-97709357D01*
X166325452Y-97633166D01*
X166401642Y-97595071D01*
X166515928Y-97595071D01*
X166592119Y-97633166D01*
X166630214Y-97671261D01*
X165906404Y-97595071D02*
X165906404Y-98395071D01*
X165906404Y-97633166D02*
X165830214Y-97595071D01*
X165677833Y-97595071D01*
X165601642Y-97633166D01*
X165563547Y-97671261D01*
X165525452Y-97747452D01*
X165525452Y-97976023D01*
X165563547Y-98052214D01*
X165601642Y-98090309D01*
X165677833Y-98128404D01*
X165830214Y-98128404D01*
X165906404Y-98090309D01*
X165068309Y-98128404D02*
X165144500Y-98090309D01*
X165182595Y-98052214D01*
X165220690Y-97976023D01*
X165220690Y-97747452D01*
X165182595Y-97671261D01*
X165144500Y-97633166D01*
X165068309Y-97595071D01*
X164954023Y-97595071D01*
X164877833Y-97633166D01*
X164839738Y-97671261D01*
X164801642Y-97747452D01*
X164801642Y-97976023D01*
X164839738Y-98052214D01*
X164877833Y-98090309D01*
X164954023Y-98128404D01*
X165068309Y-98128404D01*
X164344500Y-98128404D02*
X164420690Y-98090309D01*
X164458785Y-98014119D01*
X164458785Y-97328404D01*
X163925452Y-98128404D02*
X164001642Y-98090309D01*
X164039738Y-98014119D01*
X164039738Y-97328404D01*
X146970690Y-96778404D02*
X146970690Y-95978404D01*
X146970690Y-96283166D02*
X146894500Y-96245071D01*
X146742119Y-96245071D01*
X146665928Y-96283166D01*
X146627833Y-96321261D01*
X146589738Y-96397452D01*
X146589738Y-96626023D01*
X146627833Y-96702214D01*
X146665928Y-96740309D01*
X146742119Y-96778404D01*
X146894500Y-96778404D01*
X146970690Y-96740309D01*
X146323071Y-96245071D02*
X146132595Y-96778404D01*
X145942119Y-96245071D02*
X146132595Y-96778404D01*
X146208785Y-96968880D01*
X146246880Y-97006976D01*
X146323071Y-97045071D01*
X148151642Y-97595071D02*
X147846880Y-97595071D01*
X148037357Y-97328404D02*
X148037357Y-98014119D01*
X147999261Y-98090309D01*
X147923071Y-98128404D01*
X147846880Y-98128404D01*
X147580214Y-98128404D02*
X147580214Y-97328404D01*
X147237357Y-98128404D02*
X147237357Y-97709357D01*
X147275452Y-97633166D01*
X147351642Y-97595071D01*
X147465928Y-97595071D01*
X147542119Y-97633166D01*
X147580214Y-97671261D01*
X146856404Y-97595071D02*
X146856404Y-98395071D01*
X146856404Y-97633166D02*
X146780214Y-97595071D01*
X146627833Y-97595071D01*
X146551642Y-97633166D01*
X146513547Y-97671261D01*
X146475452Y-97747452D01*
X146475452Y-97976023D01*
X146513547Y-98052214D01*
X146551642Y-98090309D01*
X146627833Y-98128404D01*
X146780214Y-98128404D01*
X146856404Y-98090309D01*
X146018309Y-98128404D02*
X146094500Y-98090309D01*
X146132595Y-98052214D01*
X146170690Y-97976023D01*
X146170690Y-97747452D01*
X146132595Y-97671261D01*
X146094500Y-97633166D01*
X146018309Y-97595071D01*
X145904023Y-97595071D01*
X145827833Y-97633166D01*
X145789738Y-97671261D01*
X145751642Y-97747452D01*
X145751642Y-97976023D01*
X145789738Y-98052214D01*
X145827833Y-98090309D01*
X145904023Y-98128404D01*
X146018309Y-98128404D01*
X145294500Y-98128404D02*
X145370690Y-98090309D01*
X145408785Y-98014119D01*
X145408785Y-97328404D01*
X144875452Y-98128404D02*
X144951642Y-98090309D01*
X144989738Y-98014119D01*
X144989738Y-97328404D01*
X127920690Y-96778404D02*
X127920690Y-95978404D01*
X127920690Y-96283166D02*
X127844500Y-96245071D01*
X127692119Y-96245071D01*
X127615928Y-96283166D01*
X127577833Y-96321261D01*
X127539738Y-96397452D01*
X127539738Y-96626023D01*
X127577833Y-96702214D01*
X127615928Y-96740309D01*
X127692119Y-96778404D01*
X127844500Y-96778404D01*
X127920690Y-96740309D01*
X127273071Y-96245071D02*
X127082595Y-96778404D01*
X126892119Y-96245071D02*
X127082595Y-96778404D01*
X127158785Y-96968880D01*
X127196880Y-97006976D01*
X127273071Y-97045071D01*
X129101642Y-97595071D02*
X128796880Y-97595071D01*
X128987357Y-97328404D02*
X128987357Y-98014119D01*
X128949261Y-98090309D01*
X128873071Y-98128404D01*
X128796880Y-98128404D01*
X128530214Y-98128404D02*
X128530214Y-97328404D01*
X128187357Y-98128404D02*
X128187357Y-97709357D01*
X128225452Y-97633166D01*
X128301642Y-97595071D01*
X128415928Y-97595071D01*
X128492119Y-97633166D01*
X128530214Y-97671261D01*
X127806404Y-97595071D02*
X127806404Y-98395071D01*
X127806404Y-97633166D02*
X127730214Y-97595071D01*
X127577833Y-97595071D01*
X127501642Y-97633166D01*
X127463547Y-97671261D01*
X127425452Y-97747452D01*
X127425452Y-97976023D01*
X127463547Y-98052214D01*
X127501642Y-98090309D01*
X127577833Y-98128404D01*
X127730214Y-98128404D01*
X127806404Y-98090309D01*
X126968309Y-98128404D02*
X127044500Y-98090309D01*
X127082595Y-98052214D01*
X127120690Y-97976023D01*
X127120690Y-97747452D01*
X127082595Y-97671261D01*
X127044500Y-97633166D01*
X126968309Y-97595071D01*
X126854023Y-97595071D01*
X126777833Y-97633166D01*
X126739738Y-97671261D01*
X126701642Y-97747452D01*
X126701642Y-97976023D01*
X126739738Y-98052214D01*
X126777833Y-98090309D01*
X126854023Y-98128404D01*
X126968309Y-98128404D01*
X126244500Y-98128404D02*
X126320690Y-98090309D01*
X126358785Y-98014119D01*
X126358785Y-97328404D01*
X125825452Y-98128404D02*
X125901642Y-98090309D01*
X125939738Y-98014119D01*
X125939738Y-97328404D01*
D10*
X168948119Y-98579569D02*
X169100500Y-98579569D01*
X169176690Y-98617665D01*
X169214785Y-98655760D01*
X169290976Y-98770045D01*
X169329071Y-98922426D01*
X169329071Y-99227188D01*
X169290976Y-99303379D01*
X169252880Y-99341474D01*
X169176690Y-99379569D01*
X169024309Y-99379569D01*
X168948119Y-99341474D01*
X168910023Y-99303379D01*
X168871928Y-99227188D01*
X168871928Y-99036712D01*
X168910023Y-98960522D01*
X168948119Y-98922426D01*
X169024309Y-98884331D01*
X169176690Y-98884331D01*
X169252880Y-98922426D01*
X169290976Y-98960522D01*
X169329071Y-99036712D01*
X149898119Y-98579569D02*
X150050500Y-98579569D01*
X150126690Y-98617665D01*
X150164785Y-98655760D01*
X150240976Y-98770045D01*
X150279071Y-98922426D01*
X150279071Y-99227188D01*
X150240976Y-99303379D01*
X150202880Y-99341474D01*
X150126690Y-99379569D01*
X149974309Y-99379569D01*
X149898119Y-99341474D01*
X149860023Y-99303379D01*
X149821928Y-99227188D01*
X149821928Y-99036712D01*
X149860023Y-98960522D01*
X149898119Y-98922426D01*
X149974309Y-98884331D01*
X150126690Y-98884331D01*
X150202880Y-98922426D01*
X150240976Y-98960522D01*
X150279071Y-99036712D01*
X130848119Y-98579569D02*
X131000500Y-98579569D01*
X131076690Y-98617665D01*
X131114785Y-98655760D01*
X131190976Y-98770045D01*
X131229071Y-98922426D01*
X131229071Y-99227188D01*
X131190976Y-99303379D01*
X131152880Y-99341474D01*
X131076690Y-99379569D01*
X130924309Y-99379569D01*
X130848119Y-99341474D01*
X130810023Y-99303379D01*
X130771928Y-99227188D01*
X130771928Y-99036712D01*
X130810023Y-98960522D01*
X130848119Y-98922426D01*
X130924309Y-98884331D01*
X131076690Y-98884331D01*
X131152880Y-98922426D01*
X131190976Y-98960522D01*
X131229071Y-99036712D01*
X167957490Y-102177861D02*
X168033680Y-102139766D01*
X168071776Y-102101671D01*
X168109871Y-102025480D01*
X168109871Y-101987385D01*
X168071776Y-101911195D01*
X168033680Y-101873100D01*
X167957490Y-101835004D01*
X167805109Y-101835004D01*
X167728919Y-101873100D01*
X167690823Y-101911195D01*
X167652728Y-101987385D01*
X167652728Y-102025480D01*
X167690823Y-102101671D01*
X167728919Y-102139766D01*
X167805109Y-102177861D01*
X167957490Y-102177861D01*
X168033680Y-102215957D01*
X168071776Y-102254052D01*
X168109871Y-102330242D01*
X168109871Y-102482623D01*
X168071776Y-102558814D01*
X168033680Y-102596909D01*
X167957490Y-102635004D01*
X167805109Y-102635004D01*
X167728919Y-102596909D01*
X167690823Y-102558814D01*
X167652728Y-102482623D01*
X167652728Y-102330242D01*
X167690823Y-102254052D01*
X167728919Y-102215957D01*
X167805109Y-102177861D01*
X148907490Y-102177861D02*
X148983680Y-102139766D01*
X149021776Y-102101671D01*
X149059871Y-102025480D01*
X149059871Y-101987385D01*
X149021776Y-101911195D01*
X148983680Y-101873100D01*
X148907490Y-101835004D01*
X148755109Y-101835004D01*
X148678919Y-101873100D01*
X148640823Y-101911195D01*
X148602728Y-101987385D01*
X148602728Y-102025480D01*
X148640823Y-102101671D01*
X148678919Y-102139766D01*
X148755109Y-102177861D01*
X148907490Y-102177861D01*
X148983680Y-102215957D01*
X149021776Y-102254052D01*
X149059871Y-102330242D01*
X149059871Y-102482623D01*
X149021776Y-102558814D01*
X148983680Y-102596909D01*
X148907490Y-102635004D01*
X148755109Y-102635004D01*
X148678919Y-102596909D01*
X148640823Y-102558814D01*
X148602728Y-102482623D01*
X148602728Y-102330242D01*
X148640823Y-102254052D01*
X148678919Y-102215957D01*
X148755109Y-102177861D01*
X129857490Y-102177861D02*
X129933680Y-102139766D01*
X129971776Y-102101671D01*
X130009871Y-102025480D01*
X130009871Y-101987385D01*
X129971776Y-101911195D01*
X129933680Y-101873100D01*
X129857490Y-101835004D01*
X129705109Y-101835004D01*
X129628919Y-101873100D01*
X129590823Y-101911195D01*
X129552728Y-101987385D01*
X129552728Y-102025480D01*
X129590823Y-102101671D01*
X129628919Y-102139766D01*
X129705109Y-102177861D01*
X129857490Y-102177861D01*
X129933680Y-102215957D01*
X129971776Y-102254052D01*
X130009871Y-102330242D01*
X130009871Y-102482623D01*
X129971776Y-102558814D01*
X129933680Y-102596909D01*
X129857490Y-102635004D01*
X129705109Y-102635004D01*
X129628919Y-102596909D01*
X129590823Y-102558814D01*
X129552728Y-102482623D01*
X129552728Y-102330242D01*
X129590823Y-102254052D01*
X129628919Y-102215957D01*
X129705109Y-102177861D01*
X169329071Y-90612428D02*
X169290976Y-90574333D01*
X169214785Y-90536237D01*
X169024309Y-90536237D01*
X168948119Y-90574333D01*
X168910023Y-90612428D01*
X168871928Y-90688618D01*
X168871928Y-90764809D01*
X168910023Y-90879094D01*
X169367166Y-91336237D01*
X168871928Y-91336237D01*
X150279071Y-90612428D02*
X150240976Y-90574333D01*
X150164785Y-90536237D01*
X149974309Y-90536237D01*
X149898119Y-90574333D01*
X149860023Y-90612428D01*
X149821928Y-90688618D01*
X149821928Y-90764809D01*
X149860023Y-90879094D01*
X150317166Y-91336237D01*
X149821928Y-91336237D01*
X131229071Y-90612428D02*
X131190976Y-90574333D01*
X131114785Y-90536237D01*
X130924309Y-90536237D01*
X130848119Y-90574333D01*
X130810023Y-90612428D01*
X130771928Y-90688618D01*
X130771928Y-90764809D01*
X130810023Y-90879094D01*
X131267166Y-91336237D01*
X130771928Y-91336237D01*
X168973523Y-86429809D02*
X169049714Y-86467904D01*
X169202095Y-86467904D01*
X169278285Y-86429809D01*
X169316380Y-86391714D01*
X169354476Y-86315523D01*
X169354476Y-86086952D01*
X169316380Y-86010761D01*
X169278285Y-85972666D01*
X169202095Y-85934571D01*
X169049714Y-85934571D01*
X168973523Y-85972666D01*
X149923523Y-86429809D02*
X149999714Y-86467904D01*
X150152095Y-86467904D01*
X150228285Y-86429809D01*
X150266380Y-86391714D01*
X150304476Y-86315523D01*
X150304476Y-86086952D01*
X150266380Y-86010761D01*
X150228285Y-85972666D01*
X150152095Y-85934571D01*
X149999714Y-85934571D01*
X149923523Y-85972666D01*
X130873523Y-86429809D02*
X130949714Y-86467904D01*
X131102095Y-86467904D01*
X131178285Y-86429809D01*
X131216380Y-86391714D01*
X131254476Y-86315523D01*
X131254476Y-86086952D01*
X131216380Y-86010761D01*
X131178285Y-85972666D01*
X131102095Y-85934571D01*
X130949714Y-85934571D01*
X130873523Y-85972666D01*
X154876523Y-86429809D02*
X154952714Y-86467904D01*
X155105095Y-86467904D01*
X155181285Y-86429809D01*
X155219380Y-86391714D01*
X155257476Y-86315523D01*
X155257476Y-86086952D01*
X155219380Y-86010761D01*
X155181285Y-85972666D01*
X155105095Y-85934571D01*
X154952714Y-85934571D01*
X154876523Y-85972666D01*
X135826523Y-86429809D02*
X135902714Y-86467904D01*
X136055095Y-86467904D01*
X136131285Y-86429809D01*
X136169380Y-86391714D01*
X136207476Y-86315523D01*
X136207476Y-86086952D01*
X136169380Y-86010761D01*
X136131285Y-85972666D01*
X136055095Y-85934571D01*
X135902714Y-85934571D01*
X135826523Y-85972666D01*
X116776523Y-86429809D02*
X116852714Y-86467904D01*
X117005095Y-86467904D01*
X117081285Y-86429809D01*
X117119380Y-86391714D01*
X117157476Y-86315523D01*
X117157476Y-86086952D01*
X117119380Y-86010761D01*
X117081285Y-85972666D01*
X117005095Y-85934571D01*
X116852714Y-85934571D01*
X116776523Y-85972666D01*
D12*
G36*
X155257500Y-85815500D02*
G01*
X152590500Y-85815500D01*
X152590500Y-85434500D01*
X155257500Y-85434500D01*
X155257500Y-85815500D01*
G37*
G36*
X136207500Y-85815500D02*
G01*
X133540500Y-85815500D01*
X133540500Y-85434500D01*
X136207500Y-85434500D01*
X136207500Y-85815500D01*
G37*
G36*
X117157500Y-85815500D02*
G01*
X114490500Y-85815500D01*
X114490500Y-85434500D01*
X117157500Y-85434500D01*
X117157500Y-85815500D01*
G37*
G36*
X157353000Y-85815500D02*
G01*
X156972000Y-85815500D01*
X156972000Y-85434500D01*
X157353000Y-85434500D01*
X157353000Y-85815500D01*
G37*
G36*
X138303000Y-85815500D02*
G01*
X137922000Y-85815500D01*
X137922000Y-85434500D01*
X138303000Y-85434500D01*
X138303000Y-85815500D01*
G37*
G36*
X119253000Y-85815500D02*
G01*
X118872000Y-85815500D01*
X118872000Y-85434500D01*
X119253000Y-85434500D01*
X119253000Y-85815500D01*
G37*
G36*
X157353000Y-104394000D02*
G01*
X156972000Y-104394000D01*
X156972000Y-104013000D01*
X157353000Y-104013000D01*
X157353000Y-104394000D01*
G37*
G36*
X138303000Y-104394000D02*
G01*
X137922000Y-104394000D01*
X137922000Y-104013000D01*
X138303000Y-104013000D01*
X138303000Y-104394000D01*
G37*
G36*
X119253000Y-104394000D02*
G01*
X118872000Y-104394000D01*
X118872000Y-104013000D01*
X119253000Y-104013000D01*
X119253000Y-104394000D01*
G37*
G36*
X155257500Y-104394000D02*
G01*
X152590500Y-104394000D01*
X152590500Y-104013000D01*
X155257500Y-104013000D01*
X155257500Y-104394000D01*
G37*
G36*
X136207500Y-104394000D02*
G01*
X133540500Y-104394000D01*
X133540500Y-104013000D01*
X136207500Y-104013000D01*
X136207500Y-104394000D01*
G37*
G36*
X117157500Y-104394000D02*
G01*
X114490500Y-104394000D01*
X114490500Y-104013000D01*
X117157500Y-104013000D01*
X117157500Y-104394000D01*
G37*
D13*
X167801089Y-100047357D02*
X167651089Y-98847357D01*
X167193946Y-98847357D01*
X167086803Y-98904500D01*
X167036803Y-98961642D01*
X166993946Y-99075928D01*
X167015375Y-99247357D01*
X167086803Y-99361642D01*
X167151089Y-99418785D01*
X167272517Y-99475928D01*
X167729660Y-99475928D01*
X166222517Y-98847357D02*
X165993946Y-98847357D01*
X165886803Y-98904500D01*
X165786803Y-99018785D01*
X165758232Y-99247357D01*
X165808232Y-99647357D01*
X165893946Y-99875928D01*
X166022517Y-99990214D01*
X166143946Y-100047357D01*
X166372517Y-100047357D01*
X166479660Y-99990214D01*
X166579660Y-99875928D01*
X166608232Y-99647357D01*
X166558232Y-99247357D01*
X166472517Y-99018785D01*
X166343946Y-98904500D01*
X166222517Y-98847357D01*
X164772517Y-100047357D02*
X165343946Y-100047357D01*
X165193946Y-98847357D01*
X164072517Y-99475928D02*
X164143946Y-100047357D01*
X164393946Y-98847357D02*
X164072517Y-99475928D01*
X163593946Y-98847357D01*
X163343946Y-100047357D02*
X163193946Y-98847357D01*
X162658232Y-100047357D02*
X163086803Y-99361642D01*
X162508232Y-98847357D02*
X163279660Y-99533071D01*
X161665375Y-99418785D02*
X161501089Y-99475928D01*
X161451089Y-99533071D01*
X161408232Y-99647357D01*
X161429660Y-99818785D01*
X161501089Y-99933071D01*
X161565375Y-99990214D01*
X161686803Y-100047357D01*
X162143946Y-100047357D01*
X161993946Y-98847357D01*
X161593946Y-98847357D01*
X161486803Y-98904500D01*
X161436803Y-98961642D01*
X161393946Y-99075928D01*
X161408232Y-99190214D01*
X161479660Y-99304500D01*
X161543946Y-99361642D01*
X161665375Y-99418785D01*
X162065375Y-99418785D01*
X148751089Y-100047357D02*
X148601089Y-98847357D01*
X148143946Y-98847357D01*
X148036803Y-98904500D01*
X147986803Y-98961642D01*
X147943946Y-99075928D01*
X147965375Y-99247357D01*
X148036803Y-99361642D01*
X148101089Y-99418785D01*
X148222517Y-99475928D01*
X148679660Y-99475928D01*
X147172517Y-98847357D02*
X146943946Y-98847357D01*
X146836803Y-98904500D01*
X146736803Y-99018785D01*
X146708232Y-99247357D01*
X146758232Y-99647357D01*
X146843946Y-99875928D01*
X146972517Y-99990214D01*
X147093946Y-100047357D01*
X147322517Y-100047357D01*
X147429660Y-99990214D01*
X147529660Y-99875928D01*
X147558232Y-99647357D01*
X147508232Y-99247357D01*
X147422517Y-99018785D01*
X147293946Y-98904500D01*
X147172517Y-98847357D01*
X145722517Y-100047357D02*
X146293946Y-100047357D01*
X146143946Y-98847357D01*
X145022517Y-99475928D02*
X145093946Y-100047357D01*
X145343946Y-98847357D02*
X145022517Y-99475928D01*
X144543946Y-98847357D01*
X144293946Y-100047357D02*
X144143946Y-98847357D01*
X143608232Y-100047357D02*
X144036803Y-99361642D01*
X143458232Y-98847357D02*
X144229660Y-99533071D01*
X142615375Y-99418785D02*
X142451089Y-99475928D01*
X142401089Y-99533071D01*
X142358232Y-99647357D01*
X142379660Y-99818785D01*
X142451089Y-99933071D01*
X142515375Y-99990214D01*
X142636803Y-100047357D01*
X143093946Y-100047357D01*
X142943946Y-98847357D01*
X142543946Y-98847357D01*
X142436803Y-98904500D01*
X142386803Y-98961642D01*
X142343946Y-99075928D01*
X142358232Y-99190214D01*
X142429660Y-99304500D01*
X142493946Y-99361642D01*
X142615375Y-99418785D01*
X143015375Y-99418785D01*
X129701089Y-100047357D02*
X129551089Y-98847357D01*
X129093946Y-98847357D01*
X128986803Y-98904500D01*
X128936803Y-98961642D01*
X128893946Y-99075928D01*
X128915375Y-99247357D01*
X128986803Y-99361642D01*
X129051089Y-99418785D01*
X129172517Y-99475928D01*
X129629660Y-99475928D01*
X128122517Y-98847357D02*
X127893946Y-98847357D01*
X127786803Y-98904500D01*
X127686803Y-99018785D01*
X127658232Y-99247357D01*
X127708232Y-99647357D01*
X127793946Y-99875928D01*
X127922517Y-99990214D01*
X128043946Y-100047357D01*
X128272517Y-100047357D01*
X128379660Y-99990214D01*
X128479660Y-99875928D01*
X128508232Y-99647357D01*
X128458232Y-99247357D01*
X128372517Y-99018785D01*
X128243946Y-98904500D01*
X128122517Y-98847357D01*
X126672517Y-100047357D02*
X127243946Y-100047357D01*
X127093946Y-98847357D01*
X125972517Y-99475928D02*
X126043946Y-100047357D01*
X126293946Y-98847357D02*
X125972517Y-99475928D01*
X125493946Y-98847357D01*
X125243946Y-100047357D02*
X125093946Y-98847357D01*
X124558232Y-100047357D02*
X124986803Y-99361642D01*
X124408232Y-98847357D02*
X125179660Y-99533071D01*
X123565375Y-99418785D02*
X123401089Y-99475928D01*
X123351089Y-99533071D01*
X123308232Y-99647357D01*
X123329660Y-99818785D01*
X123401089Y-99933071D01*
X123465375Y-99990214D01*
X123586803Y-100047357D01*
X124043946Y-100047357D01*
X123893946Y-98847357D01*
X123493946Y-98847357D01*
X123386803Y-98904500D01*
X123336803Y-98961642D01*
X123293946Y-99075928D01*
X123308232Y-99190214D01*
X123379660Y-99304500D01*
X123443946Y-99361642D01*
X123565375Y-99418785D01*
X123965375Y-99418785D01*
X164881746Y-103451000D02*
X164310317Y-103451000D01*
X165038889Y-103793857D02*
X164488889Y-102593857D01*
X164238889Y-103793857D01*
X163860317Y-102593857D02*
X163174603Y-102593857D01*
X163667460Y-103793857D02*
X163517460Y-102593857D01*
X162546032Y-102593857D02*
X162317460Y-102593857D01*
X162210317Y-102651000D01*
X162110317Y-102765285D01*
X162081746Y-102993857D01*
X162131746Y-103393857D01*
X162217460Y-103622428D01*
X162346032Y-103736714D01*
X162467460Y-103793857D01*
X162696032Y-103793857D01*
X162803175Y-103736714D01*
X162903175Y-103622428D01*
X162931746Y-103393857D01*
X162881746Y-102993857D01*
X162796032Y-102765285D01*
X162667460Y-102651000D01*
X162546032Y-102593857D01*
X161667460Y-103793857D02*
X161517460Y-102593857D01*
X161224603Y-103451000D01*
X160717460Y-102593857D01*
X160867460Y-103793857D01*
X160217460Y-102708142D02*
X160153175Y-102651000D01*
X160031746Y-102593857D01*
X159746032Y-102593857D01*
X159638889Y-102651000D01*
X159588889Y-102708142D01*
X159546032Y-102822428D01*
X159560317Y-102936714D01*
X159638889Y-103108142D01*
X160410317Y-103793857D01*
X159667460Y-103793857D01*
X145831746Y-103451000D02*
X145260317Y-103451000D01*
X145988889Y-103793857D02*
X145438889Y-102593857D01*
X145188889Y-103793857D01*
X144810317Y-102593857D02*
X144124603Y-102593857D01*
X144617460Y-103793857D02*
X144467460Y-102593857D01*
X143496032Y-102593857D02*
X143267460Y-102593857D01*
X143160317Y-102651000D01*
X143060317Y-102765285D01*
X143031746Y-102993857D01*
X143081746Y-103393857D01*
X143167460Y-103622428D01*
X143296032Y-103736714D01*
X143417460Y-103793857D01*
X143646032Y-103793857D01*
X143753175Y-103736714D01*
X143853175Y-103622428D01*
X143881746Y-103393857D01*
X143831746Y-102993857D01*
X143746032Y-102765285D01*
X143617460Y-102651000D01*
X143496032Y-102593857D01*
X142617460Y-103793857D02*
X142467460Y-102593857D01*
X142174603Y-103451000D01*
X141667460Y-102593857D01*
X141817460Y-103793857D01*
X141167460Y-102708142D02*
X141103175Y-102651000D01*
X140981746Y-102593857D01*
X140696032Y-102593857D01*
X140588889Y-102651000D01*
X140538889Y-102708142D01*
X140496032Y-102822428D01*
X140510317Y-102936714D01*
X140588889Y-103108142D01*
X141360317Y-103793857D01*
X140617460Y-103793857D01*
X126781746Y-103451000D02*
X126210317Y-103451000D01*
X126938889Y-103793857D02*
X126388889Y-102593857D01*
X126138889Y-103793857D01*
X125760317Y-102593857D02*
X125074603Y-102593857D01*
X125567460Y-103793857D02*
X125417460Y-102593857D01*
X124446032Y-102593857D02*
X124217460Y-102593857D01*
X124110317Y-102651000D01*
X124010317Y-102765285D01*
X123981746Y-102993857D01*
X124031746Y-103393857D01*
X124117460Y-103622428D01*
X124246032Y-103736714D01*
X124367460Y-103793857D01*
X124596032Y-103793857D01*
X124703175Y-103736714D01*
X124803175Y-103622428D01*
X124831746Y-103393857D01*
X124781746Y-102993857D01*
X124696032Y-102765285D01*
X124567460Y-102651000D01*
X124446032Y-102593857D01*
X123567460Y-103793857D02*
X123417460Y-102593857D01*
X123124603Y-103451000D01*
X122617460Y-102593857D01*
X122767460Y-103793857D01*
X122117460Y-102708142D02*
X122053175Y-102651000D01*
X121931746Y-102593857D01*
X121646032Y-102593857D01*
X121538889Y-102651000D01*
X121488889Y-102708142D01*
X121446032Y-102822428D01*
X121460317Y-102936714D01*
X121538889Y-103108142D01*
X122310317Y-103793857D01*
X121567460Y-103793857D01*
D11*
X160718500Y-98845642D02*
X160670880Y-98893261D01*
X160718500Y-98940880D01*
X160766119Y-98893261D01*
X160718500Y-98845642D01*
X160718500Y-98940880D01*
X141668500Y-98845642D02*
X141620880Y-98893261D01*
X141668500Y-98940880D01*
X141716119Y-98893261D01*
X141668500Y-98845642D01*
X141668500Y-98940880D01*
X122618500Y-98845642D02*
X122570880Y-98893261D01*
X122618500Y-98940880D01*
X122666119Y-98893261D01*
X122618500Y-98845642D01*
X122618500Y-98940880D01*
X157924500Y-89066642D02*
X157876880Y-89114261D01*
X157924500Y-89161880D01*
X157972119Y-89114261D01*
X157924500Y-89066642D01*
X157924500Y-89161880D01*
X138874500Y-89066642D02*
X138826880Y-89114261D01*
X138874500Y-89161880D01*
X138922119Y-89114261D01*
X138874500Y-89066642D01*
X138874500Y-89161880D01*
X119824500Y-89066642D02*
X119776880Y-89114261D01*
X119824500Y-89161880D01*
X119872119Y-89114261D01*
X119824500Y-89066642D01*
X119824500Y-89161880D01*
D14*
X167830500Y-87261700D02*
X167830500Y-89776300D01*
X148780500Y-87261700D02*
X148780500Y-89776300D01*
X129730500Y-87261700D02*
X129730500Y-89776300D01*
X154825700Y-87261700D02*
X155105100Y-87058500D01*
X135775700Y-87261700D02*
X136055100Y-87058500D01*
X116725700Y-87261700D02*
X117005100Y-87058500D01*
X169405300Y-87261700D02*
X169125900Y-87058500D01*
X150355300Y-87261700D02*
X150075900Y-87058500D01*
X131305300Y-87261700D02*
X131025900Y-87058500D01*
D15*
X169379900Y-102476300D02*
X169100500Y-102273100D01*
X150329900Y-102476300D02*
X150050500Y-102273100D01*
X131279900Y-102476300D02*
X131000500Y-102273100D01*
D14*
X160286700Y-87261700D02*
X169405300Y-87261700D01*
X141236700Y-87261700D02*
X150355300Y-87261700D01*
X122186700Y-87261700D02*
X131305300Y-87261700D01*
D15*
X168313100Y-102476300D02*
X169379900Y-102476300D01*
X149263100Y-102476300D02*
X150329900Y-102476300D01*
X130213100Y-102476300D02*
X131279900Y-102476300D01*
D14*
X154825700Y-87261700D02*
X155105100Y-87464900D01*
X135775700Y-87261700D02*
X136055100Y-87464900D01*
X116725700Y-87261700D02*
X117005100Y-87464900D01*
X160286700Y-87261700D02*
X154825700Y-87261700D01*
X141236700Y-87261700D02*
X135775700Y-87261700D01*
X122186700Y-87261700D02*
X116725700Y-87261700D01*
D15*
X169379900Y-102476300D02*
X169100500Y-102679500D01*
X150329900Y-102476300D02*
X150050500Y-102679500D01*
X131279900Y-102476300D02*
X131000500Y-102679500D01*
D14*
X169405300Y-87261700D02*
X169125900Y-87464900D01*
X150355300Y-87261700D02*
X150075900Y-87464900D01*
X131305300Y-87261700D02*
X131025900Y-87464900D01*
D15*
X155105100Y-90716100D02*
X154825700Y-91020900D01*
X136055100Y-90716100D02*
X135775700Y-91020900D01*
X117005100Y-90716100D02*
X116725700Y-91020900D01*
X155968700Y-89852500D02*
X155968700Y-101866700D01*
X136918700Y-89852500D02*
X136918700Y-101866700D01*
X117868700Y-89852500D02*
X117868700Y-101866700D01*
D12*
G36*
X166878000Y-104394000D02*
G01*
X162115500Y-104394000D01*
X162115500Y-104013000D01*
X166878000Y-104013000D01*
X166878000Y-104394000D01*
G37*
G36*
X147828000Y-104394000D02*
G01*
X143065500Y-104394000D01*
X143065500Y-104013000D01*
X147828000Y-104013000D01*
X147828000Y-104394000D01*
G37*
G36*
X128778000Y-104394000D02*
G01*
X124015500Y-104394000D01*
X124015500Y-104013000D01*
X128778000Y-104013000D01*
X128778000Y-104394000D01*
G37*
D15*
X155943300Y-89852500D02*
X155740100Y-89852500D01*
X136893300Y-89852500D02*
X136690100Y-89852500D01*
X117843300Y-89852500D02*
X117640100Y-89852500D01*
X155968700Y-97929700D02*
X155740100Y-97929700D01*
X136918700Y-97929700D02*
X136690100Y-97929700D01*
X117868700Y-97929700D02*
X117640100Y-97929700D01*
X155968700Y-101866700D02*
X155765500Y-101866700D01*
X136918700Y-101866700D02*
X136715500Y-101866700D01*
X117868700Y-101866700D02*
X117665500Y-101866700D01*
D12*
G36*
X166878000Y-85815500D02*
G01*
X162115500Y-85815500D01*
X162115500Y-85434500D01*
X166878000Y-85434500D01*
X166878000Y-85815500D01*
G37*
G36*
X147828000Y-85815500D02*
G01*
X143065500Y-85815500D01*
X143065500Y-85434500D01*
X147828000Y-85434500D01*
X147828000Y-85815500D01*
G37*
G36*
X128778000Y-85815500D02*
G01*
X124015500Y-85815500D01*
X124015500Y-85434500D01*
X128778000Y-85434500D01*
X128778000Y-85815500D01*
G37*
D15*
X155079700Y-102730300D02*
X154800300Y-103035100D01*
X136029700Y-102730300D02*
X135750300Y-103035100D01*
X116979700Y-102730300D02*
X116700300Y-103035100D01*
X154800300Y-100825300D02*
X155105100Y-101104700D01*
X135750300Y-100825300D02*
X136055100Y-101104700D01*
X116700300Y-100825300D02*
X117005100Y-101104700D01*
X154800300Y-96812100D02*
X155105100Y-97091500D01*
X135750300Y-96812100D02*
X136055100Y-97091500D01*
X116700300Y-96812100D02*
X117005100Y-97091500D01*
X155079700Y-98717100D02*
X154800300Y-99021900D01*
X136029700Y-98717100D02*
X135750300Y-99021900D01*
X116979700Y-98717100D02*
X116700300Y-99021900D01*
X154825700Y-88811100D02*
X155130500Y-89090500D01*
X135775700Y-88811100D02*
X136080500Y-89090500D01*
X116725700Y-88811100D02*
X117030500Y-89090500D01*
X155079700Y-94754700D02*
X154800300Y-95059500D01*
X136029700Y-94754700D02*
X135750300Y-95059500D01*
X116979700Y-94754700D02*
X116700300Y-95059500D01*
X155943300Y-93967300D02*
X155740100Y-93967300D01*
X136893300Y-93967300D02*
X136690100Y-93967300D01*
X117843300Y-93967300D02*
X117640100Y-93967300D01*
X154800300Y-92849700D02*
X155105100Y-93129100D01*
X135750300Y-92849700D02*
X136055100Y-93129100D01*
X116700300Y-92849700D02*
X117005100Y-93129100D01*
D10*
X97726523Y-86429809D02*
X97802714Y-86467904D01*
X97955095Y-86467904D01*
X98031285Y-86429809D01*
X98069380Y-86391714D01*
X98107476Y-86315523D01*
X98107476Y-86086952D01*
X98069380Y-86010761D01*
X98031285Y-85972666D01*
X97955095Y-85934571D01*
X97802714Y-85934571D01*
X97726523Y-85972666D01*
X111823523Y-86429809D02*
X111899714Y-86467904D01*
X112052095Y-86467904D01*
X112128285Y-86429809D01*
X112166380Y-86391714D01*
X112204476Y-86315523D01*
X112204476Y-86086952D01*
X112166380Y-86010761D01*
X112128285Y-85972666D01*
X112052095Y-85934571D01*
X111899714Y-85934571D01*
X111823523Y-85972666D01*
D12*
G36*
X98107500Y-104394000D02*
G01*
X95440500Y-104394000D01*
X95440500Y-104013000D01*
X98107500Y-104013000D01*
X98107500Y-104394000D01*
G37*
G36*
X100203000Y-104394000D02*
G01*
X99822000Y-104394000D01*
X99822000Y-104013000D01*
X100203000Y-104013000D01*
X100203000Y-104394000D01*
G37*
G36*
X100203000Y-85815500D02*
G01*
X99822000Y-85815500D01*
X99822000Y-85434500D01*
X100203000Y-85434500D01*
X100203000Y-85815500D01*
G37*
G36*
X98107500Y-85815500D02*
G01*
X95440500Y-85815500D01*
X95440500Y-85434500D01*
X98107500Y-85434500D01*
X98107500Y-85815500D01*
G37*
G36*
X109728000Y-104394000D02*
G01*
X104965500Y-104394000D01*
X104965500Y-104013000D01*
X109728000Y-104013000D01*
X109728000Y-104394000D01*
G37*
G36*
X109728000Y-85815500D02*
G01*
X104965500Y-85815500D01*
X104965500Y-85434500D01*
X109728000Y-85434500D01*
X109728000Y-85815500D01*
G37*
D15*
X97675700Y-88811100D02*
X97980500Y-89090500D01*
X97955100Y-90716100D02*
X97675700Y-91020900D01*
X97650300Y-92849700D02*
X97955100Y-93129100D01*
X97929700Y-94754700D02*
X97650300Y-95059500D01*
X97650300Y-96812100D02*
X97955100Y-97091500D01*
X97929700Y-98717100D02*
X97650300Y-99021900D01*
X97650300Y-100825300D02*
X97955100Y-101104700D01*
X97929700Y-102730300D02*
X97650300Y-103035100D01*
D11*
X108870690Y-96778404D02*
X108870690Y-95978404D01*
X108870690Y-96283166D02*
X108794500Y-96245071D01*
X108642119Y-96245071D01*
X108565928Y-96283166D01*
X108527833Y-96321261D01*
X108489738Y-96397452D01*
X108489738Y-96626023D01*
X108527833Y-96702214D01*
X108565928Y-96740309D01*
X108642119Y-96778404D01*
X108794500Y-96778404D01*
X108870690Y-96740309D01*
X108223071Y-96245071D02*
X108032595Y-96778404D01*
X107842119Y-96245071D02*
X108032595Y-96778404D01*
X108108785Y-96968880D01*
X108146880Y-97006976D01*
X108223071Y-97045071D01*
X110051642Y-97595071D02*
X109746880Y-97595071D01*
X109937357Y-97328404D02*
X109937357Y-98014119D01*
X109899261Y-98090309D01*
X109823071Y-98128404D01*
X109746880Y-98128404D01*
X109480214Y-98128404D02*
X109480214Y-97328404D01*
X109137357Y-98128404D02*
X109137357Y-97709357D01*
X109175452Y-97633166D01*
X109251642Y-97595071D01*
X109365928Y-97595071D01*
X109442119Y-97633166D01*
X109480214Y-97671261D01*
X108756404Y-97595071D02*
X108756404Y-98395071D01*
X108756404Y-97633166D02*
X108680214Y-97595071D01*
X108527833Y-97595071D01*
X108451642Y-97633166D01*
X108413547Y-97671261D01*
X108375452Y-97747452D01*
X108375452Y-97976023D01*
X108413547Y-98052214D01*
X108451642Y-98090309D01*
X108527833Y-98128404D01*
X108680214Y-98128404D01*
X108756404Y-98090309D01*
X107918309Y-98128404D02*
X107994500Y-98090309D01*
X108032595Y-98052214D01*
X108070690Y-97976023D01*
X108070690Y-97747452D01*
X108032595Y-97671261D01*
X107994500Y-97633166D01*
X107918309Y-97595071D01*
X107804023Y-97595071D01*
X107727833Y-97633166D01*
X107689738Y-97671261D01*
X107651642Y-97747452D01*
X107651642Y-97976023D01*
X107689738Y-98052214D01*
X107727833Y-98090309D01*
X107804023Y-98128404D01*
X107918309Y-98128404D01*
X107194500Y-98128404D02*
X107270690Y-98090309D01*
X107308785Y-98014119D01*
X107308785Y-97328404D01*
X106775452Y-98128404D02*
X106851642Y-98090309D01*
X106889738Y-98014119D01*
X106889738Y-97328404D01*
D15*
X98818700Y-101866700D02*
X98615500Y-101866700D01*
X98818700Y-97929700D02*
X98590100Y-97929700D01*
X98793300Y-93967300D02*
X98590100Y-93967300D01*
X98793300Y-89852500D02*
X98590100Y-89852500D01*
X98818700Y-89852500D02*
X98818700Y-101866700D01*
D11*
X99574328Y-99592985D02*
X98774328Y-99592985D01*
X99536233Y-99592985D02*
X99574328Y-99516795D01*
X99574328Y-99364414D01*
X99536233Y-99288223D01*
X99498138Y-99250128D01*
X99421947Y-99212033D01*
X99193376Y-99212033D01*
X99117185Y-99250128D01*
X99079090Y-99288223D01*
X99040995Y-99364414D01*
X99040995Y-99516795D01*
X99079090Y-99592985D01*
X99040995Y-98869176D02*
X99574328Y-98869176D01*
X99840995Y-98869176D02*
X99802900Y-98907271D01*
X99764804Y-98869176D01*
X99802900Y-98831080D01*
X99840995Y-98869176D01*
X99764804Y-98869176D01*
X99079090Y-98145366D02*
X99040995Y-98221557D01*
X99040995Y-98373938D01*
X99079090Y-98450128D01*
X99117185Y-98488223D01*
X99193376Y-98526319D01*
X99421947Y-98526319D01*
X99498138Y-98488223D01*
X99536233Y-98450128D01*
X99574328Y-98373938D01*
X99574328Y-98221557D01*
X99536233Y-98145366D01*
X99040995Y-97802509D02*
X99840995Y-97802509D01*
X99345757Y-97726319D02*
X99040995Y-97497747D01*
X99574328Y-97497747D02*
X99269566Y-97802509D01*
X99040995Y-94602509D02*
X99079090Y-94678700D01*
X99117185Y-94716795D01*
X99193376Y-94754890D01*
X99421947Y-94754890D01*
X99498138Y-94716795D01*
X99536233Y-94678700D01*
X99574328Y-94602509D01*
X99574328Y-94488223D01*
X99536233Y-94412033D01*
X99498138Y-94373938D01*
X99421947Y-94335842D01*
X99193376Y-94335842D01*
X99117185Y-94373938D01*
X99079090Y-94412033D01*
X99040995Y-94488223D01*
X99040995Y-94602509D01*
X99574328Y-93992985D02*
X99040995Y-93992985D01*
X99498138Y-93992985D02*
X99536233Y-93954890D01*
X99574328Y-93878700D01*
X99574328Y-93764414D01*
X99536233Y-93688223D01*
X99460042Y-93650128D01*
X99040995Y-93650128D01*
X99079090Y-92964414D02*
X99040995Y-93040604D01*
X99040995Y-93192985D01*
X99079090Y-93269176D01*
X99155280Y-93307271D01*
X99460042Y-93307271D01*
X99536233Y-93269176D01*
X99574328Y-93192985D01*
X99574328Y-93040604D01*
X99536233Y-92964414D01*
X99460042Y-92926319D01*
X99383852Y-92926319D01*
X99307661Y-93307271D01*
D14*
X110680500Y-87261700D02*
X110680500Y-89776300D01*
D15*
X111163100Y-102476300D02*
X112229900Y-102476300D01*
X112229900Y-102476300D02*
X111950500Y-102273100D01*
X112229900Y-102476300D02*
X111950500Y-102679500D01*
D14*
X103136700Y-87261700D02*
X112255300Y-87261700D01*
X112255300Y-87261700D02*
X111975900Y-87058500D01*
X112255300Y-87261700D02*
X111975900Y-87464900D01*
X97675700Y-87261700D02*
X97955100Y-87464900D01*
X97675700Y-87261700D02*
X97955100Y-87058500D01*
X103136700Y-87261700D02*
X97675700Y-87261700D01*
D10*
X109537523Y-103574809D02*
X109613714Y-103612904D01*
X109766095Y-103612904D01*
X109842285Y-103574809D01*
X109880380Y-103536714D01*
X109918476Y-103460523D01*
X109918476Y-103231952D01*
X109880380Y-103155761D01*
X109842285Y-103117666D01*
X109766095Y-103079571D01*
X109613714Y-103079571D01*
X109537523Y-103117666D01*
X100012523Y-103574809D02*
X100088714Y-103612904D01*
X100241095Y-103612904D01*
X100317285Y-103574809D01*
X100355380Y-103536714D01*
X100393476Y-103460523D01*
X100393476Y-103231952D01*
X100355380Y-103155761D01*
X100317285Y-103117666D01*
X100241095Y-103079571D01*
X100088714Y-103079571D01*
X100012523Y-103117666D01*
X110528023Y-90189100D02*
X110604214Y-90151004D01*
X110718500Y-90151004D01*
X110832785Y-90189100D01*
X110908976Y-90265290D01*
X110947071Y-90341480D01*
X110985166Y-90493861D01*
X110985166Y-90608147D01*
X110947071Y-90760528D01*
X110908976Y-90836719D01*
X110832785Y-90912909D01*
X110718500Y-90951004D01*
X110642309Y-90951004D01*
X110528023Y-90912909D01*
X110489928Y-90874814D01*
X110489928Y-90608147D01*
X110642309Y-90608147D01*
X110147071Y-90951004D02*
X110147071Y-90151004D01*
X109689928Y-90951004D01*
X109689928Y-90151004D01*
X109308976Y-90951004D02*
X109308976Y-90151004D01*
X109118500Y-90151004D01*
X109004214Y-90189100D01*
X108928023Y-90265290D01*
X108889928Y-90341480D01*
X108851833Y-90493861D01*
X108851833Y-90608147D01*
X108889928Y-90760528D01*
X108928023Y-90836719D01*
X109004214Y-90912909D01*
X109118500Y-90951004D01*
X109308976Y-90951004D01*
X97720185Y-90011233D02*
X97682090Y-90049328D01*
X97643995Y-90163614D01*
X97643995Y-90239804D01*
X97682090Y-90354090D01*
X97758280Y-90430280D01*
X97834471Y-90468376D01*
X97986852Y-90506471D01*
X98101138Y-90506471D01*
X98253519Y-90468376D01*
X98329709Y-90430280D01*
X98405900Y-90354090D01*
X98443995Y-90239804D01*
X98443995Y-90163614D01*
X98405900Y-90049328D01*
X98367804Y-90011233D01*
X97682090Y-89706471D02*
X97643995Y-89592185D01*
X97643995Y-89401709D01*
X97682090Y-89325519D01*
X97720185Y-89287423D01*
X97796376Y-89249328D01*
X97872566Y-89249328D01*
X97948757Y-89287423D01*
X97986852Y-89325519D01*
X98024947Y-89401709D01*
X98063042Y-89554090D01*
X98101138Y-89630280D01*
X98139233Y-89668376D01*
X98215423Y-89706471D01*
X98291614Y-89706471D01*
X98367804Y-89668376D01*
X98405900Y-89630280D01*
X98443995Y-89554090D01*
X98443995Y-89363614D01*
X98405900Y-89249328D01*
X97745585Y-94075233D02*
X97707490Y-94113328D01*
X97669395Y-94227614D01*
X97669395Y-94303804D01*
X97707490Y-94418090D01*
X97783680Y-94494280D01*
X97859871Y-94532376D01*
X98012252Y-94570471D01*
X98126538Y-94570471D01*
X98278919Y-94532376D01*
X98355109Y-94494280D01*
X98431300Y-94418090D01*
X98469395Y-94303804D01*
X98469395Y-94227614D01*
X98431300Y-94113328D01*
X98393204Y-94075233D01*
X97707490Y-93770471D02*
X97669395Y-93656185D01*
X97669395Y-93465709D01*
X97707490Y-93389519D01*
X97745585Y-93351423D01*
X97821776Y-93313328D01*
X97897966Y-93313328D01*
X97974157Y-93351423D01*
X98012252Y-93389519D01*
X98050347Y-93465709D01*
X98088442Y-93618090D01*
X98126538Y-93694280D01*
X98164633Y-93732376D01*
X98240823Y-93770471D01*
X98317014Y-93770471D01*
X98393204Y-93732376D01*
X98431300Y-93694280D01*
X98469395Y-93618090D01*
X98469395Y-93427614D01*
X98431300Y-93313328D01*
X97745585Y-98079965D02*
X97707490Y-98118060D01*
X97669395Y-98232346D01*
X97669395Y-98308536D01*
X97707490Y-98422822D01*
X97783680Y-98499012D01*
X97859871Y-98537108D01*
X98012252Y-98575203D01*
X98126538Y-98575203D01*
X98278919Y-98537108D01*
X98355109Y-98499012D01*
X98431300Y-98422822D01*
X98469395Y-98308536D01*
X98469395Y-98232346D01*
X98431300Y-98118060D01*
X98393204Y-98079965D01*
X97707490Y-97775203D02*
X97669395Y-97660917D01*
X97669395Y-97470441D01*
X97707490Y-97394251D01*
X97745585Y-97356155D01*
X97821776Y-97318060D01*
X97897966Y-97318060D01*
X97974157Y-97356155D01*
X98012252Y-97394251D01*
X98050347Y-97470441D01*
X98088442Y-97622822D01*
X98126538Y-97699012D01*
X98164633Y-97737108D01*
X98240823Y-97775203D01*
X98317014Y-97775203D01*
X98393204Y-97737108D01*
X98431300Y-97699012D01*
X98469395Y-97622822D01*
X98469395Y-97432346D01*
X98431300Y-97318060D01*
X97745585Y-102050833D02*
X97707490Y-102088928D01*
X97669395Y-102203214D01*
X97669395Y-102279404D01*
X97707490Y-102393690D01*
X97783680Y-102469880D01*
X97859871Y-102507976D01*
X98012252Y-102546071D01*
X98126538Y-102546071D01*
X98278919Y-102507976D01*
X98355109Y-102469880D01*
X98431300Y-102393690D01*
X98469395Y-102279404D01*
X98469395Y-102203214D01*
X98431300Y-102088928D01*
X98393204Y-102050833D01*
X97707490Y-101746071D02*
X97669395Y-101631785D01*
X97669395Y-101441309D01*
X97707490Y-101365119D01*
X97745585Y-101327023D01*
X97821776Y-101288928D01*
X97897966Y-101288928D01*
X97974157Y-101327023D01*
X98012252Y-101365119D01*
X98050347Y-101441309D01*
X98088442Y-101593690D01*
X98126538Y-101669880D01*
X98164633Y-101707976D01*
X98240823Y-101746071D01*
X98317014Y-101746071D01*
X98393204Y-101707976D01*
X98431300Y-101669880D01*
X98469395Y-101593690D01*
X98469395Y-101403214D01*
X98431300Y-101288928D01*
X110807490Y-102177861D02*
X110883680Y-102139766D01*
X110921776Y-102101671D01*
X110959871Y-102025480D01*
X110959871Y-101987385D01*
X110921776Y-101911195D01*
X110883680Y-101873100D01*
X110807490Y-101835004D01*
X110655109Y-101835004D01*
X110578919Y-101873100D01*
X110540823Y-101911195D01*
X110502728Y-101987385D01*
X110502728Y-102025480D01*
X110540823Y-102101671D01*
X110578919Y-102139766D01*
X110655109Y-102177861D01*
X110807490Y-102177861D01*
X110883680Y-102215957D01*
X110921776Y-102254052D01*
X110959871Y-102330242D01*
X110959871Y-102482623D01*
X110921776Y-102558814D01*
X110883680Y-102596909D01*
X110807490Y-102635004D01*
X110655109Y-102635004D01*
X110578919Y-102596909D01*
X110540823Y-102558814D01*
X110502728Y-102482623D01*
X110502728Y-102330242D01*
X110540823Y-102254052D01*
X110578919Y-102215957D01*
X110655109Y-102177861D01*
X112217166Y-100590404D02*
X111683833Y-100590404D01*
X112026690Y-101390404D01*
X111798119Y-98579569D02*
X111950500Y-98579569D01*
X112026690Y-98617665D01*
X112064785Y-98655760D01*
X112140976Y-98770045D01*
X112179071Y-98922426D01*
X112179071Y-99227188D01*
X112140976Y-99303379D01*
X112102880Y-99341474D01*
X112026690Y-99379569D01*
X111874309Y-99379569D01*
X111798119Y-99341474D01*
X111760023Y-99303379D01*
X111721928Y-99227188D01*
X111721928Y-99036712D01*
X111760023Y-98960522D01*
X111798119Y-98922426D01*
X111874309Y-98884331D01*
X112026690Y-98884331D01*
X112102880Y-98922426D01*
X112140976Y-98960522D01*
X112179071Y-99036712D01*
X111760023Y-96568736D02*
X112140976Y-96568736D01*
X112179071Y-96949689D01*
X112140976Y-96911593D01*
X112064785Y-96873498D01*
X111874309Y-96873498D01*
X111798119Y-96911593D01*
X111760023Y-96949689D01*
X111721928Y-97025879D01*
X111721928Y-97216355D01*
X111760023Y-97292546D01*
X111798119Y-97330641D01*
X111874309Y-97368736D01*
X112064785Y-97368736D01*
X112140976Y-97330641D01*
X112179071Y-97292546D01*
X111798119Y-94824570D02*
X111798119Y-95357903D01*
X111988595Y-94519808D02*
X112179071Y-95091237D01*
X111683833Y-95091237D01*
X112217166Y-92547070D02*
X111721928Y-92547070D01*
X111988595Y-92851832D01*
X111874309Y-92851832D01*
X111798119Y-92889927D01*
X111760023Y-92928023D01*
X111721928Y-93004213D01*
X111721928Y-93194689D01*
X111760023Y-93270880D01*
X111798119Y-93308975D01*
X111874309Y-93347070D01*
X112102880Y-93347070D01*
X112179071Y-93308975D01*
X112217166Y-93270880D01*
X112179071Y-90612428D02*
X112140976Y-90574333D01*
X112064785Y-90536237D01*
X111874309Y-90536237D01*
X111798119Y-90574333D01*
X111760023Y-90612428D01*
X111721928Y-90688618D01*
X111721928Y-90764809D01*
X111760023Y-90879094D01*
X112217166Y-91336237D01*
X111721928Y-91336237D01*
X111721928Y-89325404D02*
X112179071Y-89325404D01*
X111950500Y-89325404D02*
X111950500Y-88525404D01*
X112026690Y-88639690D01*
X112102880Y-88715880D01*
X112179071Y-88753976D01*
X107263909Y-86785404D02*
X107263909Y-85985404D01*
X107073433Y-85985404D01*
X106959147Y-86023500D01*
X106882957Y-86099690D01*
X106844861Y-86175880D01*
X106806766Y-86328261D01*
X106806766Y-86442547D01*
X106844861Y-86594928D01*
X106882957Y-86671119D01*
X106959147Y-86747309D01*
X107073433Y-86785404D01*
X107263909Y-86785404D01*
X106463909Y-86785404D02*
X106463909Y-86252071D01*
X106463909Y-85985404D02*
X106502004Y-86023500D01*
X106463909Y-86061595D01*
X106425814Y-86023500D01*
X106463909Y-85985404D01*
X106463909Y-86061595D01*
X106121052Y-86747309D02*
X106044861Y-86785404D01*
X105892480Y-86785404D01*
X105816290Y-86747309D01*
X105778195Y-86671119D01*
X105778195Y-86633023D01*
X105816290Y-86556833D01*
X105892480Y-86518738D01*
X106006766Y-86518738D01*
X106082957Y-86480642D01*
X106121052Y-86404452D01*
X106121052Y-86366357D01*
X106082957Y-86290166D01*
X106006766Y-86252071D01*
X105892480Y-86252071D01*
X105816290Y-86290166D01*
X105435338Y-86252071D02*
X105435338Y-87052071D01*
X105435338Y-86290166D02*
X105359147Y-86252071D01*
X105206766Y-86252071D01*
X105130576Y-86290166D01*
X105092480Y-86328261D01*
X105054385Y-86404452D01*
X105054385Y-86633023D01*
X105092480Y-86709214D01*
X105130576Y-86747309D01*
X105206766Y-86785404D01*
X105359147Y-86785404D01*
X105435338Y-86747309D01*
X104711528Y-86785404D02*
X104711528Y-85985404D01*
X104406766Y-85985404D01*
X104330576Y-86023500D01*
X104292480Y-86061595D01*
X104254385Y-86137785D01*
X104254385Y-86252071D01*
X104292480Y-86328261D01*
X104330576Y-86366357D01*
X104406766Y-86404452D01*
X104711528Y-86404452D01*
X103797242Y-86785404D02*
X103873433Y-86747309D01*
X103911528Y-86709214D01*
X103949623Y-86633023D01*
X103949623Y-86404452D01*
X103911528Y-86328261D01*
X103873433Y-86290166D01*
X103797242Y-86252071D01*
X103682957Y-86252071D01*
X103606766Y-86290166D01*
X103568671Y-86328261D01*
X103530576Y-86404452D01*
X103530576Y-86633023D01*
X103568671Y-86709214D01*
X103606766Y-86747309D01*
X103682957Y-86785404D01*
X103797242Y-86785404D01*
X103187719Y-86785404D02*
X103187719Y-86252071D01*
X103187719Y-86404452D02*
X103149623Y-86328261D01*
X103111528Y-86290166D01*
X103035338Y-86252071D01*
X102959147Y-86252071D01*
X102806766Y-86252071D02*
X102502004Y-86252071D01*
X102692480Y-85985404D02*
X102692480Y-86671119D01*
X102654385Y-86747309D01*
X102578195Y-86785404D01*
X102502004Y-86785404D01*
D11*
X100774500Y-89066642D02*
X100726880Y-89114261D01*
X100774500Y-89161880D01*
X100822119Y-89114261D01*
X100774500Y-89066642D01*
X100774500Y-89161880D01*
X103568500Y-98845642D02*
X103520880Y-98893261D01*
X103568500Y-98940880D01*
X103616119Y-98893261D01*
X103568500Y-98845642D01*
X103568500Y-98940880D01*
D13*
X107731746Y-103451000D02*
X107160317Y-103451000D01*
X107888889Y-103793857D02*
X107338889Y-102593857D01*
X107088889Y-103793857D01*
X106710317Y-102593857D02*
X106024603Y-102593857D01*
X106517460Y-103793857D02*
X106367460Y-102593857D01*
X105396032Y-102593857D02*
X105167460Y-102593857D01*
X105060317Y-102651000D01*
X104960317Y-102765285D01*
X104931746Y-102993857D01*
X104981746Y-103393857D01*
X105067460Y-103622428D01*
X105196032Y-103736714D01*
X105317460Y-103793857D01*
X105546032Y-103793857D01*
X105653175Y-103736714D01*
X105753175Y-103622428D01*
X105781746Y-103393857D01*
X105731746Y-102993857D01*
X105646032Y-102765285D01*
X105517460Y-102651000D01*
X105396032Y-102593857D01*
X104517460Y-103793857D02*
X104367460Y-102593857D01*
X104074603Y-103451000D01*
X103567460Y-102593857D01*
X103717460Y-103793857D01*
X103067460Y-102708142D02*
X103003175Y-102651000D01*
X102881746Y-102593857D01*
X102596032Y-102593857D01*
X102488889Y-102651000D01*
X102438889Y-102708142D01*
X102396032Y-102822428D01*
X102410317Y-102936714D01*
X102488889Y-103108142D01*
X103260317Y-103793857D01*
X102517460Y-103793857D01*
X110651089Y-100047357D02*
X110501089Y-98847357D01*
X110043946Y-98847357D01*
X109936803Y-98904500D01*
X109886803Y-98961642D01*
X109843946Y-99075928D01*
X109865375Y-99247357D01*
X109936803Y-99361642D01*
X110001089Y-99418785D01*
X110122517Y-99475928D01*
X110579660Y-99475928D01*
X109072517Y-98847357D02*
X108843946Y-98847357D01*
X108736803Y-98904500D01*
X108636803Y-99018785D01*
X108608232Y-99247357D01*
X108658232Y-99647357D01*
X108743946Y-99875928D01*
X108872517Y-99990214D01*
X108993946Y-100047357D01*
X109222517Y-100047357D01*
X109329660Y-99990214D01*
X109429660Y-99875928D01*
X109458232Y-99647357D01*
X109408232Y-99247357D01*
X109322517Y-99018785D01*
X109193946Y-98904500D01*
X109072517Y-98847357D01*
X107622517Y-100047357D02*
X108193946Y-100047357D01*
X108043946Y-98847357D01*
X106922517Y-99475928D02*
X106993946Y-100047357D01*
X107243946Y-98847357D02*
X106922517Y-99475928D01*
X106443946Y-98847357D01*
X106193946Y-100047357D02*
X106043946Y-98847357D01*
X105508232Y-100047357D02*
X105936803Y-99361642D01*
X105358232Y-98847357D02*
X106129660Y-99533071D01*
X104515375Y-99418785D02*
X104351089Y-99475928D01*
X104301089Y-99533071D01*
X104258232Y-99647357D01*
X104279660Y-99818785D01*
X104351089Y-99933071D01*
X104415375Y-99990214D01*
X104536803Y-100047357D01*
X104993946Y-100047357D01*
X104843946Y-98847357D01*
X104443946Y-98847357D01*
X104336803Y-98904500D01*
X104286803Y-98961642D01*
X104243946Y-99075928D01*
X104258232Y-99190214D01*
X104329660Y-99304500D01*
X104393946Y-99361642D01*
X104515375Y-99418785D01*
X104915375Y-99418785D01*
D15*
%TO.C,C1*%
X165304080Y-94934500D02*
X165022920Y-94934500D01*
X165304080Y-93914500D02*
X165022920Y-93914500D01*
X146254080Y-94934500D02*
X145972920Y-94934500D01*
X146254080Y-93914500D02*
X145972920Y-93914500D01*
X127204080Y-94934500D02*
X126922920Y-94934500D01*
X127204080Y-93914500D02*
X126922920Y-93914500D01*
%TO.C,C3*%
X155151500Y-88309336D02*
X155151500Y-88093664D01*
X155871500Y-88309336D02*
X155871500Y-88093664D01*
X136101500Y-88309336D02*
X136101500Y-88093664D01*
X136821500Y-88309336D02*
X136821500Y-88093664D01*
X117051500Y-88309336D02*
X117051500Y-88093664D01*
X117771500Y-88309336D02*
X117771500Y-88093664D01*
%TO.C,C5*%
X159368664Y-91143500D02*
X159584336Y-91143500D01*
X159368664Y-91863500D02*
X159584336Y-91863500D01*
X140318664Y-91143500D02*
X140534336Y-91143500D01*
X140318664Y-91863500D02*
X140534336Y-91863500D01*
X121268664Y-91143500D02*
X121484336Y-91143500D01*
X121268664Y-91863500D02*
X121484336Y-91863500D01*
%TO.C,C6*%
X160737664Y-92286500D02*
X160953336Y-92286500D01*
X160737664Y-93006500D02*
X160953336Y-93006500D01*
X141687664Y-92286500D02*
X141903336Y-92286500D01*
X141687664Y-93006500D02*
X141903336Y-93006500D01*
X122637664Y-92286500D02*
X122853336Y-92286500D01*
X122637664Y-93006500D02*
X122853336Y-93006500D01*
%TO.C,C2*%
X157287500Y-91009080D02*
X157287500Y-90727920D01*
X158307500Y-91009080D02*
X158307500Y-90727920D01*
X138237500Y-91009080D02*
X138237500Y-90727920D01*
X139257500Y-91009080D02*
X139257500Y-90727920D01*
X119187500Y-91009080D02*
X119187500Y-90727920D01*
X120207500Y-91009080D02*
X120207500Y-90727920D01*
%TO.C,J1*%
X157220500Y-85717500D02*
X157220500Y-88817500D01*
X167015500Y-85712500D02*
X167015500Y-88817500D01*
X157220500Y-88817500D02*
X158115500Y-88817500D01*
X167010500Y-88817500D02*
X166115500Y-88817500D01*
X138170500Y-85717500D02*
X138170500Y-88817500D01*
X147965500Y-85712500D02*
X147965500Y-88817500D01*
X138170500Y-88817500D02*
X139065500Y-88817500D01*
X147960500Y-88817500D02*
X147065500Y-88817500D01*
X119120500Y-85717500D02*
X119120500Y-88817500D01*
X128915500Y-85712500D02*
X128915500Y-88817500D01*
X119120500Y-88817500D02*
X120015500Y-88817500D01*
X128910500Y-88817500D02*
X128015500Y-88817500D01*
%TO.C,C4*%
X165050080Y-92390500D02*
X164768920Y-92390500D01*
X165050080Y-93410500D02*
X164768920Y-93410500D01*
X146000080Y-92390500D02*
X145718920Y-92390500D01*
X146000080Y-93410500D02*
X145718920Y-93410500D01*
X126950080Y-92390500D02*
X126668920Y-92390500D01*
X126950080Y-93410500D02*
X126668920Y-93410500D01*
%TO.C,D1*%
X160313500Y-97384500D02*
X160313500Y-99084500D01*
X160313500Y-99084500D02*
X157763500Y-99084500D01*
X160313500Y-97384500D02*
X157763500Y-97384500D01*
X141263500Y-97384500D02*
X141263500Y-99084500D01*
X141263500Y-99084500D02*
X138713500Y-99084500D01*
X141263500Y-97384500D02*
X138713500Y-97384500D01*
X122213500Y-97384500D02*
X122213500Y-99084500D01*
X122213500Y-99084500D02*
X119663500Y-99084500D01*
X122213500Y-97384500D02*
X119663500Y-97384500D01*
X103163500Y-97384500D02*
X100613500Y-97384500D01*
X103163500Y-99084500D02*
X100613500Y-99084500D01*
X103163500Y-97384500D02*
X103163500Y-99084500D01*
%TO.C,J1*%
X109860500Y-88817500D02*
X108965500Y-88817500D01*
X100070500Y-88817500D02*
X100965500Y-88817500D01*
X109865500Y-85712500D02*
X109865500Y-88817500D01*
X100070500Y-85717500D02*
X100070500Y-88817500D01*
%TO.C,C4*%
X107900080Y-93410500D02*
X107618920Y-93410500D01*
X107900080Y-92390500D02*
X107618920Y-92390500D01*
%TO.C,C6*%
X103587664Y-93006500D02*
X103803336Y-93006500D01*
X103587664Y-92286500D02*
X103803336Y-92286500D01*
%TO.C,C5*%
X102218664Y-91863500D02*
X102434336Y-91863500D01*
X102218664Y-91143500D02*
X102434336Y-91143500D01*
%TO.C,C3*%
X98721500Y-88309336D02*
X98721500Y-88093664D01*
X98001500Y-88309336D02*
X98001500Y-88093664D01*
%TO.C,C2*%
X101157500Y-91009080D02*
X101157500Y-90727920D01*
X100137500Y-91009080D02*
X100137500Y-90727920D01*
%TO.C,C1*%
X108154080Y-93914500D02*
X107872920Y-93914500D01*
X108154080Y-94934500D02*
X107872920Y-94934500D01*
D11*
X167743166Y-94781642D02*
X167790785Y-94829261D01*
X167933642Y-94876880D01*
X168028880Y-94876880D01*
X168171738Y-94829261D01*
X168266976Y-94734023D01*
X168314595Y-94638785D01*
X168362214Y-94448309D01*
X168362214Y-94305452D01*
X168314595Y-94114976D01*
X168266976Y-94019738D01*
X168171738Y-93924500D01*
X168028880Y-93876880D01*
X167933642Y-93876880D01*
X167790785Y-93924500D01*
X167743166Y-93972119D01*
X166790785Y-94876880D02*
X167362214Y-94876880D01*
X167076500Y-94876880D02*
X167076500Y-93876880D01*
X167171738Y-94019738D01*
X167266976Y-94114976D01*
X167362214Y-94162595D01*
X148693166Y-94781642D02*
X148740785Y-94829261D01*
X148883642Y-94876880D01*
X148978880Y-94876880D01*
X149121738Y-94829261D01*
X149216976Y-94734023D01*
X149264595Y-94638785D01*
X149312214Y-94448309D01*
X149312214Y-94305452D01*
X149264595Y-94114976D01*
X149216976Y-94019738D01*
X149121738Y-93924500D01*
X148978880Y-93876880D01*
X148883642Y-93876880D01*
X148740785Y-93924500D01*
X148693166Y-93972119D01*
X147740785Y-94876880D02*
X148312214Y-94876880D01*
X148026500Y-94876880D02*
X148026500Y-93876880D01*
X148121738Y-94019738D01*
X148216976Y-94114976D01*
X148312214Y-94162595D01*
X129643166Y-94781642D02*
X129690785Y-94829261D01*
X129833642Y-94876880D01*
X129928880Y-94876880D01*
X130071738Y-94829261D01*
X130166976Y-94734023D01*
X130214595Y-94638785D01*
X130262214Y-94448309D01*
X130262214Y-94305452D01*
X130214595Y-94114976D01*
X130166976Y-94019738D01*
X130071738Y-93924500D01*
X129928880Y-93876880D01*
X129833642Y-93876880D01*
X129690785Y-93924500D01*
X129643166Y-93972119D01*
X128690785Y-94876880D02*
X129262214Y-94876880D01*
X128976500Y-94876880D02*
X128976500Y-93876880D01*
X129071738Y-94019738D01*
X129166976Y-94114976D01*
X129262214Y-94162595D01*
%TO.C,C3*%
D10*
X156914833Y-89503214D02*
X156952928Y-89541309D01*
X157067214Y-89579404D01*
X157143404Y-89579404D01*
X157257690Y-89541309D01*
X157333880Y-89465119D01*
X157371976Y-89388928D01*
X157410071Y-89236547D01*
X157410071Y-89122261D01*
X157371976Y-88969880D01*
X157333880Y-88893690D01*
X157257690Y-88817500D01*
X157143404Y-88779404D01*
X157067214Y-88779404D01*
X156952928Y-88817500D01*
X156914833Y-88855595D01*
X156648166Y-88779404D02*
X156152928Y-88779404D01*
X156419595Y-89084166D01*
X156305309Y-89084166D01*
X156229119Y-89122261D01*
X156191023Y-89160357D01*
X156152928Y-89236547D01*
X156152928Y-89427023D01*
X156191023Y-89503214D01*
X156229119Y-89541309D01*
X156305309Y-89579404D01*
X156533880Y-89579404D01*
X156610071Y-89541309D01*
X156648166Y-89503214D01*
X137864833Y-89503214D02*
X137902928Y-89541309D01*
X138017214Y-89579404D01*
X138093404Y-89579404D01*
X138207690Y-89541309D01*
X138283880Y-89465119D01*
X138321976Y-89388928D01*
X138360071Y-89236547D01*
X138360071Y-89122261D01*
X138321976Y-88969880D01*
X138283880Y-88893690D01*
X138207690Y-88817500D01*
X138093404Y-88779404D01*
X138017214Y-88779404D01*
X137902928Y-88817500D01*
X137864833Y-88855595D01*
X137598166Y-88779404D02*
X137102928Y-88779404D01*
X137369595Y-89084166D01*
X137255309Y-89084166D01*
X137179119Y-89122261D01*
X137141023Y-89160357D01*
X137102928Y-89236547D01*
X137102928Y-89427023D01*
X137141023Y-89503214D01*
X137179119Y-89541309D01*
X137255309Y-89579404D01*
X137483880Y-89579404D01*
X137560071Y-89541309D01*
X137598166Y-89503214D01*
X118814833Y-89503214D02*
X118852928Y-89541309D01*
X118967214Y-89579404D01*
X119043404Y-89579404D01*
X119157690Y-89541309D01*
X119233880Y-89465119D01*
X119271976Y-89388928D01*
X119310071Y-89236547D01*
X119310071Y-89122261D01*
X119271976Y-88969880D01*
X119233880Y-88893690D01*
X119157690Y-88817500D01*
X119043404Y-88779404D01*
X118967214Y-88779404D01*
X118852928Y-88817500D01*
X118814833Y-88855595D01*
X118548166Y-88779404D02*
X118052928Y-88779404D01*
X118319595Y-89084166D01*
X118205309Y-89084166D01*
X118129119Y-89122261D01*
X118091023Y-89160357D01*
X118052928Y-89236547D01*
X118052928Y-89427023D01*
X118091023Y-89503214D01*
X118129119Y-89541309D01*
X118205309Y-89579404D01*
X118433880Y-89579404D01*
X118510071Y-89541309D01*
X118548166Y-89503214D01*
%TO.C,C5*%
D11*
X161647166Y-91733642D02*
X161694785Y-91781261D01*
X161837642Y-91828880D01*
X161932880Y-91828880D01*
X162075738Y-91781261D01*
X162170976Y-91686023D01*
X162218595Y-91590785D01*
X162266214Y-91400309D01*
X162266214Y-91257452D01*
X162218595Y-91066976D01*
X162170976Y-90971738D01*
X162075738Y-90876500D01*
X161932880Y-90828880D01*
X161837642Y-90828880D01*
X161694785Y-90876500D01*
X161647166Y-90924119D01*
X160742404Y-90828880D02*
X161218595Y-90828880D01*
X161266214Y-91305071D01*
X161218595Y-91257452D01*
X161123357Y-91209833D01*
X160885261Y-91209833D01*
X160790023Y-91257452D01*
X160742404Y-91305071D01*
X160694785Y-91400309D01*
X160694785Y-91638404D01*
X160742404Y-91733642D01*
X160790023Y-91781261D01*
X160885261Y-91828880D01*
X161123357Y-91828880D01*
X161218595Y-91781261D01*
X161266214Y-91733642D01*
X142597166Y-91733642D02*
X142644785Y-91781261D01*
X142787642Y-91828880D01*
X142882880Y-91828880D01*
X143025738Y-91781261D01*
X143120976Y-91686023D01*
X143168595Y-91590785D01*
X143216214Y-91400309D01*
X143216214Y-91257452D01*
X143168595Y-91066976D01*
X143120976Y-90971738D01*
X143025738Y-90876500D01*
X142882880Y-90828880D01*
X142787642Y-90828880D01*
X142644785Y-90876500D01*
X142597166Y-90924119D01*
X141692404Y-90828880D02*
X142168595Y-90828880D01*
X142216214Y-91305071D01*
X142168595Y-91257452D01*
X142073357Y-91209833D01*
X141835261Y-91209833D01*
X141740023Y-91257452D01*
X141692404Y-91305071D01*
X141644785Y-91400309D01*
X141644785Y-91638404D01*
X141692404Y-91733642D01*
X141740023Y-91781261D01*
X141835261Y-91828880D01*
X142073357Y-91828880D01*
X142168595Y-91781261D01*
X142216214Y-91733642D01*
X123547166Y-91733642D02*
X123594785Y-91781261D01*
X123737642Y-91828880D01*
X123832880Y-91828880D01*
X123975738Y-91781261D01*
X124070976Y-91686023D01*
X124118595Y-91590785D01*
X124166214Y-91400309D01*
X124166214Y-91257452D01*
X124118595Y-91066976D01*
X124070976Y-90971738D01*
X123975738Y-90876500D01*
X123832880Y-90828880D01*
X123737642Y-90828880D01*
X123594785Y-90876500D01*
X123547166Y-90924119D01*
X122642404Y-90828880D02*
X123118595Y-90828880D01*
X123166214Y-91305071D01*
X123118595Y-91257452D01*
X123023357Y-91209833D01*
X122785261Y-91209833D01*
X122690023Y-91257452D01*
X122642404Y-91305071D01*
X122594785Y-91400309D01*
X122594785Y-91638404D01*
X122642404Y-91733642D01*
X122690023Y-91781261D01*
X122785261Y-91828880D01*
X123023357Y-91828880D01*
X123118595Y-91781261D01*
X123166214Y-91733642D01*
%TO.C,C6*%
X162790166Y-93003642D02*
X162837785Y-93051261D01*
X162980642Y-93098880D01*
X163075880Y-93098880D01*
X163218738Y-93051261D01*
X163313976Y-92956023D01*
X163361595Y-92860785D01*
X163409214Y-92670309D01*
X163409214Y-92527452D01*
X163361595Y-92336976D01*
X163313976Y-92241738D01*
X163218738Y-92146500D01*
X163075880Y-92098880D01*
X162980642Y-92098880D01*
X162837785Y-92146500D01*
X162790166Y-92194119D01*
X161933023Y-92098880D02*
X162123500Y-92098880D01*
X162218738Y-92146500D01*
X162266357Y-92194119D01*
X162361595Y-92336976D01*
X162409214Y-92527452D01*
X162409214Y-92908404D01*
X162361595Y-93003642D01*
X162313976Y-93051261D01*
X162218738Y-93098880D01*
X162028261Y-93098880D01*
X161933023Y-93051261D01*
X161885404Y-93003642D01*
X161837785Y-92908404D01*
X161837785Y-92670309D01*
X161885404Y-92575071D01*
X161933023Y-92527452D01*
X162028261Y-92479833D01*
X162218738Y-92479833D01*
X162313976Y-92527452D01*
X162361595Y-92575071D01*
X162409214Y-92670309D01*
X143740166Y-93003642D02*
X143787785Y-93051261D01*
X143930642Y-93098880D01*
X144025880Y-93098880D01*
X144168738Y-93051261D01*
X144263976Y-92956023D01*
X144311595Y-92860785D01*
X144359214Y-92670309D01*
X144359214Y-92527452D01*
X144311595Y-92336976D01*
X144263976Y-92241738D01*
X144168738Y-92146500D01*
X144025880Y-92098880D01*
X143930642Y-92098880D01*
X143787785Y-92146500D01*
X143740166Y-92194119D01*
X142883023Y-92098880D02*
X143073500Y-92098880D01*
X143168738Y-92146500D01*
X143216357Y-92194119D01*
X143311595Y-92336976D01*
X143359214Y-92527452D01*
X143359214Y-92908404D01*
X143311595Y-93003642D01*
X143263976Y-93051261D01*
X143168738Y-93098880D01*
X142978261Y-93098880D01*
X142883023Y-93051261D01*
X142835404Y-93003642D01*
X142787785Y-92908404D01*
X142787785Y-92670309D01*
X142835404Y-92575071D01*
X142883023Y-92527452D01*
X142978261Y-92479833D01*
X143168738Y-92479833D01*
X143263976Y-92527452D01*
X143311595Y-92575071D01*
X143359214Y-92670309D01*
X124690166Y-93003642D02*
X124737785Y-93051261D01*
X124880642Y-93098880D01*
X124975880Y-93098880D01*
X125118738Y-93051261D01*
X125213976Y-92956023D01*
X125261595Y-92860785D01*
X125309214Y-92670309D01*
X125309214Y-92527452D01*
X125261595Y-92336976D01*
X125213976Y-92241738D01*
X125118738Y-92146500D01*
X124975880Y-92098880D01*
X124880642Y-92098880D01*
X124737785Y-92146500D01*
X124690166Y-92194119D01*
X123833023Y-92098880D02*
X124023500Y-92098880D01*
X124118738Y-92146500D01*
X124166357Y-92194119D01*
X124261595Y-92336976D01*
X124309214Y-92527452D01*
X124309214Y-92908404D01*
X124261595Y-93003642D01*
X124213976Y-93051261D01*
X124118738Y-93098880D01*
X123928261Y-93098880D01*
X123833023Y-93051261D01*
X123785404Y-93003642D01*
X123737785Y-92908404D01*
X123737785Y-92670309D01*
X123785404Y-92575071D01*
X123833023Y-92527452D01*
X123928261Y-92479833D01*
X124118738Y-92479833D01*
X124213976Y-92527452D01*
X124261595Y-92575071D01*
X124309214Y-92670309D01*
%TO.C,C2*%
X159513566Y-90844642D02*
X159561185Y-90892261D01*
X159704042Y-90939880D01*
X159799280Y-90939880D01*
X159942138Y-90892261D01*
X160037376Y-90797023D01*
X160084995Y-90701785D01*
X160132614Y-90511309D01*
X160132614Y-90368452D01*
X160084995Y-90177976D01*
X160037376Y-90082738D01*
X159942138Y-89987500D01*
X159799280Y-89939880D01*
X159704042Y-89939880D01*
X159561185Y-89987500D01*
X159513566Y-90035119D01*
X159132614Y-90035119D02*
X159084995Y-89987500D01*
X158989757Y-89939880D01*
X158751661Y-89939880D01*
X158656423Y-89987500D01*
X158608804Y-90035119D01*
X158561185Y-90130357D01*
X158561185Y-90225595D01*
X158608804Y-90368452D01*
X159180233Y-90939880D01*
X158561185Y-90939880D01*
X140463566Y-90844642D02*
X140511185Y-90892261D01*
X140654042Y-90939880D01*
X140749280Y-90939880D01*
X140892138Y-90892261D01*
X140987376Y-90797023D01*
X141034995Y-90701785D01*
X141082614Y-90511309D01*
X141082614Y-90368452D01*
X141034995Y-90177976D01*
X140987376Y-90082738D01*
X140892138Y-89987500D01*
X140749280Y-89939880D01*
X140654042Y-89939880D01*
X140511185Y-89987500D01*
X140463566Y-90035119D01*
X140082614Y-90035119D02*
X140034995Y-89987500D01*
X139939757Y-89939880D01*
X139701661Y-89939880D01*
X139606423Y-89987500D01*
X139558804Y-90035119D01*
X139511185Y-90130357D01*
X139511185Y-90225595D01*
X139558804Y-90368452D01*
X140130233Y-90939880D01*
X139511185Y-90939880D01*
X121413566Y-90844642D02*
X121461185Y-90892261D01*
X121604042Y-90939880D01*
X121699280Y-90939880D01*
X121842138Y-90892261D01*
X121937376Y-90797023D01*
X121984995Y-90701785D01*
X122032614Y-90511309D01*
X122032614Y-90368452D01*
X121984995Y-90177976D01*
X121937376Y-90082738D01*
X121842138Y-89987500D01*
X121699280Y-89939880D01*
X121604042Y-89939880D01*
X121461185Y-89987500D01*
X121413566Y-90035119D01*
X121032614Y-90035119D02*
X120984995Y-89987500D01*
X120889757Y-89939880D01*
X120651661Y-89939880D01*
X120556423Y-89987500D01*
X120508804Y-90035119D01*
X120461185Y-90130357D01*
X120461185Y-90225595D01*
X120508804Y-90368452D01*
X121080233Y-90939880D01*
X120461185Y-90939880D01*
%TO.C,C4*%
X167362166Y-93384642D02*
X167409785Y-93432261D01*
X167552642Y-93479880D01*
X167647880Y-93479880D01*
X167790738Y-93432261D01*
X167885976Y-93337023D01*
X167933595Y-93241785D01*
X167981214Y-93051309D01*
X167981214Y-92908452D01*
X167933595Y-92717976D01*
X167885976Y-92622738D01*
X167790738Y-92527500D01*
X167647880Y-92479880D01*
X167552642Y-92479880D01*
X167409785Y-92527500D01*
X167362166Y-92575119D01*
X166505023Y-92813214D02*
X166505023Y-93479880D01*
X166743119Y-92432261D02*
X166981214Y-93146547D01*
X166362166Y-93146547D01*
X148312166Y-93384642D02*
X148359785Y-93432261D01*
X148502642Y-93479880D01*
X148597880Y-93479880D01*
X148740738Y-93432261D01*
X148835976Y-93337023D01*
X148883595Y-93241785D01*
X148931214Y-93051309D01*
X148931214Y-92908452D01*
X148883595Y-92717976D01*
X148835976Y-92622738D01*
X148740738Y-92527500D01*
X148597880Y-92479880D01*
X148502642Y-92479880D01*
X148359785Y-92527500D01*
X148312166Y-92575119D01*
X147455023Y-92813214D02*
X147455023Y-93479880D01*
X147693119Y-92432261D02*
X147931214Y-93146547D01*
X147312166Y-93146547D01*
X129262166Y-93384642D02*
X129309785Y-93432261D01*
X129452642Y-93479880D01*
X129547880Y-93479880D01*
X129690738Y-93432261D01*
X129785976Y-93337023D01*
X129833595Y-93241785D01*
X129881214Y-93051309D01*
X129881214Y-92908452D01*
X129833595Y-92717976D01*
X129785976Y-92622738D01*
X129690738Y-92527500D01*
X129547880Y-92479880D01*
X129452642Y-92479880D01*
X129309785Y-92527500D01*
X129262166Y-92575119D01*
X128405023Y-92813214D02*
X128405023Y-93479880D01*
X128643119Y-92432261D02*
X128881214Y-93146547D01*
X128262166Y-93146547D01*
%TO.C,D1*%
X159551595Y-96836880D02*
X159551595Y-95836880D01*
X159313500Y-95836880D01*
X159170642Y-95884500D01*
X159075404Y-95979738D01*
X159027785Y-96074976D01*
X158980166Y-96265452D01*
X158980166Y-96408309D01*
X159027785Y-96598785D01*
X159075404Y-96694023D01*
X159170642Y-96789261D01*
X159313500Y-96836880D01*
X159551595Y-96836880D01*
X158027785Y-96836880D02*
X158599214Y-96836880D01*
X158313500Y-96836880D02*
X158313500Y-95836880D01*
X158408738Y-95979738D01*
X158503976Y-96074976D01*
X158599214Y-96122595D01*
X140501595Y-96836880D02*
X140501595Y-95836880D01*
X140263500Y-95836880D01*
X140120642Y-95884500D01*
X140025404Y-95979738D01*
X139977785Y-96074976D01*
X139930166Y-96265452D01*
X139930166Y-96408309D01*
X139977785Y-96598785D01*
X140025404Y-96694023D01*
X140120642Y-96789261D01*
X140263500Y-96836880D01*
X140501595Y-96836880D01*
X138977785Y-96836880D02*
X139549214Y-96836880D01*
X139263500Y-96836880D02*
X139263500Y-95836880D01*
X139358738Y-95979738D01*
X139453976Y-96074976D01*
X139549214Y-96122595D01*
X121451595Y-96836880D02*
X121451595Y-95836880D01*
X121213500Y-95836880D01*
X121070642Y-95884500D01*
X120975404Y-95979738D01*
X120927785Y-96074976D01*
X120880166Y-96265452D01*
X120880166Y-96408309D01*
X120927785Y-96598785D01*
X120975404Y-96694023D01*
X121070642Y-96789261D01*
X121213500Y-96836880D01*
X121451595Y-96836880D01*
X119927785Y-96836880D02*
X120499214Y-96836880D01*
X120213500Y-96836880D02*
X120213500Y-95836880D01*
X120308738Y-95979738D01*
X120403976Y-96074976D01*
X120499214Y-96122595D01*
X102401595Y-96836880D02*
X102401595Y-95836880D01*
X102163500Y-95836880D01*
X102020642Y-95884500D01*
X101925404Y-95979738D01*
X101877785Y-96074976D01*
X101830166Y-96265452D01*
X101830166Y-96408309D01*
X101877785Y-96598785D01*
X101925404Y-96694023D01*
X102020642Y-96789261D01*
X102163500Y-96836880D01*
X102401595Y-96836880D01*
X100877785Y-96836880D02*
X101449214Y-96836880D01*
X101163500Y-96836880D02*
X101163500Y-95836880D01*
X101258738Y-95979738D01*
X101353976Y-96074976D01*
X101449214Y-96122595D01*
%TO.C,C4*%
X110212166Y-93384642D02*
X110259785Y-93432261D01*
X110402642Y-93479880D01*
X110497880Y-93479880D01*
X110640738Y-93432261D01*
X110735976Y-93337023D01*
X110783595Y-93241785D01*
X110831214Y-93051309D01*
X110831214Y-92908452D01*
X110783595Y-92717976D01*
X110735976Y-92622738D01*
X110640738Y-92527500D01*
X110497880Y-92479880D01*
X110402642Y-92479880D01*
X110259785Y-92527500D01*
X110212166Y-92575119D01*
X109355023Y-92813214D02*
X109355023Y-93479880D01*
X109593119Y-92432261D02*
X109831214Y-93146547D01*
X109212166Y-93146547D01*
%TO.C,C6*%
X105640166Y-93003642D02*
X105687785Y-93051261D01*
X105830642Y-93098880D01*
X105925880Y-93098880D01*
X106068738Y-93051261D01*
X106163976Y-92956023D01*
X106211595Y-92860785D01*
X106259214Y-92670309D01*
X106259214Y-92527452D01*
X106211595Y-92336976D01*
X106163976Y-92241738D01*
X106068738Y-92146500D01*
X105925880Y-92098880D01*
X105830642Y-92098880D01*
X105687785Y-92146500D01*
X105640166Y-92194119D01*
X104783023Y-92098880D02*
X104973500Y-92098880D01*
X105068738Y-92146500D01*
X105116357Y-92194119D01*
X105211595Y-92336976D01*
X105259214Y-92527452D01*
X105259214Y-92908404D01*
X105211595Y-93003642D01*
X105163976Y-93051261D01*
X105068738Y-93098880D01*
X104878261Y-93098880D01*
X104783023Y-93051261D01*
X104735404Y-93003642D01*
X104687785Y-92908404D01*
X104687785Y-92670309D01*
X104735404Y-92575071D01*
X104783023Y-92527452D01*
X104878261Y-92479833D01*
X105068738Y-92479833D01*
X105163976Y-92527452D01*
X105211595Y-92575071D01*
X105259214Y-92670309D01*
%TO.C,C5*%
X104497166Y-91733642D02*
X104544785Y-91781261D01*
X104687642Y-91828880D01*
X104782880Y-91828880D01*
X104925738Y-91781261D01*
X105020976Y-91686023D01*
X105068595Y-91590785D01*
X105116214Y-91400309D01*
X105116214Y-91257452D01*
X105068595Y-91066976D01*
X105020976Y-90971738D01*
X104925738Y-90876500D01*
X104782880Y-90828880D01*
X104687642Y-90828880D01*
X104544785Y-90876500D01*
X104497166Y-90924119D01*
X103592404Y-90828880D02*
X104068595Y-90828880D01*
X104116214Y-91305071D01*
X104068595Y-91257452D01*
X103973357Y-91209833D01*
X103735261Y-91209833D01*
X103640023Y-91257452D01*
X103592404Y-91305071D01*
X103544785Y-91400309D01*
X103544785Y-91638404D01*
X103592404Y-91733642D01*
X103640023Y-91781261D01*
X103735261Y-91828880D01*
X103973357Y-91828880D01*
X104068595Y-91781261D01*
X104116214Y-91733642D01*
%TO.C,C3*%
D10*
X99764833Y-89503214D02*
X99802928Y-89541309D01*
X99917214Y-89579404D01*
X99993404Y-89579404D01*
X100107690Y-89541309D01*
X100183880Y-89465119D01*
X100221976Y-89388928D01*
X100260071Y-89236547D01*
X100260071Y-89122261D01*
X100221976Y-88969880D01*
X100183880Y-88893690D01*
X100107690Y-88817500D01*
X99993404Y-88779404D01*
X99917214Y-88779404D01*
X99802928Y-88817500D01*
X99764833Y-88855595D01*
X99498166Y-88779404D02*
X99002928Y-88779404D01*
X99269595Y-89084166D01*
X99155309Y-89084166D01*
X99079119Y-89122261D01*
X99041023Y-89160357D01*
X99002928Y-89236547D01*
X99002928Y-89427023D01*
X99041023Y-89503214D01*
X99079119Y-89541309D01*
X99155309Y-89579404D01*
X99383880Y-89579404D01*
X99460071Y-89541309D01*
X99498166Y-89503214D01*
%TO.C,C2*%
D11*
X102363566Y-90844642D02*
X102411185Y-90892261D01*
X102554042Y-90939880D01*
X102649280Y-90939880D01*
X102792138Y-90892261D01*
X102887376Y-90797023D01*
X102934995Y-90701785D01*
X102982614Y-90511309D01*
X102982614Y-90368452D01*
X102934995Y-90177976D01*
X102887376Y-90082738D01*
X102792138Y-89987500D01*
X102649280Y-89939880D01*
X102554042Y-89939880D01*
X102411185Y-89987500D01*
X102363566Y-90035119D01*
X101982614Y-90035119D02*
X101934995Y-89987500D01*
X101839757Y-89939880D01*
X101601661Y-89939880D01*
X101506423Y-89987500D01*
X101458804Y-90035119D01*
X101411185Y-90130357D01*
X101411185Y-90225595D01*
X101458804Y-90368452D01*
X102030233Y-90939880D01*
X101411185Y-90939880D01*
%TO.C,C1*%
X110593166Y-94781642D02*
X110640785Y-94829261D01*
X110783642Y-94876880D01*
X110878880Y-94876880D01*
X111021738Y-94829261D01*
X111116976Y-94734023D01*
X111164595Y-94638785D01*
X111212214Y-94448309D01*
X111212214Y-94305452D01*
X111164595Y-94114976D01*
X111116976Y-94019738D01*
X111021738Y-93924500D01*
X110878880Y-93876880D01*
X110783642Y-93876880D01*
X110640785Y-93924500D01*
X110593166Y-93972119D01*
X109640785Y-94876880D02*
X110212214Y-94876880D01*
X109926500Y-94876880D02*
X109926500Y-93876880D01*
X110021738Y-94019738D01*
X110116976Y-94114976D01*
X110212214Y-94162595D01*
%TD*%
%LPC*%
%TO.C,C1*%
G36*
G01*
X166388500Y-94174500D02*
X166388500Y-94674500D01*
G75*
G02*
X166163500Y-94899500I-225000J0D01*
G01*
X165713500Y-94899500D01*
G75*
G02*
X165488500Y-94674500I0J225000D01*
G01*
X165488500Y-94174500D01*
G75*
G02*
X165713500Y-93949500I225000J0D01*
G01*
X166163500Y-93949500D01*
G75*
G02*
X166388500Y-94174500I0J-225000D01*
G01*
G37*
G36*
G01*
X164838500Y-94174500D02*
X164838500Y-94674500D01*
G75*
G02*
X164613500Y-94899500I-225000J0D01*
G01*
X164163500Y-94899500D01*
G75*
G02*
X163938500Y-94674500I0J225000D01*
G01*
X163938500Y-94174500D01*
G75*
G02*
X164163500Y-93949500I225000J0D01*
G01*
X164613500Y-93949500D01*
G75*
G02*
X164838500Y-94174500I0J-225000D01*
G01*
G37*
%TD*%
%TO.C,C1*%
G36*
G01*
X147338500Y-94174500D02*
X147338500Y-94674500D01*
G75*
G02*
X147113500Y-94899500I-225000J0D01*
G01*
X146663500Y-94899500D01*
G75*
G02*
X146438500Y-94674500I0J225000D01*
G01*
X146438500Y-94174500D01*
G75*
G02*
X146663500Y-93949500I225000J0D01*
G01*
X147113500Y-93949500D01*
G75*
G02*
X147338500Y-94174500I0J-225000D01*
G01*
G37*
G36*
G01*
X145788500Y-94174500D02*
X145788500Y-94674500D01*
G75*
G02*
X145563500Y-94899500I-225000J0D01*
G01*
X145113500Y-94899500D01*
G75*
G02*
X144888500Y-94674500I0J225000D01*
G01*
X144888500Y-94174500D01*
G75*
G02*
X145113500Y-93949500I225000J0D01*
G01*
X145563500Y-93949500D01*
G75*
G02*
X145788500Y-94174500I0J-225000D01*
G01*
G37*
%TD*%
%TO.C,C1*%
G36*
G01*
X128288500Y-94174500D02*
X128288500Y-94674500D01*
G75*
G02*
X128063500Y-94899500I-225000J0D01*
G01*
X127613500Y-94899500D01*
G75*
G02*
X127388500Y-94674500I0J225000D01*
G01*
X127388500Y-94174500D01*
G75*
G02*
X127613500Y-93949500I225000J0D01*
G01*
X128063500Y-93949500D01*
G75*
G02*
X128288500Y-94174500I0J-225000D01*
G01*
G37*
G36*
G01*
X126738500Y-94174500D02*
X126738500Y-94674500D01*
G75*
G02*
X126513500Y-94899500I-225000J0D01*
G01*
X126063500Y-94899500D01*
G75*
G02*
X125838500Y-94674500I0J225000D01*
G01*
X125838500Y-94174500D01*
G75*
G02*
X126063500Y-93949500I225000J0D01*
G01*
X126513500Y-93949500D01*
G75*
G02*
X126738500Y-94174500I0J-225000D01*
G01*
G37*
%TD*%
%TO.C,C3*%
G36*
G01*
X155681500Y-88961500D02*
X155341500Y-88961500D01*
G75*
G02*
X155201500Y-88821500I0J140000D01*
G01*
X155201500Y-88541500D01*
G75*
G02*
X155341500Y-88401500I140000J0D01*
G01*
X155681500Y-88401500D01*
G75*
G02*
X155821500Y-88541500I0J-140000D01*
G01*
X155821500Y-88821500D01*
G75*
G02*
X155681500Y-88961500I-140000J0D01*
G01*
G37*
G36*
G01*
X155681500Y-88001500D02*
X155341500Y-88001500D01*
G75*
G02*
X155201500Y-87861500I0J140000D01*
G01*
X155201500Y-87581500D01*
G75*
G02*
X155341500Y-87441500I140000J0D01*
G01*
X155681500Y-87441500D01*
G75*
G02*
X155821500Y-87581500I0J-140000D01*
G01*
X155821500Y-87861500D01*
G75*
G02*
X155681500Y-88001500I-140000J0D01*
G01*
G37*
%TD*%
%TO.C,C3*%
G36*
G01*
X136631500Y-88961500D02*
X136291500Y-88961500D01*
G75*
G02*
X136151500Y-88821500I0J140000D01*
G01*
X136151500Y-88541500D01*
G75*
G02*
X136291500Y-88401500I140000J0D01*
G01*
X136631500Y-88401500D01*
G75*
G02*
X136771500Y-88541500I0J-140000D01*
G01*
X136771500Y-88821500D01*
G75*
G02*
X136631500Y-88961500I-140000J0D01*
G01*
G37*
G36*
G01*
X136631500Y-88001500D02*
X136291500Y-88001500D01*
G75*
G02*
X136151500Y-87861500I0J140000D01*
G01*
X136151500Y-87581500D01*
G75*
G02*
X136291500Y-87441500I140000J0D01*
G01*
X136631500Y-87441500D01*
G75*
G02*
X136771500Y-87581500I0J-140000D01*
G01*
X136771500Y-87861500D01*
G75*
G02*
X136631500Y-88001500I-140000J0D01*
G01*
G37*
%TD*%
%TO.C,C3*%
G36*
G01*
X117581500Y-88961500D02*
X117241500Y-88961500D01*
G75*
G02*
X117101500Y-88821500I0J140000D01*
G01*
X117101500Y-88541500D01*
G75*
G02*
X117241500Y-88401500I140000J0D01*
G01*
X117581500Y-88401500D01*
G75*
G02*
X117721500Y-88541500I0J-140000D01*
G01*
X117721500Y-88821500D01*
G75*
G02*
X117581500Y-88961500I-140000J0D01*
G01*
G37*
G36*
G01*
X117581500Y-88001500D02*
X117241500Y-88001500D01*
G75*
G02*
X117101500Y-87861500I0J140000D01*
G01*
X117101500Y-87581500D01*
G75*
G02*
X117241500Y-87441500I140000J0D01*
G01*
X117581500Y-87441500D01*
G75*
G02*
X117721500Y-87581500I0J-140000D01*
G01*
X117721500Y-87861500D01*
G75*
G02*
X117581500Y-88001500I-140000J0D01*
G01*
G37*
%TD*%
%TO.C,C5*%
G36*
G01*
X158716500Y-91673500D02*
X158716500Y-91333500D01*
G75*
G02*
X158856500Y-91193500I140000J0D01*
G01*
X159136500Y-91193500D01*
G75*
G02*
X159276500Y-91333500I0J-140000D01*
G01*
X159276500Y-91673500D01*
G75*
G02*
X159136500Y-91813500I-140000J0D01*
G01*
X158856500Y-91813500D01*
G75*
G02*
X158716500Y-91673500I0J140000D01*
G01*
G37*
G36*
G01*
X159676500Y-91673500D02*
X159676500Y-91333500D01*
G75*
G02*
X159816500Y-91193500I140000J0D01*
G01*
X160096500Y-91193500D01*
G75*
G02*
X160236500Y-91333500I0J-140000D01*
G01*
X160236500Y-91673500D01*
G75*
G02*
X160096500Y-91813500I-140000J0D01*
G01*
X159816500Y-91813500D01*
G75*
G02*
X159676500Y-91673500I0J140000D01*
G01*
G37*
%TD*%
%TO.C,C5*%
G36*
G01*
X139666500Y-91673500D02*
X139666500Y-91333500D01*
G75*
G02*
X139806500Y-91193500I140000J0D01*
G01*
X140086500Y-91193500D01*
G75*
G02*
X140226500Y-91333500I0J-140000D01*
G01*
X140226500Y-91673500D01*
G75*
G02*
X140086500Y-91813500I-140000J0D01*
G01*
X139806500Y-91813500D01*
G75*
G02*
X139666500Y-91673500I0J140000D01*
G01*
G37*
G36*
G01*
X140626500Y-91673500D02*
X140626500Y-91333500D01*
G75*
G02*
X140766500Y-91193500I140000J0D01*
G01*
X141046500Y-91193500D01*
G75*
G02*
X141186500Y-91333500I0J-140000D01*
G01*
X141186500Y-91673500D01*
G75*
G02*
X141046500Y-91813500I-140000J0D01*
G01*
X140766500Y-91813500D01*
G75*
G02*
X140626500Y-91673500I0J140000D01*
G01*
G37*
%TD*%
%TO.C,C5*%
G36*
G01*
X120616500Y-91673500D02*
X120616500Y-91333500D01*
G75*
G02*
X120756500Y-91193500I140000J0D01*
G01*
X121036500Y-91193500D01*
G75*
G02*
X121176500Y-91333500I0J-140000D01*
G01*
X121176500Y-91673500D01*
G75*
G02*
X121036500Y-91813500I-140000J0D01*
G01*
X120756500Y-91813500D01*
G75*
G02*
X120616500Y-91673500I0J140000D01*
G01*
G37*
G36*
G01*
X121576500Y-91673500D02*
X121576500Y-91333500D01*
G75*
G02*
X121716500Y-91193500I140000J0D01*
G01*
X121996500Y-91193500D01*
G75*
G02*
X122136500Y-91333500I0J-140000D01*
G01*
X122136500Y-91673500D01*
G75*
G02*
X121996500Y-91813500I-140000J0D01*
G01*
X121716500Y-91813500D01*
G75*
G02*
X121576500Y-91673500I0J140000D01*
G01*
G37*
%TD*%
%TO.C,C6*%
G36*
G01*
X160085500Y-92816500D02*
X160085500Y-92476500D01*
G75*
G02*
X160225500Y-92336500I140000J0D01*
G01*
X160505500Y-92336500D01*
G75*
G02*
X160645500Y-92476500I0J-140000D01*
G01*
X160645500Y-92816500D01*
G75*
G02*
X160505500Y-92956500I-140000J0D01*
G01*
X160225500Y-92956500D01*
G75*
G02*
X160085500Y-92816500I0J140000D01*
G01*
G37*
G36*
G01*
X161045500Y-92816500D02*
X161045500Y-92476500D01*
G75*
G02*
X161185500Y-92336500I140000J0D01*
G01*
X161465500Y-92336500D01*
G75*
G02*
X161605500Y-92476500I0J-140000D01*
G01*
X161605500Y-92816500D01*
G75*
G02*
X161465500Y-92956500I-140000J0D01*
G01*
X161185500Y-92956500D01*
G75*
G02*
X161045500Y-92816500I0J140000D01*
G01*
G37*
%TD*%
%TO.C,C6*%
G36*
G01*
X141035500Y-92816500D02*
X141035500Y-92476500D01*
G75*
G02*
X141175500Y-92336500I140000J0D01*
G01*
X141455500Y-92336500D01*
G75*
G02*
X141595500Y-92476500I0J-140000D01*
G01*
X141595500Y-92816500D01*
G75*
G02*
X141455500Y-92956500I-140000J0D01*
G01*
X141175500Y-92956500D01*
G75*
G02*
X141035500Y-92816500I0J140000D01*
G01*
G37*
G36*
G01*
X141995500Y-92816500D02*
X141995500Y-92476500D01*
G75*
G02*
X142135500Y-92336500I140000J0D01*
G01*
X142415500Y-92336500D01*
G75*
G02*
X142555500Y-92476500I0J-140000D01*
G01*
X142555500Y-92816500D01*
G75*
G02*
X142415500Y-92956500I-140000J0D01*
G01*
X142135500Y-92956500D01*
G75*
G02*
X141995500Y-92816500I0J140000D01*
G01*
G37*
%TD*%
%TO.C,C6*%
G36*
G01*
X121985500Y-92816500D02*
X121985500Y-92476500D01*
G75*
G02*
X122125500Y-92336500I140000J0D01*
G01*
X122405500Y-92336500D01*
G75*
G02*
X122545500Y-92476500I0J-140000D01*
G01*
X122545500Y-92816500D01*
G75*
G02*
X122405500Y-92956500I-140000J0D01*
G01*
X122125500Y-92956500D01*
G75*
G02*
X121985500Y-92816500I0J140000D01*
G01*
G37*
G36*
G01*
X122945500Y-92816500D02*
X122945500Y-92476500D01*
G75*
G02*
X123085500Y-92336500I140000J0D01*
G01*
X123365500Y-92336500D01*
G75*
G02*
X123505500Y-92476500I0J-140000D01*
G01*
X123505500Y-92816500D01*
G75*
G02*
X123365500Y-92956500I-140000J0D01*
G01*
X123085500Y-92956500D01*
G75*
G02*
X122945500Y-92816500I0J140000D01*
G01*
G37*
%TD*%
%TO.C,C2*%
G36*
G01*
X158047500Y-92093500D02*
X157547500Y-92093500D01*
G75*
G02*
X157322500Y-91868500I0J225000D01*
G01*
X157322500Y-91418500D01*
G75*
G02*
X157547500Y-91193500I225000J0D01*
G01*
X158047500Y-91193500D01*
G75*
G02*
X158272500Y-91418500I0J-225000D01*
G01*
X158272500Y-91868500D01*
G75*
G02*
X158047500Y-92093500I-225000J0D01*
G01*
G37*
G36*
G01*
X158047500Y-90543500D02*
X157547500Y-90543500D01*
G75*
G02*
X157322500Y-90318500I0J225000D01*
G01*
X157322500Y-89868500D01*
G75*
G02*
X157547500Y-89643500I225000J0D01*
G01*
X158047500Y-89643500D01*
G75*
G02*
X158272500Y-89868500I0J-225000D01*
G01*
X158272500Y-90318500D01*
G75*
G02*
X158047500Y-90543500I-225000J0D01*
G01*
G37*
%TD*%
%TO.C,C2*%
G36*
G01*
X138997500Y-92093500D02*
X138497500Y-92093500D01*
G75*
G02*
X138272500Y-91868500I0J225000D01*
G01*
X138272500Y-91418500D01*
G75*
G02*
X138497500Y-91193500I225000J0D01*
G01*
X138997500Y-91193500D01*
G75*
G02*
X139222500Y-91418500I0J-225000D01*
G01*
X139222500Y-91868500D01*
G75*
G02*
X138997500Y-92093500I-225000J0D01*
G01*
G37*
G36*
G01*
X138997500Y-90543500D02*
X138497500Y-90543500D01*
G75*
G02*
X138272500Y-90318500I0J225000D01*
G01*
X138272500Y-89868500D01*
G75*
G02*
X138497500Y-89643500I225000J0D01*
G01*
X138997500Y-89643500D01*
G75*
G02*
X139222500Y-89868500I0J-225000D01*
G01*
X139222500Y-90318500D01*
G75*
G02*
X138997500Y-90543500I-225000J0D01*
G01*
G37*
%TD*%
%TO.C,C2*%
G36*
G01*
X119947500Y-92093500D02*
X119447500Y-92093500D01*
G75*
G02*
X119222500Y-91868500I0J225000D01*
G01*
X119222500Y-91418500D01*
G75*
G02*
X119447500Y-91193500I225000J0D01*
G01*
X119947500Y-91193500D01*
G75*
G02*
X120172500Y-91418500I0J-225000D01*
G01*
X120172500Y-91868500D01*
G75*
G02*
X119947500Y-92093500I-225000J0D01*
G01*
G37*
G36*
G01*
X119947500Y-90543500D02*
X119447500Y-90543500D01*
G75*
G02*
X119222500Y-90318500I0J225000D01*
G01*
X119222500Y-89868500D01*
G75*
G02*
X119447500Y-89643500I225000J0D01*
G01*
X119947500Y-89643500D01*
G75*
G02*
X120172500Y-89868500I0J-225000D01*
G01*
X120172500Y-90318500D01*
G75*
G02*
X119947500Y-90543500I-225000J0D01*
G01*
G37*
%TD*%
D16*
%TO.C,J5*%
X153606500Y-86932500D03*
D12*
G36*
X154606500Y-88182500D02*
G01*
X154606500Y-88482500D01*
X153406500Y-89682500D01*
X152606500Y-89682500D01*
X152606500Y-88182500D01*
X154606500Y-88182500D01*
G37*
G36*
X153406500Y-90182500D02*
G01*
X154606500Y-91382500D01*
X154606500Y-91682500D01*
X152606500Y-91682500D01*
X152606500Y-90182500D01*
X153406500Y-90182500D01*
G37*
G36*
X154606500Y-92182500D02*
G01*
X154606500Y-92482500D01*
X153406500Y-93682500D01*
X152606500Y-93682500D01*
X152606500Y-92182500D01*
X154606500Y-92182500D01*
G37*
G36*
X153406500Y-94182500D02*
G01*
X154606500Y-95382500D01*
X154606500Y-95682500D01*
X152606500Y-95682500D01*
X152606500Y-94182500D01*
X153406500Y-94182500D01*
G37*
G36*
X154606500Y-96182500D02*
G01*
X154606500Y-96482500D01*
X153406500Y-97682500D01*
X152606500Y-97682500D01*
X152606500Y-96182500D01*
X154606500Y-96182500D01*
G37*
G36*
X153406500Y-98182500D02*
G01*
X154606500Y-99382500D01*
X154606500Y-99682500D01*
X152606500Y-99682500D01*
X152606500Y-98182500D01*
X153406500Y-98182500D01*
G37*
G36*
X154606500Y-100182500D02*
G01*
X154606500Y-100482500D01*
X153406500Y-101682500D01*
X152606500Y-101682500D01*
X152606500Y-100182500D01*
X154606500Y-100182500D01*
G37*
G36*
X153406500Y-102182500D02*
G01*
X154606500Y-103382500D01*
X154606500Y-103682500D01*
X152606500Y-103682500D01*
X152606500Y-102182500D01*
X153406500Y-102182500D01*
G37*
G36*
X153706500Y-90182500D02*
G01*
X153706500Y-89682500D01*
X154606500Y-88782500D01*
X154606500Y-91082500D01*
X153706500Y-90182500D01*
G37*
G36*
X153706500Y-94182500D02*
G01*
X153706500Y-93682500D01*
X154606500Y-92782500D01*
X154606500Y-95082500D01*
X153706500Y-94182500D01*
G37*
G36*
X153706500Y-98182500D02*
G01*
X153706500Y-97682500D01*
X154606500Y-96782500D01*
X154606500Y-99082500D01*
X153706500Y-98182500D01*
G37*
G36*
X153706500Y-102182500D02*
G01*
X153706500Y-101682500D01*
X154606500Y-100782500D01*
X154606500Y-103082500D01*
X153706500Y-102182500D01*
G37*
%TD*%
D16*
%TO.C,J5*%
X134556500Y-86932500D03*
D12*
G36*
X135556500Y-88182500D02*
G01*
X135556500Y-88482500D01*
X134356500Y-89682500D01*
X133556500Y-89682500D01*
X133556500Y-88182500D01*
X135556500Y-88182500D01*
G37*
G36*
X134356500Y-90182500D02*
G01*
X135556500Y-91382500D01*
X135556500Y-91682500D01*
X133556500Y-91682500D01*
X133556500Y-90182500D01*
X134356500Y-90182500D01*
G37*
G36*
X135556500Y-92182500D02*
G01*
X135556500Y-92482500D01*
X134356500Y-93682500D01*
X133556500Y-93682500D01*
X133556500Y-92182500D01*
X135556500Y-92182500D01*
G37*
G36*
X134356500Y-94182500D02*
G01*
X135556500Y-95382500D01*
X135556500Y-95682500D01*
X133556500Y-95682500D01*
X133556500Y-94182500D01*
X134356500Y-94182500D01*
G37*
G36*
X135556500Y-96182500D02*
G01*
X135556500Y-96482500D01*
X134356500Y-97682500D01*
X133556500Y-97682500D01*
X133556500Y-96182500D01*
X135556500Y-96182500D01*
G37*
G36*
X134356500Y-98182500D02*
G01*
X135556500Y-99382500D01*
X135556500Y-99682500D01*
X133556500Y-99682500D01*
X133556500Y-98182500D01*
X134356500Y-98182500D01*
G37*
G36*
X135556500Y-100182500D02*
G01*
X135556500Y-100482500D01*
X134356500Y-101682500D01*
X133556500Y-101682500D01*
X133556500Y-100182500D01*
X135556500Y-100182500D01*
G37*
G36*
X134356500Y-102182500D02*
G01*
X135556500Y-103382500D01*
X135556500Y-103682500D01*
X133556500Y-103682500D01*
X133556500Y-102182500D01*
X134356500Y-102182500D01*
G37*
G36*
X134656500Y-90182500D02*
G01*
X134656500Y-89682500D01*
X135556500Y-88782500D01*
X135556500Y-91082500D01*
X134656500Y-90182500D01*
G37*
G36*
X134656500Y-94182500D02*
G01*
X134656500Y-93682500D01*
X135556500Y-92782500D01*
X135556500Y-95082500D01*
X134656500Y-94182500D01*
G37*
G36*
X134656500Y-98182500D02*
G01*
X134656500Y-97682500D01*
X135556500Y-96782500D01*
X135556500Y-99082500D01*
X134656500Y-98182500D01*
G37*
G36*
X134656500Y-102182500D02*
G01*
X134656500Y-101682500D01*
X135556500Y-100782500D01*
X135556500Y-103082500D01*
X134656500Y-102182500D01*
G37*
%TD*%
D16*
%TO.C,J5*%
X115506500Y-86932500D03*
D12*
G36*
X116506500Y-88182500D02*
G01*
X116506500Y-88482500D01*
X115306500Y-89682500D01*
X114506500Y-89682500D01*
X114506500Y-88182500D01*
X116506500Y-88182500D01*
G37*
G36*
X115306500Y-90182500D02*
G01*
X116506500Y-91382500D01*
X116506500Y-91682500D01*
X114506500Y-91682500D01*
X114506500Y-90182500D01*
X115306500Y-90182500D01*
G37*
G36*
X116506500Y-92182500D02*
G01*
X116506500Y-92482500D01*
X115306500Y-93682500D01*
X114506500Y-93682500D01*
X114506500Y-92182500D01*
X116506500Y-92182500D01*
G37*
G36*
X115306500Y-94182500D02*
G01*
X116506500Y-95382500D01*
X116506500Y-95682500D01*
X114506500Y-95682500D01*
X114506500Y-94182500D01*
X115306500Y-94182500D01*
G37*
G36*
X116506500Y-96182500D02*
G01*
X116506500Y-96482500D01*
X115306500Y-97682500D01*
X114506500Y-97682500D01*
X114506500Y-96182500D01*
X116506500Y-96182500D01*
G37*
G36*
X115306500Y-98182500D02*
G01*
X116506500Y-99382500D01*
X116506500Y-99682500D01*
X114506500Y-99682500D01*
X114506500Y-98182500D01*
X115306500Y-98182500D01*
G37*
G36*
X116506500Y-100182500D02*
G01*
X116506500Y-100482500D01*
X115306500Y-101682500D01*
X114506500Y-101682500D01*
X114506500Y-100182500D01*
X116506500Y-100182500D01*
G37*
G36*
X115306500Y-102182500D02*
G01*
X116506500Y-103382500D01*
X116506500Y-103682500D01*
X114506500Y-103682500D01*
X114506500Y-102182500D01*
X115306500Y-102182500D01*
G37*
G36*
X115606500Y-90182500D02*
G01*
X115606500Y-89682500D01*
X116506500Y-88782500D01*
X116506500Y-91082500D01*
X115606500Y-90182500D01*
G37*
G36*
X115606500Y-94182500D02*
G01*
X115606500Y-93682500D01*
X116506500Y-92782500D01*
X116506500Y-95082500D01*
X115606500Y-94182500D01*
G37*
G36*
X115606500Y-98182500D02*
G01*
X115606500Y-97682500D01*
X116506500Y-96782500D01*
X116506500Y-99082500D01*
X115606500Y-98182500D01*
G37*
G36*
X115606500Y-102182500D02*
G01*
X115606500Y-101682500D01*
X116506500Y-100782500D01*
X116506500Y-103082500D01*
X115606500Y-102182500D01*
G37*
%TD*%
D17*
%TO.C,J1*%
X158365500Y-89217500D03*
X158865500Y-89217500D03*
X159365500Y-89217500D03*
X159865500Y-89217500D03*
X160365500Y-89217500D03*
X160865500Y-89217500D03*
X161365500Y-89217500D03*
X161865500Y-89217500D03*
X162365500Y-89217500D03*
X162865500Y-89217500D03*
X163365500Y-89217500D03*
X163865500Y-89217500D03*
X164365500Y-89217500D03*
X164865500Y-89217500D03*
X165365500Y-89217500D03*
X165865500Y-89217500D03*
D18*
X157730500Y-86407500D03*
X166500500Y-86407500D03*
%TD*%
D17*
%TO.C,J1*%
X139315500Y-89217500D03*
X139815500Y-89217500D03*
X140315500Y-89217500D03*
X140815500Y-89217500D03*
X141315500Y-89217500D03*
X141815500Y-89217500D03*
X142315500Y-89217500D03*
X142815500Y-89217500D03*
X143315500Y-89217500D03*
X143815500Y-89217500D03*
X144315500Y-89217500D03*
X144815500Y-89217500D03*
X145315500Y-89217500D03*
X145815500Y-89217500D03*
X146315500Y-89217500D03*
X146815500Y-89217500D03*
D18*
X138680500Y-86407500D03*
X147450500Y-86407500D03*
%TD*%
D17*
%TO.C,J1*%
X120265500Y-89217500D03*
X120765500Y-89217500D03*
X121265500Y-89217500D03*
X121765500Y-89217500D03*
X122265500Y-89217500D03*
X122765500Y-89217500D03*
X123265500Y-89217500D03*
X123765500Y-89217500D03*
X124265500Y-89217500D03*
X124765500Y-89217500D03*
X125265500Y-89217500D03*
X125765500Y-89217500D03*
X126265500Y-89217500D03*
X126765500Y-89217500D03*
X127265500Y-89217500D03*
X127765500Y-89217500D03*
D18*
X119630500Y-86407500D03*
X128400500Y-86407500D03*
%TD*%
D19*
%TO.C,SW1*%
X167195500Y-96202500D03*
X157035500Y-96202500D03*
D20*
X162115500Y-96202500D03*
D21*
X158305500Y-93662500D03*
X164655500Y-91122500D03*
%TD*%
D19*
%TO.C,SW1*%
X148145500Y-96202500D03*
X137985500Y-96202500D03*
D20*
X143065500Y-96202500D03*
D21*
X139255500Y-93662500D03*
X145605500Y-91122500D03*
%TD*%
D19*
%TO.C,SW1*%
X129095500Y-96202500D03*
X118935500Y-96202500D03*
D20*
X124015500Y-96202500D03*
D21*
X120205500Y-93662500D03*
X126555500Y-91122500D03*
%TD*%
%TO.C,C4*%
G36*
G01*
X166134500Y-92650500D02*
X166134500Y-93150500D01*
G75*
G02*
X165909500Y-93375500I-225000J0D01*
G01*
X165459500Y-93375500D01*
G75*
G02*
X165234500Y-93150500I0J225000D01*
G01*
X165234500Y-92650500D01*
G75*
G02*
X165459500Y-92425500I225000J0D01*
G01*
X165909500Y-92425500D01*
G75*
G02*
X166134500Y-92650500I0J-225000D01*
G01*
G37*
G36*
G01*
X164584500Y-92650500D02*
X164584500Y-93150500D01*
G75*
G02*
X164359500Y-93375500I-225000J0D01*
G01*
X163909500Y-93375500D01*
G75*
G02*
X163684500Y-93150500I0J225000D01*
G01*
X163684500Y-92650500D01*
G75*
G02*
X163909500Y-92425500I225000J0D01*
G01*
X164359500Y-92425500D01*
G75*
G02*
X164584500Y-92650500I0J-225000D01*
G01*
G37*
%TD*%
%TO.C,C4*%
G36*
G01*
X147084500Y-92650500D02*
X147084500Y-93150500D01*
G75*
G02*
X146859500Y-93375500I-225000J0D01*
G01*
X146409500Y-93375500D01*
G75*
G02*
X146184500Y-93150500I0J225000D01*
G01*
X146184500Y-92650500D01*
G75*
G02*
X146409500Y-92425500I225000J0D01*
G01*
X146859500Y-92425500D01*
G75*
G02*
X147084500Y-92650500I0J-225000D01*
G01*
G37*
G36*
G01*
X145534500Y-92650500D02*
X145534500Y-93150500D01*
G75*
G02*
X145309500Y-93375500I-225000J0D01*
G01*
X144859500Y-93375500D01*
G75*
G02*
X144634500Y-93150500I0J225000D01*
G01*
X144634500Y-92650500D01*
G75*
G02*
X144859500Y-92425500I225000J0D01*
G01*
X145309500Y-92425500D01*
G75*
G02*
X145534500Y-92650500I0J-225000D01*
G01*
G37*
%TD*%
%TO.C,C4*%
G36*
G01*
X128034500Y-92650500D02*
X128034500Y-93150500D01*
G75*
G02*
X127809500Y-93375500I-225000J0D01*
G01*
X127359500Y-93375500D01*
G75*
G02*
X127134500Y-93150500I0J225000D01*
G01*
X127134500Y-92650500D01*
G75*
G02*
X127359500Y-92425500I225000J0D01*
G01*
X127809500Y-92425500D01*
G75*
G02*
X128034500Y-92650500I0J-225000D01*
G01*
G37*
G36*
G01*
X126484500Y-92650500D02*
X126484500Y-93150500D01*
G75*
G02*
X126259500Y-93375500I-225000J0D01*
G01*
X125809500Y-93375500D01*
G75*
G02*
X125584500Y-93150500I0J225000D01*
G01*
X125584500Y-92650500D01*
G75*
G02*
X125809500Y-92425500I225000J0D01*
G01*
X126259500Y-92425500D01*
G75*
G02*
X126484500Y-92650500I0J-225000D01*
G01*
G37*
%TD*%
D16*
%TO.C,J6*%
X170624500Y-94932500D03*
X170624500Y-92932500D03*
X170624500Y-90932500D03*
X170624500Y-88932500D03*
X170624500Y-96932500D03*
X170624500Y-86932500D03*
X170624500Y-98932500D03*
X170624500Y-100932500D03*
X170624500Y-102932500D03*
%TD*%
%TO.C,J6*%
X151574500Y-94932500D03*
X151574500Y-92932500D03*
X151574500Y-90932500D03*
X151574500Y-88932500D03*
X151574500Y-96932500D03*
X151574500Y-86932500D03*
X151574500Y-98932500D03*
X151574500Y-100932500D03*
X151574500Y-102932500D03*
%TD*%
%TO.C,J6*%
X132524500Y-94932500D03*
X132524500Y-92932500D03*
X132524500Y-90932500D03*
X132524500Y-88932500D03*
X132524500Y-96932500D03*
X132524500Y-86932500D03*
X132524500Y-98932500D03*
X132524500Y-100932500D03*
X132524500Y-102932500D03*
%TD*%
D22*
%TO.C,J2*%
X168084500Y-86169500D03*
%TD*%
%TO.C,J2*%
X149034500Y-86169500D03*
%TD*%
%TO.C,J2*%
X129984500Y-86169500D03*
%TD*%
D23*
%TO.C,D1*%
X159863500Y-98234500D03*
X157763500Y-98234500D03*
%TD*%
%TO.C,D1*%
X140813500Y-98234500D03*
X138713500Y-98234500D03*
%TD*%
%TO.C,D1*%
X121763500Y-98234500D03*
X119663500Y-98234500D03*
%TD*%
D22*
%TO.C,J7*%
X156146500Y-103695500D03*
%TD*%
%TO.C,J7*%
X137096500Y-103695500D03*
%TD*%
%TO.C,J7*%
X118046500Y-103695500D03*
%TD*%
%TO.C,J9*%
X168084500Y-103695500D03*
%TD*%
%TO.C,J9*%
X149034500Y-103695500D03*
%TD*%
%TO.C,J9*%
X129984500Y-103695500D03*
%TD*%
%TO.C,J8*%
X156146500Y-86169500D03*
%TD*%
%TO.C,J8*%
X137096500Y-86169500D03*
%TD*%
%TO.C,J8*%
X118046500Y-86169500D03*
%TD*%
D23*
%TO.C,D1*%
X100613500Y-98234500D03*
X102713500Y-98234500D03*
%TD*%
D18*
%TO.C,J1*%
X109350500Y-86407500D03*
X100580500Y-86407500D03*
D17*
X108715500Y-89217500D03*
X108215500Y-89217500D03*
X107715500Y-89217500D03*
X107215500Y-89217500D03*
X106715500Y-89217500D03*
X106215500Y-89217500D03*
X105715500Y-89217500D03*
X105215500Y-89217500D03*
X104715500Y-89217500D03*
X104215500Y-89217500D03*
X103715500Y-89217500D03*
X103215500Y-89217500D03*
X102715500Y-89217500D03*
X102215500Y-89217500D03*
X101715500Y-89217500D03*
X101215500Y-89217500D03*
%TD*%
D21*
%TO.C,SW1*%
X107505500Y-91122500D03*
X101155500Y-93662500D03*
D20*
X104965500Y-96202500D03*
D19*
X99885500Y-96202500D03*
X110045500Y-96202500D03*
%TD*%
D12*
%TO.C,J5*%
G36*
X96556500Y-102182500D02*
G01*
X96556500Y-101682500D01*
X97456500Y-100782500D01*
X97456500Y-103082500D01*
X96556500Y-102182500D01*
G37*
G36*
X96556500Y-98182500D02*
G01*
X96556500Y-97682500D01*
X97456500Y-96782500D01*
X97456500Y-99082500D01*
X96556500Y-98182500D01*
G37*
G36*
X96556500Y-94182500D02*
G01*
X96556500Y-93682500D01*
X97456500Y-92782500D01*
X97456500Y-95082500D01*
X96556500Y-94182500D01*
G37*
G36*
X96556500Y-90182500D02*
G01*
X96556500Y-89682500D01*
X97456500Y-88782500D01*
X97456500Y-91082500D01*
X96556500Y-90182500D01*
G37*
G36*
X96256500Y-102182500D02*
G01*
X97456500Y-103382500D01*
X97456500Y-103682500D01*
X95456500Y-103682500D01*
X95456500Y-102182500D01*
X96256500Y-102182500D01*
G37*
G36*
X97456500Y-100182500D02*
G01*
X97456500Y-100482500D01*
X96256500Y-101682500D01*
X95456500Y-101682500D01*
X95456500Y-100182500D01*
X97456500Y-100182500D01*
G37*
G36*
X96256500Y-98182500D02*
G01*
X97456500Y-99382500D01*
X97456500Y-99682500D01*
X95456500Y-99682500D01*
X95456500Y-98182500D01*
X96256500Y-98182500D01*
G37*
G36*
X97456500Y-96182500D02*
G01*
X97456500Y-96482500D01*
X96256500Y-97682500D01*
X95456500Y-97682500D01*
X95456500Y-96182500D01*
X97456500Y-96182500D01*
G37*
G36*
X96256500Y-94182500D02*
G01*
X97456500Y-95382500D01*
X97456500Y-95682500D01*
X95456500Y-95682500D01*
X95456500Y-94182500D01*
X96256500Y-94182500D01*
G37*
G36*
X97456500Y-92182500D02*
G01*
X97456500Y-92482500D01*
X96256500Y-93682500D01*
X95456500Y-93682500D01*
X95456500Y-92182500D01*
X97456500Y-92182500D01*
G37*
G36*
X96256500Y-90182500D02*
G01*
X97456500Y-91382500D01*
X97456500Y-91682500D01*
X95456500Y-91682500D01*
X95456500Y-90182500D01*
X96256500Y-90182500D01*
G37*
G36*
X97456500Y-88182500D02*
G01*
X97456500Y-88482500D01*
X96256500Y-89682500D01*
X95456500Y-89682500D01*
X95456500Y-88182500D01*
X97456500Y-88182500D01*
G37*
D16*
X96456500Y-86932500D03*
%TD*%
%TO.C,J6*%
X113474500Y-102932500D03*
X113474500Y-100932500D03*
X113474500Y-98932500D03*
X113474500Y-86932500D03*
X113474500Y-96932500D03*
X113474500Y-88932500D03*
X113474500Y-90932500D03*
X113474500Y-92932500D03*
X113474500Y-94932500D03*
%TD*%
D22*
%TO.C,J9*%
X110934500Y-103695500D03*
%TD*%
%TO.C,J8*%
X98996500Y-86169500D03*
%TD*%
%TO.C,J7*%
X98996500Y-103695500D03*
%TD*%
%TO.C,J2*%
X110934500Y-86169500D03*
%TD*%
%TO.C,C4*%
G36*
G01*
X107434500Y-92650500D02*
X107434500Y-93150500D01*
G75*
G02*
X107209500Y-93375500I-225000J0D01*
G01*
X106759500Y-93375500D01*
G75*
G02*
X106534500Y-93150500I0J225000D01*
G01*
X106534500Y-92650500D01*
G75*
G02*
X106759500Y-92425500I225000J0D01*
G01*
X107209500Y-92425500D01*
G75*
G02*
X107434500Y-92650500I0J-225000D01*
G01*
G37*
G36*
G01*
X108984500Y-92650500D02*
X108984500Y-93150500D01*
G75*
G02*
X108759500Y-93375500I-225000J0D01*
G01*
X108309500Y-93375500D01*
G75*
G02*
X108084500Y-93150500I0J225000D01*
G01*
X108084500Y-92650500D01*
G75*
G02*
X108309500Y-92425500I225000J0D01*
G01*
X108759500Y-92425500D01*
G75*
G02*
X108984500Y-92650500I0J-225000D01*
G01*
G37*
%TD*%
%TO.C,C6*%
G36*
G01*
X103895500Y-92816500D02*
X103895500Y-92476500D01*
G75*
G02*
X104035500Y-92336500I140000J0D01*
G01*
X104315500Y-92336500D01*
G75*
G02*
X104455500Y-92476500I0J-140000D01*
G01*
X104455500Y-92816500D01*
G75*
G02*
X104315500Y-92956500I-140000J0D01*
G01*
X104035500Y-92956500D01*
G75*
G02*
X103895500Y-92816500I0J140000D01*
G01*
G37*
G36*
G01*
X102935500Y-92816500D02*
X102935500Y-92476500D01*
G75*
G02*
X103075500Y-92336500I140000J0D01*
G01*
X103355500Y-92336500D01*
G75*
G02*
X103495500Y-92476500I0J-140000D01*
G01*
X103495500Y-92816500D01*
G75*
G02*
X103355500Y-92956500I-140000J0D01*
G01*
X103075500Y-92956500D01*
G75*
G02*
X102935500Y-92816500I0J140000D01*
G01*
G37*
%TD*%
%TO.C,C5*%
G36*
G01*
X102526500Y-91673500D02*
X102526500Y-91333500D01*
G75*
G02*
X102666500Y-91193500I140000J0D01*
G01*
X102946500Y-91193500D01*
G75*
G02*
X103086500Y-91333500I0J-140000D01*
G01*
X103086500Y-91673500D01*
G75*
G02*
X102946500Y-91813500I-140000J0D01*
G01*
X102666500Y-91813500D01*
G75*
G02*
X102526500Y-91673500I0J140000D01*
G01*
G37*
G36*
G01*
X101566500Y-91673500D02*
X101566500Y-91333500D01*
G75*
G02*
X101706500Y-91193500I140000J0D01*
G01*
X101986500Y-91193500D01*
G75*
G02*
X102126500Y-91333500I0J-140000D01*
G01*
X102126500Y-91673500D01*
G75*
G02*
X101986500Y-91813500I-140000J0D01*
G01*
X101706500Y-91813500D01*
G75*
G02*
X101566500Y-91673500I0J140000D01*
G01*
G37*
%TD*%
%TO.C,C3*%
G36*
G01*
X98531500Y-88001500D02*
X98191500Y-88001500D01*
G75*
G02*
X98051500Y-87861500I0J140000D01*
G01*
X98051500Y-87581500D01*
G75*
G02*
X98191500Y-87441500I140000J0D01*
G01*
X98531500Y-87441500D01*
G75*
G02*
X98671500Y-87581500I0J-140000D01*
G01*
X98671500Y-87861500D01*
G75*
G02*
X98531500Y-88001500I-140000J0D01*
G01*
G37*
G36*
G01*
X98531500Y-88961500D02*
X98191500Y-88961500D01*
G75*
G02*
X98051500Y-88821500I0J140000D01*
G01*
X98051500Y-88541500D01*
G75*
G02*
X98191500Y-88401500I140000J0D01*
G01*
X98531500Y-88401500D01*
G75*
G02*
X98671500Y-88541500I0J-140000D01*
G01*
X98671500Y-88821500D01*
G75*
G02*
X98531500Y-88961500I-140000J0D01*
G01*
G37*
%TD*%
%TO.C,C2*%
G36*
G01*
X100897500Y-90543500D02*
X100397500Y-90543500D01*
G75*
G02*
X100172500Y-90318500I0J225000D01*
G01*
X100172500Y-89868500D01*
G75*
G02*
X100397500Y-89643500I225000J0D01*
G01*
X100897500Y-89643500D01*
G75*
G02*
X101122500Y-89868500I0J-225000D01*
G01*
X101122500Y-90318500D01*
G75*
G02*
X100897500Y-90543500I-225000J0D01*
G01*
G37*
G36*
G01*
X100897500Y-92093500D02*
X100397500Y-92093500D01*
G75*
G02*
X100172500Y-91868500I0J225000D01*
G01*
X100172500Y-91418500D01*
G75*
G02*
X100397500Y-91193500I225000J0D01*
G01*
X100897500Y-91193500D01*
G75*
G02*
X101122500Y-91418500I0J-225000D01*
G01*
X101122500Y-91868500D01*
G75*
G02*
X100897500Y-92093500I-225000J0D01*
G01*
G37*
%TD*%
%TO.C,C1*%
G36*
G01*
X107688500Y-94174500D02*
X107688500Y-94674500D01*
G75*
G02*
X107463500Y-94899500I-225000J0D01*
G01*
X107013500Y-94899500D01*
G75*
G02*
X106788500Y-94674500I0J225000D01*
G01*
X106788500Y-94174500D01*
G75*
G02*
X107013500Y-93949500I225000J0D01*
G01*
X107463500Y-93949500D01*
G75*
G02*
X107688500Y-94174500I0J-225000D01*
G01*
G37*
G36*
G01*
X109238500Y-94174500D02*
X109238500Y-94674500D01*
G75*
G02*
X109013500Y-94899500I-225000J0D01*
G01*
X108563500Y-94899500D01*
G75*
G02*
X108338500Y-94674500I0J225000D01*
G01*
X108338500Y-94174500D01*
G75*
G02*
X108563500Y-93949500I225000J0D01*
G01*
X109013500Y-93949500D01*
G75*
G02*
X109238500Y-94174500I0J-225000D01*
G01*
G37*
%TD*%
M02*
