M48
; DRILL file {KiCad (5.1.9)-1} date 10/01/21 07:45:46
; FORMAT={-:-/ absolute / metric / decimal}
; #@! TF.CreationDate,2021-10-01T07:45:46+02:00
; #@! TF.GenerationSoftware,Kicad,Pcbnew,(5.1.9)-1
; #@! TF.FileFunction,Plated,1,2,PTH
FMAT,2
METRIC
T1C0.356
T2C0.400
T3C0.700
T4C1.500
%
G90
G05
T1
X97.88Y-99.781
X97.884Y-91.763
X97.891Y-94.424
X97.891Y-93.179
X97.891Y-100.52
X97.897Y-102.094
X97.98Y-97.472
X98.056Y-95.694
X98.107Y-89.471
X98.508Y-98.108
X98.855Y-88.441
X99.279Y-94.437
X99.407Y-101.556
X99.504Y-100.012
X99.505Y-92.392
X99.648Y-98.347
X101.259Y-90.892
X101.409Y-95.186
X101.663Y-90.183
X102.298Y-96.71
X102.454Y-88.165
X102.933Y-93.662
X104.393Y-91.005
X104.712Y-88.328
X105.219Y-93.739
X106.01Y-91.513
X107.505Y-98.489
X108.014Y-86.169
X108.065Y-86.907
X108.296Y-97.303
X109.08Y-89.138
X109.535Y-98.829
X111.207Y-92.706
X111.337Y-93.434
X111.36Y-99.751
X111.569Y-102.044
X111.637Y-89.717
X111.637Y-91.63
X111.694Y-98.996
X111.855Y-94.553
X111.997Y-97.815
X116.93Y-99.781
X116.934Y-91.763
X116.941Y-94.424
X116.941Y-93.179
X116.941Y-100.52
X116.947Y-102.094
X117.03Y-97.472
X117.106Y-95.694
X117.157Y-89.471
X117.558Y-98.108
X117.905Y-88.441
X118.329Y-94.437
X118.457Y-101.556
X118.554Y-100.012
X118.555Y-92.392
X118.698Y-98.347
X120.309Y-90.892
X120.459Y-95.186
X120.713Y-90.183
X121.349Y-96.71
X121.504Y-88.165
X121.983Y-93.662
X123.443Y-91.005
X123.761Y-88.328
X124.269Y-93.739
X125.06Y-91.513
X126.555Y-98.489
X127.064Y-86.169
X127.115Y-86.907
X127.346Y-97.303
X128.13Y-89.138
X128.585Y-98.829
X130.257Y-92.706
X130.387Y-93.434
X130.41Y-99.751
X130.619Y-102.044
X130.687Y-89.717
X130.687Y-91.63
X130.744Y-98.996
X130.905Y-94.553
X131.047Y-97.815
X135.98Y-99.781
X135.984Y-91.763
X135.991Y-94.424
X135.991Y-93.179
X135.991Y-100.52
X135.997Y-102.094
X136.081Y-97.472
X136.156Y-95.694
X136.207Y-89.471
X136.608Y-98.108
X136.955Y-88.441
X137.379Y-94.437
X137.507Y-101.556
X137.605Y-100.012
X137.605Y-92.392
X137.748Y-98.347
X139.359Y-90.892
X139.51Y-95.186
X139.763Y-90.183
X140.398Y-96.71
X140.554Y-88.165
X141.034Y-93.662
X142.493Y-91.005
X142.811Y-88.328
X143.319Y-93.739
X144.11Y-91.513
X145.606Y-98.489
X146.114Y-86.169
X146.165Y-86.907
X146.396Y-97.303
X147.18Y-89.138
X147.635Y-98.829
X149.307Y-92.706
X149.437Y-93.434
X149.46Y-99.751
X149.669Y-102.044
X149.737Y-89.717
X149.737Y-91.63
X149.794Y-98.996
X149.955Y-94.553
X150.097Y-97.815
X155.03Y-99.781
X155.034Y-91.763
X155.041Y-94.424
X155.041Y-93.179
X155.041Y-100.52
X155.047Y-102.094
X155.13Y-97.472
X155.206Y-95.694
X155.257Y-89.471
X155.658Y-98.108
X156.005Y-88.441
X156.429Y-94.437
X156.557Y-101.556
X156.654Y-100.012
X156.655Y-92.392
X156.798Y-98.347
X158.409Y-90.892
X158.559Y-95.186
X158.814Y-90.183
X159.448Y-96.71
X159.604Y-88.165
X160.083Y-93.662
X161.543Y-91.005
X161.862Y-88.328
X162.369Y-93.739
X163.16Y-91.513
X164.655Y-98.489
X165.164Y-86.169
X165.215Y-86.907
X165.446Y-97.303
X166.23Y-89.138
X166.685Y-98.829
X168.357Y-92.706
X168.487Y-93.434
X168.51Y-99.751
X168.719Y-102.044
X168.787Y-89.717
X168.787Y-91.63
X168.844Y-98.996
X169.005Y-94.553
X169.147Y-97.815
T2
X98.598Y-90.337
X99.742Y-88.08
X111.664Y-88.093
X117.648Y-90.337
X118.792Y-88.08
X130.714Y-88.093
X136.698Y-90.337
X137.842Y-88.08
X149.764Y-88.093
X155.748Y-90.337
X156.892Y-88.08
X168.814Y-88.093
T3
X98.996Y-86.169
X98.996Y-103.695
X110.934Y-86.169
X110.934Y-103.695
X118.046Y-86.169
X118.046Y-103.695
X129.984Y-86.169
X129.984Y-103.695
X137.096Y-86.169
X137.096Y-103.695
X149.034Y-86.169
X149.034Y-103.695
X156.147Y-86.169
X156.147Y-103.695
X168.084Y-86.169
X168.084Y-103.695
T4
X101.155Y-93.662
X107.505Y-91.123
X120.206Y-93.662
X126.555Y-91.123
X139.255Y-93.662
X145.606Y-91.123
X158.305Y-93.662
X164.655Y-91.123
T0
M30
