%TF.GenerationSoftware,KiCad,Pcbnew,(5.1.9)-1*%
%TF.CreationDate,2021-10-01T07:45:35+02:00*%
%TF.ProjectId,poly_kb_1Ux4,706f6c79-5f6b-4625-9f31-5578342e6b69,rev?*%
%TF.SameCoordinates,Original*%
%TF.FileFunction,Legend,Top*%
%TF.FilePolarity,Positive*%
%FSLAX46Y46*%
G04 Gerber Fmt 4.6, Leading zero omitted, Abs format (unit mm)*
G04 Created by KiCad (PCBNEW (5.1.9)-1) date 2021-10-01 07:45:35*
%MOMM*%
%LPD*%
G01*
G04 APERTURE LIST*
%ADD10C,0.153000*%
%ADD11C,0.150000*%
%ADD12C,0.180000*%
%ADD13C,0.127000*%
%ADD14C,0.120000*%
%ADD15R,0.950000X0.800000*%
%ADD16C,1.700000*%
%ADD17C,4.000000*%
%ADD18C,2.200000*%
%ADD19R,2.000000X1.500000*%
%ADD20R,1.500000X1.500000*%
G04 APERTURE END LIST*
D10*
X166808291Y-90527770D02*
X167074957Y-91327770D01*
X167341624Y-90527770D01*
X167874957Y-90908723D02*
X167989243Y-90946818D01*
X168027338Y-90984913D01*
X168065434Y-91061104D01*
X168065434Y-91175389D01*
X168027338Y-91251580D01*
X167989243Y-91289675D01*
X167913053Y-91327770D01*
X167608291Y-91327770D01*
X167608291Y-90527770D01*
X167874957Y-90527770D01*
X167951148Y-90565866D01*
X167989243Y-90603961D01*
X168027338Y-90680151D01*
X168027338Y-90756342D01*
X167989243Y-90832532D01*
X167951148Y-90870627D01*
X167874957Y-90908723D01*
X167608291Y-90908723D01*
X168370196Y-91099199D02*
X168751148Y-91099199D01*
X168294005Y-91327770D02*
X168560672Y-90527770D01*
X168827338Y-91327770D01*
X168979719Y-90527770D02*
X169436862Y-90527770D01*
X169208291Y-91327770D02*
X169208291Y-90527770D01*
X147758291Y-90527770D02*
X148024957Y-91327770D01*
X148291624Y-90527770D01*
X148824957Y-90908723D02*
X148939243Y-90946818D01*
X148977338Y-90984913D01*
X149015434Y-91061104D01*
X149015434Y-91175389D01*
X148977338Y-91251580D01*
X148939243Y-91289675D01*
X148863053Y-91327770D01*
X148558291Y-91327770D01*
X148558291Y-90527770D01*
X148824957Y-90527770D01*
X148901148Y-90565866D01*
X148939243Y-90603961D01*
X148977338Y-90680151D01*
X148977338Y-90756342D01*
X148939243Y-90832532D01*
X148901148Y-90870627D01*
X148824957Y-90908723D01*
X148558291Y-90908723D01*
X149320196Y-91099199D02*
X149701148Y-91099199D01*
X149244005Y-91327770D02*
X149510672Y-90527770D01*
X149777338Y-91327770D01*
X149929719Y-90527770D02*
X150386862Y-90527770D01*
X150158291Y-91327770D02*
X150158291Y-90527770D01*
X128708291Y-90527770D02*
X128974957Y-91327770D01*
X129241624Y-90527770D01*
X129774957Y-90908723D02*
X129889243Y-90946818D01*
X129927338Y-90984913D01*
X129965434Y-91061104D01*
X129965434Y-91175389D01*
X129927338Y-91251580D01*
X129889243Y-91289675D01*
X129813053Y-91327770D01*
X129508291Y-91327770D01*
X129508291Y-90527770D01*
X129774957Y-90527770D01*
X129851148Y-90565866D01*
X129889243Y-90603961D01*
X129927338Y-90680151D01*
X129927338Y-90756342D01*
X129889243Y-90832532D01*
X129851148Y-90870627D01*
X129774957Y-90908723D01*
X129508291Y-90908723D01*
X130270196Y-91099199D02*
X130651148Y-91099199D01*
X130194005Y-91327770D02*
X130460672Y-90527770D01*
X130727338Y-91327770D01*
X130879719Y-90527770D02*
X131336862Y-90527770D01*
X131108291Y-91327770D02*
X131108291Y-90527770D01*
X169252900Y-93454480D02*
X169252900Y-92787814D01*
X169252900Y-92454480D02*
X169205280Y-92502100D01*
X169252900Y-92549719D01*
X169300519Y-92502100D01*
X169252900Y-92454480D01*
X169252900Y-92549719D01*
X150202900Y-93454480D02*
X150202900Y-92787814D01*
X150202900Y-92454480D02*
X150155280Y-92502100D01*
X150202900Y-92549719D01*
X150250519Y-92502100D01*
X150202900Y-92454480D01*
X150202900Y-92549719D01*
X131152900Y-93454480D02*
X131152900Y-92787814D01*
X131152900Y-92454480D02*
X131105280Y-92502100D01*
X131152900Y-92549719D01*
X131200519Y-92502100D01*
X131152900Y-92454480D01*
X131152900Y-92549719D01*
X168522576Y-97296773D02*
X168636862Y-97334868D01*
X168827338Y-97334868D01*
X168903528Y-97296773D01*
X168941624Y-97258678D01*
X168979719Y-97182487D01*
X168979719Y-97106297D01*
X168941624Y-97030106D01*
X168903528Y-96992011D01*
X168827338Y-96953916D01*
X168674957Y-96915821D01*
X168598766Y-96877725D01*
X168560671Y-96839630D01*
X168522576Y-96763440D01*
X168522576Y-96687249D01*
X168560671Y-96611059D01*
X168598766Y-96572964D01*
X168674957Y-96534868D01*
X168865433Y-96534868D01*
X168979719Y-96572964D01*
X169322576Y-97334868D02*
X169322576Y-96534868D01*
X149472576Y-97296773D02*
X149586862Y-97334868D01*
X149777338Y-97334868D01*
X149853528Y-97296773D01*
X149891624Y-97258678D01*
X149929719Y-97182487D01*
X149929719Y-97106297D01*
X149891624Y-97030106D01*
X149853528Y-96992011D01*
X149777338Y-96953916D01*
X149624957Y-96915821D01*
X149548766Y-96877725D01*
X149510671Y-96839630D01*
X149472576Y-96763440D01*
X149472576Y-96687249D01*
X149510671Y-96611059D01*
X149548766Y-96572964D01*
X149624957Y-96534868D01*
X149815433Y-96534868D01*
X149929719Y-96572964D01*
X150272576Y-97334868D02*
X150272576Y-96534868D01*
X130422576Y-97296773D02*
X130536862Y-97334868D01*
X130727338Y-97334868D01*
X130803528Y-97296773D01*
X130841624Y-97258678D01*
X130879719Y-97182487D01*
X130879719Y-97106297D01*
X130841624Y-97030106D01*
X130803528Y-96992011D01*
X130727338Y-96953916D01*
X130574957Y-96915821D01*
X130498766Y-96877725D01*
X130460671Y-96839630D01*
X130422576Y-96763440D01*
X130422576Y-96687249D01*
X130460671Y-96611059D01*
X130498766Y-96572964D01*
X130574957Y-96534868D01*
X130765433Y-96534868D01*
X130879719Y-96572964D01*
X131222576Y-97334868D02*
X131222576Y-96534868D01*
X167570195Y-99337234D02*
X167570195Y-98537234D01*
X167760671Y-98537234D01*
X167874957Y-98575330D01*
X167951147Y-98651520D01*
X167989243Y-98727710D01*
X168027338Y-98880091D01*
X168027338Y-98994377D01*
X167989243Y-99146758D01*
X167951147Y-99222949D01*
X167874957Y-99299139D01*
X167760671Y-99337234D01*
X167570195Y-99337234D01*
X168103528Y-98461044D02*
X168789243Y-99489615D01*
X169360671Y-99261044D02*
X169322576Y-99299139D01*
X169208290Y-99337234D01*
X169132100Y-99337234D01*
X169017814Y-99299139D01*
X168941624Y-99222949D01*
X168903528Y-99146758D01*
X168865433Y-98994377D01*
X168865433Y-98880091D01*
X168903528Y-98727710D01*
X168941624Y-98651520D01*
X169017814Y-98575330D01*
X169132100Y-98537234D01*
X169208290Y-98537234D01*
X169322576Y-98575330D01*
X169360671Y-98613425D01*
X148520195Y-99337234D02*
X148520195Y-98537234D01*
X148710671Y-98537234D01*
X148824957Y-98575330D01*
X148901147Y-98651520D01*
X148939243Y-98727710D01*
X148977338Y-98880091D01*
X148977338Y-98994377D01*
X148939243Y-99146758D01*
X148901147Y-99222949D01*
X148824957Y-99299139D01*
X148710671Y-99337234D01*
X148520195Y-99337234D01*
X149053528Y-98461044D02*
X149739243Y-99489615D01*
X150310671Y-99261044D02*
X150272576Y-99299139D01*
X150158290Y-99337234D01*
X150082100Y-99337234D01*
X149967814Y-99299139D01*
X149891624Y-99222949D01*
X149853528Y-99146758D01*
X149815433Y-98994377D01*
X149815433Y-98880091D01*
X149853528Y-98727710D01*
X149891624Y-98651520D01*
X149967814Y-98575330D01*
X150082100Y-98537234D01*
X150158290Y-98537234D01*
X150272576Y-98575330D01*
X150310671Y-98613425D01*
X129470195Y-99337234D02*
X129470195Y-98537234D01*
X129660671Y-98537234D01*
X129774957Y-98575330D01*
X129851147Y-98651520D01*
X129889243Y-98727710D01*
X129927338Y-98880091D01*
X129927338Y-98994377D01*
X129889243Y-99146758D01*
X129851147Y-99222949D01*
X129774957Y-99299139D01*
X129660671Y-99337234D01*
X129470195Y-99337234D01*
X130003528Y-98461044D02*
X130689243Y-99489615D01*
X131260671Y-99261044D02*
X131222576Y-99299139D01*
X131108290Y-99337234D01*
X131032100Y-99337234D01*
X130917814Y-99299139D01*
X130841624Y-99222949D01*
X130803528Y-99146758D01*
X130765433Y-98994377D01*
X130765433Y-98880091D01*
X130803528Y-98727710D01*
X130841624Y-98651520D01*
X130917814Y-98575330D01*
X131032100Y-98537234D01*
X131108290Y-98537234D01*
X131222576Y-98575330D01*
X131260671Y-98613425D01*
X169106857Y-103231904D02*
X169106857Y-102698571D01*
X169106857Y-102850952D02*
X169144952Y-102774761D01*
X169183047Y-102736666D01*
X169259238Y-102698571D01*
X169335428Y-102698571D01*
X150056857Y-103231904D02*
X150056857Y-102698571D01*
X150056857Y-102850952D02*
X150094952Y-102774761D01*
X150133047Y-102736666D01*
X150209238Y-102698571D01*
X150285428Y-102698571D01*
X131006857Y-103231904D02*
X131006857Y-102698571D01*
X131006857Y-102850952D02*
X131044952Y-102774761D01*
X131083047Y-102736666D01*
X131159238Y-102698571D01*
X131235428Y-102698571D01*
X167417814Y-88525404D02*
X167913052Y-88525404D01*
X167646386Y-88830166D01*
X167760671Y-88830166D01*
X167836862Y-88868261D01*
X167874957Y-88906357D01*
X167913052Y-88982547D01*
X167913052Y-89173023D01*
X167874957Y-89249214D01*
X167836862Y-89287309D01*
X167760671Y-89325404D01*
X167532100Y-89325404D01*
X167455910Y-89287309D01*
X167417814Y-89249214D01*
X168141624Y-88525404D02*
X168408291Y-89325404D01*
X168674957Y-88525404D01*
X168865433Y-88525404D02*
X169360671Y-88525404D01*
X169094005Y-88830166D01*
X169208291Y-88830166D01*
X169284481Y-88868261D01*
X169322576Y-88906357D01*
X169360671Y-88982547D01*
X169360671Y-89173023D01*
X169322576Y-89249214D01*
X169284481Y-89287309D01*
X169208291Y-89325404D01*
X168979719Y-89325404D01*
X168903529Y-89287309D01*
X168865433Y-89249214D01*
X148367814Y-88525404D02*
X148863052Y-88525404D01*
X148596386Y-88830166D01*
X148710671Y-88830166D01*
X148786862Y-88868261D01*
X148824957Y-88906357D01*
X148863052Y-88982547D01*
X148863052Y-89173023D01*
X148824957Y-89249214D01*
X148786862Y-89287309D01*
X148710671Y-89325404D01*
X148482100Y-89325404D01*
X148405910Y-89287309D01*
X148367814Y-89249214D01*
X149091624Y-88525404D02*
X149358291Y-89325404D01*
X149624957Y-88525404D01*
X149815433Y-88525404D02*
X150310671Y-88525404D01*
X150044005Y-88830166D01*
X150158291Y-88830166D01*
X150234481Y-88868261D01*
X150272576Y-88906357D01*
X150310671Y-88982547D01*
X150310671Y-89173023D01*
X150272576Y-89249214D01*
X150234481Y-89287309D01*
X150158291Y-89325404D01*
X149929719Y-89325404D01*
X149853529Y-89287309D01*
X149815433Y-89249214D01*
X129317814Y-88525404D02*
X129813052Y-88525404D01*
X129546386Y-88830166D01*
X129660671Y-88830166D01*
X129736862Y-88868261D01*
X129774957Y-88906357D01*
X129813052Y-88982547D01*
X129813052Y-89173023D01*
X129774957Y-89249214D01*
X129736862Y-89287309D01*
X129660671Y-89325404D01*
X129432100Y-89325404D01*
X129355910Y-89287309D01*
X129317814Y-89249214D01*
X130041624Y-88525404D02*
X130308291Y-89325404D01*
X130574957Y-88525404D01*
X130765433Y-88525404D02*
X131260671Y-88525404D01*
X130994005Y-88830166D01*
X131108291Y-88830166D01*
X131184481Y-88868261D01*
X131222576Y-88906357D01*
X131260671Y-88982547D01*
X131260671Y-89173023D01*
X131222576Y-89249214D01*
X131184481Y-89287309D01*
X131108291Y-89325404D01*
X130879719Y-89325404D01*
X130803529Y-89287309D01*
X130765433Y-89249214D01*
X167989242Y-95332502D02*
X167722576Y-94951550D01*
X167532099Y-95332502D02*
X167532099Y-94532502D01*
X167836861Y-94532502D01*
X167913052Y-94570598D01*
X167951147Y-94608693D01*
X167989242Y-94684883D01*
X167989242Y-94799169D01*
X167951147Y-94875359D01*
X167913052Y-94913455D01*
X167836861Y-94951550D01*
X167532099Y-94951550D01*
X168294004Y-95294407D02*
X168408290Y-95332502D01*
X168598766Y-95332502D01*
X168674957Y-95294407D01*
X168713052Y-95256312D01*
X168751147Y-95180121D01*
X168751147Y-95103931D01*
X168713052Y-95027740D01*
X168674957Y-94989645D01*
X168598766Y-94951550D01*
X168446385Y-94913455D01*
X168370195Y-94875359D01*
X168332099Y-94837264D01*
X168294004Y-94761074D01*
X168294004Y-94684883D01*
X168332099Y-94608693D01*
X168370195Y-94570598D01*
X168446385Y-94532502D01*
X168636861Y-94532502D01*
X168751147Y-94570598D01*
X168979718Y-94532502D02*
X169436861Y-94532502D01*
X169208290Y-95332502D02*
X169208290Y-94532502D01*
X148939242Y-95332502D02*
X148672576Y-94951550D01*
X148482099Y-95332502D02*
X148482099Y-94532502D01*
X148786861Y-94532502D01*
X148863052Y-94570598D01*
X148901147Y-94608693D01*
X148939242Y-94684883D01*
X148939242Y-94799169D01*
X148901147Y-94875359D01*
X148863052Y-94913455D01*
X148786861Y-94951550D01*
X148482099Y-94951550D01*
X149244004Y-95294407D02*
X149358290Y-95332502D01*
X149548766Y-95332502D01*
X149624957Y-95294407D01*
X149663052Y-95256312D01*
X149701147Y-95180121D01*
X149701147Y-95103931D01*
X149663052Y-95027740D01*
X149624957Y-94989645D01*
X149548766Y-94951550D01*
X149396385Y-94913455D01*
X149320195Y-94875359D01*
X149282099Y-94837264D01*
X149244004Y-94761074D01*
X149244004Y-94684883D01*
X149282099Y-94608693D01*
X149320195Y-94570598D01*
X149396385Y-94532502D01*
X149586861Y-94532502D01*
X149701147Y-94570598D01*
X149929718Y-94532502D02*
X150386861Y-94532502D01*
X150158290Y-95332502D02*
X150158290Y-94532502D01*
X129889242Y-95332502D02*
X129622576Y-94951550D01*
X129432099Y-95332502D02*
X129432099Y-94532502D01*
X129736861Y-94532502D01*
X129813052Y-94570598D01*
X129851147Y-94608693D01*
X129889242Y-94684883D01*
X129889242Y-94799169D01*
X129851147Y-94875359D01*
X129813052Y-94913455D01*
X129736861Y-94951550D01*
X129432099Y-94951550D01*
X130194004Y-95294407D02*
X130308290Y-95332502D01*
X130498766Y-95332502D01*
X130574957Y-95294407D01*
X130613052Y-95256312D01*
X130651147Y-95180121D01*
X130651147Y-95103931D01*
X130613052Y-95027740D01*
X130574957Y-94989645D01*
X130498766Y-94951550D01*
X130346385Y-94913455D01*
X130270195Y-94875359D01*
X130232099Y-94837264D01*
X130194004Y-94761074D01*
X130194004Y-94684883D01*
X130232099Y-94608693D01*
X130270195Y-94570598D01*
X130346385Y-94532502D01*
X130536861Y-94532502D01*
X130651147Y-94570598D01*
X130879718Y-94532502D02*
X131336861Y-94532502D01*
X131108290Y-95332502D02*
X131108290Y-94532502D01*
X167913052Y-101263414D02*
X167874957Y-101301509D01*
X167760671Y-101339604D01*
X167684481Y-101339604D01*
X167570195Y-101301509D01*
X167494004Y-101225319D01*
X167455909Y-101149128D01*
X167417814Y-100996747D01*
X167417814Y-100882461D01*
X167455909Y-100730080D01*
X167494004Y-100653890D01*
X167570195Y-100577700D01*
X167684481Y-100539604D01*
X167760671Y-100539604D01*
X167874957Y-100577700D01*
X167913052Y-100615795D01*
X168636862Y-101339604D02*
X168255909Y-101339604D01*
X168255909Y-100539604D01*
X168903528Y-101339604D02*
X168903528Y-100539604D01*
X169360671Y-101339604D02*
X169017814Y-100882461D01*
X169360671Y-100539604D02*
X168903528Y-100996747D01*
X148863052Y-101263414D02*
X148824957Y-101301509D01*
X148710671Y-101339604D01*
X148634481Y-101339604D01*
X148520195Y-101301509D01*
X148444004Y-101225319D01*
X148405909Y-101149128D01*
X148367814Y-100996747D01*
X148367814Y-100882461D01*
X148405909Y-100730080D01*
X148444004Y-100653890D01*
X148520195Y-100577700D01*
X148634481Y-100539604D01*
X148710671Y-100539604D01*
X148824957Y-100577700D01*
X148863052Y-100615795D01*
X149586862Y-101339604D02*
X149205909Y-101339604D01*
X149205909Y-100539604D01*
X149853528Y-101339604D02*
X149853528Y-100539604D01*
X150310671Y-101339604D02*
X149967814Y-100882461D01*
X150310671Y-100539604D02*
X149853528Y-100996747D01*
X129813052Y-101263414D02*
X129774957Y-101301509D01*
X129660671Y-101339604D01*
X129584481Y-101339604D01*
X129470195Y-101301509D01*
X129394004Y-101225319D01*
X129355909Y-101149128D01*
X129317814Y-100996747D01*
X129317814Y-100882461D01*
X129355909Y-100730080D01*
X129394004Y-100653890D01*
X129470195Y-100577700D01*
X129584481Y-100539604D01*
X129660671Y-100539604D01*
X129774957Y-100577700D01*
X129813052Y-100615795D01*
X130536862Y-101339604D02*
X130155909Y-101339604D01*
X130155909Y-100539604D01*
X130803528Y-101339604D02*
X130803528Y-100539604D01*
X131260671Y-101339604D02*
X130917814Y-100882461D01*
X131260671Y-100539604D02*
X130803528Y-100996747D01*
X157733976Y-86620309D02*
X157657785Y-86658404D01*
X157505404Y-86658404D01*
X157429214Y-86620309D01*
X157391119Y-86582214D01*
X157353023Y-86506023D01*
X157353023Y-86277452D01*
X157391119Y-86201261D01*
X157429214Y-86163166D01*
X157505404Y-86125071D01*
X157657785Y-86125071D01*
X157733976Y-86163166D01*
X138683976Y-86620309D02*
X138607785Y-86658404D01*
X138455404Y-86658404D01*
X138379214Y-86620309D01*
X138341119Y-86582214D01*
X138303023Y-86506023D01*
X138303023Y-86277452D01*
X138341119Y-86201261D01*
X138379214Y-86163166D01*
X138455404Y-86125071D01*
X138607785Y-86125071D01*
X138683976Y-86163166D01*
X119633976Y-86620309D02*
X119557785Y-86658404D01*
X119405404Y-86658404D01*
X119329214Y-86620309D01*
X119291119Y-86582214D01*
X119253023Y-86506023D01*
X119253023Y-86277452D01*
X119291119Y-86201261D01*
X119329214Y-86163166D01*
X119405404Y-86125071D01*
X119557785Y-86125071D01*
X119633976Y-86163166D01*
X167068476Y-86620309D02*
X166992285Y-86658404D01*
X166839904Y-86658404D01*
X166763714Y-86620309D01*
X166725619Y-86582214D01*
X166687523Y-86506023D01*
X166687523Y-86277452D01*
X166725619Y-86201261D01*
X166763714Y-86163166D01*
X166839904Y-86125071D01*
X166992285Y-86125071D01*
X167068476Y-86163166D01*
X148018476Y-86620309D02*
X147942285Y-86658404D01*
X147789904Y-86658404D01*
X147713714Y-86620309D01*
X147675619Y-86582214D01*
X147637523Y-86506023D01*
X147637523Y-86277452D01*
X147675619Y-86201261D01*
X147713714Y-86163166D01*
X147789904Y-86125071D01*
X147942285Y-86125071D01*
X148018476Y-86163166D01*
X128968476Y-86620309D02*
X128892285Y-86658404D01*
X128739904Y-86658404D01*
X128663714Y-86620309D01*
X128625619Y-86582214D01*
X128587523Y-86506023D01*
X128587523Y-86277452D01*
X128625619Y-86201261D01*
X128663714Y-86163166D01*
X128739904Y-86125071D01*
X128892285Y-86125071D01*
X128968476Y-86163166D01*
X167068476Y-103765309D02*
X166992285Y-103803404D01*
X166839904Y-103803404D01*
X166763714Y-103765309D01*
X166725619Y-103727214D01*
X166687523Y-103651023D01*
X166687523Y-103422452D01*
X166725619Y-103346261D01*
X166763714Y-103308166D01*
X166839904Y-103270071D01*
X166992285Y-103270071D01*
X167068476Y-103308166D01*
X148018476Y-103765309D02*
X147942285Y-103803404D01*
X147789904Y-103803404D01*
X147713714Y-103765309D01*
X147675619Y-103727214D01*
X147637523Y-103651023D01*
X147637523Y-103422452D01*
X147675619Y-103346261D01*
X147713714Y-103308166D01*
X147789904Y-103270071D01*
X147942285Y-103270071D01*
X148018476Y-103308166D01*
X128968476Y-103765309D02*
X128892285Y-103803404D01*
X128739904Y-103803404D01*
X128663714Y-103765309D01*
X128625619Y-103727214D01*
X128587523Y-103651023D01*
X128587523Y-103422452D01*
X128625619Y-103346261D01*
X128663714Y-103308166D01*
X128739904Y-103270071D01*
X128892285Y-103270071D01*
X128968476Y-103308166D01*
D11*
X120320261Y-98621904D02*
X120320261Y-99193333D01*
X120282166Y-99307619D01*
X120205976Y-99383809D01*
X120091690Y-99421904D01*
X120015500Y-99421904D01*
X121082166Y-99421904D02*
X120701214Y-99421904D01*
X120701214Y-98621904D01*
X121805976Y-99345714D02*
X121767880Y-99383809D01*
X121653595Y-99421904D01*
X121577404Y-99421904D01*
X121463119Y-99383809D01*
X121386928Y-99307619D01*
X121348833Y-99231428D01*
X121310738Y-99079047D01*
X121310738Y-98964761D01*
X121348833Y-98812380D01*
X121386928Y-98736190D01*
X121463119Y-98660000D01*
X121577404Y-98621904D01*
X121653595Y-98621904D01*
X121767880Y-98660000D01*
X121805976Y-98698095D01*
X122377404Y-98621904D02*
X122377404Y-99193333D01*
X122339309Y-99307619D01*
X122263119Y-99383809D01*
X122148833Y-99421904D01*
X122072642Y-99421904D01*
X123139309Y-99421904D02*
X122758357Y-99421904D01*
X122758357Y-98621904D01*
X123863119Y-99345714D02*
X123825023Y-99383809D01*
X123710738Y-99421904D01*
X123634547Y-99421904D01*
X123520261Y-99383809D01*
X123444071Y-99307619D01*
X123405976Y-99231428D01*
X123367880Y-99079047D01*
X123367880Y-98964761D01*
X123405976Y-98812380D01*
X123444071Y-98736190D01*
X123520261Y-98660000D01*
X123634547Y-98621904D01*
X123710738Y-98621904D01*
X123825023Y-98660000D01*
X123863119Y-98698095D01*
X124434547Y-98621904D02*
X124434547Y-99193333D01*
X124396452Y-99307619D01*
X124320261Y-99383809D01*
X124205976Y-99421904D01*
X124129785Y-99421904D01*
X125196452Y-99421904D02*
X124815500Y-99421904D01*
X124815500Y-98621904D01*
X125920261Y-99345714D02*
X125882166Y-99383809D01*
X125767880Y-99421904D01*
X125691690Y-99421904D01*
X125577404Y-99383809D01*
X125501214Y-99307619D01*
X125463119Y-99231428D01*
X125425023Y-99079047D01*
X125425023Y-98964761D01*
X125463119Y-98812380D01*
X125501214Y-98736190D01*
X125577404Y-98660000D01*
X125691690Y-98621904D01*
X125767880Y-98621904D01*
X125882166Y-98660000D01*
X125920261Y-98698095D01*
X126491690Y-98621904D02*
X126491690Y-99193333D01*
X126453595Y-99307619D01*
X126377404Y-99383809D01*
X126263119Y-99421904D01*
X126186928Y-99421904D01*
X127253595Y-99421904D02*
X126872642Y-99421904D01*
X126872642Y-98621904D01*
X127977404Y-99345714D02*
X127939309Y-99383809D01*
X127825023Y-99421904D01*
X127748833Y-99421904D01*
X127634547Y-99383809D01*
X127558357Y-99307619D01*
X127520261Y-99231428D01*
X127482166Y-99079047D01*
X127482166Y-98964761D01*
X127520261Y-98812380D01*
X127558357Y-98736190D01*
X127634547Y-98660000D01*
X127748833Y-98621904D01*
X127825023Y-98621904D01*
X127939309Y-98660000D01*
X127977404Y-98698095D01*
D10*
X154806804Y-97313709D02*
X154921090Y-97351804D01*
X155111566Y-97351804D01*
X155187756Y-97313709D01*
X155225852Y-97275614D01*
X155263947Y-97199423D01*
X155263947Y-97123233D01*
X155225852Y-97047042D01*
X155187756Y-97008947D01*
X155111566Y-96970852D01*
X154959185Y-96932757D01*
X154882994Y-96894661D01*
X154844899Y-96856566D01*
X154806804Y-96780376D01*
X154806804Y-96704185D01*
X154844899Y-96627995D01*
X154882994Y-96589900D01*
X154959185Y-96551804D01*
X155149661Y-96551804D01*
X155263947Y-96589900D01*
X155606804Y-97351804D02*
X155606804Y-96551804D01*
X135756804Y-97313709D02*
X135871090Y-97351804D01*
X136061566Y-97351804D01*
X136137756Y-97313709D01*
X136175852Y-97275614D01*
X136213947Y-97199423D01*
X136213947Y-97123233D01*
X136175852Y-97047042D01*
X136137756Y-97008947D01*
X136061566Y-96970852D01*
X135909185Y-96932757D01*
X135832994Y-96894661D01*
X135794899Y-96856566D01*
X135756804Y-96780376D01*
X135756804Y-96704185D01*
X135794899Y-96627995D01*
X135832994Y-96589900D01*
X135909185Y-96551804D01*
X136099661Y-96551804D01*
X136213947Y-96589900D01*
X136556804Y-97351804D02*
X136556804Y-96551804D01*
X116706804Y-97313709D02*
X116821090Y-97351804D01*
X117011566Y-97351804D01*
X117087756Y-97313709D01*
X117125852Y-97275614D01*
X117163947Y-97199423D01*
X117163947Y-97123233D01*
X117125852Y-97047042D01*
X117087756Y-97008947D01*
X117011566Y-96970852D01*
X116859185Y-96932757D01*
X116782994Y-96894661D01*
X116744899Y-96856566D01*
X116706804Y-96780376D01*
X116706804Y-96704185D01*
X116744899Y-96627995D01*
X116782994Y-96589900D01*
X116859185Y-96551804D01*
X117049661Y-96551804D01*
X117163947Y-96589900D01*
X117506804Y-97351804D02*
X117506804Y-96551804D01*
X154730614Y-90532004D02*
X154997280Y-91332004D01*
X155263947Y-90532004D01*
X155797280Y-90912957D02*
X155911566Y-90951052D01*
X155949661Y-90989147D01*
X155987757Y-91065338D01*
X155987757Y-91179623D01*
X155949661Y-91255814D01*
X155911566Y-91293909D01*
X155835376Y-91332004D01*
X155530614Y-91332004D01*
X155530614Y-90532004D01*
X155797280Y-90532004D01*
X155873471Y-90570100D01*
X155911566Y-90608195D01*
X155949661Y-90684385D01*
X155949661Y-90760576D01*
X155911566Y-90836766D01*
X155873471Y-90874861D01*
X155797280Y-90912957D01*
X155530614Y-90912957D01*
X156292519Y-91103433D02*
X156673471Y-91103433D01*
X156216328Y-91332004D02*
X156482995Y-90532004D01*
X156749661Y-91332004D01*
X156902042Y-90532004D02*
X157359185Y-90532004D01*
X157130614Y-91332004D02*
X157130614Y-90532004D01*
X135680614Y-90532004D02*
X135947280Y-91332004D01*
X136213947Y-90532004D01*
X136747280Y-90912957D02*
X136861566Y-90951052D01*
X136899661Y-90989147D01*
X136937757Y-91065338D01*
X136937757Y-91179623D01*
X136899661Y-91255814D01*
X136861566Y-91293909D01*
X136785376Y-91332004D01*
X136480614Y-91332004D01*
X136480614Y-90532004D01*
X136747280Y-90532004D01*
X136823471Y-90570100D01*
X136861566Y-90608195D01*
X136899661Y-90684385D01*
X136899661Y-90760576D01*
X136861566Y-90836766D01*
X136823471Y-90874861D01*
X136747280Y-90912957D01*
X136480614Y-90912957D01*
X137242519Y-91103433D02*
X137623471Y-91103433D01*
X137166328Y-91332004D02*
X137432995Y-90532004D01*
X137699661Y-91332004D01*
X137852042Y-90532004D02*
X138309185Y-90532004D01*
X138080614Y-91332004D02*
X138080614Y-90532004D01*
X116630614Y-90532004D02*
X116897280Y-91332004D01*
X117163947Y-90532004D01*
X117697280Y-90912957D02*
X117811566Y-90951052D01*
X117849661Y-90989147D01*
X117887757Y-91065338D01*
X117887757Y-91179623D01*
X117849661Y-91255814D01*
X117811566Y-91293909D01*
X117735376Y-91332004D01*
X117430614Y-91332004D01*
X117430614Y-90532004D01*
X117697280Y-90532004D01*
X117773471Y-90570100D01*
X117811566Y-90608195D01*
X117849661Y-90684385D01*
X117849661Y-90760576D01*
X117811566Y-90836766D01*
X117773471Y-90874861D01*
X117697280Y-90912957D01*
X117430614Y-90912957D01*
X118192519Y-91103433D02*
X118573471Y-91103433D01*
X118116328Y-91332004D02*
X118382995Y-90532004D01*
X118649661Y-91332004D01*
X118802042Y-90532004D02*
X119259185Y-90532004D01*
X119030614Y-91332004D02*
X119030614Y-90532004D01*
X154819357Y-103231904D02*
X154819357Y-102698571D01*
X154819357Y-102850952D02*
X154857452Y-102774761D01*
X154895547Y-102736666D01*
X154971738Y-102698571D01*
X155047928Y-102698571D01*
X135769357Y-103231904D02*
X135769357Y-102698571D01*
X135769357Y-102850952D02*
X135807452Y-102774761D01*
X135845547Y-102736666D01*
X135921738Y-102698571D01*
X135997928Y-102698571D01*
X116719357Y-103231904D02*
X116719357Y-102698571D01*
X116719357Y-102850952D02*
X116757452Y-102774761D01*
X116795547Y-102736666D01*
X116871738Y-102698571D01*
X116947928Y-102698571D01*
X155302042Y-101288814D02*
X155263947Y-101326909D01*
X155149661Y-101365004D01*
X155073471Y-101365004D01*
X154959185Y-101326909D01*
X154882994Y-101250719D01*
X154844899Y-101174528D01*
X154806804Y-101022147D01*
X154806804Y-100907861D01*
X154844899Y-100755480D01*
X154882994Y-100679290D01*
X154959185Y-100603100D01*
X155073471Y-100565004D01*
X155149661Y-100565004D01*
X155263947Y-100603100D01*
X155302042Y-100641195D01*
X156025852Y-101365004D02*
X155644899Y-101365004D01*
X155644899Y-100565004D01*
X156292518Y-101365004D02*
X156292518Y-100565004D01*
X156749661Y-101365004D02*
X156406804Y-100907861D01*
X156749661Y-100565004D02*
X156292518Y-101022147D01*
X136252042Y-101288814D02*
X136213947Y-101326909D01*
X136099661Y-101365004D01*
X136023471Y-101365004D01*
X135909185Y-101326909D01*
X135832994Y-101250719D01*
X135794899Y-101174528D01*
X135756804Y-101022147D01*
X135756804Y-100907861D01*
X135794899Y-100755480D01*
X135832994Y-100679290D01*
X135909185Y-100603100D01*
X136023471Y-100565004D01*
X136099661Y-100565004D01*
X136213947Y-100603100D01*
X136252042Y-100641195D01*
X136975852Y-101365004D02*
X136594899Y-101365004D01*
X136594899Y-100565004D01*
X137242518Y-101365004D02*
X137242518Y-100565004D01*
X137699661Y-101365004D02*
X137356804Y-100907861D01*
X137699661Y-100565004D02*
X137242518Y-101022147D01*
X117202042Y-101288814D02*
X117163947Y-101326909D01*
X117049661Y-101365004D01*
X116973471Y-101365004D01*
X116859185Y-101326909D01*
X116782994Y-101250719D01*
X116744899Y-101174528D01*
X116706804Y-101022147D01*
X116706804Y-100907861D01*
X116744899Y-100755480D01*
X116782994Y-100679290D01*
X116859185Y-100603100D01*
X116973471Y-100565004D01*
X117049661Y-100565004D01*
X117163947Y-100603100D01*
X117202042Y-100641195D01*
X117925852Y-101365004D02*
X117544899Y-101365004D01*
X117544899Y-100565004D01*
X118192518Y-101365004D02*
X118192518Y-100565004D01*
X118649661Y-101365004D02*
X118306804Y-100907861D01*
X118649661Y-100565004D02*
X118192518Y-101022147D01*
X154768709Y-88525404D02*
X155263947Y-88525404D01*
X154997281Y-88830166D01*
X155111566Y-88830166D01*
X155187757Y-88868261D01*
X155225852Y-88906357D01*
X155263947Y-88982547D01*
X155263947Y-89173023D01*
X155225852Y-89249214D01*
X155187757Y-89287309D01*
X155111566Y-89325404D01*
X154882995Y-89325404D01*
X154806805Y-89287309D01*
X154768709Y-89249214D01*
X155492519Y-88525404D02*
X155759186Y-89325404D01*
X156025852Y-88525404D01*
X156216328Y-88525404D02*
X156711566Y-88525404D01*
X156444900Y-88830166D01*
X156559186Y-88830166D01*
X156635376Y-88868261D01*
X156673471Y-88906357D01*
X156711566Y-88982547D01*
X156711566Y-89173023D01*
X156673471Y-89249214D01*
X156635376Y-89287309D01*
X156559186Y-89325404D01*
X156330614Y-89325404D01*
X156254424Y-89287309D01*
X156216328Y-89249214D01*
X135718709Y-88525404D02*
X136213947Y-88525404D01*
X135947281Y-88830166D01*
X136061566Y-88830166D01*
X136137757Y-88868261D01*
X136175852Y-88906357D01*
X136213947Y-88982547D01*
X136213947Y-89173023D01*
X136175852Y-89249214D01*
X136137757Y-89287309D01*
X136061566Y-89325404D01*
X135832995Y-89325404D01*
X135756805Y-89287309D01*
X135718709Y-89249214D01*
X136442519Y-88525404D02*
X136709186Y-89325404D01*
X136975852Y-88525404D01*
X137166328Y-88525404D02*
X137661566Y-88525404D01*
X137394900Y-88830166D01*
X137509186Y-88830166D01*
X137585376Y-88868261D01*
X137623471Y-88906357D01*
X137661566Y-88982547D01*
X137661566Y-89173023D01*
X137623471Y-89249214D01*
X137585376Y-89287309D01*
X137509186Y-89325404D01*
X137280614Y-89325404D01*
X137204424Y-89287309D01*
X137166328Y-89249214D01*
X116668709Y-88525404D02*
X117163947Y-88525404D01*
X116897281Y-88830166D01*
X117011566Y-88830166D01*
X117087757Y-88868261D01*
X117125852Y-88906357D01*
X117163947Y-88982547D01*
X117163947Y-89173023D01*
X117125852Y-89249214D01*
X117087757Y-89287309D01*
X117011566Y-89325404D01*
X116782995Y-89325404D01*
X116706805Y-89287309D01*
X116668709Y-89249214D01*
X117392519Y-88525404D02*
X117659186Y-89325404D01*
X117925852Y-88525404D01*
X118116328Y-88525404D02*
X118611566Y-88525404D01*
X118344900Y-88830166D01*
X118459186Y-88830166D01*
X118535376Y-88868261D01*
X118573471Y-88906357D01*
X118611566Y-88982547D01*
X118611566Y-89173023D01*
X118573471Y-89249214D01*
X118535376Y-89287309D01*
X118459186Y-89325404D01*
X118230614Y-89325404D01*
X118154424Y-89287309D01*
X118116328Y-89249214D01*
X155008271Y-93352880D02*
X154913033Y-93305261D01*
X154865414Y-93257642D01*
X154817795Y-93162404D01*
X154817795Y-92876690D01*
X154865414Y-92781452D01*
X154913033Y-92733833D01*
X155008271Y-92686214D01*
X155151128Y-92686214D01*
X155246366Y-92733833D01*
X155293985Y-92781452D01*
X155341604Y-92876690D01*
X155341604Y-93162404D01*
X155293985Y-93257642D01*
X155246366Y-93305261D01*
X155151128Y-93352880D01*
X155008271Y-93352880D01*
X135958271Y-93352880D02*
X135863033Y-93305261D01*
X135815414Y-93257642D01*
X135767795Y-93162404D01*
X135767795Y-92876690D01*
X135815414Y-92781452D01*
X135863033Y-92733833D01*
X135958271Y-92686214D01*
X136101128Y-92686214D01*
X136196366Y-92733833D01*
X136243985Y-92781452D01*
X136291604Y-92876690D01*
X136291604Y-93162404D01*
X136243985Y-93257642D01*
X136196366Y-93305261D01*
X136101128Y-93352880D01*
X135958271Y-93352880D01*
X116908271Y-93352880D02*
X116813033Y-93305261D01*
X116765414Y-93257642D01*
X116717795Y-93162404D01*
X116717795Y-92876690D01*
X116765414Y-92781452D01*
X116813033Y-92733833D01*
X116908271Y-92686214D01*
X117051128Y-92686214D01*
X117146366Y-92733833D01*
X117193985Y-92781452D01*
X117241604Y-92876690D01*
X117241604Y-93162404D01*
X117193985Y-93257642D01*
X117146366Y-93305261D01*
X117051128Y-93352880D01*
X116908271Y-93352880D01*
X155302042Y-95345204D02*
X155035376Y-94964252D01*
X154844899Y-95345204D02*
X154844899Y-94545204D01*
X155149661Y-94545204D01*
X155225852Y-94583300D01*
X155263947Y-94621395D01*
X155302042Y-94697585D01*
X155302042Y-94811871D01*
X155263947Y-94888061D01*
X155225852Y-94926157D01*
X155149661Y-94964252D01*
X154844899Y-94964252D01*
X155606804Y-95307109D02*
X155721090Y-95345204D01*
X155911566Y-95345204D01*
X155987757Y-95307109D01*
X156025852Y-95269014D01*
X156063947Y-95192823D01*
X156063947Y-95116633D01*
X156025852Y-95040442D01*
X155987757Y-95002347D01*
X155911566Y-94964252D01*
X155759185Y-94926157D01*
X155682995Y-94888061D01*
X155644899Y-94849966D01*
X155606804Y-94773776D01*
X155606804Y-94697585D01*
X155644899Y-94621395D01*
X155682995Y-94583300D01*
X155759185Y-94545204D01*
X155949661Y-94545204D01*
X156063947Y-94583300D01*
X156292518Y-94545204D02*
X156749661Y-94545204D01*
X156521090Y-95345204D02*
X156521090Y-94545204D01*
X136252042Y-95345204D02*
X135985376Y-94964252D01*
X135794899Y-95345204D02*
X135794899Y-94545204D01*
X136099661Y-94545204D01*
X136175852Y-94583300D01*
X136213947Y-94621395D01*
X136252042Y-94697585D01*
X136252042Y-94811871D01*
X136213947Y-94888061D01*
X136175852Y-94926157D01*
X136099661Y-94964252D01*
X135794899Y-94964252D01*
X136556804Y-95307109D02*
X136671090Y-95345204D01*
X136861566Y-95345204D01*
X136937757Y-95307109D01*
X136975852Y-95269014D01*
X137013947Y-95192823D01*
X137013947Y-95116633D01*
X136975852Y-95040442D01*
X136937757Y-95002347D01*
X136861566Y-94964252D01*
X136709185Y-94926157D01*
X136632995Y-94888061D01*
X136594899Y-94849966D01*
X136556804Y-94773776D01*
X136556804Y-94697585D01*
X136594899Y-94621395D01*
X136632995Y-94583300D01*
X136709185Y-94545204D01*
X136899661Y-94545204D01*
X137013947Y-94583300D01*
X137242518Y-94545204D02*
X137699661Y-94545204D01*
X137471090Y-95345204D02*
X137471090Y-94545204D01*
X117202042Y-95345204D02*
X116935376Y-94964252D01*
X116744899Y-95345204D02*
X116744899Y-94545204D01*
X117049661Y-94545204D01*
X117125852Y-94583300D01*
X117163947Y-94621395D01*
X117202042Y-94697585D01*
X117202042Y-94811871D01*
X117163947Y-94888061D01*
X117125852Y-94926157D01*
X117049661Y-94964252D01*
X116744899Y-94964252D01*
X117506804Y-95307109D02*
X117621090Y-95345204D01*
X117811566Y-95345204D01*
X117887757Y-95307109D01*
X117925852Y-95269014D01*
X117963947Y-95192823D01*
X117963947Y-95116633D01*
X117925852Y-95040442D01*
X117887757Y-95002347D01*
X117811566Y-94964252D01*
X117659185Y-94926157D01*
X117582995Y-94888061D01*
X117544899Y-94849966D01*
X117506804Y-94773776D01*
X117506804Y-94697585D01*
X117544899Y-94621395D01*
X117582995Y-94583300D01*
X117659185Y-94545204D01*
X117849661Y-94545204D01*
X117963947Y-94583300D01*
X118192518Y-94545204D02*
X118649661Y-94545204D01*
X118421090Y-95345204D02*
X118421090Y-94545204D01*
X154844899Y-99358404D02*
X154844899Y-98558404D01*
X155035375Y-98558404D01*
X155149661Y-98596500D01*
X155225851Y-98672690D01*
X155263947Y-98748880D01*
X155302042Y-98901261D01*
X155302042Y-99015547D01*
X155263947Y-99167928D01*
X155225851Y-99244119D01*
X155149661Y-99320309D01*
X155035375Y-99358404D01*
X154844899Y-99358404D01*
X155378232Y-98482214D02*
X156063947Y-99510785D01*
X156635375Y-99282214D02*
X156597280Y-99320309D01*
X156482994Y-99358404D01*
X156406804Y-99358404D01*
X156292518Y-99320309D01*
X156216328Y-99244119D01*
X156178232Y-99167928D01*
X156140137Y-99015547D01*
X156140137Y-98901261D01*
X156178232Y-98748880D01*
X156216328Y-98672690D01*
X156292518Y-98596500D01*
X156406804Y-98558404D01*
X156482994Y-98558404D01*
X156597280Y-98596500D01*
X156635375Y-98634595D01*
X135794899Y-99358404D02*
X135794899Y-98558404D01*
X135985375Y-98558404D01*
X136099661Y-98596500D01*
X136175851Y-98672690D01*
X136213947Y-98748880D01*
X136252042Y-98901261D01*
X136252042Y-99015547D01*
X136213947Y-99167928D01*
X136175851Y-99244119D01*
X136099661Y-99320309D01*
X135985375Y-99358404D01*
X135794899Y-99358404D01*
X136328232Y-98482214D02*
X137013947Y-99510785D01*
X137585375Y-99282214D02*
X137547280Y-99320309D01*
X137432994Y-99358404D01*
X137356804Y-99358404D01*
X137242518Y-99320309D01*
X137166328Y-99244119D01*
X137128232Y-99167928D01*
X137090137Y-99015547D01*
X137090137Y-98901261D01*
X137128232Y-98748880D01*
X137166328Y-98672690D01*
X137242518Y-98596500D01*
X137356804Y-98558404D01*
X137432994Y-98558404D01*
X137547280Y-98596500D01*
X137585375Y-98634595D01*
X116744899Y-99358404D02*
X116744899Y-98558404D01*
X116935375Y-98558404D01*
X117049661Y-98596500D01*
X117125851Y-98672690D01*
X117163947Y-98748880D01*
X117202042Y-98901261D01*
X117202042Y-99015547D01*
X117163947Y-99167928D01*
X117125851Y-99244119D01*
X117049661Y-99320309D01*
X116935375Y-99358404D01*
X116744899Y-99358404D01*
X117278232Y-98482214D02*
X117963947Y-99510785D01*
X118535375Y-99282214D02*
X118497280Y-99320309D01*
X118382994Y-99358404D01*
X118306804Y-99358404D01*
X118192518Y-99320309D01*
X118116328Y-99244119D01*
X118078232Y-99167928D01*
X118040137Y-99015547D01*
X118040137Y-98901261D01*
X118078232Y-98748880D01*
X118116328Y-98672690D01*
X118192518Y-98596500D01*
X118306804Y-98558404D01*
X118382994Y-98558404D01*
X118497280Y-98596500D01*
X118535375Y-98634595D01*
X157543476Y-103765309D02*
X157467285Y-103803404D01*
X157314904Y-103803404D01*
X157238714Y-103765309D01*
X157200619Y-103727214D01*
X157162523Y-103651023D01*
X157162523Y-103422452D01*
X157200619Y-103346261D01*
X157238714Y-103308166D01*
X157314904Y-103270071D01*
X157467285Y-103270071D01*
X157543476Y-103308166D01*
X138493476Y-103765309D02*
X138417285Y-103803404D01*
X138264904Y-103803404D01*
X138188714Y-103765309D01*
X138150619Y-103727214D01*
X138112523Y-103651023D01*
X138112523Y-103422452D01*
X138150619Y-103346261D01*
X138188714Y-103308166D01*
X138264904Y-103270071D01*
X138417285Y-103270071D01*
X138493476Y-103308166D01*
X119443476Y-103765309D02*
X119367285Y-103803404D01*
X119214904Y-103803404D01*
X119138714Y-103765309D01*
X119100619Y-103727214D01*
X119062523Y-103651023D01*
X119062523Y-103422452D01*
X119100619Y-103346261D01*
X119138714Y-103308166D01*
X119214904Y-103270071D01*
X119367285Y-103270071D01*
X119443476Y-103308166D01*
D12*
X169354500Y-87287100D02*
X162775900Y-87287100D01*
X150304500Y-87287100D02*
X143725900Y-87287100D01*
X131254500Y-87287100D02*
X124675900Y-87287100D01*
X157734000Y-87312500D02*
X158686500Y-86487000D01*
X138684000Y-87312500D02*
X139636500Y-86487000D01*
X119634000Y-87312500D02*
X120586500Y-86487000D01*
X154774900Y-87312500D02*
X157734000Y-87312500D01*
X135724900Y-87312500D02*
X138684000Y-87312500D01*
X116674900Y-87312500D02*
X119634000Y-87312500D01*
D13*
G36*
X166878000Y-85815500D02*
G01*
X162115500Y-85815500D01*
X162115500Y-85434500D01*
X166878000Y-85434500D01*
X166878000Y-85815500D01*
G37*
G36*
X147828000Y-85815500D02*
G01*
X143065500Y-85815500D01*
X143065500Y-85434500D01*
X147828000Y-85434500D01*
X147828000Y-85815500D01*
G37*
G36*
X128778000Y-85815500D02*
G01*
X124015500Y-85815500D01*
X124015500Y-85434500D01*
X128778000Y-85434500D01*
X128778000Y-85815500D01*
G37*
D12*
X161963100Y-86474300D02*
X161404300Y-86474300D01*
X142913100Y-86474300D02*
X142354300Y-86474300D01*
X123863100Y-86474300D02*
X123304300Y-86474300D01*
D13*
G36*
X157353000Y-104394000D02*
G01*
X156972000Y-104394000D01*
X156972000Y-104013000D01*
X157353000Y-104013000D01*
X157353000Y-104394000D01*
G37*
G36*
X138303000Y-104394000D02*
G01*
X137922000Y-104394000D01*
X137922000Y-104013000D01*
X138303000Y-104013000D01*
X138303000Y-104394000D01*
G37*
G36*
X119253000Y-104394000D02*
G01*
X118872000Y-104394000D01*
X118872000Y-104013000D01*
X119253000Y-104013000D01*
X119253000Y-104394000D01*
G37*
G36*
X155257500Y-104394000D02*
G01*
X152590500Y-104394000D01*
X152590500Y-104013000D01*
X155257500Y-104013000D01*
X155257500Y-104394000D01*
G37*
G36*
X136207500Y-104394000D02*
G01*
X133540500Y-104394000D01*
X133540500Y-104013000D01*
X136207500Y-104013000D01*
X136207500Y-104394000D01*
G37*
G36*
X117157500Y-104394000D02*
G01*
X114490500Y-104394000D01*
X114490500Y-104013000D01*
X117157500Y-104013000D01*
X117157500Y-104394000D01*
G37*
G36*
X155257500Y-85815500D02*
G01*
X152590500Y-85815500D01*
X152590500Y-85434500D01*
X155257500Y-85434500D01*
X155257500Y-85815500D01*
G37*
G36*
X136207500Y-85815500D02*
G01*
X133540500Y-85815500D01*
X133540500Y-85434500D01*
X136207500Y-85434500D01*
X136207500Y-85815500D01*
G37*
G36*
X117157500Y-85815500D02*
G01*
X114490500Y-85815500D01*
X114490500Y-85434500D01*
X117157500Y-85434500D01*
X117157500Y-85815500D01*
G37*
G36*
X157353000Y-85815500D02*
G01*
X156972000Y-85815500D01*
X156972000Y-85434500D01*
X157353000Y-85434500D01*
X157353000Y-85815500D01*
G37*
G36*
X138303000Y-85815500D02*
G01*
X137922000Y-85815500D01*
X137922000Y-85434500D01*
X138303000Y-85434500D01*
X138303000Y-85815500D01*
G37*
G36*
X119253000Y-85815500D02*
G01*
X118872000Y-85815500D01*
X118872000Y-85434500D01*
X119253000Y-85434500D01*
X119253000Y-85815500D01*
G37*
D12*
X162775900Y-87287100D02*
X161963100Y-86474300D01*
X143725900Y-87287100D02*
X142913100Y-86474300D01*
X124675900Y-87287100D02*
X123863100Y-86474300D01*
D13*
G36*
X166878000Y-104394000D02*
G01*
X162115500Y-104394000D01*
X162115500Y-104013000D01*
X166878000Y-104013000D01*
X166878000Y-104394000D01*
G37*
G36*
X147828000Y-104394000D02*
G01*
X143065500Y-104394000D01*
X143065500Y-104013000D01*
X147828000Y-104013000D01*
X147828000Y-104394000D01*
G37*
G36*
X128778000Y-104394000D02*
G01*
X124015500Y-104394000D01*
X124015500Y-104013000D01*
X128778000Y-104013000D01*
X128778000Y-104394000D01*
G37*
D10*
X109918476Y-103765309D02*
X109842285Y-103803404D01*
X109689904Y-103803404D01*
X109613714Y-103765309D01*
X109575619Y-103727214D01*
X109537523Y-103651023D01*
X109537523Y-103422452D01*
X109575619Y-103346261D01*
X109613714Y-103308166D01*
X109689904Y-103270071D01*
X109842285Y-103270071D01*
X109918476Y-103308166D01*
D13*
G36*
X100203000Y-85815500D02*
G01*
X99822000Y-85815500D01*
X99822000Y-85434500D01*
X100203000Y-85434500D01*
X100203000Y-85815500D01*
G37*
G36*
X98107500Y-85815500D02*
G01*
X95440500Y-85815500D01*
X95440500Y-85434500D01*
X98107500Y-85434500D01*
X98107500Y-85815500D01*
G37*
G36*
X98107500Y-104394000D02*
G01*
X95440500Y-104394000D01*
X95440500Y-104013000D01*
X98107500Y-104013000D01*
X98107500Y-104394000D01*
G37*
G36*
X100203000Y-104394000D02*
G01*
X99822000Y-104394000D01*
X99822000Y-104013000D01*
X100203000Y-104013000D01*
X100203000Y-104394000D01*
G37*
G36*
X109728000Y-85815500D02*
G01*
X104965500Y-85815500D01*
X104965500Y-85434500D01*
X109728000Y-85434500D01*
X109728000Y-85815500D01*
G37*
G36*
X109728000Y-104394000D02*
G01*
X104965500Y-104394000D01*
X104965500Y-104013000D01*
X109728000Y-104013000D01*
X109728000Y-104394000D01*
G37*
D12*
X104813100Y-86474300D02*
X104254300Y-86474300D01*
X105625900Y-87287100D02*
X104813100Y-86474300D01*
X112204500Y-87287100D02*
X105625900Y-87287100D01*
X100584000Y-87312500D02*
X101536500Y-86487000D01*
X97624900Y-87312500D02*
X100584000Y-87312500D01*
D10*
X111956857Y-103231904D02*
X111956857Y-102698571D01*
X111956857Y-102850952D02*
X111994952Y-102774761D01*
X112033047Y-102736666D01*
X112109238Y-102698571D01*
X112185428Y-102698571D01*
X110763052Y-101263414D02*
X110724957Y-101301509D01*
X110610671Y-101339604D01*
X110534481Y-101339604D01*
X110420195Y-101301509D01*
X110344004Y-101225319D01*
X110305909Y-101149128D01*
X110267814Y-100996747D01*
X110267814Y-100882461D01*
X110305909Y-100730080D01*
X110344004Y-100653890D01*
X110420195Y-100577700D01*
X110534481Y-100539604D01*
X110610671Y-100539604D01*
X110724957Y-100577700D01*
X110763052Y-100615795D01*
X111486862Y-101339604D02*
X111105909Y-101339604D01*
X111105909Y-100539604D01*
X111753528Y-101339604D02*
X111753528Y-100539604D01*
X112210671Y-101339604D02*
X111867814Y-100882461D01*
X112210671Y-100539604D02*
X111753528Y-100996747D01*
X110420195Y-99337234D02*
X110420195Y-98537234D01*
X110610671Y-98537234D01*
X110724957Y-98575330D01*
X110801147Y-98651520D01*
X110839243Y-98727710D01*
X110877338Y-98880091D01*
X110877338Y-98994377D01*
X110839243Y-99146758D01*
X110801147Y-99222949D01*
X110724957Y-99299139D01*
X110610671Y-99337234D01*
X110420195Y-99337234D01*
X110953528Y-98461044D02*
X111639243Y-99489615D01*
X112210671Y-99261044D02*
X112172576Y-99299139D01*
X112058290Y-99337234D01*
X111982100Y-99337234D01*
X111867814Y-99299139D01*
X111791624Y-99222949D01*
X111753528Y-99146758D01*
X111715433Y-98994377D01*
X111715433Y-98880091D01*
X111753528Y-98727710D01*
X111791624Y-98651520D01*
X111867814Y-98575330D01*
X111982100Y-98537234D01*
X112058290Y-98537234D01*
X112172576Y-98575330D01*
X112210671Y-98613425D01*
X111372576Y-97296773D02*
X111486862Y-97334868D01*
X111677338Y-97334868D01*
X111753528Y-97296773D01*
X111791624Y-97258678D01*
X111829719Y-97182487D01*
X111829719Y-97106297D01*
X111791624Y-97030106D01*
X111753528Y-96992011D01*
X111677338Y-96953916D01*
X111524957Y-96915821D01*
X111448766Y-96877725D01*
X111410671Y-96839630D01*
X111372576Y-96763440D01*
X111372576Y-96687249D01*
X111410671Y-96611059D01*
X111448766Y-96572964D01*
X111524957Y-96534868D01*
X111715433Y-96534868D01*
X111829719Y-96572964D01*
X112172576Y-97334868D02*
X112172576Y-96534868D01*
X110839242Y-95332502D02*
X110572576Y-94951550D01*
X110382099Y-95332502D02*
X110382099Y-94532502D01*
X110686861Y-94532502D01*
X110763052Y-94570598D01*
X110801147Y-94608693D01*
X110839242Y-94684883D01*
X110839242Y-94799169D01*
X110801147Y-94875359D01*
X110763052Y-94913455D01*
X110686861Y-94951550D01*
X110382099Y-94951550D01*
X111144004Y-95294407D02*
X111258290Y-95332502D01*
X111448766Y-95332502D01*
X111524957Y-95294407D01*
X111563052Y-95256312D01*
X111601147Y-95180121D01*
X111601147Y-95103931D01*
X111563052Y-95027740D01*
X111524957Y-94989645D01*
X111448766Y-94951550D01*
X111296385Y-94913455D01*
X111220195Y-94875359D01*
X111182099Y-94837264D01*
X111144004Y-94761074D01*
X111144004Y-94684883D01*
X111182099Y-94608693D01*
X111220195Y-94570598D01*
X111296385Y-94532502D01*
X111486861Y-94532502D01*
X111601147Y-94570598D01*
X111829718Y-94532502D02*
X112286861Y-94532502D01*
X112058290Y-95332502D02*
X112058290Y-94532502D01*
X112102900Y-93454480D02*
X112102900Y-92787814D01*
X112102900Y-92454480D02*
X112055280Y-92502100D01*
X112102900Y-92549719D01*
X112150519Y-92502100D01*
X112102900Y-92454480D01*
X112102900Y-92549719D01*
X109658291Y-90527770D02*
X109924957Y-91327770D01*
X110191624Y-90527770D01*
X110724957Y-90908723D02*
X110839243Y-90946818D01*
X110877338Y-90984913D01*
X110915434Y-91061104D01*
X110915434Y-91175389D01*
X110877338Y-91251580D01*
X110839243Y-91289675D01*
X110763053Y-91327770D01*
X110458291Y-91327770D01*
X110458291Y-90527770D01*
X110724957Y-90527770D01*
X110801148Y-90565866D01*
X110839243Y-90603961D01*
X110877338Y-90680151D01*
X110877338Y-90756342D01*
X110839243Y-90832532D01*
X110801148Y-90870627D01*
X110724957Y-90908723D01*
X110458291Y-90908723D01*
X111220196Y-91099199D02*
X111601148Y-91099199D01*
X111144005Y-91327770D02*
X111410672Y-90527770D01*
X111677338Y-91327770D01*
X111829719Y-90527770D02*
X112286862Y-90527770D01*
X112058291Y-91327770D02*
X112058291Y-90527770D01*
X110267814Y-88525404D02*
X110763052Y-88525404D01*
X110496386Y-88830166D01*
X110610671Y-88830166D01*
X110686862Y-88868261D01*
X110724957Y-88906357D01*
X110763052Y-88982547D01*
X110763052Y-89173023D01*
X110724957Y-89249214D01*
X110686862Y-89287309D01*
X110610671Y-89325404D01*
X110382100Y-89325404D01*
X110305910Y-89287309D01*
X110267814Y-89249214D01*
X110991624Y-88525404D02*
X111258291Y-89325404D01*
X111524957Y-88525404D01*
X111715433Y-88525404D02*
X112210671Y-88525404D01*
X111944005Y-88830166D01*
X112058291Y-88830166D01*
X112134481Y-88868261D01*
X112172576Y-88906357D01*
X112210671Y-88982547D01*
X112210671Y-89173023D01*
X112172576Y-89249214D01*
X112134481Y-89287309D01*
X112058291Y-89325404D01*
X111829719Y-89325404D01*
X111753529Y-89287309D01*
X111715433Y-89249214D01*
X109918476Y-86620309D02*
X109842285Y-86658404D01*
X109689904Y-86658404D01*
X109613714Y-86620309D01*
X109575619Y-86582214D01*
X109537523Y-86506023D01*
X109537523Y-86277452D01*
X109575619Y-86201261D01*
X109613714Y-86163166D01*
X109689904Y-86125071D01*
X109842285Y-86125071D01*
X109918476Y-86163166D01*
X100583976Y-86620309D02*
X100507785Y-86658404D01*
X100355404Y-86658404D01*
X100279214Y-86620309D01*
X100241119Y-86582214D01*
X100203023Y-86506023D01*
X100203023Y-86277452D01*
X100241119Y-86201261D01*
X100279214Y-86163166D01*
X100355404Y-86125071D01*
X100507785Y-86125071D01*
X100583976Y-86163166D01*
X100393476Y-103765309D02*
X100317285Y-103803404D01*
X100164904Y-103803404D01*
X100088714Y-103765309D01*
X100050619Y-103727214D01*
X100012523Y-103651023D01*
X100012523Y-103422452D01*
X100050619Y-103346261D01*
X100088714Y-103308166D01*
X100164904Y-103270071D01*
X100317285Y-103270071D01*
X100393476Y-103308166D01*
X97669357Y-103231904D02*
X97669357Y-102698571D01*
X97669357Y-102850952D02*
X97707452Y-102774761D01*
X97745547Y-102736666D01*
X97821738Y-102698571D01*
X97897928Y-102698571D01*
X98152042Y-101288814D02*
X98113947Y-101326909D01*
X97999661Y-101365004D01*
X97923471Y-101365004D01*
X97809185Y-101326909D01*
X97732994Y-101250719D01*
X97694899Y-101174528D01*
X97656804Y-101022147D01*
X97656804Y-100907861D01*
X97694899Y-100755480D01*
X97732994Y-100679290D01*
X97809185Y-100603100D01*
X97923471Y-100565004D01*
X97999661Y-100565004D01*
X98113947Y-100603100D01*
X98152042Y-100641195D01*
X98875852Y-101365004D02*
X98494899Y-101365004D01*
X98494899Y-100565004D01*
X99142518Y-101365004D02*
X99142518Y-100565004D01*
X99599661Y-101365004D02*
X99256804Y-100907861D01*
X99599661Y-100565004D02*
X99142518Y-101022147D01*
X97694899Y-99358404D02*
X97694899Y-98558404D01*
X97885375Y-98558404D01*
X97999661Y-98596500D01*
X98075851Y-98672690D01*
X98113947Y-98748880D01*
X98152042Y-98901261D01*
X98152042Y-99015547D01*
X98113947Y-99167928D01*
X98075851Y-99244119D01*
X97999661Y-99320309D01*
X97885375Y-99358404D01*
X97694899Y-99358404D01*
X98228232Y-98482214D02*
X98913947Y-99510785D01*
X99485375Y-99282214D02*
X99447280Y-99320309D01*
X99332994Y-99358404D01*
X99256804Y-99358404D01*
X99142518Y-99320309D01*
X99066328Y-99244119D01*
X99028232Y-99167928D01*
X98990137Y-99015547D01*
X98990137Y-98901261D01*
X99028232Y-98748880D01*
X99066328Y-98672690D01*
X99142518Y-98596500D01*
X99256804Y-98558404D01*
X99332994Y-98558404D01*
X99447280Y-98596500D01*
X99485375Y-98634595D01*
X97656804Y-97313709D02*
X97771090Y-97351804D01*
X97961566Y-97351804D01*
X98037756Y-97313709D01*
X98075852Y-97275614D01*
X98113947Y-97199423D01*
X98113947Y-97123233D01*
X98075852Y-97047042D01*
X98037756Y-97008947D01*
X97961566Y-96970852D01*
X97809185Y-96932757D01*
X97732994Y-96894661D01*
X97694899Y-96856566D01*
X97656804Y-96780376D01*
X97656804Y-96704185D01*
X97694899Y-96627995D01*
X97732994Y-96589900D01*
X97809185Y-96551804D01*
X97999661Y-96551804D01*
X98113947Y-96589900D01*
X98456804Y-97351804D02*
X98456804Y-96551804D01*
X98152042Y-95345204D02*
X97885376Y-94964252D01*
X97694899Y-95345204D02*
X97694899Y-94545204D01*
X97999661Y-94545204D01*
X98075852Y-94583300D01*
X98113947Y-94621395D01*
X98152042Y-94697585D01*
X98152042Y-94811871D01*
X98113947Y-94888061D01*
X98075852Y-94926157D01*
X97999661Y-94964252D01*
X97694899Y-94964252D01*
X98456804Y-95307109D02*
X98571090Y-95345204D01*
X98761566Y-95345204D01*
X98837757Y-95307109D01*
X98875852Y-95269014D01*
X98913947Y-95192823D01*
X98913947Y-95116633D01*
X98875852Y-95040442D01*
X98837757Y-95002347D01*
X98761566Y-94964252D01*
X98609185Y-94926157D01*
X98532995Y-94888061D01*
X98494899Y-94849966D01*
X98456804Y-94773776D01*
X98456804Y-94697585D01*
X98494899Y-94621395D01*
X98532995Y-94583300D01*
X98609185Y-94545204D01*
X98799661Y-94545204D01*
X98913947Y-94583300D01*
X99142518Y-94545204D02*
X99599661Y-94545204D01*
X99371090Y-95345204D02*
X99371090Y-94545204D01*
X97858271Y-93352880D02*
X97763033Y-93305261D01*
X97715414Y-93257642D01*
X97667795Y-93162404D01*
X97667795Y-92876690D01*
X97715414Y-92781452D01*
X97763033Y-92733833D01*
X97858271Y-92686214D01*
X98001128Y-92686214D01*
X98096366Y-92733833D01*
X98143985Y-92781452D01*
X98191604Y-92876690D01*
X98191604Y-93162404D01*
X98143985Y-93257642D01*
X98096366Y-93305261D01*
X98001128Y-93352880D01*
X97858271Y-93352880D01*
X97580614Y-90532004D02*
X97847280Y-91332004D01*
X98113947Y-90532004D01*
X98647280Y-90912957D02*
X98761566Y-90951052D01*
X98799661Y-90989147D01*
X98837757Y-91065338D01*
X98837757Y-91179623D01*
X98799661Y-91255814D01*
X98761566Y-91293909D01*
X98685376Y-91332004D01*
X98380614Y-91332004D01*
X98380614Y-90532004D01*
X98647280Y-90532004D01*
X98723471Y-90570100D01*
X98761566Y-90608195D01*
X98799661Y-90684385D01*
X98799661Y-90760576D01*
X98761566Y-90836766D01*
X98723471Y-90874861D01*
X98647280Y-90912957D01*
X98380614Y-90912957D01*
X99142519Y-91103433D02*
X99523471Y-91103433D01*
X99066328Y-91332004D02*
X99332995Y-90532004D01*
X99599661Y-91332004D01*
X99752042Y-90532004D02*
X100209185Y-90532004D01*
X99980614Y-91332004D02*
X99980614Y-90532004D01*
X97618709Y-88525404D02*
X98113947Y-88525404D01*
X97847281Y-88830166D01*
X97961566Y-88830166D01*
X98037757Y-88868261D01*
X98075852Y-88906357D01*
X98113947Y-88982547D01*
X98113947Y-89173023D01*
X98075852Y-89249214D01*
X98037757Y-89287309D01*
X97961566Y-89325404D01*
X97732995Y-89325404D01*
X97656805Y-89287309D01*
X97618709Y-89249214D01*
X98342519Y-88525404D02*
X98609186Y-89325404D01*
X98875852Y-88525404D01*
X99066328Y-88525404D02*
X99561566Y-88525404D01*
X99294900Y-88830166D01*
X99409186Y-88830166D01*
X99485376Y-88868261D01*
X99523471Y-88906357D01*
X99561566Y-88982547D01*
X99561566Y-89173023D01*
X99523471Y-89249214D01*
X99485376Y-89287309D01*
X99409186Y-89325404D01*
X99180614Y-89325404D01*
X99104424Y-89287309D01*
X99066328Y-89249214D01*
D14*
%TO.C,LED1*%
X163055500Y-89052500D02*
X163815500Y-89052500D01*
X163855500Y-85572500D02*
X163855500Y-85812500D01*
X160375500Y-85572500D02*
X160375500Y-85812500D01*
X160375500Y-89052500D02*
X160375500Y-88812500D01*
X160375500Y-85572500D02*
X163855500Y-85572500D01*
X163055500Y-89052500D02*
X160375500Y-89052500D01*
X144005500Y-89052500D02*
X144765500Y-89052500D01*
X144805500Y-85572500D02*
X144805500Y-85812500D01*
X141325500Y-85572500D02*
X141325500Y-85812500D01*
X141325500Y-89052500D02*
X141325500Y-88812500D01*
X141325500Y-85572500D02*
X144805500Y-85572500D01*
X144005500Y-89052500D02*
X141325500Y-89052500D01*
X124955500Y-89052500D02*
X125715500Y-89052500D01*
X125755500Y-85572500D02*
X125755500Y-85812500D01*
X122275500Y-85572500D02*
X122275500Y-85812500D01*
X122275500Y-89052500D02*
X122275500Y-88812500D01*
X122275500Y-85572500D02*
X125755500Y-85572500D01*
X124955500Y-89052500D02*
X122275500Y-89052500D01*
X105905500Y-89052500D02*
X103225500Y-89052500D01*
X103225500Y-85572500D02*
X106705500Y-85572500D01*
X103225500Y-89052500D02*
X103225500Y-88812500D01*
X103225500Y-85572500D02*
X103225500Y-85812500D01*
X106705500Y-85572500D02*
X106705500Y-85812500D01*
X105905500Y-89052500D02*
X106665500Y-89052500D01*
D11*
X159234547Y-86383928D02*
X159996452Y-86383928D01*
X159615500Y-86764880D02*
X159615500Y-86002976D01*
X164234547Y-88183928D02*
X164996452Y-88183928D01*
X159544071Y-88564880D02*
X159448833Y-88517261D01*
X159401214Y-88469642D01*
X159353595Y-88374404D01*
X159353595Y-88088690D01*
X159401214Y-87993452D01*
X159448833Y-87945833D01*
X159544071Y-87898214D01*
X159686928Y-87898214D01*
X159782166Y-87945833D01*
X159829785Y-87993452D01*
X159877404Y-88088690D01*
X159877404Y-88374404D01*
X159829785Y-88469642D01*
X159782166Y-88517261D01*
X159686928Y-88564880D01*
X159544071Y-88564880D01*
X164615500Y-86964880D02*
X164615500Y-86298214D01*
X164615500Y-85964880D02*
X164567880Y-86012500D01*
X164615500Y-86060119D01*
X164663119Y-86012500D01*
X164615500Y-85964880D01*
X164615500Y-86060119D01*
X140184547Y-86383928D02*
X140946452Y-86383928D01*
X140565500Y-86764880D02*
X140565500Y-86002976D01*
X145184547Y-88183928D02*
X145946452Y-88183928D01*
X140494071Y-88564880D02*
X140398833Y-88517261D01*
X140351214Y-88469642D01*
X140303595Y-88374404D01*
X140303595Y-88088690D01*
X140351214Y-87993452D01*
X140398833Y-87945833D01*
X140494071Y-87898214D01*
X140636928Y-87898214D01*
X140732166Y-87945833D01*
X140779785Y-87993452D01*
X140827404Y-88088690D01*
X140827404Y-88374404D01*
X140779785Y-88469642D01*
X140732166Y-88517261D01*
X140636928Y-88564880D01*
X140494071Y-88564880D01*
X145565500Y-86964880D02*
X145565500Y-86298214D01*
X145565500Y-85964880D02*
X145517880Y-86012500D01*
X145565500Y-86060119D01*
X145613119Y-86012500D01*
X145565500Y-85964880D01*
X145565500Y-86060119D01*
X121134547Y-86383928D02*
X121896452Y-86383928D01*
X121515500Y-86764880D02*
X121515500Y-86002976D01*
X126134547Y-88183928D02*
X126896452Y-88183928D01*
X121444071Y-88564880D02*
X121348833Y-88517261D01*
X121301214Y-88469642D01*
X121253595Y-88374404D01*
X121253595Y-88088690D01*
X121301214Y-87993452D01*
X121348833Y-87945833D01*
X121444071Y-87898214D01*
X121586928Y-87898214D01*
X121682166Y-87945833D01*
X121729785Y-87993452D01*
X121777404Y-88088690D01*
X121777404Y-88374404D01*
X121729785Y-88469642D01*
X121682166Y-88517261D01*
X121586928Y-88564880D01*
X121444071Y-88564880D01*
X126515500Y-86964880D02*
X126515500Y-86298214D01*
X126515500Y-85964880D02*
X126467880Y-86012500D01*
X126515500Y-86060119D01*
X126563119Y-86012500D01*
X126515500Y-85964880D01*
X126515500Y-86060119D01*
X107465500Y-86964880D02*
X107465500Y-86298214D01*
X107465500Y-85964880D02*
X107417880Y-86012500D01*
X107465500Y-86060119D01*
X107513119Y-86012500D01*
X107465500Y-85964880D01*
X107465500Y-86060119D01*
X102394071Y-88564880D02*
X102298833Y-88517261D01*
X102251214Y-88469642D01*
X102203595Y-88374404D01*
X102203595Y-88088690D01*
X102251214Y-87993452D01*
X102298833Y-87945833D01*
X102394071Y-87898214D01*
X102536928Y-87898214D01*
X102632166Y-87945833D01*
X102679785Y-87993452D01*
X102727404Y-88088690D01*
X102727404Y-88374404D01*
X102679785Y-88469642D01*
X102632166Y-88517261D01*
X102536928Y-88564880D01*
X102394071Y-88564880D01*
X107084547Y-88183928D02*
X107846452Y-88183928D01*
X102084547Y-86383928D02*
X102846452Y-86383928D01*
X102465500Y-86764880D02*
X102465500Y-86002976D01*
%TD*%
%LPC*%
D15*
%TO.C,LED1*%
X160750500Y-88202500D03*
X163480500Y-88202500D03*
X160750500Y-86422500D03*
X163480500Y-86422500D03*
%TD*%
%TO.C,LED1*%
X141700500Y-88202500D03*
X144430500Y-88202500D03*
X141700500Y-86422500D03*
X144430500Y-86422500D03*
%TD*%
%TO.C,LED1*%
X122650500Y-88202500D03*
X125380500Y-88202500D03*
X122650500Y-86422500D03*
X125380500Y-86422500D03*
%TD*%
D16*
%TO.C,SW1*%
X167195500Y-96202500D03*
X157035500Y-96202500D03*
D17*
X162115500Y-96202500D03*
D18*
X158305500Y-93662500D03*
X164655500Y-91122500D03*
%TD*%
D16*
%TO.C,SW1*%
X148145500Y-96202500D03*
X137985500Y-96202500D03*
D17*
X143065500Y-96202500D03*
D18*
X139255500Y-93662500D03*
X145605500Y-91122500D03*
%TD*%
D16*
%TO.C,SW1*%
X129095500Y-96202500D03*
X118935500Y-96202500D03*
D17*
X124015500Y-96202500D03*
D18*
X120205500Y-93662500D03*
X126555500Y-91122500D03*
%TD*%
D19*
%TO.C,J4*%
X170624500Y-94932500D03*
X170624500Y-92932500D03*
X170624500Y-90932500D03*
X170624500Y-88932500D03*
X170624500Y-96932500D03*
X170624500Y-86932500D03*
X170624500Y-98932500D03*
X170624500Y-100932500D03*
X170624500Y-102932500D03*
%TD*%
%TO.C,J4*%
X151574500Y-94932500D03*
X151574500Y-92932500D03*
X151574500Y-90932500D03*
X151574500Y-88932500D03*
X151574500Y-96932500D03*
X151574500Y-86932500D03*
X151574500Y-98932500D03*
X151574500Y-100932500D03*
X151574500Y-102932500D03*
%TD*%
%TO.C,J4*%
X132524500Y-94932500D03*
X132524500Y-92932500D03*
X132524500Y-90932500D03*
X132524500Y-88932500D03*
X132524500Y-96932500D03*
X132524500Y-86932500D03*
X132524500Y-98932500D03*
X132524500Y-100932500D03*
X132524500Y-102932500D03*
%TD*%
D20*
%TO.C,J2*%
X168084500Y-86169500D03*
%TD*%
%TO.C,J2*%
X149034500Y-86169500D03*
%TD*%
%TO.C,J2*%
X129984500Y-86169500D03*
%TD*%
D19*
%TO.C,J3*%
X153606500Y-94932500D03*
X153606500Y-92932500D03*
X153606500Y-90932500D03*
X153606500Y-88932500D03*
X153606500Y-96932500D03*
X153606500Y-86932500D03*
X153606500Y-98932500D03*
X153606500Y-100932500D03*
X153606500Y-102932500D03*
%TD*%
%TO.C,J3*%
X134556500Y-94932500D03*
X134556500Y-92932500D03*
X134556500Y-90932500D03*
X134556500Y-88932500D03*
X134556500Y-96932500D03*
X134556500Y-86932500D03*
X134556500Y-98932500D03*
X134556500Y-100932500D03*
X134556500Y-102932500D03*
%TD*%
%TO.C,J3*%
X115506500Y-94932500D03*
X115506500Y-92932500D03*
X115506500Y-90932500D03*
X115506500Y-88932500D03*
X115506500Y-96932500D03*
X115506500Y-86932500D03*
X115506500Y-98932500D03*
X115506500Y-100932500D03*
X115506500Y-102932500D03*
%TD*%
D20*
%TO.C,J7*%
X156146500Y-103695500D03*
%TD*%
%TO.C,J7*%
X137096500Y-103695500D03*
%TD*%
%TO.C,J7*%
X118046500Y-103695500D03*
%TD*%
%TO.C,J9*%
X168084500Y-103695500D03*
%TD*%
%TO.C,J9*%
X149034500Y-103695500D03*
%TD*%
%TO.C,J9*%
X129984500Y-103695500D03*
%TD*%
%TO.C,J8*%
X156146500Y-86169500D03*
%TD*%
%TO.C,J8*%
X137096500Y-86169500D03*
%TD*%
%TO.C,J8*%
X118046500Y-86169500D03*
%TD*%
D18*
%TO.C,SW1*%
X107505500Y-91122500D03*
X101155500Y-93662500D03*
D17*
X104965500Y-96202500D03*
D16*
X99885500Y-96202500D03*
X110045500Y-96202500D03*
%TD*%
D19*
%TO.C,J4*%
X113474500Y-102932500D03*
X113474500Y-100932500D03*
X113474500Y-98932500D03*
X113474500Y-86932500D03*
X113474500Y-96932500D03*
X113474500Y-88932500D03*
X113474500Y-90932500D03*
X113474500Y-92932500D03*
X113474500Y-94932500D03*
%TD*%
%TO.C,J3*%
X96456500Y-102932500D03*
X96456500Y-100932500D03*
X96456500Y-98932500D03*
X96456500Y-86932500D03*
X96456500Y-96932500D03*
X96456500Y-88932500D03*
X96456500Y-90932500D03*
X96456500Y-92932500D03*
X96456500Y-94932500D03*
%TD*%
D20*
%TO.C,J9*%
X110934500Y-103695500D03*
%TD*%
%TO.C,J8*%
X98996500Y-86169500D03*
%TD*%
%TO.C,J7*%
X98996500Y-103695500D03*
%TD*%
%TO.C,J2*%
X110934500Y-86169500D03*
%TD*%
D15*
%TO.C,LED1*%
X106330500Y-86422500D03*
X103600500Y-86422500D03*
X106330500Y-88202500D03*
X103600500Y-88202500D03*
%TD*%
M02*
