%FSLAX45Y45*%
G04 Gerber Fmt 4.5, Leading zero omitted, Abs format (unit mm)*
G04 Created by KiCad (PCBNEW (5.1.9)-1) date 2021-10-01 07:45:44*
%MOMM*%
%LPD*%
G01*
G04 APERTURE LIST*
%TA.AperFunction,Profile*%
%ADD10C,0.050000*%
%TD*%
%ADD11C,0.200000*%
%ADD12C,0.300000*%
G04 APERTURE END LIST*
D10*
X17164050Y-8540750D02*
X17164050Y-10445750D01*
X15792450Y-10217150D02*
G75*
G02*
X15792450Y-10039350I0J88900D01*
G01*
X13887450Y-10217150D02*
G75*
G02*
X13887450Y-10039350I0J88900D01*
G01*
X11982450Y-10217150D02*
G75*
G02*
X11982450Y-10039350I0J88900D01*
G01*
X16630650Y-10217150D02*
X15792450Y-10217150D01*
X14725650Y-10217150D02*
X13887450Y-10217150D01*
X12820650Y-10217150D02*
X11982450Y-10217150D01*
X17164050Y-10445750D02*
X15259050Y-10445750D01*
X15259050Y-10445750D02*
X13354050Y-10445750D01*
X13354050Y-10445750D02*
X11449050Y-10445750D01*
X17164050Y-8540750D02*
X15259050Y-8540750D01*
X15259050Y-8540750D02*
X13354050Y-8540750D01*
X13354050Y-8540750D02*
X11449050Y-8540750D01*
X16630650Y-10039350D02*
G75*
G02*
X16630650Y-10217150I0J-88900D01*
G01*
X14725650Y-10039350D02*
G75*
G02*
X14725650Y-10217150I0J-88900D01*
G01*
X12820650Y-10039350D02*
G75*
G02*
X12820650Y-10217150I0J-88900D01*
G01*
X16630650Y-10039350D02*
X15792450Y-10039350D01*
X14725650Y-10039350D02*
X13887450Y-10039350D01*
X12820650Y-10039350D02*
X11982450Y-10039350D01*
X10915650Y-10039350D02*
G75*
G02*
X10915650Y-10217150I0J-88900D01*
G01*
X10077450Y-10217150D02*
G75*
G02*
X10077450Y-10039350I0J88900D01*
G01*
X10915650Y-10217150D02*
X10077450Y-10217150D01*
X10915650Y-10039350D02*
X10077450Y-10039350D01*
X11449050Y-10445750D02*
X9544050Y-10445750D01*
X11449050Y-8540750D02*
X9544050Y-8540750D01*
X9544050Y-8540750D02*
X9544050Y-10445750D01*
D11*
X9903550Y-9535250D02*
X10073550Y-9705250D01*
X10073550Y-9535250D02*
X9903550Y-9705250D01*
X10919550Y-9535250D02*
X11089550Y-9705250D01*
X11089550Y-9535250D02*
X10919550Y-9705250D01*
X11808550Y-9535250D02*
X11978550Y-9705250D01*
X11978550Y-9535250D02*
X11808550Y-9705250D01*
X12824550Y-9535250D02*
X12994550Y-9705250D01*
X12994550Y-9535250D02*
X12824550Y-9705250D01*
X13713550Y-9535250D02*
X13883550Y-9705250D01*
X13883550Y-9535250D02*
X13713550Y-9705250D01*
X14729550Y-9535250D02*
X14899550Y-9705250D01*
X14899550Y-9535250D02*
X14729550Y-9705250D01*
X15618550Y-9535250D02*
X15788550Y-9705250D01*
X15788550Y-9535250D02*
X15618550Y-9705250D01*
X16634550Y-9535250D02*
X16804550Y-9705250D01*
X16804550Y-9535250D02*
X16634550Y-9705250D01*
X10696550Y-9620250D02*
G75*
G03*
X10696550Y-9620250I-200000J0D01*
G01*
X12601550Y-9620250D02*
G75*
G03*
X12601550Y-9620250I-200000J0D01*
G01*
X14506550Y-9620250D02*
G75*
G03*
X14506550Y-9620250I-200000J0D01*
G01*
X16411550Y-9620250D02*
G75*
G03*
X16411550Y-9620250I-200000J0D01*
G01*
D12*
X9827978Y-10913964D02*
X9827978Y-10613964D01*
X9899407Y-10613964D01*
X9942264Y-10628250D01*
X9970836Y-10656822D01*
X9985121Y-10685393D01*
X9999407Y-10742536D01*
X9999407Y-10785393D01*
X9985121Y-10842536D01*
X9970836Y-10871107D01*
X9942264Y-10899679D01*
X9899407Y-10913964D01*
X9827978Y-10913964D01*
X10127978Y-10913964D02*
X10127978Y-10713964D01*
X10127978Y-10771107D02*
X10142264Y-10742536D01*
X10156550Y-10728250D01*
X10185121Y-10713964D01*
X10213693Y-10713964D01*
X10313693Y-10913964D02*
X10313693Y-10713964D01*
X10313693Y-10613964D02*
X10299407Y-10628250D01*
X10313693Y-10642536D01*
X10327978Y-10628250D01*
X10313693Y-10613964D01*
X10313693Y-10642536D01*
X10499407Y-10913964D02*
X10470836Y-10899679D01*
X10456550Y-10871107D01*
X10456550Y-10613964D01*
X10656550Y-10913964D02*
X10627978Y-10899679D01*
X10613693Y-10871107D01*
X10613693Y-10613964D01*
X10999407Y-10913964D02*
X10999407Y-10613964D01*
X11099407Y-10828250D01*
X11199407Y-10613964D01*
X11199407Y-10913964D01*
X11470836Y-10913964D02*
X11470836Y-10756822D01*
X11456550Y-10728250D01*
X11427978Y-10713964D01*
X11370836Y-10713964D01*
X11342264Y-10728250D01*
X11470836Y-10899679D02*
X11442264Y-10913964D01*
X11370836Y-10913964D01*
X11342264Y-10899679D01*
X11327978Y-10871107D01*
X11327978Y-10842536D01*
X11342264Y-10813964D01*
X11370836Y-10799679D01*
X11442264Y-10799679D01*
X11470836Y-10785393D01*
X11613693Y-10713964D02*
X11613693Y-11013964D01*
X11613693Y-10728250D02*
X11642264Y-10713964D01*
X11699407Y-10713964D01*
X11727978Y-10728250D01*
X11742264Y-10742536D01*
X11756550Y-10771107D01*
X11756550Y-10856822D01*
X11742264Y-10885393D01*
X11727978Y-10899679D01*
X11699407Y-10913964D01*
X11642264Y-10913964D01*
X11613693Y-10899679D01*
X11885121Y-10885393D02*
X11899407Y-10899679D01*
X11885121Y-10913964D01*
X11870836Y-10899679D01*
X11885121Y-10885393D01*
X11885121Y-10913964D01*
X11885121Y-10728250D02*
X11899407Y-10742536D01*
X11885121Y-10756822D01*
X11870836Y-10742536D01*
X11885121Y-10728250D01*
X11885121Y-10756822D01*
X9371550Y-11323250D02*
X9541550Y-11493250D01*
X9541550Y-11323250D02*
X9371550Y-11493250D01*
X9985121Y-11543964D02*
X9813693Y-11543964D01*
X9899407Y-11543964D02*
X9899407Y-11243964D01*
X9870836Y-11286821D01*
X9842264Y-11315393D01*
X9813693Y-11329679D01*
X10113693Y-11515393D02*
X10127978Y-11529679D01*
X10113693Y-11543964D01*
X10099407Y-11529679D01*
X10113693Y-11515393D01*
X10113693Y-11543964D01*
X10227978Y-11243964D02*
X10427978Y-11243964D01*
X10299407Y-11543964D01*
X10599407Y-11243964D02*
X10627978Y-11243964D01*
X10656550Y-11258250D01*
X10670836Y-11272536D01*
X10685121Y-11301107D01*
X10699407Y-11358250D01*
X10699407Y-11429679D01*
X10685121Y-11486821D01*
X10670836Y-11515393D01*
X10656550Y-11529679D01*
X10627978Y-11543964D01*
X10599407Y-11543964D01*
X10570836Y-11529679D01*
X10556550Y-11515393D01*
X10542264Y-11486821D01*
X10527978Y-11429679D01*
X10527978Y-11358250D01*
X10542264Y-11301107D01*
X10556550Y-11272536D01*
X10570836Y-11258250D01*
X10599407Y-11243964D01*
X10827978Y-11543964D02*
X10827978Y-11343964D01*
X10827978Y-11372536D02*
X10842264Y-11358250D01*
X10870836Y-11343964D01*
X10913693Y-11343964D01*
X10942264Y-11358250D01*
X10956550Y-11386821D01*
X10956550Y-11543964D01*
X10956550Y-11386821D02*
X10970836Y-11358250D01*
X10999407Y-11343964D01*
X11042264Y-11343964D01*
X11070836Y-11358250D01*
X11085121Y-11386821D01*
X11085121Y-11543964D01*
X11227978Y-11543964D02*
X11227978Y-11343964D01*
X11227978Y-11372536D02*
X11242264Y-11358250D01*
X11270836Y-11343964D01*
X11313693Y-11343964D01*
X11342264Y-11358250D01*
X11356550Y-11386821D01*
X11356550Y-11543964D01*
X11356550Y-11386821D02*
X11370836Y-11358250D01*
X11399407Y-11343964D01*
X11442264Y-11343964D01*
X11470836Y-11358250D01*
X11485121Y-11386821D01*
X11485121Y-11543964D01*
X12070836Y-11229679D02*
X11813693Y-11615393D01*
X12456550Y-11243964D02*
X12485121Y-11243964D01*
X12513693Y-11258250D01*
X12527978Y-11272536D01*
X12542264Y-11301107D01*
X12556550Y-11358250D01*
X12556550Y-11429679D01*
X12542264Y-11486821D01*
X12527978Y-11515393D01*
X12513693Y-11529679D01*
X12485121Y-11543964D01*
X12456550Y-11543964D01*
X12427978Y-11529679D01*
X12413693Y-11515393D01*
X12399407Y-11486821D01*
X12385121Y-11429679D01*
X12385121Y-11358250D01*
X12399407Y-11301107D01*
X12413693Y-11272536D01*
X12427978Y-11258250D01*
X12456550Y-11243964D01*
X12685121Y-11515393D02*
X12699407Y-11529679D01*
X12685121Y-11543964D01*
X12670836Y-11529679D01*
X12685121Y-11515393D01*
X12685121Y-11543964D01*
X12885121Y-11243964D02*
X12913693Y-11243964D01*
X12942264Y-11258250D01*
X12956550Y-11272536D01*
X12970836Y-11301107D01*
X12985121Y-11358250D01*
X12985121Y-11429679D01*
X12970836Y-11486821D01*
X12956550Y-11515393D01*
X12942264Y-11529679D01*
X12913693Y-11543964D01*
X12885121Y-11543964D01*
X12856550Y-11529679D01*
X12842264Y-11515393D01*
X12827978Y-11486821D01*
X12813693Y-11429679D01*
X12813693Y-11358250D01*
X12827978Y-11301107D01*
X12842264Y-11272536D01*
X12856550Y-11258250D01*
X12885121Y-11243964D01*
X13242264Y-11243964D02*
X13185121Y-11243964D01*
X13156550Y-11258250D01*
X13142264Y-11272536D01*
X13113693Y-11315393D01*
X13099407Y-11372536D01*
X13099407Y-11486821D01*
X13113693Y-11515393D01*
X13127978Y-11529679D01*
X13156550Y-11543964D01*
X13213693Y-11543964D01*
X13242264Y-11529679D01*
X13256550Y-11515393D01*
X13270836Y-11486821D01*
X13270836Y-11415393D01*
X13256550Y-11386821D01*
X13242264Y-11372536D01*
X13213693Y-11358250D01*
X13156550Y-11358250D01*
X13127978Y-11372536D01*
X13113693Y-11386821D01*
X13099407Y-11415393D01*
X13370836Y-11243964D02*
X13570836Y-11243964D01*
X13442264Y-11543964D01*
X13670836Y-11243964D02*
X13670836Y-11301107D01*
X13785121Y-11243964D02*
X13785121Y-11301107D01*
X14227978Y-11658250D02*
X14213693Y-11643964D01*
X14185121Y-11601107D01*
X14170836Y-11572536D01*
X14156550Y-11529679D01*
X14142264Y-11458250D01*
X14142264Y-11401107D01*
X14156550Y-11329679D01*
X14170836Y-11286821D01*
X14185121Y-11258250D01*
X14213693Y-11215393D01*
X14227978Y-11201107D01*
X14385121Y-11372536D02*
X14356550Y-11358250D01*
X14342264Y-11343964D01*
X14327978Y-11315393D01*
X14327978Y-11301107D01*
X14342264Y-11272536D01*
X14356550Y-11258250D01*
X14385121Y-11243964D01*
X14442264Y-11243964D01*
X14470836Y-11258250D01*
X14485121Y-11272536D01*
X14499407Y-11301107D01*
X14499407Y-11315393D01*
X14485121Y-11343964D01*
X14470836Y-11358250D01*
X14442264Y-11372536D01*
X14385121Y-11372536D01*
X14356550Y-11386821D01*
X14342264Y-11401107D01*
X14327978Y-11429679D01*
X14327978Y-11486821D01*
X14342264Y-11515393D01*
X14356550Y-11529679D01*
X14385121Y-11543964D01*
X14442264Y-11543964D01*
X14470836Y-11529679D01*
X14485121Y-11515393D01*
X14499407Y-11486821D01*
X14499407Y-11429679D01*
X14485121Y-11401107D01*
X14470836Y-11386821D01*
X14442264Y-11372536D01*
X14856550Y-11543964D02*
X14856550Y-11243964D01*
X14985121Y-11543964D02*
X14985121Y-11386821D01*
X14970836Y-11358250D01*
X14942264Y-11343964D01*
X14899407Y-11343964D01*
X14870836Y-11358250D01*
X14856550Y-11372536D01*
X15170836Y-11543964D02*
X15142264Y-11529679D01*
X15127978Y-11515393D01*
X15113693Y-11486821D01*
X15113693Y-11401107D01*
X15127978Y-11372536D01*
X15142264Y-11358250D01*
X15170836Y-11343964D01*
X15213693Y-11343964D01*
X15242264Y-11358250D01*
X15256550Y-11372536D01*
X15270836Y-11401107D01*
X15270836Y-11486821D01*
X15256550Y-11515393D01*
X15242264Y-11529679D01*
X15213693Y-11543964D01*
X15170836Y-11543964D01*
X15442264Y-11543964D02*
X15413693Y-11529679D01*
X15399407Y-11501107D01*
X15399407Y-11243964D01*
X15670836Y-11529679D02*
X15642264Y-11543964D01*
X15585121Y-11543964D01*
X15556550Y-11529679D01*
X15542264Y-11501107D01*
X15542264Y-11386821D01*
X15556550Y-11358250D01*
X15585121Y-11343964D01*
X15642264Y-11343964D01*
X15670836Y-11358250D01*
X15685121Y-11386821D01*
X15685121Y-11415393D01*
X15542264Y-11443964D01*
X15799407Y-11529679D02*
X15827978Y-11543964D01*
X15885121Y-11543964D01*
X15913693Y-11529679D01*
X15927978Y-11501107D01*
X15927978Y-11486821D01*
X15913693Y-11458250D01*
X15885121Y-11443964D01*
X15842264Y-11443964D01*
X15813693Y-11429679D01*
X15799407Y-11401107D01*
X15799407Y-11386821D01*
X15813693Y-11358250D01*
X15842264Y-11343964D01*
X15885121Y-11343964D01*
X15913693Y-11358250D01*
X16027978Y-11658250D02*
X16042264Y-11643964D01*
X16070836Y-11601107D01*
X16085121Y-11572536D01*
X16099407Y-11529679D01*
X16113693Y-11458250D01*
X16113693Y-11401107D01*
X16099407Y-11329679D01*
X16085121Y-11286821D01*
X16070836Y-11258250D01*
X16042264Y-11215393D01*
X16027978Y-11201107D01*
X16570836Y-11658250D02*
X16556550Y-11643964D01*
X16527978Y-11601107D01*
X16513693Y-11572536D01*
X16499407Y-11529679D01*
X16485121Y-11458250D01*
X16485121Y-11401107D01*
X16499407Y-11329679D01*
X16513693Y-11286821D01*
X16527978Y-11258250D01*
X16556550Y-11215393D01*
X16570836Y-11201107D01*
X16685121Y-11343964D02*
X16685121Y-11543964D01*
X16685121Y-11372536D02*
X16699407Y-11358250D01*
X16727978Y-11343964D01*
X16770836Y-11343964D01*
X16799407Y-11358250D01*
X16813693Y-11386821D01*
X16813693Y-11543964D01*
X16999407Y-11543964D02*
X16970836Y-11529679D01*
X16956550Y-11515393D01*
X16942264Y-11486821D01*
X16942264Y-11401107D01*
X16956550Y-11372536D01*
X16970836Y-11358250D01*
X16999407Y-11343964D01*
X17042264Y-11343964D01*
X17070836Y-11358250D01*
X17085121Y-11372536D01*
X17099407Y-11401107D01*
X17099407Y-11486821D01*
X17085121Y-11515393D01*
X17070836Y-11529679D01*
X17042264Y-11543964D01*
X16999407Y-11543964D01*
X17185121Y-11343964D02*
X17299407Y-11343964D01*
X17227978Y-11243964D02*
X17227978Y-11501107D01*
X17242264Y-11529679D01*
X17270836Y-11543964D01*
X17299407Y-11543964D01*
X17627978Y-11343964D02*
X17627978Y-11643964D01*
X17627978Y-11358250D02*
X17656550Y-11343964D01*
X17713693Y-11343964D01*
X17742264Y-11358250D01*
X17756550Y-11372536D01*
X17770836Y-11401107D01*
X17770836Y-11486821D01*
X17756550Y-11515393D01*
X17742264Y-11529679D01*
X17713693Y-11543964D01*
X17656550Y-11543964D01*
X17627978Y-11529679D01*
X17942264Y-11543964D02*
X17913693Y-11529679D01*
X17899407Y-11501107D01*
X17899407Y-11243964D01*
X18185121Y-11543964D02*
X18185121Y-11386821D01*
X18170836Y-11358250D01*
X18142264Y-11343964D01*
X18085121Y-11343964D01*
X18056550Y-11358250D01*
X18185121Y-11529679D02*
X18156550Y-11543964D01*
X18085121Y-11543964D01*
X18056550Y-11529679D01*
X18042264Y-11501107D01*
X18042264Y-11472536D01*
X18056550Y-11443964D01*
X18085121Y-11429679D01*
X18156550Y-11429679D01*
X18185121Y-11415393D01*
X18285121Y-11343964D02*
X18399407Y-11343964D01*
X18327978Y-11243964D02*
X18327978Y-11501107D01*
X18342264Y-11529679D01*
X18370836Y-11543964D01*
X18399407Y-11543964D01*
X18613693Y-11529679D02*
X18585121Y-11543964D01*
X18527978Y-11543964D01*
X18499407Y-11529679D01*
X18485121Y-11501107D01*
X18485121Y-11386821D01*
X18499407Y-11358250D01*
X18527978Y-11343964D01*
X18585121Y-11343964D01*
X18613693Y-11358250D01*
X18627978Y-11386821D01*
X18627978Y-11415393D01*
X18485121Y-11443964D01*
X18885121Y-11543964D02*
X18885121Y-11243964D01*
X18885121Y-11529679D02*
X18856550Y-11543964D01*
X18799407Y-11543964D01*
X18770836Y-11529679D01*
X18756550Y-11515393D01*
X18742264Y-11486821D01*
X18742264Y-11401107D01*
X18756550Y-11372536D01*
X18770836Y-11358250D01*
X18799407Y-11343964D01*
X18856550Y-11343964D01*
X18885121Y-11358250D01*
X18999407Y-11658250D02*
X19013693Y-11643964D01*
X19042264Y-11601107D01*
X19056550Y-11572536D01*
X19070836Y-11529679D01*
X19085121Y-11458250D01*
X19085121Y-11401107D01*
X19070836Y-11329679D01*
X19056550Y-11286821D01*
X19042264Y-11258250D01*
X19013693Y-11215393D01*
X18999407Y-11201107D01*
X9541550Y-11804250D02*
G75*
G03*
X9541550Y-11804250I-200000J0D01*
G01*
X9956550Y-11739964D02*
X9956550Y-11939964D01*
X9885121Y-11625679D02*
X9813693Y-11839964D01*
X9999407Y-11839964D01*
X10113693Y-11911393D02*
X10127978Y-11925679D01*
X10113693Y-11939964D01*
X10099407Y-11925679D01*
X10113693Y-11911393D01*
X10113693Y-11939964D01*
X10313693Y-11639964D02*
X10342264Y-11639964D01*
X10370836Y-11654250D01*
X10385121Y-11668536D01*
X10399407Y-11697107D01*
X10413693Y-11754250D01*
X10413693Y-11825679D01*
X10399407Y-11882821D01*
X10385121Y-11911393D01*
X10370836Y-11925679D01*
X10342264Y-11939964D01*
X10313693Y-11939964D01*
X10285121Y-11925679D01*
X10270836Y-11911393D01*
X10256550Y-11882821D01*
X10242264Y-11825679D01*
X10242264Y-11754250D01*
X10256550Y-11697107D01*
X10270836Y-11668536D01*
X10285121Y-11654250D01*
X10313693Y-11639964D01*
X10599407Y-11639964D02*
X10627978Y-11639964D01*
X10656550Y-11654250D01*
X10670836Y-11668536D01*
X10685121Y-11697107D01*
X10699407Y-11754250D01*
X10699407Y-11825679D01*
X10685121Y-11882821D01*
X10670836Y-11911393D01*
X10656550Y-11925679D01*
X10627978Y-11939964D01*
X10599407Y-11939964D01*
X10570836Y-11925679D01*
X10556550Y-11911393D01*
X10542264Y-11882821D01*
X10527978Y-11825679D01*
X10527978Y-11754250D01*
X10542264Y-11697107D01*
X10556550Y-11668536D01*
X10570836Y-11654250D01*
X10599407Y-11639964D01*
X10827978Y-11939964D02*
X10827978Y-11739964D01*
X10827978Y-11768536D02*
X10842264Y-11754250D01*
X10870836Y-11739964D01*
X10913693Y-11739964D01*
X10942264Y-11754250D01*
X10956550Y-11782821D01*
X10956550Y-11939964D01*
X10956550Y-11782821D02*
X10970836Y-11754250D01*
X10999407Y-11739964D01*
X11042264Y-11739964D01*
X11070836Y-11754250D01*
X11085121Y-11782821D01*
X11085121Y-11939964D01*
X11227978Y-11939964D02*
X11227978Y-11739964D01*
X11227978Y-11768536D02*
X11242264Y-11754250D01*
X11270836Y-11739964D01*
X11313693Y-11739964D01*
X11342264Y-11754250D01*
X11356550Y-11782821D01*
X11356550Y-11939964D01*
X11356550Y-11782821D02*
X11370836Y-11754250D01*
X11399407Y-11739964D01*
X11442264Y-11739964D01*
X11470836Y-11754250D01*
X11485121Y-11782821D01*
X11485121Y-11939964D01*
X12070836Y-11625679D02*
X11813693Y-12011393D01*
X12456550Y-11639964D02*
X12485121Y-11639964D01*
X12513693Y-11654250D01*
X12527978Y-11668536D01*
X12542264Y-11697107D01*
X12556550Y-11754250D01*
X12556550Y-11825679D01*
X12542264Y-11882821D01*
X12527978Y-11911393D01*
X12513693Y-11925679D01*
X12485121Y-11939964D01*
X12456550Y-11939964D01*
X12427978Y-11925679D01*
X12413693Y-11911393D01*
X12399407Y-11882821D01*
X12385121Y-11825679D01*
X12385121Y-11754250D01*
X12399407Y-11697107D01*
X12413693Y-11668536D01*
X12427978Y-11654250D01*
X12456550Y-11639964D01*
X12685121Y-11911393D02*
X12699407Y-11925679D01*
X12685121Y-11939964D01*
X12670836Y-11925679D01*
X12685121Y-11911393D01*
X12685121Y-11939964D01*
X12985121Y-11939964D02*
X12813693Y-11939964D01*
X12899407Y-11939964D02*
X12899407Y-11639964D01*
X12870836Y-11682821D01*
X12842264Y-11711393D01*
X12813693Y-11725679D01*
X13256550Y-11639964D02*
X13113693Y-11639964D01*
X13099407Y-11782821D01*
X13113693Y-11768536D01*
X13142264Y-11754250D01*
X13213693Y-11754250D01*
X13242264Y-11768536D01*
X13256550Y-11782821D01*
X13270836Y-11811393D01*
X13270836Y-11882821D01*
X13256550Y-11911393D01*
X13242264Y-11925679D01*
X13213693Y-11939964D01*
X13142264Y-11939964D01*
X13113693Y-11925679D01*
X13099407Y-11911393D01*
X13370836Y-11639964D02*
X13570836Y-11639964D01*
X13442264Y-11939964D01*
X13670836Y-11639964D02*
X13670836Y-11697107D01*
X13785121Y-11639964D02*
X13785121Y-11697107D01*
X14227978Y-12054250D02*
X14213693Y-12039964D01*
X14185121Y-11997107D01*
X14170836Y-11968536D01*
X14156550Y-11925679D01*
X14142264Y-11854250D01*
X14142264Y-11797107D01*
X14156550Y-11725679D01*
X14170836Y-11682821D01*
X14185121Y-11654250D01*
X14213693Y-11611393D01*
X14227978Y-11597107D01*
X14470836Y-11739964D02*
X14470836Y-11939964D01*
X14399407Y-11625679D02*
X14327978Y-11839964D01*
X14513693Y-11839964D01*
X14856550Y-11939964D02*
X14856550Y-11639964D01*
X14985121Y-11939964D02*
X14985121Y-11782821D01*
X14970836Y-11754250D01*
X14942264Y-11739964D01*
X14899407Y-11739964D01*
X14870836Y-11754250D01*
X14856550Y-11768536D01*
X15170836Y-11939964D02*
X15142264Y-11925679D01*
X15127978Y-11911393D01*
X15113693Y-11882821D01*
X15113693Y-11797107D01*
X15127978Y-11768536D01*
X15142264Y-11754250D01*
X15170836Y-11739964D01*
X15213693Y-11739964D01*
X15242264Y-11754250D01*
X15256550Y-11768536D01*
X15270836Y-11797107D01*
X15270836Y-11882821D01*
X15256550Y-11911393D01*
X15242264Y-11925679D01*
X15213693Y-11939964D01*
X15170836Y-11939964D01*
X15442264Y-11939964D02*
X15413693Y-11925679D01*
X15399407Y-11897107D01*
X15399407Y-11639964D01*
X15670836Y-11925679D02*
X15642264Y-11939964D01*
X15585121Y-11939964D01*
X15556550Y-11925679D01*
X15542264Y-11897107D01*
X15542264Y-11782821D01*
X15556550Y-11754250D01*
X15585121Y-11739964D01*
X15642264Y-11739964D01*
X15670836Y-11754250D01*
X15685121Y-11782821D01*
X15685121Y-11811393D01*
X15542264Y-11839964D01*
X15799407Y-11925679D02*
X15827978Y-11939964D01*
X15885121Y-11939964D01*
X15913693Y-11925679D01*
X15927978Y-11897107D01*
X15927978Y-11882821D01*
X15913693Y-11854250D01*
X15885121Y-11839964D01*
X15842264Y-11839964D01*
X15813693Y-11825679D01*
X15799407Y-11797107D01*
X15799407Y-11782821D01*
X15813693Y-11754250D01*
X15842264Y-11739964D01*
X15885121Y-11739964D01*
X15913693Y-11754250D01*
X16027978Y-12054250D02*
X16042264Y-12039964D01*
X16070836Y-11997107D01*
X16085121Y-11968536D01*
X16099407Y-11925679D01*
X16113693Y-11854250D01*
X16113693Y-11797107D01*
X16099407Y-11725679D01*
X16085121Y-11682821D01*
X16070836Y-11654250D01*
X16042264Y-11611393D01*
X16027978Y-11597107D01*
X16570836Y-12054250D02*
X16556550Y-12039964D01*
X16527978Y-11997107D01*
X16513693Y-11968536D01*
X16499407Y-11925679D01*
X16485121Y-11854250D01*
X16485121Y-11797107D01*
X16499407Y-11725679D01*
X16513693Y-11682821D01*
X16527978Y-11654250D01*
X16556550Y-11611393D01*
X16570836Y-11597107D01*
X16685121Y-11739964D02*
X16685121Y-11939964D01*
X16685121Y-11768536D02*
X16699407Y-11754250D01*
X16727978Y-11739964D01*
X16770836Y-11739964D01*
X16799407Y-11754250D01*
X16813693Y-11782821D01*
X16813693Y-11939964D01*
X16999407Y-11939964D02*
X16970836Y-11925679D01*
X16956550Y-11911393D01*
X16942264Y-11882821D01*
X16942264Y-11797107D01*
X16956550Y-11768536D01*
X16970836Y-11754250D01*
X16999407Y-11739964D01*
X17042264Y-11739964D01*
X17070836Y-11754250D01*
X17085121Y-11768536D01*
X17099407Y-11797107D01*
X17099407Y-11882821D01*
X17085121Y-11911393D01*
X17070836Y-11925679D01*
X17042264Y-11939964D01*
X16999407Y-11939964D01*
X17185121Y-11739964D02*
X17299407Y-11739964D01*
X17227978Y-11639964D02*
X17227978Y-11897107D01*
X17242264Y-11925679D01*
X17270836Y-11939964D01*
X17299407Y-11939964D01*
X17627978Y-11739964D02*
X17627978Y-12039964D01*
X17627978Y-11754250D02*
X17656550Y-11739964D01*
X17713693Y-11739964D01*
X17742264Y-11754250D01*
X17756550Y-11768536D01*
X17770836Y-11797107D01*
X17770836Y-11882821D01*
X17756550Y-11911393D01*
X17742264Y-11925679D01*
X17713693Y-11939964D01*
X17656550Y-11939964D01*
X17627978Y-11925679D01*
X17942264Y-11939964D02*
X17913693Y-11925679D01*
X17899407Y-11897107D01*
X17899407Y-11639964D01*
X18185121Y-11939964D02*
X18185121Y-11782821D01*
X18170836Y-11754250D01*
X18142264Y-11739964D01*
X18085121Y-11739964D01*
X18056550Y-11754250D01*
X18185121Y-11925679D02*
X18156550Y-11939964D01*
X18085121Y-11939964D01*
X18056550Y-11925679D01*
X18042264Y-11897107D01*
X18042264Y-11868536D01*
X18056550Y-11839964D01*
X18085121Y-11825679D01*
X18156550Y-11825679D01*
X18185121Y-11811393D01*
X18285121Y-11739964D02*
X18399407Y-11739964D01*
X18327978Y-11639964D02*
X18327978Y-11897107D01*
X18342264Y-11925679D01*
X18370836Y-11939964D01*
X18399407Y-11939964D01*
X18613693Y-11925679D02*
X18585121Y-11939964D01*
X18527978Y-11939964D01*
X18499407Y-11925679D01*
X18485121Y-11897107D01*
X18485121Y-11782821D01*
X18499407Y-11754250D01*
X18527978Y-11739964D01*
X18585121Y-11739964D01*
X18613693Y-11754250D01*
X18627978Y-11782821D01*
X18627978Y-11811393D01*
X18485121Y-11839964D01*
X18885121Y-11939964D02*
X18885121Y-11639964D01*
X18885121Y-11925679D02*
X18856550Y-11939964D01*
X18799407Y-11939964D01*
X18770836Y-11925679D01*
X18756550Y-11911393D01*
X18742264Y-11882821D01*
X18742264Y-11797107D01*
X18756550Y-11768536D01*
X18770836Y-11754250D01*
X18799407Y-11739964D01*
X18856550Y-11739964D01*
X18885121Y-11754250D01*
X18999407Y-12054250D02*
X19013693Y-12039964D01*
X19042264Y-11997107D01*
X19056550Y-11968536D01*
X19070836Y-11925679D01*
X19085121Y-11854250D01*
X19085121Y-11797107D01*
X19070836Y-11725679D01*
X19056550Y-11682821D01*
X19042264Y-11654250D01*
X19013693Y-11611393D01*
X18999407Y-11597107D01*
M02*
