<?xml version="1.0" standalone="no"?>
 <!DOCTYPE svg PUBLIC "-//W3C//DTD SVG 1.1//EN" 
 "http://www.w3.org/Graphics/SVG/1.1/DTD/svg11.dtd"> 
<svg
  xmlns:svg="http://www.w3.org/2000/svg"
  xmlns="http://www.w3.org/2000/svg"
  xmlns:xlink="http://www.w3.org/1999/xlink"
  version="1.1"
  width="18.211800cm" height="12.908280cm" viewBox="0 0 182118000 129082800">
<title>SVG Picture created as poly_kb_wave_left-User_2.svg date 2022/05/12 21:25:31 </title>
  <desc>Picture generated by PCBNEW </desc>
<g style="fill:#000000; fill-opacity:1.000000;stroke:#000000; stroke-opacity:1.000000;
stroke-linecap:round; stroke-linejoin:round;"
 transform="translate(0 0) scale(1 1)">
</g>
<g style="fill:#000000; fill-opacity:0.0; 
stroke:#000000; stroke-width:0.000000; stroke-opacity:1; 
stroke-linecap:round; stroke-linejoin:round;">
</g>
<g style="fill:#000000; fill-opacity:0.0; 
stroke:#000000; stroke-width:100000.000000; stroke-opacity:1; 
stroke-linecap:round; stroke-linejoin:round;">
<path d="M93623000 8950000
L94258000 8315000
" />
<path d="M89813000 8950000
L93623000 8950000
" />
<path d="M88543000 7680000
L89813000 8950000
" />
<path d="M88543000 5140000
L88543000 7680000
" />
<path d="M12978000 7680000
L5358000 15300000
" />
<path d="M14248000 7680000
L12978000 7680000
" />
<path d="M26313000 7680000
L14248000 7680000
" />
<path d="M46633000 7045000
L39013000 7045000
" />
<path d="M4088000 59115000
L5358000 60385000
" />
<path d="M4088000 16570000
L4088000 59115000
" />
<path d="M5358000 15300000
L4088000 16570000
" />
<path d="M86638000 109915000
L86638000 106740000
" />
<path d="M87908000 111185000
L86638000 109915000
" />
<path d="M97433000 111185000
L87908000 111185000
" />
<path d="M98703000 109915000
L97433000 111185000
" />
<path d="M98703000 107375000
L98703000 109915000
" />
<path d="M54253000 108010000
L54253000 105470000
" />
<path d="M55523000 109280000
L54253000 108010000
" />
<path d="M67588000 109280000
L55523000 109280000
" />
<path d="M68858000 108010000
L67588000 109280000
" />
<path d="M68858000 106105000
L68858000 108010000
" />
<path d="M179348000 3235000
L179348000 59115000
" />
<path d="M153313000 6410000
L153313000 1965000
" />
<path d="M136168000 5140000
L153313000 6410000
" />
<path d="M135533000 4505000
L136168000 5140000
" />
<path d="M134898000 3870000
L135533000 4505000
" />
<path d="M132993000 3870000
L134898000 3870000
" />
<path d="M131723000 3235000
L132993000 3870000
" />
<path d="M116483000 3235000
L131723000 3235000
" />
<path d="M114578000 1330000
L116483000 3235000
" />
<path d="M101243000 1330000
L114578000 1330000
" />
<path d="M96798000 5775000
L101243000 1330000
" />
<path d="M94258000 8315000
L96798000 5775000
" />
<path d="M86638000 3235000
L88543000 5140000
" />
<path d="M67588000 3235000
L86638000 3235000
" />
<path d="M65683000 3235000
L67588000 3235000
" />
<path d="M63778000 1330000
L65683000 3235000
" />
<path d="M61873000 1330000
L63778000 1330000
" />
<path d="M59968000 2600000
L61873000 1330000
" />
<path d="M55523000 2600000
L59968000 2600000
" />
<path d="M54888000 3235000
L55523000 2600000
" />
<path d="M47903000 3235000
L54888000 3235000
" />
<path d="M46633000 4505000
L47903000 3235000
" />
<path d="M46633000 7045000
L46633000 4505000
" />
<path d="M39013000 5775000
L39013000 7045000
" />
<path d="M37995298 3670535
L39013000 5775000
" />
<path d="M35203000 3870000
L37995298 3670535
" />
<path d="M33298000 6410000
L35203000 3870000
" />
<path d="M33298000 8315000
L33298000 6410000
" />
<path d="M31393000 8315000
L33298000 8315000
" />
<path d="M31393000 6410000
L31393000 8315000
" />
<path d="M29731788 4450978
L31393000 6410000
" />
<path d="M27583000 4505000
L29731788 4450978
" />
<path d="M26313000 5775000
L27583000 4505000
" />
<path d="M26313000 7680000
L26313000 5775000
" />
</g>
<g style="fill:#000000; fill-opacity:0.0; 
stroke:#000000; stroke-width:150000.000000; stroke-opacity:1; 
stroke-linecap:round; stroke-linejoin:round;">
<circle cx="30867254.000000" cy="45471242.000000" r="1524000.000000" /> 
<path d="M167048000 52850000
L182048000 52850000
" />
<path d="M167048000 39050000
L167048000 52850000
" />
<path d="M182048000 39050000
L167048000 39050000
" />
<circle cx="100100000.000000" cy="88007500.000000" r="1524000.000000" /> 
<circle cx="10048000.000000" cy="105050000.000000" r="1500000.000000" /> 
<circle cx="92480000.000000" cy="4568500.000000" r="1524000.000000" /> 
<circle cx="177062000.000000" cy="76006000.000000" r="1524000.000000" /> 
<circle cx="161060000.000000" cy="124012000.000000" r="1524000.000000" /> 
<circle cx="5040500.000000" cy="11045500.000000" r="1524000.000000" /> 
</g>
<g style="fill:#000000; fill-opacity:0.0; 
stroke:#000000; stroke-width:50000.000000; stroke-opacity:1; 
stroke-linecap:round; stroke-linejoin:round;">
<path d="M142191000 44751300
L134209000 44751300
" />
<path d="M46941000 82851300
L38959000 82851300
" />
<path d="M46941000 25701300
L38959000 25701300
" />
</g>
<g style="fill:#000000; fill-opacity:0.0; 
stroke:#000000; stroke-width:100000.000000; stroke-opacity:1; 
stroke-linecap:round; stroke-linejoin:round;">
<path d="M161050000 129052800
L163050000 129052800
" />
</g>
<g style="fill:#000000; fill-opacity:0.0; 
stroke:#000000; stroke-width:50000.000000; stroke-opacity:1; 
stroke-linecap:round; stroke-linejoin:round;">
<path d="M164642609.359871 98304894.530111 A888985.000000 888985.000000 0.0 0 0 165250710.910860 96634149.244855" />
<path d="M27891000.000000 103679300.000000 A889000.000000 889000.000000 0.0 0 0 27891000.000000 101901300.000000" />
<path d="M115159000.000000 82851300.000000 A889000.000000 889000.000000 0.0 0 0 115159000.000000 84629300.000000" />
<path d="M46941000.000000 65579300.000000 A889000.000000 889000.000000 0.0 0 0 46941000.000000 63801300.000000" />
</g>
<g style="fill:#000000; fill-opacity:0.0; 
stroke:#000000; stroke-width:100000.000000; stroke-opacity:1; 
stroke-linecap:round; stroke-linejoin:round;">
<path d="M182050000 80052800
L182050000 6052800
" />
<path d="M50000 89052800
L6050000 108052800
" />
</g>
<g style="fill:#000000; fill-opacity:0.0; 
stroke:#000000; stroke-width:50000.000000; stroke-opacity:1; 
stroke-linecap:round; stroke-linejoin:round;">
<path d="M46941000.000000 84629300.000000 A889000.000000 889000.000000 0.0 0 0 46941000.000000 82851300.000000" />
<path d="M46941000 84629300
L38959000 84629300
" />
</g>
<g style="fill:#000000; fill-opacity:0.0; 
stroke:#000000; stroke-width:100000.000000; stroke-opacity:1; 
stroke-linecap:round; stroke-linejoin:round;">
<path d="M1050000 6052800
L71248000 50000
" />
</g>
<g style="fill:#000000; fill-opacity:0.0; 
stroke:#000000; stroke-width:50000.000000; stroke-opacity:1; 
stroke-linecap:round; stroke-linejoin:round;">
<path d="M77059000.000000 78088800.000000 A889000.000000 889000.000000 0.0 0 0 77059000.000000 79866800.000000" />
<path d="M85041000.000000 41766800.000000 A889000.000000 889000.000000 0.0 0 0 85041000.000000 39988800.000000" />
<path d="M15146500.000000 63801300.000000 A889000.000000 889000.000000 0.0 0 0 15146500.000000 65579300.000000" />
<path d="M46941000 103679300
L38959000 103679300
" />
</g>
<g style="fill:#000000; fill-opacity:0.0; 
stroke:#000000; stroke-width:100000.000000; stroke-opacity:1; 
stroke-linecap:round; stroke-linejoin:round;">
<path d="M163050000 129052800
L165050000 128052800
" />
</g>
<g style="fill:#000000; fill-opacity:0.0; 
stroke:#000000; stroke-width:50000.000000; stroke-opacity:1; 
stroke-linecap:round; stroke-linejoin:round;">
<path d="M23128500.000000 27479300.000000 A889000.000000 889000.000000 0.0 0 0 23128500.000000 25701300.000000" />
<path d="M46941000 27479300
L38959000 27479300
" />
</g>
<g style="fill:#000000; fill-opacity:0.0; 
stroke:#000000; stroke-width:100000.000000; stroke-opacity:1; 
stroke-linecap:round; stroke-linejoin:round;">
<path d="M165050000 128052800
L181050000 84052800
" />
</g>
<g style="fill:#000000; fill-opacity:0.0; 
stroke:#000000; stroke-width:50000.000000; stroke-opacity:1; 
stroke-linecap:round; stroke-linejoin:round;">
<path d="M123141000.000000 84629300.000000 A889000.000000 889000.000000 0.0 0 0 123141000.000000 82851300.000000" />
<path d="M96108999.988751 61419950.005625 A889050.000000 889050.000000 0.0 0 0 96109000.000001 63198049.994376" />
<path d="M65991000 23320050
L58009000 23320050
" />
<path d="M38959000.000000 63801300.000000 A889000.000000 889000.000000 0.0 0 0 38959000.000000 65579300.000000" />
<path d="M115159000.000000 25701300.000000 A889000.000000 889000.000000 0.0 0 0 115159000.000000 27479300.000000" />
<path d="M46941000 44751300
L38959000 44751300
" />
<path d="M85041000 79866800
L77059000 79866800
" />
</g>
<g style="fill:#000000; fill-opacity:0.0; 
stroke:#000000; stroke-width:100000.000000; stroke-opacity:1; 
stroke-linecap:round; stroke-linejoin:round;">
<path d="M181050000 84052800
L182050000 80052800
" />
</g>
<g style="fill:#000000; fill-opacity:0.0; 
stroke:#000000; stroke-width:50000.000000; stroke-opacity:1; 
stroke-linecap:round; stroke-linejoin:round;">
<path d="M85041000.000000 60816800.000000 A889000.000000 889000.000000 0.0 0 0 85041000.000000 59038800.000000" />
<path d="M85041000.000000 22716800.000000 A889000.000000 889000.000000 0.0 0 0 85041000.000000 20938800.000000" />
<path d="M96108999.988751 80469950.005625 A889050.000000 889050.000000 0.0 0 0 96109000.000001 82248049.994376" />
<path d="M104090999.988751 44148149.994375 A889050.000000 889050.000000 0.0 1 0 104091000.000001 42370050.005624" />
<path d="M104091000 82248050
L96109000 82248050
" />
<path d="M123141000 27479300
L115159000 27479300
" />
<path d="M65991000 44148050
L58009000 44148050
" />
<path d="M114850055 108828538
L106898429 108132861
" />
<path d="M65990999.988751 101298149.994375 A889050.000000 889050.000000 0.0 1 0 65991000.000001 99520050.005624" />
<path d="M104091000 80470050
L96109000 80470050
" />
<path d="M65990999.988751 44148149.994375 A889050.000000 889050.000000 0.0 1 0 65991000.000001 42370050.005624" />
<path d="M23128500.000000 84629300.000000 A889000.000000 889000.000000 0.0 0 0 23128500.000000 82851300.000000" />
<path d="M38959000.000000 44751300.000000 A889000.000000 889000.000000 0.0 0 0 38959000.000000 46529300.000000" />
</g>
<g style="fill:#000000; fill-opacity:0.0; 
stroke:#000000; stroke-width:100000.000000; stroke-opacity:1; 
stroke-linecap:round; stroke-linejoin:round;">
<path d="M182050000 6052800
L180050000 4052800
" />
</g>
<g style="fill:#000000; fill-opacity:0.0; 
stroke:#000000; stroke-width:50000.000000; stroke-opacity:1; 
stroke-linecap:round; stroke-linejoin:round;">
<path d="M85041000 20938800
L77059000 20938800
" />
<path d="M46941000.000000 27479300.000000 A889000.000000 889000.000000 0.0 0 0 46941000.000000 25701300.000000" />
<path d="M104091000 61420050
L96109000 61420050
" />
<path d="M142191000 25701300
L134209000 25701300
" />
<path d="M136334926 112782723
L128573470 110919362
" />
<path d="M142191000 27479300
L134209000 27479300
" />
<path d="M65990999.988751 63198149.994375 A889050.000000 889050.000000 0.0 1 0 65991000.000001 61420050.005624" />
<path d="M46941000 46529300
L38959000 46529300
" />
<path d="M134209000.000000 44751300.000000 A889000.000000 889000.000000 0.0 0 0 134209000.000000 46529300.000000" />
<path d="M123141000 46529300
L115159000 46529300
" />
<path d="M23128500 44751300
L15146500 44751300
" />
<path d="M107053399.496750 106361541.327682 A889043.000000 889043.000000 0.0 1 0 106898428.985637 108132861.164206" />
<path d="M38959000.000000 101901300.000000 A889000.000000 889000.000000 0.0 0 0 38959000.000000 103679300.000000" />
<path d="M134703546.133125 87473441.628995 A889024.000000 889024.000000 0.0 1 0 134288469.944566 89202362.230909" />
<path d="M123141000 25701300
L115159000 25701300
" />
<path d="M46941000 101901300
L38959000 101901300
" />
<path d="M123141000.000000 27479300.000000 A889000.000000 889000.000000 0.0 0 0 123141000.000000 25701300.000000" />
<path d="M123141000.000000 65579300.000000 A889000.000000 889000.000000 0.0 0 0 123141000.000000 63801300.000000" />
<path d="M123141000 84629300
L115159000 84629300
" />
</g>
<g style="fill:#000000; fill-opacity:0.0; 
stroke:#000000; stroke-width:100000.000000; stroke-opacity:1; 
stroke-linecap:round; stroke-linejoin:round;">
<path d="M121050000 117052800
L161050000 129052800
" />
</g>
<g style="fill:#000000; fill-opacity:0.0; 
stroke:#000000; stroke-width:50000.000000; stroke-opacity:1; 
stroke-linecap:round; stroke-linejoin:round;">
<path d="M85041000 22716800
L77059000 22716800
" />
<path d="M65991000 80470050
L58009000 80470050
" />
<path d="M104091000 44148050
L96109000 44148050
" />
<path d="M15146500.000000 82851300.000000 A889000.000000 889000.000000 0.0 0 0 15146500.000000 84629300.000000" />
<path d="M23128500.000000 46529300.000000 A889000.000000 889000.000000 0.0 0 0 23128500.000000 44751300.000000" />
<path d="M134209000.000000 63801300.000000 A889000.000000 889000.000000 0.0 0 0 134209000.000000 65579300.000000" />
<path d="M65991000 82248050
L58009000 82248050
" />
<path d="M114850058.106218 108828502.478210 A888982.000000 888982.000000 0.0 0 0 115005017.984344 107057304.178856" />
<path d="M65990999.988751 25098149.994375 A889050.000000 889050.000000 0.0 1 0 65991000.000001 23320050.005624" />
<path d="M123141000 44751300
L115159000 44751300
" />
<path d="M85041000 97138800
L77059000 97138800
" />
<path d="M115005018 107057304
L107053392 106361627
" />
<path d="M58009000.011249 23320150.005623 A888950.000000 888950.000000 0.0 0 0 58009000.000001 25098049.994375" />
<path d="M115159000.000000 63801300.000000 A889000.000000 889000.000000 0.0 0 0 115159000.000000 65579300.000000" />
<path d="M164642599 98304923
L157141973 95574918
" />
<path d="M15146500.000000 25701300.000000 A889000.000000 889000.000000 0.0 0 0 15146500.000000 27479300.000000" />
<path d="M23128500.000000 65579300.000000 A889000.000000 889000.000000 0.0 0 0 23128500.000000 63801300.000000" />
<path d="M65991000 63198050
L58009000 63198050
" />
</g>
<g style="fill:#000000; fill-opacity:0.0; 
stroke:#000000; stroke-width:100000.000000; stroke-opacity:1; 
stroke-linecap:round; stroke-linejoin:round;">
<path d="M180050000 4052800
L112748000 50000
" />
</g>
<g style="fill:#000000; fill-opacity:0.0; 
stroke:#000000; stroke-width:50000.000000; stroke-opacity:1; 
stroke-linecap:round; stroke-linejoin:round;">
<path d="M104091000 63198050
L96109000 63198050
" />
<path d="M157750098.297486 93904108.470340 A889019.000000 889019.000000 0.0 1 0 157141973.167157 95574917.540678" />
</g>
<g style="fill:#000000; fill-opacity:0.0; 
stroke:#000000; stroke-width:100000.000000; stroke-opacity:1; 
stroke-linecap:round; stroke-linejoin:round;">
<path d="M71248000 50000
L112748000 50000
" />
</g>
<g style="fill:#000000; fill-opacity:0.0; 
stroke:#000000; stroke-width:50000.000000; stroke-opacity:1; 
stroke-linecap:round; stroke-linejoin:round;">
<path d="M85041000.000000 98916800.000000 A889000.000000 889000.000000 0.0 0 0 85041000.000000 97138800.000000" />
<path d="M123141000 63801300
L115159000 63801300
" />
</g>
<g style="fill:#000000; fill-opacity:0.0; 
stroke:#000000; stroke-width:100000.000000; stroke-opacity:1; 
stroke-linecap:round; stroke-linejoin:round;">
<path d="M52050000 111052800
L121050000 117052800
" />
</g>
<g style="fill:#000000; fill-opacity:0.0; 
stroke:#000000; stroke-width:50000.000000; stroke-opacity:1; 
stroke-linecap:round; stroke-linejoin:round;">
<path d="M136334924.158375 112782730.669279 A889004.000000 889004.000000 0.0 1 0 136749991.954128 111053849.191111" />
<path d="M65991000 99520050
L58009000 99520050
" />
<path d="M134209000.000000 25701300.000000 A889000.000000 889000.000000 0.0 0 0 134209000.000000 27479300.000000" />
<path d="M46941000 63801300
L38959000 63801300
" />
<path d="M58009000.011249 80470150.005623 A888950.000000 888950.000000 0.0 0 0 58009000.000001 82248049.994375" />
<path d="M104091000 25098050
L96109000 25098050
" />
</g>
<g style="fill:#000000; fill-opacity:0.0; 
stroke:#000000; stroke-width:100000.000000; stroke-opacity:1; 
stroke-linecap:round; stroke-linejoin:round;">
<path d="M6050000 108052800
L9050000 111052800
" />
</g>
<g style="fill:#000000; fill-opacity:0.0; 
stroke:#000000; stroke-width:50000.000000; stroke-opacity:1; 
stroke-linecap:round; stroke-linejoin:round;">
<path d="M77059000.000000 20938800.000000 A889000.000000 889000.000000 0.0 0 0 77059000.000000 22716800.000000" />
<path d="M77059000.000000 59038800.000000 A889000.000000 889000.000000 0.0 0 0 77059000.000000 60816800.000000" />
</g>
<g style="fill:#000000; fill-opacity:0.0; 
stroke:#000000; stroke-width:100000.000000; stroke-opacity:1; 
stroke-linecap:round; stroke-linejoin:round;">
<path d="M9050000 111052800
L52050000 111052800
" />
</g>
<g style="fill:#000000; fill-opacity:0.0; 
stroke:#000000; stroke-width:50000.000000; stroke-opacity:1; 
stroke-linecap:round; stroke-linejoin:round;">
<path d="M65991000 101298050
L58009000 101298050
" />
<path d="M23128500 46529300
L15146500 46529300
" />
<path d="M128988546.133125 109190441.628995 A889024.000000 889024.000000 0.0 1 0 128573469.944566 110919362.230909" />
<path d="M104091000 23320050
L96109000 23320050
" />
<path d="M142191000.000000 27479300.000000 A889000.000000 889000.000000 0.0 0 0 142191000.000000 25701300.000000" />
<path d="M77059000.000000 97138800.000000 A889000.000000 889000.000000 0.0 0 0 77059000.000000 98916800.000000" />
<path d="M23128500 84629300
L15146500 84629300
" />
<path d="M142464992 89336849
L134703535 87473488
" />
<path d="M65991000 42370050
L58009000 42370050
" />
<path d="M104090999.988751 25098149.994375 A889050.000000 889050.000000 0.0 1 0 104091000.000001 23320050.005624" />
<path d="M23128500 25701300
L15146500 25701300
" />
<path d="M23128500 63801300
L15146500 63801300
" />
<path d="M85041000 39988800
L77059000 39988800
" />
<path d="M85041000.000000 79866800.000000 A889000.000000 889000.000000 0.0 0 0 85041000.000000 78088800.000000" />
<path d="M142191000.000000 65579300.000000 A889000.000000 889000.000000 0.0 0 0 142191000.000000 63801300.000000" />
<path d="M104090999.988751 63198149.994375 A889050.000000 889050.000000 0.0 1 0 104091000.000001 61420050.005624" />
<path d="M85041000 60816800
L77059000 60816800
" />
<path d="M85041000 41766800
L77059000 41766800
" />
<path d="M38959000.000000 82851300.000000 A889000.000000 889000.000000 0.0 0 0 38959000.000000 84629300.000000" />
<path d="M142191000.000000 46529300.000000 A889000.000000 889000.000000 0.0 0 0 142191000.000000 44751300.000000" />
<path d="M96108999.988751 42369950.005625 A889050.000000 889050.000000 0.0 0 0 96109000.000001 44148049.994376" />
<path d="M142191000 63801300
L134209000 63801300
" />
<path d="M46941000.000000 46529300.000000 A889000.000000 889000.000000 0.0 0 0 46941000.000000 44751300.000000" />
<path d="M77059000.000000 39988800.000000 A889000.000000 889000.000000 0.0 0 0 77059000.000000 41766800.000000" />
<path d="M142049924.158375 91065730.669279 A889004.000000 889004.000000 0.0 1 0 142464991.954128 89336849.191111" />
<path d="M65991000 61420050
L58009000 61420050
" />
<path d="M58009000.011249 61420150.005623 A888950.000000 888950.000000 0.0 0 0 58009000.000001 63198049.994375" />
<path d="M85041000 78088800
L77059000 78088800
" />
<path d="M123141000 65579300
L115159000 65579300
" />
<path d="M85041000 98916800
L77059000 98916800
" />
<path d="M46941000.000000 103679300.000000 A889000.000000 889000.000000 0.0 0 0 46941000.000000 101901300.000000" />
<path d="M156984109.643804 119444582.714289 A889008.000000 889008.000000 0.0 1 0 157592226.927391 117773794.199514" />
<path d="M142049926 91065723
L134288470 89202362
" />
<path d="M27891000 103679300
L19909000 103679300
" />
<path d="M96108999.988751 23319950.005625 A889050.000000 889050.000000 0.0 0 0 96109000.000001 25098049.994376" />
<path d="M136749992 111053849
L128988535 109190488
" />
<path d="M115159000.000000 44751300.000000 A889000.000000 889000.000000 0.0 0 0 115159000.000000 46529300.000000" />
<path d="M85041000 59038800
L77059000 59038800
" />
<path d="M27891000 101901300
L19909000 101901300
" />
<path d="M123141000 82851300
L115159000 82851300
" />
<path d="M23128500 82851300
L15146500 82851300
" />
<path d="M23128500 65579300
L15146500 65579300
" />
<path d="M65991000 25098050
L58009000 25098050
" />
<path d="M104090999.988751 82248149.994375 A889050.000000 889050.000000 0.0 1 0 104091000.000001 80470050.005624" />
<path d="M23128500 27479300
L15146500 27479300
" />
<path d="M142191000 46529300
L134209000 46529300
" />
</g>
<g style="fill:#000000; fill-opacity:0.0; 
stroke:#000000; stroke-width:100000.000000; stroke-opacity:1; 
stroke-linecap:round; stroke-linejoin:round;">
<path d="M50000 7052800
L50000 89052800
" />
</g>
<g style="fill:#000000; fill-opacity:0.0; 
stroke:#000000; stroke-width:50000.000000; stroke-opacity:1; 
stroke-linecap:round; stroke-linejoin:round;">
<path d="M46941000 65579300
L38959000 65579300
" />
<path d="M19909000.000000 101901300.000000 A889000.000000 889000.000000 0.0 0 0 19909000.000000 103679300.000000" />
<path d="M58009000.011249 99520150.005623 A888950.000000 888950.000000 0.0 0 0 58009000.000001 101298049.994375" />
<path d="M104091000 42370050
L96109000 42370050
" />
<path d="M157592227 117773794
L150091601 115043790
" />
<path d="M15146500.000000 44751300.000000 A889000.000000 889000.000000 0.0 0 0 15146500.000000 46529300.000000" />
<path d="M165250711 96634149
L157750085 93904145
" />
<path d="M38959000.000000 25701300.000000 A889000.000000 889000.000000 0.0 0 0 38959000.000000 27479300.000000" />
<path d="M123141000.000000 46529300.000000 A889000.000000 889000.000000 0.0 0 0 123141000.000000 44751300.000000" />
<path d="M142191000 65579300
L134209000 65579300
" />
<path d="M156984115 119444568
L149483489 116714563
" />
<path d="M150091575.249779 115043860.739630 A888962.000000 888962.000000 0.0 1 0 149483489.113957 116714562.686868" />
</g>
<g style="fill:#000000; fill-opacity:0.0; 
stroke:#000000; stroke-width:100000.000000; stroke-opacity:1; 
stroke-linecap:round; stroke-linejoin:round;">
<path d="M1050000 6052800
L50000 7052800
" />
</g>
<g style="fill:#000000; fill-opacity:0.0; 
stroke:#000000; stroke-width:50000.000000; stroke-opacity:1; 
stroke-linecap:round; stroke-linejoin:round;">
<path d="M65990999.988751 82248149.994375 A889050.000000 889050.000000 0.0 1 0 65991000.000001 80470050.005624" />
<path d="M58009000.011249 42370150.005623 A888950.000000 888950.000000 0.0 0 0 58009000.000001 44148049.994375" />
<g >
</g>
<g >
</g>
<g >
</g>
<g >
</g>
<g >
</g>
<g >
</g>
<g >
</g>
<g >
</g>
<g >
</g>
<g >
</g>
<g >
</g>
<g >
</g>
<g >
</g>
<g >
</g>
<g >
</g>
<g >
</g>
<g >
</g>
<g >
</g>
<g >
</g>
<g >
</g>
<g >
</g>
<g >
</g>
<g >
</g>
<g >
</g>
<g >
</g>
<g >
</g>
<g >
</g>
<g >
</g>
<g >
</g>
<g >
</g>
<g >
</g>
<g >
</g>
<g >
</g>
<g >
</g>
<g >
</g>
<g >
</g>
<g >
</g>
<g >
</g>
<g >
</g>
<g >
</g>
<g >
</g>
<g >
</g>
<g >
</g>
<g >
</g>
<g >
</g>
<g >
</g>
<g >
</g>
<g >
</g>
<g >
</g>
<g >
</g>
<g >
</g>
<g >
</g>
<g >
</g>
<g >
</g>
<g >
</g>
<g >
</g>
<g >
</g>
<g >
</g>
<g >
</g>
<g >
</g>
<g >
</g>
<g >
</g>
<g >
</g>
<g >
</g>
<g >
</g>
<g >
</g>
<g >
</g>
<g >
</g>
<g >
</g>
<g >
</g>
<g >
</g>
<g >
</g>
<g >
</g>
<g >
</g>
<g >
</g>
<g >
</g>
<g >
</g>
<g >
</g>
<g >
</g>
<g >
</g>
<g >
</g>
<g >
</g>
<g >
</g>
<g >
</g>
<g >
</g>
<g >
</g>
<g >
</g>
<g >
</g>
<g >
</g>
<g >
</g>
<g >
</g>
<g >
</g>
<g >
</g>
<g >
</g>
<g >
</g>
<g >
</g>
<g >
</g>
<g >
</g>
<g >
</g>
<g >
</g>
<g >
</g>
<g >
</g>
<g >
</g>
<g >
</g>
<g >
</g>
<g >
</g>
<g >
</g>
<g >
</g>
<g >
</g>
<g >
</g>
<g >
</g>
<g >
</g>
<g >
</g>
<g >
</g>
<g >
</g>
<g >
</g>
<g >
</g>
<g >
</g>
<g >
</g>
<g >
</g>
<g >
</g>
<g >
</g>
<g >
</g>
<g >
</g>
<g >
</g>
<g >
</g>
<g >
</g>
<g >
</g>
<g >
</g>
<g >
</g>
<g >
</g>
<g >
</g>
<g >
</g>
<g >
</g>
<g >
</g>
<g >
</g>
<g >
</g>
<g >
</g>
<g >
</g>
<g >
</g>
<g >
</g>
<g >
</g>
<g >
</g>
<g >
</g>
<g >
</g>
<g >
</g>
<g >
</g>
<g >
</g>
<g >
</g>
<g >
</g>
<g >
</g>
<g >
</g>
<g >
</g>
<g >
</g>
<g >
</g>
<g >
</g>
<g >
</g>
<g >
</g>
<g >
</g>
<g >
</g>
<g >
</g>
<g >
</g>
<g >
</g>
<g >
</g>
<g >
</g>
<g >
</g>
<g >
</g>
<g >
</g>
<g >
</g>
<g >
</g>
<g >
</g>
<g >
</g>
<g >
</g>
<g >
</g>
<g >
</g>
<g >
</g>
<g >
</g>
<g >
</g>
<g >
</g>
<g >
</g>
<g >
</g>
<g >
</g>
<g >
</g>
<g >
</g>
<g >
</g>
<g >
</g>
<g >
</g>
<g >
</g>
<g >
</g>
<g >
</g>
<g >
</g>
<g >
</g>
<g >
</g>
<g >
</g>
<g >
</g>
<g >
</g>
<g >
</g>
<g >
</g>
<g >
</g>
<g >
</g>
<g >
</g>
<g >
</g>
<g >
</g>
<g >
</g>
<g >
</g>
<g >
</g>
<g >
</g>
<g >
</g>
<g >
</g>
<g >
</g>
<g >
</g>
<g >
</g>
<g >
</g>
<g >
</g>
<g >
</g>
<g >
</g>
<g >
</g>
<g >
</g>
<g >
</g>
<g >
</g>
<g >
</g>
<g >
</g>
<g >
</g>
<g >
</g>
<g >
</g>
<g >
</g>
<g >
</g>
<g >
</g>
<g >
</g>
<g >
</g>
<g >
</g>
<g >
</g>
<g >
</g>
<g >
</g>
<g >
</g>
<g >
</g>
<g >
</g>
<g >
</g>
<g >
</g>
<g >
</g>
<g >
</g>
<g >
</g>
<g >
</g>
<g >
</g>
<g >
</g>
<g >
</g>
<g >
</g>
<g >
</g>
<g >
</g>
<g >
</g>
<g >
</g>
<g >
</g>
<g >
</g>
<g >
</g>
<g >
</g>
<g >
</g>
<g >
</g>
<g >
</g>
<g >
</g>
<g >
</g>
<g >
</g>
<g >
</g>
<g >
</g>
<g >
</g>
<g >
</g>
<g >
</g>
<g >
</g>
<g >
</g>
<g >
</g>
<g >
</g>
<g >
</g>
<g >
</g>
<g >
</g>
<g >
</g>
<g >
</g>
<g >
</g>
<g >
</g>
<g >
</g>
<g >
</g>
<g >
</g>
<g >
</g>
<g >
</g>
<g >
</g>
<g >
</g>
<g >
</g>
<g >
</g>
<g >
</g>
<g >
</g>
<g >
</g>
<g >
</g>
<g >
</g>
<g >
</g>
<g >
</g>
<g >
</g>
<g >
</g>
<g >
</g>
<g >
</g>
<g >
</g>
<g >
</g>
<g >
</g>
<g >
</g>
<g >
</g>
<g >
</g>
<g >
</g>
<g >
</g>
<g >
</g>
<g >
</g>
<g >
</g>
<g >
</g>
<g >
</g>
<g >
</g>
<g >
</g>
<g >
</g>
<g >
</g>
<g >
</g>
<g >
</g>
<g >
</g>
<g >
</g>
<g >
</g>
<g >
</g>
<g >
</g>
<g >
</g>
<g >
</g>
<g >
</g>
<g >
</g>
<g >
</g>
<g >
</g>
<g >
</g>
<g >
</g>
<g >
</g>
<g >
</g>
<g >
</g>
<g >
</g>
<g >
</g>
<g >
</g>
<g >
</g>
<g >
</g>
<g >
</g>
<g >
</g>
<g >
</g>
<g >
</g>
<g >
</g>
<g >
</g>
<g >
</g>
<g >
</g>
<g >
</g>
<g >
</g>
<g >
</g>
<g >
</g>
<g >
</g>
<g >
</g>
<g >
</g>
<g >
</g>
<g >
</g>
<g >
</g>
<g >
</g>
<g >
</g>
<g >
</g>
<g >
</g>
<g >
</g>
<g >
</g>
<g >
</g>
<g >
</g>
<g >
</g>
<g >
</g>
<g >
</g>
<g >
</g>
<g >
</g>
<g >
</g>
<g >
</g>
<g >
</g>
<g >
</g>
<g >
</g>
<g >
</g>
<g >
</g>
<g >
</g>
<g >
</g>
<g >
</g>
<g >
</g>
<g >
</g>
<g >
</g>
<g >
</g>
<g >
</g>
<g >
</g>
<g >
</g>
<g >
</g>
<g >
</g>
<g >
</g>
<g >
</g>
<g >
</g>
<g >
</g>
<g >
</g>
<g >
</g>
<g >
</g>
<g >
</g>
<g >
</g>
<g >
</g>
<g >
</g>
<g >
</g>
<g >
</g>
<g >
</g>
<g >
</g>
<g >
</g>
<g >
</g>
<g >
</g>
<g >
</g>
<g >
</g>
<g >
</g>
<g >
</g>
<g >
</g>
<g >
</g>
<g >
</g>
<g >
</g>
<g >
</g>
<g >
</g>
<g >
</g>
<g >
</g>
<g >
</g>
<g >
</g>
<g >
</g>
<g >
</g>
<g >
</g>
<g >
</g>
<g >
</g>
<g >
</g>
<g >
</g>
<g >
</g>
<g >
</g>
<g >
</g>
<g >
</g>
<g >
</g>
<g >
</g>
<g >
</g>
<g >
</g>
<g >
</g>
<g >
</g>
<g >
</g>
<g >
</g>
<g >
</g>
<g >
</g>
<g >
</g>
<g >
</g>
<g >
</g>
<g >
</g>
<g >
</g>
<g >
</g>
<g >
</g>
<g >
</g>
<g >
</g>
<g >
</g>
<g >
</g>
<g >
</g>
<g >
</g>
<g >
</g>
<g >
</g>
<g >
</g>
<g >
</g>
<g >
</g>
<g >
</g>
<g >
</g>
<g >
</g>
<g >
</g>
<g >
</g>
<g >
</g>
<g >
</g>
<g >
</g>
<g >
</g>
<g >
</g>
<g >
</g>
<g >
</g>
<g >
</g>
<g >
</g>
<g >
</g>
<g >
</g>
<g >
</g>
<g >
</g>
<g >
</g>
<g >
</g>
<g >
</g>
<g >
</g>
<g >
</g>
<g >
</g>
<g >
</g>
<g >
</g>
<g >
</g>
<g >
</g>
<g >
</g>
<g >
</g>
<g >
</g>
<g >
</g>
<g >
</g>
<g >
</g>
<g >
</g>
<g >
</g>
<g >
</g>
<g >
</g>
<g >
</g>
<g >
</g>
<g >
</g>
<g >
</g>
<g >
</g>
<g >
</g>
<g >
</g>
<g >
</g>
<g >
</g>
<g >
</g>
<g >
</g>
<g >
</g>
<g >
</g>
<g >
</g>
<g >
</g>
<g >
</g>
<g >
</g>
<g >
</g>
<g >
</g>
<g >
</g>
<g >
</g>
<g >
</g>
<g >
</g>
<g >
</g>
<g >
</g>
<g >
</g>
<g >
</g>
<g >
</g>
<g >
</g>
<g >
</g>
<g >
</g>
<g >
</g>
<g >
</g>
<g >
</g>
<g >
</g>
<g >
</g>
<g >
</g>
<g >
</g>
<g >
</g>
<g >
</g>
<g >
</g>
<g >
</g>
<g >
</g>
<g >
</g>
<g >
</g>
<g >
</g>
<g >
</g>
<g >
</g>
<g >
</g>
<g >
</g>
<g >
</g>
<g >
</g>
<g >
</g>
</g> 
</svg>
