<?xml version="1.0" standalone="no"?>
 <!DOCTYPE svg PUBLIC "-//W3C//DTD SVG 1.1//EN" 
 "http://www.w3.org/Graphics/SVG/1.1/DTD/svg11.dtd"> 
<svg
  xmlns:svg="http://www.w3.org/2000/svg"
  xmlns="http://www.w3.org/2000/svg"
  xmlns:xlink="http://www.w3.org/1999/xlink"
  version="1.1"
  width="18.211800cm" height="12.908280cm" viewBox="0 0 182118000 129082800">
<title>SVG Picture created as poly_kb_wave_left-Edge_Cuts.svg date 2022/05/14 22:05:17 </title>
  <desc>Picture generated by PCBNEW </desc>
<g style="fill:#000000; fill-opacity:1.000000;stroke:#000000; stroke-opacity:1.000000;
stroke-linecap:round; stroke-linejoin:round;"
 transform="translate(0 0) scale(1 1)">
</g>
<g style="fill:#000000; fill-opacity:0.0; 
stroke:#000000; stroke-width:0.000000; stroke-opacity:1; 
stroke-linecap:round; stroke-linejoin:round;">
</g>
<g style="fill:#D0D2CD; fill-opacity:0.0; 
stroke:#D0D2CD; stroke-width:0.000000; stroke-opacity:1; 
stroke-linecap:round; stroke-linejoin:round;">
</g>
<g style="fill:#D0D2CD; fill-opacity:0.0; 
stroke:#D0D2CD; stroke-width:100000.000000; stroke-opacity:1; 
stroke-linecap:round; stroke-linejoin:round;">
<path d="M173379000 72323000
L180872000 72323000
" />
<path d="M180872000 72323000
L180872000 80070000
" />
<path d="M180872000 80070000
L173379000 80070000
" />
<path d="M173379000 80070000
L173379000 72323000
" />
<path d="M95528000 7680000
L89178000 7680000
" />
<path d="M89178000 7680000
L89178000 695000
" />
<path d="M89178000 695000
L95528000 695000
" />
<path d="M95528000 695000
L95528000 7680000
" />
<path d="M12724000 7807000
L3453000 18729000
" />
<path d="M7644000 98485000
L16534000 106994000
" />
<path d="M163854000 119821000
L155726000 123377000
" />
<path d="M99084000 84769000
L103910000 84769000
" />
<path d="M103910000 84769000
L103910000 91500000
" />
<path d="M103910000 91500000
L99084000 91500000
" />
<path d="M99084000 91500000
L99084000 84769000
" />
<path d="M93115000 84769000
L99084000 84769000
" />
<path d="M99084000 84769000
L99084000 114106000
" />
<path d="M99084000 114106000
L93115000 114106000
" />
<path d="M93115000 114106000
L93115000 84769000
" />
<path d="M146836000 3743000
L153059000 3743000
" />
<path d="M153059000 3743000
L153059000 33207000
" />
<path d="M153059000 33207000
L146836000 33207000
" />
<path d="M146836000 33207000
L146836000 3743000
" />
<path d="M33806000 85658000
L28091000 85658000
" />
<path d="M28091000 85658000
L28091000 5267000
" />
<path d="M28091000 5267000
L33806000 5267000
" />
<path d="M33806000 5267000
L33806000 85658000
" />
</g>
<g style="fill:#D0D2CD; fill-opacity:0.0; 
stroke:#D0D2CD; stroke-width:150000.000000; stroke-opacity:1; 
stroke-linecap:round; stroke-linejoin:round;">
<circle cx="30885000.000000" cy="45399000.000000" r="1524000.000000" /> 
<circle cx="149122000.000000" cy="20888000.000000" r="1524000.000000" /> 
</g>
<g style="fill:#D0D2CD; fill-opacity:0.0; 
stroke:#D0D2CD; stroke-width:100000.000000; stroke-opacity:1; 
stroke-linecap:round; stroke-linejoin:round;">
<circle cx="176554000.000000" cy="8188000.000000" r="1397000.000000" /> 
<circle cx="155980000.000000" cy="8188000.000000" r="1397000.000000" /> 
<circle cx="155980000.000000" cy="31175000.000000" r="1397000.000000" /> 
<circle cx="176427000.000000" cy="31175000.000000" r="1397000.000000" /> 
<path d="M153821000 6156000
L178623590 6156000
" />
<path d="M178623590 6156000
L178623590 33177196
" />
<path d="M178623590 33177196
L153821000 33177196
" />
<path d="M153821000 33177196
L153821000 6156000
" />
</g>
<g style="fill:#D0D2CD; fill-opacity:0.0; 
stroke:#D0D2CD; stroke-width:150000.000000; stroke-opacity:1; 
stroke-linecap:round; stroke-linejoin:round;">
<path d="M167048000 52850000
L182048000 52850000
" />
<path d="M167048000 39050000
L167048000 52850000
" />
<path d="M182048000 39050000
L167048000 39050000
" />
<circle cx="100100000.000000" cy="88007500.000000" r="1524000.000000" /> 
<circle cx="10048000.000000" cy="105050000.000000" r="1500000.000000" /> 
<circle cx="92480000.000000" cy="4568500.000000" r="1524000.000000" /> 
<circle cx="177062000.000000" cy="76006000.000000" r="1524000.000000" /> 
<path d="M153768000 14090000
L178608000 14090000
" />
<path d="M178608000 14090000
L178608000 28130000
" />
<path d="M178608000 28130000
L153768000 28130000
" />
<path d="M153768000 28130000
L153768000 14090000
" />
<circle cx="161060000.000000" cy="124012000.000000" r="1524000.000000" /> 
<circle cx="5040500.000000" cy="11045500.000000" r="1524000.000000" /> 
</g>
<g style="fill:#D0D2CD; fill-opacity:0.0; 
stroke:#D0D2CD; stroke-width:100000.000000; stroke-opacity:1; 
stroke-linecap:round; stroke-linejoin:round;">
<path d="M161050000 129052800
L163050000 129052800
" />
<path d="M182050000 80052800
L182050000 6052800
" />
<path d="M50000 89052800
L6050000 108052800
" />
<path d="M1050000 6052800
L71248000 50000
" />
<path d="M163050000 129052800
L165050000 128052800
" />
<path d="M165050000 128052800
L181050000 84052800
" />
<path d="M181050000 84052800
L182050000 80052800
" />
<path d="M182050000 6052800
L180050000 4052800
" />
<path d="M121050000 117052800
L161050000 129052800
" />
<path d="M180050000 4052800
L112748000 50000
" />
<path d="M71248000 50000
L112748000 50000
" />
<path d="M52050000 111052800
L121050000 117052800
" />
<path d="M6050000 108052800
L9050000 111052800
" />
<path d="M9050000 111052800
L52050000 111052800
" />
<path d="M50000 7052800
L50000 89052800
" />
<path d="M1050000 6052800
L50000 7052800
" />
</g>
<g style="fill:#D0D2CD; fill-opacity:0.0; 
stroke:#D0D2CD; stroke-width:50000.000000; stroke-opacity:1; 
stroke-linecap:round; stroke-linejoin:round;">
<path d="M171199750 62358486
L171575627 62495294
" />
<path d="M167526489 75228302
L171904347 63200236
" />
<path d="M170221192 63438960
L170494808 62687206
" />
<path d="M166116951 74715272
L166852293 72694933
" />
<path d="M166445703 75420194
L166821547 75557022
" />
<path d="M167485203 70371266
L167203296 70268660
" />
<path d="M168978000 63784609
L168601777 64818271
" />
<path d="M169964849 63558495
L169682942 63455889
" />
<path d="M167741546 70251732
L169331940 65882161
" />
<path d="M166732759 72438590
L166450851 72335984
" />
<path d="M169212405 65625819
L168930497 65523213
" />
<path d="M166498353 70597380
L166122131 71631042
" />
<path d="M167203296.363932 70268659.868936 A390513.000000 390513.000000 0.0 1 0 166498353.261325 70597379.847940" />
<path d="M167485202.807560 70371266.528726 A200001.000000 200001.000000 0.0 0 0 167741546.207330 70251732.075463" />
<path d="M166122131.207765 71631042.576916 A390512.000000 390512.000000 0.0 1 0 166450850.779703 72335983.621407" />
<path d="M171199749.423084 62358486.207765 A390512.000000 390512.000000 0.0 1 0 170494808.378593 62687205.779703" />
<path d="M168601776.550149 64818269.750873 A390513.000000 390513.000000 0.0 1 0 168930496.847940 65523212.738675" />
<path d="M166116951.092960 74715272.258130 A390512.000000 390512.000000 0.0 1 0 166445703.125569 75420194.215749" />
<path d="M166852293.528726 72694933.192440 A200001.000000 200001.000000 0.0 0 0 166732759.075463 72438589.792670" />
<path d="M166821547.576916 75557021.792235 A390512.000000 390512.000000 0.0 1 0 167526488.621407 75228302.220297" />
<path d="M169682941.423084 63455889.207765 A390512.000000 390512.000000 0.0 1 0 168978000.378593 63784608.779703" />
<path d="M169331938.649340 65882160.508401 A199999.000000 199999.000000 0.0 0 0 169212404.829794 65625819.467637" />
<path d="M169964849.149579 63558494.589033 A200000.000000 200000.000000 0.0 0 0 170221191.589033 63438959.850421" />
<path d="M171904347.449851 63200237.249127 A390513.000000 390513.000000 0.0 1 0 171575627.152060 62495294.261325" />
<g >
</g>
<g >
</g>
<g >
</g>
<g >
</g>
<g >
</g>
<g >
</g>
<g >
</g>
<g >
</g>
<g >
</g>
<g >
</g>
<g >
</g>
<g >
</g>
<g >
</g>
<g >
</g>
<g >
</g>
<g >
</g>
<g >
</g>
<g >
</g>
<g >
</g>
<g >
</g>
<g >
</g>
<g >
</g>
<g >
</g>
<g >
</g>
<g >
</g>
<g >
</g>
<g >
</g>
<g >
</g>
<g >
</g>
<g >
</g>
<g >
</g>
<g >
</g>
<g >
</g>
<g >
</g>
<g >
</g>
<g >
</g>
<g >
</g>
<g >
</g>
<g >
</g>
<g >
</g>
<g >
</g>
<g >
</g>
<g >
</g>
<g >
</g>
<g >
</g>
<g >
</g>
<g >
</g>
<g >
</g>
<g >
</g>
<g >
</g>
<g >
</g>
<g >
</g>
<g >
</g>
<g >
</g>
<g >
</g>
<g >
</g>
<g >
</g>
<g >
</g>
<g >
</g>
<g >
</g>
<g >
</g>
<g >
</g>
<g >
</g>
<g >
</g>
<g >
</g>
<g >
</g>
<g >
</g>
<g >
</g>
<g >
</g>
<g >
</g>
<g >
</g>
<g >
</g>
<g >
</g>
<g >
</g>
<g >
</g>
<g >
</g>
<g >
</g>
<g >
</g>
<g >
</g>
<g >
</g>
<g >
</g>
<g >
</g>
<g >
</g>
<g >
</g>
<g >
</g>
<g >
</g>
<g >
</g>
<g >
</g>
<g >
</g>
<g >
</g>
<g >
</g>
<g >
</g>
<g >
</g>
<g >
</g>
<g >
</g>
<g >
</g>
<g >
</g>
<g >
</g>
<g >
</g>
<g >
</g>
<g >
</g>
<g >
</g>
<g >
</g>
<g >
</g>
<g >
</g>
<g >
</g>
<g >
</g>
<g >
</g>
<g >
</g>
<g >
</g>
<g >
</g>
<g >
</g>
<g >
</g>
<g >
</g>
<g >
</g>
<g >
</g>
<g >
</g>
<g >
</g>
<g >
</g>
<g >
</g>
<g >
</g>
<g >
</g>
<g >
</g>
<g >
</g>
<g >
</g>
<g >
</g>
<g >
</g>
<g >
</g>
<g >
</g>
<g >
</g>
<g >
</g>
<g >
</g>
<g >
</g>
<g >
</g>
<g >
</g>
<g >
</g>
<g >
</g>
<g >
</g>
<g >
</g>
<g >
</g>
<g >
</g>
<g >
</g>
<g >
</g>
<g >
</g>
<g >
</g>
<g >
</g>
<g >
</g>
<g >
</g>
<g >
</g>
<g >
</g>
<g >
</g>
<g >
</g>
<g >
</g>
<g >
</g>
<g >
</g>
<g >
</g>
<g >
</g>
<g >
</g>
<g >
</g>
<g >
</g>
<g >
</g>
<g >
</g>
<g >
</g>
<g >
</g>
<g >
</g>
<g >
</g>
<g >
</g>
<g >
</g>
<g >
</g>
<g >
</g>
<g >
</g>
<g >
</g>
<g >
</g>
<g >
</g>
<g >
</g>
<g >
</g>
<g >
</g>
<g >
</g>
<g >
</g>
<g >
</g>
<g >
</g>
<g >
</g>
<g >
</g>
<g >
</g>
<g >
</g>
<g >
</g>
<g >
</g>
<g >
</g>
<g >
</g>
<g >
</g>
<g >
</g>
<g >
</g>
<g >
</g>
<g >
</g>
<g >
</g>
<g >
</g>
<g >
</g>
<g >
</g>
<g >
</g>
<g >
</g>
<g >
</g>
<g >
</g>
<g >
</g>
<g >
</g>
<g >
</g>
<g >
</g>
<g >
</g>
<g >
</g>
<g >
</g>
<g >
</g>
<g >
</g>
<g >
</g>
<g >
</g>
<g >
</g>
<g >
</g>
<g >
</g>
<g >
</g>
<g >
</g>
<g >
</g>
<g >
</g>
<g >
</g>
<g >
</g>
<g >
</g>
<g >
</g>
<g >
</g>
<g >
</g>
<g >
</g>
<g >
</g>
<g >
</g>
<g >
</g>
<g >
</g>
<g >
</g>
<g >
</g>
<g >
</g>
<g >
</g>
<g >
</g>
<g >
</g>
<g >
</g>
<g >
</g>
<g >
</g>
<g >
</g>
<g >
</g>
<g >
</g>
<g >
</g>
<g >
</g>
<g >
</g>
<g >
</g>
<g >
</g>
<g >
</g>
<g >
</g>
<g >
</g>
<g >
</g>
<g >
</g>
<g >
</g>
<g >
</g>
<g >
</g>
<g >
</g>
<g >
</g>
<g >
</g>
<g >
</g>
<g >
</g>
<g >
</g>
<g >
</g>
<g >
</g>
<g >
</g>
<g >
</g>
<g >
</g>
<g >
</g>
<g >
</g>
<g >
</g>
<g >
</g>
<g >
</g>
<g >
</g>
<g >
</g>
<g >
</g>
<g >
</g>
<g >
</g>
<g >
</g>
<g >
</g>
<g >
</g>
<g >
</g>
<g >
</g>
<g >
</g>
<g >
</g>
<g >
</g>
<g >
</g>
<g >
</g>
<g >
</g>
<g >
</g>
<g >
</g>
<g >
</g>
<g >
</g>
<g >
</g>
<g >
</g>
<g >
</g>
<g >
</g>
<g >
</g>
<g >
</g>
<g >
</g>
<g >
</g>
<g >
</g>
<g >
</g>
<g >
</g>
<g >
</g>
<g >
</g>
<g >
</g>
<g >
</g>
<g >
</g>
<g >
</g>
<g >
</g>
<g >
</g>
<g >
</g>
<g >
</g>
<g >
</g>
<g >
</g>
<g >
</g>
<g >
</g>
<g >
</g>
<g >
</g>
<g >
</g>
<g >
</g>
<g >
</g>
<g >
</g>
<g >
</g>
<g >
</g>
<g >
</g>
<g >
</g>
<g >
</g>
<g >
</g>
<g >
</g>
<g >
</g>
<g >
</g>
<g >
</g>
<g >
</g>
<g >
</g>
<g >
</g>
<g >
</g>
<g >
</g>
<g >
</g>
<g >
</g>
<g >
</g>
<g >
</g>
<g >
</g>
<g >
</g>
<g >
</g>
<g >
</g>
<g >
</g>
<g >
</g>
<g >
</g>
<g >
</g>
<g >
</g>
<g >
</g>
<g >
</g>
<g >
</g>
<g >
</g>
<g >
</g>
<g >
</g>
<g >
</g>
<g >
</g>
<g >
</g>
<g >
</g>
<g >
</g>
<g >
</g>
<g >
</g>
<g >
</g>
<g >
</g>
<g >
</g>
<g >
</g>
<g >
</g>
<g >
</g>
<g >
</g>
<g >
</g>
<g >
</g>
<g >
</g>
<g >
</g>
<g >
</g>
<g >
</g>
<g >
</g>
<g >
</g>
<g >
</g>
<g >
</g>
<g >
</g>
<g >
</g>
<g >
</g>
<g >
</g>
<g >
</g>
<g >
</g>
<g >
</g>
<g >
</g>
<g >
</g>
<g >
</g>
<g >
</g>
<g >
</g>
<g >
</g>
<g >
</g>
<g >
</g>
<g >
</g>
<g >
</g>
<g >
</g>
<g >
</g>
<g >
</g>
<g >
</g>
<g >
</g>
<g >
</g>
<g >
</g>
<g >
</g>
<g >
</g>
<g >
</g>
<g >
</g>
<g >
</g>
<g >
</g>
<g >
</g>
<g >
</g>
<g >
</g>
<g >
</g>
<g >
</g>
<g >
</g>
<g >
</g>
<g >
</g>
<g >
</g>
<g >
</g>
<g >
</g>
<g >
</g>
<g >
</g>
<g >
</g>
<g >
</g>
<g >
</g>
<g >
</g>
<g >
</g>
<g >
</g>
<g >
</g>
<g >
</g>
<g >
</g>
<g >
</g>
<g >
</g>
<g >
</g>
<g >
</g>
<g >
</g>
<g >
</g>
<g >
</g>
<g >
</g>
<g >
</g>
<g >
</g>
<g >
</g>
<g >
</g>
<g >
</g>
<g >
</g>
<g >
</g>
<g >
</g>
<g >
</g>
<g >
</g>
<g >
</g>
<g >
</g>
<g >
</g>
<g >
</g>
<g >
</g>
<g >
</g>
<g >
</g>
<g >
</g>
<g >
</g>
<g >
</g>
<g >
</g>
<g >
</g>
<g >
</g>
<g >
</g>
<g >
</g>
<g >
</g>
<g >
</g>
<g >
</g>
<g >
</g>
<g >
</g>
<g >
</g>
<g >
</g>
<g >
</g>
<g >
</g>
<g >
</g>
<g >
</g>
<g >
</g>
<g >
</g>
<g >
</g>
<g >
</g>
<g >
</g>
<g >
</g>
<g >
</g>
<g >
</g>
<g >
</g>
<g >
</g>
<g >
</g>
<g >
</g>
<g >
</g>
<g >
</g>
<g >
</g>
<g >
</g>
<g >
</g>
<g >
</g>
<g >
</g>
<g >
</g>
<g >
</g>
<g >
</g>
<g >
</g>
<g >
</g>
<g >
</g>
<g >
</g>
<g >
</g>
<g >
</g>
<g >
</g>
<g >
</g>
<g >
</g>
<g >
</g>
<g >
</g>
<g >
</g>
<g >
</g>
<g >
</g>
<g >
</g>
<g >
</g>
<g >
</g>
<g >
</g>
<g >
</g>
<g >
</g>
<g >
</g>
<g >
</g>
<g >
</g>
<g >
</g>
<g >
</g>
<g >
</g>
<g >
</g>
<g >
</g>
<g >
</g>
<g >
</g>
<g >
</g>
<g >
</g>
<g >
</g>
<g >
</g>
<g >
</g>
<g >
</g>
<g >
</g>
<g >
</g>
<g >
</g>
<g >
</g>
<g >
</g>
<g >
</g>
<g >
</g>
<g >
</g>
<g >
</g>
<g >
</g>
<g >
</g>
<g >
</g>
<g >
</g>
<g >
</g>
</g> 
</svg>
