<?xml version="1.0" encoding="UTF-8" standalone="no"?>
<!-- Created with Inkscape (http://www.inkscape.org/) -->

<svg
   width="37.66581mm"
   height="21.774681mm"
   viewBox="0 0 37.66581 21.774681"
   version="1.1"
   id="svg5"
   xml:space="preserve"
   xmlns:inkscape="http://www.inkscape.org/namespaces/inkscape"
   xmlns:sodipodi="http://sodipodi.sourceforge.net/DTD/sodipodi-0.dtd"
   xmlns="http://www.w3.org/2000/svg"
   xmlns:svg="http://www.w3.org/2000/svg"><sodipodi:namedview
     id="namedview7"
     pagecolor="#ffffff"
     bordercolor="#000000"
     borderopacity="0.25"
     inkscape:showpageshadow="2"
     inkscape:pageopacity="0.0"
     inkscape:pagecheckerboard="0"
     inkscape:deskcolor="#d1d1d1"
     inkscape:document-units="mm"
     showgrid="false" /><defs
     id="defs2" /><g
     inkscape:label="Layer 1"
     inkscape:groupmode="layer"
     id="layer1"
     transform="translate(-76.235834,-120.77864)"><path
       style="fill:#000000;stroke-width:0.0846667"
       d="m 77.324922,142.43707 c -1.396298,-0.48583 -1.469877,-2.92327 -0.105454,-3.49336 0.824579,-0.34453 1.966879,-0.0559 2.323005,0.58699 0.102436,0.18491 0.173064,0.34939 0.15695,0.3655 -0.0781,0.0781 -0.977501,0.2402 -0.977501,0.17617 0,-0.36411 -0.760596,-0.53528 -1.112453,-0.25037 -0.301396,0.24406 -0.301396,1.46424 0,1.7083 0.370798,0.30025 1.112453,0.0833 1.112453,-0.32544 0,-0.17101 0.130798,-0.1828 0.577007,-0.052 0.494776,0.14504 0.51213,0.19189 0.246752,0.66628 -0.345954,0.61842 -1.38689,0.90806 -2.220759,0.61792 z m 4.487334,-0.006 c -1.86998,-0.76903 -1.383039,-3.51344 0.639718,-3.60546 1.642047,-0.0747 2.534645,1.37361 1.770133,2.87217 -0.349759,0.68559 -1.600452,1.06616 -2.409851,0.73329 z m 1.225746,-0.89021 c 0.384043,-0.31098 0.381942,-1.421 -0.0033,-1.73308 -0.431235,-0.34936 -1.048447,-0.0975 -1.178872,0.48109 -0.172444,0.76497 0.154184,1.40274 0.718411,1.40274 0.152666,0 0.361351,-0.0678 0.463746,-0.15075 z m 2.54192,-0.91088 v -1.82363 l 0.73666,0.0245 0.73666,0.0245 0.22368,0.84667 c 0.123024,0.46566 0.25276,0.96096 0.288304,1.10066 0.06465,0.25411 0.128445,0.0623 0.584249,-1.75683 0.05791,-0.23111 0.06365,-0.23283 0.776394,-0.23283 h 0.718053 v 1.82033 1.82033 h -0.473265 -0.473266 l 0.02877,-1.30543 c 0.01582,-0.71798 0.01596,-1.29255 3.38e-4,-1.27682 -0.01565,0.0157 -0.12204,0.40315 -0.236423,0.86093 -0.456135,1.82541 -0.402989,1.72132 -0.878902,1.72132 -0.386776,0 -0.423924,-0.0181 -0.478167,-0.23283 -0.03235,-0.12806 -0.182013,-0.70908 -0.33259,-1.29117 l -0.273778,-1.05833 -0.0077,1.29117 -0.0077,1.29116 h -0.465667 -0.465667 z m 5.334,0.003 v -1.82033 l 0.9525,0.002 c 1.629785,0.004 2.0955,0.24885 2.0955,1.10418 0,0.85485 -0.37195,1.1798 -1.350462,1.1798 h -0.596871 v 0.67733 0.67733 h -0.550333 -0.550334 v -1.82033 z m 1.783566,-0.29931 c 0.419528,-0.22453 0.12142,-0.75902 -0.423333,-0.75902 -0.255035,0 -0.259566,0.007 -0.259566,0.42333 0,0.45549 0.239274,0.57311 0.682899,0.33569 z m 2.384584,0.32048 0.02285,-1.79917 h 0.550334 0.550333 l 0.02326,1.37584 0.02326,1.37583 h 0.844569 0.84457 v 0.42337 0.42333 h -1.44101 -1.441017 z m 3.95985,-0.0212 v -1.82033 h 0.550334 0.550334 v 1.82033 1.82033 h -0.550334 -0.550334 z m 2.157148,1.67217 c 0.0818,-0.20686 0.9574,-2.50809 1.16109,-3.05156 0.16793,-0.44806 0.16793,-0.44806 0.7708,-0.42334 l 0.60288,0.0247 0.65831,1.73567 c 0.36207,0.95462 0.65894,1.76424 0.65971,1.79917 0.006,0.26966 -1.16844,0.0457 -1.22068,-0.23284 -0.0556,-0.29633 -0.0556,-0.29633 -0.72526,-0.29633 -0.66966,0 -0.66966,0 -0.72525,0.29633 -0.0556,0.29634 -0.0556,0.29634 -0.64789,0.29634 -0.52998,0 -0.58614,-0.0156 -0.53371,-0.14817 z m 2.13201,-1.79917 c -0.096,-0.32593 -0.19731,-0.59263 -0.22516,-0.59263 -0.0278,0 -0.12916,0.2667 -0.22515,0.59267 l -0.17454,0.59266 h 0.39969 0.39969 z m 2.65351,0.12296 v -1.82437 l 0.52917,0.0252 c 0.52916,0.0252 0.52916,0.0252 1.2065,1.02956 l 0.67733,1.00436 0.0238,-1.02553 0.0238,-1.02552 h 0.50539 0.50539 v 1.82033 1.82034 h -0.53438 -0.53439 l -0.66507,-0.97367 c -0.36578,-0.53552 -0.67034,-0.97367 -0.67681,-0.97367 -0.006,0 0.004,0.43815 0.023,0.97367 l 0.0348,0.97367 h -0.55924 -0.55923 z m 5.67267,0.46971 v -1.35467 h -0.59267 -0.59267 v -0.46742 -0.46742 l 1.70587,0.0229 1.70586,0.0229 0.009,0.44453 0.009,0.44453 -0.5715,-3e-5 -0.5715,-3e-5 v 1.35467 1.35466 h -0.55033 -0.55033 z m -23.198671,-3.5607 c -3.892316,-0.58871 -4.700875,-5.70951 -1.1628,-7.3643 2.200733,-1.0293 4.825752,-0.0149 5.651866,2.18411 1.04112,2.77132 -1.445313,5.64055 -4.489066,5.18019 z m 1.325484,-2.25085 c 1.118954,-0.53098 1.134228,-2.63398 0.0233,-3.20846 -1.085065,-0.56111 -2.19115,0.23401 -2.19406,1.57723 -0.003,1.38445 1.039666,2.16797 2.170758,1.63123 z m 19.163847,2.2509 c -0.96752,-0.12937 -2.08031,-0.63794 -2.7305,-1.2479 -0.30244,-0.28373 -0.32593,-0.20048 0.38306,-1.3576 l 0.61588,-1.00518 0.49963,0.45405 c 1.46325,1.32977 3.34692,1.23416 3.34828,-0.16996 6.8e-4,-0.69786 -0.30018,-0.92537 -1.86102,-1.40726 -2.17061,-0.67015 -2.76758,-1.36199 -2.69676,-3.12529 0.10081,-2.50984 2.592,-3.86387 5.3843,-2.92653 0.95637,0.32104 1.38489,0.59448 1.29517,0.82643 -0.12154,0.31422 -0.7797,1.79172 -0.81324,1.82565 -0.0174,0.0176 -0.22293,-0.0907 -0.45666,-0.24064 -1.40754,-0.90322 -3.08996,-0.50684 -2.71183,0.63891 0.13182,0.39941 0.30479,0.49832 1.56403,0.89434 2.22307,0.69913 2.851,1.29846 2.97734,2.84174 0.21363,2.60969 -1.91564,4.3846 -4.79768,3.99924 z m -32.596664,-5.55143 v -5.3021 l 2.561166,0.0457 c 2.612261,0.0466 2.984118,0.0889 3.686506,0.41884 2.334618,1.09665 2.125877,5.10651 -0.299839,5.75984 -0.467124,0.12581 -0.55125,-0.063 0.977531,2.19386 0.73555,1.08585 1.366449,2.02189 1.401997,2.0801 0.05086,0.0833 -0.283653,0.10514 -1.570198,0.10256 l -1.63483,-0.003 -1.185333,-2.04294 -1.185334,-2.04293 -0.02267,2.04621 -0.02267,2.04621 H 77.70442 76.351259 Z m 4.186114,-0.3795 c 0.688174,-0.19106 1.022125,-0.88913 0.808685,-1.69041 -0.182544,-0.68529 -0.534828,-0.90008 -1.612576,-0.98319 l -0.67289,-0.0519 v 1.40955 1.40955 l 0.5715,-5.1e-4 c 0.314325,-2.5e-4 0.721702,-0.0422 0.905281,-0.0931 z m 14.355886,0.38995 v -5.29167 h 1.439333 1.439333 v 2.07433 2.07434 h 1.905 1.904998 v -2.07434 -2.07433 h 1.48167 1.48167 v 5.29167 5.29166 h -1.48167 -1.48167 v -2.159 -2.159 h -1.904998 -1.905 v 2.159 2.159 h -1.439333 -1.439333 z m -6.942667,-3.3058 c -3.160026,-0.67376 -4.908837,-3.20223 -4.910428,-7.09962 l -2.39e-4,-0.58408 0.9525,0.0514 c 3.691094,0.19919 5.643102,1.99383 5.997374,5.51388 0.121338,1.20562 0.09897,1.26292 -0.278655,0.71404 -0.854574,-1.24213 -1.913828,-2.22581 -2.90746,-2.70002 -0.778581,-0.37159 -0.788376,-0.31694 -0.114174,0.63686 0.919,1.30013 2.107749,3.30448 2.107749,3.55389 0,0.0675 -0.240123,0.043 -0.846667,-0.0863 z m 2.793361,-1.49904 c -3.39e-4,-0.4773 -0.04021,-1.11168 -0.08856,-1.40972 -0.08792,-0.54188 -0.08792,-0.54188 0.492784,-1.07188 0.601614,-0.54909 1.084097,-1.11777 1.010646,-1.19122 -0.04763,-0.0476 -1.068626,0.46101 -1.45656,0.72562 -0.339279,0.23142 -0.336312,0.23276 -0.507352,-0.2278 -0.173212,-0.4664 -0.574223,-1.16126 -0.835382,-1.44752 -0.557542,-0.61114 2.435016,-1.78836 4.551464,-1.79048 l 0.499398,-5e-4 -0.04909,1.16417 c -0.118804,2.81744 -1.126721,4.78661 -2.980707,5.82342 -0.288899,0.16156 -0.550184,0.29375 -0.580634,0.29375 -0.03045,0 -0.05565,-0.39053 -0.056,-0.86784 z"
       id="path318" /></g></svg>
