<?xml version="1.0" standalone="no"?>
<!DOCTYPE svg PUBLIC "-//W3C//DTD SVG 1.1//EN" "http://www.w3.org/Graphics/SVG/1.1/DTD/svg11.dtd">
<svg width="22mm" height="16mm" viewBox="-11 -8 22 16" xmlns="http://www.w3.org/2000/svg" version="1.1">
<title>OpenSCAD Model</title>
<path d="
M -4.5,5.84818 L 4.5,5.84818 L 4.5,7.67982 L 10.25,7.67982 L 10.25,-7.67982 L -10.25,-7.67982
 L -10.25,7.67982 L -4.5,7.67982 z
M 0,2.02043 L -0.0582886,2.01756 L -0.116028,2.009 L -0.172653,1.99483 L -0.183517,1.99095 L -0.540741,1.99095
 L -0.540787,1.67204 L -0.549606,1.65343 L -0.569275,1.5985 L -0.583481,1.54189 L -0.592056,1.48416 L -0.594925,1.42589
 L -0.592072,1.36758 L -0.583527,1.30988 L -0.569336,1.25325 L -0.550491,1.20058 L -0.549561,1.19862 L -0.540878,1.17969
 L -0.540939,0.836014 L -0.836105,0.541 L -1.17993,0.541 L -1.20084,0.550613 L -1.25354,0.569458 L -1.31018,0.583664
 L -1.36794,0.592224 L -1.42628,0.595093 L -1.4846,0.592224 L -1.54239,0.583664 L -1.59903,0.569458 L -1.65404,0.549805
 L -1.67267,0.541 L -1.99191,0.541 L -1.99214,0.183624 L -1.99603,0.17276 L -2.01027,0.116104 L -2.01888,0.0583344
 L -2.02177,-0 L -2.01895,-0.0583344 L -2.01042,-0.116119 L -1.99626,-0.172775 L -1.99239,-0.183655 L -1.99263,-0.541183
 L -1.67326,-0.541183 L -1.65465,-0.550003 L -1.59964,-0.569672 L -1.54298,-0.583893 L -1.48518,-0.592468 L -1.42683,-0.595337
 L -1.36847,-0.592468 L -1.3107,-0.583893 L -1.25401,-0.569672 L -1.20119,-0.550781 L -1.19862,-0.549561 L -1.18036,-0.541183
 L -0.836395,-0.541183 L -0.541245,-0.836487 L -0.541306,-1.18062 L -0.549789,-1.19908 L -0.550934,-1.20149 L -0.569809,-1.25429
 L -0.58403,-1.311 L -0.592621,-1.36884 L -0.59549,-1.42723 L -0.592636,-1.48563 L -0.584076,-1.54347 L -0.56987,-1.60019
 L -0.550201,-1.65524 L -0.541397,-1.6739 L -0.541443,-1.99358 L -0.183762,-1.99358 L -0.172882,-1.99748 L -0.116196,-2.01169
 L -0.0583649,-2.02026 L 0,-2.02313 L 0.0583649,-2.02026 L 0.116196,-2.01169 L 0.172882,-1.99748 L 0.183762,-1.99358
 L 0.541443,-1.99358 L 0.541397,-1.6739 L 0.550201,-1.65524 L 0.56987,-1.60019 L 0.584076,-1.54347 L 0.592636,-1.48563
 L 0.59549,-1.42723 L 0.592621,-1.36884 L 0.58403,-1.311 L 0.569809,-1.25429 L 0.550934,-1.20149 L 0.549561,-1.19862
 L 0.541306,-1.18062 L 0.541245,-0.836487 L 0.836395,-0.541183 L 1.18036,-0.541183 L 1.20119,-0.550781 L 1.25401,-0.569672
 L 1.3107,-0.583893 L 1.36847,-0.592468 L 1.42683,-0.595337 L 1.48518,-0.592468 L 1.54298,-0.583893 L 1.59964,-0.569672
 L 1.65465,-0.550003 L 1.67326,-0.541183 L 1.99263,-0.541183 L 1.99239,-0.183655 L 1.99626,-0.172775 L 2.01042,-0.116119
 L 2.01895,-0.0583344 L 2.02177,-0 L 2.01888,0.0583344 L 2.01027,0.116104 L 1.99603,0.17276 L 1.99214,0.183624
 L 1.99191,0.541 L 1.67267,0.541 L 1.65404,0.549805 L 1.59903,0.569458 L 1.54239,0.583664 L 1.4846,0.592224
 L 1.42628,0.595093 L 1.36794,0.592224 L 1.31018,0.583664 L 1.25354,0.569458 L 1.20084,0.550613 L 1.19862,0.549561
 L 1.17993,0.541 L 0.836105,0.541 L 0.540939,0.836014 L 0.540878,1.17969 L 0.550491,1.20058 L 0.569336,1.25325
 L 0.583527,1.30988 L 0.592072,1.36758 L 0.594925,1.42589 L 0.592056,1.48416 L 0.583481,1.54189 L 0.569275,1.5985
 L 0.549606,1.65343 L 0.540787,1.67204 L 0.540741,1.99095 L 0.183517,1.99095 L 0.172653,1.99483 L 0.116028,2.009
 L 0.0582886,2.01756 z
" stroke="black" fill="lightgray" stroke-width="0.5"/>
</svg>
