<?xml version="1.0" standalone="no"?>
<!DOCTYPE svg PUBLIC "-//W3C//DTD SVG 1.1//EN" "http://www.w3.org/Graphics/SVG/1.1/DTD/svg11.dtd">
<svg width="38mm" height="38mm" viewBox="-19 -21 38 38" xmlns="http://www.w3.org/2000/svg" version="1.1">
<title>OpenSCAD Model</title>
<path d="
M 0.927368,16.8772 L 1.85252,16.809 L 2.77319,16.6954 L 3.68719,16.5368 L 4.59232,16.3336 L 5.48637,16.0862
 L 6.36722,15.7952 L 7.23271,15.4613 L 8.08078,15.0854 L 8.90939,14.6683 L 9.71654,14.2111 L 10.5003,13.7148
 L 11.2587,13.1806 L 11.99,12.6099 L 12.6925,12.004 L 13.3643,11.3643 L 14.004,10.6925 L 14.6099,9.99002
 L 15.1806,9.25871 L 15.7148,8.50027 L 16.2111,7.71654 L 16.6683,6.90939 L 17.0854,6.08078 L 17.4613,5.23271
 L 17.7952,4.36722 L 18.0862,3.48637 L 18.3336,2.59232 L 18.5368,1.68719 L 18.6954,0.773193 L 18.809,-0.147461
 L 18.8772,-1.07262 L 18.9,-2 L 18.8772,-2.92737 L 18.809,-3.85252 L 18.6954,-4.77319 L 18.5368,-5.68719
 L 18.3336,-6.59232 L 18.0862,-7.48637 L 17.7952,-8.36722 L 17.4613,-9.23271 L 17.0854,-10.0808 L 16.6683,-10.9094
 L 16.2111,-11.7165 L 15.7148,-12.5003 L 15.1806,-13.2587 L 14.6099,-13.99 L 14.004,-14.6925 L 13.3643,-15.3643
 L 12.6925,-16.004 L 11.99,-16.6099 L 11.2587,-17.1806 L 10.5003,-17.7148 L 9.71654,-18.2111 L 8.90939,-18.6683
 L 8.08078,-19.0854 L 7.23271,-19.4613 L 6.36722,-19.7952 L 5.48637,-20.0862 L 4.59232,-20.3336 L 3.68719,-20.5368
 L 2.77319,-20.6954 L 1.85252,-20.809 L 0.927368,-20.8772 L 0,-20.9 L -0.927368,-20.8772 L -1.85252,-20.809
 L -2.77319,-20.6954 L -3.68719,-20.5368 L -4.59232,-20.3336 L -5.48637,-20.0862 L -6.36722,-19.7952 L -7.23271,-19.4613
 L -8.08078,-19.0854 L -8.90939,-18.6683 L -9.71654,-18.2111 L -10.5003,-17.7148 L -11.2587,-17.1806 L -11.99,-16.6099
 L -12.6925,-16.004 L -13.3643,-15.3643 L -14.004,-14.6925 L -14.6099,-13.99 L -15.1806,-13.2587 L -15.7148,-12.5003
 L -16.2111,-11.7165 L -16.6683,-10.9094 L -17.0854,-10.0808 L -17.4613,-9.23271 L -17.7952,-8.36722 L -18.0862,-7.48637
 L -18.3336,-6.59232 L -18.5368,-5.68719 L -18.6954,-4.77319 L -18.809,-3.85252 L -18.8772,-2.92737 L -18.9,-2
 L -18.8772,-1.07262 L -18.809,-0.147461 L -18.6954,0.773193 L -18.5368,1.68719 L -18.3336,2.59232 L -18.0862,3.48637
 L -17.7952,4.36722 L -17.4613,5.23271 L -17.0854,6.08078 L -16.6683,6.90939 L -16.2111,7.71654 L -15.7148,8.50027
 L -15.1806,9.25871 L -14.6099,9.99002 L -14.004,10.6925 L -13.3643,11.3643 L -12.6925,12.004 L -11.99,12.6099
 L -11.2587,13.1806 L -10.5003,13.7148 L -9.71654,14.2111 L -8.90939,14.6683 L -8.08078,15.0854 L -7.23271,15.4613
 L -6.36722,15.7952 L -5.48637,16.0862 L -4.59232,16.3336 L -3.68719,16.5368 L -2.77319,16.6954 L -1.85252,16.809
 L -0.927368,16.8772 L 0,16.9 z
M -4.5,13 L -4.5,9 L -3.7,9 L -3.7,0.274994 L -3.68817,0.0869904 L -3.65286,-0.0980225
 L -3.59465,-0.277176 L -3.51445,-0.447617 L -3.41351,-0.606674 L -3.29344,-0.751816 L -3.15613,-0.880768 L -3.00374,-0.991486
 L -2.83865,-1.08223 L -2.66351,-1.15158 L -2.48106,-1.19843 L -2.29417,-1.22203 L 10.2942,-1.22203 L 10.4811,-1.19843
 L 10.6635,-1.15158 L 10.8387,-1.08223 L 11.0037,-0.991486 L 11.1561,-0.880768 L 11.2934,-0.751816 L 11.4135,-0.606674
 L 11.5145,-0.447617 L 11.5947,-0.277176 L 11.6529,-0.0980225 L 11.6882,0.0869904 L 11.7,0.274994 L 11.7,9.72499
 L 11.6882,9.91299 L 11.6529,10.098 L 11.5947,10.2772 L 11.5145,10.4476 L 11.4135,10.6067 L 11.2934,10.7518
 L 11.1561,10.8808 L 11.0037,10.9915 L 10.8387,11.0822 L 10.6635,11.1516 L 10.4811,11.1984 L 10.2942,11.222
 L 4.5,11.222 L 4.5,13 z
" stroke="black" fill="lightgray" stroke-width="0.5"/>
</svg>
