<?xml version="1.0" standalone="no"?>
<!DOCTYPE svg PUBLIC "-//W3C//DTD SVG 1.1//EN" "http://www.w3.org/Graphics/SVG/1.1/DTD/svg11.dtd">
<svg width="20mm" height="16mm" viewBox="-10 -8 20 16" xmlns="http://www.w3.org/2000/svg" version="1.1">
<title>OpenSCAD Model</title>
<path d="
M 8.23106,7.94843 L 8.41351,7.90158 L 8.58865,7.83223 L 8.75374,7.74149 L 8.90613,7.63077 L 9.04344,7.50182
 L 9.16351,7.35667 L 9.26445,7.19762 L 9.34465,7.02718 L 9.40286,6.84802 L 9.43817,6.66299 L 9.45,6.47499
 L 9.45,-6.47499 L 9.43817,-6.66299 L 9.40286,-6.84802 L 9.34465,-7.02718 L 9.26445,-7.19762 L 9.16351,-7.35667
 L 9.04344,-7.50182 L 8.90613,-7.63077 L 8.75374,-7.74149 L 8.58865,-7.83223 L 8.41351,-7.90158 L 8.23106,-7.94843
 L 8.04417,-7.97203 L -8.04417,-7.97203 L -8.23106,-7.94843 L -8.41351,-7.90158 L -8.58865,-7.83223 L -8.75374,-7.74149
 L -8.90613,-7.63077 L -9.04344,-7.50182 L -9.16351,-7.35667 L -9.26445,-7.19762 L -9.34465,-7.02718 L -9.40286,-6.84802
 L -9.43817,-6.66299 L -9.45,-6.47499 L -9.45,6.47499 L -9.43817,6.66299 L -9.40286,6.84802 L -9.34465,7.02718
 L -9.26445,7.19762 L -9.16351,7.35667 L -9.04344,7.50182 L -8.90613,7.63077 L -8.75374,7.74149 L -8.58865,7.83223
 L -8.41351,7.90158 L -8.23106,7.94843 L -8.04417,7.97203 L 8.04417,7.97203 z
" stroke="black" fill="lightgray" stroke-width="0.5"/>
</svg>
