<?xml version="1.0" standalone="no"?>
<!DOCTYPE svg PUBLIC "-//W3C//DTD SVG 1.1//EN" "http://www.w3.org/Graphics/SVG/1.1/DTD/svg11.dtd">
<svg width="27mm" height="30mm" viewBox="0 -28 27 30" xmlns="http://www.w3.org/2000/svg" version="1.1">
<title>OpenSCAD Model</title>
<path d="
M 26.95,-27.9 L 21.475,-27.9 L 21.475,-25.8975 L 5.47499,-25.8975 L 5.47499,-27.9 L 0,-27.9
 L 0,2 L 26.95,2 z
M 13.3273,-21.6689 L 14.3707,-23.4453 L 14.4953,-23.6386 L 14.6157,-23.7881 L 14.7317,-23.8937 L 14.8523,-23.9635
 L 14.9861,-24.0053 L 15.1334,-24.0193 L 15.2386,-24.017 L 15.3316,-24.0103 L 15.4125,-23.999 L 15.3517,-23.6871
 L 15.2737,-23.6949 L 15.1957,-23.6996 L 15.1119,-23.6921 L 15.037,-23.6698 L 14.9711,-23.6325 L 14.9103,-23.5784
 L 14.8505,-23.5056 L 14.7918,-23.4141 L 14.7497,-23.3393 L 15.124,-21.6689 L 14.6608,-21.6689 L 14.5235,-22.4908
 L 14.5214,-22.5016 L 14.5194,-22.5154 L 14.5173,-22.5321 L 14.5152,-22.5501 L 14.511,-22.5852 L 14.5071,-22.6214
 L 14.4993,-22.6957 L 14.4877,-22.8082 L 14.4764,-22.9185 L 14.4696,-22.9863 L 14.4674,-23.0117 L 14.4409,-22.954
 L 14.2272,-22.497 L 13.7858,-21.6689 z
M 9.58316,-21.6689 L 10.6266,-23.4453 L 10.7513,-23.6386 L 10.8716,-23.7881 L 10.9877,-23.8937 L 11.1082,-23.9635
 L 11.2421,-24.0053 L 11.3893,-24.0193 L 11.4945,-24.017 L 11.5875,-24.0103 L 11.6685,-23.999 L 11.6076,-23.6871
 L 11.5296,-23.6949 L 11.4517,-23.6996 L 11.3678,-23.6921 L 11.2929,-23.6698 L 11.2271,-23.6325 L 11.1662,-23.5784
 L 11.1064,-23.5056 L 11.0477,-23.4141 L 11.0056,-23.3393 L 11.3799,-21.6689 L 10.9167,-21.6689 L 10.7794,-22.4908
 L 10.7773,-22.5016 L 10.7753,-22.5154 L 10.7732,-22.5321 L 10.7711,-22.5501 L 10.767,-22.5852 L 10.763,-22.6214
 L 10.7552,-22.6957 L 10.7436,-22.8082 L 10.7323,-22.9185 L 10.7255,-22.9863 L 10.7233,-23.0117 L 10.6968,-22.954
 L 10.4831,-22.497 L 10.0417,-21.6689 z
M 5.88741,-21.0419 L 6.26485,-22.9883 L 6.27974,-23.0701 L 6.2995,-23.1928 L 6.3241,-23.3564 L 6.74834,-23.3564
 L 6.74834,-23.3439 L 6.74712,-23.3147 L 6.74348,-23.2726 L 6.73743,-23.2176 L 6.7305,-23.1616 L 6.72426,-23.1164
 L 6.7187,-23.0819 L 6.72495,-23.0819 L 6.79886,-23.1769 L 6.8792,-23.2538 L 6.96594,-23.3127 L 7.06046,-23.3543
 L 7.16417,-23.3793 L 7.27708,-23.3876 L 7.41425,-23.3709 L 7.52837,-23.3207 L 7.61943,-23.2371 L 7.68571,-23.123
 L 7.72548,-22.9813 L 7.73874,-22.8121 L 7.73163,-22.6734 L 7.71031,-22.5279 L 7.6748,-22.3754 L 7.62723,-22.2272
 L 7.56978,-22.0947 L 7.50246,-21.9777 L 7.42586,-21.8771 L 7.34061,-21.7936 L 7.24667,-21.7273 L 7.14485,-21.6792
 L 7.03593,-21.6504 L 6.91991,-21.6408 L 6.81419,-21.6494 L 6.72165,-21.6754 L 6.64229,-21.7188 L 6.57782,-21.7778
 L 6.52998,-21.8512 L 6.49878,-21.9387 L 6.49568,-21.9387 L 6.44577,-21.6611 L 6.32567,-21.0419 z
M 6.90916,-21.9512 L 6.98871,-21.9889 L 7.06029,-22.0518 L 7.12311,-22.1388 L 7.17639,-22.2493 L 7.22015,-22.3832
 L 7.25266,-22.5229 L 7.27214,-22.6508 L 7.27864,-22.7669 L 7.25317,-22.9454 L 7.17674,-23.0524 L 7.04936,-23.0882
 L 6.98567,-23.0804 L 6.92355,-23.0573 L 6.86299,-23.0188 L 6.80571,-22.9658 L 6.75346,-22.8995 L 6.70624,-22.8199
 L 6.66499,-22.7273 L 6.63068,-22.6223 L 6.6033,-22.5048 L 6.58943,-22.4218 L 6.58112,-22.3454 L 6.57834,-22.2756
 L 6.58562,-22.1742 L 6.60745,-22.0905 L 6.64384,-22.0245 L 6.69272,-21.9768 L 6.75198,-21.9482 L 6.82166,-21.9387
 z
M 8.77637,-21.0419 L 8.8949,-21.6564 L 8.95262,-21.934 L 8.94949,-21.934 L 8.8833,-21.8465 L 8.80531,-21.7732
 L 8.71553,-21.7141 L 8.61641,-21.6708 L 8.51035,-21.6448 L 8.39735,-21.6361 L 8.25682,-21.6522 L 8.14088,-21.7006
 L 8.04955,-21.7812 L 7.98369,-21.8917 L 7.94418,-22.03 L 7.931,-22.196 L 7.93785,-22.3367 L 7.95839,-22.4823
 L 7.99263,-22.6327 L 8.03934,-22.7792 L 8.09731,-22.9128 L 8.16655,-23.0336 L 8.24557,-23.139 L 8.3329,-23.2266
 L 8.42856,-23.2964 L 8.53099,-23.3471 L 8.6386,-23.3775 L 8.75142,-23.3876 L 8.85435,-23.3789 L 8.94481,-23.3526
 L 9.0228,-23.3089 L 9.08691,-23.2486 L 9.13577,-23.173 L 9.1694,-23.0819 L 9.17566,-23.0819 L 9.18631,-23.1333
 L 9.19955,-23.1876 L 9.21542,-23.2449 L 9.23093,-23.2965 L 9.24315,-23.3336 L 9.25208,-23.3564 L 9.67632,-23.3564
 L 9.64044,-23.2067 L 9.59209,-22.9883 L 9.21463,-21.0419 z
M 8.72533,-21.9507 L 8.81552,-22.0009 L 8.89723,-22.0845 L 8.96768,-22.1979 L 9.02409,-22.3375 L 9.06647,-22.5033
 L 9.08034,-22.5865 L 9.08865,-22.6634 L 9.09143,-22.7341 L 9.08423,-22.8364 L 9.06267,-22.923 L 9.0267,-22.9938
 L 8.97809,-23.0462 L 8.91855,-23.0777 L 8.84811,-23.0882 L 8.7632,-23.0758 L 8.68521,-23.0386 L 8.61415,-22.9766
 L 8.55124,-22.8909 L 8.4977,-22.7825 L 8.45352,-22.6514 L 8.42059,-22.5125 L 8.40083,-22.3804 L 8.39426,-22.2553
 L 8.42007,-22.0768 L 8.49753,-21.9697 L 8.62665,-21.934 z
M 17.5869,-21.704 L 17.3628,-21.9032 L 17.2881,-22.235 L 17.2914,-22.3184 L 17.3013,-22.4104 L 17.3178,-22.5111
 L 17.3914,-22.7695 L 17.5042,-22.9856 L 17.6562,-23.1591 L 17.8432,-23.2861 L 18.0611,-23.3622 L 18.3097,-23.3876
 L 18.5088,-23.3696 L 18.6733,-23.3155 L 18.8034,-23.2254 L 18.8974,-23.1015 L 18.9538,-22.946 L 18.9726,-22.7591
 L 18.9588,-22.5691 L 18.9175,-22.382 L 18.8486,-22.1976 L 18.7546,-22.0292 L 18.6379,-21.8902 L 18.4985,-21.7804
 L 18.3382,-21.7011 L 18.1588,-21.6535 L 17.9604,-21.6377 z
M 18.1163,-21.95 L 18.2073,-21.9841 L 18.2848,-22.0408 L 18.3506,-22.1224 L 18.4068,-22.2308 L 18.4532,-22.366
 L 18.4879,-22.5097 L 18.5087,-22.6433 L 18.5156,-22.7669 L 18.4868,-22.9454 L 18.4005,-23.0524 L 18.2567,-23.0882
 L 18.1503,-23.0765 L 18.0578,-23.0417 L 17.9791,-22.9837 L 17.9123,-22.9 L 17.8554,-22.7885 L 17.8083,-22.6491
 L 17.7732,-22.5016 L 17.7522,-22.3656 L 17.7451,-22.2413 L 17.7522,-22.1457 L 17.7735,-22.069 L 17.8091,-22.0112
 L 17.86,-21.9709 L 17.9276,-21.9467 L 18.0118,-21.9387 z
M 11.3429,-21.2524 L 12.235,-22.1555 L 11.7219,-23.3564 L 12.2647,-23.3564 L 12.6,-22.4877 L 12.8402,-22.7092
 L 12.9665,-23.3564 L 13.4267,-23.3564 L 13.018,-21.2524 L 12.5579,-21.2524 L 12.7388,-22.1867 L 11.8779,-21.2524
 z
M 15.6953,-21.0419 L 16.0509,-22.876 L 16.0526,-22.8894 L 16.0536,-22.9024 L 16.054,-22.915 L 16.0517,-22.9417
 L 16.045,-22.9656 L 16.0337,-22.9868 L 16.0044,-23.019 L 15.9686,-23.0408 L 15.9261,-23.0523 L 15.5362,-23.0601
 L 15.5939,-23.3564 L 16.0758,-23.3486 L 16.1257,-23.3486 L 16.2169,-23.3467 L 16.2824,-23.341 L 16.3223,-23.3315
 L 16.4063,-23.288 L 16.4671,-23.2303 L 16.5047,-23.1583 L 16.5091,-23.1415 L 16.5117,-23.1202 L 16.5125,-23.0944
 L 16.5093,-23.0292 L 16.4994,-22.946 L 16.4829,-22.8448 L 16.1897,-21.3382 L 16.642,-21.3382 L 16.5858,-21.0419
 z
M 19.7576,-21.2524 L 19.5443,-21.2666 L 19.3683,-21.3093 L 19.2296,-21.3803 L 19.1295,-21.4789 L 19.0695,-21.6042
 L 19.0495,-21.7562 L 19.0572,-21.8665 L 19.0803,-21.977 L 19.1189,-22.0876 L 19.171,-22.1928 L 19.235,-22.2869
 L 19.3107,-22.3699 L 19.3982,-22.4416 L 19.4975,-22.5016 L 19.6086,-22.5501 L 19.7303,-22.5856 L 19.8616,-22.6069
 L 20.0024,-22.614 L 20.3097,-22.614 L 20.4547,-23.3564 L 20.9148,-23.3564 L 20.5062,-21.2524 z
M 20.1147,-21.6096 L 20.2411,-22.26 L 19.9915,-22.26 L 19.7643,-22.2227 L 19.6109,-22.1109 L 19.5314,-21.9246
 L 19.5262,-21.8943 L 19.5231,-21.8657 L 19.522,-21.8389 L 19.532,-21.7645 L 19.5619,-21.7058 L 19.6117,-21.6626
 L 19.6811,-21.6331 L 19.7698,-21.6155 L 19.8776,-21.6096 z
M 1,-4.14999 L 1,-18.7 L 25.95,-18.7 L 25.95,-4.14999 z
" stroke="black" fill="lightgray" stroke-width="0.5"/>
</svg>
