<?xml version="1.0" standalone="no"?>
<!DOCTYPE svg PUBLIC "-//W3C//DTD SVG 1.1//EN" "http://www.w3.org/Graphics/SVG/1.1/DTD/svg11.dtd">
<svg width="25mm" height="19mm" viewBox="-1 -19 25 19" xmlns="http://www.w3.org/2000/svg" version="1.1">
<title>OpenSCAD Model</title>
<path d="
M 17.65,-0 L 17.65,-11 L 18.9,-11 L 18.9,-0 L 22.4,-0 L 22.4,-0.399994
 L 23.3,-0.524994 L 23.3,-3.27499 L 23,-3.31667 L 23,-4.89999 L 22.9971,-4.89999 L 22.9971,-4.9588
 L 22.9742,-5.07416 L 22.9291,-5.18283 L 22.8638,-5.28062 L 22.7806,-5.3638 L 22.6828,-5.42914 L 22.5742,-5.47415
 L 22.4588,-5.4971 L 22.4,-5.4971 L 22.4,-9.51826 L 22.4414,-9.53542 L 22.4903,-9.56808 L 22.5319,-9.60968
 L 22.5646,-9.65857 L 22.5871,-9.71291 L 22.5985,-9.77058 L 22.5985,-9.82939 L 22.5871,-9.88708 L 22.5646,-9.94141
 L 22.5319,-9.99031 L 22.4903,-10.0319 L 22.4414,-10.0646 L 22.4,-10.0817 L 22.4,-18.35 L 0,-18.35
 L 0,-10.0817 L -0.0414124,-10.0646 L -0.0903168,-10.0319 L -0.131897,-9.99031 L -0.164566,-9.94141 L -0.187073,-9.88708
 L -0.198547,-9.82939 L -0.198547,-9.77058 L -0.187073,-9.71291 L -0.164566,-9.65857 L -0.131897,-9.60968 L -0.0903168,-9.56808
 L -0.0414124,-9.53542 L 0,-9.51826 L 0,-5.4971 L -0.0588074,-5.4971 L -0.174164,-5.47415 L -0.282837,-5.42914
 L -0.38063,-5.3638 L -0.463806,-5.28062 L -0.529144,-5.18283 L -0.574158,-5.07416 L -0.597107,-4.9588 L -0.597107,-4.89999
 L -0.599991,-4.89999 L -0.599991,-3.31667 L -0.899994,-3.27499 L -0.899994,-0.524994 L 0,-0.399994 L 0,-0
 L 3.5,-0 L 3.5,-11 L 4.75,-11 L 4.75,-0 z
" stroke="black" fill="lightgray" stroke-width="0.5"/>
</svg>
