#VRML V2.0 utf8
# from flex_cable.py, 44.8 mm by stl_to_wrl.py, units mm

Shape {
appearance Appearance {
material Material {
diffuseColor 0.7 0.3 0.1
shininess 0.2
}
}
geometry IndexedFaceSet {
coord Coordinate {
point [
-3.7500 -6.4822 15.6981,
-3.7500 -6.4800 15.5859,
-3.7500 -6.4799 15.8056,
-3.7500 -6.4736 15.4691,
-3.7500 -6.4729 15.9080,
-3.7500 -6.4631 15.3479,
-3.7500 -6.4609 16.0052,
-3.7500 -6.4489 15.2227,
-3.7500 -6.4437 16.0970,
-3.7500 -6.4312 15.0937,
-3.7500 -6.4208 16.1831,
-3.7500 -6.4100 14.9610,
-3.7500 -6.3920 16.2632,
-3.7500 -6.3858 14.8251,
-3.7500 -6.3722 15.6981,
-3.7500 -6.3701 15.5900,
-3.7500 -6.3700 15.8007,
-3.7500 -6.3638 15.4768,
-3.7500 -6.3634 15.8976,
-3.7500 -6.3585 14.6860,
-3.7500 -6.3567 16.3371,
-3.7500 -6.3537 15.3589,
-3.7500 -6.3522 15.9884,
-3.7500 -6.3398 15.2365,
-3.7500 -6.3364 16.0728,
-3.7500 -6.3286 14.5442,
-3.7500 -6.3224 15.1098,
-3.7500 -6.3158 16.1504,
-3.7500 -6.3146 16.4043,
-3.7500 -6.3016 14.9794,
-3.7500 -6.2961 14.3998,
-3.7500 -6.2904 16.2210,
-3.7500 -6.2776 14.8453,
-3.7500 -6.2654 16.4643,
-3.7500 -6.2612 14.2531,
-3.7500 -6.2602 16.2843,
-3.7500 -6.2507 14.7080,
-3.7500 -6.2252 16.3402,
-3.7500 -6.2243 14.1044,
-3.7500 -6.2211 14.5676,
-3.7500 -6.2089 16.5163,
-3.7500 -6.1889 14.4246,
-3.7500 -6.1854 13.9540,
-3.7500 -6.1854 16.3888,
-3.7500 -6.1544 14.2791,
-3.7500 -6.1450 16.5597,
-3.7500 -6.1448 13.8021,
-3.7500 -6.1405 16.4301,
-3.7500 -6.1177 14.1314,
-3.7500 -6.1027 13.6490,
-3.7500 -6.0902 16.4643,
-3.7500 -6.0790 13.9820,
-3.7500 -6.0740 16.5938,
-3.7500 -6.0593 13.4950,
-3.7500 -6.0387 13.8309,
-3.7500 -6.0337 16.4915,
-3.7500 -6.0148 13.3403,
-3.7500 -5.9968 13.6785,
-3.7500 -5.9962 16.6183,
-3.7500 -5.9704 16.5114,
-3.7500 -5.9694 13.1853,
-3.7500 -5.9535 13.5251,
-3.7500 -5.9232 13.0301,
-3.7500 -5.9119 16.6331,
-3.7500 -5.9092 13.3710,
-3.7500 -5.8997 16.5238,
-3.7500 -5.8766 12.8752,
-3.7500 -5.8639 13.2164,
-3.7500 -5.8297 12.7206,
-3.7500 -5.8220 16.6380,
-3.7500 -5.8200 16.5280,
-3.7500 -5.8179 13.0617,
-3.7500 -5.7827 12.5668,
-3.7500 -5.7713 12.9070,
-3.7500 -5.7358 12.4140,
-3.7500 -5.7245 12.7527,
-3.7500 -5.6892 12.2624,
-3.7500 -5.6775 12.5990,
-3.7500 -5.6646 16.5280,
-3.7500 -5.6646 16.6380,
-3.7500 -5.6431 12.1124,
-3.7500 -5.6306 12.4463,
-3.7500 -5.5978 11.9642,
-3.7500 -5.5841 12.2947,
-3.7500 -5.5534 11.8181,
-3.7500 -5.5380 12.1446,
-3.7500 -5.5101 11.6744,
-3.7500 -5.5082 16.5280,
-3.7500 -5.5082 16.6380,
-3.7500 -5.4926 11.9963,
-3.7500 -5.4682 11.5334,
-3.7500 -5.4481 11.8500,
-3.7500 -5.4278 11.3953,
-3.7500 -5.4047 11.7060,
-3.7500 -5.3891 11.2604,
-3.7500 -5.3627 11.5645,
-3.7500 -5.3524 11.1290,
-3.7500 -5.3519 16.5280,
-3.7500 -5.3519 16.6380,
-3.7500 -5.3221 11.4259,
-3.7500 -5.3178 11.0014,
-3.7500 -5.2856 10.8779,
-3.7500 -5.2833 11.2903,
-3.7500 -5.2560 10.7588,
-3.7500 -5.2463 11.1582,
-3.7500 -5.2291 10.6443,
-3.7500 -5.2115 11.0297,
-3.7500 -5.2052 10.5348,
-3.7500 -5.1955 16.5280,
-3.7500 -5.1955 16.6380,
-3.7500 -5.1845 10.4305,
-3.7500 -5.1790 10.9051,
-3.7500 -5.1671 10.3318,
-3.7500 -5.1533 10.2391,
-3.7500 -5.1491 10.7846,
-3.7500 -5.1432 10.1526,
-3.7500 -5.1371 10.0728,
-3.7500 -5.1350 -0.4003,
-3.7500 -5.1350 -0.2493,
-3.7500 -5.1350 -0.0986,
-3.7500 -5.1350 0.0522,
-3.7500 -5.1350 0.2029,
-3.7500 -5.1350 0.3536,
-3.7500 -5.1350 0.5043,
-3.7500 -5.1350 0.6551,
-3.7500 -5.1350 0.8058,
-3.7500 -5.1350 0.9565,
-3.7500 -5.1350 1.1072,
-3.7500 -5.1350 1.2580,
-3.7500 -5.1350 1.4087,
-3.7500 -5.1350 1.5594,
-3.7500 -5.1350 1.7101,
-3.7500 -5.1350 1.8609,
-3.7500 -5.1350 2.0116,
-3.7500 -5.1350 2.1623,
-3.7500 -5.1350 2.3130,
-3.7500 -5.1350 2.4638,
-3.7500 -5.1350 2.6145,
-3.7500 -5.1350 2.7652,
-3.7500 -5.1350 2.9159,
-3.7500 -5.1350 3.0667,
-3.7500 -5.1350 3.2174,
-3.7500 -5.1350 3.3681,
-3.7500 -5.1350 3.5188,
-3.7500 -5.1350 3.6696,
-3.7500 -5.1350 3.8203,
-3.7500 -5.1350 3.9710,
-3.7500 -5.1350 4.1217,
-3.7500 -5.1350 4.2725,
-3.7500 -5.1350 4.4232,
-3.7500 -5.1350 4.5739,
-3.7500 -5.1350 4.7246,
-3.7500 -5.1350 4.8754,
-3.7500 -5.1350 5.0261,
-3.7500 -5.1350 5.1768,
-3.7500 -5.1350 5.3275,
-3.7500 -5.1350 5.4783,
-3.7500 -5.1350 5.6290,
-3.7500 -5.1350 5.7797,
-3.7500 -5.1350 5.9304,
-3.7500 -5.1350 6.0812,
-3.7500 -5.1350 6.2319,
-3.7500 -5.1350 6.3826,
-3.7500 -5.1350 6.5333,
-3.7500 -5.1350 6.6841,
-3.7500 -5.1350 6.8348,
-3.7500 -5.1350 6.9855,
-3.7500 -5.1350 7.1362,
-3.7500 -5.1350 7.2870,
-3.7500 -5.1350 7.4377,
-3.7500 -5.1350 7.5884,
-3.7500 -5.1350 7.7391,
-3.7500 -5.1350 7.8899,
-3.7500 -5.1350 8.0406,
-3.7500 -5.1350 8.1913,
-3.7500 -5.1350 8.3420,
-3.7500 -5.1350 8.4928,
-3.7500 -5.1350 8.6435,
-3.7500 -5.1350 8.7942,
-3.7500 -5.1350 8.9449,
-3.7500 -5.1350 9.0957,
-3.7500 -5.1350 9.2464,
-3.7500 -5.1350 9.3971,
-3.7500 -5.1350 9.5478,
-3.7500 -5.1350 9.6986,
-3.7500 -5.1350 9.8493,
-3.7500 -5.1350 9.9995,
-3.7500 -5.1336 -0.5056,
-3.7500 -5.1293 -0.6102,
-3.7500 -5.1222 -0.7137,
-3.7500 -5.1218 10.6686,
-3.7500 -5.1123 -0.8162,
-3.7500 -5.0996 -0.9177,
-3.7500 -5.0975 10.5573,
-3.7500 -5.0842 -1.0181,
-3.7500 -5.0764 10.4508,
-3.7500 -5.0661 -1.1175,
-3.7500 -5.0585 10.3495,
-3.7500 -5.0453 -1.2158,
-3.7500 -5.0442 10.2536,
-3.7500 -5.0391 16.5280,
-3.7500 -5.0391 16.6380,
-3.7500 -5.0337 10.1633,
-3.7500 -5.0272 10.0787,
-3.7500 -5.0250 -0.3997,
-3.7500 -5.0250 -0.2493,
-3.7500 -5.0250 -0.0986,
-3.7500 -5.0250 0.0522,
-3.7500 -5.0250 0.2029,
-3.7500 -5.0250 0.3536,
-3.7500 -5.0250 0.5043,
-3.7500 -5.0250 0.6551,
-3.7500 -5.0250 0.8058,
-3.7500 -5.0250 0.9565,
-3.7500 -5.0250 1.1072,
-3.7500 -5.0250 1.2580,
-3.7500 -5.0250 1.4087,
-3.7500 -5.0250 1.5594,
-3.7500 -5.0250 1.7101,
-3.7500 -5.0250 1.8609,
-3.7500 -5.0250 2.0116,
-3.7500 -5.0250 2.1623,
-3.7500 -5.0250 2.3130,
-3.7500 -5.0250 2.4638,
-3.7500 -5.0250 2.6145,
-3.7500 -5.0250 2.7652,
-3.7500 -5.0250 2.9159,
-3.7500 -5.0250 3.0667,
-3.7500 -5.0250 3.2174,
-3.7500 -5.0250 3.3681,
-3.7500 -5.0250 3.5188,
-3.7500 -5.0250 3.6696,
-3.7500 -5.0250 3.8203,
-3.7500 -5.0250 3.9710,
-3.7500 -5.0250 4.1217,
-3.7500 -5.0250 4.2725,
-3.7500 -5.0250 4.4232,
-3.7500 -5.0250 4.5739,
-3.7500 -5.0250 4.7246,
-3.7500 -5.0250 4.8754,
-3.7500 -5.0250 5.0261,
-3.7500 -5.0250 5.1768,
-3.7500 -5.0250 5.3275,
-3.7500 -5.0250 5.4783,
-3.7500 -5.0250 5.6290,
-3.7500 -5.0250 5.7797,
-3.7500 -5.0250 5.9304,
-3.7500 -5.0250 6.0812,
-3.7500 -5.0250 6.2319,
-3.7500 -5.0250 6.3826,
-3.7500 -5.0250 6.5333,
-3.7500 -5.0250 6.6841,
-3.7500 -5.0250 6.8348,
-3.7500 -5.0250 6.9855,
-3.7500 -5.0250 7.1362,
-3.7500 -5.0250 7.2870,
-3.7500 -5.0250 7.4377,
-3.7500 -5.0250 7.5884,
-3.7500 -5.0250 7.7391,
-3.7500 -5.0250 7.8899,
-3.7500 -5.0250 8.0406,
-3.7500 -5.0250 8.1913,
-3.7500 -5.0250 8.3420,
-3.7500 -5.0250 8.4928,
-3.7500 -5.0250 8.6435,
-3.7500 -5.0250 8.7942,
-3.7500 -5.0250 8.9449,
-3.7500 -5.0250 9.0957,
-3.7500 -5.0250 9.2464,
-3.7500 -5.0250 9.3971,
-3.7500 -5.0250 9.5478,
-3.7500 -5.0250 9.6986,
-3.7500 -5.0250 9.8493,
-3.7500 -5.0250 10.0005,
-3.7500 -5.0236 -0.5026,
-3.7500 -5.0219 -1.3132,
-3.7500 -5.0194 -0.6041,
-3.7500 -5.0126 -0.7046,
-3.7500 -5.0029 -0.8041,
-3.7500 -4.9959 -1.4094,
-3.7500 -4.9907 -0.9025,
-3.7500 -4.9757 -0.9999,
-3.7500 -4.9673 -1.5047,
-3.7500 -4.9582 -1.0963,
-3.7500 -4.9380 -1.1916,
-3.7500 -4.9361 -1.5988,
-3.7500 -4.9153 -1.2859,
-3.7500 -4.9024 -1.6920,
-3.7500 -4.8901 -1.3792,
-3.7500 -4.8828 16.5280,
-3.7500 -4.8828 16.6380,
-3.7500 -4.8662 -1.7841,
-3.7500 -4.8624 -1.4715,
-3.7500 -4.8321 -1.5628,
-3.7500 -4.8275 -1.8751,
-3.7500 -4.7995 -1.6531,
-3.7500 -4.7864 -1.9651,
-3.7500 -4.7644 -1.7424,
-3.7500 -4.7430 -2.0540,
-3.7500 -4.7269 -1.8308,
-3.7500 -4.7264 16.5280,
-3.7500 -4.7264 16.6380,
-3.7500 -4.6971 -2.1419,
-3.7500 -4.6870 -1.9181,
-3.7500 -4.6489 -2.2288,
-3.7500 -4.6448 -2.0044,
-3.7500 -4.6002 -2.0898,
-3.7500 -4.5984 -2.3146,
-3.7500 -4.5700 16.5280,
-3.7500 -4.5700 16.6380,
-3.7500 -4.5534 -2.1742,
-3.7500 -4.5457 -2.3993,
-3.7500 -4.5043 -2.2576,
-3.7500 -4.4907 -2.4830,
-3.7500 -4.4530 -2.3400,
-3.7500 -4.4334 -2.5657,
-3.7500 -4.3995 -2.4215,
-3.7500 -4.3741 -2.6473,
-3.7500 -4.3438 -2.5020,
-3.7500 -4.3125 -2.7278,
-3.7500 -4.2859 -2.5815,
-3.7500 -4.2489 -2.8074,
-3.7500 -4.2259 -2.6601,
-3.7500 -4.1831 -2.8858,
-3.7500 -4.1638 -2.7377,
-3.7500 -4.1153 -2.9633,
-3.7500 -4.0996 -2.8143,
-3.7500 -4.0455 -3.0397,
-3.7500 -4.0333 -2.8900,
-3.7500 -3.9737 -3.1151,
-3.7500 -3.9651 -2.9647,
-3.7500 -3.8999 -3.1894,
-3.7500 -3.8948 -3.0384,
-3.7500 -3.8242 -3.2628,
-3.7500 -3.8226 -3.1112,
-3.7500 -3.7485 -3.1830,
-3.7500 -3.7466 -3.3351,
-3.7500 -3.6724 -3.2539,
-3.7500 -3.6671 -3.4063,
-3.7500 -3.5944 -3.3238,
-3.7500 -3.5858 -3.4766,
-3.7500 -3.5146 -3.3927,
-3.7500 -3.5027 -3.5458,
-3.7500 -3.4330 -3.4607,
-3.7500 -3.4177 -3.6141,
-3.7500 -3.3496 -3.5277,
-3.7500 -3.3311 -3.6813,
-3.7500 -3.2644 -3.5938,
-3.7500 -3.2427 -3.7475,
-3.7500 -3.1775 -3.6589,
-3.7500 -3.1526 -3.8127,
-3.7500 -3.0888 -3.7231,
-3.7500 -3.0609 -3.8769,
-3.7500 -2.9985 -3.7863,
-3.7500 -2.9675 -3.9401,
-3.7500 -2.9065 -3.8485,
-3.7500 -2.8725 -4.0023,
-3.7500 -2.8129 -3.9098,
-3.7500 -2.7759 -4.0635,
-3.7500 -2.7177 -3.9701,
-3.7500 -2.6778 -4.1237,
-3.7500 -2.6210 -4.0295,
-3.7500 -2.5782 -4.1829,
-3.7500 -2.5226 -4.0880,
-3.7500 -2.4771 -4.2411,
-3.7500 -2.4228 -4.1454,
-3.7500 -2.3745 -4.2984,
-3.7500 -2.3215 -4.2020,
-3.7500 -2.2705 -4.3546,
-3.7500 -2.2188 -4.2575,
-3.7500 -2.1651 -4.4099,
-3.7500 -2.1146 -4.3122,
-3.7500 -2.0583 -4.4642,
-3.7500 -2.0091 -4.3658,
-3.7500 -1.9502 -4.5175,
-3.7500 -1.9021 -4.4186,
-3.7500 -1.8408 -4.5698,
-3.7500 -1.7939 -4.4703,
-3.7500 -1.7301 -4.6212,
-3.7500 -1.6843 -4.5212,
-3.7500 -1.6181 -4.6716,
-3.7500 -1.5735 -4.5710,
-3.7500 -1.5049 -4.7210,
-3.7500 -1.4614 -4.6200,
-3.7500 -1.3905 -4.7695,
-3.7500 -1.3481 -4.6680,
-3.7500 -1.2749 -4.8170,
-3.7500 -1.2336 -4.7150,
-3.7500 -1.1582 -4.8635,
-3.7500 -1.1180 -4.7611,
-3.7500 -1.0404 -4.9091,
-3.7500 -1.0012 -4.8063,
-3.7500 -0.9215 -4.9537,
-3.7500 -0.8833 -4.8505,
-3.7500 -0.8015 -4.9974,
-3.7500 -0.7644 -4.8938,
-3.7500 -0.6805 -5.0401,
-3.7500 -0.6444 -4.9362,
-3.7500 -0.5585 -5.0818,
-3.7500 -0.5234 -4.9776,
-3.7500 -0.4356 -5.1227,
-3.7500 -0.4014 -5.0181,
-3.7500 -0.3117 -5.1625,
-3.7500 -0.2785 -5.0576,
-3.7500 -0.1869 -5.2014,
-3.7500 -0.1546 -5.0963,
-3.7500 -0.0612 -5.2394,
-3.7500 -0.0299 -5.1339,
-3.7500 0.0653 -5.2764,
-3.7500 0.0957 -5.1707,
-3.7500 0.1926 -5.3125,
-3.7500 0.2222 -5.2065,
-3.7500 0.3208 -5.3476,
-3.7500 0.3494 -5.2414,
-3.7500 0.4497 -5.3818,
-3.7500 0.4775 -5.2754,
-3.7500 0.5793 -5.4151,
-3.7500 0.6062 -5.3084,
-3.7500 0.7097 -5.4474,
-3.7500 0.7357 -5.3405,
-3.7500 0.8407 -5.4788,
-3.7500 0.8659 -5.3717,
-3.7500 0.9724 -5.5093,
-3.7500 0.9968 -5.4020,
-3.7500 1.1047 -5.5388,
-3.7500 1.1283 -5.4314,
-3.7500 1.2376 -5.5674,
-3.7500 1.2603 -5.4598,
-3.7500 1.3710 -5.5951,
-3.7500 1.3930 -5.4873,
-3.7500 1.5050 -5.6219,
-3.7500 1.5262 -5.5139,
-3.7500 1.6395 -5.6477,
-3.7500 1.6599 -5.5396,
-3.7500 1.7745 -5.6726,
-3.7500 1.7941 -5.5644,
-3.7500 1.9099 -5.6966,
-3.7500 1.9287 -5.5882,
-3.7500 2.0458 -5.7197,
-3.7500 2.0638 -5.6112,
-3.7500 2.1820 -5.7419,
-3.7500 2.1993 -5.6332,
-3.7500 2.3186 -5.7631,
-3.7500 2.3351 -5.6544,
-3.7500 2.4555 -5.7835,
-3.7500 2.4713 -5.6746,
-3.7500 2.5927 -5.8029,
-3.7500 2.6078 -5.6939,
-3.7500 2.7302 -5.8214,
-3.7500 2.7445 -5.7123,
-3.7500 2.8679 -5.8390,
-3.7500 2.8815 -5.7299,
-3.7500 3.0059 -5.8557,
-3.7500 3.0188 -5.7465,
-3.7500 3.1440 -5.8715,
-3.7500 3.1562 -5.7622,
-3.7500 3.2823 -5.8864,
-3.7500 3.2938 -5.7770,
-3.7500 3.4208 -5.9004,
-3.7500 3.4315 -5.7909,
-3.7500 3.5593 -5.9135,
-3.7500 3.5693 -5.8040,
-3.7500 3.6979 -5.9257,
-3.7500 3.7072 -5.8161,
-3.7500 3.8366 -5.9370,
-3.7500 3.8451 -5.8274,
-3.7500 3.9752 -5.9474,
-3.7500 3.9831 -5.8377,
-3.7500 4.1139 -5.9570,
-3.7500 4.1210 -5.8472,
-3.7500 4.2525 -5.9656,
-3.7500 4.2589 -5.8558,
-3.7500 4.3910 -5.9733,
-3.7500 4.3968 -5.8635,
-3.7500 4.5294 -5.9802,
-3.7500 4.5345 -5.8703,
-3.7500 4.6677 -5.9861,
-3.7500 4.6721 -5.8762,
-3.7500 4.8058 -5.9912,
-3.7500 4.8095 -5.8813,
-3.7500 4.9438 -5.9954,
-3.7500 4.9468 -5.8854,
-3.7500 5.0815 -5.9987,
-3.7500 5.0838 -5.8887,
-3.7500 5.2190 -6.0011,
-3.7500 5.2206 -5.8911,
-3.7500 5.3562 -6.0027,
-3.7500 5.3571 -5.8927,
-3.7500 5.4931 -6.0034,
-3.7500 5.4933 -5.8934,
-3.7500 5.6291 -5.8932,
-3.7500 5.6296 -6.0032,
-3.7500 5.7646 -5.8921,
-3.7500 5.7658 -6.0021,
-3.7500 5.8997 -5.8901,
-3.7500 5.9016 -6.0001,
-3.7500 6.0344 -5.8873,
-3.7500 6.0370 -5.9973,
-3.7500 6.1686 -5.8837,
-3.7500 6.1720 -5.9936,
-3.7500 6.3023 -5.8791,
-3.7500 6.3064 -5.9891,
-3.7500 6.4356 -5.8737,
-3.7500 6.4404 -5.9836,
-3.7500 6.5683 -5.8675,
-3.7500 6.5738 -5.9773,
-3.7500 6.7004 -5.8604,
-3.7500 6.7067 -5.9702,
-3.7500 6.8319 -5.8524,
-3.7500 6.8389 -5.9622,
-3.7500 6.9628 -5.8435,
-3.7500 6.9706 -5.9533,
-3.7500 7.0930 -5.8339,
-3.7500 7.1016 -5.9435,
-3.7500 7.2226 -5.8233,
-3.7500 7.2319 -5.9329,
-3.7500 7.3514 -5.8119,
-3.7500 7.3615 -5.9215,
-3.7500 7.4795 -5.7997,
-3.7500 7.4903 -5.9092,
-3.7500 7.6068 -5.7866,
-3.7500 7.6184 -5.8960,
-3.7500 7.7333 -5.7727,
-3.7500 7.7457 -5.8820,
-3.7500 7.8589 -5.7579,
-3.7500 7.8722 -5.8671,
-3.7500 7.9838 -5.7423,
-3.7500 7.9978 -5.8514,
-3.7500 8.1077 -5.7258,
-3.7500 8.1226 -5.8348,
-3.7500 8.2306 -5.7085,
-3.7500 8.2464 -5.8174,
-3.7500 8.3527 -5.6904,
-3.7500 8.3693 -5.7991,
-3.7500 8.4737 -5.6714,
-3.7500 8.4912 -5.7800,
-3.7500 8.5938 -5.6516,
-3.7500 8.6121 -5.7601,
-3.7500 8.7128 -5.6310,
-3.7500 8.7320 -5.7393,
-3.7500 8.8307 -5.6095,
-3.7500 8.8509 -5.7177,
-3.7500 8.9475 -5.5872,
-3.7500 8.9686 -5.6952,
-3.7500 9.0000 -2.0112,
-3.7500 9.0000 -1.9012,
-3.7500 9.0633 -5.5641,
-3.7500 9.0853 -5.6719,
-3.7500 9.1556 -2.0112,
-3.7500 9.1556 -1.9012,
-3.7500 9.1778 -5.5402,
-3.7500 9.2008 -5.6477,
-3.7500 9.2912 -5.5154,
-3.7500 9.3111 -2.0112,
-3.7500 9.3111 -1.9012,
-3.7500 9.3151 -5.6227,
-3.7500 9.4033 -5.4898,
-3.7500 9.4283 -5.5969,
-3.7500 9.4667 -2.0112,
-3.7500 9.4667 -1.9012,
-3.7500 9.5142 -5.4634,
-3.7500 9.5402 -5.5703,
-3.7500 9.6222 -2.0112,
-3.7500 9.6222 -1.9012,
-3.7500 9.6238 -5.4362,
-3.7500 9.6508 -5.5428,
-3.7500 9.7321 -5.4081,
-3.7500 9.7602 -5.5145,
-3.7500 9.7778 -2.0112,
-3.7500 9.7778 -1.9012,
-3.7500 9.8391 -5.3793,
-3.7500 9.8683 -5.4853,
-3.7500 9.9333 -2.0112,
-3.7500 9.9333 -1.9012,
-3.7500 9.9447 -5.3496,
-3.7500 9.9750 -5.4554,
-3.7500 10.0489 -5.3191,
-3.7500 10.0804 -5.4246,
-3.7500 10.0889 -2.0112,
-3.7500 10.0889 -1.9012,
-3.7500 10.1517 -5.2879,
-3.7500 10.1843 -5.3929,
-3.7500 10.2444 -2.0112,
-3.7500 10.2444 -1.9012,
-3.7500 10.2531 -5.2558,
-3.7500 10.2869 -5.3605,
-3.7500 10.3529 -5.2229,
-3.7500 10.3879 -5.3272,
-3.7500 10.4000 -2.0112,
-3.7500 10.4000 -1.9012,
-3.7500 10.4512 -5.1892,
-3.7500 10.4875 -5.2931,
-3.7500 10.5480 -5.1547,
-3.7500 10.5640 -2.0113,
-3.7500 10.5642 -1.9013,
-3.7500 10.5856 -5.2581,
-3.7500 10.6433 -5.1195,
-3.7500 10.6821 -5.2224,
-3.7500 10.7283 -2.0119,
-3.7500 10.7291 -1.9019,
-3.7500 10.7369 -5.0834,
-3.7500 10.7771 -5.1858,
-3.7500 10.8289 -5.0466,
-3.7500 10.8705 -5.1484,
-3.7500 10.8921 -2.0135,
-3.7500 10.8938 -1.9035,
-3.7500 10.9192 -5.0089,
-3.7500 10.9622 -5.1102,
-3.7500 11.0078 -4.9705,
-3.7500 11.0523 -5.0711,
-3.7500 11.0546 -2.0168,
-3.7500 11.0575 -1.9068,
-3.7500 11.0947 -4.9313,
-3.7500 11.1407 -5.0312,
-3.7500 11.1799 -4.8913,
-3.7500 11.2149 -2.0221,
-3.7500 11.2196 -1.9122,
-3.7500 11.2274 -4.9905,
-3.7500 11.2633 -4.8506,
-3.7500 11.3124 -4.9490,
-3.7500 11.3449 -4.8090,
-3.7500 11.3724 -2.0301,
-3.7500 11.3791 -1.9203,
-3.7500 11.3956 -4.9067,
-3.7500 11.4246 -4.7668,
-3.7500 11.4770 -4.8635,
-3.7500 11.5024 -4.7237,
-3.7500 11.5260 -2.0413,
-3.7500 11.5354 -1.9317,
-3.7500 11.5565 -4.8195,
-3.7500 11.5784 -4.6799,
-3.7500 11.6343 -4.7747,
-3.7500 11.6524 -4.6353,
-3.7500 11.6751 -2.0561,
-3.7500 11.6877 -1.9468,
-3.7500 11.7101 -4.7290,
-3.7500 11.7245 -4.5900,
-3.7500 11.7840 -4.6825,
-3.7500 11.7946 -4.5439,
-3.7500 11.8188 -2.0751,
-3.7500 11.8353 -1.9663,
-3.7500 11.8560 -4.6352,
-3.7500 11.8627 -4.4971,
-3.7500 11.9260 -4.5871,
-3.7500 11.9287 -4.4496,
-3.7500 11.9563 -2.0987,
-3.7500 11.9774 -1.9907,
-3.7500 11.9927 -4.4013,
-3.7500 11.9940 -4.5381,
-3.7500 12.0545 -4.3523,
-3.7500 12.0599 -4.4883,
-3.7500 12.0867 -2.1274,
-3.7500 12.1133 -2.0207,
-3.7500 12.1142 -4.3026,
-3.7500 12.1239 -4.4377,
-3.7500 12.1718 -4.2521,
-3.7500 12.1857 -4.3862,
-3.7500 12.2091 -2.1617,
-3.7500 12.2272 -4.2010,
-3.7500 12.2423 -2.0568,
-3.7500 12.2454 -4.3339,
-3.7500 12.2804 -4.1491,
-3.7500 12.3029 -4.2808,
-3.7500 12.3228 -2.2019,
-3.7500 12.3313 -4.0965,
-3.7500 12.3583 -4.2268,
-3.7500 12.3635 -2.0997,
-3.7500 12.3800 -4.0433,
-3.7500 12.4114 -4.1719,
-3.7500 12.4264 -3.9893,
-3.7500 12.4269 -2.2484,
-3.7500 12.4623 -4.1163,
-3.7500 12.4705 -3.9347,
-3.7500 12.4764 -2.1502,
-3.7500 12.5109 -4.0597,
-3.7500 12.5123 -3.8793,
-3.7500 12.5206 -2.3015,
-3.7500 12.5517 -3.8233,
-3.7500 12.5572 -4.0023,
-3.7500 12.5800 -2.2089,
-3.7500 12.5887 -3.7666,
-3.7500 12.6012 -3.9441,
-3.7500 12.6032 -2.3615,
-3.7500 12.6233 -3.7092,
-3.7500 12.6427 -3.8850,
-3.7500 12.6555 -3.6512,
-3.7500 12.6734 -2.2768,
-3.7500 12.6745 -2.4287,
-3.7500 12.6819 -3.8251,
-3.7500 12.6853 -3.5924,
-3.7500 12.7126 -3.5330,
-3.7500 12.7185 -3.7643,
-3.7500 12.7339 -2.5037,
-3.7500 12.7374 -3.4729,
-3.7500 12.7527 -3.7027,
-3.7500 12.7555 -2.3544,
-3.7500 12.7597 -3.4121,
-3.7500 12.7795 -3.3506,
-3.7500 12.7812 -2.5873,
-3.7500 12.7843 -3.6402,
-3.7500 12.7967 -3.2884,
-3.7500 12.8113 -3.2255,
-3.7500 12.8134 -3.5769,
-3.7500 12.8159 -2.6804,
-3.7500 12.8234 -3.1619,
-3.7500 12.8251 -2.4423,
-3.7500 12.8328 -3.0975,
-3.7500 12.8376 -2.7843,
-3.7500 12.8396 -3.0324,
-3.7500 12.8399 -3.5128,
-3.7500 12.8436 -2.9666,
-3.7500 12.8450 -2.9019,
-3.7500 12.8637 -3.4479,
-3.7500 12.8809 -2.5409,
-3.7500 12.8848 -3.3821,
-3.7500 12.9033 -3.3156,
-3.7500 12.9190 -3.2482,
-3.7500 12.9217 -2.6501,
-3.7500 12.9319 -3.1801,
-3.7500 12.9419 -3.1112,
-3.7500 12.9466 -2.7698,
-3.7500 12.9492 -3.0415,
-3.7500 12.9535 -2.9711,
-3.7500 12.9550 -2.8981,
3.7500 -6.4822 15.6981,
3.7500 -6.4800 15.5859,
3.7500 -6.4799 15.8056,
3.7500 -6.4736 15.4691,
3.7500 -6.4729 15.9080,
3.7500 -6.4631 15.3479,
3.7500 -6.4609 16.0052,
3.7500 -6.4489 15.2227,
3.7500 -6.4437 16.0970,
3.7500 -6.4312 15.0937,
3.7500 -6.4208 16.1831,
3.7500 -6.4100 14.9610,
3.7500 -6.3920 16.2632,
3.7500 -6.3858 14.8251,
3.7500 -6.3722 15.6981,
3.7500 -6.3701 15.5900,
3.7500 -6.3700 15.8007,
3.7500 -6.3638 15.4768,
3.7500 -6.3634 15.8976,
3.7500 -6.3585 14.6860,
3.7500 -6.3567 16.3371,
3.7500 -6.3537 15.3589,
3.7500 -6.3522 15.9884,
3.7500 -6.3398 15.2365,
3.7500 -6.3364 16.0728,
3.7500 -6.3286 14.5442,
3.7500 -6.3224 15.1098,
3.7500 -6.3158 16.1504,
3.7500 -6.3146 16.4043,
3.7500 -6.3016 14.9794,
3.7500 -6.2961 14.3998,
3.7500 -6.2904 16.2210,
3.7500 -6.2776 14.8453,
3.7500 -6.2654 16.4643,
3.7500 -6.2612 14.2531,
3.7500 -6.2602 16.2843,
3.7500 -6.2507 14.7080,
3.7500 -6.2252 16.3402,
3.7500 -6.2243 14.1044,
3.7500 -6.2211 14.5676,
3.7500 -6.2089 16.5163,
3.7500 -6.1889 14.4246,
3.7500 -6.1854 13.9540,
3.7500 -6.1854 16.3888,
3.7500 -6.1544 14.2791,
3.7500 -6.1450 16.5597,
3.7500 -6.1448 13.8021,
3.7500 -6.1405 16.4301,
3.7500 -6.1177 14.1314,
3.7500 -6.1027 13.6490,
3.7500 -6.0902 16.4643,
3.7500 -6.0790 13.9820,
3.7500 -6.0740 16.5938,
3.7500 -6.0593 13.4950,
3.7500 -6.0387 13.8309,
3.7500 -6.0337 16.4915,
3.7500 -6.0148 13.3403,
3.7500 -5.9968 13.6785,
3.7500 -5.9962 16.6183,
3.7500 -5.9704 16.5114,
3.7500 -5.9694 13.1853,
3.7500 -5.9535 13.5251,
3.7500 -5.9232 13.0301,
3.7500 -5.9119 16.6331,
3.7500 -5.9092 13.3710,
3.7500 -5.8997 16.5238,
3.7500 -5.8766 12.8752,
3.7500 -5.8639 13.2164,
3.7500 -5.8297 12.7206,
3.7500 -5.8220 16.6380,
3.7500 -5.8200 16.5280,
3.7500 -5.8179 13.0617,
3.7500 -5.7827 12.5668,
3.7500 -5.7713 12.9070,
3.7500 -5.7358 12.4140,
3.7500 -5.7245 12.7527,
3.7500 -5.6892 12.2624,
3.7500 -5.6775 12.5990,
3.7500 -5.6646 16.5280,
3.7500 -5.6646 16.6380,
3.7500 -5.6431 12.1124,
3.7500 -5.6306 12.4463,
3.7500 -5.5978 11.9642,
3.7500 -5.5841 12.2947,
3.7500 -5.5534 11.8181,
3.7500 -5.5380 12.1446,
3.7500 -5.5101 11.6744,
3.7500 -5.5082 16.5280,
3.7500 -5.5082 16.6380,
3.7500 -5.4926 11.9963,
3.7500 -5.4682 11.5334,
3.7500 -5.4481 11.8500,
3.7500 -5.4278 11.3953,
3.7500 -5.4047 11.7060,
3.7500 -5.3891 11.2604,
3.7500 -5.3627 11.5645,
3.7500 -5.3524 11.1290,
3.7500 -5.3519 16.5280,
3.7500 -5.3519 16.6380,
3.7500 -5.3221 11.4259,
3.7500 -5.3178 11.0014,
3.7500 -5.2856 10.8779,
3.7500 -5.2833 11.2903,
3.7500 -5.2560 10.7588,
3.7500 -5.2463 11.1582,
3.7500 -5.2291 10.6443,
3.7500 -5.2115 11.0297,
3.7500 -5.2052 10.5348,
3.7500 -5.1955 16.5280,
3.7500 -5.1955 16.6380,
3.7500 -5.1845 10.4305,
3.7500 -5.1790 10.9051,
3.7500 -5.1671 10.3318,
3.7500 -5.1533 10.2391,
3.7500 -5.1491 10.7846,
3.7500 -5.1432 10.1526,
3.7500 -5.1371 10.0728,
3.7500 -5.1350 -0.4003,
3.7500 -5.1350 -0.2493,
3.7500 -5.1350 -0.0986,
3.7500 -5.1350 0.0522,
3.7500 -5.1350 0.2029,
3.7500 -5.1350 0.3536,
3.7500 -5.1350 0.5043,
3.7500 -5.1350 0.6551,
3.7500 -5.1350 0.8058,
3.7500 -5.1350 0.9565,
3.7500 -5.1350 1.1072,
3.7500 -5.1350 1.2580,
3.7500 -5.1350 1.4087,
3.7500 -5.1350 1.5594,
3.7500 -5.1350 1.7101,
3.7500 -5.1350 1.8609,
3.7500 -5.1350 2.0116,
3.7500 -5.1350 2.1623,
3.7500 -5.1350 2.3130,
3.7500 -5.1350 2.4638,
3.7500 -5.1350 2.6145,
3.7500 -5.1350 2.7652,
3.7500 -5.1350 2.9159,
3.7500 -5.1350 3.0667,
3.7500 -5.1350 3.2174,
3.7500 -5.1350 3.3681,
3.7500 -5.1350 3.5188,
3.7500 -5.1350 3.6696,
3.7500 -5.1350 3.8203,
3.7500 -5.1350 3.9710,
3.7500 -5.1350 4.1217,
3.7500 -5.1350 4.2725,
3.7500 -5.1350 4.4232,
3.7500 -5.1350 4.5739,
3.7500 -5.1350 4.7246,
3.7500 -5.1350 4.8754,
3.7500 -5.1350 5.0261,
3.7500 -5.1350 5.1768,
3.7500 -5.1350 5.3275,
3.7500 -5.1350 5.4783,
3.7500 -5.1350 5.6290,
3.7500 -5.1350 5.7797,
3.7500 -5.1350 5.9304,
3.7500 -5.1350 6.0812,
3.7500 -5.1350 6.2319,
3.7500 -5.1350 6.3826,
3.7500 -5.1350 6.5333,
3.7500 -5.1350 6.6841,
3.7500 -5.1350 6.8348,
3.7500 -5.1350 6.9855,
3.7500 -5.1350 7.1362,
3.7500 -5.1350 7.2870,
3.7500 -5.1350 7.4377,
3.7500 -5.1350 7.5884,
3.7500 -5.1350 7.7391,
3.7500 -5.1350 7.8899,
3.7500 -5.1350 8.0406,
3.7500 -5.1350 8.1913,
3.7500 -5.1350 8.3420,
3.7500 -5.1350 8.4928,
3.7500 -5.1350 8.6435,
3.7500 -5.1350 8.7942,
3.7500 -5.1350 8.9449,
3.7500 -5.1350 9.0957,
3.7500 -5.1350 9.2464,
3.7500 -5.1350 9.3971,
3.7500 -5.1350 9.5478,
3.7500 -5.1350 9.6986,
3.7500 -5.1350 9.8493,
3.7500 -5.1350 9.9995,
3.7500 -5.1336 -0.5056,
3.7500 -5.1293 -0.6102,
3.7500 -5.1222 -0.7137,
3.7500 -5.1218 10.6686,
3.7500 -5.1123 -0.8162,
3.7500 -5.0996 -0.9177,
3.7500 -5.0975 10.5573,
3.7500 -5.0842 -1.0181,
3.7500 -5.0764 10.4508,
3.7500 -5.0661 -1.1175,
3.7500 -5.0585 10.3495,
3.7500 -5.0453 -1.2158,
3.7500 -5.0442 10.2536,
3.7500 -5.0391 16.5280,
3.7500 -5.0391 16.6380,
3.7500 -5.0337 10.1633,
3.7500 -5.0272 10.0787,
3.7500 -5.0250 -0.3997,
3.7500 -5.0250 -0.2493,
3.7500 -5.0250 -0.0986,
3.7500 -5.0250 0.0522,
3.7500 -5.0250 0.2029,
3.7500 -5.0250 0.3536,
3.7500 -5.0250 0.5043,
3.7500 -5.0250 0.6551,
3.7500 -5.0250 0.8058,
3.7500 -5.0250 0.9565,
3.7500 -5.0250 1.1072,
3.7500 -5.0250 1.2580,
3.7500 -5.0250 1.4087,
3.7500 -5.0250 1.5594,
3.7500 -5.0250 1.7101,
3.7500 -5.0250 1.8609,
3.7500 -5.0250 2.0116,
3.7500 -5.0250 2.1623,
3.7500 -5.0250 2.3130,
3.7500 -5.0250 2.4638,
3.7500 -5.0250 2.6145,
3.7500 -5.0250 2.7652,
3.7500 -5.0250 2.9159,
3.7500 -5.0250 3.0667,
3.7500 -5.0250 3.2174,
3.7500 -5.0250 3.3681,
3.7500 -5.0250 3.5188,
3.7500 -5.0250 3.6696,
3.7500 -5.0250 3.8203,
3.7500 -5.0250 3.9710,
3.7500 -5.0250 4.1217,
3.7500 -5.0250 4.2725,
3.7500 -5.0250 4.4232,
3.7500 -5.0250 4.5739,
3.7500 -5.0250 4.7246,
3.7500 -5.0250 4.8754,
3.7500 -5.0250 5.0261,
3.7500 -5.0250 5.1768,
3.7500 -5.0250 5.3275,
3.7500 -5.0250 5.4783,
3.7500 -5.0250 5.6290,
3.7500 -5.0250 5.7797,
3.7500 -5.0250 5.9304,
3.7500 -5.0250 6.0812,
3.7500 -5.0250 6.2319,
3.7500 -5.0250 6.3826,
3.7500 -5.0250 6.5333,
3.7500 -5.0250 6.6841,
3.7500 -5.0250 6.8348,
3.7500 -5.0250 6.9855,
3.7500 -5.0250 7.1362,
3.7500 -5.0250 7.2870,
3.7500 -5.0250 7.4377,
3.7500 -5.0250 7.5884,
3.7500 -5.0250 7.7391,
3.7500 -5.0250 7.8899,
3.7500 -5.0250 8.0406,
3.7500 -5.0250 8.1913,
3.7500 -5.0250 8.3420,
3.7500 -5.0250 8.4928,
3.7500 -5.0250 8.6435,
3.7500 -5.0250 8.7942,
3.7500 -5.0250 8.9449,
3.7500 -5.0250 9.0957,
3.7500 -5.0250 9.2464,
3.7500 -5.0250 9.3971,
3.7500 -5.0250 9.5478,
3.7500 -5.0250 9.6986,
3.7500 -5.0250 9.8493,
3.7500 -5.0250 10.0005,
3.7500 -5.0236 -0.5026,
3.7500 -5.0219 -1.3132,
3.7500 -5.0194 -0.6041,
3.7500 -5.0126 -0.7046,
3.7500 -5.0029 -0.8041,
3.7500 -4.9959 -1.4094,
3.7500 -4.9907 -0.9025,
3.7500 -4.9757 -0.9999,
3.7500 -4.9673 -1.5047,
3.7500 -4.9582 -1.0963,
3.7500 -4.9380 -1.1916,
3.7500 -4.9361 -1.5988,
3.7500 -4.9153 -1.2859,
3.7500 -4.9024 -1.6920,
3.7500 -4.8901 -1.3792,
3.7500 -4.8828 16.5280,
3.7500 -4.8828 16.6380,
3.7500 -4.8662 -1.7841,
3.7500 -4.8624 -1.4715,
3.7500 -4.8321 -1.5628,
3.7500 -4.8275 -1.8751,
3.7500 -4.7995 -1.6531,
3.7500 -4.7864 -1.9651,
3.7500 -4.7644 -1.7424,
3.7500 -4.7430 -2.0540,
3.7500 -4.7269 -1.8308,
3.7500 -4.7264 16.5280,
3.7500 -4.7264 16.6380,
3.7500 -4.6971 -2.1419,
3.7500 -4.6870 -1.9181,
3.7500 -4.6489 -2.2288,
3.7500 -4.6448 -2.0044,
3.7500 -4.6002 -2.0898,
3.7500 -4.5984 -2.3146,
3.7500 -4.5700 16.5280,
3.7500 -4.5700 16.6380,
3.7500 -4.5534 -2.1742,
3.7500 -4.5457 -2.3993,
3.7500 -4.5043 -2.2576,
3.7500 -4.4907 -2.4830,
3.7500 -4.4530 -2.3400,
3.7500 -4.4334 -2.5657,
3.7500 -4.3995 -2.4215,
3.7500 -4.3741 -2.6473,
3.7500 -4.3438 -2.5020,
3.7500 -4.3125 -2.7278,
3.7500 -4.2859 -2.5815,
3.7500 -4.2489 -2.8074,
3.7500 -4.2259 -2.6601,
3.7500 -4.1831 -2.8858,
3.7500 -4.1638 -2.7377,
3.7500 -4.1153 -2.9633,
3.7500 -4.0996 -2.8143,
3.7500 -4.0455 -3.0397,
3.7500 -4.0333 -2.8900,
3.7500 -3.9737 -3.1151,
3.7500 -3.9651 -2.9647,
3.7500 -3.8999 -3.1894,
3.7500 -3.8948 -3.0384,
3.7500 -3.8242 -3.2628,
3.7500 -3.8226 -3.1112,
3.7500 -3.7485 -3.1830,
3.7500 -3.7466 -3.3351,
3.7500 -3.6724 -3.2539,
3.7500 -3.6671 -3.4063,
3.7500 -3.5944 -3.3238,
3.7500 -3.5858 -3.4766,
3.7500 -3.5146 -3.3927,
3.7500 -3.5027 -3.5458,
3.7500 -3.4330 -3.4607,
3.7500 -3.4177 -3.6141,
3.7500 -3.3496 -3.5277,
3.7500 -3.3311 -3.6813,
3.7500 -3.2644 -3.5938,
3.7500 -3.2427 -3.7475,
3.7500 -3.1775 -3.6589,
3.7500 -3.1526 -3.8127,
3.7500 -3.0888 -3.7231,
3.7500 -3.0609 -3.8769,
3.7500 -2.9985 -3.7863,
3.7500 -2.9675 -3.9401,
3.7500 -2.9065 -3.8485,
3.7500 -2.8725 -4.0023,
3.7500 -2.8129 -3.9098,
3.7500 -2.7759 -4.0635,
3.7500 -2.7177 -3.9701,
3.7500 -2.6778 -4.1237,
3.7500 -2.6210 -4.0295,
3.7500 -2.5782 -4.1829,
3.7500 -2.5226 -4.0880,
3.7500 -2.4771 -4.2411,
3.7500 -2.4228 -4.1454,
3.7500 -2.3745 -4.2984,
3.7500 -2.3215 -4.2020,
3.7500 -2.2705 -4.3546,
3.7500 -2.2188 -4.2575,
3.7500 -2.1651 -4.4099,
3.7500 -2.1146 -4.3122,
3.7500 -2.0583 -4.4642,
3.7500 -2.0091 -4.3658,
3.7500 -1.9502 -4.5175,
3.7500 -1.9021 -4.4186,
3.7500 -1.8408 -4.5698,
3.7500 -1.7939 -4.4703,
3.7500 -1.7301 -4.6212,
3.7500 -1.6843 -4.5212,
3.7500 -1.6181 -4.6716,
3.7500 -1.5735 -4.5710,
3.7500 -1.5049 -4.7210,
3.7500 -1.4614 -4.6200,
3.7500 -1.3905 -4.7695,
3.7500 -1.3481 -4.6680,
3.7500 -1.2749 -4.8170,
3.7500 -1.2336 -4.7150,
3.7500 -1.1582 -4.8635,
3.7500 -1.1180 -4.7611,
3.7500 -1.0404 -4.9091,
3.7500 -1.0012 -4.8063,
3.7500 -0.9215 -4.9537,
3.7500 -0.8833 -4.8505,
3.7500 -0.8015 -4.9974,
3.7500 -0.7644 -4.8938,
3.7500 -0.6805 -5.0401,
3.7500 -0.6444 -4.9362,
3.7500 -0.5585 -5.0818,
3.7500 -0.5234 -4.9776,
3.7500 -0.4356 -5.1227,
3.7500 -0.4014 -5.0181,
3.7500 -0.3117 -5.1625,
3.7500 -0.2785 -5.0576,
3.7500 -0.1869 -5.2014,
3.7500 -0.1546 -5.0963,
3.7500 -0.0612 -5.2394,
3.7500 -0.0299 -5.1339,
3.7500 0.0653 -5.2764,
3.7500 0.0957 -5.1707,
3.7500 0.1926 -5.3125,
3.7500 0.2222 -5.2065,
3.7500 0.3208 -5.3476,
3.7500 0.3494 -5.2414,
3.7500 0.4497 -5.3818,
3.7500 0.4775 -5.2754,
3.7500 0.5793 -5.4151,
3.7500 0.6062 -5.3084,
3.7500 0.7097 -5.4474,
3.7500 0.7357 -5.3405,
3.7500 0.8407 -5.4788,
3.7500 0.8659 -5.3717,
3.7500 0.9724 -5.5093,
3.7500 0.9968 -5.4020,
3.7500 1.1047 -5.5388,
3.7500 1.1283 -5.4314,
3.7500 1.2376 -5.5674,
3.7500 1.2603 -5.4598,
3.7500 1.3710 -5.5951,
3.7500 1.3930 -5.4873,
3.7500 1.5050 -5.6219,
3.7500 1.5262 -5.5139,
3.7500 1.6395 -5.6477,
3.7500 1.6599 -5.5396,
3.7500 1.7745 -5.6726,
3.7500 1.7941 -5.5644,
3.7500 1.9099 -5.6966,
3.7500 1.9287 -5.5882,
3.7500 2.0458 -5.7197,
3.7500 2.0638 -5.6112,
3.7500 2.1820 -5.7419,
3.7500 2.1993 -5.6332,
3.7500 2.3186 -5.7631,
3.7500 2.3351 -5.6544,
3.7500 2.4555 -5.7835,
3.7500 2.4713 -5.6746,
3.7500 2.5927 -5.8029,
3.7500 2.6078 -5.6939,
3.7500 2.7302 -5.8214,
3.7500 2.7445 -5.7123,
3.7500 2.8679 -5.8390,
3.7500 2.8815 -5.7299,
3.7500 3.0059 -5.8557,
3.7500 3.0188 -5.7465,
3.7500 3.1440 -5.8715,
3.7500 3.1562 -5.7622,
3.7500 3.2823 -5.8864,
3.7500 3.2938 -5.7770,
3.7500 3.4208 -5.9004,
3.7500 3.4315 -5.7909,
3.7500 3.5593 -5.9135,
3.7500 3.5693 -5.8040,
3.7500 3.6979 -5.9257,
3.7500 3.7072 -5.8161,
3.7500 3.8366 -5.9370,
3.7500 3.8451 -5.8274,
3.7500 3.9752 -5.9474,
3.7500 3.9831 -5.8377,
3.7500 4.1139 -5.9570,
3.7500 4.1210 -5.8472,
3.7500 4.2525 -5.9656,
3.7500 4.2589 -5.8558,
3.7500 4.3910 -5.9733,
3.7500 4.3968 -5.8635,
3.7500 4.5294 -5.9802,
3.7500 4.5345 -5.8703,
3.7500 4.6677 -5.9861,
3.7500 4.6721 -5.8762,
3.7500 4.8058 -5.9912,
3.7500 4.8095 -5.8813,
3.7500 4.9438 -5.9954,
3.7500 4.9468 -5.8854,
3.7500 5.0815 -5.9987,
3.7500 5.0838 -5.8887,
3.7500 5.2190 -6.0011,
3.7500 5.2206 -5.8911,
3.7500 5.3562 -6.0027,
3.7500 5.3571 -5.8927,
3.7500 5.4931 -6.0034,
3.7500 5.4933 -5.8934,
3.7500 5.6291 -5.8932,
3.7500 5.6296 -6.0032,
3.7500 5.7646 -5.8921,
3.7500 5.7658 -6.0021,
3.7500 5.8997 -5.8901,
3.7500 5.9016 -6.0001,
3.7500 6.0344 -5.8873,
3.7500 6.0370 -5.9973,
3.7500 6.1686 -5.8837,
3.7500 6.1720 -5.9936,
3.7500 6.3023 -5.8791,
3.7500 6.3064 -5.9891,
3.7500 6.4356 -5.8737,
3.7500 6.4404 -5.9836,
3.7500 6.5683 -5.8675,
3.7500 6.5738 -5.9773,
3.7500 6.7004 -5.8604,
3.7500 6.7067 -5.9702,
3.7500 6.8319 -5.8524,
3.7500 6.8389 -5.9622,
3.7500 6.9628 -5.8435,
3.7500 6.9706 -5.9533,
3.7500 7.0930 -5.8339,
3.7500 7.1016 -5.9435,
3.7500 7.2226 -5.8233,
3.7500 7.2319 -5.9329,
3.7500 7.3514 -5.8119,
3.7500 7.3615 -5.9215,
3.7500 7.4795 -5.7997,
3.7500 7.4903 -5.9092,
3.7500 7.6068 -5.7866,
3.7500 7.6184 -5.8960,
3.7500 7.7333 -5.7727,
3.7500 7.7457 -5.8820,
3.7500 7.8589 -5.7579,
3.7500 7.8722 -5.8671,
3.7500 7.9838 -5.7423,
3.7500 7.9978 -5.8514,
3.7500 8.1077 -5.7258,
3.7500 8.1226 -5.8348,
3.7500 8.2306 -5.7085,
3.7500 8.2464 -5.8174,
3.7500 8.3527 -5.6904,
3.7500 8.3693 -5.7991,
3.7500 8.4737 -5.6714,
3.7500 8.4912 -5.7800,
3.7500 8.5938 -5.6516,
3.7500 8.6121 -5.7601,
3.7500 8.7128 -5.6310,
3.7500 8.7320 -5.7393,
3.7500 8.8307 -5.6095,
3.7500 8.8509 -5.7177,
3.7500 8.9475 -5.5872,
3.7500 8.9686 -5.6952,
3.7500 9.0000 -2.0112,
3.7500 9.0000 -1.9012,
3.7500 9.0633 -5.5641,
3.7500 9.0853 -5.6719,
3.7500 9.1556 -2.0112,
3.7500 9.1556 -1.9012,
3.7500 9.1778 -5.5402,
3.7500 9.2008 -5.6477,
3.7500 9.2912 -5.5154,
3.7500 9.3111 -2.0112,
3.7500 9.3111 -1.9012,
3.7500 9.3151 -5.6227,
3.7500 9.4033 -5.4898,
3.7500 9.4283 -5.5969,
3.7500 9.4667 -2.0112,
3.7500 9.4667 -1.9012,
3.7500 9.5142 -5.4634,
3.7500 9.5402 -5.5703,
3.7500 9.6222 -2.0112,
3.7500 9.6222 -1.9012,
3.7500 9.6238 -5.4362,
3.7500 9.6508 -5.5428,
3.7500 9.7321 -5.4081,
3.7500 9.7602 -5.5145,
3.7500 9.7778 -2.0112,
3.7500 9.7778 -1.9012,
3.7500 9.8391 -5.3793,
3.7500 9.8683 -5.4853,
3.7500 9.9333 -2.0112,
3.7500 9.9333 -1.9012,
3.7500 9.9447 -5.3496,
3.7500 9.9750 -5.4554,
3.7500 10.0489 -5.3191,
3.7500 10.0804 -5.4246,
3.7500 10.0889 -2.0112,
3.7500 10.0889 -1.9012,
3.7500 10.1517 -5.2879,
3.7500 10.1843 -5.3929,
3.7500 10.2444 -2.0112,
3.7500 10.2444 -1.9012,
3.7500 10.2531 -5.2558,
3.7500 10.2869 -5.3605,
3.7500 10.3529 -5.2229,
3.7500 10.3879 -5.3272,
3.7500 10.4000 -2.0112,
3.7500 10.4000 -1.9012,
3.7500 10.4512 -5.1892,
3.7500 10.4875 -5.2931,
3.7500 10.5480 -5.1547,
3.7500 10.5640 -2.0113,
3.7500 10.5642 -1.9013,
3.7500 10.5856 -5.2581,
3.7500 10.6433 -5.1195,
3.7500 10.6821 -5.2224,
3.7500 10.7283 -2.0119,
3.7500 10.7291 -1.9019,
3.7500 10.7369 -5.0834,
3.7500 10.7771 -5.1858,
3.7500 10.8289 -5.0466,
3.7500 10.8705 -5.1484,
3.7500 10.8921 -2.0135,
3.7500 10.8938 -1.9035,
3.7500 10.9192 -5.0089,
3.7500 10.9622 -5.1102,
3.7500 11.0078 -4.9705,
3.7500 11.0523 -5.0711,
3.7500 11.0546 -2.0168,
3.7500 11.0575 -1.9068,
3.7500 11.0947 -4.9313,
3.7500 11.1407 -5.0312,
3.7500 11.1799 -4.8913,
3.7500 11.2149 -2.0221,
3.7500 11.2196 -1.9122,
3.7500 11.2274 -4.9905,
3.7500 11.2633 -4.8506,
3.7500 11.3124 -4.9490,
3.7500 11.3449 -4.8090,
3.7500 11.3724 -2.0301,
3.7500 11.3791 -1.9203,
3.7500 11.3956 -4.9067,
3.7500 11.4246 -4.7668,
3.7500 11.4770 -4.8635,
3.7500 11.5024 -4.7237,
3.7500 11.5260 -2.0413,
3.7500 11.5354 -1.9317,
3.7500 11.5565 -4.8195,
3.7500 11.5784 -4.6799,
3.7500 11.6343 -4.7747,
3.7500 11.6524 -4.6353,
3.7500 11.6751 -2.0561,
3.7500 11.6877 -1.9468,
3.7500 11.7101 -4.7290,
3.7500 11.7245 -4.5900,
3.7500 11.7840 -4.6825,
3.7500 11.7946 -4.5439,
3.7500 11.8188 -2.0751,
3.7500 11.8353 -1.9663,
3.7500 11.8560 -4.6352,
3.7500 11.8627 -4.4971,
3.7500 11.9260 -4.5871,
3.7500 11.9287 -4.4496,
3.7500 11.9563 -2.0987,
3.7500 11.9774 -1.9907,
3.7500 11.9927 -4.4013,
3.7500 11.9940 -4.5381,
3.7500 12.0545 -4.3523,
3.7500 12.0599 -4.4883,
3.7500 12.0867 -2.1274,
3.7500 12.1133 -2.0207,
3.7500 12.1142 -4.3026,
3.7500 12.1239 -4.4377,
3.7500 12.1718 -4.2521,
3.7500 12.1857 -4.3862,
3.7500 12.2091 -2.1617,
3.7500 12.2272 -4.2010,
3.7500 12.2423 -2.0568,
3.7500 12.2454 -4.3339,
3.7500 12.2804 -4.1491,
3.7500 12.3029 -4.2808,
3.7500 12.3228 -2.2019,
3.7500 12.3313 -4.0965,
3.7500 12.3583 -4.2268,
3.7500 12.3635 -2.0997,
3.7500 12.3800 -4.0433,
3.7500 12.4114 -4.1719,
3.7500 12.4264 -3.9893,
3.7500 12.4269 -2.2484,
3.7500 12.4623 -4.1163,
3.7500 12.4705 -3.9347,
3.7500 12.4764 -2.1502,
3.7500 12.5109 -4.0597,
3.7500 12.5123 -3.8793,
3.7500 12.5206 -2.3015,
3.7500 12.5517 -3.8233,
3.7500 12.5572 -4.0023,
3.7500 12.5800 -2.2089,
3.7500 12.5887 -3.7666,
3.7500 12.6012 -3.9441,
3.7500 12.6032 -2.3615,
3.7500 12.6233 -3.7092,
3.7500 12.6427 -3.8850,
3.7500 12.6555 -3.6512,
3.7500 12.6734 -2.2768,
3.7500 12.6745 -2.4287,
3.7500 12.6819 -3.8251,
3.7500 12.6853 -3.5924,
3.7500 12.7126 -3.5330,
3.7500 12.7185 -3.7643,
3.7500 12.7339 -2.5037,
3.7500 12.7374 -3.4729,
3.7500 12.7527 -3.7027,
3.7500 12.7555 -2.3544,
3.7500 12.7597 -3.4121,
3.7500 12.7795 -3.3506,
3.7500 12.7812 -2.5873,
3.7500 12.7843 -3.6402,
3.7500 12.7967 -3.2884,
3.7500 12.8113 -3.2255,
3.7500 12.8134 -3.5769,
3.7500 12.8159 -2.6804,
3.7500 12.8234 -3.1619,
3.7500 12.8251 -2.4423,
3.7500 12.8328 -3.0975,
3.7500 12.8376 -2.7843,
3.7500 12.8396 -3.0324,
3.7500 12.8399 -3.5128,
3.7500 12.8436 -2.9666,
3.7500 12.8450 -2.9019,
3.7500 12.8637 -3.4479,
3.7500 12.8809 -2.5409,
3.7500 12.8848 -3.3821,
3.7500 12.9033 -3.3156,
3.7500 12.9190 -3.2482,
3.7500 12.9217 -2.6501,
3.7500 12.9319 -3.1801,
3.7500 12.9419 -3.1112,
3.7500 12.9466 -2.7698,
3.7500 12.9492 -3.0415,
3.7500 12.9535 -2.9711,
3.7500 12.9550 -2.8981
]
}
coordIndex [
308,1032,1024,-1,
308,1024,300,-1,
1025,1033,309,-1,
301,1025,309,-1,
301,309,308,-1,
300,301,308,-1,
1032,1033,1025,-1,
1032,1025,1024,-1,
300,1024,1013,-1,
300,1013,289,-1,
1014,1025,301,-1,
290,1014,301,-1,
290,301,300,-1,
289,290,300,-1,
1024,1025,1014,-1,
1024,1014,1013,-1,
289,1013,924,-1,
289,924,200,-1,
925,1014,290,-1,
201,925,290,-1,
201,290,289,-1,
200,201,289,-1,
1013,1014,925,-1,
1013,925,924,-1,
200,924,832,-1,
200,832,108,-1,
833,925,201,-1,
109,833,201,-1,
109,201,200,-1,
108,109,200,-1,
924,925,833,-1,
924,833,832,-1,
108,832,821,-1,
108,821,97,-1,
822,833,109,-1,
98,822,109,-1,
98,109,108,-1,
97,98,108,-1,
832,833,822,-1,
832,822,821,-1,
97,821,811,-1,
97,811,87,-1,
812,822,98,-1,
88,812,98,-1,
88,98,97,-1,
87,88,97,-1,
821,822,812,-1,
821,812,811,-1,
87,811,802,-1,
87,802,78,-1,
803,812,88,-1,
79,803,88,-1,
79,88,87,-1,
78,79,87,-1,
811,812,803,-1,
811,803,802,-1,
78,802,794,-1,
78,794,70,-1,
793,803,79,-1,
69,793,79,-1,
69,79,78,-1,
70,69,78,-1,
802,803,793,-1,
802,793,794,-1,
70,794,789,-1,
70,789,65,-1,
787,793,69,-1,
63,787,69,-1,
63,69,70,-1,
65,63,70,-1,
794,793,787,-1,
794,787,789,-1,
65,789,783,-1,
65,783,59,-1,
782,787,63,-1,
58,782,63,-1,
58,63,65,-1,
59,58,65,-1,
789,787,782,-1,
789,782,783,-1,
59,783,779,-1,
59,779,55,-1,
776,782,58,-1,
52,776,58,-1,
52,58,59,-1,
55,52,59,-1,
783,782,776,-1,
783,776,779,-1,
55,779,774,-1,
55,774,50,-1,
769,776,52,-1,
45,769,52,-1,
45,52,55,-1,
50,45,55,-1,
779,776,769,-1,
779,769,774,-1,
50,774,771,-1,
50,771,47,-1,
764,769,45,-1,
40,764,45,-1,
40,45,50,-1,
47,40,50,-1,
774,769,764,-1,
774,764,771,-1,
47,771,767,-1,
47,767,43,-1,
757,764,40,-1,
33,757,40,-1,
33,40,47,-1,
43,33,47,-1,
771,764,757,-1,
771,757,767,-1,
43,767,761,-1,
43,761,37,-1,
752,757,33,-1,
28,752,33,-1,
28,33,43,-1,
37,28,43,-1,
767,757,752,-1,
767,752,761,-1,
37,761,759,-1,
37,759,35,-1,
744,752,28,-1,
20,744,28,-1,
20,28,37,-1,
35,20,37,-1,
761,752,744,-1,
761,744,759,-1,
35,759,755,-1,
35,755,31,-1,
736,744,20,-1,
12,736,20,-1,
12,20,35,-1,
31,12,35,-1,
759,744,736,-1,
759,736,755,-1,
31,755,751,-1,
31,751,27,-1,
734,736,12,-1,
10,734,12,-1,
10,12,31,-1,
27,10,31,-1,
755,736,734,-1,
755,734,751,-1,
27,751,748,-1,
27,748,24,-1,
732,734,10,-1,
8,732,10,-1,
8,10,27,-1,
24,8,27,-1,
751,734,732,-1,
751,732,748,-1,
24,748,746,-1,
24,746,22,-1,
730,732,8,-1,
6,730,8,-1,
6,8,24,-1,
22,6,24,-1,
748,732,730,-1,
748,730,746,-1,
22,746,742,-1,
22,742,18,-1,
728,730,6,-1,
4,728,6,-1,
4,6,22,-1,
18,4,22,-1,
746,730,728,-1,
746,728,742,-1,
18,742,740,-1,
18,740,16,-1,
726,728,4,-1,
2,726,4,-1,
2,4,18,-1,
16,2,18,-1,
742,728,726,-1,
742,726,740,-1,
16,740,738,-1,
16,738,14,-1,
724,726,2,-1,
0,724,2,-1,
0,2,16,-1,
14,0,16,-1,
740,726,724,-1,
740,724,738,-1,
14,738,739,-1,
14,739,15,-1,
725,724,0,-1,
1,725,0,-1,
1,0,14,-1,
15,1,14,-1,
738,724,725,-1,
738,725,739,-1,
15,739,741,-1,
15,741,17,-1,
727,725,1,-1,
3,727,1,-1,
3,1,15,-1,
17,3,15,-1,
739,725,727,-1,
739,727,741,-1,
17,741,745,-1,
17,745,21,-1,
729,727,3,-1,
5,729,3,-1,
5,3,17,-1,
21,5,17,-1,
741,727,729,-1,
741,729,745,-1,
21,745,747,-1,
21,747,23,-1,
731,729,5,-1,
7,731,5,-1,
7,5,21,-1,
23,7,21,-1,
745,729,731,-1,
745,731,747,-1,
23,747,750,-1,
23,750,26,-1,
733,731,7,-1,
9,733,7,-1,
9,7,23,-1,
26,9,23,-1,
747,731,733,-1,
747,733,750,-1,
26,750,753,-1,
26,753,29,-1,
735,733,9,-1,
11,735,9,-1,
11,9,26,-1,
29,11,26,-1,
750,733,735,-1,
750,735,753,-1,
29,753,756,-1,
29,756,32,-1,
737,735,11,-1,
13,737,11,-1,
13,11,29,-1,
32,13,29,-1,
753,735,737,-1,
753,737,756,-1,
32,756,760,-1,
32,760,36,-1,
743,737,13,-1,
19,743,13,-1,
19,13,32,-1,
36,19,32,-1,
756,737,743,-1,
756,743,760,-1,
36,760,763,-1,
36,763,39,-1,
749,743,19,-1,
25,749,19,-1,
25,19,36,-1,
39,25,36,-1,
760,743,749,-1,
760,749,763,-1,
39,763,765,-1,
39,765,41,-1,
754,749,25,-1,
30,754,25,-1,
30,25,39,-1,
41,30,39,-1,
763,749,754,-1,
763,754,765,-1,
41,765,768,-1,
41,768,44,-1,
758,754,30,-1,
34,758,30,-1,
34,30,41,-1,
44,34,41,-1,
765,754,758,-1,
765,758,768,-1,
44,768,772,-1,
44,772,48,-1,
762,758,34,-1,
38,762,34,-1,
38,34,44,-1,
48,38,44,-1,
768,758,762,-1,
768,762,772,-1,
48,772,775,-1,
48,775,51,-1,
766,762,38,-1,
42,766,38,-1,
42,38,48,-1,
51,42,48,-1,
772,762,766,-1,
772,766,775,-1,
51,775,778,-1,
51,778,54,-1,
770,766,42,-1,
46,770,42,-1,
46,42,51,-1,
54,46,51,-1,
775,766,770,-1,
775,770,778,-1,
54,778,781,-1,
54,781,57,-1,
773,770,46,-1,
49,773,46,-1,
49,46,54,-1,
57,49,54,-1,
778,770,773,-1,
778,773,781,-1,
57,781,785,-1,
57,785,61,-1,
777,773,49,-1,
53,777,49,-1,
53,49,57,-1,
61,53,57,-1,
781,773,777,-1,
781,777,785,-1,
61,785,788,-1,
61,788,64,-1,
780,777,53,-1,
56,780,53,-1,
56,53,61,-1,
64,56,61,-1,
785,777,780,-1,
785,780,788,-1,
64,788,791,-1,
64,791,67,-1,
784,780,56,-1,
60,784,56,-1,
60,56,64,-1,
67,60,64,-1,
788,780,784,-1,
788,784,791,-1,
67,791,795,-1,
67,795,71,-1,
786,784,60,-1,
62,786,60,-1,
62,60,67,-1,
71,62,67,-1,
791,784,786,-1,
791,786,795,-1,
71,795,797,-1,
71,797,73,-1,
790,786,62,-1,
66,790,62,-1,
66,62,71,-1,
73,66,71,-1,
795,786,790,-1,
795,790,797,-1,
73,797,799,-1,
73,799,75,-1,
792,790,66,-1,
68,792,66,-1,
68,66,73,-1,
75,68,73,-1,
797,790,792,-1,
797,792,799,-1,
75,799,801,-1,
75,801,77,-1,
796,792,68,-1,
72,796,68,-1,
72,68,75,-1,
77,72,75,-1,
799,792,796,-1,
799,796,801,-1,
77,801,805,-1,
77,805,81,-1,
798,796,72,-1,
74,798,72,-1,
74,72,77,-1,
81,74,77,-1,
801,796,798,-1,
801,798,805,-1,
81,805,807,-1,
81,807,83,-1,
800,798,74,-1,
76,800,74,-1,
76,74,81,-1,
83,76,81,-1,
805,798,800,-1,
805,800,807,-1,
83,807,809,-1,
83,809,85,-1,
804,800,76,-1,
80,804,76,-1,
80,76,83,-1,
85,80,83,-1,
807,800,804,-1,
807,804,809,-1,
85,809,813,-1,
85,813,89,-1,
806,804,80,-1,
82,806,80,-1,
82,80,85,-1,
89,82,85,-1,
809,804,806,-1,
809,806,813,-1,
89,813,815,-1,
89,815,91,-1,
808,806,82,-1,
84,808,82,-1,
84,82,89,-1,
91,84,89,-1,
813,806,808,-1,
813,808,815,-1,
91,815,817,-1,
91,817,93,-1,
810,808,84,-1,
86,810,84,-1,
86,84,91,-1,
93,86,91,-1,
815,808,810,-1,
815,810,817,-1,
93,817,819,-1,
93,819,95,-1,
814,810,86,-1,
90,814,86,-1,
90,86,93,-1,
95,90,93,-1,
817,810,814,-1,
817,814,819,-1,
95,819,823,-1,
95,823,99,-1,
816,814,90,-1,
92,816,90,-1,
92,90,95,-1,
99,92,95,-1,
819,814,816,-1,
819,816,823,-1,
99,823,826,-1,
99,826,102,-1,
818,816,92,-1,
94,818,92,-1,
94,92,99,-1,
102,94,99,-1,
823,816,818,-1,
823,818,826,-1,
102,826,828,-1,
102,828,104,-1,
820,818,94,-1,
96,820,94,-1,
96,94,102,-1,
104,96,102,-1,
826,818,820,-1,
826,820,828,-1,
104,828,830,-1,
104,830,106,-1,
824,820,96,-1,
100,824,96,-1,
100,96,104,-1,
106,100,104,-1,
828,820,824,-1,
828,824,830,-1,
106,830,835,-1,
106,835,111,-1,
825,824,100,-1,
101,825,100,-1,
101,100,106,-1,
111,101,106,-1,
830,824,825,-1,
830,825,835,-1,
111,835,838,-1,
111,838,114,-1,
827,825,101,-1,
103,827,101,-1,
103,101,111,-1,
114,103,111,-1,
835,825,827,-1,
835,827,838,-1,
114,838,914,-1,
114,914,190,-1,
829,827,103,-1,
105,829,103,-1,
105,103,114,-1,
190,105,114,-1,
838,827,829,-1,
838,829,914,-1,
190,914,917,-1,
190,917,193,-1,
831,829,105,-1,
107,831,105,-1,
107,105,190,-1,
193,107,190,-1,
914,829,831,-1,
914,831,917,-1,
193,917,919,-1,
193,919,195,-1,
834,831,107,-1,
110,834,107,-1,
110,107,193,-1,
195,110,193,-1,
917,831,834,-1,
917,834,919,-1,
195,919,921,-1,
195,921,197,-1,
836,834,110,-1,
112,836,110,-1,
112,110,195,-1,
197,112,195,-1,
919,834,836,-1,
919,836,921,-1,
197,921,923,-1,
197,923,199,-1,
837,836,112,-1,
113,837,112,-1,
113,112,197,-1,
199,113,197,-1,
921,836,837,-1,
921,837,923,-1,
199,923,926,-1,
199,926,202,-1,
839,837,113,-1,
115,839,113,-1,
115,113,199,-1,
202,115,199,-1,
923,837,839,-1,
923,839,926,-1,
202,926,927,-1,
202,927,203,-1,
840,839,115,-1,
116,840,115,-1,
116,115,202,-1,
203,116,202,-1,
926,839,840,-1,
926,840,927,-1,
203,927,997,-1,
203,997,273,-1,
910,840,116,-1,
186,910,116,-1,
186,116,203,-1,
273,186,203,-1,
927,840,910,-1,
927,910,997,-1,
273,997,996,-1,
273,996,272,-1,
909,910,186,-1,
185,909,186,-1,
185,186,273,-1,
272,185,273,-1,
997,910,909,-1,
997,909,996,-1,
272,996,995,-1,
272,995,271,-1,
908,909,185,-1,
184,908,185,-1,
184,185,272,-1,
271,184,272,-1,
996,909,908,-1,
996,908,995,-1,
271,995,994,-1,
271,994,270,-1,
907,908,184,-1,
183,907,184,-1,
183,184,271,-1,
270,183,271,-1,
995,908,907,-1,
995,907,994,-1,
270,994,993,-1,
270,993,269,-1,
906,907,183,-1,
182,906,183,-1,
182,183,270,-1,
269,182,270,-1,
994,907,906,-1,
994,906,993,-1,
269,993,992,-1,
269,992,268,-1,
905,906,182,-1,
181,905,182,-1,
181,182,269,-1,
268,181,269,-1,
993,906,905,-1,
993,905,992,-1,
268,992,991,-1,
268,991,267,-1,
904,905,181,-1,
180,904,181,-1,
180,181,268,-1,
267,180,268,-1,
992,905,904,-1,
992,904,991,-1,
267,991,990,-1,
267,990,266,-1,
903,904,180,-1,
179,903,180,-1,
179,180,267,-1,
266,179,267,-1,
991,904,903,-1,
991,903,990,-1,
266,990,989,-1,
266,989,265,-1,
902,903,179,-1,
178,902,179,-1,
178,179,266,-1,
265,178,266,-1,
990,903,902,-1,
990,902,989,-1,
265,989,988,-1,
265,988,264,-1,
901,902,178,-1,
177,901,178,-1,
177,178,265,-1,
264,177,265,-1,
989,902,901,-1,
989,901,988,-1,
264,988,987,-1,
264,987,263,-1,
900,901,177,-1,
176,900,177,-1,
176,177,264,-1,
263,176,264,-1,
988,901,900,-1,
988,900,987,-1,
263,987,986,-1,
263,986,262,-1,
899,900,176,-1,
175,899,176,-1,
175,176,263,-1,
262,175,263,-1,
987,900,899,-1,
987,899,986,-1,
262,986,985,-1,
262,985,261,-1,
898,899,175,-1,
174,898,175,-1,
174,175,262,-1,
261,174,262,-1,
986,899,898,-1,
986,898,985,-1,
261,985,984,-1,
261,984,260,-1,
897,898,174,-1,
173,897,174,-1,
173,174,261,-1,
260,173,261,-1,
985,898,897,-1,
985,897,984,-1,
260,984,983,-1,
260,983,259,-1,
896,897,173,-1,
172,896,173,-1,
172,173,260,-1,
259,172,260,-1,
984,897,896,-1,
984,896,983,-1,
259,983,982,-1,
259,982,258,-1,
895,896,172,-1,
171,895,172,-1,
171,172,259,-1,
258,171,259,-1,
983,896,895,-1,
983,895,982,-1,
258,982,981,-1,
258,981,257,-1,
894,895,171,-1,
170,894,171,-1,
170,171,258,-1,
257,170,258,-1,
982,895,894,-1,
982,894,981,-1,
257,981,980,-1,
257,980,256,-1,
893,894,170,-1,
169,893,170,-1,
169,170,257,-1,
256,169,257,-1,
981,894,893,-1,
981,893,980,-1,
256,980,979,-1,
256,979,255,-1,
892,893,169,-1,
168,892,169,-1,
168,169,256,-1,
255,168,256,-1,
980,893,892,-1,
980,892,979,-1,
255,979,978,-1,
255,978,254,-1,
891,892,168,-1,
167,891,168,-1,
167,168,255,-1,
254,167,255,-1,
979,892,891,-1,
979,891,978,-1,
254,978,977,-1,
254,977,253,-1,
890,891,167,-1,
166,890,167,-1,
166,167,254,-1,
253,166,254,-1,
978,891,890,-1,
978,890,977,-1,
253,977,976,-1,
253,976,252,-1,
889,890,166,-1,
165,889,166,-1,
165,166,253,-1,
252,165,253,-1,
977,890,889,-1,
977,889,976,-1,
252,976,975,-1,
252,975,251,-1,
888,889,165,-1,
164,888,165,-1,
164,165,252,-1,
251,164,252,-1,
976,889,888,-1,
976,888,975,-1,
251,975,974,-1,
251,974,250,-1,
887,888,164,-1,
163,887,164,-1,
163,164,251,-1,
250,163,251,-1,
975,888,887,-1,
975,887,974,-1,
250,974,973,-1,
250,973,249,-1,
886,887,163,-1,
162,886,163,-1,
162,163,250,-1,
249,162,250,-1,
974,887,886,-1,
974,886,973,-1,
249,973,972,-1,
249,972,248,-1,
885,886,162,-1,
161,885,162,-1,
161,162,249,-1,
248,161,249,-1,
973,886,885,-1,
973,885,972,-1,
248,972,971,-1,
248,971,247,-1,
884,885,161,-1,
160,884,161,-1,
160,161,248,-1,
247,160,248,-1,
972,885,884,-1,
972,884,971,-1,
247,971,970,-1,
247,970,246,-1,
883,884,160,-1,
159,883,160,-1,
159,160,247,-1,
246,159,247,-1,
971,884,883,-1,
971,883,970,-1,
246,970,969,-1,
246,969,245,-1,
882,883,159,-1,
158,882,159,-1,
158,159,246,-1,
245,158,246,-1,
970,883,882,-1,
970,882,969,-1,
245,969,968,-1,
245,968,244,-1,
881,882,158,-1,
157,881,158,-1,
157,158,245,-1,
244,157,245,-1,
969,882,881,-1,
969,881,968,-1,
244,968,967,-1,
244,967,243,-1,
880,881,157,-1,
156,880,157,-1,
156,157,244,-1,
243,156,244,-1,
968,881,880,-1,
968,880,967,-1,
243,967,966,-1,
243,966,242,-1,
879,880,156,-1,
155,879,156,-1,
155,156,243,-1,
242,155,243,-1,
967,880,879,-1,
967,879,966,-1,
242,966,965,-1,
242,965,241,-1,
878,879,155,-1,
154,878,155,-1,
154,155,242,-1,
241,154,242,-1,
966,879,878,-1,
966,878,965,-1,
241,965,964,-1,
241,964,240,-1,
877,878,154,-1,
153,877,154,-1,
153,154,241,-1,
240,153,241,-1,
965,878,877,-1,
965,877,964,-1,
240,964,963,-1,
240,963,239,-1,
876,877,153,-1,
152,876,153,-1,
152,153,240,-1,
239,152,240,-1,
964,877,876,-1,
964,876,963,-1,
239,963,962,-1,
239,962,238,-1,
875,876,152,-1,
151,875,152,-1,
151,152,239,-1,
238,151,239,-1,
963,876,875,-1,
963,875,962,-1,
238,962,961,-1,
238,961,237,-1,
874,875,151,-1,
150,874,151,-1,
150,151,238,-1,
237,150,238,-1,
962,875,874,-1,
962,874,961,-1,
237,961,960,-1,
237,960,236,-1,
873,874,150,-1,
149,873,150,-1,
149,150,237,-1,
236,149,237,-1,
961,874,873,-1,
961,873,960,-1,
236,960,959,-1,
236,959,235,-1,
872,873,149,-1,
148,872,149,-1,
148,149,236,-1,
235,148,236,-1,
960,873,872,-1,
960,872,959,-1,
235,959,958,-1,
235,958,234,-1,
871,872,148,-1,
147,871,148,-1,
147,148,235,-1,
234,147,235,-1,
959,872,871,-1,
959,871,958,-1,
234,958,957,-1,
234,957,233,-1,
870,871,147,-1,
146,870,147,-1,
146,147,234,-1,
233,146,234,-1,
958,871,870,-1,
958,870,957,-1,
233,957,956,-1,
233,956,232,-1,
869,870,146,-1,
145,869,146,-1,
145,146,233,-1,
232,145,233,-1,
957,870,869,-1,
957,869,956,-1,
232,956,955,-1,
232,955,231,-1,
868,869,145,-1,
144,868,145,-1,
144,145,232,-1,
231,144,232,-1,
956,869,868,-1,
956,868,955,-1,
231,955,954,-1,
231,954,230,-1,
867,868,144,-1,
143,867,144,-1,
143,144,231,-1,
230,143,231,-1,
955,868,867,-1,
955,867,954,-1,
230,954,953,-1,
230,953,229,-1,
866,867,143,-1,
142,866,143,-1,
142,143,230,-1,
229,142,230,-1,
954,867,866,-1,
954,866,953,-1,
229,953,952,-1,
229,952,228,-1,
865,866,142,-1,
141,865,142,-1,
141,142,229,-1,
228,141,229,-1,
953,866,865,-1,
953,865,952,-1,
228,952,951,-1,
228,951,227,-1,
864,865,141,-1,
140,864,141,-1,
140,141,228,-1,
227,140,228,-1,
952,865,864,-1,
952,864,951,-1,
227,951,950,-1,
227,950,226,-1,
863,864,140,-1,
139,863,140,-1,
139,140,227,-1,
226,139,227,-1,
951,864,863,-1,
951,863,950,-1,
226,950,949,-1,
226,949,225,-1,
862,863,139,-1,
138,862,139,-1,
138,139,226,-1,
225,138,226,-1,
950,863,862,-1,
950,862,949,-1,
225,949,948,-1,
225,948,224,-1,
861,862,138,-1,
137,861,138,-1,
137,138,225,-1,
224,137,225,-1,
949,862,861,-1,
949,861,948,-1,
224,948,947,-1,
224,947,223,-1,
860,861,137,-1,
136,860,137,-1,
136,137,224,-1,
223,136,224,-1,
948,861,860,-1,
948,860,947,-1,
223,947,946,-1,
223,946,222,-1,
859,860,136,-1,
135,859,136,-1,
135,136,223,-1,
222,135,223,-1,
947,860,859,-1,
947,859,946,-1,
222,946,945,-1,
222,945,221,-1,
858,859,135,-1,
134,858,135,-1,
134,135,222,-1,
221,134,222,-1,
946,859,858,-1,
946,858,945,-1,
221,945,944,-1,
221,944,220,-1,
857,858,134,-1,
133,857,134,-1,
133,134,221,-1,
220,133,221,-1,
945,858,857,-1,
945,857,944,-1,
220,944,943,-1,
220,943,219,-1,
856,857,133,-1,
132,856,133,-1,
132,133,220,-1,
219,132,220,-1,
944,857,856,-1,
944,856,943,-1,
219,943,942,-1,
219,942,218,-1,
855,856,132,-1,
131,855,132,-1,
131,132,219,-1,
218,131,219,-1,
943,856,855,-1,
943,855,942,-1,
218,942,941,-1,
218,941,217,-1,
854,855,131,-1,
130,854,131,-1,
130,131,218,-1,
217,130,218,-1,
942,855,854,-1,
942,854,941,-1,
217,941,940,-1,
217,940,216,-1,
853,854,130,-1,
129,853,130,-1,
129,130,217,-1,
216,129,217,-1,
941,854,853,-1,
941,853,940,-1,
216,940,939,-1,
216,939,215,-1,
852,853,129,-1,
128,852,129,-1,
128,129,216,-1,
215,128,216,-1,
940,853,852,-1,
940,852,939,-1,
215,939,938,-1,
215,938,214,-1,
851,852,128,-1,
127,851,128,-1,
127,128,215,-1,
214,127,215,-1,
939,852,851,-1,
939,851,938,-1,
214,938,937,-1,
214,937,213,-1,
850,851,127,-1,
126,850,127,-1,
126,127,214,-1,
213,126,214,-1,
938,851,850,-1,
938,850,937,-1,
213,937,936,-1,
213,936,212,-1,
849,850,126,-1,
125,849,126,-1,
125,126,213,-1,
212,125,213,-1,
937,850,849,-1,
937,849,936,-1,
212,936,935,-1,
212,935,211,-1,
848,849,125,-1,
124,848,125,-1,
124,125,212,-1,
211,124,212,-1,
936,849,848,-1,
936,848,935,-1,
211,935,934,-1,
211,934,210,-1,
847,848,124,-1,
123,847,124,-1,
123,124,211,-1,
210,123,211,-1,
935,848,847,-1,
935,847,934,-1,
210,934,933,-1,
210,933,209,-1,
846,847,123,-1,
122,846,123,-1,
122,123,210,-1,
209,122,210,-1,
934,847,846,-1,
934,846,933,-1,
209,933,932,-1,
209,932,208,-1,
845,846,122,-1,
121,845,122,-1,
121,122,209,-1,
208,121,209,-1,
933,846,845,-1,
933,845,932,-1,
208,932,931,-1,
208,931,207,-1,
844,845,121,-1,
120,844,121,-1,
120,121,208,-1,
207,120,208,-1,
932,845,844,-1,
932,844,931,-1,
207,931,930,-1,
207,930,206,-1,
843,844,120,-1,
119,843,120,-1,
119,120,207,-1,
206,119,207,-1,
931,844,843,-1,
931,843,930,-1,
206,930,929,-1,
206,929,205,-1,
842,843,119,-1,
118,842,119,-1,
118,119,206,-1,
205,118,206,-1,
930,843,842,-1,
930,842,929,-1,
205,929,928,-1,
205,928,204,-1,
841,842,118,-1,
117,841,118,-1,
117,118,205,-1,
204,117,205,-1,
929,842,841,-1,
929,841,928,-1,
204,928,998,-1,
204,998,274,-1,
911,841,117,-1,
187,911,117,-1,
187,117,204,-1,
274,187,204,-1,
928,841,911,-1,
928,911,998,-1,
274,998,1000,-1,
274,1000,276,-1,
912,911,187,-1,
188,912,187,-1,
188,187,274,-1,
276,188,274,-1,
998,911,912,-1,
998,912,1000,-1,
276,1000,1001,-1,
276,1001,277,-1,
913,912,188,-1,
189,913,188,-1,
189,188,276,-1,
277,189,276,-1,
1000,912,913,-1,
1000,913,1001,-1,
277,1001,1002,-1,
277,1002,278,-1,
915,913,189,-1,
191,915,189,-1,
191,189,277,-1,
278,191,277,-1,
1001,913,915,-1,
1001,915,1002,-1,
278,1002,1004,-1,
278,1004,280,-1,
916,915,191,-1,
192,916,191,-1,
192,191,278,-1,
280,192,278,-1,
1002,915,916,-1,
1002,916,1004,-1,
280,1004,1005,-1,
280,1005,281,-1,
918,916,192,-1,
194,918,192,-1,
194,192,280,-1,
281,194,280,-1,
1004,916,918,-1,
1004,918,1005,-1,
281,1005,1007,-1,
281,1007,283,-1,
920,918,194,-1,
196,920,194,-1,
196,194,281,-1,
283,196,281,-1,
1005,918,920,-1,
1005,920,1007,-1,
283,1007,1008,-1,
283,1008,284,-1,
922,920,196,-1,
198,922,196,-1,
198,196,283,-1,
284,198,283,-1,
1007,920,922,-1,
1007,922,1008,-1,
284,1008,1010,-1,
284,1010,286,-1,
999,922,198,-1,
275,999,198,-1,
275,198,284,-1,
286,275,284,-1,
1008,922,999,-1,
1008,999,1010,-1,
286,1010,1012,-1,
286,1012,288,-1,
1003,999,275,-1,
279,1003,275,-1,
279,275,286,-1,
288,279,286,-1,
1010,999,1003,-1,
1010,1003,1012,-1,
288,1012,1016,-1,
288,1016,292,-1,
1006,1003,279,-1,
282,1006,279,-1,
282,279,288,-1,
292,282,288,-1,
1012,1003,1006,-1,
1012,1006,1016,-1,
292,1016,1017,-1,
292,1017,293,-1,
1009,1006,282,-1,
285,1009,282,-1,
285,282,292,-1,
293,285,292,-1,
1016,1006,1009,-1,
1016,1009,1017,-1,
293,1017,1019,-1,
293,1019,295,-1,
1011,1009,285,-1,
287,1011,285,-1,
287,285,293,-1,
295,287,293,-1,
1017,1009,1011,-1,
1017,1011,1019,-1,
295,1019,1021,-1,
295,1021,297,-1,
1015,1011,287,-1,
291,1015,287,-1,
291,287,295,-1,
297,291,295,-1,
1019,1011,1015,-1,
1019,1015,1021,-1,
297,1021,1023,-1,
297,1023,299,-1,
1018,1015,291,-1,
294,1018,291,-1,
294,291,297,-1,
299,294,297,-1,
1021,1015,1018,-1,
1021,1018,1023,-1,
299,1023,1027,-1,
299,1027,303,-1,
1020,1018,294,-1,
296,1020,294,-1,
296,294,299,-1,
303,296,299,-1,
1023,1018,1020,-1,
1023,1020,1027,-1,
303,1027,1029,-1,
303,1029,305,-1,
1022,1020,296,-1,
298,1022,296,-1,
298,296,303,-1,
305,298,303,-1,
1027,1020,1022,-1,
1027,1022,1029,-1,
305,1029,1030,-1,
305,1030,306,-1,
1026,1022,298,-1,
302,1026,298,-1,
302,298,305,-1,
306,302,305,-1,
1029,1022,1026,-1,
1029,1026,1030,-1,
306,1030,1034,-1,
306,1034,310,-1,
1028,1026,302,-1,
304,1028,302,-1,
304,302,306,-1,
310,304,306,-1,
1030,1026,1028,-1,
1030,1028,1034,-1,
310,1034,1036,-1,
310,1036,312,-1,
1031,1028,304,-1,
307,1031,304,-1,
307,304,310,-1,
312,307,310,-1,
1034,1028,1031,-1,
1034,1031,1036,-1,
312,1036,1038,-1,
312,1038,314,-1,
1035,1031,307,-1,
311,1035,307,-1,
311,307,312,-1,
314,311,312,-1,
1036,1031,1035,-1,
1036,1035,1038,-1,
314,1038,1040,-1,
314,1040,316,-1,
1037,1035,311,-1,
313,1037,311,-1,
313,311,314,-1,
316,313,314,-1,
1038,1035,1037,-1,
1038,1037,1040,-1,
316,1040,1042,-1,
316,1042,318,-1,
1039,1037,313,-1,
315,1039,313,-1,
315,313,316,-1,
318,315,316,-1,
1040,1037,1039,-1,
1040,1039,1042,-1,
318,1042,1044,-1,
318,1044,320,-1,
1041,1039,315,-1,
317,1041,315,-1,
317,315,318,-1,
320,317,318,-1,
1042,1039,1041,-1,
1042,1041,1044,-1,
320,1044,1046,-1,
320,1046,322,-1,
1043,1041,317,-1,
319,1043,317,-1,
319,317,320,-1,
322,319,320,-1,
1044,1041,1043,-1,
1044,1043,1046,-1,
322,1046,1048,-1,
322,1048,324,-1,
1045,1043,319,-1,
321,1045,319,-1,
321,319,322,-1,
324,321,322,-1,
1046,1043,1045,-1,
1046,1045,1048,-1,
324,1048,1050,-1,
324,1050,326,-1,
1047,1045,321,-1,
323,1047,321,-1,
323,321,324,-1,
326,323,324,-1,
1048,1045,1047,-1,
1048,1047,1050,-1,
326,1050,1052,-1,
326,1052,328,-1,
1049,1047,323,-1,
325,1049,323,-1,
325,323,326,-1,
328,325,326,-1,
1050,1047,1049,-1,
1050,1049,1052,-1,
328,1052,1054,-1,
328,1054,330,-1,
1051,1049,325,-1,
327,1051,325,-1,
327,325,328,-1,
330,327,328,-1,
1052,1049,1051,-1,
1052,1051,1054,-1,
330,1054,1056,-1,
330,1056,332,-1,
1053,1051,327,-1,
329,1053,327,-1,
329,327,330,-1,
332,329,330,-1,
1054,1051,1053,-1,
1054,1053,1056,-1,
332,1056,1058,-1,
332,1058,334,-1,
1055,1053,329,-1,
331,1055,329,-1,
331,329,332,-1,
334,331,332,-1,
1056,1053,1055,-1,
1056,1055,1058,-1,
334,1058,1059,-1,
334,1059,335,-1,
1057,1055,331,-1,
333,1057,331,-1,
333,331,334,-1,
335,333,334,-1,
1058,1055,1057,-1,
1058,1057,1059,-1,
335,1059,1061,-1,
335,1061,337,-1,
1060,1057,333,-1,
336,1060,333,-1,
336,333,335,-1,
337,336,335,-1,
1059,1057,1060,-1,
1059,1060,1061,-1,
337,1061,1063,-1,
337,1063,339,-1,
1062,1060,336,-1,
338,1062,336,-1,
338,336,337,-1,
339,338,337,-1,
1061,1060,1062,-1,
1061,1062,1063,-1,
339,1063,1065,-1,
339,1065,341,-1,
1064,1062,338,-1,
340,1064,338,-1,
340,338,339,-1,
341,340,339,-1,
1063,1062,1064,-1,
1063,1064,1065,-1,
341,1065,1067,-1,
341,1067,343,-1,
1066,1064,340,-1,
342,1066,340,-1,
342,340,341,-1,
343,342,341,-1,
1065,1064,1066,-1,
1065,1066,1067,-1,
343,1067,1069,-1,
343,1069,345,-1,
1068,1066,342,-1,
344,1068,342,-1,
344,342,343,-1,
345,344,343,-1,
1067,1066,1068,-1,
1067,1068,1069,-1,
345,1069,1071,-1,
345,1071,347,-1,
1070,1068,344,-1,
346,1070,344,-1,
346,344,345,-1,
347,346,345,-1,
1069,1068,1070,-1,
1069,1070,1071,-1,
347,1071,1073,-1,
347,1073,349,-1,
1072,1070,346,-1,
348,1072,346,-1,
348,346,347,-1,
349,348,347,-1,
1071,1070,1072,-1,
1071,1072,1073,-1,
349,1073,1075,-1,
349,1075,351,-1,
1074,1072,348,-1,
350,1074,348,-1,
350,348,349,-1,
351,350,349,-1,
1073,1072,1074,-1,
1073,1074,1075,-1,
351,1075,1077,-1,
351,1077,353,-1,
1076,1074,350,-1,
352,1076,350,-1,
352,350,351,-1,
353,352,351,-1,
1075,1074,1076,-1,
1075,1076,1077,-1,
353,1077,1079,-1,
353,1079,355,-1,
1078,1076,352,-1,
354,1078,352,-1,
354,352,353,-1,
355,354,353,-1,
1077,1076,1078,-1,
1077,1078,1079,-1,
355,1079,1081,-1,
355,1081,357,-1,
1080,1078,354,-1,
356,1080,354,-1,
356,354,355,-1,
357,356,355,-1,
1079,1078,1080,-1,
1079,1080,1081,-1,
357,1081,1083,-1,
357,1083,359,-1,
1082,1080,356,-1,
358,1082,356,-1,
358,356,357,-1,
359,358,357,-1,
1081,1080,1082,-1,
1081,1082,1083,-1,
359,1083,1085,-1,
359,1085,361,-1,
1084,1082,358,-1,
360,1084,358,-1,
360,358,359,-1,
361,360,359,-1,
1083,1082,1084,-1,
1083,1084,1085,-1,
361,1085,1087,-1,
361,1087,363,-1,
1086,1084,360,-1,
362,1086,360,-1,
362,360,361,-1,
363,362,361,-1,
1085,1084,1086,-1,
1085,1086,1087,-1,
363,1087,1089,-1,
363,1089,365,-1,
1088,1086,362,-1,
364,1088,362,-1,
364,362,363,-1,
365,364,363,-1,
1087,1086,1088,-1,
1087,1088,1089,-1,
365,1089,1091,-1,
365,1091,367,-1,
1090,1088,364,-1,
366,1090,364,-1,
366,364,365,-1,
367,366,365,-1,
1089,1088,1090,-1,
1089,1090,1091,-1,
367,1091,1093,-1,
367,1093,369,-1,
1092,1090,366,-1,
368,1092,366,-1,
368,366,367,-1,
369,368,367,-1,
1091,1090,1092,-1,
1091,1092,1093,-1,
369,1093,1095,-1,
369,1095,371,-1,
1094,1092,368,-1,
370,1094,368,-1,
370,368,369,-1,
371,370,369,-1,
1093,1092,1094,-1,
1093,1094,1095,-1,
371,1095,1097,-1,
371,1097,373,-1,
1096,1094,370,-1,
372,1096,370,-1,
372,370,371,-1,
373,372,371,-1,
1095,1094,1096,-1,
1095,1096,1097,-1,
373,1097,1099,-1,
373,1099,375,-1,
1098,1096,372,-1,
374,1098,372,-1,
374,372,373,-1,
375,374,373,-1,
1097,1096,1098,-1,
1097,1098,1099,-1,
375,1099,1101,-1,
375,1101,377,-1,
1100,1098,374,-1,
376,1100,374,-1,
376,374,375,-1,
377,376,375,-1,
1099,1098,1100,-1,
1099,1100,1101,-1,
377,1101,1103,-1,
377,1103,379,-1,
1102,1100,376,-1,
378,1102,376,-1,
378,376,377,-1,
379,378,377,-1,
1101,1100,1102,-1,
1101,1102,1103,-1,
379,1103,1105,-1,
379,1105,381,-1,
1104,1102,378,-1,
380,1104,378,-1,
380,378,379,-1,
381,380,379,-1,
1103,1102,1104,-1,
1103,1104,1105,-1,
381,1105,1107,-1,
381,1107,383,-1,
1106,1104,380,-1,
382,1106,380,-1,
382,380,381,-1,
383,382,381,-1,
1105,1104,1106,-1,
1105,1106,1107,-1,
383,1107,1109,-1,
383,1109,385,-1,
1108,1106,382,-1,
384,1108,382,-1,
384,382,383,-1,
385,384,383,-1,
1107,1106,1108,-1,
1107,1108,1109,-1,
385,1109,1111,-1,
385,1111,387,-1,
1110,1108,384,-1,
386,1110,384,-1,
386,384,385,-1,
387,386,385,-1,
1109,1108,1110,-1,
1109,1110,1111,-1,
387,1111,1113,-1,
387,1113,389,-1,
1112,1110,386,-1,
388,1112,386,-1,
388,386,387,-1,
389,388,387,-1,
1111,1110,1112,-1,
1111,1112,1113,-1,
389,1113,1115,-1,
389,1115,391,-1,
1114,1112,388,-1,
390,1114,388,-1,
390,388,389,-1,
391,390,389,-1,
1113,1112,1114,-1,
1113,1114,1115,-1,
391,1115,1117,-1,
391,1117,393,-1,
1116,1114,390,-1,
392,1116,390,-1,
392,390,391,-1,
393,392,391,-1,
1115,1114,1116,-1,
1115,1116,1117,-1,
393,1117,1119,-1,
393,1119,395,-1,
1118,1116,392,-1,
394,1118,392,-1,
394,392,393,-1,
395,394,393,-1,
1117,1116,1118,-1,
1117,1118,1119,-1,
395,1119,1121,-1,
395,1121,397,-1,
1120,1118,394,-1,
396,1120,394,-1,
396,394,395,-1,
397,396,395,-1,
1119,1118,1120,-1,
1119,1120,1121,-1,
397,1121,1123,-1,
397,1123,399,-1,
1122,1120,396,-1,
398,1122,396,-1,
398,396,397,-1,
399,398,397,-1,
1121,1120,1122,-1,
1121,1122,1123,-1,
399,1123,1125,-1,
399,1125,401,-1,
1124,1122,398,-1,
400,1124,398,-1,
400,398,399,-1,
401,400,399,-1,
1123,1122,1124,-1,
1123,1124,1125,-1,
401,1125,1127,-1,
401,1127,403,-1,
1126,1124,400,-1,
402,1126,400,-1,
402,400,401,-1,
403,402,401,-1,
1125,1124,1126,-1,
1125,1126,1127,-1,
403,1127,1129,-1,
403,1129,405,-1,
1128,1126,402,-1,
404,1128,402,-1,
404,402,403,-1,
405,404,403,-1,
1127,1126,1128,-1,
1127,1128,1129,-1,
405,1129,1131,-1,
405,1131,407,-1,
1130,1128,404,-1,
406,1130,404,-1,
406,404,405,-1,
407,406,405,-1,
1129,1128,1130,-1,
1129,1130,1131,-1,
407,1131,1133,-1,
407,1133,409,-1,
1132,1130,406,-1,
408,1132,406,-1,
408,406,407,-1,
409,408,407,-1,
1131,1130,1132,-1,
1131,1132,1133,-1,
409,1133,1135,-1,
409,1135,411,-1,
1134,1132,408,-1,
410,1134,408,-1,
410,408,409,-1,
411,410,409,-1,
1133,1132,1134,-1,
1133,1134,1135,-1,
411,1135,1137,-1,
411,1137,413,-1,
1136,1134,410,-1,
412,1136,410,-1,
412,410,411,-1,
413,412,411,-1,
1135,1134,1136,-1,
1135,1136,1137,-1,
413,1137,1139,-1,
413,1139,415,-1,
1138,1136,412,-1,
414,1138,412,-1,
414,412,413,-1,
415,414,413,-1,
1137,1136,1138,-1,
1137,1138,1139,-1,
415,1139,1141,-1,
415,1141,417,-1,
1140,1138,414,-1,
416,1140,414,-1,
416,414,415,-1,
417,416,415,-1,
1139,1138,1140,-1,
1139,1140,1141,-1,
417,1141,1143,-1,
417,1143,419,-1,
1142,1140,416,-1,
418,1142,416,-1,
418,416,417,-1,
419,418,417,-1,
1141,1140,1142,-1,
1141,1142,1143,-1,
419,1143,1145,-1,
419,1145,421,-1,
1144,1142,418,-1,
420,1144,418,-1,
420,418,419,-1,
421,420,419,-1,
1143,1142,1144,-1,
1143,1144,1145,-1,
421,1145,1147,-1,
421,1147,423,-1,
1146,1144,420,-1,
422,1146,420,-1,
422,420,421,-1,
423,422,421,-1,
1145,1144,1146,-1,
1145,1146,1147,-1,
423,1147,1149,-1,
423,1149,425,-1,
1148,1146,422,-1,
424,1148,422,-1,
424,422,423,-1,
425,424,423,-1,
1147,1146,1148,-1,
1147,1148,1149,-1,
425,1149,1151,-1,
425,1151,427,-1,
1150,1148,424,-1,
426,1150,424,-1,
426,424,425,-1,
427,426,425,-1,
1149,1148,1150,-1,
1149,1150,1151,-1,
427,1151,1153,-1,
427,1153,429,-1,
1152,1150,426,-1,
428,1152,426,-1,
428,426,427,-1,
429,428,427,-1,
1151,1150,1152,-1,
1151,1152,1153,-1,
429,1153,1155,-1,
429,1155,431,-1,
1154,1152,428,-1,
430,1154,428,-1,
430,428,429,-1,
431,430,429,-1,
1153,1152,1154,-1,
1153,1154,1155,-1,
431,1155,1157,-1,
431,1157,433,-1,
1156,1154,430,-1,
432,1156,430,-1,
432,430,431,-1,
433,432,431,-1,
1155,1154,1156,-1,
1155,1156,1157,-1,
433,1157,1159,-1,
433,1159,435,-1,
1158,1156,432,-1,
434,1158,432,-1,
434,432,433,-1,
435,434,433,-1,
1157,1156,1158,-1,
1157,1158,1159,-1,
435,1159,1161,-1,
435,1161,437,-1,
1160,1158,434,-1,
436,1160,434,-1,
436,434,435,-1,
437,436,435,-1,
1159,1158,1160,-1,
1159,1160,1161,-1,
437,1161,1163,-1,
437,1163,439,-1,
1162,1160,436,-1,
438,1162,436,-1,
438,436,437,-1,
439,438,437,-1,
1161,1160,1162,-1,
1161,1162,1163,-1,
439,1163,1165,-1,
439,1165,441,-1,
1164,1162,438,-1,
440,1164,438,-1,
440,438,439,-1,
441,440,439,-1,
1163,1162,1164,-1,
1163,1164,1165,-1,
441,1165,1167,-1,
441,1167,443,-1,
1166,1164,440,-1,
442,1166,440,-1,
442,440,441,-1,
443,442,441,-1,
1165,1164,1166,-1,
1165,1166,1167,-1,
443,1167,1169,-1,
443,1169,445,-1,
1168,1166,442,-1,
444,1168,442,-1,
444,442,443,-1,
445,444,443,-1,
1167,1166,1168,-1,
1167,1168,1169,-1,
445,1169,1171,-1,
445,1171,447,-1,
1170,1168,444,-1,
446,1170,444,-1,
446,444,445,-1,
447,446,445,-1,
1169,1168,1170,-1,
1169,1170,1171,-1,
447,1171,1173,-1,
447,1173,449,-1,
1172,1170,446,-1,
448,1172,446,-1,
448,446,447,-1,
449,448,447,-1,
1171,1170,1172,-1,
1171,1172,1173,-1,
449,1173,1175,-1,
449,1175,451,-1,
1174,1172,448,-1,
450,1174,448,-1,
450,448,449,-1,
451,450,449,-1,
1173,1172,1174,-1,
1173,1174,1175,-1,
451,1175,1177,-1,
451,1177,453,-1,
1176,1174,450,-1,
452,1176,450,-1,
452,450,451,-1,
453,452,451,-1,
1175,1174,1176,-1,
1175,1176,1177,-1,
453,1177,1179,-1,
453,1179,455,-1,
1178,1176,452,-1,
454,1178,452,-1,
454,452,453,-1,
455,454,453,-1,
1177,1176,1178,-1,
1177,1178,1179,-1,
455,1179,1181,-1,
455,1181,457,-1,
1180,1178,454,-1,
456,1180,454,-1,
456,454,455,-1,
457,456,455,-1,
1179,1178,1180,-1,
1179,1180,1181,-1,
457,1181,1183,-1,
457,1183,459,-1,
1182,1180,456,-1,
458,1182,456,-1,
458,456,457,-1,
459,458,457,-1,
1181,1180,1182,-1,
1181,1182,1183,-1,
459,1183,1185,-1,
459,1185,461,-1,
1184,1182,458,-1,
460,1184,458,-1,
460,458,459,-1,
461,460,459,-1,
1183,1182,1184,-1,
1183,1184,1185,-1,
461,1185,1187,-1,
461,1187,463,-1,
1186,1184,460,-1,
462,1186,460,-1,
462,460,461,-1,
463,462,461,-1,
1185,1184,1186,-1,
1185,1186,1187,-1,
463,1187,1189,-1,
463,1189,465,-1,
1188,1186,462,-1,
464,1188,462,-1,
464,462,463,-1,
465,464,463,-1,
1187,1186,1188,-1,
1187,1188,1189,-1,
465,1189,1191,-1,
465,1191,467,-1,
1190,1188,464,-1,
466,1190,464,-1,
466,464,465,-1,
467,466,465,-1,
1189,1188,1190,-1,
1189,1190,1191,-1,
467,1191,1193,-1,
467,1193,469,-1,
1192,1190,466,-1,
468,1192,466,-1,
468,466,467,-1,
469,468,467,-1,
1191,1190,1192,-1,
1191,1192,1193,-1,
469,1193,1195,-1,
469,1195,471,-1,
1194,1192,468,-1,
470,1194,468,-1,
470,468,469,-1,
471,470,469,-1,
1193,1192,1194,-1,
1193,1194,1195,-1,
471,1195,1197,-1,
471,1197,473,-1,
1196,1194,470,-1,
472,1196,470,-1,
472,470,471,-1,
473,472,471,-1,
1195,1194,1196,-1,
1195,1196,1197,-1,
473,1197,1199,-1,
473,1199,475,-1,
1198,1196,472,-1,
474,1198,472,-1,
474,472,473,-1,
475,474,473,-1,
1197,1196,1198,-1,
1197,1198,1199,-1,
475,1199,1201,-1,
475,1201,477,-1,
1200,1198,474,-1,
476,1200,474,-1,
476,474,475,-1,
477,476,475,-1,
1199,1198,1200,-1,
1199,1200,1201,-1,
477,1201,1203,-1,
477,1203,479,-1,
1202,1200,476,-1,
478,1202,476,-1,
478,476,477,-1,
479,478,477,-1,
1201,1200,1202,-1,
1201,1202,1203,-1,
479,1203,1205,-1,
479,1205,481,-1,
1204,1202,478,-1,
480,1204,478,-1,
480,478,479,-1,
481,480,479,-1,
1203,1202,1204,-1,
1203,1204,1205,-1,
481,1205,1207,-1,
481,1207,483,-1,
1206,1204,480,-1,
482,1206,480,-1,
482,480,481,-1,
483,482,481,-1,
1205,1204,1206,-1,
1205,1206,1207,-1,
483,1207,1209,-1,
483,1209,485,-1,
1208,1206,482,-1,
484,1208,482,-1,
484,482,483,-1,
485,484,483,-1,
1207,1206,1208,-1,
1207,1208,1209,-1,
485,1209,1211,-1,
485,1211,487,-1,
1210,1208,484,-1,
486,1210,484,-1,
486,484,485,-1,
487,486,485,-1,
1209,1208,1210,-1,
1209,1210,1211,-1,
487,1211,1213,-1,
487,1213,489,-1,
1212,1210,486,-1,
488,1212,486,-1,
488,486,487,-1,
489,488,487,-1,
1211,1210,1212,-1,
1211,1212,1213,-1,
489,1213,1214,-1,
489,1214,490,-1,
1215,1212,488,-1,
491,1215,488,-1,
491,488,489,-1,
490,491,489,-1,
1213,1212,1215,-1,
1213,1215,1214,-1,
490,1214,1216,-1,
490,1216,492,-1,
1217,1215,491,-1,
493,1217,491,-1,
493,491,490,-1,
492,493,490,-1,
1214,1215,1217,-1,
1214,1217,1216,-1,
492,1216,1218,-1,
492,1218,494,-1,
1219,1217,493,-1,
495,1219,493,-1,
495,493,492,-1,
494,495,492,-1,
1216,1217,1219,-1,
1216,1219,1218,-1,
494,1218,1220,-1,
494,1220,496,-1,
1221,1219,495,-1,
497,1221,495,-1,
497,495,494,-1,
496,497,494,-1,
1218,1219,1221,-1,
1218,1221,1220,-1,
496,1220,1222,-1,
496,1222,498,-1,
1223,1221,497,-1,
499,1223,497,-1,
499,497,496,-1,
498,499,496,-1,
1220,1221,1223,-1,
1220,1223,1222,-1,
498,1222,1224,-1,
498,1224,500,-1,
1225,1223,499,-1,
501,1225,499,-1,
501,499,498,-1,
500,501,498,-1,
1222,1223,1225,-1,
1222,1225,1224,-1,
500,1224,1226,-1,
500,1226,502,-1,
1227,1225,501,-1,
503,1227,501,-1,
503,501,500,-1,
502,503,500,-1,
1224,1225,1227,-1,
1224,1227,1226,-1,
502,1226,1228,-1,
502,1228,504,-1,
1229,1227,503,-1,
505,1229,503,-1,
505,503,502,-1,
504,505,502,-1,
1226,1227,1229,-1,
1226,1229,1228,-1,
504,1228,1230,-1,
504,1230,506,-1,
1231,1229,505,-1,
507,1231,505,-1,
507,505,504,-1,
506,507,504,-1,
1228,1229,1231,-1,
1228,1231,1230,-1,
506,1230,1232,-1,
506,1232,508,-1,
1233,1231,507,-1,
509,1233,507,-1,
509,507,506,-1,
508,509,506,-1,
1230,1231,1233,-1,
1230,1233,1232,-1,
508,1232,1234,-1,
508,1234,510,-1,
1235,1233,509,-1,
511,1235,509,-1,
511,509,508,-1,
510,511,508,-1,
1232,1233,1235,-1,
1232,1235,1234,-1,
510,1234,1236,-1,
510,1236,512,-1,
1237,1235,511,-1,
513,1237,511,-1,
513,511,510,-1,
512,513,510,-1,
1234,1235,1237,-1,
1234,1237,1236,-1,
512,1236,1238,-1,
512,1238,514,-1,
1239,1237,513,-1,
515,1239,513,-1,
515,513,512,-1,
514,515,512,-1,
1236,1237,1239,-1,
1236,1239,1238,-1,
514,1238,1240,-1,
514,1240,516,-1,
1241,1239,515,-1,
517,1241,515,-1,
517,515,514,-1,
516,517,514,-1,
1238,1239,1241,-1,
1238,1241,1240,-1,
516,1240,1242,-1,
516,1242,518,-1,
1243,1241,517,-1,
519,1243,517,-1,
519,517,516,-1,
518,519,516,-1,
1240,1241,1243,-1,
1240,1243,1242,-1,
518,1242,1244,-1,
518,1244,520,-1,
1245,1243,519,-1,
521,1245,519,-1,
521,519,518,-1,
520,521,518,-1,
1242,1243,1245,-1,
1242,1245,1244,-1,
520,1244,1246,-1,
520,1246,522,-1,
1247,1245,521,-1,
523,1247,521,-1,
523,521,520,-1,
522,523,520,-1,
1244,1245,1247,-1,
1244,1247,1246,-1,
522,1246,1248,-1,
522,1248,524,-1,
1249,1247,523,-1,
525,1249,523,-1,
525,523,522,-1,
524,525,522,-1,
1246,1247,1249,-1,
1246,1249,1248,-1,
524,1248,1250,-1,
524,1250,526,-1,
1251,1249,525,-1,
527,1251,525,-1,
527,525,524,-1,
526,527,524,-1,
1248,1249,1251,-1,
1248,1251,1250,-1,
526,1250,1252,-1,
526,1252,528,-1,
1253,1251,527,-1,
529,1253,527,-1,
529,527,526,-1,
528,529,526,-1,
1250,1251,1253,-1,
1250,1253,1252,-1,
528,1252,1254,-1,
528,1254,530,-1,
1255,1253,529,-1,
531,1255,529,-1,
531,529,528,-1,
530,531,528,-1,
1252,1253,1255,-1,
1252,1255,1254,-1,
530,1254,1256,-1,
530,1256,532,-1,
1257,1255,531,-1,
533,1257,531,-1,
533,531,530,-1,
532,533,530,-1,
1254,1255,1257,-1,
1254,1257,1256,-1,
532,1256,1258,-1,
532,1258,534,-1,
1259,1257,533,-1,
535,1259,533,-1,
535,533,532,-1,
534,535,532,-1,
1256,1257,1259,-1,
1256,1259,1258,-1,
534,1258,1260,-1,
534,1260,536,-1,
1261,1259,535,-1,
537,1261,535,-1,
537,535,534,-1,
536,537,534,-1,
1258,1259,1261,-1,
1258,1261,1260,-1,
536,1260,1262,-1,
536,1262,538,-1,
1263,1261,537,-1,
539,1263,537,-1,
539,537,536,-1,
538,539,536,-1,
1260,1261,1263,-1,
1260,1263,1262,-1,
538,1262,1264,-1,
538,1264,540,-1,
1265,1263,539,-1,
541,1265,539,-1,
541,539,538,-1,
540,541,538,-1,
1262,1263,1265,-1,
1262,1265,1264,-1,
540,1264,1266,-1,
540,1266,542,-1,
1267,1265,541,-1,
543,1267,541,-1,
543,541,540,-1,
542,543,540,-1,
1264,1265,1267,-1,
1264,1267,1266,-1,
542,1266,1270,-1,
542,1270,546,-1,
1271,1267,543,-1,
547,1271,543,-1,
547,543,542,-1,
546,547,542,-1,
1266,1267,1271,-1,
1266,1271,1270,-1,
546,1270,1274,-1,
546,1274,550,-1,
1275,1271,547,-1,
551,1275,547,-1,
551,547,546,-1,
550,551,546,-1,
1270,1271,1275,-1,
1270,1275,1274,-1,
550,1274,1276,-1,
550,1276,552,-1,
1279,1275,551,-1,
555,1279,551,-1,
555,551,550,-1,
552,555,550,-1,
1274,1275,1279,-1,
1274,1279,1276,-1,
552,1276,1280,-1,
552,1280,556,-1,
1281,1279,555,-1,
557,1281,555,-1,
557,555,552,-1,
556,557,552,-1,
1276,1279,1281,-1,
1276,1281,1280,-1,
556,1280,1284,-1,
556,1284,560,-1,
1285,1281,557,-1,
561,1285,557,-1,
561,557,556,-1,
560,561,556,-1,
1280,1281,1285,-1,
1280,1285,1284,-1,
560,1284,1288,-1,
560,1288,564,-1,
1289,1285,561,-1,
565,1289,561,-1,
565,561,560,-1,
564,565,560,-1,
1284,1285,1289,-1,
1284,1289,1288,-1,
564,1288,1290,-1,
564,1290,566,-1,
1291,1289,565,-1,
567,1291,565,-1,
567,565,564,-1,
566,567,564,-1,
1288,1289,1291,-1,
1288,1291,1290,-1,
566,1290,1294,-1,
566,1294,570,-1,
1295,1291,567,-1,
571,1295,567,-1,
571,567,566,-1,
570,571,566,-1,
1290,1291,1295,-1,
1290,1295,1294,-1,
570,1294,1298,-1,
570,1298,574,-1,
1299,1295,571,-1,
575,1299,571,-1,
575,571,570,-1,
574,575,570,-1,
1294,1295,1299,-1,
1294,1299,1298,-1,
574,1298,1300,-1,
574,1300,576,-1,
1301,1299,575,-1,
577,1301,575,-1,
577,575,574,-1,
576,577,574,-1,
1298,1299,1301,-1,
1298,1301,1300,-1,
576,1300,1304,-1,
576,1304,580,-1,
1305,1301,577,-1,
581,1305,577,-1,
581,577,576,-1,
580,581,576,-1,
1300,1301,1305,-1,
1300,1305,1304,-1,
580,1304,1308,-1,
580,1308,584,-1,
1309,1305,581,-1,
585,1309,581,-1,
585,581,580,-1,
584,585,580,-1,
1304,1305,1309,-1,
1304,1309,1308,-1,
584,1308,1310,-1,
584,1310,586,-1,
1311,1309,585,-1,
587,1311,585,-1,
587,585,584,-1,
586,587,584,-1,
1308,1309,1311,-1,
1308,1311,1310,-1,
586,1310,1314,-1,
586,1314,590,-1,
1315,1311,587,-1,
591,1315,587,-1,
591,587,586,-1,
590,591,586,-1,
1310,1311,1315,-1,
1310,1315,1314,-1,
590,1314,1316,-1,
590,1316,592,-1,
1319,1315,591,-1,
595,1319,591,-1,
595,591,590,-1,
592,595,590,-1,
1314,1315,1319,-1,
1314,1319,1316,-1,
592,1316,1320,-1,
592,1320,596,-1,
1321,1319,595,-1,
597,1321,595,-1,
597,595,592,-1,
596,597,592,-1,
1316,1319,1321,-1,
1316,1321,1320,-1,
596,1320,1324,-1,
596,1324,600,-1,
1325,1321,597,-1,
601,1325,597,-1,
601,597,596,-1,
600,601,596,-1,
1320,1321,1325,-1,
1320,1325,1324,-1,
600,1324,1326,-1,
600,1326,602,-1,
1327,1325,601,-1,
603,1327,601,-1,
603,601,600,-1,
602,603,600,-1,
1324,1325,1327,-1,
1324,1327,1326,-1,
602,1326,1330,-1,
602,1330,606,-1,
1331,1327,603,-1,
607,1331,603,-1,
607,603,602,-1,
606,607,602,-1,
1326,1327,1331,-1,
1326,1331,1330,-1,
606,1330,1332,-1,
606,1332,608,-1,
1333,1331,607,-1,
609,1333,607,-1,
609,607,606,-1,
608,609,606,-1,
1330,1331,1333,-1,
1330,1333,1332,-1,
608,1332,1336,-1,
608,1336,612,-1,
1337,1333,609,-1,
613,1337,609,-1,
613,609,608,-1,
612,613,608,-1,
1332,1333,1337,-1,
1332,1337,1336,-1,
612,1336,1338,-1,
612,1338,614,-1,
1341,1337,613,-1,
617,1341,613,-1,
617,613,612,-1,
614,617,612,-1,
1336,1337,1341,-1,
1336,1341,1338,-1,
614,1338,1342,-1,
614,1342,618,-1,
1343,1341,617,-1,
619,1343,617,-1,
619,617,614,-1,
618,619,614,-1,
1338,1341,1343,-1,
1338,1343,1342,-1,
618,1342,1344,-1,
618,1344,620,-1,
1347,1343,619,-1,
623,1347,619,-1,
623,619,618,-1,
620,623,618,-1,
1342,1343,1347,-1,
1342,1347,1344,-1,
620,1344,1348,-1,
620,1348,624,-1,
1349,1347,623,-1,
625,1349,623,-1,
625,623,620,-1,
624,625,620,-1,
1344,1347,1349,-1,
1344,1349,1348,-1,
624,1348,1350,-1,
624,1350,626,-1,
1353,1349,625,-1,
629,1353,625,-1,
629,625,624,-1,
626,629,624,-1,
1348,1349,1353,-1,
1348,1353,1350,-1,
626,1350,1354,-1,
626,1354,630,-1,
1355,1353,629,-1,
631,1355,629,-1,
631,629,626,-1,
630,631,626,-1,
1350,1353,1355,-1,
1350,1355,1354,-1,
630,1354,1356,-1,
630,1356,632,-1,
1359,1355,631,-1,
635,1359,631,-1,
635,631,630,-1,
632,635,630,-1,
1354,1355,1359,-1,
1354,1359,1356,-1,
632,1356,1360,-1,
632,1360,636,-1,
1361,1359,635,-1,
637,1361,635,-1,
637,635,632,-1,
636,637,632,-1,
1356,1359,1361,-1,
1356,1361,1360,-1,
636,1360,1362,-1,
636,1362,638,-1,
1365,1361,637,-1,
641,1365,637,-1,
641,637,636,-1,
638,641,636,-1,
1360,1361,1365,-1,
1360,1365,1362,-1,
638,1362,1366,-1,
638,1366,642,-1,
1367,1365,641,-1,
643,1367,641,-1,
643,641,638,-1,
642,643,638,-1,
1362,1365,1367,-1,
1362,1367,1366,-1,
642,1366,1368,-1,
642,1368,644,-1,
1372,1367,643,-1,
648,1372,643,-1,
648,643,642,-1,
644,648,642,-1,
1366,1367,1372,-1,
1366,1372,1368,-1,
644,1368,1371,-1,
644,1371,647,-1,
1374,1372,648,-1,
650,1374,648,-1,
650,648,644,-1,
647,650,644,-1,
1368,1372,1374,-1,
1368,1374,1371,-1,
647,1371,1373,-1,
647,1373,649,-1,
1378,1374,650,-1,
654,1378,650,-1,
654,650,647,-1,
649,654,647,-1,
1371,1374,1378,-1,
1371,1378,1373,-1,
649,1373,1377,-1,
649,1377,653,-1,
1380,1378,654,-1,
656,1380,654,-1,
656,654,649,-1,
653,656,649,-1,
1373,1378,1380,-1,
1373,1380,1377,-1,
653,1377,1379,-1,
653,1379,655,-1,
1384,1380,656,-1,
660,1384,656,-1,
660,656,653,-1,
655,660,653,-1,
1377,1380,1384,-1,
1377,1384,1379,-1,
655,1379,1382,-1,
655,1382,658,-1,
1386,1384,660,-1,
662,1386,660,-1,
662,660,655,-1,
658,662,655,-1,
1379,1384,1386,-1,
1379,1386,1382,-1,
658,1382,1385,-1,
658,1385,661,-1,
1389,1386,662,-1,
665,1389,662,-1,
665,662,658,-1,
661,665,658,-1,
1382,1386,1389,-1,
1382,1389,1385,-1,
661,1385,1388,-1,
661,1388,664,-1,
1392,1389,665,-1,
668,1392,665,-1,
668,665,661,-1,
664,668,661,-1,
1385,1389,1392,-1,
1385,1392,1388,-1,
664,1388,1391,-1,
664,1391,667,-1,
1395,1392,668,-1,
671,1395,668,-1,
671,668,664,-1,
667,671,664,-1,
1388,1392,1395,-1,
1388,1395,1391,-1,
667,1391,1393,-1,
667,1393,669,-1,
1398,1395,671,-1,
674,1398,671,-1,
674,671,667,-1,
669,674,667,-1,
1391,1395,1398,-1,
1391,1398,1393,-1,
669,1393,1396,-1,
669,1396,672,-1,
1402,1398,674,-1,
678,1402,674,-1,
678,674,669,-1,
672,678,669,-1,
1393,1398,1402,-1,
1393,1402,1396,-1,
672,1396,1399,-1,
672,1399,675,-1,
1405,1402,678,-1,
681,1405,678,-1,
681,678,672,-1,
675,681,672,-1,
1396,1402,1405,-1,
1396,1405,1399,-1,
675,1399,1401,-1,
675,1401,677,-1,
1408,1405,681,-1,
684,1408,681,-1,
684,681,675,-1,
677,684,675,-1,
1399,1405,1408,-1,
1399,1408,1401,-1,
677,1401,1404,-1,
677,1404,680,-1,
1412,1408,684,-1,
688,1412,684,-1,
688,684,677,-1,
680,688,677,-1,
1401,1408,1412,-1,
1401,1412,1404,-1,
680,1404,1407,-1,
680,1407,683,-1,
1415,1412,688,-1,
691,1415,688,-1,
691,688,680,-1,
683,691,680,-1,
1404,1412,1415,-1,
1404,1415,1407,-1,
683,1407,1409,-1,
683,1409,685,-1,
1418,1415,691,-1,
694,1418,691,-1,
694,691,683,-1,
685,694,683,-1,
1407,1415,1418,-1,
1407,1418,1409,-1,
685,1409,1413,-1,
685,1413,689,-1,
1423,1418,694,-1,
699,1423,694,-1,
699,694,685,-1,
689,699,685,-1,
1409,1418,1423,-1,
1409,1423,1413,-1,
689,1413,1414,-1,
689,1414,690,-1,
1426,1423,699,-1,
702,1426,699,-1,
702,699,689,-1,
690,702,689,-1,
1413,1423,1426,-1,
1413,1426,1414,-1,
690,1414,1417,-1,
690,1417,693,-1,
1433,1426,702,-1,
709,1433,702,-1,
709,702,690,-1,
693,709,690,-1,
1414,1426,1433,-1,
1414,1433,1417,-1,
693,1417,1420,-1,
693,1420,696,-1,
1436,1433,709,-1,
712,1436,709,-1,
712,709,693,-1,
696,712,693,-1,
1417,1433,1436,-1,
1417,1436,1420,-1,
696,1420,1421,-1,
696,1421,697,-1,
1438,1436,712,-1,
714,1438,712,-1,
714,712,696,-1,
697,714,696,-1,
1420,1436,1438,-1,
1420,1438,1421,-1,
697,1421,1424,-1,
697,1424,700,-1,
1439,1438,714,-1,
715,1439,714,-1,
715,714,697,-1,
700,715,697,-1,
1421,1438,1439,-1,
1421,1439,1424,-1,
700,1424,1425,-1,
700,1425,701,-1,
1440,1439,715,-1,
716,1440,715,-1,
716,715,700,-1,
701,716,700,-1,
1424,1439,1440,-1,
1424,1440,1425,-1,
701,1425,1428,-1,
701,1428,704,-1,
1442,1440,716,-1,
718,1442,716,-1,
718,716,701,-1,
704,718,701,-1,
1425,1440,1442,-1,
1425,1442,1428,-1,
704,1428,1430,-1,
704,1430,706,-1,
1443,1442,718,-1,
719,1443,718,-1,
719,718,704,-1,
706,719,704,-1,
1428,1442,1443,-1,
1428,1443,1430,-1,
706,1430,1432,-1,
706,1432,708,-1,
1445,1443,719,-1,
721,1445,719,-1,
721,719,706,-1,
708,721,706,-1,
1430,1443,1445,-1,
1430,1445,1432,-1,
708,1432,1434,-1,
708,1434,710,-1,
1446,1445,721,-1,
722,1446,721,-1,
722,721,708,-1,
710,722,708,-1,
1432,1445,1446,-1,
1432,1446,1434,-1,
710,1434,1435,-1,
710,1435,711,-1,
1447,1446,722,-1,
723,1447,722,-1,
723,722,710,-1,
711,723,710,-1,
1434,1446,1447,-1,
1434,1447,1435,-1,
711,1435,1431,-1,
711,1431,707,-1,
1444,1447,723,-1,
720,1444,723,-1,
720,723,711,-1,
707,720,711,-1,
1435,1447,1444,-1,
1435,1444,1431,-1,
707,1431,1427,-1,
707,1427,703,-1,
1441,1444,720,-1,
717,1441,720,-1,
717,720,707,-1,
703,717,707,-1,
1431,1444,1441,-1,
1431,1441,1427,-1,
703,1427,1422,-1,
703,1422,698,-1,
1437,1441,717,-1,
713,1437,717,-1,
713,717,703,-1,
698,713,703,-1,
1427,1441,1437,-1,
1427,1437,1422,-1,
698,1422,1416,-1,
698,1416,692,-1,
1429,1437,713,-1,
705,1429,713,-1,
705,713,698,-1,
692,705,698,-1,
1422,1437,1429,-1,
1422,1429,1416,-1,
692,1416,1411,-1,
692,1411,687,-1,
1419,1429,705,-1,
695,1419,705,-1,
695,705,692,-1,
687,695,692,-1,
1416,1429,1419,-1,
1416,1419,1411,-1,
687,1411,1406,-1,
687,1406,682,-1,
1410,1419,695,-1,
686,1410,695,-1,
686,695,687,-1,
682,686,687,-1,
1411,1419,1410,-1,
1411,1410,1406,-1,
682,1406,1400,-1,
682,1400,676,-1,
1403,1410,686,-1,
679,1403,686,-1,
679,686,682,-1,
676,679,682,-1,
1406,1410,1403,-1,
1406,1403,1400,-1,
676,1400,1394,-1,
676,1394,670,-1,
1397,1403,679,-1,
673,1397,679,-1,
673,679,676,-1,
670,673,676,-1,
1400,1403,1397,-1,
1400,1397,1394,-1,
670,1394,1387,-1,
670,1387,663,-1,
1390,1397,673,-1,
666,1390,673,-1,
666,673,670,-1,
663,666,670,-1,
1394,1397,1390,-1,
1394,1390,1387,-1,
663,1387,1381,-1,
663,1381,657,-1,
1383,1390,666,-1,
659,1383,666,-1,
659,666,663,-1,
657,659,663,-1,
1387,1390,1383,-1,
1387,1383,1381,-1,
657,1381,1375,-1,
657,1375,651,-1,
1376,1383,659,-1,
652,1376,659,-1,
652,659,657,-1,
651,652,657,-1,
1381,1383,1376,-1,
1381,1376,1375,-1,
651,1375,1369,-1,
651,1369,645,-1,
1370,1376,652,-1,
646,1370,652,-1,
646,652,651,-1,
645,646,651,-1,
1375,1376,1370,-1,
1375,1370,1369,-1,
645,1369,1363,-1,
645,1363,639,-1,
1364,1370,646,-1,
640,1364,646,-1,
640,646,645,-1,
639,640,645,-1,
1369,1370,1364,-1,
1369,1364,1363,-1,
639,1363,1357,-1,
639,1357,633,-1,
1358,1364,640,-1,
634,1358,640,-1,
634,640,639,-1,
633,634,639,-1,
1363,1364,1358,-1,
1363,1358,1357,-1,
633,1357,1351,-1,
633,1351,627,-1,
1352,1358,634,-1,
628,1352,634,-1,
628,634,633,-1,
627,628,633,-1,
1357,1358,1352,-1,
1357,1352,1351,-1,
627,1351,1345,-1,
627,1345,621,-1,
1346,1352,628,-1,
622,1346,628,-1,
622,628,627,-1,
621,622,627,-1,
1351,1352,1346,-1,
1351,1346,1345,-1,
621,1345,1339,-1,
621,1339,615,-1,
1340,1346,622,-1,
616,1340,622,-1,
616,622,621,-1,
615,616,621,-1,
1345,1346,1340,-1,
1345,1340,1339,-1,
615,1339,1334,-1,
615,1334,610,-1,
1335,1340,616,-1,
611,1335,616,-1,
611,616,615,-1,
610,611,615,-1,
1339,1340,1335,-1,
1339,1335,1334,-1,
610,1334,1328,-1,
610,1328,604,-1,
1329,1335,611,-1,
605,1329,611,-1,
605,611,610,-1,
604,605,610,-1,
1334,1335,1329,-1,
1334,1329,1328,-1,
604,1328,1322,-1,
604,1322,598,-1,
1323,1329,605,-1,
599,1323,605,-1,
599,605,604,-1,
598,599,604,-1,
1328,1329,1323,-1,
1328,1323,1322,-1,
598,1322,1317,-1,
598,1317,593,-1,
1318,1323,599,-1,
594,1318,599,-1,
594,599,598,-1,
593,594,598,-1,
1322,1323,1318,-1,
1322,1318,1317,-1,
593,1317,1312,-1,
593,1312,588,-1,
1313,1318,594,-1,
589,1313,594,-1,
589,594,593,-1,
588,589,593,-1,
1317,1318,1313,-1,
1317,1313,1312,-1,
588,1312,1306,-1,
588,1306,582,-1,
1307,1313,589,-1,
583,1307,589,-1,
583,589,588,-1,
582,583,588,-1,
1312,1313,1307,-1,
1312,1307,1306,-1,
582,1306,1302,-1,
582,1302,578,-1,
1303,1307,583,-1,
579,1303,583,-1,
579,583,582,-1,
578,579,582,-1,
1306,1307,1303,-1,
1306,1303,1302,-1,
578,1302,1296,-1,
578,1296,572,-1,
1297,1303,579,-1,
573,1297,579,-1,
573,579,578,-1,
572,573,578,-1,
1302,1303,1297,-1,
1302,1297,1296,-1,
572,1296,1292,-1,
572,1292,568,-1,
1293,1297,573,-1,
569,1293,573,-1,
569,573,572,-1,
568,569,572,-1,
1296,1297,1293,-1,
1296,1293,1292,-1,
568,1292,1286,-1,
568,1286,562,-1,
1287,1293,569,-1,
563,1287,569,-1,
563,569,568,-1,
562,563,568,-1,
1292,1293,1287,-1,
1292,1287,1286,-1,
562,1286,1282,-1,
562,1282,558,-1,
1283,1287,563,-1,
559,1283,563,-1,
559,563,562,-1,
558,559,562,-1,
1286,1287,1283,-1,
1286,1283,1282,-1,
558,1282,1277,-1,
558,1277,553,-1,
1278,1283,559,-1,
554,1278,559,-1,
554,559,558,-1,
553,554,558,-1,
1282,1283,1278,-1,
1282,1278,1277,-1,
553,1277,1272,-1,
553,1272,548,-1,
1273,1278,554,-1,
549,1273,554,-1,
549,554,553,-1,
548,549,553,-1,
1277,1278,1273,-1,
1277,1273,1272,-1,
548,1272,1268,-1,
548,1268,544,-1,
1269,1273,549,-1,
545,1269,549,-1,
545,549,548,-1,
544,545,548,-1,
1272,1273,1269,-1,
1272,1269,1268,-1,
308,1032,1033,-1,
308,1033,309,-1,
544,1268,1269,-1,
544,1269,545,-1
]
}
}
