#VRML V2.0 utf8
# from display_holder_r1.stl + display by stl_to_wrl.py, units mm

Shape {
appearance Appearance {
material Material {
diffuseColor 0.35 0.35 0.37
shininess 0.2
}
}
geometry IndexedFaceSet {
coord Coordinate {
point [
0.0000 -2.0000 -0.2000,
0.0000 -2.0000 1.2000,
0.0000 1.2500 1.2000,
0.0000 1.2500 2.5000,
0.0000 3.8000 0.6000,
0.0000 3.8000 2.1000,
0.0000 4.1500 2.1000,
0.0000 4.1500 2.5000,
0.0000 18.7000 1.9500,
0.0000 18.7000 2.5000,
0.0000 22.9500 0.6000,
0.0000 22.9500 1.9500,
0.0000 24.6500 1.2000,
0.0000 24.6500 2.5000,
0.0000 27.9000 -0.2000,
0.0000 27.9000 1.2000,
0.0099 1.0933 1.2000,
0.0099 1.0933 2.5000,
0.0099 24.8067 1.2000,
0.0099 24.8067 2.5000,
0.0393 0.9391 1.2000,
0.0393 0.9391 2.5000,
0.0393 24.9609 1.2000,
0.0393 24.9609 2.5000,
0.0878 0.7898 1.2000,
0.0878 0.7898 2.5000,
0.0878 25.1102 1.2000,
0.0878 25.1102 2.5000,
0.1546 0.6478 1.2000,
0.1546 0.6478 2.5000,
0.1546 25.2522 1.2000,
0.1546 25.2522 2.5000,
0.2387 0.5153 1.2000,
0.2387 0.5153 2.5000,
0.2387 25.3847 1.2000,
0.2387 25.3847 2.5000,
0.2500 -1.0000 -2.5000,
0.2500 -1.0000 -0.2000,
0.2500 27.0000 -2.5000,
0.2500 27.0000 -0.2000,
0.2644 -1.1463 -2.5000,
0.2644 -1.1463 -0.2000,
0.2644 -0.8537 -2.5000,
0.2644 -0.8537 -0.2000,
0.2644 26.8537 -2.5000,
0.2644 26.8537 -0.2000,
0.2644 27.1463 -2.5000,
0.2644 27.1463 -0.2000,
0.3071 -1.2870 -2.5000,
0.3071 -1.2870 -0.2000,
0.3071 -0.7130 -2.5000,
0.3071 -0.7130 -0.2000,
0.3071 26.7130 -2.5000,
0.3071 26.7130 -0.2000,
0.3071 27.2870 -2.5000,
0.3071 27.2870 -0.2000,
0.3388 0.3943 1.2000,
0.3388 0.3943 2.5000,
0.3388 25.5057 1.2000,
0.3388 25.5057 2.5000,
0.3764 -1.4167 -2.5000,
0.3764 -1.4167 -0.2000,
0.3764 -0.5833 -2.5000,
0.3764 -0.5833 -0.2000,
0.3764 26.5833 -2.5000,
0.3764 26.5833 -0.2000,
0.3764 27.4167 -2.5000,
0.3764 27.4167 -0.2000,
0.4532 0.2869 1.2000,
0.4532 0.2869 2.5000,
0.4532 25.6131 1.2000,
0.4532 25.6131 2.5000,
0.4697 -1.5303 -2.5000,
0.4697 -1.5303 -0.2000,
0.4697 -0.4697 -2.5000,
0.4697 -0.4697 -0.2000,
0.4697 26.4697 -2.5000,
0.4697 26.4697 -0.2000,
0.4697 27.5303 -2.5000,
0.4697 27.5303 -0.2000,
0.5802 0.1946 1.2000,
0.5802 0.1946 2.5000,
0.5802 25.7054 1.2000,
0.5802 25.7054 2.5000,
0.5833 -1.6236 -2.5000,
0.5833 -1.6236 -0.2000,
0.5833 -0.3764 -2.5000,
0.5833 -0.3764 -0.2000,
0.5833 26.3764 -2.5000,
0.5833 26.3764 -0.2000,
0.5833 27.6236 -2.5000,
0.5833 27.6236 -0.2000,
0.7130 -1.6929 -2.5000,
0.7130 -1.6929 -0.2000,
0.7130 -0.3071 -2.5000,
0.7130 -0.3071 -0.2000,
0.7130 26.3071 -2.5000,
0.7130 26.3071 -0.2000,
0.7130 27.6929 -2.5000,
0.7130 27.6929 -0.2000,
0.7178 0.1190 1.2000,
0.7178 0.1190 2.5000,
0.7178 25.7810 1.2000,
0.7178 25.7810 2.5000,
0.8537 -1.7356 -2.5000,
0.8537 -1.7356 -0.2000,
0.8537 -0.2644 -2.5000,
0.8537 -0.2644 -0.2000,
0.8537 26.2644 -2.5000,
0.8537 26.2644 -0.2000,
0.8537 27.7356 -2.5000,
0.8537 27.7356 -0.2000,
0.8637 0.0612 1.2000,
0.8637 0.0612 2.5000,
0.8637 25.8388 1.2000,
0.8637 25.8388 2.5000,
1.0000 -1.7500 -2.5000,
1.0000 -1.7500 -0.2000,
1.0000 -0.2500 -2.5000,
1.0000 -0.2500 -0.2000,
1.0000 1.0000 -0.2000,
1.0000 1.0000 1.0000,
1.0000 3.0000 -0.2000,
1.0000 3.0000 1.0000,
1.0000 26.2500 -2.5000,
1.0000 26.2500 -0.2000,
1.0000 27.7500 -2.5000,
1.0000 27.7500 -0.2000,
1.0158 0.0221 1.2000,
1.0158 0.0221 2.5000,
1.0158 25.8779 1.2000,
1.0158 25.8779 2.5000,
1.1463 -1.7356 -2.5000,
1.1463 -1.7356 -0.2000,
1.1463 -0.2644 -2.5000,
1.1463 -0.2644 -0.2000,
1.1463 26.2644 -2.5000,
1.1463 26.2644 -0.2000,
1.1463 27.7356 -2.5000,
1.1463 27.7356 -0.2000,
1.1715 0.0025 1.2000,
1.1715 0.0025 2.5000,
1.1715 25.8975 1.2000,
1.1715 25.8975 2.5000,
1.2870 -1.6929 -2.5000,
1.2870 -1.6929 -0.2000,
1.2870 -0.3071 -2.5000,
1.2870 -0.3071 -0.2000,
1.2870 26.3071 -2.5000,
1.2870 26.3071 -0.2000,
1.2870 27.6929 -2.5000,
1.2870 27.6929 -0.2000,
1.4167 -1.6236 -2.5000,
1.4167 -1.6236 -0.2000,
1.4167 -0.3764 -2.5000,
1.4167 -0.3764 -0.2000,
1.4167 26.3764 -2.5000,
1.4167 26.3764 -0.2000,
1.4167 27.6236 -2.5000,
1.4167 27.6236 -0.2000,
1.5303 -1.5303 -2.5000,
1.5303 -1.5303 -0.2000,
1.5303 -0.4697 -2.5000,
1.5303 -0.4697 -0.2000,
1.5303 26.4697 -2.5000,
1.5303 26.4697 -0.2000,
1.5303 27.5303 -2.5000,
1.5303 27.5303 -0.2000,
1.6236 -1.4167 -2.5000,
1.6236 -1.4167 -0.2000,
1.6236 -0.5833 -2.5000,
1.6236 -0.5833 -0.2000,
1.6236 26.5833 -2.5000,
1.6236 26.5833 -0.2000,
1.6236 27.4167 -2.5000,
1.6236 27.4167 -0.2000,
1.6929 -1.2870 -2.5000,
1.6929 -1.2870 -0.2000,
1.6929 -0.7130 -2.5000,
1.6929 -0.7130 -0.2000,
1.6929 26.7130 -2.5000,
1.6929 26.7130 -0.2000,
1.6929 27.2870 -2.5000,
1.6929 27.2870 -0.2000,
1.7356 -1.1463 -2.5000,
1.7356 -1.1463 -0.2000,
1.7356 -0.8537 -2.5000,
1.7356 -0.8537 -0.2000,
1.7356 26.8537 -2.5000,
1.7356 26.8537 -0.2000,
1.7356 27.1463 -2.5000,
1.7356 27.1463 -0.2000,
1.7500 -1.0000 -2.5000,
1.7500 -1.0000 -0.2000,
1.7500 27.0000 -2.5000,
1.7500 27.0000 -0.2000,
5.4750 22.9500 0.6000,
5.4750 22.9500 1.6000,
5.4750 25.8975 1.2000,
5.4750 25.8975 1.6000,
5.4750 27.9000 0.6000,
5.4750 27.9000 1.2000,
5.8874 21.0419 2.5000,
5.8874 21.0419 2.6500,
6.2649 22.9883 2.5000,
6.2649 22.9883 2.6500,
6.2797 23.0701 2.5000,
6.2797 23.0701 2.6500,
6.2995 23.1928 2.5000,
6.2995 23.1928 2.6500,
6.3241 23.3564 2.5000,
6.3241 23.3564 2.6500,
6.3257 21.0419 2.5000,
6.3257 21.0419 2.6500,
6.4458 21.6611 2.5000,
6.4458 21.6611 2.6500,
6.4957 21.9387 2.5000,
6.4957 21.9387 2.6500,
6.4988 21.9387 2.5000,
6.4988 21.9387 2.6500,
6.5300 21.8512 2.5000,
6.5300 21.8512 2.6500,
6.5778 21.7779 2.5000,
6.5778 21.7779 2.6500,
6.5783 22.2756 2.5000,
6.5783 22.2756 2.6500,
6.5811 22.3454 2.5000,
6.5811 22.3454 2.6500,
6.5856 22.1742 2.5000,
6.5856 22.1742 2.6500,
6.5894 22.4218 2.5000,
6.5894 22.4218 2.6500,
6.6033 22.5048 2.5000,
6.6033 22.5048 2.6500,
6.6075 22.0905 2.5000,
6.6075 22.0905 2.6500,
6.6307 22.6223 2.5000,
6.6307 22.6223 2.6500,
6.6423 21.7188 2.5000,
6.6423 21.7188 2.6500,
6.6439 22.0245 2.5000,
6.6439 22.0245 2.6500,
6.6650 22.7274 2.5000,
6.6650 22.7274 2.6500,
6.6927 21.9768 2.5000,
6.6927 21.9768 2.6500,
6.7062 22.8199 2.5000,
6.7062 22.8199 2.6500,
6.7187 23.0819 2.5000,
6.7187 23.0819 2.6500,
6.7217 21.6754 2.5000,
6.7217 21.6754 2.6500,
6.7243 23.1164 2.5000,
6.7243 23.1164 2.6500,
6.7250 23.0819 2.5000,
6.7250 23.0819 2.6500,
6.7305 23.1616 2.5000,
6.7305 23.1616 2.6500,
6.7374 23.2176 2.5000,
6.7374 23.2176 2.6500,
6.7435 23.2726 2.5000,
6.7435 23.2726 2.6500,
6.7471 23.3147 2.5000,
6.7471 23.3147 2.6500,
6.7483 23.3439 2.5000,
6.7483 23.3439 2.6500,
6.7483 23.3564 2.5000,
6.7483 23.3564 2.6500,
6.7520 21.9482 2.5000,
6.7520 21.9482 2.6500,
6.7535 22.8995 2.5000,
6.7535 22.8995 2.6500,
6.7989 23.1769 2.5000,
6.7989 23.1769 2.6500,
6.8057 22.9658 2.5000,
6.8057 22.9658 2.6500,
6.8142 21.6494 2.5000,
6.8142 21.6494 2.6500,
6.8217 21.9387 2.5000,
6.8217 21.9387 2.6500,
6.8630 23.0188 2.5000,
6.8630 23.0188 2.6500,
6.8792 23.2538 2.5000,
6.8792 23.2538 2.6500,
6.9092 21.9512 2.5000,
6.9092 21.9512 2.6500,
6.9199 21.6408 2.5000,
6.9199 21.6408 2.6500,
6.9236 23.0573 2.5000,
6.9236 23.0573 2.6500,
6.9660 23.3128 2.5000,
6.9660 23.3128 2.6500,
6.9857 23.0804 2.5000,
6.9857 23.0804 2.6500,
6.9887 21.9889 2.5000,
6.9887 21.9889 2.6500,
7.0359 21.6504 2.5000,
7.0359 21.6504 2.6500,
7.0494 23.0882 2.5000,
7.0494 23.0882 2.6500,
7.0603 22.0518 2.5000,
7.0603 22.0518 2.6500,
7.0605 23.3544 2.5000,
7.0605 23.3544 2.6500,
7.1231 22.1389 2.5000,
7.1231 22.1389 2.6500,
7.1449 21.6793 2.5000,
7.1449 21.6793 2.6500,
7.1642 23.3793 2.5000,
7.1642 23.3793 2.6500,
7.1764 22.2493 2.5000,
7.1764 22.2493 2.6500,
7.1768 23.0525 2.5000,
7.1768 23.0525 2.6500,
7.2202 22.3832 2.5000,
7.2202 22.3832 2.6500,
7.2467 21.7274 2.5000,
7.2467 21.7274 2.6500,
7.2527 22.5229 2.5000,
7.2527 22.5229 2.6500,
7.2532 22.9454 2.5000,
7.2532 22.9454 2.6500,
7.2721 22.6508 2.5000,
7.2721 22.6508 2.6500,
7.2771 23.3876 2.5000,
7.2771 23.3876 2.6500,
7.2786 22.7669 2.5000,
7.2786 22.7669 2.6500,
7.3406 21.7936 2.5000,
7.3406 21.7936 2.6500,
7.4143 23.3709 2.5000,
7.4143 23.3709 2.6500,
7.4259 21.8771 2.5000,
7.4259 21.8771 2.6500,
7.5025 21.9777 2.5000,
7.5025 21.9777 2.6500,
7.5284 23.3207 2.5000,
7.5284 23.3207 2.6500,
7.5698 22.0947 2.5000,
7.5698 22.0947 2.6500,
7.6194 23.2371 2.5000,
7.6194 23.2371 2.6500,
7.6272 22.2272 2.5000,
7.6272 22.2272 2.6500,
7.6748 22.3754 2.5000,
7.6748 22.3754 2.6500,
7.6857 23.1230 2.5000,
7.6857 23.1230 2.6500,
7.7103 22.5279 2.5000,
7.7103 22.5279 2.6500,
7.7255 22.9813 2.5000,
7.7255 22.9813 2.6500,
7.7316 22.6735 2.5000,
7.7316 22.6735 2.6500,
7.7387 22.8121 2.5000,
7.7387 22.8121 2.6500,
7.9310 22.1960 2.5000,
7.9310 22.1960 2.6500,
7.9379 22.3368 2.5000,
7.9379 22.3368 2.6500,
7.9442 22.0300 2.5000,
7.9442 22.0300 2.6500,
7.9584 22.4823 2.5000,
7.9584 22.4823 2.6500,
7.9837 21.8917 2.5000,
7.9837 21.8917 2.6500,
7.9926 22.6327 2.5000,
7.9926 22.6327 2.6500,
8.0393 22.7792 2.5000,
8.0393 22.7792 2.6500,
8.0496 21.7812 2.5000,
8.0496 21.7812 2.6500,
8.0973 22.9128 2.5000,
8.0973 22.9128 2.6500,
8.1409 21.7006 2.5000,
8.1409 21.7006 2.6500,
8.1666 23.0336 2.5000,
8.1666 23.0336 2.6500,
8.2456 23.1390 2.5000,
8.2456 23.1390 2.6500,
8.2568 21.6522 2.5000,
8.2568 21.6522 2.6500,
8.3329 23.2266 2.5000,
8.3329 23.2266 2.6500,
8.3943 22.2553 2.5000,
8.3943 22.2553 2.6500,
8.3974 21.6361 2.5000,
8.3974 21.6361 2.6500,
8.4008 22.3804 2.5000,
8.4008 22.3804 2.6500,
8.4201 22.0768 2.5000,
8.4201 22.0768 2.6500,
8.4206 22.5125 2.5000,
8.4206 22.5125 2.6500,
8.4286 23.2964 2.5000,
8.4286 23.2964 2.6500,
8.4535 22.6515 2.5000,
8.4535 22.6515 2.6500,
8.4975 21.9697 2.5000,
8.4975 21.9697 2.6500,
8.4977 22.7826 2.5000,
8.4977 22.7826 2.6500,
8.5104 21.6448 2.5000,
8.5104 21.6448 2.6500,
8.5310 23.3471 2.5000,
8.5310 23.3471 2.6500,
8.5512 22.8910 2.5000,
8.5512 22.8910 2.6500,
8.6142 22.9767 2.5000,
8.6142 22.9767 2.6500,
8.6164 21.6708 2.5000,
8.6164 21.6708 2.6500,
8.6267 21.9340 2.5000,
8.6267 21.9340 2.6500,
8.6386 23.3775 2.5000,
8.6386 23.3775 2.6500,
8.6852 23.0386 2.5000,
8.6852 23.0386 2.6500,
8.7155 21.7141 2.5000,
8.7155 21.7141 2.6500,
8.7253 21.9507 2.5000,
8.7253 21.9507 2.6500,
8.7514 23.3876 2.5000,
8.7514 23.3876 2.6500,
8.7632 23.0758 2.5000,
8.7632 23.0758 2.6500,
8.7764 21.0419 2.5000,
8.7764 21.0419 2.6500,
8.8053 21.7732 2.5000,
8.8053 21.7732 2.6500,
8.8155 22.0009 2.5000,
8.8155 22.0009 2.6500,
8.8481 23.0882 2.5000,
8.8481 23.0882 2.6500,
8.8544 23.3789 2.5000,
8.8544 23.3789 2.6500,
8.8833 21.8465 2.5000,
8.8833 21.8465 2.6500,
8.8949 21.6564 2.5000,
8.8949 21.6564 2.6500,
8.8972 22.0845 2.5000,
8.8972 22.0845 2.6500,
8.9186 23.0777 2.5000,
8.9186 23.0777 2.6500,
8.9448 23.3526 2.5000,
8.9448 23.3526 2.6500,
8.9495 21.9340 2.5000,
8.9495 21.9340 2.6500,
8.9526 21.9340 2.5000,
8.9526 21.9340 2.6500,
8.9677 22.1979 2.5000,
8.9677 22.1979 2.6500,
8.9781 23.0462 2.5000,
8.9781 23.0462 2.6500,
9.0228 23.3089 2.5000,
9.0228 23.3089 2.6500,
9.0241 22.3375 2.5000,
9.0241 22.3375 2.6500,
9.0267 22.9938 2.5000,
9.0267 22.9938 2.6500,
9.0627 22.9230 2.5000,
9.0627 22.9230 2.6500,
9.0665 22.5033 2.5000,
9.0665 22.5033 2.6500,
9.0803 22.5865 2.5000,
9.0803 22.5865 2.6500,
9.0842 22.8365 2.5000,
9.0842 22.8365 2.6500,
9.0869 23.2486 2.5000,
9.0869 23.2486 2.6500,
9.0887 22.6634 2.5000,
9.0887 22.6634 2.6500,
9.0914 22.7341 2.5000,
9.0914 22.7341 2.6500,
9.1358 23.1730 2.5000,
9.1358 23.1730 2.6500,
9.1694 23.0819 2.5000,
9.1694 23.0819 2.6500,
9.1757 23.0819 2.5000,
9.1757 23.0819 2.6500,
9.1863 23.1333 2.5000,
9.1863 23.1333 2.6500,
9.1996 23.1876 2.5000,
9.1996 23.1876 2.6500,
9.2146 21.0419 2.5000,
9.2146 21.0419 2.6500,
9.2154 23.2449 2.5000,
9.2154 23.2449 2.6500,
9.2309 23.2965 2.5000,
9.2309 23.2965 2.6500,
9.2432 23.3336 2.5000,
9.2432 23.3336 2.6500,
9.2521 23.3564 2.5000,
9.2521 23.3564 2.6500,
9.5832 21.6689 2.5000,
9.5832 21.6689 2.6500,
9.5921 22.9883 2.5000,
9.5921 22.9883 2.6500,
9.6405 23.2067 2.5000,
9.6405 23.2067 2.6500,
9.6763 23.3564 2.5000,
9.6763 23.3564 2.6500,
10.0417 21.6689 2.5000,
10.0417 21.6689 2.6500,
10.0767 10.1407 -0.5010,
10.0767 10.1407 -0.2000,
10.1288 10.3660 -0.5010,
10.1288 10.3660 -0.2000,
10.1723 10.5943 -0.5010,
10.1723 10.5943 -0.2000,
10.2072 10.8256 -0.5010,
10.2072 10.8256 -0.2000,
10.2326 11.0483 -0.5010,
10.2326 11.0483 -0.2000,
10.2479 11.2506 -0.5010,
10.2479 11.2506 -0.2000,
10.2530 11.4325 -0.5010,
10.2530 11.4325 -0.2000,
10.2530 13.8094 -0.5010,
10.2530 13.8094 -0.2000,
10.4831 22.4971 2.5000,
10.4831 22.4971 2.6500,
10.6266 23.4453 2.5000,
10.6266 23.4453 2.6500,
10.6968 22.9540 2.5000,
10.6968 22.9540 2.6500,
10.7233 23.0117 2.5000,
10.7233 23.0117 2.6500,
10.7255 22.9863 2.5000,
10.7255 22.9863 2.6500,
10.7323 22.9185 2.5000,
10.7323 22.9185 2.6500,
10.7436 22.8082 2.5000,
10.7436 22.8082 2.6500,
10.7513 23.6387 2.5000,
10.7513 23.6387 2.6500,
10.7552 22.6957 2.5000,
10.7552 22.6957 2.6500,
10.7630 22.6214 2.5000,
10.7630 22.6214 2.6500,
10.7670 22.5852 2.5000,
10.7670 22.5852 2.6500,
10.7711 22.5502 2.5000,
10.7711 22.5502 2.6500,
10.7732 22.5321 2.5000,
10.7732 22.5321 2.6500,
10.7753 22.5154 2.5000,
10.7753 22.5154 2.6500,
10.7774 22.5016 2.5000,
10.7774 22.5016 2.6500,
10.7794 22.4908 2.5000,
10.7794 22.4908 2.6500,
10.8716 23.7881 2.5000,
10.8716 23.7881 2.6500,
10.9167 21.6689 2.5000,
10.9167 21.6689 2.6500,
10.9877 23.8937 2.5000,
10.9877 23.8937 2.6500,
10.9955 10.1407 -0.5010,
10.9955 10.1407 -0.2000,
11.0056 23.3393 2.5000,
11.0056 23.3393 2.6500,
11.0477 23.4141 2.5000,
11.0477 23.4141 2.6500,
11.0671 10.4225 -0.5010,
11.0671 10.4225 -0.2000,
11.1065 23.5056 2.5000,
11.1065 23.5056 2.6500,
11.1082 23.9635 2.5000,
11.1082 23.9635 2.6500,
11.1191 10.6802 -0.5010,
11.1191 10.6802 -0.2000,
11.1515 10.9138 -0.5010,
11.1515 10.9138 -0.2000,
11.1651 10.9138 -0.5010,
11.1651 10.9138 -0.2000,
11.1662 23.5784 2.5000,
11.1662 23.5784 2.6500,
11.2024 12.3243 -0.5010,
11.2024 12.3243 -0.2000,
11.2024 13.8094 -0.5010,
11.2024 13.8094 -0.2000,
11.2271 23.6325 2.5000,
11.2271 23.6325 2.6500,
11.2368 11.9163 -0.5010,
11.2368 11.9163 -0.2000,
11.2421 24.0053 2.5000,
11.2421 24.0053 2.6500,
11.2913 10.6365 -0.5010,
11.2913 10.6365 -0.2000,
11.2929 23.6698 2.5000,
11.2929 23.6698 2.6500,
11.3402 11.5648 -0.5010,
11.3402 11.5648 -0.2000,
11.3429 21.2524 2.5000,
11.3429 21.2524 2.6500,
11.3678 23.6921 2.5000,
11.3678 23.6921 2.6500,
11.3799 21.6689 2.5000,
11.3799 21.6689 2.6500,
11.3893 24.0193 2.5000,
11.3893 24.0193 2.6500,
11.4438 10.4195 -0.5010,
11.4438 10.4195 -0.2000,
11.4517 23.6996 2.5000,
11.4517 23.6996 2.6500,
11.4945 24.0170 2.5000,
11.4945 24.0170 2.6500,
11.5126 11.2698 -0.5010,
11.5126 11.2698 -0.2000,
11.5297 23.6949 2.5000,
11.5297 23.6949 2.6500,
11.5875 24.0103 2.5000,
11.5875 24.0103 2.6500,
11.6076 23.6871 2.5000,
11.6076 23.6871 2.6500,
11.6228 10.2628 -0.5010,
11.6228 10.2628 -0.2000,
11.6685 23.9990 2.5000,
11.6685 23.9990 2.6500,
11.7219 23.3564 2.5000,
11.7219 23.3564 2.6500,
11.7437 11.0475 -0.5010,
11.7437 11.0475 -0.2000,
11.8341 10.1573 -0.5010,
11.8341 10.1573 -0.2000,
11.8779 21.2524 2.5000,
11.8779 21.2524 2.6500,
12.0234 10.9142 -0.5010,
12.0234 10.9142 -0.2000,
12.0839 10.0940 -0.5010,
12.0839 10.0940 -0.2000,
12.2351 22.1555 2.5000,
12.2351 22.1555 2.6500,
12.2647 23.3564 2.5000,
12.2647 23.3564 2.6500,
12.3518 10.8697 -0.5010,
12.3518 10.8697 -0.2000,
12.3721 10.0729 -0.5010,
12.3721 10.0729 -0.2000,
12.5579 21.2524 2.5000,
12.5579 21.2524 2.6500,
12.5823 10.8769 -0.5010,
12.5823 10.8769 -0.2000,
12.6000 22.4877 2.5000,
12.6000 22.4877 2.6500,
12.6064 10.0793 -0.5010,
12.6064 10.0793 -0.2000,
12.7388 22.1867 2.5000,
12.7388 22.1867 2.6500,
12.8219 10.8983 -0.5010,
12.8219 10.8983 -0.2000,
12.8393 10.0985 -0.5010,
12.8393 10.0985 -0.2000,
12.8402 22.7092 2.5000,
12.8402 22.7092 2.6500,
12.9665 23.3564 2.5000,
12.9665 23.3564 2.6500,
13.0180 21.2524 2.5000,
13.0180 21.2524 2.6500,
13.0706 10.1305 -0.5010,
13.0706 10.1305 -0.2000,
13.0706 10.9341 -0.5010,
13.0706 10.9341 -0.2000,
13.3273 21.6689 2.5000,
13.3273 21.6689 2.6500,
13.4267 23.3564 2.5000,
13.4267 23.3564 2.6500,
13.7858 21.6689 2.5000,
13.7858 21.6689 2.6500,
13.9429 10.0119 -0.5010,
13.9429 10.0119 -0.2000,
13.9429 10.7375 -0.5010,
13.9429 10.7375 -0.2000,
13.9802 13.1007 -0.5010,
13.9802 13.1007 -0.2000,
13.9802 13.8094 -0.5010,
13.9802 13.8094 -0.2000,
14.2272 22.4971 2.5000,
14.2272 22.4971 2.6500,
14.2279 10.7164 -0.5010,
14.2279 10.7164 -0.2000,
14.2462 9.9889 -0.5010,
14.2462 9.9889 -0.2000,
14.3707 23.4453 2.5000,
14.3707 23.4453 2.6500,
14.4409 22.9540 2.5000,
14.4409 22.9540 2.6500,
14.4674 23.0117 2.5000,
14.4674 23.0117 2.6500,
14.4696 22.9863 2.5000,
14.4696 22.9863 2.6500,
14.4764 22.9185 2.5000,
14.4764 22.9185 2.6500,
14.4877 22.8082 2.5000,
14.4877 22.8082 2.6500,
14.4954 23.6387 2.5000,
14.4954 23.6387 2.6500,
14.4993 22.6957 2.5000,
14.4993 22.6957 2.6500,
14.5042 10.6531 -0.5010,
14.5042 10.6531 -0.2000,
14.5071 22.6214 2.5000,
14.5071 22.6214 2.6500,
14.5111 22.5852 2.5000,
14.5111 22.5852 2.6500,
14.5152 22.5502 2.5000,
14.5152 22.5502 2.6500,
14.5173 22.5321 2.5000,
14.5173 22.5321 2.6500,
14.5194 22.5154 2.5000,
14.5194 22.5154 2.6500,
14.5214 22.5016 2.5000,
14.5214 22.5016 2.6500,
14.5235 22.4908 2.5000,
14.5235 22.4908 2.6500,
14.5276 9.9200 -0.5010,
14.5276 9.9200 -0.2000,
14.6157 23.7881 2.5000,
14.6157 23.7881 2.6500,
14.6608 21.6689 2.5000,
14.6608 21.6689 2.6500,
14.7317 23.8937 2.5000,
14.7317 23.8937 2.6500,
14.7497 23.3393 2.5000,
14.7497 23.3393 2.6500,
14.7719 10.5476 -0.5010,
14.7719 10.5476 -0.2000,
14.7871 9.8051 -0.5010,
14.7871 9.8051 -0.2000,
14.7918 23.4141 2.5000,
14.7918 23.4141 2.6500,
14.8505 23.5056 2.5000,
14.8505 23.5056 2.6500,
14.8523 23.9635 2.5000,
14.8523 23.9635 2.6500,
14.9103 23.5784 2.5000,
14.9103 23.5784 2.6500,
14.9712 23.6325 2.5000,
14.9712 23.6325 2.6500,
14.9862 24.0053 2.5000,
14.9862 24.0053 2.6500,
15.0060 10.4112 -0.5010,
15.0060 10.4112 -0.2000,
15.0155 9.6499 -0.5010,
15.0155 9.6499 -0.2000,
15.0370 23.6698 2.5000,
15.0370 23.6698 2.6500,
15.1119 23.6921 2.5000,
15.1119 23.6921 2.6500,
15.1240 21.6689 2.5000,
15.1240 21.6689 2.6500,
15.1334 24.0193 2.5000,
15.1334 24.0193 2.6500,
15.1818 10.2553 -0.5010,
15.1818 10.2553 -0.2000,
15.1957 23.6996 2.5000,
15.1957 23.6996 2.6500,
15.2031 9.4600 -0.5010,
15.2031 9.4600 -0.2000,
15.2386 24.0170 2.5000,
15.2386 24.0170 2.6500,
15.2737 23.6949 2.5000,
15.2737 23.6949 2.6500,
15.2991 10.0797 -0.5010,
15.2991 10.0797 -0.2000,
15.2991 13.1007 -0.5010,
15.2991 13.1007 -0.2000,
15.3316 24.0103 2.5000,
15.3316 24.0103 2.6500,
15.3500 9.2354 -0.5010,
15.3500 9.2354 -0.2000,
15.3517 23.6871 2.5000,
15.3517 23.6871 2.6500,
15.4125 23.9990 2.5000,
15.4125 23.9990 2.6500,
15.5362 23.0601 2.5000,
15.5362 23.0601 2.6500,
15.5939 23.3564 2.5000,
15.5939 23.3564 2.6500,
15.6953 21.0419 2.5000,
15.6953 21.0419 2.6500,
15.9261 23.0523 2.5000,
15.9261 23.0523 2.6500,
15.9686 23.0409 2.5000,
15.9686 23.0409 2.6500,
16.0044 23.0190 2.5000,
16.0044 23.0190 2.6500,
16.0337 22.9868 2.5000,
16.0337 22.9868 2.6500,
16.0450 22.9656 2.5000,
16.0450 22.9656 2.6500,
16.0509 22.8760 2.5000,
16.0509 22.8760 2.6500,
16.0518 22.9417 2.5000,
16.0518 22.9417 2.6500,
16.0526 22.8894 2.5000,
16.0526 22.8894 2.6500,
16.0537 22.9024 2.5000,
16.0537 22.9024 2.6500,
16.0540 22.9150 2.5000,
16.0540 22.9150 2.6500,
16.0758 23.3486 2.5000,
16.0758 23.3486 2.6500,
16.1257 23.3486 2.5000,
16.1257 23.3486 2.6500,
16.1897 21.3382 2.5000,
16.1897 21.3382 2.6500,
16.2169 23.3467 2.5000,
16.2169 23.3467 2.6500,
16.2519 9.2354 -0.5010,
16.2519 9.2354 -0.2000,
16.2519 13.1007 -0.5010,
16.2519 13.1007 -0.2000,
16.2824 23.3410 2.5000,
16.2824 23.3410 2.6500,
16.3223 23.3315 2.5000,
16.3223 23.3315 2.6500,
16.4063 23.2880 2.5000,
16.4063 23.2880 2.6500,
16.4672 23.2303 2.5000,
16.4672 23.2303 2.6500,
16.4829 22.8448 2.5000,
16.4829 22.8448 2.6500,
16.4994 22.9461 2.5000,
16.4994 22.9461 2.6500,
16.5048 23.1584 2.5000,
16.5048 23.1584 2.6500,
16.5091 23.1415 2.5000,
16.5091 23.1415 2.6500,
16.5093 23.0292 2.5000,
16.5093 23.0292 2.6500,
16.5117 23.1202 2.5000,
16.5117 23.1202 2.6500,
16.5126 23.0944 2.5000,
16.5126 23.0944 2.6500,
16.5859 21.0419 2.5000,
16.5859 21.0419 2.6500,
16.6420 21.3382 2.5000,
16.6420 21.3382 2.6500,
17.2882 22.2350 2.5000,
17.2882 22.2350 2.6500,
17.2915 22.3184 2.5000,
17.2915 22.3184 2.6500,
17.3013 22.4104 2.5000,
17.3013 22.4104 2.6500,
17.3178 22.5111 2.5000,
17.3178 22.5111 2.6500,
17.3471 13.1007 -0.5010,
17.3471 13.1007 -0.2000,
17.3471 13.8094 -0.5010,
17.3471 13.8094 -0.2000,
17.3628 21.9032 2.5000,
17.3628 21.9032 2.6500,
17.3914 22.7696 2.5000,
17.3914 22.7696 2.6500,
17.5042 22.9856 2.5000,
17.5042 22.9856 2.6500,
17.5869 21.7041 2.5000,
17.5869 21.7041 2.6500,
17.6562 23.1591 2.5000,
17.6562 23.1591 2.6500,
17.7451 22.2413 2.5000,
17.7451 22.2413 2.6500,
17.7522 22.3656 2.5000,
17.7522 22.3656 2.6500,
17.7523 22.1457 2.5000,
17.7523 22.1457 2.6500,
17.7732 22.5016 2.5000,
17.7732 22.5016 2.6500,
17.7736 22.0690 2.5000,
17.7736 22.0690 2.6500,
17.8083 22.6491 2.5000,
17.8083 22.6491 2.6500,
17.8091 22.0112 2.5000,
17.8091 22.0112 2.6500,
17.8432 23.2861 2.5000,
17.8432 23.2861 2.6500,
17.8554 22.7885 2.5000,
17.8554 22.7885 2.6500,
17.8600 21.9709 2.5000,
17.8600 21.9709 2.6500,
17.9123 22.9001 2.5000,
17.9123 22.9001 2.6500,
17.9276 21.9467 2.5000,
17.9276 21.9467 2.6500,
17.9604 21.6377 2.5000,
17.9604 21.6377 2.6500,
17.9791 22.9837 2.5000,
17.9791 22.9837 2.6500,
18.0118 21.9387 2.5000,
18.0118 21.9387 2.6500,
18.0578 23.0417 2.5000,
18.0578 23.0417 2.6500,
18.0611 23.3622 2.5000,
18.0611 23.3622 2.6500,
18.1163 21.9500 2.5000,
18.1163 21.9500 2.6500,
18.1503 23.0765 2.5000,
18.1503 23.0765 2.6500,
18.1588 21.6535 2.5000,
18.1588 21.6535 2.6500,
18.2073 21.9841 2.5000,
18.2073 21.9841 2.6500,
18.2567 23.0882 2.5000,
18.2567 23.0882 2.6500,
18.2848 22.0408 2.5000,
18.2848 22.0408 2.6500,
18.3097 23.3876 2.5000,
18.3097 23.3876 2.6500,
18.3382 21.7011 2.5000,
18.3382 21.7011 2.6500,
18.3506 22.1224 2.5000,
18.3506 22.1224 2.6500,
18.4006 23.0525 2.5000,
18.4006 23.0525 2.6500,
18.4068 22.2308 2.5000,
18.4068 22.2308 2.6500,
18.4532 22.3660 2.5000,
18.4532 22.3660 2.6500,
18.4869 22.9454 2.5000,
18.4869 22.9454 2.6500,
18.4879 22.5097 2.5000,
18.4879 22.5097 2.6500,
18.4985 21.7804 2.5000,
18.4985 21.7804 2.6500,
18.5087 22.6433 2.5000,
18.5087 22.6433 2.6500,
18.5088 23.3696 2.5000,
18.5088 23.3696 2.6500,
18.5156 22.7669 2.5000,
18.5156 22.7669 2.6500,
18.6379 21.8902 2.5000,
18.6379 21.8902 2.6500,
18.6733 23.3155 2.5000,
18.6733 23.3155 2.6500,
18.7546 22.0292 2.5000,
18.7546 22.0292 2.6500,
18.8034 23.2254 2.5000,
18.8034 23.2254 2.6500,
18.8486 22.1976 2.5000,
18.8486 22.1976 2.6500,
18.8974 23.1015 2.5000,
18.8974 23.1015 2.6500,
18.9175 22.3820 2.5000,
18.9175 22.3820 2.6500,
18.9538 22.9461 2.5000,
18.9538 22.9461 2.6500,
18.9588 22.5691 2.5000,
18.9588 22.5691 2.6500,
18.9726 22.7591 2.5000,
18.9726 22.7591 2.6500,
19.0495 21.7562 2.5000,
19.0495 21.7562 2.6500,
19.0572 21.8665 2.5000,
19.0572 21.8665 2.6500,
19.0695 21.6042 2.5000,
19.0695 21.6042 2.6500,
19.0803 21.9770 2.5000,
19.0803 21.9770 2.6500,
19.1189 22.0876 2.5000,
19.1189 22.0876 2.6500,
19.1295 21.4789 2.5000,
19.1295 21.4789 2.6500,
19.1710 22.1928 2.5000,
19.1710 22.1928 2.6500,
19.2296 21.3803 2.5000,
19.2296 21.3803 2.6500,
19.2350 22.2869 2.5000,
19.2350 22.2869 2.6500,
19.3107 22.3699 2.5000,
19.3107 22.3699 2.6500,
19.3683 21.3093 2.5000,
19.3683 21.3093 2.6500,
19.3982 22.4416 2.5000,
19.3982 22.4416 2.6500,
19.4975 22.5017 2.5000,
19.4975 22.5017 2.6500,
19.5220 21.8389 2.5000,
19.5220 21.8389 2.6500,
19.5231 21.8657 2.5000,
19.5231 21.8657 2.6500,
19.5262 21.8943 2.5000,
19.5262 21.8943 2.6500,
19.5314 21.9246 2.5000,
19.5314 21.9246 2.6500,
19.5320 21.7645 2.5000,
19.5320 21.7645 2.6500,
19.5443 21.2666 2.5000,
19.5443 21.2666 2.6500,
19.5619 21.7058 2.5000,
19.5619 21.7058 2.6500,
19.6086 22.5501 2.5000,
19.6086 22.5501 2.6500,
19.6109 22.1109 2.5000,
19.6109 22.1109 2.6500,
19.6117 21.6626 2.5000,
19.6117 21.6626 2.6500,
19.6811 21.6332 2.5000,
19.6811 21.6332 2.6500,
19.7304 22.5856 2.5000,
19.7304 22.5856 2.6500,
19.7576 21.2524 2.5000,
19.7576 21.2524 2.6500,
19.7643 22.2227 2.5000,
19.7643 22.2227 2.6500,
19.7698 21.6155 2.5000,
19.7698 21.6155 2.6500,
19.8616 22.6069 2.5000,
19.8616 22.6069 2.6500,
19.8776 21.6096 2.5000,
19.8776 21.6096 2.6500,
19.9915 22.2600 2.5000,
19.9915 22.2600 2.6500,
20.0024 22.6140 2.5000,
20.0024 22.6140 2.6500,
20.1147 21.6096 2.5000,
20.1147 21.6096 2.6500,
20.2411 22.2600 2.5000,
20.2411 22.2600 2.6500,
20.3097 22.6140 2.5000,
20.3097 22.6140 2.6500,
20.4547 23.3564 2.5000,
20.4547 23.3564 2.6500,
20.5062 21.2524 2.5000,
20.5062 21.2524 2.6500,
20.9148 23.3564 2.5000,
20.9148 23.3564 2.6500,
21.4750 22.9500 0.6000,
21.4750 22.9500 1.6000,
21.4750 25.8975 1.2000,
21.4750 25.8975 1.6000,
21.4750 27.9000 0.6000,
21.4750 27.9000 1.2000,
25.2500 -1.0000 -2.5000,
25.2500 -1.0000 -0.2000,
25.2500 27.0000 -2.5000,
25.2500 27.0000 -0.2000,
25.2644 -1.1463 -2.5000,
25.2644 -1.1463 -0.2000,
25.2644 -0.8537 -2.5000,
25.2644 -0.8537 -0.2000,
25.2644 26.8537 -2.5000,
25.2644 26.8537 -0.2000,
25.2644 27.1463 -2.5000,
25.2644 27.1463 -0.2000,
25.3071 -1.2870 -2.5000,
25.3071 -1.2870 -0.2000,
25.3071 -0.7130 -2.5000,
25.3071 -0.7130 -0.2000,
25.3071 26.7130 -2.5000,
25.3071 26.7130 -0.2000,
25.3071 27.2870 -2.5000,
25.3071 27.2870 -0.2000,
25.3764 -1.4167 -2.5000,
25.3764 -1.4167 -0.2000,
25.3764 -0.5833 -2.5000,
25.3764 -0.5833 -0.2000,
25.3764 26.5833 -2.5000,
25.3764 26.5833 -0.2000,
25.3764 27.4167 -2.5000,
25.3764 27.4167 -0.2000,
25.4697 -1.5303 -2.5000,
25.4697 -1.5303 -0.2000,
25.4697 -0.4697 -2.5000,
25.4697 -0.4697 -0.2000,
25.4697 26.4697 -2.5000,
25.4697 26.4697 -0.2000,
25.4697 27.5303 -2.5000,
25.4697 27.5303 -0.2000,
25.5833 -1.6236 -2.5000,
25.5833 -1.6236 -0.2000,
25.5833 -0.3764 -2.5000,
25.5833 -0.3764 -0.2000,
25.5833 26.3764 -2.5000,
25.5833 26.3764 -0.2000,
25.5833 27.6236 -2.5000,
25.5833 27.6236 -0.2000,
25.7130 -1.6929 -2.5000,
25.7130 -1.6929 -0.2000,
25.7130 -0.3071 -2.5000,
25.7130 -0.3071 -0.2000,
25.7130 26.3071 -2.5000,
25.7130 26.3071 -0.2000,
25.7130 27.6929 -2.5000,
25.7130 27.6929 -0.2000,
25.7785 0.0025 1.2000,
25.7785 0.0025 2.5000,
25.7785 25.8975 1.2000,
25.7785 25.8975 2.5000,
25.8537 -1.7356 -2.5000,
25.8537 -1.7356 -0.2000,
25.8537 -0.2644 -2.5000,
25.8537 -0.2644 -0.2000,
25.8537 26.2644 -2.5000,
25.8537 26.2644 -0.2000,
25.8537 27.7356 -2.5000,
25.8537 27.7356 -0.2000,
25.9342 0.0221 1.2000,
25.9342 0.0221 2.5000,
25.9342 25.8779 1.2000,
25.9342 25.8779 2.5000,
25.9500 1.0000 -0.2000,
25.9500 1.0000 1.0000,
25.9500 3.0000 -0.2000,
25.9500 3.0000 1.0000,
26.0000 -1.7500 -2.5000,
26.0000 -1.7500 -0.2000,
26.0000 -0.2500 -2.5000,
26.0000 -0.2500 -0.2000,
26.0000 26.2500 -2.5000,
26.0000 26.2500 -0.2000,
26.0000 27.7500 -2.5000,
26.0000 27.7500 -0.2000,
26.0863 0.0612 1.2000,
26.0863 0.0612 2.5000,
26.0863 25.8388 1.2000,
26.0863 25.8388 2.5000,
26.1463 -1.7356 -2.5000,
26.1463 -1.7356 -0.2000,
26.1463 -0.2644 -2.5000,
26.1463 -0.2644 -0.2000,
26.1463 26.2644 -2.5000,
26.1463 26.2644 -0.2000,
26.1463 27.7356 -2.5000,
26.1463 27.7356 -0.2000,
26.2322 0.1190 1.2000,
26.2322 0.1190 2.5000,
26.2322 25.7810 1.2000,
26.2322 25.7810 2.5000,
26.2870 -1.6929 -2.5000,
26.2870 -1.6929 -0.2000,
26.2870 -0.3071 -2.5000,
26.2870 -0.3071 -0.2000,
26.2870 26.3071 -2.5000,
26.2870 26.3071 -0.2000,
26.2870 27.6929 -2.5000,
26.2870 27.6929 -0.2000,
26.3698 0.1946 1.2000,
26.3698 0.1946 2.5000,
26.3698 25.7054 1.2000,
26.3698 25.7054 2.5000,
26.4167 -1.6236 -2.5000,
26.4167 -1.6236 -0.2000,
26.4167 -0.3764 -2.5000,
26.4167 -0.3764 -0.2000,
26.4167 26.3764 -2.5000,
26.4167 26.3764 -0.2000,
26.4167 27.6236 -2.5000,
26.4167 27.6236 -0.2000,
26.4968 0.2869 1.2000,
26.4968 0.2869 2.5000,
26.4968 25.6131 1.2000,
26.4968 25.6131 2.5000,
26.5303 -1.5303 -2.5000,
26.5303 -1.5303 -0.2000,
26.5303 -0.4697 -2.5000,
26.5303 -0.4697 -0.2000,
26.5303 26.4697 -2.5000,
26.5303 26.4697 -0.2000,
26.5303 27.5303 -2.5000,
26.5303 27.5303 -0.2000,
26.6112 0.3943 1.2000,
26.6112 0.3943 2.5000,
26.6112 25.5057 1.2000,
26.6112 25.5057 2.5000,
26.6236 -1.4167 -2.5000,
26.6236 -1.4167 -0.2000,
26.6236 -0.5833 -2.5000,
26.6236 -0.5833 -0.2000,
26.6236 26.5833 -2.5000,
26.6236 26.5833 -0.2000,
26.6236 27.4167 -2.5000,
26.6236 27.4167 -0.2000,
26.6929 -1.2870 -2.5000,
26.6929 -1.2870 -0.2000,
26.6929 -0.7130 -2.5000,
26.6929 -0.7130 -0.2000,
26.6929 26.7130 -2.5000,
26.6929 26.7130 -0.2000,
26.6929 27.2870 -2.5000,
26.6929 27.2870 -0.2000,
26.7113 0.5153 1.2000,
26.7113 0.5153 2.5000,
26.7113 25.3847 1.2000,
26.7113 25.3847 2.5000,
26.7356 -1.1463 -2.5000,
26.7356 -1.1463 -0.2000,
26.7356 -0.8537 -2.5000,
26.7356 -0.8537 -0.2000,
26.7356 26.8537 -2.5000,
26.7356 26.8537 -0.2000,
26.7356 27.1463 -2.5000,
26.7356 27.1463 -0.2000,
26.7500 -1.0000 -2.5000,
26.7500 -1.0000 -0.2000,
26.7500 27.0000 -2.5000,
26.7500 27.0000 -0.2000,
26.7954 0.6478 1.2000,
26.7954 0.6478 2.5000,
26.7954 25.2522 1.2000,
26.7954 25.2522 2.5000,
26.8622 0.7898 1.2000,
26.8622 0.7898 2.5000,
26.8622 25.1102 1.2000,
26.8622 25.1102 2.5000,
26.9107 0.9391 1.2000,
26.9107 0.9391 2.5000,
26.9107 24.9609 1.2000,
26.9107 24.9609 2.5000,
26.9401 1.0933 1.2000,
26.9401 1.0933 2.5000,
26.9401 24.8067 1.2000,
26.9401 24.8067 2.5000,
26.9500 -2.0000 -0.2000,
26.9500 -2.0000 1.2000,
26.9500 1.2500 1.2000,
26.9500 1.2500 2.5000,
26.9500 3.8000 0.6000,
26.9500 3.8000 2.1000,
26.9500 4.1500 2.1000,
26.9500 4.1500 2.5000,
26.9500 18.7000 1.9500,
26.9500 18.7000 2.5000,
26.9500 22.9500 0.6000,
26.9500 22.9500 1.9500,
26.9500 24.6500 1.2000,
26.9500 24.6500 2.5000,
26.9500 27.9000 -0.2000,
26.9500 27.9000 1.2000
]
}
coordIndex [
28,25,24,-1,
25,28,29,-1,
56,69,57,-1,
69,56,68,-1,
80,101,81,-1,
101,80,100,-1,
140,1087,141,-1,
1087,140,1086,-1,
16,3,2,-1,
3,16,17,-1,
68,81,69,-1,
81,68,80,-1,
32,29,28,-1,
29,32,33,-1,
1163,1182,1183,-1,
1182,1163,1162,-1,
1205,1200,1201,-1,
1200,1205,1204,-1,
1128,1117,1129,-1,
1117,1128,1116,-1,
1098,1115,1099,-1,
1115,1098,1114,-1,
1138,1151,1139,-1,
1151,1138,1150,-1,
82,71,83,-1,
71,82,70,-1,
1199,1202,1203,-1,
1202,1199,1198,-1,
112,129,113,-1,
129,112,128,-1,
12,19,18,-1,
19,12,13,-1,
1203,1206,1207,-1,
1206,1203,1202,-1,
56,33,32,-1,
33,56,57,-1,
14,12,15,-1,
11,12,10,-1,
14,10,12,-1,
14,4,10,-1,
4,2,5,-1,
0,4,14,-1,
0,2,4,-1,
2,0,1,-1,
12,11,13,-1,
9,11,8,-1,
11,9,13,-1,
5,7,6,-1,
3,5,2,-1,
5,3,7,-1,
18,23,22,-1,
23,18,19,-1,
114,103,115,-1,
103,114,102,-1,
1221,1219,1220,-1,
1216,1219,1217,-1,
1217,1219,1221,-1,
1227,1225,1226,-1,
1223,1225,1227,-1,
1225,1223,1222,-1,
1226,1228,1229,-1,
1224,1226,1225,-1,
1224,1228,1226,-1,
1218,1228,1224,-1,
1219,1216,1218,-1,
1214,1216,1215,-1,
1218,1214,1228,-1,
1216,1214,1218,-1,
1211,1216,1217,-1,
1216,1211,1210,-1,
22,27,26,-1,
27,22,23,-1,
1100,1089,1101,-1,
1089,1100,1088,-1,
1185,1164,1165,-1,
1164,1185,1184,-1,
130,115,131,-1,
115,130,114,-1,
142,131,143,-1,
131,142,130,-1,
1089,1031,143,-1,
1088,1031,1089,-1,
1031,1088,1030,-1,
199,143,1031,-1,
142,199,198,-1,
199,142,143,-1,
1164,1153,1165,-1,
1153,1164,1152,-1,
1201,1184,1185,-1,
1184,1201,1200,-1,
26,31,30,-1,
31,26,27,-1,
24,21,20,-1,
21,24,25,-1,
70,59,71,-1,
59,70,58,-1,
128,141,129,-1,
141,128,140,-1,
1140,1129,1141,-1,
1129,1140,1128,-1,
1227,1212,1213,-1,
1212,1227,1226,-1,
100,113,101,-1,
113,100,112,-1,
102,83,103,-1,
83,102,82,-1,
1183,1198,1199,-1,
1198,1183,1182,-1,
1086,1099,1087,-1,
1099,1086,1098,-1,
1207,1210,1211,-1,
1210,1207,1206,-1,
1209,1204,1205,-1,
1204,1209,1208,-1,
1116,1101,1117,-1,
1101,1116,1100,-1,
1152,1141,1153,-1,
1141,1152,1140,-1,
34,59,58,-1,
59,34,35,-1,
1114,1127,1115,-1,
1127,1114,1126,-1,
30,35,34,-1,
35,30,31,-1,
1150,1163,1151,-1,
1163,1150,1162,-1,
20,17,16,-1,
17,20,21,-1,
1126,1139,1127,-1,
1139,1126,1138,-1,
1213,1208,1209,-1,
1208,1213,1212,-1,
262,282,264,-1,
260,282,262,-1,
282,260,272,-1,
258,272,260,-1,
256,272,258,-1,
252,272,256,-1,
272,252,254,-1,
254,252,248,-1,
436,448,446,-1,
448,436,438,-1,
428,438,436,-1,
418,438,428,-1,
410,438,418,-1,
498,522,500,-1,
496,522,498,-1,
496,494,522,-1,
494,496,484,-1,
590,620,596,-1,
620,590,582,-1,
620,582,576,-1,
620,576,566,-1,
620,566,562,-1,
620,562,560,-1,
620,560,598,-1,
648,626,640,-1,
634,614,620,-1,
610,620,614,-1,
604,620,610,-1,
596,620,604,-1,
620,598,632,-1,
598,594,632,-1,
594,598,554,-1,
732,778,736,-1,
738,748,746,-1,
748,738,736,-1,
778,732,776,-1,
776,732,730,-1,
776,730,724,-1,
776,724,750,-1,
666,664,684,-1,
664,666,658,-1,
784,798,800,-1,
786,800,794,-1,
784,800,786,-1,
788,794,790,-1,
786,794,788,-1,
782,798,784,-1,
798,782,796,-1,
796,782,792,-1,
776,792,782,-1,
792,776,750,-1,
1089,1022,1026,-1,
1022,1014,1020,-1,
1022,1008,1014,-1,
1022,1000,1008,-1,
942,1000,1022,-1,
946,1000,942,-1,
992,946,976,-1,
950,976,946,-1,
964,940,960,-1,
940,964,944,-1,
968,944,964,-1,
944,968,948,-1,
970,948,968,-1,
974,948,970,-1,
976,950,974,-1,
928,1022,1089,-1,
948,974,950,-1,
1000,946,992,-1,
1022,938,942,-1,
1022,934,938,-1,
1022,928,934,-1,
1089,908,928,-1,
774,908,1089,-1,
822,840,842,-1,
822,842,844,-1,
822,844,846,-1,
822,846,854,-1,
834,854,856,-1,
854,834,830,-1,
826,856,860,-1,
818,860,876,-1,
774,876,894,-1,
908,774,894,-1,
856,832,834,-1,
856,828,832,-1,
856,826,828,-1,
860,820,826,-1,
860,818,820,-1,
876,774,816,-1,
876,816,818,-1,
816,774,814,-1,
814,774,808,-1,
808,774,804,-1,
804,774,802,-1,
772,778,774,-1,
802,774,778,-1,
1089,768,774,-1,
1089,760,768,-1,
1089,752,760,-1,
606,752,1089,-1,
696,666,684,-1,
718,666,696,-1,
722,666,718,-1,
618,722,734,-1,
722,618,666,-1,
634,654,656,-1,
654,634,644,-1,
666,618,656,-1,
618,734,740,-1,
656,618,634,-1,
614,634,618,-1,
612,752,606,-1,
740,612,618,-1,
752,612,740,-1,
143,606,1089,-1,
606,143,600,-1,
534,500,522,-1,
552,500,534,-1,
556,500,552,-1,
422,556,568,-1,
556,492,500,-1,
480,476,478,-1,
474,480,482,-1,
474,482,486,-1,
480,474,476,-1,
468,486,488,-1,
468,488,490,-1,
454,490,492,-1,
486,468,474,-1,
490,454,468,-1,
556,434,492,-1,
492,444,454,-1,
143,568,586,-1,
492,434,444,-1,
556,422,434,-1,
568,414,422,-1,
348,362,352,-1,
366,352,362,-1,
352,366,354,-1,
368,354,366,-1,
350,368,372,-1,
350,372,376,-1,
346,376,378,-1,
340,378,382,-1,
336,382,394,-1,
368,350,354,-1,
336,394,404,-1,
376,346,350,-1,
330,404,414,-1,
378,340,346,-1,
568,324,414,-1,
382,336,340,-1,
404,330,336,-1,
414,324,330,-1,
568,143,324,-1,
264,282,266,-1,
290,266,282,-1,
302,266,290,-1,
308,266,302,-1,
324,143,308,-1,
308,143,266,-1,
143,208,210,-1,
208,143,206,-1,
206,143,204,-1,
204,143,13,-1,
266,143,210,-1,
600,143,586,-1,
1089,1227,1213,-1,
1089,1213,1209,-1,
1089,1209,1205,-1,
1089,1205,1201,-1,
1089,1201,1185,-1,
1089,1185,1165,-1,
1089,1165,1153,-1,
1089,1153,1141,-1,
1089,1141,1129,-1,
1089,1129,1117,-1,
1089,1117,1101,-1,
1227,1089,1026,-1,
1227,1026,1223,-1,
1024,1223,1026,-1,
1002,1223,1024,-1,
836,1002,988,-1,
836,988,972,-1,
960,940,958,-1,
936,958,940,-1,
958,936,954,-1,
932,954,936,-1,
954,932,952,-1,
952,932,956,-1,
924,956,932,-1,
956,924,962,-1,
910,962,924,-1,
962,910,966,-1,
900,966,910,-1,
886,966,900,-1,
836,966,886,-1,
966,836,972,-1,
836,886,858,-1,
838,852,840,-1,
838,858,852,-1,
836,858,838,-1,
1002,836,1223,-1,
780,1223,836,-1,
762,778,772,-1,
756,778,762,-1,
736,756,748,-1,
756,736,778,-1,
792,750,780,-1,
720,780,750,-1,
678,714,712,-1,
678,706,704,-1,
686,690,688,-1,
686,692,690,-1,
686,694,692,-1,
678,694,686,-1,
694,678,698,-1,
698,678,702,-1,
702,678,704,-1,
706,678,708,-1,
708,678,710,-1,
710,678,712,-1,
714,678,720,-1,
668,720,678,-1,
658,720,668,-1,
658,668,664,-1,
720,658,780,-1,
640,780,658,-1,
484,780,640,-1,
484,640,626,-1,
484,626,594,-1,
520,550,548,-1,
520,542,540,-1,
524,528,526,-1,
524,530,528,-1,
524,532,530,-1,
520,532,524,-1,
532,520,536,-1,
536,520,538,-1,
538,520,540,-1,
542,520,544,-1,
544,520,546,-1,
546,520,548,-1,
550,520,554,-1,
502,554,520,-1,
502,594,554,-1,
484,502,494,-1,
502,484,594,-1,
780,484,9,-1,
9,484,426,-1,
438,410,426,-1,
402,426,410,-1,
386,426,402,-1,
380,426,386,-1,
374,426,380,-1,
328,374,370,-1,
362,348,358,-1,
344,358,348,-1,
358,344,356,-1,
342,356,344,-1,
356,342,360,-1,
338,360,342,-1,
334,360,338,-1,
360,334,364,-1,
332,364,334,-1,
364,332,370,-1,
328,370,332,-1,
374,328,316,-1,
306,374,316,-1,
374,306,426,-1,
212,306,296,-1,
212,296,286,-1,
212,286,276,-1,
212,276,250,-1,
216,220,218,-1,
214,220,216,-1,
214,222,220,-1,
214,238,222,-1,
214,250,238,-1,
212,250,214,-1,
306,212,426,-1,
9,426,212,-1,
9,212,202,-1,
13,143,131,-1,
13,131,115,-1,
13,115,103,-1,
13,103,83,-1,
13,83,71,-1,
13,71,59,-1,
13,59,35,-1,
13,35,31,-1,
13,31,27,-1,
13,27,23,-1,
13,23,19,-1,
204,13,202,-1,
780,9,1223,-1,
9,202,13,-1,
854,830,824,-1,
854,824,822,-1,
840,822,838,-1,
838,822,806,-1,
1087,1217,1221,-1,
1217,1087,1211,-1,
1211,1087,1207,-1,
1207,1087,1203,-1,
1203,1087,1199,-1,
1199,1087,1183,-1,
1183,1087,1163,-1,
1163,1087,1151,-1,
1151,1087,1139,-1,
1139,1087,1127,-1,
1127,1087,1115,-1,
1115,1087,1099,-1,
1221,141,1087,-1,
7,141,1221,-1,
3,141,7,-1,
141,3,129,-1,
129,3,113,-1,
113,3,101,-1,
101,3,81,-1,
81,3,69,-1,
69,3,57,-1,
57,3,33,-1,
33,3,29,-1,
25,3,21,-1,
29,3,25,-1,
21,3,17,-1,
280,326,320,-1,
270,326,274,-1,
246,322,270,-1,
298,320,312,-1,
242,322,246,-1,
236,318,242,-1,
318,236,314,-1,
320,298,292,-1,
232,314,236,-1,
320,292,288,-1,
320,288,280,-1,
314,232,310,-1,
326,280,274,-1,
230,310,232,-1,
326,270,322,-1,
322,242,318,-1,
226,310,230,-1,
310,226,304,-1,
224,304,226,-1,
304,224,300,-1,
228,300,224,-1,
300,228,294,-1,
294,228,284,-1,
234,284,228,-1,
284,234,278,-1,
240,278,234,-1,
278,240,268,-1,
268,240,244,-1,
406,472,466,-1,
472,406,470,-1,
400,470,406,-1,
416,466,460,-1,
424,460,458,-1,
470,400,464,-1,
432,458,452,-1,
396,464,400,-1,
432,452,442,-1,
392,462,396,-1,
458,432,424,-1,
462,392,456,-1,
460,424,416,-1,
388,456,392,-1,
466,416,408,-1,
456,388,450,-1,
466,408,406,-1,
464,396,462,-1,
384,450,388,-1,
450,384,440,-1,
440,384,430,-1,
390,430,384,-1,
430,390,420,-1,
420,390,412,-1,
412,390,398,-1,
882,926,930,-1,
904,930,920,-1,
926,882,878,-1,
872,922,878,-1,
904,920,914,-1,
922,872,918,-1,
868,918,872,-1,
930,904,898,-1,
918,868,916,-1,
930,898,892,-1,
864,916,868,-1,
930,892,888,-1,
916,864,912,-1,
930,888,882,-1,
862,906,864,-1,
926,878,922,-1,
906,862,902,-1,
912,864,906,-1,
902,862,896,-1,
896,862,890,-1,
866,890,862,-1,
890,866,884,-1,
870,884,866,-1,
884,870,880,-1,
880,870,874,-1,
1012,1016,1018,-1,
1012,1010,1016,-1,
1004,1010,1012,-1,
994,1010,1004,-1,
1010,994,1006,-1,
984,1006,994,-1,
982,1006,984,-1,
1006,982,998,-1,
980,998,982,-1,
978,998,980,-1,
998,978,996,-1,
986,996,978,-1,
996,986,990,-1,
201,142,198,-1,
15,142,201,-1,
142,15,130,-1,
130,15,114,-1,
114,15,102,-1,
15,82,102,-1,
15,70,82,-1,
15,58,70,-1,
15,34,58,-1,
15,30,34,-1,
15,26,30,-1,
15,22,26,-1,
15,18,22,-1,
18,15,12,-1,
1229,1212,1226,-1,
1229,1208,1212,-1,
1229,1204,1208,-1,
1229,1200,1204,-1,
1229,1184,1200,-1,
1229,1164,1184,-1,
1229,1152,1164,-1,
1229,1140,1152,-1,
1229,1128,1140,-1,
1229,1116,1128,-1,
1229,1100,1116,-1,
1229,1088,1100,-1,
1033,1088,1229,-1,
1088,1033,1030,-1,
1210,1215,1216,-1,
1206,1215,1210,-1,
1202,1215,1206,-1,
1198,1215,1202,-1,
1182,1215,1198,-1,
1162,1215,1182,-1,
1150,1215,1162,-1,
1138,1215,1150,-1,
1126,1215,1138,-1,
1114,1215,1126,-1,
1098,1215,1114,-1,
1086,1215,1098,-1,
140,1215,1086,-1,
140,1,1215,-1,
128,1,140,-1,
112,1,128,-1,
100,1,112,-1,
80,1,100,-1,
68,1,80,-1,
56,1,68,-1,
32,1,56,-1,
28,1,32,-1,
24,1,28,-1,
20,1,24,-1,
16,1,20,-1,
1,16,2,-1,
513,517,515,-1,
755,767,765,-1,
743,767,755,-1,
727,767,743,-1,
701,767,727,-1,
681,767,701,-1,
681,675,767,-1,
663,675,673,-1,
673,675,681,-1,
1191,1228,1189,-1,
1228,1191,1197,-1,
1104,1189,1177,-1,
1189,1104,1191,-1,
1104,1177,1169,-1,
1191,1104,1179,-1,
1102,1169,1157,-1,
1179,1104,1171,-1,
1102,1157,1145,-1,
1171,1104,1159,-1,
1102,1145,1133,-1,
1159,1104,1147,-1,
1102,1133,1121,-1,
1147,1104,1135,-1,
1102,1121,1109,-1,
1135,1104,1123,-1,
1169,1102,1104,-1,
1093,1102,1109,-1,
1081,1102,1093,-1,
1073,1102,1081,-1,
1065,1102,1073,-1,
1057,1102,1065,-1,
1049,1102,1057,-1,
193,1041,1035,-1,
187,1041,193,-1,
1041,187,1049,-1,
179,1049,187,-1,
1049,179,1102,-1,
120,179,171,-1,
120,171,163,-1,
120,163,155,-1,
120,155,147,-1,
120,147,135,-1,
120,135,119,-1,
179,120,1102,-1,
107,120,119,-1,
95,120,107,-1,
87,120,95,-1,
122,109,125,-1,
75,120,87,-1,
122,97,109,-1,
63,120,75,-1,
122,89,97,-1,
120,63,122,-1,
122,77,89,-1,
51,122,63,-1,
122,65,77,-1,
43,122,51,-1,
122,53,65,-1,
14,122,43,-1,
122,45,53,-1,
0,43,37,-1,
122,14,45,-1,
1189,1214,1195,-1,
1214,1187,1195,-1,
1214,1175,1187,-1,
1214,1167,1175,-1,
1214,1155,1167,-1,
1214,1143,1155,-1,
1214,1131,1143,-1,
1214,1119,1131,-1,
1214,1107,1119,-1,
1214,1091,1107,-1,
1039,193,1035,-1,
185,1039,1047,-1,
177,1047,1055,-1,
169,1055,1063,-1,
161,1063,1071,-1,
153,1071,1079,-1,
145,1079,1091,-1,
133,1091,1214,-1,
1039,185,193,-1,
1047,177,185,-1,
1055,169,177,-1,
1063,161,169,-1,
1071,153,161,-1,
1079,145,153,-1,
1091,133,145,-1,
0,133,1214,-1,
43,0,14,-1,
41,0,37,-1,
49,0,41,-1,
61,0,49,-1,
73,0,61,-1,
85,0,73,-1,
93,0,85,-1,
105,0,93,-1,
117,0,105,-1,
133,0,117,-1,
1214,1189,1228,-1,
1193,1228,1197,-1,
1181,1228,1193,-1,
1173,1228,1181,-1,
1161,1228,1173,-1,
1149,1228,1161,-1,
1137,1228,1149,-1,
1125,1228,1137,-1,
1113,1228,1125,-1,
1097,1228,1113,-1,
1051,677,1043,-1,
189,1043,677,-1,
1043,189,1037,-1,
195,1037,189,-1,
1037,195,1045,-1,
191,1045,195,-1,
663,673,661,-1,
651,675,663,-1,
675,651,579,-1,
579,651,643,-1,
585,643,637,-1,
609,637,629,-1,
609,629,623,-1,
637,609,593,-1,
581,675,579,-1,
637,593,585,-1,
643,585,579,-1,
675,581,677,-1,
189,677,581,-1,
181,581,519,-1,
517,513,505,-1,
505,513,511,-1,
505,511,509,-1,
505,509,507,-1,
517,505,122,-1,
517,122,519,-1,
1045,191,1053,-1,
1053,183,1061,-1,
175,1061,183,-1,
1061,175,1069,-1,
167,1069,175,-1,
1069,167,1077,-1,
159,1077,167,-1,
1077,159,1085,-1,
151,1085,159,-1,
1085,151,1097,-1,
139,1097,151,-1,
1097,139,1228,-1,
14,139,127,-1,
139,14,1228,-1,
111,14,127,-1,
99,14,111,-1,
91,14,99,-1,
79,14,91,-1,
67,14,79,-1,
55,14,67,-1,
47,14,55,-1,
39,14,47,-1,
45,14,39,-1,
851,1123,1104,-1,
851,1104,849,-1,
1123,851,1111,-1,
1111,851,1095,-1,
1095,851,1083,-1,
1083,851,1075,-1,
1075,851,1067,-1,
1067,851,1059,-1,
1059,851,1051,-1,
677,1051,851,-1,
1104,811,849,-1,
1104,771,811,-1,
771,745,759,-1,
771,729,745,-1,
771,717,729,-1,
771,683,717,-1,
771,671,683,-1,
122,771,1104,-1,
671,661,673,-1,
631,771,122,-1,
671,653,661,-1,
771,653,671,-1,
647,771,639,-1,
653,771,647,-1,
771,631,639,-1,
559,631,122,-1,
571,575,589,-1,
575,571,573,-1,
565,589,603,-1,
559,603,617,-1,
589,565,571,-1,
625,559,617,-1,
603,559,565,-1,
631,559,625,-1,
183,1053,191,-1,
581,181,189,-1,
519,173,181,-1,
519,165,173,-1,
519,157,165,-1,
519,149,157,-1,
519,137,149,-1,
559,122,505,-1,
519,122,125,-1,
519,125,137,-1,
849,811,813,-1,
1229,1032,1033,-1,
1032,1228,200,-1,
1228,1032,1229,-1,
200,15,201,-1,
200,14,15,-1,
14,200,1228,-1,
0,1215,1,-1,
1215,0,1214,-1,
764,810,770,-1,
812,850,848,-1,
810,764,812,-1,
766,812,764,-1,
766,850,812,-1,
676,766,674,-1,
766,676,850,-1,
758,764,770,-1,
744,764,758,-1,
728,764,744,-1,
764,728,754,-1,
754,728,742,-1,
716,742,728,-1,
742,716,726,-1,
716,700,726,-1,
682,700,716,-1,
682,680,700,-1,
670,680,682,-1,
680,670,672,-1,
572,514,516,-1,
564,512,514,-1,
564,510,512,-1,
564,508,510,-1,
558,506,508,-1,
506,558,504,-1,
650,660,652,-1,
660,650,662,-1,
642,652,646,-1,
652,642,650,-1,
638,642,646,-1,
638,636,642,-1,
630,636,638,-1,
630,628,636,-1,
624,628,630,-1,
616,628,624,-1,
602,628,616,-1,
628,602,622,-1,
588,622,602,-1,
574,622,588,-1,
622,574,608,-1,
608,574,592,-1,
572,592,574,-1,
516,592,572,-1,
592,516,584,-1,
584,516,578,-1,
514,572,570,-1,
514,570,564,-1,
508,564,558,-1,
518,578,516,-1,
578,518,580,-1,
812,849,813,-1,
849,812,848,-1,
811,812,813,-1,
812,811,810,-1,
770,811,771,-1,
811,770,810,-1,
770,759,758,-1,
759,770,771,-1,
758,745,744,-1,
745,758,759,-1,
728,745,729,-1,
745,728,744,-1,
716,729,717,-1,
729,716,728,-1,
682,717,683,-1,
717,682,716,-1,
670,683,671,-1,
683,670,682,-1,
670,673,672,-1,
673,670,671,-1,
680,673,681,-1,
673,680,672,-1,
700,681,701,-1,
681,700,680,-1,
726,701,727,-1,
701,726,700,-1,
742,727,743,-1,
727,742,726,-1,
754,743,755,-1,
743,754,742,-1,
765,754,755,-1,
754,765,764,-1,
764,767,766,-1,
767,764,765,-1,
674,767,675,-1,
767,674,766,-1,
674,677,676,-1,
677,674,675,-1,
850,677,851,-1,
677,850,676,-1,
849,850,851,-1,
850,849,848,-1,
585,578,579,-1,
578,585,584,-1,
593,584,585,-1,
584,593,592,-1,
609,592,593,-1,
592,609,608,-1,
622,609,623,-1,
609,622,608,-1,
628,623,629,-1,
623,628,622,-1,
636,629,637,-1,
629,636,628,-1,
642,637,643,-1,
637,642,636,-1,
650,643,651,-1,
643,650,642,-1,
662,651,663,-1,
651,662,650,-1,
661,662,663,-1,
662,661,660,-1,
652,661,653,-1,
661,652,660,-1,
646,653,647,-1,
653,646,652,-1,
638,647,639,-1,
647,638,646,-1,
630,639,631,-1,
639,630,638,-1,
624,631,625,-1,
631,624,630,-1,
616,625,617,-1,
625,616,624,-1,
602,617,603,-1,
617,602,616,-1,
602,589,588,-1,
589,602,603,-1,
588,575,574,-1,
575,588,589,-1,
572,575,573,-1,
575,572,574,-1,
571,572,573,-1,
572,571,570,-1,
565,570,571,-1,
570,565,564,-1,
559,564,565,-1,
564,559,558,-1,
504,559,505,-1,
559,504,558,-1,
504,507,506,-1,
507,504,505,-1,
506,509,508,-1,
509,506,507,-1,
508,511,510,-1,
511,508,509,-1,
510,513,512,-1,
513,510,511,-1,
512,515,514,-1,
515,512,513,-1,
514,517,516,-1,
517,514,515,-1,
516,519,518,-1,
519,516,517,-1,
580,519,581,-1,
519,580,518,-1,
579,580,581,-1,
580,579,578,-1,
821,835,833,-1,
827,833,829,-1,
833,827,821,-1,
835,821,819,-1,
795,831,791,-1,
791,835,819,-1,
835,791,831,-1,
789,819,817,-1,
789,817,815,-1,
789,815,809,-1,
831,795,825,-1,
787,809,805,-1,
807,837,839,-1,
787,805,803,-1,
823,801,799,-1,
823,799,797,-1,
823,797,793,-1,
823,793,807,-1,
807,781,837,-1,
781,807,793,-1,
825,801,823,-1,
801,825,795,-1,
819,789,791,-1,
809,787,789,-1,
803,785,787,-1,
803,783,785,-1,
779,783,803,-1,
783,779,777,-1,
1015,1019,1021,-1,
1015,1013,1019,-1,
1009,1013,1015,-1,
1009,1005,1013,-1,
1001,1005,1009,-1,
993,1005,1001,-1,
977,1005,993,-1,
1005,977,995,-1,
975,995,977,-1,
965,995,969,-1,
969,995,971,-1,
971,995,975,-1,
1021,1027,1023,-1,
1019,1027,1021,-1,
1027,1019,1025,-1,
1017,1025,1019,-1,
1003,1017,1011,-1,
1003,1011,1007,-1,
1017,1003,1025,-1,
999,1003,1007,-1,
989,999,997,-1,
973,997,991,-1,
999,989,1003,-1,
963,991,987,-1,
953,987,979,-1,
995,965,985,-1,
961,985,965,-1,
959,985,961,-1,
985,959,983,-1,
983,959,981,-1,
955,981,959,-1,
981,955,979,-1,
953,979,955,-1,
997,973,989,-1,
987,953,957,-1,
991,967,973,-1,
987,957,963,-1,
991,963,967,-1,
211,265,267,-1,
265,211,263,-1,
263,211,261,-1,
261,211,259,-1,
209,259,211,-1,
259,209,257,-1,
205,247,249,-1,
253,209,249,-1,
205,249,207,-1,
247,205,243,-1,
245,221,223,-1,
205,225,227,-1,
229,219,221,-1,
205,227,231,-1,
205,231,233,-1,
237,205,233,-1,
225,205,217,-1,
229,217,219,-1,
203,217,205,-1,
257,209,253,-1,
249,209,207,-1,
243,205,237,-1,
217,203,215,-1,
215,203,213,-1,
327,355,351,-1,
355,327,353,-1,
321,351,347,-1,
323,353,327,-1,
353,323,349,-1,
321,347,341,-1,
319,349,323,-1,
321,341,337,-1,
349,319,345,-1,
345,315,343,-1,
313,337,331,-1,
315,345,319,-1,
311,343,315,-1,
313,331,325,-1,
351,321,327,-1,
337,313,321,-1,
309,313,325,-1,
299,309,303,-1,
309,299,313,-1,
291,299,303,-1,
299,291,293,-1,
283,293,291,-1,
293,283,289,-1,
273,289,283,-1,
289,273,281,-1,
255,281,273,-1,
281,255,275,-1,
249,275,255,-1,
275,249,271,-1,
271,249,247,-1,
343,311,339,-1,
339,311,335,-1,
305,335,311,-1,
335,305,333,-1,
301,333,305,-1,
333,301,329,-1,
329,301,317,-1,
295,317,301,-1,
317,295,307,-1,
307,295,297,-1,
285,297,295,-1,
297,285,287,-1,
279,287,285,-1,
279,277,287,-1,
251,279,269,-1,
279,251,277,-1,
223,269,245,-1,
221,245,241,-1,
269,239,251,-1,
221,241,235,-1,
221,235,229,-1,
269,223,239,-1,
217,229,225,-1,
441,449,451,-1,
449,441,447,-1,
431,447,441,-1,
447,431,437,-1,
421,437,431,-1,
437,421,429,-1,
421,419,429,-1,
413,419,421,-1,
413,411,419,-1,
413,403,411,-1,
399,403,413,-1,
375,399,391,-1,
399,387,403,-1,
361,391,385,-1,
369,397,373,-1,
363,393,367,-1,
367,397,369,-1,
397,367,393,-1,
393,363,389,-1,
359,389,363,-1,
389,359,385,-1,
357,385,359,-1,
361,385,357,-1,
391,361,365,-1,
391,365,371,-1,
399,381,387,-1,
391,371,375,-1,
399,375,381,-1,
453,475,469,-1,
475,467,473,-1,
475,461,467,-1,
475,459,461,-1,
443,469,455,-1,
475,453,459,-1,
443,455,445,-1,
469,443,453,-1,
433,445,435,-1,
445,433,443,-1,
423,433,435,-1,
433,423,425,-1,
415,425,423,-1,
425,415,417,-1,
405,417,415,-1,
395,417,405,-1,
417,395,409,-1,
383,409,395,-1,
409,383,407,-1,
379,407,383,-1,
377,407,379,-1,
407,377,401,-1,
373,401,377,-1,
401,373,397,-1,
493,499,501,-1,
491,499,493,-1,
489,499,491,-1,
487,499,489,-1,
483,499,487,-1,
499,483,497,-1,
481,497,483,-1,
497,481,479,-1,
473,497,479,-1,
473,479,477,-1,
473,477,475,-1,
497,473,471,-1,
497,471,465,-1,
463,497,465,-1,
457,497,463,-1,
449,497,457,-1,
449,457,451,-1,
497,449,485,-1,
439,485,449,-1,
485,439,427,-1,
931,951,947,-1,
927,951,931,-1,
921,947,943,-1,
951,927,949,-1,
921,943,939,-1,
923,949,927,-1,
921,939,935,-1,
949,923,945,-1,
919,945,923,-1,
915,935,929,-1,
947,921,931,-1,
935,915,921,-1,
909,915,929,-1,
909,905,915,-1,
895,905,909,-1,
905,895,899,-1,
895,893,899,-1,
877,893,895,-1,
893,877,889,-1,
861,889,877,-1,
889,861,883,-1,
857,883,861,-1,
883,857,879,-1,
879,857,873,-1,
873,855,869,-1,
855,873,857,-1,
945,919,941,-1,
917,941,919,-1,
941,917,937,-1,
913,937,917,-1,
937,913,933,-1,
933,913,925,-1,
907,925,913,-1,
925,907,911,-1,
903,911,907,-1,
897,911,903,-1,
911,897,901,-1,
891,901,897,-1,
891,887,901,-1,
885,887,891,-1,
881,887,885,-1,
859,881,875,-1,
859,875,871,-1,
847,869,855,-1,
881,859,887,-1,
853,871,867,-1,
869,847,865,-1,
845,865,847,-1,
843,865,845,-1,
865,843,863,-1,
841,863,843,-1,
863,841,867,-1,
853,867,841,-1,
871,853,859,-1,
635,621,633,-1,
645,649,655,-1,
633,645,635,-1,
633,649,645,-1,
633,627,649,-1,
627,633,595,-1,
655,667,657,-1,
649,667,655,-1,
667,649,659,-1,
659,649,641,-1,
769,773,775,-1,
769,763,773,-1,
761,763,769,-1,
761,757,763,-1,
753,757,761,-1,
753,749,757,-1,
741,749,753,-1,
749,741,747,-1,
735,747,741,-1,
747,735,739,-1,
723,739,735,-1,
739,723,737,-1,
719,737,723,-1,
737,719,733,-1,
697,733,719,-1,
715,751,725,-1,
733,697,731,-1,
731,697,725,-1,
751,715,721,-1,
725,707,715,-1,
709,715,707,-1,
715,711,713,-1,
711,715,709,-1,
725,705,707,-1,
725,703,705,-1,
725,699,703,-1,
685,725,697,-1,
725,695,699,-1,
725,693,695,-1,
725,691,693,-1,
725,689,691,-1,
725,685,689,-1,
689,685,687,-1,
685,679,687,-1,
665,679,685,-1,
679,665,669,-1,
613,615,619,-1,
613,611,615,-1,
607,611,613,-1,
607,605,611,-1,
601,605,607,-1,
601,597,605,-1,
587,597,601,-1,
597,587,591,-1,
569,591,587,-1,
591,569,583,-1,
557,583,569,-1,
583,557,577,-1,
553,577,557,-1,
577,553,567,-1,
535,567,553,-1,
551,599,561,-1,
567,535,563,-1,
563,535,561,-1,
599,551,555,-1,
561,543,551,-1,
545,551,543,-1,
551,547,549,-1,
547,551,545,-1,
561,541,543,-1,
561,539,541,-1,
561,537,539,-1,
523,561,535,-1,
561,533,537,-1,
561,531,533,-1,
561,529,531,-1,
561,527,529,-1,
561,523,527,-1,
527,523,525,-1,
523,521,525,-1,
495,521,523,-1,
521,495,503,-1,
776,783,777,-1,
783,776,782,-1,
782,785,783,-1,
785,782,784,-1,
784,787,785,-1,
787,784,786,-1,
788,787,786,-1,
787,788,789,-1,
790,789,788,-1,
789,790,791,-1,
794,791,790,-1,
791,794,795,-1,
800,795,794,-1,
795,800,801,-1,
798,801,800,-1,
801,798,799,-1,
796,799,798,-1,
799,796,797,-1,
792,797,796,-1,
797,792,793,-1,
780,793,792,-1,
793,780,781,-1,
780,837,781,-1,
837,780,836,-1,
837,838,839,-1,
838,837,836,-1,
838,807,839,-1,
807,838,806,-1,
807,822,823,-1,
822,807,806,-1,
823,824,825,-1,
824,823,822,-1,
825,830,831,-1,
830,825,824,-1,
831,834,835,-1,
834,831,830,-1,
835,832,833,-1,
832,835,834,-1,
833,828,829,-1,
828,833,832,-1,
829,826,827,-1,
826,829,828,-1,
827,820,821,-1,
820,827,826,-1,
820,819,821,-1,
819,820,818,-1,
818,817,819,-1,
817,818,816,-1,
816,815,817,-1,
815,816,814,-1,
814,809,815,-1,
809,814,808,-1,
808,805,809,-1,
805,808,804,-1,
804,803,805,-1,
803,804,802,-1,
802,779,803,-1,
779,802,778,-1,
776,779,778,-1,
779,776,777,-1,
308,303,309,-1,
303,308,302,-1,
302,291,303,-1,
291,302,290,-1,
290,283,291,-1,
283,290,282,-1,
282,273,283,-1,
273,282,272,-1,
254,273,272,-1,
273,254,255,-1,
254,249,255,-1,
249,254,248,-1,
249,252,253,-1,
252,249,248,-1,
253,256,257,-1,
256,253,252,-1,
257,258,259,-1,
258,257,256,-1,
259,260,261,-1,
260,259,258,-1,
261,262,263,-1,
262,261,260,-1,
263,264,265,-1,
264,263,262,-1,
265,266,267,-1,
266,265,264,-1,
266,211,267,-1,
211,266,210,-1,
208,211,210,-1,
211,208,209,-1,
206,209,208,-1,
209,206,207,-1,
204,207,206,-1,
207,204,205,-1,
202,205,204,-1,
205,202,203,-1,
202,213,203,-1,
213,202,212,-1,
213,214,215,-1,
214,213,212,-1,
215,216,217,-1,
216,215,214,-1,
216,219,217,-1,
219,216,218,-1,
220,219,218,-1,
219,220,221,-1,
222,221,220,-1,
221,222,223,-1,
222,239,223,-1,
239,222,238,-1,
238,251,239,-1,
251,238,250,-1,
250,277,251,-1,
277,250,276,-1,
276,287,277,-1,
287,276,286,-1,
286,297,287,-1,
297,286,296,-1,
296,307,297,-1,
307,296,306,-1,
306,317,307,-1,
317,306,316,-1,
316,329,317,-1,
329,316,328,-1,
328,333,329,-1,
333,328,332,-1,
333,334,335,-1,
334,333,332,-1,
335,338,339,-1,
338,335,334,-1,
339,342,343,-1,
342,339,338,-1,
343,344,345,-1,
344,343,342,-1,
345,348,349,-1,
348,345,344,-1,
349,352,353,-1,
352,349,348,-1,
353,354,355,-1,
354,353,352,-1,
355,350,351,-1,
350,355,354,-1,
351,346,347,-1,
346,351,350,-1,
347,340,341,-1,
340,347,346,-1,
340,337,341,-1,
337,340,336,-1,
336,331,337,-1,
331,336,330,-1,
330,325,331,-1,
325,330,324,-1,
324,309,325,-1,
309,324,308,-1,
320,313,312,-1,
313,320,321,-1,
326,321,320,-1,
321,326,327,-1,
322,327,326,-1,
327,322,323,-1,
318,323,322,-1,
323,318,319,-1,
314,319,318,-1,
319,314,315,-1,
310,315,314,-1,
315,310,311,-1,
304,311,310,-1,
311,304,305,-1,
300,305,304,-1,
305,300,301,-1,
300,295,301,-1,
295,300,294,-1,
294,285,295,-1,
285,294,284,-1,
284,279,285,-1,
279,284,278,-1,
278,269,279,-1,
269,278,268,-1,
268,245,269,-1,
245,268,244,-1,
244,241,245,-1,
241,244,240,-1,
241,234,235,-1,
234,241,240,-1,
235,228,229,-1,
228,235,234,-1,
229,224,225,-1,
224,229,228,-1,
225,226,227,-1,
226,225,224,-1,
227,230,231,-1,
230,227,226,-1,
231,232,233,-1,
232,231,230,-1,
233,236,237,-1,
236,233,232,-1,
237,242,243,-1,
242,237,236,-1,
243,246,247,-1,
246,243,242,-1,
247,270,271,-1,
270,247,246,-1,
271,274,275,-1,
274,271,270,-1,
274,281,275,-1,
281,274,280,-1,
280,289,281,-1,
289,280,288,-1,
288,293,289,-1,
293,288,292,-1,
292,299,293,-1,
299,292,298,-1,
298,313,299,-1,
313,298,312,-1,
414,405,415,-1,
405,414,404,-1,
404,395,405,-1,
395,404,394,-1,
394,383,395,-1,
383,394,382,-1,
378,383,382,-1,
383,378,379,-1,
376,379,378,-1,
379,376,377,-1,
372,377,376,-1,
377,372,373,-1,
368,373,372,-1,
373,368,369,-1,
366,369,368,-1,
369,366,367,-1,
362,367,366,-1,
367,362,363,-1,
358,363,362,-1,
363,358,359,-1,
356,359,358,-1,
359,356,357,-1,
360,357,356,-1,
357,360,361,-1,
364,361,360,-1,
361,364,365,-1,
370,365,364,-1,
365,370,371,-1,
370,375,371,-1,
375,370,374,-1,
374,381,375,-1,
381,374,380,-1,
380,387,381,-1,
387,380,386,-1,
386,403,387,-1,
403,386,402,-1,
402,411,403,-1,
411,402,410,-1,
410,419,411,-1,
419,410,418,-1,
418,429,419,-1,
429,418,428,-1,
428,437,429,-1,
437,428,436,-1,
437,446,447,-1,
446,437,436,-1,
446,449,447,-1,
449,446,448,-1,
438,449,448,-1,
449,438,439,-1,
426,439,438,-1,
439,426,427,-1,
426,485,427,-1,
485,426,484,-1,
485,496,497,-1,
496,485,484,-1,
497,498,499,-1,
498,497,496,-1,
499,500,501,-1,
500,499,498,-1,
500,493,501,-1,
493,500,492,-1,
490,493,492,-1,
493,490,491,-1,
488,491,490,-1,
491,488,489,-1,
486,489,488,-1,
489,486,487,-1,
482,487,486,-1,
487,482,483,-1,
480,483,482,-1,
483,480,481,-1,
478,481,480,-1,
481,478,479,-1,
478,477,479,-1,
477,478,476,-1,
477,474,475,-1,
474,477,476,-1,
475,468,469,-1,
468,475,474,-1,
468,455,469,-1,
455,468,454,-1,
454,445,455,-1,
445,454,444,-1,
444,435,445,-1,
435,444,434,-1,
434,423,435,-1,
423,434,422,-1,
422,415,423,-1,
415,422,414,-1,
442,453,443,-1,
453,442,452,-1,
458,453,452,-1,
453,458,459,-1,
460,459,458,-1,
459,460,461,-1,
466,461,460,-1,
461,466,467,-1,
472,467,466,-1,
467,472,473,-1,
470,473,472,-1,
473,470,471,-1,
464,471,470,-1,
471,464,465,-1,
462,465,464,-1,
465,462,463,-1,
456,463,462,-1,
463,456,457,-1,
450,457,456,-1,
457,450,451,-1,
440,451,450,-1,
451,440,441,-1,
430,441,440,-1,
441,430,431,-1,
430,421,431,-1,
421,430,420,-1,
420,413,421,-1,
413,420,412,-1,
412,399,413,-1,
399,412,398,-1,
399,390,391,-1,
390,399,398,-1,
391,384,385,-1,
384,391,390,-1,
385,388,389,-1,
388,385,384,-1,
389,392,393,-1,
392,389,388,-1,
393,396,397,-1,
396,393,392,-1,
397,400,401,-1,
400,397,396,-1,
401,406,407,-1,
406,401,400,-1,
407,408,409,-1,
408,407,406,-1,
408,417,409,-1,
417,408,416,-1,
416,425,417,-1,
425,416,424,-1,
424,433,425,-1,
433,424,432,-1,
432,443,433,-1,
443,432,442,-1,
1020,1015,1021,-1,
1015,1020,1014,-1,
1014,1009,1015,-1,
1009,1014,1008,-1,
1008,1001,1009,-1,
1001,1008,1000,-1,
1000,993,1001,-1,
993,1000,992,-1,
992,977,993,-1,
977,992,976,-1,
976,975,977,-1,
975,976,974,-1,
974,971,975,-1,
971,974,970,-1,
968,971,970,-1,
971,968,969,-1,
964,969,968,-1,
969,964,965,-1,
960,965,964,-1,
965,960,961,-1,
958,961,960,-1,
961,958,959,-1,
954,959,958,-1,
959,954,955,-1,
952,955,954,-1,
955,952,953,-1,
956,953,952,-1,
953,956,957,-1,
962,957,956,-1,
957,962,963,-1,
962,967,963,-1,
967,962,966,-1,
966,973,967,-1,
973,966,972,-1,
972,989,973,-1,
989,972,988,-1,
988,1003,989,-1,
1003,988,1002,-1,
1002,1025,1003,-1,
1025,1002,1024,-1,
1025,1026,1027,-1,
1026,1025,1024,-1,
1026,1023,1027,-1,
1023,1026,1022,-1,
1020,1023,1022,-1,
1023,1020,1021,-1,
1016,1019,1018,-1,
1019,1016,1017,-1,
1016,1011,1017,-1,
1011,1016,1010,-1,
1010,1007,1011,-1,
1007,1010,1006,-1,
1006,999,1007,-1,
999,1006,998,-1,
998,997,999,-1,
997,998,996,-1,
996,991,997,-1,
991,996,990,-1,
991,986,987,-1,
986,991,990,-1,
987,978,979,-1,
978,987,986,-1,
979,980,981,-1,
980,979,978,-1,
981,982,983,-1,
982,981,980,-1,
983,984,985,-1,
984,983,982,-1,
985,994,995,-1,
994,985,984,-1,
994,1005,995,-1,
1005,994,1004,-1,
1004,1013,1005,-1,
1013,1004,1012,-1,
1012,1019,1013,-1,
1019,1012,1018,-1,
654,645,655,-1,
645,654,644,-1,
645,634,635,-1,
634,645,644,-1,
634,621,635,-1,
621,634,620,-1,
632,621,620,-1,
621,632,633,-1,
594,633,632,-1,
633,594,595,-1,
594,627,595,-1,
627,594,626,-1,
627,648,649,-1,
648,627,626,-1,
640,649,648,-1,
649,640,641,-1,
640,659,641,-1,
659,640,658,-1,
659,666,667,-1,
666,659,658,-1,
666,657,667,-1,
657,666,656,-1,
654,657,656,-1,
657,654,655,-1,
894,877,895,-1,
877,894,876,-1,
876,861,877,-1,
861,876,860,-1,
856,861,860,-1,
861,856,857,-1,
854,857,856,-1,
857,854,855,-1,
846,855,854,-1,
855,846,847,-1,
844,847,846,-1,
847,844,845,-1,
842,845,844,-1,
845,842,843,-1,
840,843,842,-1,
843,840,841,-1,
852,841,840,-1,
841,852,853,-1,
852,859,853,-1,
859,852,858,-1,
858,887,859,-1,
887,858,886,-1,
886,901,887,-1,
901,886,900,-1,
900,911,901,-1,
911,900,910,-1,
910,925,911,-1,
925,910,924,-1,
924,933,925,-1,
933,924,932,-1,
933,936,937,-1,
936,933,932,-1,
937,940,941,-1,
940,937,936,-1,
941,944,945,-1,
944,941,940,-1,
945,948,949,-1,
948,945,944,-1,
949,950,951,-1,
950,949,948,-1,
951,946,947,-1,
946,951,950,-1,
947,942,943,-1,
942,947,946,-1,
943,938,939,-1,
938,943,942,-1,
938,935,939,-1,
935,938,934,-1,
934,929,935,-1,
929,934,928,-1,
928,909,929,-1,
909,928,908,-1,
908,895,909,-1,
895,908,894,-1,
920,915,914,-1,
915,920,921,-1,
930,921,920,-1,
921,930,931,-1,
926,931,930,-1,
931,926,927,-1,
922,927,926,-1,
927,922,923,-1,
918,923,922,-1,
923,918,919,-1,
916,919,918,-1,
919,916,917,-1,
912,917,916,-1,
917,912,913,-1,
906,913,912,-1,
913,906,907,-1,
906,903,907,-1,
903,906,902,-1,
902,897,903,-1,
897,902,896,-1,
896,891,897,-1,
891,896,890,-1,
890,885,891,-1,
885,890,884,-1,
884,881,885,-1,
881,884,880,-1,
880,875,881,-1,
875,880,874,-1,
875,870,871,-1,
870,875,874,-1,
871,866,867,-1,
866,871,870,-1,
867,862,863,-1,
862,867,866,-1,
863,864,865,-1,
864,863,862,-1,
865,868,869,-1,
868,865,864,-1,
869,872,873,-1,
872,869,868,-1,
873,878,879,-1,
878,873,872,-1,
879,882,883,-1,
882,879,878,-1,
883,888,889,-1,
888,883,882,-1,
888,893,889,-1,
893,888,892,-1,
892,899,893,-1,
899,892,898,-1,
898,905,899,-1,
905,898,904,-1,
904,915,905,-1,
915,904,914,-1,
740,735,741,-1,
735,740,734,-1,
734,723,735,-1,
723,734,722,-1,
722,719,723,-1,
719,722,718,-1,
696,719,718,-1,
719,696,697,-1,
684,697,696,-1,
697,684,685,-1,
664,685,684,-1,
685,664,665,-1,
664,669,665,-1,
669,664,668,-1,
669,678,679,-1,
678,669,668,-1,
679,686,687,-1,
686,679,678,-1,
687,688,689,-1,
688,687,686,-1,
690,689,688,-1,
689,690,691,-1,
692,691,690,-1,
691,692,693,-1,
694,693,692,-1,
693,694,695,-1,
698,695,694,-1,
695,698,699,-1,
702,699,698,-1,
699,702,703,-1,
704,703,702,-1,
703,704,705,-1,
706,705,704,-1,
705,706,707,-1,
708,707,706,-1,
707,708,709,-1,
710,709,708,-1,
709,710,711,-1,
712,711,710,-1,
711,712,713,-1,
714,713,712,-1,
713,714,715,-1,
720,715,714,-1,
715,720,721,-1,
720,751,721,-1,
751,720,750,-1,
751,724,725,-1,
724,751,750,-1,
725,730,731,-1,
730,725,724,-1,
731,732,733,-1,
732,731,730,-1,
733,736,737,-1,
736,733,732,-1,
736,739,737,-1,
739,736,738,-1,
738,747,739,-1,
747,738,746,-1,
746,749,747,-1,
749,746,748,-1,
748,757,749,-1,
757,748,756,-1,
756,763,757,-1,
763,756,762,-1,
762,773,763,-1,
773,762,772,-1,
773,774,775,-1,
774,773,772,-1,
774,769,775,-1,
769,774,768,-1,
768,761,769,-1,
761,768,760,-1,
760,753,761,-1,
753,760,752,-1,
752,741,753,-1,
741,752,740,-1,
586,569,587,-1,
569,586,568,-1,
568,557,569,-1,
557,568,556,-1,
556,553,557,-1,
553,556,552,-1,
534,553,552,-1,
553,534,535,-1,
522,535,534,-1,
535,522,523,-1,
494,523,522,-1,
523,494,495,-1,
494,503,495,-1,
503,494,502,-1,
503,520,521,-1,
520,503,502,-1,
521,524,525,-1,
524,521,520,-1,
525,526,527,-1,
526,525,524,-1,
528,527,526,-1,
527,528,529,-1,
530,529,528,-1,
529,530,531,-1,
532,531,530,-1,
531,532,533,-1,
536,533,532,-1,
533,536,537,-1,
538,537,536,-1,
537,538,539,-1,
540,539,538,-1,
539,540,541,-1,
542,541,540,-1,
541,542,543,-1,
544,543,542,-1,
543,544,545,-1,
546,545,544,-1,
545,546,547,-1,
548,547,546,-1,
547,548,549,-1,
550,549,548,-1,
549,550,551,-1,
554,551,550,-1,
551,554,555,-1,
554,599,555,-1,
599,554,598,-1,
599,560,561,-1,
560,599,598,-1,
561,562,563,-1,
562,561,560,-1,
563,566,567,-1,
566,563,562,-1,
567,576,577,-1,
576,567,566,-1,
576,583,577,-1,
583,576,582,-1,
582,591,583,-1,
591,582,590,-1,
590,597,591,-1,
597,590,596,-1,
596,605,597,-1,
605,596,604,-1,
604,611,605,-1,
611,604,610,-1,
610,615,611,-1,
615,610,614,-1,
615,618,619,-1,
618,615,614,-1,
618,613,619,-1,
613,618,612,-1,
612,607,613,-1,
607,612,606,-1,
606,601,607,-1,
601,606,600,-1,
600,587,601,-1,
587,600,586,-1,
8,1223,9,-1,
1223,8,1222,-1,
1220,7,1221,-1,
7,1220,6,-1,
1102,1105,1104,-1,
1105,1102,1103,-1,
121,1105,1103,-1,
1105,121,123,-1,
121,122,123,-1,
122,121,120,-1,
122,1105,123,-1,
1105,122,1104,-1,
1102,121,1103,-1,
121,1102,120,-1,
5,1220,1219,-1,
1220,5,6,-1,
1032,200,1028,-1,
1028,1218,1224,-1,
196,1028,200,-1,
1028,196,1218,-1,
4,196,10,-1,
196,4,1218,-1,
1218,5,1219,-1,
5,1218,4,-1,
8,1225,1222,-1,
1225,8,11,-1,
11,197,1225,-1,
10,197,11,-1,
197,10,196,-1,
1029,1225,197,-1,
1224,1029,1028,-1,
1029,1224,1225,-1,
1032,1030,1033,-1,
1028,1030,1032,-1,
1029,1030,1028,-1,
1030,1029,1031,-1,
197,1031,1029,-1,
1031,197,199,-1,
199,197,198,-1,
198,200,201,-1,
196,198,197,-1,
198,196,200,-1,
1090,1107,1091,-1,
1107,1090,1106,-1,
1155,1166,1167,-1,
1166,1155,1154,-1,
1189,1176,1177,-1,
1176,1189,1188,-1,
1195,1188,1189,-1,
1188,1195,1194,-1,
1177,1168,1169,-1,
1168,1177,1176,-1,
1054,1047,1046,-1,
1047,1054,1055,-1,
1092,1081,1093,-1,
1081,1092,1080,-1,
1187,1194,1195,-1,
1194,1187,1186,-1,
1118,1131,1119,-1,
1131,1118,1130,-1,
1038,1035,1034,-1,
1035,1038,1039,-1,
1120,1109,1121,-1,
1109,1120,1108,-1,
1175,1186,1187,-1,
1186,1175,1174,-1,
1078,1091,1079,-1,
1091,1078,1090,-1,
1034,1041,1040,-1,
1041,1034,1035,-1,
1144,1133,1145,-1,
1133,1144,1132,-1,
1132,1121,1133,-1,
1121,1132,1120,-1,
1108,1093,1109,-1,
1093,1108,1092,-1,
1040,1049,1048,-1,
1049,1040,1041,-1,
1072,1065,1073,-1,
1065,1072,1064,-1,
1169,1156,1157,-1,
1156,1169,1168,-1,
1080,1073,1081,-1,
1073,1080,1072,-1,
1130,1143,1131,-1,
1143,1130,1142,-1,
1167,1174,1175,-1,
1174,1167,1166,-1,
1156,1145,1157,-1,
1145,1156,1144,-1,
1142,1155,1143,-1,
1155,1142,1154,-1,
1106,1119,1107,-1,
1119,1106,1118,-1,
1046,1039,1038,-1,
1039,1046,1047,-1,
1056,1065,1064,-1,
1065,1056,1057,-1,
1062,1055,1054,-1,
1055,1062,1063,-1,
1062,1071,1063,-1,
1071,1062,1070,-1,
1070,1079,1071,-1,
1079,1070,1078,-1,
1186,1188,1194,-1,
1174,1188,1186,-1,
1174,1176,1188,-1,
1166,1176,1174,-1,
1166,1168,1176,-1,
1154,1168,1166,-1,
1154,1156,1168,-1,
1142,1156,1154,-1,
1142,1144,1156,-1,
1130,1144,1142,-1,
1130,1132,1144,-1,
1118,1132,1130,-1,
1118,1120,1132,-1,
1106,1120,1118,-1,
1106,1108,1120,-1,
1090,1108,1106,-1,
1090,1092,1108,-1,
1078,1092,1090,-1,
1078,1080,1092,-1,
1070,1080,1078,-1,
1070,1072,1080,-1,
1062,1072,1070,-1,
1062,1064,1072,-1,
1054,1064,1062,-1,
1054,1056,1064,-1,
1046,1056,1054,-1,
1046,1048,1056,-1,
1038,1048,1046,-1,
1038,1040,1048,-1,
1040,1038,1034,-1,
1048,1057,1056,-1,
1057,1048,1049,-1,
104,117,105,-1,
117,104,116,-1,
187,178,179,-1,
178,187,186,-1,
193,186,187,-1,
186,193,192,-1,
179,170,171,-1,
170,179,178,-1,
60,49,48,-1,
49,60,61,-1,
185,192,193,-1,
192,185,184,-1,
132,145,133,-1,
145,132,144,-1,
40,37,36,-1,
37,40,41,-1,
134,119,135,-1,
119,134,118,-1,
177,184,185,-1,
184,177,176,-1,
92,105,93,-1,
105,92,104,-1,
36,43,42,-1,
43,36,37,-1,
146,135,147,-1,
135,146,134,-1,
118,107,119,-1,
107,118,106,-1,
42,51,50,-1,
51,42,43,-1,
86,75,87,-1,
75,86,74,-1,
171,162,163,-1,
162,171,170,-1,
94,87,95,-1,
87,94,86,-1,
144,153,145,-1,
153,144,152,-1,
169,176,177,-1,
176,169,168,-1,
161,168,169,-1,
168,161,160,-1,
162,155,163,-1,
155,162,154,-1,
152,161,153,-1,
161,152,160,-1,
154,147,155,-1,
147,154,146,-1,
106,95,107,-1,
95,106,94,-1,
116,133,117,-1,
133,116,132,-1,
48,41,40,-1,
41,48,49,-1,
62,75,74,-1,
75,62,63,-1,
72,61,60,-1,
61,72,73,-1,
72,85,73,-1,
85,72,84,-1,
84,93,85,-1,
93,84,92,-1,
184,186,192,-1,
176,186,184,-1,
176,178,186,-1,
168,178,176,-1,
168,170,178,-1,
160,170,168,-1,
160,162,170,-1,
152,162,160,-1,
152,154,162,-1,
144,154,152,-1,
144,146,154,-1,
132,146,144,-1,
132,134,146,-1,
116,134,132,-1,
116,118,134,-1,
104,118,116,-1,
104,106,118,-1,
92,106,104,-1,
92,94,106,-1,
84,94,92,-1,
84,86,94,-1,
72,86,84,-1,
72,74,86,-1,
60,74,72,-1,
60,62,74,-1,
48,62,60,-1,
48,50,62,-1,
40,50,48,-1,
40,42,50,-1,
42,40,36,-1,
50,63,62,-1,
63,50,51,-1,
1122,1135,1123,-1,
1135,1122,1134,-1,
1193,1180,1181,-1,
1180,1193,1192,-1,
1197,1192,1193,-1,
1192,1197,1196,-1,
1181,1172,1173,-1,
1172,1181,1180,-1,
1190,1192,1196,-1,
1178,1192,1190,-1,
1178,1180,1192,-1,
1170,1180,1178,-1,
1170,1172,1180,-1,
1158,1172,1170,-1,
1158,1160,1172,-1,
1146,1160,1158,-1,
1146,1148,1160,-1,
1134,1148,1146,-1,
1134,1136,1148,-1,
1122,1136,1134,-1,
1122,1124,1136,-1,
1110,1124,1122,-1,
1110,1112,1124,-1,
1094,1112,1110,-1,
1094,1096,1112,-1,
1082,1096,1094,-1,
1082,1084,1096,-1,
1074,1084,1082,-1,
1074,1076,1084,-1,
1066,1076,1074,-1,
1066,1068,1076,-1,
1058,1068,1066,-1,
1058,1060,1068,-1,
1050,1060,1058,-1,
1050,1052,1060,-1,
1042,1052,1050,-1,
1042,1044,1052,-1,
1044,1042,1036,-1,
1058,1051,1050,-1,
1051,1058,1059,-1,
1136,1125,1137,-1,
1125,1136,1124,-1,
1112,1097,1113,-1,
1097,1112,1096,-1,
1074,1083,1075,-1,
1083,1074,1082,-1,
1084,1077,1085,-1,
1077,1084,1076,-1,
1134,1147,1135,-1,
1147,1134,1146,-1,
1060,1069,1068,-1,
1069,1060,1061,-1,
1173,1160,1161,-1,
1160,1173,1172,-1,
1159,1170,1171,-1,
1170,1159,1158,-1,
1096,1085,1097,-1,
1085,1096,1084,-1,
1146,1159,1147,-1,
1159,1146,1158,-1,
1191,1196,1197,-1,
1196,1191,1190,-1,
1082,1095,1083,-1,
1095,1082,1094,-1,
1179,1190,1191,-1,
1190,1179,1178,-1,
1050,1043,1042,-1,
1043,1050,1051,-1,
1171,1178,1179,-1,
1178,1171,1170,-1,
1036,1045,1044,-1,
1045,1036,1037,-1,
1124,1113,1125,-1,
1113,1124,1112,-1,
1076,1069,1077,-1,
1069,1076,1068,-1,
1160,1149,1161,-1,
1149,1160,1148,-1,
1110,1123,1111,-1,
1123,1110,1122,-1,
1148,1137,1149,-1,
1137,1148,1136,-1,
1066,1059,1058,-1,
1059,1066,1067,-1,
1094,1111,1095,-1,
1111,1094,1110,-1,
1066,1075,1067,-1,
1075,1066,1074,-1,
1044,1053,1052,-1,
1053,1044,1045,-1,
1052,1061,1060,-1,
1061,1052,1053,-1,
1042,1037,1036,-1,
1037,1042,1043,-1,
136,149,137,-1,
149,136,148,-1,
191,182,183,-1,
182,191,190,-1,
195,190,191,-1,
190,195,194,-1,
183,174,175,-1,
174,183,182,-1,
188,190,194,-1,
180,190,188,-1,
180,182,190,-1,
172,182,180,-1,
172,174,182,-1,
164,174,172,-1,
164,166,174,-1,
156,166,164,-1,
156,158,166,-1,
148,158,156,-1,
148,150,158,-1,
136,150,148,-1,
136,138,150,-1,
124,138,136,-1,
124,126,138,-1,
108,126,124,-1,
108,110,126,-1,
96,110,108,-1,
96,98,110,-1,
88,98,96,-1,
88,90,98,-1,
76,90,88,-1,
76,78,90,-1,
64,78,76,-1,
64,66,78,-1,
52,66,64,-1,
52,54,66,-1,
44,54,52,-1,
44,46,54,-1,
46,44,38,-1,
64,53,52,-1,
53,64,65,-1,
150,139,151,-1,
139,150,138,-1,
126,111,127,-1,
111,126,110,-1,
88,97,89,-1,
97,88,96,-1,
98,91,99,-1,
91,98,90,-1,
148,157,149,-1,
157,148,156,-1,
66,79,78,-1,
79,66,67,-1,
175,166,167,-1,
166,175,174,-1,
165,172,173,-1,
172,165,164,-1,
108,125,109,-1,
125,108,124,-1,
110,99,111,-1,
99,110,98,-1,
156,165,157,-1,
165,156,164,-1,
189,194,195,-1,
194,189,188,-1,
96,109,97,-1,
109,96,108,-1,
181,188,189,-1,
188,181,180,-1,
52,45,44,-1,
45,52,53,-1,
173,180,181,-1,
180,173,172,-1,
38,47,46,-1,
47,38,39,-1,
138,127,139,-1,
127,138,126,-1,
90,79,91,-1,
79,90,78,-1,
166,159,167,-1,
159,166,158,-1,
124,137,125,-1,
137,124,136,-1,
158,151,159,-1,
151,158,150,-1,
76,65,64,-1,
65,76,77,-1,
76,89,77,-1,
89,76,88,-1,
46,55,54,-1,
55,46,47,-1,
54,67,66,-1,
67,54,55,-1,
44,39,38,-1,
39,44,45,-1
]
}
}
Shape {
appearance Appearance {
material Material {
diffuseColor 0.06 0.06 0.07
shininess 0.2
}
}
geometry IndexedFaceSet {
coord Coordinate {
point [
0.0000 1.8000 0.6000,
0.0000 1.8000 2.2000,
0.0000 20.9500 0.6000,
0.0000 20.9500 2.2000,
26.9500 1.8000 0.6000,
26.9500 1.8000 2.2000,
26.9500 20.9500 0.6000,
26.9500 20.9500 2.2000
]
}
coordIndex [
0,2,6,-1,
0,6,4,-1,
1,5,7,-1,
1,7,3,-1,
0,4,5,-1,
0,5,1,-1,
4,6,7,-1,
4,7,5,-1,
6,2,3,-1,
6,3,7,-1,
2,0,1,-1,
2,1,3,-1
]
}
}
Shape {
appearance Appearance {
material Material {
diffuseColor 0.01 0.01 0.015
shininess 0.2
}
}
geometry IndexedFaceSet {
coord Coordinate {
point [
2.6250 5.0000 2.1500,
2.6250 5.0000 2.2500,
2.6250 15.9000 2.1500,
2.6250 15.9000 2.2500,
24.3250 5.0000 2.1500,
24.3250 5.0000 2.2500,
24.3250 15.9000 2.1500,
24.3250 15.9000 2.2500
]
}
coordIndex [
0,2,6,-1,
0,6,4,-1,
1,5,7,-1,
1,7,3,-1,
0,4,5,-1,
0,5,1,-1,
4,6,7,-1,
4,7,5,-1,
6,2,3,-1,
6,3,7,-1,
2,0,1,-1,
2,1,3,-1
]
}
}
