<?xml version="1.0" encoding="UTF-8" standalone="no"?>
<!-- Created with Inkscape (http://www.inkscape.org/) -->

<svg
   width="297mm"
   height="210mm"
   viewBox="0 0 297 210"
   version="1.1"
   id="svg1"
   xml:space="preserve"
   inkscape:version="1.4 (e7c3feb100, 2024-10-09)"
   sodipodi:docname="instructions.svg"
   xmlns:inkscape="http://www.inkscape.org/namespaces/inkscape"
   xmlns:sodipodi="http://sodipodi.sourceforge.net/DTD/sodipodi-0.dtd"
   xmlns="http://www.w3.org/2000/svg"
   xmlns:svg="http://www.w3.org/2000/svg"><sodipodi:namedview
     id="namedview1"
     pagecolor="#ffffff"
     bordercolor="#000000"
     borderopacity="0.25"
     inkscape:showpageshadow="2"
     inkscape:pageopacity="0.0"
     inkscape:pagecheckerboard="0"
     inkscape:deskcolor="#d1d1d1"
     inkscape:document-units="mm"
     inkscape:zoom="0.93733313"
     inkscape:cx="537.16228"
     inkscape:cy="312.58897"
     inkscape:window-width="1707"
     inkscape:window-height="995"
     inkscape:window-x="0"
     inkscape:window-y="0"
     inkscape:window-maximized="1"
     inkscape:current-layer="layer1" /><defs
     id="defs1"><linearGradient
       id="swatch1"
       inkscape:swatch="solid"><stop
         style="stop-color:#000000;stop-opacity:1;"
         offset="0"
         id="stop1" /></linearGradient></defs><g
     inkscape:label="Layer 1"
     inkscape:groupmode="layer"
     id="layer1"><g
       inkscape:label="Layer 1"
       id="layer1-7"
       transform="translate(111.1698,12.981789)"><rect
         style="fill:none;stroke:#000000;stroke-width:0.614983;stroke-dasharray:none;stroke-opacity:1"
         id="rect1"
         width="21.385017"
         height="17.950016"
         x="4.5159187"
         y="3.517935"
         rx="1.5444734"
         ry="1.2963901" /><rect
         style="fill:none;stroke:#000000;stroke-width:0.47491;stroke-dasharray:none;stroke-opacity:1"
         id="rect1-5"
         width="16.925091"
         height="13.525089"
         x="6.7283826"
         y="5.7303991"
         rx="1.2223678"
         ry="0.97681206" /><path
         style="fill:none;stroke:#000000;stroke-width:0.564999;stroke-dasharray:none;stroke-opacity:1"
         d="M 23.252194,6.0688579 25.404521,3.9518145"
         id="path1" /><path
         style="fill:none;stroke:#000000;stroke-width:0.564999;stroke-dasharray:none;stroke-opacity:1"
         d="m 23.393331,18.982823 2.046475,2.152328"
         id="path2" /><path
         style="fill:none;stroke:#000000;stroke-width:0.564999;stroke-dasharray:none;stroke-opacity:1"
         d="M 6.9509594,18.947539 4.8692,21.064582"
         id="path3" /><path
         style="fill:none;stroke:#000000;stroke-width:0.564999;stroke-dasharray:none;stroke-opacity:1"
         d="M 6.8803913,5.9277218 4.833916,3.9165305"
         id="path4" /></g><g
       inkscape:label="Layer 1"
       id="layer1-0"
       transform="translate(54.605035,14.578562)"><rect
         style="fill:none;stroke:#000000;stroke-width:0.565;stroke-dasharray:none;stroke-opacity:1"
         id="rect1-6"
         width="18"
         height="18"
         x="4.4909272"
         y="3.4929435"
         rx="1.3"
         ry="1.3" /><rect
         style="fill:none;stroke:#000000;stroke-width:0.426071;stroke-dasharray:none;stroke-opacity:1"
         id="rect1-5-2"
         width="13.573929"
         height="13.573929"
         x="6.7039628"
         y="5.7059793"
         rx="0.98033935"
         ry="0.98033929" /><path
         style="fill:none;stroke:#000000;stroke-width:0.564999;stroke-dasharray:none;stroke-opacity:1"
         d="M 20.006061,5.9982898 22.158388,3.8812464"
         id="path1-6" /><path
         style="fill:none;stroke:#000000;stroke-width:0.564999;stroke-dasharray:none;stroke-opacity:1"
         d="m 20.006061,18.982823 2.046475,2.152328"
         id="path2-1" /><path
         style="fill:none;stroke:#000000;stroke-width:0.564999;stroke-dasharray:none;stroke-opacity:1"
         d="M 6.9509594,18.947539 4.8692,21.064582"
         id="path3-8" /><path
         style="fill:none;stroke:#000000;stroke-width:0.564999;stroke-dasharray:none;stroke-opacity:1"
         d="M 6.8803913,5.9277218 4.833916,3.9165305"
         id="path4-7" /></g><path
       d="m 164.85158,136.00809 0.19579,-0.0479 0.18796,-0.0711 0.17716,-0.0929 0.16354,-0.1134 0.14736,-0.13206 0.12885,-0.14865 0.10833,-0.16289 0.0861,-0.17455 0.0625,-0.18348 0.0379,-0.18949 0.0127,-0.19254 v -13.26248 l -0.0127,-0.19254 -0.0379,-0.18949 -0.0625,-0.18348 -0.0861,-0.17455 -0.10833,-0.16289 -0.12885,-0.14865 -0.14736,-0.13207 -0.16354,-0.11339 -0.17716,-0.0929 -0.18796,-0.0711 -0.19579,-0.048 -0.20057,-0.0242 h -17.26532 l -0.20056,0.0242 -0.1958,0.048 -0.18795,0.0711 -0.17717,0.0929 -0.16354,0.11339 -0.14735,0.13207 -0.12886,0.14865 -0.10832,0.16289 -0.0861,0.17455 -0.0625,0.18348 -0.0379,0.18949 -0.0127,0.19254 v 13.26244 l 0.0127,0.19253 0.0379,0.1895 0.0625,0.18348 0.0861,0.17455 0.10832,0.16289 0.12886,0.14865 0.14735,0.13206 0.16354,0.1134 0.17717,0.0929 0.18795,0.0711 0.1958,0.0479 0.20056,0.0242 h 17.26532 z"
       stroke="#000000"
       fill="#d3d3d3"
       stroke-width="0.5"
       id="path1-2"
       style="stroke-width:0.314507;stroke-dasharray:none" /><path
       d="m 187.58382,73.09387 0.92515,-0.0682 0.92067,-0.1136 0.914,-0.1586 0.90513,-0.2032 0.89405,-0.2474 0.88085,-0.291 0.86549,-0.3339 0.84807,-0.3759 0.82861,-0.4171 0.80715,-0.4572 0.78376,-0.4963 0.7584,-0.5342 0.7313,-0.5707 0.7025,-0.6059 0.6718,-0.6397 0.6397,-0.6718 0.6059,-0.70248 0.5707,-0.73131 0.5342,-0.75844 0.4963,-0.78373 0.4572,-0.80715 0.4171,-0.82861 0.3759,-0.84807 0.3339,-0.86549 0.291,-0.88085 0.2474,-0.89405 0.2032,-0.90513 0.1586,-0.914 0.1136,-0.92065 0.0682,-0.92516 0.0228,-0.92738 -0.0228,-0.92737 -0.0682,-0.92515 -0.1136,-0.92067 -0.1586,-0.914 -0.2032,-0.905133 -0.2474,-0.89405 -0.291,-0.88085 -0.3339,-0.86549 -0.3759,-0.84809 -0.4171,-0.8286 -0.4572,-0.8071 -0.4963,-0.7838 -0.5342,-0.7584 -0.5707,-0.7313 -0.6059,-0.7025 -0.6397,-0.6718 -0.6718,-0.6397 -0.7025,-0.6059 -0.7313,-0.5707 -0.7584,-0.5342 -0.78376,-0.4963 -0.80715,-0.4572 -0.82861,-0.4171 -0.84807,-0.3759 -0.86549,-0.3339 -0.88085,-0.291 -0.89405,-0.2474 -0.90513,-0.2032 -0.914,-0.1586 -0.92067,-0.1136 -0.92515,-0.0682 -0.92737,-0.0228 -0.92737,0.0228 -0.92515,0.0682 -0.92067,0.1136 -0.914,0.1586 -0.90513,0.2032 -0.89405,0.2474 -0.88085,0.291 -0.86549,0.3339 -0.84807,0.3759 -0.82861,0.4171 -0.80715,0.4572 -0.78376,0.4963 -0.7584,0.5342 -0.7313,0.5707 -0.7025,0.6059 -0.6718,0.6397 -0.6397,0.6718 -0.6059,0.7025 -0.5707,0.7313 -0.5342,0.7584 -0.4963,0.7838 -0.4572,0.8071 -0.4171,0.8286 -0.3759,0.84809 -0.3339,0.86549 -0.291,0.88085 -0.2474,0.89405 -0.2032,0.905133 -0.1586,0.914 -0.1136,0.92067 -0.0682,0.92515 -0.0228,0.92737 0.0228,0.92738 0.0682,0.92516 0.1136,0.92065 0.1586,0.914 0.2032,0.90513 0.2474,0.89405 0.291,0.88085 0.3339,0.86549 0.3759,0.84807 0.4171,0.82861 0.4572,0.80715 0.4963,0.78373 0.5342,0.75844 0.5707,0.73131 0.6059,0.70248 0.6397,0.6718 0.6718,0.6397 0.7025,0.6059 0.7313,0.5707 0.7584,0.5342 0.78376,0.4963 0.80715,0.4572 0.82861,0.4171 0.84807,0.3759 0.86549,0.3339 0.88085,0.291 0.89405,0.2474 0.90513,0.2032 0.914,0.1586 0.92067,0.1136 0.92515,0.0682 0.92737,0.0228 z m -5.42737,-3.8772 v -4 h 0.8 v -8.72501 l 0.0118,-0.188 0.0353,-0.18502 0.0582,-0.17915 0.0802,-0.17044 0.10094,-0.15906 0.12007,-0.14514 0.13731,-0.12895 0.15239,-0.11072 0.16509,-0.0907 0.17514,-0.0694 0.18245,-0.0468 0.18689,-0.0236 h 12.58837 l 0.1869,0.0236 0.1824,0.0468 0.1752,0.0694 0.165,0.0907 0.1524,0.11072 0.1373,0.12895 0.1201,0.14514 0.101,0.15906 0.0802,0.17044 0.0582,0.17915 0.0353,0.18502 0.0118,0.188 v 9.45 l -0.0118,0.188 -0.0353,0.18501 -0.0582,0.1792 -0.0802,0.1704 -0.101,0.1591 -0.1201,0.1451 -0.1373,0.129 -0.1524,0.1107 -0.165,0.0907 -0.1752,0.0694 -0.1824,0.0468 -0.1869,0.0236 h -5.79415 v 1.778 z"
       stroke="#000000"
       fill="#d3d3d3"
       stroke-width="0.5"
       id="path1-9"
       style="stroke-width:0.3;stroke-dasharray:none" /><path
       d="m 117.09476,96.112237 h 5.475 v -2.0025 h 16.00001 v 2.0025 h 5.47499 V 66.212231 h -26.95 z m 13.6227,-6.2311 -1.0434,1.7764 -0.1246,0.1933 -0.1204,0.1495 -0.116,0.1056 -0.1206,0.0698 -0.1338,0.0418 -0.1473,0.014 -0.1052,-0.002 -0.093,-0.007 -0.0809,-0.0113 0.0608,-0.3119 0.078,0.008 0.078,0.005 0.0838,-0.007 0.0749,-0.0223 0.0659,-0.0373 0.0608,-0.0541 0.0598,-0.0728 0.0587,-0.0915 0.0421,-0.0748 -0.3743,-1.6704 h 0.4632 l 0.1373,0.8219 0.002,0.0108 0.002,0.0138 0.002,0.0167 0.002,0.018 0.004,0.0351 0.004,0.0362 0.008,0.0743 0.0116,0.1125 0.0113,0.1103 0.007,0.0678 0.002,0.0254 0.0265,-0.0577 0.2137,-0.457 0.4414,-0.8281 z m 3.74414,0 -1.04344,1.7764 -0.1247,0.1933 -0.1203,0.1495 -0.1161,0.1056 -0.1205,0.0698 -0.1339,0.0418 -0.1472,0.014 -0.1052,-0.002 -0.093,-0.007 -0.081,-0.0113 0.0609,-0.3119 0.078,0.008 0.0779,0.005 0.0839,-0.007 0.0749,-0.0223 0.0658,-0.0373 0.0609,-0.0541 0.0598,-0.0728 0.0587,-0.0915 0.0421,-0.0748 -0.3743,-1.6704 h 0.4632 l 0.1373,0.8219 0.002,0.0108 0.002,0.0138 0.002,0.0167 0.002,0.018 0.004,0.0351 0.004,0.0362 0.008,0.0743 0.0116,0.1125 0.0113,0.1103 0.007,0.0678 0.002,0.0254 0.0265,-0.0577 0.2137,-0.457 0.4414,-0.8281 z m 3.69575,-0.627 -0.37744,1.9464 -0.0149,0.0818 -0.0198,0.1227 -0.0246,0.1636 h -0.42424 v -0.0125 l 0.001,-0.0292 0.004,-0.0421 0.006,-0.055 0.007,-0.056 0.006,-0.0452 0.006,-0.0345 h -0.006 l -0.0739,0.095 -0.0803,0.0769 -0.0867,0.0589 -0.0945,0.0416 -0.10371,0.025 -0.11291,0.008 -0.13717,-0.0167 -0.11412,-0.0502 -0.0911,-0.0836 -0.0663,-0.1141 -0.0398,-0.1417 -0.0133,-0.1692 0.007,-0.1387 0.0213,-0.1455 0.0355,-0.1525 0.0476,-0.1482 0.0574,-0.1325 0.0673,-0.117 0.0766,-0.1006 0.0853,-0.0835 0.0939,-0.0663 0.10182,-0.0481 0.10892,-0.0288 0.11602,-0.01 0.10572,0.009 0.0925,0.026 0.0794,0.0434 0.0645,0.059 0.0478,0.0734 0.0312,0.0875 h 0.003 l 0.0499,-0.2776 0.1201,-0.6192 z m -1.02175,0.9093 -0.0795,0.0377 -0.0716,0.0629 -0.0628,0.087 -0.0533,0.1105 -0.0438,0.1339 -0.0325,0.1397 -0.0195,0.1279 -0.006,0.1161 0.0255,0.1785 0.0764,0.107 0.12738,0.0358 0.0637,-0.008 0.0621,-0.0231 0.0606,-0.0385 0.0573,-0.053 0.0523,-0.0663 0.0472,-0.0796 0.0413,-0.0926 0.0343,-0.105 0.0274,-0.1175 0.0139,-0.083 0.008,-0.0764 0.003,-0.0698 -0.007,-0.1014 -0.0218,-0.0837 -0.0364,-0.066 -0.0489,-0.0477 -0.0593,-0.0286 -0.0697,-0.009 z m -1.86721,-0.9093 -0.11853,0.6145 -0.0577,0.2776 h 0.003 l 0.0662,-0.0875 0.078,-0.0733 0.0898,-0.0591 0.0991,-0.0433 0.10606,-0.026 0.113,-0.009 0.14053,0.0161 0.11594,0.0484 0.0913,0.0806 0.0659,0.1105 0.0395,0.1383 0.0132,0.166 -0.007,0.1407 -0.0205,0.1456 -0.0342,0.1504 -0.0467,0.1465 -0.058,0.1336 -0.0692,0.1208 -0.079,0.1054 -0.0873,0.0876 -0.0957,0.0698 -0.10243,0.0507 -0.10761,0.0304 -0.11282,0.0101 -0.10293,-0.009 -0.0905,-0.0263 -0.078,-0.0437 -0.0641,-0.0603 -0.0489,-0.0756 -0.0336,-0.0911 h -0.006 l -0.0106,0.0514 -0.0132,0.0543 -0.0159,0.0573 -0.0155,0.0516 -0.0122,0.0371 -0.009,0.0228 h -0.42424 l 0.0359,-0.1497 0.0483,-0.2184 0.37746,-1.9464 z m 0.051,0.9088 -0.0902,0.0502 -0.0817,0.0836 -0.0704,0.1134 -0.0564,0.1396 -0.0424,0.1658 -0.0139,0.0832 -0.008,0.0769 -0.003,0.0707 0.007,0.1023 0.0216,0.0866 0.036,0.0708 0.0486,0.0524 0.0595,0.0315 0.0704,0.0105 0.0849,-0.0124 0.078,-0.0372 0.0711,-0.062 0.0629,-0.0857 0.0535,-0.1084 0.0442,-0.1311 0.0329,-0.1389 0.0198,-0.1321 0.007,-0.1251 -0.0258,-0.1785 -0.0775,-0.1071 -0.12912,-0.0357 z m -8.86157,-0.2467 0.2241,0.1992 0.0747,0.3318 -0.003,0.0834 -0.01,0.092 -0.0165,0.1007 -0.0736,0.2584 -0.1128,0.2161 -0.152,0.1735 -0.187,0.127 -0.2179,0.0761 -0.2486,0.0254 -0.1991,-0.018 -0.1645,-0.0541 -0.1301,-0.0901 -0.094,-0.1239 -0.0564,-0.1555 -0.0188,-0.1869 0.0138,-0.19 0.0413,-0.1871 0.0689,-0.1844 0.094,-0.1684 0.1167,-0.139 0.1394,-0.1098 0.1603,-0.0793 0.1794,-0.0476 0.1984,-0.0158 z m -0.5294,0.246 -0.091,0.0341 -0.0775,0.0567 -0.0658,0.0816 -0.0562,0.1084 -0.0464,0.1352 -0.0347,0.1437 -0.0208,0.1336 -0.007,0.1236 0.0288,0.1785 0.0863,0.107 0.1438,0.0358 0.1064,-0.0117 0.0925,-0.0348 0.0787,-0.058 0.0668,-0.0837 0.0569,-0.1115 0.0471,-0.1394 0.0351,-0.1475 0.021,-0.136 0.007,-0.1243 -0.007,-0.0956 -0.0213,-0.0767 -0.0356,-0.0578 -0.0509,-0.0403 -0.0676,-0.0242 -0.0842,-0.008 z m 6.7734,-0.6976 -0.8921,0.9031 0.5131,1.2009 h -0.5428 l -0.3353,-0.8687 -0.2402,0.2215 -0.1263,0.6472 h -0.4602 l 0.4087,-2.104 h 0.4601 l -0.1809,0.9343 0.8609,-0.9343 z m -4.3524,-0.2105 -0.3556,1.8341 -0.002,0.0134 -0.001,0.013 -4e-4,0.0126 0.002,0.0267 0.007,0.0239 0.0113,0.0212 0.0293,0.0322 0.0358,0.0218 0.0425,0.0115 0.3899,0.008 -0.0577,0.2963 -0.4819,-0.008 h -0.0499 l -0.0912,-0.002 -0.0655,-0.006 -0.0399,-0.01 -0.084,-0.0435 -0.0608,-0.0577 -0.0376,-0.072 -0.004,-0.0168 -0.003,-0.0213 -8e-4,-0.0258 0.003,-0.0652 0.01,-0.0832 0.0165,-0.1012 0.2932,-1.5066 h -0.4523 l 0.0562,-0.2963 z m -4.0623,0.2105 0.2133,0.0142 0.176,0.0427 0.1387,0.071 0.1001,0.0986 0.06,0.1253 0.02,0.152 -0.008,0.1103 -0.0231,0.1105 -0.0386,0.1106 -0.0521,0.1052 -0.064,0.0941 -0.0757,0.083 -0.0875,0.0717 -0.0993,0.06 -0.1111,0.0485 -0.1217,0.0355 -0.1313,0.0213 -0.1408,0.007 h -0.3073 l -0.145,0.7424 h -0.4601 l 0.4086,-2.104 z m -0.3571,0.3572 -0.1264,0.6504 h 0.2496 l 0.2272,-0.0373 0.1534,-0.1118 0.0795,-0.1863 0.005,-0.0303 0.003,-0.0286 10e-4,-0.0268 -0.01,-0.0744 -0.0299,-0.0587 -0.0498,-0.0432 -0.0694,-0.0295 -0.0887,-0.0176 -0.1078,-0.006 z m 19.11474,-17.459614 v 14.55001 h -24.95 v -14.55001 z"
       stroke="#000000"
       fill="#d3d3d3"
       stroke-width="0.5"
       id="path1-97"
       style="stroke-width:0.3;stroke-dasharray:none" /><path
       d="m 121.87823,53.27856 h 9 v 1.83164 h 5.75 V 39.750557 h -20.5 V 55.1102 h 5.75 z m 4.5,-3.82775 -0.0583,-0.003 -0.0577,-0.009 -0.0566,-0.0142 -0.0109,-0.004 h -0.35722 l -5e-5,-0.31891 -0.009,-0.0186 -0.0197,-0.0549 -0.0142,-0.0566 -0.009,-0.0577 -0.003,-0.0583 0.003,-0.0583 0.009,-0.0577 0.0142,-0.0566 0.0188,-0.0527 9.3e-4,-0.002 0.009,-0.0189 -6e-5,-0.34368 -0.29516,-0.29501 h -0.34383 l -0.0209,0.01 -0.0527,0.0188 -0.0566,0.0142 -0.0578,0.009 -0.0583,0.003 -0.0583,-0.003 -0.0578,-0.009 -0.0566,-0.0142 -0.055,-0.0196 -0.0186,-0.009 h -0.31924 l -2.3e-4,-0.35738 -0.004,-0.0109 -0.0142,-0.0567 -0.009,-0.0578 -0.003,-0.0583 0.003,-0.0583 0.009,-0.0578 0.0142,-0.0567 0.004,-0.0109 -2.4e-4,-0.35752 h 0.31937 l 0.0186,-0.009 0.055,-0.0197 0.0567,-0.0142 0.0578,-0.009 0.0583,-0.003 0.0584,0.003 0.0578,0.009 0.0567,0.0142 0.0528,0.0189 0.003,10e-4 0.0183,0.008 h 0.34396 l 0.29515,-0.29531 -6e-5,-0.34413 -0.008,-0.0185 -10e-4,-0.002 -0.0189,-0.0528 -0.0142,-0.0567 -0.009,-0.0578 -0.003,-0.0584 0.003,-0.0584 0.009,-0.0578 0.0142,-0.0567 0.0197,-0.055 0.009,-0.0187 -4e-5,-0.31968 h 0.35768 l 0.0109,-0.004 0.0567,-0.0142 0.0578,-0.009 0.0584,-0.003 0.0584,0.003 0.0578,0.009 0.0567,0.0142 0.0109,0.004 h 0.35768 l -4e-5,0.31968 0.009,0.0187 0.0197,0.055 0.0142,0.0567 0.009,0.0578 0.003,0.0584 -0.003,0.0584 -0.009,0.0578 -0.0142,0.0567 -0.0189,0.0528 -0.001,0.003 -0.008,0.018 -7e-5,0.34413 0.29515,0.29531 h 0.34397 l 0.0208,-0.01 0.0528,-0.0189 0.0567,-0.0142 0.0578,-0.009 0.0584,-0.003 0.0583,0.003 0.0578,0.009 0.0567,0.0142 0.055,0.0197 0.0186,0.009 h 0.31937 l -2.4e-4,0.35752 0.004,0.0109 0.0142,0.0567 0.009,0.0578 0.003,0.0583 -0.003,0.0583 -0.009,0.0578 -0.0142,0.0567 -0.004,0.0109 -2.3e-4,0.35738 h -0.31924 l -0.0186,0.009 -0.055,0.0196 -0.0566,0.0142 -0.0578,0.009 -0.0583,0.003 -0.0583,-0.003 -0.0578,-0.009 -0.0566,-0.0142 -0.0527,-0.0188 -0.002,-10e-4 -0.0187,-0.009 h -0.34383 l -0.29516,0.29501 -6e-5,0.34368 0.01,0.0209 0.0188,0.0527 0.0142,0.0566 0.009,0.0577 0.003,0.0583 -0.003,0.0583 -0.009,0.0577 -0.0142,0.0566 -0.0197,0.0549 -0.009,0.0186 -5e-5,0.31891 h -0.35722 l -0.0109,0.004 -0.0566,0.0142 -0.0577,0.009 z"
       stroke="#000000"
       fill="#d3d3d3"
       stroke-width="0.5"
       id="path1-29"
       style="stroke-width:0.3;stroke-dasharray:none" /><path
       d="m 64.394355,54.076947 h 9 v 1.83164 h 3.25 V 40.548944 h -15.5 v 15.359643 h 3.25 z m 4.5,-3.82775 -0.0583,-0.003 -0.0577,-0.009 -0.0566,-0.0142 -0.0109,-0.004 h -0.35722 l -5e-5,-0.31891 -0.009,-0.0186 -0.0197,-0.0549 -0.0142,-0.0566 -0.009,-0.0577 -0.003,-0.0583 0.003,-0.0583 0.009,-0.0577 0.0142,-0.0566 0.0188,-0.0527 9.3e-4,-0.002 0.009,-0.0189 -6e-5,-0.34368 -0.29516,-0.29501 h -0.34383 l -0.0209,0.01 -0.0527,0.0188 -0.0566,0.0142 -0.0578,0.009 -0.0583,0.003 -0.0583,-0.003 -0.0578,-0.009 -0.0566,-0.0142 -0.055,-0.0196 -0.0186,-0.009 h -0.31924 l -2.3e-4,-0.35738 -0.004,-0.0109 -0.0142,-0.0567 -0.009,-0.0578 -0.003,-0.0583 0.003,-0.0583 0.009,-0.0578 0.0142,-0.0567 0.004,-0.0109 -2.4e-4,-0.35752 h 0.31937 l 0.0186,-0.009 0.055,-0.0197 0.0567,-0.0142 0.0578,-0.009 0.0583,-0.003 0.0584,0.003 0.0578,0.009 0.0567,0.0142 0.0528,0.0189 0.003,10e-4 0.0183,0.008 h 0.34396 l 0.29515,-0.29531 -6e-5,-0.34413 -0.008,-0.0185 -0.001,-0.002 -0.0189,-0.0528 -0.0142,-0.0567 -0.009,-0.0578 -0.003,-0.0584 0.003,-0.0584 0.009,-0.0578 0.0142,-0.0567 0.0197,-0.055 0.009,-0.0187 -4e-5,-0.31968 h 0.35768 l 0.0109,-0.004 0.0567,-0.0142 0.0578,-0.009 0.0584,-0.003 0.0584,0.003 0.0578,0.009 0.0567,0.0142 0.0109,0.004 h 0.35768 l -4e-5,0.31968 0.009,0.0187 0.0197,0.055 0.0142,0.0567 0.009,0.0578 0.003,0.0584 -0.003,0.0584 -0.009,0.0578 -0.0142,0.0567 -0.0189,0.0528 -10e-4,0.003 -0.008,0.018 -7e-5,0.34413 0.29515,0.29531 h 0.34397 l 0.0208,-0.01 0.0528,-0.0189 0.0567,-0.0142 0.0578,-0.009 0.0584,-0.003 0.0584,0.003 0.0578,0.009 0.0567,0.0142 0.055,0.0197 0.0186,0.009 h 0.31937 l -2.4e-4,0.35752 0.004,0.0109 0.0142,0.0567 0.009,0.0578 0.003,0.0583 -0.003,0.0583 -0.009,0.0578 -0.0142,0.0567 -0.004,0.0109 -2.3e-4,0.35738 h -0.31924 l -0.0186,0.009 -0.055,0.0196 -0.0566,0.0142 -0.0578,0.009 -0.0583,0.003 -0.0583,-0.003 -0.0578,-0.009 -0.0566,-0.0142 -0.0527,-0.0188 -0.002,-10e-4 -0.0187,-0.009 h -0.34383 l -0.29516,0.29501 -6e-5,0.34368 0.01,0.0209 0.0188,0.0527 0.0142,0.0566 0.009,0.0577 0.003,0.0583 -0.003,0.0583 -0.009,0.0577 -0.0142,0.0566 -0.0197,0.0549 -0.009,0.0186 -5e-5,0.31891 h -0.35722 l -0.0109,0.004 -0.0566,0.0142 -0.0577,0.009 z"
       stroke="#000000"
       fill="#d3d3d3"
       stroke-width="0.5"
       id="path1-4"
       style="stroke-width:0.3;stroke-dasharray:none" /><path
       d="m 104.75887,106.51749 v 11 h -1.25 v -11 h -3.5 v 0.4 l -0.9,0.125 v 2.74999 l 0.3,0.0417 v 1.58332 h 0.003 v 0.0588 l 0.0229,0.11536 0.0451,0.10867 0.0653,0.0978 0.0832,0.0832 0.0978,0.0653 0.1086,0.045 0.1154,0.0229 h 0.0587 v 4.02116 l -0.0414,0.0172 -0.0489,0.0327 -0.0416,0.0416 -0.0327,0.0489 -0.0225,0.0543 -0.0114,0.0577 v 0.0588 l 0.0114,0.0577 0.0225,0.0543 0.0327,0.0489 0.0416,0.0416 0.0489,0.0327 0.0414,0.0171 v 8.26831 h 22.4 v -8.26831 l 0.0414,-0.0171 0.0489,-0.0327 0.0416,-0.0416 0.0327,-0.0489 0.0225,-0.0543 0.0115,-0.0577 v -0.0588 l -0.0115,-0.0577 -0.0225,-0.0543 -0.0327,-0.0489 -0.0416,-0.0416 -0.0489,-0.0327 -0.0414,-0.0172 v -4.02116 h 0.0588 l 0.11536,-0.0229 0.10867,-0.045 0.0978,-0.0653 0.0832,-0.0832 0.0653,-0.0978 0.045,-0.10867 0.023,-0.11536 v -0.0588 h 0.003 v -1.58334 l 0.29987,-0.0417 v -2.74999 l -0.9,-0.125 v -0.4 h -3.5 v 11 h -1.25 v -11 z"
       stroke="#000000"
       fill="#d3d3d3"
       stroke-width="0.5"
       id="path1-5"
       style="stroke-width:0.3;stroke-dasharray:none" /></g></svg>
