<?xml version="1.0" encoding="UTF-8" standalone="no"?>
<!-- Created with Inkscape (http://www.inkscape.org/) -->

<svg
   width="55.310898mm"
   height="24.383698mm"
   viewBox="0 0 55.310898 24.383698"
   version="1.1"
   id="svg5"
   xml:space="preserve"
   inkscape:export-filename="polyfabriq_logo.svg"
   inkscape:export-xdpi="96"
   inkscape:export-ydpi="96"
   xmlns:inkscape="http://www.inkscape.org/namespaces/inkscape"
   xmlns:sodipodi="http://sodipodi.sourceforge.net/DTD/sodipodi-0.dtd"
   xmlns="http://www.w3.org/2000/svg"
   xmlns:svg="http://www.w3.org/2000/svg"><sodipodi:namedview
     id="namedview7"
     pagecolor="#ffffff"
     bordercolor="#000000"
     borderopacity="0.25"
     inkscape:showpageshadow="2"
     inkscape:pageopacity="0.0"
     inkscape:pagecheckerboard="0"
     inkscape:deskcolor="#d1d1d1"
     inkscape:document-units="mm"
     showgrid="false" /><defs
     id="defs2" /><g
     inkscape:label="Layer 1"
     inkscape:groupmode="layer"
     id="layer1"
     transform="translate(-56.192582,-159.81727)"><path
       style="fill:#000000;stroke-width:0.0846667"
       d="m 90.704079,184.12823 c -0.241583,-0.10794 -2.956796,-5.06267 -3.254242,-5.93836 -0.131083,-0.38591 -1.453736,-9.62708 -1.406024,-9.82368 0.125747,-0.51814 0.222839,-0.54786 4.789219,-1.46599 2.504301,-0.50352 5.345501,-1.01557 6.858,-1.23597 l 2.582328,-0.37629 4.60965,-0.22202 c 4.84699,-0.23346 4.89205,-0.23232 5.08495,0.12812 0.0395,0.0738 0.40116,2.49467 0.80367,5.37968 l 0.73185,5.24548 -0.22596,1.31234 c -0.36959,2.14653 -0.14637,1.99565 -3.68737,2.49229 -2.37713,0.3334 -3.31766,0.51469 -7.02166,1.35339 l -4.27686,0.96842 -2.410272,1.10646 c -2.577975,1.18345 -2.782231,1.25263 -3.177279,1.07613 z m 2.933702,-2.0795 2.402251,-1.09414 4.190998,-0.95013 c 3.57361,-0.81016 4.59926,-1.00839 6.96237,-1.34561 1.52425,-0.21752 2.79134,-0.41547 2.81575,-0.43988 0.0244,-0.0244 0.13938,-0.57434 0.25549,-1.22207 l 0.21112,-1.1777 -0.68799,-4.953 c -0.3784,-2.72415 -0.69394,-4.96055 -0.70121,-4.96978 -0.007,-0.009 -1.95511,0.0763 -4.32854,0.19014 l -4.31532,0.20693 -2.370668,0.33895 c -1.358232,0.19419 -4.21709,0.70855 -6.69416,1.2044 l -4.323492,0.86547 0.662554,4.57445 0.662554,4.57444 0.528272,1.0192 c 1.717937,3.31443 2.227245,4.27085 2.274688,4.27162 0.0292,5e-4 1.134095,-0.49151 2.455333,-1.09329 z m -1.779778,-0.45103 c -0.08489,-0.1979 -0.297372,-0.69266 -0.472183,-1.09945 -0.399257,-0.92908 -0.435135,-0.86845 0.832036,-1.40599 1.303545,-0.55297 1.164412,-0.61022 1.716968,0.70649 0.570642,1.35981 0.608194,1.25162 -0.604126,1.74058 -1.261653,0.50886 -1.279169,0.50955 -1.472695,0.0584 z m 1.150491,-0.49337 c 0.360728,-0.1433 0.683555,-0.27765 0.717394,-0.29856 0.04482,-0.0277 -0.446411,-1.36637 -0.563697,-1.53616 -0.01225,-0.0177 -1.402758,0.56206 -1.459912,0.60874 -0.0234,0.0191 0.597263,1.48652 0.62875,1.48652 0.01188,0 0.316736,-0.11724 0.677465,-0.26054 z m 1.77704,-0.39563 c -0.145398,-0.25072 -0.826972,-2.2505 -0.794793,-2.33197 0.06062,-0.15345 2.237937,-0.87988 2.333037,-0.77838 0.120463,0.12858 0.876834,2.23211 0.841124,2.33924 -0.06402,0.19205 -2.295746,0.91531 -2.379368,0.77111 z m 0.933822,-0.71057 c 0.269505,-0.0998 0.574796,-0.21278 0.678425,-0.25112 l 0.188415,-0.0697 -0.266605,-0.74372 c -0.146633,-0.40904 -0.278133,-0.75868 -0.292221,-0.77697 -0.02175,-0.0282 -0.460068,0.11685 -1.274682,0.42191 l -0.186678,0.0699 0.271344,0.76518 c 0.14924,0.42085 0.29849,0.76534 0.331669,0.76555 0.03318,1.7e-4 0.280828,-0.0813 0.550333,-0.18104 z m -4.880535,-1.02509 c -0.04108,-0.10478 -0.250855,-0.6085 -0.466173,-1.11939 -0.492538,-1.16865 -0.529003,-1.0826 0.668907,-1.57839 1.270597,-0.52587 1.170257,-0.56617 1.710198,0.68694 0.565485,1.31241 0.604466,1.19861 -0.597428,1.7442 -1.137694,0.51645 -1.211685,0.53144 -1.315504,0.26664 z m 1.061787,-0.70885 c 0.36745,-0.16867 0.677507,-0.31462 0.689017,-0.32431 0.01924,-0.0162 -0.564225,-1.41035 -0.6149,-1.46925 -0.01673,-0.0195 -1.252541,0.46208 -1.374825,0.53569 -0.01885,0.0113 0.599682,1.56343 0.623375,1.56424 0.0051,1.6e-4 0.309883,-0.1377 0.677333,-0.30637 z m 8.301462,0.41251 c -0.0959,-0.15629 -0.405898,-2.41405 -0.340338,-2.47855 0.11139,-0.10961 2.326188,-0.44583 2.404968,-0.36509 0.10699,0.10965 0.44473,2.49309 0.3641,2.56946 -0.13432,0.1272 -2.36445,0.37897 -2.42873,0.27418 z m 1.27779,-0.57819 c 0.70076,-0.0657 0.66206,0.0116 0.51645,-1.03047 -0.11063,-0.79169 -0.0403,-0.74953 -1.0051,-0.60271 l -0.63682,0.0969 0.1266,0.83467 c 0.10201,0.67258 0.15169,0.82733 0.25582,0.79689 0.0711,-0.0208 0.40544,-0.0637 0.74305,-0.0953 z m 1.77021,0.40886 c -0.0959,-0.1563 -0.4059,-2.41405 -0.34034,-2.47856 0.11139,-0.10961 2.32619,-0.44583 2.40497,-0.36509 0.10699,0.10965 0.44473,2.4931 0.3641,2.56946 -0.13432,0.12721 -2.36445,0.37897 -2.42873,0.27419 z m 1.27779,-0.57819 c 0.70076,-0.0657 0.66206,0.0116 0.51645,-1.03048 -0.11063,-0.79168 -0.0403,-0.74952 -1.0051,-0.6027 l -0.63682,0.0969 0.1266,0.83467 c 0.10201,0.67259 0.15169,0.82734 0.25582,0.7969 0.0711,-0.0208 0.40544,-0.0637 0.74305,-0.0953 z m 1.77024,0.40886 c -0.0917,-0.14956 -0.32654,-2.40886 -0.25754,-2.47738 0.11484,-0.11406 2.23912,-0.45124 2.32013,-0.36828 0.10837,0.11099 0.44768,2.49422 0.36611,2.57147 -0.13431,0.1272 -2.36447,0.37897 -2.4287,0.27419 z m 1.8917,-0.77565 c 3.4e-4,-0.41938 -0.20881,-1.5316 -0.2881,-1.53208 -0.50678,-0.003 -1.4031,0.21471 -1.3701,0.33286 0.0205,0.0734 0.0618,0.38102 0.0918,0.6837 0.0866,0.87378 0.0236,0.81955 0.84628,0.72915 0.56821,-0.0624 0.72008,-0.10749 0.72016,-0.21363 z m -14.553434,0.22531 c -0.362788,-0.97146 -0.709747,-2.18965 -0.641215,-2.25134 0.144799,-0.13034 2.067213,-0.79515 2.176815,-0.75279 0.119806,0.0463 0.939731,2.21764 0.891756,2.36156 -0.104014,0.31204 -2.330666,0.90149 -2.427356,0.64257 z m 0.982323,-0.58357 c 0.269505,-0.0998 0.574796,-0.21278 0.678425,-0.25112 l 0.188415,-0.0697 -0.266605,-0.74372 c -0.146632,-0.40904 -0.275282,-0.75583 -0.285889,-0.77064 -0.03049,-0.0426 -1.306234,0.42446 -1.349148,0.4939 -0.03083,0.0499 0.184707,0.77333 0.422119,1.41685 0.05013,0.1359 0.03715,0.1375 0.612683,-0.0756 z m 2.196717,-0.89809 c -0.09555,-0.15577 -0.405904,-2.41382 -0.340345,-2.47629 0.109729,-0.10455 2.324258,-0.36557 2.403195,-0.28326 0.107027,0.1116 0.369625,2.40133 0.284583,2.48142 -0.142543,0.13426 -2.280316,0.38754 -2.347433,0.27813 z m 1.178372,-0.5736 c 0.322439,-0.0336 0.607954,-0.0734 0.634477,-0.0885 0.03548,-0.0202 -0.128943,-1.58568 -0.168682,-1.60604 -0.02818,-0.0144 -1.410819,0.16051 -1.435815,0.18168 -0.08341,0.0706 0.19717,1.64558 0.287017,1.6111 0.05321,-0.0204 0.360562,-0.0646 0.683003,-0.0982 z m 1.784964,-0.10374 c -0.0956,-0.15576 -0.405907,-2.41382 -0.340348,-2.47628 0.109733,-0.10455 2.324256,-0.36557 2.403236,-0.28326 0.10917,0.11376 0.44836,2.40703 0.36737,2.48382 -0.13529,0.12828 -2.365498,0.3813 -2.430258,0.27572 z m 1.277788,-0.57819 c 0.70054,-0.0656 0.66218,0.0112 0.51216,-1.02639 -0.082,-0.56699 -0.12708,-0.69576 -0.23283,-0.6648 -0.0721,0.0211 -0.40739,0.0643 -0.745,0.0959 -0.700528,0.0656 -0.662178,-0.0112 -0.51216,1.02639 0.082,0.56699 0.12708,0.69576 0.23284,0.6648 0.0721,-0.0211 0.40738,-0.0643 0.74499,-0.0959 z m 1.77021,0.40886 c -0.0956,-0.15577 -0.40591,-2.41382 -0.34035,-2.47628 0.10974,-0.10456 2.32426,-0.36558 2.40324,-0.28327 0.10917,0.11377 0.44836,2.40704 0.36737,2.48383 -0.13529,0.12828 -2.3655,0.3813 -2.43026,0.27572 z m 1.27779,-0.57819 c 0.70054,-0.0657 0.66218,0.0112 0.51216,-1.02639 -0.082,-0.56699 -0.12708,-0.69577 -0.23283,-0.66481 -0.0721,0.0211 -0.40739,0.0643 -0.745,0.0959 -0.70053,0.0656 -0.66218,-0.0112 -0.51216,1.02638 0.082,0.567 0.12708,0.69577 0.23284,0.66481 0.0721,-0.0211 0.40738,-0.0643 0.74499,-0.0959 z m 1.77024,0.40886 c -0.0915,-0.14921 -0.32656,-2.40868 -0.25755,-2.47519 0.0917,-0.0884 2.64117,-0.44889 2.78477,-0.39379 0.12679,0.0487 0.5134,2.41184 0.4104,2.5086 -0.13924,0.13081 -2.87279,0.46615 -2.93762,0.36038 z m 2.38953,-0.74987 c 0.0178,-0.015 -0.0166,-0.38355 -0.0764,-0.81897 l -0.10869,-0.79169 -0.89725,0.11626 c -0.49348,0.064 -0.93821,0.12935 -0.98829,0.14535 -0.0689,0.022 0.0531,1.57565 0.12684,1.61563 0.0264,0.0143 1.91854,-0.24522 1.94381,-0.26658 z m -14.92,-0.52013 c -0.0676,-0.11085 -0.32352,-2.40365 -0.280735,-2.51514 0.04966,-0.1294 2.238902,-0.43787 2.342425,-0.33006 0.110162,0.11474 0.449706,2.4074 0.368346,2.48715 -0.137551,0.13482 -2.365934,0.46316 -2.430036,0.35805 z m 1.302108,-0.6252 0.638378,-0.0971 -0.124438,-0.81358 c -0.06844,-0.44746 -0.12711,-0.81757 -0.130377,-0.82246 -0.0206,-0.0308 -1.44365,0.18905 -1.436885,0.22201 0.0046,0.0225 0.03661,0.36437 0.0711,0.75975 0.08483,0.97244 -0.0072,0.90201 0.982226,0.75143 z m 1.743704,-0.0548 c -0.09372,-0.15165 -0.402405,-2.4974 -0.33685,-2.55979 0.10874,-0.1035 2.32344,-0.3633 2.40166,-0.28173 0.107364,0.11195 0.369517,2.40096 0.284584,2.48486 -0.14607,0.14428 -2.280399,0.46829 -2.349394,0.35666 z m 1.238427,-0.62538 c 0.529803,-0.0806 0.649954,-0.12588 0.619925,-0.2334 -0.02049,-0.0734 -0.06178,-0.38101 -0.09177,-0.68369 -0.08656,-0.87379 -0.02362,-0.81955 -0.846279,-0.72916 -0.568203,0.0624 -0.720077,0.10749 -0.720162,0.21364 -3.39e-4,0.41938 0.208815,1.5316 0.288105,1.53208 0.05115,3.4e-4 0.388731,-0.0445 0.750177,-0.0995 z m -9.025365,0.37407 c -0.0919,-0.15151 -0.491859,-3.51372 -0.42556,-3.57746 0.112711,-0.10836 3.763641,-0.61908 3.841909,-0.53743 0.109198,0.11391 0.617246,3.50942 0.536786,3.58758 -0.141897,0.13784 -3.886405,0.63732 -3.953135,0.52731 z m 2.060525,-0.71201 c 0.721783,-0.10067 1.328629,-0.19638 1.348545,-0.21269 0.01992,-0.0163 -0.05365,-0.63132 -0.163485,-1.36668 l -0.199696,-1.33701 -1.487516,0.21611 c -0.8193,0.11904 -1.48277,0.25415 -1.476951,0.30078 0.0058,0.0466 0.07969,0.64665 0.164169,1.3335 l 0.153606,1.24884 0.174497,8e-5 c 0.09597,5e-5 0.765047,-0.0823 1.486831,-0.18294 z m 8.689747,0.28598 c -0.09372,-0.15164 -0.402406,-2.49739 -0.336851,-2.55978 0.108743,-0.10351 2.323435,-0.3633 2.401705,-0.28173 0.10949,0.11409 0.44828,2.40685 0.36737,2.48616 -0.14035,0.13757 -2.365867,0.46272 -2.432224,0.35535 z m 1.302734,-0.62226 0.63683,-0.0969 -0.12661,-0.83468 c -0.10201,-0.67258 -0.15169,-0.82733 -0.25582,-0.79689 -0.0711,0.0208 -0.40544,0.0637 -0.74305,0.0953 -0.700754,0.0657 -0.662052,-0.0116 -0.516448,1.03047 0.11063,0.79169 0.0403,0.74953 1.005098,0.60271 z m 1.74526,0.45293 c -0.0937,-0.15164 -0.4024,-2.49739 -0.33685,-2.55979 0.10875,-0.1035 2.32344,-0.36329 2.40171,-0.28173 0.10949,0.1141 0.44828,2.40686 0.36737,2.48617 -0.14035,0.13756 -2.36587,0.46272 -2.43223,0.35535 z m 1.30274,-0.62226 0.63683,-0.0969 -0.12661,-0.83467 c -0.10201,-0.67259 -0.15169,-0.82733 -0.25582,-0.79689 -0.0711,0.0208 -0.40544,0.0637 -0.74305,0.0953 -0.70076,0.0657 -0.66205,-0.0116 -0.51645,1.03047 0.11063,0.79169 0.0403,0.74953 1.0051,0.60271 z m 1.74709,0.45562 c -0.0887,-0.14406 -0.32351,-2.49623 -0.25574,-2.56149 0.0906,-0.0872 2.64116,-0.44663 2.78313,-0.39215 0.12711,0.0488 0.51317,2.41098 0.4104,2.51115 -0.13854,0.13503 -2.87348,0.54697 -2.93779,0.44249 z m 1.63776,-0.68259 0.80433,-0.14291 -0.127,-0.80678 -0.127,-0.80678 -0.97366,0.12945 c -0.53552,0.0712 -0.9699,0.1485 -0.96528,0.17178 0.005,0.0233 0.0366,0.36583 0.0711,0.76121 0.086,0.98595 -0.0178,0.93127 1.31752,0.69403 z m -14.168259,-0.67207 c -0.09167,-0.14956 -0.326543,-2.40886 -0.257546,-2.47738 0.114846,-0.11406 2.239125,-0.45124 2.320136,-0.36828 0.10837,0.11099 0.447678,2.49422 0.366107,2.57147 -0.134311,0.1272 -2.36447,0.37897 -2.428697,0.27419 z m 1.891702,-0.77565 c 3.39e-4,-0.41938 -0.208815,-1.5316 -0.288105,-1.53208 -0.506777,-0.003 -1.403102,0.21471 -1.370102,0.33286 0.02049,0.0734 0.06178,0.38102 0.09177,0.6837 0.08656,0.87378 0.02362,0.81955 0.846279,0.72915 0.568204,-0.0624 0.720077,-0.10749 0.720162,-0.21363 z m 1.071631,0.0983 c -0.0916,-0.14945 -0.326546,-2.4088 -0.257546,-2.47672 0.112526,-0.11076 2.327312,-0.44856 2.405785,-0.36692 0.104303,0.1085 0.365848,2.48839 0.282188,2.56773 -0.135408,0.12841 -2.365651,0.3816 -2.430427,0.27591 z m 1.904357,-0.72049 c 0.02842,-0.25651 -0.128923,-1.51148 -0.19459,-1.55206 -0.182213,-0.11262 -1.516083,0.15542 -1.476582,0.29672 0.02066,0.0739 0.06209,0.38198 0.09208,0.68467 0.08713,0.87947 0.02319,0.82503 0.849727,0.72362 0.397233,-0.0487 0.725449,-0.11757 0.729369,-0.15295 z m 1.143611,0.0432 c -0.09588,-0.1563 -0.405902,-2.41405 -0.340345,-2.47856 0.111398,-0.10961 2.326193,-0.44583 2.404973,-0.36509 0.10699,0.10965 0.44473,2.4931 0.3641,2.56946 -0.13432,0.12721 -2.36445,0.37897 -2.428728,0.27419 z m 1.277788,-0.57819 c 0.70076,-0.0657 0.66206,0.0116 0.51645,-1.03048 -0.11063,-0.79168 -0.0403,-0.74952 -1.005098,-0.6027 l -0.636823,0.0969 0.126601,0.83467 c 0.102016,0.67259 0.151694,0.82734 0.255822,0.7969 0.07107,-0.0208 0.40544,-0.0637 0.743048,-0.0953 z m 1.77021,0.40886 c -0.0959,-0.1563 -0.4059,-2.41406 -0.34034,-2.47856 0.11139,-0.10961 2.32619,-0.44583 2.40497,-0.36509 0.10699,0.10965 0.44473,2.4931 0.3641,2.56946 -0.13432,0.12721 -2.36445,0.37897 -2.42873,0.27419 z m 1.27779,-0.5782 c 0.70076,-0.0657 0.66206,0.0116 0.51645,-1.03047 -0.11063,-0.79169 -0.0403,-0.74953 -1.0051,-0.60271 l -0.63682,0.0969 0.1266,0.83467 c 0.10201,0.67259 0.15169,0.82734 0.25582,0.79689 0.0711,-0.0208 0.40544,-0.0637 0.74305,-0.0953 z m 1.77008,0.40886 c -0.0887,-0.14411 -0.32351,-2.49625 -0.25574,-2.5618 0.11128,-0.10763 2.74639,-0.45058 2.82708,-0.36793 0.10791,0.11053 0.44685,2.49394 0.36552,2.57028 -0.1387,0.13019 -2.87206,0.46474 -2.93686,0.35945 z m 2.38865,-0.74882 c 0.0172,-0.0144 -0.0167,-0.40209 -0.0752,-0.86147 l -0.10644,-0.83522 -0.89845,0.11642 c -0.49415,0.064 -0.93937,0.12949 -0.98937,0.14546 -0.0835,0.0267 -0.0265,0.99401 0.0902,1.53137 l 0.0376,0.17323 0.95522,-0.12177 c 0.52537,-0.067 0.96927,-0.13358 0.98645,-0.14802 z m -31.315558,15.50982 c -0.162983,-0.0615 -1.305983,-0.57698 -2.54,-1.1456 l -2.243666,-1.03386 -4.233334,-0.96783 c -3.703979,-0.84682 -4.576553,-1.01601 -6.978124,-1.35303 -3.541028,-0.49692 -3.317784,-0.34602 -3.687368,-2.49251 l -0.225958,-1.31233 0.731846,-5.24548 c 0.767663,-5.5022 0.757853,-5.45093 1.075607,-5.62099 0.698528,-0.37384 12.254789,0.6457 16.195997,1.42888 0.931334,0.18507 1.719025,0.33636 1.750425,0.33621 0.0314,-1.6e-4 -0.0144,-0.20371 -0.101791,-0.45234 -0.723286,-2.05788 -0.126414,-6.36362 0.882138,-6.36362 0.438674,0 0.459529,0.20211 0.10507,1.01823 -0.726347,1.67238 -0.767596,4.03139 -0.09663,5.52649 l 0.219149,0.48833 2.088697,0.41406 c 2.21787,0.43966 2.399342,0.51287 2.526446,1.0193 0.07299,0.2908 -1.223322,9.5684 -1.388417,9.93682 -0.0787,0.17561 -0.789764,1.53195 -1.580152,3.01409 -1.649176,3.09253 -1.671489,3.11757 -2.499931,2.80518 z m 1.693333,-3.44957 c 0.721784,-1.35672 1.364482,-2.58515 1.428218,-2.72984 0.08969,-0.20361 1.387819,-9.19487 1.335599,-9.25076 -0.663926,-0.71058 -21.496422,-3.36232 -21.951357,-2.79416 -0.0058,0.007 -0.320136,2.24202 -0.698531,4.96617 l -0.68799,4.953 0.211114,1.17769 c 0.257492,1.43642 -0.154094,1.20508 2.903059,1.63169 2.236518,0.31209 3.205818,0.50042 6.918889,1.34428 l 4.318,0.98133 2.370666,1.0877 c 1.303867,0.59823 2.408767,1.09039 2.455334,1.09368 0.04657,0.003 0.675216,-1.10406 1.396999,-2.46078 z m -3.513666,0.82292 c -1.210959,-0.53317 -1.17345,-0.42545 -0.606388,-1.74151 0.54126,-1.25618 0.44004,-1.21644 1.759069,-0.69064 1.248968,0.49788 1.208422,0.38623 0.636121,1.75169 -0.549015,1.30991 -0.44716,1.27117 -1.788802,0.68046 z m 1.327574,-0.89383 c 0.171366,-0.41819 0.284541,-0.77705 0.2515,-0.79748 -0.130271,-0.0805 -1.390146,-0.56346 -1.409791,-0.54042 -0.104974,0.12313 -0.62404,1.46815 -0.57382,1.4869 0.03623,0.0135 0.35162,0.15336 0.70087,0.31075 0.34925,0.15739 0.65405,0.28942 0.677334,0.29339 0.02328,0.004 0.182542,-0.33494 0.353907,-0.75314 z m -4.117819,-0.28999 c -1.217156,-0.43989 -1.164618,-0.31316 -0.678291,-1.63614 0.511347,-1.39105 0.36238,-1.31323 1.660914,-0.86774 1.336353,0.45847 1.280559,0.33479 0.771396,1.70988 -0.494915,1.3366 -0.38736,1.28792 -1.754019,0.794 z m 1.283589,-0.98495 0.271344,-0.76517 -0.186677,-0.0699 c -0.814615,-0.30506 -1.252933,-0.45014 -1.274682,-0.42191 -0.151671,0.19687 -0.540495,1.52841 -0.45526,1.55905 0.05716,0.0206 0.351581,0.13147 0.654264,0.24648 0.302684,0.11501 0.588434,0.2108 0.635,0.21288 0.04657,0.002 0.206772,-0.34057 0.356011,-0.76142 z m 2.649656,-0.67113 c -1.165711,-0.49243 -1.130358,-0.38271 -0.560866,-1.74067 0.546411,-1.30293 0.440889,-1.26053 1.706862,-0.68585 1.208547,0.54862 1.168967,0.43409 0.603747,1.74691 -0.543088,1.2614 -0.454203,1.22688 -1.749743,0.67961 z m 1.292384,-0.9068 c 0.1724,-0.40436 0.304565,-0.7426 0.293702,-0.75166 -0.06122,-0.051 -1.361504,-0.62754 -1.374313,-0.60934 -0.05335,0.0758 -0.634111,1.53111 -0.615606,1.54264 0.06086,0.0379 1.298664,0.54675 1.337798,0.54991 0.02473,0.002 0.18602,-0.3272 0.358419,-0.73155 z m -10.690384,0.80684 c -1.225609,-0.20819 -1.157307,-0.095 -0.920489,-1.52554 l 0.200822,-1.21311 0.508,0.0238 c 0.2794,0.0131 0.83185,0.0703 1.227667,0.127 l 0.719667,0.10318 -0.02637,0.46566 c -0.0145,0.25612 -0.0907,0.84667 -0.169333,1.31234 l -0.14296,0.84666 -0.211667,0.0127 c -0.116416,0.007 -0.649816,-0.0617 -1.185333,-0.15271 z m 1.087945,-1.10882 c 0.145609,-1.04203 0.184311,-0.96481 -0.516445,-1.03047 -0.337608,-0.0316 -0.671982,-0.0745 -0.743053,-0.0953 -0.104145,-0.0304 -0.153862,0.12467 -0.256197,0.79937 l -0.126977,0.83715 0.510197,0.0821 c 0.280608,0.0452 0.628248,0.0874 0.772533,0.0939 l 0.262336,0.0118 z m -4.178278,0.89515 c -1.172489,-0.1577 -1.110414,-0.0576 -0.891355,-1.43802 0.22883,-1.44204 0.104608,-1.34191 1.453803,-1.17183 1.404568,0.17706 1.316389,0.0546 1.077708,1.49642 l -0.200823,1.21311 -0.254,0.0128 c -0.1397,0.007 -0.6731,-0.0436 -1.185333,-0.11248 z m 1.126039,-1.06888 c 0.14997,-1.03725 0.188313,-0.96043 -0.512206,-1.02608 -0.337608,-0.0316 -0.673672,-0.075 -0.746808,-0.0965 -0.122649,-0.0359 -0.432796,1.50811 -0.322632,1.60622 0.01775,0.0158 0.337073,0.0662 0.709607,0.11201 0.372533,0.0458 0.698276,0.0887 0.723872,0.0953 0.0256,0.007 0.09227,-0.30432 0.148167,-0.69092 z m -4.174039,0.89955 c -1.172383,-0.15769 -1.109511,-0.0537 -0.886175,-1.46573 0.223699,-1.41431 0.106375,-1.32556 1.492344,-1.12887 l 1.087164,0.15428 -0.02314,0.55033 c -0.01273,0.30269 -0.06988,0.87419 -0.127,1.27 l -0.103857,0.71967 -0.254,0.0128 c -0.1397,0.007 -0.6731,-0.0436 -1.185333,-0.11247 z m 1.101469,-1.21907 c 0.0526,-0.42046 0.07394,-0.77683 0.04742,-0.79194 -0.02652,-0.0151 -0.312038,-0.0549 -0.634478,-0.0885 -0.32244,-0.0336 -0.62979,-0.0778 -0.683002,-0.0982 -0.09,-0.0345 -0.370013,1.5386 -0.287017,1.61251 0.04617,0.0411 1.379474,0.18771 1.424186,0.15658 0.02049,-0.0143 0.08029,-0.36994 0.13289,-0.79041 z m 11.598531,0.56298 c -1.204758,-0.43513 -1.162369,-0.3242 -0.649434,-1.69956 0.483318,-1.29595 0.378285,-1.24712 1.665693,-0.77439 1.200656,0.44088 1.154262,0.32664 0.692706,1.70572 -0.438667,1.31069 -0.335478,1.2643 -1.708965,0.76823 z m 1.240818,-0.97513 c 0.130252,-0.38763 0.219708,-0.73248 0.198792,-0.76632 -0.04255,-0.0688 -1.318358,-0.53526 -1.348613,-0.49303 -0.153751,0.21461 -0.531994,1.52286 -0.448928,1.55272 0.05716,0.0206 0.351581,0.13137 0.654264,0.24625 0.702946,0.26679 0.666526,0.2876 0.944485,-0.53962 z m -4.373485,-0.35684 c -1.174083,-0.20743 -1.107361,-0.1016 -0.935479,-1.4838 0.178793,-1.43778 0.06121,-1.34044 1.413261,-1.17 1.399841,0.17647 1.308207,0.0511 1.090071,1.49135 -0.237858,1.57046 -0.0494,1.43073 -1.567853,1.16245 z m 1.045611,-1.10843 c 0.145729,-1.04289 0.197078,-0.95657 -0.622665,-1.04665 -0.822663,-0.0904 -0.759719,-0.14463 -0.846279,0.72915 -0.02999,0.30269 -0.07167,0.61158 -0.09263,0.68643 -0.03706,0.13234 0.541561,0.28015 1.243969,0.31779 l 0.220003,0.0118 z m -4.051278,0.43149 c -1.225609,-0.20819 -1.157307,-0.095 -0.920489,-1.52554 l 0.200823,-1.21311 0.508,0.0238 c 0.2794,0.0131 0.83185,0.0703 1.227666,0.127 l 0.719667,0.10318 -0.02637,0.46566 c -0.0145,0.25612 -0.0907,0.84667 -0.169333,1.31234 l -0.14296,0.84666 -0.211666,0.0127 c -0.116417,0.007 -0.649817,-0.0617 -1.185334,-0.15271 z m 1.087945,-1.10882 c 0.145609,-1.04203 0.184311,-0.96481 -0.516445,-1.03047 -0.337608,-0.0316 -0.671982,-0.0745 -0.743053,-0.0953 -0.104145,-0.0305 -0.153861,0.12467 -0.256197,0.79937 l -0.126977,0.83715 0.510197,0.0821 c 0.280608,0.0452 0.628249,0.0874 0.772533,0.0939 l 0.262337,0.0118 z m -4.135945,0.93949 c -1.225609,-0.20819 -1.157307,-0.095 -0.920489,-1.52555 l 0.200823,-1.21311 0.508,0.0238 c 0.2794,0.0131 0.83185,0.0703 1.227666,0.127 l 0.719667,0.10317 -0.02637,0.46567 c -0.0145,0.25612 -0.0907,0.84667 -0.169333,1.31233 l -0.14296,0.84667 -0.211666,0.0127 c -0.116417,0.007 -0.649817,-0.0617 -1.185334,-0.1527 z m 1.087945,-1.10882 c 0.145609,-1.04204 0.184311,-0.96481 -0.516445,-1.03048 -0.337608,-0.0316 -0.671982,-0.0745 -0.743053,-0.0953 -0.104145,-0.0305 -0.153861,0.12467 -0.256197,0.79937 l -0.126977,0.83715 0.510197,0.0821 c 0.280608,0.0452 0.628248,0.0874 0.772533,0.0939 l 0.262337,0.0118 z m -4.432278,0.93467 c -0.651933,-0.0916 -1.21748,-0.19723 -1.25677,-0.23471 -0.08127,-0.0775 0.257504,-2.46072 0.36552,-2.57136 0.08069,-0.0827 2.715803,0.2603 2.827083,0.36793 0.06777,0.0656 -0.167045,2.41769 -0.255743,2.5618 -0.05391,0.0876 -0.312163,0.0686 -1.68009,-0.12366 z m 1.35814,-1.22197 c 0.06739,-0.57699 0.0683,-0.81703 0.0032,-0.83786 -0.05021,-0.0161 -0.4956,-0.0816 -0.989747,-0.1456 l -0.89845,-0.11643 -0.106441,0.83523 c -0.126675,0.99401 -0.240657,0.86427 0.887341,1.01002 1.118058,0.14447 0.990116,0.23084 1.104139,-0.74536 z m 11.426527,-0.0894 c -1.17137,-0.15519 -1.106446,-0.0476 -0.890988,-1.47694 0.225116,-1.49345 0.110017,-1.39748 1.412543,-1.17774 1.351729,0.22805 1.264786,0.10826 1.090009,1.50178 -0.189216,1.50865 0.0081,1.36749 -1.611564,1.1529 z m 1.095668,-1.16844 c 0.03173,-0.32597 0.07486,-0.65268 0.09585,-0.72603 0.03382,-0.11819 -0.861765,-0.33591 -1.369188,-0.33286 -0.07949,5.1e-4 -0.288438,1.11307 -0.288105,1.53406 1.69e-4,0.16356 1.355741,0.35251 1.450432,0.20216 0.02933,-0.0466 0.07928,-0.35136 0.111011,-0.67733 z m -4.101335,0.49312 c -1.123699,-0.16021 -1.0604,-0.0551 -0.891692,-1.48069 0.176331,-1.48998 0.05747,-1.39116 1.411239,-1.17334 1.405917,0.22621 1.316895,0.099 1.078276,1.54047 l -0.200823,1.21311 -0.254,0.0136 c -0.1397,0.007 -0.65405,-0.0434 -1.143,-0.11314 z m 1.1048,-1.20201 0.126786,-0.83589 -0.69554,-0.10348 c -0.869397,-0.12935 -0.847547,-0.14637 -0.919417,0.71641 -0.03292,0.39519 -0.0649,0.74747 -0.07107,0.78286 -0.0062,0.0354 0.293578,0.1066 0.666112,0.15826 0.372533,0.0517 0.697361,0.0993 0.72184,0.10584 0.02448,0.007 0.101561,-0.36426 0.171293,-0.824 z m 5.8802,0.8228 c -2.065441,-0.30749 -1.888763,-0.0738 -1.567851,-2.07404 0.329877,-2.05616 0.06611,-1.8745 2.257978,-1.55504 2.249162,0.32781 2.043514,0.0778 1.753896,2.13226 l -0.24269,1.72158 -0.254,0.0137 c -0.1397,0.008 -1.016,-0.0998 -1.947333,-0.23842 z m 1.948546,-1.57441 c 0.08618,-0.68686 0.159267,-1.26788 0.162408,-1.29117 0.0031,-0.0233 -0.664379,-0.13968 -1.48338,-0.25867 l -1.489094,-0.21634 -0.196683,1.29634 c -0.108176,0.71299 -0.181034,1.30951 -0.161907,1.3256 0.05298,0.0446 2.36341,0.37109 2.708701,0.38279 l 0.303257,0.0103 z m -11.939213,1.27615 c -1.171465,-0.15756 -1.106422,-0.0496 -0.890988,-1.47882 0.225081,-1.49321 0.100724,-1.39263 1.452869,-1.17507 1.405917,0.22621 1.316895,0.099 1.078275,1.54046 l -0.200822,1.21311 -0.254,0.0128 c -0.1397,0.007 -0.6731,-0.0436 -1.185334,-0.11248 z m 1.146995,-1.20096 0.126648,-0.83498 -0.636821,-0.0969 c -0.964776,-0.14682 -0.894472,-0.18898 -1.0051,0.60271 -0.145967,1.0446 -0.194216,0.9599 0.601112,1.05517 0.384175,0.046 0.718528,0.0894 0.743006,0.0963 0.02448,0.007 0.101499,-0.36308 0.171155,-0.82232 z m -4.194995,1.03163 c -1.171465,-0.15757 -1.106421,-0.0496 -0.890988,-1.47882 0.225081,-1.49322 0.100724,-1.39264 1.452869,-1.17508 1.405917,0.22622 1.316895,0.099 1.078275,1.54047 l -0.200822,1.21311 -0.254,0.0128 c -0.1397,0.007 -0.6731,-0.0436 -1.185334,-0.11247 z m 1.146995,-1.20097 0.126648,-0.83497 -0.636821,-0.0969 c -0.964777,-0.14682 -0.894473,-0.18898 -1.005099,0.60271 -0.145968,1.0446 -0.194217,0.9599 0.601111,1.05517 0.384175,0.046 0.718528,0.0894 0.743007,0.0963 0.02448,0.007 0.101498,-0.36308 0.171154,-0.82232 z m -4.448994,0.98649 c -0.651934,-0.0916 -1.21748,-0.19723 -1.256771,-0.23471 -0.08147,-0.0777 0.257643,-2.46087 0.365961,-2.57181 0.0809,-0.0829 2.713604,0.33847 2.828283,0.45263 0.069,0.0687 -0.165861,2.32796 -0.257546,2.47755 -0.05368,0.0876 -0.312032,0.0686 -1.679927,-0.12366 z m 1.349668,-1.12517 c 0.03173,-0.32597 0.07462,-0.65193 0.09532,-0.72435 0.03294,-0.11527 -1.350483,-0.42419 -1.878589,-0.4195 -0.08785,7.6e-4 -0.352627,1.5766 -0.276167,1.64363 0.102282,0.0897 1.901356,0.25488 1.948429,0.17893 0.02933,-0.0473 0.07928,-0.35275 0.111011,-0.67871 z m 11.434998,-0.18435 c -1.172383,-0.15769 -1.109512,-0.0537 -0.886175,-1.46573 0.223699,-1.41431 0.106375,-1.32556 1.492343,-1.12887 l 1.087165,0.15428 -0.02314,0.55033 c -0.01273,0.30269 -0.06988,0.87419 -0.127,1.27 l -0.103857,0.71967 -0.254,0.0128 c -0.1397,0.007 -0.6731,-0.0436 -1.185333,-0.11247 z m 1.101469,-1.21907 c 0.0526,-0.42046 0.07394,-0.77683 0.04742,-0.79194 -0.02652,-0.0151 -0.312038,-0.0549 -0.634477,-0.0885 -0.322441,-0.0336 -0.629792,-0.0778 -0.683003,-0.0982 -0.09,-0.0345 -0.370013,1.5386 -0.287017,1.61251 0.04618,0.0411 1.379473,0.18771 1.424186,0.15658 0.02048,-0.0143 0.08029,-0.36994 0.13289,-0.79041 z m -4.064802,0.53986 c -1.173084,-0.15542 -1.107506,-0.0546 -0.93548,-1.43798 0.178793,-1.43778 0.06121,-1.34044 1.413261,-1.17 1.401046,0.17662 1.308953,0.0584 1.133783,1.45508 -0.189216,1.50865 0.0081,1.36749 -1.611564,1.1529 z m 1.101828,-1.2239 c 0.03226,-0.36446 0.06425,-0.69159 0.07108,-0.72694 0.02743,-0.14194 -1.46584,-0.25148 -1.507089,-0.11055 -0.03967,0.13552 -0.15931,1.30689 -0.145146,1.42105 0.01244,0.10026 1.401347,0.24979 1.466576,0.15789 0.03075,-0.0433 0.08231,-0.37698 0.114577,-0.74145 z m -4.149828,0.54844 c -1.172489,-0.1577 -1.110414,-0.0576 -0.891356,-1.43802 0.228831,-1.44204 0.104609,-1.34191 1.453804,-1.17183 1.404567,0.17706 1.316389,0.0546 1.077708,1.49642 l -0.200823,1.21311 -0.254,0.0128 c -0.1397,0.007 -0.6731,-0.0436 -1.185333,-0.11248 z m 1.126038,-1.06888 c 0.149971,-1.03725 0.188314,-0.96043 -0.512205,-1.02608 -0.337608,-0.0316 -0.673671,-0.0751 -0.746808,-0.0965 -0.122649,-0.0359 -0.432796,1.50811 -0.322632,1.60622 0.01775,0.0158 0.337073,0.0662 0.709607,0.11201 0.372533,0.0458 0.698275,0.0887 0.723872,0.0953 0.0256,0.007 0.09227,-0.30433 0.148166,-0.69092 z m -4.174038,0.89955 c -1.172489,-0.15771 -1.110414,-0.0576 -0.891355,-1.43802 0.22883,-1.44205 0.104608,-1.34192 1.453803,-1.17184 1.404568,0.17706 1.316389,0.0546 1.077708,1.49643 l -0.200823,1.21311 -0.254,0.0128 c -0.1397,0.007 -0.6731,-0.0436 -1.185333,-0.11247 z m 1.126038,-1.06888 c 0.149971,-1.03725 0.188314,-0.96044 -0.512205,-1.02608 -0.337608,-0.0316 -0.673672,-0.0751 -0.746808,-0.0965 -0.122649,-0.0359 -0.432796,1.50811 -0.322632,1.60621 0.01775,0.0158 0.337073,0.0662 0.709607,0.11202 0.372533,0.0458 0.698275,0.0887 0.723872,0.0953 0.0256,0.007 0.09227,-0.30432 0.148166,-0.69091 z m -4.428038,0.8544 c -0.651933,-0.0916 -1.217897,-0.19765 -1.257698,-0.23564 -0.102889,-0.0982 0.283488,-2.46097 0.410399,-2.50967 0.143605,-0.0551 2.693073,0.30541 2.784773,0.39379 0.06901,0.0665 -0.166092,2.32597 -0.257547,2.47518 -0.05368,0.0876 -0.312031,0.0686 -1.679927,-0.12366 z m 1.355828,-1.18063 c 0.03226,-0.36446 0.06425,-0.69159 0.07108,-0.72694 0.0068,-0.0354 -0.425727,-0.12254 -0.961243,-0.19377 l -0.973667,-0.1295 -0.09939,0.59517 c -0.05466,0.32734 -0.102288,0.69392 -0.105834,0.81463 l -0.0064,0.21946 0.9525,0.11967 c 1.103073,0.13859 1.045717,0.17428 1.122995,-0.69872 z"
       id="path1078"
       inkscape:export-filename="polykybd.svg"
       inkscape:export-xdpi="275.53339"
       inkscape:export-ydpi="275.53339" /></g></svg>
