<?xml version="1.0" encoding="UTF-8" standalone="no"?>
<!-- Created with Inkscape (http://www.inkscape.org/) -->

<svg
   width="134.79617mm"
   height="134.64406mm"
   viewBox="0 0 134.79617 134.64406"
   version="1.1"
   id="svg5"
   xml:space="preserve"
   xmlns:inkscape="http://www.inkscape.org/namespaces/inkscape"
   xmlns:sodipodi="http://sodipodi.sourceforge.net/DTD/sodipodi-0.dtd"
   xmlns="http://www.w3.org/2000/svg"
   xmlns:svg="http://www.w3.org/2000/svg"><sodipodi:namedview
     id="namedview7"
     pagecolor="#ffffff"
     bordercolor="#000000"
     borderopacity="0.25"
     inkscape:showpageshadow="2"
     inkscape:pageopacity="0.0"
     inkscape:pagecheckerboard="0"
     inkscape:deskcolor="#d1d1d1"
     inkscape:document-units="mm"
     showgrid="false" /><defs
     id="defs2" /><g
     inkscape:label="Layer 1"
     inkscape:groupmode="layer"
     id="layer1"
     transform="translate(-33.621407,-45.140654)"><path
       style="fill:#000000;stroke-width:0.177574"
       d="M 43.584824,179.55127 C 38.23378,178.1082 34.81029,174.53943 33.964239,169.52242 l -0.342831,-2.03295 V 112.44138 57.393295 l 0.344344,-2.04195 c 0.793056,-4.70281 3.873904,-8.13134 8.798695,-9.79163 l 1.243021,-0.41906 h 57.090182 57.09019 l 1.24302,0.41906 c 4.6191,1.55724 7.9815,5.09995 8.70321,9.16996 0.37858,2.13496 0.37772,113.296635 -8.9e-4,115.421875 -0.71009,3.98593 -3.79203,7.33994 -8.30711,9.04044 l -1.46066,0.55012 -56.91261,0.0334 c -49.249126,0.0289 -57.041252,-0.001 -57.867976,-0.22424 z M 158.699,177.10205 c 3.74045,-1.18781 6.60502,-4.15929 7.20117,-7.46991 0.32128,-1.78417 0.25512,-113.153685 -0.0681,-114.636105 -0.70837,-3.2489 -3.44987,-6.03579 -7.07629,-7.19345 l -1.38537,-0.44225 H 101.09765 44.824887 l -1.385369,0.44225 c -4.008305,1.27957 -6.603919,4.17958 -7.237475,8.08623 -0.414169,2.55386 -0.414247,110.547975 -8.2e-5,113.110035 0.62931,3.89296 3.225017,6.79386 7.244025,8.09572 l 1.27178,0.41197 56.328734,0.008 56.32873,0.008 1.32377,-0.42037 z M 46.049574,159.85377 v -7.72449 h 7.635702 7.635701 v 7.72449 7.72449 h -7.635701 -7.635702 z m 18.822892,0 v -7.72449 h 7.724488 7.724489 v 7.72449 7.72449 h -7.724489 -7.724488 z m 19.000466,0 v -7.72449 h 7.635701 7.635704 v 7.72449 7.72449 h -7.635704 -7.635701 z m 19.000468,0 v -7.72449 h 7.6357 7.6357 v 7.72449 7.72449 h -7.6357 -7.6357 z m 18.82289,0 v -7.72449 h 7.6357 7.6357 v 7.72449 7.72449 h -7.6357 -7.6357 z m 19.00047,0 v -7.72449 h 7.6357 7.6357 v 7.72449 7.72449 h -7.6357 -7.6357 z M 46.049574,140.94208 v -7.6357 h 7.635702 7.635701 v 7.6357 7.63571 h -7.635701 -7.635702 z m 37.823358,0 v -7.6357 h 7.635701 7.635704 v 7.6357 7.63571 h -7.635704 -7.635701 z m 19.000468,0 v -7.6357 h 7.6357 7.6357 v 7.6357 7.63571 h -7.6357 -7.6357 z m 18.82289,0 v -7.6357 h 7.6357 7.6357 v 7.6357 7.63571 h -7.6357 -7.6357 z m 19.00047,0 v -7.6357 h 7.6357 7.6357 v 7.6357 7.63571 h -7.6357 -7.6357 z M 46.049574,121.94161 v -7.6357 h 7.635702 7.635701 v 7.6357 7.63571 h -7.635701 -7.635702 z m 94.647186,0 v -7.6357 h 7.6357 7.6357 v 7.6357 7.63571 h -7.6357 -7.6357 z M 46.049574,103.11872 v -7.635695 h 7.635702 7.635701 v 7.635695 7.6357 h -7.635701 -7.635702 z m 37.823358,0 v -7.635695 h 7.635701 7.635704 v 7.635695 7.6357 h -7.635704 -7.635701 z m 19.000468,0 v -7.635695 h 7.6357 7.6357 v 7.635695 7.6357 h -7.6357 -7.6357 z m 37.82336,0 v -7.635695 h 7.6357 7.6357 v 7.635695 7.6357 h -7.6357 -7.6357 z M 46.049574,84.118255 v -7.6357 h 7.635702 7.635701 v 7.6357 7.6357 h -7.635701 -7.635702 z m 94.647186,0 v -7.6357 h 7.6357 7.6357 v 7.6357 7.6357 h -7.6357 -7.6357 z M 46.049574,65.206575 v -7.72449 h 7.635702 7.635701 v 7.72449 7.72449 h -7.635701 -7.635702 z m 18.822892,0 v -7.72449 h 7.724488 7.724489 v 7.72449 7.72449 h -7.724489 -7.724488 z m 19.000466,0 v -7.72449 h 7.635701 7.635704 v 7.72449 7.72449 h -7.635704 -7.635701 z m 19.000468,0 v -7.72449 h 7.6357 7.6357 v 7.72449 7.72449 h -7.6357 -7.6357 z m 18.82289,0 v -7.72449 h 7.6357 7.6357 v 7.72449 7.72449 h -7.6357 -7.6357 z m 19.00047,0 v -7.72449 h 7.6357 7.6357 v 7.72449 7.72449 h -7.6357 -7.6357 z"
       id="path389" /></g></svg>
