<?xml version="1.0" encoding="UTF-8" standalone="no"?>
<svg
   baseprofile="tiny"
   fill="#6f9c76"
   height="464.72394"
   stroke="#ffffff"
   stroke-linecap="round"
   stroke-linejoin="round"
   stroke-width="0.5"
   version="1.2"
   viewbox="0 0 1000 513"
   width="905.02417"
   id="svg1"
   xmlns="http://www.w3.org/2000/svg"
   xmlns:svg="http://www.w3.org/2000/svg">
  <defs
     id="defs1" />
  <g
     id="features"
     style="fill:#1a1a1a"
     transform="translate(-46.747677,-23.350004)">
    <path
       d="m 930.3,96.7 c 5.53461,13.34121 -11.44474,19.88479 -10.46547,32.96225 -5.96475,10.48338 5.86681,11.22399 5.46547,19.13775 4.69921,6.28997 7.90308,11.83618 8.6,20.7 -2.70213,11.87806 18.66704,12.62016 10,24.7 7.76588,8.00425 10.56388,10.01137 3.8,19.8 -2.68764,4.21132 1.39399,14.57026 -8.9,14.5 2.63004,5.77423 4.14438,15.60648 4.7,26 3.35823,3.8849 -22.53791,11.25329 -24.21739,2.2647 -3.71809,7.43358 -17.07918,7.03227 -19.38261,-3.7647 -12.4937,-8.91831 -18.51515,-1.12785 -25.8,6.7 -13.15289,2.25805 -2.29386,10.76501 8.08973,10.13508 12.71831,-0.83262 12.45071,9.36569 17.61027,17.06492 -5.67332,7.85133 -4.71686,19.09695 -17.47,22.36742 -9.94873,2.06695 -13.91913,-0.12265 -13.73,12.23258 9.29916,6.60662 2.96993,15.06672 -0.3,20.4 -2.54205,8.8034 1.71729,15.12381 9.78829,14.96361 -8.5923,7.32657 -0.61519,13.61985 -4.88894,17.58948 -9.0282,2.13883 10.00362,9.65257 -7.29935,8.14691 -8.27012,-4.38194 -17.26331,-2.12932 -20.8,5.8 -3.99976,5.91892 -11.42207,13.06632 -17.94358,17.9675 -8.6944,4.05602 -15.48727,5.55668 -13.05642,16.8325 3.90887,12.74981 9.42253,17.05769 -6.4481,9.15343 -10.52026,-8.06616 -22.43245,6.47526 -33.3519,-1.75343 2.89812,12.22124 -14.14349,2.91148 -14.1,13.8 -6.6125,9.85457 -16.25595,-6.43513 -26.18317,-0.6851 -13.08612,3.75043 -31.85018,-8.40827 -39.41683,7.2851 -5.84181,-6.72216 -18.83081,1.5611 -19.1,11.1 -1.4377,9.85635 -13.76355,4.87121 -16,13.2 -8.90864,-0.0217 -11.87658,13.99092 -17.4,12.4 -4.13386,-6.19472 -14.13903,-7.67024 -21.64361,-8.25716 -11.70303,-0.86109 -24.89324,2.40008 -33.25639,-7.74284 -11.41401,1.96282 -20.62362,-9.07931 -32.2,-4.7 -12.11191,-0.93244 -23.67162,-5.17247 -35.4,-7.4 -8.81299,-5.67891 -21.03106,0.27177 -31.18118,-0.24987 C 474.1581,449.86438 456.4775,450.706 439.9,449.4 c -7.70685,-6.48231 -16.14621,-5.54121 -25.1,-8.2 -10.03877,1.88903 -20.19329,-3.55909 -28.63552,-8.53937 C 386.48705,421.00846 369.71425,422.53155 373.5,411.6 c 3.93641,-11.43664 -17.117,-8.9495 -16.01369,-15.70374 -4.51186,-10.35594 -2.47704,-17.96312 7.59745,-23.64425 0.2234,-13.39796 -17.72983,1.3728 -24.42591,2.14409 -12.86357,-1.47165 -22.00483,11.93242 -33.55785,11.3039 -6.92252,-5.92872 -17.24498,-3.2793 -25,-3.1 -7.45745,-6.01942 -13.43042,9.91505 -23,1 -13.60807,0.47313 -28.25114,8.59291 -29.48378,23.2882 -1.84558,7.35165 -6.47629,18.13448 -16.11622,13.9118 -8.43768,3.76699 -15.25698,-3.28543 -23.5,-2.1 3.99428,-5.18345 -6.03461,-16.96554 -16.43638,-12.19391 C 159.80521,414.32342 154.5773,402.08422 156.1,391.2 c -4.84909,-11.12757 -17.01105,-10.28286 -18.3,2.44441 -9.9343,-1.93884 -8.09466,13.99055 -19.5,14.55559 -10.95312,-1.5491 -18.27485,-10.98801 -29.348625,-13.10899 -5.735676,-7.63442 2.307392,-19.87093 -13.099612,-19.46712 -8.01624,-7.18524 -29.905242,2.17485 -19.251179,-12.35225 -3.42,-9.31846 -8.998597,-13.82559 -8.277497,-23.91879 -5.52143,-7.88665 7.791838,-17.60231 10.488075,-26.15823 C 68.246384,301.15908 49.914125,298.84794 48.849696,288.6058 55.41372,289.88355 70.364234,291.63587 73,279.1 c 9.475693,-1.49071 6.790117,12.9595 19.8,8.8 5.926849,-0.67978 7.65016,12.11606 14.71311,11.17165 8.96618,6.19078 -3.76972,20.71833 9.98689,18.72835 10.76174,-8.74384 10.91056,4.66643 7.2,11.9 -10.2382,7.79169 14.31118,2.67851 16.6,-3.4 3.55158,-10.06015 16.97021,-13.2125 15.1,-25.7 -2.50644,-5.74361 -7.78838,-20.33893 0.6,-21 -2.69306,13.25077 12.42137,7.42762 18,3 10.52961,1.70217 18.09442,12.82751 28.2,5.5 5.24865,4.90223 2.2727,10.18767 14.1,18.2 -3.11646,10.39657 16.74266,8.40136 21.7427,2.6089 9.15462,-6.71015 10.53051,11.00932 19.0573,-3.9089 15.60956,2.49501 3.12893,-13.09464 17.52524,-12.82066 12.40898,5.2496 13.98637,-8.23608 20.07476,-14.37934 10.27654,-0.15561 22.68015,5.5734 29.60077,-2.12016 11.9256,-4.73232 26.74069,2.59454 37.56725,-2.28351 8.63247,-7.67497 -7.91609,-18.10527 6.93198,-20.79633 -7.6986,12.97649 11.26486,7.81026 18.81838,7.13764 4.77825,4.02466 13.98015,18.81374 22.48049,6.08292 8.76437,-5.96694 20.83822,-3.25297 22.99374,4.82605 1.23549,6.29686 -2.25818,16.22148 10.67274,21.74573 4.69544,6.53915 19.23206,11.13975 19.43465,-0.0923 -3.70677,-10.82769 8.21495,-18.36291 3.5,-29.4 -0.49612,-13.17218 -24.08572,0.4062 -18.3,-12.3 0.49019,-9.08945 14.94005,-16.45584 5.6995,-24.78118 C 452.0308,215.3517 441.0793,211.32896 438.48838,200.7212 431.93827,195.73626 424.0985,185.25258 433.7,180.2 c 6.76244,-7.12923 13.44363,-11.96302 21.88064,-15.50446 C 466.15779,152.65839 483.20931,153.51413 496.8,147.9 c 9.80808,-6.60403 17.2353,-16.31961 15.5,-28.6 2.61951,-8.83984 -2.2852,-23.535757 13.83271,-17.98094 9.35306,-2.586095 19.31747,18.79256 21.34625,3.63512 C 557.65458,103.68823 556.09341,89.304904 555.9,81.7 552.60767,78.028956 555.20124,60.699156 566.01771,71.150051 571.47913,75.118866 584.40344,81.864767 582.1,87.6 c -6.75308,9.595657 11.11775,13.46704 18.28968,12.77044 10.29423,2.23186 20.22754,7.78083 28.65594,-1.916058 C 631.29017,81.642733 641.60864,100.96609 650.9,94.3 c 2.37813,6.80512 15.17472,9.95986 11.9,-3.688826 C 661.17279,79.577832 674.53731,76.289193 674.7,65.6 c 9.51176,-0.250979 20.79885,6.836415 17.34498,-7.903845 C 696.79539,46.670792 692.22053,34.289017 696.3,23.6 c 7.9022,1.970332 24.46185,-0.143356 19.1,12.8 11.07731,4.004014 12.77471,-12.027085 19.54441,-6.8 14.95382,0.972705 25.18143,13.463446 39.00803,17.924511 C 780.57272,57.685057 792.80282,43.518176 797.2,51 c 7.07454,4.123427 9.10843,3.637052 13.95518,10.400004 8.65516,9.191016 19.91923,11.102703 31.78805,10.208916 9.64097,0.434648 21.48127,7.33383 24.74333,-5.992283 C 872.70304,55.922292 884.00139,63.162375 892.1,64.3 c 3.54974,9.464804 12.14215,8.744273 20.8,13.5 17.27787,-8.329804 8.18821,12.904217 17.4,18.9 z"
       id="AT"
       name="Austria"
       style="fill:#1a1a1a" />
  </g>
</svg>
