<?xml version="1.0" standalone="no"?>
 <!DOCTYPE svg PUBLIC "-//W3C//DTD SVG 1.1//EN" 
 "http://www.w3.org/Graphics/SVG/1.1/DTD/svg11.dtd"> 
<svg
  xmlns:svg="http://www.w3.org/2000/svg"
  xmlns="http://www.w3.org/2000/svg"
  xmlns:xlink="http://www.w3.org/1999/xlink"
  version="1.1"
  width="297.002200mm" height="210.007200mm" viewBox="0.000000 0.000000 297.002200 210.007200">
<title>SVG Image created as poly_kybd_split72_plate_right_only_keys-Edge_Cuts.svg date 2025/12/27 14:38:57 </title>
  <desc>Image generated by PCBNEW </desc>
<g style="fill:#000000; fill-opacity:1.000000;stroke:#000000; stroke-opacity:1.000000;
stroke-linecap:round; stroke-linejoin:round;"
 transform="translate(0 0) scale(1 1)">
</g>
<g style="fill:none; 
stroke:#000000; stroke-width:0.100000; stroke-opacity:1; 
stroke-linecap:round; stroke-linejoin:round;">
<path d="M215.944959 114.773193
L216.171035 114.152056
" />
<circle cx="213.821786" cy="113.297000" r="2.500018" /> 
<path style="fill:none; 
stroke:#000000; stroke-width:0.100000; stroke-opacity:1; 
stroke-linecap:round; stroke-linejoin:round;fill:none"
d="M 211.246461,113.063080
211.472536,112.441943
216.171035,114.152056
215.944959,114.773193
220.173559,116.312278
219.831539,117.251970
220.583293,117.525587
216.479051,128.801898
215.727296,128.528281
215.385276,129.467974
202.229580,124.679693
202.571600,123.739999
201.819846,123.466384
205.924087,112.190072
206.675842,112.463688
207.017862,111.523996
Z" /> 
<path style="fill:none; 
stroke:#000000; stroke-width:0.100000; stroke-opacity:1; 
stroke-linecap:round; stroke-linejoin:round;fill:none"
d="M 162.809488,124.266229
162.751878,124.924714
167.234735,125.316913
167.147579,126.313107
167.944535,126.382831
166.898666,138.337168
166.101710,138.267443
166.014555,139.263638
152.067829,138.043458
152.154985,137.047263
151.358029,136.977538
152.403898,125.023202
153.200853,125.092926
153.288009,124.096732
157.770866,124.488931
157.828477,123.830446
Z" /> 
<path d="M162.751878 124.924714
L162.809488 124.266229
" />
<circle cx="160.318982" cy="124.048338" r="2.500019" /> 
<path d="M157.770866 124.488931
L157.828477 123.830446
" />
<path d="M191.880778 107.270440
L192.035085 106.627703
" />
<path style="fill:none; 
stroke:#000000; stroke-width:0.100000; stroke-opacity:1; 
stroke-linecap:round; stroke-linejoin:round;fill:none"
d="M 187.018892,106.103204
187.173199,105.460468
192.035085,106.627703
191.880778,107.270440
196.256424,108.320939
196.022979,109.293309
196.800875,109.480066
193.999530,121.148505
193.221635,120.961748
192.988189,121.934118
179.375010,118.665883
179.608456,117.693513
178.830560,117.506757
181.631904,105.838318
182.409800,106.025074
182.643245,105.052704
Z" /> 
<circle cx="189.604142" cy="106.044085" r="2.500019" /> 
<path d="M131.801619 115.099000
L131.801619 114.438000
" />
<path style="fill:none; 
stroke:#000000; stroke-width:0.100000; stroke-opacity:1; 
stroke-linecap:round; stroke-linejoin:round;fill:none"
d="M 131.801619,115.099000
136.301600,115.099000
136.301600,116.099000
137.101600,116.099000
137.101600,128.099000
136.301600,128.099000
136.301600,129.099000
122.301600,129.099000
122.301600,128.099000
121.501600,128.099000
121.501600,116.099000
122.301600,116.099000
122.301600,115.099000
126.801581,115.099000
126.801581,114.438000
131.801619,114.438000
Z" /> 
<circle cx="129.301600" cy="114.438000" r="2.500019" /> 
<path d="M112.751619 117.480000
L112.751619 116.819000
" />
<path style="fill:none; 
stroke:#000000; stroke-width:0.100000; stroke-opacity:1; 
stroke-linecap:round; stroke-linejoin:round;fill:none"
d="M 112.751619,117.480000
117.251600,117.480000
117.251600,118.480000
118.051600,118.480000
118.051600,130.480000
117.251600,130.480000
117.251600,131.480000
103.251600,131.480000
103.251600,130.480000
102.451600,130.480000
102.451600,118.480000
103.251600,118.480000
103.251600,117.480000
107.751581,117.480000
107.751581,116.819000
112.751619,116.819000
Z" /> 
<circle cx="110.251600" cy="116.819000" r="2.500019" /> 
<path style="fill:none; 
stroke:#000000; stroke-width:0.100000; stroke-opacity:1; 
stroke-linecap:round; stroke-linejoin:round;fill:none"
d="M 93.701619,119.862000
98.201600,119.862000
98.201600,120.862000
99.001600,120.862000
99.001600,132.862000
98.201600,132.862000
98.201600,133.862000
84.201600,133.862000
84.201600,132.862000
83.401600,132.862000
83.401600,120.862000
84.201600,120.862000
84.201600,119.862000
88.701581,119.862000
88.701581,119.201000
93.701619,119.201000
Z" /> 
<path d="M74.651619 119.862000
L74.651619 119.201000
" />
<path style="fill:none; 
stroke:#000000; stroke-width:0.100000; stroke-opacity:1; 
stroke-linecap:round; stroke-linejoin:round;fill:none"
d="M 74.651619,119.862000
79.151600,119.862000
79.151600,120.862000
79.951600,120.862000
79.951600,132.862000
79.151600,132.862000
79.151600,133.862000
65.151600,133.862000
65.151600,132.862000
64.351600,132.862000
64.351600,120.862000
65.151600,120.862000
65.151600,119.862000
69.651581,119.862000
69.651581,119.201000
74.651619,119.201000
Z" /> 
<circle cx="72.151600" cy="119.201000" r="2.500019" /> 
<path d="M131.801619 96.049000
L131.801619 95.388000
" />
<path style="fill:none; 
stroke:#000000; stroke-width:0.100000; stroke-opacity:1; 
stroke-linecap:round; stroke-linejoin:round;fill:none"
d="M 131.801619,96.049000
136.301600,96.049000
136.301600,97.049000
137.101600,97.049000
137.101600,109.049000
136.301600,109.049000
136.301600,110.049000
122.301600,110.049000
122.301600,109.049000
121.501600,109.049000
121.501600,97.049000
122.301600,97.049000
122.301600,96.049000
126.801581,96.049000
126.801581,95.388000
131.801619,95.388000
Z" /> 
<circle cx="129.301600" cy="95.388000" r="2.500019" /> 
<path d="M112.751619 98.430000
L112.751619 97.769000
" />
<path style="fill:none; 
stroke:#000000; stroke-width:0.100000; stroke-opacity:1; 
stroke-linecap:round; stroke-linejoin:round;fill:none"
d="M 112.751619,98.430000
117.251600,98.430000
117.251600,99.430000
118.051600,99.430000
118.051600,111.430000
117.251600,111.430000
117.251600,112.430000
103.251600,112.430000
103.251600,111.430000
102.451600,111.430000
102.451600,99.430000
103.251600,99.430000
103.251600,98.430000
107.751581,98.430000
107.751581,97.769000
112.751619,97.769000
Z" /> 
<circle cx="110.251600" cy="97.769000" r="2.500019" /> 
<path style="fill:none; 
stroke:#000000; stroke-width:0.100000; stroke-opacity:1; 
stroke-linecap:round; stroke-linejoin:round;fill:none"
d="M 93.701619,100.811000
98.201600,100.811000
98.201600,101.811000
99.001600,101.811000
99.001600,113.811000
98.201600,113.811000
98.201600,114.811000
84.201600,114.811000
84.201600,113.811000
83.401600,113.811000
83.401600,101.811000
84.201600,101.811000
84.201600,100.811000
88.701581,100.811000
88.701581,100.150000
93.701619,100.150000
Z" /> 
<path d="M69.889619 100.811000
L69.889619 100.150000
" />
<path style="fill:none; 
stroke:#000000; stroke-width:0.100000; stroke-opacity:1; 
stroke-linecap:round; stroke-linejoin:round;fill:none"
d="M 69.889619,100.811000
74.389600,100.811000
74.389600,101.811000
75.189600,101.811000
75.189600,113.811000
74.389600,113.811000
74.389600,114.811000
60.389600,114.811000
60.389600,113.811000
59.589600,113.811000
59.589600,101.811000
60.389600,101.811000
60.389600,100.811000
64.889581,100.811000
64.889581,100.150000
69.889619,100.150000
Z" /> 
<circle cx="67.389600" cy="100.150000" r="2.500019" /> 
<path style="fill:none; 
stroke:#000000; stroke-width:0.100000; stroke-opacity:1; 
stroke-linecap:round; stroke-linejoin:round;fill:none"
d="M 93.701619,81.762000
98.201600,81.762000
98.201600,82.762000
99.001600,82.762000
99.001600,94.762000
98.201600,94.762000
98.201600,95.762000
84.201600,95.762000
84.201600,94.762000
83.401600,94.762000
83.401600,82.762000
84.201600,82.762000
84.201600,81.762000
88.701581,81.762000
88.701581,81.101000
93.701619,81.101000
Z" /> 
<path d="M69.889619 81.762000
L69.889619 81.101000
" />
<path style="fill:none; 
stroke:#000000; stroke-width:0.100000; stroke-opacity:1; 
stroke-linecap:round; stroke-linejoin:round;fill:none"
d="M 69.889619,81.762000
74.389600,81.762000
74.389600,82.762000
75.189600,82.762000
75.189600,94.762000
74.389600,94.762000
74.389600,95.762000
60.389600,95.762000
60.389600,94.762000
59.589600,94.762000
59.589600,82.762000
60.389600,82.762000
60.389600,81.762000
64.889581,81.762000
64.889581,81.101000
69.889619,81.101000
Z" /> 
<circle cx="67.389600" cy="81.101000" r="2.500019" /> 
<path d="M112.751619 79.380000
L112.751619 78.719000
" />
<path style="fill:none; 
stroke:#000000; stroke-width:0.100000; stroke-opacity:1; 
stroke-linecap:round; stroke-linejoin:round;fill:none"
d="M 112.751619,79.380000
117.251600,79.380000
117.251600,80.380000
118.051600,80.380000
118.051600,92.380000
117.251600,92.380000
117.251600,93.380000
103.251600,93.380000
103.251600,92.380000
102.451600,92.380000
102.451600,80.380000
103.251600,80.380000
103.251600,79.380000
107.751581,79.380000
107.751581,78.719000
112.751619,78.719000
Z" /> 
<circle cx="110.251600" cy="78.719000" r="2.500019" /> 
<path d="M131.801619 76.999000
L131.801619 76.338000
" />
<path style="fill:none; 
stroke:#000000; stroke-width:0.100000; stroke-opacity:1; 
stroke-linecap:round; stroke-linejoin:round;fill:none"
d="M 131.801619,76.999000
136.301600,76.999000
136.301600,77.999000
137.101600,77.999000
137.101600,89.999000
136.301600,89.999000
136.301600,90.999000
122.301600,90.999000
122.301600,89.999000
121.501600,89.999000
121.501600,77.999000
122.301600,77.999000
122.301600,76.999000
126.801581,76.999000
126.801581,76.338000
131.801619,76.338000
Z" /> 
<circle cx="129.301600" cy="76.338000" r="2.500019" /> 
<path d="M69.889619 62.711000
L69.889619 62.050000
" />
<path style="fill:none; 
stroke:#000000; stroke-width:0.100000; stroke-opacity:1; 
stroke-linecap:round; stroke-linejoin:round;fill:none"
d="M 69.889619,62.711000
74.389600,62.711000
74.389600,63.711000
75.189600,63.711000
75.189600,75.711000
74.389600,75.711000
74.389600,76.711000
60.389600,76.711000
60.389600,75.711000
59.589600,75.711000
59.589600,63.711000
60.389600,63.711000
60.389600,62.711000
64.889581,62.711000
64.889581,62.050000
69.889619,62.050000
Z" /> 
<circle cx="67.389600" cy="62.050000" r="2.500019" /> 
<path style="fill:none; 
stroke:#000000; stroke-width:0.100000; stroke-opacity:1; 
stroke-linecap:round; stroke-linejoin:round;fill:none"
d="M 93.701619,62.711000
98.201600,62.711000
98.201600,63.711000
99.001600,63.711000
99.001600,75.711000
98.201600,75.711000
98.201600,76.711000
84.201600,76.711000
84.201600,75.711000
83.401600,75.711000
83.401600,63.711000
84.201600,63.711000
84.201600,62.711000
88.701581,62.711000
88.701581,62.050000
93.701619,62.050000
Z" /> 
<path d="M112.751619 60.330000
L112.751619 59.669000
" />
<path style="fill:none; 
stroke:#000000; stroke-width:0.100000; stroke-opacity:1; 
stroke-linecap:round; stroke-linejoin:round;fill:none"
d="M 112.751619,60.330000
117.251600,60.330000
117.251600,61.330000
118.051600,61.330000
118.051600,73.330000
117.251600,73.330000
117.251600,74.330000
103.251600,74.330000
103.251600,73.330000
102.451600,73.330000
102.451600,61.330000
103.251600,61.330000
103.251600,60.330000
107.751581,60.330000
107.751581,59.669000
112.751619,59.669000
Z" /> 
<circle cx="110.251600" cy="59.669000" r="2.500019" /> 
<path d="M131.801619 57.949000
L131.801619 57.288000
" />
<path style="fill:none; 
stroke:#000000; stroke-width:0.100000; stroke-opacity:1; 
stroke-linecap:round; stroke-linejoin:round;fill:none"
d="M 131.801619,57.949000
136.301600,57.949000
136.301600,58.949000
137.101600,58.949000
137.101600,70.949000
136.301600,70.949000
136.301600,71.949000
122.301600,71.949000
122.301600,70.949000
121.501600,70.949000
121.501600,58.949000
122.301600,58.949000
122.301600,57.949000
126.801581,57.949000
126.801581,57.288000
131.801619,57.288000
Z" /> 
<circle cx="129.301600" cy="57.288000" r="2.500019" /> 
<path d="M69.889619 43.661000
L69.889619 43.000000
" />
<path style="fill:none; 
stroke:#000000; stroke-width:0.100000; stroke-opacity:1; 
stroke-linecap:round; stroke-linejoin:round;fill:none"
d="M 69.889619,43.661000
74.389600,43.661000
74.389600,44.661000
75.189600,44.661000
75.189600,56.661000
74.389600,56.661000
74.389600,57.661000
60.389600,57.661000
60.389600,56.661000
59.589600,56.661000
59.589600,44.661000
60.389600,44.661000
60.389600,43.661000
64.889581,43.661000
64.889581,43.000000
69.889619,43.000000
Z" /> 
<circle cx="67.389600" cy="43.000000" r="2.500019" /> 
<path style="fill:none; 
stroke:#000000; stroke-width:0.100000; stroke-opacity:1; 
stroke-linecap:round; stroke-linejoin:round;fill:none"
d="M 93.701619,43.661000
98.201600,43.661000
98.201600,44.661000
99.001600,44.661000
99.001600,56.661000
98.201600,56.661000
98.201600,57.661000
84.201600,57.661000
84.201600,56.661000
83.401600,56.661000
83.401600,44.661000
84.201600,44.661000
84.201600,43.661000
88.701581,43.661000
88.701581,43.000000
93.701619,43.000000
Z" /> 
<path d="M112.751619 41.280000
L112.751619 40.619000
" />
<path style="fill:none; 
stroke:#000000; stroke-width:0.100000; stroke-opacity:1; 
stroke-linecap:round; stroke-linejoin:round;fill:none"
d="M 112.751619,41.280000
117.251600,41.280000
117.251600,42.280000
118.051600,42.280000
118.051600,54.280000
117.251600,54.280000
117.251600,55.280000
103.251600,55.280000
103.251600,54.280000
102.451600,54.280000
102.451600,42.280000
103.251600,42.280000
103.251600,41.280000
107.751581,41.280000
107.751581,40.619000
112.751619,40.619000
Z" /> 
<circle cx="110.251600" cy="40.619000" r="2.500019" /> 
<path d="M131.801619 38.899000
L131.801619 38.238000
" />
<path style="fill:none; 
stroke:#000000; stroke-width:0.100000; stroke-opacity:1; 
stroke-linecap:round; stroke-linejoin:round;fill:none"
d="M 131.801619,38.899000
136.301600,38.899000
136.301600,39.899000
137.101600,39.899000
137.101600,51.899000
136.301600,51.899000
136.301600,52.899000
122.301600,52.899000
122.301600,51.899000
121.501600,51.899000
121.501600,39.899000
122.301600,39.899000
122.301600,38.899000
126.801581,38.899000
126.801581,38.238000
131.801619,38.238000
Z" /> 
<circle cx="129.301600" cy="38.238000" r="2.500019" /> 
<path d="M150.851619 98.430000
L150.851619 97.769000
" />
<path style="fill:none; 
stroke:#000000; stroke-width:0.100000; stroke-opacity:1; 
stroke-linecap:round; stroke-linejoin:round;fill:none"
d="M 150.851619,98.430000
155.351600,98.430000
155.351600,99.430000
156.151600,99.430000
156.151600,111.430000
155.351600,111.430000
155.351600,112.430000
141.351600,112.430000
141.351600,111.430000
140.551600,111.430000
140.551600,99.430000
141.351600,99.430000
141.351600,98.430000
145.851581,98.430000
145.851581,97.769000
150.851619,97.769000
Z" /> 
<circle cx="148.351600" cy="97.769000" r="2.500019" /> 
<path d="M150.851619 79.380000
L150.851619 78.719000
" />
<path style="fill:none; 
stroke:#000000; stroke-width:0.100000; stroke-opacity:1; 
stroke-linecap:round; stroke-linejoin:round;fill:none"
d="M 150.851619,79.380000
155.351600,79.380000
155.351600,80.380000
156.151600,80.380000
156.151600,92.380000
155.351600,92.380000
155.351600,93.380000
141.351600,93.380000
141.351600,92.380000
140.551600,92.380000
140.551600,80.380000
141.351600,80.380000
141.351600,79.380000
145.851581,79.380000
145.851581,78.719000
150.851619,78.719000
Z" /> 
<circle cx="148.351600" cy="78.719000" r="2.500019" /> 
<path d="M150.851619 60.330000
L150.851619 59.669000
" />
<path style="fill:none; 
stroke:#000000; stroke-width:0.100000; stroke-opacity:1; 
stroke-linecap:round; stroke-linejoin:round;fill:none"
d="M 150.851619,60.330000
155.351600,60.330000
155.351600,61.330000
156.151600,61.330000
156.151600,73.330000
155.351600,73.330000
155.351600,74.330000
141.351600,74.330000
141.351600,73.330000
140.551600,73.330000
140.551600,61.330000
141.351600,61.330000
141.351600,60.330000
145.851581,60.330000
145.851581,59.669000
150.851619,59.669000
Z" /> 
<circle cx="148.351600" cy="59.669000" r="2.500019" /> 
<path d="M169.901619 100.811000
L169.901619 100.150000
" />
<path style="fill:none; 
stroke:#000000; stroke-width:0.100000; stroke-opacity:1; 
stroke-linecap:round; stroke-linejoin:round;fill:none"
d="M 169.901619,100.811000
174.401600,100.811000
174.401600,101.811000
175.201600,101.811000
175.201600,113.811000
174.401600,113.811000
174.401600,114.811000
160.401600,114.811000
160.401600,113.811000
159.601600,113.811000
159.601600,101.811000
160.401600,101.811000
160.401600,100.811000
164.901581,100.811000
164.901581,100.150000
169.901619,100.150000
Z" /> 
<circle cx="167.401600" cy="100.150000" r="2.500019" /> 
<path d="M169.901619 81.762000
L169.901619 81.101000
" />
<path style="fill:none; 
stroke:#000000; stroke-width:0.100000; stroke-opacity:1; 
stroke-linecap:round; stroke-linejoin:round;fill:none"
d="M 169.901619,81.762000
174.401600,81.762000
174.401600,82.762000
175.201600,82.762000
175.201600,94.762000
174.401600,94.762000
174.401600,95.762000
160.401600,95.762000
160.401600,94.762000
159.601600,94.762000
159.601600,82.762000
160.401600,82.762000
160.401600,81.762000
164.901581,81.762000
164.901581,81.101000
169.901619,81.101000
Z" /> 
<circle cx="167.401600" cy="81.101000" r="2.500019" /> 
<path d="M150.851619 41.280000
L150.851619 40.619000
" />
<path style="fill:none; 
stroke:#000000; stroke-width:0.100000; stroke-opacity:1; 
stroke-linecap:round; stroke-linejoin:round;fill:none"
d="M 150.851619,41.280000
155.351600,41.280000
155.351600,42.280000
156.151600,42.280000
156.151600,54.280000
155.351600,54.280000
155.351600,55.280000
141.351600,55.280000
141.351600,54.280000
140.551600,54.280000
140.551600,42.280000
141.351600,42.280000
141.351600,41.280000
145.851581,41.280000
145.851581,40.619000
150.851619,40.619000
Z" /> 
<circle cx="148.351600" cy="40.619000" r="2.500019" /> 
<path d="M169.901619 62.711000
L169.901619 62.050000
" />
<path style="fill:none; 
stroke:#000000; stroke-width:0.100000; stroke-opacity:1; 
stroke-linecap:round; stroke-linejoin:round;fill:none"
d="M 169.901619,62.711000
174.401600,62.711000
174.401600,63.711000
175.201600,63.711000
175.201600,75.711000
174.401600,75.711000
174.401600,76.711000
160.401600,76.711000
160.401600,75.711000
159.601600,75.711000
159.601600,63.711000
160.401600,63.711000
160.401600,62.711000
164.901581,62.711000
164.901581,62.050000
169.901619,62.050000
Z" /> 
<circle cx="167.401600" cy="62.050000" r="2.500019" /> 
<path d="M169.901619 43.661000
L169.901619 43.000000
" />
<path style="fill:none; 
stroke:#000000; stroke-width:0.100000; stroke-opacity:1; 
stroke-linecap:round; stroke-linejoin:round;fill:none"
d="M 169.901619,43.661000
174.401600,43.661000
174.401600,44.661000
175.201600,44.661000
175.201600,56.661000
174.401600,56.661000
174.401600,57.661000
160.401600,57.661000
160.401600,56.661000
159.601600,56.661000
159.601600,44.661000
160.401600,44.661000
160.401600,43.661000
164.901581,43.661000
164.901581,43.000000
169.901619,43.000000
Z" /> 
<circle cx="167.401600" cy="43.000000" r="2.500019" /> 
<path d="M188.951619 81.762000
L188.951619 81.101000
" />
<path style="fill:none; 
stroke:#000000; stroke-width:0.100000; stroke-opacity:1; 
stroke-linecap:round; stroke-linejoin:round;fill:none"
d="M 188.951619,81.762000
193.451600,81.762000
193.451600,82.762000
194.251600,82.762000
194.251600,94.762000
193.451600,94.762000
193.451600,95.762000
179.451600,95.762000
179.451600,94.762000
178.651600,94.762000
178.651600,82.762000
179.451600,82.762000
179.451600,81.762000
183.951581,81.762000
183.951581,81.101000
188.951619,81.101000
Z" /> 
<circle cx="186.451600" cy="81.101000" r="2.500019" /> 
<path d="M188.951619 62.711000
L188.951619 62.050000
" />
<path style="fill:none; 
stroke:#000000; stroke-width:0.100000; stroke-opacity:1; 
stroke-linecap:round; stroke-linejoin:round;fill:none"
d="M 188.951619,62.711000
193.451600,62.711000
193.451600,63.711000
194.251600,63.711000
194.251600,75.711000
193.451600,75.711000
193.451600,76.711000
179.451600,76.711000
179.451600,75.711000
178.651600,75.711000
178.651600,63.711000
179.451600,63.711000
179.451600,62.711000
183.951581,62.711000
183.951581,62.050000
188.951619,62.050000
Z" /> 
<circle cx="186.451600" cy="62.050000" r="2.500019" /> 
<circle cx="186.451600" cy="43.000000" r="2.500019" /> 
<path style="fill:none; 
stroke:#000000; stroke-width:0.100000; stroke-opacity:1; 
stroke-linecap:round; stroke-linejoin:round;fill:none"
d="M 188.951619,43.661000
193.451600,43.661000
193.451600,44.661000
194.251600,44.661000
194.251600,56.661000
193.451600,56.661000
193.451600,57.661000
179.451600,57.661000
179.451600,56.661000
178.651600,56.661000
178.651600,44.661000
179.451600,44.661000
179.451600,43.661000
183.951581,43.661000
183.951581,43.000000
188.951619,43.000000
Z" /> 
<path d="M188.951619 43.661000
L188.951619 43.000000
" />
<path style="fill:none; 
stroke:#000000; stroke-width:0.100000; stroke-opacity:1; 
stroke-linecap:round; stroke-linejoin:round;fill:none"
d="M 220.461600,91.770000
215.621600,105.030000
199.681600,99.250000
204.511600,85.960000
Z" /> 
<path style="fill:none; 
stroke:#000000; stroke-width:0.150000; stroke-opacity:1; 
stroke-linecap:round; stroke-linejoin:round;fill:none"
d="M 200.941600,41.240000
227.941600,41.240000
227.941600,67.240000
200.941600,67.240000
Z" /> 
</g>
<g style="fill:none; 
stroke:#000000; stroke-width:0.100000; stroke-opacity:1; 
stroke-linecap:round; stroke-linejoin:round;">
<circle cx="183.884142" cy="127.754085" r="2.500019" /> 
<path style="fill:none; 
stroke:#000000; stroke-width:0.100000; stroke-opacity:1; 
stroke-linecap:round; stroke-linejoin:round;fill:none"
d="M 181.298892,127.813204
181.453199,127.170468
186.315085,128.337703
186.160778,128.980440
190.536424,130.030939
190.302979,131.003309
191.080875,131.190066
188.279530,142.858505
187.501635,142.671748
187.268189,143.644118
173.655010,140.375883
173.888456,139.403513
173.110560,139.216757
175.911904,127.548318
176.689800,127.735074
176.923245,126.762704
Z" /> 
<path d="M186.160778 128.980440
L186.315085 128.337703
" />
<path d="M207.863295 135.426584
L208.089371 134.805447
" />
<circle cx="205.740122" cy="133.950391" r="2.500018" /> 
<path d="M151.358029 136.977538
L152.403898 125.023202
" />
<path style="fill:none; 
stroke:#000000; stroke-width:0.100000; stroke-opacity:1; 
stroke-linecap:round; stroke-linejoin:round;fill:none"
d="M 203.164797,133.716471
203.390872,133.095334
208.089371,134.805447
207.863295,135.426584
212.091895,136.965669
211.749875,137.905361
212.501629,138.178978
208.397387,149.455289
207.645632,149.181672
207.303612,150.121365
194.147916,145.333084
194.489936,144.393390
193.738182,144.119775
197.842423,132.843463
198.594178,133.117079
198.936198,132.177387
Z" /> 
<path d="M93.701619 81.762000
L93.701619 81.101000
" />
<circle cx="91.201600" cy="62.050000" r="2.500019" /> 
<path d="M93.701619 62.711000
L93.701619 62.050000
" />
<circle cx="91.201600" cy="100.150000" r="2.500019" /> 
<path d="M93.701619 100.811000
L93.701619 100.150000
" />
<circle cx="91.201600" cy="81.101000" r="2.500019" /> 
<circle cx="91.201600" cy="119.201000" r="2.500019" /> 
<path d="M93.701619 119.862000
L93.701619 119.201000
" />
<circle cx="91.201600" cy="43.000000" r="2.500019" /> 
<path d="M93.701619 43.661000
L93.701619 43.000000
" />
</g> 
</svg>
