<?xml version="1.0" encoding="UTF-8" standalone="no"?>
<svg
   width="86.335663mm"
   height="51.901016mm"
   viewBox="0 0 86.335663 51.901016"
   version="1.1"
   id="svg1"
   xml:space="preserve"
   inkscape:version="1.3.1 (9b9bdc1480, 2023-11-25, custom)"
   sodipodi:docname="diat.svg"
   inkscape:export-filename="diat.svg"
   inkscape:export-xdpi="96"
   inkscape:export-ydpi="96"
   xmlns:inkscape="http://www.inkscape.org/namespaces/inkscape"
   xmlns:sodipodi="http://sodipodi.sourceforge.net/DTD/sodipodi-0.dtd"
   xmlns="http://www.w3.org/2000/svg"
   xmlns:svg="http://www.w3.org/2000/svg"><sodipodi:namedview
     id="namedview1"
     pagecolor="#ffffff"
     bordercolor="#000000"
     borderopacity="0.25"
     inkscape:showpageshadow="2"
     inkscape:pageopacity="0.0"
     inkscape:pagecheckerboard="0"
     inkscape:deskcolor="#d1d1d1"
     inkscape:document-units="mm"
     inkscape:zoom="1.0369529"
     inkscape:cx="243.50191"
     inkscape:cy="492.79"
     inkscape:window-width="2506"
     inkscape:window-height="1376"
     inkscape:window-x="54"
     inkscape:window-y="27"
     inkscape:window-maximized="1"
     inkscape:current-layer="layer1" /><defs
     id="defs1" /><g
     inkscape:label="Layer 1"
     inkscape:groupmode="layer"
     id="layer1"
     transform="translate(-44.518243,-63.256708)"><path
       style="fill:#000000"
       d="m 130.31666,115.01505 c 0.14124,-0.08 0.31458,-0.25334 0.39457,-0.39458 l 0.14268,-0.2519 V 89.20722 64.04587 l -0.14268,-0.25191 c -0.08,-0.14124 -0.25333,-0.31458 -0.39457,-0.39458 l -0.25191,-0.14267 H 87.68607 45.307395 l -0.251906,0.14267 c -0.141242,0.08 -0.314582,0.25334 -0.394578,0.39458 l -0.142671,0.25191 v 25.16135 25.16135 l 0.142671,0.2519 c 0.08,0.14124 0.253336,0.31459 0.394578,0.39458 l 0.251906,0.14267 h 42.378675 42.37868 z m -83.711636,-9.85649 v -7.91237 h 41.081046 41.08105 v 7.91237 7.91238 H 87.68607 46.605024 Z m 74.724466,6.12288 c 0.28447,-0.15914 0.53804,-0.58286 0.53804,-0.89909 0,-0.19387 -3.70858,-10.02674 -3.91592,-10.38262 -0.14772,-0.25354 -0.5479,-0.47269 -0.86315,-0.47269 -0.31525,0 -0.71544,0.21915 -0.86315,0.47269 -0.20735,0.35588 -3.91593,10.18875 -3.91593,10.38262 0,0.51211 0.51503,1.04117 1.01279,1.04038 0.2985,-4.7e-4 0.72506,-0.20253 0.85896,-0.40688 0.0601,-0.0917 0.3019,-0.6709 0.53738,-1.28711 l 0.42813,-1.12038 h 1.94182 1.94182 l 0.42813,1.12038 c 0.23547,0.61621 0.47729,1.19541 0.53738,1.28711 0.13389,0.20435 0.56046,0.40641 0.85896,0.40688 0.12185,1.9e-4 0.33548,-0.0634 0.47474,-0.14129 z m -5.33538,-4.87272 c 0.0996,-0.29254 1.09174,-2.88749 1.10006,-2.87716 0.0228,0.0284 1.10202,2.88953 1.10202,2.92171 0,0.019 -0.50153,0.0346 -1.1145,0.0346 -0.86377,0 -1.10845,-0.0178 -1.08758,-0.0791 z m -5.86854,4.87272 c 0.16683,-0.0933 0.30178,-0.23789 0.39562,-0.42382 l 0.14242,-0.28217 v -5.10039 -5.1004 l -0.14242,-0.28217 c -0.37673,-0.74639 -1.42729,-0.74639 -1.80402,0 l -0.14243,0.28217 v 5.1004 5.10039 l 0.14243,0.28217 c 0.17136,0.33951 0.53179,0.56546 0.90201,0.56546 0.14452,0 0.36186,-0.0608 0.50639,-0.14164 z m -4.92281,0.0194 c 0.44052,-0.19997 0.67404,-0.72757 0.53195,-1.20182 -0.0442,-0.14769 -0.55186,-0.84242 -1.33918,-1.83284 -0.69736,-0.87725 -1.25519,-1.61561 -1.23962,-1.64081 0.0156,-0.0252 0.25892,-0.14329 0.54078,-0.26244 0.77653,-0.32826 1.24662,-0.75648 1.69616,-1.54508 l 0.36509,-0.64044 v -1.07608 -1.07609 l -0.36213,-0.63515 c -0.4779,-0.83821 -0.82617,-1.14125 -1.78798,-1.55577 l -0.71787,-0.30939 -2.3956,0.001 c -2.367914,10e-4 -2.398514,0.003 -2.647514,0.14372 -0.14124,0.08 -0.31458,0.25333 -0.39457,0.39457 l -0.14267,0.25191 -0.001,5.12963 -10e-4,5.12963 0.14243,0.28217 c 0.37673,0.7464 1.42728,0.7464 1.80402,0 0.13835,-0.2741 0.14242,-0.33697 0.14242,-2.19937 v -1.91721 h 0.5561 0.556114 l 1.77013,2.22474 c 1.44983,1.82217 1.81595,2.24572 2.02333,2.34067 0.32342,0.14808 0.56548,0.14658 0.9007,-0.006 z m -5.806374,-8.16786 v -1.51916 l 1.566654,0.003 1.56665,0.003 0.41144,0.2024 c 0.34763,0.171 0.43822,0.25148 0.58404,0.51889 0.23611,0.43296 0.24521,1.03778 0.0222,1.47778 -0.18244,0.36003 -0.22983,0.40281 -0.71051,0.64136 l -0.37051,0.18387 -1.535,0.004 -1.535004,0.004 z m -7.500933,8.14844 c 0.166831,-0.0933 0.301773,-0.23789 0.395623,-0.42382 l 0.14242,-0.28217 v -4.48081 -4.48082 h 1.18927 c 1.10751,0 1.20867,-0.01 1.47144,-0.14242 0.74639,-0.37674 0.74639,-1.42729 0,-1.80402 l -0.28217,-0.14243 h -3.422975 -3.42297 l -0.282173,0.14243 c -0.746394,0.37673 -0.746394,1.42728 0,1.80402 0.262774,0.13263 0.363932,0.14242 1.471441,0.14242 h 1.189269 v 4.48082 4.48081 l 0.142423,0.28217 c 0.17136,0.33951 0.531795,0.56546 0.90201,0.56546 0.144526,0 0.361866,-0.0608 0.506392,-0.14164 z m -8.13662,-0.17044 c 0.948796,-0.43348 1.386135,-0.82094 1.87002,-1.65674 l 0.379794,-0.656 v -0.79251 -0.79251 l -0.373803,-0.61784 c -0.744368,-1.23031 -1.520671,-1.69895 -3.57857,-2.1603 -1.012192,-0.22692 -1.816116,-0.50776 -2.044106,-0.71409 -0.180755,-0.16358 -0.428369,-0.65235 -0.428369,-0.84556 0,-0.17489 0.177143,-0.54337 0.374843,-0.77972 0.05495,-0.0657 0.280583,-0.20099 0.501419,-0.30067 0.396493,-0.17897 0.416549,-0.18124 1.602172,-0.18124 1.183397,0 1.211714,0.003 1.970194,0.22155 0.423246,0.12185 0.870135,0.22107 0.993086,0.2205 0.494612,-0.002 1.011387,-0.51594 1.013742,-1.00758 0.0015,-0.3059 -0.224606,-0.73678 -0.462368,-0.88124 -0.110676,-0.0673 -0.615266,-0.23923 -1.121311,-0.38218 l -0.92008,-0.25992 h -1.538819 -1.538819 l -0.719523,0.31011 c -0.96643,0.41651 -1.332092,0.73596 -1.834433,1.60257 l -0.37732,0.65093 v 0.79124 0.79124 l 0.37732,0.65093 c 0.682506,1.17743 1.44851,1.6379 3.512335,2.11137 1.621689,0.37205 1.978452,0.54286 2.354215,1.12715 0.222246,0.34559 0.227117,0.53793 0.02287,0.90336 -0.202556,0.36241 -0.305029,0.4519 -0.781984,0.68294 -0.389634,0.18874 -0.395749,0.18951 -1.518861,0.18951 h -1.127652 l -0.84433,-0.2532 c -0.464381,-0.13926 -0.918923,-0.25319 -1.010093,-0.25319 -0.485972,0 -1.013807,0.5277 -1.013043,1.01278 4.76e-4,0.30264 0.198161,0.7138 0.41746,0.86827 0.0998,0.0703 0.615245,0.25975 1.145439,0.42101 l 0.963991,0.29319 1.53632,-0.006 1.536319,-0.006 z m -11.224687,-0.0239 c 0.992026,-0.45984 1.379961,-0.79517 1.839989,-1.59051 l 0.367291,-0.63501 0.01551,-4.27268 0.01551,-4.27268 -0.143397,-0.25191 c -0.176241,-0.3096 -0.557763,-0.53724 -0.900404,-0.53724 -0.343109,0 -0.724331,0.22765 -0.899679,0.53724 l -0.142672,0.25191 -0.001,3.94288 c -0.001,3.88699 -0.0029,3.9466 -0.134767,4.20501 -0.170174,0.33357 -0.308767,0.45075 -0.808689,0.68375 -0.381974,0.17803 -0.448989,0.18847 -1.209751,0.18847 -0.760761,0 -0.827777,-0.0104 -1.20975,-0.18847 -0.499923,-0.233 -0.638515,-0.35018 -0.80869,-0.68375 -0.13183,-0.25841 -0.13374,-0.31802 -0.134767,-4.20501 l -10e-4,-3.94288 -0.142672,-0.25191 c -0.175347,-0.30959 -0.55657,-0.53724 -0.899679,-0.53724 -0.342641,0 -0.724163,0.22764 -0.900404,0.53724 l -0.143396,0.25191 0.01551,4.27268 0.01551,4.27268 0.36641,0.63299 c 0.470672,0.81311 0.873659,1.15776 1.881058,1.60873 l 0.719046,0.32189 1.270249,-0.006 1.270249,-0.006 z m -8.426951,0.19437 c 0.28014,-0.15672 0.538042,-0.58171 0.538042,-0.88664 0,-0.1571 -0.812741,-2.40062 -1.23189,-3.40057 -0.08026,-0.19147 -0.709663,-1.81509 -1.398666,-3.60804 -0.689003,-1.79294 -1.307139,-3.33887 -1.373636,-3.4354 -0.15857,-0.23018 -0.551275,-0.4261 -0.851484,-0.4248 -0.302261,0.001 -0.705596,0.22615 -0.849848,0.47374 -0.207345,0.35588 -3.915923,10.18875 -3.915923,10.38262 0,0.51211 0.515024,1.04117 1.012784,1.04038 0.2985,-4.7e-4 0.725065,-0.20253 0.858962,-0.40688 0.06008,-0.0917 0.301893,-0.6709 0.537354,-1.28711 l 0.428111,-1.12038 1.957743,-0.0167 1.957742,-0.0167 0.433139,1.12445 c 0.238226,0.61844 0.489215,1.2061 0.557752,1.30589 0.150128,0.2186 0.561221,0.41698 0.865076,0.41746 0.121851,1.9e-4 0.335485,-0.0634 0.474742,-0.14129 z m -5.398676,-4.87272 c 0.333227,-0.97899 1.101896,-2.87344 1.138993,-2.80716 0.04199,0.075 0.5102,1.27641 0.97068,2.49066 l 0.15003,0.39562 h -1.143318 c -0.886818,0 -1.137275,-0.0177 -1.116385,-0.0791 z M 91.750803,93.97134 c -0.09452,-0.0605 -0.205366,-0.15302 -0.246337,-0.20572 -0.04097,-0.0527 -0.753084,-1.28357 -1.582475,-2.73526 l -1.507982,-2.63943 -0.03223,2.54449 c -0.0365,2.88125 -0.03635,2.88031 -0.475996,3.04821 -0.237659,0.0908 -0.283676,0.0909 -0.498313,10e-4 -0.42854,-0.17906 -0.417686,-0.0613 -0.417686,-4.53222 v -3.99972 l 0.157074,-0.20594 c 0.274597,-0.36001 0.794404,-0.34336 1.08845,0.0349 0.04097,0.0527 0.753084,1.28356 1.582474,2.73525 l 1.507983,2.63943 0.03223,-2.54448 c 0.03648,-2.87946 0.03773,-2.88757 0.473273,-3.0539 0.232005,-0.0886 0.278828,-0.0883 0.496828,0.003 0.43344,0.1811 0.42189,0.057 0.42189,4.53398 v 3.99972 l -0.15809,0.20727 c -0.2161,0.28332 -0.556027,0.35183 -0.841093,0.16952 z m -8.017464,0.0123 c -0.170947,-0.0714 -0.265969,-0.16899 -0.354485,-0.36397 -0.114777,-0.25283 -0.120933,-0.46134 -0.120933,-4.09598 0,-3.63463 0.0062,-3.84315 0.120933,-4.09597 0.169504,-0.37337 0.489229,-0.51058 0.8599,-0.36902 0.477425,0.18233 0.47289,0.1395 0.47289,4.46499 0,3.3648 -0.01132,3.79787 -0.106171,4.06253 -0.08499,0.23712 -0.151353,0.31483 -0.332632,0.38946 -0.294226,0.12114 -0.269499,0.12077 -0.539502,0.008 z M 46.605024,73.60402 V 65.3435 h 41.081046 41.08105 v 8.26052 8.26051 H 87.68607 46.605024 Z m 76.655086,5.33887 c 0.22629,-0.0686 0.64496,-0.19454 0.93038,-0.27996 0.48162,-0.14414 0.56816,-0.19827 1.20359,-0.75281 0.89682,-0.78267 1.20848,-1.30194 1.64715,-2.74444 l 0.30166,-0.99197 v -1.01279 -1.01278 l -0.30767,-1.01253 c -0.2302,-0.75758 -0.39433,-1.16399 -0.65188,-1.61412 -0.30739,-0.53725 -0.41597,-0.66204 -1.01508,-1.16664 l -0.67088,-0.56504 -0.98586,-0.30532 -0.98587,-0.30532 -1.55262,0.001 c -1.49322,10e-4 -1.56225,0.007 -1.80452,0.14371 -0.14124,0.08 -0.31458,0.25334 -0.39458,0.39458 l -0.14267,0.2519 v 5.15887 5.15887 l 0.14267,0.25191 c 0.08,0.14124 0.25334,0.31458 0.39458,0.39457 0.24387,0.13812 0.30341,0.14252 1.86603,0.1378 1.4152,-0.004 1.66483,-0.0202 2.02557,-0.12953 z m -2.34206,-5.81362 v -3.86124 h 0.74628 c 0.65776,0 0.82093,0.0233 1.37567,0.19674 0.51594,0.16128 0.69804,0.25409 1.01026,0.5149 0.48565,0.40569 0.67563,0.75506 0.98645,1.81405 0.33344,1.13607 0.33714,1.56993 0.0228,2.66683 -0.28084,0.9799 -0.5382,1.4526 -1.01558,1.86532 -0.30371,0.26258 -0.46367,0.34533 -0.93891,0.48571 -0.483,0.14269 -0.69939,0.16998 -1.37989,0.17408 l -0.80706,0.005 z m -5.35006,5.80535 c 0.70025,-0.3966 0.70025,-1.40275 0,-1.79935 -0.24827,-0.14062 -0.28458,-0.14269 -2.51484,-0.14372 l -2.26294,-0.001 V 75.47138 73.9522 h 1.44246 c 1.37009,0 1.45663,-0.007 1.72464,-0.14242 0.74639,-0.37673 0.74639,-1.42729 0,-1.80402 -0.26801,-0.13528 -0.35455,-0.14242 -1.72464,-0.14242 h -1.44246 v -1.29763 -1.29763 l 2.26294,-10e-4 c 2.23026,-0.001 2.26657,-0.003 2.51484,-0.14372 0.3096,-0.17534 0.53725,-0.55657 0.53725,-0.89968 0,-0.3431 -0.22765,-0.72433 -0.53725,-0.89967 -0.25127,-0.14232 -0.25926,-0.14268 -3.16366,-0.14268 -2.90439,0 -2.91239,3.6e-4 -3.16366,0.14268 -0.14124,0.08 -0.31458,0.25333 -0.39457,0.39457 l -0.14268,0.25191 v 5.15887 5.15886 l 0.14268,0.25191 c 0.08,0.14124 0.25333,0.31458 0.39457,0.39458 0.25127,0.14231 0.25927,0.14267 3.16366,0.14267 2.9044,0 2.91239,-3.6e-4 3.16366,-0.14267 z m -10.69624,0.001 c 0.16683,-0.0933 0.30178,-0.23789 0.39562,-0.42381 l 0.14242,-0.28217 v -5.10037 -5.10039 l -0.14242,-0.28217 c -0.35937,-0.712 -1.38174,-0.74701 -1.78467,-0.0611 -0.12558,0.21378 -0.13123,0.33599 -0.16177,3.50387 l -0.0316,3.28235 -2.28266,-3.5039 c -1.963274,-3.01366 -2.317534,-3.52369 -2.531954,-3.64529 -0.51209,-0.2904 -1.13951,-0.10096 -1.40452,0.42408 l -0.14242,0.28217 v 5.1004 5.10039 l 0.14242,0.28217 c 0.35937,0.712 1.38174,0.74701 1.78467,0.0611 0.12559,-0.21378 0.13123,-0.33599 0.16178,-3.50387 l 0.0316,-3.28235 2.282654,3.5039 c 1.96327,3.01366 2.31753,3.52368 2.53196,3.64528 0.32057,0.1818 0.68362,0.18171 1.00889,-2.6e-4 z M 92.187026,78.79764 c 0.86802,-0.25142 0.95185,-0.28985 1.37081,-0.62835 0.65639,-0.53033 0.64824,-0.49613 0.64699,-2.71506 -10e-4,-1.80202 -0.005,-1.85678 -0.14371,-2.10212 -0.08,-0.14124 -0.25334,-0.31458 -0.39458,-0.39458 -0.23856,-0.13511 -0.32081,-0.14272 -1.55195,-0.14371 -1.223502,-9.8e-4 -1.316653,0.007 -1.582213,0.14138 -0.339505,0.17136 -0.565457,0.5318 -0.565457,0.90201 0,0.37022 0.225952,0.73065 0.565457,0.90201 0.238112,0.12019 0.383859,0.14243 0.9334,0.14243 h 0.651223 v 0.87125 0.87125 l -0.624008,0.17318 c -0.800679,0.22221 -1.25169,0.22288 -2.031986,0.003 -0.535073,-0.15076 -0.649361,-0.21008 -1.002777,-0.52051 -0.537278,-0.47192 -0.727734,-0.8068 -0.991767,-1.74384 -0.311254,-1.10463 -0.310997,-1.68645 0.0012,-2.79454 0.123594,-0.43863 0.308355,-0.94409 0.410581,-1.12325 0.462806,-0.81111 1.61142,-1.37018 2.815055,-1.37018 0.533785,0 0.616151,0.0182 1.141899,0.25222 0.653783,0.29101 0.844083,0.30826 1.233413,0.11175 0.51258,-0.25872 0.70555,-0.85806 0.44237,-1.37395 -0.15856,-0.31079 -0.3194,-0.42146 -1.14527,-0.78802 l -0.669099,-0.29697 -1.039976,0.0197 c -1.038447,0.0197 -1.041284,0.0201 -1.92999,0.30782 l -0.890014,0.2881 -0.696245,0.58156 c -0.632176,0.52805 -0.728905,0.63834 -1.051153,1.19858 -0.293872,0.51091 -0.404803,0.79724 -0.64503,1.66496 -0.280406,1.01284 -0.290123,1.07738 -0.290123,1.92711 0,0.85113 0.0093,0.91261 0.291581,1.92712 0.398958,1.43385 0.710861,1.96467 1.627244,2.76938 0.356813,0.31334 0.705276,0.59995 0.774363,0.63692 0.06909,0.037 0.528849,0.18374 1.021695,0.32613 0.836329,0.24164 0.946011,0.25844 1.644777,0.25193 0.681081,-0.006 0.832188,-0.0312 1.67326,-0.27476 z m -10.292814,0.13801 c 0.166831,-0.0933 0.301777,-0.23789 0.395619,-0.42381 l 0.142423,-0.28217 v -5.1004 -5.10039 l -0.142423,-0.28217 c -0.376732,-0.7464 -1.427289,-0.7464 -1.804021,0 l -0.142423,0.28217 v 5.10039 5.1004 l 0.142423,0.28217 c 0.17136,0.3395 0.531796,0.56546 0.90201,0.56546 0.144527,0 0.361866,-0.0608 0.506392,-0.14165 z m -6.505968,-0.16846 c 0.956634,-0.41578 1.324831,-0.7388 1.824316,-1.60049 l 0.377321,-0.65093 V 75.72453 74.93329 L 77.21256,74.28236 c -0.682506,-1.17743 -1.44851,-1.63789 -3.512335,-2.11137 -1.621688,-0.37204 -1.978451,-0.54285 -2.354214,-1.12715 -0.222247,-0.34559 -0.227117,-0.53793 -0.02287,-0.90335 0.202555,-0.36242 0.305029,-0.45191 0.781984,-0.68295 0.389634,-0.18874 0.395748,-0.18951 1.518861,-0.18951 h 1.127652 l 0.84433,0.2532 c 0.464381,0.13926 0.918923,0.2532 1.010092,0.2532 0.485973,0 1.013808,-0.5277 1.013044,-1.01279 -4.77e-4,-0.30264 -0.198161,-0.7138 -0.417461,-0.86827 -0.0998,-0.0703 -0.615244,-0.25975 -1.145439,-0.421 l -0.96399,-0.2932 h -1.508995 -1.508995 l -0.690118,0.30901 c -0.976504,0.43725 -1.404743,0.81251 -1.896491,1.66189 l -0.379794,0.65601 v 0.79251 0.79251 l 0.373803,0.61783 c 0.744368,1.23032 1.520671,1.69895 3.578569,2.1603 1.012193,0.22692 1.816116,0.50776 2.044107,0.71409 0.180755,0.16358 0.428369,0.65235 0.428369,0.84557 0,0.17488 -0.177144,0.54336 -0.374843,0.77971 -0.05495,0.0657 -0.280584,0.20099 -0.501419,0.30067 -0.396493,0.17897 -0.416549,0.18124 -1.602173,0.18124 -1.183397,0 -1.211713,-0.003 -1.970193,-0.22154 -0.423247,-0.12186 -0.870136,-0.22108 -0.993086,-0.22051 -0.494613,0.002 -1.011387,0.51594 -1.013742,1.00758 -0.0015,0.3059 0.224605,0.73678 0.462367,0.88124 0.110677,0.0673 0.615267,0.23923 1.121311,0.38219 l 0.920081,0.25991 1.54858,-0.002 1.54858,-0.002 z m -9.031783,0.16977 c 0.339506,-0.17136 0.565457,-0.5318 0.565457,-0.90201 0,-0.37022 -0.225951,-0.73065 -0.565457,-0.90202 -0.276953,-0.13978 -0.324076,-0.14242 -2.547523,-0.14242 h -2.265352 v -1.51917 -1.51918 h 1.442465 c 1.370083,0 1.456623,-0.007 1.724637,-0.14242 0.746394,-0.37673 0.746394,-1.42729 0,-1.80402 -0.268014,-0.13528 -0.354554,-0.14243 -1.724637,-0.14243 h -1.442465 v -1.29763 -1.29763 h 2.265352 c 2.223447,0 2.27057,-0.003 2.547523,-0.14242 0.339506,-0.17136 0.565457,-0.53179 0.565457,-0.90201 0,-0.37021 -0.225951,-0.73065 -0.565457,-0.90201 -0.280539,-0.1416 -0.299038,-0.14242 -3.196338,-0.14138 -2.90597,10e-4 -2.914875,10e-4 -3.166072,0.14371 -0.141242,0.08 -0.314582,0.25334 -0.394577,0.39458 l -0.142672,0.25191 v 5.15886 5.15887 l 0.142672,0.25191 c 0.07999,0.14124 0.253335,0.31458 0.394577,0.39457 0.251197,0.14227 0.260102,0.14268 3.166072,0.14372 2.8973,0.001 2.915799,2.1e-4 3.196338,-0.14138 z m -13.738033,0.006 c 0.226294,-0.0686 0.644964,-0.19454 0.930377,-0.27996 0.48162,-0.14415 0.568164,-0.19828 1.20359,-0.75282 0.896826,-0.78266 1.20848,-1.30193 1.647153,-2.74443 l 0.301665,-0.99198 V 73.16102 72.14824 L 56.393542,71.13571 C 56.163337,70.37813 55.999204,69.97172 55.74166,69.52159 55.434319,68.98443 55.325647,68.85952 54.727116,68.35541 l -0.670334,-0.56459 -0.893249,-0.28995 -0.893249,-0.28995 -1.614124,-0.0159 c -1.576974,-0.0156 -1.619923,-0.0126 -1.866031,0.12789 -0.140231,0.08 -0.315154,0.25548 -0.394577,0.39571 l -0.142672,0.25191 v 5.15886 5.15887 l 0.142672,0.25191 c 0.08,0.14124 0.253335,0.31458 0.394577,0.39457 0.243521,0.13793 0.304584,0.14251 1.834381,0.1378 1.383677,-0.004 1.634162,-0.0205 1.993918,-0.12953 z M 50.339665,73.12934 V 69.2681 h 0.71463 c 0.622352,0 0.795901,0.0254 1.34402,0.19674 0.515946,0.16127 0.698041,0.25408 1.010267,0.5149 0.485648,0.40569 0.675625,0.75505 0.986445,1.81405 0.33344,1.13607 0.337145,1.56992 0.02278,2.66683 -0.124405,0.43408 -0.321436,0.96014 -0.437846,1.16903 -0.516806,0.92736 -1.403184,1.34692 -2.864881,1.35607 l -0.775412,0.005 z"
       id="path1"
       inkscape:export-filename="diat.svg"
       inkscape:export-xdpi="96"
       inkscape:export-ydpi="96" /></g></svg>
