<?xml version="1.0" encoding="UTF-8" standalone="no"?>
<svg
   baseprofile="tiny"
   fill="#6f9c76"
   height="317.36111"
   stroke="#ffffff"
   stroke-linecap="round"
   stroke-linejoin="round"
   stroke-width="0.5"
   version="1.2"
   viewbox="0 0 1000 513"
   width="310.85483"
   id="svg1"
   xml:space="preserve"
   xmlns="http://www.w3.org/2000/svg"
   xmlns:svg="http://www.w3.org/2000/svg"><defs
     id="defs1" /><g
     id="features"
     style="fill:#1a1a1a"
     transform="translate(-301.7504,-83.607468)"><path
       style="fill:#000000"
       d="m 448.64862,400.46667 c -4.08973,-1.14829 -7.86402,-6.15797 -11.95713,-15.8709 -5.2978,-12.57167 -5.93514,-19.29423 -4.02024,-42.40444 0.45528,-5.49463 0.75913,-12.51548 0.68817,-15.90131 l -0.0565,-2.69704 -0.62583,0.88272 c -6.1206,8.63288 -21.35825,23.33629 -32.33808,31.20429 -1.62773,1.16641 -3.57183,2.58504 -4.32023,3.15253 -2.4486,1.85667 -11.13245,7.4822 -12.24662,7.93354 -0.59872,0.24254 -3.3338,1.93558 -6.07795,3.76231 -12.75468,8.49056 -15.8732,5.72535 -13.15337,-11.66315 2.96471,-18.95407 16.54933,-46.71878 29.57645,-60.44936 0.61539,-0.64861 1.28081,-1.46613 1.47871,-1.81669 l 0.35983,-0.6374 -3.73323,0.0674 c -6.07086,0.10962 -23.03046,-0.97873 -27.50073,-1.76481 -1.73832,-0.30567 -3.54033,-0.37697 -13.97022,-0.55277 -16.15866,-0.27236 -28.35482,-0.80127 -30.20832,-1.31003 -17.89562,-4.91217 -22.77553,-11.18521 -14.91533,-19.17339 5.12168,-5.20508 8.18159,-7.07798 39.85477,-24.39415 l 4.52841,-2.47574 -0.62764,-0.26055 c -0.3452,-0.1433 -2.13805,-0.79886 -3.98411,-1.45679 -7.4605,-2.6589 -15.65671,-7.46055 -18.00645,-10.54886 -4.82344,-6.33953 1.24438,-11.89859 20.18294,-18.49068 5.64209,-1.96388 14.61296,-2.74183 24.29255,-2.10665 3.91606,0.25697 3.68573,0.35425 2.59007,-1.09386 -12.35538,-16.32978 -9.72279,-25.27269 6.59215,-22.39358 2.54069,0.44836 8.06189,1.55289 9.10475,1.82142 0.51718,0.13318 1.82349,0.37378 2.9029,0.53469 1.07941,0.1609 2.51753,0.42147 3.19582,0.57904 1.62146,0.37668 1.6276,0.44066 -0.18653,-1.9457 -11.38959,-14.98223 -14.44001,-23.88903 -8.76398,-25.58961 0.40268,-0.12065 0.73215,-0.24675 0.73215,-0.28022 0,-0.0335 -0.35729,-0.8574 -0.79397,-1.83095 -9.59276,-21.38641 -14.56635,-38.1003 -12.83621,-43.13645 3.11786,-9.07561 12.37278,-5.67964 32.41333,11.89364 1.10041,0.96494 4.20289,3.3291 6.89439,5.2537 2.6915,1.9246 6.73064,4.90098 8.97585,6.61419 2.24521,1.71321 5.34769,4.07286 6.89439,5.24366 l 2.81219,2.12874 0.11505,-9.67045 c 0.11328,-9.52213 0.26078,-15.31073 0.8012,-31.44221 l 0.27351,-8.16441 0.92526,-3.265756 c 5.18162,-18.288985 10.88099,-19.581948 20.79342,-4.71722 0.99813,1.49681 2.10956,3.08887 2.46984,3.53791 0.36028,0.44905 3.32936,5.652916 6.59796,11.564176 3.2686,5.91125 5.99009,10.74866 6.04775,10.7498 0.0577,0.001 0.75163,-0.82868 1.54216,-1.84405 4.35747,-5.59681 8.70203,-8.39225 12.53883,-8.06792 7.34017,0.62047 10.71404,10.52152 12.03369,35.31445 0.10888,2.04563 0.274,4.65825 0.36692,5.8058 0.0929,1.14755 0.17024,5.68844 0.17182,10.09086 l 0.003,8.00441 0.60122,-0.56572 c 3.8261,-3.60018 5.78014,-5.38523 6.38389,-5.83181 0.39915,-0.29525 2.11367,-1.64339 3.81006,-2.99589 11.57334,-9.22719 18.50464,-12.74716 21.9985,-11.17165 l 0.7494,0.33793 3.59414,-2.04051 c 1.97677,-1.12228 5.06373,-3.03868 6.8599,-4.25868 2.79854,-1.90083 5.58816,-3.62464 11.33946,-7.0071 20.89668,-12.28975 27.57938,0.46136 15.29898,29.19135 -0.8094,1.89348 -0.9578,1.85445 2.1288,0.55963 32.6432,-13.69375 43.4587,-12.69254 33.5109,3.10216 -2.6245,4.16705 -7.2413,10.04946 -13.4496,17.13666 -0.8683,0.99117 -2.0507,2.4605 -2.6276,3.26519 -8.9119,12.43086 -9.8974,13.7682 -13.1782,17.8826 -0.5172,0.64862 -3.4228,4.3226 -6.4569,8.16441 -3.0341,3.84181 -6.4412,8.02606 -7.5712,9.29833 -1.956,2.20219 -2.0344,2.32097 -1.6345,2.47461 0.2311,0.0888 1.5223,0.69202 2.8694,1.34058 1.3472,0.64856 3.7965,1.82758 5.443,2.62004 1.6465,0.79246 4.2591,2.13965 5.8058,2.99375 1.5467,0.8541 4.4859,2.44989 6.5315,3.54619 42.8705,22.97528 44.2397,33.91475 4.5358,36.23912 -2.5446,0.14896 -5.5246,0.35203 -6.6222,0.45126 -3.2202,0.29109 -9.1423,0.54561 -12.6954,0.54561 h -3.2984 l -2.5262,1.11139 c -1.38932,0.61126 -3.38333,1.43479 -4.4311,1.83006 -1.04777,0.39528 -1.9279,0.74128 -1.95586,0.76888 -0.028,0.0276 2.01607,2.98012 4.54228,6.56114 4.00198,5.67305 6.56188,9.54672 10.95698,16.58038 1.3245,2.11962 4.0083,6.77786 6.9513,12.06518 1.2219,2.19532 3.7943,6.35917 5.7164,9.253 6.3778,9.6025 7.7185,12.05387 9.6099,17.57193 0.3753,1.09481 1.0774,2.30473 3.0336,5.22722 5.5962,8.36072 6.4081,11.60606 3.6664,14.65548 -6.2508,6.95245 -36.092,-0.47623 -61.07738,-15.20461 -4.58675,-2.70379 -11.53969,-7.59764 -15.462,-10.88296 l -1.08859,-0.9118 -0.13266,2.57392 c -0.073,1.41566 -0.25964,4.28845 -0.41486,6.38398 -0.15521,2.09553 -0.35844,5.56541 -0.45161,7.71083 -0.92058,21.19703 -8.61423,31.80205 -17.2626,23.79498 -3.07057,-2.84288 -4.95626,-6.34216 -8.22744,-15.2677 -0.42057,-1.14756 -1.31425,-3.39277 -1.98594,-4.98937 -1.9377,-4.60584 -3.25884,-8.55164 -5.06624,-15.13117 l -0.21924,-0.7981 -0.69395,1.52382 c -6.28817,13.80784 -15.04704,34.54606 -17.42518,41.2573 -1.77662,5.01371 -5.91533,12.49129 -8.97409,16.21387 -2.89237,3.52008 -6.27369,4.99002 -9.43608,4.1021 z m 3.27267,-6.41817 c 2.5028,-1.79221 7.54796,-10.33939 9.67175,-16.38524 1.22576,-3.48937 3.71629,-9.7245 5.99981,-15.02069 0.96806,-2.24521 1.80157,-4.18426 1.85227,-4.309 0.0665,-0.16367 -0.16307,-0.22678 -0.82504,-0.22678 -3.45888,0 -7.42311,-2.93499 -11.15733,-8.26054 -3.61532,-5.15597 -8.0984,-14.93071 -10.93985,-23.85282 -2.04281,-6.41441 -3.61968,-11.5315 -4.05344,-13.15377 -0.21344,-0.7983 -0.4276,-1.56908 -0.47591,-1.71284 -0.0546,-0.16242 -0.33181,0.14672 -0.73221,0.81644 -0.35441,0.59281 -1.0171,1.62679 -1.47264,2.29774 l -0.82826,1.2199 0.21021,2.50892 c 0.45196,5.3944 0.21991,15.24978 -0.60332,25.62246 -0.80857,10.18807 -0.89911,11.86006 -0.89892,16.60097 3.8e-4,9.34944 1.31429,15.04824 5.64712,24.49323 3.90584,8.51418 6.24146,11.05506 8.60576,9.36202 z m 55.16314,-24.46618 c 2.45593,-2.66134 4.45592,-10.88766 4.86339,-20.004 0.10032,-2.24456 0.30631,-5.63225 0.45775,-7.52821 0.68209,-8.5393 0.5642,-12.28926 -0.45911,-14.60523 -0.47183,-1.06782 -0.54453,-1.51373 -0.76917,-4.71721 -0.33394,-4.76237 -0.44045,-5.01098 -2.72349,-6.35746 -3.45764,-2.03922 -10.13077,-6.17974 -13.22596,-8.20641 -3.65046,-2.39024 -3.18391,-2.39662 -3.60392,0.0494 -0.11137,0.64862 -0.56781,2.77136 -1.01429,4.71721 -0.44649,1.94586 -1.08766,4.8034 -1.42483,6.3501 -0.33717,1.5467 -0.78622,3.58576 -0.99788,4.53124 l -0.38483,1.71905 0.387,0.68859 c 0.21286,0.37872 0.98336,2.91174 1.71222,5.62892 2.87121,10.70379 3.88056,13.8651 6.19061,19.38917 0.76623,1.83229 1.57914,3.86212 1.80646,4.51074 3.60069,10.27357 7.31283,15.86404 9.18605,13.83414 z m 84.1788,-13.13714 c 0.9147,-0.27405 0.9009,-0.4812 -0.1697,-2.55093 -1.3883,-2.6841 -2.1581,-3.78354 -2.5322,-3.61693 -0.1738,0.0774 -0.6426,0.28928 -1.0418,0.47084 -5.1164,2.3273 -17.8861,-1.00862 -36.28624,-9.47935 -3.12611,-1.43914 -4.73827,-2.33667 -8.98085,-4.99987 -2.84394,-1.78522 -9.13053,-5.53405 -13.97022,-8.33073 -4.83968,-2.79667 -9.10558,-5.27745 -9.47978,-5.51284 -0.37421,-0.23539 -0.68037,-0.40145 -0.68037,-0.36902 0,1.0208 1.18875,3.31687 2.20878,4.26625 10.94024,10.18249 26.72098,19.22842 45.26528,25.94721 8.5297,3.09043 21.9835,5.27901 25.6671,4.17537 z M 451.19549,311.03119 c 19.59929,-3.43245 19.59929,-31.5955 0,-35.02795 -10.67882,-1.87019 -20.70477,6.61067 -20.70477,17.51398 0,10.90228 10.02696,19.38399 20.70477,17.51397 z m 60.50736,-9.62419 c 16.34482,-2.78577 22.64622,-22.7193 10.81904,-34.2244 -11.69808,-11.37952 -31.12899,-4.977 -33.87994,11.16351 -2.27271,13.33454 9.72635,25.3336 23.0609,23.06089 z M 350.53926,287.12176 c -0.96043,-3.76319 2.03771,-7.1311 9.28394,-10.42895 2.23469,-1.01704 3.02187,-1.32293 5.34494,-2.07701 1.25135,-0.40619 3.94888,-1.44971 5.99452,-2.31894 6.07412,-2.581 8.61048,-3.42788 16.87166,-5.63334 3.04271,-0.8123 5.55377,-1.49849 5.58015,-1.52487 0.0264,-0.0264 -1.60585,-0.7285 -3.62717,-1.56028 -2.02132,-0.83178 -6.45102,-2.73254 -9.84379,-4.2239 -15.69033,-6.89704 -22.68316,-9.92508 -22.92055,-9.92508 -0.29273,0 -0.90434,0.32484 -11.27926,5.99053 -26.19523,14.30508 -26.00672,14.19485 -32.83908,19.20374 -2.62241,1.92252 -4.89864,4.3662 -4.89864,5.25899 0,1.68284 4.44295,3.9547 12.26315,6.27064 l 2.19371,0.64967 8.23859,0.36349 c 8.08242,0.3566 10.3273,0.42471 16.64421,0.505 l 3.14411,0.04 z m 122.31339,-14.83992 c 22.03522,-2.08954 30.07204,-29.07715 12.82833,-43.0775 -9.53681,-7.74304 -23.41595,-7.58994 -32.4069,0.35748 -12.80884,11.3222 -9.83577,32.25194 5.68214,40.00095 1.59905,0.7985 4.57256,2.00125 4.9476,2.00125 0.14129,0 0.7435,0.12816 1.33824,0.2848 2.10623,0.55472 4.74432,0.70482 7.61059,0.43302 z m -49.89133,-3.34567 c 18.48822,-3.83375 25.65947,-26.29014 12.7505,-39.92757 -14.84385,-15.6815 -41.22715,-5.16758 -41.22715,16.4293 0,15.09759 13.85483,26.53027 28.47665,23.49827 z m 96.00327,-23.13959 c 14.12271,-2.26563 23.10328,-15.58211 19.81892,-29.3877 -4.68051,-19.67416 -31.00229,-25.95833 -43.69662,-10.4323 -14.23776,17.41373 1.36374,43.43179 23.8777,39.82 z m -55.7723,-24.48688 c 29.62677,-4.5731 25.31176,-48.62578 -4.76295,-48.62578 -29.13557,0 -33.51811,40.56702 -5.21525,48.27509 2.76151,0.75207 6.5217,0.88423 9.9782,0.35069 z M 406.722,214.68505 c 1.64582,-0.16276 3.24981,-0.35176 3.56441,-0.41999 l 0.572,-0.12407 -4.1503,-6.70012 c -2.28266,-3.68507 -4.23447,-6.78431 -4.33736,-6.88719 -0.18556,-0.18556 -3.69557,-0.9996 -7.5313,-1.74665 -1.09766,-0.21378 -5.08137,-0.99917 -8.8527,-1.74531 -9.41697,-1.8631 -13.20251,-2.04608 -13.33906,-0.64479 -0.21409,2.19715 3.69076,8.89003 9.34768,16.02186 l 1.52803,1.92643 2.56169,0.22697 c 1.40893,0.12483 3.506,0.29255 4.66016,0.37272 3.1963,0.222 12.56074,0.058 15.97675,-0.27986 z m 128.9082,-33.11126 c 6.13866,-3.1882 12.83256,-6.52143 19.05029,-9.48608 4.63554,-2.21024 4.02804,-1.56956 6.22364,-6.56385 6.6323,-15.08672 9.0966,-27.11485 5.7795,-28.2096 -2.9559,-0.97551 -11.61485,3.06731 -22.70759,10.60198 -1.79617,1.22004 -5.11124,3.2562 -7.36683,4.52481 l -4.10105,2.30656 -0.12317,2.11912 c -0.0678,1.16552 -0.40724,3.58872 -0.75442,5.38489 -0.34718,1.79617 -0.99877,5.26604 -1.44796,7.71083 -1.1841,6.44459 -1.49503,7.97218 -2.17877,10.70445 -0.33712,1.34713 -0.74127,3.02084 -0.89811,3.71935 -0.15684,0.69851 -0.33142,1.41992 -0.38795,1.60313 -0.0797,0.25818 0.27862,0.12754 1.59262,-0.58068 0.93248,-0.50259 4.22639,-2.2283 7.3198,-3.83491 z m -102.78504,-4.62623 c -0.0791,-2.09553 -0.20325,-7.01023 -0.27595,-10.92154 l -0.13218,-7.11148 -1.47209,-1.16074 c -0.80965,-0.6384 -3.18662,-2.45437 -5.28215,-4.03548 -2.09554,-1.58111 -5.48377,-4.15131 -7.52941,-5.71155 -2.04563,-1.56024 -5.71962,-4.25658 -8.16441,-5.99186 -2.44478,-1.73529 -5.38724,-3.97646 -6.53878,-4.98038 -10.8039,-9.4189 -19.84746,-15.69569 -22.61428,-15.69569 -1.72093,0 -0.74432,6.11206 2.5656,16.05668 2.78637,8.37163 10.72461,27.51763 11.50229,27.74202 0.16418,0.0474 1.48236,0.30232 2.92927,0.56656 1.44692,0.26424 3.48802,0.71449 4.53579,1.00054 9.08573,2.48057 9.17646,2.51277 14.36959,5.09913 5.36914,2.67402 15.2949,8.17567 16.00806,8.87295 0.2549,0.24923 0.25238,0.34479 0.0987,-3.72916 z M 490.83072,150.005 c -0.15017,-2.24521 -0.32282,-5.06193 -0.38367,-6.25938 -0.83682,-16.46723 -3.55163,-27.84972 -6.64237,-27.84972 -1.81699,0 -4.82722,2.74078 -8.82884,8.03853 -1.37788,1.82419 -1.46357,1.98827 -1.23178,2.35861 0.62303,0.99543 5.48906,10.32945 7.82153,15.00326 3.62606,7.26591 7.88293,16.71877 9.18267,20.39115 0.3807,1.07567 0.43368,-6.43104 0.0825,-11.68245 z"
       id="path1" /></g></svg>
