<?xml version="1.0" standalone="no"?>
<!DOCTYPE svg PUBLIC "-//W3C//DTD SVG 1.1//EN" "http://www.w3.org/Graphics/SVG/1.1/DTD/svg11.dtd">
<svg width="182mm" height="130mm" viewBox="-4 -137 182 130" xmlns="http://www.w3.org/2000/svg" version="1.1">
<title>OpenSCAD Model</title>
<path d="
M 57.1266,-19.5248 L 57.1572,-19.532 L 57.1768,-19.5344 L 126.177,-25.5344 L 126.198,-25.5354 L 169.095,-25.5354
 L 171.979,-28.4189 L 177.948,-47.3239 L 177.948,-129.182 L 177.086,-130.044 L 106.988,-136.035 L 65.5059,-136.035
 L -1.69189,-132.041 L -3.55151,-130.182 L -3.55151,-56.3162 L -2.56213,-52.3586 L 13.3994,-8.46443 L 15.2575,-7.53539
 L 17.1618,-7.53539 z
M 88.3,-134.235 L 106.911,-134.235 L 124.6,-132.724 L 124.6,-27.2041 L 88.3,-24.0476 z
M 49.8,-55.7024 L 49.8,-133.299 L 65.5593,-134.235 L 86.5,-134.235 L 86.5,-23.8911 L 57.0209,-21.3277
 L 56.8602,-21.3073 L 56.6094,-21.2489 L 55.912,-21.0397 z
M 15.6824,-9.33539 L 14.8459,-9.75365 L -0.838577,-52.886 L -1.75151,-56.5377 L -1.75151,-129.436 L -0.902557,-130.285
 L 48,-133.192 L 48,-55.5582 L 47.9977,-55.5578 L 48,-55.545 L 48,-55.5 L 48.0079,-55.5
 L 54.176,-20.5189 L 16.8976,-9.33539 z
M 126.4,-27.3354 L 126.4,-132.57 L 176.148,-128.318 L 176.148,-47.6014 L 170.395,-29.3806 L 168.349,-27.3354
 z
" stroke="black" fill="lightgray" stroke-width="0.5"/>
</svg>
