<?xml version="1.0" standalone="no"?>
<!DOCTYPE svg PUBLIC "-//W3C//DTD SVG 1.1//EN" "http://www.w3.org/Graphics/SVG/1.1/DTD/svg11.dtd">
<svg width="182mm" height="130mm" viewBox="-188 -137 182 130" xmlns="http://www.w3.org/2000/svg" version="1.1">
<title>OpenSCAD Model</title>
<path d="
M -23.3994,-8.46443 L -7.43787,-52.3586 L -6.44849,-56.3162 L -6.44849,-130.182 L -8.30811,-132.041 L -75.5059,-136.035
 L -116.988,-136.035 L -187.086,-130.044 L -187.948,-129.182 L -187.948,-47.3239 L -181.979,-28.4189 L -179.095,-25.5354
 L -136.198,-25.5354 L -136.177,-25.5344 L -67.1768,-19.5344 L -67.1572,-19.532 L -67.1266,-19.5248 L -27.1618,-7.53539
 L -25.2575,-7.53539 z
M -134.6,-27.2041 L -134.6,-132.724 L -116.911,-134.235 L -98.3,-134.235 L -98.3,-24.0476 z
M -66.6094,-21.2489 L -66.8602,-21.3073 L -67.0209,-21.3277 L -96.5,-23.8911 L -96.5,-134.235 L -75.5593,-134.235
 L -59.8,-133.299 L -59.8,-55.7024 L -65.912,-21.0397 z
M -26.8976,-9.33539 L -64.176,-20.5189 L -58.0079,-55.5 L -58,-55.5 L -58,-55.545 L -57.9977,-55.5578
 L -58,-55.5582 L -58,-133.192 L -9.09744,-130.285 L -8.24849,-129.436 L -8.24849,-56.5377 L -9.16142,-52.886
 L -24.8459,-9.75365 L -25.6824,-9.33539 z
M -178.349,-27.3354 L -180.395,-29.3806 L -186.148,-47.6014 L -186.148,-128.318 L -136.4,-132.57 L -136.4,-27.3354
 z
" stroke="black" fill="lightgray" stroke-width="0.5"/>
</svg>
