<?xml version="1.0" standalone="no"?>
<!DOCTYPE svg PUBLIC "-//W3C//DTD SVG 1.1//EN" "http://www.w3.org/Graphics/SVG/1.1/DTD/svg11.dtd">
<svg width="186mm" height="133mm" viewBox="4 -138 186 133" xmlns="http://www.w3.org/2000/svg" version="1.1">
<title>OpenSCAD Model</title>
<path d="
M 27.2794,-5.63737 L 27.3602,-5.64333 L 27.4406,-5.65324 L 27.5204,-5.66708 L 27.5994,-5.68483 L 27.6726,-5.70497
 L 67.5103,-17.6563 L 136.27,-23.6354 L 179.198,-23.6354 L 179.279,-23.6374 L 179.36,-23.6433 L 179.441,-23.6532
 L 179.52,-23.6671 L 179.599,-23.6848 L 179.677,-23.7064 L 179.754,-23.7318 L 179.83,-23.761 L 179.904,-23.7938
 L 179.976,-23.8302 L 180.047,-23.8701 L 180.115,-23.9135 L 180.181,-23.9601 L 180.245,-24.0099 L 180.307,-24.0628
 L 180.365,-24.1187 L 183.365,-27.1187 L 183.421,-27.1773 L 183.474,-27.2386 L 183.524,-27.3025 L 183.57,-27.3687
 L 183.614,-27.4371 L 183.654,-27.5076 L 183.69,-27.5799 L 183.723,-27.654 L 183.752,-27.7295 L 183.772,-27.7885
 L 189.772,-46.7885 L 189.794,-46.8663 L 189.813,-46.9451 L 189.828,-47.0248 L 189.839,-47.105 L 189.845,-47.1857
 L 189.848,-47.2854 L 189.848,-129.285 L 189.846,-129.366 L 189.841,-129.447 L 189.831,-129.527 L 189.817,-129.607
 L 189.799,-129.686 L 189.777,-129.764 L 189.752,-129.841 L 189.723,-129.917 L 189.69,-129.991 L 189.654,-130.063
 L 189.614,-130.134 L 189.57,-130.202 L 189.524,-130.268 L 189.474,-130.332 L 189.421,-130.393 L 189.365,-130.452
 L 188.365,-131.452 L 188.307,-131.508 L 188.245,-131.561 L 188.181,-131.611 L 188.115,-131.657 L 188.047,-131.701
 L 187.976,-131.741 L 187.904,-131.777 L 187.83,-131.81 L 187.754,-131.839 L 187.677,-131.864 L 187.599,-131.886
 L 187.52,-131.904 L 187.441,-131.918 L 187.339,-131.929 L 117.139,-137.929 L 117.058,-137.934 L 116.998,-137.935
 L 75.4985,-137.935 L 75.4006,-137.932 L 8.10059,-133.932 L 8.01988,-133.926 L 7.93962,-133.915 L 7.85997,-133.9
 L 7.78114,-133.882 L 7.70331,-133.859 L 7.62668,-133.833 L 7.55142,-133.803 L 7.47772,-133.77 L 7.40576,-133.732
 L 7.33571,-133.692 L 7.26775,-133.648 L 7.20201,-133.601 L 7.13869,-133.55 L 7.07791,-133.497 L 7.03175,-133.452
 L 5.03175,-131.452 L 4.97592,-131.393 L 4.92302,-131.332 L 4.8732,-131.268 L 4.82657,-131.202 L 4.78323,-131.134
 L 4.74332,-131.063 L 4.70691,-130.991 L 4.67409,-130.917 L 4.64494,-130.841 L 4.61954,-130.764 L 4.59793,-130.686
 L 4.58018,-130.607 L 4.56635,-130.527 L 4.55643,-130.447 L 4.55048,-130.366 L 4.54849,-130.285 L 4.54849,-56.2854
 L 4.55048,-56.2044 L 4.55643,-56.1237 L 4.56635,-56.0433 L 4.58018,-55.9635 L 4.59775,-55.8852 L 5.59775,-51.8852
 L 5.61931,-51.8071 L 5.64783,-51.7215 L 21.6478,-7.72151 L 21.6774,-7.6461 L 21.7106,-7.57224 L 21.7473,-7.50008
 L 21.7876,-7.42982 L 21.8313,-7.36163 L 21.8783,-7.29565 L 21.9284,-7.23207 L 21.9816,-7.17102 L 22.0378,-7.11266
 L 22.0967,-7.05711 L 22.1583,-7.00453 L 22.2224,-6.95503 L 22.2889,-6.90875 L 22.3575,-6.86577 L 22.4606,-6.80959
 L 24.4606,-5.80959 L 24.5339,-5.77515 L 24.6088,-5.74435 L 24.6851,-5.71729 L 24.7627,-5.69398 L 24.8413,-5.67451
 L 24.9208,-5.65892 L 25.0009,-5.64726 L 25.0815,-5.63954 L 25.1985,-5.63539 L 27.1985,-5.63539 z
" stroke="black" fill="lightgray" stroke-width="0.5"/>
</svg>
