<?xml version="1.0" encoding="UTF-8" standalone="no"?>
<svg
   version="1.1"
   width="29.700220cm"
   height="21.000720cm"
   viewBox="0 0 297002200 210007200"
   id="svg389"
   sodipodi:docname="poly_kb_wave_right_case-Edge_CutsMod.svg"
   inkscape:version="1.2.2 (b0a8486541, 2022-12-01, custom)"
   xmlns:inkscape="http://www.inkscape.org/namespaces/inkscape"
   xmlns:sodipodi="http://sodipodi.sourceforge.net/DTD/sodipodi-0.dtd"
   xmlns="http://www.w3.org/2000/svg"
   xmlns:svg="http://www.w3.org/2000/svg"
   xmlns:rdf="http://www.w3.org/1999/02/22-rdf-syntax-ns#"
   xmlns:cc="http://creativecommons.org/ns#"
   xmlns:dc="http://purl.org/dc/elements/1.1/">
  <defs
     id="defs393">
    <inkscape:path-effect
       effect="fill_between_many"
       method="originald"
       linkedpaths="#path361,0,1|"
       id="path-effect341" />
    <inkscape:path-effect
       effect="fill_between_many"
       method="originald"
       linkedpaths="#path361,0,1|"
       id="path-effect358" />
    <inkscape:path-effect
       effect="fill_between_many"
       method="originald"
       linkedpaths="#g351,0,1|"
       id="path-effect362" />
    <inkscape:path-effect
       effect="fill_between_many"
       method="originald"
       linkedpaths="#g351,0,1|"
       id="path-effect961" />
    <inkscape:path-effect
       effect="fill_between_many"
       method="originald"
       linkedpaths="#path1054,0,1|#path1056,0,1|#path1058,0,1|#path1066,0,1|#path1050,0,1|#path1042,0,1|#path1038,0,1|#path1040,0,1|#path1062,0,1|#path1036,0,1|#path361,0,1|#path1060,0,1|#path1044,0,1|#path1046,0,1|#path1052,0,1|#path1048,0,1|#path1064,0,1|"
       id="path-effect1146" />
    <inkscape:path-effect
       effect="fill_between_many"
       method="originald"
       linkedpaths="#path1054,0,1|#path1056,0,1|#path1058,0,1|#path1066,0,1|#path1050,0,1|#path1042,0,1|#path1038,0,1|#path1040,0,1|#path1062,0,1|#path1036,0,1|#path361,0,1|#path1060,0,1|#path1044,0,1|#path1046,0,1|#path1052,0,1|#path1048,0,1|#path1064,0,1|"
       id="path-effect1265" />
  </defs>
  <sodipodi:namedview
     id="namedview391"
     pagecolor="#ffffff"
     bordercolor="#000000"
     borderopacity="0.25"
     inkscape:showpageshadow="2"
     inkscape:pageopacity="0.0"
     inkscape:pagecheckerboard="0"
     inkscape:deskcolor="#d1d1d1"
     inkscape:document-units="cm"
     showgrid="false"
     inkscape:zoom="1.3504346"
     inkscape:cx="482.06705"
     inkscape:cy="359.5139"
     inkscape:window-width="1846"
     inkscape:window-height="1136"
     inkscape:window-x="74"
     inkscape:window-y="27"
     inkscape:window-maximized="1"
     inkscape:current-layer="svg389" />
  <title
     id="title313">SVG Picture created as poly_kb_wave_right_case-Edge_Cuts.svg date 2023/01/25 09:12:53 </title>
  <desc
     id="desc315">Picture generated by PCBNEW </desc>
  <g
     style="display:inline;fill:#223c44;fill-opacity:0;fill-rule:nonzero;stroke:#379419;stroke-width:100000;stroke-linecap:round;stroke-linejoin:round;stroke-opacity:1"
     id="g351"
     inkscape:label="outline">
    <path
       inkscape:original-d="M 0,0"
       inkscape:path-effect="#path-effect1265"
       d="m 49302000,109202800 c 333333,1333330 666667,2666670 1000000,4000000 5333333,14666670 10666667,29333330 16000000,44000000 666667,333330 1333333,666670 2000000,1000000 666667,0 1333333,0 2000000,0 13333333,-4000000 26666667,-8000000 40000000,-12000000 23000000,-2000000 46000000,-4000000 69000000,-6000000 14333330,0 28666670,0 43000000,0 1000000,-1000000 2000000,-2000000 3000000,-3000000 2000000,-6333330 4000000,-12666670 6000000,-19000000 0,-27333333 0,-54666667 0,-82000000 -333330,-333333 -666670,-666667 -1000000,-1000000 -23399330,-2000933 -46798670,-4001867 -70198000,-6002800 -13833330,0 -27666670,0 -41500000,0 -22434000,1334267 -44868000,2668533 -67302000,4002800 -666667,666667 -1333333,1333333 -2000000,2000000 667,15599067 1333,31198133 2000,46797200 -667,9067600 -1333,18135200 -2000,27202800 z"
       id="path1267"
       class="UnoptimicedTransforms"
       style="fill:#222744;fill-opacity:0.68476886"
       inkscape:label="fill" />
    <path
       style="display:inline;fill:#223c44;fill-opacity:0;fill-rule:nonzero;stroke:#379419;stroke-width:100000;stroke-linecap:round;stroke-linejoin:round;stroke-opacity:1"
       d="m 49302000,109202800 c 333333,1333330 666667,2666670 1000000,4000000"
       id="path1054"
       class="UnoptimicedTransforms" />
    <path
       style="fill:#223c44;fill-opacity:0;fill-rule:nonzero;stroke:#379419;stroke-width:100000;stroke-linecap:round;stroke-linejoin:round;stroke-opacity:1"
       d="m 50302000,113202800 c 5333333,14666670 10666667,29333330 16000000,44000000"
       id="path1056"
       class="UnoptimicedTransforms" />
    <path
       style="fill:#223c44;fill-opacity:0;fill-rule:nonzero;stroke:#379419;stroke-width:100000;stroke-linecap:round;stroke-linejoin:round;stroke-opacity:1"
       d="m 66302000,157202800 c 666667,333330 1333333,666670 2000000,1000000"
       id="path1058"
       class="UnoptimicedTransforms" />
    <path
       style="fill:#223c44;fill-opacity:0;fill-rule:nonzero;stroke:#379419;stroke-width:100000;stroke-linecap:round;stroke-linejoin:round;stroke-opacity:1"
       d="m 68302000,158202800 c 666667,0 1333333,0 2000000,0"
       id="path1066"
       class="UnoptimicedTransforms" />
    <path
       style="fill:#223c44;fill-opacity:0;fill-rule:nonzero;stroke:#379419;stroke-width:100000;stroke-linecap:round;stroke-linejoin:round;stroke-opacity:1"
       d="m 70302000,158202800 c 13333333,-4000000 26666667,-8000000 40000000,-12000000"
       id="path1050"
       class="UnoptimicedTransforms" />
    <path
       style="fill:#223c44;fill-opacity:0;fill-rule:nonzero;stroke:#379419;stroke-width:100000;stroke-linecap:round;stroke-linejoin:round;stroke-opacity:1"
       d="m 110302000,146202800 c 23000000,-2000000 46000000,-4000000 69000000,-6000000"
       id="path1042"
       class="UnoptimicedTransforms" />
    <path
       style="fill:#223c44;fill-opacity:0;fill-rule:nonzero;stroke:#379419;stroke-width:100000;stroke-linecap:round;stroke-linejoin:round;stroke-opacity:1"
       d="m 179302000,140202800 c 14333330,0 28666670,0 43000000,0"
       id="path1038"
       class="UnoptimicedTransforms" />
    <path
       style="fill:#223c44;fill-opacity:0;fill-rule:nonzero;stroke:#379419;stroke-width:100000;stroke-linecap:round;stroke-linejoin:round;stroke-opacity:1"
       d="m 222302000,140202800 c 1000000,-1000000 2000000,-2000000 3000000,-3000000"
       id="path1040"
       class="UnoptimicedTransforms" />
    <path
       style="fill:#223c44;fill-opacity:0;fill-rule:nonzero;stroke:#379419;stroke-width:100000;stroke-linecap:round;stroke-linejoin:round;stroke-opacity:1"
       d="m 225302000,137202800 c 2000000,-6333330 4000000,-12666670 6000000,-19000000"
       id="path1062"
       class="UnoptimicedTransforms" />
    <path
       style="fill:#223c44;fill-opacity:0;fill-rule:nonzero;stroke:#379419;stroke-width:100000;stroke-linecap:round;stroke-linejoin:round;stroke-opacity:1"
       d="m 231302000,118202800 c 0,-27333333 0,-54666667 0,-82000000"
       id="path1036"
       class="UnoptimicedTransforms" />
    <path
       style="fill:#223c44;fill-opacity:0;fill-rule:nonzero;stroke:#379419;stroke-width:100000;stroke-linecap:round;stroke-linejoin:round;stroke-opacity:1"
       d="m 231302000,36202800 c -333330,-333333 -666670,-666667 -1000000,-1000000"
       id="path361"
       class="UnoptimicedTransforms" />
    <path
       style="fill:#223c44;fill-opacity:0;fill-rule:nonzero;stroke:#379419;stroke-width:100000;stroke-linecap:round;stroke-linejoin:round;stroke-opacity:1"
       d="m 160104000,29200000 c 23399330,2000933 46798670,4001867 70198000,6002800"
       id="path1060"
       class="UnoptimicedTransforms" />
    <path
       style="fill:#223c44;fill-opacity:0;fill-rule:nonzero;stroke:#379419;stroke-width:100000;stroke-linecap:round;stroke-linejoin:round;stroke-opacity:1"
       d="m 118604000,29200000 c 13833330,0 27666670,0 41500000,0"
       id="path1044"
       class="UnoptimicedTransforms" />
    <path
       style="fill:#223c44;fill-opacity:0;fill-rule:nonzero;stroke:#379419;stroke-width:100000;stroke-linecap:round;stroke-linejoin:round;stroke-opacity:1"
       d="M 118604000,29200000 C 96170000,30534267 73736000,31868533 51302000,33202800"
       id="path1046"
       class="UnoptimicedTransforms" />
    <path
       style="fill:#223c44;fill-opacity:0;fill-rule:nonzero;stroke:#379419;stroke-width:100000;stroke-linecap:round;stroke-linejoin:round;stroke-opacity:1"
       d="m 51302000,33202800 c -666667,666667 -1333333,1333333 -2000000,2000000"
       id="path1052"
       class="UnoptimicedTransforms" />
    <path
       style="fill:#223c44;fill-opacity:0;fill-rule:nonzero;stroke:#379419;stroke-width:100000;stroke-linecap:round;stroke-linejoin:round;stroke-opacity:1"
       d="m 49302000,35202800 c 667,15599067 1333,31198133 2000,46797200"
       id="path1048"
       class="UnoptimicedTransforms" />
    <path
       style="fill:#223c44;fill-opacity:0;fill-rule:nonzero;stroke:#379419;stroke-width:100000;stroke-linecap:round;stroke-linejoin:round;stroke-opacity:1"
       d="m 49304000,82000000 c -667,9067600 -1333,18135200 -2000,27202800"
       id="path1064"
       class="UnoptimicedTransforms" />
  </g>
  <metadata
     id="metadata1233">
    <rdf:RDF>
      <cc:Work
         rdf:about="">
        <dc:title>SVG Picture created as poly_kb_wave_right_case-Edge_Cuts.svg date 2023/01/25 09:12:53 </dc:title>
      </cc:Work>
    </rdf:RDF>
  </metadata>
</svg>
