%FSLAX45Y45*%
G04 Gerber Fmt 4.5, Leading zero omitted, Abs format (unit mm)*
G04 Created by KiCad (PCBNEW (6.0.1)) date 2022-01-27 11:35:48*
%MOMM*%
%LPD*%
G01*
G04 APERTURE LIST*
%TA.AperFunction,Profile*%
%ADD10C,0.050000*%
%TD*%
%ADD11C,0.200000*%
%ADD12C,0.035560*%
%ADD13C,0.040000*%
%ADD14C,0.070000*%
%ADD15C,0.150000*%
G04 APERTURE END LIST*
D10*
X28003500Y-10731500D02*
X26098500Y-10731500D01*
X26098500Y-10731500D02*
X26098500Y-12636500D01*
X28003500Y-10731500D02*
X28003500Y-12636500D01*
X28003500Y-12636500D02*
X26098500Y-12636500D01*
X27470100Y-12407900D02*
G75*
G03*
X27470100Y-12230100I0J88900D01*
G01*
X27470100Y-12230100D02*
X26631900Y-12230100D01*
X26631900Y-12230100D02*
G75*
G03*
X26631900Y-12407900I0J-88900D01*
G01*
X27470100Y-12407900D02*
X26631900Y-12407900D01*
D11*
D12*
X26319962Y-11162883D02*
X26355522Y-11198442D01*
X26355522Y-11162883D02*
X26319962Y-11198442D01*
X26324671Y-12151067D02*
X26360231Y-12186627D01*
X26360231Y-12151067D02*
X26324671Y-12186627D01*
X26325804Y-12225020D02*
X26361364Y-12260580D01*
X26361364Y-12225020D02*
X26325804Y-12260580D01*
X26326344Y-12382407D02*
X26361904Y-12417967D01*
X26361904Y-12382407D02*
X26326344Y-12417967D01*
X26326632Y-11625600D02*
X26362192Y-11661160D01*
X26362192Y-11625600D02*
X26326632Y-11661160D01*
X26334720Y-11920220D02*
X26370280Y-11955780D01*
X26370280Y-11920220D02*
X26334720Y-11955780D01*
X26341564Y-11496471D02*
X26377124Y-11532031D01*
X26377124Y-11496471D02*
X26341564Y-11532031D01*
X26342235Y-11244540D02*
X26377795Y-11280100D01*
X26377795Y-11244540D02*
X26342235Y-11280100D01*
X26342239Y-11750050D02*
X26377799Y-11785610D01*
X26377799Y-11750050D02*
X26342239Y-11785610D01*
X26365157Y-11419599D02*
X26400717Y-11455159D01*
X26400717Y-11419599D02*
X26365157Y-11455159D01*
X26387501Y-11983720D02*
X26423061Y-12019280D01*
X26423061Y-11983720D02*
X26387501Y-12019280D01*
X26422188Y-11017088D02*
X26457748Y-11052648D01*
X26457748Y-11017088D02*
X26422188Y-11052648D01*
X26453248Y-11622821D02*
X26488808Y-11658381D01*
X26488808Y-11622821D02*
X26453248Y-11658381D01*
X26477326Y-12328538D02*
X26512886Y-12364098D01*
X26512886Y-12328538D02*
X26477326Y-12364098D01*
X26487120Y-12174220D02*
X26522680Y-12209780D01*
X26522680Y-12174220D02*
X26487120Y-12209780D01*
X26487444Y-11557105D02*
X26523004Y-11592665D01*
X26523004Y-11557105D02*
X26487444Y-11592665D01*
X26501423Y-12007701D02*
X26536983Y-12043261D01*
X26536983Y-12007701D02*
X26501423Y-12043261D01*
X26662523Y-11262217D02*
X26698083Y-11297777D01*
X26698083Y-11262217D02*
X26662523Y-11297777D01*
X26690320Y-11703050D02*
X26725880Y-11738610D01*
X26725880Y-11703050D02*
X26690320Y-11738610D01*
X26703020Y-11191301D02*
X26738580Y-11226861D01*
X26738580Y-11191301D02*
X26703020Y-11226861D01*
X26766520Y-11844020D02*
X26802080Y-11879580D01*
X26802080Y-11844020D02*
X26766520Y-11879580D01*
X26782075Y-10989471D02*
X26817635Y-11025031D01*
X26817635Y-10989471D02*
X26782075Y-11025031D01*
X26830020Y-11539220D02*
X26865580Y-11574780D01*
X26865580Y-11539220D02*
X26830020Y-11574780D01*
X26974653Y-11322050D02*
X27010213Y-11357610D01*
X27010213Y-11322050D02*
X26974653Y-11357610D01*
X27007820Y-11005820D02*
X27043380Y-11041380D01*
X27043380Y-11005820D02*
X27007820Y-11041380D01*
X27088835Y-11554960D02*
X27124395Y-11590520D01*
X27124395Y-11554960D02*
X27088835Y-11590520D01*
X27134464Y-11330585D02*
X27170024Y-11366145D01*
X27170024Y-11330585D02*
X27134464Y-11366145D01*
X27287220Y-12021820D02*
X27322780Y-12057380D01*
X27322780Y-12021820D02*
X27287220Y-12057380D01*
X27338020Y-10789920D02*
X27373580Y-10825480D01*
X27373580Y-10789920D02*
X27338020Y-10825480D01*
X27343158Y-10863703D02*
X27378718Y-10899263D01*
X27378718Y-10863703D02*
X27343158Y-10899263D01*
X27366249Y-11903223D02*
X27401809Y-11938783D01*
X27401809Y-11903223D02*
X27366249Y-11938783D01*
X27490183Y-12055837D02*
X27525743Y-12091397D01*
X27525743Y-12055837D02*
X27490183Y-12091397D01*
X27657405Y-11443574D02*
X27692965Y-11479134D01*
X27692965Y-11443574D02*
X27657405Y-11479134D01*
X27670390Y-11516387D02*
X27705950Y-11551947D01*
X27705950Y-11516387D02*
X27670390Y-11551947D01*
X27672639Y-12148075D02*
X27708199Y-12183635D01*
X27708199Y-12148075D02*
X27672639Y-12183635D01*
X27693620Y-12377420D02*
X27729180Y-12412980D01*
X27729180Y-12377420D02*
X27693620Y-12412980D01*
X27700406Y-11144716D02*
X27735966Y-11180276D01*
X27735966Y-11144716D02*
X27700406Y-11180276D01*
X27700406Y-11336020D02*
X27735966Y-11371580D01*
X27735966Y-11336020D02*
X27700406Y-11371580D01*
X27706083Y-12072620D02*
X27741643Y-12108180D01*
X27741643Y-12072620D02*
X27706083Y-12108180D01*
X27722194Y-11628314D02*
X27757754Y-11663874D01*
X27757754Y-11628314D02*
X27722194Y-11663874D01*
X27736385Y-11954502D02*
X27771945Y-11990062D01*
X27771945Y-11954502D02*
X27736385Y-11990062D01*
D13*
X26457852Y-11292354D02*
G75*
G03*
X26457852Y-11292354I-20000J0D01*
G01*
X26548621Y-10998703D02*
G75*
G03*
X26548621Y-10998703I-20000J0D01*
G01*
X27740802Y-11000001D02*
G75*
G03*
X27740802Y-11000001I-20000J0D01*
G01*
D14*
X26454100Y-10772700D02*
X26454100Y-10842700D01*
X26419100Y-10807700D02*
X26489100Y-10807700D01*
X26454100Y-12525300D02*
X26454100Y-12595300D01*
X26419100Y-12560300D02*
X26489100Y-12560300D01*
X27647900Y-10772700D02*
X27647900Y-10842700D01*
X27612900Y-10807700D02*
X27682900Y-10807700D01*
X27647900Y-12525300D02*
X27647900Y-12595300D01*
X27612900Y-12560300D02*
X27682900Y-12560300D01*
D15*
X26723033Y-11610033D02*
X26723033Y-11503966D01*
X26616966Y-11503966D01*
X26616966Y-11610033D01*
X26723033Y-11610033D01*
X27358033Y-11356033D02*
X27358033Y-11249966D01*
X27251966Y-11249966D01*
X27251966Y-11356033D01*
X27358033Y-11356033D01*
D11*
X26353619Y-12949476D02*
X26353619Y-12749476D01*
X26401238Y-12749476D01*
X26429809Y-12759000D01*
X26448857Y-12778048D01*
X26458381Y-12797095D01*
X26467905Y-12835190D01*
X26467905Y-12863762D01*
X26458381Y-12901857D01*
X26448857Y-12920905D01*
X26429809Y-12939952D01*
X26401238Y-12949476D01*
X26353619Y-12949476D01*
X26553619Y-12949476D02*
X26553619Y-12816143D01*
X26553619Y-12854238D02*
X26563143Y-12835190D01*
X26572667Y-12825667D01*
X26591714Y-12816143D01*
X26610762Y-12816143D01*
X26677428Y-12949476D02*
X26677428Y-12816143D01*
X26677428Y-12749476D02*
X26667905Y-12759000D01*
X26677428Y-12768524D01*
X26686952Y-12759000D01*
X26677428Y-12749476D01*
X26677428Y-12768524D01*
X26801238Y-12949476D02*
X26782190Y-12939952D01*
X26772667Y-12920905D01*
X26772667Y-12749476D01*
X26906000Y-12949476D02*
X26886952Y-12939952D01*
X26877428Y-12920905D01*
X26877428Y-12749476D01*
X27134571Y-12949476D02*
X27134571Y-12749476D01*
X27201238Y-12892333D01*
X27267905Y-12749476D01*
X27267905Y-12949476D01*
X27448857Y-12949476D02*
X27448857Y-12844714D01*
X27439333Y-12825667D01*
X27420286Y-12816143D01*
X27382190Y-12816143D01*
X27363143Y-12825667D01*
X27448857Y-12939952D02*
X27429809Y-12949476D01*
X27382190Y-12949476D01*
X27363143Y-12939952D01*
X27353619Y-12920905D01*
X27353619Y-12901857D01*
X27363143Y-12882809D01*
X27382190Y-12873286D01*
X27429809Y-12873286D01*
X27448857Y-12863762D01*
X27544095Y-12816143D02*
X27544095Y-13016143D01*
X27544095Y-12825667D02*
X27563143Y-12816143D01*
X27601238Y-12816143D01*
X27620286Y-12825667D01*
X27629809Y-12835190D01*
X27639333Y-12854238D01*
X27639333Y-12911381D01*
X27629809Y-12930428D01*
X27620286Y-12939952D01*
X27601238Y-12949476D01*
X27563143Y-12949476D01*
X27544095Y-12939952D01*
X27725048Y-12930428D02*
X27734571Y-12939952D01*
X27725048Y-12949476D01*
X27715524Y-12939952D01*
X27725048Y-12930428D01*
X27725048Y-12949476D01*
X27725048Y-12825667D02*
X27734571Y-12835190D01*
X27725048Y-12844714D01*
X27715524Y-12835190D01*
X27725048Y-12825667D01*
X27725048Y-12844714D01*
D12*
X26060440Y-13261220D02*
X26096000Y-13296780D01*
X26096000Y-13261220D02*
X26060440Y-13296780D01*
D11*
X26391714Y-13169476D02*
X26410762Y-13169476D01*
X26429809Y-13179000D01*
X26439333Y-13188524D01*
X26448857Y-13207571D01*
X26458381Y-13245667D01*
X26458381Y-13293286D01*
X26448857Y-13331381D01*
X26439333Y-13350428D01*
X26429809Y-13359952D01*
X26410762Y-13369476D01*
X26391714Y-13369476D01*
X26372667Y-13359952D01*
X26363143Y-13350428D01*
X26353619Y-13331381D01*
X26344095Y-13293286D01*
X26344095Y-13245667D01*
X26353619Y-13207571D01*
X26363143Y-13188524D01*
X26372667Y-13179000D01*
X26391714Y-13169476D01*
X26544095Y-13350428D02*
X26553619Y-13359952D01*
X26544095Y-13369476D01*
X26534571Y-13359952D01*
X26544095Y-13350428D01*
X26544095Y-13369476D01*
X26620286Y-13169476D02*
X26744095Y-13169476D01*
X26677428Y-13245667D01*
X26706000Y-13245667D01*
X26725048Y-13255190D01*
X26734571Y-13264714D01*
X26744095Y-13283762D01*
X26744095Y-13331381D01*
X26734571Y-13350428D01*
X26725048Y-13359952D01*
X26706000Y-13369476D01*
X26648857Y-13369476D01*
X26629809Y-13359952D01*
X26620286Y-13350428D01*
X26925048Y-13169476D02*
X26829809Y-13169476D01*
X26820286Y-13264714D01*
X26829809Y-13255190D01*
X26848857Y-13245667D01*
X26896476Y-13245667D01*
X26915524Y-13255190D01*
X26925048Y-13264714D01*
X26934571Y-13283762D01*
X26934571Y-13331381D01*
X26925048Y-13350428D01*
X26915524Y-13359952D01*
X26896476Y-13369476D01*
X26848857Y-13369476D01*
X26829809Y-13359952D01*
X26820286Y-13350428D01*
X27106000Y-13169476D02*
X27067905Y-13169476D01*
X27048857Y-13179000D01*
X27039333Y-13188524D01*
X27020286Y-13217095D01*
X27010762Y-13255190D01*
X27010762Y-13331381D01*
X27020286Y-13350428D01*
X27029809Y-13359952D01*
X27048857Y-13369476D01*
X27086952Y-13369476D01*
X27106000Y-13359952D01*
X27115524Y-13350428D01*
X27125048Y-13331381D01*
X27125048Y-13283762D01*
X27115524Y-13264714D01*
X27106000Y-13255190D01*
X27086952Y-13245667D01*
X27048857Y-13245667D01*
X27029809Y-13255190D01*
X27020286Y-13264714D01*
X27010762Y-13283762D01*
X27210762Y-13369476D02*
X27210762Y-13236143D01*
X27210762Y-13255190D02*
X27220286Y-13245667D01*
X27239333Y-13236143D01*
X27267905Y-13236143D01*
X27286952Y-13245667D01*
X27296476Y-13264714D01*
X27296476Y-13369476D01*
X27296476Y-13264714D02*
X27306000Y-13245667D01*
X27325048Y-13236143D01*
X27353619Y-13236143D01*
X27372667Y-13245667D01*
X27382190Y-13264714D01*
X27382190Y-13369476D01*
X27477428Y-13369476D02*
X27477428Y-13236143D01*
X27477428Y-13255190D02*
X27486952Y-13245667D01*
X27506000Y-13236143D01*
X27534571Y-13236143D01*
X27553619Y-13245667D01*
X27563143Y-13264714D01*
X27563143Y-13369476D01*
X27563143Y-13264714D02*
X27572667Y-13245667D01*
X27591714Y-13236143D01*
X27620286Y-13236143D01*
X27639333Y-13245667D01*
X27648857Y-13264714D01*
X27648857Y-13369476D01*
X28039333Y-13159952D02*
X27867905Y-13417095D01*
X28296476Y-13169476D02*
X28315524Y-13169476D01*
X28334571Y-13179000D01*
X28344095Y-13188524D01*
X28353619Y-13207571D01*
X28363143Y-13245667D01*
X28363143Y-13293286D01*
X28353619Y-13331381D01*
X28344095Y-13350428D01*
X28334571Y-13359952D01*
X28315524Y-13369476D01*
X28296476Y-13369476D01*
X28277428Y-13359952D01*
X28267905Y-13350428D01*
X28258381Y-13331381D01*
X28248857Y-13293286D01*
X28248857Y-13245667D01*
X28258381Y-13207571D01*
X28267905Y-13188524D01*
X28277428Y-13179000D01*
X28296476Y-13169476D01*
X28448857Y-13350428D02*
X28458381Y-13359952D01*
X28448857Y-13369476D01*
X28439333Y-13359952D01*
X28448857Y-13350428D01*
X28448857Y-13369476D01*
X28582190Y-13169476D02*
X28601238Y-13169476D01*
X28620286Y-13179000D01*
X28629809Y-13188524D01*
X28639333Y-13207571D01*
X28648857Y-13245667D01*
X28648857Y-13293286D01*
X28639333Y-13331381D01*
X28629809Y-13350428D01*
X28620286Y-13359952D01*
X28601238Y-13369476D01*
X28582190Y-13369476D01*
X28563143Y-13359952D01*
X28553619Y-13350428D01*
X28544095Y-13331381D01*
X28534571Y-13293286D01*
X28534571Y-13245667D01*
X28544095Y-13207571D01*
X28553619Y-13188524D01*
X28563143Y-13179000D01*
X28582190Y-13169476D01*
X28839333Y-13369476D02*
X28725048Y-13369476D01*
X28782190Y-13369476D02*
X28782190Y-13169476D01*
X28763143Y-13198048D01*
X28744095Y-13217095D01*
X28725048Y-13226619D01*
X29010762Y-13236143D02*
X29010762Y-13369476D01*
X28963143Y-13159952D02*
X28915524Y-13302809D01*
X29039333Y-13302809D01*
X29153619Y-13169476D02*
X29172667Y-13169476D01*
X29191714Y-13179000D01*
X29201238Y-13188524D01*
X29210762Y-13207571D01*
X29220286Y-13245667D01*
X29220286Y-13293286D01*
X29210762Y-13331381D01*
X29201238Y-13350428D01*
X29191714Y-13359952D01*
X29172667Y-13369476D01*
X29153619Y-13369476D01*
X29134571Y-13359952D01*
X29125048Y-13350428D01*
X29115524Y-13331381D01*
X29106000Y-13293286D01*
X29106000Y-13245667D01*
X29115524Y-13207571D01*
X29125048Y-13188524D01*
X29134571Y-13179000D01*
X29153619Y-13169476D01*
X29296476Y-13169476D02*
X29296476Y-13207571D01*
X29372667Y-13169476D02*
X29372667Y-13207571D01*
X29667905Y-13445667D02*
X29658381Y-13436143D01*
X29639333Y-13407571D01*
X29629809Y-13388524D01*
X29620286Y-13359952D01*
X29610762Y-13312333D01*
X29610762Y-13274238D01*
X29620286Y-13226619D01*
X29629809Y-13198048D01*
X29639333Y-13179000D01*
X29658381Y-13150428D01*
X29667905Y-13140905D01*
X29829809Y-13236143D02*
X29829809Y-13369476D01*
X29782190Y-13159952D02*
X29734571Y-13302809D01*
X29858381Y-13302809D01*
X30039333Y-13369476D02*
X29925048Y-13369476D01*
X29982190Y-13369476D02*
X29982190Y-13169476D01*
X29963143Y-13198048D01*
X29944095Y-13217095D01*
X29925048Y-13226619D01*
X30277428Y-13369476D02*
X30277428Y-13169476D01*
X30363143Y-13369476D02*
X30363143Y-13264714D01*
X30353619Y-13245667D01*
X30334571Y-13236143D01*
X30306000Y-13236143D01*
X30286952Y-13245667D01*
X30277428Y-13255190D01*
X30486952Y-13369476D02*
X30467905Y-13359952D01*
X30458381Y-13350428D01*
X30448857Y-13331381D01*
X30448857Y-13274238D01*
X30458381Y-13255190D01*
X30467905Y-13245667D01*
X30486952Y-13236143D01*
X30515524Y-13236143D01*
X30534571Y-13245667D01*
X30544095Y-13255190D01*
X30553619Y-13274238D01*
X30553619Y-13331381D01*
X30544095Y-13350428D01*
X30534571Y-13359952D01*
X30515524Y-13369476D01*
X30486952Y-13369476D01*
X30667905Y-13369476D02*
X30648857Y-13359952D01*
X30639333Y-13340905D01*
X30639333Y-13169476D01*
X30820286Y-13359952D02*
X30801238Y-13369476D01*
X30763143Y-13369476D01*
X30744095Y-13359952D01*
X30734571Y-13340905D01*
X30734571Y-13264714D01*
X30744095Y-13245667D01*
X30763143Y-13236143D01*
X30801238Y-13236143D01*
X30820286Y-13245667D01*
X30829809Y-13264714D01*
X30829809Y-13283762D01*
X30734571Y-13302809D01*
X30906000Y-13359952D02*
X30925048Y-13369476D01*
X30963143Y-13369476D01*
X30982190Y-13359952D01*
X30991714Y-13340905D01*
X30991714Y-13331381D01*
X30982190Y-13312333D01*
X30963143Y-13302809D01*
X30934571Y-13302809D01*
X30915524Y-13293286D01*
X30906000Y-13274238D01*
X30906000Y-13264714D01*
X30915524Y-13245667D01*
X30934571Y-13236143D01*
X30963143Y-13236143D01*
X30982190Y-13245667D01*
X31058381Y-13445667D02*
X31067905Y-13436143D01*
X31086952Y-13407571D01*
X31096476Y-13388524D01*
X31106000Y-13359952D01*
X31115524Y-13312333D01*
X31115524Y-13274238D01*
X31106000Y-13226619D01*
X31096476Y-13198048D01*
X31086952Y-13179000D01*
X31067905Y-13150428D01*
X31058381Y-13140905D01*
D13*
X26096000Y-13543000D02*
G75*
G03*
X26096000Y-13543000I-20000J0D01*
G01*
D11*
X26391714Y-13433476D02*
X26410762Y-13433476D01*
X26429809Y-13443000D01*
X26439333Y-13452524D01*
X26448857Y-13471571D01*
X26458381Y-13509667D01*
X26458381Y-13557286D01*
X26448857Y-13595381D01*
X26439333Y-13614428D01*
X26429809Y-13623952D01*
X26410762Y-13633476D01*
X26391714Y-13633476D01*
X26372667Y-13623952D01*
X26363143Y-13614428D01*
X26353619Y-13595381D01*
X26344095Y-13557286D01*
X26344095Y-13509667D01*
X26353619Y-13471571D01*
X26363143Y-13452524D01*
X26372667Y-13443000D01*
X26391714Y-13433476D01*
X26544095Y-13614428D02*
X26553619Y-13623952D01*
X26544095Y-13633476D01*
X26534571Y-13623952D01*
X26544095Y-13614428D01*
X26544095Y-13633476D01*
X26725048Y-13500143D02*
X26725048Y-13633476D01*
X26677428Y-13423952D02*
X26629809Y-13566809D01*
X26753619Y-13566809D01*
X26867905Y-13433476D02*
X26886952Y-13433476D01*
X26906000Y-13443000D01*
X26915524Y-13452524D01*
X26925048Y-13471571D01*
X26934571Y-13509667D01*
X26934571Y-13557286D01*
X26925048Y-13595381D01*
X26915524Y-13614428D01*
X26906000Y-13623952D01*
X26886952Y-13633476D01*
X26867905Y-13633476D01*
X26848857Y-13623952D01*
X26839333Y-13614428D01*
X26829809Y-13595381D01*
X26820286Y-13557286D01*
X26820286Y-13509667D01*
X26829809Y-13471571D01*
X26839333Y-13452524D01*
X26848857Y-13443000D01*
X26867905Y-13433476D01*
X27058381Y-13433476D02*
X27077428Y-13433476D01*
X27096476Y-13443000D01*
X27106000Y-13452524D01*
X27115524Y-13471571D01*
X27125048Y-13509667D01*
X27125048Y-13557286D01*
X27115524Y-13595381D01*
X27106000Y-13614428D01*
X27096476Y-13623952D01*
X27077428Y-13633476D01*
X27058381Y-13633476D01*
X27039333Y-13623952D01*
X27029809Y-13614428D01*
X27020286Y-13595381D01*
X27010762Y-13557286D01*
X27010762Y-13509667D01*
X27020286Y-13471571D01*
X27029809Y-13452524D01*
X27039333Y-13443000D01*
X27058381Y-13433476D01*
X27210762Y-13633476D02*
X27210762Y-13500143D01*
X27210762Y-13519190D02*
X27220286Y-13509667D01*
X27239333Y-13500143D01*
X27267905Y-13500143D01*
X27286952Y-13509667D01*
X27296476Y-13528714D01*
X27296476Y-13633476D01*
X27296476Y-13528714D02*
X27306000Y-13509667D01*
X27325048Y-13500143D01*
X27353619Y-13500143D01*
X27372667Y-13509667D01*
X27382190Y-13528714D01*
X27382190Y-13633476D01*
X27477428Y-13633476D02*
X27477428Y-13500143D01*
X27477428Y-13519190D02*
X27486952Y-13509667D01*
X27506000Y-13500143D01*
X27534571Y-13500143D01*
X27553619Y-13509667D01*
X27563143Y-13528714D01*
X27563143Y-13633476D01*
X27563143Y-13528714D02*
X27572667Y-13509667D01*
X27591714Y-13500143D01*
X27620286Y-13500143D01*
X27639333Y-13509667D01*
X27648857Y-13528714D01*
X27648857Y-13633476D01*
X28039333Y-13423952D02*
X27867905Y-13681095D01*
X28296476Y-13433476D02*
X28315524Y-13433476D01*
X28334571Y-13443000D01*
X28344095Y-13452524D01*
X28353619Y-13471571D01*
X28363143Y-13509667D01*
X28363143Y-13557286D01*
X28353619Y-13595381D01*
X28344095Y-13614428D01*
X28334571Y-13623952D01*
X28315524Y-13633476D01*
X28296476Y-13633476D01*
X28277428Y-13623952D01*
X28267905Y-13614428D01*
X28258381Y-13595381D01*
X28248857Y-13557286D01*
X28248857Y-13509667D01*
X28258381Y-13471571D01*
X28267905Y-13452524D01*
X28277428Y-13443000D01*
X28296476Y-13433476D01*
X28448857Y-13614428D02*
X28458381Y-13623952D01*
X28448857Y-13633476D01*
X28439333Y-13623952D01*
X28448857Y-13614428D01*
X28448857Y-13633476D01*
X28582190Y-13433476D02*
X28601238Y-13433476D01*
X28620286Y-13443000D01*
X28629809Y-13452524D01*
X28639333Y-13471571D01*
X28648857Y-13509667D01*
X28648857Y-13557286D01*
X28639333Y-13595381D01*
X28629809Y-13614428D01*
X28620286Y-13623952D01*
X28601238Y-13633476D01*
X28582190Y-13633476D01*
X28563143Y-13623952D01*
X28553619Y-13614428D01*
X28544095Y-13595381D01*
X28534571Y-13557286D01*
X28534571Y-13509667D01*
X28544095Y-13471571D01*
X28553619Y-13452524D01*
X28563143Y-13443000D01*
X28582190Y-13433476D01*
X28839333Y-13633476D02*
X28725048Y-13633476D01*
X28782190Y-13633476D02*
X28782190Y-13433476D01*
X28763143Y-13462048D01*
X28744095Y-13481095D01*
X28725048Y-13490619D01*
X29020286Y-13433476D02*
X28925048Y-13433476D01*
X28915524Y-13528714D01*
X28925048Y-13519190D01*
X28944095Y-13509667D01*
X28991714Y-13509667D01*
X29010762Y-13519190D01*
X29020286Y-13528714D01*
X29029809Y-13547762D01*
X29029809Y-13595381D01*
X29020286Y-13614428D01*
X29010762Y-13623952D01*
X28991714Y-13633476D01*
X28944095Y-13633476D01*
X28925048Y-13623952D01*
X28915524Y-13614428D01*
X29096476Y-13433476D02*
X29229809Y-13433476D01*
X29144095Y-13633476D01*
X29296476Y-13433476D02*
X29296476Y-13471571D01*
X29372667Y-13433476D02*
X29372667Y-13471571D01*
X29667905Y-13709667D02*
X29658381Y-13700143D01*
X29639333Y-13671571D01*
X29629809Y-13652524D01*
X29620286Y-13623952D01*
X29610762Y-13576333D01*
X29610762Y-13538238D01*
X29620286Y-13490619D01*
X29629809Y-13462048D01*
X29639333Y-13443000D01*
X29658381Y-13414428D01*
X29667905Y-13404905D01*
X29725048Y-13433476D02*
X29848857Y-13433476D01*
X29782190Y-13509667D01*
X29810762Y-13509667D01*
X29829809Y-13519190D01*
X29839333Y-13528714D01*
X29848857Y-13547762D01*
X29848857Y-13595381D01*
X29839333Y-13614428D01*
X29829809Y-13623952D01*
X29810762Y-13633476D01*
X29753619Y-13633476D01*
X29734571Y-13623952D01*
X29725048Y-13614428D01*
X30086952Y-13633476D02*
X30086952Y-13433476D01*
X30172667Y-13633476D02*
X30172667Y-13528714D01*
X30163143Y-13509667D01*
X30144095Y-13500143D01*
X30115524Y-13500143D01*
X30096476Y-13509667D01*
X30086952Y-13519190D01*
X30296476Y-13633476D02*
X30277428Y-13623952D01*
X30267905Y-13614428D01*
X30258381Y-13595381D01*
X30258381Y-13538238D01*
X30267905Y-13519190D01*
X30277428Y-13509667D01*
X30296476Y-13500143D01*
X30325048Y-13500143D01*
X30344095Y-13509667D01*
X30353619Y-13519190D01*
X30363143Y-13538238D01*
X30363143Y-13595381D01*
X30353619Y-13614428D01*
X30344095Y-13623952D01*
X30325048Y-13633476D01*
X30296476Y-13633476D01*
X30477428Y-13633476D02*
X30458381Y-13623952D01*
X30448857Y-13604905D01*
X30448857Y-13433476D01*
X30629809Y-13623952D02*
X30610762Y-13633476D01*
X30572667Y-13633476D01*
X30553619Y-13623952D01*
X30544095Y-13604905D01*
X30544095Y-13528714D01*
X30553619Y-13509667D01*
X30572667Y-13500143D01*
X30610762Y-13500143D01*
X30629809Y-13509667D01*
X30639333Y-13528714D01*
X30639333Y-13547762D01*
X30544095Y-13566809D01*
X30715524Y-13623952D02*
X30734571Y-13633476D01*
X30772667Y-13633476D01*
X30791714Y-13623952D01*
X30801238Y-13604905D01*
X30801238Y-13595381D01*
X30791714Y-13576333D01*
X30772667Y-13566809D01*
X30744095Y-13566809D01*
X30725048Y-13557286D01*
X30715524Y-13538238D01*
X30715524Y-13528714D01*
X30725048Y-13509667D01*
X30744095Y-13500143D01*
X30772667Y-13500143D01*
X30791714Y-13509667D01*
X30867905Y-13709667D02*
X30877428Y-13700143D01*
X30896476Y-13671571D01*
X30906000Y-13652524D01*
X30915524Y-13623952D01*
X30925048Y-13576333D01*
X30925048Y-13538238D01*
X30915524Y-13490619D01*
X30906000Y-13462048D01*
X30896476Y-13443000D01*
X30877428Y-13414428D01*
X30867905Y-13404905D01*
D14*
X26061000Y-13772000D02*
X26061000Y-13842000D01*
X26026000Y-13807000D02*
X26096000Y-13807000D01*
D11*
X26391714Y-13697476D02*
X26410762Y-13697476D01*
X26429809Y-13707000D01*
X26439333Y-13716524D01*
X26448857Y-13735571D01*
X26458381Y-13773667D01*
X26458381Y-13821286D01*
X26448857Y-13859381D01*
X26439333Y-13878428D01*
X26429809Y-13887952D01*
X26410762Y-13897476D01*
X26391714Y-13897476D01*
X26372667Y-13887952D01*
X26363143Y-13878428D01*
X26353619Y-13859381D01*
X26344095Y-13821286D01*
X26344095Y-13773667D01*
X26353619Y-13735571D01*
X26363143Y-13716524D01*
X26372667Y-13707000D01*
X26391714Y-13697476D01*
X26544095Y-13878428D02*
X26553619Y-13887952D01*
X26544095Y-13897476D01*
X26534571Y-13887952D01*
X26544095Y-13878428D01*
X26544095Y-13897476D01*
X26620286Y-13697476D02*
X26753619Y-13697476D01*
X26667905Y-13897476D01*
X26867905Y-13697476D02*
X26886952Y-13697476D01*
X26906000Y-13707000D01*
X26915524Y-13716524D01*
X26925048Y-13735571D01*
X26934571Y-13773667D01*
X26934571Y-13821286D01*
X26925048Y-13859381D01*
X26915524Y-13878428D01*
X26906000Y-13887952D01*
X26886952Y-13897476D01*
X26867905Y-13897476D01*
X26848857Y-13887952D01*
X26839333Y-13878428D01*
X26829809Y-13859381D01*
X26820286Y-13821286D01*
X26820286Y-13773667D01*
X26829809Y-13735571D01*
X26839333Y-13716524D01*
X26848857Y-13707000D01*
X26867905Y-13697476D01*
X27058381Y-13697476D02*
X27077428Y-13697476D01*
X27096476Y-13707000D01*
X27106000Y-13716524D01*
X27115524Y-13735571D01*
X27125048Y-13773667D01*
X27125048Y-13821286D01*
X27115524Y-13859381D01*
X27106000Y-13878428D01*
X27096476Y-13887952D01*
X27077428Y-13897476D01*
X27058381Y-13897476D01*
X27039333Y-13887952D01*
X27029809Y-13878428D01*
X27020286Y-13859381D01*
X27010762Y-13821286D01*
X27010762Y-13773667D01*
X27020286Y-13735571D01*
X27029809Y-13716524D01*
X27039333Y-13707000D01*
X27058381Y-13697476D01*
X27210762Y-13897476D02*
X27210762Y-13764143D01*
X27210762Y-13783190D02*
X27220286Y-13773667D01*
X27239333Y-13764143D01*
X27267905Y-13764143D01*
X27286952Y-13773667D01*
X27296476Y-13792714D01*
X27296476Y-13897476D01*
X27296476Y-13792714D02*
X27306000Y-13773667D01*
X27325048Y-13764143D01*
X27353619Y-13764143D01*
X27372667Y-13773667D01*
X27382190Y-13792714D01*
X27382190Y-13897476D01*
X27477428Y-13897476D02*
X27477428Y-13764143D01*
X27477428Y-13783190D02*
X27486952Y-13773667D01*
X27506000Y-13764143D01*
X27534571Y-13764143D01*
X27553619Y-13773667D01*
X27563143Y-13792714D01*
X27563143Y-13897476D01*
X27563143Y-13792714D02*
X27572667Y-13773667D01*
X27591714Y-13764143D01*
X27620286Y-13764143D01*
X27639333Y-13773667D01*
X27648857Y-13792714D01*
X27648857Y-13897476D01*
X28039333Y-13687952D02*
X27867905Y-13945095D01*
X28296476Y-13697476D02*
X28315524Y-13697476D01*
X28334571Y-13707000D01*
X28344095Y-13716524D01*
X28353619Y-13735571D01*
X28363143Y-13773667D01*
X28363143Y-13821286D01*
X28353619Y-13859381D01*
X28344095Y-13878428D01*
X28334571Y-13887952D01*
X28315524Y-13897476D01*
X28296476Y-13897476D01*
X28277428Y-13887952D01*
X28267905Y-13878428D01*
X28258381Y-13859381D01*
X28248857Y-13821286D01*
X28248857Y-13773667D01*
X28258381Y-13735571D01*
X28267905Y-13716524D01*
X28277428Y-13707000D01*
X28296476Y-13697476D01*
X28448857Y-13878428D02*
X28458381Y-13887952D01*
X28448857Y-13897476D01*
X28439333Y-13887952D01*
X28448857Y-13878428D01*
X28448857Y-13897476D01*
X28582190Y-13697476D02*
X28601238Y-13697476D01*
X28620286Y-13707000D01*
X28629809Y-13716524D01*
X28639333Y-13735571D01*
X28648857Y-13773667D01*
X28648857Y-13821286D01*
X28639333Y-13859381D01*
X28629809Y-13878428D01*
X28620286Y-13887952D01*
X28601238Y-13897476D01*
X28582190Y-13897476D01*
X28563143Y-13887952D01*
X28553619Y-13878428D01*
X28544095Y-13859381D01*
X28534571Y-13821286D01*
X28534571Y-13773667D01*
X28544095Y-13735571D01*
X28553619Y-13716524D01*
X28563143Y-13707000D01*
X28582190Y-13697476D01*
X28725048Y-13716524D02*
X28734571Y-13707000D01*
X28753619Y-13697476D01*
X28801238Y-13697476D01*
X28820286Y-13707000D01*
X28829809Y-13716524D01*
X28839333Y-13735571D01*
X28839333Y-13754619D01*
X28829809Y-13783190D01*
X28715524Y-13897476D01*
X28839333Y-13897476D01*
X28906000Y-13697476D02*
X29039333Y-13697476D01*
X28953619Y-13897476D01*
X29201238Y-13697476D02*
X29163143Y-13697476D01*
X29144095Y-13707000D01*
X29134571Y-13716524D01*
X29115524Y-13745095D01*
X29106000Y-13783190D01*
X29106000Y-13859381D01*
X29115524Y-13878428D01*
X29125048Y-13887952D01*
X29144095Y-13897476D01*
X29182190Y-13897476D01*
X29201238Y-13887952D01*
X29210762Y-13878428D01*
X29220286Y-13859381D01*
X29220286Y-13811762D01*
X29210762Y-13792714D01*
X29201238Y-13783190D01*
X29182190Y-13773667D01*
X29144095Y-13773667D01*
X29125048Y-13783190D01*
X29115524Y-13792714D01*
X29106000Y-13811762D01*
X29296476Y-13697476D02*
X29296476Y-13735571D01*
X29372667Y-13697476D02*
X29372667Y-13735571D01*
X29667905Y-13973667D02*
X29658381Y-13964143D01*
X29639333Y-13935571D01*
X29629809Y-13916524D01*
X29620286Y-13887952D01*
X29610762Y-13840333D01*
X29610762Y-13802238D01*
X29620286Y-13754619D01*
X29629809Y-13726048D01*
X29639333Y-13707000D01*
X29658381Y-13678428D01*
X29667905Y-13668905D01*
X29829809Y-13764143D02*
X29829809Y-13897476D01*
X29782190Y-13687952D02*
X29734571Y-13830809D01*
X29858381Y-13830809D01*
X30086952Y-13897476D02*
X30086952Y-13697476D01*
X30172667Y-13897476D02*
X30172667Y-13792714D01*
X30163143Y-13773667D01*
X30144095Y-13764143D01*
X30115524Y-13764143D01*
X30096476Y-13773667D01*
X30086952Y-13783190D01*
X30296476Y-13897476D02*
X30277428Y-13887952D01*
X30267905Y-13878428D01*
X30258381Y-13859381D01*
X30258381Y-13802238D01*
X30267905Y-13783190D01*
X30277428Y-13773667D01*
X30296476Y-13764143D01*
X30325048Y-13764143D01*
X30344095Y-13773667D01*
X30353619Y-13783190D01*
X30363143Y-13802238D01*
X30363143Y-13859381D01*
X30353619Y-13878428D01*
X30344095Y-13887952D01*
X30325048Y-13897476D01*
X30296476Y-13897476D01*
X30477428Y-13897476D02*
X30458381Y-13887952D01*
X30448857Y-13868905D01*
X30448857Y-13697476D01*
X30629809Y-13887952D02*
X30610762Y-13897476D01*
X30572667Y-13897476D01*
X30553619Y-13887952D01*
X30544095Y-13868905D01*
X30544095Y-13792714D01*
X30553619Y-13773667D01*
X30572667Y-13764143D01*
X30610762Y-13764143D01*
X30629809Y-13773667D01*
X30639333Y-13792714D01*
X30639333Y-13811762D01*
X30544095Y-13830809D01*
X30715524Y-13887952D02*
X30734571Y-13897476D01*
X30772667Y-13897476D01*
X30791714Y-13887952D01*
X30801238Y-13868905D01*
X30801238Y-13859381D01*
X30791714Y-13840333D01*
X30772667Y-13830809D01*
X30744095Y-13830809D01*
X30725048Y-13821286D01*
X30715524Y-13802238D01*
X30715524Y-13792714D01*
X30725048Y-13773667D01*
X30744095Y-13764143D01*
X30772667Y-13764143D01*
X30791714Y-13773667D01*
X30867905Y-13973667D02*
X30877428Y-13964143D01*
X30896476Y-13935571D01*
X30906000Y-13916524D01*
X30915524Y-13887952D01*
X30925048Y-13840333D01*
X30925048Y-13802238D01*
X30915524Y-13754619D01*
X30906000Y-13726048D01*
X30896476Y-13707000D01*
X30877428Y-13678428D01*
X30867905Y-13668905D01*
D15*
X26074033Y-14124033D02*
X26074033Y-14017966D01*
X25967966Y-14017966D01*
X25967966Y-14124033D01*
X26074033Y-14124033D01*
D11*
X26458381Y-14161476D02*
X26344095Y-14161476D01*
X26401238Y-14161476D02*
X26401238Y-13961476D01*
X26382190Y-13990048D01*
X26363143Y-14009095D01*
X26344095Y-14018619D01*
X26544095Y-14142428D02*
X26553619Y-14151952D01*
X26544095Y-14161476D01*
X26534571Y-14151952D01*
X26544095Y-14142428D01*
X26544095Y-14161476D01*
X26734571Y-13961476D02*
X26639333Y-13961476D01*
X26629809Y-14056714D01*
X26639333Y-14047190D01*
X26658381Y-14037667D01*
X26706000Y-14037667D01*
X26725048Y-14047190D01*
X26734571Y-14056714D01*
X26744095Y-14075762D01*
X26744095Y-14123381D01*
X26734571Y-14142428D01*
X26725048Y-14151952D01*
X26706000Y-14161476D01*
X26658381Y-14161476D01*
X26639333Y-14151952D01*
X26629809Y-14142428D01*
X26867905Y-13961476D02*
X26886952Y-13961476D01*
X26906000Y-13971000D01*
X26915524Y-13980524D01*
X26925048Y-13999571D01*
X26934571Y-14037667D01*
X26934571Y-14085286D01*
X26925048Y-14123381D01*
X26915524Y-14142428D01*
X26906000Y-14151952D01*
X26886952Y-14161476D01*
X26867905Y-14161476D01*
X26848857Y-14151952D01*
X26839333Y-14142428D01*
X26829809Y-14123381D01*
X26820286Y-14085286D01*
X26820286Y-14037667D01*
X26829809Y-13999571D01*
X26839333Y-13980524D01*
X26848857Y-13971000D01*
X26867905Y-13961476D01*
X27058381Y-13961476D02*
X27077428Y-13961476D01*
X27096476Y-13971000D01*
X27106000Y-13980524D01*
X27115524Y-13999571D01*
X27125048Y-14037667D01*
X27125048Y-14085286D01*
X27115524Y-14123381D01*
X27106000Y-14142428D01*
X27096476Y-14151952D01*
X27077428Y-14161476D01*
X27058381Y-14161476D01*
X27039333Y-14151952D01*
X27029809Y-14142428D01*
X27020286Y-14123381D01*
X27010762Y-14085286D01*
X27010762Y-14037667D01*
X27020286Y-13999571D01*
X27029809Y-13980524D01*
X27039333Y-13971000D01*
X27058381Y-13961476D01*
X27210762Y-14161476D02*
X27210762Y-14028143D01*
X27210762Y-14047190D02*
X27220286Y-14037667D01*
X27239333Y-14028143D01*
X27267905Y-14028143D01*
X27286952Y-14037667D01*
X27296476Y-14056714D01*
X27296476Y-14161476D01*
X27296476Y-14056714D02*
X27306000Y-14037667D01*
X27325048Y-14028143D01*
X27353619Y-14028143D01*
X27372667Y-14037667D01*
X27382190Y-14056714D01*
X27382190Y-14161476D01*
X27477428Y-14161476D02*
X27477428Y-14028143D01*
X27477428Y-14047190D02*
X27486952Y-14037667D01*
X27506000Y-14028143D01*
X27534571Y-14028143D01*
X27553619Y-14037667D01*
X27563143Y-14056714D01*
X27563143Y-14161476D01*
X27563143Y-14056714D02*
X27572667Y-14037667D01*
X27591714Y-14028143D01*
X27620286Y-14028143D01*
X27639333Y-14037667D01*
X27648857Y-14056714D01*
X27648857Y-14161476D01*
X28039333Y-13951952D02*
X27867905Y-14209095D01*
X28296476Y-13961476D02*
X28315524Y-13961476D01*
X28334571Y-13971000D01*
X28344095Y-13980524D01*
X28353619Y-13999571D01*
X28363143Y-14037667D01*
X28363143Y-14085286D01*
X28353619Y-14123381D01*
X28344095Y-14142428D01*
X28334571Y-14151952D01*
X28315524Y-14161476D01*
X28296476Y-14161476D01*
X28277428Y-14151952D01*
X28267905Y-14142428D01*
X28258381Y-14123381D01*
X28248857Y-14085286D01*
X28248857Y-14037667D01*
X28258381Y-13999571D01*
X28267905Y-13980524D01*
X28277428Y-13971000D01*
X28296476Y-13961476D01*
X28448857Y-14142428D02*
X28458381Y-14151952D01*
X28448857Y-14161476D01*
X28439333Y-14151952D01*
X28448857Y-14142428D01*
X28448857Y-14161476D01*
X28582190Y-13961476D02*
X28601238Y-13961476D01*
X28620286Y-13971000D01*
X28629809Y-13980524D01*
X28639333Y-13999571D01*
X28648857Y-14037667D01*
X28648857Y-14085286D01*
X28639333Y-14123381D01*
X28629809Y-14142428D01*
X28620286Y-14151952D01*
X28601238Y-14161476D01*
X28582190Y-14161476D01*
X28563143Y-14151952D01*
X28553619Y-14142428D01*
X28544095Y-14123381D01*
X28534571Y-14085286D01*
X28534571Y-14037667D01*
X28544095Y-13999571D01*
X28553619Y-13980524D01*
X28563143Y-13971000D01*
X28582190Y-13961476D01*
X28829809Y-13961476D02*
X28734571Y-13961476D01*
X28725048Y-14056714D01*
X28734571Y-14047190D01*
X28753619Y-14037667D01*
X28801238Y-14037667D01*
X28820286Y-14047190D01*
X28829809Y-14056714D01*
X28839333Y-14075762D01*
X28839333Y-14123381D01*
X28829809Y-14142428D01*
X28820286Y-14151952D01*
X28801238Y-14161476D01*
X28753619Y-14161476D01*
X28734571Y-14151952D01*
X28725048Y-14142428D01*
X28934571Y-14161476D02*
X28972667Y-14161476D01*
X28991714Y-14151952D01*
X29001238Y-14142428D01*
X29020286Y-14113857D01*
X29029809Y-14075762D01*
X29029809Y-13999571D01*
X29020286Y-13980524D01*
X29010762Y-13971000D01*
X28991714Y-13961476D01*
X28953619Y-13961476D01*
X28934571Y-13971000D01*
X28925048Y-13980524D01*
X28915524Y-13999571D01*
X28915524Y-14047190D01*
X28925048Y-14066238D01*
X28934571Y-14075762D01*
X28953619Y-14085286D01*
X28991714Y-14085286D01*
X29010762Y-14075762D01*
X29020286Y-14066238D01*
X29029809Y-14047190D01*
X29220286Y-14161476D02*
X29106000Y-14161476D01*
X29163143Y-14161476D02*
X29163143Y-13961476D01*
X29144095Y-13990048D01*
X29125048Y-14009095D01*
X29106000Y-14018619D01*
X29296476Y-13961476D02*
X29296476Y-13999571D01*
X29372667Y-13961476D02*
X29372667Y-13999571D01*
X29667905Y-14237667D02*
X29658381Y-14228143D01*
X29639333Y-14199571D01*
X29629809Y-14180524D01*
X29620286Y-14151952D01*
X29610762Y-14104333D01*
X29610762Y-14066238D01*
X29620286Y-14018619D01*
X29629809Y-13990048D01*
X29639333Y-13971000D01*
X29658381Y-13942428D01*
X29667905Y-13932905D01*
X29734571Y-13980524D02*
X29744095Y-13971000D01*
X29763143Y-13961476D01*
X29810762Y-13961476D01*
X29829809Y-13971000D01*
X29839333Y-13980524D01*
X29848857Y-13999571D01*
X29848857Y-14018619D01*
X29839333Y-14047190D01*
X29725048Y-14161476D01*
X29848857Y-14161476D01*
X30086952Y-14161476D02*
X30086952Y-13961476D01*
X30172667Y-14161476D02*
X30172667Y-14056714D01*
X30163143Y-14037667D01*
X30144095Y-14028143D01*
X30115524Y-14028143D01*
X30096476Y-14037667D01*
X30086952Y-14047190D01*
X30296476Y-14161476D02*
X30277428Y-14151952D01*
X30267905Y-14142428D01*
X30258381Y-14123381D01*
X30258381Y-14066238D01*
X30267905Y-14047190D01*
X30277428Y-14037667D01*
X30296476Y-14028143D01*
X30325048Y-14028143D01*
X30344095Y-14037667D01*
X30353619Y-14047190D01*
X30363143Y-14066238D01*
X30363143Y-14123381D01*
X30353619Y-14142428D01*
X30344095Y-14151952D01*
X30325048Y-14161476D01*
X30296476Y-14161476D01*
X30477428Y-14161476D02*
X30458381Y-14151952D01*
X30448857Y-14132905D01*
X30448857Y-13961476D01*
X30629809Y-14151952D02*
X30610762Y-14161476D01*
X30572667Y-14161476D01*
X30553619Y-14151952D01*
X30544095Y-14132905D01*
X30544095Y-14056714D01*
X30553619Y-14037667D01*
X30572667Y-14028143D01*
X30610762Y-14028143D01*
X30629809Y-14037667D01*
X30639333Y-14056714D01*
X30639333Y-14075762D01*
X30544095Y-14094809D01*
X30715524Y-14151952D02*
X30734571Y-14161476D01*
X30772667Y-14161476D01*
X30791714Y-14151952D01*
X30801238Y-14132905D01*
X30801238Y-14123381D01*
X30791714Y-14104333D01*
X30772667Y-14094809D01*
X30744095Y-14094809D01*
X30725048Y-14085286D01*
X30715524Y-14066238D01*
X30715524Y-14056714D01*
X30725048Y-14037667D01*
X30744095Y-14028143D01*
X30772667Y-14028143D01*
X30791714Y-14037667D01*
X30867905Y-14237667D02*
X30877428Y-14228143D01*
X30896476Y-14199571D01*
X30906000Y-14180524D01*
X30915524Y-14151952D01*
X30925048Y-14104333D01*
X30925048Y-14066238D01*
X30915524Y-14018619D01*
X30906000Y-13990048D01*
X30896476Y-13971000D01*
X30877428Y-13942428D01*
X30867905Y-13932905D01*
M02*
