%TF.GenerationSoftware,KiCad,Pcbnew,(6.0.1)*%
%TF.CreationDate,2022-01-27T11:35:43+01:00*%
%TF.ProjectId,poly_kb,706f6c79-5f6b-4622-9e6b-696361645f70,rev?*%
%TF.SameCoordinates,Original*%
%TF.FileFunction,Copper,L2,Bot*%
%TF.FilePolarity,Positive*%
%FSLAX46Y46*%
G04 Gerber Fmt 4.6, Leading zero omitted, Abs format (unit mm)*
G04 Created by KiCad (PCBNEW (6.0.1)) date 2022-01-27 11:35:43*
%MOMM*%
%LPD*%
G01*
G04 APERTURE LIST*
G04 Aperture macros list*
%AMRoundRect*
0 Rectangle with rounded corners*
0 $1 Rounding radius*
0 $2 $3 $4 $5 $6 $7 $8 $9 X,Y pos of 4 corners*
0 Add a 4 corners polygon primitive as box body*
4,1,4,$2,$3,$4,$5,$6,$7,$8,$9,$2,$3,0*
0 Add four circle primitives for the rounded corners*
1,1,$1+$1,$2,$3*
1,1,$1+$1,$4,$5*
1,1,$1+$1,$6,$7*
1,1,$1+$1,$8,$9*
0 Add four rect primitives between the rounded corners*
20,1,$1+$1,$2,$3,$4,$5,0*
20,1,$1+$1,$4,$5,$6,$7,0*
20,1,$1+$1,$6,$7,$8,$9,0*
20,1,$1+$1,$8,$9,$2,$3,0*%
%AMFreePoly0*
4,1,6,0.750000,-1.500000,0.450000,-1.500000,-0.750000,-0.300000,-0.750000,0.500000,0.750000,0.500000,0.750000,-1.500000,0.750000,-1.500000,$1*%
%AMFreePoly1*
4,1,6,0.750000,-0.300000,-0.450000,-1.500000,-0.750000,-1.500000,-0.750000,0.500000,0.750000,0.500000,0.750000,-0.300000,0.750000,-0.300000,$1*%
%AMFreePoly2*
4,1,5,0.750000,-0.650000,0.250000,-0.650000,-0.650000,0.250000,1.650000,0.250000,0.750000,-0.650000,0.750000,-0.650000,$1*%
G04 Aperture macros list end*
%TA.AperFunction,ComponentPad*%
%ADD10C,2.200000*%
%TD*%
%TA.AperFunction,ComponentPad*%
%ADD11R,1.500000X1.500000*%
%TD*%
%TA.AperFunction,SMDPad,CuDef*%
%ADD12RoundRect,0.225000X0.225000X0.250000X-0.225000X0.250000X-0.225000X-0.250000X0.225000X-0.250000X0*%
%TD*%
%TA.AperFunction,SMDPad,CuDef*%
%ADD13RoundRect,0.225000X0.250000X-0.225000X0.250000X0.225000X-0.250000X0.225000X-0.250000X-0.225000X0*%
%TD*%
%TA.AperFunction,SMDPad,CuDef*%
%ADD14RoundRect,0.140000X0.170000X-0.140000X0.170000X0.140000X-0.170000X0.140000X-0.170000X-0.140000X0*%
%TD*%
%TA.AperFunction,SMDPad,CuDef*%
%ADD15RoundRect,0.140000X-0.140000X-0.170000X0.140000X-0.170000X0.140000X0.170000X-0.140000X0.170000X0*%
%TD*%
%TA.AperFunction,SMDPad,CuDef*%
%ADD16R,0.600000X0.450000*%
%TD*%
%TA.AperFunction,SMDPad,CuDef*%
%ADD17R,0.300000X1.150000*%
%TD*%
%TA.AperFunction,SMDPad,CuDef*%
%ADD18R,0.300000X0.650000*%
%TD*%
%TA.AperFunction,SMDPad,CuDef*%
%ADD19R,2.000000X1.500000*%
%TD*%
%TA.AperFunction,SMDPad,CuDef*%
%ADD20FreePoly0,90.000000*%
%TD*%
%TA.AperFunction,SMDPad,CuDef*%
%ADD21FreePoly1,90.000000*%
%TD*%
%TA.AperFunction,SMDPad,CuDef*%
%ADD22FreePoly2,270.000000*%
%TD*%
%TA.AperFunction,ViaPad*%
%ADD23C,0.609600*%
%TD*%
%TA.AperFunction,ViaPad*%
%ADD24C,0.800000*%
%TD*%
%TA.AperFunction,Conductor*%
%ADD25C,0.300000*%
%TD*%
%TA.AperFunction,Conductor*%
%ADD26C,0.250000*%
%TD*%
%TA.AperFunction,Conductor*%
%ADD27C,0.254000*%
%TD*%
%TA.AperFunction,Conductor*%
%ADD28C,0.500000*%
%TD*%
%TA.AperFunction,Conductor*%
%ADD29C,0.400000*%
%TD*%
G04 APERTURE END LIST*
D10*
%TO.P,SW1,1,1*%
%TO.N,/Keyboard/sheet605ED2EB/KeyRow*%
X273050000Y-113030000D03*
%TO.P,SW1,2,2*%
%TO.N,Net-(D1-Pad2)*%
X266700000Y-115570000D03*
%TD*%
D11*
%TO.P,J2,1,Pin_1*%
%TO.N,/Keyboard/sheet605ED2EB/KeyCol*%
X276479000Y-108077000D03*
%TD*%
%TO.P,J8,1,Pin_1*%
%TO.N,/Keyboard/sheet605ED2EB/KeyCol*%
X264541000Y-108077000D03*
%TD*%
%TO.P,J9,1,Pin_1*%
%TO.N,/Keyboard/sheet605ED2EB/KeyCol*%
X276479000Y-125603000D03*
%TD*%
%TO.P,J7,1,Pin_1*%
%TO.N,/Keyboard/sheet605ED2EB/KeyCol*%
X264541000Y-125603000D03*
%TD*%
D12*
%TO.P,C1,1*%
%TO.N,Net-(C1-Pad1)*%
X274333000Y-116332000D03*
%TO.P,C1,2*%
%TO.N,/Keyboard/sheet605ED2EB/GND*%
X272783000Y-116332000D03*
%TD*%
D13*
%TO.P,C2,1*%
%TO.N,/Keyboard/sheet605ED2EB/4V2*%
X266192000Y-113551000D03*
%TO.P,C2,2*%
%TO.N,/Keyboard/sheet605ED2EB/GND*%
X266192000Y-112001000D03*
%TD*%
D14*
%TO.P,C3,1*%
%TO.N,/Keyboard/sheet605ED2EB/3V3*%
X263906000Y-110589000D03*
%TO.P,C3,2*%
%TO.N,/Keyboard/sheet605ED2EB/GND*%
X263906000Y-109629000D03*
%TD*%
D12*
%TO.P,C4,1*%
%TO.N,Net-(C4-Pad1)*%
X274079000Y-114808000D03*
%TO.P,C4,2*%
%TO.N,/Keyboard/sheet605ED2EB/GND*%
X272529000Y-114808000D03*
%TD*%
D15*
%TO.P,C5,1*%
%TO.N,Net-(C5-Pad1)*%
X267391000Y-113411000D03*
%TO.P,C5,2*%
%TO.N,Net-(C5-Pad2)*%
X268351000Y-113411000D03*
%TD*%
%TO.P,C6,1*%
%TO.N,Net-(C6-Pad1)*%
X268760000Y-114554000D03*
%TO.P,C6,2*%
%TO.N,Net-(C6-Pad2)*%
X269720000Y-114554000D03*
%TD*%
D16*
%TO.P,D1,1,K*%
%TO.N,/Keyboard/sheet605ED2EB/KeyCol*%
X268258000Y-120142000D03*
%TO.P,D1,2,A*%
%TO.N,Net-(D1-Pad2)*%
X266158000Y-120142000D03*
%TD*%
D17*
%TO.P,J1,0*%
%TO.N,N/C*%
X266125000Y-108315000D03*
X274895000Y-108315000D03*
D18*
%TO.P,J1,1,Pin_1*%
%TO.N,/Keyboard/sheet605ED2EB/GND*%
X266760000Y-111125000D03*
%TO.P,J1,2,Pin_2*%
%TO.N,unconnected-(J1-Pad2)*%
X267260000Y-111125000D03*
%TO.P,J1,3,Pin_3*%
%TO.N,/Keyboard/sheet605ED2EB/GND*%
X267760000Y-111125000D03*
%TO.P,J1,4,Pin_4*%
%TO.N,Net-(C5-Pad1)*%
X268260000Y-111125000D03*
%TO.P,J1,5,Pin_5*%
%TO.N,Net-(C5-Pad2)*%
X268760000Y-111125000D03*
%TO.P,J1,6,Pin_6*%
%TO.N,Net-(C6-Pad1)*%
X269260000Y-111125000D03*
%TO.P,J1,7,Pin_7*%
%TO.N,Net-(C6-Pad2)*%
X269760000Y-111125000D03*
%TO.P,J1,8,Pin_8*%
%TO.N,/Keyboard/sheet605ED2EB/4V2*%
X270260000Y-111125000D03*
%TO.P,J1,9,Pin_9*%
%TO.N,/Keyboard/sheet605ED2EB/3V3*%
X270760000Y-111125000D03*
%TO.P,J1,10,Pin_10*%
%TO.N,/Keyboard/sheet605ED2EB/CS*%
X271260000Y-111125000D03*
%TO.P,J1,11,Pin_11*%
%TO.N,/Keyboard/sheet605ED2EB/RESET*%
X271760000Y-111125000D03*
%TO.P,J1,12,Pin_12*%
%TO.N,/Keyboard/sheet605ED2EB/D-C*%
X272260000Y-111125000D03*
%TO.P,J1,13,Pin_13*%
%TO.N,/Keyboard/sheet605ED2EB/SCLK*%
X272760000Y-111125000D03*
%TO.P,J1,14,Pin_14*%
%TO.N,/Keyboard/sheet605ED2EB/SDIN*%
X273260000Y-111125000D03*
%TO.P,J1,15,Pin_15*%
%TO.N,Net-(C4-Pad1)*%
X273760000Y-111125000D03*
%TO.P,J1,16,Pin_16*%
%TO.N,Net-(C1-Pad1)*%
X274260000Y-111125000D03*
%TD*%
D19*
%TO.P,J6,1,Pin_1*%
%TO.N,/Keyboard/sheet605ED2EB/GND*%
X279019000Y-108840000D03*
%TO.P,J6,2,Pin_2*%
%TO.N,CS1*%
X279019000Y-110840000D03*
%TO.P,J6,3,Pin_3*%
%TO.N,CS2*%
X279019000Y-112840000D03*
%TO.P,J6,4,Pin_4*%
%TO.N,CS3*%
X279019000Y-114840000D03*
%TO.P,J6,5,Pin_5*%
%TO.N,CS4*%
X279019000Y-116840000D03*
%TO.P,J6,6,Pin_6*%
%TO.N,CS5*%
X279019000Y-118840000D03*
%TO.P,J6,7,Pin_7*%
%TO.N,CS6*%
X279019000Y-120840000D03*
%TO.P,J6,8,Pin_8*%
%TO.N,CS7*%
X279019000Y-122840000D03*
%TO.P,J6,9,Pin_9*%
%TO.N,CS8*%
X279019000Y-124840000D03*
%TD*%
%TO.P,J5,1,Pin_1*%
%TO.N,/Keyboard/sheet605ED2EB/GND*%
X262001000Y-108840000D03*
D20*
%TO.P,J5,2,Pin_2*%
%TO.N,CS1*%
X261501000Y-110840000D03*
D21*
%TO.P,J5,3,Pin_3*%
%TO.N,CS2*%
X261501000Y-112840000D03*
D20*
%TO.P,J5,4,Pin_4*%
%TO.N,CS3*%
X261501000Y-114840000D03*
D21*
%TO.P,J5,5,Pin_5*%
%TO.N,CS4*%
X261501000Y-116840000D03*
D20*
%TO.P,J5,6,Pin_6*%
%TO.N,CS5*%
X261501000Y-118840000D03*
D21*
%TO.P,J5,7,Pin_7*%
%TO.N,CS6*%
X261501000Y-120840000D03*
D20*
%TO.P,J5,8,Pin_8*%
%TO.N,CS7*%
X261501000Y-122840000D03*
D21*
%TO.P,J5,9,Pin_9*%
%TO.N,CS8*%
X261501000Y-124840000D03*
D22*
%TO.P,J5,10,Pin_10*%
%TO.N,/Keyboard/sheet605ED2EB/CS*%
X262751000Y-111340000D03*
X262751000Y-123340000D03*
X262751000Y-115340000D03*
X262751000Y-119340000D03*
%TD*%
D23*
%TO.N,/Keyboard/sheet605ED2EB/CS*%
X263377419Y-111806625D03*
%TO.N,CS3*%
X263593438Y-115142514D03*
%TO.N,/Keyboard/sheet605ED2EB/GND*%
X267208000Y-112090810D03*
D24*
X277208020Y-110000010D03*
D23*
X271522443Y-113483648D03*
D24*
X265286206Y-109987025D03*
X264378521Y-112923539D03*
D23*
%TO.N,/Keyboard/sheet605ED2EB/3V3*%
X270256000Y-110236000D03*
X264399684Y-110348684D03*
%TO.N,/Keyboard/sheet605ED2EB/4V2*%
X269924331Y-113398300D03*
X266803034Y-112799966D03*
%TO.N,/Keyboard/sheet605ED2EB/CS*%
X264710277Y-116406013D03*
X264052815Y-120015000D03*
X263444117Y-116433801D03*
X265192031Y-120254815D03*
%TO.N,/Keyboard/sheet605ED2EB/RESET*%
X267081000Y-117208300D03*
X271066152Y-115727400D03*
X268478000Y-115570000D03*
%TO.N,/Keyboard/sheet605ED2EB/D-C*%
X277238634Y-120904000D03*
%TO.N,/Keyboard/sheet605ED2EB/SCLK*%
X276904192Y-121658555D03*
%TO.N,/Keyboard/sheet605ED2EB/SDIN*%
X273840287Y-119210030D03*
%TO.N,/Keyboard/sheet605ED2EB/LED_DOUT*%
X267998553Y-110072505D03*
X265052239Y-115748848D03*
%TO.N,/Keyboard/sheet605ED2EB/LED_DIN*%
X273609379Y-108814826D03*
X276751854Y-114613543D03*
%TO.N,Net-(D1-Pad2)*%
X267843000Y-118618000D03*
%TO.N,/Keyboard/sheet605ED2EB/KeyRow*%
X263441239Y-124001874D03*
%TO.N,/Keyboard/sheet605ED2EB/KeyCol*%
X275079634Y-120736168D03*
X273558004Y-108076996D03*
X277114000Y-123952000D03*
X273050000Y-120396000D03*
%TO.N,CS7*%
X263435840Y-122428000D03*
X264951061Y-123463185D03*
%TO.N,CS6*%
X265049000Y-121920000D03*
X263424509Y-121688475D03*
%TO.N,CS5*%
X277541646Y-119722825D03*
X263525000Y-119380000D03*
%TO.N,CS4*%
X277399743Y-116460940D03*
X263600190Y-117678300D03*
%TO.N,CS3*%
X276881702Y-115341667D03*
%TO.N,CS2*%
X277181865Y-113538000D03*
X263829370Y-114373792D03*
%TO.N,CS1*%
X263600154Y-112623197D03*
X277181865Y-111624962D03*
%TD*%
D25*
%TO.N,CS7*%
X279019000Y-122840000D02*
X276650462Y-122840000D01*
X274766470Y-120100023D02*
X274494824Y-120371669D01*
X276650462Y-122840000D02*
X275666803Y-121856341D01*
X274494824Y-121032938D02*
X273615728Y-121912034D01*
X275666803Y-120496293D02*
X275270533Y-120100023D01*
X275666803Y-121856341D02*
X275666803Y-120496293D01*
X275270533Y-120100023D02*
X274766470Y-120100023D01*
X274494824Y-120371669D02*
X274494824Y-121032938D01*
X273615728Y-121912034D02*
X266138524Y-121912034D01*
X266138524Y-121912034D02*
X266027113Y-122023445D01*
X266027113Y-122023445D02*
X265881163Y-122079656D01*
X265881163Y-122079656D02*
X265728300Y-122079656D01*
X265728300Y-122079656D02*
X264951061Y-122856895D01*
X264951061Y-122856895D02*
X264951061Y-123463185D01*
D26*
%TO.N,/Keyboard/sheet605ED2EB/KeyCol*%
X266019201Y-109170001D02*
X265507001Y-109170001D01*
X266052000Y-110379036D02*
X266052000Y-109202800D01*
X265032970Y-111398066D02*
X266052000Y-110379036D01*
X265032970Y-112650917D02*
X265032970Y-111398066D01*
X265034297Y-112948140D02*
X265034297Y-112652244D01*
X265032970Y-112949467D02*
X265034297Y-112948140D01*
X265032969Y-114571422D02*
X265032970Y-112949467D01*
X264536250Y-115068141D02*
X265032969Y-114571422D01*
X264536250Y-115533041D02*
X264536250Y-115068141D01*
X264413499Y-115655792D02*
X264536250Y-115533041D01*
X264413499Y-115800492D02*
X264413499Y-115655792D01*
X264150976Y-116063015D02*
X264413499Y-115800492D01*
X264150976Y-116637684D02*
X264150976Y-116063015D01*
X264159499Y-116646207D02*
X264150976Y-116637684D01*
X264618394Y-120688564D02*
X264618394Y-119388210D01*
X266052000Y-109202800D02*
X266019201Y-109170001D01*
X264618394Y-119388210D02*
X264159499Y-118929315D01*
X264159499Y-118929315D02*
X264159499Y-116646207D01*
X265446909Y-120814623D02*
X264744453Y-120814623D01*
X265614531Y-120647001D02*
X265446909Y-120814623D01*
X264744453Y-120814623D02*
X264618394Y-120688564D01*
X265034297Y-112652244D02*
X265032970Y-112650917D01*
X268099999Y-120647001D02*
X265614531Y-120647001D01*
X268351000Y-120396000D02*
X268099999Y-120647001D01*
D27*
%TO.N,/Keyboard/sheet605ED2EB/CS*%
X264154739Y-114877588D02*
X264417778Y-114614549D01*
X264154739Y-115375014D02*
X264154739Y-114877588D01*
D28*
%TO.N,/Keyboard/sheet605ED2EB/KeyCol*%
X276479000Y-125603000D02*
X264541000Y-125603000D01*
D25*
%TO.N,/Keyboard/sheet605ED2EB/CS*%
X266848402Y-117856000D02*
X265398415Y-116406013D01*
X265398415Y-116406013D02*
X264710277Y-116406013D01*
X267259627Y-117856000D02*
X266848402Y-117856000D01*
X269972107Y-115143520D02*
X267259627Y-117856000D01*
X270256525Y-115143520D02*
X269972107Y-115143520D01*
X270508632Y-114891413D02*
X270256525Y-115143520D01*
X270508632Y-112978361D02*
X270508632Y-114891413D01*
X271260000Y-112226993D02*
X270508632Y-112978361D01*
X271260000Y-111125000D02*
X271260000Y-112226993D01*
%TO.N,/Keyboard/sheet605ED2EB/RESET*%
X268478000Y-115570000D02*
X268478000Y-115965880D01*
X268478000Y-115965880D02*
X267235580Y-117208300D01*
X267235580Y-117208300D02*
X267081000Y-117208300D01*
%TO.N,/Keyboard/sheet605ED2EB/4V2*%
X269924331Y-112896150D02*
X269924331Y-113398300D01*
X270260000Y-112560481D02*
X269924331Y-112896150D01*
X270260000Y-111125000D02*
X270260000Y-112560481D01*
D28*
%TO.N,/Keyboard/sheet605ED2EB/GND*%
X271522443Y-113801443D02*
X271522443Y-113483648D01*
X272529000Y-114808000D02*
X271522443Y-113801443D01*
D25*
%TO.N,/Keyboard/sheet605ED2EB/RESET*%
X270938143Y-115599391D02*
X271066152Y-115727400D01*
X270938143Y-113156270D02*
X270938143Y-115599391D01*
X271760000Y-112334413D02*
X270938143Y-113156270D01*
X271760000Y-111125000D02*
X271760000Y-112334413D01*
%TO.N,Net-(C6-Pad2)*%
X269760000Y-112261689D02*
X269340028Y-112681661D01*
X269760000Y-111125000D02*
X269760000Y-112261689D01*
%TO.N,Net-(C6-Pad1)*%
X268910520Y-114403480D02*
X268760000Y-114554000D01*
X268910520Y-112464885D02*
X268910520Y-114403480D01*
X269260000Y-111125000D02*
X269260000Y-112115405D01*
%TO.N,Net-(C6-Pad2)*%
X269340028Y-112681661D02*
X269340028Y-114174028D01*
X269340028Y-114174028D02*
X269720000Y-114554000D01*
%TO.N,Net-(C6-Pad1)*%
X269260000Y-112115405D02*
X268910520Y-112464885D01*
%TO.N,/Keyboard/sheet605ED2EB/LED_DOUT*%
X265437480Y-114738975D02*
X265052239Y-115124216D01*
X265438808Y-113115693D02*
X265437480Y-113117021D01*
X265052239Y-115124216D02*
X265052239Y-115748848D01*
D27*
%TO.N,/Keyboard/sheet605ED2EB/CS*%
X263444117Y-116197810D02*
X263444117Y-116433801D01*
X264031988Y-115609939D02*
X263444117Y-116197810D01*
X264031988Y-115497765D02*
X264031988Y-115609939D01*
D25*
%TO.N,/Keyboard/sheet605ED2EB/LED_DOUT*%
X265438808Y-112484693D02*
X265438808Y-113115693D01*
X265437481Y-111567020D02*
X265437479Y-112483363D01*
X265437480Y-113117021D02*
X265437480Y-114738975D01*
D27*
%TO.N,/Keyboard/sheet605ED2EB/CS*%
X263764729Y-113614099D02*
X263944826Y-113614099D01*
X262751000Y-112600370D02*
X263764729Y-113614099D01*
X262751000Y-112340000D02*
X262751000Y-112600370D01*
D25*
%TO.N,CS3*%
X263280520Y-114829596D02*
X263593438Y-115142514D01*
X263116780Y-114410480D02*
X263280520Y-114574220D01*
%TO.N,/Keyboard/sheet605ED2EB/LED_DOUT*%
X265437479Y-112483363D02*
X265438808Y-112484693D01*
D27*
%TO.N,/Keyboard/sheet605ED2EB/CS*%
X264417778Y-114087051D02*
X264417778Y-114614549D01*
X263944826Y-113614099D02*
X264417778Y-114087051D01*
D25*
%TO.N,CS3*%
X263280520Y-114574220D02*
X263280520Y-114829596D01*
X261930520Y-114410480D02*
X263116780Y-114410480D01*
X261501000Y-114840000D02*
X261930520Y-114410480D01*
D27*
%TO.N,/Keyboard/sheet605ED2EB/CS*%
X264154739Y-115375014D02*
X264031988Y-115497765D01*
D25*
%TO.N,/Keyboard/sheet605ED2EB/LED_DOUT*%
X266931996Y-110072505D02*
X265437481Y-111567020D01*
X267998553Y-110072505D02*
X266931996Y-110072505D01*
%TO.N,CS4*%
X263093300Y-117678300D02*
X263600190Y-117678300D01*
X262255000Y-116840000D02*
X263093300Y-117678300D01*
D26*
%TO.N,/Keyboard/sheet605ED2EB/CS*%
X262751000Y-111340000D02*
X262910794Y-111340000D01*
D28*
%TO.N,/Keyboard/sheet605ED2EB/GND*%
X264491231Y-112810829D02*
X264378521Y-112923539D01*
X264491231Y-111225612D02*
X264491231Y-112810829D01*
D26*
%TO.N,/Keyboard/sheet605ED2EB/CS*%
X262910794Y-111340000D02*
X263377419Y-111806625D01*
D28*
%TO.N,/Keyboard/sheet605ED2EB/GND*%
X265286206Y-109987025D02*
X265286206Y-110430637D01*
D25*
%TO.N,CS1*%
X263961720Y-112261631D02*
X263600154Y-112623197D01*
X263961720Y-111564599D02*
X263961720Y-112261631D01*
X263116986Y-110409990D02*
X263316480Y-110609484D01*
X263316480Y-110919359D02*
X263961720Y-111564599D01*
X262255000Y-110840000D02*
X262685010Y-110409990D01*
X263316480Y-110609484D02*
X263316480Y-110919359D01*
D28*
%TO.N,/Keyboard/sheet605ED2EB/GND*%
X265286206Y-110430637D02*
X264491231Y-111225612D01*
D25*
%TO.N,CS1*%
X262685010Y-110409990D02*
X263116986Y-110409990D01*
%TO.N,CS2*%
X262255000Y-112840000D02*
X263788792Y-114373792D01*
X263788792Y-114373792D02*
X263829370Y-114373792D01*
%TO.N,/Keyboard/sheet605ED2EB/CS*%
X263342316Y-116332000D02*
X263444117Y-116433801D01*
X262759000Y-116332000D02*
X263342316Y-116332000D01*
%TO.N,/Keyboard/sheet605ED2EB/GND*%
X266760000Y-111642810D02*
X267208000Y-112090810D01*
D28*
X262255000Y-108840000D02*
X262762000Y-109347000D01*
X272529000Y-114808000D02*
X272529000Y-116065000D01*
D25*
X267760000Y-111125000D02*
X267760000Y-111538810D01*
D28*
X264014990Y-109347000D02*
X264646181Y-109347000D01*
X278765000Y-108840000D02*
X278368030Y-108840000D01*
D25*
X267208000Y-112090810D02*
X267760000Y-111538810D01*
X266192000Y-112001000D02*
X266401810Y-112001000D01*
X266760000Y-111125000D02*
X266760000Y-111642810D01*
D28*
X272529000Y-116065000D02*
X272796000Y-116332000D01*
X264014990Y-109347000D02*
X264014990Y-109520010D01*
X264014990Y-109520010D02*
X263906000Y-109629000D01*
D25*
X266401810Y-112001000D02*
X266760000Y-111642810D01*
D28*
X262762000Y-109347000D02*
X264014990Y-109347000D01*
X264646181Y-109347000D02*
X265286206Y-109987025D01*
X278368030Y-108840000D02*
X277208020Y-110000010D01*
D25*
%TO.N,/Keyboard/sheet605ED2EB/3V3*%
X263906000Y-110589000D02*
X264159368Y-110589000D01*
X264159368Y-110589000D02*
X264399684Y-110348684D01*
X270760000Y-111125000D02*
X270760000Y-110740000D01*
X270760000Y-110740000D02*
X270256000Y-110236000D01*
%TO.N,/Keyboard/sheet605ED2EB/4V2*%
X266192000Y-113411000D02*
X266803034Y-112799966D01*
X266192000Y-113551000D02*
X266192000Y-113411000D01*
%TO.N,Net-(C4-Pad1)*%
X273760000Y-111602000D02*
X273760000Y-111125000D01*
X274079000Y-114259092D02*
X274447000Y-113891092D01*
X274447000Y-113891092D02*
X274447000Y-112289000D01*
X274447000Y-112289000D02*
X273760000Y-111602000D01*
X274079000Y-114808000D02*
X274079000Y-114259092D01*
%TO.N,Net-(C5-Pad2)*%
X268760000Y-112007971D02*
X268351000Y-112416971D01*
X268760000Y-111125000D02*
X268760000Y-112007971D01*
X268351000Y-112416971D02*
X268351000Y-113411000D01*
%TO.N,Net-(C5-Pad1)*%
X268260000Y-111899844D02*
X267462000Y-112697844D01*
X267462000Y-112697844D02*
X267462000Y-113411000D01*
X268260000Y-111125000D02*
X268260000Y-111899844D01*
%TO.N,/Keyboard/sheet605ED2EB/CS*%
X262901000Y-123190000D02*
X262751000Y-123340000D01*
X264033000Y-122696346D02*
X263539346Y-123190000D01*
X263539346Y-123190000D02*
X262901000Y-123190000D01*
X264033000Y-122696346D02*
X264033000Y-120034815D01*
X264033000Y-120015000D02*
X264052815Y-120015000D01*
X265192031Y-120153468D02*
X265192031Y-120254815D01*
X262751000Y-120340000D02*
X263727815Y-120340000D01*
X266848402Y-117856000D02*
X266848402Y-118497097D01*
X263727815Y-120340000D02*
X264052815Y-120015000D01*
X266848402Y-118497097D02*
X265192031Y-120153468D01*
%TO.N,/Keyboard/sheet605ED2EB/D-C*%
X276956836Y-119023693D02*
X276956836Y-120622202D01*
X277150012Y-118830517D02*
X276956836Y-119023693D01*
X276167044Y-116413147D02*
X277150012Y-117396115D01*
X272260000Y-110010000D02*
X272669000Y-109601000D01*
X276956836Y-120622202D02*
X277238634Y-120904000D01*
X272260000Y-111125000D02*
X272260000Y-110010000D01*
X272669000Y-109601000D02*
X275003738Y-109601000D01*
X275003738Y-109601000D02*
X276167044Y-110764307D01*
X276167044Y-110764307D02*
X276167044Y-116413147D01*
X277150012Y-117396115D02*
X277150012Y-118830517D01*
%TO.N,/Keyboard/sheet605ED2EB/SCLK*%
X272760000Y-110399000D02*
X273127989Y-110031011D01*
X276720001Y-118652401D02*
X276526825Y-118845577D01*
X276720001Y-117606075D02*
X276720001Y-118652401D01*
X272760000Y-111125000D02*
X272760000Y-110399000D01*
X276526825Y-121281188D02*
X276904192Y-121658555D01*
X274825624Y-110031011D02*
X275737033Y-110942423D01*
X273127989Y-110031011D02*
X274825624Y-110031011D01*
X275737033Y-110942423D02*
X275737033Y-116623107D01*
X275737033Y-116623107D02*
X276720001Y-117606075D01*
X276526825Y-118845577D02*
X276526825Y-121281188D01*
%TO.N,/Keyboard/sheet605ED2EB/SDIN*%
X273444976Y-110461022D02*
X274647508Y-110461022D01*
X274145086Y-117903914D02*
X274145086Y-118905231D01*
X273260000Y-111125000D02*
X273260000Y-110645998D01*
X275307022Y-111120539D02*
X275307022Y-116741978D01*
X273260000Y-110645998D02*
X273444976Y-110461022D01*
X274647508Y-110461022D02*
X275307022Y-111120539D01*
X274145086Y-118905231D02*
X273840287Y-119210030D01*
X275307022Y-116741978D02*
X274145086Y-117903914D01*
%TO.N,/Keyboard/sheet605ED2EB/LED_DIN*%
X276597055Y-114458744D02*
X276751854Y-114613543D01*
X276597055Y-110586191D02*
X276597055Y-114458744D01*
X273609379Y-108814826D02*
X273965542Y-109170989D01*
X273965542Y-109170989D02*
X275181853Y-109170989D01*
X275181853Y-109170989D02*
X276597055Y-110586191D01*
D29*
%TO.N,Net-(D1-Pad2)*%
X266319000Y-120142000D02*
X267843000Y-118618000D01*
D26*
X266108000Y-120142000D02*
X266319000Y-120142000D01*
D25*
%TO.N,/Keyboard/sheet605ED2EB/KeyRow*%
X268338970Y-120980802D02*
X268267760Y-121052012D01*
X273330706Y-120980802D02*
X268338970Y-120980802D01*
X273558000Y-115476192D02*
X273558000Y-118626811D01*
X273558000Y-118626811D02*
X273255486Y-118929325D01*
X264463011Y-123140989D02*
X263602126Y-124001874D01*
X273304000Y-115222192D02*
X273558000Y-115476192D01*
X273634802Y-120676706D02*
X273330706Y-120980802D01*
X263602126Y-124001874D02*
X263441239Y-124001874D01*
X273634802Y-120115294D02*
X273634802Y-120676706D01*
X273050000Y-114139808D02*
X273304000Y-114393808D01*
X273255486Y-118929325D02*
X273255486Y-119735978D01*
X273255486Y-119735978D02*
X273634802Y-120115294D01*
X265614670Y-121219634D02*
X264910429Y-121219634D01*
X268267760Y-121052012D02*
X265782292Y-121052012D01*
X264463011Y-121667052D02*
X264463011Y-123140989D01*
X264910429Y-121219634D02*
X264463011Y-121667052D01*
X273304000Y-114393808D02*
X273304000Y-115222192D01*
X265782292Y-121052012D02*
X265614670Y-121219634D01*
X273050000Y-113030000D02*
X273050000Y-114139808D01*
%TO.N,/Keyboard/sheet605ED2EB/KeyCol*%
X275102168Y-121899832D02*
X275102168Y-120758702D01*
D26*
X273050000Y-120396000D02*
X268351000Y-120396000D01*
D25*
X272033947Y-109170001D02*
X273126952Y-108076996D01*
D27*
X268308000Y-120353000D02*
X268351000Y-120396000D01*
X268308000Y-120142000D02*
X268308000Y-120353000D01*
D25*
X273126952Y-108076996D02*
X273558004Y-108076996D01*
X277114000Y-123952000D02*
X277114000Y-123911663D01*
X277114000Y-123911663D02*
X275102168Y-121899832D01*
X264541000Y-108077000D02*
X264541000Y-108204000D01*
X275102168Y-120758702D02*
X275079634Y-120736168D01*
X264541000Y-108204000D02*
X265507001Y-109170001D01*
X265507001Y-109170001D02*
X272033947Y-109170001D01*
%TO.N,CS8*%
X263144000Y-125349000D02*
X262764000Y-125349000D01*
X278497999Y-124572999D02*
X263566999Y-124572999D01*
X263510999Y-124628999D02*
X263510999Y-124982001D01*
X262764000Y-125349000D02*
X262255000Y-124840000D01*
X263510999Y-124982001D02*
X263144000Y-125349000D01*
X263566999Y-124572999D02*
X263510999Y-124628999D01*
X278765000Y-124840000D02*
X278497999Y-124572999D01*
%TO.N,CS7*%
X261931010Y-122409990D02*
X261501000Y-122840000D01*
X263435840Y-122428000D02*
X263417830Y-122409990D01*
X263417830Y-122409990D02*
X261931010Y-122409990D01*
%TO.N,CS6*%
X276096814Y-121678225D02*
X276096814Y-120318177D01*
X275448649Y-119670012D02*
X274486602Y-119670012D01*
X276828578Y-122409989D02*
X276096814Y-121678225D01*
X278765000Y-120840000D02*
X277195011Y-122409989D01*
X265319355Y-121649645D02*
X265049000Y-121920000D01*
X265792786Y-121649645D02*
X265319355Y-121649645D01*
X274064813Y-120091801D02*
X274064813Y-120854822D01*
X274064813Y-120854822D02*
X273508822Y-121410813D01*
X268445876Y-121482023D02*
X265960408Y-121482023D01*
X274486602Y-119670012D02*
X274064813Y-120091801D01*
X276096814Y-120318177D02*
X275448649Y-119670012D01*
X265960408Y-121482023D02*
X265792786Y-121649645D01*
X273508822Y-121410813D02*
X268517086Y-121410813D01*
X262255000Y-120840000D02*
X263103475Y-121688475D01*
X268517086Y-121410813D02*
X268445876Y-121482023D01*
X277195011Y-122409989D02*
X276828578Y-122409989D01*
X263103475Y-121688475D02*
X263424509Y-121688475D01*
%TO.N,CS5*%
X278765000Y-118840000D02*
X278424471Y-118840000D01*
X263525000Y-118818004D02*
X263116986Y-118409990D01*
X278424471Y-118840000D02*
X277541646Y-119722825D01*
X263116986Y-118409990D02*
X261931010Y-118409990D01*
X261931010Y-118409990D02*
X261501000Y-118840000D01*
X263525000Y-119380000D02*
X263525000Y-118818004D01*
%TO.N,CS4*%
X277778803Y-116840000D02*
X277399743Y-116460940D01*
X278765000Y-116840000D02*
X277778803Y-116840000D01*
%TO.N,CS3*%
X277383369Y-114840000D02*
X276881702Y-115341667D01*
X278765000Y-114840000D02*
X277383369Y-114840000D01*
X262787802Y-114376802D02*
X262751000Y-114340000D01*
%TO.N,CS2*%
X278765000Y-112840000D02*
X277879865Y-112840000D01*
X277879865Y-112840000D02*
X277181865Y-113538000D01*
%TO.N,CS1*%
X277966827Y-110840000D02*
X277181865Y-111624962D01*
X278765000Y-110840000D02*
X277966827Y-110840000D01*
%TO.N,Net-(C1-Pad1)*%
X274877011Y-111456987D02*
X274545024Y-111125000D01*
X274877011Y-115406989D02*
X274877011Y-111456987D01*
X274545024Y-111125000D02*
X274260000Y-111125000D01*
X274079000Y-116205000D02*
X274877011Y-115406989D01*
%TD*%
M02*
