M48
; DRILL file {KiCad (6.0.1)} date Thu Jan 27 11:35:47 2022
; FORMAT={-:-/ absolute / metric / decimal}
; #@! TF.CreationDate,2022-01-27T11:35:47+01:00
; #@! TF.GenerationSoftware,Kicad,Pcbnew,(6.0.1)
; #@! TF.FileFunction,Plated,1,2,PTH
FMAT,2
METRIC
; #@! TA.AperFunction,Plated,PTH,ViaDrill
T1C0.356
; #@! TA.AperFunction,Plated,PTH,ViaDrill
T2C0.400
; #@! TA.AperFunction,Plated,PTH,ComponentDrill
T3C0.700
; #@! TA.AperFunction,Plated,PTH,ComponentDrill
T4C1.500
%
G90
G05
T1
X263.377Y-111.807
X263.425Y-121.688
X263.436Y-122.428
X263.441Y-124.002
X263.444Y-116.434
X263.525Y-119.38
X263.593Y-115.143
X263.6Y-112.623
X263.6Y-117.678
X263.829Y-114.374
X264.053Y-120.015
X264.4Y-110.349
X264.71Y-116.406
X264.951Y-123.463
X265.049Y-121.92
X265.052Y-115.749
X265.192Y-120.255
X266.803Y-112.8
X267.081Y-117.208
X267.208Y-112.091
X267.843Y-118.618
X267.999Y-110.073
X268.478Y-115.57
X269.924Y-113.398
X270.256Y-110.236
X271.066Y-115.727
X271.522Y-113.484
X273.05Y-120.396
X273.558Y-108.077
X273.609Y-108.815
X273.84Y-119.21
X275.08Y-120.736
X276.752Y-114.614
X276.882Y-115.342
X276.904Y-121.659
X277.114Y-123.952
X277.182Y-111.625
X277.182Y-113.538
X277.239Y-120.904
X277.4Y-116.461
X277.542Y-119.723
T2
X264.379Y-112.924
X265.286Y-109.987
X277.208Y-110.0
T3
X264.541Y-108.077
X264.541Y-125.603
X276.479Y-108.077
X276.479Y-125.603
T4
X266.7Y-115.57
X273.05Y-113.03
T0
M30
