%FSLAX45Y45*%
G04 Gerber Fmt 4.5, Leading zero omitted, Abs format (unit mm)*
G04 Created by KiCad (PCBNEW (5.1.9)-1) date 2021-09-16 08:42:30*
%MOMM*%
%LPD*%
G01*
G04 APERTURE LIST*
%TA.AperFunction,Profile*%
%ADD10C,0.050000*%
%TD*%
%ADD11C,0.200000*%
%ADD12C,0.300000*%
G04 APERTURE END LIST*
D10*
X27470100Y-12230100D02*
G75*
G02*
X27470100Y-12407900I0J-88900D01*
G01*
X26631900Y-12407900D02*
G75*
G02*
X26631900Y-12230100I0J88900D01*
G01*
X27470100Y-12407900D02*
X26631900Y-12407900D01*
X27470100Y-12230100D02*
X26631900Y-12230100D01*
X28003500Y-12636500D02*
X26098500Y-12636500D01*
X28003500Y-10731500D02*
X26098500Y-10731500D01*
X28003500Y-10731500D02*
X28003500Y-12636500D01*
X26098500Y-10731500D02*
X26098500Y-12636500D01*
D11*
X26324671Y-12151067D02*
X26360231Y-12186627D01*
X26360231Y-12151067D02*
X26324671Y-12186627D01*
X26325046Y-11349292D02*
X26360606Y-11384852D01*
X26360606Y-11349292D02*
X26325046Y-11384852D01*
X26325800Y-11615420D02*
X26361360Y-11650980D01*
X26361360Y-11615420D02*
X26325800Y-11650980D01*
X26325800Y-11490835D02*
X26361360Y-11526395D01*
X26361360Y-11490835D02*
X26325800Y-11526395D01*
X26325804Y-12225020D02*
X26361364Y-12260580D01*
X26361364Y-12225020D02*
X26325804Y-12260580D01*
X26326344Y-12382407D02*
X26361904Y-12417967D01*
X26361904Y-12382407D02*
X26326344Y-12417967D01*
X26334720Y-11920220D02*
X26370280Y-11955780D01*
X26370280Y-11920220D02*
X26334720Y-11955780D01*
X26342239Y-11742420D02*
X26377799Y-11777980D01*
X26377799Y-11742420D02*
X26342239Y-11777980D01*
X26347420Y-11120120D02*
X26382980Y-11155680D01*
X26382980Y-11120120D02*
X26347420Y-11155680D01*
X26387501Y-11983720D02*
X26423061Y-12019280D01*
X26423061Y-11983720D02*
X26387501Y-12019280D01*
X26422188Y-11017088D02*
X26457748Y-11052648D01*
X26457748Y-11017088D02*
X26422188Y-11052648D01*
X26464550Y-11616667D02*
X26500110Y-11652227D01*
X26500110Y-11616667D02*
X26464550Y-11652227D01*
X26477326Y-12328538D02*
X26512886Y-12364098D01*
X26512886Y-12328538D02*
X26477326Y-12364098D01*
X26487120Y-12174220D02*
X26522680Y-12209780D01*
X26522680Y-12174220D02*
X26487120Y-12209780D01*
X26487124Y-11412220D02*
X26522684Y-11447780D01*
X26522684Y-11412220D02*
X26487124Y-11447780D01*
X26501423Y-12007701D02*
X26536983Y-12043261D01*
X26536983Y-12007701D02*
X26501423Y-12043261D01*
X26662523Y-11262217D02*
X26698083Y-11297777D01*
X26698083Y-11262217D02*
X26662523Y-11297777D01*
X26677620Y-11691620D02*
X26713180Y-11727180D01*
X26713180Y-11691620D02*
X26677620Y-11727180D01*
X26703020Y-11191301D02*
X26738580Y-11226861D01*
X26738580Y-11191301D02*
X26703020Y-11226861D01*
X26766520Y-11844020D02*
X26802080Y-11879580D01*
X26802080Y-11844020D02*
X26766520Y-11879580D01*
X26782075Y-10989471D02*
X26817635Y-11025031D01*
X26817635Y-10989471D02*
X26782075Y-11025031D01*
X26830020Y-11539220D02*
X26865580Y-11574780D01*
X26865580Y-11539220D02*
X26830020Y-11574780D01*
X26975928Y-11273485D02*
X27011488Y-11309045D01*
X27011488Y-11273485D02*
X26975928Y-11309045D01*
X27007820Y-11005820D02*
X27043380Y-11041380D01*
X27043380Y-11005820D02*
X27007820Y-11041380D01*
X27058552Y-11546891D02*
X27094112Y-11582451D01*
X27094112Y-11546891D02*
X27058552Y-11582451D01*
X27137669Y-11324288D02*
X27173229Y-11359848D01*
X27173229Y-11324288D02*
X27137669Y-11359848D01*
X27287220Y-12021820D02*
X27322780Y-12057380D01*
X27322780Y-12021820D02*
X27287220Y-12057380D01*
X27338020Y-10789920D02*
X27373580Y-10825480D01*
X27373580Y-10789920D02*
X27338020Y-10825480D01*
X27343158Y-10863703D02*
X27378718Y-10899263D01*
X27378718Y-10863703D02*
X27343158Y-10899263D01*
X27366249Y-11903223D02*
X27401809Y-11938783D01*
X27401809Y-11903223D02*
X27366249Y-11938783D01*
X27444639Y-11086803D02*
X27480199Y-11122363D01*
X27480199Y-11086803D02*
X27444639Y-11122363D01*
X27490183Y-12055837D02*
X27525743Y-12091397D01*
X27525743Y-12055837D02*
X27490183Y-12091397D01*
X27657405Y-11443574D02*
X27692965Y-11479134D01*
X27692965Y-11443574D02*
X27657405Y-11479134D01*
X27670390Y-11516387D02*
X27705950Y-11551947D01*
X27705950Y-11516387D02*
X27670390Y-11551947D01*
X27672639Y-12148075D02*
X27708199Y-12183635D01*
X27708199Y-12148075D02*
X27672639Y-12183635D01*
X27693620Y-12377420D02*
X27729180Y-12412980D01*
X27729180Y-12377420D02*
X27693620Y-12412980D01*
X27700406Y-11144716D02*
X27735966Y-11180276D01*
X27735966Y-11144716D02*
X27700406Y-11180276D01*
X27700406Y-11336020D02*
X27735966Y-11371580D01*
X27735966Y-11336020D02*
X27700406Y-11371580D01*
X27706083Y-12072620D02*
X27741643Y-12108180D01*
X27741643Y-12072620D02*
X27706083Y-12108180D01*
X27722194Y-11628314D02*
X27757754Y-11663874D01*
X27757754Y-11628314D02*
X27722194Y-11663874D01*
X27736385Y-11954502D02*
X27771945Y-11990062D01*
X27771945Y-11954502D02*
X27736385Y-11990062D01*
X26434263Y-11224435D02*
G75*
G03*
X26434263Y-11224435I-20000J0D01*
G01*
X26548621Y-10998703D02*
G75*
G03*
X26548621Y-10998703I-20000J0D01*
G01*
X27740802Y-11000001D02*
G75*
G03*
X27740802Y-11000001I-20000J0D01*
G01*
X26454100Y-10772700D02*
X26454100Y-10842700D01*
X26419100Y-10807700D02*
X26489100Y-10807700D01*
X26454100Y-12525300D02*
X26454100Y-12595300D01*
X26419100Y-12560300D02*
X26489100Y-12560300D01*
X27647900Y-10772700D02*
X27647900Y-10842700D01*
X27612900Y-10807700D02*
X27682900Y-10807700D01*
X27647900Y-12525300D02*
X27647900Y-12595300D01*
X27612900Y-12560300D02*
X27682900Y-12560300D01*
X26723033Y-11610033D02*
X26723033Y-11503966D01*
X26616966Y-11503966D01*
X26616966Y-11610033D01*
X26723033Y-11610033D01*
X27358033Y-11356033D02*
X27358033Y-11249966D01*
X27251966Y-11249966D01*
X27251966Y-11356033D01*
X27358033Y-11356033D01*
D12*
X26382428Y-13104714D02*
X26382428Y-12804714D01*
X26453857Y-12804714D01*
X26496714Y-12819000D01*
X26525286Y-12847571D01*
X26539571Y-12876143D01*
X26553857Y-12933286D01*
X26553857Y-12976143D01*
X26539571Y-13033286D01*
X26525286Y-13061857D01*
X26496714Y-13090429D01*
X26453857Y-13104714D01*
X26382428Y-13104714D01*
X26682428Y-13104714D02*
X26682428Y-12904714D01*
X26682428Y-12961857D02*
X26696714Y-12933286D01*
X26711000Y-12919000D01*
X26739571Y-12904714D01*
X26768143Y-12904714D01*
X26868143Y-13104714D02*
X26868143Y-12904714D01*
X26868143Y-12804714D02*
X26853857Y-12819000D01*
X26868143Y-12833286D01*
X26882428Y-12819000D01*
X26868143Y-12804714D01*
X26868143Y-12833286D01*
X27053857Y-13104714D02*
X27025286Y-13090429D01*
X27011000Y-13061857D01*
X27011000Y-12804714D01*
X27211000Y-13104714D02*
X27182428Y-13090429D01*
X27168143Y-13061857D01*
X27168143Y-12804714D01*
X27553857Y-13104714D02*
X27553857Y-12804714D01*
X27653857Y-13019000D01*
X27753857Y-12804714D01*
X27753857Y-13104714D01*
X28025286Y-13104714D02*
X28025286Y-12947571D01*
X28011000Y-12919000D01*
X27982428Y-12904714D01*
X27925286Y-12904714D01*
X27896714Y-12919000D01*
X28025286Y-13090429D02*
X27996714Y-13104714D01*
X27925286Y-13104714D01*
X27896714Y-13090429D01*
X27882428Y-13061857D01*
X27882428Y-13033286D01*
X27896714Y-13004714D01*
X27925286Y-12990429D01*
X27996714Y-12990429D01*
X28025286Y-12976143D01*
X28168143Y-12904714D02*
X28168143Y-13204714D01*
X28168143Y-12919000D02*
X28196714Y-12904714D01*
X28253857Y-12904714D01*
X28282428Y-12919000D01*
X28296714Y-12933286D01*
X28311000Y-12961857D01*
X28311000Y-13047571D01*
X28296714Y-13076143D01*
X28282428Y-13090429D01*
X28253857Y-13104714D01*
X28196714Y-13104714D01*
X28168143Y-13090429D01*
X28439571Y-13076143D02*
X28453857Y-13090429D01*
X28439571Y-13104714D01*
X28425286Y-13090429D01*
X28439571Y-13076143D01*
X28439571Y-13104714D01*
X28439571Y-12919000D02*
X28453857Y-12933286D01*
X28439571Y-12947571D01*
X28425286Y-12933286D01*
X28439571Y-12919000D01*
X28439571Y-12947571D01*
X26060440Y-13581220D02*
X26096000Y-13616780D01*
X26096000Y-13581220D02*
X26060440Y-13616780D01*
X26439571Y-13434714D02*
X26468143Y-13434714D01*
X26496714Y-13449000D01*
X26511000Y-13463286D01*
X26525286Y-13491857D01*
X26539571Y-13549000D01*
X26539571Y-13620429D01*
X26525286Y-13677571D01*
X26511000Y-13706143D01*
X26496714Y-13720429D01*
X26468143Y-13734714D01*
X26439571Y-13734714D01*
X26411000Y-13720429D01*
X26396714Y-13706143D01*
X26382428Y-13677571D01*
X26368143Y-13620429D01*
X26368143Y-13549000D01*
X26382428Y-13491857D01*
X26396714Y-13463286D01*
X26411000Y-13449000D01*
X26439571Y-13434714D01*
X26668143Y-13706143D02*
X26682428Y-13720429D01*
X26668143Y-13734714D01*
X26653857Y-13720429D01*
X26668143Y-13706143D01*
X26668143Y-13734714D01*
X26782428Y-13434714D02*
X26968143Y-13434714D01*
X26868143Y-13549000D01*
X26911000Y-13549000D01*
X26939571Y-13563286D01*
X26953857Y-13577571D01*
X26968143Y-13606143D01*
X26968143Y-13677571D01*
X26953857Y-13706143D01*
X26939571Y-13720429D01*
X26911000Y-13734714D01*
X26825286Y-13734714D01*
X26796714Y-13720429D01*
X26782428Y-13706143D01*
X27225286Y-13434714D02*
X27168143Y-13434714D01*
X27139571Y-13449000D01*
X27125286Y-13463286D01*
X27096714Y-13506143D01*
X27082428Y-13563286D01*
X27082428Y-13677571D01*
X27096714Y-13706143D01*
X27111000Y-13720429D01*
X27139571Y-13734714D01*
X27196714Y-13734714D01*
X27225286Y-13720429D01*
X27239571Y-13706143D01*
X27253857Y-13677571D01*
X27253857Y-13606143D01*
X27239571Y-13577571D01*
X27225286Y-13563286D01*
X27196714Y-13549000D01*
X27139571Y-13549000D01*
X27111000Y-13563286D01*
X27096714Y-13577571D01*
X27082428Y-13606143D01*
X27382428Y-13734714D02*
X27382428Y-13534714D01*
X27382428Y-13563286D02*
X27396714Y-13549000D01*
X27425286Y-13534714D01*
X27468143Y-13534714D01*
X27496714Y-13549000D01*
X27511000Y-13577571D01*
X27511000Y-13734714D01*
X27511000Y-13577571D02*
X27525286Y-13549000D01*
X27553857Y-13534714D01*
X27596714Y-13534714D01*
X27625286Y-13549000D01*
X27639571Y-13577571D01*
X27639571Y-13734714D01*
X27782428Y-13734714D02*
X27782428Y-13534714D01*
X27782428Y-13563286D02*
X27796714Y-13549000D01*
X27825286Y-13534714D01*
X27868143Y-13534714D01*
X27896714Y-13549000D01*
X27911000Y-13577571D01*
X27911000Y-13734714D01*
X27911000Y-13577571D02*
X27925286Y-13549000D01*
X27953857Y-13534714D01*
X27996714Y-13534714D01*
X28025286Y-13549000D01*
X28039571Y-13577571D01*
X28039571Y-13734714D01*
X28625286Y-13420429D02*
X28368143Y-13806143D01*
X29011000Y-13434714D02*
X29039571Y-13434714D01*
X29068143Y-13449000D01*
X29082428Y-13463286D01*
X29096714Y-13491857D01*
X29111000Y-13549000D01*
X29111000Y-13620429D01*
X29096714Y-13677571D01*
X29082428Y-13706143D01*
X29068143Y-13720429D01*
X29039571Y-13734714D01*
X29011000Y-13734714D01*
X28982428Y-13720429D01*
X28968143Y-13706143D01*
X28953857Y-13677571D01*
X28939571Y-13620429D01*
X28939571Y-13549000D01*
X28953857Y-13491857D01*
X28968143Y-13463286D01*
X28982428Y-13449000D01*
X29011000Y-13434714D01*
X29239571Y-13706143D02*
X29253857Y-13720429D01*
X29239571Y-13734714D01*
X29225286Y-13720429D01*
X29239571Y-13706143D01*
X29239571Y-13734714D01*
X29439571Y-13434714D02*
X29468143Y-13434714D01*
X29496714Y-13449000D01*
X29511000Y-13463286D01*
X29525286Y-13491857D01*
X29539571Y-13549000D01*
X29539571Y-13620429D01*
X29525286Y-13677571D01*
X29511000Y-13706143D01*
X29496714Y-13720429D01*
X29468143Y-13734714D01*
X29439571Y-13734714D01*
X29411000Y-13720429D01*
X29396714Y-13706143D01*
X29382428Y-13677571D01*
X29368143Y-13620429D01*
X29368143Y-13549000D01*
X29382428Y-13491857D01*
X29396714Y-13463286D01*
X29411000Y-13449000D01*
X29439571Y-13434714D01*
X29825286Y-13734714D02*
X29653857Y-13734714D01*
X29739571Y-13734714D02*
X29739571Y-13434714D01*
X29711000Y-13477571D01*
X29682428Y-13506143D01*
X29653857Y-13520429D01*
X30082428Y-13534714D02*
X30082428Y-13734714D01*
X30011000Y-13420429D02*
X29939571Y-13634714D01*
X30125286Y-13634714D01*
X30225286Y-13434714D02*
X30225286Y-13491857D01*
X30339571Y-13434714D02*
X30339571Y-13491857D01*
X30782428Y-13849000D02*
X30768143Y-13834714D01*
X30739571Y-13791857D01*
X30725286Y-13763286D01*
X30711000Y-13720429D01*
X30696714Y-13649000D01*
X30696714Y-13591857D01*
X30711000Y-13520429D01*
X30725286Y-13477571D01*
X30739571Y-13449000D01*
X30768143Y-13406143D01*
X30782428Y-13391857D01*
X31025286Y-13534714D02*
X31025286Y-13734714D01*
X30953857Y-13420429D02*
X30882428Y-13634714D01*
X31068143Y-13634714D01*
X31339571Y-13734714D02*
X31168143Y-13734714D01*
X31253857Y-13734714D02*
X31253857Y-13434714D01*
X31225286Y-13477571D01*
X31196714Y-13506143D01*
X31168143Y-13520429D01*
X31696714Y-13734714D02*
X31696714Y-13434714D01*
X31825286Y-13734714D02*
X31825286Y-13577571D01*
X31811000Y-13549000D01*
X31782428Y-13534714D01*
X31739571Y-13534714D01*
X31711000Y-13549000D01*
X31696714Y-13563286D01*
X32011000Y-13734714D02*
X31982428Y-13720429D01*
X31968143Y-13706143D01*
X31953857Y-13677571D01*
X31953857Y-13591857D01*
X31968143Y-13563286D01*
X31982428Y-13549000D01*
X32011000Y-13534714D01*
X32053857Y-13534714D01*
X32082428Y-13549000D01*
X32096714Y-13563286D01*
X32111000Y-13591857D01*
X32111000Y-13677571D01*
X32096714Y-13706143D01*
X32082428Y-13720429D01*
X32053857Y-13734714D01*
X32011000Y-13734714D01*
X32282428Y-13734714D02*
X32253857Y-13720429D01*
X32239571Y-13691857D01*
X32239571Y-13434714D01*
X32511000Y-13720429D02*
X32482428Y-13734714D01*
X32425286Y-13734714D01*
X32396714Y-13720429D01*
X32382428Y-13691857D01*
X32382428Y-13577571D01*
X32396714Y-13549000D01*
X32425286Y-13534714D01*
X32482428Y-13534714D01*
X32511000Y-13549000D01*
X32525286Y-13577571D01*
X32525286Y-13606143D01*
X32382428Y-13634714D01*
X32639571Y-13720429D02*
X32668143Y-13734714D01*
X32725286Y-13734714D01*
X32753857Y-13720429D01*
X32768143Y-13691857D01*
X32768143Y-13677571D01*
X32753857Y-13649000D01*
X32725286Y-13634714D01*
X32682428Y-13634714D01*
X32653857Y-13620429D01*
X32639571Y-13591857D01*
X32639571Y-13577571D01*
X32653857Y-13549000D01*
X32682428Y-13534714D01*
X32725286Y-13534714D01*
X32753857Y-13549000D01*
X32868143Y-13849000D02*
X32882428Y-13834714D01*
X32911000Y-13791857D01*
X32925286Y-13763286D01*
X32939571Y-13720429D01*
X32953857Y-13649000D01*
X32953857Y-13591857D01*
X32939571Y-13520429D01*
X32925286Y-13477571D01*
X32911000Y-13449000D01*
X32882428Y-13406143D01*
X32868143Y-13391857D01*
X26096000Y-13995000D02*
G75*
G03*
X26096000Y-13995000I-20000J0D01*
G01*
X26439571Y-13830714D02*
X26468143Y-13830714D01*
X26496714Y-13845000D01*
X26511000Y-13859286D01*
X26525286Y-13887857D01*
X26539571Y-13945000D01*
X26539571Y-14016429D01*
X26525286Y-14073571D01*
X26511000Y-14102143D01*
X26496714Y-14116429D01*
X26468143Y-14130714D01*
X26439571Y-14130714D01*
X26411000Y-14116429D01*
X26396714Y-14102143D01*
X26382428Y-14073571D01*
X26368143Y-14016429D01*
X26368143Y-13945000D01*
X26382428Y-13887857D01*
X26396714Y-13859286D01*
X26411000Y-13845000D01*
X26439571Y-13830714D01*
X26668143Y-14102143D02*
X26682428Y-14116429D01*
X26668143Y-14130714D01*
X26653857Y-14116429D01*
X26668143Y-14102143D01*
X26668143Y-14130714D01*
X26939571Y-13930714D02*
X26939571Y-14130714D01*
X26868143Y-13816429D02*
X26796714Y-14030714D01*
X26982428Y-14030714D01*
X27153857Y-13830714D02*
X27182428Y-13830714D01*
X27211000Y-13845000D01*
X27225286Y-13859286D01*
X27239571Y-13887857D01*
X27253857Y-13945000D01*
X27253857Y-14016429D01*
X27239571Y-14073571D01*
X27225286Y-14102143D01*
X27211000Y-14116429D01*
X27182428Y-14130714D01*
X27153857Y-14130714D01*
X27125286Y-14116429D01*
X27111000Y-14102143D01*
X27096714Y-14073571D01*
X27082428Y-14016429D01*
X27082428Y-13945000D01*
X27096714Y-13887857D01*
X27111000Y-13859286D01*
X27125286Y-13845000D01*
X27153857Y-13830714D01*
X27382428Y-14130714D02*
X27382428Y-13930714D01*
X27382428Y-13959286D02*
X27396714Y-13945000D01*
X27425286Y-13930714D01*
X27468143Y-13930714D01*
X27496714Y-13945000D01*
X27511000Y-13973571D01*
X27511000Y-14130714D01*
X27511000Y-13973571D02*
X27525286Y-13945000D01*
X27553857Y-13930714D01*
X27596714Y-13930714D01*
X27625286Y-13945000D01*
X27639571Y-13973571D01*
X27639571Y-14130714D01*
X27782428Y-14130714D02*
X27782428Y-13930714D01*
X27782428Y-13959286D02*
X27796714Y-13945000D01*
X27825286Y-13930714D01*
X27868143Y-13930714D01*
X27896714Y-13945000D01*
X27911000Y-13973571D01*
X27911000Y-14130714D01*
X27911000Y-13973571D02*
X27925286Y-13945000D01*
X27953857Y-13930714D01*
X27996714Y-13930714D01*
X28025286Y-13945000D01*
X28039571Y-13973571D01*
X28039571Y-14130714D01*
X28625286Y-13816429D02*
X28368143Y-14202143D01*
X29011000Y-13830714D02*
X29039571Y-13830714D01*
X29068143Y-13845000D01*
X29082428Y-13859286D01*
X29096714Y-13887857D01*
X29111000Y-13945000D01*
X29111000Y-14016429D01*
X29096714Y-14073571D01*
X29082428Y-14102143D01*
X29068143Y-14116429D01*
X29039571Y-14130714D01*
X29011000Y-14130714D01*
X28982428Y-14116429D01*
X28968143Y-14102143D01*
X28953857Y-14073571D01*
X28939571Y-14016429D01*
X28939571Y-13945000D01*
X28953857Y-13887857D01*
X28968143Y-13859286D01*
X28982428Y-13845000D01*
X29011000Y-13830714D01*
X29239571Y-14102143D02*
X29253857Y-14116429D01*
X29239571Y-14130714D01*
X29225286Y-14116429D01*
X29239571Y-14102143D01*
X29239571Y-14130714D01*
X29439571Y-13830714D02*
X29468143Y-13830714D01*
X29496714Y-13845000D01*
X29511000Y-13859286D01*
X29525286Y-13887857D01*
X29539571Y-13945000D01*
X29539571Y-14016429D01*
X29525286Y-14073571D01*
X29511000Y-14102143D01*
X29496714Y-14116429D01*
X29468143Y-14130714D01*
X29439571Y-14130714D01*
X29411000Y-14116429D01*
X29396714Y-14102143D01*
X29382428Y-14073571D01*
X29368143Y-14016429D01*
X29368143Y-13945000D01*
X29382428Y-13887857D01*
X29396714Y-13859286D01*
X29411000Y-13845000D01*
X29439571Y-13830714D01*
X29825286Y-14130714D02*
X29653857Y-14130714D01*
X29739571Y-14130714D02*
X29739571Y-13830714D01*
X29711000Y-13873571D01*
X29682428Y-13902143D01*
X29653857Y-13916429D01*
X30082428Y-13830714D02*
X30025286Y-13830714D01*
X29996714Y-13845000D01*
X29982428Y-13859286D01*
X29953857Y-13902143D01*
X29939571Y-13959286D01*
X29939571Y-14073571D01*
X29953857Y-14102143D01*
X29968143Y-14116429D01*
X29996714Y-14130714D01*
X30053857Y-14130714D01*
X30082428Y-14116429D01*
X30096714Y-14102143D01*
X30111000Y-14073571D01*
X30111000Y-14002143D01*
X30096714Y-13973571D01*
X30082428Y-13959286D01*
X30053857Y-13945000D01*
X29996714Y-13945000D01*
X29968143Y-13959286D01*
X29953857Y-13973571D01*
X29939571Y-14002143D01*
X30225286Y-13830714D02*
X30225286Y-13887857D01*
X30339571Y-13830714D02*
X30339571Y-13887857D01*
X30782428Y-14245000D02*
X30768143Y-14230714D01*
X30739571Y-14187857D01*
X30725286Y-14159286D01*
X30711000Y-14116429D01*
X30696714Y-14045000D01*
X30696714Y-13987857D01*
X30711000Y-13916429D01*
X30725286Y-13873571D01*
X30739571Y-13845000D01*
X30768143Y-13802143D01*
X30782428Y-13787857D01*
X30868143Y-13830714D02*
X31053857Y-13830714D01*
X30953857Y-13945000D01*
X30996714Y-13945000D01*
X31025286Y-13959286D01*
X31039571Y-13973571D01*
X31053857Y-14002143D01*
X31053857Y-14073571D01*
X31039571Y-14102143D01*
X31025286Y-14116429D01*
X30996714Y-14130714D01*
X30911000Y-14130714D01*
X30882428Y-14116429D01*
X30868143Y-14102143D01*
X31411000Y-14130714D02*
X31411000Y-13830714D01*
X31539571Y-14130714D02*
X31539571Y-13973571D01*
X31525286Y-13945000D01*
X31496714Y-13930714D01*
X31453857Y-13930714D01*
X31425286Y-13945000D01*
X31411000Y-13959286D01*
X31725286Y-14130714D02*
X31696714Y-14116429D01*
X31682428Y-14102143D01*
X31668143Y-14073571D01*
X31668143Y-13987857D01*
X31682428Y-13959286D01*
X31696714Y-13945000D01*
X31725286Y-13930714D01*
X31768143Y-13930714D01*
X31796714Y-13945000D01*
X31811000Y-13959286D01*
X31825286Y-13987857D01*
X31825286Y-14073571D01*
X31811000Y-14102143D01*
X31796714Y-14116429D01*
X31768143Y-14130714D01*
X31725286Y-14130714D01*
X31996714Y-14130714D02*
X31968143Y-14116429D01*
X31953857Y-14087857D01*
X31953857Y-13830714D01*
X32225286Y-14116429D02*
X32196714Y-14130714D01*
X32139571Y-14130714D01*
X32111000Y-14116429D01*
X32096714Y-14087857D01*
X32096714Y-13973571D01*
X32111000Y-13945000D01*
X32139571Y-13930714D01*
X32196714Y-13930714D01*
X32225286Y-13945000D01*
X32239571Y-13973571D01*
X32239571Y-14002143D01*
X32096714Y-14030714D01*
X32353857Y-14116429D02*
X32382428Y-14130714D01*
X32439571Y-14130714D01*
X32468143Y-14116429D01*
X32482428Y-14087857D01*
X32482428Y-14073571D01*
X32468143Y-14045000D01*
X32439571Y-14030714D01*
X32396714Y-14030714D01*
X32368143Y-14016429D01*
X32353857Y-13987857D01*
X32353857Y-13973571D01*
X32368143Y-13945000D01*
X32396714Y-13930714D01*
X32439571Y-13930714D01*
X32468143Y-13945000D01*
X32582428Y-14245000D02*
X32596714Y-14230714D01*
X32625286Y-14187857D01*
X32639571Y-14159286D01*
X32653857Y-14116429D01*
X32668143Y-14045000D01*
X32668143Y-13987857D01*
X32653857Y-13916429D01*
X32639571Y-13873571D01*
X32625286Y-13845000D01*
X32596714Y-13802143D01*
X32582428Y-13787857D01*
X26061000Y-14356000D02*
X26061000Y-14426000D01*
X26026000Y-14391000D02*
X26096000Y-14391000D01*
X26439571Y-14226714D02*
X26468143Y-14226714D01*
X26496714Y-14241000D01*
X26511000Y-14255286D01*
X26525286Y-14283857D01*
X26539571Y-14341000D01*
X26539571Y-14412429D01*
X26525286Y-14469571D01*
X26511000Y-14498143D01*
X26496714Y-14512429D01*
X26468143Y-14526714D01*
X26439571Y-14526714D01*
X26411000Y-14512429D01*
X26396714Y-14498143D01*
X26382428Y-14469571D01*
X26368143Y-14412429D01*
X26368143Y-14341000D01*
X26382428Y-14283857D01*
X26396714Y-14255286D01*
X26411000Y-14241000D01*
X26439571Y-14226714D01*
X26668143Y-14498143D02*
X26682428Y-14512429D01*
X26668143Y-14526714D01*
X26653857Y-14512429D01*
X26668143Y-14498143D01*
X26668143Y-14526714D01*
X26782428Y-14226714D02*
X26982428Y-14226714D01*
X26853857Y-14526714D01*
X27153857Y-14226714D02*
X27182428Y-14226714D01*
X27211000Y-14241000D01*
X27225286Y-14255286D01*
X27239571Y-14283857D01*
X27253857Y-14341000D01*
X27253857Y-14412429D01*
X27239571Y-14469571D01*
X27225286Y-14498143D01*
X27211000Y-14512429D01*
X27182428Y-14526714D01*
X27153857Y-14526714D01*
X27125286Y-14512429D01*
X27111000Y-14498143D01*
X27096714Y-14469571D01*
X27082428Y-14412429D01*
X27082428Y-14341000D01*
X27096714Y-14283857D01*
X27111000Y-14255286D01*
X27125286Y-14241000D01*
X27153857Y-14226714D01*
X27382428Y-14526714D02*
X27382428Y-14326714D01*
X27382428Y-14355286D02*
X27396714Y-14341000D01*
X27425286Y-14326714D01*
X27468143Y-14326714D01*
X27496714Y-14341000D01*
X27511000Y-14369571D01*
X27511000Y-14526714D01*
X27511000Y-14369571D02*
X27525286Y-14341000D01*
X27553857Y-14326714D01*
X27596714Y-14326714D01*
X27625286Y-14341000D01*
X27639571Y-14369571D01*
X27639571Y-14526714D01*
X27782428Y-14526714D02*
X27782428Y-14326714D01*
X27782428Y-14355286D02*
X27796714Y-14341000D01*
X27825286Y-14326714D01*
X27868143Y-14326714D01*
X27896714Y-14341000D01*
X27911000Y-14369571D01*
X27911000Y-14526714D01*
X27911000Y-14369571D02*
X27925286Y-14341000D01*
X27953857Y-14326714D01*
X27996714Y-14326714D01*
X28025286Y-14341000D01*
X28039571Y-14369571D01*
X28039571Y-14526714D01*
X28625286Y-14212429D02*
X28368143Y-14598143D01*
X29011000Y-14226714D02*
X29039571Y-14226714D01*
X29068143Y-14241000D01*
X29082428Y-14255286D01*
X29096714Y-14283857D01*
X29111000Y-14341000D01*
X29111000Y-14412429D01*
X29096714Y-14469571D01*
X29082428Y-14498143D01*
X29068143Y-14512429D01*
X29039571Y-14526714D01*
X29011000Y-14526714D01*
X28982428Y-14512429D01*
X28968143Y-14498143D01*
X28953857Y-14469571D01*
X28939571Y-14412429D01*
X28939571Y-14341000D01*
X28953857Y-14283857D01*
X28968143Y-14255286D01*
X28982428Y-14241000D01*
X29011000Y-14226714D01*
X29239571Y-14498143D02*
X29253857Y-14512429D01*
X29239571Y-14526714D01*
X29225286Y-14512429D01*
X29239571Y-14498143D01*
X29239571Y-14526714D01*
X29439571Y-14226714D02*
X29468143Y-14226714D01*
X29496714Y-14241000D01*
X29511000Y-14255286D01*
X29525286Y-14283857D01*
X29539571Y-14341000D01*
X29539571Y-14412429D01*
X29525286Y-14469571D01*
X29511000Y-14498143D01*
X29496714Y-14512429D01*
X29468143Y-14526714D01*
X29439571Y-14526714D01*
X29411000Y-14512429D01*
X29396714Y-14498143D01*
X29382428Y-14469571D01*
X29368143Y-14412429D01*
X29368143Y-14341000D01*
X29382428Y-14283857D01*
X29396714Y-14255286D01*
X29411000Y-14241000D01*
X29439571Y-14226714D01*
X29653857Y-14255286D02*
X29668143Y-14241000D01*
X29696714Y-14226714D01*
X29768143Y-14226714D01*
X29796714Y-14241000D01*
X29811000Y-14255286D01*
X29825286Y-14283857D01*
X29825286Y-14312429D01*
X29811000Y-14355286D01*
X29639571Y-14526714D01*
X29825286Y-14526714D01*
X29996714Y-14355286D02*
X29968143Y-14341000D01*
X29953857Y-14326714D01*
X29939571Y-14298143D01*
X29939571Y-14283857D01*
X29953857Y-14255286D01*
X29968143Y-14241000D01*
X29996714Y-14226714D01*
X30053857Y-14226714D01*
X30082428Y-14241000D01*
X30096714Y-14255286D01*
X30111000Y-14283857D01*
X30111000Y-14298143D01*
X30096714Y-14326714D01*
X30082428Y-14341000D01*
X30053857Y-14355286D01*
X29996714Y-14355286D01*
X29968143Y-14369571D01*
X29953857Y-14383857D01*
X29939571Y-14412429D01*
X29939571Y-14469571D01*
X29953857Y-14498143D01*
X29968143Y-14512429D01*
X29996714Y-14526714D01*
X30053857Y-14526714D01*
X30082428Y-14512429D01*
X30096714Y-14498143D01*
X30111000Y-14469571D01*
X30111000Y-14412429D01*
X30096714Y-14383857D01*
X30082428Y-14369571D01*
X30053857Y-14355286D01*
X30225286Y-14226714D02*
X30225286Y-14283857D01*
X30339571Y-14226714D02*
X30339571Y-14283857D01*
X30782428Y-14641000D02*
X30768143Y-14626714D01*
X30739571Y-14583857D01*
X30725286Y-14555286D01*
X30711000Y-14512429D01*
X30696714Y-14441000D01*
X30696714Y-14383857D01*
X30711000Y-14312429D01*
X30725286Y-14269571D01*
X30739571Y-14241000D01*
X30768143Y-14198143D01*
X30782428Y-14183857D01*
X31025286Y-14326714D02*
X31025286Y-14526714D01*
X30953857Y-14212429D02*
X30882428Y-14426714D01*
X31068143Y-14426714D01*
X31411000Y-14526714D02*
X31411000Y-14226714D01*
X31539571Y-14526714D02*
X31539571Y-14369571D01*
X31525286Y-14341000D01*
X31496714Y-14326714D01*
X31453857Y-14326714D01*
X31425286Y-14341000D01*
X31411000Y-14355286D01*
X31725286Y-14526714D02*
X31696714Y-14512429D01*
X31682428Y-14498143D01*
X31668143Y-14469571D01*
X31668143Y-14383857D01*
X31682428Y-14355286D01*
X31696714Y-14341000D01*
X31725286Y-14326714D01*
X31768143Y-14326714D01*
X31796714Y-14341000D01*
X31811000Y-14355286D01*
X31825286Y-14383857D01*
X31825286Y-14469571D01*
X31811000Y-14498143D01*
X31796714Y-14512429D01*
X31768143Y-14526714D01*
X31725286Y-14526714D01*
X31996714Y-14526714D02*
X31968143Y-14512429D01*
X31953857Y-14483857D01*
X31953857Y-14226714D01*
X32225286Y-14512429D02*
X32196714Y-14526714D01*
X32139571Y-14526714D01*
X32111000Y-14512429D01*
X32096714Y-14483857D01*
X32096714Y-14369571D01*
X32111000Y-14341000D01*
X32139571Y-14326714D01*
X32196714Y-14326714D01*
X32225286Y-14341000D01*
X32239571Y-14369571D01*
X32239571Y-14398143D01*
X32096714Y-14426714D01*
X32353857Y-14512429D02*
X32382428Y-14526714D01*
X32439571Y-14526714D01*
X32468143Y-14512429D01*
X32482428Y-14483857D01*
X32482428Y-14469571D01*
X32468143Y-14441000D01*
X32439571Y-14426714D01*
X32396714Y-14426714D01*
X32368143Y-14412429D01*
X32353857Y-14383857D01*
X32353857Y-14369571D01*
X32368143Y-14341000D01*
X32396714Y-14326714D01*
X32439571Y-14326714D01*
X32468143Y-14341000D01*
X32582428Y-14641000D02*
X32596714Y-14626714D01*
X32625286Y-14583857D01*
X32639571Y-14555286D01*
X32653857Y-14512429D01*
X32668143Y-14441000D01*
X32668143Y-14383857D01*
X32653857Y-14312429D01*
X32639571Y-14269571D01*
X32625286Y-14241000D01*
X32596714Y-14198143D01*
X32582428Y-14183857D01*
X26074033Y-14840034D02*
X26074033Y-14733967D01*
X25967966Y-14733967D01*
X25967966Y-14840034D01*
X26074033Y-14840034D01*
X26539571Y-14922714D02*
X26368143Y-14922714D01*
X26453857Y-14922714D02*
X26453857Y-14622714D01*
X26425286Y-14665571D01*
X26396714Y-14694143D01*
X26368143Y-14708429D01*
X26668143Y-14894143D02*
X26682428Y-14908429D01*
X26668143Y-14922714D01*
X26653857Y-14908429D01*
X26668143Y-14894143D01*
X26668143Y-14922714D01*
X26953857Y-14622714D02*
X26811000Y-14622714D01*
X26796714Y-14765571D01*
X26811000Y-14751286D01*
X26839571Y-14737000D01*
X26911000Y-14737000D01*
X26939571Y-14751286D01*
X26953857Y-14765571D01*
X26968143Y-14794143D01*
X26968143Y-14865571D01*
X26953857Y-14894143D01*
X26939571Y-14908429D01*
X26911000Y-14922714D01*
X26839571Y-14922714D01*
X26811000Y-14908429D01*
X26796714Y-14894143D01*
X27153857Y-14622714D02*
X27182428Y-14622714D01*
X27211000Y-14637000D01*
X27225286Y-14651286D01*
X27239571Y-14679857D01*
X27253857Y-14737000D01*
X27253857Y-14808429D01*
X27239571Y-14865571D01*
X27225286Y-14894143D01*
X27211000Y-14908429D01*
X27182428Y-14922714D01*
X27153857Y-14922714D01*
X27125286Y-14908429D01*
X27111000Y-14894143D01*
X27096714Y-14865571D01*
X27082428Y-14808429D01*
X27082428Y-14737000D01*
X27096714Y-14679857D01*
X27111000Y-14651286D01*
X27125286Y-14637000D01*
X27153857Y-14622714D01*
X27382428Y-14922714D02*
X27382428Y-14722714D01*
X27382428Y-14751286D02*
X27396714Y-14737000D01*
X27425286Y-14722714D01*
X27468143Y-14722714D01*
X27496714Y-14737000D01*
X27511000Y-14765571D01*
X27511000Y-14922714D01*
X27511000Y-14765571D02*
X27525286Y-14737000D01*
X27553857Y-14722714D01*
X27596714Y-14722714D01*
X27625286Y-14737000D01*
X27639571Y-14765571D01*
X27639571Y-14922714D01*
X27782428Y-14922714D02*
X27782428Y-14722714D01*
X27782428Y-14751286D02*
X27796714Y-14737000D01*
X27825286Y-14722714D01*
X27868143Y-14722714D01*
X27896714Y-14737000D01*
X27911000Y-14765571D01*
X27911000Y-14922714D01*
X27911000Y-14765571D02*
X27925286Y-14737000D01*
X27953857Y-14722714D01*
X27996714Y-14722714D01*
X28025286Y-14737000D01*
X28039571Y-14765571D01*
X28039571Y-14922714D01*
X28625286Y-14608429D02*
X28368143Y-14994143D01*
X29011000Y-14622714D02*
X29039571Y-14622714D01*
X29068143Y-14637000D01*
X29082428Y-14651286D01*
X29096714Y-14679857D01*
X29111000Y-14737000D01*
X29111000Y-14808429D01*
X29096714Y-14865571D01*
X29082428Y-14894143D01*
X29068143Y-14908429D01*
X29039571Y-14922714D01*
X29011000Y-14922714D01*
X28982428Y-14908429D01*
X28968143Y-14894143D01*
X28953857Y-14865571D01*
X28939571Y-14808429D01*
X28939571Y-14737000D01*
X28953857Y-14679857D01*
X28968143Y-14651286D01*
X28982428Y-14637000D01*
X29011000Y-14622714D01*
X29239571Y-14894143D02*
X29253857Y-14908429D01*
X29239571Y-14922714D01*
X29225286Y-14908429D01*
X29239571Y-14894143D01*
X29239571Y-14922714D01*
X29439571Y-14622714D02*
X29468143Y-14622714D01*
X29496714Y-14637000D01*
X29511000Y-14651286D01*
X29525286Y-14679857D01*
X29539571Y-14737000D01*
X29539571Y-14808429D01*
X29525286Y-14865571D01*
X29511000Y-14894143D01*
X29496714Y-14908429D01*
X29468143Y-14922714D01*
X29439571Y-14922714D01*
X29411000Y-14908429D01*
X29396714Y-14894143D01*
X29382428Y-14865571D01*
X29368143Y-14808429D01*
X29368143Y-14737000D01*
X29382428Y-14679857D01*
X29396714Y-14651286D01*
X29411000Y-14637000D01*
X29439571Y-14622714D01*
X29811000Y-14622714D02*
X29668143Y-14622714D01*
X29653857Y-14765571D01*
X29668143Y-14751286D01*
X29696714Y-14737000D01*
X29768143Y-14737000D01*
X29796714Y-14751286D01*
X29811000Y-14765571D01*
X29825286Y-14794143D01*
X29825286Y-14865571D01*
X29811000Y-14894143D01*
X29796714Y-14908429D01*
X29768143Y-14922714D01*
X29696714Y-14922714D01*
X29668143Y-14908429D01*
X29653857Y-14894143D01*
X29968143Y-14922714D02*
X30025286Y-14922714D01*
X30053857Y-14908429D01*
X30068143Y-14894143D01*
X30096714Y-14851286D01*
X30111000Y-14794143D01*
X30111000Y-14679857D01*
X30096714Y-14651286D01*
X30082428Y-14637000D01*
X30053857Y-14622714D01*
X29996714Y-14622714D01*
X29968143Y-14637000D01*
X29953857Y-14651286D01*
X29939571Y-14679857D01*
X29939571Y-14751286D01*
X29953857Y-14779857D01*
X29968143Y-14794143D01*
X29996714Y-14808429D01*
X30053857Y-14808429D01*
X30082428Y-14794143D01*
X30096714Y-14779857D01*
X30111000Y-14751286D01*
X30225286Y-14622714D02*
X30225286Y-14679857D01*
X30339571Y-14622714D02*
X30339571Y-14679857D01*
X30782428Y-15037000D02*
X30768143Y-15022714D01*
X30739571Y-14979857D01*
X30725286Y-14951286D01*
X30711000Y-14908429D01*
X30696714Y-14837000D01*
X30696714Y-14779857D01*
X30711000Y-14708429D01*
X30725286Y-14665571D01*
X30739571Y-14637000D01*
X30768143Y-14594143D01*
X30782428Y-14579857D01*
X30882428Y-14651286D02*
X30896714Y-14637000D01*
X30925286Y-14622714D01*
X30996714Y-14622714D01*
X31025286Y-14637000D01*
X31039571Y-14651286D01*
X31053857Y-14679857D01*
X31053857Y-14708429D01*
X31039571Y-14751286D01*
X30868143Y-14922714D01*
X31053857Y-14922714D01*
X31411000Y-14922714D02*
X31411000Y-14622714D01*
X31539571Y-14922714D02*
X31539571Y-14765571D01*
X31525286Y-14737000D01*
X31496714Y-14722714D01*
X31453857Y-14722714D01*
X31425286Y-14737000D01*
X31411000Y-14751286D01*
X31725286Y-14922714D02*
X31696714Y-14908429D01*
X31682428Y-14894143D01*
X31668143Y-14865571D01*
X31668143Y-14779857D01*
X31682428Y-14751286D01*
X31696714Y-14737000D01*
X31725286Y-14722714D01*
X31768143Y-14722714D01*
X31796714Y-14737000D01*
X31811000Y-14751286D01*
X31825286Y-14779857D01*
X31825286Y-14865571D01*
X31811000Y-14894143D01*
X31796714Y-14908429D01*
X31768143Y-14922714D01*
X31725286Y-14922714D01*
X31996714Y-14922714D02*
X31968143Y-14908429D01*
X31953857Y-14879857D01*
X31953857Y-14622714D01*
X32225286Y-14908429D02*
X32196714Y-14922714D01*
X32139571Y-14922714D01*
X32111000Y-14908429D01*
X32096714Y-14879857D01*
X32096714Y-14765571D01*
X32111000Y-14737000D01*
X32139571Y-14722714D01*
X32196714Y-14722714D01*
X32225286Y-14737000D01*
X32239571Y-14765571D01*
X32239571Y-14794143D01*
X32096714Y-14822714D01*
X32353857Y-14908429D02*
X32382428Y-14922714D01*
X32439571Y-14922714D01*
X32468143Y-14908429D01*
X32482428Y-14879857D01*
X32482428Y-14865571D01*
X32468143Y-14837000D01*
X32439571Y-14822714D01*
X32396714Y-14822714D01*
X32368143Y-14808429D01*
X32353857Y-14779857D01*
X32353857Y-14765571D01*
X32368143Y-14737000D01*
X32396714Y-14722714D01*
X32439571Y-14722714D01*
X32468143Y-14737000D01*
X32582428Y-15037000D02*
X32596714Y-15022714D01*
X32625286Y-14979857D01*
X32639571Y-14951286D01*
X32653857Y-14908429D01*
X32668143Y-14837000D01*
X32668143Y-14779857D01*
X32653857Y-14708429D01*
X32639571Y-14665571D01*
X32625286Y-14637000D01*
X32596714Y-14594143D01*
X32582428Y-14579857D01*
M02*
