%TF.GenerationSoftware,KiCad,Pcbnew,(5.1.9)-1*%
%TF.CreationDate,2021-09-16T08:42:28+02:00*%
%TF.ProjectId,poly_kb,706f6c79-5f6b-4622-9e6b-696361645f70,rev?*%
%TF.SameCoordinates,Original*%
%TF.FileFunction,Copper,L1,Top*%
%TF.FilePolarity,Positive*%
%FSLAX46Y46*%
G04 Gerber Fmt 4.6, Leading zero omitted, Abs format (unit mm)*
G04 Created by KiCad (PCBNEW (5.1.9)-1) date 2021-09-16 08:42:28*
%MOMM*%
%LPD*%
G01*
G04 APERTURE LIST*
%TA.AperFunction,ComponentPad*%
%ADD10C,2.200000*%
%TD*%
%TA.AperFunction,SMDPad,CuDef*%
%ADD11R,2.000000X1.500000*%
%TD*%
%TA.AperFunction,ComponentPad*%
%ADD12R,1.500000X1.500000*%
%TD*%
%TA.AperFunction,SMDPad,CuDef*%
%ADD13R,0.950000X0.800000*%
%TD*%
%TA.AperFunction,ViaPad*%
%ADD14C,0.609600*%
%TD*%
%TA.AperFunction,ViaPad*%
%ADD15C,0.800000*%
%TD*%
%TA.AperFunction,Conductor*%
%ADD16C,0.500000*%
%TD*%
%TA.AperFunction,Conductor*%
%ADD17C,0.300000*%
%TD*%
%TA.AperFunction,Conductor*%
%ADD18C,0.250000*%
%TD*%
G04 APERTURE END LIST*
D10*
%TO.P,SW1,1*%
%TO.N,/Keyboard/sheet605ED2EB/KeyRow*%
X273050000Y-113030000D03*
%TO.P,SW1,2*%
%TO.N,Net-(D1-Pad2)*%
X266700000Y-115570000D03*
%TD*%
D11*
%TO.P,J4,9*%
%TO.N,/Keyboard/sheet605ED2EB/KeyRow*%
X279019000Y-124840000D03*
%TO.P,J4,8*%
%TO.N,/Keyboard/sheet605ED2EB/SCLK*%
X279019000Y-122840000D03*
%TO.P,J4,7*%
%TO.N,/Keyboard/sheet605ED2EB/D-C*%
X279019000Y-120840000D03*
%TO.P,J4,1*%
%TO.N,/Keyboard/sheet605ED2EB/5V*%
X279019000Y-108840000D03*
%TO.P,J4,6*%
%TO.N,/Keyboard/sheet605ED2EB/SDIN*%
X279019000Y-118840000D03*
%TO.P,J4,2*%
%TO.N,/Keyboard/sheet605ED2EB/3V3*%
X279019000Y-110840000D03*
%TO.P,J4,3*%
%TO.N,/Keyboard/sheet605ED2EB/4V2*%
X279019000Y-112840000D03*
%TO.P,J4,4*%
%TO.N,/Keyboard/sheet605ED2EB/LED_DIN*%
X279019000Y-114840000D03*
%TO.P,J4,5*%
%TO.N,/Keyboard/sheet605ED2EB/RESET*%
X279019000Y-116840000D03*
%TD*%
%TO.P,J3,9*%
%TO.N,/Keyboard/sheet605ED2EB/KeyRow*%
X262001000Y-124840000D03*
%TO.P,J3,8*%
%TO.N,/Keyboard/sheet605ED2EB/SCLK*%
X262001000Y-122840000D03*
%TO.P,J3,7*%
%TO.N,/Keyboard/sheet605ED2EB/D-C*%
X262001000Y-120840000D03*
%TO.P,J3,1*%
%TO.N,/Keyboard/sheet605ED2EB/5V*%
X262001000Y-108840000D03*
%TO.P,J3,6*%
%TO.N,/Keyboard/sheet605ED2EB/SDIN*%
X262001000Y-118840000D03*
%TO.P,J3,2*%
%TO.N,/Keyboard/sheet605ED2EB/3V3*%
X262001000Y-110840000D03*
%TO.P,J3,3*%
%TO.N,/Keyboard/sheet605ED2EB/4V2*%
X262001000Y-112840000D03*
%TO.P,J3,4*%
%TO.N,/Keyboard/sheet605ED2EB/LED_DOUT*%
X262001000Y-114840000D03*
%TO.P,J3,5*%
%TO.N,/Keyboard/sheet605ED2EB/RESET*%
X262001000Y-116840000D03*
%TD*%
D12*
%TO.P,J9,1*%
%TO.N,/Keyboard/sheet605ED2EB/KeyCol*%
X276479000Y-125603000D03*
%TD*%
%TO.P,J8,1*%
%TO.N,/Keyboard/sheet605ED2EB/KeyCol*%
X264541000Y-108077000D03*
%TD*%
%TO.P,J7,1*%
%TO.N,/Keyboard/sheet605ED2EB/KeyCol*%
X264541000Y-125603000D03*
%TD*%
%TO.P,J2,1*%
%TO.N,/Keyboard/sheet605ED2EB/KeyCol*%
X276479000Y-108077000D03*
%TD*%
D13*
%TO.P,LED1,4*%
%TO.N,/Keyboard/sheet605ED2EB/LED_DIN*%
X271875000Y-108330000D03*
%TO.P,LED1,1*%
%TO.N,/Keyboard/sheet605ED2EB/5V*%
X269145000Y-108330000D03*
%TO.P,LED1,3*%
%TO.N,/Keyboard/sheet605ED2EB/GND*%
X271875000Y-110110000D03*
%TO.P,LED1,2*%
%TO.N,/Keyboard/sheet605ED2EB/LED_DOUT*%
X269145000Y-110110000D03*
%TD*%
D14*
%TO.N,/Keyboard/sheet605ED2EB/GND*%
X267208000Y-112090810D03*
D15*
X277208020Y-110000010D03*
D14*
X271554492Y-113420682D03*
D15*
X265286206Y-109987025D03*
X264142626Y-112244355D03*
D14*
%TO.N,/Keyboard/sheet605ED2EB/3V3*%
X270256000Y-110236000D03*
X274624190Y-111045834D03*
X264399684Y-110348684D03*
%TO.N,/Keyboard/sheet605ED2EB/4V2*%
X266803034Y-112799966D03*
X269937085Y-112912648D03*
%TO.N,/Keyboard/sheet605ED2EB/CS*%
X263435802Y-116332000D03*
X264823303Y-116344470D03*
X264052815Y-120015000D03*
X265192031Y-120254815D03*
%TO.N,/Keyboard/sheet605ED2EB/RESET*%
X270763323Y-115646712D03*
X268478000Y-115570000D03*
X266954000Y-117094000D03*
%TO.N,/Keyboard/sheet605ED2EB/D-C*%
X277238634Y-120904000D03*
%TO.N,/Keyboard/sheet605ED2EB/SCLK*%
X276904192Y-121658555D03*
%TO.N,/Keyboard/sheet605ED2EB/SDIN*%
X273840287Y-119210030D03*
%TO.N,/Keyboard/sheet605ED2EB/LED_DOUT*%
X267998553Y-110072505D03*
X265049040Y-114300000D03*
%TO.N,/Keyboard/sheet605ED2EB/LED_DIN*%
X273609379Y-108814826D03*
X276751854Y-114613543D03*
%TO.N,Net-(D1-Pad2)*%
X267843000Y-118618000D03*
%TO.N,/Keyboard/sheet605ED2EB/KeyRow*%
X263441239Y-124001874D03*
%TO.N,/Keyboard/sheet605ED2EB/KeyCol*%
X277114000Y-123952000D03*
X273050000Y-120396000D03*
X275079634Y-120736168D03*
X273558004Y-108076996D03*
%TO.N,CS7*%
X263435840Y-122428000D03*
X264951061Y-123463185D03*
%TO.N,CS6*%
X265049000Y-121920000D03*
X263424509Y-121688475D03*
%TO.N,CS5*%
X277541646Y-119722825D03*
X263525000Y-119380000D03*
%TO.N,CS4*%
X263600190Y-117602000D03*
X277399743Y-116460940D03*
%TO.N,CS3*%
X263435803Y-115086150D03*
X276881702Y-115341667D03*
%TO.N,CS2*%
X277181865Y-113538000D03*
X263428256Y-113670719D03*
%TO.N,CS1*%
X277181865Y-111624962D03*
X263651998Y-111378998D03*
%TD*%
D16*
%TO.N,/Keyboard/sheet605ED2EB/GND*%
X267208000Y-112090810D02*
X270224620Y-112090810D01*
X270224620Y-112090810D02*
X271554492Y-113420682D01*
X271143506Y-110110000D02*
X270253506Y-109220000D01*
X270253506Y-109220000D02*
X267208000Y-109220000D01*
X271875000Y-110110000D02*
X271143506Y-110110000D01*
X267208000Y-109220000D02*
X266440975Y-109987025D01*
X266440975Y-109987025D02*
X265286206Y-109987025D01*
X264296171Y-112090810D02*
X264142626Y-112244355D01*
X267208000Y-112090810D02*
X264296171Y-112090810D01*
X271875000Y-110110000D02*
X271894638Y-110129638D01*
X277078392Y-110129638D02*
X277208020Y-110000010D01*
X271894638Y-110129638D02*
X277078392Y-110129638D01*
D17*
%TO.N,/Keyboard/sheet605ED2EB/3V3*%
X270256000Y-110744000D02*
X270402001Y-110890001D01*
X270256000Y-110236000D02*
X270256000Y-110744000D01*
D16*
X274830024Y-110840000D02*
X274624190Y-111045834D01*
X274468357Y-110890001D02*
X274624190Y-111045834D01*
X278765000Y-110840000D02*
X274830024Y-110840000D01*
X270402001Y-110890001D02*
X274468357Y-110890001D01*
X264303509Y-110890001D02*
X264320519Y-110907011D01*
X270384991Y-110907011D02*
X270402001Y-110890001D01*
X264320519Y-110907011D02*
X270384991Y-110907011D01*
D17*
X264303509Y-110444859D02*
X264399684Y-110348684D01*
X264303509Y-110890001D02*
X264303509Y-110444859D01*
D16*
X264107706Y-110694198D02*
X264303509Y-110890001D01*
X262255000Y-110840000D02*
X262400802Y-110694198D01*
X262400802Y-110694198D02*
X264107706Y-110694198D01*
%TO.N,/Keyboard/sheet605ED2EB/4V2*%
X269824403Y-112799966D02*
X269937085Y-112912648D01*
X272114442Y-114510001D02*
X271709925Y-114105484D01*
X271129921Y-114105484D02*
X269937085Y-112912648D01*
X271709925Y-114105484D02*
X271129921Y-114105484D01*
X278765000Y-112840000D02*
X275430402Y-112840000D01*
X273760401Y-114510001D02*
X272114442Y-114510001D01*
X275430402Y-112840000D02*
X273760401Y-114510001D01*
X266803034Y-112799966D02*
X269824403Y-112799966D01*
X263853705Y-112980199D02*
X263978271Y-113104765D01*
X262255000Y-112840000D02*
X262395199Y-112980199D01*
X262395199Y-112980199D02*
X263853705Y-112980199D01*
X263978271Y-113104765D02*
X266498235Y-113104765D01*
X266498235Y-113104765D02*
X266803034Y-112799966D01*
D17*
%TO.N,/Keyboard/sheet605ED2EB/CS*%
X263435802Y-116332000D02*
X264810833Y-116332000D01*
X264810833Y-116332000D02*
X264823303Y-116344470D01*
X264292630Y-120254815D02*
X264052815Y-120015000D01*
X265192031Y-120254815D02*
X264292630Y-120254815D01*
%TO.N,/Keyboard/sheet605ED2EB/RESET*%
X268577561Y-115646712D02*
X270763323Y-115646712D01*
X262255000Y-116840000D02*
X262365001Y-116950001D01*
X268554712Y-115646712D02*
X268478000Y-115570000D01*
X268577561Y-115646712D02*
X268554712Y-115646712D01*
X262140999Y-116979999D02*
X262001000Y-116840000D01*
X266839999Y-116979999D02*
X262140999Y-116979999D01*
X266954000Y-117094000D02*
X266839999Y-116979999D01*
X271271764Y-115646712D02*
X270763323Y-115646712D01*
X278765000Y-116840000D02*
X277799199Y-115874199D01*
X277214662Y-115874199D02*
X277162406Y-115926455D01*
X277799199Y-115874199D02*
X277214662Y-115874199D01*
X271851563Y-116226511D02*
X271271764Y-115646712D01*
X276765873Y-116226511D02*
X271851563Y-116226511D01*
X277065929Y-115926455D02*
X276765873Y-116226511D01*
X277162406Y-115926455D02*
X277065929Y-115926455D01*
%TO.N,/Keyboard/sheet605ED2EB/D-C*%
X278701000Y-120904000D02*
X277238634Y-120904000D01*
X278765000Y-120840000D02*
X278701000Y-120904000D01*
X267895130Y-121283812D02*
X268542695Y-121931377D01*
X275780205Y-121931377D02*
X276807582Y-120904000D01*
X276807582Y-120904000D02*
X277238634Y-120904000D01*
X268542695Y-121931377D02*
X275780205Y-121931377D01*
X263877310Y-121283812D02*
X267895130Y-121283812D01*
X263433498Y-120840000D02*
X263877310Y-121283812D01*
X262255000Y-120840000D02*
X263433498Y-120840000D01*
%TO.N,/Keyboard/sheet605ED2EB/SCLK*%
X277583555Y-121658555D02*
X277335244Y-121658555D01*
X277335244Y-121658555D02*
X276904192Y-121658555D01*
X278765000Y-122840000D02*
X277583555Y-121658555D01*
X276751410Y-122840000D02*
X279019000Y-122840000D01*
X275147854Y-124403990D02*
X275349881Y-124201964D01*
X275590729Y-124000681D02*
X276751410Y-122840000D01*
X265535740Y-124090696D02*
X265849034Y-124403990D01*
X275352401Y-124202175D02*
X275590729Y-124000681D01*
X265485224Y-124047987D02*
X265535740Y-124090696D01*
X265849034Y-124403990D02*
X275147854Y-124403990D01*
X264352879Y-124047987D02*
X265485224Y-124047987D01*
X275349881Y-124201964D02*
X275352401Y-124202175D01*
X263708279Y-123403387D02*
X264352879Y-124047987D01*
X262818387Y-123403387D02*
X263708279Y-123403387D01*
X262255000Y-122840000D02*
X262818387Y-123403387D01*
%TO.N,/Keyboard/sheet605ED2EB/SDIN*%
X278765000Y-118840000D02*
X277480107Y-118840000D01*
X277480107Y-118840000D02*
X276805278Y-119514829D01*
X274145086Y-119514829D02*
X273840287Y-119210030D01*
X276805278Y-119514829D02*
X274145086Y-119514829D01*
X271627483Y-120953011D02*
X273370464Y-119210030D01*
X262299802Y-118795198D02*
X263834669Y-118795198D01*
X267928774Y-119670012D02*
X269211773Y-120953011D01*
X263834669Y-118795198D02*
X264709483Y-119670012D01*
X262255000Y-118840000D02*
X262299802Y-118795198D01*
X264709483Y-119670012D02*
X267928774Y-119670012D01*
X269211773Y-120953011D02*
X271627483Y-120953011D01*
X273370464Y-119210030D02*
X273840287Y-119210030D01*
%TO.N,/Keyboard/sheet605ED2EB/LED_DOUT*%
X269145000Y-110110000D02*
X268036048Y-110110000D01*
X268036048Y-110110000D02*
X267998553Y-110072505D01*
X262718199Y-114376801D02*
X264972239Y-114376801D01*
X262255000Y-114840000D02*
X262718199Y-114376801D01*
X264972239Y-114376801D02*
X265049040Y-114300000D01*
%TO.N,/Keyboard/sheet605ED2EB/LED_DIN*%
X272206802Y-108661802D02*
X273456355Y-108661802D01*
X271875000Y-108330000D02*
X272206802Y-108661802D01*
X273456355Y-108661802D02*
X273609379Y-108814826D01*
X278538543Y-114613543D02*
X276751854Y-114613543D01*
X278765000Y-114840000D02*
X278538543Y-114613543D01*
D16*
%TO.N,/Keyboard/sheet605ED2EB/5V*%
X266955000Y-108330000D02*
X269145000Y-108330000D01*
X262255000Y-108840000D02*
X262622001Y-109207001D01*
X266077999Y-109207001D02*
X266955000Y-108330000D01*
X262622001Y-109207001D02*
X266077999Y-109207001D01*
X278385000Y-109220000D02*
X278765000Y-108840000D01*
X271281601Y-109295603D02*
X273076650Y-109295603D01*
X273076650Y-109295603D02*
X273280674Y-109499627D01*
X269145000Y-108330000D02*
X270315998Y-108330000D01*
X270315998Y-108330000D02*
X271281601Y-109295603D01*
X274217711Y-109220000D02*
X278385000Y-109220000D01*
X273938084Y-109499627D02*
X274217711Y-109220000D01*
X273280674Y-109499627D02*
X273938084Y-109499627D01*
D18*
%TO.N,Net-(D1-Pad2)*%
X267843000Y-116713000D02*
X267843000Y-118618000D01*
X266700000Y-115570000D02*
X267843000Y-116713000D01*
D17*
%TO.N,/Keyboard/sheet605ED2EB/KeyRow*%
X278765000Y-124840000D02*
X278512000Y-124587000D01*
X262603113Y-124840000D02*
X263441239Y-124001874D01*
X262255000Y-124840000D02*
X262603113Y-124840000D01*
X265314843Y-124477998D02*
X263917363Y-124477998D01*
X275684552Y-124533885D02*
X275626087Y-124533885D01*
X266234856Y-125398011D02*
X265314843Y-124477998D01*
X275626087Y-124533885D02*
X274761958Y-125398011D01*
X276851239Y-123367198D02*
X275684552Y-124533885D01*
X278867508Y-124840000D02*
X277394706Y-123367198D01*
X274761958Y-125398011D02*
X266234856Y-125398011D01*
X277394706Y-123367198D02*
X276851239Y-123367198D01*
X279019000Y-124840000D02*
X278867508Y-124840000D01*
X263917363Y-124477998D02*
X263441239Y-124001874D01*
%TO.N,/Keyboard/sheet605ED2EB/KeyCol*%
X276479000Y-124587000D02*
X277114000Y-123952000D01*
X276479000Y-125603000D02*
X276479000Y-124587000D01*
X273390168Y-120736168D02*
X273050000Y-120396000D01*
X275079634Y-120736168D02*
X273390168Y-120736168D01*
X273558008Y-108077000D02*
X273558004Y-108076996D01*
X276479000Y-108077000D02*
X273558008Y-108077000D01*
%TO.N,CS7*%
X263435840Y-122428000D02*
X264471025Y-123463185D01*
X264471025Y-123463185D02*
X264951061Y-123463185D01*
%TO.N,CS6*%
X263579232Y-121843198D02*
X263424509Y-121688475D01*
X264972198Y-121843198D02*
X263579232Y-121843198D01*
X265049000Y-121920000D02*
X264972198Y-121843198D01*
%TO.N,CS5*%
X264055426Y-120853801D02*
X263468005Y-120266380D01*
X268073246Y-120853801D02*
X264055426Y-120853801D01*
X268720811Y-121501366D02*
X268073246Y-120853801D01*
X263468005Y-119436995D02*
X263525000Y-119380000D01*
X277363183Y-119722825D02*
X275584642Y-121501366D01*
X263468005Y-120266380D02*
X263468005Y-119436995D01*
X275584642Y-121501366D02*
X268720811Y-121501366D01*
X277541646Y-119722825D02*
X277363183Y-119722825D01*
%TO.N,CS4*%
X275206628Y-116765739D02*
X277094944Y-116765739D01*
X264887599Y-119240001D02*
X268106890Y-119240001D01*
X268106890Y-119240001D02*
X269389889Y-120523000D01*
X271449367Y-120523000D02*
X275206628Y-116765739D01*
X277094944Y-116765739D02*
X277399743Y-116460940D01*
X269389889Y-120523000D02*
X271449367Y-120523000D01*
X263600190Y-117952592D02*
X264887599Y-119240001D01*
X263600190Y-117602000D02*
X263600190Y-117952592D01*
%TO.N,CS3*%
X265141448Y-115086150D02*
X266037599Y-114189999D01*
X263435803Y-115086150D02*
X265141448Y-115086150D01*
X271312272Y-115065505D02*
X271893233Y-115646466D01*
X266037599Y-114189999D02*
X269806816Y-114189999D01*
X270672640Y-115055822D02*
X270818451Y-115055823D01*
X269806816Y-114189999D02*
X270672640Y-115055822D01*
X270828132Y-115065504D02*
X271312272Y-115065505D01*
X271893233Y-115646466D02*
X276576903Y-115646466D01*
X270818451Y-115055823D02*
X270828132Y-115065504D01*
X276576903Y-115646466D02*
X276881702Y-115341667D01*
%TO.N,CS2*%
X271490388Y-114635495D02*
X271006248Y-114635494D01*
X270850756Y-114625812D02*
X269895663Y-113670719D01*
X270996568Y-114625814D02*
X270850756Y-114625812D01*
X271006248Y-114635494D02*
X270996568Y-114625814D01*
X269895663Y-113670719D02*
X263428256Y-113670719D01*
X271894904Y-115040011D02*
X271490388Y-114635495D01*
X276750813Y-113538000D02*
X275248801Y-115040012D01*
X275248801Y-115040012D02*
X271894904Y-115040011D01*
X277181865Y-113538000D02*
X276750813Y-113538000D01*
%TO.N,CS1*%
X276877066Y-111929761D02*
X274642611Y-111929761D01*
X263762371Y-111489371D02*
X263651998Y-111378998D01*
X274202221Y-111489371D02*
X263762371Y-111489371D01*
X274642611Y-111929761D02*
X274202221Y-111489371D01*
X277181865Y-111624962D02*
X276877066Y-111929761D01*
%TD*%
M02*
