M48
; DRILL file {KiCad (5.1.9)-1} date 09/16/21 08:42:30
; FORMAT={-:-/ absolute / metric / decimal}
; #@! TF.CreationDate,2021-09-16T08:42:30+02:00
; #@! TF.GenerationSoftware,Kicad,Pcbnew,(5.1.9)-1
; #@! TF.FileFunction,Plated,1,2,PTH
FMAT,2
METRIC
T1C0.356
T2C0.400
T3C0.700
T4C1.500
%
G90
G05
T1
X263.425Y-121.688
X263.428Y-113.671
X263.436Y-116.332
X263.436Y-115.086
X263.436Y-122.428
X263.441Y-124.002
X263.525Y-119.38
X263.6Y-117.602
X263.652Y-111.379
X264.053Y-120.015
X264.4Y-110.349
X264.823Y-116.344
X264.951Y-123.463
X265.049Y-121.92
X265.049Y-114.3
X265.192Y-120.255
X266.803Y-112.8
X266.954Y-117.094
X267.208Y-112.091
X267.843Y-118.618
X267.999Y-110.073
X268.478Y-115.57
X269.937Y-112.913
X270.256Y-110.236
X270.763Y-115.647
X271.554Y-113.421
X273.05Y-120.396
X273.558Y-108.077
X273.609Y-108.815
X273.84Y-119.21
X274.624Y-111.046
X275.08Y-120.736
X276.752Y-114.614
X276.882Y-115.342
X276.904Y-121.659
X277.114Y-123.952
X277.182Y-111.625
X277.182Y-113.538
X277.239Y-120.904
X277.4Y-116.461
X277.542Y-119.723
T2
X264.143Y-112.244
X265.286Y-109.987
X277.208Y-110.0
T3
X264.541Y-108.077
X264.541Y-125.603
X276.479Y-108.077
X276.479Y-125.603
T4
X266.7Y-115.57
X273.05Y-113.03
T0
M30
