%TF.GenerationSoftware,KiCad,Pcbnew,(5.1.9)-1*%
%TF.CreationDate,2021-09-16T08:42:28+02:00*%
%TF.ProjectId,poly_kb,706f6c79-5f6b-4622-9e6b-696361645f70,rev?*%
%TF.SameCoordinates,Original*%
%TF.FileFunction,Copper,L2,Bot*%
%TF.FilePolarity,Positive*%
%FSLAX46Y46*%
G04 Gerber Fmt 4.6, Leading zero omitted, Abs format (unit mm)*
G04 Created by KiCad (PCBNEW (5.1.9)-1) date 2021-09-16 08:42:28*
%MOMM*%
%LPD*%
G01*
G04 APERTURE LIST*
%TA.AperFunction,SMDPad,CuDef*%
%ADD10R,0.600000X0.450000*%
%TD*%
%TA.AperFunction,SMDPad,CuDef*%
%ADD11R,0.300000X1.150000*%
%TD*%
%TA.AperFunction,SMDPad,CuDef*%
%ADD12R,0.300000X0.650000*%
%TD*%
%TA.AperFunction,ComponentPad*%
%ADD13C,2.200000*%
%TD*%
%TA.AperFunction,SMDPad,CuDef*%
%ADD14C,0.127000*%
%TD*%
%TA.AperFunction,SMDPad,CuDef*%
%ADD15R,2.000000X1.500000*%
%TD*%
%TA.AperFunction,ComponentPad*%
%ADD16R,1.500000X1.500000*%
%TD*%
%TA.AperFunction,ViaPad*%
%ADD17C,0.609600*%
%TD*%
%TA.AperFunction,ViaPad*%
%ADD18C,0.800000*%
%TD*%
%TA.AperFunction,Conductor*%
%ADD19C,0.300000*%
%TD*%
%TA.AperFunction,Conductor*%
%ADD20C,0.500000*%
%TD*%
%TA.AperFunction,Conductor*%
%ADD21C,0.250000*%
%TD*%
%TA.AperFunction,Conductor*%
%ADD22C,0.254000*%
%TD*%
G04 APERTURE END LIST*
D10*
%TO.P,D1,2*%
%TO.N,Net-(D1-Pad2)*%
X266158000Y-120142000D03*
%TO.P,D1,1*%
%TO.N,/Keyboard/sheet605ED2EB/KeyCol*%
X268258000Y-120142000D03*
%TD*%
D11*
%TO.P,J1,0*%
%TO.N,N/C*%
X274895000Y-108315000D03*
X266125000Y-108315000D03*
D12*
%TO.P,J1,16*%
%TO.N,/Keyboard/sheet605ED2EB/3V3*%
X274260000Y-111125000D03*
%TO.P,J1,15*%
%TO.N,Net-(C4-Pad1)*%
X273760000Y-111125000D03*
%TO.P,J1,14*%
%TO.N,/Keyboard/sheet605ED2EB/SDIN*%
X273260000Y-111125000D03*
%TO.P,J1,13*%
%TO.N,/Keyboard/sheet605ED2EB/SCLK*%
X272760000Y-111125000D03*
%TO.P,J1,12*%
%TO.N,/Keyboard/sheet605ED2EB/D-C*%
X272260000Y-111125000D03*
%TO.P,J1,11*%
%TO.N,/Keyboard/sheet605ED2EB/RESET*%
X271760000Y-111125000D03*
%TO.P,J1,10*%
%TO.N,/Keyboard/sheet605ED2EB/CS*%
X271260000Y-111125000D03*
%TO.P,J1,9*%
%TO.N,/Keyboard/sheet605ED2EB/3V3*%
X270760000Y-111125000D03*
%TO.P,J1,8*%
%TO.N,/Keyboard/sheet605ED2EB/4V2*%
X270260000Y-111125000D03*
%TO.P,J1,7*%
%TO.N,Net-(C6-Pad2)*%
X269760000Y-111125000D03*
%TO.P,J1,6*%
%TO.N,Net-(C6-Pad1)*%
X269260000Y-111125000D03*
%TO.P,J1,5*%
%TO.N,Net-(C5-Pad2)*%
X268760000Y-111125000D03*
%TO.P,J1,4*%
%TO.N,Net-(C5-Pad1)*%
X268260000Y-111125000D03*
%TO.P,J1,3*%
%TO.N,/Keyboard/sheet605ED2EB/GND*%
X267760000Y-111125000D03*
%TO.P,J1,2*%
%TO.N,N/C*%
X267260000Y-111125000D03*
%TO.P,J1,1*%
%TO.N,/Keyboard/sheet605ED2EB/GND*%
X266760000Y-111125000D03*
%TD*%
D13*
%TO.P,SW1,1*%
%TO.N,/Keyboard/sheet605ED2EB/KeyRow*%
X273050000Y-113030000D03*
%TO.P,SW1,2*%
%TO.N,Net-(D1-Pad2)*%
X266700000Y-115570000D03*
%TD*%
%TA.AperFunction,SMDPad,CuDef*%
D14*
%TO.P,J5,10*%
%TO.N,/Keyboard/sheet605ED2EB/CS*%
G36*
X262101000Y-124090000D02*
G01*
X262101000Y-123590000D01*
X263001000Y-122690000D01*
X263001000Y-124990000D01*
X262101000Y-124090000D01*
G37*
%TD.AperFunction*%
%TA.AperFunction,SMDPad,CuDef*%
G36*
X262101000Y-120090000D02*
G01*
X262101000Y-119590000D01*
X263001000Y-118690000D01*
X263001000Y-120990000D01*
X262101000Y-120090000D01*
G37*
%TD.AperFunction*%
%TA.AperFunction,SMDPad,CuDef*%
G36*
X262101000Y-116090000D02*
G01*
X262101000Y-115590000D01*
X263001000Y-114690000D01*
X263001000Y-116990000D01*
X262101000Y-116090000D01*
G37*
%TD.AperFunction*%
%TA.AperFunction,SMDPad,CuDef*%
G36*
X262101000Y-112090000D02*
G01*
X262101000Y-111590000D01*
X263001000Y-110690000D01*
X263001000Y-112990000D01*
X262101000Y-112090000D01*
G37*
%TD.AperFunction*%
%TA.AperFunction,SMDPad,CuDef*%
%TO.P,J5,9*%
%TO.N,CS8*%
G36*
X261801000Y-124090000D02*
G01*
X263001000Y-125290000D01*
X263001000Y-125590000D01*
X261001000Y-125590000D01*
X261001000Y-124090000D01*
X261801000Y-124090000D01*
G37*
%TD.AperFunction*%
%TA.AperFunction,SMDPad,CuDef*%
%TO.P,J5,8*%
%TO.N,CS7*%
G36*
X263001000Y-122090000D02*
G01*
X263001000Y-122390000D01*
X261801000Y-123590000D01*
X261001000Y-123590000D01*
X261001000Y-122090000D01*
X263001000Y-122090000D01*
G37*
%TD.AperFunction*%
%TA.AperFunction,SMDPad,CuDef*%
%TO.P,J5,7*%
%TO.N,CS6*%
G36*
X261801000Y-120090000D02*
G01*
X263001000Y-121290000D01*
X263001000Y-121590000D01*
X261001000Y-121590000D01*
X261001000Y-120090000D01*
X261801000Y-120090000D01*
G37*
%TD.AperFunction*%
%TA.AperFunction,SMDPad,CuDef*%
%TO.P,J5,6*%
%TO.N,CS5*%
G36*
X263001000Y-118090000D02*
G01*
X263001000Y-118390000D01*
X261801000Y-119590000D01*
X261001000Y-119590000D01*
X261001000Y-118090000D01*
X263001000Y-118090000D01*
G37*
%TD.AperFunction*%
%TA.AperFunction,SMDPad,CuDef*%
%TO.P,J5,5*%
%TO.N,CS4*%
G36*
X261801000Y-116090000D02*
G01*
X263001000Y-117290000D01*
X263001000Y-117590000D01*
X261001000Y-117590000D01*
X261001000Y-116090000D01*
X261801000Y-116090000D01*
G37*
%TD.AperFunction*%
%TA.AperFunction,SMDPad,CuDef*%
%TO.P,J5,4*%
%TO.N,CS3*%
G36*
X263001000Y-114090000D02*
G01*
X263001000Y-114390000D01*
X261801000Y-115590000D01*
X261001000Y-115590000D01*
X261001000Y-114090000D01*
X263001000Y-114090000D01*
G37*
%TD.AperFunction*%
%TA.AperFunction,SMDPad,CuDef*%
%TO.P,J5,3*%
%TO.N,CS2*%
G36*
X261801000Y-112090000D02*
G01*
X263001000Y-113290000D01*
X263001000Y-113590000D01*
X261001000Y-113590000D01*
X261001000Y-112090000D01*
X261801000Y-112090000D01*
G37*
%TD.AperFunction*%
%TA.AperFunction,SMDPad,CuDef*%
%TO.P,J5,2*%
%TO.N,CS1*%
G36*
X263001000Y-110090000D02*
G01*
X263001000Y-110390000D01*
X261801000Y-111590000D01*
X261001000Y-111590000D01*
X261001000Y-110090000D01*
X263001000Y-110090000D01*
G37*
%TD.AperFunction*%
D15*
%TO.P,J5,1*%
%TO.N,/Keyboard/sheet605ED2EB/GND*%
X262001000Y-108840000D03*
%TD*%
%TO.P,J6,9*%
%TO.N,CS8*%
X279019000Y-124840000D03*
%TO.P,J6,8*%
%TO.N,CS7*%
X279019000Y-122840000D03*
%TO.P,J6,7*%
%TO.N,CS6*%
X279019000Y-120840000D03*
%TO.P,J6,1*%
%TO.N,/Keyboard/sheet605ED2EB/GND*%
X279019000Y-108840000D03*
%TO.P,J6,6*%
%TO.N,CS5*%
X279019000Y-118840000D03*
%TO.P,J6,2*%
%TO.N,CS1*%
X279019000Y-110840000D03*
%TO.P,J6,3*%
%TO.N,CS2*%
X279019000Y-112840000D03*
%TO.P,J6,4*%
%TO.N,CS3*%
X279019000Y-114840000D03*
%TO.P,J6,5*%
%TO.N,CS4*%
X279019000Y-116840000D03*
%TD*%
D16*
%TO.P,J9,1*%
%TO.N,/Keyboard/sheet605ED2EB/KeyCol*%
X276479000Y-125603000D03*
%TD*%
%TO.P,J8,1*%
%TO.N,/Keyboard/sheet605ED2EB/KeyCol*%
X264541000Y-108077000D03*
%TD*%
%TO.P,J7,1*%
%TO.N,/Keyboard/sheet605ED2EB/KeyCol*%
X264541000Y-125603000D03*
%TD*%
%TO.P,J2,1*%
%TO.N,/Keyboard/sheet605ED2EB/KeyCol*%
X276479000Y-108077000D03*
%TD*%
%TO.P,C4,2*%
%TO.N,/Keyboard/sheet605ED2EB/GND*%
%TA.AperFunction,SMDPad,CuDef*%
G36*
G01*
X272979000Y-114558000D02*
X272979000Y-115058000D01*
G75*
G02*
X272754000Y-115283000I-225000J0D01*
G01*
X272304000Y-115283000D01*
G75*
G02*
X272079000Y-115058000I0J225000D01*
G01*
X272079000Y-114558000D01*
G75*
G02*
X272304000Y-114333000I225000J0D01*
G01*
X272754000Y-114333000D01*
G75*
G02*
X272979000Y-114558000I0J-225000D01*
G01*
G37*
%TD.AperFunction*%
%TO.P,C4,1*%
%TO.N,Net-(C4-Pad1)*%
%TA.AperFunction,SMDPad,CuDef*%
G36*
G01*
X274529000Y-114558000D02*
X274529000Y-115058000D01*
G75*
G02*
X274304000Y-115283000I-225000J0D01*
G01*
X273854000Y-115283000D01*
G75*
G02*
X273629000Y-115058000I0J225000D01*
G01*
X273629000Y-114558000D01*
G75*
G02*
X273854000Y-114333000I225000J0D01*
G01*
X274304000Y-114333000D01*
G75*
G02*
X274529000Y-114558000I0J-225000D01*
G01*
G37*
%TD.AperFunction*%
%TD*%
%TO.P,C6,2*%
%TO.N,Net-(C6-Pad2)*%
%TA.AperFunction,SMDPad,CuDef*%
G36*
G01*
X269440000Y-114724000D02*
X269440000Y-114384000D01*
G75*
G02*
X269580000Y-114244000I140000J0D01*
G01*
X269860000Y-114244000D01*
G75*
G02*
X270000000Y-114384000I0J-140000D01*
G01*
X270000000Y-114724000D01*
G75*
G02*
X269860000Y-114864000I-140000J0D01*
G01*
X269580000Y-114864000D01*
G75*
G02*
X269440000Y-114724000I0J140000D01*
G01*
G37*
%TD.AperFunction*%
%TO.P,C6,1*%
%TO.N,Net-(C6-Pad1)*%
%TA.AperFunction,SMDPad,CuDef*%
G36*
G01*
X268480000Y-114724000D02*
X268480000Y-114384000D01*
G75*
G02*
X268620000Y-114244000I140000J0D01*
G01*
X268900000Y-114244000D01*
G75*
G02*
X269040000Y-114384000I0J-140000D01*
G01*
X269040000Y-114724000D01*
G75*
G02*
X268900000Y-114864000I-140000J0D01*
G01*
X268620000Y-114864000D01*
G75*
G02*
X268480000Y-114724000I0J140000D01*
G01*
G37*
%TD.AperFunction*%
%TD*%
%TO.P,C5,2*%
%TO.N,Net-(C5-Pad2)*%
%TA.AperFunction,SMDPad,CuDef*%
G36*
G01*
X268071000Y-113581000D02*
X268071000Y-113241000D01*
G75*
G02*
X268211000Y-113101000I140000J0D01*
G01*
X268491000Y-113101000D01*
G75*
G02*
X268631000Y-113241000I0J-140000D01*
G01*
X268631000Y-113581000D01*
G75*
G02*
X268491000Y-113721000I-140000J0D01*
G01*
X268211000Y-113721000D01*
G75*
G02*
X268071000Y-113581000I0J140000D01*
G01*
G37*
%TD.AperFunction*%
%TO.P,C5,1*%
%TO.N,Net-(C5-Pad1)*%
%TA.AperFunction,SMDPad,CuDef*%
G36*
G01*
X267111000Y-113581000D02*
X267111000Y-113241000D01*
G75*
G02*
X267251000Y-113101000I140000J0D01*
G01*
X267531000Y-113101000D01*
G75*
G02*
X267671000Y-113241000I0J-140000D01*
G01*
X267671000Y-113581000D01*
G75*
G02*
X267531000Y-113721000I-140000J0D01*
G01*
X267251000Y-113721000D01*
G75*
G02*
X267111000Y-113581000I0J140000D01*
G01*
G37*
%TD.AperFunction*%
%TD*%
%TO.P,C3,2*%
%TO.N,/Keyboard/sheet605ED2EB/GND*%
%TA.AperFunction,SMDPad,CuDef*%
G36*
G01*
X264076000Y-109909000D02*
X263736000Y-109909000D01*
G75*
G02*
X263596000Y-109769000I0J140000D01*
G01*
X263596000Y-109489000D01*
G75*
G02*
X263736000Y-109349000I140000J0D01*
G01*
X264076000Y-109349000D01*
G75*
G02*
X264216000Y-109489000I0J-140000D01*
G01*
X264216000Y-109769000D01*
G75*
G02*
X264076000Y-109909000I-140000J0D01*
G01*
G37*
%TD.AperFunction*%
%TO.P,C3,1*%
%TO.N,/Keyboard/sheet605ED2EB/3V3*%
%TA.AperFunction,SMDPad,CuDef*%
G36*
G01*
X264076000Y-110869000D02*
X263736000Y-110869000D01*
G75*
G02*
X263596000Y-110729000I0J140000D01*
G01*
X263596000Y-110449000D01*
G75*
G02*
X263736000Y-110309000I140000J0D01*
G01*
X264076000Y-110309000D01*
G75*
G02*
X264216000Y-110449000I0J-140000D01*
G01*
X264216000Y-110729000D01*
G75*
G02*
X264076000Y-110869000I-140000J0D01*
G01*
G37*
%TD.AperFunction*%
%TD*%
%TO.P,C2,2*%
%TO.N,/Keyboard/sheet605ED2EB/GND*%
%TA.AperFunction,SMDPad,CuDef*%
G36*
G01*
X266442000Y-112451000D02*
X265942000Y-112451000D01*
G75*
G02*
X265717000Y-112226000I0J225000D01*
G01*
X265717000Y-111776000D01*
G75*
G02*
X265942000Y-111551000I225000J0D01*
G01*
X266442000Y-111551000D01*
G75*
G02*
X266667000Y-111776000I0J-225000D01*
G01*
X266667000Y-112226000D01*
G75*
G02*
X266442000Y-112451000I-225000J0D01*
G01*
G37*
%TD.AperFunction*%
%TO.P,C2,1*%
%TO.N,/Keyboard/sheet605ED2EB/4V2*%
%TA.AperFunction,SMDPad,CuDef*%
G36*
G01*
X266442000Y-114001000D02*
X265942000Y-114001000D01*
G75*
G02*
X265717000Y-113776000I0J225000D01*
G01*
X265717000Y-113326000D01*
G75*
G02*
X265942000Y-113101000I225000J0D01*
G01*
X266442000Y-113101000D01*
G75*
G02*
X266667000Y-113326000I0J-225000D01*
G01*
X266667000Y-113776000D01*
G75*
G02*
X266442000Y-114001000I-225000J0D01*
G01*
G37*
%TD.AperFunction*%
%TD*%
%TO.P,C1,2*%
%TO.N,/Keyboard/sheet605ED2EB/GND*%
%TA.AperFunction,SMDPad,CuDef*%
G36*
G01*
X273233000Y-116082000D02*
X273233000Y-116582000D01*
G75*
G02*
X273008000Y-116807000I-225000J0D01*
G01*
X272558000Y-116807000D01*
G75*
G02*
X272333000Y-116582000I0J225000D01*
G01*
X272333000Y-116082000D01*
G75*
G02*
X272558000Y-115857000I225000J0D01*
G01*
X273008000Y-115857000D01*
G75*
G02*
X273233000Y-116082000I0J-225000D01*
G01*
G37*
%TD.AperFunction*%
%TO.P,C1,1*%
%TO.N,/Keyboard/sheet605ED2EB/3V3*%
%TA.AperFunction,SMDPad,CuDef*%
G36*
G01*
X274783000Y-116082000D02*
X274783000Y-116582000D01*
G75*
G02*
X274558000Y-116807000I-225000J0D01*
G01*
X274108000Y-116807000D01*
G75*
G02*
X273883000Y-116582000I0J225000D01*
G01*
X273883000Y-116082000D01*
G75*
G02*
X274108000Y-115857000I225000J0D01*
G01*
X274558000Y-115857000D01*
G75*
G02*
X274783000Y-116082000I0J-225000D01*
G01*
G37*
%TD.AperFunction*%
%TD*%
D17*
%TO.N,/Keyboard/sheet605ED2EB/GND*%
X267208000Y-112090810D03*
D18*
X277208020Y-110000010D03*
D17*
X271554492Y-113420682D03*
D18*
X265286206Y-109987025D03*
X264142626Y-112244355D03*
D17*
%TO.N,/Keyboard/sheet605ED2EB/3V3*%
X270256000Y-110236000D03*
X274624190Y-111045834D03*
X264399684Y-110348684D03*
%TO.N,/Keyboard/sheet605ED2EB/4V2*%
X266803034Y-112799966D03*
X269937085Y-112912648D03*
%TO.N,/Keyboard/sheet605ED2EB/CS*%
X263435802Y-116332000D03*
X264823303Y-116344470D03*
X264052815Y-120015000D03*
X265192031Y-120254815D03*
%TO.N,/Keyboard/sheet605ED2EB/RESET*%
X270763323Y-115646712D03*
X268478000Y-115570000D03*
X266954000Y-117094000D03*
%TO.N,/Keyboard/sheet605ED2EB/D-C*%
X277238634Y-120904000D03*
%TO.N,/Keyboard/sheet605ED2EB/SCLK*%
X276904192Y-121658555D03*
%TO.N,/Keyboard/sheet605ED2EB/SDIN*%
X273840287Y-119210030D03*
%TO.N,/Keyboard/sheet605ED2EB/LED_DOUT*%
X267998553Y-110072505D03*
X265049040Y-114300000D03*
%TO.N,/Keyboard/sheet605ED2EB/LED_DIN*%
X273609379Y-108814826D03*
X276751854Y-114613543D03*
%TO.N,Net-(D1-Pad2)*%
X267843000Y-118618000D03*
%TO.N,/Keyboard/sheet605ED2EB/KeyRow*%
X263441239Y-124001874D03*
%TO.N,/Keyboard/sheet605ED2EB/KeyCol*%
X277114000Y-123952000D03*
X273050000Y-120396000D03*
X275079634Y-120736168D03*
X273558004Y-108076996D03*
%TO.N,CS7*%
X263435840Y-122428000D03*
X264951061Y-123463185D03*
%TO.N,CS6*%
X265049000Y-121920000D03*
X263424509Y-121688475D03*
%TO.N,CS5*%
X277541646Y-119722825D03*
X263525000Y-119380000D03*
%TO.N,CS4*%
X263600190Y-117602000D03*
X277399743Y-116460940D03*
%TO.N,CS3*%
X263435803Y-115086150D03*
X276881702Y-115341667D03*
%TO.N,CS2*%
X277181865Y-113538000D03*
X263428256Y-113670719D03*
%TO.N,CS1*%
X277181865Y-111624962D03*
X263651998Y-111378998D03*
%TD*%
D19*
%TO.N,/Keyboard/sheet605ED2EB/GND*%
X266760000Y-111125000D02*
X266760000Y-111642810D01*
X266760000Y-111642810D02*
X267208000Y-112090810D01*
X266401810Y-112001000D02*
X266760000Y-111642810D01*
X266192000Y-112001000D02*
X266401810Y-112001000D01*
D20*
X262762000Y-109347000D02*
X264014990Y-109347000D01*
X262255000Y-108840000D02*
X262762000Y-109347000D01*
X264014990Y-109520010D02*
X263906000Y-109629000D01*
X264014990Y-109347000D02*
X264014990Y-109520010D01*
X278368030Y-108840000D02*
X277208020Y-110000010D01*
X278765000Y-108840000D02*
X278368030Y-108840000D01*
D19*
X267760000Y-111125000D02*
X267760000Y-111538810D01*
X267760000Y-111538810D02*
X267512799Y-111786011D01*
X267512799Y-111786011D02*
X267208000Y-112090810D01*
D20*
X271554492Y-113833492D02*
X272529000Y-114808000D01*
X271554492Y-113420682D02*
X271554492Y-113833492D01*
X272529000Y-116065000D02*
X272796000Y-116332000D01*
X272529000Y-114808000D02*
X272529000Y-116065000D01*
X264014990Y-109347000D02*
X264646181Y-109347000D01*
X264646181Y-109347000D02*
X265286206Y-109987025D01*
X264475566Y-111911415D02*
X264142626Y-112244355D01*
X265286206Y-110430637D02*
X264475566Y-111241277D01*
X264475566Y-111241277D02*
X264475566Y-111911415D01*
X265286206Y-109987025D02*
X265286206Y-110430637D01*
D19*
%TO.N,/Keyboard/sheet605ED2EB/3V3*%
X270760000Y-110740000D02*
X270256000Y-110236000D01*
X270760000Y-111125000D02*
X270760000Y-110740000D01*
X274260000Y-111125000D02*
X274545024Y-111125000D01*
X274545024Y-111125000D02*
X274624190Y-111045834D01*
X264159368Y-110589000D02*
X264399684Y-110348684D01*
X263906000Y-110589000D02*
X264159368Y-110589000D01*
X274079000Y-116205000D02*
X274877011Y-115406989D01*
X274877011Y-111298655D02*
X274624190Y-111045834D01*
X274877011Y-115406989D02*
X274877011Y-111298655D01*
%TO.N,/Keyboard/sheet605ED2EB/4V2*%
X266192000Y-113551000D02*
X266192000Y-113411000D01*
X266192000Y-113411000D02*
X266803034Y-112799966D01*
X270260000Y-111125000D02*
X270260000Y-112589733D01*
X270260000Y-112589733D02*
X269937085Y-112912648D01*
%TO.N,Net-(C4-Pad1)*%
X273760000Y-111602000D02*
X273760000Y-111125000D01*
X274447000Y-112289000D02*
X273760000Y-111602000D01*
X274447000Y-113891092D02*
X274447000Y-112289000D01*
X274079000Y-114259092D02*
X274447000Y-113891092D01*
X274079000Y-114808000D02*
X274079000Y-114259092D01*
%TO.N,Net-(C5-Pad2)*%
X268351000Y-112416971D02*
X268351000Y-113411000D01*
X268760000Y-112007971D02*
X268351000Y-112416971D01*
X268760000Y-111125000D02*
X268760000Y-112007971D01*
%TO.N,Net-(C5-Pad1)*%
X268260000Y-111899844D02*
X267462000Y-112697844D01*
X267462000Y-112697844D02*
X267462000Y-113411000D01*
X268260000Y-111125000D02*
X268260000Y-111899844D01*
%TO.N,Net-(C6-Pad2)*%
X269720000Y-113637000D02*
X269720000Y-114554000D01*
X269352283Y-112631942D02*
X269352283Y-113269283D01*
X269760000Y-112224225D02*
X269352283Y-112631942D01*
X269352283Y-113269283D02*
X269720000Y-113637000D01*
X269760000Y-111125000D02*
X269760000Y-112224225D01*
%TO.N,Net-(C6-Pad1)*%
X268732000Y-114526000D02*
X268760000Y-114554000D01*
X268732000Y-114173000D02*
X268732000Y-114526000D01*
X268922271Y-113982729D02*
X268732000Y-114173000D01*
X268922271Y-112453827D02*
X268922271Y-113982729D01*
X269260000Y-112116098D02*
X268922271Y-112453827D01*
X269260000Y-111125000D02*
X269260000Y-112116098D01*
%TO.N,/Keyboard/sheet605ED2EB/CS*%
X262759000Y-116332000D02*
X262751000Y-116340000D01*
X263435802Y-116332000D02*
X262759000Y-116332000D01*
X271260000Y-111125000D02*
X271260000Y-112241541D01*
X266848402Y-117856000D02*
X265336872Y-116344470D01*
X271260000Y-112241541D02*
X270539680Y-112961861D01*
X270539680Y-114778320D02*
X267462000Y-117856000D01*
X267462000Y-117856000D02*
X266848402Y-117856000D01*
X265336872Y-116344470D02*
X264823303Y-116344470D01*
X270539680Y-112961861D02*
X270539680Y-114778320D01*
X266848402Y-118497097D02*
X265192031Y-120153468D01*
X266848402Y-117856000D02*
X266848402Y-118497097D01*
X265192031Y-120153468D02*
X265192031Y-120254815D01*
X264033000Y-120015000D02*
X264052815Y-120015000D01*
X264033000Y-120034815D02*
X264052815Y-120015000D01*
X264033000Y-122301000D02*
X264033000Y-120034815D01*
X263727815Y-120340000D02*
X264052815Y-120015000D01*
X262751000Y-120340000D02*
X263727815Y-120340000D01*
X262901000Y-123190000D02*
X262751000Y-123340000D01*
X263539346Y-123190000D02*
X262901000Y-123190000D01*
X264033000Y-122696346D02*
X263539346Y-123190000D01*
X264033000Y-122301000D02*
X264033000Y-122696346D01*
X264033000Y-115697000D02*
X263435802Y-116294198D01*
X264033000Y-113284000D02*
X264033000Y-115697000D01*
X263435802Y-116294198D02*
X263435802Y-116332000D01*
X263818886Y-113069886D02*
X264033000Y-113284000D01*
X263480886Y-113069886D02*
X263818886Y-113069886D01*
X262751000Y-112340000D02*
X263480886Y-113069886D01*
%TO.N,/Keyboard/sheet605ED2EB/RESET*%
X270969691Y-113178436D02*
X270969691Y-115440344D01*
X271760000Y-112388127D02*
X270969691Y-113178436D01*
X271760000Y-111125000D02*
X271760000Y-112388127D01*
X270969691Y-115440344D02*
X270763323Y-115646712D01*
X267385052Y-117094000D02*
X266954000Y-117094000D01*
X268478000Y-116001052D02*
X267385052Y-117094000D01*
X268478000Y-115570000D02*
X268478000Y-116001052D01*
%TO.N,/Keyboard/sheet605ED2EB/D-C*%
X277150012Y-117396115D02*
X277150012Y-118830517D01*
X275590000Y-109601000D02*
X276097999Y-110108999D01*
X277150012Y-118830517D02*
X276956836Y-119023693D01*
X272260000Y-111125000D02*
X272260000Y-110010000D01*
X276956836Y-120622202D02*
X277238634Y-120904000D01*
X272669000Y-109601000D02*
X275590000Y-109601000D01*
X276167044Y-110764307D02*
X276167044Y-116413147D01*
X276956836Y-119023693D02*
X276956836Y-120622202D01*
X276167044Y-116413147D02*
X277150012Y-117396115D01*
X276097999Y-110695262D02*
X276167044Y-110764307D01*
X276097999Y-110108999D02*
X276097999Y-110695262D01*
X272260000Y-110010000D02*
X272669000Y-109601000D01*
%TO.N,/Keyboard/sheet605ED2EB/SCLK*%
X272760000Y-111125000D02*
X272760000Y-110399000D01*
X272760000Y-110399000D02*
X273127989Y-110031011D01*
X273127989Y-110031011D02*
X275387116Y-110031011D01*
X275387116Y-110031011D02*
X275639011Y-110282906D01*
X275639011Y-110282906D02*
X275639011Y-110844401D01*
X275639011Y-110844401D02*
X275737033Y-110942423D01*
X275737033Y-110942423D02*
X275737033Y-116623107D01*
X275737033Y-116623107D02*
X276720001Y-117606075D01*
X276720001Y-117606075D02*
X276720001Y-118652401D01*
X276526825Y-118845577D02*
X276526825Y-121281188D01*
X276526825Y-121281188D02*
X276904192Y-121658555D01*
X276720001Y-118652401D02*
X276526825Y-118845577D01*
%TO.N,/Keyboard/sheet605ED2EB/SDIN*%
X273260000Y-111125000D02*
X273260000Y-110645998D01*
X273444976Y-110461022D02*
X275209000Y-110461022D01*
X275209000Y-111022517D02*
X275307022Y-111120539D01*
X275307022Y-111120539D02*
X275307022Y-116741978D01*
X275307022Y-116741978D02*
X273988011Y-118060989D01*
X273988011Y-119062306D02*
X273840287Y-119210030D01*
X273988011Y-118060989D02*
X273988011Y-119062306D01*
X273260000Y-110645998D02*
X273444976Y-110461022D01*
X275209000Y-110461022D02*
X275209000Y-111022517D01*
%TO.N,/Keyboard/sheet605ED2EB/LED_DOUT*%
X267998553Y-110072505D02*
X266931303Y-110072505D01*
X265385586Y-113963454D02*
X265049040Y-114300000D01*
X266931303Y-110072505D02*
X265385586Y-111618222D01*
X265385586Y-111618222D02*
X265385586Y-113963454D01*
%TO.N,/Keyboard/sheet605ED2EB/LED_DIN*%
X276597055Y-110586191D02*
X276597055Y-114458744D01*
X276597055Y-114458744D02*
X276751854Y-114613543D01*
X276528010Y-110517146D02*
X276597055Y-110586191D01*
X276528010Y-109803884D02*
X276528010Y-110517146D01*
X275895115Y-109170989D02*
X276528010Y-109803884D01*
X273965542Y-109170989D02*
X275895115Y-109170989D01*
X273609379Y-108814826D02*
X273965542Y-109170989D01*
%TO.N,Net-(D1-Pad2)*%
X266700000Y-115570000D02*
X266700000Y-116205000D01*
D21*
X266319000Y-120142000D02*
X267843000Y-118618000D01*
X266108000Y-120142000D02*
X266319000Y-120142000D01*
D19*
%TO.N,/Keyboard/sheet605ED2EB/KeyRow*%
X263602126Y-124001874D02*
X263441239Y-124001874D01*
X264463011Y-123140989D02*
X263602126Y-124001874D01*
X264463011Y-121667052D02*
X264463011Y-123140989D01*
X264910429Y-121219634D02*
X264463011Y-121667052D01*
X265614670Y-121219634D02*
X264910429Y-121219634D01*
X273050000Y-113030000D02*
X273050000Y-114139808D01*
X273050000Y-114139808D02*
X273304000Y-114393808D01*
X265782292Y-121052012D02*
X265614670Y-121219634D01*
X273304000Y-114393808D02*
X273304000Y-115222192D01*
X273304000Y-115222192D02*
X273558000Y-115476192D01*
X273558000Y-115476192D02*
X273558000Y-118626811D01*
X273558000Y-118626811D02*
X273255486Y-118929325D01*
X273330706Y-120980802D02*
X268338970Y-120980802D01*
X273255486Y-118929325D02*
X273255486Y-119735978D01*
X273634802Y-120676706D02*
X273330706Y-120980802D01*
X273255486Y-119735978D02*
X273634802Y-120115294D01*
X273634802Y-120115294D02*
X273634802Y-120676706D01*
X268338970Y-120980802D02*
X268267760Y-121052012D01*
X268267760Y-121052012D02*
X265782292Y-121052012D01*
%TO.N,/Keyboard/sheet605ED2EB/KeyCol*%
X264541000Y-108077000D02*
X264541000Y-108204000D01*
X264541000Y-108204000D02*
X265507001Y-109170001D01*
X276479000Y-125603000D02*
X275082000Y-125603000D01*
X275082000Y-125603000D02*
X274955000Y-125730000D01*
X274955000Y-125730000D02*
X265938000Y-125730000D01*
X265811000Y-125603000D02*
X264541000Y-125603000D01*
X265938000Y-125730000D02*
X265811000Y-125603000D01*
X277114000Y-123952000D02*
X277114000Y-123911663D01*
X277114000Y-123911663D02*
X275102168Y-121899832D01*
X275102168Y-120758702D02*
X275079634Y-120736168D01*
X275102168Y-121899832D02*
X275102168Y-120758702D01*
D21*
X273050000Y-120396000D02*
X268351000Y-120396000D01*
D22*
X268308000Y-120353000D02*
X268351000Y-120396000D01*
X268308000Y-120142000D02*
X268308000Y-120353000D01*
D19*
X273126952Y-108076996D02*
X273558004Y-108076996D01*
X272033947Y-109170001D02*
X273126952Y-108076996D01*
X265507001Y-109170001D02*
X272033947Y-109170001D01*
D21*
X265941216Y-110489820D02*
X265941216Y-109604216D01*
X265941216Y-109604216D02*
X265507001Y-109170001D01*
X268351000Y-120396000D02*
X268099999Y-120647001D01*
X268099999Y-120647001D02*
X265614531Y-120647001D01*
X264438010Y-115864762D02*
X264438010Y-114021990D01*
X265614531Y-120647001D02*
X265446909Y-120814623D01*
X264744453Y-120814623D02*
X264618394Y-120688564D01*
X264618394Y-120688564D02*
X264618394Y-119388210D01*
X265446909Y-120814623D02*
X264744453Y-120814623D01*
X264980575Y-111450461D02*
X265941216Y-110489820D01*
X264618394Y-119388210D02*
X264211801Y-118981617D01*
X264211801Y-118981617D02*
X264211801Y-116090971D01*
X264438010Y-114021990D02*
X264980575Y-113479425D01*
X264211801Y-116090971D02*
X264438010Y-115864762D01*
X264980575Y-113479425D02*
X264980575Y-111450461D01*
D19*
%TO.N,CS8*%
X263510999Y-124982001D02*
X263144000Y-125349000D01*
X278497999Y-124572999D02*
X263566999Y-124572999D01*
X262764000Y-125349000D02*
X262255000Y-124840000D01*
X278765000Y-124840000D02*
X278497999Y-124572999D01*
X263566999Y-124572999D02*
X263510999Y-124628999D01*
X263144000Y-125349000D02*
X262764000Y-125349000D01*
X263510999Y-124628999D02*
X263510999Y-124982001D01*
%TO.N,CS7*%
X261931010Y-122409990D02*
X261501000Y-122840000D01*
X263417830Y-122409990D02*
X261931010Y-122409990D01*
X263435840Y-122428000D02*
X263417830Y-122409990D01*
X274494824Y-120371669D02*
X274494824Y-121032938D01*
X274494824Y-121032938D02*
X273615728Y-121912034D01*
X266138524Y-121912034D02*
X266027113Y-122023445D01*
X266027113Y-122023445D02*
X265881163Y-122079656D01*
X265881163Y-122079656D02*
X265728300Y-122079656D01*
X264951061Y-122856895D02*
X264951061Y-123463185D01*
X265728300Y-122079656D02*
X264951061Y-122856895D01*
X273615728Y-121912034D02*
X266138524Y-121912034D01*
X275666803Y-120496293D02*
X275270533Y-120100023D01*
X276650462Y-122840000D02*
X275666803Y-121856341D01*
X274766470Y-120100023D02*
X274494824Y-120371669D01*
X275270533Y-120100023D02*
X274766470Y-120100023D01*
X275666803Y-121856341D02*
X275666803Y-120496293D01*
X279019000Y-122840000D02*
X276650462Y-122840000D01*
%TO.N,CS6*%
X268517086Y-121410813D02*
X268445876Y-121482023D01*
X274064813Y-120091801D02*
X274064813Y-120854822D01*
X265960408Y-121482023D02*
X265792786Y-121649645D01*
X274486602Y-119670012D02*
X274064813Y-120091801D01*
X276828578Y-122409989D02*
X276096814Y-121678225D01*
X276096814Y-121678225D02*
X276096814Y-120318177D01*
X277195011Y-122409989D02*
X276828578Y-122409989D01*
X275448649Y-119670012D02*
X274486602Y-119670012D01*
X265319355Y-121649645D02*
X265049000Y-121920000D01*
X276096814Y-120318177D02*
X275448649Y-119670012D01*
X268445876Y-121482023D02*
X265960408Y-121482023D01*
X274064813Y-120854822D02*
X273508822Y-121410813D01*
X265792786Y-121649645D02*
X265319355Y-121649645D01*
X273508822Y-121410813D02*
X268517086Y-121410813D01*
X278765000Y-120840000D02*
X277195011Y-122409989D01*
X262255000Y-120840000D02*
X263103475Y-121688475D01*
X263103475Y-121688475D02*
X263424509Y-121688475D01*
%TO.N,CS5*%
X278424471Y-118840000D02*
X277541646Y-119722825D01*
X278765000Y-118840000D02*
X278424471Y-118840000D01*
X262255000Y-118840000D02*
X262255000Y-118948004D01*
X263525000Y-119380000D02*
X263525000Y-118818004D01*
X261931010Y-118409990D02*
X261501000Y-118840000D01*
X263116986Y-118409990D02*
X261931010Y-118409990D01*
X263525000Y-118818004D02*
X263116986Y-118409990D01*
%TO.N,CS4*%
X263017000Y-117602000D02*
X263600190Y-117602000D01*
X262255000Y-116840000D02*
X263017000Y-117602000D01*
X278765000Y-116840000D02*
X277778803Y-116840000D01*
X277778803Y-116840000D02*
X277399743Y-116460940D01*
%TO.N,CS3*%
X262787802Y-114376802D02*
X262751000Y-114340000D01*
X263435803Y-115086150D02*
X263435803Y-114591803D01*
X261931010Y-114409990D02*
X261501000Y-114840000D01*
X263253990Y-114409990D02*
X261931010Y-114409990D01*
X263435803Y-114591803D02*
X263253990Y-114409990D01*
X278765000Y-114840000D02*
X277383369Y-114840000D01*
X277383369Y-114840000D02*
X276881702Y-115341667D01*
%TO.N,CS2*%
X278765000Y-112840000D02*
X277879865Y-112840000D01*
X277879865Y-112840000D02*
X277181865Y-113538000D01*
X262255000Y-112840000D02*
X263085719Y-113670719D01*
X263085719Y-113670719D02*
X263428256Y-113670719D01*
%TO.N,CS1*%
X277966827Y-110840000D02*
X277181865Y-111624962D01*
X278765000Y-110840000D02*
X277966827Y-110840000D01*
X263281010Y-110574014D02*
X263281010Y-111008010D01*
X263116986Y-110409990D02*
X263281010Y-110574014D01*
X263281010Y-111008010D02*
X263651998Y-111378998D01*
X262685010Y-110409990D02*
X263116986Y-110409990D01*
X262255000Y-110840000D02*
X262685010Y-110409990D01*
%TD*%
M02*
