%TF.GenerationSoftware,KiCad,Pcbnew,(6.0.1)*%
%TF.CreationDate,2022-01-27T11:35:44+01:00*%
%TF.ProjectId,poly_kb,706f6c79-5f6b-4622-9e6b-696361645f70,rev?*%
%TF.SameCoordinates,Original*%
%TF.FileFunction,Legend,Bot*%
%TF.FilePolarity,Positive*%
%FSLAX46Y46*%
G04 Gerber Fmt 4.6, Leading zero omitted, Abs format (unit mm)*
G04 Created by KiCad (PCBNEW (6.0.1)) date 2022-01-27 11:35:44*
%MOMM*%
%LPD*%
G01*
G04 APERTURE LIST*
G04 Aperture macros list*
%AMRoundRect*
0 Rectangle with rounded corners*
0 $1 Rounding radius*
0 $2 $3 $4 $5 $6 $7 $8 $9 X,Y pos of 4 corners*
0 Add a 4 corners polygon primitive as box body*
4,1,4,$2,$3,$4,$5,$6,$7,$8,$9,$2,$3,0*
0 Add four circle primitives for the rounded corners*
1,1,$1+$1,$2,$3*
1,1,$1+$1,$4,$5*
1,1,$1+$1,$6,$7*
1,1,$1+$1,$8,$9*
0 Add four rect primitives between the rounded corners*
20,1,$1+$1,$2,$3,$4,$5,0*
20,1,$1+$1,$4,$5,$6,$7,0*
20,1,$1+$1,$6,$7,$8,$9,0*
20,1,$1+$1,$8,$9,$2,$3,0*%
%AMFreePoly0*
4,1,6,0.750000,-1.500000,0.450000,-1.500000,-0.750000,-0.300000,-0.750000,0.500000,0.750000,0.500000,0.750000,-1.500000,0.750000,-1.500000,$1*%
%AMFreePoly1*
4,1,6,0.750000,-0.300000,-0.450000,-1.500000,-0.750000,-1.500000,-0.750000,0.500000,0.750000,0.500000,0.750000,-0.300000,0.750000,-0.300000,$1*%
%AMFreePoly2*
4,1,5,0.750000,-0.650000,0.250000,-0.650000,-0.650000,0.250000,1.650000,0.250000,0.750000,-0.650000,0.750000,-0.650000,$1*%
G04 Aperture macros list end*
%ADD10C,0.120000*%
%ADD11C,0.000000*%
%ADD12C,0.300000*%
%ADD13C,0.153000*%
%ADD14C,0.150000*%
%ADD15C,0.250000*%
%ADD16C,1.700000*%
%ADD17C,4.000000*%
%ADD18C,2.200000*%
%ADD19R,1.500000X1.500000*%
%ADD20RoundRect,0.225000X0.225000X0.250000X-0.225000X0.250000X-0.225000X-0.250000X0.225000X-0.250000X0*%
%ADD21RoundRect,0.225000X0.250000X-0.225000X0.250000X0.225000X-0.250000X0.225000X-0.250000X-0.225000X0*%
%ADD22RoundRect,0.140000X0.170000X-0.140000X0.170000X0.140000X-0.170000X0.140000X-0.170000X-0.140000X0*%
%ADD23RoundRect,0.140000X-0.140000X-0.170000X0.140000X-0.170000X0.140000X0.170000X-0.140000X0.170000X0*%
%ADD24R,0.600000X0.450000*%
%ADD25R,0.300000X1.150000*%
%ADD26R,0.300000X0.650000*%
%ADD27R,2.000000X1.500000*%
%ADD28FreePoly0,90.000000*%
%ADD29FreePoly1,90.000000*%
%ADD30FreePoly2,270.000000*%
G04 APERTURE END LIST*
D10*
X263906000Y-116586000D02*
X263906000Y-112522000D01*
D11*
G36*
X275272500Y-126390400D02*
G01*
X270510000Y-126390400D01*
X270510000Y-125958600D01*
X275272500Y-125958600D01*
X275272500Y-126390400D01*
G37*
G36*
X263753600Y-107723000D02*
G01*
X260959600Y-107723000D01*
X260959600Y-107289600D01*
X263753600Y-107289600D01*
X263753600Y-107723000D01*
G37*
G36*
X265747500Y-107723000D02*
G01*
X265328400Y-107723000D01*
X265328400Y-107289600D01*
X265747500Y-107289600D01*
X265747500Y-107723000D01*
G37*
G36*
X265747500Y-126390400D02*
G01*
X265328400Y-126390400D01*
X265328400Y-125971300D01*
X265747500Y-125971300D01*
X265747500Y-126390400D01*
G37*
G36*
X263753600Y-126390400D02*
G01*
X260985000Y-126390400D01*
X260985000Y-125951064D01*
X263753600Y-125951064D01*
X263753600Y-126390400D01*
G37*
D10*
X277622000Y-108508800D02*
X277622000Y-108864400D01*
X263398000Y-119888000D02*
X263906000Y-119888000D01*
X263398000Y-108508800D02*
X263398000Y-108864400D01*
X263906000Y-122682000D02*
X263398000Y-123190000D01*
X263398000Y-108864400D02*
X263144000Y-108864400D01*
X277571200Y-109169200D02*
X277672800Y-109169200D01*
X263398000Y-108864400D02*
X263652000Y-108864400D01*
X277622000Y-108864400D02*
X277876000Y-108864400D01*
X277622000Y-108864400D02*
X277368000Y-108864400D01*
D11*
G36*
X275272500Y-107723000D02*
G01*
X270510000Y-107723000D01*
X270510000Y-107289600D01*
X275272500Y-107289600D01*
X275272500Y-107723000D01*
G37*
D10*
X263245600Y-109016800D02*
X263550400Y-109016800D01*
X263398000Y-115824000D02*
X263906000Y-115824000D01*
X263906000Y-119126000D02*
X263906000Y-122682000D01*
X263906000Y-112522000D02*
X263398000Y-112014000D01*
X277469600Y-109016800D02*
X277774400Y-109016800D01*
X263347200Y-109169200D02*
X263448800Y-109169200D01*
D12*
X273260121Y-125358500D02*
X272688692Y-125358500D01*
X273417264Y-125701357D02*
X272867264Y-124501357D01*
X272617264Y-125701357D01*
X272238692Y-124501357D02*
X271552978Y-124501357D01*
X272045835Y-125701357D02*
X271895835Y-124501357D01*
X270924407Y-124501357D02*
X270695835Y-124501357D01*
X270588692Y-124558500D01*
X270488692Y-124672785D01*
X270460121Y-124901357D01*
X270510121Y-125301357D01*
X270595835Y-125529928D01*
X270724407Y-125644214D01*
X270845835Y-125701357D01*
X271074407Y-125701357D01*
X271181550Y-125644214D01*
X271281550Y-125529928D01*
X271310121Y-125301357D01*
X271260121Y-124901357D01*
X271174407Y-124672785D01*
X271045835Y-124558500D01*
X270924407Y-124501357D01*
X270045835Y-125701357D02*
X269895835Y-124501357D01*
X269602978Y-125358500D01*
X269095835Y-124501357D01*
X269245835Y-125701357D01*
X268595835Y-124615642D02*
X268531550Y-124558500D01*
X268410121Y-124501357D01*
X268124407Y-124501357D01*
X268017264Y-124558500D01*
X267967264Y-124615642D01*
X267924407Y-124729928D01*
X267938692Y-124844214D01*
X268017264Y-125015642D01*
X268788692Y-125701357D01*
X268045835Y-125701357D01*
D13*
X277393428Y-111232904D02*
X277850571Y-111232904D01*
X277622000Y-111232904D02*
X277622000Y-110432904D01*
X277698190Y-110547190D01*
X277774380Y-110623380D01*
X277850571Y-110661476D01*
X264375923Y-124606009D02*
X264452114Y-124644104D01*
X264604495Y-124644104D01*
X264680685Y-124606009D01*
X264718780Y-124567914D01*
X264756876Y-124491723D01*
X264756876Y-124263152D01*
X264718780Y-124186961D01*
X264680685Y-124148866D01*
X264604495Y-124110771D01*
X264452114Y-124110771D01*
X264375923Y-124148866D01*
X276313923Y-124631409D02*
X276390114Y-124669504D01*
X276542495Y-124669504D01*
X276618685Y-124631409D01*
X276656780Y-124593314D01*
X276694876Y-124517123D01*
X276694876Y-124288552D01*
X276656780Y-124212361D01*
X276618685Y-124174266D01*
X276542495Y-124136171D01*
X276390114Y-124136171D01*
X276313923Y-124174266D01*
X264375923Y-109543809D02*
X264452114Y-109581904D01*
X264604495Y-109581904D01*
X264680685Y-109543809D01*
X264718780Y-109505714D01*
X264756876Y-109429523D01*
X264756876Y-109200952D01*
X264718780Y-109124761D01*
X264680685Y-109086666D01*
X264604495Y-109048571D01*
X264452114Y-109048571D01*
X264375923Y-109086666D01*
X267665152Y-125698214D02*
X267627057Y-125736309D01*
X267665152Y-125774404D01*
X267703247Y-125736309D01*
X267665152Y-125698214D01*
X267665152Y-125774404D01*
X266865152Y-125774404D02*
X267322295Y-125774404D01*
X267093723Y-125774404D02*
X267093723Y-124974404D01*
X267169914Y-125088690D01*
X267246104Y-125164880D01*
X267322295Y-125202976D01*
X277469619Y-116732070D02*
X277469619Y-117265403D01*
X277660095Y-116427308D02*
X277850571Y-116998737D01*
X277355333Y-116998737D01*
D14*
X266319000Y-110974142D02*
X266271380Y-111021761D01*
X266319000Y-111069380D01*
X266366619Y-111021761D01*
X266319000Y-110974142D01*
X266319000Y-111069380D01*
D12*
X276179464Y-121853257D02*
X276029464Y-120653257D01*
X275572321Y-120653257D01*
X275465178Y-120710400D01*
X275415178Y-120767542D01*
X275372321Y-120881828D01*
X275393750Y-121053257D01*
X275465178Y-121167542D01*
X275529464Y-121224685D01*
X275650892Y-121281828D01*
X276108035Y-121281828D01*
X274600892Y-120653257D02*
X274372321Y-120653257D01*
X274265178Y-120710400D01*
X274165178Y-120824685D01*
X274136607Y-121053257D01*
X274186607Y-121453257D01*
X274272321Y-121681828D01*
X274400892Y-121796114D01*
X274522321Y-121853257D01*
X274750892Y-121853257D01*
X274858035Y-121796114D01*
X274958035Y-121681828D01*
X274986607Y-121453257D01*
X274936607Y-121053257D01*
X274850892Y-120824685D01*
X274722321Y-120710400D01*
X274600892Y-120653257D01*
X273150892Y-121853257D02*
X273722321Y-121853257D01*
X273572321Y-120653257D01*
X272450892Y-121281828D02*
X272522321Y-121853257D01*
X272772321Y-120653257D02*
X272450892Y-121281828D01*
X271972321Y-120653257D01*
X271722321Y-121853257D02*
X271572321Y-120653257D01*
X271036607Y-121853257D02*
X271465178Y-121167542D01*
X270886607Y-120653257D02*
X271658035Y-121338971D01*
X270043750Y-121224685D02*
X269879464Y-121281828D01*
X269829464Y-121338971D01*
X269786607Y-121453257D01*
X269808035Y-121624685D01*
X269879464Y-121738971D01*
X269943750Y-121796114D01*
X270065178Y-121853257D01*
X270522321Y-121853257D01*
X270372321Y-120653257D01*
X269972321Y-120653257D01*
X269865178Y-120710400D01*
X269815178Y-120767542D01*
X269772321Y-120881828D01*
X269786607Y-120996114D01*
X269858035Y-121110400D01*
X269922321Y-121167542D01*
X270043750Y-121224685D01*
X270443750Y-121224685D01*
D14*
X269113000Y-120753142D02*
X269065380Y-120800761D01*
X269113000Y-120848380D01*
X269160619Y-120800761D01*
X269113000Y-120753142D01*
X269113000Y-120848380D01*
D13*
X277850571Y-112519928D02*
X277812476Y-112481833D01*
X277736285Y-112443737D01*
X277545809Y-112443737D01*
X277469619Y-112481833D01*
X277431523Y-112519928D01*
X277393428Y-112596118D01*
X277393428Y-112672309D01*
X277431523Y-112786594D01*
X277888666Y-113243737D01*
X277393428Y-113243737D01*
X277431523Y-118476236D02*
X277812476Y-118476236D01*
X277850571Y-118857189D01*
X277812476Y-118819093D01*
X277736285Y-118780998D01*
X277545809Y-118780998D01*
X277469619Y-118819093D01*
X277431523Y-118857189D01*
X277393428Y-118933379D01*
X277393428Y-119123855D01*
X277431523Y-119200046D01*
X277469619Y-119238141D01*
X277545809Y-119276236D01*
X277736285Y-119276236D01*
X277812476Y-119238141D01*
X277850571Y-119200046D01*
X277469619Y-120487069D02*
X277622000Y-120487069D01*
X277698190Y-120525165D01*
X277736285Y-120563260D01*
X277812476Y-120677545D01*
X277850571Y-120829926D01*
X277850571Y-121134688D01*
X277812476Y-121210879D01*
X277774380Y-121248974D01*
X277698190Y-121287069D01*
X277545809Y-121287069D01*
X277469619Y-121248974D01*
X277431523Y-121210879D01*
X277393428Y-121134688D01*
X277393428Y-120944212D01*
X277431523Y-120868022D01*
X277469619Y-120829926D01*
X277545809Y-120791831D01*
X277698190Y-120791831D01*
X277774380Y-120829926D01*
X277812476Y-120868022D01*
X277850571Y-120944212D01*
D14*
X274415190Y-118716904D02*
X274415190Y-117916904D01*
X274415190Y-118221666D02*
X274339000Y-118183571D01*
X274186619Y-118183571D01*
X274110428Y-118221666D01*
X274072333Y-118259761D01*
X274034238Y-118335952D01*
X274034238Y-118564523D01*
X274072333Y-118640714D01*
X274110428Y-118678809D01*
X274186619Y-118716904D01*
X274339000Y-118716904D01*
X274415190Y-118678809D01*
X273767571Y-118183571D02*
X273577095Y-118716904D01*
X273386619Y-118183571D02*
X273577095Y-118716904D01*
X273653285Y-118907380D01*
X273691380Y-118945476D01*
X273767571Y-118983571D01*
X275596142Y-119471571D02*
X275291380Y-119471571D01*
X275481857Y-119204904D02*
X275481857Y-119890619D01*
X275443761Y-119966809D01*
X275367571Y-120004904D01*
X275291380Y-120004904D01*
X275024714Y-120004904D02*
X275024714Y-119204904D01*
X274681857Y-120004904D02*
X274681857Y-119585857D01*
X274719952Y-119509666D01*
X274796142Y-119471571D01*
X274910428Y-119471571D01*
X274986619Y-119509666D01*
X275024714Y-119547761D01*
X274300904Y-119471571D02*
X274300904Y-120271571D01*
X274300904Y-119509666D02*
X274224714Y-119471571D01*
X274072333Y-119471571D01*
X273996142Y-119509666D01*
X273958047Y-119547761D01*
X273919952Y-119623952D01*
X273919952Y-119852523D01*
X273958047Y-119928714D01*
X273996142Y-119966809D01*
X274072333Y-120004904D01*
X274224714Y-120004904D01*
X274300904Y-119966809D01*
X273462809Y-120004904D02*
X273539000Y-119966809D01*
X273577095Y-119928714D01*
X273615190Y-119852523D01*
X273615190Y-119623952D01*
X273577095Y-119547761D01*
X273539000Y-119509666D01*
X273462809Y-119471571D01*
X273348523Y-119471571D01*
X273272333Y-119509666D01*
X273234238Y-119547761D01*
X273196142Y-119623952D01*
X273196142Y-119852523D01*
X273234238Y-119928714D01*
X273272333Y-119966809D01*
X273348523Y-120004904D01*
X273462809Y-120004904D01*
X272739000Y-120004904D02*
X272815190Y-119966809D01*
X272853285Y-119890619D01*
X272853285Y-119204904D01*
X272319952Y-120004904D02*
X272396142Y-119966809D01*
X272434238Y-119890619D01*
X272434238Y-119204904D01*
X265055333Y-111588514D02*
X265093428Y-111626609D01*
X265207714Y-111664704D01*
X265283904Y-111664704D01*
X265398190Y-111626609D01*
X265474380Y-111550419D01*
X265512476Y-111474228D01*
X265550571Y-111321847D01*
X265550571Y-111207561D01*
X265512476Y-111055180D01*
X265474380Y-110978990D01*
X265398190Y-110902800D01*
X265283904Y-110864704D01*
X265207714Y-110864704D01*
X265093428Y-110902800D01*
X265055333Y-110940895D01*
X264788666Y-110864704D02*
X264293428Y-110864704D01*
X264560095Y-111169466D01*
X264445809Y-111169466D01*
X264369619Y-111207561D01*
X264331523Y-111245657D01*
X264293428Y-111321847D01*
X264293428Y-111512323D01*
X264331523Y-111588514D01*
X264369619Y-111626609D01*
X264445809Y-111664704D01*
X264674380Y-111664704D01*
X264750571Y-111626609D01*
X264788666Y-111588514D01*
D13*
X276313923Y-109543809D02*
X276390114Y-109581904D01*
X276542495Y-109581904D01*
X276618685Y-109543809D01*
X276656780Y-109505714D01*
X276694876Y-109429523D01*
X276694876Y-109200952D01*
X276656780Y-109124761D01*
X276618685Y-109086666D01*
X276542495Y-109048571D01*
X276390114Y-109048571D01*
X276313923Y-109086666D01*
X272783009Y-109480304D02*
X272783009Y-108680304D01*
X272592533Y-108680304D01*
X272478247Y-108718400D01*
X272402057Y-108794590D01*
X272363961Y-108870780D01*
X272325866Y-109023161D01*
X272325866Y-109137447D01*
X272363961Y-109289828D01*
X272402057Y-109366019D01*
X272478247Y-109442209D01*
X272592533Y-109480304D01*
X272783009Y-109480304D01*
X271983009Y-109480304D02*
X271983009Y-108946971D01*
X271983009Y-108680304D02*
X272021104Y-108718400D01*
X271983009Y-108756495D01*
X271944914Y-108718400D01*
X271983009Y-108680304D01*
X271983009Y-108756495D01*
X271640152Y-109442209D02*
X271563961Y-109480304D01*
X271411580Y-109480304D01*
X271335390Y-109442209D01*
X271297295Y-109366019D01*
X271297295Y-109327923D01*
X271335390Y-109251733D01*
X271411580Y-109213638D01*
X271525866Y-109213638D01*
X271602057Y-109175542D01*
X271640152Y-109099352D01*
X271640152Y-109061257D01*
X271602057Y-108985066D01*
X271525866Y-108946971D01*
X271411580Y-108946971D01*
X271335390Y-108985066D01*
X270954438Y-108946971D02*
X270954438Y-109746971D01*
X270954438Y-108985066D02*
X270878247Y-108946971D01*
X270725866Y-108946971D01*
X270649676Y-108985066D01*
X270611580Y-109023161D01*
X270573485Y-109099352D01*
X270573485Y-109327923D01*
X270611580Y-109404114D01*
X270649676Y-109442209D01*
X270725866Y-109480304D01*
X270878247Y-109480304D01*
X270954438Y-109442209D01*
X270230628Y-109480304D02*
X270230628Y-108680304D01*
X269925866Y-108680304D01*
X269849676Y-108718400D01*
X269811580Y-108756495D01*
X269773485Y-108832685D01*
X269773485Y-108946971D01*
X269811580Y-109023161D01*
X269849676Y-109061257D01*
X269925866Y-109099352D01*
X270230628Y-109099352D01*
X269316342Y-109480304D02*
X269392533Y-109442209D01*
X269430628Y-109404114D01*
X269468723Y-109327923D01*
X269468723Y-109099352D01*
X269430628Y-109023161D01*
X269392533Y-108985066D01*
X269316342Y-108946971D01*
X269202057Y-108946971D01*
X269125866Y-108985066D01*
X269087771Y-109023161D01*
X269049676Y-109099352D01*
X269049676Y-109327923D01*
X269087771Y-109404114D01*
X269125866Y-109442209D01*
X269202057Y-109480304D01*
X269316342Y-109480304D01*
X268706819Y-109480304D02*
X268706819Y-108946971D01*
X268706819Y-109099352D02*
X268668723Y-109023161D01*
X268630628Y-108985066D01*
X268554438Y-108946971D01*
X268478247Y-108946971D01*
X268325866Y-108946971D02*
X268021104Y-108946971D01*
X268211580Y-108680304D02*
X268211580Y-109366019D01*
X268173485Y-109442209D01*
X268097295Y-109480304D01*
X268021104Y-109480304D01*
X277888666Y-114454570D02*
X277393428Y-114454570D01*
X277660095Y-114759332D01*
X277545809Y-114759332D01*
X277469619Y-114797427D01*
X277431523Y-114835523D01*
X277393428Y-114911713D01*
X277393428Y-115102189D01*
X277431523Y-115178380D01*
X277469619Y-115216475D01*
X277545809Y-115254570D01*
X277774380Y-115254570D01*
X277850571Y-115216475D01*
X277888666Y-115178380D01*
D15*
X263548857Y-118056000D02*
X263501238Y-118113142D01*
X263453619Y-118284571D01*
X263453619Y-118398857D01*
X263501238Y-118570285D01*
X263596476Y-118684571D01*
X263691714Y-118741714D01*
X263882190Y-118798857D01*
X264025047Y-118798857D01*
X264215523Y-118741714D01*
X264310761Y-118684571D01*
X264406000Y-118570285D01*
X264453619Y-118398857D01*
X264453619Y-118284571D01*
X264406000Y-118113142D01*
X264358380Y-118056000D01*
X263501238Y-117598857D02*
X263453619Y-117427428D01*
X263453619Y-117141714D01*
X263501238Y-117027428D01*
X263548857Y-116970285D01*
X263644095Y-116913142D01*
X263739333Y-116913142D01*
X263834571Y-116970285D01*
X263882190Y-117027428D01*
X263929809Y-117141714D01*
X263977428Y-117370285D01*
X264025047Y-117484571D01*
X264072666Y-117541714D01*
X264167904Y-117598857D01*
X264263142Y-117598857D01*
X264358380Y-117541714D01*
X264406000Y-117484571D01*
X264453619Y-117370285D01*
X264453619Y-117084571D01*
X264406000Y-116913142D01*
D13*
X277698190Y-124821961D02*
X277774380Y-124783866D01*
X277812476Y-124745771D01*
X277850571Y-124669580D01*
X277850571Y-124631485D01*
X277812476Y-124555295D01*
X277774380Y-124517200D01*
X277698190Y-124479104D01*
X277545809Y-124479104D01*
X277469619Y-124517200D01*
X277431523Y-124555295D01*
X277393428Y-124631485D01*
X277393428Y-124669580D01*
X277431523Y-124745771D01*
X277469619Y-124783866D01*
X277545809Y-124821961D01*
X277698190Y-124821961D01*
X277774380Y-124860057D01*
X277812476Y-124898152D01*
X277850571Y-124974342D01*
X277850571Y-125126723D01*
X277812476Y-125202914D01*
X277774380Y-125241009D01*
X277698190Y-125279104D01*
X277545809Y-125279104D01*
X277469619Y-125241009D01*
X277431523Y-125202914D01*
X277393428Y-125126723D01*
X277393428Y-124974342D01*
X277431523Y-124898152D01*
X277469619Y-124860057D01*
X277545809Y-124821961D01*
X277888666Y-122497904D02*
X277355333Y-122497904D01*
X277698190Y-123297904D01*
D14*
%TO.C,C1*%
X275723333Y-116617714D02*
X275761428Y-116655809D01*
X275875714Y-116693904D01*
X275951904Y-116693904D01*
X276066190Y-116655809D01*
X276142380Y-116579619D01*
X276180476Y-116503428D01*
X276218571Y-116351047D01*
X276218571Y-116236761D01*
X276180476Y-116084380D01*
X276142380Y-116008190D01*
X276066190Y-115932000D01*
X275951904Y-115893904D01*
X275875714Y-115893904D01*
X275761428Y-115932000D01*
X275723333Y-115970095D01*
X274961428Y-116693904D02*
X275418571Y-116693904D01*
X275190000Y-116693904D02*
X275190000Y-115893904D01*
X275266190Y-116008190D01*
X275342380Y-116084380D01*
X275418571Y-116122476D01*
%TO.C,C2*%
X267646133Y-112502914D02*
X267684228Y-112541009D01*
X267798514Y-112579104D01*
X267874704Y-112579104D01*
X267988990Y-112541009D01*
X268065180Y-112464819D01*
X268103276Y-112388628D01*
X268141371Y-112236247D01*
X268141371Y-112121961D01*
X268103276Y-111969580D01*
X268065180Y-111893390D01*
X267988990Y-111817200D01*
X267874704Y-111779104D01*
X267798514Y-111779104D01*
X267684228Y-111817200D01*
X267646133Y-111855295D01*
X267341371Y-111855295D02*
X267303276Y-111817200D01*
X267227085Y-111779104D01*
X267036609Y-111779104D01*
X266960419Y-111817200D01*
X266922323Y-111855295D01*
X266884228Y-111931485D01*
X266884228Y-112007676D01*
X266922323Y-112121961D01*
X267379466Y-112579104D01*
X266884228Y-112579104D01*
%TO.C,C4*%
X275520133Y-115093714D02*
X275558228Y-115131809D01*
X275672514Y-115169904D01*
X275748704Y-115169904D01*
X275862990Y-115131809D01*
X275939180Y-115055619D01*
X275977276Y-114979428D01*
X276015371Y-114827047D01*
X276015371Y-114712761D01*
X275977276Y-114560380D01*
X275939180Y-114484190D01*
X275862990Y-114408000D01*
X275748704Y-114369904D01*
X275672514Y-114369904D01*
X275558228Y-114408000D01*
X275520133Y-114446095D01*
X274834419Y-114636571D02*
X274834419Y-115169904D01*
X275024895Y-114331809D02*
X275215371Y-114903238D01*
X274720133Y-114903238D01*
%TO.C,C5*%
X269762144Y-113727773D02*
X269800239Y-113765868D01*
X269914525Y-113803963D01*
X269990715Y-113803963D01*
X270105001Y-113765868D01*
X270181191Y-113689678D01*
X270219287Y-113613487D01*
X270257382Y-113461106D01*
X270257382Y-113346820D01*
X270219287Y-113194439D01*
X270181191Y-113118249D01*
X270105001Y-113042059D01*
X269990715Y-113003963D01*
X269914525Y-113003963D01*
X269800239Y-113042059D01*
X269762144Y-113080154D01*
X269038334Y-113003963D02*
X269419287Y-113003963D01*
X269457382Y-113384916D01*
X269419287Y-113346820D01*
X269343096Y-113308725D01*
X269152620Y-113308725D01*
X269076430Y-113346820D01*
X269038334Y-113384916D01*
X269000239Y-113461106D01*
X269000239Y-113651582D01*
X269038334Y-113727773D01*
X269076430Y-113765868D01*
X269152620Y-113803963D01*
X269343096Y-113803963D01*
X269419287Y-113765868D01*
X269457382Y-113727773D01*
%TO.C,C6*%
X271049733Y-114890514D02*
X271087828Y-114928609D01*
X271202114Y-114966704D01*
X271278304Y-114966704D01*
X271392590Y-114928609D01*
X271468780Y-114852419D01*
X271506876Y-114776228D01*
X271544971Y-114623847D01*
X271544971Y-114509561D01*
X271506876Y-114357180D01*
X271468780Y-114280990D01*
X271392590Y-114204800D01*
X271278304Y-114166704D01*
X271202114Y-114166704D01*
X271087828Y-114204800D01*
X271049733Y-114242895D01*
X270364019Y-114166704D02*
X270516400Y-114166704D01*
X270592590Y-114204800D01*
X270630685Y-114242895D01*
X270706876Y-114357180D01*
X270744971Y-114509561D01*
X270744971Y-114814323D01*
X270706876Y-114890514D01*
X270668780Y-114928609D01*
X270592590Y-114966704D01*
X270440209Y-114966704D01*
X270364019Y-114928609D01*
X270325923Y-114890514D01*
X270287828Y-114814323D01*
X270287828Y-114623847D01*
X270325923Y-114547657D01*
X270364019Y-114509561D01*
X270440209Y-114471466D01*
X270592590Y-114471466D01*
X270668780Y-114509561D01*
X270706876Y-114547657D01*
X270744971Y-114623847D01*
%TO.C,D1*%
X268052476Y-119030704D02*
X268052476Y-118230704D01*
X267862000Y-118230704D01*
X267747714Y-118268800D01*
X267671523Y-118344990D01*
X267633428Y-118421180D01*
X267595333Y-118573561D01*
X267595333Y-118687847D01*
X267633428Y-118840228D01*
X267671523Y-118916419D01*
X267747714Y-118992609D01*
X267862000Y-119030704D01*
X268052476Y-119030704D01*
X266833428Y-119030704D02*
X267290571Y-119030704D01*
X267062000Y-119030704D02*
X267062000Y-118230704D01*
X267138190Y-118344990D01*
X267214380Y-118421180D01*
X267290571Y-118459276D01*
D10*
%TO.C,C1*%
X273698580Y-115822000D02*
X273417420Y-115822000D01*
X273698580Y-116842000D02*
X273417420Y-116842000D01*
%TO.C,C2*%
X265682000Y-112916580D02*
X265682000Y-112635420D01*
X266702000Y-112916580D02*
X266702000Y-112635420D01*
%TO.C,C3*%
X264266000Y-110216836D02*
X264266000Y-110001164D01*
X263546000Y-110216836D02*
X263546000Y-110001164D01*
%TO.C,C4*%
X273444580Y-115318000D02*
X273163420Y-115318000D01*
X273444580Y-114298000D02*
X273163420Y-114298000D01*
%TO.C,C5*%
X267763164Y-113051000D02*
X267978836Y-113051000D01*
X267763164Y-113771000D02*
X267978836Y-113771000D01*
%TO.C,C6*%
X269132164Y-114194000D02*
X269347836Y-114194000D01*
X269132164Y-114914000D02*
X269347836Y-114914000D01*
%TO.C,D1*%
X268708000Y-119292000D02*
X268708000Y-120992000D01*
X268708000Y-119292000D02*
X266158000Y-119292000D01*
X268708000Y-120992000D02*
X266158000Y-120992000D01*
%TO.C,J1*%
X265615000Y-107625000D02*
X265615000Y-110725000D01*
X275405000Y-110725000D02*
X274510000Y-110725000D01*
X265615000Y-110725000D02*
X266510000Y-110725000D01*
X275410000Y-107620000D02*
X275410000Y-110725000D01*
%TD*%
%LPC*%
D16*
%TO.C,SW1*%
X275590000Y-118110000D03*
D17*
X270510000Y-118110000D03*
D16*
X265430000Y-118110000D03*
D18*
X273050000Y-113030000D03*
X266700000Y-115570000D03*
%TD*%
D19*
%TO.C,J2*%
X276479000Y-108077000D03*
%TD*%
%TO.C,J8*%
X264541000Y-108077000D03*
%TD*%
%TO.C,J9*%
X276479000Y-125603000D03*
%TD*%
%TO.C,J7*%
X264541000Y-125603000D03*
%TD*%
D20*
%TO.C,C1*%
X274333000Y-116332000D03*
X272783000Y-116332000D03*
%TD*%
D21*
%TO.C,C2*%
X266192000Y-113551000D03*
X266192000Y-112001000D03*
%TD*%
D22*
%TO.C,C3*%
X263906000Y-110589000D03*
X263906000Y-109629000D03*
%TD*%
D20*
%TO.C,C4*%
X274079000Y-114808000D03*
X272529000Y-114808000D03*
%TD*%
D23*
%TO.C,C5*%
X267391000Y-113411000D03*
X268351000Y-113411000D03*
%TD*%
%TO.C,C6*%
X268760000Y-114554000D03*
X269720000Y-114554000D03*
%TD*%
D24*
%TO.C,D1*%
X268258000Y-120142000D03*
X266158000Y-120142000D03*
%TD*%
D25*
%TO.C,J1*%
X266125000Y-108315000D03*
X274895000Y-108315000D03*
D26*
X266760000Y-111125000D03*
X267260000Y-111125000D03*
X267760000Y-111125000D03*
X268260000Y-111125000D03*
X268760000Y-111125000D03*
X269260000Y-111125000D03*
X269760000Y-111125000D03*
X270260000Y-111125000D03*
X270760000Y-111125000D03*
X271260000Y-111125000D03*
X271760000Y-111125000D03*
X272260000Y-111125000D03*
X272760000Y-111125000D03*
X273260000Y-111125000D03*
X273760000Y-111125000D03*
X274260000Y-111125000D03*
%TD*%
D27*
%TO.C,J6*%
X279019000Y-108840000D03*
X279019000Y-110840000D03*
X279019000Y-112840000D03*
X279019000Y-114840000D03*
X279019000Y-116840000D03*
X279019000Y-118840000D03*
X279019000Y-120840000D03*
X279019000Y-122840000D03*
X279019000Y-124840000D03*
%TD*%
%TO.C,J5*%
X262001000Y-108840000D03*
D28*
X261501000Y-110840000D03*
D29*
X261501000Y-112840000D03*
D28*
X261501000Y-114840000D03*
D29*
X261501000Y-116840000D03*
D28*
X261501000Y-118840000D03*
D29*
X261501000Y-120840000D03*
D28*
X261501000Y-122840000D03*
D29*
X261501000Y-124840000D03*
D30*
X262751000Y-111340000D03*
X262751000Y-123340000D03*
X262751000Y-115340000D03*
X262751000Y-119340000D03*
%TD*%
M02*
