%TF.GenerationSoftware,KiCad,Pcbnew,(5.1.9)-1*%
%TF.CreationDate,2021-09-16T08:42:28+02:00*%
%TF.ProjectId,poly_kb,706f6c79-5f6b-4622-9e6b-696361645f70,rev?*%
%TF.SameCoordinates,Original*%
%TF.FileFunction,Legend,Top*%
%TF.FilePolarity,Positive*%
%FSLAX46Y46*%
G04 Gerber Fmt 4.6, Leading zero omitted, Abs format (unit mm)*
G04 Created by KiCad (PCBNEW (5.1.9)-1) date 2021-09-16 08:42:28*
%MOMM*%
%LPD*%
G01*
G04 APERTURE LIST*
%ADD10C,0.150000*%
%ADD11C,0.153000*%
%ADD12C,0.127000*%
%ADD13C,0.180000*%
%ADD14C,0.120000*%
%ADD15C,2.200000*%
%ADD16C,4.000000*%
%ADD17C,1.700000*%
%ADD18R,2.000000X1.500000*%
%ADD19R,1.500000X1.500000*%
%ADD20R,0.950000X0.800000*%
G04 APERTURE END LIST*
D10*
X265976666Y-121329404D02*
X265976666Y-120529404D01*
X266281428Y-120529404D01*
X266357619Y-120567500D01*
X266395714Y-120605595D01*
X266433809Y-120681785D01*
X266433809Y-120796071D01*
X266395714Y-120872261D01*
X266357619Y-120910357D01*
X266281428Y-120948452D01*
X265976666Y-120948452D01*
X267233809Y-121253214D02*
X267195714Y-121291309D01*
X267081428Y-121329404D01*
X267005238Y-121329404D01*
X266890952Y-121291309D01*
X266814761Y-121215119D01*
X266776666Y-121138928D01*
X266738571Y-120986547D01*
X266738571Y-120872261D01*
X266776666Y-120719880D01*
X266814761Y-120643690D01*
X266890952Y-120567500D01*
X267005238Y-120529404D01*
X267081428Y-120529404D01*
X267195714Y-120567500D01*
X267233809Y-120605595D01*
X267843333Y-120910357D02*
X267957619Y-120948452D01*
X267995714Y-120986547D01*
X268033809Y-121062738D01*
X268033809Y-121177023D01*
X267995714Y-121253214D01*
X267957619Y-121291309D01*
X267881428Y-121329404D01*
X267576666Y-121329404D01*
X267576666Y-120529404D01*
X267843333Y-120529404D01*
X267919523Y-120567500D01*
X267957619Y-120605595D01*
X267995714Y-120681785D01*
X267995714Y-120757976D01*
X267957619Y-120834166D01*
X267919523Y-120872261D01*
X267843333Y-120910357D01*
X267576666Y-120910357D01*
X268376666Y-121329404D02*
X268376666Y-120529404D01*
X268681428Y-120529404D01*
X268757619Y-120567500D01*
X268795714Y-120605595D01*
X268833809Y-120681785D01*
X268833809Y-120796071D01*
X268795714Y-120872261D01*
X268757619Y-120910357D01*
X268681428Y-120948452D01*
X268376666Y-120948452D01*
X269176666Y-120529404D02*
X269176666Y-121177023D01*
X269214761Y-121253214D01*
X269252857Y-121291309D01*
X269329047Y-121329404D01*
X269481428Y-121329404D01*
X269557619Y-121291309D01*
X269595714Y-121253214D01*
X269633809Y-121177023D01*
X269633809Y-120529404D01*
X270167142Y-120948452D02*
X270167142Y-121329404D01*
X269900476Y-120529404D02*
X270167142Y-120948452D01*
X270433809Y-120529404D01*
X270700476Y-121329404D02*
X270700476Y-120529404D01*
X271005238Y-120529404D01*
X271081428Y-120567500D01*
X271119523Y-120605595D01*
X271157619Y-120681785D01*
X271157619Y-120796071D01*
X271119523Y-120872261D01*
X271081428Y-120910357D01*
X271005238Y-120948452D01*
X270700476Y-120948452D01*
X271957619Y-121253214D02*
X271919523Y-121291309D01*
X271805238Y-121329404D01*
X271729047Y-121329404D01*
X271614761Y-121291309D01*
X271538571Y-121215119D01*
X271500476Y-121138928D01*
X271462380Y-120986547D01*
X271462380Y-120872261D01*
X271500476Y-120719880D01*
X271538571Y-120643690D01*
X271614761Y-120567500D01*
X271729047Y-120529404D01*
X271805238Y-120529404D01*
X271919523Y-120567500D01*
X271957619Y-120605595D01*
X272567142Y-120910357D02*
X272681428Y-120948452D01*
X272719523Y-120986547D01*
X272757619Y-121062738D01*
X272757619Y-121177023D01*
X272719523Y-121253214D01*
X272681428Y-121291309D01*
X272605238Y-121329404D01*
X272300476Y-121329404D01*
X272300476Y-120529404D01*
X272567142Y-120529404D01*
X272643333Y-120567500D01*
X272681428Y-120605595D01*
X272719523Y-120681785D01*
X272719523Y-120757976D01*
X272681428Y-120834166D01*
X272643333Y-120872261D01*
X272567142Y-120910357D01*
X272300476Y-120910357D01*
X273100476Y-121329404D02*
X273100476Y-120529404D01*
X273405238Y-120529404D01*
X273481428Y-120567500D01*
X273519523Y-120605595D01*
X273557619Y-120681785D01*
X273557619Y-120796071D01*
X273519523Y-120872261D01*
X273481428Y-120910357D01*
X273405238Y-120948452D01*
X273100476Y-120948452D01*
X273900476Y-120529404D02*
X273900476Y-121177023D01*
X273938571Y-121253214D01*
X273976666Y-121291309D01*
X274052857Y-121329404D01*
X274205238Y-121329404D01*
X274281428Y-121291309D01*
X274319523Y-121253214D01*
X274357619Y-121177023D01*
X274357619Y-120529404D01*
X274890952Y-120948452D02*
X274890952Y-121329404D01*
X274624285Y-120529404D02*
X274890952Y-120948452D01*
X275157619Y-120529404D01*
D11*
X275462976Y-125672809D02*
X275386785Y-125710904D01*
X275234404Y-125710904D01*
X275158214Y-125672809D01*
X275120119Y-125634714D01*
X275082023Y-125558523D01*
X275082023Y-125329952D01*
X275120119Y-125253761D01*
X275158214Y-125215666D01*
X275234404Y-125177571D01*
X275386785Y-125177571D01*
X275462976Y-125215666D01*
D12*
G36*
X265747500Y-107723000D02*
G01*
X265366500Y-107723000D01*
X265366500Y-107342000D01*
X265747500Y-107342000D01*
X265747500Y-107723000D01*
G37*
G36*
X263652000Y-107723000D02*
G01*
X260985000Y-107723000D01*
X260985000Y-107342000D01*
X263652000Y-107342000D01*
X263652000Y-107723000D01*
G37*
G36*
X263652000Y-126301500D02*
G01*
X260985000Y-126301500D01*
X260985000Y-125920500D01*
X263652000Y-125920500D01*
X263652000Y-126301500D01*
G37*
G36*
X265747500Y-126301500D02*
G01*
X265366500Y-126301500D01*
X265366500Y-125920500D01*
X265747500Y-125920500D01*
X265747500Y-126301500D01*
G37*
G36*
X275272500Y-107723000D02*
G01*
X270510000Y-107723000D01*
X270510000Y-107342000D01*
X275272500Y-107342000D01*
X275272500Y-107723000D01*
G37*
G36*
X275272500Y-126301500D02*
G01*
X270510000Y-126301500D01*
X270510000Y-125920500D01*
X275272500Y-125920500D01*
X275272500Y-126301500D01*
G37*
D13*
X270357600Y-108381800D02*
X269798800Y-108381800D01*
X271170400Y-109194600D02*
X270357600Y-108381800D01*
X277749000Y-109194600D02*
X271170400Y-109194600D01*
X266128500Y-109220000D02*
X267081000Y-108394500D01*
X263169400Y-109220000D02*
X266128500Y-109220000D01*
D11*
X277501357Y-125139404D02*
X277501357Y-124606071D01*
X277501357Y-124758452D02*
X277539452Y-124682261D01*
X277577547Y-124644166D01*
X277653738Y-124606071D01*
X277729928Y-124606071D01*
X276307552Y-123170914D02*
X276269457Y-123209009D01*
X276155171Y-123247104D01*
X276078981Y-123247104D01*
X275964695Y-123209009D01*
X275888504Y-123132819D01*
X275850409Y-123056628D01*
X275812314Y-122904247D01*
X275812314Y-122789961D01*
X275850409Y-122637580D01*
X275888504Y-122561390D01*
X275964695Y-122485200D01*
X276078981Y-122447104D01*
X276155171Y-122447104D01*
X276269457Y-122485200D01*
X276307552Y-122523295D01*
X277031362Y-123247104D02*
X276650409Y-123247104D01*
X276650409Y-122447104D01*
X277298028Y-123247104D02*
X277298028Y-122447104D01*
X277755171Y-123247104D02*
X277412314Y-122789961D01*
X277755171Y-122447104D02*
X277298028Y-122904247D01*
X275964695Y-121244734D02*
X275964695Y-120444734D01*
X276155171Y-120444734D01*
X276269457Y-120482830D01*
X276345647Y-120559020D01*
X276383743Y-120635210D01*
X276421838Y-120787591D01*
X276421838Y-120901877D01*
X276383743Y-121054258D01*
X276345647Y-121130449D01*
X276269457Y-121206639D01*
X276155171Y-121244734D01*
X275964695Y-121244734D01*
X276498028Y-120368544D02*
X277183743Y-121397115D01*
X277755171Y-121168544D02*
X277717076Y-121206639D01*
X277602790Y-121244734D01*
X277526600Y-121244734D01*
X277412314Y-121206639D01*
X277336124Y-121130449D01*
X277298028Y-121054258D01*
X277259933Y-120901877D01*
X277259933Y-120787591D01*
X277298028Y-120635210D01*
X277336124Y-120559020D01*
X277412314Y-120482830D01*
X277526600Y-120444734D01*
X277602790Y-120444734D01*
X277717076Y-120482830D01*
X277755171Y-120520925D01*
X276917076Y-119204273D02*
X277031362Y-119242368D01*
X277221838Y-119242368D01*
X277298028Y-119204273D01*
X277336124Y-119166178D01*
X277374219Y-119089987D01*
X277374219Y-119013797D01*
X277336124Y-118937606D01*
X277298028Y-118899511D01*
X277221838Y-118861416D01*
X277069457Y-118823321D01*
X276993266Y-118785225D01*
X276955171Y-118747130D01*
X276917076Y-118670940D01*
X276917076Y-118594749D01*
X276955171Y-118518559D01*
X276993266Y-118480464D01*
X277069457Y-118442368D01*
X277259933Y-118442368D01*
X277374219Y-118480464D01*
X277717076Y-119242368D02*
X277717076Y-118442368D01*
X276383742Y-117240002D02*
X276117076Y-116859050D01*
X275926599Y-117240002D02*
X275926599Y-116440002D01*
X276231361Y-116440002D01*
X276307552Y-116478098D01*
X276345647Y-116516193D01*
X276383742Y-116592383D01*
X276383742Y-116706669D01*
X276345647Y-116782859D01*
X276307552Y-116820955D01*
X276231361Y-116859050D01*
X275926599Y-116859050D01*
X276688504Y-117201907D02*
X276802790Y-117240002D01*
X276993266Y-117240002D01*
X277069457Y-117201907D01*
X277107552Y-117163812D01*
X277145647Y-117087621D01*
X277145647Y-117011431D01*
X277107552Y-116935240D01*
X277069457Y-116897145D01*
X276993266Y-116859050D01*
X276840885Y-116820955D01*
X276764695Y-116782859D01*
X276726599Y-116744764D01*
X276688504Y-116668574D01*
X276688504Y-116592383D01*
X276726599Y-116516193D01*
X276764695Y-116478098D01*
X276840885Y-116440002D01*
X277031361Y-116440002D01*
X277145647Y-116478098D01*
X277374218Y-116440002D02*
X277831361Y-116440002D01*
X277602790Y-117240002D02*
X277602790Y-116440002D01*
X277647400Y-115361980D02*
X277647400Y-114695314D01*
X277647400Y-114361980D02*
X277599780Y-114409600D01*
X277647400Y-114457219D01*
X277695019Y-114409600D01*
X277647400Y-114361980D01*
X277647400Y-114457219D01*
X275202791Y-112435270D02*
X275469457Y-113235270D01*
X275736124Y-112435270D01*
X276269457Y-112816223D02*
X276383743Y-112854318D01*
X276421838Y-112892413D01*
X276459934Y-112968604D01*
X276459934Y-113082889D01*
X276421838Y-113159080D01*
X276383743Y-113197175D01*
X276307553Y-113235270D01*
X276002791Y-113235270D01*
X276002791Y-112435270D01*
X276269457Y-112435270D01*
X276345648Y-112473366D01*
X276383743Y-112511461D01*
X276421838Y-112587651D01*
X276421838Y-112663842D01*
X276383743Y-112740032D01*
X276345648Y-112778127D01*
X276269457Y-112816223D01*
X276002791Y-112816223D01*
X276764696Y-113006699D02*
X277145648Y-113006699D01*
X276688505Y-113235270D02*
X276955172Y-112435270D01*
X277221838Y-113235270D01*
X277374219Y-112435270D02*
X277831362Y-112435270D01*
X277602791Y-113235270D02*
X277602791Y-112435270D01*
X275812314Y-110432904D02*
X276307552Y-110432904D01*
X276040886Y-110737666D01*
X276155171Y-110737666D01*
X276231362Y-110775761D01*
X276269457Y-110813857D01*
X276307552Y-110890047D01*
X276307552Y-111080523D01*
X276269457Y-111156714D01*
X276231362Y-111194809D01*
X276155171Y-111232904D01*
X275926600Y-111232904D01*
X275850410Y-111194809D01*
X275812314Y-111156714D01*
X276536124Y-110432904D02*
X276802791Y-111232904D01*
X277069457Y-110432904D01*
X277259933Y-110432904D02*
X277755171Y-110432904D01*
X277488505Y-110737666D01*
X277602791Y-110737666D01*
X277678981Y-110775761D01*
X277717076Y-110813857D01*
X277755171Y-110890047D01*
X277755171Y-111080523D01*
X277717076Y-111156714D01*
X277678981Y-111194809D01*
X277602791Y-111232904D01*
X277374219Y-111232904D01*
X277298029Y-111194809D01*
X277259933Y-111156714D01*
X275462976Y-108527809D02*
X275386785Y-108565904D01*
X275234404Y-108565904D01*
X275158214Y-108527809D01*
X275120119Y-108489714D01*
X275082023Y-108413523D01*
X275082023Y-108184952D01*
X275120119Y-108108761D01*
X275158214Y-108070666D01*
X275234404Y-108032571D01*
X275386785Y-108032571D01*
X275462976Y-108070666D01*
X266128476Y-108527809D02*
X266052285Y-108565904D01*
X265899904Y-108565904D01*
X265823714Y-108527809D01*
X265785619Y-108489714D01*
X265747523Y-108413523D01*
X265747523Y-108184952D01*
X265785619Y-108108761D01*
X265823714Y-108070666D01*
X265899904Y-108032571D01*
X266052285Y-108032571D01*
X266128476Y-108070666D01*
X265937976Y-125672809D02*
X265861785Y-125710904D01*
X265709404Y-125710904D01*
X265633214Y-125672809D01*
X265595119Y-125634714D01*
X265557023Y-125558523D01*
X265557023Y-125329952D01*
X265595119Y-125253761D01*
X265633214Y-125215666D01*
X265709404Y-125177571D01*
X265861785Y-125177571D01*
X265937976Y-125215666D01*
X263213857Y-125139404D02*
X263213857Y-124606071D01*
X263213857Y-124758452D02*
X263251952Y-124682261D01*
X263290047Y-124644166D01*
X263366238Y-124606071D01*
X263442428Y-124606071D01*
X263696542Y-123196314D02*
X263658447Y-123234409D01*
X263544161Y-123272504D01*
X263467971Y-123272504D01*
X263353685Y-123234409D01*
X263277494Y-123158219D01*
X263239399Y-123082028D01*
X263201304Y-122929647D01*
X263201304Y-122815361D01*
X263239399Y-122662980D01*
X263277494Y-122586790D01*
X263353685Y-122510600D01*
X263467971Y-122472504D01*
X263544161Y-122472504D01*
X263658447Y-122510600D01*
X263696542Y-122548695D01*
X264420352Y-123272504D02*
X264039399Y-123272504D01*
X264039399Y-122472504D01*
X264687018Y-123272504D02*
X264687018Y-122472504D01*
X265144161Y-123272504D02*
X264801304Y-122815361D01*
X265144161Y-122472504D02*
X264687018Y-122929647D01*
X263239399Y-121265904D02*
X263239399Y-120465904D01*
X263429875Y-120465904D01*
X263544161Y-120504000D01*
X263620351Y-120580190D01*
X263658447Y-120656380D01*
X263696542Y-120808761D01*
X263696542Y-120923047D01*
X263658447Y-121075428D01*
X263620351Y-121151619D01*
X263544161Y-121227809D01*
X263429875Y-121265904D01*
X263239399Y-121265904D01*
X263772732Y-120389714D02*
X264458447Y-121418285D01*
X265029875Y-121189714D02*
X264991780Y-121227809D01*
X264877494Y-121265904D01*
X264801304Y-121265904D01*
X264687018Y-121227809D01*
X264610828Y-121151619D01*
X264572732Y-121075428D01*
X264534637Y-120923047D01*
X264534637Y-120808761D01*
X264572732Y-120656380D01*
X264610828Y-120580190D01*
X264687018Y-120504000D01*
X264801304Y-120465904D01*
X264877494Y-120465904D01*
X264991780Y-120504000D01*
X265029875Y-120542095D01*
X263201304Y-119221209D02*
X263315590Y-119259304D01*
X263506066Y-119259304D01*
X263582256Y-119221209D01*
X263620352Y-119183114D01*
X263658447Y-119106923D01*
X263658447Y-119030733D01*
X263620352Y-118954542D01*
X263582256Y-118916447D01*
X263506066Y-118878352D01*
X263353685Y-118840257D01*
X263277494Y-118802161D01*
X263239399Y-118764066D01*
X263201304Y-118687876D01*
X263201304Y-118611685D01*
X263239399Y-118535495D01*
X263277494Y-118497400D01*
X263353685Y-118459304D01*
X263544161Y-118459304D01*
X263658447Y-118497400D01*
X264001304Y-119259304D02*
X264001304Y-118459304D01*
X263696542Y-117252704D02*
X263429876Y-116871752D01*
X263239399Y-117252704D02*
X263239399Y-116452704D01*
X263544161Y-116452704D01*
X263620352Y-116490800D01*
X263658447Y-116528895D01*
X263696542Y-116605085D01*
X263696542Y-116719371D01*
X263658447Y-116795561D01*
X263620352Y-116833657D01*
X263544161Y-116871752D01*
X263239399Y-116871752D01*
X264001304Y-117214609D02*
X264115590Y-117252704D01*
X264306066Y-117252704D01*
X264382257Y-117214609D01*
X264420352Y-117176514D01*
X264458447Y-117100323D01*
X264458447Y-117024133D01*
X264420352Y-116947942D01*
X264382257Y-116909847D01*
X264306066Y-116871752D01*
X264153685Y-116833657D01*
X264077495Y-116795561D01*
X264039399Y-116757466D01*
X264001304Y-116681276D01*
X264001304Y-116605085D01*
X264039399Y-116528895D01*
X264077495Y-116490800D01*
X264153685Y-116452704D01*
X264344161Y-116452704D01*
X264458447Y-116490800D01*
X264687018Y-116452704D02*
X265144161Y-116452704D01*
X264915590Y-117252704D02*
X264915590Y-116452704D01*
X263402771Y-115260380D02*
X263307533Y-115212761D01*
X263259914Y-115165142D01*
X263212295Y-115069904D01*
X263212295Y-114784190D01*
X263259914Y-114688952D01*
X263307533Y-114641333D01*
X263402771Y-114593714D01*
X263545628Y-114593714D01*
X263640866Y-114641333D01*
X263688485Y-114688952D01*
X263736104Y-114784190D01*
X263736104Y-115069904D01*
X263688485Y-115165142D01*
X263640866Y-115212761D01*
X263545628Y-115260380D01*
X263402771Y-115260380D01*
X263125114Y-112439504D02*
X263391780Y-113239504D01*
X263658447Y-112439504D01*
X264191780Y-112820457D02*
X264306066Y-112858552D01*
X264344161Y-112896647D01*
X264382257Y-112972838D01*
X264382257Y-113087123D01*
X264344161Y-113163314D01*
X264306066Y-113201409D01*
X264229876Y-113239504D01*
X263925114Y-113239504D01*
X263925114Y-112439504D01*
X264191780Y-112439504D01*
X264267971Y-112477600D01*
X264306066Y-112515695D01*
X264344161Y-112591885D01*
X264344161Y-112668076D01*
X264306066Y-112744266D01*
X264267971Y-112782361D01*
X264191780Y-112820457D01*
X263925114Y-112820457D01*
X264687019Y-113010933D02*
X265067971Y-113010933D01*
X264610828Y-113239504D02*
X264877495Y-112439504D01*
X265144161Y-113239504D01*
X265296542Y-112439504D02*
X265753685Y-112439504D01*
X265525114Y-113239504D02*
X265525114Y-112439504D01*
X263163209Y-110432904D02*
X263658447Y-110432904D01*
X263391781Y-110737666D01*
X263506066Y-110737666D01*
X263582257Y-110775761D01*
X263620352Y-110813857D01*
X263658447Y-110890047D01*
X263658447Y-111080523D01*
X263620352Y-111156714D01*
X263582257Y-111194809D01*
X263506066Y-111232904D01*
X263277495Y-111232904D01*
X263201305Y-111194809D01*
X263163209Y-111156714D01*
X263887019Y-110432904D02*
X264153686Y-111232904D01*
X264420352Y-110432904D01*
X264610828Y-110432904D02*
X265106066Y-110432904D01*
X264839400Y-110737666D01*
X264953686Y-110737666D01*
X265029876Y-110775761D01*
X265067971Y-110813857D01*
X265106066Y-110890047D01*
X265106066Y-111080523D01*
X265067971Y-111156714D01*
X265029876Y-111194809D01*
X264953686Y-111232904D01*
X264725114Y-111232904D01*
X264648924Y-111194809D01*
X264610828Y-111156714D01*
D14*
%TO.C,LED1*%
X271450000Y-110960000D02*
X268770000Y-110960000D01*
X268770000Y-107480000D02*
X272250000Y-107480000D01*
X268770000Y-110960000D02*
X268770000Y-110720000D01*
X268770000Y-107480000D02*
X268770000Y-107720000D01*
X272250000Y-107480000D02*
X272250000Y-107720000D01*
X271450000Y-110960000D02*
X272210000Y-110960000D01*
D10*
X273010000Y-108872380D02*
X273010000Y-108205714D01*
X273010000Y-107872380D02*
X272962380Y-107920000D01*
X273010000Y-107967619D01*
X273057619Y-107920000D01*
X273010000Y-107872380D01*
X273010000Y-107967619D01*
X267938571Y-110472380D02*
X267843333Y-110424761D01*
X267795714Y-110377142D01*
X267748095Y-110281904D01*
X267748095Y-109996190D01*
X267795714Y-109900952D01*
X267843333Y-109853333D01*
X267938571Y-109805714D01*
X268081428Y-109805714D01*
X268176666Y-109853333D01*
X268224285Y-109900952D01*
X268271904Y-109996190D01*
X268271904Y-110281904D01*
X268224285Y-110377142D01*
X268176666Y-110424761D01*
X268081428Y-110472380D01*
X267938571Y-110472380D01*
X272629047Y-110091428D02*
X273390952Y-110091428D01*
X267629047Y-108291428D02*
X268390952Y-108291428D01*
X268010000Y-108672380D02*
X268010000Y-107910476D01*
%TD*%
%LPC*%
D15*
%TO.C,SW1*%
X273050000Y-113030000D03*
X266700000Y-115570000D03*
D16*
X270510000Y-118110000D03*
D17*
X265430000Y-118110000D03*
X275590000Y-118110000D03*
%TD*%
D18*
%TO.C,J4*%
X279019000Y-124840000D03*
X279019000Y-122840000D03*
X279019000Y-120840000D03*
X279019000Y-108840000D03*
X279019000Y-118840000D03*
X279019000Y-110840000D03*
X279019000Y-112840000D03*
X279019000Y-114840000D03*
X279019000Y-116840000D03*
%TD*%
%TO.C,J3*%
X262001000Y-124840000D03*
X262001000Y-122840000D03*
X262001000Y-120840000D03*
X262001000Y-108840000D03*
X262001000Y-118840000D03*
X262001000Y-110840000D03*
X262001000Y-112840000D03*
X262001000Y-114840000D03*
X262001000Y-116840000D03*
%TD*%
D19*
%TO.C,J9*%
X276479000Y-125603000D03*
%TD*%
%TO.C,J8*%
X264541000Y-108077000D03*
%TD*%
%TO.C,J7*%
X264541000Y-125603000D03*
%TD*%
%TO.C,J2*%
X276479000Y-108077000D03*
%TD*%
D20*
%TO.C,LED1*%
X271875000Y-108330000D03*
X269145000Y-108330000D03*
X271875000Y-110110000D03*
X269145000Y-110110000D03*
%TD*%
M02*
