%TF.GenerationSoftware,KiCad,Pcbnew,(6.0.1)*%
%TF.CreationDate,2022-01-27T11:35:44+01:00*%
%TF.ProjectId,poly_kb,706f6c79-5f6b-4622-9e6b-696361645f70,rev?*%
%TF.SameCoordinates,Original*%
%TF.FileFunction,Soldermask,Bot*%
%TF.FilePolarity,Negative*%
%FSLAX46Y46*%
G04 Gerber Fmt 4.6, Leading zero omitted, Abs format (unit mm)*
G04 Created by KiCad (PCBNEW (6.0.1)) date 2022-01-27 11:35:44*
%MOMM*%
%LPD*%
G01*
G04 APERTURE LIST*
G04 Aperture macros list*
%AMRoundRect*
0 Rectangle with rounded corners*
0 $1 Rounding radius*
0 $2 $3 $4 $5 $6 $7 $8 $9 X,Y pos of 4 corners*
0 Add a 4 corners polygon primitive as box body*
4,1,4,$2,$3,$4,$5,$6,$7,$8,$9,$2,$3,0*
0 Add four circle primitives for the rounded corners*
1,1,$1+$1,$2,$3*
1,1,$1+$1,$4,$5*
1,1,$1+$1,$6,$7*
1,1,$1+$1,$8,$9*
0 Add four rect primitives between the rounded corners*
20,1,$1+$1,$2,$3,$4,$5,0*
20,1,$1+$1,$4,$5,$6,$7,0*
20,1,$1+$1,$6,$7,$8,$9,0*
20,1,$1+$1,$8,$9,$2,$3,0*%
%AMFreePoly0*
4,1,6,0.750000,-1.500000,0.450000,-1.500000,-0.750000,-0.300000,-0.750000,0.500000,0.750000,0.500000,0.750000,-1.500000,0.750000,-1.500000,$1*%
%AMFreePoly1*
4,1,6,0.750000,-0.300000,-0.450000,-1.500000,-0.750000,-1.500000,-0.750000,0.500000,0.750000,0.500000,0.750000,-0.300000,0.750000,-0.300000,$1*%
%AMFreePoly2*
4,1,5,0.750000,-0.650000,0.250000,-0.650000,-0.650000,0.250000,1.650000,0.250000,0.750000,-0.650000,0.750000,-0.650000,$1*%
G04 Aperture macros list end*
%ADD10C,1.700000*%
%ADD11C,4.000000*%
%ADD12C,2.200000*%
%ADD13R,1.500000X1.500000*%
%ADD14RoundRect,0.225000X0.225000X0.250000X-0.225000X0.250000X-0.225000X-0.250000X0.225000X-0.250000X0*%
%ADD15RoundRect,0.225000X0.250000X-0.225000X0.250000X0.225000X-0.250000X0.225000X-0.250000X-0.225000X0*%
%ADD16RoundRect,0.140000X0.170000X-0.140000X0.170000X0.140000X-0.170000X0.140000X-0.170000X-0.140000X0*%
%ADD17RoundRect,0.140000X-0.140000X-0.170000X0.140000X-0.170000X0.140000X0.170000X-0.140000X0.170000X0*%
%ADD18R,0.600000X0.450000*%
%ADD19R,0.300000X1.150000*%
%ADD20R,0.300000X0.650000*%
%ADD21R,2.000000X1.500000*%
%ADD22FreePoly0,90.000000*%
%ADD23FreePoly1,90.000000*%
%ADD24FreePoly2,270.000000*%
G04 APERTURE END LIST*
D10*
%TO.C,SW1*%
X275590000Y-118110000D03*
D11*
X270510000Y-118110000D03*
D10*
X265430000Y-118110000D03*
D12*
X273050000Y-113030000D03*
X266700000Y-115570000D03*
%TD*%
D13*
%TO.C,J2*%
X276479000Y-108077000D03*
%TD*%
%TO.C,J8*%
X264541000Y-108077000D03*
%TD*%
%TO.C,J9*%
X276479000Y-125603000D03*
%TD*%
%TO.C,J7*%
X264541000Y-125603000D03*
%TD*%
D14*
%TO.C,C1*%
X274333000Y-116332000D03*
X272783000Y-116332000D03*
%TD*%
D15*
%TO.C,C2*%
X266192000Y-113551000D03*
X266192000Y-112001000D03*
%TD*%
D16*
%TO.C,C3*%
X263906000Y-110589000D03*
X263906000Y-109629000D03*
%TD*%
D14*
%TO.C,C4*%
X274079000Y-114808000D03*
X272529000Y-114808000D03*
%TD*%
D17*
%TO.C,C5*%
X267391000Y-113411000D03*
X268351000Y-113411000D03*
%TD*%
%TO.C,C6*%
X268760000Y-114554000D03*
X269720000Y-114554000D03*
%TD*%
D18*
%TO.C,D1*%
X268258000Y-120142000D03*
X266158000Y-120142000D03*
%TD*%
D19*
%TO.C,J1*%
X266125000Y-108315000D03*
X274895000Y-108315000D03*
D20*
X266760000Y-111125000D03*
X267260000Y-111125000D03*
X267760000Y-111125000D03*
X268260000Y-111125000D03*
X268760000Y-111125000D03*
X269260000Y-111125000D03*
X269760000Y-111125000D03*
X270260000Y-111125000D03*
X270760000Y-111125000D03*
X271260000Y-111125000D03*
X271760000Y-111125000D03*
X272260000Y-111125000D03*
X272760000Y-111125000D03*
X273260000Y-111125000D03*
X273760000Y-111125000D03*
X274260000Y-111125000D03*
%TD*%
D21*
%TO.C,J6*%
X279019000Y-108840000D03*
X279019000Y-110840000D03*
X279019000Y-112840000D03*
X279019000Y-114840000D03*
X279019000Y-116840000D03*
X279019000Y-118840000D03*
X279019000Y-120840000D03*
X279019000Y-122840000D03*
X279019000Y-124840000D03*
%TD*%
%TO.C,J5*%
X262001000Y-108840000D03*
D22*
X261501000Y-110840000D03*
D23*
X261501000Y-112840000D03*
D22*
X261501000Y-114840000D03*
D23*
X261501000Y-116840000D03*
D22*
X261501000Y-118840000D03*
D23*
X261501000Y-120840000D03*
D22*
X261501000Y-122840000D03*
D23*
X261501000Y-124840000D03*
D24*
X262751000Y-111340000D03*
X262751000Y-123340000D03*
X262751000Y-115340000D03*
X262751000Y-119340000D03*
%TD*%
M02*
