%TF.GenerationSoftware,KiCad,Pcbnew,(5.1.9)-1*%
%TF.CreationDate,2021-09-16T08:42:28+02:00*%
%TF.ProjectId,poly_kb,706f6c79-5f6b-4622-9e6b-696361645f70,rev?*%
%TF.SameCoordinates,Original*%
%TF.FileFunction,Other,Comment*%
%FSLAX46Y46*%
G04 Gerber Fmt 4.6, Leading zero omitted, Abs format (unit mm)*
G04 Created by KiCad (PCBNEW (5.1.9)-1) date 2021-09-16 08:42:28*
%MOMM*%
%LPD*%
G01*
G04 APERTURE LIST*
%ADD10C,0.150000*%
G04 APERTURE END LIST*
D10*
X268105238Y-123610642D02*
X268057619Y-123658261D01*
X267914761Y-123705880D01*
X267819523Y-123705880D01*
X267676666Y-123658261D01*
X267581428Y-123563023D01*
X267533809Y-123467785D01*
X267486190Y-123277309D01*
X267486190Y-123134452D01*
X267533809Y-122943976D01*
X267581428Y-122848738D01*
X267676666Y-122753500D01*
X267819523Y-122705880D01*
X267914761Y-122705880D01*
X268057619Y-122753500D01*
X268105238Y-122801119D01*
X268533809Y-122705880D02*
X268533809Y-123515404D01*
X268581428Y-123610642D01*
X268629047Y-123658261D01*
X268724285Y-123705880D01*
X268914761Y-123705880D01*
X269010000Y-123658261D01*
X269057619Y-123610642D01*
X269105238Y-123515404D01*
X269105238Y-122705880D01*
X269438571Y-122705880D02*
X270010000Y-122705880D01*
X269724285Y-123705880D02*
X269724285Y-122705880D01*
X271295714Y-122705880D02*
X271486190Y-122705880D01*
X271581428Y-122753500D01*
X271676666Y-122848738D01*
X271724285Y-123039214D01*
X271724285Y-123372547D01*
X271676666Y-123563023D01*
X271581428Y-123658261D01*
X271486190Y-123705880D01*
X271295714Y-123705880D01*
X271200476Y-123658261D01*
X271105238Y-123563023D01*
X271057619Y-123372547D01*
X271057619Y-123039214D01*
X271105238Y-122848738D01*
X271200476Y-122753500D01*
X271295714Y-122705880D01*
X272152857Y-122705880D02*
X272152857Y-123515404D01*
X272200476Y-123610642D01*
X272248095Y-123658261D01*
X272343333Y-123705880D01*
X272533809Y-123705880D01*
X272629047Y-123658261D01*
X272676666Y-123610642D01*
X272724285Y-123515404D01*
X272724285Y-122705880D01*
X273057619Y-122705880D02*
X273629047Y-122705880D01*
X273343333Y-123705880D02*
X273343333Y-122705880D01*
M02*
