%FSLAX45Y45*%
G04 Gerber Fmt 4.5, Leading zero omitted, Abs format (unit mm)*
G04 Created by KiCad (PCBNEW (6.0.1)) date 2022-01-27 11:35:48*
%MOMM*%
%LPD*%
G01*
G04 APERTURE LIST*
%TA.AperFunction,Profile*%
%ADD10C,0.050000*%
%TD*%
%ADD11C,0.200000*%
%ADD12C,0.170000*%
%ADD13C,0.400000*%
G04 APERTURE END LIST*
D10*
X28003500Y-10731500D02*
X26098500Y-10731500D01*
X26098500Y-10731500D02*
X26098500Y-12636500D01*
X28003500Y-10731500D02*
X28003500Y-12636500D01*
X28003500Y-12636500D02*
X26098500Y-12636500D01*
X27470100Y-12407900D02*
G75*
G03*
X27470100Y-12230100I0J88900D01*
G01*
X27470100Y-12230100D02*
X26631900Y-12230100D01*
X26631900Y-12230100D02*
G75*
G03*
X26631900Y-12407900I0J-88900D01*
G01*
X27470100Y-12407900D02*
X26631900Y-12407900D01*
D11*
D12*
X26458000Y-11726000D02*
X26628000Y-11896000D01*
X26628000Y-11726000D02*
X26458000Y-11896000D01*
X27474000Y-11726000D02*
X27644000Y-11896000D01*
X27644000Y-11726000D02*
X27474000Y-11896000D01*
D13*
X27251000Y-11811000D02*
G75*
G03*
X27251000Y-11811000I-200000J0D01*
G01*
D11*
X26353619Y-12949476D02*
X26353619Y-12749476D01*
X26401238Y-12749476D01*
X26429809Y-12759000D01*
X26448857Y-12778048D01*
X26458381Y-12797095D01*
X26467905Y-12835190D01*
X26467905Y-12863762D01*
X26458381Y-12901857D01*
X26448857Y-12920905D01*
X26429809Y-12939952D01*
X26401238Y-12949476D01*
X26353619Y-12949476D01*
X26553619Y-12949476D02*
X26553619Y-12816143D01*
X26553619Y-12854238D02*
X26563143Y-12835190D01*
X26572667Y-12825667D01*
X26591714Y-12816143D01*
X26610762Y-12816143D01*
X26677428Y-12949476D02*
X26677428Y-12816143D01*
X26677428Y-12749476D02*
X26667905Y-12759000D01*
X26677428Y-12768524D01*
X26686952Y-12759000D01*
X26677428Y-12749476D01*
X26677428Y-12768524D01*
X26801238Y-12949476D02*
X26782190Y-12939952D01*
X26772667Y-12920905D01*
X26772667Y-12749476D01*
X26906000Y-12949476D02*
X26886952Y-12939952D01*
X26877428Y-12920905D01*
X26877428Y-12749476D01*
X27134571Y-12949476D02*
X27134571Y-12749476D01*
X27201238Y-12892333D01*
X27267905Y-12749476D01*
X27267905Y-12949476D01*
X27448857Y-12949476D02*
X27448857Y-12844714D01*
X27439333Y-12825667D01*
X27420286Y-12816143D01*
X27382190Y-12816143D01*
X27363143Y-12825667D01*
X27448857Y-12939952D02*
X27429809Y-12949476D01*
X27382190Y-12949476D01*
X27363143Y-12939952D01*
X27353619Y-12920905D01*
X27353619Y-12901857D01*
X27363143Y-12882809D01*
X27382190Y-12873286D01*
X27429809Y-12873286D01*
X27448857Y-12863762D01*
X27544095Y-12816143D02*
X27544095Y-13016143D01*
X27544095Y-12825667D02*
X27563143Y-12816143D01*
X27601238Y-12816143D01*
X27620286Y-12825667D01*
X27629809Y-12835190D01*
X27639333Y-12854238D01*
X27639333Y-12911381D01*
X27629809Y-12930428D01*
X27620286Y-12939952D01*
X27601238Y-12949476D01*
X27563143Y-12949476D01*
X27544095Y-12939952D01*
X27725048Y-12930428D02*
X27734571Y-12939952D01*
X27725048Y-12949476D01*
X27715524Y-12939952D01*
X27725048Y-12930428D01*
X27725048Y-12949476D01*
X27725048Y-12825667D02*
X27734571Y-12835190D01*
X27725048Y-12844714D01*
X27715524Y-12835190D01*
X27725048Y-12825667D01*
X27725048Y-12844714D01*
D12*
X25926000Y-13194000D02*
X26096000Y-13364000D01*
X26096000Y-13194000D02*
X25926000Y-13364000D01*
D11*
X26458381Y-13369476D02*
X26344095Y-13369476D01*
X26401238Y-13369476D02*
X26401238Y-13169476D01*
X26382190Y-13198048D01*
X26363143Y-13217095D01*
X26344095Y-13226619D01*
X26544095Y-13350428D02*
X26553619Y-13359952D01*
X26544095Y-13369476D01*
X26534571Y-13359952D01*
X26544095Y-13350428D01*
X26544095Y-13369476D01*
X26620286Y-13169476D02*
X26753619Y-13169476D01*
X26667905Y-13369476D01*
X26867905Y-13169476D02*
X26886952Y-13169476D01*
X26906000Y-13179000D01*
X26915524Y-13188524D01*
X26925048Y-13207571D01*
X26934571Y-13245667D01*
X26934571Y-13293286D01*
X26925048Y-13331381D01*
X26915524Y-13350428D01*
X26906000Y-13359952D01*
X26886952Y-13369476D01*
X26867905Y-13369476D01*
X26848857Y-13359952D01*
X26839333Y-13350428D01*
X26829809Y-13331381D01*
X26820286Y-13293286D01*
X26820286Y-13245667D01*
X26829809Y-13207571D01*
X26839333Y-13188524D01*
X26848857Y-13179000D01*
X26867905Y-13169476D01*
X27058381Y-13169476D02*
X27077428Y-13169476D01*
X27096476Y-13179000D01*
X27106000Y-13188524D01*
X27115524Y-13207571D01*
X27125048Y-13245667D01*
X27125048Y-13293286D01*
X27115524Y-13331381D01*
X27106000Y-13350428D01*
X27096476Y-13359952D01*
X27077428Y-13369476D01*
X27058381Y-13369476D01*
X27039333Y-13359952D01*
X27029809Y-13350428D01*
X27020286Y-13331381D01*
X27010762Y-13293286D01*
X27010762Y-13245667D01*
X27020286Y-13207571D01*
X27029809Y-13188524D01*
X27039333Y-13179000D01*
X27058381Y-13169476D01*
X27210762Y-13369476D02*
X27210762Y-13236143D01*
X27210762Y-13255190D02*
X27220286Y-13245667D01*
X27239333Y-13236143D01*
X27267905Y-13236143D01*
X27286952Y-13245667D01*
X27296476Y-13264714D01*
X27296476Y-13369476D01*
X27296476Y-13264714D02*
X27306000Y-13245667D01*
X27325048Y-13236143D01*
X27353619Y-13236143D01*
X27372667Y-13245667D01*
X27382190Y-13264714D01*
X27382190Y-13369476D01*
X27477428Y-13369476D02*
X27477428Y-13236143D01*
X27477428Y-13255190D02*
X27486952Y-13245667D01*
X27506000Y-13236143D01*
X27534571Y-13236143D01*
X27553619Y-13245667D01*
X27563143Y-13264714D01*
X27563143Y-13369476D01*
X27563143Y-13264714D02*
X27572667Y-13245667D01*
X27591714Y-13236143D01*
X27620286Y-13236143D01*
X27639333Y-13245667D01*
X27648857Y-13264714D01*
X27648857Y-13369476D01*
X28039333Y-13159952D02*
X27867905Y-13417095D01*
X28296476Y-13169476D02*
X28315524Y-13169476D01*
X28334571Y-13179000D01*
X28344095Y-13188524D01*
X28353619Y-13207571D01*
X28363143Y-13245667D01*
X28363143Y-13293286D01*
X28353619Y-13331381D01*
X28344095Y-13350428D01*
X28334571Y-13359952D01*
X28315524Y-13369476D01*
X28296476Y-13369476D01*
X28277428Y-13359952D01*
X28267905Y-13350428D01*
X28258381Y-13331381D01*
X28248857Y-13293286D01*
X28248857Y-13245667D01*
X28258381Y-13207571D01*
X28267905Y-13188524D01*
X28277428Y-13179000D01*
X28296476Y-13169476D01*
X28448857Y-13350428D02*
X28458381Y-13359952D01*
X28448857Y-13369476D01*
X28439333Y-13359952D01*
X28448857Y-13350428D01*
X28448857Y-13369476D01*
X28582190Y-13169476D02*
X28601238Y-13169476D01*
X28620286Y-13179000D01*
X28629809Y-13188524D01*
X28639333Y-13207571D01*
X28648857Y-13245667D01*
X28648857Y-13293286D01*
X28639333Y-13331381D01*
X28629809Y-13350428D01*
X28620286Y-13359952D01*
X28601238Y-13369476D01*
X28582190Y-13369476D01*
X28563143Y-13359952D01*
X28553619Y-13350428D01*
X28544095Y-13331381D01*
X28534571Y-13293286D01*
X28534571Y-13245667D01*
X28544095Y-13207571D01*
X28553619Y-13188524D01*
X28563143Y-13179000D01*
X28582190Y-13169476D01*
X28820286Y-13169476D02*
X28782190Y-13169476D01*
X28763143Y-13179000D01*
X28753619Y-13188524D01*
X28734571Y-13217095D01*
X28725048Y-13255190D01*
X28725048Y-13331381D01*
X28734571Y-13350428D01*
X28744095Y-13359952D01*
X28763143Y-13369476D01*
X28801238Y-13369476D01*
X28820286Y-13359952D01*
X28829809Y-13350428D01*
X28839333Y-13331381D01*
X28839333Y-13283762D01*
X28829809Y-13264714D01*
X28820286Y-13255190D01*
X28801238Y-13245667D01*
X28763143Y-13245667D01*
X28744095Y-13255190D01*
X28734571Y-13264714D01*
X28725048Y-13283762D01*
X29010762Y-13169476D02*
X28972667Y-13169476D01*
X28953619Y-13179000D01*
X28944095Y-13188524D01*
X28925048Y-13217095D01*
X28915524Y-13255190D01*
X28915524Y-13331381D01*
X28925048Y-13350428D01*
X28934571Y-13359952D01*
X28953619Y-13369476D01*
X28991714Y-13369476D01*
X29010762Y-13359952D01*
X29020286Y-13350428D01*
X29029809Y-13331381D01*
X29029809Y-13283762D01*
X29020286Y-13264714D01*
X29010762Y-13255190D01*
X28991714Y-13245667D01*
X28953619Y-13245667D01*
X28934571Y-13255190D01*
X28925048Y-13264714D01*
X28915524Y-13283762D01*
X29125048Y-13369476D02*
X29163143Y-13369476D01*
X29182190Y-13359952D01*
X29191714Y-13350428D01*
X29210762Y-13321857D01*
X29220286Y-13283762D01*
X29220286Y-13207571D01*
X29210762Y-13188524D01*
X29201238Y-13179000D01*
X29182190Y-13169476D01*
X29144095Y-13169476D01*
X29125048Y-13179000D01*
X29115524Y-13188524D01*
X29106000Y-13207571D01*
X29106000Y-13255190D01*
X29115524Y-13274238D01*
X29125048Y-13283762D01*
X29144095Y-13293286D01*
X29182190Y-13293286D01*
X29201238Y-13283762D01*
X29210762Y-13274238D01*
X29220286Y-13255190D01*
X29296476Y-13169476D02*
X29296476Y-13207571D01*
X29372667Y-13169476D02*
X29372667Y-13207571D01*
X29667905Y-13445667D02*
X29658381Y-13436143D01*
X29639333Y-13407571D01*
X29629809Y-13388524D01*
X29620286Y-13359952D01*
X29610762Y-13312333D01*
X29610762Y-13274238D01*
X29620286Y-13226619D01*
X29629809Y-13198048D01*
X29639333Y-13179000D01*
X29658381Y-13150428D01*
X29667905Y-13140905D01*
X29734571Y-13188524D02*
X29744095Y-13179000D01*
X29763143Y-13169476D01*
X29810762Y-13169476D01*
X29829809Y-13179000D01*
X29839333Y-13188524D01*
X29848857Y-13207571D01*
X29848857Y-13226619D01*
X29839333Y-13255190D01*
X29725048Y-13369476D01*
X29848857Y-13369476D01*
X30086952Y-13369476D02*
X30086952Y-13169476D01*
X30172667Y-13369476D02*
X30172667Y-13264714D01*
X30163143Y-13245667D01*
X30144095Y-13236143D01*
X30115524Y-13236143D01*
X30096476Y-13245667D01*
X30086952Y-13255190D01*
X30296476Y-13369476D02*
X30277428Y-13359952D01*
X30267905Y-13350428D01*
X30258381Y-13331381D01*
X30258381Y-13274238D01*
X30267905Y-13255190D01*
X30277428Y-13245667D01*
X30296476Y-13236143D01*
X30325048Y-13236143D01*
X30344095Y-13245667D01*
X30353619Y-13255190D01*
X30363143Y-13274238D01*
X30363143Y-13331381D01*
X30353619Y-13350428D01*
X30344095Y-13359952D01*
X30325048Y-13369476D01*
X30296476Y-13369476D01*
X30477428Y-13369476D02*
X30458381Y-13359952D01*
X30448857Y-13340905D01*
X30448857Y-13169476D01*
X30629809Y-13359952D02*
X30610762Y-13369476D01*
X30572667Y-13369476D01*
X30553619Y-13359952D01*
X30544095Y-13340905D01*
X30544095Y-13264714D01*
X30553619Y-13245667D01*
X30572667Y-13236143D01*
X30610762Y-13236143D01*
X30629809Y-13245667D01*
X30639333Y-13264714D01*
X30639333Y-13283762D01*
X30544095Y-13302809D01*
X30715524Y-13359952D02*
X30734571Y-13369476D01*
X30772667Y-13369476D01*
X30791714Y-13359952D01*
X30801238Y-13340905D01*
X30801238Y-13331381D01*
X30791714Y-13312333D01*
X30772667Y-13302809D01*
X30744095Y-13302809D01*
X30725048Y-13293286D01*
X30715524Y-13274238D01*
X30715524Y-13264714D01*
X30725048Y-13245667D01*
X30744095Y-13236143D01*
X30772667Y-13236143D01*
X30791714Y-13245667D01*
X30867905Y-13445667D02*
X30877428Y-13436143D01*
X30896476Y-13407571D01*
X30906000Y-13388524D01*
X30915524Y-13359952D01*
X30925048Y-13312333D01*
X30925048Y-13274238D01*
X30915524Y-13226619D01*
X30906000Y-13198048D01*
X30896476Y-13179000D01*
X30877428Y-13150428D01*
X30867905Y-13140905D01*
X31229809Y-13445667D02*
X31220286Y-13436143D01*
X31201238Y-13407571D01*
X31191714Y-13388524D01*
X31182190Y-13359952D01*
X31172667Y-13312333D01*
X31172667Y-13274238D01*
X31182190Y-13226619D01*
X31191714Y-13198048D01*
X31201238Y-13179000D01*
X31220286Y-13150428D01*
X31229809Y-13140905D01*
X31306000Y-13236143D02*
X31306000Y-13369476D01*
X31306000Y-13255190D02*
X31315524Y-13245667D01*
X31334571Y-13236143D01*
X31363143Y-13236143D01*
X31382190Y-13245667D01*
X31391714Y-13264714D01*
X31391714Y-13369476D01*
X31515524Y-13369476D02*
X31496476Y-13359952D01*
X31486952Y-13350428D01*
X31477428Y-13331381D01*
X31477428Y-13274238D01*
X31486952Y-13255190D01*
X31496476Y-13245667D01*
X31515524Y-13236143D01*
X31544095Y-13236143D01*
X31563143Y-13245667D01*
X31572667Y-13255190D01*
X31582190Y-13274238D01*
X31582190Y-13331381D01*
X31572667Y-13350428D01*
X31563143Y-13359952D01*
X31544095Y-13369476D01*
X31515524Y-13369476D01*
X31639333Y-13236143D02*
X31715524Y-13236143D01*
X31667905Y-13169476D02*
X31667905Y-13340905D01*
X31677428Y-13359952D01*
X31696476Y-13369476D01*
X31715524Y-13369476D01*
X31934571Y-13236143D02*
X31934571Y-13436143D01*
X31934571Y-13245667D02*
X31953619Y-13236143D01*
X31991714Y-13236143D01*
X32010762Y-13245667D01*
X32020286Y-13255190D01*
X32029809Y-13274238D01*
X32029809Y-13331381D01*
X32020286Y-13350428D01*
X32010762Y-13359952D01*
X31991714Y-13369476D01*
X31953619Y-13369476D01*
X31934571Y-13359952D01*
X32144095Y-13369476D02*
X32125048Y-13359952D01*
X32115524Y-13340905D01*
X32115524Y-13169476D01*
X32306000Y-13369476D02*
X32306000Y-13264714D01*
X32296476Y-13245667D01*
X32277428Y-13236143D01*
X32239333Y-13236143D01*
X32220286Y-13245667D01*
X32306000Y-13359952D02*
X32286952Y-13369476D01*
X32239333Y-13369476D01*
X32220286Y-13359952D01*
X32210762Y-13340905D01*
X32210762Y-13321857D01*
X32220286Y-13302809D01*
X32239333Y-13293286D01*
X32286952Y-13293286D01*
X32306000Y-13283762D01*
X32372667Y-13236143D02*
X32448857Y-13236143D01*
X32401238Y-13169476D02*
X32401238Y-13340905D01*
X32410762Y-13359952D01*
X32429809Y-13369476D01*
X32448857Y-13369476D01*
X32591714Y-13359952D02*
X32572667Y-13369476D01*
X32534571Y-13369476D01*
X32515524Y-13359952D01*
X32506000Y-13340905D01*
X32506000Y-13264714D01*
X32515524Y-13245667D01*
X32534571Y-13236143D01*
X32572667Y-13236143D01*
X32591714Y-13245667D01*
X32601238Y-13264714D01*
X32601238Y-13283762D01*
X32506000Y-13302809D01*
X32772667Y-13369476D02*
X32772667Y-13169476D01*
X32772667Y-13359952D02*
X32753619Y-13369476D01*
X32715524Y-13369476D01*
X32696476Y-13359952D01*
X32686952Y-13350428D01*
X32677428Y-13331381D01*
X32677428Y-13274238D01*
X32686952Y-13255190D01*
X32696476Y-13245667D01*
X32715524Y-13236143D01*
X32753619Y-13236143D01*
X32772667Y-13245667D01*
X32848857Y-13445667D02*
X32858381Y-13436143D01*
X32877428Y-13407571D01*
X32886952Y-13388524D01*
X32896476Y-13359952D01*
X32906000Y-13312333D01*
X32906000Y-13274238D01*
X32896476Y-13226619D01*
X32886952Y-13198048D01*
X32877428Y-13179000D01*
X32858381Y-13150428D01*
X32848857Y-13140905D01*
X26096000Y-13569000D02*
G75*
G03*
X26096000Y-13569000I-100000J0D01*
G01*
X26439333Y-13526143D02*
X26439333Y-13659476D01*
X26391714Y-13449952D02*
X26344095Y-13592809D01*
X26467905Y-13592809D01*
X26544095Y-13640428D02*
X26553619Y-13649952D01*
X26544095Y-13659476D01*
X26534571Y-13649952D01*
X26544095Y-13640428D01*
X26544095Y-13659476D01*
X26677428Y-13459476D02*
X26696476Y-13459476D01*
X26715524Y-13469000D01*
X26725048Y-13478524D01*
X26734571Y-13497571D01*
X26744095Y-13535667D01*
X26744095Y-13583286D01*
X26734571Y-13621381D01*
X26725048Y-13640428D01*
X26715524Y-13649952D01*
X26696476Y-13659476D01*
X26677428Y-13659476D01*
X26658381Y-13649952D01*
X26648857Y-13640428D01*
X26639333Y-13621381D01*
X26629809Y-13583286D01*
X26629809Y-13535667D01*
X26639333Y-13497571D01*
X26648857Y-13478524D01*
X26658381Y-13469000D01*
X26677428Y-13459476D01*
X26867905Y-13459476D02*
X26886952Y-13459476D01*
X26906000Y-13469000D01*
X26915524Y-13478524D01*
X26925048Y-13497571D01*
X26934571Y-13535667D01*
X26934571Y-13583286D01*
X26925048Y-13621381D01*
X26915524Y-13640428D01*
X26906000Y-13649952D01*
X26886952Y-13659476D01*
X26867905Y-13659476D01*
X26848857Y-13649952D01*
X26839333Y-13640428D01*
X26829809Y-13621381D01*
X26820286Y-13583286D01*
X26820286Y-13535667D01*
X26829809Y-13497571D01*
X26839333Y-13478524D01*
X26848857Y-13469000D01*
X26867905Y-13459476D01*
X27058381Y-13459476D02*
X27077428Y-13459476D01*
X27096476Y-13469000D01*
X27106000Y-13478524D01*
X27115524Y-13497571D01*
X27125048Y-13535667D01*
X27125048Y-13583286D01*
X27115524Y-13621381D01*
X27106000Y-13640428D01*
X27096476Y-13649952D01*
X27077428Y-13659476D01*
X27058381Y-13659476D01*
X27039333Y-13649952D01*
X27029809Y-13640428D01*
X27020286Y-13621381D01*
X27010762Y-13583286D01*
X27010762Y-13535667D01*
X27020286Y-13497571D01*
X27029809Y-13478524D01*
X27039333Y-13469000D01*
X27058381Y-13459476D01*
X27210762Y-13659476D02*
X27210762Y-13526143D01*
X27210762Y-13545190D02*
X27220286Y-13535667D01*
X27239333Y-13526143D01*
X27267905Y-13526143D01*
X27286952Y-13535667D01*
X27296476Y-13554714D01*
X27296476Y-13659476D01*
X27296476Y-13554714D02*
X27306000Y-13535667D01*
X27325048Y-13526143D01*
X27353619Y-13526143D01*
X27372667Y-13535667D01*
X27382190Y-13554714D01*
X27382190Y-13659476D01*
X27477428Y-13659476D02*
X27477428Y-13526143D01*
X27477428Y-13545190D02*
X27486952Y-13535667D01*
X27506000Y-13526143D01*
X27534571Y-13526143D01*
X27553619Y-13535667D01*
X27563143Y-13554714D01*
X27563143Y-13659476D01*
X27563143Y-13554714D02*
X27572667Y-13535667D01*
X27591714Y-13526143D01*
X27620286Y-13526143D01*
X27639333Y-13535667D01*
X27648857Y-13554714D01*
X27648857Y-13659476D01*
X28039333Y-13449952D02*
X27867905Y-13707095D01*
X28296476Y-13459476D02*
X28315524Y-13459476D01*
X28334571Y-13469000D01*
X28344095Y-13478524D01*
X28353619Y-13497571D01*
X28363143Y-13535667D01*
X28363143Y-13583286D01*
X28353619Y-13621381D01*
X28344095Y-13640428D01*
X28334571Y-13649952D01*
X28315524Y-13659476D01*
X28296476Y-13659476D01*
X28277428Y-13649952D01*
X28267905Y-13640428D01*
X28258381Y-13621381D01*
X28248857Y-13583286D01*
X28248857Y-13535667D01*
X28258381Y-13497571D01*
X28267905Y-13478524D01*
X28277428Y-13469000D01*
X28296476Y-13459476D01*
X28448857Y-13640428D02*
X28458381Y-13649952D01*
X28448857Y-13659476D01*
X28439333Y-13649952D01*
X28448857Y-13640428D01*
X28448857Y-13659476D01*
X28648857Y-13659476D02*
X28534571Y-13659476D01*
X28591714Y-13659476D02*
X28591714Y-13459476D01*
X28572667Y-13488048D01*
X28553619Y-13507095D01*
X28534571Y-13516619D01*
X28829809Y-13459476D02*
X28734571Y-13459476D01*
X28725048Y-13554714D01*
X28734571Y-13545190D01*
X28753619Y-13535667D01*
X28801238Y-13535667D01*
X28820286Y-13545190D01*
X28829809Y-13554714D01*
X28839333Y-13573762D01*
X28839333Y-13621381D01*
X28829809Y-13640428D01*
X28820286Y-13649952D01*
X28801238Y-13659476D01*
X28753619Y-13659476D01*
X28734571Y-13649952D01*
X28725048Y-13640428D01*
X28906000Y-13459476D02*
X29039333Y-13459476D01*
X28953619Y-13659476D01*
X29210762Y-13459476D02*
X29115524Y-13459476D01*
X29106000Y-13554714D01*
X29115524Y-13545190D01*
X29134571Y-13535667D01*
X29182190Y-13535667D01*
X29201238Y-13545190D01*
X29210762Y-13554714D01*
X29220286Y-13573762D01*
X29220286Y-13621381D01*
X29210762Y-13640428D01*
X29201238Y-13649952D01*
X29182190Y-13659476D01*
X29134571Y-13659476D01*
X29115524Y-13649952D01*
X29106000Y-13640428D01*
X29296476Y-13459476D02*
X29296476Y-13497571D01*
X29372667Y-13459476D02*
X29372667Y-13497571D01*
X29667905Y-13735667D02*
X29658381Y-13726143D01*
X29639333Y-13697571D01*
X29629809Y-13678524D01*
X29620286Y-13649952D01*
X29610762Y-13602333D01*
X29610762Y-13564238D01*
X29620286Y-13516619D01*
X29629809Y-13488048D01*
X29639333Y-13469000D01*
X29658381Y-13440428D01*
X29667905Y-13430905D01*
X29848857Y-13659476D02*
X29734571Y-13659476D01*
X29791714Y-13659476D02*
X29791714Y-13459476D01*
X29772667Y-13488048D01*
X29753619Y-13507095D01*
X29734571Y-13516619D01*
X30086952Y-13659476D02*
X30086952Y-13459476D01*
X30172667Y-13659476D02*
X30172667Y-13554714D01*
X30163143Y-13535667D01*
X30144095Y-13526143D01*
X30115524Y-13526143D01*
X30096476Y-13535667D01*
X30086952Y-13545190D01*
X30296476Y-13659476D02*
X30277428Y-13649952D01*
X30267905Y-13640428D01*
X30258381Y-13621381D01*
X30258381Y-13564238D01*
X30267905Y-13545190D01*
X30277428Y-13535667D01*
X30296476Y-13526143D01*
X30325048Y-13526143D01*
X30344095Y-13535667D01*
X30353619Y-13545190D01*
X30363143Y-13564238D01*
X30363143Y-13621381D01*
X30353619Y-13640428D01*
X30344095Y-13649952D01*
X30325048Y-13659476D01*
X30296476Y-13659476D01*
X30477428Y-13659476D02*
X30458381Y-13649952D01*
X30448857Y-13630905D01*
X30448857Y-13459476D01*
X30629809Y-13649952D02*
X30610762Y-13659476D01*
X30572667Y-13659476D01*
X30553619Y-13649952D01*
X30544095Y-13630905D01*
X30544095Y-13554714D01*
X30553619Y-13535667D01*
X30572667Y-13526143D01*
X30610762Y-13526143D01*
X30629809Y-13535667D01*
X30639333Y-13554714D01*
X30639333Y-13573762D01*
X30544095Y-13592809D01*
X30706000Y-13735667D02*
X30715524Y-13726143D01*
X30734571Y-13697571D01*
X30744095Y-13678524D01*
X30753619Y-13649952D01*
X30763143Y-13602333D01*
X30763143Y-13564238D01*
X30753619Y-13516619D01*
X30744095Y-13488048D01*
X30734571Y-13469000D01*
X30715524Y-13440428D01*
X30706000Y-13430905D01*
X31067905Y-13735667D02*
X31058381Y-13726143D01*
X31039333Y-13697571D01*
X31029809Y-13678524D01*
X31020286Y-13649952D01*
X31010762Y-13602333D01*
X31010762Y-13564238D01*
X31020286Y-13516619D01*
X31029809Y-13488048D01*
X31039333Y-13469000D01*
X31058381Y-13440428D01*
X31067905Y-13430905D01*
X31144095Y-13526143D02*
X31144095Y-13659476D01*
X31144095Y-13545190D02*
X31153619Y-13535667D01*
X31172667Y-13526143D01*
X31201238Y-13526143D01*
X31220286Y-13535667D01*
X31229809Y-13554714D01*
X31229809Y-13659476D01*
X31353619Y-13659476D02*
X31334571Y-13649952D01*
X31325048Y-13640428D01*
X31315524Y-13621381D01*
X31315524Y-13564238D01*
X31325048Y-13545190D01*
X31334571Y-13535667D01*
X31353619Y-13526143D01*
X31382190Y-13526143D01*
X31401238Y-13535667D01*
X31410762Y-13545190D01*
X31420286Y-13564238D01*
X31420286Y-13621381D01*
X31410762Y-13640428D01*
X31401238Y-13649952D01*
X31382190Y-13659476D01*
X31353619Y-13659476D01*
X31477428Y-13526143D02*
X31553619Y-13526143D01*
X31506000Y-13459476D02*
X31506000Y-13630905D01*
X31515524Y-13649952D01*
X31534571Y-13659476D01*
X31553619Y-13659476D01*
X31772667Y-13526143D02*
X31772667Y-13726143D01*
X31772667Y-13535667D02*
X31791714Y-13526143D01*
X31829809Y-13526143D01*
X31848857Y-13535667D01*
X31858381Y-13545190D01*
X31867905Y-13564238D01*
X31867905Y-13621381D01*
X31858381Y-13640428D01*
X31848857Y-13649952D01*
X31829809Y-13659476D01*
X31791714Y-13659476D01*
X31772667Y-13649952D01*
X31982190Y-13659476D02*
X31963143Y-13649952D01*
X31953619Y-13630905D01*
X31953619Y-13459476D01*
X32144095Y-13659476D02*
X32144095Y-13554714D01*
X32134571Y-13535667D01*
X32115524Y-13526143D01*
X32077428Y-13526143D01*
X32058381Y-13535667D01*
X32144095Y-13649952D02*
X32125048Y-13659476D01*
X32077428Y-13659476D01*
X32058381Y-13649952D01*
X32048857Y-13630905D01*
X32048857Y-13611857D01*
X32058381Y-13592809D01*
X32077428Y-13583286D01*
X32125048Y-13583286D01*
X32144095Y-13573762D01*
X32210762Y-13526143D02*
X32286952Y-13526143D01*
X32239333Y-13459476D02*
X32239333Y-13630905D01*
X32248857Y-13649952D01*
X32267905Y-13659476D01*
X32286952Y-13659476D01*
X32429809Y-13649952D02*
X32410762Y-13659476D01*
X32372667Y-13659476D01*
X32353619Y-13649952D01*
X32344095Y-13630905D01*
X32344095Y-13554714D01*
X32353619Y-13535667D01*
X32372667Y-13526143D01*
X32410762Y-13526143D01*
X32429809Y-13535667D01*
X32439333Y-13554714D01*
X32439333Y-13573762D01*
X32344095Y-13592809D01*
X32610762Y-13659476D02*
X32610762Y-13459476D01*
X32610762Y-13649952D02*
X32591714Y-13659476D01*
X32553619Y-13659476D01*
X32534571Y-13649952D01*
X32525048Y-13640428D01*
X32515524Y-13621381D01*
X32515524Y-13564238D01*
X32525048Y-13545190D01*
X32534571Y-13535667D01*
X32553619Y-13526143D01*
X32591714Y-13526143D01*
X32610762Y-13535667D01*
X32686952Y-13735667D02*
X32696476Y-13726143D01*
X32715524Y-13697571D01*
X32725048Y-13678524D01*
X32734571Y-13649952D01*
X32744095Y-13602333D01*
X32744095Y-13564238D01*
X32734571Y-13516619D01*
X32725048Y-13488048D01*
X32715524Y-13469000D01*
X32696476Y-13440428D01*
X32686952Y-13430905D01*
M02*
