%TF.GenerationSoftware,KiCad,Pcbnew,(6.0.1)*%
%TF.CreationDate,2022-01-27T11:35:43+01:00*%
%TF.ProjectId,poly_kb,706f6c79-5f6b-4622-9e6b-696361645f70,rev?*%
%TF.SameCoordinates,Original*%
%TF.FileFunction,Copper,L1,Top*%
%TF.FilePolarity,Positive*%
%FSLAX46Y46*%
G04 Gerber Fmt 4.6, Leading zero omitted, Abs format (unit mm)*
G04 Created by KiCad (PCBNEW (6.0.1)) date 2022-01-27 11:35:43*
%MOMM*%
%LPD*%
G01*
G04 APERTURE LIST*
G04 Aperture macros list*
%AMRoundRect*
0 Rectangle with rounded corners*
0 $1 Rounding radius*
0 $2 $3 $4 $5 $6 $7 $8 $9 X,Y pos of 4 corners*
0 Add a 4 corners polygon primitive as box body*
4,1,4,$2,$3,$4,$5,$6,$7,$8,$9,$2,$3,0*
0 Add four circle primitives for the rounded corners*
1,1,$1+$1,$2,$3*
1,1,$1+$1,$4,$5*
1,1,$1+$1,$6,$7*
1,1,$1+$1,$8,$9*
0 Add four rect primitives between the rounded corners*
20,1,$1+$1,$2,$3,$4,$5,0*
20,1,$1+$1,$4,$5,$6,$7,0*
20,1,$1+$1,$6,$7,$8,$9,0*
20,1,$1+$1,$8,$9,$2,$3,0*%
G04 Aperture macros list end*
%TA.AperFunction,SMDPad,CuDef*%
%ADD10RoundRect,0.135000X-0.185000X0.135000X-0.185000X-0.135000X0.185000X-0.135000X0.185000X0.135000X0*%
%TD*%
%TA.AperFunction,SMDPad,CuDef*%
%ADD11R,2.000000X1.500000*%
%TD*%
%TA.AperFunction,SMDPad,CuDef*%
%ADD12R,0.950000X0.800000*%
%TD*%
%TA.AperFunction,ComponentPad*%
%ADD13C,2.200000*%
%TD*%
%TA.AperFunction,ComponentPad*%
%ADD14R,1.500000X1.500000*%
%TD*%
%TA.AperFunction,ViaPad*%
%ADD15C,0.609600*%
%TD*%
%TA.AperFunction,ViaPad*%
%ADD16C,0.800000*%
%TD*%
%TA.AperFunction,Conductor*%
%ADD17C,0.300000*%
%TD*%
%TA.AperFunction,Conductor*%
%ADD18C,0.500000*%
%TD*%
%TA.AperFunction,Conductor*%
%ADD19C,0.400000*%
%TD*%
G04 APERTURE END LIST*
D10*
%TO.P,R1,1*%
%TO.N,/Keyboard/sheet605ED2EB/3V3*%
X263499600Y-110335600D03*
%TO.P,R1,2*%
%TO.N,/Keyboard/sheet605ED2EB/CS*%
X263499600Y-111355600D03*
%TD*%
D11*
%TO.P,J3,1,Pin_1*%
%TO.N,/Keyboard/sheet605ED2EB/5V*%
X262001000Y-108840000D03*
%TO.P,J3,2,Pin_2*%
%TO.N,/Keyboard/sheet605ED2EB/3V3*%
X262001000Y-110840000D03*
%TO.P,J3,3,Pin_3*%
%TO.N,/Keyboard/sheet605ED2EB/4V2*%
X262001000Y-112840000D03*
%TO.P,J3,4,Pin_4*%
%TO.N,/Keyboard/sheet605ED2EB/LED_DOUT*%
X262001000Y-114840000D03*
%TO.P,J3,5,Pin_5*%
%TO.N,/Keyboard/sheet605ED2EB/RESET*%
X262001000Y-116840000D03*
%TO.P,J3,6,Pin_6*%
%TO.N,/Keyboard/sheet605ED2EB/SDIN*%
X262001000Y-118840000D03*
%TO.P,J3,7,Pin_7*%
%TO.N,/Keyboard/sheet605ED2EB/D-C*%
X262001000Y-120840000D03*
%TO.P,J3,8,Pin_8*%
%TO.N,/Keyboard/sheet605ED2EB/SCLK*%
X262001000Y-122840000D03*
%TO.P,J3,9,Pin_9*%
%TO.N,/Keyboard/sheet605ED2EB/KeyRow*%
X262001000Y-124840000D03*
%TD*%
%TO.P,J4,1,Pin_1*%
%TO.N,/Keyboard/sheet605ED2EB/5V*%
X279019000Y-108840000D03*
%TO.P,J4,2,Pin_2*%
%TO.N,/Keyboard/sheet605ED2EB/3V3*%
X279019000Y-110840000D03*
%TO.P,J4,3,Pin_3*%
%TO.N,/Keyboard/sheet605ED2EB/4V2*%
X279019000Y-112840000D03*
%TO.P,J4,4,Pin_4*%
%TO.N,/Keyboard/sheet605ED2EB/LED_DIN*%
X279019000Y-114840000D03*
%TO.P,J4,5,Pin_5*%
%TO.N,/Keyboard/sheet605ED2EB/RESET*%
X279019000Y-116840000D03*
%TO.P,J4,6,Pin_6*%
%TO.N,/Keyboard/sheet605ED2EB/SDIN*%
X279019000Y-118840000D03*
%TO.P,J4,7,Pin_7*%
%TO.N,/Keyboard/sheet605ED2EB/D-C*%
X279019000Y-120840000D03*
%TO.P,J4,8,Pin_8*%
%TO.N,/Keyboard/sheet605ED2EB/SCLK*%
X279019000Y-122840000D03*
%TO.P,J4,9,Pin_9*%
%TO.N,/Keyboard/sheet605ED2EB/KeyRow*%
X279019000Y-124840000D03*
%TD*%
D12*
%TO.P,LED1,1,VDD*%
%TO.N,/Keyboard/sheet605ED2EB/5V*%
X269145000Y-108330000D03*
%TO.P,LED1,2,DOUT*%
%TO.N,/Keyboard/sheet605ED2EB/LED_DOUT*%
X269145000Y-110110000D03*
%TO.P,LED1,3,VSS*%
%TO.N,/Keyboard/sheet605ED2EB/GND*%
X271875000Y-110110000D03*
%TO.P,LED1,4,DIN*%
%TO.N,/Keyboard/sheet605ED2EB/LED_DIN*%
X271875000Y-108330000D03*
%TD*%
D13*
%TO.P,SW1,1,1*%
%TO.N,/Keyboard/sheet605ED2EB/KeyRow*%
X273050000Y-113030000D03*
%TO.P,SW1,2,2*%
%TO.N,Net-(D1-Pad2)*%
X266700000Y-115570000D03*
%TD*%
D14*
%TO.P,J2,1,Pin_1*%
%TO.N,/Keyboard/sheet605ED2EB/KeyCol*%
X276479000Y-108077000D03*
%TD*%
%TO.P,J8,1,Pin_1*%
%TO.N,/Keyboard/sheet605ED2EB/KeyCol*%
X264541000Y-108077000D03*
%TD*%
%TO.P,J9,1,Pin_1*%
%TO.N,/Keyboard/sheet605ED2EB/KeyCol*%
X276479000Y-125603000D03*
%TD*%
%TO.P,J7,1,Pin_1*%
%TO.N,/Keyboard/sheet605ED2EB/KeyCol*%
X264541000Y-125603000D03*
%TD*%
D15*
%TO.N,/Keyboard/sheet605ED2EB/CS*%
X263377419Y-111806625D03*
%TO.N,CS3*%
X263593438Y-115142514D03*
%TO.N,/Keyboard/sheet605ED2EB/GND*%
X267208000Y-112090810D03*
D16*
X277208020Y-110000010D03*
D15*
X271522443Y-113483648D03*
D16*
X265286206Y-109987025D03*
X264378521Y-112923539D03*
D15*
%TO.N,/Keyboard/sheet605ED2EB/3V3*%
X270256000Y-110236000D03*
X264399684Y-110348684D03*
%TO.N,/Keyboard/sheet605ED2EB/4V2*%
X269924331Y-113398300D03*
X266803034Y-112799966D03*
%TO.N,/Keyboard/sheet605ED2EB/CS*%
X264710277Y-116406013D03*
X264052815Y-120015000D03*
X263444117Y-116433801D03*
X265192031Y-120254815D03*
%TO.N,/Keyboard/sheet605ED2EB/RESET*%
X267081000Y-117208300D03*
X271066152Y-115727400D03*
X268478000Y-115570000D03*
%TO.N,/Keyboard/sheet605ED2EB/D-C*%
X277238634Y-120904000D03*
%TO.N,/Keyboard/sheet605ED2EB/SCLK*%
X276904192Y-121658555D03*
%TO.N,/Keyboard/sheet605ED2EB/SDIN*%
X273840287Y-119210030D03*
%TO.N,/Keyboard/sheet605ED2EB/LED_DOUT*%
X267998553Y-110072505D03*
X265052239Y-115748848D03*
%TO.N,/Keyboard/sheet605ED2EB/LED_DIN*%
X273609379Y-108814826D03*
X276751854Y-114613543D03*
%TO.N,Net-(D1-Pad2)*%
X267843000Y-118618000D03*
%TO.N,/Keyboard/sheet605ED2EB/KeyRow*%
X263441239Y-124001874D03*
%TO.N,/Keyboard/sheet605ED2EB/KeyCol*%
X275079634Y-120736168D03*
X273558004Y-108076996D03*
X277114000Y-123952000D03*
X273050000Y-120396000D03*
%TO.N,CS7*%
X263435840Y-122428000D03*
X264951061Y-123463185D03*
%TO.N,CS6*%
X265049000Y-121920000D03*
X263424509Y-121688475D03*
%TO.N,CS5*%
X277541646Y-119722825D03*
X263525000Y-119380000D03*
%TO.N,CS4*%
X277399743Y-116460940D03*
X263600190Y-117678300D03*
%TO.N,CS3*%
X276881702Y-115341667D03*
%TO.N,CS2*%
X277181865Y-113538000D03*
X263829370Y-114373792D03*
%TO.N,CS1*%
X263600154Y-112623197D03*
X277181865Y-111624962D03*
%TD*%
D17*
%TO.N,/Keyboard/sheet605ED2EB/SCLK*%
X275590729Y-124000681D02*
X276751410Y-122840000D01*
X275352401Y-124202175D02*
X275590729Y-124000681D01*
X275349881Y-124201964D02*
X275352401Y-124202175D01*
X274949045Y-124602800D02*
X275349881Y-124201964D01*
X265535740Y-124090696D02*
X266047844Y-124602800D01*
X264352879Y-124047987D02*
X265485224Y-124047987D01*
X263708279Y-123403387D02*
X264352879Y-124047987D01*
X276751410Y-122840000D02*
X279019000Y-122840000D01*
X262818387Y-123403387D02*
X263708279Y-123403387D01*
X265485224Y-124047987D02*
X265535740Y-124090696D01*
X262255000Y-122840000D02*
X262818387Y-123403387D01*
X266047844Y-124602800D02*
X274949045Y-124602800D01*
%TO.N,/Keyboard/sheet605ED2EB/KeyRow*%
X263917363Y-124477998D02*
X263441239Y-124001874D01*
X265314843Y-124477998D02*
X263917363Y-124477998D01*
X275057172Y-125102800D02*
X265939645Y-125102800D01*
X265939645Y-125102800D02*
X265314843Y-124477998D01*
X275626087Y-124533885D02*
X275057172Y-125102800D01*
X275684552Y-124533885D02*
X275626087Y-124533885D01*
X276851239Y-123367198D02*
X275684552Y-124533885D01*
X277394706Y-123367198D02*
X276851239Y-123367198D01*
X278867508Y-124840000D02*
X277394706Y-123367198D01*
X279019000Y-124840000D02*
X278867508Y-124840000D01*
%TO.N,/Keyboard/sheet605ED2EB/RESET*%
X265802000Y-116802800D02*
X266302000Y-117302800D01*
X266986500Y-117302800D02*
X267081000Y-117208300D01*
X264924513Y-117018102D02*
X265139815Y-116802800D01*
X262179102Y-117018102D02*
X264924513Y-117018102D01*
X266302000Y-117302800D02*
X266986500Y-117302800D01*
X262001000Y-116840000D02*
X262179102Y-117018102D01*
X265139815Y-116802800D02*
X265802000Y-116802800D01*
%TO.N,/Keyboard/sheet605ED2EB/CS*%
X263444117Y-116433801D02*
X264682489Y-116433801D01*
X264682489Y-116433801D02*
X264710277Y-116406013D01*
%TO.N,/Keyboard/sheet605ED2EB/LED_DOUT*%
X263237894Y-115806884D02*
X264994203Y-115806884D01*
X262001000Y-114840000D02*
X262271010Y-114840000D01*
X262271010Y-114840000D02*
X263237894Y-115806884D01*
X264994203Y-115806884D02*
X265052239Y-115748848D01*
%TO.N,/Keyboard/sheet605ED2EB/RESET*%
X267068300Y-117208300D02*
X267081000Y-117208300D01*
D18*
%TO.N,/Keyboard/sheet605ED2EB/4V2*%
X270453224Y-113398300D02*
X269924331Y-113398300D01*
X271238995Y-114184071D02*
X270453224Y-113398300D01*
X273760401Y-114510001D02*
X272280290Y-114510001D01*
X272280290Y-114510001D02*
X271954360Y-114184071D01*
X275430402Y-112840000D02*
X273760401Y-114510001D01*
X278765000Y-112840000D02*
X275430402Y-112840000D01*
X271954360Y-114184071D02*
X271238995Y-114184071D01*
X269325997Y-112799966D02*
X269924331Y-113398300D01*
X266803034Y-112799966D02*
X269325997Y-112799966D01*
%TO.N,/Keyboard/sheet605ED2EB/GND*%
X270129605Y-112090810D02*
X271522443Y-113483648D01*
X267208000Y-112090810D02*
X270129605Y-112090810D01*
D17*
%TO.N,CS3*%
X265678874Y-114189999D02*
X264726359Y-115142514D01*
X269071882Y-114189999D02*
X265678874Y-114189999D01*
X269444419Y-114562536D02*
X269071882Y-114189999D01*
X272060493Y-115646466D02*
X271557120Y-115143093D01*
%TO.N,CS2*%
X265516684Y-113664899D02*
X264807791Y-114373792D01*
X269214178Y-113664899D02*
X265516684Y-113664899D01*
X269682304Y-114133025D02*
X269214178Y-113664899D01*
X270439107Y-114133025D02*
X269682304Y-114133025D01*
X275248801Y-115040012D02*
X272061458Y-115040011D01*
X277181865Y-113538000D02*
X276750813Y-113538000D01*
X272061458Y-115040011D02*
X271735029Y-114713582D01*
X271019664Y-114713582D02*
X270439107Y-114133025D01*
%TO.N,CS3*%
X276576903Y-115646466D02*
X272060493Y-115646466D01*
X271557120Y-115143093D02*
X270841755Y-115143093D01*
%TO.N,/Keyboard/sheet605ED2EB/RESET*%
X270911356Y-115572604D02*
X271066152Y-115727400D01*
X270663846Y-115572604D02*
X270911356Y-115572604D01*
X270663821Y-115572579D02*
X270663846Y-115572604D01*
X270663784Y-115572579D02*
X270663821Y-115572579D01*
X270663758Y-115572553D02*
X270663784Y-115572579D01*
X270661170Y-115570000D02*
X270663722Y-115572553D01*
%TO.N,CS3*%
X264726359Y-115142514D02*
X263593438Y-115142514D01*
%TO.N,/Keyboard/sheet605ED2EB/RESET*%
X268478000Y-115570000D02*
X270661170Y-115570000D01*
X272004711Y-116226511D02*
X271505600Y-115727400D01*
X277799199Y-115874199D02*
X277214662Y-115874199D01*
%TO.N,CS2*%
X264807791Y-114373792D02*
X263829370Y-114373792D01*
%TO.N,/Keyboard/sheet605ED2EB/RESET*%
X277214662Y-115874199D02*
X277162406Y-115926455D01*
%TO.N,CS3*%
X270261198Y-114562536D02*
X269444419Y-114562536D01*
%TO.N,/Keyboard/sheet605ED2EB/RESET*%
X277065929Y-115926455D02*
X276765873Y-116226511D01*
X270663722Y-115572553D02*
X270663758Y-115572553D01*
%TO.N,CS2*%
X276750813Y-113538000D02*
X275248801Y-115040012D01*
%TO.N,/Keyboard/sheet605ED2EB/RESET*%
X278765000Y-116840000D02*
X277799199Y-115874199D01*
%TO.N,CS2*%
X271735029Y-114713582D02*
X271019664Y-114713582D01*
%TO.N,/Keyboard/sheet605ED2EB/RESET*%
X277162406Y-115926455D02*
X277065929Y-115926455D01*
X276765873Y-116226511D02*
X272004711Y-116226511D01*
%TO.N,CS3*%
X276881702Y-115341667D02*
X276576903Y-115646466D01*
%TO.N,/Keyboard/sheet605ED2EB/RESET*%
X271505600Y-115727400D02*
X271066152Y-115727400D01*
%TO.N,CS3*%
X270841755Y-115143093D02*
X270261198Y-114562536D01*
D18*
%TO.N,/Keyboard/sheet605ED2EB/3V3*%
X262507400Y-110333600D02*
X262001000Y-110840000D01*
X263652000Y-110333600D02*
X262507400Y-110333600D01*
X263667084Y-110348684D02*
X263652000Y-110333600D01*
X264399684Y-110348684D02*
X263667084Y-110348684D01*
D17*
%TO.N,/Keyboard/sheet605ED2EB/CS*%
X263501600Y-111353600D02*
X263377419Y-111477781D01*
X263652000Y-111353600D02*
X263501600Y-111353600D01*
X263377419Y-111477781D02*
X263377419Y-111806625D01*
D18*
%TO.N,/Keyboard/sheet605ED2EB/3V3*%
X264940511Y-110889511D02*
X264399684Y-110348684D01*
%TO.N,/Keyboard/sheet605ED2EB/4V2*%
X262850491Y-113689491D02*
X262001000Y-112840000D01*
D17*
%TO.N,CS4*%
X263600190Y-117952592D02*
X263600190Y-117678300D01*
X264887599Y-119240001D02*
X263600190Y-117952592D01*
X268106890Y-119240001D02*
X264887599Y-119240001D01*
X269389889Y-120523000D02*
X268106890Y-119240001D01*
X271449367Y-120523000D02*
X269389889Y-120523000D01*
X275206628Y-116765739D02*
X271449367Y-120523000D01*
X277094944Y-116765739D02*
X275206628Y-116765739D01*
X277399743Y-116460940D02*
X277094944Y-116765739D01*
%TO.N,CS1*%
X264733980Y-111489371D02*
X263600154Y-112623197D01*
X277046274Y-111489371D02*
X264733980Y-111489371D01*
D18*
%TO.N,/Keyboard/sheet605ED2EB/GND*%
X265211250Y-112090810D02*
X264378521Y-112923539D01*
X267208000Y-112090810D02*
X265211250Y-112090810D01*
D17*
%TO.N,CS1*%
X277181865Y-111624962D02*
X277046274Y-111489371D01*
D18*
%TO.N,/Keyboard/sheet605ED2EB/4V2*%
X264701351Y-113731390D02*
X264154717Y-113731390D01*
X265632775Y-112799966D02*
X264701351Y-113731390D01*
X266803034Y-112799966D02*
X265632775Y-112799966D01*
X264112818Y-113689491D02*
X262850491Y-113689491D01*
X264154717Y-113731390D02*
X264112818Y-113689491D01*
D17*
%TO.N,/Keyboard/sheet605ED2EB/3V3*%
X262492316Y-110348684D02*
X262001000Y-110840000D01*
D18*
X270401511Y-110889511D02*
X270110489Y-110889511D01*
X278969489Y-110889511D02*
X279019000Y-110840000D01*
X270401511Y-110889511D02*
X278969489Y-110889511D01*
X270256000Y-110744000D02*
X270401511Y-110889511D01*
X270110489Y-110889511D02*
X264940511Y-110889511D01*
X270256000Y-110744000D02*
X270110489Y-110889511D01*
X270256000Y-110236000D02*
X270256000Y-110744000D01*
%TO.N,/Keyboard/sheet605ED2EB/4V2*%
X262255000Y-112840000D02*
X262519765Y-113104765D01*
%TO.N,/Keyboard/sheet605ED2EB/GND*%
X271894638Y-110129638D02*
X277078392Y-110129638D01*
X271875000Y-110110000D02*
X271894638Y-110129638D01*
X270253506Y-109220000D02*
X267208000Y-109220000D01*
X267208000Y-109220000D02*
X266440975Y-109987025D01*
X266440975Y-109987025D02*
X265286206Y-109987025D01*
X277078392Y-110129638D02*
X277208020Y-110000010D01*
X271143506Y-110110000D02*
X270253506Y-109220000D01*
X271875000Y-110110000D02*
X271143506Y-110110000D01*
%TO.N,/Keyboard/sheet605ED2EB/3V3*%
X262255000Y-110840000D02*
X262452600Y-110642400D01*
D17*
X264410768Y-110337600D02*
X264414000Y-110337600D01*
X264399684Y-110348684D02*
X264410768Y-110337600D01*
%TO.N,/Keyboard/sheet605ED2EB/CS*%
X265192031Y-120254815D02*
X264292630Y-120254815D01*
X264292630Y-120254815D02*
X264052815Y-120015000D01*
%TO.N,/Keyboard/sheet605ED2EB/D-C*%
X267895130Y-121283812D02*
X268542695Y-121931377D01*
X275780205Y-121931377D02*
X276807582Y-120904000D01*
X268542695Y-121931377D02*
X275780205Y-121931377D01*
X278765000Y-120840000D02*
X278701000Y-120904000D01*
X276807582Y-120904000D02*
X277238634Y-120904000D01*
X278701000Y-120904000D02*
X277238634Y-120904000D01*
X262255000Y-120840000D02*
X263433498Y-120840000D01*
X263877310Y-121283812D02*
X267895130Y-121283812D01*
X263433498Y-120840000D02*
X263877310Y-121283812D01*
%TO.N,/Keyboard/sheet605ED2EB/SCLK*%
X276904192Y-121658555D02*
X277583555Y-121658555D01*
X278765000Y-122840000D02*
X277583555Y-121658555D01*
%TO.N,/Keyboard/sheet605ED2EB/SDIN*%
X274145086Y-119514829D02*
X273840287Y-119210030D01*
X269211773Y-120953011D02*
X271627483Y-120953011D01*
X276805278Y-119514829D02*
X274145086Y-119514829D01*
X262255000Y-118840000D02*
X262299802Y-118795198D01*
X267928774Y-119670012D02*
X269211773Y-120953011D01*
X271627483Y-120953011D02*
X273370464Y-119210030D01*
X263834669Y-118795198D02*
X264709483Y-119670012D01*
X262299802Y-118795198D02*
X263834669Y-118795198D01*
X278765000Y-118840000D02*
X277480107Y-118840000D01*
X277480107Y-118840000D02*
X276805278Y-119514829D01*
X273370464Y-119210030D02*
X273840287Y-119210030D01*
X264709483Y-119670012D02*
X267928774Y-119670012D01*
%TO.N,/Keyboard/sheet605ED2EB/LED_DOUT*%
X269145000Y-110110000D02*
X268036048Y-110110000D01*
X262255000Y-114840000D02*
X262718199Y-114376801D01*
X268036048Y-110110000D02*
X267998553Y-110072505D01*
%TO.N,/Keyboard/sheet605ED2EB/LED_DIN*%
X278765000Y-114840000D02*
X278538543Y-114613543D01*
X273456355Y-108661802D02*
X273609379Y-108814826D01*
X272206802Y-108661802D02*
X273456355Y-108661802D01*
X271875000Y-108330000D02*
X272206802Y-108661802D01*
X278538543Y-114613543D02*
X276751854Y-114613543D01*
D18*
%TO.N,/Keyboard/sheet605ED2EB/5V*%
X266077999Y-109207001D02*
X266955000Y-108330000D01*
X273076650Y-109295603D02*
X273280674Y-109499627D01*
X269145000Y-108330000D02*
X270315998Y-108330000D01*
X262622001Y-109207001D02*
X266077999Y-109207001D01*
X266955000Y-108330000D02*
X269145000Y-108330000D01*
X273938084Y-109499627D02*
X274217711Y-109220000D01*
X278385000Y-109220000D02*
X278765000Y-108840000D01*
X271281601Y-109295603D02*
X273076650Y-109295603D01*
X270315998Y-108330000D02*
X271281601Y-109295603D01*
X273280674Y-109499627D02*
X273938084Y-109499627D01*
X274217711Y-109220000D02*
X278385000Y-109220000D01*
X262255000Y-108840000D02*
X262622001Y-109207001D01*
D19*
%TO.N,Net-(D1-Pad2)*%
X267843000Y-116713000D02*
X267843000Y-118618000D01*
X266700000Y-115570000D02*
X267843000Y-116713000D01*
D17*
%TO.N,/Keyboard/sheet605ED2EB/KeyRow*%
X262255000Y-124840000D02*
X262603113Y-124840000D01*
X262603113Y-124840000D02*
X263441239Y-124001874D01*
%TO.N,/Keyboard/sheet605ED2EB/KeyCol*%
X276479000Y-124587000D02*
X277114000Y-123952000D01*
X273558008Y-108077000D02*
X273558004Y-108076996D01*
X273390168Y-120736168D02*
X273050000Y-120396000D01*
X275079634Y-120736168D02*
X273390168Y-120736168D01*
X276479000Y-108077000D02*
X273558008Y-108077000D01*
X276479000Y-125603000D02*
X276479000Y-124587000D01*
%TO.N,CS7*%
X264471025Y-123463185D02*
X264951061Y-123463185D01*
X263435840Y-122428000D02*
X264471025Y-123463185D01*
%TO.N,CS6*%
X265049000Y-121920000D02*
X264972198Y-121843198D01*
X263579232Y-121843198D02*
X263424509Y-121688475D01*
X264972198Y-121843198D02*
X263579232Y-121843198D01*
%TO.N,CS5*%
X277363183Y-119722825D02*
X275584642Y-121501366D01*
X268720811Y-121501366D02*
X268073246Y-120853801D01*
X277541646Y-119722825D02*
X277363183Y-119722825D01*
X275584642Y-121501366D02*
X268720811Y-121501366D01*
X263468005Y-120266380D02*
X263468005Y-119436995D01*
X268073246Y-120853801D02*
X264055426Y-120853801D01*
X263468005Y-119436995D02*
X263525000Y-119380000D01*
X264055426Y-120853801D02*
X263468005Y-120266380D01*
%TD*%
M02*
