%FSLAX45Y45*%
G04 Gerber Fmt 4.5, Leading zero omitted, Abs format (unit mm)*
G04 Created by KiCad (PCBNEW (5.1.9)-1) date 2021-09-16 08:42:30*
%MOMM*%
%LPD*%
G01*
G04 APERTURE LIST*
%TA.AperFunction,Profile*%
%ADD10C,0.050000*%
%TD*%
%ADD11C,0.200000*%
%ADD12C,0.300000*%
G04 APERTURE END LIST*
D10*
X27470100Y-12230100D02*
G75*
G02*
X27470100Y-12407900I0J-88900D01*
G01*
X26631900Y-12407900D02*
G75*
G02*
X26631900Y-12230100I0J88900D01*
G01*
X27470100Y-12407900D02*
X26631900Y-12407900D01*
X27470100Y-12230100D02*
X26631900Y-12230100D01*
X28003500Y-12636500D02*
X26098500Y-12636500D01*
X28003500Y-10731500D02*
X26098500Y-10731500D01*
X28003500Y-10731500D02*
X28003500Y-12636500D01*
X26098500Y-10731500D02*
X26098500Y-12636500D01*
D11*
X26458000Y-11726000D02*
X26628000Y-11896000D01*
X26628000Y-11726000D02*
X26458000Y-11896000D01*
X27474000Y-11726000D02*
X27644000Y-11896000D01*
X27644000Y-11726000D02*
X27474000Y-11896000D01*
X27251000Y-11811000D02*
G75*
G03*
X27251000Y-11811000I-200000J0D01*
G01*
D12*
X26382428Y-13104714D02*
X26382428Y-12804714D01*
X26453857Y-12804714D01*
X26496714Y-12819000D01*
X26525286Y-12847571D01*
X26539571Y-12876143D01*
X26553857Y-12933286D01*
X26553857Y-12976143D01*
X26539571Y-13033286D01*
X26525286Y-13061857D01*
X26496714Y-13090429D01*
X26453857Y-13104714D01*
X26382428Y-13104714D01*
X26682428Y-13104714D02*
X26682428Y-12904714D01*
X26682428Y-12961857D02*
X26696714Y-12933286D01*
X26711000Y-12919000D01*
X26739571Y-12904714D01*
X26768143Y-12904714D01*
X26868143Y-13104714D02*
X26868143Y-12904714D01*
X26868143Y-12804714D02*
X26853857Y-12819000D01*
X26868143Y-12833286D01*
X26882428Y-12819000D01*
X26868143Y-12804714D01*
X26868143Y-12833286D01*
X27053857Y-13104714D02*
X27025286Y-13090429D01*
X27011000Y-13061857D01*
X27011000Y-12804714D01*
X27211000Y-13104714D02*
X27182428Y-13090429D01*
X27168143Y-13061857D01*
X27168143Y-12804714D01*
X27553857Y-13104714D02*
X27553857Y-12804714D01*
X27653857Y-13019000D01*
X27753857Y-12804714D01*
X27753857Y-13104714D01*
X28025286Y-13104714D02*
X28025286Y-12947571D01*
X28011000Y-12919000D01*
X27982428Y-12904714D01*
X27925286Y-12904714D01*
X27896714Y-12919000D01*
X28025286Y-13090429D02*
X27996714Y-13104714D01*
X27925286Y-13104714D01*
X27896714Y-13090429D01*
X27882428Y-13061857D01*
X27882428Y-13033286D01*
X27896714Y-13004714D01*
X27925286Y-12990429D01*
X27996714Y-12990429D01*
X28025286Y-12976143D01*
X28168143Y-12904714D02*
X28168143Y-13204714D01*
X28168143Y-12919000D02*
X28196714Y-12904714D01*
X28253857Y-12904714D01*
X28282428Y-12919000D01*
X28296714Y-12933286D01*
X28311000Y-12961857D01*
X28311000Y-13047571D01*
X28296714Y-13076143D01*
X28282428Y-13090429D01*
X28253857Y-13104714D01*
X28196714Y-13104714D01*
X28168143Y-13090429D01*
X28439571Y-13076143D02*
X28453857Y-13090429D01*
X28439571Y-13104714D01*
X28425286Y-13090429D01*
X28439571Y-13076143D01*
X28439571Y-13104714D01*
X28439571Y-12919000D02*
X28453857Y-12933286D01*
X28439571Y-12947571D01*
X28425286Y-12933286D01*
X28439571Y-12919000D01*
X28439571Y-12947571D01*
X25926000Y-13514000D02*
X26096000Y-13684000D01*
X26096000Y-13514000D02*
X25926000Y-13684000D01*
X26539571Y-13734714D02*
X26368143Y-13734714D01*
X26453857Y-13734714D02*
X26453857Y-13434714D01*
X26425286Y-13477571D01*
X26396714Y-13506143D01*
X26368143Y-13520429D01*
X26668143Y-13706143D02*
X26682428Y-13720429D01*
X26668143Y-13734714D01*
X26653857Y-13720429D01*
X26668143Y-13706143D01*
X26668143Y-13734714D01*
X26782428Y-13434714D02*
X26982428Y-13434714D01*
X26853857Y-13734714D01*
X27153857Y-13434714D02*
X27182428Y-13434714D01*
X27211000Y-13449000D01*
X27225286Y-13463286D01*
X27239571Y-13491857D01*
X27253857Y-13549000D01*
X27253857Y-13620429D01*
X27239571Y-13677571D01*
X27225286Y-13706143D01*
X27211000Y-13720429D01*
X27182428Y-13734714D01*
X27153857Y-13734714D01*
X27125286Y-13720429D01*
X27111000Y-13706143D01*
X27096714Y-13677571D01*
X27082428Y-13620429D01*
X27082428Y-13549000D01*
X27096714Y-13491857D01*
X27111000Y-13463286D01*
X27125286Y-13449000D01*
X27153857Y-13434714D01*
X27382428Y-13734714D02*
X27382428Y-13534714D01*
X27382428Y-13563286D02*
X27396714Y-13549000D01*
X27425286Y-13534714D01*
X27468143Y-13534714D01*
X27496714Y-13549000D01*
X27511000Y-13577571D01*
X27511000Y-13734714D01*
X27511000Y-13577571D02*
X27525286Y-13549000D01*
X27553857Y-13534714D01*
X27596714Y-13534714D01*
X27625286Y-13549000D01*
X27639571Y-13577571D01*
X27639571Y-13734714D01*
X27782428Y-13734714D02*
X27782428Y-13534714D01*
X27782428Y-13563286D02*
X27796714Y-13549000D01*
X27825286Y-13534714D01*
X27868143Y-13534714D01*
X27896714Y-13549000D01*
X27911000Y-13577571D01*
X27911000Y-13734714D01*
X27911000Y-13577571D02*
X27925286Y-13549000D01*
X27953857Y-13534714D01*
X27996714Y-13534714D01*
X28025286Y-13549000D01*
X28039571Y-13577571D01*
X28039571Y-13734714D01*
X28625286Y-13420429D02*
X28368143Y-13806143D01*
X29011000Y-13434714D02*
X29039571Y-13434714D01*
X29068143Y-13449000D01*
X29082428Y-13463286D01*
X29096714Y-13491857D01*
X29111000Y-13549000D01*
X29111000Y-13620429D01*
X29096714Y-13677571D01*
X29082428Y-13706143D01*
X29068143Y-13720429D01*
X29039571Y-13734714D01*
X29011000Y-13734714D01*
X28982428Y-13720429D01*
X28968143Y-13706143D01*
X28953857Y-13677571D01*
X28939571Y-13620429D01*
X28939571Y-13549000D01*
X28953857Y-13491857D01*
X28968143Y-13463286D01*
X28982428Y-13449000D01*
X29011000Y-13434714D01*
X29239571Y-13706143D02*
X29253857Y-13720429D01*
X29239571Y-13734714D01*
X29225286Y-13720429D01*
X29239571Y-13706143D01*
X29239571Y-13734714D01*
X29439571Y-13434714D02*
X29468143Y-13434714D01*
X29496714Y-13449000D01*
X29511000Y-13463286D01*
X29525286Y-13491857D01*
X29539571Y-13549000D01*
X29539571Y-13620429D01*
X29525286Y-13677571D01*
X29511000Y-13706143D01*
X29496714Y-13720429D01*
X29468143Y-13734714D01*
X29439571Y-13734714D01*
X29411000Y-13720429D01*
X29396714Y-13706143D01*
X29382428Y-13677571D01*
X29368143Y-13620429D01*
X29368143Y-13549000D01*
X29382428Y-13491857D01*
X29396714Y-13463286D01*
X29411000Y-13449000D01*
X29439571Y-13434714D01*
X29796714Y-13434714D02*
X29739571Y-13434714D01*
X29711000Y-13449000D01*
X29696714Y-13463286D01*
X29668143Y-13506143D01*
X29653857Y-13563286D01*
X29653857Y-13677571D01*
X29668143Y-13706143D01*
X29682428Y-13720429D01*
X29711000Y-13734714D01*
X29768143Y-13734714D01*
X29796714Y-13720429D01*
X29811000Y-13706143D01*
X29825286Y-13677571D01*
X29825286Y-13606143D01*
X29811000Y-13577571D01*
X29796714Y-13563286D01*
X29768143Y-13549000D01*
X29711000Y-13549000D01*
X29682428Y-13563286D01*
X29668143Y-13577571D01*
X29653857Y-13606143D01*
X29925286Y-13434714D02*
X30125286Y-13434714D01*
X29996714Y-13734714D01*
X30225286Y-13434714D02*
X30225286Y-13491857D01*
X30339571Y-13434714D02*
X30339571Y-13491857D01*
X30782428Y-13849000D02*
X30768143Y-13834714D01*
X30739571Y-13791857D01*
X30725286Y-13763286D01*
X30711000Y-13720429D01*
X30696714Y-13649000D01*
X30696714Y-13591857D01*
X30711000Y-13520429D01*
X30725286Y-13477571D01*
X30739571Y-13449000D01*
X30768143Y-13406143D01*
X30782428Y-13391857D01*
X30882428Y-13463286D02*
X30896714Y-13449000D01*
X30925286Y-13434714D01*
X30996714Y-13434714D01*
X31025286Y-13449000D01*
X31039571Y-13463286D01*
X31053857Y-13491857D01*
X31053857Y-13520429D01*
X31039571Y-13563286D01*
X30868143Y-13734714D01*
X31053857Y-13734714D01*
X31411000Y-13734714D02*
X31411000Y-13434714D01*
X31539571Y-13734714D02*
X31539571Y-13577571D01*
X31525286Y-13549000D01*
X31496714Y-13534714D01*
X31453857Y-13534714D01*
X31425286Y-13549000D01*
X31411000Y-13563286D01*
X31725286Y-13734714D02*
X31696714Y-13720429D01*
X31682428Y-13706143D01*
X31668143Y-13677571D01*
X31668143Y-13591857D01*
X31682428Y-13563286D01*
X31696714Y-13549000D01*
X31725286Y-13534714D01*
X31768143Y-13534714D01*
X31796714Y-13549000D01*
X31811000Y-13563286D01*
X31825286Y-13591857D01*
X31825286Y-13677571D01*
X31811000Y-13706143D01*
X31796714Y-13720429D01*
X31768143Y-13734714D01*
X31725286Y-13734714D01*
X31996714Y-13734714D02*
X31968143Y-13720429D01*
X31953857Y-13691857D01*
X31953857Y-13434714D01*
X32225286Y-13720429D02*
X32196714Y-13734714D01*
X32139571Y-13734714D01*
X32111000Y-13720429D01*
X32096714Y-13691857D01*
X32096714Y-13577571D01*
X32111000Y-13549000D01*
X32139571Y-13534714D01*
X32196714Y-13534714D01*
X32225286Y-13549000D01*
X32239571Y-13577571D01*
X32239571Y-13606143D01*
X32096714Y-13634714D01*
X32353857Y-13720429D02*
X32382428Y-13734714D01*
X32439571Y-13734714D01*
X32468143Y-13720429D01*
X32482428Y-13691857D01*
X32482428Y-13677571D01*
X32468143Y-13649000D01*
X32439571Y-13634714D01*
X32396714Y-13634714D01*
X32368143Y-13620429D01*
X32353857Y-13591857D01*
X32353857Y-13577571D01*
X32368143Y-13549000D01*
X32396714Y-13534714D01*
X32439571Y-13534714D01*
X32468143Y-13549000D01*
X32582428Y-13849000D02*
X32596714Y-13834714D01*
X32625286Y-13791857D01*
X32639571Y-13763286D01*
X32653857Y-13720429D01*
X32668143Y-13649000D01*
X32668143Y-13591857D01*
X32653857Y-13520429D01*
X32639571Y-13477571D01*
X32625286Y-13449000D01*
X32596714Y-13406143D01*
X32582428Y-13391857D01*
X33125286Y-13849000D02*
X33111000Y-13834714D01*
X33082428Y-13791857D01*
X33068143Y-13763286D01*
X33053857Y-13720429D01*
X33039571Y-13649000D01*
X33039571Y-13591857D01*
X33053857Y-13520429D01*
X33068143Y-13477571D01*
X33082428Y-13449000D01*
X33111000Y-13406143D01*
X33125286Y-13391857D01*
X33239571Y-13534714D02*
X33239571Y-13734714D01*
X33239571Y-13563286D02*
X33253857Y-13549000D01*
X33282428Y-13534714D01*
X33325286Y-13534714D01*
X33353857Y-13549000D01*
X33368143Y-13577571D01*
X33368143Y-13734714D01*
X33553857Y-13734714D02*
X33525286Y-13720429D01*
X33511000Y-13706143D01*
X33496714Y-13677571D01*
X33496714Y-13591857D01*
X33511000Y-13563286D01*
X33525286Y-13549000D01*
X33553857Y-13534714D01*
X33596714Y-13534714D01*
X33625286Y-13549000D01*
X33639571Y-13563286D01*
X33653857Y-13591857D01*
X33653857Y-13677571D01*
X33639571Y-13706143D01*
X33625286Y-13720429D01*
X33596714Y-13734714D01*
X33553857Y-13734714D01*
X33739571Y-13534714D02*
X33853857Y-13534714D01*
X33782428Y-13434714D02*
X33782428Y-13691857D01*
X33796714Y-13720429D01*
X33825286Y-13734714D01*
X33853857Y-13734714D01*
X34182428Y-13534714D02*
X34182428Y-13834714D01*
X34182428Y-13549000D02*
X34211000Y-13534714D01*
X34268143Y-13534714D01*
X34296714Y-13549000D01*
X34311000Y-13563286D01*
X34325286Y-13591857D01*
X34325286Y-13677571D01*
X34311000Y-13706143D01*
X34296714Y-13720429D01*
X34268143Y-13734714D01*
X34211000Y-13734714D01*
X34182428Y-13720429D01*
X34496714Y-13734714D02*
X34468143Y-13720429D01*
X34453857Y-13691857D01*
X34453857Y-13434714D01*
X34739571Y-13734714D02*
X34739571Y-13577571D01*
X34725286Y-13549000D01*
X34696714Y-13534714D01*
X34639571Y-13534714D01*
X34611000Y-13549000D01*
X34739571Y-13720429D02*
X34711000Y-13734714D01*
X34639571Y-13734714D01*
X34611000Y-13720429D01*
X34596714Y-13691857D01*
X34596714Y-13663286D01*
X34611000Y-13634714D01*
X34639571Y-13620429D01*
X34711000Y-13620429D01*
X34739571Y-13606143D01*
X34839571Y-13534714D02*
X34953857Y-13534714D01*
X34882428Y-13434714D02*
X34882428Y-13691857D01*
X34896714Y-13720429D01*
X34925286Y-13734714D01*
X34953857Y-13734714D01*
X35168143Y-13720429D02*
X35139571Y-13734714D01*
X35082428Y-13734714D01*
X35053857Y-13720429D01*
X35039571Y-13691857D01*
X35039571Y-13577571D01*
X35053857Y-13549000D01*
X35082428Y-13534714D01*
X35139571Y-13534714D01*
X35168143Y-13549000D01*
X35182428Y-13577571D01*
X35182428Y-13606143D01*
X35039571Y-13634714D01*
X35439571Y-13734714D02*
X35439571Y-13434714D01*
X35439571Y-13720429D02*
X35411000Y-13734714D01*
X35353857Y-13734714D01*
X35325286Y-13720429D01*
X35311000Y-13706143D01*
X35296714Y-13677571D01*
X35296714Y-13591857D01*
X35311000Y-13563286D01*
X35325286Y-13549000D01*
X35353857Y-13534714D01*
X35411000Y-13534714D01*
X35439571Y-13549000D01*
X35553857Y-13849000D02*
X35568143Y-13834714D01*
X35596714Y-13791857D01*
X35611000Y-13763286D01*
X35625286Y-13720429D01*
X35639571Y-13649000D01*
X35639571Y-13591857D01*
X35625286Y-13520429D01*
X35611000Y-13477571D01*
X35596714Y-13449000D01*
X35568143Y-13406143D01*
X35553857Y-13391857D01*
X26096000Y-13995000D02*
G75*
G03*
X26096000Y-13995000I-200000J0D01*
G01*
X26511000Y-13930714D02*
X26511000Y-14130714D01*
X26439571Y-13816429D02*
X26368143Y-14030714D01*
X26553857Y-14030714D01*
X26668143Y-14102143D02*
X26682428Y-14116429D01*
X26668143Y-14130714D01*
X26653857Y-14116429D01*
X26668143Y-14102143D01*
X26668143Y-14130714D01*
X26868143Y-13830714D02*
X26896714Y-13830714D01*
X26925286Y-13845000D01*
X26939571Y-13859286D01*
X26953857Y-13887857D01*
X26968143Y-13945000D01*
X26968143Y-14016429D01*
X26953857Y-14073571D01*
X26939571Y-14102143D01*
X26925286Y-14116429D01*
X26896714Y-14130714D01*
X26868143Y-14130714D01*
X26839571Y-14116429D01*
X26825286Y-14102143D01*
X26811000Y-14073571D01*
X26796714Y-14016429D01*
X26796714Y-13945000D01*
X26811000Y-13887857D01*
X26825286Y-13859286D01*
X26839571Y-13845000D01*
X26868143Y-13830714D01*
X27153857Y-13830714D02*
X27182428Y-13830714D01*
X27211000Y-13845000D01*
X27225286Y-13859286D01*
X27239571Y-13887857D01*
X27253857Y-13945000D01*
X27253857Y-14016429D01*
X27239571Y-14073571D01*
X27225286Y-14102143D01*
X27211000Y-14116429D01*
X27182428Y-14130714D01*
X27153857Y-14130714D01*
X27125286Y-14116429D01*
X27111000Y-14102143D01*
X27096714Y-14073571D01*
X27082428Y-14016429D01*
X27082428Y-13945000D01*
X27096714Y-13887857D01*
X27111000Y-13859286D01*
X27125286Y-13845000D01*
X27153857Y-13830714D01*
X27382428Y-14130714D02*
X27382428Y-13930714D01*
X27382428Y-13959286D02*
X27396714Y-13945000D01*
X27425286Y-13930714D01*
X27468143Y-13930714D01*
X27496714Y-13945000D01*
X27511000Y-13973571D01*
X27511000Y-14130714D01*
X27511000Y-13973571D02*
X27525286Y-13945000D01*
X27553857Y-13930714D01*
X27596714Y-13930714D01*
X27625286Y-13945000D01*
X27639571Y-13973571D01*
X27639571Y-14130714D01*
X27782428Y-14130714D02*
X27782428Y-13930714D01*
X27782428Y-13959286D02*
X27796714Y-13945000D01*
X27825286Y-13930714D01*
X27868143Y-13930714D01*
X27896714Y-13945000D01*
X27911000Y-13973571D01*
X27911000Y-14130714D01*
X27911000Y-13973571D02*
X27925286Y-13945000D01*
X27953857Y-13930714D01*
X27996714Y-13930714D01*
X28025286Y-13945000D01*
X28039571Y-13973571D01*
X28039571Y-14130714D01*
X28625286Y-13816429D02*
X28368143Y-14202143D01*
X29011000Y-13830714D02*
X29039571Y-13830714D01*
X29068143Y-13845000D01*
X29082428Y-13859286D01*
X29096714Y-13887857D01*
X29111000Y-13945000D01*
X29111000Y-14016429D01*
X29096714Y-14073571D01*
X29082428Y-14102143D01*
X29068143Y-14116429D01*
X29039571Y-14130714D01*
X29011000Y-14130714D01*
X28982428Y-14116429D01*
X28968143Y-14102143D01*
X28953857Y-14073571D01*
X28939571Y-14016429D01*
X28939571Y-13945000D01*
X28953857Y-13887857D01*
X28968143Y-13859286D01*
X28982428Y-13845000D01*
X29011000Y-13830714D01*
X29239571Y-14102143D02*
X29253857Y-14116429D01*
X29239571Y-14130714D01*
X29225286Y-14116429D01*
X29239571Y-14102143D01*
X29239571Y-14130714D01*
X29539571Y-14130714D02*
X29368143Y-14130714D01*
X29453857Y-14130714D02*
X29453857Y-13830714D01*
X29425286Y-13873571D01*
X29396714Y-13902143D01*
X29368143Y-13916429D01*
X29811000Y-13830714D02*
X29668143Y-13830714D01*
X29653857Y-13973571D01*
X29668143Y-13959286D01*
X29696714Y-13945000D01*
X29768143Y-13945000D01*
X29796714Y-13959286D01*
X29811000Y-13973571D01*
X29825286Y-14002143D01*
X29825286Y-14073571D01*
X29811000Y-14102143D01*
X29796714Y-14116429D01*
X29768143Y-14130714D01*
X29696714Y-14130714D01*
X29668143Y-14116429D01*
X29653857Y-14102143D01*
X29925286Y-13830714D02*
X30125286Y-13830714D01*
X29996714Y-14130714D01*
X30225286Y-13830714D02*
X30225286Y-13887857D01*
X30339571Y-13830714D02*
X30339571Y-13887857D01*
X30782428Y-14245000D02*
X30768143Y-14230714D01*
X30739571Y-14187857D01*
X30725286Y-14159286D01*
X30711000Y-14116429D01*
X30696714Y-14045000D01*
X30696714Y-13987857D01*
X30711000Y-13916429D01*
X30725286Y-13873571D01*
X30739571Y-13845000D01*
X30768143Y-13802143D01*
X30782428Y-13787857D01*
X31053857Y-14130714D02*
X30882428Y-14130714D01*
X30968143Y-14130714D02*
X30968143Y-13830714D01*
X30939571Y-13873571D01*
X30911000Y-13902143D01*
X30882428Y-13916429D01*
X31411000Y-14130714D02*
X31411000Y-13830714D01*
X31539571Y-14130714D02*
X31539571Y-13973571D01*
X31525286Y-13945000D01*
X31496714Y-13930714D01*
X31453857Y-13930714D01*
X31425286Y-13945000D01*
X31411000Y-13959286D01*
X31725286Y-14130714D02*
X31696714Y-14116429D01*
X31682428Y-14102143D01*
X31668143Y-14073571D01*
X31668143Y-13987857D01*
X31682428Y-13959286D01*
X31696714Y-13945000D01*
X31725286Y-13930714D01*
X31768143Y-13930714D01*
X31796714Y-13945000D01*
X31811000Y-13959286D01*
X31825286Y-13987857D01*
X31825286Y-14073571D01*
X31811000Y-14102143D01*
X31796714Y-14116429D01*
X31768143Y-14130714D01*
X31725286Y-14130714D01*
X31996714Y-14130714D02*
X31968143Y-14116429D01*
X31953857Y-14087857D01*
X31953857Y-13830714D01*
X32225286Y-14116429D02*
X32196714Y-14130714D01*
X32139571Y-14130714D01*
X32111000Y-14116429D01*
X32096714Y-14087857D01*
X32096714Y-13973571D01*
X32111000Y-13945000D01*
X32139571Y-13930714D01*
X32196714Y-13930714D01*
X32225286Y-13945000D01*
X32239571Y-13973571D01*
X32239571Y-14002143D01*
X32096714Y-14030714D01*
X32339571Y-14245000D02*
X32353857Y-14230714D01*
X32382428Y-14187857D01*
X32396714Y-14159286D01*
X32411000Y-14116429D01*
X32425286Y-14045000D01*
X32425286Y-13987857D01*
X32411000Y-13916429D01*
X32396714Y-13873571D01*
X32382428Y-13845000D01*
X32353857Y-13802143D01*
X32339571Y-13787857D01*
X32882428Y-14245000D02*
X32868143Y-14230714D01*
X32839571Y-14187857D01*
X32825286Y-14159286D01*
X32811000Y-14116429D01*
X32796714Y-14045000D01*
X32796714Y-13987857D01*
X32811000Y-13916429D01*
X32825286Y-13873571D01*
X32839571Y-13845000D01*
X32868143Y-13802143D01*
X32882428Y-13787857D01*
X32996714Y-13930714D02*
X32996714Y-14130714D01*
X32996714Y-13959286D02*
X33011000Y-13945000D01*
X33039571Y-13930714D01*
X33082428Y-13930714D01*
X33111000Y-13945000D01*
X33125286Y-13973571D01*
X33125286Y-14130714D01*
X33311000Y-14130714D02*
X33282428Y-14116429D01*
X33268143Y-14102143D01*
X33253857Y-14073571D01*
X33253857Y-13987857D01*
X33268143Y-13959286D01*
X33282428Y-13945000D01*
X33311000Y-13930714D01*
X33353857Y-13930714D01*
X33382428Y-13945000D01*
X33396714Y-13959286D01*
X33411000Y-13987857D01*
X33411000Y-14073571D01*
X33396714Y-14102143D01*
X33382428Y-14116429D01*
X33353857Y-14130714D01*
X33311000Y-14130714D01*
X33496714Y-13930714D02*
X33611000Y-13930714D01*
X33539571Y-13830714D02*
X33539571Y-14087857D01*
X33553857Y-14116429D01*
X33582428Y-14130714D01*
X33611000Y-14130714D01*
X33939571Y-13930714D02*
X33939571Y-14230714D01*
X33939571Y-13945000D02*
X33968143Y-13930714D01*
X34025286Y-13930714D01*
X34053857Y-13945000D01*
X34068143Y-13959286D01*
X34082428Y-13987857D01*
X34082428Y-14073571D01*
X34068143Y-14102143D01*
X34053857Y-14116429D01*
X34025286Y-14130714D01*
X33968143Y-14130714D01*
X33939571Y-14116429D01*
X34253857Y-14130714D02*
X34225286Y-14116429D01*
X34211000Y-14087857D01*
X34211000Y-13830714D01*
X34496714Y-14130714D02*
X34496714Y-13973571D01*
X34482428Y-13945000D01*
X34453857Y-13930714D01*
X34396714Y-13930714D01*
X34368143Y-13945000D01*
X34496714Y-14116429D02*
X34468143Y-14130714D01*
X34396714Y-14130714D01*
X34368143Y-14116429D01*
X34353857Y-14087857D01*
X34353857Y-14059286D01*
X34368143Y-14030714D01*
X34396714Y-14016429D01*
X34468143Y-14016429D01*
X34496714Y-14002143D01*
X34596714Y-13930714D02*
X34711000Y-13930714D01*
X34639571Y-13830714D02*
X34639571Y-14087857D01*
X34653857Y-14116429D01*
X34682428Y-14130714D01*
X34711000Y-14130714D01*
X34925286Y-14116429D02*
X34896714Y-14130714D01*
X34839571Y-14130714D01*
X34811000Y-14116429D01*
X34796714Y-14087857D01*
X34796714Y-13973571D01*
X34811000Y-13945000D01*
X34839571Y-13930714D01*
X34896714Y-13930714D01*
X34925286Y-13945000D01*
X34939571Y-13973571D01*
X34939571Y-14002143D01*
X34796714Y-14030714D01*
X35196714Y-14130714D02*
X35196714Y-13830714D01*
X35196714Y-14116429D02*
X35168143Y-14130714D01*
X35111000Y-14130714D01*
X35082428Y-14116429D01*
X35068143Y-14102143D01*
X35053857Y-14073571D01*
X35053857Y-13987857D01*
X35068143Y-13959286D01*
X35082428Y-13945000D01*
X35111000Y-13930714D01*
X35168143Y-13930714D01*
X35196714Y-13945000D01*
X35311000Y-14245000D02*
X35325286Y-14230714D01*
X35353857Y-14187857D01*
X35368143Y-14159286D01*
X35382428Y-14116429D01*
X35396714Y-14045000D01*
X35396714Y-13987857D01*
X35382428Y-13916429D01*
X35368143Y-13873571D01*
X35353857Y-13845000D01*
X35325286Y-13802143D01*
X35311000Y-13787857D01*
M02*
