<?xml version="1.0" encoding="UTF-8"?>
<svg xmlns="http://www.w3.org/2000/svg" width="211.66mm" height="153.17mm" viewBox="0 0 211.656 153.169">
<g fill="none" stroke-width="0.25">
<!-- PLATE CUT LINE = recess opening (ledge outer edge) -->
<path d="M 9.847,93.662 L 9.837,93.260 L 9.828,92.858 L 9.819,92.456 L 9.809,92.054 L 9.800,91.652 L 9.790,91.250 L 9.781,90.848 L 9.771,90.446 L 9.762,90.044 L 9.752,89.642 L 9.743,89.240 L 9.733,88.838 L 9.724,88.436 L 9.714,88.034 L 9.705,87.632 L 9.695,87.230 L 9.686,86.828 L 9.676,86.426 L 9.667,86.024 L 9.657,85.622 L 9.648,85.220 L 9.638,84.818 L 9.629,84.416 L 9.620,84.014 L 9.610,83.612 L 9.601,83.210 L 9.591,82.808 L 9.582,82.406 L 9.572,82.004 L 9.563,81.602 L 9.553,81.200 L 9.544,80.798 L 9.534,80.396 L 9.525,79.994 L 9.515,79.592 L 9.506,79.190 L 9.496,78.788 L 9.487,78.386 L 9.477,77.984 L 9.468,77.582 L 9.458,77.180 L 9.449,76.778 L 9.440,76.376 L 9.430,75.974 L 9.421,75.572 L 9.411,75.170 L 9.402,74.768 L 9.392,74.366 L 9.383,73.964 L 9.373,73.562 L 9.364,73.160 L 9.354,72.758 L 9.345,72.356 L 9.335,71.954 L 9.326,71.552 L 9.316,71.150 L 9.307,70.748 L 9.297,70.346 L 9.288,69.944 L 9.278,69.541 L 9.269,69.139 L 9.259,68.737 L 9.250,68.335 L 9.241,67.933 L 9.231,67.531 L 9.222,67.129 L 9.212,66.727 L 9.203,66.325 L 9.193,65.923 L 9.184,65.521 L 9.174,65.119 L 9.165,64.717 L 9.155,64.315 L 9.146,63.913 L 9.136,63.511 L 9.127,63.109 L 9.117,62.707 L 9.108,62.305 L 9.098,61.903 L 9.089,61.501 L 9.079,61.099 L 9.070,60.697 L 9.060,60.295 L 9.051,59.893 L 9.042,59.491 L 9.032,59.089 L 9.023,58.687 L 9.013,58.285 L 9.004,57.883 L 8.994,57.481 L 8.985,57.079 L 8.975,56.677 L 8.966,56.275 L 8.956,55.873 L 8.947,55.471 L 8.937,55.069 L 8.928,54.667 L 8.918,54.265 L 8.909,53.863 L 8.899,53.461 L 8.890,53.059 L 8.880,52.657 L 8.871,52.255 L 8.862,51.853 L 8.852,51.451 L 8.843,51.049 L 8.833,50.647 L 8.824,50.245 L 8.814,49.843 L 8.805,49.441 L 8.795,49.039 L 8.786,48.637 L 8.776,48.235 L 8.767,47.833 L 8.757,47.431 L 8.748,47.029 L 8.738,46.627 L 8.729,46.225 L 8.719,45.823 L 8.710,45.421 L 8.700,45.019 L 8.691,44.617 L 8.681,44.215 L 8.672,43.813 L 8.663,43.411 L 8.653,43.009 L 8.644,42.607 L 8.634,42.205 L 8.625,41.803 L 8.615,41.401 L 8.606,40.999 L 8.596,40.597 L 8.587,40.195 L 8.577,39.793 L 8.568,39.391 L 8.558,38.989 L 8.549,38.587 L 8.539,38.185 L 8.530,37.783 L 8.520,37.380 L 8.511,36.978 L 8.501,36.576 L 8.492,36.174 L 8.482,35.772 L 8.473,35.370 L 8.464,34.968 L 8.454,34.566 L 8.445,34.164 L 8.435,33.762 L 8.426,33.360 L 8.416,32.958 L 8.407,32.556 L 8.397,32.154 L 8.388,31.752 L 8.378,31.350 L 8.369,30.948 L 8.359,30.546 L 8.350,30.144 L 8.340,29.742 L 8.331,29.340 L 8.321,28.938 L 8.312,28.536 L 8.302,28.134 L 8.293,27.732 L 8.284,27.330 L 8.274,26.928 L 8.265,26.526 L 8.255,26.124 L 8.246,25.722 L 8.236,25.320 L 8.227,24.918 L 8.217,24.516 L 8.208,24.114 L 8.198,23.712 L 8.189,23.310 L 8.179,22.908 L 8.170,22.506 L 8.160,22.104 L 8.151,21.702 L 8.141,21.300 L 8.132,20.898 L 8.122,20.496 L 8.113,20.094 L 8.103,19.692 L 8.094,19.290 L 8.085,18.888 L 8.075,18.486 L 8.066,18.084 L 8.056,17.682 L 8.047,17.280 L 8.037,16.878 L 8.028,16.476 L 8.018,16.074 L 8.009,15.672 L 8.009,15.672 L 8.211,15.143 L 8.413,14.615 L 8.614,14.086 L 8.816,13.558 L 8.816,13.558 L 9.198,13.159 L 9.198,13.159 L 9.660,12.945 L 10.122,12.731 L 10.583,12.517 L 11.045,12.303 L 11.045,12.303 L 11.448,12.279 L 11.851,12.254 L 12.254,12.230 L 12.658,12.205 L 13.061,12.181 L 13.464,12.156 L 13.867,12.132 L 14.270,12.107 L 14.673,12.083 L 15.076,12.058 L 15.480,12.034 L 15.883,12.010 L 16.286,11.985 L 16.689,11.961 L 17.092,11.936 L 17.495,11.912 L 17.898,11.887 L 18.302,11.863 L 18.705,11.838 L 19.108,11.814 L 19.511,11.790 L 19.914,11.765 L 20.317,11.741 L 20.720,11.716 L 21.123,11.692 L 21.527,11.667 L 21.930,11.643 L 22.333,11.618 L 22.736,11.594 L 23.139,11.570 L 23.542,11.545 L 23.945,11.521 L 24.349,11.496 L 24.752,11.472 L 25.155,11.447 L 25.558,11.423 L 25.961,11.398 L 26.364,11.374 L 26.767,11.349 L 27.171,11.325 L 27.574,11.301 L 27.977,11.276 L 28.380,11.252 L 28.783,11.227 L 29.186,11.203 L 29.589,11.178 L 29.993,11.154 L 30.396,11.129 L 30.799,11.105 L 31.202,11.081 L 31.605,11.056 L 32.008,11.032 L 32.411,11.007 L 32.814,10.983 L 33.218,10.958 L 33.621,10.934 L 34.024,10.909 L 34.427,10.885 L 34.830,10.861 L 35.233,10.836 L 35.636,10.812 L 36.040,10.787 L 36.443,10.763 L 36.846,10.738 L 37.249,10.714 L 37.652,10.689 L 38.055,10.665 L 38.458,10.640 L 38.862,10.616 L 39.265,10.592 L 39.668,10.567 L 40.071,10.543 L 40.474,10.518 L 40.877,10.494 L 41.280,10.469 L 41.683,10.445 L 42.087,10.420 L 42.490,10.396 L 42.893,10.372 L 43.296,10.347 L 43.699,10.323 L 44.102,10.298 L 44.505,10.274 L 44.909,10.249 L 45.312,10.225 L 45.715,10.200 L 46.118,10.176 L 46.521,10.151 L 46.924,10.127 L 47.327,10.103 L 47.731,10.078 L 48.134,10.054 L 48.537,10.029 L 48.940,10.005 L 49.343,9.980 L 49.746,9.956 L 50.149,9.931 L 50.553,9.907 L 50.956,9.883 L 51.359,9.858 L 51.762,9.834 L 52.165,9.809 L 52.568,9.785 L 52.971,9.760 L 53.374,9.736 L 53.778,9.711 L 54.181,9.687 L 54.584,9.663 L 54.987,9.638 L 55.390,9.614 L 55.793,9.589 L 56.196,9.565 L 56.600,9.540 L 57.003,9.516 L 57.406,9.491 L 57.809,9.467 L 58.212,9.442 L 58.615,9.418 L 59.018,9.394 L 59.422,9.369 L 59.825,9.345 L 60.228,9.320 L 60.631,9.296 L 61.034,9.271 L 61.437,9.247 L 61.840,9.222 L 62.243,9.198 L 62.647,9.174 L 63.050,9.149 L 63.453,9.125 L 63.856,9.100 L 64.259,9.076 L 64.662,9.051 L 65.065,9.027 L 65.469,9.002 L 65.872,8.978 L 66.275,8.954 L 66.678,8.929 L 67.081,8.905 L 67.484,8.880 L 67.887,8.856 L 68.291,8.831 L 68.694,8.807 L 69.097,8.782 L 69.500,8.758 L 69.903,8.733 L 70.306,8.709 L 70.709,8.685 L 71.112,8.660 L 71.516,8.636 L 71.919,8.611 L 72.322,8.587 L 72.725,8.562 L 73.128,8.538 L 73.531,8.513 L 73.934,8.489 L 74.338,8.465 L 74.741,8.440 L 75.144,8.416 L 75.547,8.391 L 75.950,8.367 L 76.353,8.342 L 76.756,8.318 L 77.160,8.293 L 77.563,8.269 L 77.966,8.244 L 78.369,8.220 L 78.772,8.196 L 79.175,8.171 L 79.578,8.147 L 79.982,8.122 L 80.385,8.098 L 80.788,8.073 L 81.191,8.049 L 81.594,8.024 L 81.997,8.000 L 81.997,8.000 L 82.404,8.000 L 82.810,8.000 L 83.216,8.000 L 83.622,8.000 L 84.029,8.000 L 84.435,8.000 L 84.841,8.000 L 85.248,8.000 L 85.654,8.000 L 86.060,8.000 L 86.467,8.000 L 86.873,8.000 L 87.279,8.000 L 87.686,8.000 L 88.092,8.000 L 88.498,8.000 L 88.905,8.000 L 89.311,8.000 L 89.717,8.000 L 90.124,8.000 L 90.530,8.000 L 90.936,8.000 L 91.343,8.000 L 91.749,8.000 L 92.155,8.000 L 92.561,8.000 L 92.968,8.000 L 93.374,8.000 L 93.780,8.000 L 94.187,8.000 L 94.593,8.000 L 94.999,8.000 L 95.406,8.000 L 95.812,8.000 L 96.218,8.000 L 96.625,8.000 L 97.031,8.000 L 97.437,8.000 L 97.844,8.000 L 98.250,8.000 L 98.656,8.000 L 99.063,8.000 L 99.469,8.000 L 99.875,8.000 L 100.282,8.000 L 100.688,8.000 L 101.094,8.000 L 101.501,8.000 L 101.907,8.000 L 102.313,8.000 L 102.719,8.000 L 103.126,8.000 L 103.532,8.000 L 103.938,8.000 L 104.345,8.000 L 104.751,8.000 L 105.157,8.000 L 105.564,8.000 L 105.970,8.000 L 106.376,8.000 L 106.783,8.000 L 107.189,8.000 L 107.595,8.000 L 108.002,8.000 L 108.408,8.000 L 108.814,8.000 L 109.221,8.000 L 109.627,8.000 L 110.033,8.000 L 110.440,8.000 L 110.846,8.000 L 111.252,8.000 L 111.658,8.000 L 112.065,8.000 L 112.471,8.000 L 112.877,8.000 L 113.284,8.000 L 113.690,8.000 L 114.096,8.000 L 114.503,8.000 L 114.909,8.000 L 115.315,8.000 L 115.722,8.000 L 116.128,8.000 L 116.534,8.000 L 116.941,8.000 L 117.347,8.000 L 117.753,8.000 L 118.160,8.000 L 118.566,8.000 L 118.972,8.000 L 119.379,8.000 L 119.785,8.000 L 120.191,8.000 L 120.598,8.000 L 121.004,8.000 L 121.410,8.000 L 121.816,8.000 L 122.223,8.000 L 122.629,8.000 L 123.035,8.000 L 123.442,8.000 L 123.848,8.000 L 124.254,8.000 L 124.661,8.000 L 125.067,8.000 L 125.473,8.000 L 125.880,8.000 L 126.286,8.000 L 126.692,8.000 L 127.099,8.000 L 127.505,8.000 L 127.505,8.000 L 127.907,8.035 L 128.310,8.070 L 128.712,8.105 L 129.115,8.140 L 129.517,8.176 L 129.920,8.211 L 130.322,8.246 L 130.725,8.281 L 131.127,8.316 L 131.530,8.351 L 131.932,8.386 L 132.334,8.421 L 132.737,8.456 L 133.139,8.491 L 133.542,8.527 L 133.944,8.562 L 134.347,8.597 L 134.749,8.632 L 135.152,8.667 L 135.554,8.702 L 135.957,8.737 L 136.359,8.772 L 136.761,8.807 L 137.164,8.842 L 137.566,8.878 L 137.969,8.913 L 138.371,8.948 L 138.774,8.983 L 139.176,9.018 L 139.579,9.053 L 139.981,9.088 L 140.384,9.123 L 140.786,9.158 L 141.188,9.193 L 141.591,9.229 L 141.993,9.264 L 142.396,9.299 L 142.798,9.334 L 143.201,9.369 L 143.603,9.404 L 144.006,9.439 L 144.408,9.474 L 144.811,9.509 L 145.213,9.545 L 145.615,9.580 L 146.018,9.615 L 146.420,9.650 L 146.823,9.685 L 147.225,9.720 L 147.628,9.755 L 148.030,9.790 L 148.433,9.825 L 148.835,9.860 L 149.238,9.896 L 149.640,9.931 L 150.042,9.966 L 150.445,10.001 L 150.847,10.036 L 151.250,10.071 L 151.652,10.106 L 152.055,10.141 L 152.457,10.176 L 152.860,10.211 L 153.262,10.247 L 153.665,10.282 L 154.067,10.317 L 154.470,10.352 L 154.872,10.387 L 155.274,10.422 L 155.677,10.457 L 156.079,10.492 L 156.482,10.527 L 156.884,10.562 L 157.287,10.598 L 157.689,10.633 L 158.092,10.668 L 158.494,10.703 L 158.897,10.738 L 159.299,10.773 L 159.701,10.808 L 160.104,10.843 L 160.506,10.878 L 160.909,10.914 L 161.311,10.949 L 161.714,10.984 L 162.116,11.019 L 162.519,11.054 L 162.921,11.089 L 163.324,11.124 L 163.726,11.159 L 164.128,11.194 L 164.531,11.229 L 164.933,11.265 L 165.336,11.300 L 165.738,11.335 L 166.141,11.370 L 166.543,11.405 L 166.946,11.440 L 167.348,11.475 L 167.751,11.510 L 168.153,11.545 L 168.555,11.580 L 168.958,11.616 L 169.360,11.651 L 169.763,11.686 L 170.165,11.721 L 170.568,11.756 L 170.970,11.791 L 171.373,11.826 L 171.775,11.861 L 172.178,11.896 L 172.580,11.931 L 172.982,11.967 L 173.385,12.002 L 173.787,12.037 L 174.190,12.072 L 174.592,12.107 L 174.995,12.142 L 175.397,12.177 L 175.800,12.212 L 176.202,12.247 L 176.605,12.283 L 177.007,12.318 L 177.410,12.353 L 177.812,12.388 L 178.214,12.423 L 178.617,12.458 L 179.019,12.493 L 179.422,12.528 L 179.824,12.563 L 180.227,12.598 L 180.629,12.634 L 181.032,12.669 L 181.434,12.704 L 181.837,12.739 L 182.239,12.774 L 182.641,12.809 L 183.044,12.844 L 183.446,12.879 L 183.849,12.914 L 184.251,12.949 L 184.654,12.985 L 185.056,13.020 L 185.459,13.055 L 185.861,13.090 L 186.264,13.125 L 186.666,13.160 L 187.068,13.195 L 187.471,13.230 L 187.873,13.265 L 188.276,13.300 L 188.678,13.336 L 189.081,13.371 L 189.483,13.406 L 189.886,13.441 L 190.288,13.476 L 190.691,13.511 L 191.093,13.546 L 191.495,13.581 L 191.898,13.616 L 192.300,13.652 L 192.703,13.687 L 193.105,13.722 L 193.508,13.757 L 193.910,13.792 L 194.313,13.827 L 194.715,13.862 L 195.118,13.897 L 195.520,13.932 L 195.922,13.967 L 196.325,14.003 L 196.727,14.038 L 197.130,14.073 L 197.532,14.108 L 197.935,14.143 L 198.337,14.178 L 198.740,14.213 L 199.142,14.248 L 199.545,14.283 L 199.947,14.318 L 200.350,14.354 L 200.752,14.389 L 201.154,14.424 L 201.154,14.424 L 201.465,14.778 L 201.775,15.133 L 202.086,15.487 L 202.396,15.842 L 202.707,16.196 L 203.017,16.551 L 203.328,16.905 L 203.638,17.260 L 203.638,17.260 L 203.629,17.662 L 203.619,18.065 L 203.610,18.468 L 203.600,18.870 L 203.591,19.273 L 203.581,19.676 L 203.572,20.078 L 203.562,20.481 L 203.553,20.883 L 203.543,21.286 L 203.534,21.689 L 203.524,22.091 L 203.515,22.494 L 203.505,22.897 L 203.496,23.299 L 203.486,23.702 L 203.477,24.105 L 203.467,24.507 L 203.458,24.910 L 203.448,25.313 L 203.439,25.715 L 203.430,26.118 L 203.420,26.520 L 203.411,26.923 L 203.401,27.326 L 203.392,27.728 L 203.382,28.131 L 203.373,28.534 L 203.363,28.936 L 203.354,29.339 L 203.344,29.742 L 203.335,30.144 L 203.325,30.547 L 203.316,30.950 L 203.306,31.352 L 203.297,31.755 L 203.287,32.157 L 203.278,32.560 L 203.268,32.963 L 203.259,33.365 L 203.249,33.768 L 203.240,34.171 L 203.230,34.573 L 203.221,34.976 L 203.211,35.379 L 203.202,35.781 L 203.192,36.184 L 203.183,36.587 L 203.173,36.989 L 203.164,37.392 L 203.154,37.794 L 203.145,38.197 L 203.135,38.600 L 203.126,39.002 L 203.116,39.405 L 203.107,39.808 L 203.097,40.210 L 203.088,40.613 L 203.078,41.016 L 203.069,41.418 L 203.059,41.821 L 203.050,42.223 L 203.040,42.626 L 203.031,43.029 L 203.021,43.431 L 203.012,43.834 L 203.002,44.237 L 202.993,44.639 L 202.983,45.042 L 202.974,45.445 L 202.964,45.847 L 202.955,46.250 L 202.946,46.653 L 202.936,47.055 L 202.927,47.458 L 202.917,47.860 L 202.908,48.263 L 202.898,48.666 L 202.889,49.068 L 202.879,49.471 L 202.870,49.874 L 202.860,50.276 L 202.851,50.679 L 202.841,51.082 L 202.832,51.484 L 202.822,51.887 L 202.813,52.290 L 202.803,52.692 L 202.794,53.095 L 202.784,53.497 L 202.775,53.900 L 202.765,54.303 L 202.756,54.705 L 202.746,55.108 L 202.737,55.511 L 202.727,55.913 L 202.718,56.316 L 202.708,56.719 L 202.699,57.121 L 202.689,57.524 L 202.680,57.927 L 202.670,58.329 L 202.661,58.732 L 202.651,59.134 L 202.642,59.537 L 202.632,59.940 L 202.623,60.342 L 202.613,60.745 L 202.604,61.148 L 202.594,61.550 L 202.585,61.953 L 202.575,62.356 L 202.566,62.758 L 202.556,63.161 L 202.547,63.564 L 202.537,63.966 L 202.528,64.369 L 202.518,64.771 L 202.509,65.174 L 202.499,65.577 L 202.490,65.979 L 202.480,66.382 L 202.471,66.785 L 202.461,67.187 L 202.452,67.590 L 202.443,67.993 L 202.433,68.395 L 202.424,68.798 L 202.414,69.200 L 202.405,69.603 L 202.395,70.006 L 202.386,70.408 L 202.376,70.811 L 202.367,71.214 L 202.357,71.616 L 202.348,72.019 L 202.338,72.422 L 202.329,72.824 L 202.319,73.227 L 202.310,73.630 L 202.300,74.032 L 202.291,74.435 L 202.281,74.837 L 202.272,75.240 L 202.262,75.643 L 202.253,76.045 L 202.243,76.448 L 202.234,76.851 L 202.224,77.253 L 202.215,77.656 L 202.205,78.059 L 202.196,78.461 L 202.186,78.864 L 202.177,79.267 L 202.167,79.669 L 202.158,80.072 L 202.148,80.474 L 202.139,80.877 L 202.129,81.280 L 202.120,81.682 L 202.110,82.085 L 202.101,82.488 L 202.091,82.890 L 202.082,83.293 L 202.072,83.696 L 202.063,84.098 L 202.053,84.501 L 202.044,84.904 L 202.034,85.306 L 202.025,85.709 L 202.015,86.111 L 202.006,86.514 L 201.996,86.917 L 201.987,87.319 L 201.977,87.722 L 201.968,88.125 L 201.959,88.527 L 201.949,88.930 L 201.940,89.333 L 201.930,89.735 L 201.921,90.138 L 201.911,90.541 L 201.902,90.943 L 201.892,91.346 L 201.883,91.748 L 201.873,92.151 L 201.864,92.554 L 201.854,92.956 L 201.845,93.359 L 201.835,93.762 L 201.826,94.164 L 201.816,94.567 L 201.807,94.970 L 201.797,95.372 L 201.788,95.775 L 201.778,96.177 L 201.769,96.580 L 201.759,96.983 L 201.750,97.385 L 201.740,97.788 L 201.731,98.191 L 201.721,98.593 L 201.712,98.996 L 201.702,99.399 L 201.693,99.801 L 201.683,100.204 L 201.674,100.607 L 201.664,101.009 L 201.655,101.412 L 201.645,101.814 L 201.636,102.217 L 201.626,102.620 L 201.617,103.022 L 201.617,103.022 L 201.446,103.982 L 201.446,103.982 L 201.314,104.371 L 201.181,104.759 L 201.049,105.148 L 200.917,105.537 L 200.785,105.925 L 200.652,106.314 L 200.520,106.702 L 200.388,107.091 L 200.256,107.479 L 200.124,107.868 L 199.991,108.256 L 199.859,108.645 L 199.727,109.034 L 199.595,109.422 L 199.462,109.811 L 199.330,110.199 L 199.198,110.588 L 199.066,110.976 L 198.934,111.365 L 198.801,111.754 L 198.669,112.142 L 198.537,112.531 L 198.405,112.919 L 198.272,113.308 L 198.140,113.696 L 198.008,114.085 L 197.876,114.474 L 197.744,114.862 L 197.611,115.251 L 197.479,115.639 L 197.347,116.028 L 197.215,116.416 L 197.082,116.805 L 196.950,117.194 L 196.818,117.582 L 196.686,117.971 L 196.554,118.359 L 196.421,118.748 L 196.289,119.136 L 196.157,119.525 L 196.025,119.914 L 195.892,120.302 L 195.760,120.691 L 195.628,121.079 L 195.496,121.468 L 195.364,121.856 L 195.231,122.245 L 195.099,122.634 L 195.099,122.634 L 194.683,123.290 L 194.267,123.946 L 194.267,123.946 L 193.886,124.316 L 193.505,124.686 L 193.124,125.056 L 192.743,125.426 L 192.362,125.797 L 192.362,125.797 L 191.876,126.028 L 191.391,126.259 L 190.905,126.491 L 190.419,126.722 L 190.419,126.722 L 190.021,126.769 L 189.622,126.816 L 189.223,126.862 L 188.825,126.909 L 188.426,126.956 L 188.027,127.003 L 187.629,127.049 L 187.230,127.096 L 186.832,127.143 L 186.433,127.190 L 186.034,127.237 L 185.636,127.283 L 185.237,127.330 L 184.838,127.377 L 184.440,127.424 L 184.041,127.470 L 183.642,127.517 L 183.244,127.564 L 182.845,127.611 L 182.447,127.657 L 182.048,127.704 L 181.649,127.751 L 181.251,127.798 L 180.852,127.844 L 180.453,127.891 L 180.055,127.938 L 179.656,127.985 L 179.257,128.032 L 178.859,128.078 L 178.460,128.125 L 178.062,128.172 L 177.663,128.219 L 177.264,128.265 L 176.866,128.312 L 176.467,128.359 L 176.068,128.406 L 175.670,128.452 L 175.271,128.499 L 174.872,128.546 L 174.474,128.593 L 174.075,128.639 L 173.677,128.686 L 173.278,128.733 L 172.879,128.780 L 172.481,128.826 L 172.082,128.873 L 171.683,128.920 L 171.285,128.967 L 170.886,129.014 L 170.487,129.060 L 170.089,129.107 L 169.690,129.154 L 169.292,129.201 L 168.893,129.247 L 168.494,129.294 L 168.096,129.341 L 167.697,129.388 L 167.298,129.434 L 166.900,129.481 L 166.501,129.528 L 166.102,129.575 L 165.704,129.621 L 165.305,129.668 L 164.907,129.715 L 164.508,129.762 L 164.109,129.808 L 163.711,129.855 L 163.312,129.902 L 162.913,129.949 L 162.515,129.996 L 162.116,130.042 L 161.717,130.089 L 161.319,130.136 L 160.920,130.183 L 160.522,130.229 L 160.123,130.276 L 159.724,130.323 L 159.326,130.370 L 158.927,130.416 L 158.528,130.463 L 158.130,130.510 L 157.731,130.557 L 157.332,130.603 L 156.934,130.650 L 156.535,130.697 L 156.137,130.744 L 155.738,130.790 L 155.339,130.837 L 154.941,130.884 L 154.542,130.931 L 154.143,130.978 L 153.745,131.024 L 153.346,131.071 L 152.947,131.118 L 152.549,131.165 L 152.150,131.211 L 151.752,131.258 L 151.353,131.305 L 150.954,131.352 L 150.556,131.398 L 150.157,131.445 L 149.758,131.492 L 149.360,131.539 L 148.961,131.585 L 148.563,131.632 L 148.164,131.679 L 147.765,131.726 L 147.367,131.772 L 146.968,131.819 L 146.569,131.866 L 146.171,131.913 L 145.772,131.960 L 145.373,132.006 L 144.975,132.053 L 144.576,132.100 L 144.178,132.147 L 143.779,132.193 L 143.380,132.240 L 142.982,132.287 L 142.583,132.334 L 142.184,132.380 L 141.786,132.427 L 141.387,132.474 L 140.988,132.521 L 140.590,132.567 L 140.191,132.614 L 139.793,132.661 L 139.394,132.708 L 138.995,132.754 L 138.597,132.801 L 138.198,132.848 L 137.799,132.895 L 137.401,132.942 L 137.002,132.988 L 136.603,133.035 L 136.205,133.082 L 135.806,133.129 L 135.408,133.175 L 135.009,133.222 L 134.610,133.269 L 134.212,133.316 L 133.813,133.362 L 133.414,133.409 L 133.016,133.456 L 132.617,133.503 L 132.218,133.549 L 131.820,133.596 L 131.421,133.643 L 131.023,133.690 L 130.624,133.736 L 130.225,133.783 L 129.827,133.830 L 129.428,133.877 L 129.029,133.924 L 128.631,133.970 L 128.232,134.017 L 127.833,134.064 L 127.435,134.111 L 127.036,134.157 L 126.638,134.204 L 126.239,134.251 L 125.840,134.298 L 125.442,134.344 L 125.043,134.391 L 124.644,134.438 L 124.246,134.485 L 123.847,134.531 L 123.448,134.578 L 123.050,134.625 L 122.651,134.672 L 122.253,134.718 L 121.854,134.765 L 121.455,134.812 L 121.057,134.859 L 120.658,134.906 L 120.259,134.952 L 119.861,134.999 L 119.462,135.046 L 119.063,135.093 L 118.665,135.139 L 118.266,135.186 L 117.868,135.233 L 117.469,135.280 L 117.070,135.326 L 116.672,135.373 L 116.273,135.420 L 115.874,135.467 L 115.476,135.513 L 115.077,135.560 L 114.678,135.607 L 114.280,135.654 L 113.881,135.700 L 113.483,135.747 L 113.084,135.794 L 112.685,135.841 L 112.287,135.888 L 111.888,135.934 L 111.489,135.981 L 111.091,136.028 L 110.692,136.075 L 110.293,136.121 L 109.895,136.168 L 109.496,136.215 L 109.098,136.262 L 108.699,136.308 L 108.300,136.355 L 107.902,136.402 L 107.503,136.449 L 107.104,136.495 L 106.706,136.542 L 106.307,136.589 L 105.908,136.636 L 105.510,136.682 L 105.111,136.729 L 104.713,136.776 L 104.314,136.823 L 103.915,136.870 L 103.517,136.916 L 103.118,136.963 L 102.719,137.010 L 102.321,137.057 L 101.922,137.103 L 101.523,137.150 L 101.125,137.197 L 100.726,137.244 L 100.328,137.290 L 99.929,137.337 L 99.530,137.384 L 99.132,137.431 L 98.733,137.477 L 98.334,137.524 L 97.936,137.571 L 97.537,137.618 L 97.138,137.664 L 96.740,137.711 L 96.341,137.758 L 95.943,137.805 L 95.544,137.852 L 95.145,137.898 L 94.747,137.945 L 94.348,137.992 L 93.949,138.039 L 93.551,138.085 L 93.152,138.132 L 92.753,138.179 L 92.355,138.226 L 91.956,138.272 L 91.558,138.319 L 91.159,138.366 L 90.760,138.413 L 90.362,138.459 L 89.963,138.506 L 89.564,138.553 L 89.166,138.600 L 88.767,138.646 L 88.369,138.693 L 87.970,138.740 L 87.571,138.787 L 87.173,138.834 L 86.774,138.880 L 86.375,138.927 L 85.977,138.974 L 85.578,139.021 L 85.179,139.067 L 84.781,139.114 L 84.382,139.161 L 83.984,139.208 L 83.585,139.254 L 83.186,139.301 L 82.788,139.348 L 82.389,139.395 L 81.990,139.441 L 81.592,139.488 L 81.193,139.535 L 80.794,139.582 L 80.396,139.628 L 79.997,139.675 L 79.599,139.722 L 79.200,139.769 L 78.801,139.816 L 78.403,139.862 L 78.004,139.909 L 77.605,139.956 L 77.207,140.003 L 76.808,140.049 L 76.409,140.096 L 76.011,140.143 L 75.612,140.190 L 75.214,140.236 L 74.815,140.283 L 74.416,140.330 L 74.018,140.377 L 73.619,140.423 L 73.220,140.470 L 72.822,140.517 L 72.423,140.564 L 72.024,140.611 L 71.626,140.657 L 71.227,140.704 L 70.829,140.751 L 70.430,140.798 L 70.031,140.844 L 69.633,140.891 L 69.234,140.938 L 68.835,140.985 L 68.437,141.031 L 68.038,141.078 L 67.639,141.125 L 67.241,141.172 L 66.842,141.218 L 66.444,141.265 L 66.045,141.312 L 65.646,141.359 L 65.248,141.405 L 64.849,141.452 L 64.450,141.499 L 64.052,141.546 L 63.653,141.593 L 63.254,141.639 L 62.856,141.686 L 62.457,141.733 L 62.059,141.780 L 61.660,141.826 L 61.261,141.873 L 60.863,141.920 L 60.464,141.967 L 60.065,142.013 L 59.667,142.060 L 59.268,142.107 L 58.869,142.154 L 58.471,142.200 L 58.072,142.247 L 57.674,142.294 L 57.275,142.341 L 56.876,142.387 L 56.478,142.434 L 56.079,142.481 L 55.680,142.528 L 55.282,142.575 L 54.883,142.621 L 54.484,142.668 L 54.086,142.715 L 53.687,142.762 L 53.289,142.808 L 52.890,142.855 L 52.491,142.902 L 52.093,142.949 L 51.694,142.995 L 51.295,143.042 L 50.897,143.089 L 50.498,143.136 L 50.099,143.182 L 49.701,143.229 L 49.302,143.276 L 48.904,143.323 L 48.505,143.369 L 48.106,143.416 L 47.708,143.463 L 47.309,143.510 L 46.910,143.557 L 46.512,143.603 L 46.113,143.650 L 45.714,143.697 L 45.316,143.744 L 44.917,143.790 L 44.519,143.837 L 44.120,143.884 L 43.721,143.931 L 43.323,143.977 L 42.924,144.024 L 42.525,144.071 L 42.127,144.118 L 41.728,144.164 L 41.329,144.211 L 40.931,144.258 L 40.532,144.305 L 40.134,144.351 L 39.735,144.398 L 39.336,144.445 L 38.938,144.492 L 38.539,144.539 L 38.140,144.585 L 37.742,144.632 L 37.343,144.679 L 36.944,144.726 L 36.546,144.772 L 36.147,144.819 L 35.749,144.866 L 35.350,144.913 L 34.951,144.959 L 34.553,145.006 L 34.154,145.053 L 33.755,145.100 L 33.357,145.146 L 33.357,145.146 L 32.967,145.169 L 32.967,145.169 L 31.791,145.169 L 31.791,145.169 L 31.045,144.996 L 30.299,144.823 L 30.299,144.823 L 29.934,144.644 L 29.934,144.644 L 29.603,144.286 L 29.272,143.927 L 28.942,143.568 L 28.611,143.209 L 28.280,142.851 L 28.280,142.851 L 28.134,142.474 L 27.988,142.098 L 27.843,141.722 L 27.697,141.345 L 27.551,140.969 L 27.405,140.592 L 27.259,140.216 L 27.113,139.840 L 26.968,139.463 L 26.822,139.087 L 26.676,138.710 L 26.530,138.334 L 26.384,137.958 L 26.239,137.581 L 26.093,137.205 L 25.947,136.828 L 25.801,136.452 L 25.655,136.076 L 25.509,135.699 L 25.364,135.323 L 25.218,134.946 L 25.072,134.570 L 24.926,134.194 L 24.780,133.817 L 24.635,133.441 L 24.489,133.064 L 24.343,132.688 L 24.197,132.312 L 24.051,131.935 L 23.905,131.559 L 23.760,131.183 L 23.614,130.806 L 23.468,130.430 L 23.322,130.053 L 23.176,129.677 L 23.031,129.301 L 22.885,128.924 L 22.739,128.548 L 22.593,128.171 L 22.447,127.795 L 22.301,127.419 L 22.156,127.042 L 22.010,126.666 L 21.864,126.289 L 21.718,125.913 L 21.572,125.537 L 21.427,125.160 L 21.281,124.784 L 21.135,124.407 L 20.989,124.031 L 20.843,123.655 L 20.697,123.278 L 20.552,122.902 L 20.406,122.525 L 20.260,122.149 L 20.114,121.773 L 19.968,121.396 L 19.823,121.020 L 19.677,120.643 L 19.531,120.267 L 19.385,119.891 L 19.239,119.514 L 19.093,119.138 L 18.948,118.761 L 18.802,118.385 L 18.656,118.009 L 18.510,117.632 L 18.364,117.256 L 18.219,116.880 L 18.073,116.503 L 17.927,116.127 L 17.781,115.750 L 17.635,115.374 L 17.489,114.998 L 17.344,114.621 L 17.198,114.245 L 17.052,113.868 L 16.906,113.492 L 16.760,113.116 L 16.615,112.739 L 16.469,112.363 L 16.323,111.986 L 16.177,111.610 L 16.031,111.234 L 15.885,110.857 L 15.740,110.481 L 15.594,110.104 L 15.448,109.728 L 15.302,109.352 L 15.156,108.975 L 15.011,108.599 L 14.865,108.222 L 14.719,107.846 L 14.573,107.470 L 14.427,107.093 L 14.281,106.717 L 14.136,106.340 L 13.990,105.964 L 13.844,105.588 L 13.698,105.211 L 13.552,104.835 L 13.407,104.458 L 13.261,104.082 L 13.115,103.706 L 12.969,103.329 L 12.823,102.953 L 12.677,102.576 L 12.532,102.200 L 12.386,101.824 L 12.240,101.447 L 12.094,101.071 L 11.948,100.695 L 11.803,100.318 L 11.657,99.942 L 11.511,99.565 L 11.365,99.189 L 11.219,98.813 L 11.073,98.436 L 11.073,98.436 L 10.969,98.119 L 10.969,98.119 L 10.843,97.658 L 10.717,97.197 L 10.590,96.736 L 10.464,96.276 L 10.338,95.815 L 10.212,95.354 L 10.086,94.893 L 9.960,94.432 L 9.960,94.432 L 9.847,93.662 Z" stroke="#000000"/>
<!-- reference only: outer edge of the rim (case outer boundary) -->
<path d="M 7.999,94.843 L 7.850,93.832 L 7.850,93.832 L 7.841,93.429 L 7.831,93.026 L 7.822,92.624 L 7.812,92.221 L 7.803,91.819 L 7.793,91.416 L 7.784,91.013 L 7.774,90.611 L 7.765,90.208 L 7.755,89.806 L 7.746,89.403 L 7.737,89.000 L 7.727,88.598 L 7.718,88.195 L 7.708,87.793 L 7.699,87.390 L 7.689,86.987 L 7.680,86.585 L 7.670,86.182 L 7.661,85.780 L 7.651,85.377 L 7.642,84.974 L 7.632,84.572 L 7.623,84.169 L 7.613,83.767 L 7.604,83.364 L 7.594,82.962 L 7.585,82.559 L 7.575,82.156 L 7.566,81.754 L 7.556,81.351 L 7.547,80.949 L 7.537,80.546 L 7.528,80.143 L 7.518,79.741 L 7.509,79.338 L 7.499,78.936 L 7.490,78.533 L 7.480,78.130 L 7.471,77.728 L 7.461,77.325 L 7.452,76.923 L 7.442,76.520 L 7.433,76.117 L 7.423,75.715 L 7.414,75.312 L 7.404,74.910 L 7.395,74.507 L 7.385,74.104 L 7.376,73.702 L 7.366,73.299 L 7.357,72.897 L 7.347,72.494 L 7.338,72.091 L 7.328,71.689 L 7.319,71.286 L 7.309,70.884 L 7.300,70.481 L 7.291,70.078 L 7.281,69.676 L 7.272,69.273 L 7.262,68.871 L 7.253,68.468 L 7.243,68.065 L 7.234,67.663 L 7.224,67.260 L 7.215,66.858 L 7.205,66.455 L 7.196,66.053 L 7.186,65.650 L 7.177,65.247 L 7.167,64.845 L 7.158,64.442 L 7.148,64.040 L 7.139,63.637 L 7.129,63.234 L 7.120,62.832 L 7.110,62.429 L 7.101,62.027 L 7.091,61.624 L 7.082,61.221 L 7.072,60.819 L 7.063,60.416 L 7.053,60.014 L 7.044,59.611 L 7.034,59.208 L 7.025,58.806 L 7.015,58.403 L 7.006,58.001 L 6.996,57.598 L 6.987,57.195 L 6.977,56.793 L 6.968,56.390 L 6.958,55.988 L 6.949,55.585 L 6.939,55.182 L 6.930,54.780 L 6.920,54.377 L 6.911,53.975 L 6.901,53.572 L 6.892,53.169 L 6.882,52.767 L 6.873,52.364 L 6.864,51.962 L 6.854,51.559 L 6.845,51.157 L 6.835,50.754 L 6.826,50.351 L 6.816,49.949 L 6.807,49.546 L 6.797,49.144 L 6.788,48.741 L 6.778,48.338 L 6.769,47.936 L 6.759,47.533 L 6.750,47.131 L 6.740,46.728 L 6.731,46.325 L 6.721,45.923 L 6.712,45.520 L 6.702,45.118 L 6.693,44.715 L 6.683,44.312 L 6.674,43.910 L 6.664,43.507 L 6.655,43.105 L 6.645,42.702 L 6.636,42.299 L 6.626,41.897 L 6.617,41.494 L 6.607,41.092 L 6.598,40.689 L 6.588,40.286 L 6.579,39.884 L 6.569,39.481 L 6.560,39.079 L 6.550,38.676 L 6.541,38.273 L 6.531,37.871 L 6.522,37.468 L 6.512,37.066 L 6.503,36.663 L 6.493,36.261 L 6.484,35.858 L 6.474,35.455 L 6.465,35.053 L 6.455,34.650 L 6.446,34.248 L 6.436,33.845 L 6.427,33.442 L 6.418,33.040 L 6.408,32.637 L 6.399,32.235 L 6.389,31.832 L 6.380,31.429 L 6.370,31.027 L 6.361,30.624 L 6.351,30.222 L 6.342,29.819 L 6.332,29.416 L 6.323,29.014 L 6.313,28.611 L 6.304,28.209 L 6.294,27.806 L 6.285,27.403 L 6.275,27.001 L 6.266,26.598 L 6.256,26.196 L 6.247,25.793 L 6.237,25.390 L 6.228,24.988 L 6.218,24.585 L 6.209,24.183 L 6.199,23.780 L 6.190,23.377 L 6.180,22.975 L 6.171,22.572 L 6.161,22.170 L 6.152,21.767 L 6.142,21.365 L 6.133,20.962 L 6.123,20.559 L 6.114,20.157 L 6.104,19.754 L 6.095,19.352 L 6.085,18.949 L 6.076,18.546 L 6.066,18.144 L 6.057,17.741 L 6.047,17.339 L 6.038,16.936 L 6.028,16.533 L 6.019,16.131 L 6.009,15.728 L 6.000,15.326 L 6.000,15.326 L 6.021,14.803 L 6.108,14.287 L 6.261,13.787 L 6.479,13.311 L 6.757,12.868 L 7.092,12.467 L 7.092,12.467 L 7.553,11.985 L 8.014,11.503 L 8.014,11.503 L 8.364,11.180 L 8.751,10.903 L 9.170,10.676 L 9.613,10.504 L 10.075,10.388 L 10.547,10.329 L 10.547,10.329 L 10.950,10.305 L 11.354,10.281 L 11.757,10.256 L 12.160,10.232 L 12.564,10.207 L 12.967,10.183 L 13.370,10.158 L 13.774,10.134 L 14.177,10.109 L 14.580,10.085 L 14.984,10.060 L 15.387,10.036 L 15.790,10.011 L 16.194,9.987 L 16.597,9.963 L 17.000,9.938 L 17.404,9.914 L 17.807,9.889 L 18.210,9.865 L 18.614,9.840 L 19.017,9.816 L 19.420,9.791 L 19.824,9.767 L 20.227,9.742 L 20.630,9.718 L 21.034,9.693 L 21.437,9.669 L 21.840,9.645 L 22.244,9.620 L 22.647,9.596 L 23.050,9.571 L 23.454,9.547 L 23.857,9.522 L 24.260,9.498 L 24.664,9.473 L 25.067,9.449 L 25.470,9.424 L 25.874,9.400 L 26.277,9.376 L 26.680,9.351 L 27.084,9.327 L 27.487,9.302 L 27.890,9.278 L 28.294,9.253 L 28.697,9.229 L 29.100,9.204 L 29.504,9.180 L 29.907,9.155 L 30.310,9.131 L 30.714,9.106 L 31.117,9.082 L 31.520,9.058 L 31.924,9.033 L 32.327,9.009 L 32.730,8.984 L 33.134,8.960 L 33.537,8.935 L 33.940,8.911 L 34.344,8.886 L 34.747,8.862 L 35.150,8.837 L 35.554,8.813 L 35.957,8.788 L 36.360,8.764 L 36.764,8.740 L 37.167,8.715 L 37.570,8.691 L 37.974,8.666 L 38.377,8.642 L 38.780,8.617 L 39.184,8.593 L 39.587,8.568 L 39.990,8.544 L 40.394,8.519 L 40.797,8.495 L 41.200,8.470 L 41.604,8.446 L 42.007,8.422 L 42.410,8.397 L 42.814,8.373 L 43.217,8.348 L 43.620,8.324 L 44.023,8.299 L 44.427,8.275 L 44.830,8.250 L 45.233,8.226 L 45.637,8.201 L 46.040,8.177 L 46.443,8.153 L 46.847,8.128 L 47.250,8.104 L 47.653,8.079 L 48.057,8.055 L 48.460,8.030 L 48.863,8.006 L 49.267,7.981 L 49.670,7.957 L 50.073,7.932 L 50.477,7.908 L 50.880,7.883 L 51.283,7.859 L 51.687,7.835 L 52.090,7.810 L 52.493,7.786 L 52.897,7.761 L 53.300,7.737 L 53.703,7.712 L 54.107,7.688 L 54.510,7.663 L 54.913,7.639 L 55.317,7.614 L 55.720,7.590 L 56.123,7.565 L 56.527,7.541 L 56.930,7.517 L 57.333,7.492 L 57.737,7.468 L 58.140,7.443 L 58.543,7.419 L 58.947,7.394 L 59.350,7.370 L 59.753,7.345 L 60.157,7.321 L 60.560,7.296 L 60.963,7.272 L 61.367,7.247 L 61.770,7.223 L 62.173,7.199 L 62.577,7.174 L 62.980,7.150 L 63.383,7.125 L 63.787,7.101 L 64.190,7.076 L 64.593,7.052 L 64.997,7.027 L 65.400,7.003 L 65.803,6.978 L 66.207,6.954 L 66.610,6.929 L 67.013,6.905 L 67.417,6.881 L 67.820,6.856 L 68.223,6.832 L 68.627,6.807 L 69.030,6.783 L 69.433,6.758 L 69.837,6.734 L 70.240,6.709 L 70.643,6.685 L 71.047,6.660 L 71.450,6.636 L 71.853,6.612 L 72.257,6.587 L 72.660,6.563 L 73.063,6.538 L 73.467,6.514 L 73.870,6.489 L 74.273,6.465 L 74.677,6.440 L 75.080,6.416 L 75.483,6.391 L 75.887,6.367 L 76.290,6.342 L 76.693,6.318 L 77.097,6.294 L 77.500,6.269 L 77.903,6.245 L 78.307,6.220 L 78.710,6.196 L 79.113,6.171 L 79.517,6.147 L 79.920,6.122 L 80.323,6.098 L 80.727,6.073 L 81.130,6.049 L 81.533,6.024 L 81.937,6.000 L 81.937,6.000 L 82.341,6.000 L 82.745,6.000 L 83.149,6.000 L 83.553,6.000 L 83.957,6.000 L 84.361,6.000 L 84.765,6.000 L 85.169,6.000 L 85.573,6.000 L 85.977,6.000 L 86.381,6.000 L 86.785,6.000 L 87.189,6.000 L 87.593,6.000 L 87.997,6.000 L 88.401,6.000 L 88.805,6.000 L 89.209,6.000 L 89.613,6.000 L 90.017,6.000 L 90.421,6.000 L 90.825,6.000 L 91.229,6.000 L 91.633,6.000 L 92.037,6.000 L 92.441,6.000 L 92.845,6.000 L 93.249,6.000 L 93.653,6.000 L 94.057,6.000 L 94.462,6.000 L 94.866,6.000 L 95.270,6.000 L 95.674,6.000 L 96.078,6.000 L 96.482,6.000 L 96.886,6.000 L 97.290,6.000 L 97.694,6.000 L 98.098,6.000 L 98.502,6.000 L 98.906,6.000 L 99.310,6.000 L 99.714,6.000 L 100.118,6.000 L 100.522,6.000 L 100.926,6.000 L 101.330,6.000 L 101.734,6.000 L 102.138,6.000 L 102.542,6.000 L 102.946,6.000 L 103.350,6.000 L 103.754,6.000 L 104.158,6.000 L 104.562,6.000 L 104.966,6.000 L 105.370,6.000 L 105.774,6.000 L 106.178,6.000 L 106.582,6.000 L 106.986,6.000 L 107.390,6.000 L 107.795,6.000 L 108.199,6.000 L 108.603,6.000 L 109.007,6.000 L 109.411,6.000 L 109.815,6.000 L 110.219,6.000 L 110.623,6.000 L 111.027,6.000 L 111.431,6.000 L 111.835,6.000 L 112.239,6.000 L 112.643,6.000 L 113.047,6.000 L 113.451,6.000 L 113.855,6.000 L 114.259,6.000 L 114.663,6.000 L 115.067,6.000 L 115.471,6.000 L 115.875,6.000 L 116.279,6.000 L 116.683,6.000 L 117.087,6.000 L 117.491,6.000 L 117.895,6.000 L 118.299,6.000 L 118.703,6.000 L 119.107,6.000 L 119.511,6.000 L 119.915,6.000 L 120.319,6.000 L 120.723,6.000 L 121.127,6.000 L 121.532,6.000 L 121.936,6.000 L 122.340,6.000 L 122.744,6.000 L 123.148,6.000 L 123.552,6.000 L 123.956,6.000 L 124.360,6.000 L 124.764,6.000 L 125.168,6.000 L 125.572,6.000 L 125.976,6.000 L 126.380,6.000 L 126.784,6.000 L 127.188,6.000 L 127.592,6.000 L 127.592,6.000 L 127.993,6.035 L 128.393,6.070 L 128.794,6.105 L 129.195,6.140 L 129.596,6.175 L 129.996,6.210 L 130.397,6.245 L 130.798,6.280 L 131.199,6.315 L 131.599,6.350 L 132.000,6.384 L 132.401,6.419 L 132.802,6.454 L 133.202,6.489 L 133.603,6.524 L 134.004,6.559 L 134.405,6.594 L 134.805,6.629 L 135.206,6.664 L 135.607,6.699 L 136.007,6.734 L 136.408,6.769 L 136.809,6.804 L 137.210,6.839 L 137.610,6.874 L 138.011,6.909 L 138.412,6.944 L 138.813,6.979 L 139.213,7.014 L 139.614,7.049 L 140.015,7.084 L 140.416,7.118 L 140.816,7.153 L 141.217,7.188 L 141.618,7.223 L 142.019,7.258 L 142.419,7.293 L 142.820,7.328 L 143.221,7.363 L 143.621,7.398 L 144.022,7.433 L 144.423,7.468 L 144.824,7.503 L 145.224,7.538 L 145.625,7.573 L 146.026,7.608 L 146.427,7.643 L 146.827,7.678 L 147.228,7.713 L 147.629,7.748 L 148.030,7.783 L 148.430,7.818 L 148.831,7.852 L 149.232,7.887 L 149.633,7.922 L 150.033,7.957 L 150.434,7.992 L 150.835,8.027 L 151.235,8.062 L 151.636,8.097 L 152.037,8.132 L 152.438,8.167 L 152.838,8.202 L 153.239,8.237 L 153.640,8.272 L 154.041,8.307 L 154.441,8.342 L 154.842,8.377 L 155.243,8.412 L 155.644,8.447 L 156.044,8.482 L 156.445,8.517 L 156.846,8.552 L 157.247,8.586 L 157.647,8.621 L 158.048,8.656 L 158.449,8.691 L 158.850,8.726 L 159.250,8.761 L 159.651,8.796 L 160.052,8.831 L 160.452,8.866 L 160.853,8.901 L 161.254,8.936 L 161.655,8.971 L 162.055,9.006 L 162.456,9.041 L 162.857,9.076 L 163.258,9.111 L 163.658,9.146 L 164.059,9.181 L 164.460,9.216 L 164.861,9.251 L 165.261,9.286 L 165.662,9.320 L 166.063,9.355 L 166.464,9.390 L 166.864,9.425 L 167.265,9.460 L 167.666,9.495 L 168.066,9.530 L 168.467,9.565 L 168.868,9.600 L 169.269,9.635 L 169.669,9.670 L 170.070,9.705 L 170.471,9.740 L 170.872,9.775 L 171.272,9.810 L 171.673,9.845 L 172.074,9.880 L 172.475,9.915 L 172.875,9.950 L 173.276,9.985 L 173.677,10.020 L 174.078,10.054 L 174.478,10.089 L 174.879,10.124 L 175.280,10.159 L 175.680,10.194 L 176.081,10.229 L 176.482,10.264 L 176.883,10.299 L 177.283,10.334 L 177.684,10.369 L 178.085,10.404 L 178.486,10.439 L 178.886,10.474 L 179.287,10.509 L 179.688,10.544 L 180.089,10.579 L 180.489,10.614 L 180.890,10.649 L 181.291,10.684 L 181.692,10.719 L 182.092,10.754 L 182.493,10.788 L 182.894,10.823 L 183.295,10.858 L 183.695,10.893 L 184.096,10.928 L 184.497,10.963 L 184.897,10.998 L 185.298,11.033 L 185.699,11.068 L 186.100,11.103 L 186.500,11.138 L 186.901,11.173 L 187.302,11.208 L 187.703,11.243 L 188.103,11.278 L 188.504,11.313 L 188.905,11.348 L 189.306,11.383 L 189.706,11.418 L 190.107,11.453 L 190.508,11.488 L 190.909,11.522 L 191.309,11.557 L 191.710,11.592 L 192.111,11.627 L 192.511,11.662 L 192.912,11.697 L 193.313,11.732 L 193.714,11.767 L 194.114,11.802 L 194.515,11.837 L 194.916,11.872 L 195.317,11.907 L 195.717,11.942 L 196.118,11.977 L 196.519,12.012 L 196.920,12.047 L 197.320,12.082 L 197.721,12.117 L 198.122,12.152 L 198.523,12.187 L 198.923,12.222 L 199.324,12.257 L 199.725,12.291 L 200.125,12.326 L 200.526,12.361 L 200.927,12.396 L 201.328,12.431 L 201.728,12.466 L 202.129,12.501 L 202.129,12.501 L 202.578,12.567 L 203.016,12.686 L 203.437,12.855 L 203.834,13.073 L 204.203,13.337 L 204.539,13.643 L 204.836,13.986 L 205.091,14.361 L 205.301,14.763 L 205.464,15.186 L 205.578,15.625 L 205.642,16.075 L 205.656,16.528 L 205.656,16.528 L 205.647,16.931 L 205.637,17.334 L 205.628,17.738 L 205.618,18.141 L 205.609,18.544 L 205.599,18.947 L 205.590,19.351 L 205.580,19.754 L 205.571,20.157 L 205.561,20.560 L 205.552,20.964 L 205.542,21.367 L 205.532,21.770 L 205.523,22.173 L 205.513,22.576 L 205.504,22.980 L 205.494,23.383 L 205.485,23.786 L 205.475,24.189 L 205.466,24.593 L 205.456,24.996 L 205.447,25.399 L 205.437,25.802 L 205.428,26.206 L 205.418,26.609 L 205.409,27.012 L 205.399,27.415 L 205.390,27.818 L 205.380,28.222 L 205.371,28.625 L 205.361,29.028 L 205.352,29.431 L 205.342,29.835 L 205.333,30.238 L 205.323,30.641 L 205.314,31.044 L 205.304,31.448 L 205.295,31.851 L 205.285,32.254 L 205.276,32.657 L 205.266,33.060 L 205.257,33.464 L 205.247,33.867 L 205.238,34.270 L 205.228,34.673 L 205.219,35.077 L 205.209,35.480 L 205.200,35.883 L 205.190,36.286 L 205.181,36.690 L 205.171,37.093 L 205.162,37.496 L 205.152,37.899 L 205.143,38.302 L 205.133,38.706 L 205.124,39.109 L 205.114,39.512 L 205.105,39.915 L 205.095,40.319 L 205.086,40.722 L 205.076,41.125 L 205.067,41.528 L 205.057,41.932 L 205.048,42.335 L 205.038,42.738 L 205.029,43.141 L 205.019,43.544 L 205.010,43.948 L 205.000,44.351 L 204.991,44.754 L 204.981,45.157 L 204.972,45.561 L 204.962,45.964 L 204.953,46.367 L 204.943,46.770 L 204.934,47.174 L 204.924,47.577 L 204.915,47.980 L 204.905,48.383 L 204.896,48.786 L 204.886,49.190 L 204.877,49.593 L 204.867,49.996 L 204.858,50.399 L 204.848,50.803 L 204.839,51.206 L 204.829,51.609 L 204.820,52.012 L 204.810,52.416 L 204.801,52.819 L 204.791,53.222 L 204.782,53.625 L 204.772,54.028 L 204.763,54.432 L 204.753,54.835 L 204.744,55.238 L 204.734,55.641 L 204.725,56.045 L 204.715,56.448 L 204.706,56.851 L 204.696,57.254 L 204.687,57.658 L 204.677,58.061 L 204.668,58.464 L 204.658,58.867 L 204.649,59.270 L 204.639,59.674 L 204.630,60.077 L 204.620,60.480 L 204.611,60.883 L 204.601,61.287 L 204.592,61.690 L 204.582,62.093 L 204.573,62.496 L 204.563,62.900 L 204.554,63.303 L 204.544,63.706 L 204.535,64.109 L 204.525,64.512 L 204.516,64.916 L 204.506,65.319 L 204.497,65.722 L 204.487,66.125 L 204.478,66.529 L 204.468,66.932 L 204.459,67.335 L 204.449,67.738 L 204.440,68.142 L 204.430,68.545 L 204.421,68.948 L 204.411,69.351 L 204.402,69.754 L 204.392,70.158 L 204.383,70.561 L 204.373,70.964 L 204.363,71.367 L 204.354,71.771 L 204.344,72.174 L 204.335,72.577 L 204.325,72.980 L 204.316,73.384 L 204.306,73.787 L 204.297,74.190 L 204.287,74.593 L 204.278,74.996 L 204.268,75.400 L 204.259,75.803 L 204.249,76.206 L 204.240,76.609 L 204.230,77.013 L 204.221,77.416 L 204.211,77.819 L 204.202,78.222 L 204.192,78.626 L 204.183,79.029 L 204.173,79.432 L 204.164,79.835 L 204.154,80.238 L 204.145,80.642 L 204.135,81.045 L 204.126,81.448 L 204.116,81.851 L 204.107,82.255 L 204.097,82.658 L 204.088,83.061 L 204.078,83.464 L 204.069,83.868 L 204.059,84.271 L 204.050,84.674 L 204.040,85.077 L 204.031,85.480 L 204.021,85.884 L 204.012,86.287 L 204.002,86.690 L 203.993,87.093 L 203.983,87.497 L 203.974,87.900 L 203.964,88.303 L 203.955,88.706 L 203.945,89.110 L 203.936,89.513 L 203.926,89.916 L 203.917,90.319 L 203.907,90.722 L 203.898,91.126 L 203.888,91.529 L 203.879,91.932 L 203.869,92.335 L 203.860,92.739 L 203.850,93.142 L 203.841,93.545 L 203.831,93.948 L 203.822,94.352 L 203.812,94.755 L 203.803,95.158 L 203.793,95.561 L 203.784,95.964 L 203.774,96.368 L 203.765,96.771 L 203.755,97.174 L 203.746,97.577 L 203.736,97.981 L 203.727,98.384 L 203.717,98.787 L 203.708,99.190 L 203.698,99.594 L 203.689,99.997 L 203.679,100.400 L 203.670,100.803 L 203.660,101.206 L 203.651,101.610 L 203.641,102.013 L 203.632,102.416 L 203.622,102.819 L 203.613,103.223 L 203.613,103.223 L 203.548,103.861 L 203.388,104.483 L 203.388,104.483 L 203.256,104.871 L 203.124,105.259 L 202.992,105.647 L 202.860,106.035 L 202.728,106.424 L 202.596,106.812 L 202.463,107.200 L 202.331,107.588 L 202.199,107.976 L 202.067,108.364 L 201.935,108.753 L 201.803,109.141 L 201.671,109.529 L 201.539,109.917 L 201.407,110.305 L 201.275,110.694 L 201.143,111.082 L 201.011,111.470 L 200.878,111.858 L 200.746,112.246 L 200.614,112.634 L 200.482,113.023 L 200.350,113.411 L 200.218,113.799 L 200.086,114.187 L 199.954,114.575 L 199.822,114.963 L 199.690,115.352 L 199.558,115.740 L 199.425,116.128 L 199.293,116.516 L 199.161,116.904 L 199.029,117.293 L 198.897,117.681 L 198.765,118.069 L 198.633,118.457 L 198.501,118.845 L 198.369,119.233 L 198.237,119.622 L 198.105,120.010 L 197.972,120.398 L 197.840,120.786 L 197.708,121.174 L 197.576,121.562 L 197.444,121.951 L 197.312,122.339 L 197.180,122.727 L 197.048,123.115 L 196.916,123.503 L 196.916,123.503 L 196.722,123.977 L 196.474,124.424 L 196.175,124.839 L 195.830,125.216 L 195.830,125.216 L 195.500,125.537 L 195.170,125.857 L 194.840,126.178 L 194.510,126.499 L 194.180,126.819 L 193.850,127.140 L 193.519,127.461 L 193.519,127.461 L 193.160,127.774 L 192.768,128.046 L 192.350,128.274 L 191.909,128.456 L 191.451,128.589 L 190.981,128.670 L 190.981,128.670 L 190.582,128.717 L 190.184,128.764 L 189.785,128.810 L 189.386,128.857 L 188.988,128.904 L 188.589,128.951 L 188.191,128.997 L 187.792,129.044 L 187.393,129.091 L 186.995,129.138 L 186.596,129.184 L 186.198,129.231 L 185.799,129.278 L 185.400,129.325 L 185.002,129.371 L 184.603,129.418 L 184.205,129.465 L 183.806,129.512 L 183.407,129.558 L 183.009,129.605 L 182.610,129.652 L 182.212,129.699 L 181.813,129.745 L 181.414,129.792 L 181.016,129.839 L 180.617,129.886 L 180.218,129.933 L 179.820,129.979 L 179.421,130.026 L 179.023,130.073 L 178.624,130.120 L 178.225,130.166 L 177.827,130.213 L 177.428,130.260 L 177.030,130.307 L 176.631,130.353 L 176.232,130.400 L 175.834,130.447 L 175.435,130.494 L 175.037,130.540 L 174.638,130.587 L 174.239,130.634 L 173.841,130.681 L 173.442,130.727 L 173.044,130.774 L 172.645,130.821 L 172.246,130.868 L 171.848,130.914 L 171.449,130.961 L 171.051,131.008 L 170.652,131.055 L 170.253,131.101 L 169.855,131.148 L 169.456,131.195 L 169.058,131.242 L 168.659,131.289 L 168.260,131.335 L 167.862,131.382 L 167.463,131.429 L 167.065,131.476 L 166.666,131.522 L 166.267,131.569 L 165.869,131.616 L 165.470,131.663 L 165.071,131.709 L 164.673,131.756 L 164.274,131.803 L 163.876,131.850 L 163.477,131.896 L 163.078,131.943 L 162.680,131.990 L 162.281,132.037 L 161.883,132.083 L 161.484,132.130 L 161.085,132.177 L 160.687,132.224 L 160.288,132.270 L 159.890,132.317 L 159.491,132.364 L 159.092,132.411 L 158.694,132.457 L 158.295,132.504 L 157.897,132.551 L 157.498,132.598 L 157.099,132.645 L 156.701,132.691 L 156.302,132.738 L 155.904,132.785 L 155.505,132.832 L 155.106,132.878 L 154.708,132.925 L 154.309,132.972 L 153.911,133.019 L 153.512,133.065 L 153.113,133.112 L 152.715,133.159 L 152.316,133.206 L 151.918,133.252 L 151.519,133.299 L 151.120,133.346 L 150.722,133.393 L 150.323,133.439 L 149.924,133.486 L 149.526,133.533 L 149.127,133.580 L 148.729,133.626 L 148.330,133.673 L 147.931,133.720 L 147.533,133.767 L 147.134,133.813 L 146.736,133.860 L 146.337,133.907 L 145.938,133.954 L 145.540,134.001 L 145.141,134.047 L 144.743,134.094 L 144.344,134.141 L 143.945,134.188 L 143.547,134.234 L 143.148,134.281 L 142.750,134.328 L 142.351,134.375 L 141.952,134.421 L 141.554,134.468 L 141.155,134.515 L 140.757,134.562 L 140.358,134.608 L 139.959,134.655 L 139.561,134.702 L 139.162,134.749 L 138.764,134.795 L 138.365,134.842 L 137.966,134.889 L 137.568,134.936 L 137.169,134.982 L 136.771,135.029 L 136.372,135.076 L 135.973,135.123 L 135.575,135.169 L 135.176,135.216 L 134.777,135.263 L 134.379,135.310 L 133.980,135.357 L 133.582,135.403 L 133.183,135.450 L 132.784,135.497 L 132.386,135.544 L 131.987,135.590 L 131.589,135.637 L 131.190,135.684 L 130.791,135.731 L 130.393,135.777 L 129.994,135.824 L 129.596,135.871 L 129.197,135.918 L 128.798,135.964 L 128.400,136.011 L 128.001,136.058 L 127.603,136.105 L 127.204,136.151 L 126.805,136.198 L 126.407,136.245 L 126.008,136.292 L 125.610,136.338 L 125.211,136.385 L 124.812,136.432 L 124.414,136.479 L 124.015,136.525 L 123.617,136.572 L 123.218,136.619 L 122.819,136.666 L 122.421,136.713 L 122.022,136.759 L 121.624,136.806 L 121.225,136.853 L 120.826,136.900 L 120.428,136.946 L 120.029,136.993 L 119.631,137.040 L 119.232,137.087 L 118.833,137.133 L 118.435,137.180 L 118.036,137.227 L 117.637,137.274 L 117.239,137.320 L 116.840,137.367 L 116.442,137.414 L 116.043,137.461 L 115.644,137.507 L 115.246,137.554 L 114.847,137.601 L 114.449,137.648 L 114.050,137.694 L 113.651,137.741 L 113.253,137.788 L 112.854,137.835 L 112.456,137.881 L 112.057,137.928 L 111.658,137.975 L 111.260,138.022 L 110.861,138.069 L 110.463,138.115 L 110.064,138.162 L 109.665,138.209 L 109.267,138.256 L 108.868,138.302 L 108.470,138.349 L 108.071,138.396 L 107.672,138.443 L 107.274,138.489 L 106.875,138.536 L 106.477,138.583 L 106.078,138.630 L 105.679,138.676 L 105.281,138.723 L 104.882,138.770 L 104.484,138.817 L 104.085,138.863 L 103.686,138.910 L 103.288,138.957 L 102.889,139.004 L 102.490,139.050 L 102.092,139.097 L 101.693,139.144 L 101.295,139.191 L 100.896,139.237 L 100.497,139.284 L 100.099,139.331 L 99.700,139.378 L 99.302,139.425 L 98.903,139.471 L 98.504,139.518 L 98.106,139.565 L 97.707,139.612 L 97.309,139.658 L 96.910,139.705 L 96.511,139.752 L 96.113,139.799 L 95.714,139.845 L 95.316,139.892 L 94.917,139.939 L 94.518,139.986 L 94.120,140.032 L 93.721,140.079 L 93.323,140.126 L 92.924,140.173 L 92.525,140.219 L 92.127,140.266 L 91.728,140.313 L 91.330,140.360 L 90.931,140.406 L 90.532,140.453 L 90.134,140.500 L 89.735,140.547 L 89.337,140.593 L 88.938,140.640 L 88.539,140.687 L 88.141,140.734 L 87.742,140.780 L 87.343,140.827 L 86.945,140.874 L 86.546,140.921 L 86.148,140.968 L 85.749,141.014 L 85.350,141.061 L 84.952,141.108 L 84.553,141.155 L 84.155,141.201 L 83.756,141.248 L 83.357,141.295 L 82.959,141.342 L 82.560,141.388 L 82.162,141.435 L 81.763,141.482 L 81.364,141.529 L 80.966,141.575 L 80.567,141.622 L 80.169,141.669 L 79.770,141.716 L 79.371,141.762 L 78.973,141.809 L 78.574,141.856 L 78.176,141.903 L 77.777,141.949 L 77.378,141.996 L 76.980,142.043 L 76.581,142.090 L 76.183,142.136 L 75.784,142.183 L 75.385,142.230 L 74.987,142.277 L 74.588,142.324 L 74.190,142.370 L 73.791,142.417 L 73.392,142.464 L 72.994,142.511 L 72.595,142.557 L 72.196,142.604 L 71.798,142.651 L 71.399,142.698 L 71.001,142.744 L 70.602,142.791 L 70.203,142.838 L 69.805,142.885 L 69.406,142.931 L 69.008,142.978 L 68.609,143.025 L 68.210,143.072 L 67.812,143.118 L 67.413,143.165 L 67.015,143.212 L 66.616,143.259 L 66.217,143.305 L 65.819,143.352 L 65.420,143.399 L 65.022,143.446 L 64.623,143.492 L 64.224,143.539 L 63.826,143.586 L 63.427,143.633 L 63.029,143.680 L 62.630,143.726 L 62.231,143.773 L 61.833,143.820 L 61.434,143.867 L 61.036,143.913 L 60.637,143.960 L 60.238,144.007 L 59.840,144.054 L 59.441,144.100 L 59.043,144.147 L 58.644,144.194 L 58.245,144.241 L 57.847,144.287 L 57.448,144.334 L 57.049,144.381 L 56.651,144.428 L 56.252,144.474 L 55.854,144.521 L 55.455,144.568 L 55.056,144.615 L 54.658,144.661 L 54.259,144.708 L 53.861,144.755 L 53.462,144.802 L 53.063,144.848 L 52.665,144.895 L 52.266,144.942 L 51.868,144.989 L 51.469,145.036 L 51.070,145.082 L 50.672,145.129 L 50.273,145.176 L 49.875,145.223 L 49.476,145.269 L 49.077,145.316 L 48.679,145.363 L 48.280,145.410 L 47.882,145.456 L 47.483,145.503 L 47.084,145.550 L 46.686,145.597 L 46.287,145.643 L 45.889,145.690 L 45.490,145.737 L 45.091,145.784 L 44.693,145.830 L 44.294,145.877 L 43.896,145.924 L 43.497,145.971 L 43.098,146.017 L 42.700,146.064 L 42.301,146.111 L 41.902,146.158 L 41.504,146.204 L 41.105,146.251 L 40.707,146.298 L 40.308,146.345 L 39.909,146.392 L 39.511,146.438 L 39.112,146.485 L 38.714,146.532 L 38.315,146.579 L 37.916,146.625 L 37.518,146.672 L 37.119,146.719 L 36.721,146.766 L 36.322,146.812 L 35.923,146.859 L 35.525,146.906 L 35.126,146.953 L 34.728,146.999 L 34.329,147.046 L 33.930,147.093 L 33.532,147.140 L 33.532,147.140 L 33.026,147.169 L 33.026,147.169 L 32.294,147.169 L 31.562,147.169 L 31.562,147.169 L 31.061,147.140 L 30.568,147.055 L 30.087,146.914 L 29.625,146.720 L 29.625,146.720 L 28.718,146.276 L 28.718,146.276 L 28.310,146.049 L 27.928,145.780 L 27.577,145.473 L 27.260,145.130 L 26.981,144.755 L 26.744,144.353 L 26.552,143.927 L 26.552,143.927 L 26.406,143.551 L 26.260,143.174 L 26.115,142.798 L 25.969,142.421 L 25.823,142.044 L 25.677,141.668 L 25.531,141.291 L 25.385,140.914 L 25.239,140.538 L 25.093,140.161 L 24.947,139.785 L 24.801,139.408 L 24.656,139.031 L 24.510,138.655 L 24.364,138.278 L 24.218,137.902 L 24.072,137.525 L 23.926,137.148 L 23.780,136.772 L 23.634,136.395 L 23.488,136.019 L 23.342,135.642 L 23.197,135.265 L 23.051,134.889 L 22.905,134.512 L 22.759,134.136 L 22.613,133.759 L 22.467,133.382 L 22.321,133.006 L 22.175,132.629 L 22.029,132.252 L 21.883,131.876 L 21.738,131.499 L 21.592,131.123 L 21.446,130.746 L 21.300,130.369 L 21.154,129.993 L 21.008,129.616 L 20.862,129.240 L 20.716,128.863 L 20.570,128.486 L 20.424,128.110 L 20.279,127.733 L 20.133,127.357 L 19.987,126.980 L 19.841,126.603 L 19.695,126.227 L 19.549,125.850 L 19.403,125.474 L 19.257,125.097 L 19.111,124.720 L 18.965,124.344 L 18.819,123.967 L 18.674,123.590 L 18.528,123.214 L 18.382,122.837 L 18.236,122.461 L 18.090,122.084 L 17.944,121.707 L 17.798,121.331 L 17.652,120.954 L 17.506,120.578 L 17.360,120.201 L 17.215,119.824 L 17.069,119.448 L 16.923,119.071 L 16.777,118.695 L 16.631,118.318 L 16.485,117.941 L 16.339,117.565 L 16.193,117.188 L 16.047,116.812 L 15.901,116.435 L 15.756,116.058 L 15.610,115.682 L 15.464,115.305 L 15.318,114.928 L 15.172,114.552 L 15.026,114.175 L 14.880,113.799 L 14.734,113.422 L 14.588,113.045 L 14.442,112.669 L 14.297,112.292 L 14.151,111.916 L 14.005,111.539 L 13.859,111.162 L 13.713,110.786 L 13.567,110.409 L 13.421,110.033 L 13.275,109.656 L 13.129,109.279 L 12.983,108.903 L 12.838,108.526 L 12.692,108.150 L 12.546,107.773 L 12.400,107.396 L 12.254,107.020 L 12.108,106.643 L 11.962,106.266 L 11.816,105.890 L 11.670,105.513 L 11.524,105.137 L 11.379,104.760 L 11.233,104.383 L 11.087,104.007 L 10.941,103.630 L 10.795,103.254 L 10.649,102.877 L 10.503,102.500 L 10.357,102.124 L 10.211,101.747 L 10.065,101.371 L 9.919,100.994 L 9.774,100.617 L 9.628,100.241 L 9.482,99.864 L 9.336,99.488 L 9.190,99.111 L 9.190,99.111 L 9.053,98.696 L 9.053,98.696 L 8.921,98.215 L 8.790,97.733 L 8.658,97.251 L 8.526,96.770 L 8.394,96.288 L 8.262,95.806 L 8.131,95.325 L 7.999,94.843 Z" stroke="#aaaaaa" stroke-dasharray="2,1.5"/>
</g>
<!-- 4x M2 screw holes: 2.2mm clearance circles + exact centres -->
<g stroke="#ff0000" stroke-width="0.25" fill="none">
<circle cx="12.842" cy="15.687" r="1.100"/>
<line x1="11.242" y1="15.687" x2="14.442" y2="15.687"/>
<line x1="12.842" y1="14.087" x2="12.842" y2="17.287"/>
<circle cx="199.842" cy="17.687" r="1.100"/>
<line x1="198.242" y1="17.687" x2="201.442" y2="17.687"/>
<line x1="199.842" y1="16.087" x2="199.842" y2="19.287"/>
<circle cx="12.642" cy="94.987" r="1.100"/>
<line x1="11.042" y1="94.987" x2="14.242" y2="94.987"/>
<line x1="12.642" y1="93.387" x2="12.642" y2="96.587"/>
<circle cx="199.442" cy="101.287" r="1.100"/>
<line x1="197.842" y1="101.287" x2="201.042" y2="101.287"/>
<line x1="199.442" y1="99.687" x2="199.442" y2="102.887"/>
</g>
</svg>