<?xml version="1.0" encoding="UTF-8"?>
<svg xmlns="http://www.w3.org/2000/svg" width="211.66mm" height="153.17mm" viewBox="0 0 211.656 153.169">
<g fill="none" stroke-width="0.25">
<!-- outer edge of the rim (case outer boundary at the bottom) -->
<path d="M 203.657,94.843 L 203.806,93.832 L 203.806,93.832 L 203.815,93.429 L 203.825,93.026 L 203.834,92.624 L 203.844,92.221 L 203.853,91.819 L 203.863,91.416 L 203.872,91.013 L 203.882,90.611 L 203.891,90.208 L 203.901,89.806 L 203.910,89.403 L 203.920,89.000 L 203.929,88.598 L 203.939,88.195 L 203.948,87.793 L 203.957,87.390 L 203.967,86.987 L 203.976,86.585 L 203.986,86.182 L 203.995,85.780 L 204.005,85.377 L 204.014,84.974 L 204.024,84.572 L 204.033,84.169 L 204.043,83.767 L 204.052,83.364 L 204.062,82.962 L 204.071,82.559 L 204.081,82.156 L 204.090,81.754 L 204.100,81.351 L 204.109,80.949 L 204.119,80.546 L 204.128,80.143 L 204.138,79.741 L 204.147,79.338 L 204.157,78.936 L 204.166,78.533 L 204.176,78.130 L 204.185,77.728 L 204.195,77.325 L 204.204,76.923 L 204.214,76.520 L 204.223,76.117 L 204.233,75.715 L 204.242,75.312 L 204.252,74.910 L 204.261,74.507 L 204.271,74.104 L 204.280,73.702 L 204.290,73.299 L 204.299,72.897 L 204.309,72.494 L 204.318,72.091 L 204.328,71.689 L 204.337,71.286 L 204.347,70.884 L 204.356,70.481 L 204.366,70.078 L 204.375,69.676 L 204.385,69.273 L 204.394,68.871 L 204.403,68.468 L 204.413,68.065 L 204.422,67.663 L 204.432,67.260 L 204.441,66.858 L 204.451,66.455 L 204.460,66.053 L 204.470,65.650 L 204.479,65.247 L 204.489,64.845 L 204.498,64.442 L 204.508,64.040 L 204.517,63.637 L 204.527,63.234 L 204.536,62.832 L 204.546,62.429 L 204.555,62.027 L 204.565,61.624 L 204.574,61.221 L 204.584,60.819 L 204.593,60.416 L 204.603,60.014 L 204.612,59.611 L 204.622,59.208 L 204.631,58.806 L 204.641,58.403 L 204.650,58.001 L 204.660,57.598 L 204.669,57.195 L 204.679,56.793 L 204.688,56.390 L 204.698,55.988 L 204.707,55.585 L 204.717,55.182 L 204.726,54.780 L 204.736,54.377 L 204.745,53.975 L 204.755,53.572 L 204.764,53.169 L 204.774,52.767 L 204.783,52.364 L 204.793,51.962 L 204.802,51.559 L 204.812,51.157 L 204.821,50.754 L 204.830,50.351 L 204.840,49.949 L 204.849,49.546 L 204.859,49.144 L 204.868,48.741 L 204.878,48.338 L 204.887,47.936 L 204.897,47.533 L 204.906,47.131 L 204.916,46.728 L 204.925,46.325 L 204.935,45.923 L 204.944,45.520 L 204.954,45.118 L 204.963,44.715 L 204.973,44.312 L 204.982,43.910 L 204.992,43.507 L 205.001,43.105 L 205.011,42.702 L 205.020,42.299 L 205.030,41.897 L 205.039,41.494 L 205.049,41.092 L 205.058,40.689 L 205.068,40.286 L 205.077,39.884 L 205.087,39.481 L 205.096,39.079 L 205.106,38.676 L 205.115,38.273 L 205.125,37.871 L 205.134,37.468 L 205.144,37.066 L 205.153,36.663 L 205.163,36.261 L 205.172,35.858 L 205.182,35.455 L 205.191,35.053 L 205.201,34.650 L 205.210,34.248 L 205.220,33.845 L 205.229,33.442 L 205.239,33.040 L 205.248,32.637 L 205.258,32.235 L 205.267,31.832 L 205.276,31.429 L 205.286,31.027 L 205.295,30.624 L 205.305,30.222 L 205.314,29.819 L 205.324,29.416 L 205.333,29.014 L 205.343,28.611 L 205.352,28.209 L 205.362,27.806 L 205.371,27.403 L 205.381,27.001 L 205.390,26.598 L 205.400,26.196 L 205.409,25.793 L 205.419,25.390 L 205.428,24.988 L 205.438,24.585 L 205.447,24.183 L 205.457,23.780 L 205.466,23.377 L 205.476,22.975 L 205.485,22.572 L 205.495,22.170 L 205.504,21.767 L 205.514,21.365 L 205.523,20.962 L 205.533,20.559 L 205.542,20.157 L 205.552,19.754 L 205.561,19.352 L 205.571,18.949 L 205.580,18.546 L 205.590,18.144 L 205.599,17.741 L 205.609,17.339 L 205.618,16.936 L 205.628,16.533 L 205.637,16.131 L 205.647,15.728 L 205.656,15.326 L 205.656,15.326 L 205.635,14.803 L 205.548,14.287 L 205.395,13.787 L 205.177,13.311 L 204.899,12.868 L 204.564,12.467 L 204.564,12.467 L 204.103,11.985 L 203.642,11.503 L 203.642,11.503 L 203.292,11.180 L 202.905,10.903 L 202.486,10.676 L 202.043,10.504 L 201.581,10.388 L 201.109,10.329 L 201.109,10.329 L 200.706,10.305 L 200.302,10.281 L 199.899,10.256 L 199.496,10.232 L 199.092,10.207 L 198.689,10.183 L 198.286,10.158 L 197.882,10.134 L 197.479,10.109 L 197.076,10.085 L 196.672,10.060 L 196.269,10.036 L 195.866,10.011 L 195.462,9.987 L 195.059,9.963 L 194.656,9.938 L 194.252,9.914 L 193.849,9.889 L 193.446,9.865 L 193.042,9.840 L 192.639,9.816 L 192.236,9.791 L 191.832,9.767 L 191.429,9.742 L 191.026,9.718 L 190.622,9.693 L 190.219,9.669 L 189.816,9.645 L 189.412,9.620 L 189.009,9.596 L 188.606,9.571 L 188.202,9.547 L 187.799,9.522 L 187.396,9.498 L 186.992,9.473 L 186.589,9.449 L 186.186,9.424 L 185.782,9.400 L 185.379,9.376 L 184.976,9.351 L 184.572,9.327 L 184.169,9.302 L 183.766,9.278 L 183.362,9.253 L 182.959,9.229 L 182.556,9.204 L 182.152,9.180 L 181.749,9.155 L 181.346,9.131 L 180.942,9.106 L 180.539,9.082 L 180.136,9.058 L 179.732,9.033 L 179.329,9.009 L 178.926,8.984 L 178.522,8.960 L 178.119,8.935 L 177.716,8.911 L 177.312,8.886 L 176.909,8.862 L 176.506,8.837 L 176.103,8.813 L 175.699,8.788 L 175.296,8.764 L 174.893,8.740 L 174.489,8.715 L 174.086,8.691 L 173.683,8.666 L 173.279,8.642 L 172.876,8.617 L 172.473,8.593 L 172.069,8.568 L 171.666,8.544 L 171.263,8.519 L 170.859,8.495 L 170.456,8.470 L 170.053,8.446 L 169.649,8.422 L 169.246,8.397 L 168.843,8.373 L 168.439,8.348 L 168.036,8.324 L 167.633,8.299 L 167.229,8.275 L 166.826,8.250 L 166.423,8.226 L 166.019,8.201 L 165.616,8.177 L 165.213,8.153 L 164.809,8.128 L 164.406,8.104 L 164.003,8.079 L 163.599,8.055 L 163.196,8.030 L 162.793,8.006 L 162.389,7.981 L 161.986,7.957 L 161.583,7.932 L 161.179,7.908 L 160.776,7.883 L 160.373,7.859 L 159.969,7.835 L 159.566,7.810 L 159.163,7.786 L 158.759,7.761 L 158.356,7.737 L 157.953,7.712 L 157.549,7.688 L 157.146,7.663 L 156.743,7.639 L 156.339,7.614 L 155.936,7.590 L 155.533,7.565 L 155.129,7.541 L 154.726,7.517 L 154.323,7.492 L 153.919,7.468 L 153.516,7.443 L 153.113,7.419 L 152.709,7.394 L 152.306,7.370 L 151.903,7.345 L 151.499,7.321 L 151.096,7.296 L 150.693,7.272 L 150.289,7.247 L 149.886,7.223 L 149.483,7.199 L 149.079,7.174 L 148.676,7.150 L 148.273,7.125 L 147.869,7.101 L 147.466,7.076 L 147.063,7.052 L 146.659,7.027 L 146.256,7.003 L 145.853,6.978 L 145.449,6.954 L 145.046,6.929 L 144.643,6.905 L 144.239,6.881 L 143.836,6.856 L 143.433,6.832 L 143.029,6.807 L 142.626,6.783 L 142.223,6.758 L 141.819,6.734 L 141.416,6.709 L 141.013,6.685 L 140.609,6.660 L 140.206,6.636 L 139.803,6.612 L 139.399,6.587 L 138.996,6.563 L 138.593,6.538 L 138.189,6.514 L 137.786,6.489 L 137.383,6.465 L 136.979,6.440 L 136.576,6.416 L 136.173,6.391 L 135.769,6.367 L 135.366,6.342 L 134.963,6.318 L 134.559,6.294 L 134.156,6.269 L 133.753,6.245 L 133.349,6.220 L 132.946,6.196 L 132.543,6.171 L 132.139,6.147 L 131.736,6.122 L 131.333,6.098 L 130.929,6.073 L 130.526,6.049 L 130.123,6.024 L 129.719,6.000 L 129.719,6.000 L 129.315,6.000 L 128.911,6.000 L 128.507,6.000 L 128.103,6.000 L 127.699,6.000 L 127.295,6.000 L 126.891,6.000 L 126.487,6.000 L 126.083,6.000 L 125.679,6.000 L 125.275,6.000 L 124.871,6.000 L 124.467,6.000 L 124.063,6.000 L 123.659,6.000 L 123.255,6.000 L 122.851,6.000 L 122.447,6.000 L 122.043,6.000 L 121.639,6.000 L 121.235,6.000 L 120.831,6.000 L 120.427,6.000 L 120.023,6.000 L 119.619,6.000 L 119.215,6.000 L 118.811,6.000 L 118.407,6.000 L 118.003,6.000 L 117.599,6.000 L 117.195,6.000 L 116.790,6.000 L 116.386,6.000 L 115.982,6.000 L 115.578,6.000 L 115.174,6.000 L 114.770,6.000 L 114.366,6.000 L 113.962,6.000 L 113.558,6.000 L 113.154,6.000 L 112.750,6.000 L 112.346,6.000 L 111.942,6.000 L 111.538,6.000 L 111.134,6.000 L 110.730,6.000 L 110.326,6.000 L 109.922,6.000 L 109.518,6.000 L 109.114,6.000 L 108.710,6.000 L 108.306,6.000 L 107.902,6.000 L 107.498,6.000 L 107.094,6.000 L 106.690,6.000 L 106.286,6.000 L 105.882,6.000 L 105.478,6.000 L 105.074,6.000 L 104.670,6.000 L 104.266,6.000 L 103.862,6.000 L 103.458,6.000 L 103.053,6.000 L 102.649,6.000 L 102.245,6.000 L 101.841,6.000 L 101.437,6.000 L 101.033,6.000 L 100.629,6.000 L 100.225,6.000 L 99.821,6.000 L 99.417,6.000 L 99.013,6.000 L 98.609,6.000 L 98.205,6.000 L 97.801,6.000 L 97.397,6.000 L 96.993,6.000 L 96.589,6.000 L 96.185,6.000 L 95.781,6.000 L 95.377,6.000 L 94.973,6.000 L 94.569,6.000 L 94.165,6.000 L 93.761,6.000 L 93.357,6.000 L 92.953,6.000 L 92.549,6.000 L 92.145,6.000 L 91.741,6.000 L 91.337,6.000 L 90.933,6.000 L 90.529,6.000 L 90.125,6.000 L 89.720,6.000 L 89.316,6.000 L 88.912,6.000 L 88.508,6.000 L 88.104,6.000 L 87.700,6.000 L 87.296,6.000 L 86.892,6.000 L 86.488,6.000 L 86.084,6.000 L 85.680,6.000 L 85.276,6.000 L 84.872,6.000 L 84.468,6.000 L 84.064,6.000 L 84.064,6.000 L 83.663,6.035 L 83.263,6.070 L 82.862,6.105 L 82.461,6.140 L 82.060,6.175 L 81.660,6.210 L 81.259,6.245 L 80.858,6.280 L 80.457,6.315 L 80.057,6.350 L 79.656,6.384 L 79.255,6.419 L 78.854,6.454 L 78.454,6.489 L 78.053,6.524 L 77.652,6.559 L 77.252,6.594 L 76.851,6.629 L 76.450,6.664 L 76.049,6.699 L 75.649,6.734 L 75.248,6.769 L 74.847,6.804 L 74.446,6.839 L 74.046,6.874 L 73.645,6.909 L 73.244,6.944 L 72.843,6.979 L 72.443,7.014 L 72.042,7.049 L 71.641,7.084 L 71.240,7.118 L 70.840,7.153 L 70.439,7.188 L 70.038,7.223 L 69.638,7.258 L 69.237,7.293 L 68.836,7.328 L 68.435,7.363 L 68.035,7.398 L 67.634,7.433 L 67.233,7.468 L 66.832,7.503 L 66.432,7.538 L 66.031,7.573 L 65.630,7.608 L 65.229,7.643 L 64.829,7.678 L 64.428,7.713 L 64.027,7.748 L 63.626,7.783 L 63.226,7.818 L 62.825,7.852 L 62.424,7.887 L 62.024,7.922 L 61.623,7.957 L 61.222,7.992 L 60.821,8.027 L 60.421,8.062 L 60.020,8.097 L 59.619,8.132 L 59.218,8.167 L 58.818,8.202 L 58.417,8.237 L 58.016,8.272 L 57.615,8.307 L 57.215,8.342 L 56.814,8.377 L 56.413,8.412 L 56.012,8.447 L 55.612,8.482 L 55.211,8.517 L 54.810,8.552 L 54.409,8.586 L 54.009,8.621 L 53.608,8.656 L 53.207,8.691 L 52.807,8.726 L 52.406,8.761 L 52.005,8.796 L 51.604,8.831 L 51.204,8.866 L 50.803,8.901 L 50.402,8.936 L 50.001,8.971 L 49.601,9.006 L 49.200,9.041 L 48.799,9.076 L 48.398,9.111 L 47.998,9.146 L 47.597,9.181 L 47.196,9.216 L 46.795,9.251 L 46.395,9.286 L 45.994,9.320 L 45.593,9.355 L 45.193,9.390 L 44.792,9.425 L 44.391,9.460 L 43.990,9.495 L 43.590,9.530 L 43.189,9.565 L 42.788,9.600 L 42.387,9.635 L 41.987,9.670 L 41.586,9.705 L 41.185,9.740 L 40.784,9.775 L 40.384,9.810 L 39.983,9.845 L 39.582,9.880 L 39.181,9.915 L 38.781,9.950 L 38.380,9.985 L 37.979,10.020 L 37.579,10.054 L 37.178,10.089 L 36.777,10.124 L 36.376,10.159 L 35.976,10.194 L 35.575,10.229 L 35.174,10.264 L 34.773,10.299 L 34.373,10.334 L 33.972,10.369 L 33.571,10.404 L 33.170,10.439 L 32.770,10.474 L 32.369,10.509 L 31.968,10.544 L 31.567,10.579 L 31.167,10.614 L 30.766,10.649 L 30.365,10.684 L 29.964,10.719 L 29.564,10.754 L 29.163,10.788 L 28.762,10.823 L 28.362,10.858 L 27.961,10.893 L 27.560,10.928 L 27.159,10.963 L 26.759,10.998 L 26.358,11.033 L 25.957,11.068 L 25.556,11.103 L 25.156,11.138 L 24.755,11.173 L 24.354,11.208 L 23.953,11.243 L 23.553,11.278 L 23.152,11.313 L 22.751,11.348 L 22.350,11.383 L 21.950,11.418 L 21.549,11.453 L 21.148,11.488 L 20.748,11.522 L 20.347,11.557 L 19.946,11.592 L 19.545,11.627 L 19.145,11.662 L 18.744,11.697 L 18.343,11.732 L 17.942,11.767 L 17.542,11.802 L 17.141,11.837 L 16.740,11.872 L 16.339,11.907 L 15.939,11.942 L 15.538,11.977 L 15.137,12.012 L 14.736,12.047 L 14.336,12.082 L 13.935,12.117 L 13.534,12.152 L 13.134,12.187 L 12.733,12.222 L 12.332,12.257 L 11.931,12.291 L 11.531,12.326 L 11.130,12.361 L 10.729,12.396 L 10.328,12.431 L 9.928,12.466 L 9.527,12.501 L 9.527,12.501 L 9.078,12.567 L 8.640,12.686 L 8.219,12.855 L 7.822,13.073 L 7.453,13.337 L 7.117,13.643 L 6.820,13.986 L 6.565,14.361 L 6.355,14.763 L 6.192,15.186 L 6.078,15.625 L 6.014,16.075 L 6.000,16.528 L 6.000,16.528 L 6.010,16.931 L 6.019,17.334 L 6.029,17.738 L 6.038,18.141 L 6.048,18.544 L 6.057,18.947 L 6.067,19.351 L 6.076,19.754 L 6.086,20.157 L 6.095,20.560 L 6.105,20.964 L 6.114,21.367 L 6.124,21.770 L 6.133,22.173 L 6.143,22.576 L 6.152,22.980 L 6.162,23.383 L 6.171,23.786 L 6.181,24.189 L 6.190,24.593 L 6.200,24.996 L 6.209,25.399 L 6.219,25.802 L 6.228,26.206 L 6.238,26.609 L 6.247,27.012 L 6.257,27.415 L 6.266,27.818 L 6.276,28.222 L 6.285,28.625 L 6.295,29.028 L 6.304,29.431 L 6.314,29.835 L 6.323,30.238 L 6.333,30.641 L 6.342,31.044 L 6.352,31.448 L 6.361,31.851 L 6.371,32.254 L 6.380,32.657 L 6.390,33.060 L 6.399,33.464 L 6.409,33.867 L 6.418,34.270 L 6.428,34.673 L 6.437,35.077 L 6.447,35.480 L 6.456,35.883 L 6.466,36.286 L 6.475,36.690 L 6.485,37.093 L 6.494,37.496 L 6.504,37.899 L 6.513,38.302 L 6.523,38.706 L 6.532,39.109 L 6.542,39.512 L 6.551,39.915 L 6.561,40.319 L 6.570,40.722 L 6.580,41.125 L 6.589,41.528 L 6.599,41.932 L 6.608,42.335 L 6.618,42.738 L 6.627,43.141 L 6.637,43.544 L 6.646,43.948 L 6.656,44.351 L 6.665,44.754 L 6.675,45.157 L 6.684,45.561 L 6.694,45.964 L 6.703,46.367 L 6.713,46.770 L 6.722,47.174 L 6.732,47.577 L 6.741,47.980 L 6.751,48.383 L 6.760,48.786 L 6.770,49.190 L 6.779,49.593 L 6.789,49.996 L 6.798,50.399 L 6.808,50.803 L 6.817,51.206 L 6.827,51.609 L 6.836,52.012 L 6.846,52.416 L 6.855,52.819 L 6.865,53.222 L 6.874,53.625 L 6.884,54.028 L 6.893,54.432 L 6.903,54.835 L 6.912,55.238 L 6.922,55.641 L 6.931,56.045 L 6.941,56.448 L 6.950,56.851 L 6.960,57.254 L 6.969,57.658 L 6.979,58.061 L 6.988,58.464 L 6.998,58.867 L 7.007,59.270 L 7.017,59.674 L 7.026,60.077 L 7.036,60.480 L 7.045,60.883 L 7.055,61.287 L 7.064,61.690 L 7.074,62.093 L 7.083,62.496 L 7.093,62.900 L 7.102,63.303 L 7.112,63.706 L 7.121,64.109 L 7.131,64.512 L 7.140,64.916 L 7.150,65.319 L 7.160,65.722 L 7.169,66.125 L 7.179,66.529 L 7.188,66.932 L 7.198,67.335 L 7.207,67.738 L 7.217,68.142 L 7.226,68.545 L 7.236,68.948 L 7.245,69.351 L 7.255,69.754 L 7.264,70.158 L 7.274,70.561 L 7.283,70.964 L 7.293,71.367 L 7.302,71.771 L 7.312,72.174 L 7.321,72.577 L 7.331,72.980 L 7.340,73.384 L 7.350,73.787 L 7.359,74.190 L 7.369,74.593 L 7.378,74.996 L 7.388,75.400 L 7.397,75.803 L 7.407,76.206 L 7.416,76.609 L 7.426,77.013 L 7.435,77.416 L 7.445,77.819 L 7.454,78.222 L 7.464,78.626 L 7.473,79.029 L 7.483,79.432 L 7.492,79.835 L 7.502,80.238 L 7.511,80.642 L 7.521,81.045 L 7.530,81.448 L 7.540,81.851 L 7.549,82.255 L 7.559,82.658 L 7.568,83.061 L 7.578,83.464 L 7.587,83.868 L 7.597,84.271 L 7.606,84.674 L 7.616,85.077 L 7.625,85.480 L 7.635,85.884 L 7.644,86.287 L 7.654,86.690 L 7.663,87.093 L 7.673,87.497 L 7.682,87.900 L 7.692,88.303 L 7.701,88.706 L 7.711,89.110 L 7.720,89.513 L 7.730,89.916 L 7.739,90.319 L 7.749,90.722 L 7.758,91.126 L 7.768,91.529 L 7.777,91.932 L 7.787,92.335 L 7.796,92.739 L 7.806,93.142 L 7.815,93.545 L 7.825,93.948 L 7.834,94.352 L 7.844,94.755 L 7.853,95.158 L 7.863,95.561 L 7.872,95.964 L 7.882,96.368 L 7.891,96.771 L 7.901,97.174 L 7.910,97.577 L 7.920,97.981 L 7.929,98.384 L 7.939,98.787 L 7.948,99.190 L 7.958,99.594 L 7.967,99.997 L 7.977,100.400 L 7.986,100.803 L 7.996,101.206 L 8.005,101.610 L 8.015,102.013 L 8.024,102.416 L 8.034,102.819 L 8.043,103.223 L 8.043,103.223 L 8.108,103.861 L 8.268,104.483 L 8.268,104.483 L 8.400,104.871 L 8.532,105.259 L 8.664,105.647 L 8.796,106.035 L 8.928,106.424 L 9.060,106.812 L 9.193,107.200 L 9.325,107.588 L 9.457,107.976 L 9.589,108.364 L 9.721,108.753 L 9.853,109.141 L 9.985,109.529 L 10.117,109.917 L 10.249,110.305 L 10.381,110.694 L 10.513,111.082 L 10.646,111.470 L 10.778,111.858 L 10.910,112.246 L 11.042,112.634 L 11.174,113.023 L 11.306,113.411 L 11.438,113.799 L 11.570,114.187 L 11.702,114.575 L 11.834,114.963 L 11.966,115.352 L 12.099,115.740 L 12.231,116.128 L 12.363,116.516 L 12.495,116.904 L 12.627,117.293 L 12.759,117.681 L 12.891,118.069 L 13.023,118.457 L 13.155,118.845 L 13.287,119.233 L 13.419,119.622 L 13.551,120.010 L 13.684,120.398 L 13.816,120.786 L 13.948,121.174 L 14.080,121.562 L 14.212,121.951 L 14.344,122.339 L 14.476,122.727 L 14.608,123.115 L 14.740,123.503 L 14.740,123.503 L 14.934,123.977 L 15.182,124.424 L 15.481,124.839 L 15.826,125.216 L 15.826,125.216 L 16.156,125.537 L 16.486,125.857 L 16.816,126.178 L 17.146,126.499 L 17.476,126.819 L 17.807,127.140 L 18.137,127.461 L 18.137,127.461 L 18.496,127.774 L 18.888,128.046 L 19.306,128.274 L 19.747,128.456 L 20.205,128.589 L 20.675,128.670 L 20.675,128.670 L 21.074,128.717 L 21.472,128.764 L 21.871,128.810 L 22.270,128.857 L 22.668,128.904 L 23.067,128.951 L 23.465,128.997 L 23.864,129.044 L 24.263,129.091 L 24.661,129.138 L 25.060,129.184 L 25.458,129.231 L 25.857,129.278 L 26.256,129.325 L 26.654,129.371 L 27.053,129.418 L 27.452,129.465 L 27.850,129.512 L 28.249,129.558 L 28.647,129.605 L 29.046,129.652 L 29.445,129.699 L 29.843,129.745 L 30.242,129.792 L 30.640,129.839 L 31.039,129.886 L 31.438,129.933 L 31.836,129.979 L 32.235,130.026 L 32.633,130.073 L 33.032,130.120 L 33.431,130.166 L 33.829,130.213 L 34.228,130.260 L 34.626,130.307 L 35.025,130.353 L 35.424,130.400 L 35.822,130.447 L 36.221,130.494 L 36.619,130.540 L 37.018,130.587 L 37.417,130.634 L 37.815,130.681 L 38.214,130.727 L 38.612,130.774 L 39.011,130.821 L 39.410,130.868 L 39.808,130.914 L 40.207,130.961 L 40.605,131.008 L 41.004,131.055 L 41.403,131.101 L 41.801,131.148 L 42.200,131.195 L 42.599,131.242 L 42.997,131.289 L 43.396,131.335 L 43.794,131.382 L 44.193,131.429 L 44.592,131.476 L 44.990,131.522 L 45.389,131.569 L 45.787,131.616 L 46.186,131.663 L 46.585,131.709 L 46.983,131.756 L 47.382,131.803 L 47.780,131.850 L 48.179,131.896 L 48.578,131.943 L 48.976,131.990 L 49.375,132.037 L 49.773,132.083 L 50.172,132.130 L 50.571,132.177 L 50.969,132.224 L 51.368,132.270 L 51.766,132.317 L 52.165,132.364 L 52.564,132.411 L 52.962,132.457 L 53.361,132.504 L 53.759,132.551 L 54.158,132.598 L 54.557,132.645 L 54.955,132.691 L 55.354,132.738 L 55.752,132.785 L 56.151,132.832 L 56.550,132.878 L 56.948,132.925 L 57.347,132.972 L 57.746,133.019 L 58.144,133.065 L 58.543,133.112 L 58.941,133.159 L 59.340,133.206 L 59.739,133.252 L 60.137,133.299 L 60.536,133.346 L 60.934,133.393 L 61.333,133.439 L 61.732,133.486 L 62.130,133.533 L 62.529,133.580 L 62.927,133.626 L 63.326,133.673 L 63.725,133.720 L 64.123,133.767 L 64.522,133.813 L 64.920,133.860 L 65.319,133.907 L 65.718,133.954 L 66.116,134.001 L 66.515,134.047 L 66.913,134.094 L 67.312,134.141 L 67.711,134.188 L 68.109,134.234 L 68.508,134.281 L 68.906,134.328 L 69.305,134.375 L 69.704,134.421 L 70.102,134.468 L 70.501,134.515 L 70.899,134.562 L 71.298,134.608 L 71.697,134.655 L 72.095,134.702 L 72.494,134.749 L 72.893,134.795 L 73.291,134.842 L 73.690,134.889 L 74.088,134.936 L 74.487,134.982 L 74.886,135.029 L 75.284,135.076 L 75.683,135.123 L 76.081,135.169 L 76.480,135.216 L 76.879,135.263 L 77.277,135.310 L 77.676,135.357 L 78.074,135.403 L 78.473,135.450 L 78.872,135.497 L 79.270,135.544 L 79.669,135.590 L 80.067,135.637 L 80.466,135.684 L 80.865,135.731 L 81.263,135.777 L 81.662,135.824 L 82.060,135.871 L 82.459,135.918 L 82.858,135.964 L 83.256,136.011 L 83.655,136.058 L 84.053,136.105 L 84.452,136.151 L 84.851,136.198 L 85.249,136.245 L 85.648,136.292 L 86.046,136.338 L 86.445,136.385 L 86.844,136.432 L 87.242,136.479 L 87.641,136.525 L 88.040,136.572 L 88.438,136.619 L 88.837,136.666 L 89.235,136.713 L 89.634,136.759 L 90.033,136.806 L 90.431,136.853 L 90.830,136.900 L 91.228,136.946 L 91.627,136.993 L 92.026,137.040 L 92.424,137.087 L 92.823,137.133 L 93.221,137.180 L 93.620,137.227 L 94.019,137.274 L 94.417,137.320 L 94.816,137.367 L 95.214,137.414 L 95.613,137.461 L 96.012,137.507 L 96.410,137.554 L 96.809,137.601 L 97.207,137.648 L 97.606,137.694 L 98.005,137.741 L 98.403,137.788 L 98.802,137.835 L 99.200,137.881 L 99.599,137.928 L 99.998,137.975 L 100.396,138.022 L 100.795,138.069 L 101.193,138.115 L 101.592,138.162 L 101.991,138.209 L 102.389,138.256 L 102.788,138.302 L 103.186,138.349 L 103.585,138.396 L 103.984,138.443 L 104.382,138.489 L 104.781,138.536 L 105.180,138.583 L 105.578,138.630 L 105.977,138.676 L 106.375,138.723 L 106.774,138.770 L 107.173,138.817 L 107.571,138.863 L 107.970,138.910 L 108.368,138.957 L 108.767,139.004 L 109.166,139.050 L 109.564,139.097 L 109.963,139.144 L 110.361,139.191 L 110.760,139.237 L 111.159,139.284 L 111.557,139.331 L 111.956,139.378 L 112.354,139.425 L 112.753,139.471 L 113.152,139.518 L 113.550,139.565 L 113.949,139.612 L 114.347,139.658 L 114.746,139.705 L 115.145,139.752 L 115.543,139.799 L 115.942,139.845 L 116.340,139.892 L 116.739,139.939 L 117.138,139.986 L 117.536,140.032 L 117.935,140.079 L 118.333,140.126 L 118.732,140.173 L 119.131,140.219 L 119.529,140.266 L 119.928,140.313 L 120.327,140.360 L 120.725,140.406 L 121.124,140.453 L 121.522,140.500 L 121.921,140.547 L 122.320,140.593 L 122.718,140.640 L 123.117,140.687 L 123.515,140.734 L 123.914,140.780 L 124.313,140.827 L 124.711,140.874 L 125.110,140.921 L 125.508,140.968 L 125.907,141.014 L 126.306,141.061 L 126.704,141.108 L 127.103,141.155 L 127.501,141.201 L 127.900,141.248 L 128.299,141.295 L 128.697,141.342 L 129.096,141.388 L 129.494,141.435 L 129.893,141.482 L 130.292,141.529 L 130.690,141.575 L 131.089,141.622 L 131.487,141.669 L 131.886,141.716 L 132.285,141.762 L 132.683,141.809 L 133.082,141.856 L 133.480,141.903 L 133.879,141.949 L 134.278,141.996 L 134.676,142.043 L 135.075,142.090 L 135.474,142.136 L 135.872,142.183 L 136.271,142.230 L 136.669,142.277 L 137.068,142.324 L 137.467,142.370 L 137.865,142.417 L 138.264,142.464 L 138.662,142.511 L 139.061,142.557 L 139.460,142.604 L 139.858,142.651 L 140.257,142.698 L 140.655,142.744 L 141.054,142.791 L 141.453,142.838 L 141.851,142.885 L 142.250,142.931 L 142.648,142.978 L 143.047,143.025 L 143.446,143.072 L 143.844,143.118 L 144.243,143.165 L 144.641,143.212 L 145.040,143.259 L 145.439,143.305 L 145.837,143.352 L 146.236,143.399 L 146.634,143.446 L 147.033,143.492 L 147.432,143.539 L 147.830,143.586 L 148.229,143.633 L 148.627,143.680 L 149.026,143.726 L 149.425,143.773 L 149.823,143.820 L 150.222,143.867 L 150.621,143.913 L 151.019,143.960 L 151.418,144.007 L 151.816,144.054 L 152.215,144.100 L 152.614,144.147 L 153.012,144.194 L 153.411,144.241 L 153.809,144.287 L 154.208,144.334 L 154.607,144.381 L 155.005,144.428 L 155.404,144.474 L 155.802,144.521 L 156.201,144.568 L 156.600,144.615 L 156.998,144.661 L 157.397,144.708 L 157.795,144.755 L 158.194,144.802 L 158.593,144.848 L 158.991,144.895 L 159.390,144.942 L 159.788,144.989 L 160.187,145.036 L 160.586,145.082 L 160.984,145.129 L 161.383,145.176 L 161.781,145.223 L 162.180,145.269 L 162.579,145.316 L 162.977,145.363 L 163.376,145.410 L 163.774,145.456 L 164.173,145.503 L 164.572,145.550 L 164.970,145.597 L 165.369,145.643 L 165.768,145.690 L 166.166,145.737 L 166.565,145.784 L 166.963,145.830 L 167.362,145.877 L 167.761,145.924 L 168.159,145.971 L 168.558,146.017 L 168.956,146.064 L 169.355,146.111 L 169.754,146.158 L 170.152,146.204 L 170.551,146.251 L 170.949,146.298 L 171.348,146.345 L 171.747,146.392 L 172.145,146.438 L 172.544,146.485 L 172.942,146.532 L 173.341,146.579 L 173.740,146.625 L 174.138,146.672 L 174.537,146.719 L 174.935,146.766 L 175.334,146.812 L 175.733,146.859 L 176.131,146.906 L 176.530,146.953 L 176.928,146.999 L 177.327,147.046 L 177.726,147.093 L 178.124,147.140 L 178.124,147.140 L 178.630,147.169 L 178.630,147.169 L 179.362,147.169 L 180.095,147.169 L 180.095,147.169 L 180.595,147.140 L 181.088,147.055 L 181.569,146.914 L 182.031,146.720 L 182.031,146.720 L 182.938,146.276 L 182.938,146.276 L 183.346,146.049 L 183.728,145.780 L 184.079,145.473 L 184.396,145.130 L 184.675,144.755 L 184.912,144.353 L 185.104,143.927 L 185.104,143.927 L 185.250,143.551 L 185.396,143.174 L 185.541,142.798 L 185.687,142.421 L 185.833,142.044 L 185.979,141.668 L 186.125,141.291 L 186.271,140.914 L 186.417,140.538 L 186.563,140.161 L 186.709,139.785 L 186.855,139.408 L 187.000,139.031 L 187.146,138.655 L 187.292,138.278 L 187.438,137.902 L 187.584,137.525 L 187.730,137.148 L 187.876,136.772 L 188.022,136.395 L 188.168,136.019 L 188.314,135.642 L 188.460,135.265 L 188.605,134.889 L 188.751,134.512 L 188.897,134.136 L 189.043,133.759 L 189.189,133.382 L 189.335,133.006 L 189.481,132.629 L 189.627,132.252 L 189.773,131.876 L 189.919,131.499 L 190.064,131.123 L 190.210,130.746 L 190.356,130.369 L 190.502,129.993 L 190.648,129.616 L 190.794,129.240 L 190.940,128.863 L 191.086,128.486 L 191.232,128.110 L 191.378,127.733 L 191.523,127.357 L 191.669,126.980 L 191.815,126.603 L 191.961,126.227 L 192.107,125.850 L 192.253,125.474 L 192.399,125.097 L 192.545,124.720 L 192.691,124.344 L 192.837,123.967 L 192.982,123.590 L 193.128,123.214 L 193.274,122.837 L 193.420,122.461 L 193.566,122.084 L 193.712,121.707 L 193.858,121.331 L 194.004,120.954 L 194.150,120.578 L 194.296,120.201 L 194.441,119.824 L 194.587,119.448 L 194.733,119.071 L 194.879,118.695 L 195.025,118.318 L 195.171,117.941 L 195.317,117.565 L 195.463,117.188 L 195.609,116.812 L 195.755,116.435 L 195.900,116.058 L 196.046,115.682 L 196.192,115.305 L 196.338,114.928 L 196.484,114.552 L 196.630,114.175 L 196.776,113.799 L 196.922,113.422 L 197.068,113.045 L 197.214,112.669 L 197.360,112.292 L 197.505,111.916 L 197.651,111.539 L 197.797,111.162 L 197.943,110.786 L 198.089,110.409 L 198.235,110.033 L 198.381,109.656 L 198.527,109.279 L 198.673,108.903 L 198.819,108.526 L 198.964,108.150 L 199.110,107.773 L 199.256,107.396 L 199.402,107.020 L 199.548,106.643 L 199.694,106.266 L 199.840,105.890 L 199.986,105.513 L 200.132,105.137 L 200.278,104.760 L 200.423,104.383 L 200.569,104.007 L 200.715,103.630 L 200.861,103.254 L 201.007,102.877 L 201.153,102.500 L 201.299,102.124 L 201.445,101.747 L 201.591,101.371 L 201.737,100.994 L 201.882,100.617 L 202.028,100.241 L 202.174,99.864 L 202.320,99.488 L 202.466,99.111 L 202.466,99.111 L 202.603,98.696 L 202.603,98.696 L 202.735,98.215 L 202.866,97.733 L 202.998,97.251 L 203.130,96.770 L 203.262,96.288 L 203.394,95.806 L 203.525,95.325 L 203.657,94.843 Z" stroke="#000000"/>
<!-- plate seat / recess opening (ledge outer edge, ~LIP_W inset) -->
<path d="M 201.809,93.662 L 201.819,93.260 L 201.828,92.858 L 201.838,92.456 L 201.847,92.054 L 201.856,91.652 L 201.866,91.250 L 201.875,90.848 L 201.885,90.446 L 201.894,90.044 L 201.904,89.642 L 201.913,89.240 L 201.923,88.838 L 201.932,88.436 L 201.942,88.034 L 201.951,87.632 L 201.961,87.230 L 201.970,86.828 L 201.980,86.426 L 201.989,86.024 L 201.999,85.622 L 202.008,85.220 L 202.018,84.818 L 202.027,84.416 L 202.037,84.014 L 202.046,83.612 L 202.055,83.210 L 202.065,82.808 L 202.074,82.406 L 202.084,82.004 L 202.093,81.602 L 202.103,81.200 L 202.112,80.798 L 202.122,80.396 L 202.131,79.994 L 202.141,79.592 L 202.150,79.190 L 202.160,78.788 L 202.169,78.386 L 202.179,77.984 L 202.188,77.582 L 202.198,77.180 L 202.207,76.778 L 202.217,76.376 L 202.226,75.974 L 202.235,75.572 L 202.245,75.170 L 202.254,74.768 L 202.264,74.366 L 202.273,73.964 L 202.283,73.562 L 202.292,73.160 L 202.302,72.758 L 202.311,72.356 L 202.321,71.954 L 202.330,71.552 L 202.340,71.150 L 202.349,70.748 L 202.359,70.346 L 202.368,69.944 L 202.378,69.541 L 202.387,69.139 L 202.397,68.737 L 202.406,68.335 L 202.416,67.933 L 202.425,67.531 L 202.434,67.129 L 202.444,66.727 L 202.453,66.325 L 202.463,65.923 L 202.472,65.521 L 202.482,65.119 L 202.491,64.717 L 202.501,64.315 L 202.510,63.913 L 202.520,63.511 L 202.529,63.109 L 202.539,62.707 L 202.548,62.305 L 202.558,61.903 L 202.567,61.501 L 202.577,61.099 L 202.586,60.697 L 202.596,60.295 L 202.605,59.893 L 202.615,59.491 L 202.624,59.089 L 202.633,58.687 L 202.643,58.285 L 202.652,57.883 L 202.662,57.481 L 202.671,57.079 L 202.681,56.677 L 202.690,56.275 L 202.700,55.873 L 202.709,55.471 L 202.719,55.069 L 202.728,54.667 L 202.738,54.265 L 202.747,53.863 L 202.757,53.461 L 202.766,53.059 L 202.776,52.657 L 202.785,52.255 L 202.795,51.853 L 202.804,51.451 L 202.813,51.049 L 202.823,50.647 L 202.832,50.245 L 202.842,49.843 L 202.851,49.441 L 202.861,49.039 L 202.870,48.637 L 202.880,48.235 L 202.889,47.833 L 202.899,47.431 L 202.908,47.029 L 202.918,46.627 L 202.927,46.225 L 202.937,45.823 L 202.946,45.421 L 202.956,45.019 L 202.965,44.617 L 202.975,44.215 L 202.984,43.813 L 202.994,43.411 L 203.003,43.009 L 203.012,42.607 L 203.022,42.205 L 203.031,41.803 L 203.041,41.401 L 203.050,40.999 L 203.060,40.597 L 203.069,40.195 L 203.079,39.793 L 203.088,39.391 L 203.098,38.989 L 203.107,38.587 L 203.117,38.185 L 203.126,37.783 L 203.136,37.380 L 203.145,36.978 L 203.155,36.576 L 203.164,36.174 L 203.174,35.772 L 203.183,35.370 L 203.193,34.968 L 203.202,34.566 L 203.211,34.164 L 203.221,33.762 L 203.230,33.360 L 203.240,32.958 L 203.249,32.556 L 203.259,32.154 L 203.268,31.752 L 203.278,31.350 L 203.287,30.948 L 203.297,30.546 L 203.306,30.144 L 203.316,29.742 L 203.325,29.340 L 203.335,28.938 L 203.344,28.536 L 203.354,28.134 L 203.363,27.732 L 203.373,27.330 L 203.382,26.928 L 203.392,26.526 L 203.401,26.124 L 203.410,25.722 L 203.420,25.320 L 203.429,24.918 L 203.439,24.516 L 203.448,24.114 L 203.458,23.712 L 203.467,23.310 L 203.477,22.908 L 203.486,22.506 L 203.496,22.104 L 203.505,21.702 L 203.515,21.300 L 203.524,20.898 L 203.534,20.496 L 203.543,20.094 L 203.553,19.692 L 203.562,19.290 L 203.572,18.888 L 203.581,18.486 L 203.590,18.084 L 203.600,17.682 L 203.609,17.280 L 203.619,16.878 L 203.628,16.476 L 203.638,16.074 L 203.647,15.672 L 203.647,15.672 L 203.445,15.143 L 203.244,14.615 L 203.042,14.086 L 202.840,13.558 L 202.840,13.558 L 202.458,13.159 L 202.458,13.159 L 201.996,12.945 L 201.534,12.731 L 201.073,12.517 L 200.611,12.303 L 200.611,12.303 L 200.208,12.279 L 199.805,12.254 L 199.402,12.230 L 198.998,12.205 L 198.595,12.181 L 198.192,12.156 L 197.789,12.132 L 197.386,12.107 L 196.983,12.083 L 196.580,12.058 L 196.176,12.034 L 195.773,12.010 L 195.370,11.985 L 194.967,11.961 L 194.564,11.936 L 194.161,11.912 L 193.758,11.887 L 193.355,11.863 L 192.951,11.838 L 192.548,11.814 L 192.145,11.790 L 191.742,11.765 L 191.339,11.741 L 190.936,11.716 L 190.533,11.692 L 190.129,11.667 L 189.726,11.643 L 189.323,11.618 L 188.920,11.594 L 188.517,11.570 L 188.114,11.545 L 187.711,11.521 L 187.307,11.496 L 186.904,11.472 L 186.501,11.447 L 186.098,11.423 L 185.695,11.398 L 185.292,11.374 L 184.889,11.349 L 184.485,11.325 L 184.082,11.301 L 183.679,11.276 L 183.276,11.252 L 182.873,11.227 L 182.470,11.203 L 182.067,11.178 L 181.664,11.154 L 181.260,11.129 L 180.857,11.105 L 180.454,11.081 L 180.051,11.056 L 179.648,11.032 L 179.245,11.007 L 178.842,10.983 L 178.438,10.958 L 178.035,10.934 L 177.632,10.909 L 177.229,10.885 L 176.826,10.861 L 176.423,10.836 L 176.020,10.812 L 175.616,10.787 L 175.213,10.763 L 174.810,10.738 L 174.407,10.714 L 174.004,10.689 L 173.601,10.665 L 173.198,10.640 L 172.795,10.616 L 172.391,10.592 L 171.988,10.567 L 171.585,10.543 L 171.182,10.518 L 170.779,10.494 L 170.376,10.469 L 169.973,10.445 L 169.569,10.420 L 169.166,10.396 L 168.763,10.372 L 168.360,10.347 L 167.957,10.323 L 167.554,10.298 L 167.151,10.274 L 166.747,10.249 L 166.344,10.225 L 165.941,10.200 L 165.538,10.176 L 165.135,10.151 L 164.732,10.127 L 164.329,10.103 L 163.926,10.078 L 163.522,10.054 L 163.119,10.029 L 162.716,10.005 L 162.313,9.980 L 161.910,9.956 L 161.507,9.931 L 161.104,9.907 L 160.700,9.883 L 160.297,9.858 L 159.894,9.834 L 159.491,9.809 L 159.088,9.785 L 158.685,9.760 L 158.282,9.736 L 157.878,9.711 L 157.475,9.687 L 157.072,9.663 L 156.669,9.638 L 156.266,9.614 L 155.863,9.589 L 155.460,9.565 L 155.056,9.540 L 154.653,9.516 L 154.250,9.491 L 153.847,9.467 L 153.444,9.442 L 153.041,9.418 L 152.638,9.394 L 152.235,9.369 L 151.831,9.345 L 151.428,9.320 L 151.025,9.296 L 150.622,9.271 L 150.219,9.247 L 149.816,9.222 L 149.413,9.198 L 149.009,9.174 L 148.606,9.149 L 148.203,9.125 L 147.800,9.100 L 147.397,9.076 L 146.994,9.051 L 146.591,9.027 L 146.187,9.002 L 145.784,8.978 L 145.381,8.954 L 144.978,8.929 L 144.575,8.905 L 144.172,8.880 L 143.769,8.856 L 143.366,8.831 L 142.962,8.807 L 142.559,8.782 L 142.156,8.758 L 141.753,8.733 L 141.350,8.709 L 140.947,8.685 L 140.544,8.660 L 140.140,8.636 L 139.737,8.611 L 139.334,8.587 L 138.931,8.562 L 138.528,8.538 L 138.125,8.513 L 137.722,8.489 L 137.318,8.465 L 136.915,8.440 L 136.512,8.416 L 136.109,8.391 L 135.706,8.367 L 135.303,8.342 L 134.900,8.318 L 134.497,8.293 L 134.093,8.269 L 133.690,8.244 L 133.287,8.220 L 132.884,8.196 L 132.481,8.171 L 132.078,8.147 L 131.675,8.122 L 131.271,8.098 L 130.868,8.073 L 130.465,8.049 L 130.062,8.024 L 129.659,8.000 L 129.659,8.000 L 129.253,8.000 L 128.846,8.000 L 128.440,8.000 L 128.034,8.000 L 127.627,8.000 L 127.221,8.000 L 126.815,8.000 L 126.408,8.000 L 126.002,8.000 L 125.596,8.000 L 125.189,8.000 L 124.783,8.000 L 124.377,8.000 L 123.970,8.000 L 123.564,8.000 L 123.158,8.000 L 122.751,8.000 L 122.345,8.000 L 121.939,8.000 L 121.532,8.000 L 121.126,8.000 L 120.720,8.000 L 120.314,8.000 L 119.907,8.000 L 119.501,8.000 L 119.095,8.000 L 118.688,8.000 L 118.282,8.000 L 117.876,8.000 L 117.469,8.000 L 117.063,8.000 L 116.657,8.000 L 116.250,8.000 L 115.844,8.000 L 115.438,8.000 L 115.031,8.000 L 114.625,8.000 L 114.219,8.000 L 113.812,8.000 L 113.406,8.000 L 113.000,8.000 L 112.593,8.000 L 112.187,8.000 L 111.781,8.000 L 111.374,8.000 L 110.968,8.000 L 110.562,8.000 L 110.156,8.000 L 109.749,8.000 L 109.343,8.000 L 108.937,8.000 L 108.530,8.000 L 108.124,8.000 L 107.718,8.000 L 107.311,8.000 L 106.905,8.000 L 106.499,8.000 L 106.092,8.000 L 105.686,8.000 L 105.280,8.000 L 104.873,8.000 L 104.467,8.000 L 104.061,8.000 L 103.654,8.000 L 103.248,8.000 L 102.842,8.000 L 102.435,8.000 L 102.029,8.000 L 101.623,8.000 L 101.217,8.000 L 100.810,8.000 L 100.404,8.000 L 99.998,8.000 L 99.591,8.000 L 99.185,8.000 L 98.779,8.000 L 98.372,8.000 L 97.966,8.000 L 97.560,8.000 L 97.153,8.000 L 96.747,8.000 L 96.341,8.000 L 95.934,8.000 L 95.528,8.000 L 95.122,8.000 L 94.715,8.000 L 94.309,8.000 L 93.903,8.000 L 93.496,8.000 L 93.090,8.000 L 92.684,8.000 L 92.277,8.000 L 91.871,8.000 L 91.465,8.000 L 91.059,8.000 L 90.652,8.000 L 90.246,8.000 L 89.840,8.000 L 89.433,8.000 L 89.027,8.000 L 88.621,8.000 L 88.214,8.000 L 87.808,8.000 L 87.402,8.000 L 86.995,8.000 L 86.589,8.000 L 86.183,8.000 L 85.776,8.000 L 85.370,8.000 L 84.964,8.000 L 84.557,8.000 L 84.151,8.000 L 84.151,8.000 L 83.749,8.035 L 83.346,8.070 L 82.944,8.105 L 82.541,8.140 L 82.139,8.176 L 81.736,8.211 L 81.334,8.246 L 80.931,8.281 L 80.529,8.316 L 80.127,8.351 L 79.724,8.386 L 79.322,8.421 L 78.919,8.456 L 78.517,8.491 L 78.114,8.527 L 77.712,8.562 L 77.309,8.597 L 76.907,8.632 L 76.504,8.667 L 76.102,8.702 L 75.700,8.737 L 75.297,8.772 L 74.895,8.807 L 74.492,8.842 L 74.090,8.878 L 73.687,8.913 L 73.285,8.948 L 72.882,8.983 L 72.480,9.018 L 72.077,9.053 L 71.675,9.088 L 71.273,9.123 L 70.870,9.158 L 70.468,9.193 L 70.065,9.229 L 69.663,9.264 L 69.260,9.299 L 68.858,9.334 L 68.455,9.369 L 68.053,9.404 L 67.650,9.439 L 67.248,9.474 L 66.845,9.509 L 66.443,9.545 L 66.041,9.580 L 65.638,9.615 L 65.236,9.650 L 64.833,9.685 L 64.431,9.720 L 64.028,9.755 L 63.626,9.790 L 63.223,9.825 L 62.821,9.860 L 62.418,9.896 L 62.016,9.931 L 61.614,9.966 L 61.211,10.001 L 60.809,10.036 L 60.406,10.071 L 60.004,10.106 L 59.601,10.141 L 59.199,10.176 L 58.796,10.211 L 58.394,10.247 L 57.991,10.282 L 57.589,10.317 L 57.187,10.352 L 56.784,10.387 L 56.382,10.422 L 55.979,10.457 L 55.577,10.492 L 55.174,10.527 L 54.772,10.562 L 54.369,10.598 L 53.967,10.633 L 53.564,10.668 L 53.162,10.703 L 52.760,10.738 L 52.357,10.773 L 51.955,10.808 L 51.552,10.843 L 51.150,10.878 L 50.747,10.914 L 50.345,10.949 L 49.942,10.984 L 49.540,11.019 L 49.137,11.054 L 48.735,11.089 L 48.333,11.124 L 47.930,11.159 L 47.528,11.194 L 47.125,11.229 L 46.723,11.265 L 46.320,11.300 L 45.918,11.335 L 45.515,11.370 L 45.113,11.405 L 44.710,11.440 L 44.308,11.475 L 43.905,11.510 L 43.503,11.545 L 43.101,11.580 L 42.698,11.616 L 42.296,11.651 L 41.893,11.686 L 41.491,11.721 L 41.088,11.756 L 40.686,11.791 L 40.283,11.826 L 39.881,11.861 L 39.478,11.896 L 39.076,11.931 L 38.674,11.967 L 38.271,12.002 L 37.869,12.037 L 37.466,12.072 L 37.064,12.107 L 36.661,12.142 L 36.259,12.177 L 35.856,12.212 L 35.454,12.247 L 35.051,12.283 L 34.649,12.318 L 34.247,12.353 L 33.844,12.388 L 33.442,12.423 L 33.039,12.458 L 32.637,12.493 L 32.234,12.528 L 31.832,12.563 L 31.429,12.598 L 31.027,12.634 L 30.624,12.669 L 30.222,12.704 L 29.820,12.739 L 29.417,12.774 L 29.015,12.809 L 28.612,12.844 L 28.210,12.879 L 27.807,12.914 L 27.405,12.949 L 27.002,12.985 L 26.600,13.020 L 26.197,13.055 L 25.795,13.090 L 25.393,13.125 L 24.990,13.160 L 24.588,13.195 L 24.185,13.230 L 23.783,13.265 L 23.380,13.300 L 22.978,13.336 L 22.575,13.371 L 22.173,13.406 L 21.770,13.441 L 21.368,13.476 L 20.965,13.511 L 20.563,13.546 L 20.161,13.581 L 19.758,13.616 L 19.356,13.652 L 18.953,13.687 L 18.551,13.722 L 18.148,13.757 L 17.746,13.792 L 17.343,13.827 L 16.941,13.862 L 16.538,13.897 L 16.136,13.932 L 15.734,13.967 L 15.331,14.003 L 14.929,14.038 L 14.526,14.073 L 14.124,14.108 L 13.721,14.143 L 13.319,14.178 L 12.916,14.213 L 12.514,14.248 L 12.111,14.283 L 11.709,14.318 L 11.307,14.354 L 10.904,14.389 L 10.502,14.424 L 10.502,14.424 L 10.191,14.778 L 9.881,15.133 L 9.570,15.487 L 9.260,15.842 L 8.949,16.196 L 8.639,16.551 L 8.328,16.905 L 8.018,17.260 L 8.018,17.260 L 8.027,17.662 L 8.037,18.065 L 8.046,18.468 L 8.056,18.870 L 8.065,19.273 L 8.075,19.676 L 8.084,20.078 L 8.094,20.481 L 8.103,20.883 L 8.113,21.286 L 8.122,21.689 L 8.132,22.091 L 8.141,22.494 L 8.151,22.897 L 8.160,23.299 L 8.170,23.702 L 8.179,24.105 L 8.189,24.507 L 8.198,24.910 L 8.208,25.313 L 8.217,25.715 L 8.227,26.118 L 8.236,26.520 L 8.246,26.923 L 8.255,27.326 L 8.265,27.728 L 8.274,28.131 L 8.283,28.534 L 8.293,28.936 L 8.302,29.339 L 8.312,29.742 L 8.321,30.144 L 8.331,30.547 L 8.340,30.950 L 8.350,31.352 L 8.359,31.755 L 8.369,32.157 L 8.378,32.560 L 8.388,32.963 L 8.397,33.365 L 8.407,33.768 L 8.416,34.171 L 8.426,34.573 L 8.435,34.976 L 8.445,35.379 L 8.454,35.781 L 8.464,36.184 L 8.473,36.587 L 8.483,36.989 L 8.492,37.392 L 8.502,37.794 L 8.511,38.197 L 8.521,38.600 L 8.530,39.002 L 8.540,39.405 L 8.549,39.808 L 8.559,40.210 L 8.568,40.613 L 8.578,41.016 L 8.587,41.418 L 8.597,41.821 L 8.606,42.223 L 8.616,42.626 L 8.625,43.029 L 8.635,43.431 L 8.644,43.834 L 8.654,44.237 L 8.663,44.639 L 8.673,45.042 L 8.682,45.445 L 8.692,45.847 L 8.701,46.250 L 8.711,46.653 L 8.720,47.055 L 8.730,47.458 L 8.739,47.860 L 8.749,48.263 L 8.758,48.666 L 8.767,49.068 L 8.777,49.471 L 8.786,49.874 L 8.796,50.276 L 8.805,50.679 L 8.815,51.082 L 8.824,51.484 L 8.834,51.887 L 8.843,52.290 L 8.853,52.692 L 8.862,53.095 L 8.872,53.497 L 8.881,53.900 L 8.891,54.303 L 8.900,54.705 L 8.910,55.108 L 8.919,55.511 L 8.929,55.913 L 8.938,56.316 L 8.948,56.719 L 8.957,57.121 L 8.967,57.524 L 8.976,57.927 L 8.986,58.329 L 8.995,58.732 L 9.005,59.134 L 9.014,59.537 L 9.024,59.940 L 9.033,60.342 L 9.043,60.745 L 9.052,61.148 L 9.062,61.550 L 9.071,61.953 L 9.081,62.356 L 9.090,62.758 L 9.100,63.161 L 9.109,63.564 L 9.119,63.966 L 9.128,64.369 L 9.138,64.771 L 9.147,65.174 L 9.157,65.577 L 9.166,65.979 L 9.176,66.382 L 9.185,66.785 L 9.195,67.187 L 9.204,67.590 L 9.214,67.993 L 9.223,68.395 L 9.233,68.798 L 9.242,69.200 L 9.251,69.603 L 9.261,70.006 L 9.270,70.408 L 9.280,70.811 L 9.289,71.214 L 9.299,71.616 L 9.308,72.019 L 9.318,72.422 L 9.327,72.824 L 9.337,73.227 L 9.346,73.630 L 9.356,74.032 L 9.365,74.435 L 9.375,74.837 L 9.384,75.240 L 9.394,75.643 L 9.403,76.045 L 9.413,76.448 L 9.422,76.851 L 9.432,77.253 L 9.441,77.656 L 9.451,78.059 L 9.460,78.461 L 9.470,78.864 L 9.479,79.267 L 9.489,79.669 L 9.498,80.072 L 9.508,80.474 L 9.517,80.877 L 9.527,81.280 L 9.536,81.682 L 9.546,82.085 L 9.555,82.488 L 9.565,82.890 L 9.574,83.293 L 9.584,83.696 L 9.593,84.098 L 9.603,84.501 L 9.612,84.904 L 9.622,85.306 L 9.631,85.709 L 9.641,86.111 L 9.650,86.514 L 9.660,86.917 L 9.669,87.319 L 9.679,87.722 L 9.688,88.125 L 9.698,88.527 L 9.707,88.930 L 9.717,89.333 L 9.726,89.735 L 9.736,90.138 L 9.745,90.541 L 9.754,90.943 L 9.764,91.346 L 9.773,91.748 L 9.783,92.151 L 9.792,92.554 L 9.802,92.956 L 9.811,93.359 L 9.821,93.762 L 9.830,94.164 L 9.840,94.567 L 9.849,94.970 L 9.859,95.372 L 9.868,95.775 L 9.878,96.177 L 9.887,96.580 L 9.897,96.983 L 9.906,97.385 L 9.916,97.788 L 9.925,98.191 L 9.935,98.593 L 9.944,98.996 L 9.954,99.399 L 9.963,99.801 L 9.973,100.204 L 9.982,100.607 L 9.992,101.009 L 10.001,101.412 L 10.011,101.814 L 10.020,102.217 L 10.030,102.620 L 10.039,103.022 L 10.039,103.022 L 10.210,103.982 L 10.210,103.982 L 10.342,104.371 L 10.475,104.759 L 10.607,105.148 L 10.739,105.537 L 10.871,105.925 L 11.004,106.314 L 11.136,106.702 L 11.268,107.091 L 11.400,107.479 L 11.532,107.868 L 11.665,108.256 L 11.797,108.645 L 11.929,109.034 L 12.061,109.422 L 12.194,109.811 L 12.326,110.199 L 12.458,110.588 L 12.590,110.976 L 12.722,111.365 L 12.855,111.754 L 12.987,112.142 L 13.119,112.531 L 13.251,112.919 L 13.384,113.308 L 13.516,113.696 L 13.648,114.085 L 13.780,114.474 L 13.912,114.862 L 14.045,115.251 L 14.177,115.639 L 14.309,116.028 L 14.441,116.416 L 14.574,116.805 L 14.706,117.194 L 14.838,117.582 L 14.970,117.971 L 15.102,118.359 L 15.235,118.748 L 15.367,119.136 L 15.499,119.525 L 15.631,119.914 L 15.764,120.302 L 15.896,120.691 L 16.028,121.079 L 16.160,121.468 L 16.292,121.856 L 16.425,122.245 L 16.557,122.634 L 16.557,122.634 L 16.973,123.290 L 17.389,123.946 L 17.389,123.946 L 17.770,124.316 L 18.151,124.686 L 18.532,125.056 L 18.913,125.426 L 19.294,125.797 L 19.294,125.797 L 19.780,126.028 L 20.265,126.259 L 20.751,126.491 L 21.237,126.722 L 21.237,126.722 L 21.635,126.769 L 22.034,126.816 L 22.433,126.862 L 22.831,126.909 L 23.230,126.956 L 23.629,127.003 L 24.027,127.049 L 24.426,127.096 L 24.825,127.143 L 25.223,127.190 L 25.622,127.237 L 26.020,127.283 L 26.419,127.330 L 26.818,127.377 L 27.216,127.424 L 27.615,127.470 L 28.014,127.517 L 28.412,127.564 L 28.811,127.611 L 29.210,127.657 L 29.608,127.704 L 30.007,127.751 L 30.405,127.798 L 30.804,127.844 L 31.203,127.891 L 31.601,127.938 L 32.000,127.985 L 32.399,128.032 L 32.797,128.078 L 33.196,128.125 L 33.594,128.172 L 33.993,128.219 L 34.392,128.265 L 34.790,128.312 L 35.189,128.359 L 35.588,128.406 L 35.986,128.452 L 36.385,128.499 L 36.784,128.546 L 37.182,128.593 L 37.581,128.639 L 37.979,128.686 L 38.378,128.733 L 38.777,128.780 L 39.175,128.826 L 39.574,128.873 L 39.973,128.920 L 40.371,128.967 L 40.770,129.014 L 41.169,129.060 L 41.567,129.107 L 41.966,129.154 L 42.364,129.201 L 42.763,129.247 L 43.162,129.294 L 43.560,129.341 L 43.959,129.388 L 44.358,129.434 L 44.756,129.481 L 45.155,129.528 L 45.554,129.575 L 45.952,129.621 L 46.351,129.668 L 46.749,129.715 L 47.148,129.762 L 47.547,129.808 L 47.945,129.855 L 48.344,129.902 L 48.743,129.949 L 49.141,129.996 L 49.540,130.042 L 49.939,130.089 L 50.337,130.136 L 50.736,130.183 L 51.134,130.229 L 51.533,130.276 L 51.932,130.323 L 52.330,130.370 L 52.729,130.416 L 53.128,130.463 L 53.526,130.510 L 53.925,130.557 L 54.324,130.603 L 54.722,130.650 L 55.121,130.697 L 55.519,130.744 L 55.918,130.790 L 56.317,130.837 L 56.715,130.884 L 57.114,130.931 L 57.513,130.978 L 57.911,131.024 L 58.310,131.071 L 58.709,131.118 L 59.107,131.165 L 59.506,131.211 L 59.904,131.258 L 60.303,131.305 L 60.702,131.352 L 61.100,131.398 L 61.499,131.445 L 61.898,131.492 L 62.296,131.539 L 62.695,131.585 L 63.094,131.632 L 63.492,131.679 L 63.891,131.726 L 64.289,131.772 L 64.688,131.819 L 65.087,131.866 L 65.485,131.913 L 65.884,131.960 L 66.283,132.006 L 66.681,132.053 L 67.080,132.100 L 67.479,132.147 L 67.877,132.193 L 68.276,132.240 L 68.674,132.287 L 69.073,132.334 L 69.472,132.380 L 69.870,132.427 L 70.269,132.474 L 70.668,132.521 L 71.066,132.567 L 71.465,132.614 L 71.864,132.661 L 72.262,132.708 L 72.661,132.754 L 73.059,132.801 L 73.458,132.848 L 73.857,132.895 L 74.255,132.942 L 74.654,132.988 L 75.053,133.035 L 75.451,133.082 L 75.850,133.129 L 76.249,133.175 L 76.647,133.222 L 77.046,133.269 L 77.444,133.316 L 77.843,133.362 L 78.242,133.409 L 78.640,133.456 L 79.039,133.503 L 79.438,133.549 L 79.836,133.596 L 80.235,133.643 L 80.634,133.690 L 81.032,133.736 L 81.431,133.783 L 81.829,133.830 L 82.228,133.877 L 82.627,133.924 L 83.025,133.970 L 83.424,134.017 L 83.823,134.064 L 84.221,134.111 L 84.620,134.157 L 85.019,134.204 L 85.417,134.251 L 85.816,134.298 L 86.214,134.344 L 86.613,134.391 L 87.012,134.438 L 87.410,134.485 L 87.809,134.531 L 88.208,134.578 L 88.606,134.625 L 89.005,134.672 L 89.404,134.718 L 89.802,134.765 L 90.201,134.812 L 90.599,134.859 L 90.998,134.906 L 91.397,134.952 L 91.795,134.999 L 92.194,135.046 L 92.593,135.093 L 92.991,135.139 L 93.390,135.186 L 93.789,135.233 L 94.187,135.280 L 94.586,135.326 L 94.984,135.373 L 95.383,135.420 L 95.782,135.467 L 96.180,135.513 L 96.579,135.560 L 96.978,135.607 L 97.376,135.654 L 97.775,135.700 L 98.173,135.747 L 98.572,135.794 L 98.971,135.841 L 99.369,135.888 L 99.768,135.934 L 100.167,135.981 L 100.565,136.028 L 100.964,136.075 L 101.363,136.121 L 101.761,136.168 L 102.160,136.215 L 102.558,136.262 L 102.957,136.308 L 103.356,136.355 L 103.754,136.402 L 104.153,136.449 L 104.552,136.495 L 104.950,136.542 L 105.349,136.589 L 105.748,136.636 L 106.146,136.682 L 106.545,136.729 L 106.943,136.776 L 107.342,136.823 L 107.741,136.870 L 108.139,136.916 L 108.538,136.963 L 108.937,137.010 L 109.335,137.057 L 109.734,137.103 L 110.133,137.150 L 110.531,137.197 L 110.930,137.244 L 111.328,137.290 L 111.727,137.337 L 112.126,137.384 L 112.524,137.431 L 112.923,137.477 L 113.322,137.524 L 113.720,137.571 L 114.119,137.618 L 114.518,137.664 L 114.916,137.711 L 115.315,137.758 L 115.713,137.805 L 116.112,137.852 L 116.511,137.898 L 116.909,137.945 L 117.308,137.992 L 117.707,138.039 L 118.105,138.085 L 118.504,138.132 L 118.903,138.179 L 119.301,138.226 L 119.700,138.272 L 120.098,138.319 L 120.497,138.366 L 120.896,138.413 L 121.294,138.459 L 121.693,138.506 L 122.092,138.553 L 122.490,138.600 L 122.889,138.646 L 123.288,138.693 L 123.686,138.740 L 124.085,138.787 L 124.483,138.834 L 124.882,138.880 L 125.281,138.927 L 125.679,138.974 L 126.078,139.021 L 126.477,139.067 L 126.875,139.114 L 127.274,139.161 L 127.673,139.208 L 128.071,139.254 L 128.470,139.301 L 128.868,139.348 L 129.267,139.395 L 129.666,139.441 L 130.064,139.488 L 130.463,139.535 L 130.862,139.582 L 131.260,139.628 L 131.659,139.675 L 132.058,139.722 L 132.456,139.769 L 132.855,139.816 L 133.253,139.862 L 133.652,139.909 L 134.051,139.956 L 134.449,140.003 L 134.848,140.049 L 135.247,140.096 L 135.645,140.143 L 136.044,140.190 L 136.443,140.236 L 136.841,140.283 L 137.240,140.330 L 137.638,140.377 L 138.037,140.423 L 138.436,140.470 L 138.834,140.517 L 139.233,140.564 L 139.632,140.611 L 140.030,140.657 L 140.429,140.704 L 140.828,140.751 L 141.226,140.798 L 141.625,140.844 L 142.023,140.891 L 142.422,140.938 L 142.821,140.985 L 143.219,141.031 L 143.618,141.078 L 144.017,141.125 L 144.415,141.172 L 144.814,141.218 L 145.213,141.265 L 145.611,141.312 L 146.010,141.359 L 146.408,141.405 L 146.807,141.452 L 147.206,141.499 L 147.604,141.546 L 148.003,141.593 L 148.402,141.639 L 148.800,141.686 L 149.199,141.733 L 149.598,141.780 L 149.996,141.826 L 150.395,141.873 L 150.793,141.920 L 151.192,141.967 L 151.591,142.013 L 151.989,142.060 L 152.388,142.107 L 152.787,142.154 L 153.185,142.200 L 153.584,142.247 L 153.983,142.294 L 154.381,142.341 L 154.780,142.387 L 155.178,142.434 L 155.577,142.481 L 155.976,142.528 L 156.374,142.575 L 156.773,142.621 L 157.172,142.668 L 157.570,142.715 L 157.969,142.762 L 158.367,142.808 L 158.766,142.855 L 159.165,142.902 L 159.563,142.949 L 159.962,142.995 L 160.361,143.042 L 160.759,143.089 L 161.158,143.136 L 161.557,143.182 L 161.955,143.229 L 162.354,143.276 L 162.752,143.323 L 163.151,143.369 L 163.550,143.416 L 163.948,143.463 L 164.347,143.510 L 164.746,143.557 L 165.144,143.603 L 165.543,143.650 L 165.942,143.697 L 166.340,143.744 L 166.739,143.790 L 167.137,143.837 L 167.536,143.884 L 167.935,143.931 L 168.333,143.977 L 168.732,144.024 L 169.131,144.071 L 169.529,144.118 L 169.928,144.164 L 170.327,144.211 L 170.725,144.258 L 171.124,144.305 L 171.522,144.351 L 171.921,144.398 L 172.320,144.445 L 172.718,144.492 L 173.117,144.539 L 173.516,144.585 L 173.914,144.632 L 174.313,144.679 L 174.712,144.726 L 175.110,144.772 L 175.509,144.819 L 175.907,144.866 L 176.306,144.913 L 176.705,144.959 L 177.103,145.006 L 177.502,145.053 L 177.901,145.100 L 178.299,145.146 L 178.299,145.146 L 178.689,145.169 L 178.689,145.169 L 179.865,145.169 L 179.865,145.169 L 180.611,144.996 L 181.357,144.823 L 181.357,144.823 L 181.722,144.644 L 181.722,144.644 L 182.053,144.286 L 182.384,143.927 L 182.714,143.568 L 183.045,143.209 L 183.376,142.851 L 183.376,142.851 L 183.522,142.474 L 183.668,142.098 L 183.813,141.722 L 183.959,141.345 L 184.105,140.969 L 184.251,140.592 L 184.397,140.216 L 184.543,139.840 L 184.688,139.463 L 184.834,139.087 L 184.980,138.710 L 185.126,138.334 L 185.272,137.958 L 185.417,137.581 L 185.563,137.205 L 185.709,136.828 L 185.855,136.452 L 186.001,136.076 L 186.147,135.699 L 186.292,135.323 L 186.438,134.946 L 186.584,134.570 L 186.730,134.194 L 186.876,133.817 L 187.021,133.441 L 187.167,133.064 L 187.313,132.688 L 187.459,132.312 L 187.605,131.935 L 187.751,131.559 L 187.896,131.183 L 188.042,130.806 L 188.188,130.430 L 188.334,130.053 L 188.480,129.677 L 188.625,129.301 L 188.771,128.924 L 188.917,128.548 L 189.063,128.171 L 189.209,127.795 L 189.355,127.419 L 189.500,127.042 L 189.646,126.666 L 189.792,126.289 L 189.938,125.913 L 190.084,125.537 L 190.229,125.160 L 190.375,124.784 L 190.521,124.407 L 190.667,124.031 L 190.813,123.655 L 190.959,123.278 L 191.104,122.902 L 191.250,122.525 L 191.396,122.149 L 191.542,121.773 L 191.688,121.396 L 191.833,121.020 L 191.979,120.643 L 192.125,120.267 L 192.271,119.891 L 192.417,119.514 L 192.563,119.138 L 192.708,118.761 L 192.854,118.385 L 193.000,118.009 L 193.146,117.632 L 193.292,117.256 L 193.438,116.880 L 193.583,116.503 L 193.729,116.127 L 193.875,115.750 L 194.021,115.374 L 194.167,114.998 L 194.312,114.621 L 194.458,114.245 L 194.604,113.868 L 194.750,113.492 L 194.896,113.116 L 195.042,112.739 L 195.187,112.363 L 195.333,111.986 L 195.479,111.610 L 195.625,111.234 L 195.771,110.857 L 195.916,110.481 L 196.062,110.104 L 196.208,109.728 L 196.354,109.352 L 196.500,108.975 L 196.646,108.599 L 196.791,108.222 L 196.937,107.846 L 197.083,107.470 L 197.229,107.093 L 197.375,106.717 L 197.520,106.340 L 197.666,105.964 L 197.812,105.588 L 197.958,105.211 L 198.104,104.835 L 198.250,104.458 L 198.395,104.082 L 198.541,103.706 L 198.687,103.329 L 198.833,102.953 L 198.979,102.576 L 199.124,102.200 L 199.270,101.824 L 199.416,101.447 L 199.562,101.071 L 199.708,100.695 L 199.854,100.318 L 199.999,99.942 L 200.145,99.565 L 200.291,99.189 L 200.437,98.813 L 200.583,98.436 L 200.583,98.436 L 200.687,98.119 L 200.687,98.119 L 200.813,97.658 L 200.939,97.197 L 201.066,96.736 L 201.192,96.276 L 201.318,95.815 L 201.444,95.354 L 201.570,94.893 L 201.696,94.432 L 201.696,94.432 L 201.809,93.662 Z" stroke="#0066ff" stroke-dasharray="2,1.5"/>
</g>
<!-- 4x M2 screw holes: 2.2mm clearance circles + exact centres -->
<g stroke="#ff0000" stroke-width="0.25" fill="none">
<circle cx="198.814" cy="15.687" r="1.100"/>
<line x1="197.214" y1="15.687" x2="200.414" y2="15.687"/>
<line x1="198.814" y1="14.087" x2="198.814" y2="17.287"/>
<circle cx="11.814" cy="17.687" r="1.100"/>
<line x1="10.214" y1="17.687" x2="13.414" y2="17.687"/>
<line x1="11.814" y1="16.087" x2="11.814" y2="19.287"/>
<circle cx="199.314" cy="95.687" r="1.100"/>
<line x1="197.714" y1="95.687" x2="200.914" y2="95.687"/>
<line x1="199.314" y1="94.087" x2="199.314" y2="97.287"/>
<circle cx="11.814" cy="101.687" r="1.100"/>
<line x1="10.214" y1="101.687" x2="13.414" y2="101.687"/>
<line x1="11.814" y1="100.087" x2="11.814" y2="103.287"/>
</g>
</svg>