%FSLAX45Y45*%
G04 Gerber Fmt 4.5, Leading zero omitted, Abs format (unit mm)*
G04 Created by KiCad (PCBNEW (5.1.9)-1) date 2021-12-09 10:38:02*
%MOMM*%
%LPD*%
G01*
G04 APERTURE LIST*
%TA.AperFunction,Profile*%
%ADD10C,0.050000*%
%TD*%
%ADD11C,0.200000*%
%ADD12C,0.300000*%
G04 APERTURE END LIST*
D10*
X8888730Y-6485890D02*
X8799830Y-6396990D01*
X8888730Y-6485890D02*
G75*
G02*
X8888730Y-6536690I-25400J-25400D01*
G01*
X8888730Y-6536690D02*
X8799830Y-6625590D01*
X8799830Y-4422140D02*
X8799830Y-6396990D01*
X8799830Y-6625590D02*
X8799830Y-16328390D01*
X9276080Y-4422140D02*
X9276080Y-6396990D01*
X9187180Y-6536690D02*
X9276080Y-6625590D01*
X9187180Y-6536690D02*
G75*
G02*
X9187180Y-6485890I25400J25400D01*
G01*
X9187180Y-6485890D02*
X9276080Y-6396990D01*
X9276080Y-6625590D02*
X9276080Y-16328390D01*
X9276080Y-16328390D02*
X8799830Y-16328390D01*
X9276080Y-4422140D02*
X8799830Y-4422140D01*
D11*
D12*
X9083758Y-16796604D02*
X9083758Y-16496604D01*
X9155187Y-16496604D01*
X9198044Y-16510890D01*
X9226616Y-16539461D01*
X9240901Y-16568033D01*
X9255187Y-16625176D01*
X9255187Y-16668033D01*
X9240901Y-16725176D01*
X9226616Y-16753747D01*
X9198044Y-16782319D01*
X9155187Y-16796604D01*
X9083758Y-16796604D01*
X9383758Y-16796604D02*
X9383758Y-16596604D01*
X9383758Y-16653747D02*
X9398044Y-16625176D01*
X9412330Y-16610890D01*
X9440901Y-16596604D01*
X9469473Y-16596604D01*
X9569473Y-16796604D02*
X9569473Y-16596604D01*
X9569473Y-16496604D02*
X9555187Y-16510890D01*
X9569473Y-16525176D01*
X9583758Y-16510890D01*
X9569473Y-16496604D01*
X9569473Y-16525176D01*
X9755187Y-16796604D02*
X9726616Y-16782319D01*
X9712330Y-16753747D01*
X9712330Y-16496604D01*
X9912330Y-16796604D02*
X9883758Y-16782319D01*
X9869473Y-16753747D01*
X9869473Y-16496604D01*
X10255187Y-16796604D02*
X10255187Y-16496604D01*
X10355187Y-16710890D01*
X10455187Y-16496604D01*
X10455187Y-16796604D01*
X10726616Y-16796604D02*
X10726616Y-16639461D01*
X10712330Y-16610890D01*
X10683758Y-16596604D01*
X10626616Y-16596604D01*
X10598044Y-16610890D01*
X10726616Y-16782319D02*
X10698044Y-16796604D01*
X10626616Y-16796604D01*
X10598044Y-16782319D01*
X10583758Y-16753747D01*
X10583758Y-16725176D01*
X10598044Y-16696604D01*
X10626616Y-16682319D01*
X10698044Y-16682319D01*
X10726616Y-16668033D01*
X10869473Y-16596604D02*
X10869473Y-16896604D01*
X10869473Y-16610890D02*
X10898044Y-16596604D01*
X10955187Y-16596604D01*
X10983758Y-16610890D01*
X10998044Y-16625176D01*
X11012330Y-16653747D01*
X11012330Y-16739461D01*
X10998044Y-16768033D01*
X10983758Y-16782319D01*
X10955187Y-16796604D01*
X10898044Y-16796604D01*
X10869473Y-16782319D01*
X11140901Y-16768033D02*
X11155187Y-16782319D01*
X11140901Y-16796604D01*
X11126616Y-16782319D01*
X11140901Y-16768033D01*
X11140901Y-16796604D01*
X11140901Y-16610890D02*
X11155187Y-16625176D01*
X11140901Y-16639461D01*
X11126616Y-16625176D01*
X11140901Y-16610890D01*
X11140901Y-16639461D01*
M02*
