%TF.GenerationSoftware,KiCad,Pcbnew,(5.1.9)-1*%
%TF.CreationDate,2021-12-09T10:38:09+01:00*%
%TF.ProjectId,QuaterConnector,51756174-6572-4436-9f6e-6e6563746f72,rev?*%
%TF.SameCoordinates,Original*%
%TF.FileFunction,Legend,Top*%
%TF.FilePolarity,Positive*%
%FSLAX46Y46*%
G04 Gerber Fmt 4.6, Leading zero omitted, Abs format (unit mm)*
G04 Created by KiCad (PCBNEW (5.1.9)-1) date 2021-12-09 10:38:09*
%MOMM*%
%LPD*%
G01*
G04 APERTURE LIST*
%ADD10C,0.150000*%
%ADD11R,2.000000X1.500000*%
G04 APERTURE END LIST*
%TO.C,REF\u002A\u002A*%
D10*
X91441280Y-136042233D02*
X90965090Y-136375566D01*
X91441280Y-136613661D02*
X90441280Y-136613661D01*
X90441280Y-136232709D01*
X90488900Y-136137471D01*
X90536519Y-136089852D01*
X90631757Y-136042233D01*
X90774614Y-136042233D01*
X90869852Y-136089852D01*
X90917471Y-136137471D01*
X90965090Y-136232709D01*
X90965090Y-136613661D01*
X90917471Y-135613661D02*
X90917471Y-135280328D01*
X91441280Y-135137471D02*
X91441280Y-135613661D01*
X90441280Y-135613661D01*
X90441280Y-135137471D01*
X90917471Y-134375566D02*
X90917471Y-134708900D01*
X91441280Y-134708900D02*
X90441280Y-134708900D01*
X90441280Y-134232709D01*
X90441280Y-133708900D02*
X90679376Y-133708900D01*
X90584138Y-133946995D02*
X90679376Y-133708900D01*
X90584138Y-133470804D01*
X90869852Y-133851757D02*
X90679376Y-133708900D01*
X90869852Y-133566042D01*
X90441280Y-132946995D02*
X90679376Y-132946995D01*
X90584138Y-133185090D02*
X90679376Y-132946995D01*
X90584138Y-132708900D01*
X90869852Y-133089852D02*
X90679376Y-132946995D01*
X90869852Y-132804138D01*
X94222580Y-155092233D02*
X93746390Y-155425566D01*
X94222580Y-155663661D02*
X93222580Y-155663661D01*
X93222580Y-155282709D01*
X93270200Y-155187471D01*
X93317819Y-155139852D01*
X93413057Y-155092233D01*
X93555914Y-155092233D01*
X93651152Y-155139852D01*
X93698771Y-155187471D01*
X93746390Y-155282709D01*
X93746390Y-155663661D01*
X93698771Y-154663661D02*
X93698771Y-154330328D01*
X94222580Y-154187471D02*
X94222580Y-154663661D01*
X93222580Y-154663661D01*
X93222580Y-154187471D01*
X93698771Y-153425566D02*
X93698771Y-153758900D01*
X94222580Y-153758900D02*
X93222580Y-153758900D01*
X93222580Y-153282709D01*
X93222580Y-152758900D02*
X93460676Y-152758900D01*
X93365438Y-152996995D02*
X93460676Y-152758900D01*
X93365438Y-152520804D01*
X93651152Y-152901757D02*
X93460676Y-152758900D01*
X93651152Y-152616042D01*
X93222580Y-151996995D02*
X93460676Y-151996995D01*
X93365438Y-152235090D02*
X93460676Y-151996995D01*
X93365438Y-151758900D01*
X93651152Y-152139852D02*
X93460676Y-151996995D01*
X93651152Y-151854138D01*
X91441280Y-155092233D02*
X90965090Y-155425566D01*
X91441280Y-155663661D02*
X90441280Y-155663661D01*
X90441280Y-155282709D01*
X90488900Y-155187471D01*
X90536519Y-155139852D01*
X90631757Y-155092233D01*
X90774614Y-155092233D01*
X90869852Y-155139852D01*
X90917471Y-155187471D01*
X90965090Y-155282709D01*
X90965090Y-155663661D01*
X90917471Y-154663661D02*
X90917471Y-154330328D01*
X91441280Y-154187471D02*
X91441280Y-154663661D01*
X90441280Y-154663661D01*
X90441280Y-154187471D01*
X90917471Y-153425566D02*
X90917471Y-153758900D01*
X91441280Y-153758900D02*
X90441280Y-153758900D01*
X90441280Y-153282709D01*
X90441280Y-152758900D02*
X90679376Y-152758900D01*
X90584138Y-152996995D02*
X90679376Y-152758900D01*
X90584138Y-152520804D01*
X90869852Y-152901757D02*
X90679376Y-152758900D01*
X90869852Y-152616042D01*
X90441280Y-151996995D02*
X90679376Y-151996995D01*
X90584138Y-152235090D02*
X90679376Y-151996995D01*
X90584138Y-151758900D01*
X90869852Y-152139852D02*
X90679376Y-151996995D01*
X90869852Y-151854138D01*
X91441280Y-55079733D02*
X90965090Y-55413066D01*
X91441280Y-55651161D02*
X90441280Y-55651161D01*
X90441280Y-55270209D01*
X90488900Y-55174971D01*
X90536519Y-55127352D01*
X90631757Y-55079733D01*
X90774614Y-55079733D01*
X90869852Y-55127352D01*
X90917471Y-55174971D01*
X90965090Y-55270209D01*
X90965090Y-55651161D01*
X90917471Y-54651161D02*
X90917471Y-54317828D01*
X91441280Y-54174971D02*
X91441280Y-54651161D01*
X90441280Y-54651161D01*
X90441280Y-54174971D01*
X90917471Y-53413066D02*
X90917471Y-53746400D01*
X91441280Y-53746400D02*
X90441280Y-53746400D01*
X90441280Y-53270209D01*
X90441280Y-52746400D02*
X90679376Y-52746400D01*
X90584138Y-52984495D02*
X90679376Y-52746400D01*
X90584138Y-52508304D01*
X90869852Y-52889257D02*
X90679376Y-52746400D01*
X90869852Y-52603542D01*
X90441280Y-51984495D02*
X90679376Y-51984495D01*
X90584138Y-52222590D02*
X90679376Y-51984495D01*
X90584138Y-51746400D01*
X90869852Y-52127352D02*
X90679376Y-51984495D01*
X90869852Y-51841638D01*
X91441280Y-78892233D02*
X90965090Y-79225566D01*
X91441280Y-79463661D02*
X90441280Y-79463661D01*
X90441280Y-79082709D01*
X90488900Y-78987471D01*
X90536519Y-78939852D01*
X90631757Y-78892233D01*
X90774614Y-78892233D01*
X90869852Y-78939852D01*
X90917471Y-78987471D01*
X90965090Y-79082709D01*
X90965090Y-79463661D01*
X90917471Y-78463661D02*
X90917471Y-78130328D01*
X91441280Y-77987471D02*
X91441280Y-78463661D01*
X90441280Y-78463661D01*
X90441280Y-77987471D01*
X90917471Y-77225566D02*
X90917471Y-77558900D01*
X91441280Y-77558900D02*
X90441280Y-77558900D01*
X90441280Y-77082709D01*
X90441280Y-76558900D02*
X90679376Y-76558900D01*
X90584138Y-76796995D02*
X90679376Y-76558900D01*
X90584138Y-76320804D01*
X90869852Y-76701757D02*
X90679376Y-76558900D01*
X90869852Y-76416042D01*
X90441280Y-75796995D02*
X90679376Y-75796995D01*
X90584138Y-76035090D02*
X90679376Y-75796995D01*
X90584138Y-75558900D01*
X90869852Y-75939852D02*
X90679376Y-75796995D01*
X90869852Y-75654138D01*
X91441280Y-116992233D02*
X90965090Y-117325566D01*
X91441280Y-117563661D02*
X90441280Y-117563661D01*
X90441280Y-117182709D01*
X90488900Y-117087471D01*
X90536519Y-117039852D01*
X90631757Y-116992233D01*
X90774614Y-116992233D01*
X90869852Y-117039852D01*
X90917471Y-117087471D01*
X90965090Y-117182709D01*
X90965090Y-117563661D01*
X90917471Y-116563661D02*
X90917471Y-116230328D01*
X91441280Y-116087471D02*
X91441280Y-116563661D01*
X90441280Y-116563661D01*
X90441280Y-116087471D01*
X90917471Y-115325566D02*
X90917471Y-115658900D01*
X91441280Y-115658900D02*
X90441280Y-115658900D01*
X90441280Y-115182709D01*
X90441280Y-114658900D02*
X90679376Y-114658900D01*
X90584138Y-114896995D02*
X90679376Y-114658900D01*
X90584138Y-114420804D01*
X90869852Y-114801757D02*
X90679376Y-114658900D01*
X90869852Y-114516042D01*
X90441280Y-113896995D02*
X90679376Y-113896995D01*
X90584138Y-114135090D02*
X90679376Y-113896995D01*
X90584138Y-113658900D01*
X90869852Y-114039852D02*
X90679376Y-113896995D01*
X90869852Y-113754138D01*
X91441280Y-97942233D02*
X90965090Y-98275566D01*
X91441280Y-98513661D02*
X90441280Y-98513661D01*
X90441280Y-98132709D01*
X90488900Y-98037471D01*
X90536519Y-97989852D01*
X90631757Y-97942233D01*
X90774614Y-97942233D01*
X90869852Y-97989852D01*
X90917471Y-98037471D01*
X90965090Y-98132709D01*
X90965090Y-98513661D01*
X90917471Y-97513661D02*
X90917471Y-97180328D01*
X91441280Y-97037471D02*
X91441280Y-97513661D01*
X90441280Y-97513661D01*
X90441280Y-97037471D01*
X90917471Y-96275566D02*
X90917471Y-96608900D01*
X91441280Y-96608900D02*
X90441280Y-96608900D01*
X90441280Y-96132709D01*
X90441280Y-95608900D02*
X90679376Y-95608900D01*
X90584138Y-95846995D02*
X90679376Y-95608900D01*
X90584138Y-95370804D01*
X90869852Y-95751757D02*
X90679376Y-95608900D01*
X90869852Y-95466042D01*
X90441280Y-94846995D02*
X90679376Y-94846995D01*
X90584138Y-95085090D02*
X90679376Y-94846995D01*
X90584138Y-94608900D01*
X90869852Y-94989852D02*
X90679376Y-94846995D01*
X90869852Y-94704138D01*
X94222580Y-136042233D02*
X93746390Y-136375566D01*
X94222580Y-136613661D02*
X93222580Y-136613661D01*
X93222580Y-136232709D01*
X93270200Y-136137471D01*
X93317819Y-136089852D01*
X93413057Y-136042233D01*
X93555914Y-136042233D01*
X93651152Y-136089852D01*
X93698771Y-136137471D01*
X93746390Y-136232709D01*
X93746390Y-136613661D01*
X93698771Y-135613661D02*
X93698771Y-135280328D01*
X94222580Y-135137471D02*
X94222580Y-135613661D01*
X93222580Y-135613661D01*
X93222580Y-135137471D01*
X93698771Y-134375566D02*
X93698771Y-134708900D01*
X94222580Y-134708900D02*
X93222580Y-134708900D01*
X93222580Y-134232709D01*
X93222580Y-133708900D02*
X93460676Y-133708900D01*
X93365438Y-133946995D02*
X93460676Y-133708900D01*
X93365438Y-133470804D01*
X93651152Y-133851757D02*
X93460676Y-133708900D01*
X93651152Y-133566042D01*
X93222580Y-132946995D02*
X93460676Y-132946995D01*
X93365438Y-133185090D02*
X93460676Y-132946995D01*
X93365438Y-132708900D01*
X93651152Y-133089852D02*
X93460676Y-132946995D01*
X93651152Y-132804138D01*
X94222580Y-116992233D02*
X93746390Y-117325566D01*
X94222580Y-117563661D02*
X93222580Y-117563661D01*
X93222580Y-117182709D01*
X93270200Y-117087471D01*
X93317819Y-117039852D01*
X93413057Y-116992233D01*
X93555914Y-116992233D01*
X93651152Y-117039852D01*
X93698771Y-117087471D01*
X93746390Y-117182709D01*
X93746390Y-117563661D01*
X93698771Y-116563661D02*
X93698771Y-116230328D01*
X94222580Y-116087471D02*
X94222580Y-116563661D01*
X93222580Y-116563661D01*
X93222580Y-116087471D01*
X93698771Y-115325566D02*
X93698771Y-115658900D01*
X94222580Y-115658900D02*
X93222580Y-115658900D01*
X93222580Y-115182709D01*
X93222580Y-114658900D02*
X93460676Y-114658900D01*
X93365438Y-114896995D02*
X93460676Y-114658900D01*
X93365438Y-114420804D01*
X93651152Y-114801757D02*
X93460676Y-114658900D01*
X93651152Y-114516042D01*
X93222580Y-113896995D02*
X93460676Y-113896995D01*
X93365438Y-114135090D02*
X93460676Y-113896995D01*
X93365438Y-113658900D01*
X93651152Y-114039852D02*
X93460676Y-113896995D01*
X93651152Y-113754138D01*
X94222580Y-55079733D02*
X93746390Y-55413066D01*
X94222580Y-55651161D02*
X93222580Y-55651161D01*
X93222580Y-55270209D01*
X93270200Y-55174971D01*
X93317819Y-55127352D01*
X93413057Y-55079733D01*
X93555914Y-55079733D01*
X93651152Y-55127352D01*
X93698771Y-55174971D01*
X93746390Y-55270209D01*
X93746390Y-55651161D01*
X93698771Y-54651161D02*
X93698771Y-54317828D01*
X94222580Y-54174971D02*
X94222580Y-54651161D01*
X93222580Y-54651161D01*
X93222580Y-54174971D01*
X93698771Y-53413066D02*
X93698771Y-53746400D01*
X94222580Y-53746400D02*
X93222580Y-53746400D01*
X93222580Y-53270209D01*
X93222580Y-52746400D02*
X93460676Y-52746400D01*
X93365438Y-52984495D02*
X93460676Y-52746400D01*
X93365438Y-52508304D01*
X93651152Y-52889257D02*
X93460676Y-52746400D01*
X93651152Y-52603542D01*
X93222580Y-51984495D02*
X93460676Y-51984495D01*
X93365438Y-52222590D02*
X93460676Y-51984495D01*
X93365438Y-51746400D01*
X93651152Y-52127352D02*
X93460676Y-51984495D01*
X93651152Y-51841638D01*
X94222580Y-97942233D02*
X93746390Y-98275566D01*
X94222580Y-98513661D02*
X93222580Y-98513661D01*
X93222580Y-98132709D01*
X93270200Y-98037471D01*
X93317819Y-97989852D01*
X93413057Y-97942233D01*
X93555914Y-97942233D01*
X93651152Y-97989852D01*
X93698771Y-98037471D01*
X93746390Y-98132709D01*
X93746390Y-98513661D01*
X93698771Y-97513661D02*
X93698771Y-97180328D01*
X94222580Y-97037471D02*
X94222580Y-97513661D01*
X93222580Y-97513661D01*
X93222580Y-97037471D01*
X93698771Y-96275566D02*
X93698771Y-96608900D01*
X94222580Y-96608900D02*
X93222580Y-96608900D01*
X93222580Y-96132709D01*
X93222580Y-95608900D02*
X93460676Y-95608900D01*
X93365438Y-95846995D02*
X93460676Y-95608900D01*
X93365438Y-95370804D01*
X93651152Y-95751757D02*
X93460676Y-95608900D01*
X93651152Y-95466042D01*
X93222580Y-94846995D02*
X93460676Y-94846995D01*
X93365438Y-95085090D02*
X93460676Y-94846995D01*
X93365438Y-94608900D01*
X93651152Y-94989852D02*
X93460676Y-94846995D01*
X93651152Y-94704138D01*
X94222580Y-78892233D02*
X93746390Y-79225566D01*
X94222580Y-79463661D02*
X93222580Y-79463661D01*
X93222580Y-79082709D01*
X93270200Y-78987471D01*
X93317819Y-78939852D01*
X93413057Y-78892233D01*
X93555914Y-78892233D01*
X93651152Y-78939852D01*
X93698771Y-78987471D01*
X93746390Y-79082709D01*
X93746390Y-79463661D01*
X93698771Y-78463661D02*
X93698771Y-78130328D01*
X94222580Y-77987471D02*
X94222580Y-78463661D01*
X93222580Y-78463661D01*
X93222580Y-77987471D01*
X93698771Y-77225566D02*
X93698771Y-77558900D01*
X94222580Y-77558900D02*
X93222580Y-77558900D01*
X93222580Y-77082709D01*
X93222580Y-76558900D02*
X93460676Y-76558900D01*
X93365438Y-76796995D02*
X93460676Y-76558900D01*
X93365438Y-76320804D01*
X93651152Y-76701757D02*
X93460676Y-76558900D01*
X93651152Y-76416042D01*
X93222580Y-75796995D02*
X93460676Y-75796995D01*
X93365438Y-76035090D02*
X93460676Y-75796995D01*
X93365438Y-75558900D01*
X93651152Y-75939852D02*
X93460676Y-75796995D01*
X93651152Y-75654138D01*
%TD*%
%LPC*%
D11*
%TO.C,REF\u002A\u002A*%
X88988900Y-126708900D03*
X88988900Y-128708900D03*
X88988900Y-130708900D03*
X88988900Y-132708900D03*
X88988900Y-134708900D03*
X88988900Y-136708900D03*
X88988900Y-138708900D03*
X88988900Y-140708900D03*
X88988900Y-142708900D03*
%TD*%
%TO.C,REF\u002A\u002A*%
X91770200Y-161758900D03*
X91770200Y-159758900D03*
X91770200Y-157758900D03*
X91770200Y-155758900D03*
X91770200Y-153758900D03*
X91770200Y-151758900D03*
X91770200Y-149758900D03*
X91770200Y-147758900D03*
X91770200Y-145758900D03*
%TD*%
%TO.C,REF\u002A\u002A*%
X88988900Y-145758900D03*
X88988900Y-147758900D03*
X88988900Y-149758900D03*
X88988900Y-151758900D03*
X88988900Y-153758900D03*
X88988900Y-155758900D03*
X88988900Y-157758900D03*
X88988900Y-159758900D03*
X88988900Y-161758900D03*
%TD*%
%TO.C,REF\u002A\u002A*%
X88988900Y-61746400D03*
X88988900Y-59746400D03*
X88988900Y-57746400D03*
X88988900Y-55746400D03*
X88988900Y-53746400D03*
X88988900Y-51746400D03*
X88988900Y-49746400D03*
X88988900Y-47746400D03*
X88988900Y-45746400D03*
%TD*%
%TO.C,REF\u002A\u002A*%
X88988900Y-69558900D03*
X88988900Y-71558900D03*
X88988900Y-73558900D03*
X88988900Y-75558900D03*
X88988900Y-77558900D03*
X88988900Y-79558900D03*
X88988900Y-81558900D03*
X88988900Y-83558900D03*
X88988900Y-85558900D03*
%TD*%
%TO.C,REF\u002A\u002A*%
X88988900Y-107658900D03*
X88988900Y-109658900D03*
X88988900Y-111658900D03*
X88988900Y-113658900D03*
X88988900Y-115658900D03*
X88988900Y-117658900D03*
X88988900Y-119658900D03*
X88988900Y-121658900D03*
X88988900Y-123658900D03*
%TD*%
%TO.C,REF\u002A\u002A*%
X88988900Y-88608900D03*
X88988900Y-90608900D03*
X88988900Y-92608900D03*
X88988900Y-94608900D03*
X88988900Y-96608900D03*
X88988900Y-98608900D03*
X88988900Y-100608900D03*
X88988900Y-102608900D03*
X88988900Y-104608900D03*
%TD*%
%TO.C,REF\u002A\u002A*%
X91770200Y-142708900D03*
X91770200Y-140708900D03*
X91770200Y-138708900D03*
X91770200Y-136708900D03*
X91770200Y-134708900D03*
X91770200Y-132708900D03*
X91770200Y-130708900D03*
X91770200Y-128708900D03*
X91770200Y-126708900D03*
%TD*%
%TO.C,REF\u002A\u002A*%
X91770200Y-123658900D03*
X91770200Y-121658900D03*
X91770200Y-119658900D03*
X91770200Y-117658900D03*
X91770200Y-115658900D03*
X91770200Y-113658900D03*
X91770200Y-111658900D03*
X91770200Y-109658900D03*
X91770200Y-107658900D03*
%TD*%
%TO.C,REF\u002A\u002A*%
X91770200Y-45746400D03*
X91770200Y-47746400D03*
X91770200Y-49746400D03*
X91770200Y-51746400D03*
X91770200Y-53746400D03*
X91770200Y-55746400D03*
X91770200Y-57746400D03*
X91770200Y-59746400D03*
X91770200Y-61746400D03*
%TD*%
%TO.C,REF\u002A\u002A*%
X91770200Y-104608900D03*
X91770200Y-102608900D03*
X91770200Y-100608900D03*
X91770200Y-98608900D03*
X91770200Y-96608900D03*
X91770200Y-94608900D03*
X91770200Y-92608900D03*
X91770200Y-90608900D03*
X91770200Y-88608900D03*
%TD*%
%TO.C,REF\u002A\u002A*%
X91770200Y-85558900D03*
X91770200Y-83558900D03*
X91770200Y-81558900D03*
X91770200Y-79558900D03*
X91770200Y-77558900D03*
X91770200Y-75558900D03*
X91770200Y-73558900D03*
X91770200Y-71558900D03*
X91770200Y-69558900D03*
%TD*%
M02*
