M48
; DRILL file {KiCad (5.1.9)-1} date 09/16/21 12:17:49
; FORMAT={-:-/ absolute / metric / decimal}
; #@! TF.CreationDate,2021-09-16T12:17:49+02:00
; #@! TF.GenerationSoftware,Kicad,Pcbnew,(5.1.9)-1
; #@! TF.FileFunction,Plated,1,2,PTH
FMAT,2
METRIC
T1C0.356
T2C0.400
T3C0.700
T4C1.500
%
G90
G05
T1
X47.766Y-54.557
X47.766Y-75.607
X47.766Y-96.657
X47.766Y-117.707
X47.766Y-138.757
X47.77Y-46.539
X47.77Y-67.589
X47.77Y-88.639
X47.77Y-109.689
X47.77Y-130.739
X47.777Y-49.2
X47.777Y-70.25
X47.777Y-91.3
X47.777Y-112.35
X47.777Y-133.4
X47.777Y-47.954
X47.777Y-69.004
X47.777Y-90.054
X47.777Y-111.104
X47.777Y-132.154
X47.777Y-55.296
X47.777Y-76.346
X47.777Y-97.396
X47.777Y-118.446
X47.777Y-139.496
X47.783Y-56.87
X47.783Y-77.92
X47.783Y-98.97
X47.783Y-120.02
X47.783Y-141.07
X47.867Y-52.248
X47.867Y-73.298
X47.867Y-94.348
X47.867Y-115.398
X47.867Y-136.448
X47.942Y-50.47
X47.942Y-71.52
X47.942Y-92.57
X47.942Y-113.62
X47.942Y-134.67
X47.994Y-44.247
X47.994Y-65.297
X47.994Y-86.347
X47.994Y-107.397
X47.994Y-128.447
X48.394Y-52.883
X48.394Y-73.933
X48.394Y-94.983
X48.394Y-116.033
X48.394Y-137.083
X48.741Y-43.217
X48.741Y-64.267
X48.741Y-85.317
X48.741Y-106.367
X48.741Y-127.417
X49.165Y-49.213
X49.165Y-70.263
X49.165Y-91.313
X49.165Y-112.363
X49.165Y-133.413
X49.293Y-56.331
X49.293Y-77.381
X49.293Y-98.431
X49.293Y-119.481
X49.293Y-140.531
X49.391Y-54.788
X49.391Y-75.838
X49.391Y-96.888
X49.391Y-117.938
X49.391Y-138.988
X49.391Y-47.168
X49.391Y-68.218
X49.391Y-89.268
X49.391Y-110.318
X49.391Y-131.368
X49.534Y-53.123
X49.534Y-74.173
X49.534Y-95.223
X49.534Y-116.273
X49.534Y-137.323
X51.145Y-45.668
X51.145Y-66.718
X51.145Y-87.768
X51.145Y-108.818
X51.145Y-129.868
X51.296Y-49.962
X51.296Y-71.012
X51.296Y-92.062
X51.296Y-113.112
X51.296Y-134.162
X51.55Y-44.959
X51.55Y-66.009
X51.55Y-87.059
X51.55Y-108.109
X51.55Y-129.159
X52.185Y-51.486
X52.185Y-72.536
X52.185Y-93.586
X52.185Y-114.636
X52.185Y-135.686
X52.34Y-42.941
X52.34Y-63.991
X52.34Y-85.041
X52.34Y-106.091
X52.34Y-127.141
X52.82Y-48.438
X52.82Y-69.488
X52.82Y-90.538
X52.82Y-111.588
X52.82Y-132.638
X54.279Y-45.781
X54.279Y-66.831
X54.279Y-87.881
X54.279Y-108.931
X54.279Y-129.981
X54.598Y-43.104
X54.598Y-64.154
X54.598Y-85.204
X54.598Y-106.254
X54.598Y-127.304
X55.105Y-48.515
X55.105Y-69.565
X55.105Y-90.615
X55.105Y-111.665
X55.105Y-132.715
X55.896Y-46.289
X55.896Y-67.339
X55.896Y-88.389
X55.896Y-109.439
X55.896Y-130.489
X57.392Y-53.264
X57.392Y-74.314
X57.392Y-95.364
X57.392Y-116.414
X57.392Y-137.464
X57.9Y-40.945
X57.9Y-61.995
X57.9Y-83.045
X57.9Y-104.095
X57.9Y-125.145
X57.951Y-41.683
X57.951Y-62.733
X57.951Y-83.783
X57.951Y-104.833
X57.951Y-125.883
X58.182Y-52.078
X58.182Y-73.128
X58.182Y-94.178
X58.182Y-115.228
X58.182Y-136.278
X58.966Y-43.914
X58.966Y-64.964
X58.966Y-86.014
X58.966Y-107.064
X58.966Y-128.114
X59.421Y-53.604
X59.421Y-74.654
X59.421Y-95.704
X59.421Y-116.754
X59.421Y-137.804
X61.093Y-47.482
X61.093Y-68.532
X61.093Y-89.582
X61.093Y-110.632
X61.093Y-131.682
X61.223Y-48.21
X61.223Y-69.26
X61.223Y-90.31
X61.223Y-111.36
X61.223Y-132.41
X61.246Y-54.527
X61.246Y-75.577
X61.246Y-96.627
X61.246Y-117.677
X61.246Y-138.727
X61.456Y-56.82
X61.456Y-77.87
X61.456Y-98.92
X61.456Y-119.97
X61.456Y-141.02
X61.523Y-44.493
X61.523Y-46.406
X61.523Y-65.543
X61.523Y-67.456
X61.523Y-86.593
X61.523Y-88.506
X61.523Y-107.643
X61.523Y-109.556
X61.523Y-128.693
X61.523Y-130.606
X61.58Y-53.772
X61.58Y-74.822
X61.58Y-95.872
X61.58Y-116.922
X61.58Y-137.972
X61.741Y-49.329
X61.741Y-70.379
X61.741Y-91.429
X61.741Y-112.479
X61.741Y-133.529
X61.883Y-52.591
X61.883Y-73.641
X61.883Y-94.691
X61.883Y-115.741
X61.883Y-136.791
X68.816Y-54.557
X68.816Y-75.607
X68.816Y-96.657
X68.816Y-117.707
X68.816Y-138.757
X68.82Y-46.539
X68.82Y-67.589
X68.82Y-88.639
X68.82Y-109.689
X68.82Y-130.739
X68.827Y-49.2
X68.827Y-70.25
X68.827Y-91.3
X68.827Y-112.35
X68.827Y-133.4
X68.827Y-47.954
X68.827Y-69.004
X68.827Y-90.054
X68.827Y-111.104
X68.827Y-132.154
X68.827Y-55.296
X68.827Y-76.346
X68.827Y-97.396
X68.827Y-118.446
X68.827Y-139.496
X68.833Y-56.87
X68.833Y-77.92
X68.833Y-98.97
X68.833Y-120.02
X68.833Y-141.07
X68.917Y-52.248
X68.917Y-73.298
X68.917Y-94.348
X68.917Y-115.398
X68.917Y-136.448
X68.992Y-50.47
X68.992Y-71.52
X68.992Y-92.57
X68.992Y-113.62
X68.992Y-134.67
X69.044Y-44.247
X69.044Y-65.297
X69.044Y-86.347
X69.044Y-107.397
X69.044Y-128.447
X69.444Y-52.883
X69.444Y-73.933
X69.444Y-94.983
X69.444Y-116.033
X69.444Y-137.083
X69.791Y-43.217
X69.791Y-64.267
X69.791Y-85.317
X69.791Y-106.367
X69.791Y-127.417
X70.215Y-49.213
X70.215Y-70.263
X70.215Y-91.313
X70.215Y-112.363
X70.215Y-133.413
X70.343Y-56.331
X70.343Y-77.381
X70.343Y-98.431
X70.343Y-119.481
X70.343Y-140.531
X70.441Y-54.788
X70.441Y-75.838
X70.441Y-96.888
X70.441Y-117.938
X70.441Y-138.988
X70.441Y-47.168
X70.441Y-68.218
X70.441Y-89.268
X70.441Y-110.318
X70.441Y-131.368
X70.584Y-53.123
X70.584Y-74.173
X70.584Y-95.223
X70.584Y-116.273
X70.584Y-137.323
X72.195Y-45.668
X72.195Y-66.718
X72.195Y-87.768
X72.195Y-108.818
X72.195Y-129.868
X72.346Y-49.962
X72.346Y-71.012
X72.346Y-92.062
X72.346Y-113.112
X72.346Y-134.162
X72.6Y-44.959
X72.6Y-66.009
X72.6Y-87.059
X72.6Y-108.109
X72.6Y-129.159
X73.235Y-51.486
X73.235Y-72.536
X73.235Y-93.586
X73.235Y-114.636
X73.235Y-135.686
X73.39Y-42.941
X73.39Y-63.991
X73.39Y-85.041
X73.39Y-106.091
X73.39Y-127.141
X73.87Y-48.438
X73.87Y-69.488
X73.87Y-90.538
X73.87Y-111.588
X73.87Y-132.638
X75.329Y-45.781
X75.329Y-66.831
X75.329Y-87.881
X75.329Y-108.931
X75.329Y-129.981
X75.648Y-43.104
X75.648Y-64.154
X75.648Y-85.204
X75.648Y-106.254
X75.648Y-127.304
X76.155Y-48.515
X76.155Y-69.565
X76.155Y-90.615
X76.155Y-111.665
X76.155Y-132.715
X76.946Y-46.289
X76.946Y-67.339
X76.946Y-88.389
X76.946Y-109.439
X76.946Y-130.489
X78.442Y-53.264
X78.442Y-74.314
X78.442Y-95.364
X78.442Y-116.414
X78.442Y-137.464
X78.95Y-40.945
X78.95Y-61.995
X78.95Y-83.045
X78.95Y-104.095
X78.95Y-125.145
X79.001Y-41.683
X79.001Y-62.733
X79.001Y-83.783
X79.001Y-104.833
X79.001Y-125.883
X79.232Y-52.078
X79.232Y-73.128
X79.232Y-94.178
X79.232Y-115.228
X79.232Y-136.278
X80.016Y-43.914
X80.016Y-64.964
X80.016Y-86.014
X80.016Y-107.064
X80.016Y-128.114
X80.471Y-53.604
X80.471Y-74.654
X80.471Y-95.704
X80.471Y-116.754
X80.471Y-137.804
X82.143Y-47.482
X82.143Y-68.532
X82.143Y-89.582
X82.143Y-110.632
X82.143Y-131.682
X82.273Y-48.21
X82.273Y-69.26
X82.273Y-90.31
X82.273Y-111.36
X82.273Y-132.41
X82.296Y-54.527
X82.296Y-75.577
X82.296Y-96.627
X82.296Y-117.677
X82.296Y-138.727
X82.506Y-56.82
X82.506Y-77.87
X82.506Y-98.92
X82.506Y-119.97
X82.506Y-141.02
X82.573Y-44.493
X82.573Y-46.406
X82.573Y-65.543
X82.573Y-67.456
X82.573Y-86.593
X82.573Y-88.506
X82.573Y-107.643
X82.573Y-109.556
X82.573Y-128.693
X82.573Y-130.606
X82.63Y-53.772
X82.63Y-74.822
X82.63Y-95.872
X82.63Y-116.922
X82.63Y-137.972
X82.791Y-49.329
X82.791Y-70.379
X82.791Y-91.429
X82.791Y-112.479
X82.791Y-133.529
X82.933Y-52.591
X82.933Y-73.641
X82.933Y-94.691
X82.933Y-115.741
X82.933Y-136.791
X89.866Y-54.557
X89.866Y-75.607
X89.866Y-96.657
X89.866Y-117.707
X89.866Y-138.757
X89.87Y-46.539
X89.87Y-67.589
X89.87Y-88.639
X89.87Y-109.689
X89.87Y-130.739
X89.877Y-49.2
X89.877Y-70.25
X89.877Y-91.3
X89.877Y-112.35
X89.877Y-133.4
X89.877Y-47.954
X89.877Y-69.004
X89.877Y-90.054
X89.877Y-111.104
X89.877Y-132.154
X89.877Y-55.296
X89.877Y-76.346
X89.877Y-97.396
X89.877Y-118.446
X89.877Y-139.496
X89.883Y-56.87
X89.883Y-77.92
X89.883Y-98.97
X89.883Y-120.02
X89.883Y-141.07
X89.967Y-52.248
X89.967Y-73.298
X89.967Y-94.348
X89.967Y-115.398
X89.967Y-136.448
X90.042Y-50.47
X90.042Y-71.52
X90.042Y-92.57
X90.042Y-113.62
X90.042Y-134.67
X90.094Y-44.247
X90.094Y-65.297
X90.094Y-86.347
X90.094Y-107.397
X90.094Y-128.447
X90.494Y-52.883
X90.494Y-73.933
X90.494Y-94.983
X90.494Y-116.033
X90.494Y-137.083
X90.841Y-43.217
X90.841Y-64.267
X90.841Y-85.317
X90.841Y-106.367
X90.841Y-127.417
X91.265Y-49.213
X91.265Y-70.263
X91.265Y-91.313
X91.265Y-112.363
X91.265Y-133.413
X91.393Y-56.331
X91.393Y-77.381
X91.393Y-98.431
X91.393Y-119.481
X91.393Y-140.531
X91.491Y-54.788
X91.491Y-75.838
X91.491Y-96.888
X91.491Y-117.938
X91.491Y-138.988
X91.491Y-47.168
X91.491Y-68.218
X91.491Y-89.268
X91.491Y-110.318
X91.491Y-131.368
X91.634Y-53.123
X91.634Y-74.173
X91.634Y-95.223
X91.634Y-116.273
X91.634Y-137.323
X93.245Y-45.668
X93.245Y-66.718
X93.245Y-87.768
X93.245Y-108.818
X93.245Y-129.868
X93.396Y-49.962
X93.396Y-71.012
X93.396Y-92.062
X93.396Y-113.112
X93.396Y-134.162
X93.65Y-44.959
X93.65Y-66.009
X93.65Y-87.059
X93.65Y-108.109
X93.65Y-129.159
X94.285Y-51.486
X94.285Y-72.536
X94.285Y-93.586
X94.285Y-114.636
X94.285Y-135.686
X94.44Y-42.941
X94.44Y-63.991
X94.44Y-85.041
X94.44Y-106.091
X94.44Y-127.141
X94.92Y-48.438
X94.92Y-69.488
X94.92Y-90.538
X94.92Y-111.588
X94.92Y-132.638
X96.379Y-45.781
X96.379Y-66.831
X96.379Y-87.881
X96.379Y-108.931
X96.379Y-129.981
X96.698Y-43.104
X96.698Y-64.154
X96.698Y-85.204
X96.698Y-106.254
X96.698Y-127.304
X97.205Y-48.515
X97.205Y-69.565
X97.205Y-90.615
X97.205Y-111.665
X97.205Y-132.715
X97.996Y-46.289
X97.996Y-67.339
X97.996Y-88.389
X97.996Y-109.439
X97.996Y-130.489
X99.492Y-53.264
X99.492Y-74.314
X99.492Y-95.364
X99.492Y-116.414
X99.492Y-137.464
X100.0Y-40.945
X100.0Y-61.995
X100.0Y-83.045
X100.0Y-104.095
X100.0Y-125.145
X100.051Y-41.683
X100.051Y-62.733
X100.051Y-83.783
X100.051Y-104.833
X100.051Y-125.883
X100.282Y-52.078
X100.282Y-73.128
X100.282Y-94.178
X100.282Y-115.228
X100.282Y-136.278
X101.066Y-43.914
X101.066Y-64.964
X101.066Y-86.014
X101.066Y-107.064
X101.066Y-128.114
X101.521Y-53.604
X101.521Y-74.654
X101.521Y-95.704
X101.521Y-116.754
X101.521Y-137.804
X103.193Y-47.482
X103.193Y-68.532
X103.193Y-89.582
X103.193Y-110.632
X103.193Y-131.682
X103.323Y-48.21
X103.323Y-69.26
X103.323Y-90.31
X103.323Y-111.36
X103.323Y-132.41
X103.346Y-54.527
X103.346Y-75.577
X103.346Y-96.627
X103.346Y-117.677
X103.346Y-138.727
X103.556Y-56.82
X103.556Y-77.87
X103.556Y-98.92
X103.556Y-119.97
X103.556Y-141.02
X103.623Y-44.493
X103.623Y-46.406
X103.623Y-65.543
X103.623Y-67.456
X103.623Y-86.593
X103.623Y-88.506
X103.623Y-107.643
X103.623Y-109.556
X103.623Y-128.693
X103.623Y-130.606
X103.68Y-53.772
X103.68Y-74.822
X103.68Y-95.872
X103.68Y-116.922
X103.68Y-137.972
X103.841Y-49.329
X103.841Y-70.379
X103.841Y-91.429
X103.841Y-112.479
X103.841Y-133.529
X103.983Y-52.591
X103.983Y-73.641
X103.983Y-94.691
X103.983Y-115.741
X103.983Y-136.791
X110.916Y-54.557
X110.916Y-75.607
X110.916Y-96.657
X110.916Y-117.707
X110.916Y-138.757
X110.92Y-46.539
X110.92Y-67.589
X110.92Y-88.639
X110.92Y-109.689
X110.92Y-130.739
X110.927Y-49.2
X110.927Y-70.25
X110.927Y-91.3
X110.927Y-112.35
X110.927Y-133.4
X110.927Y-47.954
X110.927Y-69.004
X110.927Y-90.054
X110.927Y-111.104
X110.927Y-132.154
X110.927Y-55.296
X110.927Y-76.346
X110.927Y-97.396
X110.927Y-118.446
X110.927Y-139.496
X110.933Y-56.87
X110.933Y-77.92
X110.933Y-98.97
X110.933Y-120.02
X110.933Y-141.07
X111.017Y-52.248
X111.017Y-73.298
X111.017Y-94.348
X111.017Y-115.398
X111.017Y-136.448
X111.092Y-50.47
X111.092Y-71.52
X111.092Y-92.57
X111.092Y-113.62
X111.092Y-134.67
X111.144Y-44.247
X111.144Y-65.297
X111.144Y-86.347
X111.144Y-107.397
X111.144Y-128.447
X111.544Y-52.883
X111.544Y-73.933
X111.544Y-94.983
X111.544Y-116.033
X111.544Y-137.083
X111.891Y-43.217
X111.891Y-64.267
X111.891Y-85.317
X111.891Y-106.367
X111.891Y-127.417
X112.315Y-49.213
X112.315Y-70.263
X112.315Y-91.313
X112.315Y-112.363
X112.315Y-133.413
X112.443Y-56.331
X112.443Y-77.381
X112.443Y-98.431
X112.443Y-119.481
X112.443Y-140.531
X112.541Y-54.788
X112.541Y-75.838
X112.541Y-96.888
X112.541Y-117.938
X112.541Y-138.988
X112.541Y-47.168
X112.541Y-68.218
X112.541Y-89.268
X112.541Y-110.318
X112.541Y-131.368
X112.684Y-53.123
X112.684Y-74.173
X112.684Y-95.223
X112.684Y-116.273
X112.684Y-137.323
X114.295Y-45.668
X114.295Y-66.718
X114.295Y-87.768
X114.295Y-108.818
X114.295Y-129.868
X114.446Y-49.962
X114.446Y-71.012
X114.446Y-92.062
X114.446Y-113.112
X114.446Y-134.162
X114.7Y-44.959
X114.7Y-66.009
X114.7Y-87.059
X114.7Y-108.109
X114.7Y-129.159
X115.335Y-51.486
X115.335Y-72.536
X115.335Y-93.586
X115.335Y-114.636
X115.335Y-135.686
X115.49Y-42.941
X115.49Y-63.991
X115.49Y-85.041
X115.49Y-106.091
X115.49Y-127.141
X115.97Y-48.438
X115.97Y-69.488
X115.97Y-90.538
X115.97Y-111.588
X115.97Y-132.638
X117.429Y-45.781
X117.429Y-66.831
X117.429Y-87.881
X117.429Y-108.931
X117.429Y-129.981
X117.748Y-43.104
X117.748Y-64.154
X117.748Y-85.204
X117.748Y-106.254
X117.748Y-127.304
X118.255Y-48.515
X118.255Y-69.565
X118.255Y-90.615
X118.255Y-111.665
X118.255Y-132.715
X119.046Y-46.289
X119.046Y-67.339
X119.046Y-88.389
X119.046Y-109.439
X119.046Y-130.489
X120.542Y-53.264
X120.542Y-74.314
X120.542Y-95.364
X120.542Y-116.414
X120.542Y-137.464
X121.05Y-40.945
X121.05Y-61.995
X121.05Y-83.045
X121.05Y-104.095
X121.05Y-125.145
X121.101Y-41.683
X121.101Y-62.733
X121.101Y-83.783
X121.101Y-104.833
X121.101Y-125.883
X121.332Y-52.078
X121.332Y-73.128
X121.332Y-94.178
X121.332Y-115.228
X121.332Y-136.278
X122.116Y-43.914
X122.116Y-64.964
X122.116Y-86.014
X122.116Y-107.064
X122.116Y-128.114
X122.571Y-53.604
X122.571Y-74.654
X122.571Y-95.704
X122.571Y-116.754
X122.571Y-137.804
X124.243Y-47.482
X124.243Y-68.532
X124.243Y-89.582
X124.243Y-110.632
X124.243Y-131.682
X124.373Y-48.21
X124.373Y-69.26
X124.373Y-90.31
X124.373Y-111.36
X124.373Y-132.41
X124.396Y-54.527
X124.396Y-75.577
X124.396Y-96.627
X124.396Y-117.677
X124.396Y-138.727
X124.606Y-56.82
X124.606Y-77.87
X124.606Y-98.92
X124.606Y-119.97
X124.606Y-141.02
X124.673Y-44.493
X124.673Y-46.406
X124.673Y-65.543
X124.673Y-67.456
X124.673Y-86.593
X124.673Y-88.506
X124.673Y-107.643
X124.673Y-109.556
X124.673Y-128.693
X124.673Y-130.606
X124.73Y-53.772
X124.73Y-74.822
X124.73Y-95.872
X124.73Y-116.922
X124.73Y-137.972
X124.891Y-49.329
X124.891Y-70.379
X124.891Y-91.429
X124.891Y-112.479
X124.891Y-133.529
X125.033Y-52.591
X125.033Y-73.641
X125.033Y-94.691
X125.033Y-115.741
X125.033Y-136.791
X131.966Y-54.557
X131.966Y-75.607
X131.966Y-96.657
X131.966Y-117.707
X131.966Y-138.757
X131.97Y-46.539
X131.97Y-67.589
X131.97Y-88.639
X131.97Y-109.689
X131.97Y-130.739
X131.977Y-49.2
X131.977Y-70.25
X131.977Y-91.3
X131.977Y-112.35
X131.977Y-133.4
X131.977Y-47.954
X131.977Y-69.004
X131.977Y-90.054
X131.977Y-111.104
X131.977Y-132.154
X131.977Y-55.296
X131.977Y-76.346
X131.977Y-97.396
X131.977Y-118.446
X131.977Y-139.496
X131.983Y-56.87
X131.983Y-77.92
X131.983Y-98.97
X131.983Y-120.02
X131.983Y-141.07
X132.067Y-52.248
X132.067Y-73.298
X132.067Y-94.348
X132.067Y-115.398
X132.067Y-136.448
X132.142Y-50.47
X132.142Y-71.52
X132.142Y-92.57
X132.142Y-113.62
X132.142Y-134.67
X132.194Y-44.247
X132.194Y-65.297
X132.194Y-86.347
X132.194Y-107.397
X132.194Y-128.447
X132.594Y-52.883
X132.594Y-73.933
X132.594Y-94.983
X132.594Y-116.033
X132.594Y-137.083
X132.941Y-43.217
X132.941Y-64.267
X132.941Y-85.317
X132.941Y-106.367
X132.941Y-127.417
X133.365Y-49.213
X133.365Y-70.263
X133.365Y-91.313
X133.365Y-112.363
X133.365Y-133.413
X133.493Y-56.331
X133.493Y-77.381
X133.493Y-98.431
X133.493Y-119.481
X133.493Y-140.531
X133.591Y-54.788
X133.591Y-75.838
X133.591Y-96.888
X133.591Y-117.938
X133.591Y-138.988
X133.591Y-47.168
X133.591Y-68.218
X133.591Y-89.268
X133.591Y-110.318
X133.591Y-131.368
X133.734Y-53.123
X133.734Y-74.173
X133.734Y-95.223
X133.734Y-116.273
X133.734Y-137.323
X135.345Y-45.668
X135.345Y-66.718
X135.345Y-87.768
X135.345Y-108.818
X135.345Y-129.868
X135.496Y-49.962
X135.496Y-71.012
X135.496Y-92.062
X135.496Y-113.112
X135.496Y-134.162
X135.75Y-44.959
X135.75Y-66.009
X135.75Y-87.059
X135.75Y-108.109
X135.75Y-129.159
X136.385Y-51.486
X136.385Y-72.536
X136.385Y-93.586
X136.385Y-114.636
X136.385Y-135.686
X136.54Y-42.941
X136.54Y-63.991
X136.54Y-85.041
X136.54Y-106.091
X136.54Y-127.141
X137.02Y-48.438
X137.02Y-69.488
X137.02Y-90.538
X137.02Y-111.588
X137.02Y-132.638
X138.479Y-45.781
X138.479Y-66.831
X138.479Y-87.881
X138.479Y-108.931
X138.479Y-129.981
X138.798Y-43.104
X138.798Y-64.154
X138.798Y-85.204
X138.798Y-106.254
X138.798Y-127.304
X139.305Y-48.515
X139.305Y-69.565
X139.305Y-90.615
X139.305Y-111.665
X139.305Y-132.715
X140.096Y-46.289
X140.096Y-67.339
X140.096Y-88.389
X140.096Y-109.439
X140.096Y-130.489
X141.592Y-53.264
X141.592Y-74.314
X141.592Y-95.364
X141.592Y-116.414
X141.592Y-137.464
X142.1Y-40.945
X142.1Y-61.995
X142.1Y-83.045
X142.1Y-104.095
X142.1Y-125.145
X142.151Y-41.683
X142.151Y-62.733
X142.151Y-83.783
X142.151Y-104.833
X142.151Y-125.883
X142.382Y-52.078
X142.382Y-73.128
X142.382Y-94.178
X142.382Y-115.228
X142.382Y-136.278
X143.166Y-43.914
X143.166Y-64.964
X143.166Y-86.014
X143.166Y-107.064
X143.166Y-128.114
X143.621Y-53.604
X143.621Y-74.654
X143.621Y-95.704
X143.621Y-116.754
X143.621Y-137.804
X145.293Y-47.482
X145.293Y-68.532
X145.293Y-89.582
X145.293Y-110.632
X145.293Y-131.682
X145.423Y-48.21
X145.423Y-69.26
X145.423Y-90.31
X145.423Y-111.36
X145.423Y-132.41
X145.446Y-54.527
X145.446Y-75.577
X145.446Y-96.627
X145.446Y-117.677
X145.446Y-138.727
X145.656Y-56.82
X145.656Y-77.87
X145.656Y-98.92
X145.656Y-119.97
X145.656Y-141.02
X145.723Y-44.493
X145.723Y-46.406
X145.723Y-65.543
X145.723Y-67.456
X145.723Y-86.593
X145.723Y-88.506
X145.723Y-107.643
X145.723Y-109.556
X145.723Y-128.693
X145.723Y-130.606
X145.78Y-53.772
X145.78Y-74.822
X145.78Y-95.872
X145.78Y-116.922
X145.78Y-137.972
X145.941Y-49.329
X145.941Y-70.379
X145.941Y-91.429
X145.941Y-112.479
X145.941Y-133.529
X146.083Y-52.591
X146.083Y-73.641
X146.083Y-94.691
X146.083Y-115.741
X146.083Y-136.791
T2
X48.484Y-45.112
X48.484Y-66.162
X48.484Y-87.212
X48.484Y-108.262
X48.484Y-129.312
X49.628Y-42.855
X49.628Y-63.905
X49.628Y-84.955
X49.628Y-106.005
X49.628Y-127.055
X61.55Y-42.868
X61.55Y-63.918
X61.55Y-84.968
X61.55Y-106.018
X61.55Y-127.068
X69.534Y-45.112
X69.534Y-66.162
X69.534Y-87.212
X69.534Y-108.262
X69.534Y-129.312
X70.678Y-42.855
X70.678Y-63.905
X70.678Y-84.955
X70.678Y-106.005
X70.678Y-127.055
X82.6Y-42.868
X82.6Y-63.918
X82.6Y-84.968
X82.6Y-106.018
X82.6Y-127.068
X90.584Y-45.112
X90.584Y-66.162
X90.584Y-87.212
X90.584Y-108.262
X90.584Y-129.312
X91.728Y-42.855
X91.728Y-63.905
X91.728Y-84.955
X91.728Y-106.005
X91.728Y-127.055
X103.65Y-42.868
X103.65Y-63.918
X103.65Y-84.968
X103.65Y-106.018
X103.65Y-127.068
X111.634Y-45.112
X111.634Y-66.162
X111.634Y-87.212
X111.634Y-108.262
X111.634Y-129.312
X112.778Y-42.855
X112.778Y-63.905
X112.778Y-84.955
X112.778Y-106.005
X112.778Y-127.055
X124.7Y-42.868
X124.7Y-63.918
X124.7Y-84.968
X124.7Y-106.018
X124.7Y-127.068
X132.684Y-45.112
X132.684Y-66.162
X132.684Y-87.212
X132.684Y-108.262
X132.684Y-129.312
X133.828Y-42.855
X133.828Y-63.905
X133.828Y-84.955
X133.828Y-106.005
X133.828Y-127.055
X145.75Y-42.868
X145.75Y-63.918
X145.75Y-84.968
X145.75Y-106.018
X145.75Y-127.068
T3
X48.883Y-40.945
X48.883Y-58.471
X48.883Y-61.995
X48.883Y-79.521
X48.883Y-83.045
X48.883Y-100.571
X48.883Y-104.095
X48.883Y-121.621
X48.883Y-125.145
X48.883Y-142.671
X60.821Y-40.945
X60.821Y-58.471
X60.821Y-61.995
X60.821Y-79.521
X60.821Y-83.045
X60.821Y-100.571
X60.821Y-104.095
X60.821Y-121.621
X60.821Y-125.145
X60.821Y-142.671
X69.933Y-40.945
X69.933Y-58.471
X69.933Y-61.995
X69.933Y-79.521
X69.933Y-83.045
X69.933Y-100.571
X69.933Y-104.095
X69.933Y-121.621
X69.933Y-125.145
X69.933Y-142.671
X81.871Y-40.945
X81.871Y-58.471
X81.871Y-61.995
X81.871Y-79.521
X81.871Y-83.045
X81.871Y-100.571
X81.871Y-104.095
X81.871Y-121.621
X81.871Y-125.145
X81.871Y-142.671
X90.983Y-40.945
X90.983Y-58.471
X90.983Y-61.995
X90.983Y-79.521
X90.983Y-83.045
X90.983Y-100.571
X90.983Y-104.095
X90.983Y-121.621
X90.983Y-125.145
X90.983Y-142.671
X102.921Y-40.945
X102.921Y-58.471
X102.921Y-61.995
X102.921Y-79.521
X102.921Y-83.045
X102.921Y-100.571
X102.921Y-104.095
X102.921Y-121.621
X102.921Y-125.145
X102.921Y-142.671
X112.033Y-40.945
X112.033Y-58.471
X112.033Y-61.995
X112.033Y-79.521
X112.033Y-83.045
X112.033Y-100.571
X112.033Y-104.095
X112.033Y-121.621
X112.033Y-125.145
X112.033Y-142.671
X123.971Y-40.945
X123.971Y-58.471
X123.971Y-61.995
X123.971Y-79.521
X123.971Y-83.045
X123.971Y-100.571
X123.971Y-104.095
X123.971Y-121.621
X123.971Y-125.145
X123.971Y-142.671
X133.083Y-40.945
X133.083Y-58.471
X133.083Y-61.995
X133.083Y-79.521
X133.083Y-83.045
X133.083Y-100.571
X133.083Y-104.095
X133.083Y-121.621
X133.083Y-125.145
X133.083Y-142.671
X145.021Y-40.945
X145.021Y-58.471
X145.021Y-61.995
X145.021Y-79.521
X145.021Y-83.045
X145.021Y-100.571
X145.021Y-104.095
X145.021Y-121.621
X145.021Y-125.145
X145.021Y-142.671
T4
X51.042Y-48.438
X51.042Y-69.488
X51.042Y-90.538
X51.042Y-111.588
X51.042Y-132.638
X57.392Y-45.898
X57.392Y-66.948
X57.392Y-87.998
X57.392Y-109.048
X57.392Y-130.098
X72.092Y-48.438
X72.092Y-69.488
X72.092Y-90.538
X72.092Y-111.588
X72.092Y-132.638
X78.442Y-45.898
X78.442Y-66.948
X78.442Y-87.998
X78.442Y-109.048
X78.442Y-130.098
X93.142Y-48.438
X93.142Y-69.488
X93.142Y-90.538
X93.142Y-111.588
X93.142Y-132.638
X99.492Y-45.898
X99.492Y-66.948
X99.492Y-87.998
X99.492Y-109.048
X99.492Y-130.098
X114.192Y-48.438
X114.192Y-69.488
X114.192Y-90.538
X114.192Y-111.588
X114.192Y-132.638
X120.542Y-45.898
X120.542Y-66.948
X120.542Y-87.998
X120.542Y-109.048
X120.542Y-130.098
X135.242Y-48.438
X135.242Y-69.488
X135.242Y-90.538
X135.242Y-111.588
X135.242Y-132.638
X141.592Y-45.898
X141.592Y-66.948
X141.592Y-87.998
X141.592Y-109.048
X141.592Y-130.098
T0
M30
