%TF.GenerationSoftware,KiCad,Pcbnew,(5.1.9)-1*%
%TF.CreationDate,2021-09-16T12:17:46+02:00*%
%TF.ProjectId,kb_panel,6b625f70-616e-4656-9c2e-6b696361645f,rev?*%
%TF.SameCoordinates,Original*%
%TF.FileFunction,Soldermask,Top*%
%TF.FilePolarity,Negative*%
%FSLAX46Y46*%
G04 Gerber Fmt 4.6, Leading zero omitted, Abs format (unit mm)*
G04 Created by KiCad (PCBNEW (5.1.9)-1) date 2021-09-16 12:17:46*
%MOMM*%
%LPD*%
G01*
G04 APERTURE LIST*
%ADD10R,1.500000X1.500000*%
%ADD11R,0.950000X0.800000*%
%ADD12R,2.000000X1.500000*%
%ADD13C,2.200000*%
%ADD14C,4.000000*%
%ADD15C,1.700000*%
%ADD16C,0.500000*%
G04 APERTURE END LIST*
D10*
%TO.C,J8*%
X133082547Y-125145052D03*
%TD*%
%TO.C,J8*%
X112032547Y-125145052D03*
%TD*%
%TO.C,J8*%
X90982547Y-125145052D03*
%TD*%
%TO.C,J8*%
X69932547Y-125145052D03*
%TD*%
%TO.C,J8*%
X48882547Y-125145052D03*
%TD*%
%TO.C,J8*%
X133082547Y-104095052D03*
%TD*%
%TO.C,J8*%
X112032547Y-104095052D03*
%TD*%
%TO.C,J8*%
X90982547Y-104095052D03*
%TD*%
%TO.C,J8*%
X69932547Y-104095052D03*
%TD*%
%TO.C,J8*%
X48882547Y-104095052D03*
%TD*%
%TO.C,J8*%
X133082547Y-83045052D03*
%TD*%
%TO.C,J8*%
X112032547Y-83045052D03*
%TD*%
%TO.C,J8*%
X90982547Y-83045052D03*
%TD*%
%TO.C,J8*%
X69932547Y-83045052D03*
%TD*%
%TO.C,J8*%
X48882547Y-83045052D03*
%TD*%
%TO.C,J8*%
X133082547Y-61995052D03*
%TD*%
%TO.C,J8*%
X112032547Y-61995052D03*
%TD*%
%TO.C,J8*%
X90982547Y-61995052D03*
%TD*%
%TO.C,J8*%
X69932547Y-61995052D03*
%TD*%
%TO.C,J8*%
X48882547Y-61995052D03*
%TD*%
%TO.C,J8*%
X133082547Y-40945052D03*
%TD*%
%TO.C,J8*%
X112032547Y-40945052D03*
%TD*%
%TO.C,J8*%
X90982547Y-40945052D03*
%TD*%
%TO.C,J8*%
X69932547Y-40945052D03*
%TD*%
D11*
%TO.C,LED1*%
X140416547Y-125398052D03*
X137686547Y-125398052D03*
X140416547Y-127178052D03*
X137686547Y-127178052D03*
%TD*%
%TO.C,LED1*%
X119366547Y-125398052D03*
X116636547Y-125398052D03*
X119366547Y-127178052D03*
X116636547Y-127178052D03*
%TD*%
%TO.C,LED1*%
X98316547Y-125398052D03*
X95586547Y-125398052D03*
X98316547Y-127178052D03*
X95586547Y-127178052D03*
%TD*%
%TO.C,LED1*%
X77266547Y-125398052D03*
X74536547Y-125398052D03*
X77266547Y-127178052D03*
X74536547Y-127178052D03*
%TD*%
%TO.C,LED1*%
X56216547Y-125398052D03*
X53486547Y-125398052D03*
X56216547Y-127178052D03*
X53486547Y-127178052D03*
%TD*%
%TO.C,LED1*%
X140416547Y-104348052D03*
X137686547Y-104348052D03*
X140416547Y-106128052D03*
X137686547Y-106128052D03*
%TD*%
%TO.C,LED1*%
X119366547Y-104348052D03*
X116636547Y-104348052D03*
X119366547Y-106128052D03*
X116636547Y-106128052D03*
%TD*%
%TO.C,LED1*%
X98316547Y-104348052D03*
X95586547Y-104348052D03*
X98316547Y-106128052D03*
X95586547Y-106128052D03*
%TD*%
%TO.C,LED1*%
X77266547Y-104348052D03*
X74536547Y-104348052D03*
X77266547Y-106128052D03*
X74536547Y-106128052D03*
%TD*%
%TO.C,LED1*%
X56216547Y-104348052D03*
X53486547Y-104348052D03*
X56216547Y-106128052D03*
X53486547Y-106128052D03*
%TD*%
%TO.C,LED1*%
X140416547Y-83298052D03*
X137686547Y-83298052D03*
X140416547Y-85078052D03*
X137686547Y-85078052D03*
%TD*%
%TO.C,LED1*%
X119366547Y-83298052D03*
X116636547Y-83298052D03*
X119366547Y-85078052D03*
X116636547Y-85078052D03*
%TD*%
%TO.C,LED1*%
X98316547Y-83298052D03*
X95586547Y-83298052D03*
X98316547Y-85078052D03*
X95586547Y-85078052D03*
%TD*%
%TO.C,LED1*%
X77266547Y-83298052D03*
X74536547Y-83298052D03*
X77266547Y-85078052D03*
X74536547Y-85078052D03*
%TD*%
%TO.C,LED1*%
X56216547Y-83298052D03*
X53486547Y-83298052D03*
X56216547Y-85078052D03*
X53486547Y-85078052D03*
%TD*%
%TO.C,LED1*%
X140416547Y-62248052D03*
X137686547Y-62248052D03*
X140416547Y-64028052D03*
X137686547Y-64028052D03*
%TD*%
%TO.C,LED1*%
X119366547Y-62248052D03*
X116636547Y-62248052D03*
X119366547Y-64028052D03*
X116636547Y-64028052D03*
%TD*%
%TO.C,LED1*%
X98316547Y-62248052D03*
X95586547Y-62248052D03*
X98316547Y-64028052D03*
X95586547Y-64028052D03*
%TD*%
%TO.C,LED1*%
X77266547Y-62248052D03*
X74536547Y-62248052D03*
X77266547Y-64028052D03*
X74536547Y-64028052D03*
%TD*%
%TO.C,LED1*%
X56216547Y-62248052D03*
X53486547Y-62248052D03*
X56216547Y-64028052D03*
X53486547Y-64028052D03*
%TD*%
%TO.C,LED1*%
X140416547Y-41198052D03*
X137686547Y-41198052D03*
X140416547Y-42978052D03*
X137686547Y-42978052D03*
%TD*%
%TO.C,LED1*%
X119366547Y-41198052D03*
X116636547Y-41198052D03*
X119366547Y-42978052D03*
X116636547Y-42978052D03*
%TD*%
%TO.C,LED1*%
X98316547Y-41198052D03*
X95586547Y-41198052D03*
X98316547Y-42978052D03*
X95586547Y-42978052D03*
%TD*%
%TO.C,LED1*%
X77266547Y-41198052D03*
X74536547Y-41198052D03*
X77266547Y-42978052D03*
X74536547Y-42978052D03*
%TD*%
D10*
%TO.C,J7*%
X133082547Y-142671052D03*
%TD*%
%TO.C,J7*%
X112032547Y-142671052D03*
%TD*%
%TO.C,J7*%
X90982547Y-142671052D03*
%TD*%
%TO.C,J7*%
X69932547Y-142671052D03*
%TD*%
%TO.C,J7*%
X48882547Y-142671052D03*
%TD*%
%TO.C,J7*%
X133082547Y-121621052D03*
%TD*%
%TO.C,J7*%
X112032547Y-121621052D03*
%TD*%
%TO.C,J7*%
X90982547Y-121621052D03*
%TD*%
%TO.C,J7*%
X69932547Y-121621052D03*
%TD*%
%TO.C,J7*%
X48882547Y-121621052D03*
%TD*%
%TO.C,J7*%
X133082547Y-100571052D03*
%TD*%
%TO.C,J7*%
X112032547Y-100571052D03*
%TD*%
%TO.C,J7*%
X90982547Y-100571052D03*
%TD*%
%TO.C,J7*%
X69932547Y-100571052D03*
%TD*%
%TO.C,J7*%
X48882547Y-100571052D03*
%TD*%
%TO.C,J7*%
X133082547Y-79521052D03*
%TD*%
%TO.C,J7*%
X112032547Y-79521052D03*
%TD*%
%TO.C,J7*%
X90982547Y-79521052D03*
%TD*%
%TO.C,J7*%
X69932547Y-79521052D03*
%TD*%
%TO.C,J7*%
X48882547Y-79521052D03*
%TD*%
%TO.C,J7*%
X133082547Y-58471052D03*
%TD*%
%TO.C,J7*%
X112032547Y-58471052D03*
%TD*%
%TO.C,J7*%
X90982547Y-58471052D03*
%TD*%
%TO.C,J7*%
X69932547Y-58471052D03*
%TD*%
D12*
%TO.C,J4*%
X147560547Y-141908052D03*
X147560547Y-139908052D03*
X147560547Y-137908052D03*
X147560547Y-125908052D03*
X147560547Y-135908052D03*
X147560547Y-127908052D03*
X147560547Y-129908052D03*
X147560547Y-131908052D03*
X147560547Y-133908052D03*
%TD*%
%TO.C,J4*%
X126510547Y-141908052D03*
X126510547Y-139908052D03*
X126510547Y-137908052D03*
X126510547Y-125908052D03*
X126510547Y-135908052D03*
X126510547Y-127908052D03*
X126510547Y-129908052D03*
X126510547Y-131908052D03*
X126510547Y-133908052D03*
%TD*%
%TO.C,J4*%
X105460547Y-141908052D03*
X105460547Y-139908052D03*
X105460547Y-137908052D03*
X105460547Y-125908052D03*
X105460547Y-135908052D03*
X105460547Y-127908052D03*
X105460547Y-129908052D03*
X105460547Y-131908052D03*
X105460547Y-133908052D03*
%TD*%
%TO.C,J4*%
X84410547Y-141908052D03*
X84410547Y-139908052D03*
X84410547Y-137908052D03*
X84410547Y-125908052D03*
X84410547Y-135908052D03*
X84410547Y-127908052D03*
X84410547Y-129908052D03*
X84410547Y-131908052D03*
X84410547Y-133908052D03*
%TD*%
%TO.C,J4*%
X63360547Y-141908052D03*
X63360547Y-139908052D03*
X63360547Y-137908052D03*
X63360547Y-125908052D03*
X63360547Y-135908052D03*
X63360547Y-127908052D03*
X63360547Y-129908052D03*
X63360547Y-131908052D03*
X63360547Y-133908052D03*
%TD*%
%TO.C,J4*%
X147560547Y-120858052D03*
X147560547Y-118858052D03*
X147560547Y-116858052D03*
X147560547Y-104858052D03*
X147560547Y-114858052D03*
X147560547Y-106858052D03*
X147560547Y-108858052D03*
X147560547Y-110858052D03*
X147560547Y-112858052D03*
%TD*%
%TO.C,J4*%
X126510547Y-120858052D03*
X126510547Y-118858052D03*
X126510547Y-116858052D03*
X126510547Y-104858052D03*
X126510547Y-114858052D03*
X126510547Y-106858052D03*
X126510547Y-108858052D03*
X126510547Y-110858052D03*
X126510547Y-112858052D03*
%TD*%
%TO.C,J4*%
X105460547Y-120858052D03*
X105460547Y-118858052D03*
X105460547Y-116858052D03*
X105460547Y-104858052D03*
X105460547Y-114858052D03*
X105460547Y-106858052D03*
X105460547Y-108858052D03*
X105460547Y-110858052D03*
X105460547Y-112858052D03*
%TD*%
%TO.C,J4*%
X84410547Y-120858052D03*
X84410547Y-118858052D03*
X84410547Y-116858052D03*
X84410547Y-104858052D03*
X84410547Y-114858052D03*
X84410547Y-106858052D03*
X84410547Y-108858052D03*
X84410547Y-110858052D03*
X84410547Y-112858052D03*
%TD*%
%TO.C,J4*%
X63360547Y-120858052D03*
X63360547Y-118858052D03*
X63360547Y-116858052D03*
X63360547Y-104858052D03*
X63360547Y-114858052D03*
X63360547Y-106858052D03*
X63360547Y-108858052D03*
X63360547Y-110858052D03*
X63360547Y-112858052D03*
%TD*%
%TO.C,J4*%
X147560547Y-99808052D03*
X147560547Y-97808052D03*
X147560547Y-95808052D03*
X147560547Y-83808052D03*
X147560547Y-93808052D03*
X147560547Y-85808052D03*
X147560547Y-87808052D03*
X147560547Y-89808052D03*
X147560547Y-91808052D03*
%TD*%
%TO.C,J4*%
X126510547Y-99808052D03*
X126510547Y-97808052D03*
X126510547Y-95808052D03*
X126510547Y-83808052D03*
X126510547Y-93808052D03*
X126510547Y-85808052D03*
X126510547Y-87808052D03*
X126510547Y-89808052D03*
X126510547Y-91808052D03*
%TD*%
%TO.C,J4*%
X105460547Y-99808052D03*
X105460547Y-97808052D03*
X105460547Y-95808052D03*
X105460547Y-83808052D03*
X105460547Y-93808052D03*
X105460547Y-85808052D03*
X105460547Y-87808052D03*
X105460547Y-89808052D03*
X105460547Y-91808052D03*
%TD*%
%TO.C,J4*%
X84410547Y-99808052D03*
X84410547Y-97808052D03*
X84410547Y-95808052D03*
X84410547Y-83808052D03*
X84410547Y-93808052D03*
X84410547Y-85808052D03*
X84410547Y-87808052D03*
X84410547Y-89808052D03*
X84410547Y-91808052D03*
%TD*%
%TO.C,J4*%
X63360547Y-99808052D03*
X63360547Y-97808052D03*
X63360547Y-95808052D03*
X63360547Y-83808052D03*
X63360547Y-93808052D03*
X63360547Y-85808052D03*
X63360547Y-87808052D03*
X63360547Y-89808052D03*
X63360547Y-91808052D03*
%TD*%
%TO.C,J4*%
X147560547Y-78758052D03*
X147560547Y-76758052D03*
X147560547Y-74758052D03*
X147560547Y-62758052D03*
X147560547Y-72758052D03*
X147560547Y-64758052D03*
X147560547Y-66758052D03*
X147560547Y-68758052D03*
X147560547Y-70758052D03*
%TD*%
%TO.C,J4*%
X126510547Y-78758052D03*
X126510547Y-76758052D03*
X126510547Y-74758052D03*
X126510547Y-62758052D03*
X126510547Y-72758052D03*
X126510547Y-64758052D03*
X126510547Y-66758052D03*
X126510547Y-68758052D03*
X126510547Y-70758052D03*
%TD*%
%TO.C,J4*%
X105460547Y-78758052D03*
X105460547Y-76758052D03*
X105460547Y-74758052D03*
X105460547Y-62758052D03*
X105460547Y-72758052D03*
X105460547Y-64758052D03*
X105460547Y-66758052D03*
X105460547Y-68758052D03*
X105460547Y-70758052D03*
%TD*%
%TO.C,J4*%
X84410547Y-78758052D03*
X84410547Y-76758052D03*
X84410547Y-74758052D03*
X84410547Y-62758052D03*
X84410547Y-72758052D03*
X84410547Y-64758052D03*
X84410547Y-66758052D03*
X84410547Y-68758052D03*
X84410547Y-70758052D03*
%TD*%
%TO.C,J4*%
X63360547Y-78758052D03*
X63360547Y-76758052D03*
X63360547Y-74758052D03*
X63360547Y-62758052D03*
X63360547Y-72758052D03*
X63360547Y-64758052D03*
X63360547Y-66758052D03*
X63360547Y-68758052D03*
X63360547Y-70758052D03*
%TD*%
%TO.C,J4*%
X147560547Y-57708052D03*
X147560547Y-55708052D03*
X147560547Y-53708052D03*
X147560547Y-41708052D03*
X147560547Y-51708052D03*
X147560547Y-43708052D03*
X147560547Y-45708052D03*
X147560547Y-47708052D03*
X147560547Y-49708052D03*
%TD*%
%TO.C,J4*%
X126510547Y-57708052D03*
X126510547Y-55708052D03*
X126510547Y-53708052D03*
X126510547Y-41708052D03*
X126510547Y-51708052D03*
X126510547Y-43708052D03*
X126510547Y-45708052D03*
X126510547Y-47708052D03*
X126510547Y-49708052D03*
%TD*%
%TO.C,J4*%
X105460547Y-57708052D03*
X105460547Y-55708052D03*
X105460547Y-53708052D03*
X105460547Y-41708052D03*
X105460547Y-51708052D03*
X105460547Y-43708052D03*
X105460547Y-45708052D03*
X105460547Y-47708052D03*
X105460547Y-49708052D03*
%TD*%
%TO.C,J4*%
X84410547Y-57708052D03*
X84410547Y-55708052D03*
X84410547Y-53708052D03*
X84410547Y-41708052D03*
X84410547Y-51708052D03*
X84410547Y-43708052D03*
X84410547Y-45708052D03*
X84410547Y-47708052D03*
X84410547Y-49708052D03*
%TD*%
D13*
%TO.C,SW1*%
X141591547Y-130098052D03*
X135241547Y-132638052D03*
D14*
X139051547Y-135178052D03*
D15*
X133971547Y-135178052D03*
X144131547Y-135178052D03*
%TD*%
D13*
%TO.C,SW1*%
X120541547Y-130098052D03*
X114191547Y-132638052D03*
D14*
X118001547Y-135178052D03*
D15*
X112921547Y-135178052D03*
X123081547Y-135178052D03*
%TD*%
D13*
%TO.C,SW1*%
X99491547Y-130098052D03*
X93141547Y-132638052D03*
D14*
X96951547Y-135178052D03*
D15*
X91871547Y-135178052D03*
X102031547Y-135178052D03*
%TD*%
D13*
%TO.C,SW1*%
X78441547Y-130098052D03*
X72091547Y-132638052D03*
D14*
X75901547Y-135178052D03*
D15*
X70821547Y-135178052D03*
X80981547Y-135178052D03*
%TD*%
D13*
%TO.C,SW1*%
X57391547Y-130098052D03*
X51041547Y-132638052D03*
D14*
X54851547Y-135178052D03*
D15*
X49771547Y-135178052D03*
X59931547Y-135178052D03*
%TD*%
D13*
%TO.C,SW1*%
X141591547Y-109048052D03*
X135241547Y-111588052D03*
D14*
X139051547Y-114128052D03*
D15*
X133971547Y-114128052D03*
X144131547Y-114128052D03*
%TD*%
D13*
%TO.C,SW1*%
X120541547Y-109048052D03*
X114191547Y-111588052D03*
D14*
X118001547Y-114128052D03*
D15*
X112921547Y-114128052D03*
X123081547Y-114128052D03*
%TD*%
D13*
%TO.C,SW1*%
X99491547Y-109048052D03*
X93141547Y-111588052D03*
D14*
X96951547Y-114128052D03*
D15*
X91871547Y-114128052D03*
X102031547Y-114128052D03*
%TD*%
D13*
%TO.C,SW1*%
X78441547Y-109048052D03*
X72091547Y-111588052D03*
D14*
X75901547Y-114128052D03*
D15*
X70821547Y-114128052D03*
X80981547Y-114128052D03*
%TD*%
D13*
%TO.C,SW1*%
X57391547Y-109048052D03*
X51041547Y-111588052D03*
D14*
X54851547Y-114128052D03*
D15*
X49771547Y-114128052D03*
X59931547Y-114128052D03*
%TD*%
D13*
%TO.C,SW1*%
X141591547Y-87998052D03*
X135241547Y-90538052D03*
D14*
X139051547Y-93078052D03*
D15*
X133971547Y-93078052D03*
X144131547Y-93078052D03*
%TD*%
D13*
%TO.C,SW1*%
X120541547Y-87998052D03*
X114191547Y-90538052D03*
D14*
X118001547Y-93078052D03*
D15*
X112921547Y-93078052D03*
X123081547Y-93078052D03*
%TD*%
D13*
%TO.C,SW1*%
X99491547Y-87998052D03*
X93141547Y-90538052D03*
D14*
X96951547Y-93078052D03*
D15*
X91871547Y-93078052D03*
X102031547Y-93078052D03*
%TD*%
D13*
%TO.C,SW1*%
X78441547Y-87998052D03*
X72091547Y-90538052D03*
D14*
X75901547Y-93078052D03*
D15*
X70821547Y-93078052D03*
X80981547Y-93078052D03*
%TD*%
D13*
%TO.C,SW1*%
X57391547Y-87998052D03*
X51041547Y-90538052D03*
D14*
X54851547Y-93078052D03*
D15*
X49771547Y-93078052D03*
X59931547Y-93078052D03*
%TD*%
D13*
%TO.C,SW1*%
X141591547Y-66948052D03*
X135241547Y-69488052D03*
D14*
X139051547Y-72028052D03*
D15*
X133971547Y-72028052D03*
X144131547Y-72028052D03*
%TD*%
D13*
%TO.C,SW1*%
X120541547Y-66948052D03*
X114191547Y-69488052D03*
D14*
X118001547Y-72028052D03*
D15*
X112921547Y-72028052D03*
X123081547Y-72028052D03*
%TD*%
D13*
%TO.C,SW1*%
X99491547Y-66948052D03*
X93141547Y-69488052D03*
D14*
X96951547Y-72028052D03*
D15*
X91871547Y-72028052D03*
X102031547Y-72028052D03*
%TD*%
D13*
%TO.C,SW1*%
X78441547Y-66948052D03*
X72091547Y-69488052D03*
D14*
X75901547Y-72028052D03*
D15*
X70821547Y-72028052D03*
X80981547Y-72028052D03*
%TD*%
D13*
%TO.C,SW1*%
X57391547Y-66948052D03*
X51041547Y-69488052D03*
D14*
X54851547Y-72028052D03*
D15*
X49771547Y-72028052D03*
X59931547Y-72028052D03*
%TD*%
D13*
%TO.C,SW1*%
X141591547Y-45898052D03*
X135241547Y-48438052D03*
D14*
X139051547Y-50978052D03*
D15*
X133971547Y-50978052D03*
X144131547Y-50978052D03*
%TD*%
D13*
%TO.C,SW1*%
X120541547Y-45898052D03*
X114191547Y-48438052D03*
D14*
X118001547Y-50978052D03*
D15*
X112921547Y-50978052D03*
X123081547Y-50978052D03*
%TD*%
D13*
%TO.C,SW1*%
X99491547Y-45898052D03*
X93141547Y-48438052D03*
D14*
X96951547Y-50978052D03*
D15*
X91871547Y-50978052D03*
X102031547Y-50978052D03*
%TD*%
D13*
%TO.C,SW1*%
X78441547Y-45898052D03*
X72091547Y-48438052D03*
D14*
X75901547Y-50978052D03*
D15*
X70821547Y-50978052D03*
X80981547Y-50978052D03*
%TD*%
D10*
%TO.C,J2*%
X145020547Y-125145052D03*
%TD*%
%TO.C,J2*%
X123970547Y-125145052D03*
%TD*%
%TO.C,J2*%
X102920547Y-125145052D03*
%TD*%
%TO.C,J2*%
X81870547Y-125145052D03*
%TD*%
%TO.C,J2*%
X60820547Y-125145052D03*
%TD*%
%TO.C,J2*%
X145020547Y-104095052D03*
%TD*%
%TO.C,J2*%
X123970547Y-104095052D03*
%TD*%
%TO.C,J2*%
X102920547Y-104095052D03*
%TD*%
%TO.C,J2*%
X81870547Y-104095052D03*
%TD*%
%TO.C,J2*%
X60820547Y-104095052D03*
%TD*%
%TO.C,J2*%
X145020547Y-83045052D03*
%TD*%
%TO.C,J2*%
X123970547Y-83045052D03*
%TD*%
%TO.C,J2*%
X102920547Y-83045052D03*
%TD*%
%TO.C,J2*%
X81870547Y-83045052D03*
%TD*%
%TO.C,J2*%
X60820547Y-83045052D03*
%TD*%
%TO.C,J2*%
X145020547Y-61995052D03*
%TD*%
%TO.C,J2*%
X123970547Y-61995052D03*
%TD*%
%TO.C,J2*%
X102920547Y-61995052D03*
%TD*%
%TO.C,J2*%
X81870547Y-61995052D03*
%TD*%
%TO.C,J2*%
X60820547Y-61995052D03*
%TD*%
%TO.C,J2*%
X145020547Y-40945052D03*
%TD*%
%TO.C,J2*%
X123970547Y-40945052D03*
%TD*%
%TO.C,J2*%
X102920547Y-40945052D03*
%TD*%
%TO.C,J2*%
X81870547Y-40945052D03*
%TD*%
%TO.C,J9*%
X145020547Y-142671052D03*
%TD*%
%TO.C,J9*%
X123970547Y-142671052D03*
%TD*%
%TO.C,J9*%
X102920547Y-142671052D03*
%TD*%
%TO.C,J9*%
X81870547Y-142671052D03*
%TD*%
%TO.C,J9*%
X60820547Y-142671052D03*
%TD*%
%TO.C,J9*%
X145020547Y-121621052D03*
%TD*%
%TO.C,J9*%
X123970547Y-121621052D03*
%TD*%
%TO.C,J9*%
X102920547Y-121621052D03*
%TD*%
%TO.C,J9*%
X81870547Y-121621052D03*
%TD*%
%TO.C,J9*%
X60820547Y-121621052D03*
%TD*%
%TO.C,J9*%
X145020547Y-100571052D03*
%TD*%
%TO.C,J9*%
X123970547Y-100571052D03*
%TD*%
%TO.C,J9*%
X102920547Y-100571052D03*
%TD*%
%TO.C,J9*%
X81870547Y-100571052D03*
%TD*%
%TO.C,J9*%
X60820547Y-100571052D03*
%TD*%
%TO.C,J9*%
X145020547Y-79521052D03*
%TD*%
%TO.C,J9*%
X123970547Y-79521052D03*
%TD*%
%TO.C,J9*%
X102920547Y-79521052D03*
%TD*%
%TO.C,J9*%
X81870547Y-79521052D03*
%TD*%
%TO.C,J9*%
X60820547Y-79521052D03*
%TD*%
%TO.C,J9*%
X145020547Y-58471052D03*
%TD*%
%TO.C,J9*%
X123970547Y-58471052D03*
%TD*%
%TO.C,J9*%
X102920547Y-58471052D03*
%TD*%
%TO.C,J9*%
X81870547Y-58471052D03*
%TD*%
D12*
%TO.C,J3*%
X130542547Y-141908052D03*
X130542547Y-139908052D03*
X130542547Y-137908052D03*
X130542547Y-125908052D03*
X130542547Y-135908052D03*
X130542547Y-127908052D03*
X130542547Y-129908052D03*
X130542547Y-131908052D03*
X130542547Y-133908052D03*
%TD*%
%TO.C,J3*%
X109492547Y-141908052D03*
X109492547Y-139908052D03*
X109492547Y-137908052D03*
X109492547Y-125908052D03*
X109492547Y-135908052D03*
X109492547Y-127908052D03*
X109492547Y-129908052D03*
X109492547Y-131908052D03*
X109492547Y-133908052D03*
%TD*%
%TO.C,J3*%
X88442547Y-141908052D03*
X88442547Y-139908052D03*
X88442547Y-137908052D03*
X88442547Y-125908052D03*
X88442547Y-135908052D03*
X88442547Y-127908052D03*
X88442547Y-129908052D03*
X88442547Y-131908052D03*
X88442547Y-133908052D03*
%TD*%
%TO.C,J3*%
X67392547Y-141908052D03*
X67392547Y-139908052D03*
X67392547Y-137908052D03*
X67392547Y-125908052D03*
X67392547Y-135908052D03*
X67392547Y-127908052D03*
X67392547Y-129908052D03*
X67392547Y-131908052D03*
X67392547Y-133908052D03*
%TD*%
%TO.C,J3*%
X46342547Y-141908052D03*
X46342547Y-139908052D03*
X46342547Y-137908052D03*
X46342547Y-125908052D03*
X46342547Y-135908052D03*
X46342547Y-127908052D03*
X46342547Y-129908052D03*
X46342547Y-131908052D03*
X46342547Y-133908052D03*
%TD*%
%TO.C,J3*%
X130542547Y-120858052D03*
X130542547Y-118858052D03*
X130542547Y-116858052D03*
X130542547Y-104858052D03*
X130542547Y-114858052D03*
X130542547Y-106858052D03*
X130542547Y-108858052D03*
X130542547Y-110858052D03*
X130542547Y-112858052D03*
%TD*%
%TO.C,J3*%
X109492547Y-120858052D03*
X109492547Y-118858052D03*
X109492547Y-116858052D03*
X109492547Y-104858052D03*
X109492547Y-114858052D03*
X109492547Y-106858052D03*
X109492547Y-108858052D03*
X109492547Y-110858052D03*
X109492547Y-112858052D03*
%TD*%
%TO.C,J3*%
X88442547Y-120858052D03*
X88442547Y-118858052D03*
X88442547Y-116858052D03*
X88442547Y-104858052D03*
X88442547Y-114858052D03*
X88442547Y-106858052D03*
X88442547Y-108858052D03*
X88442547Y-110858052D03*
X88442547Y-112858052D03*
%TD*%
%TO.C,J3*%
X67392547Y-120858052D03*
X67392547Y-118858052D03*
X67392547Y-116858052D03*
X67392547Y-104858052D03*
X67392547Y-114858052D03*
X67392547Y-106858052D03*
X67392547Y-108858052D03*
X67392547Y-110858052D03*
X67392547Y-112858052D03*
%TD*%
%TO.C,J3*%
X46342547Y-120858052D03*
X46342547Y-118858052D03*
X46342547Y-116858052D03*
X46342547Y-104858052D03*
X46342547Y-114858052D03*
X46342547Y-106858052D03*
X46342547Y-108858052D03*
X46342547Y-110858052D03*
X46342547Y-112858052D03*
%TD*%
%TO.C,J3*%
X130542547Y-99808052D03*
X130542547Y-97808052D03*
X130542547Y-95808052D03*
X130542547Y-83808052D03*
X130542547Y-93808052D03*
X130542547Y-85808052D03*
X130542547Y-87808052D03*
X130542547Y-89808052D03*
X130542547Y-91808052D03*
%TD*%
%TO.C,J3*%
X109492547Y-99808052D03*
X109492547Y-97808052D03*
X109492547Y-95808052D03*
X109492547Y-83808052D03*
X109492547Y-93808052D03*
X109492547Y-85808052D03*
X109492547Y-87808052D03*
X109492547Y-89808052D03*
X109492547Y-91808052D03*
%TD*%
%TO.C,J3*%
X88442547Y-99808052D03*
X88442547Y-97808052D03*
X88442547Y-95808052D03*
X88442547Y-83808052D03*
X88442547Y-93808052D03*
X88442547Y-85808052D03*
X88442547Y-87808052D03*
X88442547Y-89808052D03*
X88442547Y-91808052D03*
%TD*%
%TO.C,J3*%
X67392547Y-99808052D03*
X67392547Y-97808052D03*
X67392547Y-95808052D03*
X67392547Y-83808052D03*
X67392547Y-93808052D03*
X67392547Y-85808052D03*
X67392547Y-87808052D03*
X67392547Y-89808052D03*
X67392547Y-91808052D03*
%TD*%
%TO.C,J3*%
X46342547Y-99808052D03*
X46342547Y-97808052D03*
X46342547Y-95808052D03*
X46342547Y-83808052D03*
X46342547Y-93808052D03*
X46342547Y-85808052D03*
X46342547Y-87808052D03*
X46342547Y-89808052D03*
X46342547Y-91808052D03*
%TD*%
%TO.C,J3*%
X130542547Y-78758052D03*
X130542547Y-76758052D03*
X130542547Y-74758052D03*
X130542547Y-62758052D03*
X130542547Y-72758052D03*
X130542547Y-64758052D03*
X130542547Y-66758052D03*
X130542547Y-68758052D03*
X130542547Y-70758052D03*
%TD*%
%TO.C,J3*%
X109492547Y-78758052D03*
X109492547Y-76758052D03*
X109492547Y-74758052D03*
X109492547Y-62758052D03*
X109492547Y-72758052D03*
X109492547Y-64758052D03*
X109492547Y-66758052D03*
X109492547Y-68758052D03*
X109492547Y-70758052D03*
%TD*%
%TO.C,J3*%
X88442547Y-78758052D03*
X88442547Y-76758052D03*
X88442547Y-74758052D03*
X88442547Y-62758052D03*
X88442547Y-72758052D03*
X88442547Y-64758052D03*
X88442547Y-66758052D03*
X88442547Y-68758052D03*
X88442547Y-70758052D03*
%TD*%
%TO.C,J3*%
X67392547Y-78758052D03*
X67392547Y-76758052D03*
X67392547Y-74758052D03*
X67392547Y-62758052D03*
X67392547Y-72758052D03*
X67392547Y-64758052D03*
X67392547Y-66758052D03*
X67392547Y-68758052D03*
X67392547Y-70758052D03*
%TD*%
%TO.C,J3*%
X46342547Y-78758052D03*
X46342547Y-76758052D03*
X46342547Y-74758052D03*
X46342547Y-62758052D03*
X46342547Y-72758052D03*
X46342547Y-64758052D03*
X46342547Y-66758052D03*
X46342547Y-68758052D03*
X46342547Y-70758052D03*
%TD*%
%TO.C,J3*%
X130542547Y-57708052D03*
X130542547Y-55708052D03*
X130542547Y-53708052D03*
X130542547Y-41708052D03*
X130542547Y-51708052D03*
X130542547Y-43708052D03*
X130542547Y-45708052D03*
X130542547Y-47708052D03*
X130542547Y-49708052D03*
%TD*%
%TO.C,J3*%
X109492547Y-57708052D03*
X109492547Y-55708052D03*
X109492547Y-53708052D03*
X109492547Y-41708052D03*
X109492547Y-51708052D03*
X109492547Y-43708052D03*
X109492547Y-45708052D03*
X109492547Y-47708052D03*
X109492547Y-49708052D03*
%TD*%
%TO.C,J3*%
X88442547Y-57708052D03*
X88442547Y-55708052D03*
X88442547Y-53708052D03*
X88442547Y-41708052D03*
X88442547Y-51708052D03*
X88442547Y-43708052D03*
X88442547Y-45708052D03*
X88442547Y-47708052D03*
X88442547Y-49708052D03*
%TD*%
%TO.C,J3*%
X67392547Y-57708052D03*
X67392547Y-55708052D03*
X67392547Y-53708052D03*
X67392547Y-41708052D03*
X67392547Y-51708052D03*
X67392547Y-43708052D03*
X67392547Y-45708052D03*
X67392547Y-47708052D03*
X67392547Y-49708052D03*
%TD*%
%TO.C,J4*%
X63360547Y-49708052D03*
X63360547Y-47708052D03*
X63360547Y-45708052D03*
X63360547Y-43708052D03*
X63360547Y-51708052D03*
X63360547Y-41708052D03*
X63360547Y-53708052D03*
X63360547Y-55708052D03*
X63360547Y-57708052D03*
%TD*%
D10*
%TO.C,J8*%
X48882547Y-40945052D03*
%TD*%
%TO.C,J2*%
X60820547Y-40945052D03*
%TD*%
%TO.C,J7*%
X48882547Y-58471052D03*
%TD*%
D12*
%TO.C,J3*%
X46342547Y-49708052D03*
X46342547Y-47708052D03*
X46342547Y-45708052D03*
X46342547Y-43708052D03*
X46342547Y-51708052D03*
X46342547Y-41708052D03*
X46342547Y-53708052D03*
X46342547Y-55708052D03*
X46342547Y-57708052D03*
%TD*%
D15*
%TO.C,SW1*%
X59931547Y-50978052D03*
X49771547Y-50978052D03*
D14*
X54851547Y-50978052D03*
D13*
X51041547Y-48438052D03*
X57391547Y-45898052D03*
%TD*%
D11*
%TO.C,LED1*%
X53486547Y-42978052D03*
X56216547Y-42978052D03*
X53486547Y-41198052D03*
X56216547Y-41198052D03*
%TD*%
D10*
%TO.C,J9*%
X60820547Y-58471052D03*
%TD*%
D16*
%TO.C,mouse-bite-2mm-slot*%
X139444300Y-143692200D03*
X140944300Y-145192200D03*
X139444300Y-145192200D03*
X140194300Y-145192200D03*
X140194300Y-143692200D03*
X140944300Y-143692200D03*
X138689800Y-145192200D03*
X137189800Y-145192200D03*
X137189800Y-143692200D03*
X138689800Y-143692200D03*
X137939800Y-145192200D03*
X137939800Y-143692200D03*
%TD*%
%TO.C,mouse-bite-2mm-slot*%
X118394300Y-143692200D03*
X119894300Y-145192200D03*
X118394300Y-145192200D03*
X119144300Y-145192200D03*
X119144300Y-143692200D03*
X119894300Y-143692200D03*
X117639800Y-145192200D03*
X116139800Y-145192200D03*
X116139800Y-143692200D03*
X117639800Y-143692200D03*
X116889800Y-145192200D03*
X116889800Y-143692200D03*
%TD*%
%TO.C,mouse-bite-2mm-slot*%
X97344300Y-143692200D03*
X98844300Y-145192200D03*
X97344300Y-145192200D03*
X98094300Y-145192200D03*
X98094300Y-143692200D03*
X98844300Y-143692200D03*
X96589800Y-145192200D03*
X95089800Y-145192200D03*
X95089800Y-143692200D03*
X96589800Y-143692200D03*
X95839800Y-145192200D03*
X95839800Y-143692200D03*
%TD*%
%TO.C,mouse-bite-2mm-slot*%
X76294300Y-143692200D03*
X77794300Y-145192200D03*
X76294300Y-145192200D03*
X77044300Y-145192200D03*
X77044300Y-143692200D03*
X77794300Y-143692200D03*
X75539800Y-145192200D03*
X74039800Y-145192200D03*
X74039800Y-143692200D03*
X75539800Y-143692200D03*
X74789800Y-145192200D03*
X74789800Y-143692200D03*
%TD*%
%TO.C,mouse-bite-2mm-slot*%
X55244300Y-143692200D03*
X56744300Y-145192200D03*
X55244300Y-145192200D03*
X55994300Y-145192200D03*
X55994300Y-143692200D03*
X56744300Y-143692200D03*
X54489800Y-145192200D03*
X52989800Y-145192200D03*
X52989800Y-143692200D03*
X54489800Y-143692200D03*
X53739800Y-145192200D03*
X53739800Y-143692200D03*
%TD*%
%TO.C,mouse-bite-2mm-slot*%
X139444300Y-122642200D03*
X140944300Y-124142200D03*
X139444300Y-124142200D03*
X140194300Y-124142200D03*
X140194300Y-122642200D03*
X140944300Y-122642200D03*
X138689800Y-124142200D03*
X137189800Y-124142200D03*
X137189800Y-122642200D03*
X138689800Y-122642200D03*
X137939800Y-124142200D03*
X137939800Y-122642200D03*
%TD*%
%TO.C,mouse-bite-2mm-slot*%
X118394300Y-122642200D03*
X119894300Y-124142200D03*
X118394300Y-124142200D03*
X119144300Y-124142200D03*
X119144300Y-122642200D03*
X119894300Y-122642200D03*
X117639800Y-124142200D03*
X116139800Y-124142200D03*
X116139800Y-122642200D03*
X117639800Y-122642200D03*
X116889800Y-124142200D03*
X116889800Y-122642200D03*
%TD*%
%TO.C,mouse-bite-2mm-slot*%
X97344300Y-122642200D03*
X98844300Y-124142200D03*
X97344300Y-124142200D03*
X98094300Y-124142200D03*
X98094300Y-122642200D03*
X98844300Y-122642200D03*
X96589800Y-124142200D03*
X95089800Y-124142200D03*
X95089800Y-122642200D03*
X96589800Y-122642200D03*
X95839800Y-124142200D03*
X95839800Y-122642200D03*
%TD*%
%TO.C,mouse-bite-2mm-slot*%
X76294300Y-122642200D03*
X77794300Y-124142200D03*
X76294300Y-124142200D03*
X77044300Y-124142200D03*
X77044300Y-122642200D03*
X77794300Y-122642200D03*
X75539800Y-124142200D03*
X74039800Y-124142200D03*
X74039800Y-122642200D03*
X75539800Y-122642200D03*
X74789800Y-124142200D03*
X74789800Y-122642200D03*
%TD*%
%TO.C,mouse-bite-2mm-slot*%
X55244300Y-122642200D03*
X56744300Y-124142200D03*
X55244300Y-124142200D03*
X55994300Y-124142200D03*
X55994300Y-122642200D03*
X56744300Y-122642200D03*
X54489800Y-124142200D03*
X52989800Y-124142200D03*
X52989800Y-122642200D03*
X54489800Y-122642200D03*
X53739800Y-124142200D03*
X53739800Y-122642200D03*
%TD*%
%TO.C,mouse-bite-2mm-slot*%
X139444300Y-101592200D03*
X140944300Y-103092200D03*
X139444300Y-103092200D03*
X140194300Y-103092200D03*
X140194300Y-101592200D03*
X140944300Y-101592200D03*
X138689800Y-103092200D03*
X137189800Y-103092200D03*
X137189800Y-101592200D03*
X138689800Y-101592200D03*
X137939800Y-103092200D03*
X137939800Y-101592200D03*
%TD*%
%TO.C,mouse-bite-2mm-slot*%
X118394300Y-101592200D03*
X119894300Y-103092200D03*
X118394300Y-103092200D03*
X119144300Y-103092200D03*
X119144300Y-101592200D03*
X119894300Y-101592200D03*
X117639800Y-103092200D03*
X116139800Y-103092200D03*
X116139800Y-101592200D03*
X117639800Y-101592200D03*
X116889800Y-103092200D03*
X116889800Y-101592200D03*
%TD*%
%TO.C,mouse-bite-2mm-slot*%
X97344300Y-101592200D03*
X98844300Y-103092200D03*
X97344300Y-103092200D03*
X98094300Y-103092200D03*
X98094300Y-101592200D03*
X98844300Y-101592200D03*
X96589800Y-103092200D03*
X95089800Y-103092200D03*
X95089800Y-101592200D03*
X96589800Y-101592200D03*
X95839800Y-103092200D03*
X95839800Y-101592200D03*
%TD*%
%TO.C,mouse-bite-2mm-slot*%
X76294300Y-101592200D03*
X77794300Y-103092200D03*
X76294300Y-103092200D03*
X77044300Y-103092200D03*
X77044300Y-101592200D03*
X77794300Y-101592200D03*
X75539800Y-103092200D03*
X74039800Y-103092200D03*
X74039800Y-101592200D03*
X75539800Y-101592200D03*
X74789800Y-103092200D03*
X74789800Y-101592200D03*
%TD*%
%TO.C,mouse-bite-2mm-slot*%
X55244300Y-101592200D03*
X56744300Y-103092200D03*
X55244300Y-103092200D03*
X55994300Y-103092200D03*
X55994300Y-101592200D03*
X56744300Y-101592200D03*
X54489800Y-103092200D03*
X52989800Y-103092200D03*
X52989800Y-101592200D03*
X54489800Y-101592200D03*
X53739800Y-103092200D03*
X53739800Y-101592200D03*
%TD*%
%TO.C,mouse-bite-2mm-slot*%
X139444300Y-80542200D03*
X140944300Y-82042200D03*
X139444300Y-82042200D03*
X140194300Y-82042200D03*
X140194300Y-80542200D03*
X140944300Y-80542200D03*
X138689800Y-82042200D03*
X137189800Y-82042200D03*
X137189800Y-80542200D03*
X138689800Y-80542200D03*
X137939800Y-82042200D03*
X137939800Y-80542200D03*
%TD*%
%TO.C,mouse-bite-2mm-slot*%
X118394300Y-80542200D03*
X119894300Y-82042200D03*
X118394300Y-82042200D03*
X119144300Y-82042200D03*
X119144300Y-80542200D03*
X119894300Y-80542200D03*
X117639800Y-82042200D03*
X116139800Y-82042200D03*
X116139800Y-80542200D03*
X117639800Y-80542200D03*
X116889800Y-82042200D03*
X116889800Y-80542200D03*
%TD*%
%TO.C,mouse-bite-2mm-slot*%
X97344300Y-80542200D03*
X98844300Y-82042200D03*
X97344300Y-82042200D03*
X98094300Y-82042200D03*
X98094300Y-80542200D03*
X98844300Y-80542200D03*
X96589800Y-82042200D03*
X95089800Y-82042200D03*
X95089800Y-80542200D03*
X96589800Y-80542200D03*
X95839800Y-82042200D03*
X95839800Y-80542200D03*
%TD*%
%TO.C,mouse-bite-2mm-slot*%
X76294300Y-80542200D03*
X77794300Y-82042200D03*
X76294300Y-82042200D03*
X77044300Y-82042200D03*
X77044300Y-80542200D03*
X77794300Y-80542200D03*
X75539800Y-82042200D03*
X74039800Y-82042200D03*
X74039800Y-80542200D03*
X75539800Y-80542200D03*
X74789800Y-82042200D03*
X74789800Y-80542200D03*
%TD*%
%TO.C,mouse-bite-2mm-slot*%
X55244300Y-80542200D03*
X56744300Y-82042200D03*
X55244300Y-82042200D03*
X55994300Y-82042200D03*
X55994300Y-80542200D03*
X56744300Y-80542200D03*
X54489800Y-82042200D03*
X52989800Y-82042200D03*
X52989800Y-80542200D03*
X54489800Y-80542200D03*
X53739800Y-82042200D03*
X53739800Y-80542200D03*
%TD*%
%TO.C,mouse-bite-2mm-slot*%
X139444300Y-59492200D03*
X140944300Y-60992200D03*
X139444300Y-60992200D03*
X140194300Y-60992200D03*
X140194300Y-59492200D03*
X140944300Y-59492200D03*
X138689800Y-60992200D03*
X137189800Y-60992200D03*
X137189800Y-59492200D03*
X138689800Y-59492200D03*
X137939800Y-60992200D03*
X137939800Y-59492200D03*
%TD*%
%TO.C,mouse-bite-2mm-slot*%
X118394300Y-59492200D03*
X119894300Y-60992200D03*
X118394300Y-60992200D03*
X119144300Y-60992200D03*
X119144300Y-59492200D03*
X119894300Y-59492200D03*
X117639800Y-60992200D03*
X116139800Y-60992200D03*
X116139800Y-59492200D03*
X117639800Y-59492200D03*
X116889800Y-60992200D03*
X116889800Y-59492200D03*
%TD*%
%TO.C,mouse-bite-2mm-slot*%
X97344300Y-59492200D03*
X98844300Y-60992200D03*
X97344300Y-60992200D03*
X98094300Y-60992200D03*
X98094300Y-59492200D03*
X98844300Y-59492200D03*
X96589800Y-60992200D03*
X95089800Y-60992200D03*
X95089800Y-59492200D03*
X96589800Y-59492200D03*
X95839800Y-60992200D03*
X95839800Y-59492200D03*
%TD*%
%TO.C,mouse-bite-2mm-slot*%
X76294300Y-59492200D03*
X77794300Y-60992200D03*
X76294300Y-60992200D03*
X77044300Y-60992200D03*
X77044300Y-59492200D03*
X77794300Y-59492200D03*
X75539800Y-60992200D03*
X74039800Y-60992200D03*
X74039800Y-59492200D03*
X75539800Y-59492200D03*
X74789800Y-60992200D03*
X74789800Y-59492200D03*
%TD*%
%TO.C,mouse-bite-2mm-slot*%
X55244300Y-59492200D03*
X56744300Y-60992200D03*
X55244300Y-60992200D03*
X55994300Y-60992200D03*
X55994300Y-59492200D03*
X56744300Y-59492200D03*
X54489800Y-60992200D03*
X52989800Y-60992200D03*
X52989800Y-59492200D03*
X54489800Y-59492200D03*
X53739800Y-60992200D03*
X53739800Y-59492200D03*
%TD*%
%TO.C,mouse-bite-2mm-slot*%
X139444300Y-38442200D03*
X140944300Y-39942200D03*
X139444300Y-39942200D03*
X140194300Y-39942200D03*
X140194300Y-38442200D03*
X140944300Y-38442200D03*
X138689800Y-39942200D03*
X137189800Y-39942200D03*
X137189800Y-38442200D03*
X138689800Y-38442200D03*
X137939800Y-39942200D03*
X137939800Y-38442200D03*
%TD*%
%TO.C,mouse-bite-2mm-slot*%
X118394300Y-38442200D03*
X119894300Y-39942200D03*
X118394300Y-39942200D03*
X119144300Y-39942200D03*
X119144300Y-38442200D03*
X119894300Y-38442200D03*
X117639800Y-39942200D03*
X116139800Y-39942200D03*
X116139800Y-38442200D03*
X117639800Y-38442200D03*
X116889800Y-39942200D03*
X116889800Y-38442200D03*
%TD*%
%TO.C,mouse-bite-2mm-slot*%
X97344300Y-38442200D03*
X98844300Y-39942200D03*
X97344300Y-39942200D03*
X98094300Y-39942200D03*
X98094300Y-38442200D03*
X98844300Y-38442200D03*
X96589800Y-39942200D03*
X95089800Y-39942200D03*
X95089800Y-38442200D03*
X96589800Y-38442200D03*
X95839800Y-39942200D03*
X95839800Y-38442200D03*
%TD*%
%TO.C,mouse-bite-2mm-slot*%
X76294300Y-38442200D03*
X77794300Y-39942200D03*
X76294300Y-39942200D03*
X77044300Y-39942200D03*
X77044300Y-38442200D03*
X77794300Y-38442200D03*
X75539800Y-39942200D03*
X74039800Y-39942200D03*
X74039800Y-38442200D03*
X75539800Y-38442200D03*
X74789800Y-39942200D03*
X74789800Y-38442200D03*
%TD*%
%TO.C,mouse-bite-2mm-slot*%
X53739800Y-38442200D03*
X53739800Y-39942200D03*
X54489800Y-38442200D03*
X52989800Y-38442200D03*
X52989800Y-39942200D03*
X54489800Y-39942200D03*
X56744300Y-38442200D03*
X55994300Y-38442200D03*
X55994300Y-39942200D03*
X55244300Y-39942200D03*
X56744300Y-39942200D03*
X55244300Y-38442200D03*
%TD*%
M02*
