%TF.GenerationSoftware,KiCad,Pcbnew,(5.1.9)-1*%
%TF.CreationDate,2021-09-16T12:17:46+02:00*%
%TF.ProjectId,kb_panel,6b625f70-616e-4656-9c2e-6b696361645f,rev?*%
%TF.SameCoordinates,Original*%
%TF.FileFunction,Profile,NP*%
%FSLAX46Y46*%
G04 Gerber Fmt 4.6, Leading zero omitted, Abs format (unit mm)*
G04 Created by KiCad (PCBNEW (5.1.9)-1) date 2021-09-16 12:17:46*
%MOMM*%
%LPD*%
G01*
G04 APERTURE LIST*
%TA.AperFunction,Profile*%
%ADD10C,0.050000*%
%TD*%
G04 APERTURE END LIST*
D10*
X143242547Y-141147052D02*
X134860547Y-141147052D01*
X122192547Y-141147052D02*
X113810547Y-141147052D01*
X101142547Y-141147052D02*
X92760547Y-141147052D01*
X80092547Y-141147052D02*
X71710547Y-141147052D01*
X59042547Y-141147052D02*
X50660547Y-141147052D01*
X143242547Y-120097052D02*
X134860547Y-120097052D01*
X122192547Y-120097052D02*
X113810547Y-120097052D01*
X101142547Y-120097052D02*
X92760547Y-120097052D01*
X80092547Y-120097052D02*
X71710547Y-120097052D01*
X59042547Y-120097052D02*
X50660547Y-120097052D01*
X143242547Y-99047052D02*
X134860547Y-99047052D01*
X122192547Y-99047052D02*
X113810547Y-99047052D01*
X101142547Y-99047052D02*
X92760547Y-99047052D01*
X80092547Y-99047052D02*
X71710547Y-99047052D01*
X59042547Y-99047052D02*
X50660547Y-99047052D01*
X143242547Y-77997052D02*
X134860547Y-77997052D01*
X122192547Y-77997052D02*
X113810547Y-77997052D01*
X101142547Y-77997052D02*
X92760547Y-77997052D01*
X80092547Y-77997052D02*
X71710547Y-77997052D01*
X59042547Y-77997052D02*
X50660547Y-77997052D01*
X143242547Y-56947052D02*
X134860547Y-56947052D01*
X122192547Y-56947052D02*
X113810547Y-56947052D01*
X101142547Y-56947052D02*
X92760547Y-56947052D01*
X80092547Y-56947052D02*
X71710547Y-56947052D01*
X143242547Y-139369052D02*
G75*
G02*
X143242547Y-141147052I0J-889000D01*
G01*
X122192547Y-139369052D02*
G75*
G02*
X122192547Y-141147052I0J-889000D01*
G01*
X101142547Y-139369052D02*
G75*
G02*
X101142547Y-141147052I0J-889000D01*
G01*
X80092547Y-139369052D02*
G75*
G02*
X80092547Y-141147052I0J-889000D01*
G01*
X59042547Y-139369052D02*
G75*
G02*
X59042547Y-141147052I0J-889000D01*
G01*
X143242547Y-118319052D02*
G75*
G02*
X143242547Y-120097052I0J-889000D01*
G01*
X122192547Y-118319052D02*
G75*
G02*
X122192547Y-120097052I0J-889000D01*
G01*
X101142547Y-118319052D02*
G75*
G02*
X101142547Y-120097052I0J-889000D01*
G01*
X80092547Y-118319052D02*
G75*
G02*
X80092547Y-120097052I0J-889000D01*
G01*
X59042547Y-118319052D02*
G75*
G02*
X59042547Y-120097052I0J-889000D01*
G01*
X143242547Y-97269052D02*
G75*
G02*
X143242547Y-99047052I0J-889000D01*
G01*
X122192547Y-97269052D02*
G75*
G02*
X122192547Y-99047052I0J-889000D01*
G01*
X101142547Y-97269052D02*
G75*
G02*
X101142547Y-99047052I0J-889000D01*
G01*
X80092547Y-97269052D02*
G75*
G02*
X80092547Y-99047052I0J-889000D01*
G01*
X59042547Y-97269052D02*
G75*
G02*
X59042547Y-99047052I0J-889000D01*
G01*
X143242547Y-76219052D02*
G75*
G02*
X143242547Y-77997052I0J-889000D01*
G01*
X122192547Y-76219052D02*
G75*
G02*
X122192547Y-77997052I0J-889000D01*
G01*
X101142547Y-76219052D02*
G75*
G02*
X101142547Y-77997052I0J-889000D01*
G01*
X80092547Y-76219052D02*
G75*
G02*
X80092547Y-77997052I0J-889000D01*
G01*
X59042547Y-76219052D02*
G75*
G02*
X59042547Y-77997052I0J-889000D01*
G01*
X143242547Y-55169052D02*
G75*
G02*
X143242547Y-56947052I0J-889000D01*
G01*
X122192547Y-55169052D02*
G75*
G02*
X122192547Y-56947052I0J-889000D01*
G01*
X101142547Y-55169052D02*
G75*
G02*
X101142547Y-56947052I0J-889000D01*
G01*
X80092547Y-55169052D02*
G75*
G02*
X80092547Y-56947052I0J-889000D01*
G01*
X134860547Y-141147052D02*
G75*
G02*
X134860547Y-139369052I0J889000D01*
G01*
X113810547Y-141147052D02*
G75*
G02*
X113810547Y-139369052I0J889000D01*
G01*
X92760547Y-141147052D02*
G75*
G02*
X92760547Y-139369052I0J889000D01*
G01*
X71710547Y-141147052D02*
G75*
G02*
X71710547Y-139369052I0J889000D01*
G01*
X50660547Y-141147052D02*
G75*
G02*
X50660547Y-139369052I0J889000D01*
G01*
X134860547Y-120097052D02*
G75*
G02*
X134860547Y-118319052I0J889000D01*
G01*
X113810547Y-120097052D02*
G75*
G02*
X113810547Y-118319052I0J889000D01*
G01*
X92760547Y-120097052D02*
G75*
G02*
X92760547Y-118319052I0J889000D01*
G01*
X71710547Y-120097052D02*
G75*
G02*
X71710547Y-118319052I0J889000D01*
G01*
X50660547Y-120097052D02*
G75*
G02*
X50660547Y-118319052I0J889000D01*
G01*
X134860547Y-99047052D02*
G75*
G02*
X134860547Y-97269052I0J889000D01*
G01*
X113810547Y-99047052D02*
G75*
G02*
X113810547Y-97269052I0J889000D01*
G01*
X92760547Y-99047052D02*
G75*
G02*
X92760547Y-97269052I0J889000D01*
G01*
X71710547Y-99047052D02*
G75*
G02*
X71710547Y-97269052I0J889000D01*
G01*
X50660547Y-99047052D02*
G75*
G02*
X50660547Y-97269052I0J889000D01*
G01*
X134860547Y-77997052D02*
G75*
G02*
X134860547Y-76219052I0J889000D01*
G01*
X113810547Y-77997052D02*
G75*
G02*
X113810547Y-76219052I0J889000D01*
G01*
X92760547Y-77997052D02*
G75*
G02*
X92760547Y-76219052I0J889000D01*
G01*
X71710547Y-77997052D02*
G75*
G02*
X71710547Y-76219052I0J889000D01*
G01*
X50660547Y-77997052D02*
G75*
G02*
X50660547Y-76219052I0J889000D01*
G01*
X134860547Y-56947052D02*
G75*
G02*
X134860547Y-55169052I0J889000D01*
G01*
X113810547Y-56947052D02*
G75*
G02*
X113810547Y-55169052I0J889000D01*
G01*
X92760547Y-56947052D02*
G75*
G02*
X92760547Y-55169052I0J889000D01*
G01*
X71710547Y-56947052D02*
G75*
G02*
X71710547Y-55169052I0J889000D01*
G01*
X143242547Y-139369052D02*
X134860547Y-139369052D01*
X122192547Y-139369052D02*
X113810547Y-139369052D01*
X101142547Y-139369052D02*
X92760547Y-139369052D01*
X80092547Y-139369052D02*
X71710547Y-139369052D01*
X59042547Y-139369052D02*
X50660547Y-139369052D01*
X143242547Y-118319052D02*
X134860547Y-118319052D01*
X122192547Y-118319052D02*
X113810547Y-118319052D01*
X101142547Y-118319052D02*
X92760547Y-118319052D01*
X80092547Y-118319052D02*
X71710547Y-118319052D01*
X59042547Y-118319052D02*
X50660547Y-118319052D01*
X143242547Y-97269052D02*
X134860547Y-97269052D01*
X122192547Y-97269052D02*
X113810547Y-97269052D01*
X101142547Y-97269052D02*
X92760547Y-97269052D01*
X80092547Y-97269052D02*
X71710547Y-97269052D01*
X59042547Y-97269052D02*
X50660547Y-97269052D01*
X143242547Y-76219052D02*
X134860547Y-76219052D01*
X122192547Y-76219052D02*
X113810547Y-76219052D01*
X101142547Y-76219052D02*
X92760547Y-76219052D01*
X80092547Y-76219052D02*
X71710547Y-76219052D01*
X59042547Y-76219052D02*
X50660547Y-76219052D01*
X143242547Y-55169052D02*
X134860547Y-55169052D01*
X122192547Y-55169052D02*
X113810547Y-55169052D01*
X101142547Y-55169052D02*
X92760547Y-55169052D01*
X80092547Y-55169052D02*
X71710547Y-55169052D01*
X59042547Y-56947052D02*
X50660547Y-56947052D01*
X50660547Y-56947052D02*
G75*
G02*
X50660547Y-55169052I0J889000D01*
G01*
X59042547Y-55169052D02*
G75*
G02*
X59042547Y-56947052I0J-889000D01*
G01*
X59042547Y-55169052D02*
X50660547Y-55169052D01*
X45351500Y-148433000D02*
X148601500Y-148433000D01*
X45351500Y-145433000D02*
X51801500Y-145433000D01*
X57926500Y-145433000D02*
X72851500Y-145433000D01*
X78976500Y-145433000D02*
X93901500Y-145433000D01*
X45351500Y-145433000D02*
X45351500Y-148433000D01*
X48601500Y-146933000D02*
G75*
G03*
X48601500Y-146933000I-1000000J0D01*
G01*
X121076500Y-145433000D02*
X127551500Y-145433000D01*
X142126500Y-145433000D02*
X148601500Y-145433000D01*
X129551500Y-145433000D02*
X127551500Y-145433000D01*
X100026500Y-145433000D02*
X114951500Y-145433000D01*
X129551500Y-145433000D02*
X136001500Y-145433000D01*
X148601500Y-145433000D02*
X148601500Y-148433000D01*
X147351500Y-146933000D02*
G75*
G03*
X147351500Y-146933000I-1000000J0D01*
G01*
X136001500Y-38183000D02*
X121076500Y-38183000D01*
X114951500Y-38183000D02*
X100026500Y-38183000D01*
X148576500Y-38183000D02*
X148576500Y-35183000D01*
X148576500Y-35183000D02*
X45326500Y-35183000D01*
X148576500Y-38183000D02*
X142126500Y-38183000D01*
X147326500Y-36683000D02*
G75*
G03*
X147326500Y-36683000I-1000000J0D01*
G01*
X148576500Y-40183000D02*
X148576500Y-59233000D01*
X129526500Y-59233000D02*
X129526500Y-40183000D01*
X148576500Y-143433000D02*
X142126500Y-143433000D01*
X148576500Y-124383000D02*
X142126500Y-124383000D01*
X136001500Y-124383000D02*
X129526500Y-124383000D01*
X129526500Y-143433000D02*
X129526500Y-124383000D01*
X136001500Y-143433000D02*
X129526500Y-143433000D01*
X136001500Y-122383000D02*
G75*
G02*
X136001500Y-124383000I0J-1000000D01*
G01*
X142126500Y-124383000D02*
G75*
G02*
X142126500Y-122383000I0J1000000D01*
G01*
X148576500Y-124383000D02*
X148576500Y-143433000D01*
X148576500Y-61233000D02*
X142126500Y-61233000D01*
X148576500Y-80283000D02*
X142126500Y-80283000D01*
X142126500Y-61233000D02*
G75*
G02*
X142126500Y-59233000I0J1000000D01*
G01*
X136001500Y-61233000D02*
X129526500Y-61233000D01*
X136001500Y-59233000D02*
G75*
G02*
X136001500Y-61233000I0J-1000000D01*
G01*
X136001500Y-59233000D02*
X129526500Y-59233000D01*
X148576500Y-59233000D02*
X142126500Y-59233000D01*
X142126500Y-40183000D02*
G75*
G02*
X142126500Y-38183000I0J1000000D01*
G01*
X136001500Y-40183000D02*
X129526500Y-40183000D01*
X136001500Y-143433000D02*
G75*
G02*
X136001500Y-145433000I0J-1000000D01*
G01*
X142126500Y-145433000D02*
G75*
G02*
X142126500Y-143433000I0J1000000D01*
G01*
X136001500Y-38183000D02*
G75*
G02*
X136001500Y-40183000I0J-1000000D01*
G01*
X148576500Y-40183000D02*
X142126500Y-40183000D01*
X148576500Y-61233000D02*
X148576500Y-80283000D01*
X129526500Y-80283000D02*
X129526500Y-61233000D01*
X136001500Y-80283000D02*
X129526500Y-80283000D01*
X148576500Y-82283000D02*
X148576500Y-101333000D01*
X136001500Y-103333000D02*
X129526500Y-103333000D01*
X148576500Y-103333000D02*
X148576500Y-122383000D01*
X136001500Y-122383000D02*
X129526500Y-122383000D01*
X142126500Y-103333000D02*
G75*
G02*
X142126500Y-101333000I0J1000000D01*
G01*
X136001500Y-101333000D02*
G75*
G02*
X136001500Y-103333000I0J-1000000D01*
G01*
X148576500Y-122383000D02*
X142126500Y-122383000D01*
X148576500Y-103333000D02*
X142126500Y-103333000D01*
X129526500Y-101333000D02*
X129526500Y-82283000D01*
X129526500Y-122383000D02*
X129526500Y-103333000D01*
X142126500Y-82283000D02*
G75*
G02*
X142126500Y-80283000I0J1000000D01*
G01*
X148576500Y-82283000D02*
X142126500Y-82283000D01*
X148576500Y-101333000D02*
X142126500Y-101333000D01*
X136001500Y-80283000D02*
G75*
G02*
X136001500Y-82283000I0J-1000000D01*
G01*
X136001500Y-101333000D02*
X129526500Y-101333000D01*
X136001500Y-82283000D02*
X129526500Y-82283000D01*
X127526500Y-40183000D02*
X127526500Y-59233000D01*
X108476500Y-59233000D02*
X108476500Y-40183000D01*
X127526500Y-143433000D02*
X121076500Y-143433000D01*
X127526500Y-124383000D02*
X121076500Y-124383000D01*
X114951500Y-124383000D02*
X108476500Y-124383000D01*
X108476500Y-143433000D02*
X108476500Y-124383000D01*
X114951500Y-143433000D02*
X108476500Y-143433000D01*
X114951500Y-122383000D02*
G75*
G02*
X114951500Y-124383000I0J-1000000D01*
G01*
X121076500Y-124383000D02*
G75*
G02*
X121076500Y-122383000I0J1000000D01*
G01*
X127526500Y-124383000D02*
X127526500Y-143433000D01*
X127526500Y-61233000D02*
X121076500Y-61233000D01*
X127526500Y-80283000D02*
X121076500Y-80283000D01*
X121076500Y-61233000D02*
G75*
G02*
X121076500Y-59233000I0J1000000D01*
G01*
X114951500Y-61233000D02*
X108476500Y-61233000D01*
X114951500Y-59233000D02*
G75*
G02*
X114951500Y-61233000I0J-1000000D01*
G01*
X114951500Y-59233000D02*
X108476500Y-59233000D01*
X127526500Y-59233000D02*
X121076500Y-59233000D01*
X121076500Y-40183000D02*
G75*
G02*
X121076500Y-38183000I0J1000000D01*
G01*
X114951500Y-40183000D02*
X108476500Y-40183000D01*
X114951500Y-143433000D02*
G75*
G02*
X114951500Y-145433000I0J-1000000D01*
G01*
X121076500Y-145433000D02*
G75*
G02*
X121076500Y-143433000I0J1000000D01*
G01*
X114951500Y-38183000D02*
G75*
G02*
X114951500Y-40183000I0J-1000000D01*
G01*
X127526500Y-40183000D02*
X121076500Y-40183000D01*
X127526500Y-61233000D02*
X127526500Y-80283000D01*
X108476500Y-80283000D02*
X108476500Y-61233000D01*
X114951500Y-80283000D02*
X108476500Y-80283000D01*
X127526500Y-82283000D02*
X127526500Y-101333000D01*
X114951500Y-103333000D02*
X108476500Y-103333000D01*
X127526500Y-103333000D02*
X127526500Y-122383000D01*
X114951500Y-122383000D02*
X108476500Y-122383000D01*
X121076500Y-103333000D02*
G75*
G02*
X121076500Y-101333000I0J1000000D01*
G01*
X114951500Y-101333000D02*
G75*
G02*
X114951500Y-103333000I0J-1000000D01*
G01*
X127526500Y-122383000D02*
X121076500Y-122383000D01*
X127526500Y-103333000D02*
X121076500Y-103333000D01*
X108476500Y-101333000D02*
X108476500Y-82283000D01*
X108476500Y-122383000D02*
X108476500Y-103333000D01*
X121076500Y-82283000D02*
G75*
G02*
X121076500Y-80283000I0J1000000D01*
G01*
X127526500Y-82283000D02*
X121076500Y-82283000D01*
X127526500Y-101333000D02*
X121076500Y-101333000D01*
X114951500Y-80283000D02*
G75*
G02*
X114951500Y-82283000I0J-1000000D01*
G01*
X114951500Y-101333000D02*
X108476500Y-101333000D01*
X114951500Y-82283000D02*
X108476500Y-82283000D01*
X106476500Y-40183000D02*
X106476500Y-59233000D01*
X87426500Y-59233000D02*
X87426500Y-40183000D01*
X106476500Y-143433000D02*
X100026500Y-143433000D01*
X106476500Y-124383000D02*
X100026500Y-124383000D01*
X93901500Y-124383000D02*
X87426500Y-124383000D01*
X87426500Y-143433000D02*
X87426500Y-124383000D01*
X93901500Y-143433000D02*
X87426500Y-143433000D01*
X93901500Y-122383000D02*
G75*
G02*
X93901500Y-124383000I0J-1000000D01*
G01*
X100026500Y-124383000D02*
G75*
G02*
X100026500Y-122383000I0J1000000D01*
G01*
X106476500Y-124383000D02*
X106476500Y-143433000D01*
X106476500Y-61233000D02*
X100026500Y-61233000D01*
X106476500Y-80283000D02*
X100026500Y-80283000D01*
X100026500Y-61233000D02*
G75*
G02*
X100026500Y-59233000I0J1000000D01*
G01*
X93901500Y-61233000D02*
X87426500Y-61233000D01*
X93901500Y-59233000D02*
G75*
G02*
X93901500Y-61233000I0J-1000000D01*
G01*
X93901500Y-59233000D02*
X87426500Y-59233000D01*
X106476500Y-59233000D02*
X100026500Y-59233000D01*
X100026500Y-40183000D02*
G75*
G02*
X100026500Y-38183000I0J1000000D01*
G01*
X93901500Y-40183000D02*
X87426500Y-40183000D01*
X93901500Y-143433000D02*
G75*
G02*
X93901500Y-145433000I0J-1000000D01*
G01*
X100026500Y-145433000D02*
G75*
G02*
X100026500Y-143433000I0J1000000D01*
G01*
X93901500Y-38183000D02*
G75*
G02*
X93901500Y-40183000I0J-1000000D01*
G01*
X106476500Y-40183000D02*
X100026500Y-40183000D01*
X106476500Y-61233000D02*
X106476500Y-80283000D01*
X87426500Y-80283000D02*
X87426500Y-61233000D01*
X93901500Y-80283000D02*
X87426500Y-80283000D01*
X106476500Y-82283000D02*
X106476500Y-101333000D01*
X93901500Y-103333000D02*
X87426500Y-103333000D01*
X106476500Y-103333000D02*
X106476500Y-122383000D01*
X93901500Y-122383000D02*
X87426500Y-122383000D01*
X100026500Y-103333000D02*
G75*
G02*
X100026500Y-101333000I0J1000000D01*
G01*
X93901500Y-101333000D02*
G75*
G02*
X93901500Y-103333000I0J-1000000D01*
G01*
X106476500Y-122383000D02*
X100026500Y-122383000D01*
X106476500Y-103333000D02*
X100026500Y-103333000D01*
X87426500Y-101333000D02*
X87426500Y-82283000D01*
X87426500Y-122383000D02*
X87426500Y-103333000D01*
X100026500Y-82283000D02*
G75*
G02*
X100026500Y-80283000I0J1000000D01*
G01*
X106476500Y-82283000D02*
X100026500Y-82283000D01*
X106476500Y-101333000D02*
X100026500Y-101333000D01*
X93901500Y-80283000D02*
G75*
G02*
X93901500Y-82283000I0J-1000000D01*
G01*
X93901500Y-101333000D02*
X87426500Y-101333000D01*
X93901500Y-82283000D02*
X87426500Y-82283000D01*
X57926500Y-145433000D02*
G75*
G02*
X57926500Y-143433000I0J1000000D01*
G01*
X72851500Y-143433000D02*
G75*
G02*
X72851500Y-145433000I0J-1000000D01*
G01*
X78976500Y-145433000D02*
G75*
G02*
X78976500Y-143433000I0J1000000D01*
G01*
X51801500Y-143433000D02*
G75*
G02*
X51801500Y-145433000I0J-1000000D01*
G01*
X64376500Y-124383000D02*
X64376500Y-143433000D01*
X85426500Y-124383000D02*
X85426500Y-143433000D01*
X66376500Y-143433000D02*
X66376500Y-124383000D01*
X45326500Y-143433000D02*
X45326500Y-124383000D01*
X72851500Y-143433000D02*
X66376500Y-143433000D01*
X85426500Y-143433000D02*
X78976500Y-143433000D01*
X78976500Y-124383000D02*
G75*
G02*
X78976500Y-122383000I0J1000000D01*
G01*
X72851500Y-124383000D02*
X66376500Y-124383000D01*
X57926500Y-124383000D02*
G75*
G02*
X57926500Y-122383000I0J1000000D01*
G01*
X64376500Y-124383000D02*
X57926500Y-124383000D01*
X64376500Y-143433000D02*
X57926500Y-143433000D01*
X72851500Y-122383000D02*
G75*
G02*
X72851500Y-124383000I0J-1000000D01*
G01*
X85426500Y-124383000D02*
X78976500Y-124383000D01*
X51801500Y-143433000D02*
X45326500Y-143433000D01*
X51801500Y-124383000D02*
X45326500Y-124383000D01*
X51801500Y-122383000D02*
G75*
G02*
X51801500Y-124383000I0J-1000000D01*
G01*
X64376500Y-103333000D02*
X64376500Y-122383000D01*
X85426500Y-103333000D02*
X85426500Y-122383000D01*
X66376500Y-122383000D02*
X66376500Y-103333000D01*
X45326500Y-122383000D02*
X45326500Y-103333000D01*
X72851500Y-122383000D02*
X66376500Y-122383000D01*
X85426500Y-122383000D02*
X78976500Y-122383000D01*
X78976500Y-103333000D02*
G75*
G02*
X78976500Y-101333000I0J1000000D01*
G01*
X72851500Y-103333000D02*
X66376500Y-103333000D01*
X57926500Y-103333000D02*
G75*
G02*
X57926500Y-101333000I0J1000000D01*
G01*
X64376500Y-103333000D02*
X57926500Y-103333000D01*
X64376500Y-122383000D02*
X57926500Y-122383000D01*
X72851500Y-101333000D02*
G75*
G02*
X72851500Y-103333000I0J-1000000D01*
G01*
X85426500Y-103333000D02*
X78976500Y-103333000D01*
X51801500Y-122383000D02*
X45326500Y-122383000D01*
X51801500Y-103333000D02*
X45326500Y-103333000D01*
X51801500Y-101333000D02*
G75*
G02*
X51801500Y-103333000I0J-1000000D01*
G01*
X64376500Y-82283000D02*
X64376500Y-101333000D01*
X85426500Y-82283000D02*
X85426500Y-101333000D01*
X66376500Y-101333000D02*
X66376500Y-82283000D01*
X45326500Y-101333000D02*
X45326500Y-82283000D01*
X72851500Y-101333000D02*
X66376500Y-101333000D01*
X85426500Y-101333000D02*
X78976500Y-101333000D01*
X78976500Y-82283000D02*
G75*
G02*
X78976500Y-80283000I0J1000000D01*
G01*
X72851500Y-82283000D02*
X66376500Y-82283000D01*
X57926500Y-82283000D02*
G75*
G02*
X57926500Y-80283000I0J1000000D01*
G01*
X64376500Y-82283000D02*
X57926500Y-82283000D01*
X64376500Y-101333000D02*
X57926500Y-101333000D01*
X72851500Y-80283000D02*
G75*
G02*
X72851500Y-82283000I0J-1000000D01*
G01*
X85426500Y-82283000D02*
X78976500Y-82283000D01*
X51801500Y-101333000D02*
X45326500Y-101333000D01*
X51801500Y-82283000D02*
X45326500Y-82283000D01*
X51801500Y-80283000D02*
G75*
G02*
X51801500Y-82283000I0J-1000000D01*
G01*
X64376500Y-61233000D02*
X64376500Y-80283000D01*
X85426500Y-61233000D02*
X85426500Y-80283000D01*
X66376500Y-80283000D02*
X66376500Y-61233000D01*
X45326500Y-80283000D02*
X45326500Y-61233000D01*
X72851500Y-80283000D02*
X66376500Y-80283000D01*
X85426500Y-80283000D02*
X78976500Y-80283000D01*
X78976500Y-61233000D02*
G75*
G02*
X78976500Y-59233000I0J1000000D01*
G01*
X72851500Y-61233000D02*
X66376500Y-61233000D01*
X57926500Y-61233000D02*
G75*
G02*
X57926500Y-59233000I0J1000000D01*
G01*
X64376500Y-61233000D02*
X57926500Y-61233000D01*
X64376500Y-80283000D02*
X57926500Y-80283000D01*
X72851500Y-59233000D02*
G75*
G02*
X72851500Y-61233000I0J-1000000D01*
G01*
X85426500Y-61233000D02*
X78976500Y-61233000D01*
X51801500Y-80283000D02*
X45326500Y-80283000D01*
X51801500Y-61233000D02*
X45326500Y-61233000D01*
X51801500Y-59233000D02*
G75*
G02*
X51801500Y-61233000I0J-1000000D01*
G01*
X48576500Y-36683000D02*
G75*
G03*
X48576500Y-36683000I-1000000J0D01*
G01*
X45326500Y-38183000D02*
X45326500Y-35183000D01*
X64376500Y-38183000D02*
X66376500Y-38183000D01*
X51801500Y-38183000D02*
X45326500Y-38183000D01*
X64376500Y-38183000D02*
X57926500Y-38183000D01*
X72851500Y-38183000D02*
X66376500Y-38183000D01*
X93901500Y-38183000D02*
X78976500Y-38183000D01*
X51801500Y-59233000D02*
X45326500Y-59233000D01*
X64376500Y-59233000D02*
X57926500Y-59233000D01*
X64376500Y-40183000D02*
X57926500Y-40183000D01*
X51801500Y-38183000D02*
G75*
G02*
X51801500Y-40183000I0J-1000000D01*
G01*
X57926500Y-40183000D02*
G75*
G02*
X57926500Y-38183000I0J1000000D01*
G01*
X51801500Y-40183000D02*
X45326500Y-40183000D01*
X85426500Y-40183000D02*
X78976500Y-40183000D01*
X72851500Y-38183000D02*
G75*
G02*
X72851500Y-40183000I0J-1000000D01*
G01*
X78976500Y-40183000D02*
G75*
G02*
X78976500Y-38183000I0J1000000D01*
G01*
X72851500Y-40183000D02*
X66376500Y-40183000D01*
X85426500Y-59233000D02*
X78976500Y-59233000D01*
X72851500Y-59233000D02*
X66376500Y-59233000D01*
X85426500Y-40183000D02*
X85426500Y-59233000D01*
X66376500Y-59233000D02*
X66376500Y-40183000D01*
X64376500Y-40183000D02*
X64376500Y-59233000D01*
X45326500Y-59233000D02*
X45326500Y-40183000D01*
M02*
