%TF.GenerationSoftware,KiCad,Pcbnew,(5.1.9)-1*%
%TF.CreationDate,2021-09-16T12:17:46+02:00*%
%TF.ProjectId,kb_panel,6b625f70-616e-4656-9c2e-6b696361645f,rev?*%
%TF.SameCoordinates,Original*%
%TF.FileFunction,Paste,Bot*%
%TF.FilePolarity,Positive*%
%FSLAX46Y46*%
G04 Gerber Fmt 4.6, Leading zero omitted, Abs format (unit mm)*
G04 Created by KiCad (PCBNEW (5.1.9)-1) date 2021-09-16 12:17:46*
%MOMM*%
%LPD*%
G01*
G04 APERTURE LIST*
%ADD10R,0.600000X0.450000*%
%ADD11C,0.127000*%
%ADD12R,2.000000X1.500000*%
%ADD13R,0.300000X1.150000*%
%ADD14R,0.300000X0.650000*%
G04 APERTURE END LIST*
%TO.C,C5*%
G36*
G01*
X136612547Y-130649052D02*
X136612547Y-130309052D01*
G75*
G02*
X136752547Y-130169052I140000J0D01*
G01*
X137032547Y-130169052D01*
G75*
G02*
X137172547Y-130309052I0J-140000D01*
G01*
X137172547Y-130649052D01*
G75*
G02*
X137032547Y-130789052I-140000J0D01*
G01*
X136752547Y-130789052D01*
G75*
G02*
X136612547Y-130649052I0J140000D01*
G01*
G37*
G36*
G01*
X135652547Y-130649052D02*
X135652547Y-130309052D01*
G75*
G02*
X135792547Y-130169052I140000J0D01*
G01*
X136072547Y-130169052D01*
G75*
G02*
X136212547Y-130309052I0J-140000D01*
G01*
X136212547Y-130649052D01*
G75*
G02*
X136072547Y-130789052I-140000J0D01*
G01*
X135792547Y-130789052D01*
G75*
G02*
X135652547Y-130649052I0J140000D01*
G01*
G37*
%TD*%
%TO.C,C5*%
G36*
G01*
X115562547Y-130649052D02*
X115562547Y-130309052D01*
G75*
G02*
X115702547Y-130169052I140000J0D01*
G01*
X115982547Y-130169052D01*
G75*
G02*
X116122547Y-130309052I0J-140000D01*
G01*
X116122547Y-130649052D01*
G75*
G02*
X115982547Y-130789052I-140000J0D01*
G01*
X115702547Y-130789052D01*
G75*
G02*
X115562547Y-130649052I0J140000D01*
G01*
G37*
G36*
G01*
X114602547Y-130649052D02*
X114602547Y-130309052D01*
G75*
G02*
X114742547Y-130169052I140000J0D01*
G01*
X115022547Y-130169052D01*
G75*
G02*
X115162547Y-130309052I0J-140000D01*
G01*
X115162547Y-130649052D01*
G75*
G02*
X115022547Y-130789052I-140000J0D01*
G01*
X114742547Y-130789052D01*
G75*
G02*
X114602547Y-130649052I0J140000D01*
G01*
G37*
%TD*%
%TO.C,C5*%
G36*
G01*
X94512547Y-130649052D02*
X94512547Y-130309052D01*
G75*
G02*
X94652547Y-130169052I140000J0D01*
G01*
X94932547Y-130169052D01*
G75*
G02*
X95072547Y-130309052I0J-140000D01*
G01*
X95072547Y-130649052D01*
G75*
G02*
X94932547Y-130789052I-140000J0D01*
G01*
X94652547Y-130789052D01*
G75*
G02*
X94512547Y-130649052I0J140000D01*
G01*
G37*
G36*
G01*
X93552547Y-130649052D02*
X93552547Y-130309052D01*
G75*
G02*
X93692547Y-130169052I140000J0D01*
G01*
X93972547Y-130169052D01*
G75*
G02*
X94112547Y-130309052I0J-140000D01*
G01*
X94112547Y-130649052D01*
G75*
G02*
X93972547Y-130789052I-140000J0D01*
G01*
X93692547Y-130789052D01*
G75*
G02*
X93552547Y-130649052I0J140000D01*
G01*
G37*
%TD*%
%TO.C,C5*%
G36*
G01*
X73462547Y-130649052D02*
X73462547Y-130309052D01*
G75*
G02*
X73602547Y-130169052I140000J0D01*
G01*
X73882547Y-130169052D01*
G75*
G02*
X74022547Y-130309052I0J-140000D01*
G01*
X74022547Y-130649052D01*
G75*
G02*
X73882547Y-130789052I-140000J0D01*
G01*
X73602547Y-130789052D01*
G75*
G02*
X73462547Y-130649052I0J140000D01*
G01*
G37*
G36*
G01*
X72502547Y-130649052D02*
X72502547Y-130309052D01*
G75*
G02*
X72642547Y-130169052I140000J0D01*
G01*
X72922547Y-130169052D01*
G75*
G02*
X73062547Y-130309052I0J-140000D01*
G01*
X73062547Y-130649052D01*
G75*
G02*
X72922547Y-130789052I-140000J0D01*
G01*
X72642547Y-130789052D01*
G75*
G02*
X72502547Y-130649052I0J140000D01*
G01*
G37*
%TD*%
%TO.C,C5*%
G36*
G01*
X52412547Y-130649052D02*
X52412547Y-130309052D01*
G75*
G02*
X52552547Y-130169052I140000J0D01*
G01*
X52832547Y-130169052D01*
G75*
G02*
X52972547Y-130309052I0J-140000D01*
G01*
X52972547Y-130649052D01*
G75*
G02*
X52832547Y-130789052I-140000J0D01*
G01*
X52552547Y-130789052D01*
G75*
G02*
X52412547Y-130649052I0J140000D01*
G01*
G37*
G36*
G01*
X51452547Y-130649052D02*
X51452547Y-130309052D01*
G75*
G02*
X51592547Y-130169052I140000J0D01*
G01*
X51872547Y-130169052D01*
G75*
G02*
X52012547Y-130309052I0J-140000D01*
G01*
X52012547Y-130649052D01*
G75*
G02*
X51872547Y-130789052I-140000J0D01*
G01*
X51592547Y-130789052D01*
G75*
G02*
X51452547Y-130649052I0J140000D01*
G01*
G37*
%TD*%
%TO.C,C5*%
G36*
G01*
X136612547Y-109599052D02*
X136612547Y-109259052D01*
G75*
G02*
X136752547Y-109119052I140000J0D01*
G01*
X137032547Y-109119052D01*
G75*
G02*
X137172547Y-109259052I0J-140000D01*
G01*
X137172547Y-109599052D01*
G75*
G02*
X137032547Y-109739052I-140000J0D01*
G01*
X136752547Y-109739052D01*
G75*
G02*
X136612547Y-109599052I0J140000D01*
G01*
G37*
G36*
G01*
X135652547Y-109599052D02*
X135652547Y-109259052D01*
G75*
G02*
X135792547Y-109119052I140000J0D01*
G01*
X136072547Y-109119052D01*
G75*
G02*
X136212547Y-109259052I0J-140000D01*
G01*
X136212547Y-109599052D01*
G75*
G02*
X136072547Y-109739052I-140000J0D01*
G01*
X135792547Y-109739052D01*
G75*
G02*
X135652547Y-109599052I0J140000D01*
G01*
G37*
%TD*%
%TO.C,C5*%
G36*
G01*
X115562547Y-109599052D02*
X115562547Y-109259052D01*
G75*
G02*
X115702547Y-109119052I140000J0D01*
G01*
X115982547Y-109119052D01*
G75*
G02*
X116122547Y-109259052I0J-140000D01*
G01*
X116122547Y-109599052D01*
G75*
G02*
X115982547Y-109739052I-140000J0D01*
G01*
X115702547Y-109739052D01*
G75*
G02*
X115562547Y-109599052I0J140000D01*
G01*
G37*
G36*
G01*
X114602547Y-109599052D02*
X114602547Y-109259052D01*
G75*
G02*
X114742547Y-109119052I140000J0D01*
G01*
X115022547Y-109119052D01*
G75*
G02*
X115162547Y-109259052I0J-140000D01*
G01*
X115162547Y-109599052D01*
G75*
G02*
X115022547Y-109739052I-140000J0D01*
G01*
X114742547Y-109739052D01*
G75*
G02*
X114602547Y-109599052I0J140000D01*
G01*
G37*
%TD*%
%TO.C,C5*%
G36*
G01*
X94512547Y-109599052D02*
X94512547Y-109259052D01*
G75*
G02*
X94652547Y-109119052I140000J0D01*
G01*
X94932547Y-109119052D01*
G75*
G02*
X95072547Y-109259052I0J-140000D01*
G01*
X95072547Y-109599052D01*
G75*
G02*
X94932547Y-109739052I-140000J0D01*
G01*
X94652547Y-109739052D01*
G75*
G02*
X94512547Y-109599052I0J140000D01*
G01*
G37*
G36*
G01*
X93552547Y-109599052D02*
X93552547Y-109259052D01*
G75*
G02*
X93692547Y-109119052I140000J0D01*
G01*
X93972547Y-109119052D01*
G75*
G02*
X94112547Y-109259052I0J-140000D01*
G01*
X94112547Y-109599052D01*
G75*
G02*
X93972547Y-109739052I-140000J0D01*
G01*
X93692547Y-109739052D01*
G75*
G02*
X93552547Y-109599052I0J140000D01*
G01*
G37*
%TD*%
%TO.C,C5*%
G36*
G01*
X73462547Y-109599052D02*
X73462547Y-109259052D01*
G75*
G02*
X73602547Y-109119052I140000J0D01*
G01*
X73882547Y-109119052D01*
G75*
G02*
X74022547Y-109259052I0J-140000D01*
G01*
X74022547Y-109599052D01*
G75*
G02*
X73882547Y-109739052I-140000J0D01*
G01*
X73602547Y-109739052D01*
G75*
G02*
X73462547Y-109599052I0J140000D01*
G01*
G37*
G36*
G01*
X72502547Y-109599052D02*
X72502547Y-109259052D01*
G75*
G02*
X72642547Y-109119052I140000J0D01*
G01*
X72922547Y-109119052D01*
G75*
G02*
X73062547Y-109259052I0J-140000D01*
G01*
X73062547Y-109599052D01*
G75*
G02*
X72922547Y-109739052I-140000J0D01*
G01*
X72642547Y-109739052D01*
G75*
G02*
X72502547Y-109599052I0J140000D01*
G01*
G37*
%TD*%
%TO.C,C5*%
G36*
G01*
X52412547Y-109599052D02*
X52412547Y-109259052D01*
G75*
G02*
X52552547Y-109119052I140000J0D01*
G01*
X52832547Y-109119052D01*
G75*
G02*
X52972547Y-109259052I0J-140000D01*
G01*
X52972547Y-109599052D01*
G75*
G02*
X52832547Y-109739052I-140000J0D01*
G01*
X52552547Y-109739052D01*
G75*
G02*
X52412547Y-109599052I0J140000D01*
G01*
G37*
G36*
G01*
X51452547Y-109599052D02*
X51452547Y-109259052D01*
G75*
G02*
X51592547Y-109119052I140000J0D01*
G01*
X51872547Y-109119052D01*
G75*
G02*
X52012547Y-109259052I0J-140000D01*
G01*
X52012547Y-109599052D01*
G75*
G02*
X51872547Y-109739052I-140000J0D01*
G01*
X51592547Y-109739052D01*
G75*
G02*
X51452547Y-109599052I0J140000D01*
G01*
G37*
%TD*%
%TO.C,C5*%
G36*
G01*
X136612547Y-88549052D02*
X136612547Y-88209052D01*
G75*
G02*
X136752547Y-88069052I140000J0D01*
G01*
X137032547Y-88069052D01*
G75*
G02*
X137172547Y-88209052I0J-140000D01*
G01*
X137172547Y-88549052D01*
G75*
G02*
X137032547Y-88689052I-140000J0D01*
G01*
X136752547Y-88689052D01*
G75*
G02*
X136612547Y-88549052I0J140000D01*
G01*
G37*
G36*
G01*
X135652547Y-88549052D02*
X135652547Y-88209052D01*
G75*
G02*
X135792547Y-88069052I140000J0D01*
G01*
X136072547Y-88069052D01*
G75*
G02*
X136212547Y-88209052I0J-140000D01*
G01*
X136212547Y-88549052D01*
G75*
G02*
X136072547Y-88689052I-140000J0D01*
G01*
X135792547Y-88689052D01*
G75*
G02*
X135652547Y-88549052I0J140000D01*
G01*
G37*
%TD*%
%TO.C,C5*%
G36*
G01*
X115562547Y-88549052D02*
X115562547Y-88209052D01*
G75*
G02*
X115702547Y-88069052I140000J0D01*
G01*
X115982547Y-88069052D01*
G75*
G02*
X116122547Y-88209052I0J-140000D01*
G01*
X116122547Y-88549052D01*
G75*
G02*
X115982547Y-88689052I-140000J0D01*
G01*
X115702547Y-88689052D01*
G75*
G02*
X115562547Y-88549052I0J140000D01*
G01*
G37*
G36*
G01*
X114602547Y-88549052D02*
X114602547Y-88209052D01*
G75*
G02*
X114742547Y-88069052I140000J0D01*
G01*
X115022547Y-88069052D01*
G75*
G02*
X115162547Y-88209052I0J-140000D01*
G01*
X115162547Y-88549052D01*
G75*
G02*
X115022547Y-88689052I-140000J0D01*
G01*
X114742547Y-88689052D01*
G75*
G02*
X114602547Y-88549052I0J140000D01*
G01*
G37*
%TD*%
%TO.C,C5*%
G36*
G01*
X94512547Y-88549052D02*
X94512547Y-88209052D01*
G75*
G02*
X94652547Y-88069052I140000J0D01*
G01*
X94932547Y-88069052D01*
G75*
G02*
X95072547Y-88209052I0J-140000D01*
G01*
X95072547Y-88549052D01*
G75*
G02*
X94932547Y-88689052I-140000J0D01*
G01*
X94652547Y-88689052D01*
G75*
G02*
X94512547Y-88549052I0J140000D01*
G01*
G37*
G36*
G01*
X93552547Y-88549052D02*
X93552547Y-88209052D01*
G75*
G02*
X93692547Y-88069052I140000J0D01*
G01*
X93972547Y-88069052D01*
G75*
G02*
X94112547Y-88209052I0J-140000D01*
G01*
X94112547Y-88549052D01*
G75*
G02*
X93972547Y-88689052I-140000J0D01*
G01*
X93692547Y-88689052D01*
G75*
G02*
X93552547Y-88549052I0J140000D01*
G01*
G37*
%TD*%
%TO.C,C5*%
G36*
G01*
X73462547Y-88549052D02*
X73462547Y-88209052D01*
G75*
G02*
X73602547Y-88069052I140000J0D01*
G01*
X73882547Y-88069052D01*
G75*
G02*
X74022547Y-88209052I0J-140000D01*
G01*
X74022547Y-88549052D01*
G75*
G02*
X73882547Y-88689052I-140000J0D01*
G01*
X73602547Y-88689052D01*
G75*
G02*
X73462547Y-88549052I0J140000D01*
G01*
G37*
G36*
G01*
X72502547Y-88549052D02*
X72502547Y-88209052D01*
G75*
G02*
X72642547Y-88069052I140000J0D01*
G01*
X72922547Y-88069052D01*
G75*
G02*
X73062547Y-88209052I0J-140000D01*
G01*
X73062547Y-88549052D01*
G75*
G02*
X72922547Y-88689052I-140000J0D01*
G01*
X72642547Y-88689052D01*
G75*
G02*
X72502547Y-88549052I0J140000D01*
G01*
G37*
%TD*%
%TO.C,C5*%
G36*
G01*
X52412547Y-88549052D02*
X52412547Y-88209052D01*
G75*
G02*
X52552547Y-88069052I140000J0D01*
G01*
X52832547Y-88069052D01*
G75*
G02*
X52972547Y-88209052I0J-140000D01*
G01*
X52972547Y-88549052D01*
G75*
G02*
X52832547Y-88689052I-140000J0D01*
G01*
X52552547Y-88689052D01*
G75*
G02*
X52412547Y-88549052I0J140000D01*
G01*
G37*
G36*
G01*
X51452547Y-88549052D02*
X51452547Y-88209052D01*
G75*
G02*
X51592547Y-88069052I140000J0D01*
G01*
X51872547Y-88069052D01*
G75*
G02*
X52012547Y-88209052I0J-140000D01*
G01*
X52012547Y-88549052D01*
G75*
G02*
X51872547Y-88689052I-140000J0D01*
G01*
X51592547Y-88689052D01*
G75*
G02*
X51452547Y-88549052I0J140000D01*
G01*
G37*
%TD*%
%TO.C,C5*%
G36*
G01*
X136612547Y-67499052D02*
X136612547Y-67159052D01*
G75*
G02*
X136752547Y-67019052I140000J0D01*
G01*
X137032547Y-67019052D01*
G75*
G02*
X137172547Y-67159052I0J-140000D01*
G01*
X137172547Y-67499052D01*
G75*
G02*
X137032547Y-67639052I-140000J0D01*
G01*
X136752547Y-67639052D01*
G75*
G02*
X136612547Y-67499052I0J140000D01*
G01*
G37*
G36*
G01*
X135652547Y-67499052D02*
X135652547Y-67159052D01*
G75*
G02*
X135792547Y-67019052I140000J0D01*
G01*
X136072547Y-67019052D01*
G75*
G02*
X136212547Y-67159052I0J-140000D01*
G01*
X136212547Y-67499052D01*
G75*
G02*
X136072547Y-67639052I-140000J0D01*
G01*
X135792547Y-67639052D01*
G75*
G02*
X135652547Y-67499052I0J140000D01*
G01*
G37*
%TD*%
%TO.C,C5*%
G36*
G01*
X115562547Y-67499052D02*
X115562547Y-67159052D01*
G75*
G02*
X115702547Y-67019052I140000J0D01*
G01*
X115982547Y-67019052D01*
G75*
G02*
X116122547Y-67159052I0J-140000D01*
G01*
X116122547Y-67499052D01*
G75*
G02*
X115982547Y-67639052I-140000J0D01*
G01*
X115702547Y-67639052D01*
G75*
G02*
X115562547Y-67499052I0J140000D01*
G01*
G37*
G36*
G01*
X114602547Y-67499052D02*
X114602547Y-67159052D01*
G75*
G02*
X114742547Y-67019052I140000J0D01*
G01*
X115022547Y-67019052D01*
G75*
G02*
X115162547Y-67159052I0J-140000D01*
G01*
X115162547Y-67499052D01*
G75*
G02*
X115022547Y-67639052I-140000J0D01*
G01*
X114742547Y-67639052D01*
G75*
G02*
X114602547Y-67499052I0J140000D01*
G01*
G37*
%TD*%
%TO.C,C5*%
G36*
G01*
X94512547Y-67499052D02*
X94512547Y-67159052D01*
G75*
G02*
X94652547Y-67019052I140000J0D01*
G01*
X94932547Y-67019052D01*
G75*
G02*
X95072547Y-67159052I0J-140000D01*
G01*
X95072547Y-67499052D01*
G75*
G02*
X94932547Y-67639052I-140000J0D01*
G01*
X94652547Y-67639052D01*
G75*
G02*
X94512547Y-67499052I0J140000D01*
G01*
G37*
G36*
G01*
X93552547Y-67499052D02*
X93552547Y-67159052D01*
G75*
G02*
X93692547Y-67019052I140000J0D01*
G01*
X93972547Y-67019052D01*
G75*
G02*
X94112547Y-67159052I0J-140000D01*
G01*
X94112547Y-67499052D01*
G75*
G02*
X93972547Y-67639052I-140000J0D01*
G01*
X93692547Y-67639052D01*
G75*
G02*
X93552547Y-67499052I0J140000D01*
G01*
G37*
%TD*%
%TO.C,C5*%
G36*
G01*
X73462547Y-67499052D02*
X73462547Y-67159052D01*
G75*
G02*
X73602547Y-67019052I140000J0D01*
G01*
X73882547Y-67019052D01*
G75*
G02*
X74022547Y-67159052I0J-140000D01*
G01*
X74022547Y-67499052D01*
G75*
G02*
X73882547Y-67639052I-140000J0D01*
G01*
X73602547Y-67639052D01*
G75*
G02*
X73462547Y-67499052I0J140000D01*
G01*
G37*
G36*
G01*
X72502547Y-67499052D02*
X72502547Y-67159052D01*
G75*
G02*
X72642547Y-67019052I140000J0D01*
G01*
X72922547Y-67019052D01*
G75*
G02*
X73062547Y-67159052I0J-140000D01*
G01*
X73062547Y-67499052D01*
G75*
G02*
X72922547Y-67639052I-140000J0D01*
G01*
X72642547Y-67639052D01*
G75*
G02*
X72502547Y-67499052I0J140000D01*
G01*
G37*
%TD*%
%TO.C,C5*%
G36*
G01*
X52412547Y-67499052D02*
X52412547Y-67159052D01*
G75*
G02*
X52552547Y-67019052I140000J0D01*
G01*
X52832547Y-67019052D01*
G75*
G02*
X52972547Y-67159052I0J-140000D01*
G01*
X52972547Y-67499052D01*
G75*
G02*
X52832547Y-67639052I-140000J0D01*
G01*
X52552547Y-67639052D01*
G75*
G02*
X52412547Y-67499052I0J140000D01*
G01*
G37*
G36*
G01*
X51452547Y-67499052D02*
X51452547Y-67159052D01*
G75*
G02*
X51592547Y-67019052I140000J0D01*
G01*
X51872547Y-67019052D01*
G75*
G02*
X52012547Y-67159052I0J-140000D01*
G01*
X52012547Y-67499052D01*
G75*
G02*
X51872547Y-67639052I-140000J0D01*
G01*
X51592547Y-67639052D01*
G75*
G02*
X51452547Y-67499052I0J140000D01*
G01*
G37*
%TD*%
%TO.C,C5*%
G36*
G01*
X136612547Y-46449052D02*
X136612547Y-46109052D01*
G75*
G02*
X136752547Y-45969052I140000J0D01*
G01*
X137032547Y-45969052D01*
G75*
G02*
X137172547Y-46109052I0J-140000D01*
G01*
X137172547Y-46449052D01*
G75*
G02*
X137032547Y-46589052I-140000J0D01*
G01*
X136752547Y-46589052D01*
G75*
G02*
X136612547Y-46449052I0J140000D01*
G01*
G37*
G36*
G01*
X135652547Y-46449052D02*
X135652547Y-46109052D01*
G75*
G02*
X135792547Y-45969052I140000J0D01*
G01*
X136072547Y-45969052D01*
G75*
G02*
X136212547Y-46109052I0J-140000D01*
G01*
X136212547Y-46449052D01*
G75*
G02*
X136072547Y-46589052I-140000J0D01*
G01*
X135792547Y-46589052D01*
G75*
G02*
X135652547Y-46449052I0J140000D01*
G01*
G37*
%TD*%
%TO.C,C5*%
G36*
G01*
X115562547Y-46449052D02*
X115562547Y-46109052D01*
G75*
G02*
X115702547Y-45969052I140000J0D01*
G01*
X115982547Y-45969052D01*
G75*
G02*
X116122547Y-46109052I0J-140000D01*
G01*
X116122547Y-46449052D01*
G75*
G02*
X115982547Y-46589052I-140000J0D01*
G01*
X115702547Y-46589052D01*
G75*
G02*
X115562547Y-46449052I0J140000D01*
G01*
G37*
G36*
G01*
X114602547Y-46449052D02*
X114602547Y-46109052D01*
G75*
G02*
X114742547Y-45969052I140000J0D01*
G01*
X115022547Y-45969052D01*
G75*
G02*
X115162547Y-46109052I0J-140000D01*
G01*
X115162547Y-46449052D01*
G75*
G02*
X115022547Y-46589052I-140000J0D01*
G01*
X114742547Y-46589052D01*
G75*
G02*
X114602547Y-46449052I0J140000D01*
G01*
G37*
%TD*%
%TO.C,C5*%
G36*
G01*
X94512547Y-46449052D02*
X94512547Y-46109052D01*
G75*
G02*
X94652547Y-45969052I140000J0D01*
G01*
X94932547Y-45969052D01*
G75*
G02*
X95072547Y-46109052I0J-140000D01*
G01*
X95072547Y-46449052D01*
G75*
G02*
X94932547Y-46589052I-140000J0D01*
G01*
X94652547Y-46589052D01*
G75*
G02*
X94512547Y-46449052I0J140000D01*
G01*
G37*
G36*
G01*
X93552547Y-46449052D02*
X93552547Y-46109052D01*
G75*
G02*
X93692547Y-45969052I140000J0D01*
G01*
X93972547Y-45969052D01*
G75*
G02*
X94112547Y-46109052I0J-140000D01*
G01*
X94112547Y-46449052D01*
G75*
G02*
X93972547Y-46589052I-140000J0D01*
G01*
X93692547Y-46589052D01*
G75*
G02*
X93552547Y-46449052I0J140000D01*
G01*
G37*
%TD*%
%TO.C,C5*%
G36*
G01*
X73462547Y-46449052D02*
X73462547Y-46109052D01*
G75*
G02*
X73602547Y-45969052I140000J0D01*
G01*
X73882547Y-45969052D01*
G75*
G02*
X74022547Y-46109052I0J-140000D01*
G01*
X74022547Y-46449052D01*
G75*
G02*
X73882547Y-46589052I-140000J0D01*
G01*
X73602547Y-46589052D01*
G75*
G02*
X73462547Y-46449052I0J140000D01*
G01*
G37*
G36*
G01*
X72502547Y-46449052D02*
X72502547Y-46109052D01*
G75*
G02*
X72642547Y-45969052I140000J0D01*
G01*
X72922547Y-45969052D01*
G75*
G02*
X73062547Y-46109052I0J-140000D01*
G01*
X73062547Y-46449052D01*
G75*
G02*
X72922547Y-46589052I-140000J0D01*
G01*
X72642547Y-46589052D01*
G75*
G02*
X72502547Y-46449052I0J140000D01*
G01*
G37*
%TD*%
D10*
%TO.C,D1*%
X134699547Y-137210052D03*
X136799547Y-137210052D03*
%TD*%
%TO.C,D1*%
X113649547Y-137210052D03*
X115749547Y-137210052D03*
%TD*%
%TO.C,D1*%
X92599547Y-137210052D03*
X94699547Y-137210052D03*
%TD*%
%TO.C,D1*%
X71549547Y-137210052D03*
X73649547Y-137210052D03*
%TD*%
%TO.C,D1*%
X50499547Y-137210052D03*
X52599547Y-137210052D03*
%TD*%
%TO.C,D1*%
X134699547Y-116160052D03*
X136799547Y-116160052D03*
%TD*%
%TO.C,D1*%
X113649547Y-116160052D03*
X115749547Y-116160052D03*
%TD*%
%TO.C,D1*%
X92599547Y-116160052D03*
X94699547Y-116160052D03*
%TD*%
%TO.C,D1*%
X71549547Y-116160052D03*
X73649547Y-116160052D03*
%TD*%
%TO.C,D1*%
X50499547Y-116160052D03*
X52599547Y-116160052D03*
%TD*%
%TO.C,D1*%
X134699547Y-95110052D03*
X136799547Y-95110052D03*
%TD*%
%TO.C,D1*%
X113649547Y-95110052D03*
X115749547Y-95110052D03*
%TD*%
%TO.C,D1*%
X92599547Y-95110052D03*
X94699547Y-95110052D03*
%TD*%
%TO.C,D1*%
X71549547Y-95110052D03*
X73649547Y-95110052D03*
%TD*%
%TO.C,D1*%
X50499547Y-95110052D03*
X52599547Y-95110052D03*
%TD*%
%TO.C,D1*%
X134699547Y-74060052D03*
X136799547Y-74060052D03*
%TD*%
%TO.C,D1*%
X113649547Y-74060052D03*
X115749547Y-74060052D03*
%TD*%
%TO.C,D1*%
X92599547Y-74060052D03*
X94699547Y-74060052D03*
%TD*%
%TO.C,D1*%
X71549547Y-74060052D03*
X73649547Y-74060052D03*
%TD*%
%TO.C,D1*%
X50499547Y-74060052D03*
X52599547Y-74060052D03*
%TD*%
%TO.C,D1*%
X134699547Y-53010052D03*
X136799547Y-53010052D03*
%TD*%
%TO.C,D1*%
X113649547Y-53010052D03*
X115749547Y-53010052D03*
%TD*%
%TO.C,D1*%
X92599547Y-53010052D03*
X94699547Y-53010052D03*
%TD*%
%TO.C,D1*%
X71549547Y-53010052D03*
X73649547Y-53010052D03*
%TD*%
D11*
%TO.C,J5*%
G36*
X130642547Y-141158052D02*
G01*
X130642547Y-140658052D01*
X131542547Y-139758052D01*
X131542547Y-142058052D01*
X130642547Y-141158052D01*
G37*
G36*
X130642547Y-137158052D02*
G01*
X130642547Y-136658052D01*
X131542547Y-135758052D01*
X131542547Y-138058052D01*
X130642547Y-137158052D01*
G37*
G36*
X130642547Y-133158052D02*
G01*
X130642547Y-132658052D01*
X131542547Y-131758052D01*
X131542547Y-134058052D01*
X130642547Y-133158052D01*
G37*
G36*
X130642547Y-129158052D02*
G01*
X130642547Y-128658052D01*
X131542547Y-127758052D01*
X131542547Y-130058052D01*
X130642547Y-129158052D01*
G37*
G36*
X130342547Y-141158052D02*
G01*
X131542547Y-142358052D01*
X131542547Y-142658052D01*
X129542547Y-142658052D01*
X129542547Y-141158052D01*
X130342547Y-141158052D01*
G37*
G36*
X131542547Y-139158052D02*
G01*
X131542547Y-139458052D01*
X130342547Y-140658052D01*
X129542547Y-140658052D01*
X129542547Y-139158052D01*
X131542547Y-139158052D01*
G37*
G36*
X130342547Y-137158052D02*
G01*
X131542547Y-138358052D01*
X131542547Y-138658052D01*
X129542547Y-138658052D01*
X129542547Y-137158052D01*
X130342547Y-137158052D01*
G37*
G36*
X131542547Y-135158052D02*
G01*
X131542547Y-135458052D01*
X130342547Y-136658052D01*
X129542547Y-136658052D01*
X129542547Y-135158052D01*
X131542547Y-135158052D01*
G37*
G36*
X130342547Y-133158052D02*
G01*
X131542547Y-134358052D01*
X131542547Y-134658052D01*
X129542547Y-134658052D01*
X129542547Y-133158052D01*
X130342547Y-133158052D01*
G37*
G36*
X131542547Y-131158052D02*
G01*
X131542547Y-131458052D01*
X130342547Y-132658052D01*
X129542547Y-132658052D01*
X129542547Y-131158052D01*
X131542547Y-131158052D01*
G37*
G36*
X130342547Y-129158052D02*
G01*
X131542547Y-130358052D01*
X131542547Y-130658052D01*
X129542547Y-130658052D01*
X129542547Y-129158052D01*
X130342547Y-129158052D01*
G37*
G36*
X131542547Y-127158052D02*
G01*
X131542547Y-127458052D01*
X130342547Y-128658052D01*
X129542547Y-128658052D01*
X129542547Y-127158052D01*
X131542547Y-127158052D01*
G37*
D12*
X130542547Y-125908052D03*
%TD*%
D11*
%TO.C,J5*%
G36*
X109592547Y-141158052D02*
G01*
X109592547Y-140658052D01*
X110492547Y-139758052D01*
X110492547Y-142058052D01*
X109592547Y-141158052D01*
G37*
G36*
X109592547Y-137158052D02*
G01*
X109592547Y-136658052D01*
X110492547Y-135758052D01*
X110492547Y-138058052D01*
X109592547Y-137158052D01*
G37*
G36*
X109592547Y-133158052D02*
G01*
X109592547Y-132658052D01*
X110492547Y-131758052D01*
X110492547Y-134058052D01*
X109592547Y-133158052D01*
G37*
G36*
X109592547Y-129158052D02*
G01*
X109592547Y-128658052D01*
X110492547Y-127758052D01*
X110492547Y-130058052D01*
X109592547Y-129158052D01*
G37*
G36*
X109292547Y-141158052D02*
G01*
X110492547Y-142358052D01*
X110492547Y-142658052D01*
X108492547Y-142658052D01*
X108492547Y-141158052D01*
X109292547Y-141158052D01*
G37*
G36*
X110492547Y-139158052D02*
G01*
X110492547Y-139458052D01*
X109292547Y-140658052D01*
X108492547Y-140658052D01*
X108492547Y-139158052D01*
X110492547Y-139158052D01*
G37*
G36*
X109292547Y-137158052D02*
G01*
X110492547Y-138358052D01*
X110492547Y-138658052D01*
X108492547Y-138658052D01*
X108492547Y-137158052D01*
X109292547Y-137158052D01*
G37*
G36*
X110492547Y-135158052D02*
G01*
X110492547Y-135458052D01*
X109292547Y-136658052D01*
X108492547Y-136658052D01*
X108492547Y-135158052D01*
X110492547Y-135158052D01*
G37*
G36*
X109292547Y-133158052D02*
G01*
X110492547Y-134358052D01*
X110492547Y-134658052D01*
X108492547Y-134658052D01*
X108492547Y-133158052D01*
X109292547Y-133158052D01*
G37*
G36*
X110492547Y-131158052D02*
G01*
X110492547Y-131458052D01*
X109292547Y-132658052D01*
X108492547Y-132658052D01*
X108492547Y-131158052D01*
X110492547Y-131158052D01*
G37*
G36*
X109292547Y-129158052D02*
G01*
X110492547Y-130358052D01*
X110492547Y-130658052D01*
X108492547Y-130658052D01*
X108492547Y-129158052D01*
X109292547Y-129158052D01*
G37*
G36*
X110492547Y-127158052D02*
G01*
X110492547Y-127458052D01*
X109292547Y-128658052D01*
X108492547Y-128658052D01*
X108492547Y-127158052D01*
X110492547Y-127158052D01*
G37*
D12*
X109492547Y-125908052D03*
%TD*%
D11*
%TO.C,J5*%
G36*
X88542547Y-141158052D02*
G01*
X88542547Y-140658052D01*
X89442547Y-139758052D01*
X89442547Y-142058052D01*
X88542547Y-141158052D01*
G37*
G36*
X88542547Y-137158052D02*
G01*
X88542547Y-136658052D01*
X89442547Y-135758052D01*
X89442547Y-138058052D01*
X88542547Y-137158052D01*
G37*
G36*
X88542547Y-133158052D02*
G01*
X88542547Y-132658052D01*
X89442547Y-131758052D01*
X89442547Y-134058052D01*
X88542547Y-133158052D01*
G37*
G36*
X88542547Y-129158052D02*
G01*
X88542547Y-128658052D01*
X89442547Y-127758052D01*
X89442547Y-130058052D01*
X88542547Y-129158052D01*
G37*
G36*
X88242547Y-141158052D02*
G01*
X89442547Y-142358052D01*
X89442547Y-142658052D01*
X87442547Y-142658052D01*
X87442547Y-141158052D01*
X88242547Y-141158052D01*
G37*
G36*
X89442547Y-139158052D02*
G01*
X89442547Y-139458052D01*
X88242547Y-140658052D01*
X87442547Y-140658052D01*
X87442547Y-139158052D01*
X89442547Y-139158052D01*
G37*
G36*
X88242547Y-137158052D02*
G01*
X89442547Y-138358052D01*
X89442547Y-138658052D01*
X87442547Y-138658052D01*
X87442547Y-137158052D01*
X88242547Y-137158052D01*
G37*
G36*
X89442547Y-135158052D02*
G01*
X89442547Y-135458052D01*
X88242547Y-136658052D01*
X87442547Y-136658052D01*
X87442547Y-135158052D01*
X89442547Y-135158052D01*
G37*
G36*
X88242547Y-133158052D02*
G01*
X89442547Y-134358052D01*
X89442547Y-134658052D01*
X87442547Y-134658052D01*
X87442547Y-133158052D01*
X88242547Y-133158052D01*
G37*
G36*
X89442547Y-131158052D02*
G01*
X89442547Y-131458052D01*
X88242547Y-132658052D01*
X87442547Y-132658052D01*
X87442547Y-131158052D01*
X89442547Y-131158052D01*
G37*
G36*
X88242547Y-129158052D02*
G01*
X89442547Y-130358052D01*
X89442547Y-130658052D01*
X87442547Y-130658052D01*
X87442547Y-129158052D01*
X88242547Y-129158052D01*
G37*
G36*
X89442547Y-127158052D02*
G01*
X89442547Y-127458052D01*
X88242547Y-128658052D01*
X87442547Y-128658052D01*
X87442547Y-127158052D01*
X89442547Y-127158052D01*
G37*
D12*
X88442547Y-125908052D03*
%TD*%
D11*
%TO.C,J5*%
G36*
X67492547Y-141158052D02*
G01*
X67492547Y-140658052D01*
X68392547Y-139758052D01*
X68392547Y-142058052D01*
X67492547Y-141158052D01*
G37*
G36*
X67492547Y-137158052D02*
G01*
X67492547Y-136658052D01*
X68392547Y-135758052D01*
X68392547Y-138058052D01*
X67492547Y-137158052D01*
G37*
G36*
X67492547Y-133158052D02*
G01*
X67492547Y-132658052D01*
X68392547Y-131758052D01*
X68392547Y-134058052D01*
X67492547Y-133158052D01*
G37*
G36*
X67492547Y-129158052D02*
G01*
X67492547Y-128658052D01*
X68392547Y-127758052D01*
X68392547Y-130058052D01*
X67492547Y-129158052D01*
G37*
G36*
X67192547Y-141158052D02*
G01*
X68392547Y-142358052D01*
X68392547Y-142658052D01*
X66392547Y-142658052D01*
X66392547Y-141158052D01*
X67192547Y-141158052D01*
G37*
G36*
X68392547Y-139158052D02*
G01*
X68392547Y-139458052D01*
X67192547Y-140658052D01*
X66392547Y-140658052D01*
X66392547Y-139158052D01*
X68392547Y-139158052D01*
G37*
G36*
X67192547Y-137158052D02*
G01*
X68392547Y-138358052D01*
X68392547Y-138658052D01*
X66392547Y-138658052D01*
X66392547Y-137158052D01*
X67192547Y-137158052D01*
G37*
G36*
X68392547Y-135158052D02*
G01*
X68392547Y-135458052D01*
X67192547Y-136658052D01*
X66392547Y-136658052D01*
X66392547Y-135158052D01*
X68392547Y-135158052D01*
G37*
G36*
X67192547Y-133158052D02*
G01*
X68392547Y-134358052D01*
X68392547Y-134658052D01*
X66392547Y-134658052D01*
X66392547Y-133158052D01*
X67192547Y-133158052D01*
G37*
G36*
X68392547Y-131158052D02*
G01*
X68392547Y-131458052D01*
X67192547Y-132658052D01*
X66392547Y-132658052D01*
X66392547Y-131158052D01*
X68392547Y-131158052D01*
G37*
G36*
X67192547Y-129158052D02*
G01*
X68392547Y-130358052D01*
X68392547Y-130658052D01*
X66392547Y-130658052D01*
X66392547Y-129158052D01*
X67192547Y-129158052D01*
G37*
G36*
X68392547Y-127158052D02*
G01*
X68392547Y-127458052D01*
X67192547Y-128658052D01*
X66392547Y-128658052D01*
X66392547Y-127158052D01*
X68392547Y-127158052D01*
G37*
D12*
X67392547Y-125908052D03*
%TD*%
D11*
%TO.C,J5*%
G36*
X46442547Y-141158052D02*
G01*
X46442547Y-140658052D01*
X47342547Y-139758052D01*
X47342547Y-142058052D01*
X46442547Y-141158052D01*
G37*
G36*
X46442547Y-137158052D02*
G01*
X46442547Y-136658052D01*
X47342547Y-135758052D01*
X47342547Y-138058052D01*
X46442547Y-137158052D01*
G37*
G36*
X46442547Y-133158052D02*
G01*
X46442547Y-132658052D01*
X47342547Y-131758052D01*
X47342547Y-134058052D01*
X46442547Y-133158052D01*
G37*
G36*
X46442547Y-129158052D02*
G01*
X46442547Y-128658052D01*
X47342547Y-127758052D01*
X47342547Y-130058052D01*
X46442547Y-129158052D01*
G37*
G36*
X46142547Y-141158052D02*
G01*
X47342547Y-142358052D01*
X47342547Y-142658052D01*
X45342547Y-142658052D01*
X45342547Y-141158052D01*
X46142547Y-141158052D01*
G37*
G36*
X47342547Y-139158052D02*
G01*
X47342547Y-139458052D01*
X46142547Y-140658052D01*
X45342547Y-140658052D01*
X45342547Y-139158052D01*
X47342547Y-139158052D01*
G37*
G36*
X46142547Y-137158052D02*
G01*
X47342547Y-138358052D01*
X47342547Y-138658052D01*
X45342547Y-138658052D01*
X45342547Y-137158052D01*
X46142547Y-137158052D01*
G37*
G36*
X47342547Y-135158052D02*
G01*
X47342547Y-135458052D01*
X46142547Y-136658052D01*
X45342547Y-136658052D01*
X45342547Y-135158052D01*
X47342547Y-135158052D01*
G37*
G36*
X46142547Y-133158052D02*
G01*
X47342547Y-134358052D01*
X47342547Y-134658052D01*
X45342547Y-134658052D01*
X45342547Y-133158052D01*
X46142547Y-133158052D01*
G37*
G36*
X47342547Y-131158052D02*
G01*
X47342547Y-131458052D01*
X46142547Y-132658052D01*
X45342547Y-132658052D01*
X45342547Y-131158052D01*
X47342547Y-131158052D01*
G37*
G36*
X46142547Y-129158052D02*
G01*
X47342547Y-130358052D01*
X47342547Y-130658052D01*
X45342547Y-130658052D01*
X45342547Y-129158052D01*
X46142547Y-129158052D01*
G37*
G36*
X47342547Y-127158052D02*
G01*
X47342547Y-127458052D01*
X46142547Y-128658052D01*
X45342547Y-128658052D01*
X45342547Y-127158052D01*
X47342547Y-127158052D01*
G37*
D12*
X46342547Y-125908052D03*
%TD*%
D11*
%TO.C,J5*%
G36*
X130642547Y-120108052D02*
G01*
X130642547Y-119608052D01*
X131542547Y-118708052D01*
X131542547Y-121008052D01*
X130642547Y-120108052D01*
G37*
G36*
X130642547Y-116108052D02*
G01*
X130642547Y-115608052D01*
X131542547Y-114708052D01*
X131542547Y-117008052D01*
X130642547Y-116108052D01*
G37*
G36*
X130642547Y-112108052D02*
G01*
X130642547Y-111608052D01*
X131542547Y-110708052D01*
X131542547Y-113008052D01*
X130642547Y-112108052D01*
G37*
G36*
X130642547Y-108108052D02*
G01*
X130642547Y-107608052D01*
X131542547Y-106708052D01*
X131542547Y-109008052D01*
X130642547Y-108108052D01*
G37*
G36*
X130342547Y-120108052D02*
G01*
X131542547Y-121308052D01*
X131542547Y-121608052D01*
X129542547Y-121608052D01*
X129542547Y-120108052D01*
X130342547Y-120108052D01*
G37*
G36*
X131542547Y-118108052D02*
G01*
X131542547Y-118408052D01*
X130342547Y-119608052D01*
X129542547Y-119608052D01*
X129542547Y-118108052D01*
X131542547Y-118108052D01*
G37*
G36*
X130342547Y-116108052D02*
G01*
X131542547Y-117308052D01*
X131542547Y-117608052D01*
X129542547Y-117608052D01*
X129542547Y-116108052D01*
X130342547Y-116108052D01*
G37*
G36*
X131542547Y-114108052D02*
G01*
X131542547Y-114408052D01*
X130342547Y-115608052D01*
X129542547Y-115608052D01*
X129542547Y-114108052D01*
X131542547Y-114108052D01*
G37*
G36*
X130342547Y-112108052D02*
G01*
X131542547Y-113308052D01*
X131542547Y-113608052D01*
X129542547Y-113608052D01*
X129542547Y-112108052D01*
X130342547Y-112108052D01*
G37*
G36*
X131542547Y-110108052D02*
G01*
X131542547Y-110408052D01*
X130342547Y-111608052D01*
X129542547Y-111608052D01*
X129542547Y-110108052D01*
X131542547Y-110108052D01*
G37*
G36*
X130342547Y-108108052D02*
G01*
X131542547Y-109308052D01*
X131542547Y-109608052D01*
X129542547Y-109608052D01*
X129542547Y-108108052D01*
X130342547Y-108108052D01*
G37*
G36*
X131542547Y-106108052D02*
G01*
X131542547Y-106408052D01*
X130342547Y-107608052D01*
X129542547Y-107608052D01*
X129542547Y-106108052D01*
X131542547Y-106108052D01*
G37*
D12*
X130542547Y-104858052D03*
%TD*%
D11*
%TO.C,J5*%
G36*
X109592547Y-120108052D02*
G01*
X109592547Y-119608052D01*
X110492547Y-118708052D01*
X110492547Y-121008052D01*
X109592547Y-120108052D01*
G37*
G36*
X109592547Y-116108052D02*
G01*
X109592547Y-115608052D01*
X110492547Y-114708052D01*
X110492547Y-117008052D01*
X109592547Y-116108052D01*
G37*
G36*
X109592547Y-112108052D02*
G01*
X109592547Y-111608052D01*
X110492547Y-110708052D01*
X110492547Y-113008052D01*
X109592547Y-112108052D01*
G37*
G36*
X109592547Y-108108052D02*
G01*
X109592547Y-107608052D01*
X110492547Y-106708052D01*
X110492547Y-109008052D01*
X109592547Y-108108052D01*
G37*
G36*
X109292547Y-120108052D02*
G01*
X110492547Y-121308052D01*
X110492547Y-121608052D01*
X108492547Y-121608052D01*
X108492547Y-120108052D01*
X109292547Y-120108052D01*
G37*
G36*
X110492547Y-118108052D02*
G01*
X110492547Y-118408052D01*
X109292547Y-119608052D01*
X108492547Y-119608052D01*
X108492547Y-118108052D01*
X110492547Y-118108052D01*
G37*
G36*
X109292547Y-116108052D02*
G01*
X110492547Y-117308052D01*
X110492547Y-117608052D01*
X108492547Y-117608052D01*
X108492547Y-116108052D01*
X109292547Y-116108052D01*
G37*
G36*
X110492547Y-114108052D02*
G01*
X110492547Y-114408052D01*
X109292547Y-115608052D01*
X108492547Y-115608052D01*
X108492547Y-114108052D01*
X110492547Y-114108052D01*
G37*
G36*
X109292547Y-112108052D02*
G01*
X110492547Y-113308052D01*
X110492547Y-113608052D01*
X108492547Y-113608052D01*
X108492547Y-112108052D01*
X109292547Y-112108052D01*
G37*
G36*
X110492547Y-110108052D02*
G01*
X110492547Y-110408052D01*
X109292547Y-111608052D01*
X108492547Y-111608052D01*
X108492547Y-110108052D01*
X110492547Y-110108052D01*
G37*
G36*
X109292547Y-108108052D02*
G01*
X110492547Y-109308052D01*
X110492547Y-109608052D01*
X108492547Y-109608052D01*
X108492547Y-108108052D01*
X109292547Y-108108052D01*
G37*
G36*
X110492547Y-106108052D02*
G01*
X110492547Y-106408052D01*
X109292547Y-107608052D01*
X108492547Y-107608052D01*
X108492547Y-106108052D01*
X110492547Y-106108052D01*
G37*
D12*
X109492547Y-104858052D03*
%TD*%
D11*
%TO.C,J5*%
G36*
X88542547Y-120108052D02*
G01*
X88542547Y-119608052D01*
X89442547Y-118708052D01*
X89442547Y-121008052D01*
X88542547Y-120108052D01*
G37*
G36*
X88542547Y-116108052D02*
G01*
X88542547Y-115608052D01*
X89442547Y-114708052D01*
X89442547Y-117008052D01*
X88542547Y-116108052D01*
G37*
G36*
X88542547Y-112108052D02*
G01*
X88542547Y-111608052D01*
X89442547Y-110708052D01*
X89442547Y-113008052D01*
X88542547Y-112108052D01*
G37*
G36*
X88542547Y-108108052D02*
G01*
X88542547Y-107608052D01*
X89442547Y-106708052D01*
X89442547Y-109008052D01*
X88542547Y-108108052D01*
G37*
G36*
X88242547Y-120108052D02*
G01*
X89442547Y-121308052D01*
X89442547Y-121608052D01*
X87442547Y-121608052D01*
X87442547Y-120108052D01*
X88242547Y-120108052D01*
G37*
G36*
X89442547Y-118108052D02*
G01*
X89442547Y-118408052D01*
X88242547Y-119608052D01*
X87442547Y-119608052D01*
X87442547Y-118108052D01*
X89442547Y-118108052D01*
G37*
G36*
X88242547Y-116108052D02*
G01*
X89442547Y-117308052D01*
X89442547Y-117608052D01*
X87442547Y-117608052D01*
X87442547Y-116108052D01*
X88242547Y-116108052D01*
G37*
G36*
X89442547Y-114108052D02*
G01*
X89442547Y-114408052D01*
X88242547Y-115608052D01*
X87442547Y-115608052D01*
X87442547Y-114108052D01*
X89442547Y-114108052D01*
G37*
G36*
X88242547Y-112108052D02*
G01*
X89442547Y-113308052D01*
X89442547Y-113608052D01*
X87442547Y-113608052D01*
X87442547Y-112108052D01*
X88242547Y-112108052D01*
G37*
G36*
X89442547Y-110108052D02*
G01*
X89442547Y-110408052D01*
X88242547Y-111608052D01*
X87442547Y-111608052D01*
X87442547Y-110108052D01*
X89442547Y-110108052D01*
G37*
G36*
X88242547Y-108108052D02*
G01*
X89442547Y-109308052D01*
X89442547Y-109608052D01*
X87442547Y-109608052D01*
X87442547Y-108108052D01*
X88242547Y-108108052D01*
G37*
G36*
X89442547Y-106108052D02*
G01*
X89442547Y-106408052D01*
X88242547Y-107608052D01*
X87442547Y-107608052D01*
X87442547Y-106108052D01*
X89442547Y-106108052D01*
G37*
D12*
X88442547Y-104858052D03*
%TD*%
D11*
%TO.C,J5*%
G36*
X67492547Y-120108052D02*
G01*
X67492547Y-119608052D01*
X68392547Y-118708052D01*
X68392547Y-121008052D01*
X67492547Y-120108052D01*
G37*
G36*
X67492547Y-116108052D02*
G01*
X67492547Y-115608052D01*
X68392547Y-114708052D01*
X68392547Y-117008052D01*
X67492547Y-116108052D01*
G37*
G36*
X67492547Y-112108052D02*
G01*
X67492547Y-111608052D01*
X68392547Y-110708052D01*
X68392547Y-113008052D01*
X67492547Y-112108052D01*
G37*
G36*
X67492547Y-108108052D02*
G01*
X67492547Y-107608052D01*
X68392547Y-106708052D01*
X68392547Y-109008052D01*
X67492547Y-108108052D01*
G37*
G36*
X67192547Y-120108052D02*
G01*
X68392547Y-121308052D01*
X68392547Y-121608052D01*
X66392547Y-121608052D01*
X66392547Y-120108052D01*
X67192547Y-120108052D01*
G37*
G36*
X68392547Y-118108052D02*
G01*
X68392547Y-118408052D01*
X67192547Y-119608052D01*
X66392547Y-119608052D01*
X66392547Y-118108052D01*
X68392547Y-118108052D01*
G37*
G36*
X67192547Y-116108052D02*
G01*
X68392547Y-117308052D01*
X68392547Y-117608052D01*
X66392547Y-117608052D01*
X66392547Y-116108052D01*
X67192547Y-116108052D01*
G37*
G36*
X68392547Y-114108052D02*
G01*
X68392547Y-114408052D01*
X67192547Y-115608052D01*
X66392547Y-115608052D01*
X66392547Y-114108052D01*
X68392547Y-114108052D01*
G37*
G36*
X67192547Y-112108052D02*
G01*
X68392547Y-113308052D01*
X68392547Y-113608052D01*
X66392547Y-113608052D01*
X66392547Y-112108052D01*
X67192547Y-112108052D01*
G37*
G36*
X68392547Y-110108052D02*
G01*
X68392547Y-110408052D01*
X67192547Y-111608052D01*
X66392547Y-111608052D01*
X66392547Y-110108052D01*
X68392547Y-110108052D01*
G37*
G36*
X67192547Y-108108052D02*
G01*
X68392547Y-109308052D01*
X68392547Y-109608052D01*
X66392547Y-109608052D01*
X66392547Y-108108052D01*
X67192547Y-108108052D01*
G37*
G36*
X68392547Y-106108052D02*
G01*
X68392547Y-106408052D01*
X67192547Y-107608052D01*
X66392547Y-107608052D01*
X66392547Y-106108052D01*
X68392547Y-106108052D01*
G37*
D12*
X67392547Y-104858052D03*
%TD*%
D11*
%TO.C,J5*%
G36*
X46442547Y-120108052D02*
G01*
X46442547Y-119608052D01*
X47342547Y-118708052D01*
X47342547Y-121008052D01*
X46442547Y-120108052D01*
G37*
G36*
X46442547Y-116108052D02*
G01*
X46442547Y-115608052D01*
X47342547Y-114708052D01*
X47342547Y-117008052D01*
X46442547Y-116108052D01*
G37*
G36*
X46442547Y-112108052D02*
G01*
X46442547Y-111608052D01*
X47342547Y-110708052D01*
X47342547Y-113008052D01*
X46442547Y-112108052D01*
G37*
G36*
X46442547Y-108108052D02*
G01*
X46442547Y-107608052D01*
X47342547Y-106708052D01*
X47342547Y-109008052D01*
X46442547Y-108108052D01*
G37*
G36*
X46142547Y-120108052D02*
G01*
X47342547Y-121308052D01*
X47342547Y-121608052D01*
X45342547Y-121608052D01*
X45342547Y-120108052D01*
X46142547Y-120108052D01*
G37*
G36*
X47342547Y-118108052D02*
G01*
X47342547Y-118408052D01*
X46142547Y-119608052D01*
X45342547Y-119608052D01*
X45342547Y-118108052D01*
X47342547Y-118108052D01*
G37*
G36*
X46142547Y-116108052D02*
G01*
X47342547Y-117308052D01*
X47342547Y-117608052D01*
X45342547Y-117608052D01*
X45342547Y-116108052D01*
X46142547Y-116108052D01*
G37*
G36*
X47342547Y-114108052D02*
G01*
X47342547Y-114408052D01*
X46142547Y-115608052D01*
X45342547Y-115608052D01*
X45342547Y-114108052D01*
X47342547Y-114108052D01*
G37*
G36*
X46142547Y-112108052D02*
G01*
X47342547Y-113308052D01*
X47342547Y-113608052D01*
X45342547Y-113608052D01*
X45342547Y-112108052D01*
X46142547Y-112108052D01*
G37*
G36*
X47342547Y-110108052D02*
G01*
X47342547Y-110408052D01*
X46142547Y-111608052D01*
X45342547Y-111608052D01*
X45342547Y-110108052D01*
X47342547Y-110108052D01*
G37*
G36*
X46142547Y-108108052D02*
G01*
X47342547Y-109308052D01*
X47342547Y-109608052D01*
X45342547Y-109608052D01*
X45342547Y-108108052D01*
X46142547Y-108108052D01*
G37*
G36*
X47342547Y-106108052D02*
G01*
X47342547Y-106408052D01*
X46142547Y-107608052D01*
X45342547Y-107608052D01*
X45342547Y-106108052D01*
X47342547Y-106108052D01*
G37*
D12*
X46342547Y-104858052D03*
%TD*%
D11*
%TO.C,J5*%
G36*
X130642547Y-99058052D02*
G01*
X130642547Y-98558052D01*
X131542547Y-97658052D01*
X131542547Y-99958052D01*
X130642547Y-99058052D01*
G37*
G36*
X130642547Y-95058052D02*
G01*
X130642547Y-94558052D01*
X131542547Y-93658052D01*
X131542547Y-95958052D01*
X130642547Y-95058052D01*
G37*
G36*
X130642547Y-91058052D02*
G01*
X130642547Y-90558052D01*
X131542547Y-89658052D01*
X131542547Y-91958052D01*
X130642547Y-91058052D01*
G37*
G36*
X130642547Y-87058052D02*
G01*
X130642547Y-86558052D01*
X131542547Y-85658052D01*
X131542547Y-87958052D01*
X130642547Y-87058052D01*
G37*
G36*
X130342547Y-99058052D02*
G01*
X131542547Y-100258052D01*
X131542547Y-100558052D01*
X129542547Y-100558052D01*
X129542547Y-99058052D01*
X130342547Y-99058052D01*
G37*
G36*
X131542547Y-97058052D02*
G01*
X131542547Y-97358052D01*
X130342547Y-98558052D01*
X129542547Y-98558052D01*
X129542547Y-97058052D01*
X131542547Y-97058052D01*
G37*
G36*
X130342547Y-95058052D02*
G01*
X131542547Y-96258052D01*
X131542547Y-96558052D01*
X129542547Y-96558052D01*
X129542547Y-95058052D01*
X130342547Y-95058052D01*
G37*
G36*
X131542547Y-93058052D02*
G01*
X131542547Y-93358052D01*
X130342547Y-94558052D01*
X129542547Y-94558052D01*
X129542547Y-93058052D01*
X131542547Y-93058052D01*
G37*
G36*
X130342547Y-91058052D02*
G01*
X131542547Y-92258052D01*
X131542547Y-92558052D01*
X129542547Y-92558052D01*
X129542547Y-91058052D01*
X130342547Y-91058052D01*
G37*
G36*
X131542547Y-89058052D02*
G01*
X131542547Y-89358052D01*
X130342547Y-90558052D01*
X129542547Y-90558052D01*
X129542547Y-89058052D01*
X131542547Y-89058052D01*
G37*
G36*
X130342547Y-87058052D02*
G01*
X131542547Y-88258052D01*
X131542547Y-88558052D01*
X129542547Y-88558052D01*
X129542547Y-87058052D01*
X130342547Y-87058052D01*
G37*
G36*
X131542547Y-85058052D02*
G01*
X131542547Y-85358052D01*
X130342547Y-86558052D01*
X129542547Y-86558052D01*
X129542547Y-85058052D01*
X131542547Y-85058052D01*
G37*
D12*
X130542547Y-83808052D03*
%TD*%
D11*
%TO.C,J5*%
G36*
X109592547Y-99058052D02*
G01*
X109592547Y-98558052D01*
X110492547Y-97658052D01*
X110492547Y-99958052D01*
X109592547Y-99058052D01*
G37*
G36*
X109592547Y-95058052D02*
G01*
X109592547Y-94558052D01*
X110492547Y-93658052D01*
X110492547Y-95958052D01*
X109592547Y-95058052D01*
G37*
G36*
X109592547Y-91058052D02*
G01*
X109592547Y-90558052D01*
X110492547Y-89658052D01*
X110492547Y-91958052D01*
X109592547Y-91058052D01*
G37*
G36*
X109592547Y-87058052D02*
G01*
X109592547Y-86558052D01*
X110492547Y-85658052D01*
X110492547Y-87958052D01*
X109592547Y-87058052D01*
G37*
G36*
X109292547Y-99058052D02*
G01*
X110492547Y-100258052D01*
X110492547Y-100558052D01*
X108492547Y-100558052D01*
X108492547Y-99058052D01*
X109292547Y-99058052D01*
G37*
G36*
X110492547Y-97058052D02*
G01*
X110492547Y-97358052D01*
X109292547Y-98558052D01*
X108492547Y-98558052D01*
X108492547Y-97058052D01*
X110492547Y-97058052D01*
G37*
G36*
X109292547Y-95058052D02*
G01*
X110492547Y-96258052D01*
X110492547Y-96558052D01*
X108492547Y-96558052D01*
X108492547Y-95058052D01*
X109292547Y-95058052D01*
G37*
G36*
X110492547Y-93058052D02*
G01*
X110492547Y-93358052D01*
X109292547Y-94558052D01*
X108492547Y-94558052D01*
X108492547Y-93058052D01*
X110492547Y-93058052D01*
G37*
G36*
X109292547Y-91058052D02*
G01*
X110492547Y-92258052D01*
X110492547Y-92558052D01*
X108492547Y-92558052D01*
X108492547Y-91058052D01*
X109292547Y-91058052D01*
G37*
G36*
X110492547Y-89058052D02*
G01*
X110492547Y-89358052D01*
X109292547Y-90558052D01*
X108492547Y-90558052D01*
X108492547Y-89058052D01*
X110492547Y-89058052D01*
G37*
G36*
X109292547Y-87058052D02*
G01*
X110492547Y-88258052D01*
X110492547Y-88558052D01*
X108492547Y-88558052D01*
X108492547Y-87058052D01*
X109292547Y-87058052D01*
G37*
G36*
X110492547Y-85058052D02*
G01*
X110492547Y-85358052D01*
X109292547Y-86558052D01*
X108492547Y-86558052D01*
X108492547Y-85058052D01*
X110492547Y-85058052D01*
G37*
D12*
X109492547Y-83808052D03*
%TD*%
D11*
%TO.C,J5*%
G36*
X88542547Y-99058052D02*
G01*
X88542547Y-98558052D01*
X89442547Y-97658052D01*
X89442547Y-99958052D01*
X88542547Y-99058052D01*
G37*
G36*
X88542547Y-95058052D02*
G01*
X88542547Y-94558052D01*
X89442547Y-93658052D01*
X89442547Y-95958052D01*
X88542547Y-95058052D01*
G37*
G36*
X88542547Y-91058052D02*
G01*
X88542547Y-90558052D01*
X89442547Y-89658052D01*
X89442547Y-91958052D01*
X88542547Y-91058052D01*
G37*
G36*
X88542547Y-87058052D02*
G01*
X88542547Y-86558052D01*
X89442547Y-85658052D01*
X89442547Y-87958052D01*
X88542547Y-87058052D01*
G37*
G36*
X88242547Y-99058052D02*
G01*
X89442547Y-100258052D01*
X89442547Y-100558052D01*
X87442547Y-100558052D01*
X87442547Y-99058052D01*
X88242547Y-99058052D01*
G37*
G36*
X89442547Y-97058052D02*
G01*
X89442547Y-97358052D01*
X88242547Y-98558052D01*
X87442547Y-98558052D01*
X87442547Y-97058052D01*
X89442547Y-97058052D01*
G37*
G36*
X88242547Y-95058052D02*
G01*
X89442547Y-96258052D01*
X89442547Y-96558052D01*
X87442547Y-96558052D01*
X87442547Y-95058052D01*
X88242547Y-95058052D01*
G37*
G36*
X89442547Y-93058052D02*
G01*
X89442547Y-93358052D01*
X88242547Y-94558052D01*
X87442547Y-94558052D01*
X87442547Y-93058052D01*
X89442547Y-93058052D01*
G37*
G36*
X88242547Y-91058052D02*
G01*
X89442547Y-92258052D01*
X89442547Y-92558052D01*
X87442547Y-92558052D01*
X87442547Y-91058052D01*
X88242547Y-91058052D01*
G37*
G36*
X89442547Y-89058052D02*
G01*
X89442547Y-89358052D01*
X88242547Y-90558052D01*
X87442547Y-90558052D01*
X87442547Y-89058052D01*
X89442547Y-89058052D01*
G37*
G36*
X88242547Y-87058052D02*
G01*
X89442547Y-88258052D01*
X89442547Y-88558052D01*
X87442547Y-88558052D01*
X87442547Y-87058052D01*
X88242547Y-87058052D01*
G37*
G36*
X89442547Y-85058052D02*
G01*
X89442547Y-85358052D01*
X88242547Y-86558052D01*
X87442547Y-86558052D01*
X87442547Y-85058052D01*
X89442547Y-85058052D01*
G37*
D12*
X88442547Y-83808052D03*
%TD*%
D11*
%TO.C,J5*%
G36*
X67492547Y-99058052D02*
G01*
X67492547Y-98558052D01*
X68392547Y-97658052D01*
X68392547Y-99958052D01*
X67492547Y-99058052D01*
G37*
G36*
X67492547Y-95058052D02*
G01*
X67492547Y-94558052D01*
X68392547Y-93658052D01*
X68392547Y-95958052D01*
X67492547Y-95058052D01*
G37*
G36*
X67492547Y-91058052D02*
G01*
X67492547Y-90558052D01*
X68392547Y-89658052D01*
X68392547Y-91958052D01*
X67492547Y-91058052D01*
G37*
G36*
X67492547Y-87058052D02*
G01*
X67492547Y-86558052D01*
X68392547Y-85658052D01*
X68392547Y-87958052D01*
X67492547Y-87058052D01*
G37*
G36*
X67192547Y-99058052D02*
G01*
X68392547Y-100258052D01*
X68392547Y-100558052D01*
X66392547Y-100558052D01*
X66392547Y-99058052D01*
X67192547Y-99058052D01*
G37*
G36*
X68392547Y-97058052D02*
G01*
X68392547Y-97358052D01*
X67192547Y-98558052D01*
X66392547Y-98558052D01*
X66392547Y-97058052D01*
X68392547Y-97058052D01*
G37*
G36*
X67192547Y-95058052D02*
G01*
X68392547Y-96258052D01*
X68392547Y-96558052D01*
X66392547Y-96558052D01*
X66392547Y-95058052D01*
X67192547Y-95058052D01*
G37*
G36*
X68392547Y-93058052D02*
G01*
X68392547Y-93358052D01*
X67192547Y-94558052D01*
X66392547Y-94558052D01*
X66392547Y-93058052D01*
X68392547Y-93058052D01*
G37*
G36*
X67192547Y-91058052D02*
G01*
X68392547Y-92258052D01*
X68392547Y-92558052D01*
X66392547Y-92558052D01*
X66392547Y-91058052D01*
X67192547Y-91058052D01*
G37*
G36*
X68392547Y-89058052D02*
G01*
X68392547Y-89358052D01*
X67192547Y-90558052D01*
X66392547Y-90558052D01*
X66392547Y-89058052D01*
X68392547Y-89058052D01*
G37*
G36*
X67192547Y-87058052D02*
G01*
X68392547Y-88258052D01*
X68392547Y-88558052D01*
X66392547Y-88558052D01*
X66392547Y-87058052D01*
X67192547Y-87058052D01*
G37*
G36*
X68392547Y-85058052D02*
G01*
X68392547Y-85358052D01*
X67192547Y-86558052D01*
X66392547Y-86558052D01*
X66392547Y-85058052D01*
X68392547Y-85058052D01*
G37*
D12*
X67392547Y-83808052D03*
%TD*%
D11*
%TO.C,J5*%
G36*
X46442547Y-99058052D02*
G01*
X46442547Y-98558052D01*
X47342547Y-97658052D01*
X47342547Y-99958052D01*
X46442547Y-99058052D01*
G37*
G36*
X46442547Y-95058052D02*
G01*
X46442547Y-94558052D01*
X47342547Y-93658052D01*
X47342547Y-95958052D01*
X46442547Y-95058052D01*
G37*
G36*
X46442547Y-91058052D02*
G01*
X46442547Y-90558052D01*
X47342547Y-89658052D01*
X47342547Y-91958052D01*
X46442547Y-91058052D01*
G37*
G36*
X46442547Y-87058052D02*
G01*
X46442547Y-86558052D01*
X47342547Y-85658052D01*
X47342547Y-87958052D01*
X46442547Y-87058052D01*
G37*
G36*
X46142547Y-99058052D02*
G01*
X47342547Y-100258052D01*
X47342547Y-100558052D01*
X45342547Y-100558052D01*
X45342547Y-99058052D01*
X46142547Y-99058052D01*
G37*
G36*
X47342547Y-97058052D02*
G01*
X47342547Y-97358052D01*
X46142547Y-98558052D01*
X45342547Y-98558052D01*
X45342547Y-97058052D01*
X47342547Y-97058052D01*
G37*
G36*
X46142547Y-95058052D02*
G01*
X47342547Y-96258052D01*
X47342547Y-96558052D01*
X45342547Y-96558052D01*
X45342547Y-95058052D01*
X46142547Y-95058052D01*
G37*
G36*
X47342547Y-93058052D02*
G01*
X47342547Y-93358052D01*
X46142547Y-94558052D01*
X45342547Y-94558052D01*
X45342547Y-93058052D01*
X47342547Y-93058052D01*
G37*
G36*
X46142547Y-91058052D02*
G01*
X47342547Y-92258052D01*
X47342547Y-92558052D01*
X45342547Y-92558052D01*
X45342547Y-91058052D01*
X46142547Y-91058052D01*
G37*
G36*
X47342547Y-89058052D02*
G01*
X47342547Y-89358052D01*
X46142547Y-90558052D01*
X45342547Y-90558052D01*
X45342547Y-89058052D01*
X47342547Y-89058052D01*
G37*
G36*
X46142547Y-87058052D02*
G01*
X47342547Y-88258052D01*
X47342547Y-88558052D01*
X45342547Y-88558052D01*
X45342547Y-87058052D01*
X46142547Y-87058052D01*
G37*
G36*
X47342547Y-85058052D02*
G01*
X47342547Y-85358052D01*
X46142547Y-86558052D01*
X45342547Y-86558052D01*
X45342547Y-85058052D01*
X47342547Y-85058052D01*
G37*
D12*
X46342547Y-83808052D03*
%TD*%
D11*
%TO.C,J5*%
G36*
X130642547Y-78008052D02*
G01*
X130642547Y-77508052D01*
X131542547Y-76608052D01*
X131542547Y-78908052D01*
X130642547Y-78008052D01*
G37*
G36*
X130642547Y-74008052D02*
G01*
X130642547Y-73508052D01*
X131542547Y-72608052D01*
X131542547Y-74908052D01*
X130642547Y-74008052D01*
G37*
G36*
X130642547Y-70008052D02*
G01*
X130642547Y-69508052D01*
X131542547Y-68608052D01*
X131542547Y-70908052D01*
X130642547Y-70008052D01*
G37*
G36*
X130642547Y-66008052D02*
G01*
X130642547Y-65508052D01*
X131542547Y-64608052D01*
X131542547Y-66908052D01*
X130642547Y-66008052D01*
G37*
G36*
X130342547Y-78008052D02*
G01*
X131542547Y-79208052D01*
X131542547Y-79508052D01*
X129542547Y-79508052D01*
X129542547Y-78008052D01*
X130342547Y-78008052D01*
G37*
G36*
X131542547Y-76008052D02*
G01*
X131542547Y-76308052D01*
X130342547Y-77508052D01*
X129542547Y-77508052D01*
X129542547Y-76008052D01*
X131542547Y-76008052D01*
G37*
G36*
X130342547Y-74008052D02*
G01*
X131542547Y-75208052D01*
X131542547Y-75508052D01*
X129542547Y-75508052D01*
X129542547Y-74008052D01*
X130342547Y-74008052D01*
G37*
G36*
X131542547Y-72008052D02*
G01*
X131542547Y-72308052D01*
X130342547Y-73508052D01*
X129542547Y-73508052D01*
X129542547Y-72008052D01*
X131542547Y-72008052D01*
G37*
G36*
X130342547Y-70008052D02*
G01*
X131542547Y-71208052D01*
X131542547Y-71508052D01*
X129542547Y-71508052D01*
X129542547Y-70008052D01*
X130342547Y-70008052D01*
G37*
G36*
X131542547Y-68008052D02*
G01*
X131542547Y-68308052D01*
X130342547Y-69508052D01*
X129542547Y-69508052D01*
X129542547Y-68008052D01*
X131542547Y-68008052D01*
G37*
G36*
X130342547Y-66008052D02*
G01*
X131542547Y-67208052D01*
X131542547Y-67508052D01*
X129542547Y-67508052D01*
X129542547Y-66008052D01*
X130342547Y-66008052D01*
G37*
G36*
X131542547Y-64008052D02*
G01*
X131542547Y-64308052D01*
X130342547Y-65508052D01*
X129542547Y-65508052D01*
X129542547Y-64008052D01*
X131542547Y-64008052D01*
G37*
D12*
X130542547Y-62758052D03*
%TD*%
D11*
%TO.C,J5*%
G36*
X109592547Y-78008052D02*
G01*
X109592547Y-77508052D01*
X110492547Y-76608052D01*
X110492547Y-78908052D01*
X109592547Y-78008052D01*
G37*
G36*
X109592547Y-74008052D02*
G01*
X109592547Y-73508052D01*
X110492547Y-72608052D01*
X110492547Y-74908052D01*
X109592547Y-74008052D01*
G37*
G36*
X109592547Y-70008052D02*
G01*
X109592547Y-69508052D01*
X110492547Y-68608052D01*
X110492547Y-70908052D01*
X109592547Y-70008052D01*
G37*
G36*
X109592547Y-66008052D02*
G01*
X109592547Y-65508052D01*
X110492547Y-64608052D01*
X110492547Y-66908052D01*
X109592547Y-66008052D01*
G37*
G36*
X109292547Y-78008052D02*
G01*
X110492547Y-79208052D01*
X110492547Y-79508052D01*
X108492547Y-79508052D01*
X108492547Y-78008052D01*
X109292547Y-78008052D01*
G37*
G36*
X110492547Y-76008052D02*
G01*
X110492547Y-76308052D01*
X109292547Y-77508052D01*
X108492547Y-77508052D01*
X108492547Y-76008052D01*
X110492547Y-76008052D01*
G37*
G36*
X109292547Y-74008052D02*
G01*
X110492547Y-75208052D01*
X110492547Y-75508052D01*
X108492547Y-75508052D01*
X108492547Y-74008052D01*
X109292547Y-74008052D01*
G37*
G36*
X110492547Y-72008052D02*
G01*
X110492547Y-72308052D01*
X109292547Y-73508052D01*
X108492547Y-73508052D01*
X108492547Y-72008052D01*
X110492547Y-72008052D01*
G37*
G36*
X109292547Y-70008052D02*
G01*
X110492547Y-71208052D01*
X110492547Y-71508052D01*
X108492547Y-71508052D01*
X108492547Y-70008052D01*
X109292547Y-70008052D01*
G37*
G36*
X110492547Y-68008052D02*
G01*
X110492547Y-68308052D01*
X109292547Y-69508052D01*
X108492547Y-69508052D01*
X108492547Y-68008052D01*
X110492547Y-68008052D01*
G37*
G36*
X109292547Y-66008052D02*
G01*
X110492547Y-67208052D01*
X110492547Y-67508052D01*
X108492547Y-67508052D01*
X108492547Y-66008052D01*
X109292547Y-66008052D01*
G37*
G36*
X110492547Y-64008052D02*
G01*
X110492547Y-64308052D01*
X109292547Y-65508052D01*
X108492547Y-65508052D01*
X108492547Y-64008052D01*
X110492547Y-64008052D01*
G37*
D12*
X109492547Y-62758052D03*
%TD*%
D11*
%TO.C,J5*%
G36*
X88542547Y-78008052D02*
G01*
X88542547Y-77508052D01*
X89442547Y-76608052D01*
X89442547Y-78908052D01*
X88542547Y-78008052D01*
G37*
G36*
X88542547Y-74008052D02*
G01*
X88542547Y-73508052D01*
X89442547Y-72608052D01*
X89442547Y-74908052D01*
X88542547Y-74008052D01*
G37*
G36*
X88542547Y-70008052D02*
G01*
X88542547Y-69508052D01*
X89442547Y-68608052D01*
X89442547Y-70908052D01*
X88542547Y-70008052D01*
G37*
G36*
X88542547Y-66008052D02*
G01*
X88542547Y-65508052D01*
X89442547Y-64608052D01*
X89442547Y-66908052D01*
X88542547Y-66008052D01*
G37*
G36*
X88242547Y-78008052D02*
G01*
X89442547Y-79208052D01*
X89442547Y-79508052D01*
X87442547Y-79508052D01*
X87442547Y-78008052D01*
X88242547Y-78008052D01*
G37*
G36*
X89442547Y-76008052D02*
G01*
X89442547Y-76308052D01*
X88242547Y-77508052D01*
X87442547Y-77508052D01*
X87442547Y-76008052D01*
X89442547Y-76008052D01*
G37*
G36*
X88242547Y-74008052D02*
G01*
X89442547Y-75208052D01*
X89442547Y-75508052D01*
X87442547Y-75508052D01*
X87442547Y-74008052D01*
X88242547Y-74008052D01*
G37*
G36*
X89442547Y-72008052D02*
G01*
X89442547Y-72308052D01*
X88242547Y-73508052D01*
X87442547Y-73508052D01*
X87442547Y-72008052D01*
X89442547Y-72008052D01*
G37*
G36*
X88242547Y-70008052D02*
G01*
X89442547Y-71208052D01*
X89442547Y-71508052D01*
X87442547Y-71508052D01*
X87442547Y-70008052D01*
X88242547Y-70008052D01*
G37*
G36*
X89442547Y-68008052D02*
G01*
X89442547Y-68308052D01*
X88242547Y-69508052D01*
X87442547Y-69508052D01*
X87442547Y-68008052D01*
X89442547Y-68008052D01*
G37*
G36*
X88242547Y-66008052D02*
G01*
X89442547Y-67208052D01*
X89442547Y-67508052D01*
X87442547Y-67508052D01*
X87442547Y-66008052D01*
X88242547Y-66008052D01*
G37*
G36*
X89442547Y-64008052D02*
G01*
X89442547Y-64308052D01*
X88242547Y-65508052D01*
X87442547Y-65508052D01*
X87442547Y-64008052D01*
X89442547Y-64008052D01*
G37*
D12*
X88442547Y-62758052D03*
%TD*%
D11*
%TO.C,J5*%
G36*
X67492547Y-78008052D02*
G01*
X67492547Y-77508052D01*
X68392547Y-76608052D01*
X68392547Y-78908052D01*
X67492547Y-78008052D01*
G37*
G36*
X67492547Y-74008052D02*
G01*
X67492547Y-73508052D01*
X68392547Y-72608052D01*
X68392547Y-74908052D01*
X67492547Y-74008052D01*
G37*
G36*
X67492547Y-70008052D02*
G01*
X67492547Y-69508052D01*
X68392547Y-68608052D01*
X68392547Y-70908052D01*
X67492547Y-70008052D01*
G37*
G36*
X67492547Y-66008052D02*
G01*
X67492547Y-65508052D01*
X68392547Y-64608052D01*
X68392547Y-66908052D01*
X67492547Y-66008052D01*
G37*
G36*
X67192547Y-78008052D02*
G01*
X68392547Y-79208052D01*
X68392547Y-79508052D01*
X66392547Y-79508052D01*
X66392547Y-78008052D01*
X67192547Y-78008052D01*
G37*
G36*
X68392547Y-76008052D02*
G01*
X68392547Y-76308052D01*
X67192547Y-77508052D01*
X66392547Y-77508052D01*
X66392547Y-76008052D01*
X68392547Y-76008052D01*
G37*
G36*
X67192547Y-74008052D02*
G01*
X68392547Y-75208052D01*
X68392547Y-75508052D01*
X66392547Y-75508052D01*
X66392547Y-74008052D01*
X67192547Y-74008052D01*
G37*
G36*
X68392547Y-72008052D02*
G01*
X68392547Y-72308052D01*
X67192547Y-73508052D01*
X66392547Y-73508052D01*
X66392547Y-72008052D01*
X68392547Y-72008052D01*
G37*
G36*
X67192547Y-70008052D02*
G01*
X68392547Y-71208052D01*
X68392547Y-71508052D01*
X66392547Y-71508052D01*
X66392547Y-70008052D01*
X67192547Y-70008052D01*
G37*
G36*
X68392547Y-68008052D02*
G01*
X68392547Y-68308052D01*
X67192547Y-69508052D01*
X66392547Y-69508052D01*
X66392547Y-68008052D01*
X68392547Y-68008052D01*
G37*
G36*
X67192547Y-66008052D02*
G01*
X68392547Y-67208052D01*
X68392547Y-67508052D01*
X66392547Y-67508052D01*
X66392547Y-66008052D01*
X67192547Y-66008052D01*
G37*
G36*
X68392547Y-64008052D02*
G01*
X68392547Y-64308052D01*
X67192547Y-65508052D01*
X66392547Y-65508052D01*
X66392547Y-64008052D01*
X68392547Y-64008052D01*
G37*
D12*
X67392547Y-62758052D03*
%TD*%
D11*
%TO.C,J5*%
G36*
X46442547Y-78008052D02*
G01*
X46442547Y-77508052D01*
X47342547Y-76608052D01*
X47342547Y-78908052D01*
X46442547Y-78008052D01*
G37*
G36*
X46442547Y-74008052D02*
G01*
X46442547Y-73508052D01*
X47342547Y-72608052D01*
X47342547Y-74908052D01*
X46442547Y-74008052D01*
G37*
G36*
X46442547Y-70008052D02*
G01*
X46442547Y-69508052D01*
X47342547Y-68608052D01*
X47342547Y-70908052D01*
X46442547Y-70008052D01*
G37*
G36*
X46442547Y-66008052D02*
G01*
X46442547Y-65508052D01*
X47342547Y-64608052D01*
X47342547Y-66908052D01*
X46442547Y-66008052D01*
G37*
G36*
X46142547Y-78008052D02*
G01*
X47342547Y-79208052D01*
X47342547Y-79508052D01*
X45342547Y-79508052D01*
X45342547Y-78008052D01*
X46142547Y-78008052D01*
G37*
G36*
X47342547Y-76008052D02*
G01*
X47342547Y-76308052D01*
X46142547Y-77508052D01*
X45342547Y-77508052D01*
X45342547Y-76008052D01*
X47342547Y-76008052D01*
G37*
G36*
X46142547Y-74008052D02*
G01*
X47342547Y-75208052D01*
X47342547Y-75508052D01*
X45342547Y-75508052D01*
X45342547Y-74008052D01*
X46142547Y-74008052D01*
G37*
G36*
X47342547Y-72008052D02*
G01*
X47342547Y-72308052D01*
X46142547Y-73508052D01*
X45342547Y-73508052D01*
X45342547Y-72008052D01*
X47342547Y-72008052D01*
G37*
G36*
X46142547Y-70008052D02*
G01*
X47342547Y-71208052D01*
X47342547Y-71508052D01*
X45342547Y-71508052D01*
X45342547Y-70008052D01*
X46142547Y-70008052D01*
G37*
G36*
X47342547Y-68008052D02*
G01*
X47342547Y-68308052D01*
X46142547Y-69508052D01*
X45342547Y-69508052D01*
X45342547Y-68008052D01*
X47342547Y-68008052D01*
G37*
G36*
X46142547Y-66008052D02*
G01*
X47342547Y-67208052D01*
X47342547Y-67508052D01*
X45342547Y-67508052D01*
X45342547Y-66008052D01*
X46142547Y-66008052D01*
G37*
G36*
X47342547Y-64008052D02*
G01*
X47342547Y-64308052D01*
X46142547Y-65508052D01*
X45342547Y-65508052D01*
X45342547Y-64008052D01*
X47342547Y-64008052D01*
G37*
D12*
X46342547Y-62758052D03*
%TD*%
D11*
%TO.C,J5*%
G36*
X130642547Y-56958052D02*
G01*
X130642547Y-56458052D01*
X131542547Y-55558052D01*
X131542547Y-57858052D01*
X130642547Y-56958052D01*
G37*
G36*
X130642547Y-52958052D02*
G01*
X130642547Y-52458052D01*
X131542547Y-51558052D01*
X131542547Y-53858052D01*
X130642547Y-52958052D01*
G37*
G36*
X130642547Y-48958052D02*
G01*
X130642547Y-48458052D01*
X131542547Y-47558052D01*
X131542547Y-49858052D01*
X130642547Y-48958052D01*
G37*
G36*
X130642547Y-44958052D02*
G01*
X130642547Y-44458052D01*
X131542547Y-43558052D01*
X131542547Y-45858052D01*
X130642547Y-44958052D01*
G37*
G36*
X130342547Y-56958052D02*
G01*
X131542547Y-58158052D01*
X131542547Y-58458052D01*
X129542547Y-58458052D01*
X129542547Y-56958052D01*
X130342547Y-56958052D01*
G37*
G36*
X131542547Y-54958052D02*
G01*
X131542547Y-55258052D01*
X130342547Y-56458052D01*
X129542547Y-56458052D01*
X129542547Y-54958052D01*
X131542547Y-54958052D01*
G37*
G36*
X130342547Y-52958052D02*
G01*
X131542547Y-54158052D01*
X131542547Y-54458052D01*
X129542547Y-54458052D01*
X129542547Y-52958052D01*
X130342547Y-52958052D01*
G37*
G36*
X131542547Y-50958052D02*
G01*
X131542547Y-51258052D01*
X130342547Y-52458052D01*
X129542547Y-52458052D01*
X129542547Y-50958052D01*
X131542547Y-50958052D01*
G37*
G36*
X130342547Y-48958052D02*
G01*
X131542547Y-50158052D01*
X131542547Y-50458052D01*
X129542547Y-50458052D01*
X129542547Y-48958052D01*
X130342547Y-48958052D01*
G37*
G36*
X131542547Y-46958052D02*
G01*
X131542547Y-47258052D01*
X130342547Y-48458052D01*
X129542547Y-48458052D01*
X129542547Y-46958052D01*
X131542547Y-46958052D01*
G37*
G36*
X130342547Y-44958052D02*
G01*
X131542547Y-46158052D01*
X131542547Y-46458052D01*
X129542547Y-46458052D01*
X129542547Y-44958052D01*
X130342547Y-44958052D01*
G37*
G36*
X131542547Y-42958052D02*
G01*
X131542547Y-43258052D01*
X130342547Y-44458052D01*
X129542547Y-44458052D01*
X129542547Y-42958052D01*
X131542547Y-42958052D01*
G37*
D12*
X130542547Y-41708052D03*
%TD*%
D11*
%TO.C,J5*%
G36*
X109592547Y-56958052D02*
G01*
X109592547Y-56458052D01*
X110492547Y-55558052D01*
X110492547Y-57858052D01*
X109592547Y-56958052D01*
G37*
G36*
X109592547Y-52958052D02*
G01*
X109592547Y-52458052D01*
X110492547Y-51558052D01*
X110492547Y-53858052D01*
X109592547Y-52958052D01*
G37*
G36*
X109592547Y-48958052D02*
G01*
X109592547Y-48458052D01*
X110492547Y-47558052D01*
X110492547Y-49858052D01*
X109592547Y-48958052D01*
G37*
G36*
X109592547Y-44958052D02*
G01*
X109592547Y-44458052D01*
X110492547Y-43558052D01*
X110492547Y-45858052D01*
X109592547Y-44958052D01*
G37*
G36*
X109292547Y-56958052D02*
G01*
X110492547Y-58158052D01*
X110492547Y-58458052D01*
X108492547Y-58458052D01*
X108492547Y-56958052D01*
X109292547Y-56958052D01*
G37*
G36*
X110492547Y-54958052D02*
G01*
X110492547Y-55258052D01*
X109292547Y-56458052D01*
X108492547Y-56458052D01*
X108492547Y-54958052D01*
X110492547Y-54958052D01*
G37*
G36*
X109292547Y-52958052D02*
G01*
X110492547Y-54158052D01*
X110492547Y-54458052D01*
X108492547Y-54458052D01*
X108492547Y-52958052D01*
X109292547Y-52958052D01*
G37*
G36*
X110492547Y-50958052D02*
G01*
X110492547Y-51258052D01*
X109292547Y-52458052D01*
X108492547Y-52458052D01*
X108492547Y-50958052D01*
X110492547Y-50958052D01*
G37*
G36*
X109292547Y-48958052D02*
G01*
X110492547Y-50158052D01*
X110492547Y-50458052D01*
X108492547Y-50458052D01*
X108492547Y-48958052D01*
X109292547Y-48958052D01*
G37*
G36*
X110492547Y-46958052D02*
G01*
X110492547Y-47258052D01*
X109292547Y-48458052D01*
X108492547Y-48458052D01*
X108492547Y-46958052D01*
X110492547Y-46958052D01*
G37*
G36*
X109292547Y-44958052D02*
G01*
X110492547Y-46158052D01*
X110492547Y-46458052D01*
X108492547Y-46458052D01*
X108492547Y-44958052D01*
X109292547Y-44958052D01*
G37*
G36*
X110492547Y-42958052D02*
G01*
X110492547Y-43258052D01*
X109292547Y-44458052D01*
X108492547Y-44458052D01*
X108492547Y-42958052D01*
X110492547Y-42958052D01*
G37*
D12*
X109492547Y-41708052D03*
%TD*%
D11*
%TO.C,J5*%
G36*
X88542547Y-56958052D02*
G01*
X88542547Y-56458052D01*
X89442547Y-55558052D01*
X89442547Y-57858052D01*
X88542547Y-56958052D01*
G37*
G36*
X88542547Y-52958052D02*
G01*
X88542547Y-52458052D01*
X89442547Y-51558052D01*
X89442547Y-53858052D01*
X88542547Y-52958052D01*
G37*
G36*
X88542547Y-48958052D02*
G01*
X88542547Y-48458052D01*
X89442547Y-47558052D01*
X89442547Y-49858052D01*
X88542547Y-48958052D01*
G37*
G36*
X88542547Y-44958052D02*
G01*
X88542547Y-44458052D01*
X89442547Y-43558052D01*
X89442547Y-45858052D01*
X88542547Y-44958052D01*
G37*
G36*
X88242547Y-56958052D02*
G01*
X89442547Y-58158052D01*
X89442547Y-58458052D01*
X87442547Y-58458052D01*
X87442547Y-56958052D01*
X88242547Y-56958052D01*
G37*
G36*
X89442547Y-54958052D02*
G01*
X89442547Y-55258052D01*
X88242547Y-56458052D01*
X87442547Y-56458052D01*
X87442547Y-54958052D01*
X89442547Y-54958052D01*
G37*
G36*
X88242547Y-52958052D02*
G01*
X89442547Y-54158052D01*
X89442547Y-54458052D01*
X87442547Y-54458052D01*
X87442547Y-52958052D01*
X88242547Y-52958052D01*
G37*
G36*
X89442547Y-50958052D02*
G01*
X89442547Y-51258052D01*
X88242547Y-52458052D01*
X87442547Y-52458052D01*
X87442547Y-50958052D01*
X89442547Y-50958052D01*
G37*
G36*
X88242547Y-48958052D02*
G01*
X89442547Y-50158052D01*
X89442547Y-50458052D01*
X87442547Y-50458052D01*
X87442547Y-48958052D01*
X88242547Y-48958052D01*
G37*
G36*
X89442547Y-46958052D02*
G01*
X89442547Y-47258052D01*
X88242547Y-48458052D01*
X87442547Y-48458052D01*
X87442547Y-46958052D01*
X89442547Y-46958052D01*
G37*
G36*
X88242547Y-44958052D02*
G01*
X89442547Y-46158052D01*
X89442547Y-46458052D01*
X87442547Y-46458052D01*
X87442547Y-44958052D01*
X88242547Y-44958052D01*
G37*
G36*
X89442547Y-42958052D02*
G01*
X89442547Y-43258052D01*
X88242547Y-44458052D01*
X87442547Y-44458052D01*
X87442547Y-42958052D01*
X89442547Y-42958052D01*
G37*
D12*
X88442547Y-41708052D03*
%TD*%
D11*
%TO.C,J5*%
G36*
X67492547Y-56958052D02*
G01*
X67492547Y-56458052D01*
X68392547Y-55558052D01*
X68392547Y-57858052D01*
X67492547Y-56958052D01*
G37*
G36*
X67492547Y-52958052D02*
G01*
X67492547Y-52458052D01*
X68392547Y-51558052D01*
X68392547Y-53858052D01*
X67492547Y-52958052D01*
G37*
G36*
X67492547Y-48958052D02*
G01*
X67492547Y-48458052D01*
X68392547Y-47558052D01*
X68392547Y-49858052D01*
X67492547Y-48958052D01*
G37*
G36*
X67492547Y-44958052D02*
G01*
X67492547Y-44458052D01*
X68392547Y-43558052D01*
X68392547Y-45858052D01*
X67492547Y-44958052D01*
G37*
G36*
X67192547Y-56958052D02*
G01*
X68392547Y-58158052D01*
X68392547Y-58458052D01*
X66392547Y-58458052D01*
X66392547Y-56958052D01*
X67192547Y-56958052D01*
G37*
G36*
X68392547Y-54958052D02*
G01*
X68392547Y-55258052D01*
X67192547Y-56458052D01*
X66392547Y-56458052D01*
X66392547Y-54958052D01*
X68392547Y-54958052D01*
G37*
G36*
X67192547Y-52958052D02*
G01*
X68392547Y-54158052D01*
X68392547Y-54458052D01*
X66392547Y-54458052D01*
X66392547Y-52958052D01*
X67192547Y-52958052D01*
G37*
G36*
X68392547Y-50958052D02*
G01*
X68392547Y-51258052D01*
X67192547Y-52458052D01*
X66392547Y-52458052D01*
X66392547Y-50958052D01*
X68392547Y-50958052D01*
G37*
G36*
X67192547Y-48958052D02*
G01*
X68392547Y-50158052D01*
X68392547Y-50458052D01*
X66392547Y-50458052D01*
X66392547Y-48958052D01*
X67192547Y-48958052D01*
G37*
G36*
X68392547Y-46958052D02*
G01*
X68392547Y-47258052D01*
X67192547Y-48458052D01*
X66392547Y-48458052D01*
X66392547Y-46958052D01*
X68392547Y-46958052D01*
G37*
G36*
X67192547Y-44958052D02*
G01*
X68392547Y-46158052D01*
X68392547Y-46458052D01*
X66392547Y-46458052D01*
X66392547Y-44958052D01*
X67192547Y-44958052D01*
G37*
G36*
X68392547Y-42958052D02*
G01*
X68392547Y-43258052D01*
X67192547Y-44458052D01*
X66392547Y-44458052D01*
X66392547Y-42958052D01*
X68392547Y-42958052D01*
G37*
D12*
X67392547Y-41708052D03*
%TD*%
%TO.C,C2*%
G36*
G01*
X134983547Y-129519052D02*
X134483547Y-129519052D01*
G75*
G02*
X134258547Y-129294052I0J225000D01*
G01*
X134258547Y-128844052D01*
G75*
G02*
X134483547Y-128619052I225000J0D01*
G01*
X134983547Y-128619052D01*
G75*
G02*
X135208547Y-128844052I0J-225000D01*
G01*
X135208547Y-129294052D01*
G75*
G02*
X134983547Y-129519052I-225000J0D01*
G01*
G37*
G36*
G01*
X134983547Y-131069052D02*
X134483547Y-131069052D01*
G75*
G02*
X134258547Y-130844052I0J225000D01*
G01*
X134258547Y-130394052D01*
G75*
G02*
X134483547Y-130169052I225000J0D01*
G01*
X134983547Y-130169052D01*
G75*
G02*
X135208547Y-130394052I0J-225000D01*
G01*
X135208547Y-130844052D01*
G75*
G02*
X134983547Y-131069052I-225000J0D01*
G01*
G37*
%TD*%
%TO.C,C2*%
G36*
G01*
X113933547Y-129519052D02*
X113433547Y-129519052D01*
G75*
G02*
X113208547Y-129294052I0J225000D01*
G01*
X113208547Y-128844052D01*
G75*
G02*
X113433547Y-128619052I225000J0D01*
G01*
X113933547Y-128619052D01*
G75*
G02*
X114158547Y-128844052I0J-225000D01*
G01*
X114158547Y-129294052D01*
G75*
G02*
X113933547Y-129519052I-225000J0D01*
G01*
G37*
G36*
G01*
X113933547Y-131069052D02*
X113433547Y-131069052D01*
G75*
G02*
X113208547Y-130844052I0J225000D01*
G01*
X113208547Y-130394052D01*
G75*
G02*
X113433547Y-130169052I225000J0D01*
G01*
X113933547Y-130169052D01*
G75*
G02*
X114158547Y-130394052I0J-225000D01*
G01*
X114158547Y-130844052D01*
G75*
G02*
X113933547Y-131069052I-225000J0D01*
G01*
G37*
%TD*%
%TO.C,C2*%
G36*
G01*
X92883547Y-129519052D02*
X92383547Y-129519052D01*
G75*
G02*
X92158547Y-129294052I0J225000D01*
G01*
X92158547Y-128844052D01*
G75*
G02*
X92383547Y-128619052I225000J0D01*
G01*
X92883547Y-128619052D01*
G75*
G02*
X93108547Y-128844052I0J-225000D01*
G01*
X93108547Y-129294052D01*
G75*
G02*
X92883547Y-129519052I-225000J0D01*
G01*
G37*
G36*
G01*
X92883547Y-131069052D02*
X92383547Y-131069052D01*
G75*
G02*
X92158547Y-130844052I0J225000D01*
G01*
X92158547Y-130394052D01*
G75*
G02*
X92383547Y-130169052I225000J0D01*
G01*
X92883547Y-130169052D01*
G75*
G02*
X93108547Y-130394052I0J-225000D01*
G01*
X93108547Y-130844052D01*
G75*
G02*
X92883547Y-131069052I-225000J0D01*
G01*
G37*
%TD*%
%TO.C,C2*%
G36*
G01*
X71833547Y-129519052D02*
X71333547Y-129519052D01*
G75*
G02*
X71108547Y-129294052I0J225000D01*
G01*
X71108547Y-128844052D01*
G75*
G02*
X71333547Y-128619052I225000J0D01*
G01*
X71833547Y-128619052D01*
G75*
G02*
X72058547Y-128844052I0J-225000D01*
G01*
X72058547Y-129294052D01*
G75*
G02*
X71833547Y-129519052I-225000J0D01*
G01*
G37*
G36*
G01*
X71833547Y-131069052D02*
X71333547Y-131069052D01*
G75*
G02*
X71108547Y-130844052I0J225000D01*
G01*
X71108547Y-130394052D01*
G75*
G02*
X71333547Y-130169052I225000J0D01*
G01*
X71833547Y-130169052D01*
G75*
G02*
X72058547Y-130394052I0J-225000D01*
G01*
X72058547Y-130844052D01*
G75*
G02*
X71833547Y-131069052I-225000J0D01*
G01*
G37*
%TD*%
%TO.C,C2*%
G36*
G01*
X50783547Y-129519052D02*
X50283547Y-129519052D01*
G75*
G02*
X50058547Y-129294052I0J225000D01*
G01*
X50058547Y-128844052D01*
G75*
G02*
X50283547Y-128619052I225000J0D01*
G01*
X50783547Y-128619052D01*
G75*
G02*
X51008547Y-128844052I0J-225000D01*
G01*
X51008547Y-129294052D01*
G75*
G02*
X50783547Y-129519052I-225000J0D01*
G01*
G37*
G36*
G01*
X50783547Y-131069052D02*
X50283547Y-131069052D01*
G75*
G02*
X50058547Y-130844052I0J225000D01*
G01*
X50058547Y-130394052D01*
G75*
G02*
X50283547Y-130169052I225000J0D01*
G01*
X50783547Y-130169052D01*
G75*
G02*
X51008547Y-130394052I0J-225000D01*
G01*
X51008547Y-130844052D01*
G75*
G02*
X50783547Y-131069052I-225000J0D01*
G01*
G37*
%TD*%
%TO.C,C2*%
G36*
G01*
X134983547Y-108469052D02*
X134483547Y-108469052D01*
G75*
G02*
X134258547Y-108244052I0J225000D01*
G01*
X134258547Y-107794052D01*
G75*
G02*
X134483547Y-107569052I225000J0D01*
G01*
X134983547Y-107569052D01*
G75*
G02*
X135208547Y-107794052I0J-225000D01*
G01*
X135208547Y-108244052D01*
G75*
G02*
X134983547Y-108469052I-225000J0D01*
G01*
G37*
G36*
G01*
X134983547Y-110019052D02*
X134483547Y-110019052D01*
G75*
G02*
X134258547Y-109794052I0J225000D01*
G01*
X134258547Y-109344052D01*
G75*
G02*
X134483547Y-109119052I225000J0D01*
G01*
X134983547Y-109119052D01*
G75*
G02*
X135208547Y-109344052I0J-225000D01*
G01*
X135208547Y-109794052D01*
G75*
G02*
X134983547Y-110019052I-225000J0D01*
G01*
G37*
%TD*%
%TO.C,C2*%
G36*
G01*
X113933547Y-108469052D02*
X113433547Y-108469052D01*
G75*
G02*
X113208547Y-108244052I0J225000D01*
G01*
X113208547Y-107794052D01*
G75*
G02*
X113433547Y-107569052I225000J0D01*
G01*
X113933547Y-107569052D01*
G75*
G02*
X114158547Y-107794052I0J-225000D01*
G01*
X114158547Y-108244052D01*
G75*
G02*
X113933547Y-108469052I-225000J0D01*
G01*
G37*
G36*
G01*
X113933547Y-110019052D02*
X113433547Y-110019052D01*
G75*
G02*
X113208547Y-109794052I0J225000D01*
G01*
X113208547Y-109344052D01*
G75*
G02*
X113433547Y-109119052I225000J0D01*
G01*
X113933547Y-109119052D01*
G75*
G02*
X114158547Y-109344052I0J-225000D01*
G01*
X114158547Y-109794052D01*
G75*
G02*
X113933547Y-110019052I-225000J0D01*
G01*
G37*
%TD*%
%TO.C,C2*%
G36*
G01*
X92883547Y-108469052D02*
X92383547Y-108469052D01*
G75*
G02*
X92158547Y-108244052I0J225000D01*
G01*
X92158547Y-107794052D01*
G75*
G02*
X92383547Y-107569052I225000J0D01*
G01*
X92883547Y-107569052D01*
G75*
G02*
X93108547Y-107794052I0J-225000D01*
G01*
X93108547Y-108244052D01*
G75*
G02*
X92883547Y-108469052I-225000J0D01*
G01*
G37*
G36*
G01*
X92883547Y-110019052D02*
X92383547Y-110019052D01*
G75*
G02*
X92158547Y-109794052I0J225000D01*
G01*
X92158547Y-109344052D01*
G75*
G02*
X92383547Y-109119052I225000J0D01*
G01*
X92883547Y-109119052D01*
G75*
G02*
X93108547Y-109344052I0J-225000D01*
G01*
X93108547Y-109794052D01*
G75*
G02*
X92883547Y-110019052I-225000J0D01*
G01*
G37*
%TD*%
%TO.C,C2*%
G36*
G01*
X71833547Y-108469052D02*
X71333547Y-108469052D01*
G75*
G02*
X71108547Y-108244052I0J225000D01*
G01*
X71108547Y-107794052D01*
G75*
G02*
X71333547Y-107569052I225000J0D01*
G01*
X71833547Y-107569052D01*
G75*
G02*
X72058547Y-107794052I0J-225000D01*
G01*
X72058547Y-108244052D01*
G75*
G02*
X71833547Y-108469052I-225000J0D01*
G01*
G37*
G36*
G01*
X71833547Y-110019052D02*
X71333547Y-110019052D01*
G75*
G02*
X71108547Y-109794052I0J225000D01*
G01*
X71108547Y-109344052D01*
G75*
G02*
X71333547Y-109119052I225000J0D01*
G01*
X71833547Y-109119052D01*
G75*
G02*
X72058547Y-109344052I0J-225000D01*
G01*
X72058547Y-109794052D01*
G75*
G02*
X71833547Y-110019052I-225000J0D01*
G01*
G37*
%TD*%
%TO.C,C2*%
G36*
G01*
X50783547Y-108469052D02*
X50283547Y-108469052D01*
G75*
G02*
X50058547Y-108244052I0J225000D01*
G01*
X50058547Y-107794052D01*
G75*
G02*
X50283547Y-107569052I225000J0D01*
G01*
X50783547Y-107569052D01*
G75*
G02*
X51008547Y-107794052I0J-225000D01*
G01*
X51008547Y-108244052D01*
G75*
G02*
X50783547Y-108469052I-225000J0D01*
G01*
G37*
G36*
G01*
X50783547Y-110019052D02*
X50283547Y-110019052D01*
G75*
G02*
X50058547Y-109794052I0J225000D01*
G01*
X50058547Y-109344052D01*
G75*
G02*
X50283547Y-109119052I225000J0D01*
G01*
X50783547Y-109119052D01*
G75*
G02*
X51008547Y-109344052I0J-225000D01*
G01*
X51008547Y-109794052D01*
G75*
G02*
X50783547Y-110019052I-225000J0D01*
G01*
G37*
%TD*%
%TO.C,C2*%
G36*
G01*
X134983547Y-87419052D02*
X134483547Y-87419052D01*
G75*
G02*
X134258547Y-87194052I0J225000D01*
G01*
X134258547Y-86744052D01*
G75*
G02*
X134483547Y-86519052I225000J0D01*
G01*
X134983547Y-86519052D01*
G75*
G02*
X135208547Y-86744052I0J-225000D01*
G01*
X135208547Y-87194052D01*
G75*
G02*
X134983547Y-87419052I-225000J0D01*
G01*
G37*
G36*
G01*
X134983547Y-88969052D02*
X134483547Y-88969052D01*
G75*
G02*
X134258547Y-88744052I0J225000D01*
G01*
X134258547Y-88294052D01*
G75*
G02*
X134483547Y-88069052I225000J0D01*
G01*
X134983547Y-88069052D01*
G75*
G02*
X135208547Y-88294052I0J-225000D01*
G01*
X135208547Y-88744052D01*
G75*
G02*
X134983547Y-88969052I-225000J0D01*
G01*
G37*
%TD*%
%TO.C,C2*%
G36*
G01*
X113933547Y-87419052D02*
X113433547Y-87419052D01*
G75*
G02*
X113208547Y-87194052I0J225000D01*
G01*
X113208547Y-86744052D01*
G75*
G02*
X113433547Y-86519052I225000J0D01*
G01*
X113933547Y-86519052D01*
G75*
G02*
X114158547Y-86744052I0J-225000D01*
G01*
X114158547Y-87194052D01*
G75*
G02*
X113933547Y-87419052I-225000J0D01*
G01*
G37*
G36*
G01*
X113933547Y-88969052D02*
X113433547Y-88969052D01*
G75*
G02*
X113208547Y-88744052I0J225000D01*
G01*
X113208547Y-88294052D01*
G75*
G02*
X113433547Y-88069052I225000J0D01*
G01*
X113933547Y-88069052D01*
G75*
G02*
X114158547Y-88294052I0J-225000D01*
G01*
X114158547Y-88744052D01*
G75*
G02*
X113933547Y-88969052I-225000J0D01*
G01*
G37*
%TD*%
%TO.C,C2*%
G36*
G01*
X92883547Y-87419052D02*
X92383547Y-87419052D01*
G75*
G02*
X92158547Y-87194052I0J225000D01*
G01*
X92158547Y-86744052D01*
G75*
G02*
X92383547Y-86519052I225000J0D01*
G01*
X92883547Y-86519052D01*
G75*
G02*
X93108547Y-86744052I0J-225000D01*
G01*
X93108547Y-87194052D01*
G75*
G02*
X92883547Y-87419052I-225000J0D01*
G01*
G37*
G36*
G01*
X92883547Y-88969052D02*
X92383547Y-88969052D01*
G75*
G02*
X92158547Y-88744052I0J225000D01*
G01*
X92158547Y-88294052D01*
G75*
G02*
X92383547Y-88069052I225000J0D01*
G01*
X92883547Y-88069052D01*
G75*
G02*
X93108547Y-88294052I0J-225000D01*
G01*
X93108547Y-88744052D01*
G75*
G02*
X92883547Y-88969052I-225000J0D01*
G01*
G37*
%TD*%
%TO.C,C2*%
G36*
G01*
X71833547Y-87419052D02*
X71333547Y-87419052D01*
G75*
G02*
X71108547Y-87194052I0J225000D01*
G01*
X71108547Y-86744052D01*
G75*
G02*
X71333547Y-86519052I225000J0D01*
G01*
X71833547Y-86519052D01*
G75*
G02*
X72058547Y-86744052I0J-225000D01*
G01*
X72058547Y-87194052D01*
G75*
G02*
X71833547Y-87419052I-225000J0D01*
G01*
G37*
G36*
G01*
X71833547Y-88969052D02*
X71333547Y-88969052D01*
G75*
G02*
X71108547Y-88744052I0J225000D01*
G01*
X71108547Y-88294052D01*
G75*
G02*
X71333547Y-88069052I225000J0D01*
G01*
X71833547Y-88069052D01*
G75*
G02*
X72058547Y-88294052I0J-225000D01*
G01*
X72058547Y-88744052D01*
G75*
G02*
X71833547Y-88969052I-225000J0D01*
G01*
G37*
%TD*%
%TO.C,C2*%
G36*
G01*
X50783547Y-87419052D02*
X50283547Y-87419052D01*
G75*
G02*
X50058547Y-87194052I0J225000D01*
G01*
X50058547Y-86744052D01*
G75*
G02*
X50283547Y-86519052I225000J0D01*
G01*
X50783547Y-86519052D01*
G75*
G02*
X51008547Y-86744052I0J-225000D01*
G01*
X51008547Y-87194052D01*
G75*
G02*
X50783547Y-87419052I-225000J0D01*
G01*
G37*
G36*
G01*
X50783547Y-88969052D02*
X50283547Y-88969052D01*
G75*
G02*
X50058547Y-88744052I0J225000D01*
G01*
X50058547Y-88294052D01*
G75*
G02*
X50283547Y-88069052I225000J0D01*
G01*
X50783547Y-88069052D01*
G75*
G02*
X51008547Y-88294052I0J-225000D01*
G01*
X51008547Y-88744052D01*
G75*
G02*
X50783547Y-88969052I-225000J0D01*
G01*
G37*
%TD*%
%TO.C,C2*%
G36*
G01*
X134983547Y-66369052D02*
X134483547Y-66369052D01*
G75*
G02*
X134258547Y-66144052I0J225000D01*
G01*
X134258547Y-65694052D01*
G75*
G02*
X134483547Y-65469052I225000J0D01*
G01*
X134983547Y-65469052D01*
G75*
G02*
X135208547Y-65694052I0J-225000D01*
G01*
X135208547Y-66144052D01*
G75*
G02*
X134983547Y-66369052I-225000J0D01*
G01*
G37*
G36*
G01*
X134983547Y-67919052D02*
X134483547Y-67919052D01*
G75*
G02*
X134258547Y-67694052I0J225000D01*
G01*
X134258547Y-67244052D01*
G75*
G02*
X134483547Y-67019052I225000J0D01*
G01*
X134983547Y-67019052D01*
G75*
G02*
X135208547Y-67244052I0J-225000D01*
G01*
X135208547Y-67694052D01*
G75*
G02*
X134983547Y-67919052I-225000J0D01*
G01*
G37*
%TD*%
%TO.C,C2*%
G36*
G01*
X113933547Y-66369052D02*
X113433547Y-66369052D01*
G75*
G02*
X113208547Y-66144052I0J225000D01*
G01*
X113208547Y-65694052D01*
G75*
G02*
X113433547Y-65469052I225000J0D01*
G01*
X113933547Y-65469052D01*
G75*
G02*
X114158547Y-65694052I0J-225000D01*
G01*
X114158547Y-66144052D01*
G75*
G02*
X113933547Y-66369052I-225000J0D01*
G01*
G37*
G36*
G01*
X113933547Y-67919052D02*
X113433547Y-67919052D01*
G75*
G02*
X113208547Y-67694052I0J225000D01*
G01*
X113208547Y-67244052D01*
G75*
G02*
X113433547Y-67019052I225000J0D01*
G01*
X113933547Y-67019052D01*
G75*
G02*
X114158547Y-67244052I0J-225000D01*
G01*
X114158547Y-67694052D01*
G75*
G02*
X113933547Y-67919052I-225000J0D01*
G01*
G37*
%TD*%
%TO.C,C2*%
G36*
G01*
X92883547Y-66369052D02*
X92383547Y-66369052D01*
G75*
G02*
X92158547Y-66144052I0J225000D01*
G01*
X92158547Y-65694052D01*
G75*
G02*
X92383547Y-65469052I225000J0D01*
G01*
X92883547Y-65469052D01*
G75*
G02*
X93108547Y-65694052I0J-225000D01*
G01*
X93108547Y-66144052D01*
G75*
G02*
X92883547Y-66369052I-225000J0D01*
G01*
G37*
G36*
G01*
X92883547Y-67919052D02*
X92383547Y-67919052D01*
G75*
G02*
X92158547Y-67694052I0J225000D01*
G01*
X92158547Y-67244052D01*
G75*
G02*
X92383547Y-67019052I225000J0D01*
G01*
X92883547Y-67019052D01*
G75*
G02*
X93108547Y-67244052I0J-225000D01*
G01*
X93108547Y-67694052D01*
G75*
G02*
X92883547Y-67919052I-225000J0D01*
G01*
G37*
%TD*%
%TO.C,C2*%
G36*
G01*
X71833547Y-66369052D02*
X71333547Y-66369052D01*
G75*
G02*
X71108547Y-66144052I0J225000D01*
G01*
X71108547Y-65694052D01*
G75*
G02*
X71333547Y-65469052I225000J0D01*
G01*
X71833547Y-65469052D01*
G75*
G02*
X72058547Y-65694052I0J-225000D01*
G01*
X72058547Y-66144052D01*
G75*
G02*
X71833547Y-66369052I-225000J0D01*
G01*
G37*
G36*
G01*
X71833547Y-67919052D02*
X71333547Y-67919052D01*
G75*
G02*
X71108547Y-67694052I0J225000D01*
G01*
X71108547Y-67244052D01*
G75*
G02*
X71333547Y-67019052I225000J0D01*
G01*
X71833547Y-67019052D01*
G75*
G02*
X72058547Y-67244052I0J-225000D01*
G01*
X72058547Y-67694052D01*
G75*
G02*
X71833547Y-67919052I-225000J0D01*
G01*
G37*
%TD*%
%TO.C,C2*%
G36*
G01*
X50783547Y-66369052D02*
X50283547Y-66369052D01*
G75*
G02*
X50058547Y-66144052I0J225000D01*
G01*
X50058547Y-65694052D01*
G75*
G02*
X50283547Y-65469052I225000J0D01*
G01*
X50783547Y-65469052D01*
G75*
G02*
X51008547Y-65694052I0J-225000D01*
G01*
X51008547Y-66144052D01*
G75*
G02*
X50783547Y-66369052I-225000J0D01*
G01*
G37*
G36*
G01*
X50783547Y-67919052D02*
X50283547Y-67919052D01*
G75*
G02*
X50058547Y-67694052I0J225000D01*
G01*
X50058547Y-67244052D01*
G75*
G02*
X50283547Y-67019052I225000J0D01*
G01*
X50783547Y-67019052D01*
G75*
G02*
X51008547Y-67244052I0J-225000D01*
G01*
X51008547Y-67694052D01*
G75*
G02*
X50783547Y-67919052I-225000J0D01*
G01*
G37*
%TD*%
%TO.C,C2*%
G36*
G01*
X134983547Y-45319052D02*
X134483547Y-45319052D01*
G75*
G02*
X134258547Y-45094052I0J225000D01*
G01*
X134258547Y-44644052D01*
G75*
G02*
X134483547Y-44419052I225000J0D01*
G01*
X134983547Y-44419052D01*
G75*
G02*
X135208547Y-44644052I0J-225000D01*
G01*
X135208547Y-45094052D01*
G75*
G02*
X134983547Y-45319052I-225000J0D01*
G01*
G37*
G36*
G01*
X134983547Y-46869052D02*
X134483547Y-46869052D01*
G75*
G02*
X134258547Y-46644052I0J225000D01*
G01*
X134258547Y-46194052D01*
G75*
G02*
X134483547Y-45969052I225000J0D01*
G01*
X134983547Y-45969052D01*
G75*
G02*
X135208547Y-46194052I0J-225000D01*
G01*
X135208547Y-46644052D01*
G75*
G02*
X134983547Y-46869052I-225000J0D01*
G01*
G37*
%TD*%
%TO.C,C2*%
G36*
G01*
X113933547Y-45319052D02*
X113433547Y-45319052D01*
G75*
G02*
X113208547Y-45094052I0J225000D01*
G01*
X113208547Y-44644052D01*
G75*
G02*
X113433547Y-44419052I225000J0D01*
G01*
X113933547Y-44419052D01*
G75*
G02*
X114158547Y-44644052I0J-225000D01*
G01*
X114158547Y-45094052D01*
G75*
G02*
X113933547Y-45319052I-225000J0D01*
G01*
G37*
G36*
G01*
X113933547Y-46869052D02*
X113433547Y-46869052D01*
G75*
G02*
X113208547Y-46644052I0J225000D01*
G01*
X113208547Y-46194052D01*
G75*
G02*
X113433547Y-45969052I225000J0D01*
G01*
X113933547Y-45969052D01*
G75*
G02*
X114158547Y-46194052I0J-225000D01*
G01*
X114158547Y-46644052D01*
G75*
G02*
X113933547Y-46869052I-225000J0D01*
G01*
G37*
%TD*%
%TO.C,C2*%
G36*
G01*
X92883547Y-45319052D02*
X92383547Y-45319052D01*
G75*
G02*
X92158547Y-45094052I0J225000D01*
G01*
X92158547Y-44644052D01*
G75*
G02*
X92383547Y-44419052I225000J0D01*
G01*
X92883547Y-44419052D01*
G75*
G02*
X93108547Y-44644052I0J-225000D01*
G01*
X93108547Y-45094052D01*
G75*
G02*
X92883547Y-45319052I-225000J0D01*
G01*
G37*
G36*
G01*
X92883547Y-46869052D02*
X92383547Y-46869052D01*
G75*
G02*
X92158547Y-46644052I0J225000D01*
G01*
X92158547Y-46194052D01*
G75*
G02*
X92383547Y-45969052I225000J0D01*
G01*
X92883547Y-45969052D01*
G75*
G02*
X93108547Y-46194052I0J-225000D01*
G01*
X93108547Y-46644052D01*
G75*
G02*
X92883547Y-46869052I-225000J0D01*
G01*
G37*
%TD*%
%TO.C,C2*%
G36*
G01*
X71833547Y-45319052D02*
X71333547Y-45319052D01*
G75*
G02*
X71108547Y-45094052I0J225000D01*
G01*
X71108547Y-44644052D01*
G75*
G02*
X71333547Y-44419052I225000J0D01*
G01*
X71833547Y-44419052D01*
G75*
G02*
X72058547Y-44644052I0J-225000D01*
G01*
X72058547Y-45094052D01*
G75*
G02*
X71833547Y-45319052I-225000J0D01*
G01*
G37*
G36*
G01*
X71833547Y-46869052D02*
X71333547Y-46869052D01*
G75*
G02*
X71108547Y-46644052I0J225000D01*
G01*
X71108547Y-46194052D01*
G75*
G02*
X71333547Y-45969052I225000J0D01*
G01*
X71833547Y-45969052D01*
G75*
G02*
X72058547Y-46194052I0J-225000D01*
G01*
X72058547Y-46644052D01*
G75*
G02*
X71833547Y-46869052I-225000J0D01*
G01*
G37*
%TD*%
%TO.C,C6*%
G36*
G01*
X137981547Y-131792052D02*
X137981547Y-131452052D01*
G75*
G02*
X138121547Y-131312052I140000J0D01*
G01*
X138401547Y-131312052D01*
G75*
G02*
X138541547Y-131452052I0J-140000D01*
G01*
X138541547Y-131792052D01*
G75*
G02*
X138401547Y-131932052I-140000J0D01*
G01*
X138121547Y-131932052D01*
G75*
G02*
X137981547Y-131792052I0J140000D01*
G01*
G37*
G36*
G01*
X137021547Y-131792052D02*
X137021547Y-131452052D01*
G75*
G02*
X137161547Y-131312052I140000J0D01*
G01*
X137441547Y-131312052D01*
G75*
G02*
X137581547Y-131452052I0J-140000D01*
G01*
X137581547Y-131792052D01*
G75*
G02*
X137441547Y-131932052I-140000J0D01*
G01*
X137161547Y-131932052D01*
G75*
G02*
X137021547Y-131792052I0J140000D01*
G01*
G37*
%TD*%
%TO.C,C6*%
G36*
G01*
X116931547Y-131792052D02*
X116931547Y-131452052D01*
G75*
G02*
X117071547Y-131312052I140000J0D01*
G01*
X117351547Y-131312052D01*
G75*
G02*
X117491547Y-131452052I0J-140000D01*
G01*
X117491547Y-131792052D01*
G75*
G02*
X117351547Y-131932052I-140000J0D01*
G01*
X117071547Y-131932052D01*
G75*
G02*
X116931547Y-131792052I0J140000D01*
G01*
G37*
G36*
G01*
X115971547Y-131792052D02*
X115971547Y-131452052D01*
G75*
G02*
X116111547Y-131312052I140000J0D01*
G01*
X116391547Y-131312052D01*
G75*
G02*
X116531547Y-131452052I0J-140000D01*
G01*
X116531547Y-131792052D01*
G75*
G02*
X116391547Y-131932052I-140000J0D01*
G01*
X116111547Y-131932052D01*
G75*
G02*
X115971547Y-131792052I0J140000D01*
G01*
G37*
%TD*%
%TO.C,C6*%
G36*
G01*
X95881547Y-131792052D02*
X95881547Y-131452052D01*
G75*
G02*
X96021547Y-131312052I140000J0D01*
G01*
X96301547Y-131312052D01*
G75*
G02*
X96441547Y-131452052I0J-140000D01*
G01*
X96441547Y-131792052D01*
G75*
G02*
X96301547Y-131932052I-140000J0D01*
G01*
X96021547Y-131932052D01*
G75*
G02*
X95881547Y-131792052I0J140000D01*
G01*
G37*
G36*
G01*
X94921547Y-131792052D02*
X94921547Y-131452052D01*
G75*
G02*
X95061547Y-131312052I140000J0D01*
G01*
X95341547Y-131312052D01*
G75*
G02*
X95481547Y-131452052I0J-140000D01*
G01*
X95481547Y-131792052D01*
G75*
G02*
X95341547Y-131932052I-140000J0D01*
G01*
X95061547Y-131932052D01*
G75*
G02*
X94921547Y-131792052I0J140000D01*
G01*
G37*
%TD*%
%TO.C,C6*%
G36*
G01*
X74831547Y-131792052D02*
X74831547Y-131452052D01*
G75*
G02*
X74971547Y-131312052I140000J0D01*
G01*
X75251547Y-131312052D01*
G75*
G02*
X75391547Y-131452052I0J-140000D01*
G01*
X75391547Y-131792052D01*
G75*
G02*
X75251547Y-131932052I-140000J0D01*
G01*
X74971547Y-131932052D01*
G75*
G02*
X74831547Y-131792052I0J140000D01*
G01*
G37*
G36*
G01*
X73871547Y-131792052D02*
X73871547Y-131452052D01*
G75*
G02*
X74011547Y-131312052I140000J0D01*
G01*
X74291547Y-131312052D01*
G75*
G02*
X74431547Y-131452052I0J-140000D01*
G01*
X74431547Y-131792052D01*
G75*
G02*
X74291547Y-131932052I-140000J0D01*
G01*
X74011547Y-131932052D01*
G75*
G02*
X73871547Y-131792052I0J140000D01*
G01*
G37*
%TD*%
%TO.C,C6*%
G36*
G01*
X53781547Y-131792052D02*
X53781547Y-131452052D01*
G75*
G02*
X53921547Y-131312052I140000J0D01*
G01*
X54201547Y-131312052D01*
G75*
G02*
X54341547Y-131452052I0J-140000D01*
G01*
X54341547Y-131792052D01*
G75*
G02*
X54201547Y-131932052I-140000J0D01*
G01*
X53921547Y-131932052D01*
G75*
G02*
X53781547Y-131792052I0J140000D01*
G01*
G37*
G36*
G01*
X52821547Y-131792052D02*
X52821547Y-131452052D01*
G75*
G02*
X52961547Y-131312052I140000J0D01*
G01*
X53241547Y-131312052D01*
G75*
G02*
X53381547Y-131452052I0J-140000D01*
G01*
X53381547Y-131792052D01*
G75*
G02*
X53241547Y-131932052I-140000J0D01*
G01*
X52961547Y-131932052D01*
G75*
G02*
X52821547Y-131792052I0J140000D01*
G01*
G37*
%TD*%
%TO.C,C6*%
G36*
G01*
X137981547Y-110742052D02*
X137981547Y-110402052D01*
G75*
G02*
X138121547Y-110262052I140000J0D01*
G01*
X138401547Y-110262052D01*
G75*
G02*
X138541547Y-110402052I0J-140000D01*
G01*
X138541547Y-110742052D01*
G75*
G02*
X138401547Y-110882052I-140000J0D01*
G01*
X138121547Y-110882052D01*
G75*
G02*
X137981547Y-110742052I0J140000D01*
G01*
G37*
G36*
G01*
X137021547Y-110742052D02*
X137021547Y-110402052D01*
G75*
G02*
X137161547Y-110262052I140000J0D01*
G01*
X137441547Y-110262052D01*
G75*
G02*
X137581547Y-110402052I0J-140000D01*
G01*
X137581547Y-110742052D01*
G75*
G02*
X137441547Y-110882052I-140000J0D01*
G01*
X137161547Y-110882052D01*
G75*
G02*
X137021547Y-110742052I0J140000D01*
G01*
G37*
%TD*%
%TO.C,C6*%
G36*
G01*
X116931547Y-110742052D02*
X116931547Y-110402052D01*
G75*
G02*
X117071547Y-110262052I140000J0D01*
G01*
X117351547Y-110262052D01*
G75*
G02*
X117491547Y-110402052I0J-140000D01*
G01*
X117491547Y-110742052D01*
G75*
G02*
X117351547Y-110882052I-140000J0D01*
G01*
X117071547Y-110882052D01*
G75*
G02*
X116931547Y-110742052I0J140000D01*
G01*
G37*
G36*
G01*
X115971547Y-110742052D02*
X115971547Y-110402052D01*
G75*
G02*
X116111547Y-110262052I140000J0D01*
G01*
X116391547Y-110262052D01*
G75*
G02*
X116531547Y-110402052I0J-140000D01*
G01*
X116531547Y-110742052D01*
G75*
G02*
X116391547Y-110882052I-140000J0D01*
G01*
X116111547Y-110882052D01*
G75*
G02*
X115971547Y-110742052I0J140000D01*
G01*
G37*
%TD*%
%TO.C,C6*%
G36*
G01*
X95881547Y-110742052D02*
X95881547Y-110402052D01*
G75*
G02*
X96021547Y-110262052I140000J0D01*
G01*
X96301547Y-110262052D01*
G75*
G02*
X96441547Y-110402052I0J-140000D01*
G01*
X96441547Y-110742052D01*
G75*
G02*
X96301547Y-110882052I-140000J0D01*
G01*
X96021547Y-110882052D01*
G75*
G02*
X95881547Y-110742052I0J140000D01*
G01*
G37*
G36*
G01*
X94921547Y-110742052D02*
X94921547Y-110402052D01*
G75*
G02*
X95061547Y-110262052I140000J0D01*
G01*
X95341547Y-110262052D01*
G75*
G02*
X95481547Y-110402052I0J-140000D01*
G01*
X95481547Y-110742052D01*
G75*
G02*
X95341547Y-110882052I-140000J0D01*
G01*
X95061547Y-110882052D01*
G75*
G02*
X94921547Y-110742052I0J140000D01*
G01*
G37*
%TD*%
%TO.C,C6*%
G36*
G01*
X74831547Y-110742052D02*
X74831547Y-110402052D01*
G75*
G02*
X74971547Y-110262052I140000J0D01*
G01*
X75251547Y-110262052D01*
G75*
G02*
X75391547Y-110402052I0J-140000D01*
G01*
X75391547Y-110742052D01*
G75*
G02*
X75251547Y-110882052I-140000J0D01*
G01*
X74971547Y-110882052D01*
G75*
G02*
X74831547Y-110742052I0J140000D01*
G01*
G37*
G36*
G01*
X73871547Y-110742052D02*
X73871547Y-110402052D01*
G75*
G02*
X74011547Y-110262052I140000J0D01*
G01*
X74291547Y-110262052D01*
G75*
G02*
X74431547Y-110402052I0J-140000D01*
G01*
X74431547Y-110742052D01*
G75*
G02*
X74291547Y-110882052I-140000J0D01*
G01*
X74011547Y-110882052D01*
G75*
G02*
X73871547Y-110742052I0J140000D01*
G01*
G37*
%TD*%
%TO.C,C6*%
G36*
G01*
X53781547Y-110742052D02*
X53781547Y-110402052D01*
G75*
G02*
X53921547Y-110262052I140000J0D01*
G01*
X54201547Y-110262052D01*
G75*
G02*
X54341547Y-110402052I0J-140000D01*
G01*
X54341547Y-110742052D01*
G75*
G02*
X54201547Y-110882052I-140000J0D01*
G01*
X53921547Y-110882052D01*
G75*
G02*
X53781547Y-110742052I0J140000D01*
G01*
G37*
G36*
G01*
X52821547Y-110742052D02*
X52821547Y-110402052D01*
G75*
G02*
X52961547Y-110262052I140000J0D01*
G01*
X53241547Y-110262052D01*
G75*
G02*
X53381547Y-110402052I0J-140000D01*
G01*
X53381547Y-110742052D01*
G75*
G02*
X53241547Y-110882052I-140000J0D01*
G01*
X52961547Y-110882052D01*
G75*
G02*
X52821547Y-110742052I0J140000D01*
G01*
G37*
%TD*%
%TO.C,C6*%
G36*
G01*
X137981547Y-89692052D02*
X137981547Y-89352052D01*
G75*
G02*
X138121547Y-89212052I140000J0D01*
G01*
X138401547Y-89212052D01*
G75*
G02*
X138541547Y-89352052I0J-140000D01*
G01*
X138541547Y-89692052D01*
G75*
G02*
X138401547Y-89832052I-140000J0D01*
G01*
X138121547Y-89832052D01*
G75*
G02*
X137981547Y-89692052I0J140000D01*
G01*
G37*
G36*
G01*
X137021547Y-89692052D02*
X137021547Y-89352052D01*
G75*
G02*
X137161547Y-89212052I140000J0D01*
G01*
X137441547Y-89212052D01*
G75*
G02*
X137581547Y-89352052I0J-140000D01*
G01*
X137581547Y-89692052D01*
G75*
G02*
X137441547Y-89832052I-140000J0D01*
G01*
X137161547Y-89832052D01*
G75*
G02*
X137021547Y-89692052I0J140000D01*
G01*
G37*
%TD*%
%TO.C,C6*%
G36*
G01*
X116931547Y-89692052D02*
X116931547Y-89352052D01*
G75*
G02*
X117071547Y-89212052I140000J0D01*
G01*
X117351547Y-89212052D01*
G75*
G02*
X117491547Y-89352052I0J-140000D01*
G01*
X117491547Y-89692052D01*
G75*
G02*
X117351547Y-89832052I-140000J0D01*
G01*
X117071547Y-89832052D01*
G75*
G02*
X116931547Y-89692052I0J140000D01*
G01*
G37*
G36*
G01*
X115971547Y-89692052D02*
X115971547Y-89352052D01*
G75*
G02*
X116111547Y-89212052I140000J0D01*
G01*
X116391547Y-89212052D01*
G75*
G02*
X116531547Y-89352052I0J-140000D01*
G01*
X116531547Y-89692052D01*
G75*
G02*
X116391547Y-89832052I-140000J0D01*
G01*
X116111547Y-89832052D01*
G75*
G02*
X115971547Y-89692052I0J140000D01*
G01*
G37*
%TD*%
%TO.C,C6*%
G36*
G01*
X95881547Y-89692052D02*
X95881547Y-89352052D01*
G75*
G02*
X96021547Y-89212052I140000J0D01*
G01*
X96301547Y-89212052D01*
G75*
G02*
X96441547Y-89352052I0J-140000D01*
G01*
X96441547Y-89692052D01*
G75*
G02*
X96301547Y-89832052I-140000J0D01*
G01*
X96021547Y-89832052D01*
G75*
G02*
X95881547Y-89692052I0J140000D01*
G01*
G37*
G36*
G01*
X94921547Y-89692052D02*
X94921547Y-89352052D01*
G75*
G02*
X95061547Y-89212052I140000J0D01*
G01*
X95341547Y-89212052D01*
G75*
G02*
X95481547Y-89352052I0J-140000D01*
G01*
X95481547Y-89692052D01*
G75*
G02*
X95341547Y-89832052I-140000J0D01*
G01*
X95061547Y-89832052D01*
G75*
G02*
X94921547Y-89692052I0J140000D01*
G01*
G37*
%TD*%
%TO.C,C6*%
G36*
G01*
X74831547Y-89692052D02*
X74831547Y-89352052D01*
G75*
G02*
X74971547Y-89212052I140000J0D01*
G01*
X75251547Y-89212052D01*
G75*
G02*
X75391547Y-89352052I0J-140000D01*
G01*
X75391547Y-89692052D01*
G75*
G02*
X75251547Y-89832052I-140000J0D01*
G01*
X74971547Y-89832052D01*
G75*
G02*
X74831547Y-89692052I0J140000D01*
G01*
G37*
G36*
G01*
X73871547Y-89692052D02*
X73871547Y-89352052D01*
G75*
G02*
X74011547Y-89212052I140000J0D01*
G01*
X74291547Y-89212052D01*
G75*
G02*
X74431547Y-89352052I0J-140000D01*
G01*
X74431547Y-89692052D01*
G75*
G02*
X74291547Y-89832052I-140000J0D01*
G01*
X74011547Y-89832052D01*
G75*
G02*
X73871547Y-89692052I0J140000D01*
G01*
G37*
%TD*%
%TO.C,C6*%
G36*
G01*
X53781547Y-89692052D02*
X53781547Y-89352052D01*
G75*
G02*
X53921547Y-89212052I140000J0D01*
G01*
X54201547Y-89212052D01*
G75*
G02*
X54341547Y-89352052I0J-140000D01*
G01*
X54341547Y-89692052D01*
G75*
G02*
X54201547Y-89832052I-140000J0D01*
G01*
X53921547Y-89832052D01*
G75*
G02*
X53781547Y-89692052I0J140000D01*
G01*
G37*
G36*
G01*
X52821547Y-89692052D02*
X52821547Y-89352052D01*
G75*
G02*
X52961547Y-89212052I140000J0D01*
G01*
X53241547Y-89212052D01*
G75*
G02*
X53381547Y-89352052I0J-140000D01*
G01*
X53381547Y-89692052D01*
G75*
G02*
X53241547Y-89832052I-140000J0D01*
G01*
X52961547Y-89832052D01*
G75*
G02*
X52821547Y-89692052I0J140000D01*
G01*
G37*
%TD*%
%TO.C,C6*%
G36*
G01*
X137981547Y-68642052D02*
X137981547Y-68302052D01*
G75*
G02*
X138121547Y-68162052I140000J0D01*
G01*
X138401547Y-68162052D01*
G75*
G02*
X138541547Y-68302052I0J-140000D01*
G01*
X138541547Y-68642052D01*
G75*
G02*
X138401547Y-68782052I-140000J0D01*
G01*
X138121547Y-68782052D01*
G75*
G02*
X137981547Y-68642052I0J140000D01*
G01*
G37*
G36*
G01*
X137021547Y-68642052D02*
X137021547Y-68302052D01*
G75*
G02*
X137161547Y-68162052I140000J0D01*
G01*
X137441547Y-68162052D01*
G75*
G02*
X137581547Y-68302052I0J-140000D01*
G01*
X137581547Y-68642052D01*
G75*
G02*
X137441547Y-68782052I-140000J0D01*
G01*
X137161547Y-68782052D01*
G75*
G02*
X137021547Y-68642052I0J140000D01*
G01*
G37*
%TD*%
%TO.C,C6*%
G36*
G01*
X116931547Y-68642052D02*
X116931547Y-68302052D01*
G75*
G02*
X117071547Y-68162052I140000J0D01*
G01*
X117351547Y-68162052D01*
G75*
G02*
X117491547Y-68302052I0J-140000D01*
G01*
X117491547Y-68642052D01*
G75*
G02*
X117351547Y-68782052I-140000J0D01*
G01*
X117071547Y-68782052D01*
G75*
G02*
X116931547Y-68642052I0J140000D01*
G01*
G37*
G36*
G01*
X115971547Y-68642052D02*
X115971547Y-68302052D01*
G75*
G02*
X116111547Y-68162052I140000J0D01*
G01*
X116391547Y-68162052D01*
G75*
G02*
X116531547Y-68302052I0J-140000D01*
G01*
X116531547Y-68642052D01*
G75*
G02*
X116391547Y-68782052I-140000J0D01*
G01*
X116111547Y-68782052D01*
G75*
G02*
X115971547Y-68642052I0J140000D01*
G01*
G37*
%TD*%
%TO.C,C6*%
G36*
G01*
X95881547Y-68642052D02*
X95881547Y-68302052D01*
G75*
G02*
X96021547Y-68162052I140000J0D01*
G01*
X96301547Y-68162052D01*
G75*
G02*
X96441547Y-68302052I0J-140000D01*
G01*
X96441547Y-68642052D01*
G75*
G02*
X96301547Y-68782052I-140000J0D01*
G01*
X96021547Y-68782052D01*
G75*
G02*
X95881547Y-68642052I0J140000D01*
G01*
G37*
G36*
G01*
X94921547Y-68642052D02*
X94921547Y-68302052D01*
G75*
G02*
X95061547Y-68162052I140000J0D01*
G01*
X95341547Y-68162052D01*
G75*
G02*
X95481547Y-68302052I0J-140000D01*
G01*
X95481547Y-68642052D01*
G75*
G02*
X95341547Y-68782052I-140000J0D01*
G01*
X95061547Y-68782052D01*
G75*
G02*
X94921547Y-68642052I0J140000D01*
G01*
G37*
%TD*%
%TO.C,C6*%
G36*
G01*
X74831547Y-68642052D02*
X74831547Y-68302052D01*
G75*
G02*
X74971547Y-68162052I140000J0D01*
G01*
X75251547Y-68162052D01*
G75*
G02*
X75391547Y-68302052I0J-140000D01*
G01*
X75391547Y-68642052D01*
G75*
G02*
X75251547Y-68782052I-140000J0D01*
G01*
X74971547Y-68782052D01*
G75*
G02*
X74831547Y-68642052I0J140000D01*
G01*
G37*
G36*
G01*
X73871547Y-68642052D02*
X73871547Y-68302052D01*
G75*
G02*
X74011547Y-68162052I140000J0D01*
G01*
X74291547Y-68162052D01*
G75*
G02*
X74431547Y-68302052I0J-140000D01*
G01*
X74431547Y-68642052D01*
G75*
G02*
X74291547Y-68782052I-140000J0D01*
G01*
X74011547Y-68782052D01*
G75*
G02*
X73871547Y-68642052I0J140000D01*
G01*
G37*
%TD*%
%TO.C,C6*%
G36*
G01*
X53781547Y-68642052D02*
X53781547Y-68302052D01*
G75*
G02*
X53921547Y-68162052I140000J0D01*
G01*
X54201547Y-68162052D01*
G75*
G02*
X54341547Y-68302052I0J-140000D01*
G01*
X54341547Y-68642052D01*
G75*
G02*
X54201547Y-68782052I-140000J0D01*
G01*
X53921547Y-68782052D01*
G75*
G02*
X53781547Y-68642052I0J140000D01*
G01*
G37*
G36*
G01*
X52821547Y-68642052D02*
X52821547Y-68302052D01*
G75*
G02*
X52961547Y-68162052I140000J0D01*
G01*
X53241547Y-68162052D01*
G75*
G02*
X53381547Y-68302052I0J-140000D01*
G01*
X53381547Y-68642052D01*
G75*
G02*
X53241547Y-68782052I-140000J0D01*
G01*
X52961547Y-68782052D01*
G75*
G02*
X52821547Y-68642052I0J140000D01*
G01*
G37*
%TD*%
%TO.C,C6*%
G36*
G01*
X137981547Y-47592052D02*
X137981547Y-47252052D01*
G75*
G02*
X138121547Y-47112052I140000J0D01*
G01*
X138401547Y-47112052D01*
G75*
G02*
X138541547Y-47252052I0J-140000D01*
G01*
X138541547Y-47592052D01*
G75*
G02*
X138401547Y-47732052I-140000J0D01*
G01*
X138121547Y-47732052D01*
G75*
G02*
X137981547Y-47592052I0J140000D01*
G01*
G37*
G36*
G01*
X137021547Y-47592052D02*
X137021547Y-47252052D01*
G75*
G02*
X137161547Y-47112052I140000J0D01*
G01*
X137441547Y-47112052D01*
G75*
G02*
X137581547Y-47252052I0J-140000D01*
G01*
X137581547Y-47592052D01*
G75*
G02*
X137441547Y-47732052I-140000J0D01*
G01*
X137161547Y-47732052D01*
G75*
G02*
X137021547Y-47592052I0J140000D01*
G01*
G37*
%TD*%
%TO.C,C6*%
G36*
G01*
X116931547Y-47592052D02*
X116931547Y-47252052D01*
G75*
G02*
X117071547Y-47112052I140000J0D01*
G01*
X117351547Y-47112052D01*
G75*
G02*
X117491547Y-47252052I0J-140000D01*
G01*
X117491547Y-47592052D01*
G75*
G02*
X117351547Y-47732052I-140000J0D01*
G01*
X117071547Y-47732052D01*
G75*
G02*
X116931547Y-47592052I0J140000D01*
G01*
G37*
G36*
G01*
X115971547Y-47592052D02*
X115971547Y-47252052D01*
G75*
G02*
X116111547Y-47112052I140000J0D01*
G01*
X116391547Y-47112052D01*
G75*
G02*
X116531547Y-47252052I0J-140000D01*
G01*
X116531547Y-47592052D01*
G75*
G02*
X116391547Y-47732052I-140000J0D01*
G01*
X116111547Y-47732052D01*
G75*
G02*
X115971547Y-47592052I0J140000D01*
G01*
G37*
%TD*%
%TO.C,C6*%
G36*
G01*
X95881547Y-47592052D02*
X95881547Y-47252052D01*
G75*
G02*
X96021547Y-47112052I140000J0D01*
G01*
X96301547Y-47112052D01*
G75*
G02*
X96441547Y-47252052I0J-140000D01*
G01*
X96441547Y-47592052D01*
G75*
G02*
X96301547Y-47732052I-140000J0D01*
G01*
X96021547Y-47732052D01*
G75*
G02*
X95881547Y-47592052I0J140000D01*
G01*
G37*
G36*
G01*
X94921547Y-47592052D02*
X94921547Y-47252052D01*
G75*
G02*
X95061547Y-47112052I140000J0D01*
G01*
X95341547Y-47112052D01*
G75*
G02*
X95481547Y-47252052I0J-140000D01*
G01*
X95481547Y-47592052D01*
G75*
G02*
X95341547Y-47732052I-140000J0D01*
G01*
X95061547Y-47732052D01*
G75*
G02*
X94921547Y-47592052I0J140000D01*
G01*
G37*
%TD*%
%TO.C,C6*%
G36*
G01*
X74831547Y-47592052D02*
X74831547Y-47252052D01*
G75*
G02*
X74971547Y-47112052I140000J0D01*
G01*
X75251547Y-47112052D01*
G75*
G02*
X75391547Y-47252052I0J-140000D01*
G01*
X75391547Y-47592052D01*
G75*
G02*
X75251547Y-47732052I-140000J0D01*
G01*
X74971547Y-47732052D01*
G75*
G02*
X74831547Y-47592052I0J140000D01*
G01*
G37*
G36*
G01*
X73871547Y-47592052D02*
X73871547Y-47252052D01*
G75*
G02*
X74011547Y-47112052I140000J0D01*
G01*
X74291547Y-47112052D01*
G75*
G02*
X74431547Y-47252052I0J-140000D01*
G01*
X74431547Y-47592052D01*
G75*
G02*
X74291547Y-47732052I-140000J0D01*
G01*
X74011547Y-47732052D01*
G75*
G02*
X73871547Y-47592052I0J140000D01*
G01*
G37*
%TD*%
%TO.C,C3*%
G36*
G01*
X132617547Y-126977052D02*
X132277547Y-126977052D01*
G75*
G02*
X132137547Y-126837052I0J140000D01*
G01*
X132137547Y-126557052D01*
G75*
G02*
X132277547Y-126417052I140000J0D01*
G01*
X132617547Y-126417052D01*
G75*
G02*
X132757547Y-126557052I0J-140000D01*
G01*
X132757547Y-126837052D01*
G75*
G02*
X132617547Y-126977052I-140000J0D01*
G01*
G37*
G36*
G01*
X132617547Y-127937052D02*
X132277547Y-127937052D01*
G75*
G02*
X132137547Y-127797052I0J140000D01*
G01*
X132137547Y-127517052D01*
G75*
G02*
X132277547Y-127377052I140000J0D01*
G01*
X132617547Y-127377052D01*
G75*
G02*
X132757547Y-127517052I0J-140000D01*
G01*
X132757547Y-127797052D01*
G75*
G02*
X132617547Y-127937052I-140000J0D01*
G01*
G37*
%TD*%
%TO.C,C3*%
G36*
G01*
X111567547Y-126977052D02*
X111227547Y-126977052D01*
G75*
G02*
X111087547Y-126837052I0J140000D01*
G01*
X111087547Y-126557052D01*
G75*
G02*
X111227547Y-126417052I140000J0D01*
G01*
X111567547Y-126417052D01*
G75*
G02*
X111707547Y-126557052I0J-140000D01*
G01*
X111707547Y-126837052D01*
G75*
G02*
X111567547Y-126977052I-140000J0D01*
G01*
G37*
G36*
G01*
X111567547Y-127937052D02*
X111227547Y-127937052D01*
G75*
G02*
X111087547Y-127797052I0J140000D01*
G01*
X111087547Y-127517052D01*
G75*
G02*
X111227547Y-127377052I140000J0D01*
G01*
X111567547Y-127377052D01*
G75*
G02*
X111707547Y-127517052I0J-140000D01*
G01*
X111707547Y-127797052D01*
G75*
G02*
X111567547Y-127937052I-140000J0D01*
G01*
G37*
%TD*%
%TO.C,C3*%
G36*
G01*
X90517547Y-126977052D02*
X90177547Y-126977052D01*
G75*
G02*
X90037547Y-126837052I0J140000D01*
G01*
X90037547Y-126557052D01*
G75*
G02*
X90177547Y-126417052I140000J0D01*
G01*
X90517547Y-126417052D01*
G75*
G02*
X90657547Y-126557052I0J-140000D01*
G01*
X90657547Y-126837052D01*
G75*
G02*
X90517547Y-126977052I-140000J0D01*
G01*
G37*
G36*
G01*
X90517547Y-127937052D02*
X90177547Y-127937052D01*
G75*
G02*
X90037547Y-127797052I0J140000D01*
G01*
X90037547Y-127517052D01*
G75*
G02*
X90177547Y-127377052I140000J0D01*
G01*
X90517547Y-127377052D01*
G75*
G02*
X90657547Y-127517052I0J-140000D01*
G01*
X90657547Y-127797052D01*
G75*
G02*
X90517547Y-127937052I-140000J0D01*
G01*
G37*
%TD*%
%TO.C,C3*%
G36*
G01*
X69467547Y-126977052D02*
X69127547Y-126977052D01*
G75*
G02*
X68987547Y-126837052I0J140000D01*
G01*
X68987547Y-126557052D01*
G75*
G02*
X69127547Y-126417052I140000J0D01*
G01*
X69467547Y-126417052D01*
G75*
G02*
X69607547Y-126557052I0J-140000D01*
G01*
X69607547Y-126837052D01*
G75*
G02*
X69467547Y-126977052I-140000J0D01*
G01*
G37*
G36*
G01*
X69467547Y-127937052D02*
X69127547Y-127937052D01*
G75*
G02*
X68987547Y-127797052I0J140000D01*
G01*
X68987547Y-127517052D01*
G75*
G02*
X69127547Y-127377052I140000J0D01*
G01*
X69467547Y-127377052D01*
G75*
G02*
X69607547Y-127517052I0J-140000D01*
G01*
X69607547Y-127797052D01*
G75*
G02*
X69467547Y-127937052I-140000J0D01*
G01*
G37*
%TD*%
%TO.C,C3*%
G36*
G01*
X48417547Y-126977052D02*
X48077547Y-126977052D01*
G75*
G02*
X47937547Y-126837052I0J140000D01*
G01*
X47937547Y-126557052D01*
G75*
G02*
X48077547Y-126417052I140000J0D01*
G01*
X48417547Y-126417052D01*
G75*
G02*
X48557547Y-126557052I0J-140000D01*
G01*
X48557547Y-126837052D01*
G75*
G02*
X48417547Y-126977052I-140000J0D01*
G01*
G37*
G36*
G01*
X48417547Y-127937052D02*
X48077547Y-127937052D01*
G75*
G02*
X47937547Y-127797052I0J140000D01*
G01*
X47937547Y-127517052D01*
G75*
G02*
X48077547Y-127377052I140000J0D01*
G01*
X48417547Y-127377052D01*
G75*
G02*
X48557547Y-127517052I0J-140000D01*
G01*
X48557547Y-127797052D01*
G75*
G02*
X48417547Y-127937052I-140000J0D01*
G01*
G37*
%TD*%
%TO.C,C3*%
G36*
G01*
X132617547Y-105927052D02*
X132277547Y-105927052D01*
G75*
G02*
X132137547Y-105787052I0J140000D01*
G01*
X132137547Y-105507052D01*
G75*
G02*
X132277547Y-105367052I140000J0D01*
G01*
X132617547Y-105367052D01*
G75*
G02*
X132757547Y-105507052I0J-140000D01*
G01*
X132757547Y-105787052D01*
G75*
G02*
X132617547Y-105927052I-140000J0D01*
G01*
G37*
G36*
G01*
X132617547Y-106887052D02*
X132277547Y-106887052D01*
G75*
G02*
X132137547Y-106747052I0J140000D01*
G01*
X132137547Y-106467052D01*
G75*
G02*
X132277547Y-106327052I140000J0D01*
G01*
X132617547Y-106327052D01*
G75*
G02*
X132757547Y-106467052I0J-140000D01*
G01*
X132757547Y-106747052D01*
G75*
G02*
X132617547Y-106887052I-140000J0D01*
G01*
G37*
%TD*%
%TO.C,C3*%
G36*
G01*
X111567547Y-105927052D02*
X111227547Y-105927052D01*
G75*
G02*
X111087547Y-105787052I0J140000D01*
G01*
X111087547Y-105507052D01*
G75*
G02*
X111227547Y-105367052I140000J0D01*
G01*
X111567547Y-105367052D01*
G75*
G02*
X111707547Y-105507052I0J-140000D01*
G01*
X111707547Y-105787052D01*
G75*
G02*
X111567547Y-105927052I-140000J0D01*
G01*
G37*
G36*
G01*
X111567547Y-106887052D02*
X111227547Y-106887052D01*
G75*
G02*
X111087547Y-106747052I0J140000D01*
G01*
X111087547Y-106467052D01*
G75*
G02*
X111227547Y-106327052I140000J0D01*
G01*
X111567547Y-106327052D01*
G75*
G02*
X111707547Y-106467052I0J-140000D01*
G01*
X111707547Y-106747052D01*
G75*
G02*
X111567547Y-106887052I-140000J0D01*
G01*
G37*
%TD*%
%TO.C,C3*%
G36*
G01*
X90517547Y-105927052D02*
X90177547Y-105927052D01*
G75*
G02*
X90037547Y-105787052I0J140000D01*
G01*
X90037547Y-105507052D01*
G75*
G02*
X90177547Y-105367052I140000J0D01*
G01*
X90517547Y-105367052D01*
G75*
G02*
X90657547Y-105507052I0J-140000D01*
G01*
X90657547Y-105787052D01*
G75*
G02*
X90517547Y-105927052I-140000J0D01*
G01*
G37*
G36*
G01*
X90517547Y-106887052D02*
X90177547Y-106887052D01*
G75*
G02*
X90037547Y-106747052I0J140000D01*
G01*
X90037547Y-106467052D01*
G75*
G02*
X90177547Y-106327052I140000J0D01*
G01*
X90517547Y-106327052D01*
G75*
G02*
X90657547Y-106467052I0J-140000D01*
G01*
X90657547Y-106747052D01*
G75*
G02*
X90517547Y-106887052I-140000J0D01*
G01*
G37*
%TD*%
%TO.C,C3*%
G36*
G01*
X69467547Y-105927052D02*
X69127547Y-105927052D01*
G75*
G02*
X68987547Y-105787052I0J140000D01*
G01*
X68987547Y-105507052D01*
G75*
G02*
X69127547Y-105367052I140000J0D01*
G01*
X69467547Y-105367052D01*
G75*
G02*
X69607547Y-105507052I0J-140000D01*
G01*
X69607547Y-105787052D01*
G75*
G02*
X69467547Y-105927052I-140000J0D01*
G01*
G37*
G36*
G01*
X69467547Y-106887052D02*
X69127547Y-106887052D01*
G75*
G02*
X68987547Y-106747052I0J140000D01*
G01*
X68987547Y-106467052D01*
G75*
G02*
X69127547Y-106327052I140000J0D01*
G01*
X69467547Y-106327052D01*
G75*
G02*
X69607547Y-106467052I0J-140000D01*
G01*
X69607547Y-106747052D01*
G75*
G02*
X69467547Y-106887052I-140000J0D01*
G01*
G37*
%TD*%
%TO.C,C3*%
G36*
G01*
X48417547Y-105927052D02*
X48077547Y-105927052D01*
G75*
G02*
X47937547Y-105787052I0J140000D01*
G01*
X47937547Y-105507052D01*
G75*
G02*
X48077547Y-105367052I140000J0D01*
G01*
X48417547Y-105367052D01*
G75*
G02*
X48557547Y-105507052I0J-140000D01*
G01*
X48557547Y-105787052D01*
G75*
G02*
X48417547Y-105927052I-140000J0D01*
G01*
G37*
G36*
G01*
X48417547Y-106887052D02*
X48077547Y-106887052D01*
G75*
G02*
X47937547Y-106747052I0J140000D01*
G01*
X47937547Y-106467052D01*
G75*
G02*
X48077547Y-106327052I140000J0D01*
G01*
X48417547Y-106327052D01*
G75*
G02*
X48557547Y-106467052I0J-140000D01*
G01*
X48557547Y-106747052D01*
G75*
G02*
X48417547Y-106887052I-140000J0D01*
G01*
G37*
%TD*%
%TO.C,C3*%
G36*
G01*
X132617547Y-84877052D02*
X132277547Y-84877052D01*
G75*
G02*
X132137547Y-84737052I0J140000D01*
G01*
X132137547Y-84457052D01*
G75*
G02*
X132277547Y-84317052I140000J0D01*
G01*
X132617547Y-84317052D01*
G75*
G02*
X132757547Y-84457052I0J-140000D01*
G01*
X132757547Y-84737052D01*
G75*
G02*
X132617547Y-84877052I-140000J0D01*
G01*
G37*
G36*
G01*
X132617547Y-85837052D02*
X132277547Y-85837052D01*
G75*
G02*
X132137547Y-85697052I0J140000D01*
G01*
X132137547Y-85417052D01*
G75*
G02*
X132277547Y-85277052I140000J0D01*
G01*
X132617547Y-85277052D01*
G75*
G02*
X132757547Y-85417052I0J-140000D01*
G01*
X132757547Y-85697052D01*
G75*
G02*
X132617547Y-85837052I-140000J0D01*
G01*
G37*
%TD*%
%TO.C,C3*%
G36*
G01*
X111567547Y-84877052D02*
X111227547Y-84877052D01*
G75*
G02*
X111087547Y-84737052I0J140000D01*
G01*
X111087547Y-84457052D01*
G75*
G02*
X111227547Y-84317052I140000J0D01*
G01*
X111567547Y-84317052D01*
G75*
G02*
X111707547Y-84457052I0J-140000D01*
G01*
X111707547Y-84737052D01*
G75*
G02*
X111567547Y-84877052I-140000J0D01*
G01*
G37*
G36*
G01*
X111567547Y-85837052D02*
X111227547Y-85837052D01*
G75*
G02*
X111087547Y-85697052I0J140000D01*
G01*
X111087547Y-85417052D01*
G75*
G02*
X111227547Y-85277052I140000J0D01*
G01*
X111567547Y-85277052D01*
G75*
G02*
X111707547Y-85417052I0J-140000D01*
G01*
X111707547Y-85697052D01*
G75*
G02*
X111567547Y-85837052I-140000J0D01*
G01*
G37*
%TD*%
%TO.C,C3*%
G36*
G01*
X90517547Y-84877052D02*
X90177547Y-84877052D01*
G75*
G02*
X90037547Y-84737052I0J140000D01*
G01*
X90037547Y-84457052D01*
G75*
G02*
X90177547Y-84317052I140000J0D01*
G01*
X90517547Y-84317052D01*
G75*
G02*
X90657547Y-84457052I0J-140000D01*
G01*
X90657547Y-84737052D01*
G75*
G02*
X90517547Y-84877052I-140000J0D01*
G01*
G37*
G36*
G01*
X90517547Y-85837052D02*
X90177547Y-85837052D01*
G75*
G02*
X90037547Y-85697052I0J140000D01*
G01*
X90037547Y-85417052D01*
G75*
G02*
X90177547Y-85277052I140000J0D01*
G01*
X90517547Y-85277052D01*
G75*
G02*
X90657547Y-85417052I0J-140000D01*
G01*
X90657547Y-85697052D01*
G75*
G02*
X90517547Y-85837052I-140000J0D01*
G01*
G37*
%TD*%
%TO.C,C3*%
G36*
G01*
X69467547Y-84877052D02*
X69127547Y-84877052D01*
G75*
G02*
X68987547Y-84737052I0J140000D01*
G01*
X68987547Y-84457052D01*
G75*
G02*
X69127547Y-84317052I140000J0D01*
G01*
X69467547Y-84317052D01*
G75*
G02*
X69607547Y-84457052I0J-140000D01*
G01*
X69607547Y-84737052D01*
G75*
G02*
X69467547Y-84877052I-140000J0D01*
G01*
G37*
G36*
G01*
X69467547Y-85837052D02*
X69127547Y-85837052D01*
G75*
G02*
X68987547Y-85697052I0J140000D01*
G01*
X68987547Y-85417052D01*
G75*
G02*
X69127547Y-85277052I140000J0D01*
G01*
X69467547Y-85277052D01*
G75*
G02*
X69607547Y-85417052I0J-140000D01*
G01*
X69607547Y-85697052D01*
G75*
G02*
X69467547Y-85837052I-140000J0D01*
G01*
G37*
%TD*%
%TO.C,C3*%
G36*
G01*
X48417547Y-84877052D02*
X48077547Y-84877052D01*
G75*
G02*
X47937547Y-84737052I0J140000D01*
G01*
X47937547Y-84457052D01*
G75*
G02*
X48077547Y-84317052I140000J0D01*
G01*
X48417547Y-84317052D01*
G75*
G02*
X48557547Y-84457052I0J-140000D01*
G01*
X48557547Y-84737052D01*
G75*
G02*
X48417547Y-84877052I-140000J0D01*
G01*
G37*
G36*
G01*
X48417547Y-85837052D02*
X48077547Y-85837052D01*
G75*
G02*
X47937547Y-85697052I0J140000D01*
G01*
X47937547Y-85417052D01*
G75*
G02*
X48077547Y-85277052I140000J0D01*
G01*
X48417547Y-85277052D01*
G75*
G02*
X48557547Y-85417052I0J-140000D01*
G01*
X48557547Y-85697052D01*
G75*
G02*
X48417547Y-85837052I-140000J0D01*
G01*
G37*
%TD*%
%TO.C,C3*%
G36*
G01*
X132617547Y-63827052D02*
X132277547Y-63827052D01*
G75*
G02*
X132137547Y-63687052I0J140000D01*
G01*
X132137547Y-63407052D01*
G75*
G02*
X132277547Y-63267052I140000J0D01*
G01*
X132617547Y-63267052D01*
G75*
G02*
X132757547Y-63407052I0J-140000D01*
G01*
X132757547Y-63687052D01*
G75*
G02*
X132617547Y-63827052I-140000J0D01*
G01*
G37*
G36*
G01*
X132617547Y-64787052D02*
X132277547Y-64787052D01*
G75*
G02*
X132137547Y-64647052I0J140000D01*
G01*
X132137547Y-64367052D01*
G75*
G02*
X132277547Y-64227052I140000J0D01*
G01*
X132617547Y-64227052D01*
G75*
G02*
X132757547Y-64367052I0J-140000D01*
G01*
X132757547Y-64647052D01*
G75*
G02*
X132617547Y-64787052I-140000J0D01*
G01*
G37*
%TD*%
%TO.C,C3*%
G36*
G01*
X111567547Y-63827052D02*
X111227547Y-63827052D01*
G75*
G02*
X111087547Y-63687052I0J140000D01*
G01*
X111087547Y-63407052D01*
G75*
G02*
X111227547Y-63267052I140000J0D01*
G01*
X111567547Y-63267052D01*
G75*
G02*
X111707547Y-63407052I0J-140000D01*
G01*
X111707547Y-63687052D01*
G75*
G02*
X111567547Y-63827052I-140000J0D01*
G01*
G37*
G36*
G01*
X111567547Y-64787052D02*
X111227547Y-64787052D01*
G75*
G02*
X111087547Y-64647052I0J140000D01*
G01*
X111087547Y-64367052D01*
G75*
G02*
X111227547Y-64227052I140000J0D01*
G01*
X111567547Y-64227052D01*
G75*
G02*
X111707547Y-64367052I0J-140000D01*
G01*
X111707547Y-64647052D01*
G75*
G02*
X111567547Y-64787052I-140000J0D01*
G01*
G37*
%TD*%
%TO.C,C3*%
G36*
G01*
X90517547Y-63827052D02*
X90177547Y-63827052D01*
G75*
G02*
X90037547Y-63687052I0J140000D01*
G01*
X90037547Y-63407052D01*
G75*
G02*
X90177547Y-63267052I140000J0D01*
G01*
X90517547Y-63267052D01*
G75*
G02*
X90657547Y-63407052I0J-140000D01*
G01*
X90657547Y-63687052D01*
G75*
G02*
X90517547Y-63827052I-140000J0D01*
G01*
G37*
G36*
G01*
X90517547Y-64787052D02*
X90177547Y-64787052D01*
G75*
G02*
X90037547Y-64647052I0J140000D01*
G01*
X90037547Y-64367052D01*
G75*
G02*
X90177547Y-64227052I140000J0D01*
G01*
X90517547Y-64227052D01*
G75*
G02*
X90657547Y-64367052I0J-140000D01*
G01*
X90657547Y-64647052D01*
G75*
G02*
X90517547Y-64787052I-140000J0D01*
G01*
G37*
%TD*%
%TO.C,C3*%
G36*
G01*
X69467547Y-63827052D02*
X69127547Y-63827052D01*
G75*
G02*
X68987547Y-63687052I0J140000D01*
G01*
X68987547Y-63407052D01*
G75*
G02*
X69127547Y-63267052I140000J0D01*
G01*
X69467547Y-63267052D01*
G75*
G02*
X69607547Y-63407052I0J-140000D01*
G01*
X69607547Y-63687052D01*
G75*
G02*
X69467547Y-63827052I-140000J0D01*
G01*
G37*
G36*
G01*
X69467547Y-64787052D02*
X69127547Y-64787052D01*
G75*
G02*
X68987547Y-64647052I0J140000D01*
G01*
X68987547Y-64367052D01*
G75*
G02*
X69127547Y-64227052I140000J0D01*
G01*
X69467547Y-64227052D01*
G75*
G02*
X69607547Y-64367052I0J-140000D01*
G01*
X69607547Y-64647052D01*
G75*
G02*
X69467547Y-64787052I-140000J0D01*
G01*
G37*
%TD*%
%TO.C,C3*%
G36*
G01*
X48417547Y-63827052D02*
X48077547Y-63827052D01*
G75*
G02*
X47937547Y-63687052I0J140000D01*
G01*
X47937547Y-63407052D01*
G75*
G02*
X48077547Y-63267052I140000J0D01*
G01*
X48417547Y-63267052D01*
G75*
G02*
X48557547Y-63407052I0J-140000D01*
G01*
X48557547Y-63687052D01*
G75*
G02*
X48417547Y-63827052I-140000J0D01*
G01*
G37*
G36*
G01*
X48417547Y-64787052D02*
X48077547Y-64787052D01*
G75*
G02*
X47937547Y-64647052I0J140000D01*
G01*
X47937547Y-64367052D01*
G75*
G02*
X48077547Y-64227052I140000J0D01*
G01*
X48417547Y-64227052D01*
G75*
G02*
X48557547Y-64367052I0J-140000D01*
G01*
X48557547Y-64647052D01*
G75*
G02*
X48417547Y-64787052I-140000J0D01*
G01*
G37*
%TD*%
%TO.C,C3*%
G36*
G01*
X132617547Y-42777052D02*
X132277547Y-42777052D01*
G75*
G02*
X132137547Y-42637052I0J140000D01*
G01*
X132137547Y-42357052D01*
G75*
G02*
X132277547Y-42217052I140000J0D01*
G01*
X132617547Y-42217052D01*
G75*
G02*
X132757547Y-42357052I0J-140000D01*
G01*
X132757547Y-42637052D01*
G75*
G02*
X132617547Y-42777052I-140000J0D01*
G01*
G37*
G36*
G01*
X132617547Y-43737052D02*
X132277547Y-43737052D01*
G75*
G02*
X132137547Y-43597052I0J140000D01*
G01*
X132137547Y-43317052D01*
G75*
G02*
X132277547Y-43177052I140000J0D01*
G01*
X132617547Y-43177052D01*
G75*
G02*
X132757547Y-43317052I0J-140000D01*
G01*
X132757547Y-43597052D01*
G75*
G02*
X132617547Y-43737052I-140000J0D01*
G01*
G37*
%TD*%
%TO.C,C3*%
G36*
G01*
X111567547Y-42777052D02*
X111227547Y-42777052D01*
G75*
G02*
X111087547Y-42637052I0J140000D01*
G01*
X111087547Y-42357052D01*
G75*
G02*
X111227547Y-42217052I140000J0D01*
G01*
X111567547Y-42217052D01*
G75*
G02*
X111707547Y-42357052I0J-140000D01*
G01*
X111707547Y-42637052D01*
G75*
G02*
X111567547Y-42777052I-140000J0D01*
G01*
G37*
G36*
G01*
X111567547Y-43737052D02*
X111227547Y-43737052D01*
G75*
G02*
X111087547Y-43597052I0J140000D01*
G01*
X111087547Y-43317052D01*
G75*
G02*
X111227547Y-43177052I140000J0D01*
G01*
X111567547Y-43177052D01*
G75*
G02*
X111707547Y-43317052I0J-140000D01*
G01*
X111707547Y-43597052D01*
G75*
G02*
X111567547Y-43737052I-140000J0D01*
G01*
G37*
%TD*%
%TO.C,C3*%
G36*
G01*
X90517547Y-42777052D02*
X90177547Y-42777052D01*
G75*
G02*
X90037547Y-42637052I0J140000D01*
G01*
X90037547Y-42357052D01*
G75*
G02*
X90177547Y-42217052I140000J0D01*
G01*
X90517547Y-42217052D01*
G75*
G02*
X90657547Y-42357052I0J-140000D01*
G01*
X90657547Y-42637052D01*
G75*
G02*
X90517547Y-42777052I-140000J0D01*
G01*
G37*
G36*
G01*
X90517547Y-43737052D02*
X90177547Y-43737052D01*
G75*
G02*
X90037547Y-43597052I0J140000D01*
G01*
X90037547Y-43317052D01*
G75*
G02*
X90177547Y-43177052I140000J0D01*
G01*
X90517547Y-43177052D01*
G75*
G02*
X90657547Y-43317052I0J-140000D01*
G01*
X90657547Y-43597052D01*
G75*
G02*
X90517547Y-43737052I-140000J0D01*
G01*
G37*
%TD*%
%TO.C,C3*%
G36*
G01*
X69467547Y-42777052D02*
X69127547Y-42777052D01*
G75*
G02*
X68987547Y-42637052I0J140000D01*
G01*
X68987547Y-42357052D01*
G75*
G02*
X69127547Y-42217052I140000J0D01*
G01*
X69467547Y-42217052D01*
G75*
G02*
X69607547Y-42357052I0J-140000D01*
G01*
X69607547Y-42637052D01*
G75*
G02*
X69467547Y-42777052I-140000J0D01*
G01*
G37*
G36*
G01*
X69467547Y-43737052D02*
X69127547Y-43737052D01*
G75*
G02*
X68987547Y-43597052I0J140000D01*
G01*
X68987547Y-43317052D01*
G75*
G02*
X69127547Y-43177052I140000J0D01*
G01*
X69467547Y-43177052D01*
G75*
G02*
X69607547Y-43317052I0J-140000D01*
G01*
X69607547Y-43597052D01*
G75*
G02*
X69467547Y-43737052I-140000J0D01*
G01*
G37*
%TD*%
%TO.C,C4*%
G36*
G01*
X141520547Y-131626052D02*
X141520547Y-132126052D01*
G75*
G02*
X141295547Y-132351052I-225000J0D01*
G01*
X140845547Y-132351052D01*
G75*
G02*
X140620547Y-132126052I0J225000D01*
G01*
X140620547Y-131626052D01*
G75*
G02*
X140845547Y-131401052I225000J0D01*
G01*
X141295547Y-131401052D01*
G75*
G02*
X141520547Y-131626052I0J-225000D01*
G01*
G37*
G36*
G01*
X143070547Y-131626052D02*
X143070547Y-132126052D01*
G75*
G02*
X142845547Y-132351052I-225000J0D01*
G01*
X142395547Y-132351052D01*
G75*
G02*
X142170547Y-132126052I0J225000D01*
G01*
X142170547Y-131626052D01*
G75*
G02*
X142395547Y-131401052I225000J0D01*
G01*
X142845547Y-131401052D01*
G75*
G02*
X143070547Y-131626052I0J-225000D01*
G01*
G37*
%TD*%
%TO.C,C4*%
G36*
G01*
X120470547Y-131626052D02*
X120470547Y-132126052D01*
G75*
G02*
X120245547Y-132351052I-225000J0D01*
G01*
X119795547Y-132351052D01*
G75*
G02*
X119570547Y-132126052I0J225000D01*
G01*
X119570547Y-131626052D01*
G75*
G02*
X119795547Y-131401052I225000J0D01*
G01*
X120245547Y-131401052D01*
G75*
G02*
X120470547Y-131626052I0J-225000D01*
G01*
G37*
G36*
G01*
X122020547Y-131626052D02*
X122020547Y-132126052D01*
G75*
G02*
X121795547Y-132351052I-225000J0D01*
G01*
X121345547Y-132351052D01*
G75*
G02*
X121120547Y-132126052I0J225000D01*
G01*
X121120547Y-131626052D01*
G75*
G02*
X121345547Y-131401052I225000J0D01*
G01*
X121795547Y-131401052D01*
G75*
G02*
X122020547Y-131626052I0J-225000D01*
G01*
G37*
%TD*%
%TO.C,C4*%
G36*
G01*
X99420547Y-131626052D02*
X99420547Y-132126052D01*
G75*
G02*
X99195547Y-132351052I-225000J0D01*
G01*
X98745547Y-132351052D01*
G75*
G02*
X98520547Y-132126052I0J225000D01*
G01*
X98520547Y-131626052D01*
G75*
G02*
X98745547Y-131401052I225000J0D01*
G01*
X99195547Y-131401052D01*
G75*
G02*
X99420547Y-131626052I0J-225000D01*
G01*
G37*
G36*
G01*
X100970547Y-131626052D02*
X100970547Y-132126052D01*
G75*
G02*
X100745547Y-132351052I-225000J0D01*
G01*
X100295547Y-132351052D01*
G75*
G02*
X100070547Y-132126052I0J225000D01*
G01*
X100070547Y-131626052D01*
G75*
G02*
X100295547Y-131401052I225000J0D01*
G01*
X100745547Y-131401052D01*
G75*
G02*
X100970547Y-131626052I0J-225000D01*
G01*
G37*
%TD*%
%TO.C,C4*%
G36*
G01*
X78370547Y-131626052D02*
X78370547Y-132126052D01*
G75*
G02*
X78145547Y-132351052I-225000J0D01*
G01*
X77695547Y-132351052D01*
G75*
G02*
X77470547Y-132126052I0J225000D01*
G01*
X77470547Y-131626052D01*
G75*
G02*
X77695547Y-131401052I225000J0D01*
G01*
X78145547Y-131401052D01*
G75*
G02*
X78370547Y-131626052I0J-225000D01*
G01*
G37*
G36*
G01*
X79920547Y-131626052D02*
X79920547Y-132126052D01*
G75*
G02*
X79695547Y-132351052I-225000J0D01*
G01*
X79245547Y-132351052D01*
G75*
G02*
X79020547Y-132126052I0J225000D01*
G01*
X79020547Y-131626052D01*
G75*
G02*
X79245547Y-131401052I225000J0D01*
G01*
X79695547Y-131401052D01*
G75*
G02*
X79920547Y-131626052I0J-225000D01*
G01*
G37*
%TD*%
%TO.C,C4*%
G36*
G01*
X57320547Y-131626052D02*
X57320547Y-132126052D01*
G75*
G02*
X57095547Y-132351052I-225000J0D01*
G01*
X56645547Y-132351052D01*
G75*
G02*
X56420547Y-132126052I0J225000D01*
G01*
X56420547Y-131626052D01*
G75*
G02*
X56645547Y-131401052I225000J0D01*
G01*
X57095547Y-131401052D01*
G75*
G02*
X57320547Y-131626052I0J-225000D01*
G01*
G37*
G36*
G01*
X58870547Y-131626052D02*
X58870547Y-132126052D01*
G75*
G02*
X58645547Y-132351052I-225000J0D01*
G01*
X58195547Y-132351052D01*
G75*
G02*
X57970547Y-132126052I0J225000D01*
G01*
X57970547Y-131626052D01*
G75*
G02*
X58195547Y-131401052I225000J0D01*
G01*
X58645547Y-131401052D01*
G75*
G02*
X58870547Y-131626052I0J-225000D01*
G01*
G37*
%TD*%
%TO.C,C4*%
G36*
G01*
X141520547Y-110576052D02*
X141520547Y-111076052D01*
G75*
G02*
X141295547Y-111301052I-225000J0D01*
G01*
X140845547Y-111301052D01*
G75*
G02*
X140620547Y-111076052I0J225000D01*
G01*
X140620547Y-110576052D01*
G75*
G02*
X140845547Y-110351052I225000J0D01*
G01*
X141295547Y-110351052D01*
G75*
G02*
X141520547Y-110576052I0J-225000D01*
G01*
G37*
G36*
G01*
X143070547Y-110576052D02*
X143070547Y-111076052D01*
G75*
G02*
X142845547Y-111301052I-225000J0D01*
G01*
X142395547Y-111301052D01*
G75*
G02*
X142170547Y-111076052I0J225000D01*
G01*
X142170547Y-110576052D01*
G75*
G02*
X142395547Y-110351052I225000J0D01*
G01*
X142845547Y-110351052D01*
G75*
G02*
X143070547Y-110576052I0J-225000D01*
G01*
G37*
%TD*%
%TO.C,C4*%
G36*
G01*
X120470547Y-110576052D02*
X120470547Y-111076052D01*
G75*
G02*
X120245547Y-111301052I-225000J0D01*
G01*
X119795547Y-111301052D01*
G75*
G02*
X119570547Y-111076052I0J225000D01*
G01*
X119570547Y-110576052D01*
G75*
G02*
X119795547Y-110351052I225000J0D01*
G01*
X120245547Y-110351052D01*
G75*
G02*
X120470547Y-110576052I0J-225000D01*
G01*
G37*
G36*
G01*
X122020547Y-110576052D02*
X122020547Y-111076052D01*
G75*
G02*
X121795547Y-111301052I-225000J0D01*
G01*
X121345547Y-111301052D01*
G75*
G02*
X121120547Y-111076052I0J225000D01*
G01*
X121120547Y-110576052D01*
G75*
G02*
X121345547Y-110351052I225000J0D01*
G01*
X121795547Y-110351052D01*
G75*
G02*
X122020547Y-110576052I0J-225000D01*
G01*
G37*
%TD*%
%TO.C,C4*%
G36*
G01*
X99420547Y-110576052D02*
X99420547Y-111076052D01*
G75*
G02*
X99195547Y-111301052I-225000J0D01*
G01*
X98745547Y-111301052D01*
G75*
G02*
X98520547Y-111076052I0J225000D01*
G01*
X98520547Y-110576052D01*
G75*
G02*
X98745547Y-110351052I225000J0D01*
G01*
X99195547Y-110351052D01*
G75*
G02*
X99420547Y-110576052I0J-225000D01*
G01*
G37*
G36*
G01*
X100970547Y-110576052D02*
X100970547Y-111076052D01*
G75*
G02*
X100745547Y-111301052I-225000J0D01*
G01*
X100295547Y-111301052D01*
G75*
G02*
X100070547Y-111076052I0J225000D01*
G01*
X100070547Y-110576052D01*
G75*
G02*
X100295547Y-110351052I225000J0D01*
G01*
X100745547Y-110351052D01*
G75*
G02*
X100970547Y-110576052I0J-225000D01*
G01*
G37*
%TD*%
%TO.C,C4*%
G36*
G01*
X78370547Y-110576052D02*
X78370547Y-111076052D01*
G75*
G02*
X78145547Y-111301052I-225000J0D01*
G01*
X77695547Y-111301052D01*
G75*
G02*
X77470547Y-111076052I0J225000D01*
G01*
X77470547Y-110576052D01*
G75*
G02*
X77695547Y-110351052I225000J0D01*
G01*
X78145547Y-110351052D01*
G75*
G02*
X78370547Y-110576052I0J-225000D01*
G01*
G37*
G36*
G01*
X79920547Y-110576052D02*
X79920547Y-111076052D01*
G75*
G02*
X79695547Y-111301052I-225000J0D01*
G01*
X79245547Y-111301052D01*
G75*
G02*
X79020547Y-111076052I0J225000D01*
G01*
X79020547Y-110576052D01*
G75*
G02*
X79245547Y-110351052I225000J0D01*
G01*
X79695547Y-110351052D01*
G75*
G02*
X79920547Y-110576052I0J-225000D01*
G01*
G37*
%TD*%
%TO.C,C4*%
G36*
G01*
X57320547Y-110576052D02*
X57320547Y-111076052D01*
G75*
G02*
X57095547Y-111301052I-225000J0D01*
G01*
X56645547Y-111301052D01*
G75*
G02*
X56420547Y-111076052I0J225000D01*
G01*
X56420547Y-110576052D01*
G75*
G02*
X56645547Y-110351052I225000J0D01*
G01*
X57095547Y-110351052D01*
G75*
G02*
X57320547Y-110576052I0J-225000D01*
G01*
G37*
G36*
G01*
X58870547Y-110576052D02*
X58870547Y-111076052D01*
G75*
G02*
X58645547Y-111301052I-225000J0D01*
G01*
X58195547Y-111301052D01*
G75*
G02*
X57970547Y-111076052I0J225000D01*
G01*
X57970547Y-110576052D01*
G75*
G02*
X58195547Y-110351052I225000J0D01*
G01*
X58645547Y-110351052D01*
G75*
G02*
X58870547Y-110576052I0J-225000D01*
G01*
G37*
%TD*%
%TO.C,C4*%
G36*
G01*
X141520547Y-89526052D02*
X141520547Y-90026052D01*
G75*
G02*
X141295547Y-90251052I-225000J0D01*
G01*
X140845547Y-90251052D01*
G75*
G02*
X140620547Y-90026052I0J225000D01*
G01*
X140620547Y-89526052D01*
G75*
G02*
X140845547Y-89301052I225000J0D01*
G01*
X141295547Y-89301052D01*
G75*
G02*
X141520547Y-89526052I0J-225000D01*
G01*
G37*
G36*
G01*
X143070547Y-89526052D02*
X143070547Y-90026052D01*
G75*
G02*
X142845547Y-90251052I-225000J0D01*
G01*
X142395547Y-90251052D01*
G75*
G02*
X142170547Y-90026052I0J225000D01*
G01*
X142170547Y-89526052D01*
G75*
G02*
X142395547Y-89301052I225000J0D01*
G01*
X142845547Y-89301052D01*
G75*
G02*
X143070547Y-89526052I0J-225000D01*
G01*
G37*
%TD*%
%TO.C,C4*%
G36*
G01*
X120470547Y-89526052D02*
X120470547Y-90026052D01*
G75*
G02*
X120245547Y-90251052I-225000J0D01*
G01*
X119795547Y-90251052D01*
G75*
G02*
X119570547Y-90026052I0J225000D01*
G01*
X119570547Y-89526052D01*
G75*
G02*
X119795547Y-89301052I225000J0D01*
G01*
X120245547Y-89301052D01*
G75*
G02*
X120470547Y-89526052I0J-225000D01*
G01*
G37*
G36*
G01*
X122020547Y-89526052D02*
X122020547Y-90026052D01*
G75*
G02*
X121795547Y-90251052I-225000J0D01*
G01*
X121345547Y-90251052D01*
G75*
G02*
X121120547Y-90026052I0J225000D01*
G01*
X121120547Y-89526052D01*
G75*
G02*
X121345547Y-89301052I225000J0D01*
G01*
X121795547Y-89301052D01*
G75*
G02*
X122020547Y-89526052I0J-225000D01*
G01*
G37*
%TD*%
%TO.C,C4*%
G36*
G01*
X99420547Y-89526052D02*
X99420547Y-90026052D01*
G75*
G02*
X99195547Y-90251052I-225000J0D01*
G01*
X98745547Y-90251052D01*
G75*
G02*
X98520547Y-90026052I0J225000D01*
G01*
X98520547Y-89526052D01*
G75*
G02*
X98745547Y-89301052I225000J0D01*
G01*
X99195547Y-89301052D01*
G75*
G02*
X99420547Y-89526052I0J-225000D01*
G01*
G37*
G36*
G01*
X100970547Y-89526052D02*
X100970547Y-90026052D01*
G75*
G02*
X100745547Y-90251052I-225000J0D01*
G01*
X100295547Y-90251052D01*
G75*
G02*
X100070547Y-90026052I0J225000D01*
G01*
X100070547Y-89526052D01*
G75*
G02*
X100295547Y-89301052I225000J0D01*
G01*
X100745547Y-89301052D01*
G75*
G02*
X100970547Y-89526052I0J-225000D01*
G01*
G37*
%TD*%
%TO.C,C4*%
G36*
G01*
X78370547Y-89526052D02*
X78370547Y-90026052D01*
G75*
G02*
X78145547Y-90251052I-225000J0D01*
G01*
X77695547Y-90251052D01*
G75*
G02*
X77470547Y-90026052I0J225000D01*
G01*
X77470547Y-89526052D01*
G75*
G02*
X77695547Y-89301052I225000J0D01*
G01*
X78145547Y-89301052D01*
G75*
G02*
X78370547Y-89526052I0J-225000D01*
G01*
G37*
G36*
G01*
X79920547Y-89526052D02*
X79920547Y-90026052D01*
G75*
G02*
X79695547Y-90251052I-225000J0D01*
G01*
X79245547Y-90251052D01*
G75*
G02*
X79020547Y-90026052I0J225000D01*
G01*
X79020547Y-89526052D01*
G75*
G02*
X79245547Y-89301052I225000J0D01*
G01*
X79695547Y-89301052D01*
G75*
G02*
X79920547Y-89526052I0J-225000D01*
G01*
G37*
%TD*%
%TO.C,C4*%
G36*
G01*
X57320547Y-89526052D02*
X57320547Y-90026052D01*
G75*
G02*
X57095547Y-90251052I-225000J0D01*
G01*
X56645547Y-90251052D01*
G75*
G02*
X56420547Y-90026052I0J225000D01*
G01*
X56420547Y-89526052D01*
G75*
G02*
X56645547Y-89301052I225000J0D01*
G01*
X57095547Y-89301052D01*
G75*
G02*
X57320547Y-89526052I0J-225000D01*
G01*
G37*
G36*
G01*
X58870547Y-89526052D02*
X58870547Y-90026052D01*
G75*
G02*
X58645547Y-90251052I-225000J0D01*
G01*
X58195547Y-90251052D01*
G75*
G02*
X57970547Y-90026052I0J225000D01*
G01*
X57970547Y-89526052D01*
G75*
G02*
X58195547Y-89301052I225000J0D01*
G01*
X58645547Y-89301052D01*
G75*
G02*
X58870547Y-89526052I0J-225000D01*
G01*
G37*
%TD*%
%TO.C,C4*%
G36*
G01*
X141520547Y-68476052D02*
X141520547Y-68976052D01*
G75*
G02*
X141295547Y-69201052I-225000J0D01*
G01*
X140845547Y-69201052D01*
G75*
G02*
X140620547Y-68976052I0J225000D01*
G01*
X140620547Y-68476052D01*
G75*
G02*
X140845547Y-68251052I225000J0D01*
G01*
X141295547Y-68251052D01*
G75*
G02*
X141520547Y-68476052I0J-225000D01*
G01*
G37*
G36*
G01*
X143070547Y-68476052D02*
X143070547Y-68976052D01*
G75*
G02*
X142845547Y-69201052I-225000J0D01*
G01*
X142395547Y-69201052D01*
G75*
G02*
X142170547Y-68976052I0J225000D01*
G01*
X142170547Y-68476052D01*
G75*
G02*
X142395547Y-68251052I225000J0D01*
G01*
X142845547Y-68251052D01*
G75*
G02*
X143070547Y-68476052I0J-225000D01*
G01*
G37*
%TD*%
%TO.C,C4*%
G36*
G01*
X120470547Y-68476052D02*
X120470547Y-68976052D01*
G75*
G02*
X120245547Y-69201052I-225000J0D01*
G01*
X119795547Y-69201052D01*
G75*
G02*
X119570547Y-68976052I0J225000D01*
G01*
X119570547Y-68476052D01*
G75*
G02*
X119795547Y-68251052I225000J0D01*
G01*
X120245547Y-68251052D01*
G75*
G02*
X120470547Y-68476052I0J-225000D01*
G01*
G37*
G36*
G01*
X122020547Y-68476052D02*
X122020547Y-68976052D01*
G75*
G02*
X121795547Y-69201052I-225000J0D01*
G01*
X121345547Y-69201052D01*
G75*
G02*
X121120547Y-68976052I0J225000D01*
G01*
X121120547Y-68476052D01*
G75*
G02*
X121345547Y-68251052I225000J0D01*
G01*
X121795547Y-68251052D01*
G75*
G02*
X122020547Y-68476052I0J-225000D01*
G01*
G37*
%TD*%
%TO.C,C4*%
G36*
G01*
X99420547Y-68476052D02*
X99420547Y-68976052D01*
G75*
G02*
X99195547Y-69201052I-225000J0D01*
G01*
X98745547Y-69201052D01*
G75*
G02*
X98520547Y-68976052I0J225000D01*
G01*
X98520547Y-68476052D01*
G75*
G02*
X98745547Y-68251052I225000J0D01*
G01*
X99195547Y-68251052D01*
G75*
G02*
X99420547Y-68476052I0J-225000D01*
G01*
G37*
G36*
G01*
X100970547Y-68476052D02*
X100970547Y-68976052D01*
G75*
G02*
X100745547Y-69201052I-225000J0D01*
G01*
X100295547Y-69201052D01*
G75*
G02*
X100070547Y-68976052I0J225000D01*
G01*
X100070547Y-68476052D01*
G75*
G02*
X100295547Y-68251052I225000J0D01*
G01*
X100745547Y-68251052D01*
G75*
G02*
X100970547Y-68476052I0J-225000D01*
G01*
G37*
%TD*%
%TO.C,C4*%
G36*
G01*
X78370547Y-68476052D02*
X78370547Y-68976052D01*
G75*
G02*
X78145547Y-69201052I-225000J0D01*
G01*
X77695547Y-69201052D01*
G75*
G02*
X77470547Y-68976052I0J225000D01*
G01*
X77470547Y-68476052D01*
G75*
G02*
X77695547Y-68251052I225000J0D01*
G01*
X78145547Y-68251052D01*
G75*
G02*
X78370547Y-68476052I0J-225000D01*
G01*
G37*
G36*
G01*
X79920547Y-68476052D02*
X79920547Y-68976052D01*
G75*
G02*
X79695547Y-69201052I-225000J0D01*
G01*
X79245547Y-69201052D01*
G75*
G02*
X79020547Y-68976052I0J225000D01*
G01*
X79020547Y-68476052D01*
G75*
G02*
X79245547Y-68251052I225000J0D01*
G01*
X79695547Y-68251052D01*
G75*
G02*
X79920547Y-68476052I0J-225000D01*
G01*
G37*
%TD*%
%TO.C,C4*%
G36*
G01*
X57320547Y-68476052D02*
X57320547Y-68976052D01*
G75*
G02*
X57095547Y-69201052I-225000J0D01*
G01*
X56645547Y-69201052D01*
G75*
G02*
X56420547Y-68976052I0J225000D01*
G01*
X56420547Y-68476052D01*
G75*
G02*
X56645547Y-68251052I225000J0D01*
G01*
X57095547Y-68251052D01*
G75*
G02*
X57320547Y-68476052I0J-225000D01*
G01*
G37*
G36*
G01*
X58870547Y-68476052D02*
X58870547Y-68976052D01*
G75*
G02*
X58645547Y-69201052I-225000J0D01*
G01*
X58195547Y-69201052D01*
G75*
G02*
X57970547Y-68976052I0J225000D01*
G01*
X57970547Y-68476052D01*
G75*
G02*
X58195547Y-68251052I225000J0D01*
G01*
X58645547Y-68251052D01*
G75*
G02*
X58870547Y-68476052I0J-225000D01*
G01*
G37*
%TD*%
%TO.C,C4*%
G36*
G01*
X141520547Y-47426052D02*
X141520547Y-47926052D01*
G75*
G02*
X141295547Y-48151052I-225000J0D01*
G01*
X140845547Y-48151052D01*
G75*
G02*
X140620547Y-47926052I0J225000D01*
G01*
X140620547Y-47426052D01*
G75*
G02*
X140845547Y-47201052I225000J0D01*
G01*
X141295547Y-47201052D01*
G75*
G02*
X141520547Y-47426052I0J-225000D01*
G01*
G37*
G36*
G01*
X143070547Y-47426052D02*
X143070547Y-47926052D01*
G75*
G02*
X142845547Y-48151052I-225000J0D01*
G01*
X142395547Y-48151052D01*
G75*
G02*
X142170547Y-47926052I0J225000D01*
G01*
X142170547Y-47426052D01*
G75*
G02*
X142395547Y-47201052I225000J0D01*
G01*
X142845547Y-47201052D01*
G75*
G02*
X143070547Y-47426052I0J-225000D01*
G01*
G37*
%TD*%
%TO.C,C4*%
G36*
G01*
X120470547Y-47426052D02*
X120470547Y-47926052D01*
G75*
G02*
X120245547Y-48151052I-225000J0D01*
G01*
X119795547Y-48151052D01*
G75*
G02*
X119570547Y-47926052I0J225000D01*
G01*
X119570547Y-47426052D01*
G75*
G02*
X119795547Y-47201052I225000J0D01*
G01*
X120245547Y-47201052D01*
G75*
G02*
X120470547Y-47426052I0J-225000D01*
G01*
G37*
G36*
G01*
X122020547Y-47426052D02*
X122020547Y-47926052D01*
G75*
G02*
X121795547Y-48151052I-225000J0D01*
G01*
X121345547Y-48151052D01*
G75*
G02*
X121120547Y-47926052I0J225000D01*
G01*
X121120547Y-47426052D01*
G75*
G02*
X121345547Y-47201052I225000J0D01*
G01*
X121795547Y-47201052D01*
G75*
G02*
X122020547Y-47426052I0J-225000D01*
G01*
G37*
%TD*%
%TO.C,C4*%
G36*
G01*
X99420547Y-47426052D02*
X99420547Y-47926052D01*
G75*
G02*
X99195547Y-48151052I-225000J0D01*
G01*
X98745547Y-48151052D01*
G75*
G02*
X98520547Y-47926052I0J225000D01*
G01*
X98520547Y-47426052D01*
G75*
G02*
X98745547Y-47201052I225000J0D01*
G01*
X99195547Y-47201052D01*
G75*
G02*
X99420547Y-47426052I0J-225000D01*
G01*
G37*
G36*
G01*
X100970547Y-47426052D02*
X100970547Y-47926052D01*
G75*
G02*
X100745547Y-48151052I-225000J0D01*
G01*
X100295547Y-48151052D01*
G75*
G02*
X100070547Y-47926052I0J225000D01*
G01*
X100070547Y-47426052D01*
G75*
G02*
X100295547Y-47201052I225000J0D01*
G01*
X100745547Y-47201052D01*
G75*
G02*
X100970547Y-47426052I0J-225000D01*
G01*
G37*
%TD*%
%TO.C,C4*%
G36*
G01*
X78370547Y-47426052D02*
X78370547Y-47926052D01*
G75*
G02*
X78145547Y-48151052I-225000J0D01*
G01*
X77695547Y-48151052D01*
G75*
G02*
X77470547Y-47926052I0J225000D01*
G01*
X77470547Y-47426052D01*
G75*
G02*
X77695547Y-47201052I225000J0D01*
G01*
X78145547Y-47201052D01*
G75*
G02*
X78370547Y-47426052I0J-225000D01*
G01*
G37*
G36*
G01*
X79920547Y-47426052D02*
X79920547Y-47926052D01*
G75*
G02*
X79695547Y-48151052I-225000J0D01*
G01*
X79245547Y-48151052D01*
G75*
G02*
X79020547Y-47926052I0J225000D01*
G01*
X79020547Y-47426052D01*
G75*
G02*
X79245547Y-47201052I225000J0D01*
G01*
X79695547Y-47201052D01*
G75*
G02*
X79920547Y-47426052I0J-225000D01*
G01*
G37*
%TD*%
%TO.C,J6*%
X147560547Y-141908052D03*
X147560547Y-139908052D03*
X147560547Y-137908052D03*
X147560547Y-125908052D03*
X147560547Y-135908052D03*
X147560547Y-127908052D03*
X147560547Y-129908052D03*
X147560547Y-131908052D03*
X147560547Y-133908052D03*
%TD*%
%TO.C,J6*%
X126510547Y-141908052D03*
X126510547Y-139908052D03*
X126510547Y-137908052D03*
X126510547Y-125908052D03*
X126510547Y-135908052D03*
X126510547Y-127908052D03*
X126510547Y-129908052D03*
X126510547Y-131908052D03*
X126510547Y-133908052D03*
%TD*%
%TO.C,J6*%
X105460547Y-141908052D03*
X105460547Y-139908052D03*
X105460547Y-137908052D03*
X105460547Y-125908052D03*
X105460547Y-135908052D03*
X105460547Y-127908052D03*
X105460547Y-129908052D03*
X105460547Y-131908052D03*
X105460547Y-133908052D03*
%TD*%
%TO.C,J6*%
X84410547Y-141908052D03*
X84410547Y-139908052D03*
X84410547Y-137908052D03*
X84410547Y-125908052D03*
X84410547Y-135908052D03*
X84410547Y-127908052D03*
X84410547Y-129908052D03*
X84410547Y-131908052D03*
X84410547Y-133908052D03*
%TD*%
%TO.C,J6*%
X63360547Y-141908052D03*
X63360547Y-139908052D03*
X63360547Y-137908052D03*
X63360547Y-125908052D03*
X63360547Y-135908052D03*
X63360547Y-127908052D03*
X63360547Y-129908052D03*
X63360547Y-131908052D03*
X63360547Y-133908052D03*
%TD*%
%TO.C,J6*%
X147560547Y-120858052D03*
X147560547Y-118858052D03*
X147560547Y-116858052D03*
X147560547Y-104858052D03*
X147560547Y-114858052D03*
X147560547Y-106858052D03*
X147560547Y-108858052D03*
X147560547Y-110858052D03*
X147560547Y-112858052D03*
%TD*%
%TO.C,J6*%
X126510547Y-120858052D03*
X126510547Y-118858052D03*
X126510547Y-116858052D03*
X126510547Y-104858052D03*
X126510547Y-114858052D03*
X126510547Y-106858052D03*
X126510547Y-108858052D03*
X126510547Y-110858052D03*
X126510547Y-112858052D03*
%TD*%
%TO.C,J6*%
X105460547Y-120858052D03*
X105460547Y-118858052D03*
X105460547Y-116858052D03*
X105460547Y-104858052D03*
X105460547Y-114858052D03*
X105460547Y-106858052D03*
X105460547Y-108858052D03*
X105460547Y-110858052D03*
X105460547Y-112858052D03*
%TD*%
%TO.C,J6*%
X84410547Y-120858052D03*
X84410547Y-118858052D03*
X84410547Y-116858052D03*
X84410547Y-104858052D03*
X84410547Y-114858052D03*
X84410547Y-106858052D03*
X84410547Y-108858052D03*
X84410547Y-110858052D03*
X84410547Y-112858052D03*
%TD*%
%TO.C,J6*%
X63360547Y-120858052D03*
X63360547Y-118858052D03*
X63360547Y-116858052D03*
X63360547Y-104858052D03*
X63360547Y-114858052D03*
X63360547Y-106858052D03*
X63360547Y-108858052D03*
X63360547Y-110858052D03*
X63360547Y-112858052D03*
%TD*%
%TO.C,J6*%
X147560547Y-99808052D03*
X147560547Y-97808052D03*
X147560547Y-95808052D03*
X147560547Y-83808052D03*
X147560547Y-93808052D03*
X147560547Y-85808052D03*
X147560547Y-87808052D03*
X147560547Y-89808052D03*
X147560547Y-91808052D03*
%TD*%
%TO.C,J6*%
X126510547Y-99808052D03*
X126510547Y-97808052D03*
X126510547Y-95808052D03*
X126510547Y-83808052D03*
X126510547Y-93808052D03*
X126510547Y-85808052D03*
X126510547Y-87808052D03*
X126510547Y-89808052D03*
X126510547Y-91808052D03*
%TD*%
%TO.C,J6*%
X105460547Y-99808052D03*
X105460547Y-97808052D03*
X105460547Y-95808052D03*
X105460547Y-83808052D03*
X105460547Y-93808052D03*
X105460547Y-85808052D03*
X105460547Y-87808052D03*
X105460547Y-89808052D03*
X105460547Y-91808052D03*
%TD*%
%TO.C,J6*%
X84410547Y-99808052D03*
X84410547Y-97808052D03*
X84410547Y-95808052D03*
X84410547Y-83808052D03*
X84410547Y-93808052D03*
X84410547Y-85808052D03*
X84410547Y-87808052D03*
X84410547Y-89808052D03*
X84410547Y-91808052D03*
%TD*%
%TO.C,J6*%
X63360547Y-99808052D03*
X63360547Y-97808052D03*
X63360547Y-95808052D03*
X63360547Y-83808052D03*
X63360547Y-93808052D03*
X63360547Y-85808052D03*
X63360547Y-87808052D03*
X63360547Y-89808052D03*
X63360547Y-91808052D03*
%TD*%
%TO.C,J6*%
X147560547Y-78758052D03*
X147560547Y-76758052D03*
X147560547Y-74758052D03*
X147560547Y-62758052D03*
X147560547Y-72758052D03*
X147560547Y-64758052D03*
X147560547Y-66758052D03*
X147560547Y-68758052D03*
X147560547Y-70758052D03*
%TD*%
%TO.C,J6*%
X126510547Y-78758052D03*
X126510547Y-76758052D03*
X126510547Y-74758052D03*
X126510547Y-62758052D03*
X126510547Y-72758052D03*
X126510547Y-64758052D03*
X126510547Y-66758052D03*
X126510547Y-68758052D03*
X126510547Y-70758052D03*
%TD*%
%TO.C,J6*%
X105460547Y-78758052D03*
X105460547Y-76758052D03*
X105460547Y-74758052D03*
X105460547Y-62758052D03*
X105460547Y-72758052D03*
X105460547Y-64758052D03*
X105460547Y-66758052D03*
X105460547Y-68758052D03*
X105460547Y-70758052D03*
%TD*%
%TO.C,J6*%
X84410547Y-78758052D03*
X84410547Y-76758052D03*
X84410547Y-74758052D03*
X84410547Y-62758052D03*
X84410547Y-72758052D03*
X84410547Y-64758052D03*
X84410547Y-66758052D03*
X84410547Y-68758052D03*
X84410547Y-70758052D03*
%TD*%
%TO.C,J6*%
X63360547Y-78758052D03*
X63360547Y-76758052D03*
X63360547Y-74758052D03*
X63360547Y-62758052D03*
X63360547Y-72758052D03*
X63360547Y-64758052D03*
X63360547Y-66758052D03*
X63360547Y-68758052D03*
X63360547Y-70758052D03*
%TD*%
%TO.C,J6*%
X147560547Y-57708052D03*
X147560547Y-55708052D03*
X147560547Y-53708052D03*
X147560547Y-41708052D03*
X147560547Y-51708052D03*
X147560547Y-43708052D03*
X147560547Y-45708052D03*
X147560547Y-47708052D03*
X147560547Y-49708052D03*
%TD*%
%TO.C,J6*%
X126510547Y-57708052D03*
X126510547Y-55708052D03*
X126510547Y-53708052D03*
X126510547Y-41708052D03*
X126510547Y-51708052D03*
X126510547Y-43708052D03*
X126510547Y-45708052D03*
X126510547Y-47708052D03*
X126510547Y-49708052D03*
%TD*%
%TO.C,J6*%
X105460547Y-57708052D03*
X105460547Y-55708052D03*
X105460547Y-53708052D03*
X105460547Y-41708052D03*
X105460547Y-51708052D03*
X105460547Y-43708052D03*
X105460547Y-45708052D03*
X105460547Y-47708052D03*
X105460547Y-49708052D03*
%TD*%
%TO.C,J6*%
X84410547Y-57708052D03*
X84410547Y-55708052D03*
X84410547Y-53708052D03*
X84410547Y-41708052D03*
X84410547Y-51708052D03*
X84410547Y-43708052D03*
X84410547Y-45708052D03*
X84410547Y-47708052D03*
X84410547Y-49708052D03*
%TD*%
%TO.C,C1*%
G36*
G01*
X141774547Y-133150052D02*
X141774547Y-133650052D01*
G75*
G02*
X141549547Y-133875052I-225000J0D01*
G01*
X141099547Y-133875052D01*
G75*
G02*
X140874547Y-133650052I0J225000D01*
G01*
X140874547Y-133150052D01*
G75*
G02*
X141099547Y-132925052I225000J0D01*
G01*
X141549547Y-132925052D01*
G75*
G02*
X141774547Y-133150052I0J-225000D01*
G01*
G37*
G36*
G01*
X143324547Y-133150052D02*
X143324547Y-133650052D01*
G75*
G02*
X143099547Y-133875052I-225000J0D01*
G01*
X142649547Y-133875052D01*
G75*
G02*
X142424547Y-133650052I0J225000D01*
G01*
X142424547Y-133150052D01*
G75*
G02*
X142649547Y-132925052I225000J0D01*
G01*
X143099547Y-132925052D01*
G75*
G02*
X143324547Y-133150052I0J-225000D01*
G01*
G37*
%TD*%
%TO.C,C1*%
G36*
G01*
X120724547Y-133150052D02*
X120724547Y-133650052D01*
G75*
G02*
X120499547Y-133875052I-225000J0D01*
G01*
X120049547Y-133875052D01*
G75*
G02*
X119824547Y-133650052I0J225000D01*
G01*
X119824547Y-133150052D01*
G75*
G02*
X120049547Y-132925052I225000J0D01*
G01*
X120499547Y-132925052D01*
G75*
G02*
X120724547Y-133150052I0J-225000D01*
G01*
G37*
G36*
G01*
X122274547Y-133150052D02*
X122274547Y-133650052D01*
G75*
G02*
X122049547Y-133875052I-225000J0D01*
G01*
X121599547Y-133875052D01*
G75*
G02*
X121374547Y-133650052I0J225000D01*
G01*
X121374547Y-133150052D01*
G75*
G02*
X121599547Y-132925052I225000J0D01*
G01*
X122049547Y-132925052D01*
G75*
G02*
X122274547Y-133150052I0J-225000D01*
G01*
G37*
%TD*%
%TO.C,C1*%
G36*
G01*
X99674547Y-133150052D02*
X99674547Y-133650052D01*
G75*
G02*
X99449547Y-133875052I-225000J0D01*
G01*
X98999547Y-133875052D01*
G75*
G02*
X98774547Y-133650052I0J225000D01*
G01*
X98774547Y-133150052D01*
G75*
G02*
X98999547Y-132925052I225000J0D01*
G01*
X99449547Y-132925052D01*
G75*
G02*
X99674547Y-133150052I0J-225000D01*
G01*
G37*
G36*
G01*
X101224547Y-133150052D02*
X101224547Y-133650052D01*
G75*
G02*
X100999547Y-133875052I-225000J0D01*
G01*
X100549547Y-133875052D01*
G75*
G02*
X100324547Y-133650052I0J225000D01*
G01*
X100324547Y-133150052D01*
G75*
G02*
X100549547Y-132925052I225000J0D01*
G01*
X100999547Y-132925052D01*
G75*
G02*
X101224547Y-133150052I0J-225000D01*
G01*
G37*
%TD*%
%TO.C,C1*%
G36*
G01*
X78624547Y-133150052D02*
X78624547Y-133650052D01*
G75*
G02*
X78399547Y-133875052I-225000J0D01*
G01*
X77949547Y-133875052D01*
G75*
G02*
X77724547Y-133650052I0J225000D01*
G01*
X77724547Y-133150052D01*
G75*
G02*
X77949547Y-132925052I225000J0D01*
G01*
X78399547Y-132925052D01*
G75*
G02*
X78624547Y-133150052I0J-225000D01*
G01*
G37*
G36*
G01*
X80174547Y-133150052D02*
X80174547Y-133650052D01*
G75*
G02*
X79949547Y-133875052I-225000J0D01*
G01*
X79499547Y-133875052D01*
G75*
G02*
X79274547Y-133650052I0J225000D01*
G01*
X79274547Y-133150052D01*
G75*
G02*
X79499547Y-132925052I225000J0D01*
G01*
X79949547Y-132925052D01*
G75*
G02*
X80174547Y-133150052I0J-225000D01*
G01*
G37*
%TD*%
%TO.C,C1*%
G36*
G01*
X57574547Y-133150052D02*
X57574547Y-133650052D01*
G75*
G02*
X57349547Y-133875052I-225000J0D01*
G01*
X56899547Y-133875052D01*
G75*
G02*
X56674547Y-133650052I0J225000D01*
G01*
X56674547Y-133150052D01*
G75*
G02*
X56899547Y-132925052I225000J0D01*
G01*
X57349547Y-132925052D01*
G75*
G02*
X57574547Y-133150052I0J-225000D01*
G01*
G37*
G36*
G01*
X59124547Y-133150052D02*
X59124547Y-133650052D01*
G75*
G02*
X58899547Y-133875052I-225000J0D01*
G01*
X58449547Y-133875052D01*
G75*
G02*
X58224547Y-133650052I0J225000D01*
G01*
X58224547Y-133150052D01*
G75*
G02*
X58449547Y-132925052I225000J0D01*
G01*
X58899547Y-132925052D01*
G75*
G02*
X59124547Y-133150052I0J-225000D01*
G01*
G37*
%TD*%
%TO.C,C1*%
G36*
G01*
X141774547Y-112100052D02*
X141774547Y-112600052D01*
G75*
G02*
X141549547Y-112825052I-225000J0D01*
G01*
X141099547Y-112825052D01*
G75*
G02*
X140874547Y-112600052I0J225000D01*
G01*
X140874547Y-112100052D01*
G75*
G02*
X141099547Y-111875052I225000J0D01*
G01*
X141549547Y-111875052D01*
G75*
G02*
X141774547Y-112100052I0J-225000D01*
G01*
G37*
G36*
G01*
X143324547Y-112100052D02*
X143324547Y-112600052D01*
G75*
G02*
X143099547Y-112825052I-225000J0D01*
G01*
X142649547Y-112825052D01*
G75*
G02*
X142424547Y-112600052I0J225000D01*
G01*
X142424547Y-112100052D01*
G75*
G02*
X142649547Y-111875052I225000J0D01*
G01*
X143099547Y-111875052D01*
G75*
G02*
X143324547Y-112100052I0J-225000D01*
G01*
G37*
%TD*%
%TO.C,C1*%
G36*
G01*
X120724547Y-112100052D02*
X120724547Y-112600052D01*
G75*
G02*
X120499547Y-112825052I-225000J0D01*
G01*
X120049547Y-112825052D01*
G75*
G02*
X119824547Y-112600052I0J225000D01*
G01*
X119824547Y-112100052D01*
G75*
G02*
X120049547Y-111875052I225000J0D01*
G01*
X120499547Y-111875052D01*
G75*
G02*
X120724547Y-112100052I0J-225000D01*
G01*
G37*
G36*
G01*
X122274547Y-112100052D02*
X122274547Y-112600052D01*
G75*
G02*
X122049547Y-112825052I-225000J0D01*
G01*
X121599547Y-112825052D01*
G75*
G02*
X121374547Y-112600052I0J225000D01*
G01*
X121374547Y-112100052D01*
G75*
G02*
X121599547Y-111875052I225000J0D01*
G01*
X122049547Y-111875052D01*
G75*
G02*
X122274547Y-112100052I0J-225000D01*
G01*
G37*
%TD*%
%TO.C,C1*%
G36*
G01*
X99674547Y-112100052D02*
X99674547Y-112600052D01*
G75*
G02*
X99449547Y-112825052I-225000J0D01*
G01*
X98999547Y-112825052D01*
G75*
G02*
X98774547Y-112600052I0J225000D01*
G01*
X98774547Y-112100052D01*
G75*
G02*
X98999547Y-111875052I225000J0D01*
G01*
X99449547Y-111875052D01*
G75*
G02*
X99674547Y-112100052I0J-225000D01*
G01*
G37*
G36*
G01*
X101224547Y-112100052D02*
X101224547Y-112600052D01*
G75*
G02*
X100999547Y-112825052I-225000J0D01*
G01*
X100549547Y-112825052D01*
G75*
G02*
X100324547Y-112600052I0J225000D01*
G01*
X100324547Y-112100052D01*
G75*
G02*
X100549547Y-111875052I225000J0D01*
G01*
X100999547Y-111875052D01*
G75*
G02*
X101224547Y-112100052I0J-225000D01*
G01*
G37*
%TD*%
%TO.C,C1*%
G36*
G01*
X78624547Y-112100052D02*
X78624547Y-112600052D01*
G75*
G02*
X78399547Y-112825052I-225000J0D01*
G01*
X77949547Y-112825052D01*
G75*
G02*
X77724547Y-112600052I0J225000D01*
G01*
X77724547Y-112100052D01*
G75*
G02*
X77949547Y-111875052I225000J0D01*
G01*
X78399547Y-111875052D01*
G75*
G02*
X78624547Y-112100052I0J-225000D01*
G01*
G37*
G36*
G01*
X80174547Y-112100052D02*
X80174547Y-112600052D01*
G75*
G02*
X79949547Y-112825052I-225000J0D01*
G01*
X79499547Y-112825052D01*
G75*
G02*
X79274547Y-112600052I0J225000D01*
G01*
X79274547Y-112100052D01*
G75*
G02*
X79499547Y-111875052I225000J0D01*
G01*
X79949547Y-111875052D01*
G75*
G02*
X80174547Y-112100052I0J-225000D01*
G01*
G37*
%TD*%
%TO.C,C1*%
G36*
G01*
X57574547Y-112100052D02*
X57574547Y-112600052D01*
G75*
G02*
X57349547Y-112825052I-225000J0D01*
G01*
X56899547Y-112825052D01*
G75*
G02*
X56674547Y-112600052I0J225000D01*
G01*
X56674547Y-112100052D01*
G75*
G02*
X56899547Y-111875052I225000J0D01*
G01*
X57349547Y-111875052D01*
G75*
G02*
X57574547Y-112100052I0J-225000D01*
G01*
G37*
G36*
G01*
X59124547Y-112100052D02*
X59124547Y-112600052D01*
G75*
G02*
X58899547Y-112825052I-225000J0D01*
G01*
X58449547Y-112825052D01*
G75*
G02*
X58224547Y-112600052I0J225000D01*
G01*
X58224547Y-112100052D01*
G75*
G02*
X58449547Y-111875052I225000J0D01*
G01*
X58899547Y-111875052D01*
G75*
G02*
X59124547Y-112100052I0J-225000D01*
G01*
G37*
%TD*%
%TO.C,C1*%
G36*
G01*
X141774547Y-91050052D02*
X141774547Y-91550052D01*
G75*
G02*
X141549547Y-91775052I-225000J0D01*
G01*
X141099547Y-91775052D01*
G75*
G02*
X140874547Y-91550052I0J225000D01*
G01*
X140874547Y-91050052D01*
G75*
G02*
X141099547Y-90825052I225000J0D01*
G01*
X141549547Y-90825052D01*
G75*
G02*
X141774547Y-91050052I0J-225000D01*
G01*
G37*
G36*
G01*
X143324547Y-91050052D02*
X143324547Y-91550052D01*
G75*
G02*
X143099547Y-91775052I-225000J0D01*
G01*
X142649547Y-91775052D01*
G75*
G02*
X142424547Y-91550052I0J225000D01*
G01*
X142424547Y-91050052D01*
G75*
G02*
X142649547Y-90825052I225000J0D01*
G01*
X143099547Y-90825052D01*
G75*
G02*
X143324547Y-91050052I0J-225000D01*
G01*
G37*
%TD*%
%TO.C,C1*%
G36*
G01*
X120724547Y-91050052D02*
X120724547Y-91550052D01*
G75*
G02*
X120499547Y-91775052I-225000J0D01*
G01*
X120049547Y-91775052D01*
G75*
G02*
X119824547Y-91550052I0J225000D01*
G01*
X119824547Y-91050052D01*
G75*
G02*
X120049547Y-90825052I225000J0D01*
G01*
X120499547Y-90825052D01*
G75*
G02*
X120724547Y-91050052I0J-225000D01*
G01*
G37*
G36*
G01*
X122274547Y-91050052D02*
X122274547Y-91550052D01*
G75*
G02*
X122049547Y-91775052I-225000J0D01*
G01*
X121599547Y-91775052D01*
G75*
G02*
X121374547Y-91550052I0J225000D01*
G01*
X121374547Y-91050052D01*
G75*
G02*
X121599547Y-90825052I225000J0D01*
G01*
X122049547Y-90825052D01*
G75*
G02*
X122274547Y-91050052I0J-225000D01*
G01*
G37*
%TD*%
%TO.C,C1*%
G36*
G01*
X99674547Y-91050052D02*
X99674547Y-91550052D01*
G75*
G02*
X99449547Y-91775052I-225000J0D01*
G01*
X98999547Y-91775052D01*
G75*
G02*
X98774547Y-91550052I0J225000D01*
G01*
X98774547Y-91050052D01*
G75*
G02*
X98999547Y-90825052I225000J0D01*
G01*
X99449547Y-90825052D01*
G75*
G02*
X99674547Y-91050052I0J-225000D01*
G01*
G37*
G36*
G01*
X101224547Y-91050052D02*
X101224547Y-91550052D01*
G75*
G02*
X100999547Y-91775052I-225000J0D01*
G01*
X100549547Y-91775052D01*
G75*
G02*
X100324547Y-91550052I0J225000D01*
G01*
X100324547Y-91050052D01*
G75*
G02*
X100549547Y-90825052I225000J0D01*
G01*
X100999547Y-90825052D01*
G75*
G02*
X101224547Y-91050052I0J-225000D01*
G01*
G37*
%TD*%
%TO.C,C1*%
G36*
G01*
X78624547Y-91050052D02*
X78624547Y-91550052D01*
G75*
G02*
X78399547Y-91775052I-225000J0D01*
G01*
X77949547Y-91775052D01*
G75*
G02*
X77724547Y-91550052I0J225000D01*
G01*
X77724547Y-91050052D01*
G75*
G02*
X77949547Y-90825052I225000J0D01*
G01*
X78399547Y-90825052D01*
G75*
G02*
X78624547Y-91050052I0J-225000D01*
G01*
G37*
G36*
G01*
X80174547Y-91050052D02*
X80174547Y-91550052D01*
G75*
G02*
X79949547Y-91775052I-225000J0D01*
G01*
X79499547Y-91775052D01*
G75*
G02*
X79274547Y-91550052I0J225000D01*
G01*
X79274547Y-91050052D01*
G75*
G02*
X79499547Y-90825052I225000J0D01*
G01*
X79949547Y-90825052D01*
G75*
G02*
X80174547Y-91050052I0J-225000D01*
G01*
G37*
%TD*%
%TO.C,C1*%
G36*
G01*
X57574547Y-91050052D02*
X57574547Y-91550052D01*
G75*
G02*
X57349547Y-91775052I-225000J0D01*
G01*
X56899547Y-91775052D01*
G75*
G02*
X56674547Y-91550052I0J225000D01*
G01*
X56674547Y-91050052D01*
G75*
G02*
X56899547Y-90825052I225000J0D01*
G01*
X57349547Y-90825052D01*
G75*
G02*
X57574547Y-91050052I0J-225000D01*
G01*
G37*
G36*
G01*
X59124547Y-91050052D02*
X59124547Y-91550052D01*
G75*
G02*
X58899547Y-91775052I-225000J0D01*
G01*
X58449547Y-91775052D01*
G75*
G02*
X58224547Y-91550052I0J225000D01*
G01*
X58224547Y-91050052D01*
G75*
G02*
X58449547Y-90825052I225000J0D01*
G01*
X58899547Y-90825052D01*
G75*
G02*
X59124547Y-91050052I0J-225000D01*
G01*
G37*
%TD*%
%TO.C,C1*%
G36*
G01*
X141774547Y-70000052D02*
X141774547Y-70500052D01*
G75*
G02*
X141549547Y-70725052I-225000J0D01*
G01*
X141099547Y-70725052D01*
G75*
G02*
X140874547Y-70500052I0J225000D01*
G01*
X140874547Y-70000052D01*
G75*
G02*
X141099547Y-69775052I225000J0D01*
G01*
X141549547Y-69775052D01*
G75*
G02*
X141774547Y-70000052I0J-225000D01*
G01*
G37*
G36*
G01*
X143324547Y-70000052D02*
X143324547Y-70500052D01*
G75*
G02*
X143099547Y-70725052I-225000J0D01*
G01*
X142649547Y-70725052D01*
G75*
G02*
X142424547Y-70500052I0J225000D01*
G01*
X142424547Y-70000052D01*
G75*
G02*
X142649547Y-69775052I225000J0D01*
G01*
X143099547Y-69775052D01*
G75*
G02*
X143324547Y-70000052I0J-225000D01*
G01*
G37*
%TD*%
%TO.C,C1*%
G36*
G01*
X120724547Y-70000052D02*
X120724547Y-70500052D01*
G75*
G02*
X120499547Y-70725052I-225000J0D01*
G01*
X120049547Y-70725052D01*
G75*
G02*
X119824547Y-70500052I0J225000D01*
G01*
X119824547Y-70000052D01*
G75*
G02*
X120049547Y-69775052I225000J0D01*
G01*
X120499547Y-69775052D01*
G75*
G02*
X120724547Y-70000052I0J-225000D01*
G01*
G37*
G36*
G01*
X122274547Y-70000052D02*
X122274547Y-70500052D01*
G75*
G02*
X122049547Y-70725052I-225000J0D01*
G01*
X121599547Y-70725052D01*
G75*
G02*
X121374547Y-70500052I0J225000D01*
G01*
X121374547Y-70000052D01*
G75*
G02*
X121599547Y-69775052I225000J0D01*
G01*
X122049547Y-69775052D01*
G75*
G02*
X122274547Y-70000052I0J-225000D01*
G01*
G37*
%TD*%
%TO.C,C1*%
G36*
G01*
X99674547Y-70000052D02*
X99674547Y-70500052D01*
G75*
G02*
X99449547Y-70725052I-225000J0D01*
G01*
X98999547Y-70725052D01*
G75*
G02*
X98774547Y-70500052I0J225000D01*
G01*
X98774547Y-70000052D01*
G75*
G02*
X98999547Y-69775052I225000J0D01*
G01*
X99449547Y-69775052D01*
G75*
G02*
X99674547Y-70000052I0J-225000D01*
G01*
G37*
G36*
G01*
X101224547Y-70000052D02*
X101224547Y-70500052D01*
G75*
G02*
X100999547Y-70725052I-225000J0D01*
G01*
X100549547Y-70725052D01*
G75*
G02*
X100324547Y-70500052I0J225000D01*
G01*
X100324547Y-70000052D01*
G75*
G02*
X100549547Y-69775052I225000J0D01*
G01*
X100999547Y-69775052D01*
G75*
G02*
X101224547Y-70000052I0J-225000D01*
G01*
G37*
%TD*%
%TO.C,C1*%
G36*
G01*
X78624547Y-70000052D02*
X78624547Y-70500052D01*
G75*
G02*
X78399547Y-70725052I-225000J0D01*
G01*
X77949547Y-70725052D01*
G75*
G02*
X77724547Y-70500052I0J225000D01*
G01*
X77724547Y-70000052D01*
G75*
G02*
X77949547Y-69775052I225000J0D01*
G01*
X78399547Y-69775052D01*
G75*
G02*
X78624547Y-70000052I0J-225000D01*
G01*
G37*
G36*
G01*
X80174547Y-70000052D02*
X80174547Y-70500052D01*
G75*
G02*
X79949547Y-70725052I-225000J0D01*
G01*
X79499547Y-70725052D01*
G75*
G02*
X79274547Y-70500052I0J225000D01*
G01*
X79274547Y-70000052D01*
G75*
G02*
X79499547Y-69775052I225000J0D01*
G01*
X79949547Y-69775052D01*
G75*
G02*
X80174547Y-70000052I0J-225000D01*
G01*
G37*
%TD*%
%TO.C,C1*%
G36*
G01*
X57574547Y-70000052D02*
X57574547Y-70500052D01*
G75*
G02*
X57349547Y-70725052I-225000J0D01*
G01*
X56899547Y-70725052D01*
G75*
G02*
X56674547Y-70500052I0J225000D01*
G01*
X56674547Y-70000052D01*
G75*
G02*
X56899547Y-69775052I225000J0D01*
G01*
X57349547Y-69775052D01*
G75*
G02*
X57574547Y-70000052I0J-225000D01*
G01*
G37*
G36*
G01*
X59124547Y-70000052D02*
X59124547Y-70500052D01*
G75*
G02*
X58899547Y-70725052I-225000J0D01*
G01*
X58449547Y-70725052D01*
G75*
G02*
X58224547Y-70500052I0J225000D01*
G01*
X58224547Y-70000052D01*
G75*
G02*
X58449547Y-69775052I225000J0D01*
G01*
X58899547Y-69775052D01*
G75*
G02*
X59124547Y-70000052I0J-225000D01*
G01*
G37*
%TD*%
%TO.C,C1*%
G36*
G01*
X141774547Y-48950052D02*
X141774547Y-49450052D01*
G75*
G02*
X141549547Y-49675052I-225000J0D01*
G01*
X141099547Y-49675052D01*
G75*
G02*
X140874547Y-49450052I0J225000D01*
G01*
X140874547Y-48950052D01*
G75*
G02*
X141099547Y-48725052I225000J0D01*
G01*
X141549547Y-48725052D01*
G75*
G02*
X141774547Y-48950052I0J-225000D01*
G01*
G37*
G36*
G01*
X143324547Y-48950052D02*
X143324547Y-49450052D01*
G75*
G02*
X143099547Y-49675052I-225000J0D01*
G01*
X142649547Y-49675052D01*
G75*
G02*
X142424547Y-49450052I0J225000D01*
G01*
X142424547Y-48950052D01*
G75*
G02*
X142649547Y-48725052I225000J0D01*
G01*
X143099547Y-48725052D01*
G75*
G02*
X143324547Y-48950052I0J-225000D01*
G01*
G37*
%TD*%
%TO.C,C1*%
G36*
G01*
X120724547Y-48950052D02*
X120724547Y-49450052D01*
G75*
G02*
X120499547Y-49675052I-225000J0D01*
G01*
X120049547Y-49675052D01*
G75*
G02*
X119824547Y-49450052I0J225000D01*
G01*
X119824547Y-48950052D01*
G75*
G02*
X120049547Y-48725052I225000J0D01*
G01*
X120499547Y-48725052D01*
G75*
G02*
X120724547Y-48950052I0J-225000D01*
G01*
G37*
G36*
G01*
X122274547Y-48950052D02*
X122274547Y-49450052D01*
G75*
G02*
X122049547Y-49675052I-225000J0D01*
G01*
X121599547Y-49675052D01*
G75*
G02*
X121374547Y-49450052I0J225000D01*
G01*
X121374547Y-48950052D01*
G75*
G02*
X121599547Y-48725052I225000J0D01*
G01*
X122049547Y-48725052D01*
G75*
G02*
X122274547Y-48950052I0J-225000D01*
G01*
G37*
%TD*%
%TO.C,C1*%
G36*
G01*
X99674547Y-48950052D02*
X99674547Y-49450052D01*
G75*
G02*
X99449547Y-49675052I-225000J0D01*
G01*
X98999547Y-49675052D01*
G75*
G02*
X98774547Y-49450052I0J225000D01*
G01*
X98774547Y-48950052D01*
G75*
G02*
X98999547Y-48725052I225000J0D01*
G01*
X99449547Y-48725052D01*
G75*
G02*
X99674547Y-48950052I0J-225000D01*
G01*
G37*
G36*
G01*
X101224547Y-48950052D02*
X101224547Y-49450052D01*
G75*
G02*
X100999547Y-49675052I-225000J0D01*
G01*
X100549547Y-49675052D01*
G75*
G02*
X100324547Y-49450052I0J225000D01*
G01*
X100324547Y-48950052D01*
G75*
G02*
X100549547Y-48725052I225000J0D01*
G01*
X100999547Y-48725052D01*
G75*
G02*
X101224547Y-48950052I0J-225000D01*
G01*
G37*
%TD*%
%TO.C,C1*%
G36*
G01*
X78624547Y-48950052D02*
X78624547Y-49450052D01*
G75*
G02*
X78399547Y-49675052I-225000J0D01*
G01*
X77949547Y-49675052D01*
G75*
G02*
X77724547Y-49450052I0J225000D01*
G01*
X77724547Y-48950052D01*
G75*
G02*
X77949547Y-48725052I225000J0D01*
G01*
X78399547Y-48725052D01*
G75*
G02*
X78624547Y-48950052I0J-225000D01*
G01*
G37*
G36*
G01*
X80174547Y-48950052D02*
X80174547Y-49450052D01*
G75*
G02*
X79949547Y-49675052I-225000J0D01*
G01*
X79499547Y-49675052D01*
G75*
G02*
X79274547Y-49450052I0J225000D01*
G01*
X79274547Y-48950052D01*
G75*
G02*
X79499547Y-48725052I225000J0D01*
G01*
X79949547Y-48725052D01*
G75*
G02*
X80174547Y-48950052I0J-225000D01*
G01*
G37*
%TD*%
D13*
%TO.C,J1*%
X143436547Y-125383052D03*
X134666547Y-125383052D03*
D14*
X142801547Y-128193052D03*
X142301547Y-128193052D03*
X141801547Y-128193052D03*
X141301547Y-128193052D03*
X140801547Y-128193052D03*
X140301547Y-128193052D03*
X139801547Y-128193052D03*
X139301547Y-128193052D03*
X138801547Y-128193052D03*
X138301547Y-128193052D03*
X137801547Y-128193052D03*
X137301547Y-128193052D03*
X136801547Y-128193052D03*
X136301547Y-128193052D03*
X135801547Y-128193052D03*
X135301547Y-128193052D03*
%TD*%
D13*
%TO.C,J1*%
X122386547Y-125383052D03*
X113616547Y-125383052D03*
D14*
X121751547Y-128193052D03*
X121251547Y-128193052D03*
X120751547Y-128193052D03*
X120251547Y-128193052D03*
X119751547Y-128193052D03*
X119251547Y-128193052D03*
X118751547Y-128193052D03*
X118251547Y-128193052D03*
X117751547Y-128193052D03*
X117251547Y-128193052D03*
X116751547Y-128193052D03*
X116251547Y-128193052D03*
X115751547Y-128193052D03*
X115251547Y-128193052D03*
X114751547Y-128193052D03*
X114251547Y-128193052D03*
%TD*%
D13*
%TO.C,J1*%
X101336547Y-125383052D03*
X92566547Y-125383052D03*
D14*
X100701547Y-128193052D03*
X100201547Y-128193052D03*
X99701547Y-128193052D03*
X99201547Y-128193052D03*
X98701547Y-128193052D03*
X98201547Y-128193052D03*
X97701547Y-128193052D03*
X97201547Y-128193052D03*
X96701547Y-128193052D03*
X96201547Y-128193052D03*
X95701547Y-128193052D03*
X95201547Y-128193052D03*
X94701547Y-128193052D03*
X94201547Y-128193052D03*
X93701547Y-128193052D03*
X93201547Y-128193052D03*
%TD*%
D13*
%TO.C,J1*%
X80286547Y-125383052D03*
X71516547Y-125383052D03*
D14*
X79651547Y-128193052D03*
X79151547Y-128193052D03*
X78651547Y-128193052D03*
X78151547Y-128193052D03*
X77651547Y-128193052D03*
X77151547Y-128193052D03*
X76651547Y-128193052D03*
X76151547Y-128193052D03*
X75651547Y-128193052D03*
X75151547Y-128193052D03*
X74651547Y-128193052D03*
X74151547Y-128193052D03*
X73651547Y-128193052D03*
X73151547Y-128193052D03*
X72651547Y-128193052D03*
X72151547Y-128193052D03*
%TD*%
D13*
%TO.C,J1*%
X59236547Y-125383052D03*
X50466547Y-125383052D03*
D14*
X58601547Y-128193052D03*
X58101547Y-128193052D03*
X57601547Y-128193052D03*
X57101547Y-128193052D03*
X56601547Y-128193052D03*
X56101547Y-128193052D03*
X55601547Y-128193052D03*
X55101547Y-128193052D03*
X54601547Y-128193052D03*
X54101547Y-128193052D03*
X53601547Y-128193052D03*
X53101547Y-128193052D03*
X52601547Y-128193052D03*
X52101547Y-128193052D03*
X51601547Y-128193052D03*
X51101547Y-128193052D03*
%TD*%
D13*
%TO.C,J1*%
X143436547Y-104333052D03*
X134666547Y-104333052D03*
D14*
X142801547Y-107143052D03*
X142301547Y-107143052D03*
X141801547Y-107143052D03*
X141301547Y-107143052D03*
X140801547Y-107143052D03*
X140301547Y-107143052D03*
X139801547Y-107143052D03*
X139301547Y-107143052D03*
X138801547Y-107143052D03*
X138301547Y-107143052D03*
X137801547Y-107143052D03*
X137301547Y-107143052D03*
X136801547Y-107143052D03*
X136301547Y-107143052D03*
X135801547Y-107143052D03*
X135301547Y-107143052D03*
%TD*%
D13*
%TO.C,J1*%
X122386547Y-104333052D03*
X113616547Y-104333052D03*
D14*
X121751547Y-107143052D03*
X121251547Y-107143052D03*
X120751547Y-107143052D03*
X120251547Y-107143052D03*
X119751547Y-107143052D03*
X119251547Y-107143052D03*
X118751547Y-107143052D03*
X118251547Y-107143052D03*
X117751547Y-107143052D03*
X117251547Y-107143052D03*
X116751547Y-107143052D03*
X116251547Y-107143052D03*
X115751547Y-107143052D03*
X115251547Y-107143052D03*
X114751547Y-107143052D03*
X114251547Y-107143052D03*
%TD*%
D13*
%TO.C,J1*%
X101336547Y-104333052D03*
X92566547Y-104333052D03*
D14*
X100701547Y-107143052D03*
X100201547Y-107143052D03*
X99701547Y-107143052D03*
X99201547Y-107143052D03*
X98701547Y-107143052D03*
X98201547Y-107143052D03*
X97701547Y-107143052D03*
X97201547Y-107143052D03*
X96701547Y-107143052D03*
X96201547Y-107143052D03*
X95701547Y-107143052D03*
X95201547Y-107143052D03*
X94701547Y-107143052D03*
X94201547Y-107143052D03*
X93701547Y-107143052D03*
X93201547Y-107143052D03*
%TD*%
D13*
%TO.C,J1*%
X80286547Y-104333052D03*
X71516547Y-104333052D03*
D14*
X79651547Y-107143052D03*
X79151547Y-107143052D03*
X78651547Y-107143052D03*
X78151547Y-107143052D03*
X77651547Y-107143052D03*
X77151547Y-107143052D03*
X76651547Y-107143052D03*
X76151547Y-107143052D03*
X75651547Y-107143052D03*
X75151547Y-107143052D03*
X74651547Y-107143052D03*
X74151547Y-107143052D03*
X73651547Y-107143052D03*
X73151547Y-107143052D03*
X72651547Y-107143052D03*
X72151547Y-107143052D03*
%TD*%
D13*
%TO.C,J1*%
X59236547Y-104333052D03*
X50466547Y-104333052D03*
D14*
X58601547Y-107143052D03*
X58101547Y-107143052D03*
X57601547Y-107143052D03*
X57101547Y-107143052D03*
X56601547Y-107143052D03*
X56101547Y-107143052D03*
X55601547Y-107143052D03*
X55101547Y-107143052D03*
X54601547Y-107143052D03*
X54101547Y-107143052D03*
X53601547Y-107143052D03*
X53101547Y-107143052D03*
X52601547Y-107143052D03*
X52101547Y-107143052D03*
X51601547Y-107143052D03*
X51101547Y-107143052D03*
%TD*%
D13*
%TO.C,J1*%
X143436547Y-83283052D03*
X134666547Y-83283052D03*
D14*
X142801547Y-86093052D03*
X142301547Y-86093052D03*
X141801547Y-86093052D03*
X141301547Y-86093052D03*
X140801547Y-86093052D03*
X140301547Y-86093052D03*
X139801547Y-86093052D03*
X139301547Y-86093052D03*
X138801547Y-86093052D03*
X138301547Y-86093052D03*
X137801547Y-86093052D03*
X137301547Y-86093052D03*
X136801547Y-86093052D03*
X136301547Y-86093052D03*
X135801547Y-86093052D03*
X135301547Y-86093052D03*
%TD*%
D13*
%TO.C,J1*%
X122386547Y-83283052D03*
X113616547Y-83283052D03*
D14*
X121751547Y-86093052D03*
X121251547Y-86093052D03*
X120751547Y-86093052D03*
X120251547Y-86093052D03*
X119751547Y-86093052D03*
X119251547Y-86093052D03*
X118751547Y-86093052D03*
X118251547Y-86093052D03*
X117751547Y-86093052D03*
X117251547Y-86093052D03*
X116751547Y-86093052D03*
X116251547Y-86093052D03*
X115751547Y-86093052D03*
X115251547Y-86093052D03*
X114751547Y-86093052D03*
X114251547Y-86093052D03*
%TD*%
D13*
%TO.C,J1*%
X101336547Y-83283052D03*
X92566547Y-83283052D03*
D14*
X100701547Y-86093052D03*
X100201547Y-86093052D03*
X99701547Y-86093052D03*
X99201547Y-86093052D03*
X98701547Y-86093052D03*
X98201547Y-86093052D03*
X97701547Y-86093052D03*
X97201547Y-86093052D03*
X96701547Y-86093052D03*
X96201547Y-86093052D03*
X95701547Y-86093052D03*
X95201547Y-86093052D03*
X94701547Y-86093052D03*
X94201547Y-86093052D03*
X93701547Y-86093052D03*
X93201547Y-86093052D03*
%TD*%
D13*
%TO.C,J1*%
X80286547Y-83283052D03*
X71516547Y-83283052D03*
D14*
X79651547Y-86093052D03*
X79151547Y-86093052D03*
X78651547Y-86093052D03*
X78151547Y-86093052D03*
X77651547Y-86093052D03*
X77151547Y-86093052D03*
X76651547Y-86093052D03*
X76151547Y-86093052D03*
X75651547Y-86093052D03*
X75151547Y-86093052D03*
X74651547Y-86093052D03*
X74151547Y-86093052D03*
X73651547Y-86093052D03*
X73151547Y-86093052D03*
X72651547Y-86093052D03*
X72151547Y-86093052D03*
%TD*%
D13*
%TO.C,J1*%
X59236547Y-83283052D03*
X50466547Y-83283052D03*
D14*
X58601547Y-86093052D03*
X58101547Y-86093052D03*
X57601547Y-86093052D03*
X57101547Y-86093052D03*
X56601547Y-86093052D03*
X56101547Y-86093052D03*
X55601547Y-86093052D03*
X55101547Y-86093052D03*
X54601547Y-86093052D03*
X54101547Y-86093052D03*
X53601547Y-86093052D03*
X53101547Y-86093052D03*
X52601547Y-86093052D03*
X52101547Y-86093052D03*
X51601547Y-86093052D03*
X51101547Y-86093052D03*
%TD*%
D13*
%TO.C,J1*%
X143436547Y-62233052D03*
X134666547Y-62233052D03*
D14*
X142801547Y-65043052D03*
X142301547Y-65043052D03*
X141801547Y-65043052D03*
X141301547Y-65043052D03*
X140801547Y-65043052D03*
X140301547Y-65043052D03*
X139801547Y-65043052D03*
X139301547Y-65043052D03*
X138801547Y-65043052D03*
X138301547Y-65043052D03*
X137801547Y-65043052D03*
X137301547Y-65043052D03*
X136801547Y-65043052D03*
X136301547Y-65043052D03*
X135801547Y-65043052D03*
X135301547Y-65043052D03*
%TD*%
D13*
%TO.C,J1*%
X122386547Y-62233052D03*
X113616547Y-62233052D03*
D14*
X121751547Y-65043052D03*
X121251547Y-65043052D03*
X120751547Y-65043052D03*
X120251547Y-65043052D03*
X119751547Y-65043052D03*
X119251547Y-65043052D03*
X118751547Y-65043052D03*
X118251547Y-65043052D03*
X117751547Y-65043052D03*
X117251547Y-65043052D03*
X116751547Y-65043052D03*
X116251547Y-65043052D03*
X115751547Y-65043052D03*
X115251547Y-65043052D03*
X114751547Y-65043052D03*
X114251547Y-65043052D03*
%TD*%
D13*
%TO.C,J1*%
X101336547Y-62233052D03*
X92566547Y-62233052D03*
D14*
X100701547Y-65043052D03*
X100201547Y-65043052D03*
X99701547Y-65043052D03*
X99201547Y-65043052D03*
X98701547Y-65043052D03*
X98201547Y-65043052D03*
X97701547Y-65043052D03*
X97201547Y-65043052D03*
X96701547Y-65043052D03*
X96201547Y-65043052D03*
X95701547Y-65043052D03*
X95201547Y-65043052D03*
X94701547Y-65043052D03*
X94201547Y-65043052D03*
X93701547Y-65043052D03*
X93201547Y-65043052D03*
%TD*%
D13*
%TO.C,J1*%
X80286547Y-62233052D03*
X71516547Y-62233052D03*
D14*
X79651547Y-65043052D03*
X79151547Y-65043052D03*
X78651547Y-65043052D03*
X78151547Y-65043052D03*
X77651547Y-65043052D03*
X77151547Y-65043052D03*
X76651547Y-65043052D03*
X76151547Y-65043052D03*
X75651547Y-65043052D03*
X75151547Y-65043052D03*
X74651547Y-65043052D03*
X74151547Y-65043052D03*
X73651547Y-65043052D03*
X73151547Y-65043052D03*
X72651547Y-65043052D03*
X72151547Y-65043052D03*
%TD*%
D13*
%TO.C,J1*%
X59236547Y-62233052D03*
X50466547Y-62233052D03*
D14*
X58601547Y-65043052D03*
X58101547Y-65043052D03*
X57601547Y-65043052D03*
X57101547Y-65043052D03*
X56601547Y-65043052D03*
X56101547Y-65043052D03*
X55601547Y-65043052D03*
X55101547Y-65043052D03*
X54601547Y-65043052D03*
X54101547Y-65043052D03*
X53601547Y-65043052D03*
X53101547Y-65043052D03*
X52601547Y-65043052D03*
X52101547Y-65043052D03*
X51601547Y-65043052D03*
X51101547Y-65043052D03*
%TD*%
D13*
%TO.C,J1*%
X143436547Y-41183052D03*
X134666547Y-41183052D03*
D14*
X142801547Y-43993052D03*
X142301547Y-43993052D03*
X141801547Y-43993052D03*
X141301547Y-43993052D03*
X140801547Y-43993052D03*
X140301547Y-43993052D03*
X139801547Y-43993052D03*
X139301547Y-43993052D03*
X138801547Y-43993052D03*
X138301547Y-43993052D03*
X137801547Y-43993052D03*
X137301547Y-43993052D03*
X136801547Y-43993052D03*
X136301547Y-43993052D03*
X135801547Y-43993052D03*
X135301547Y-43993052D03*
%TD*%
D13*
%TO.C,J1*%
X122386547Y-41183052D03*
X113616547Y-41183052D03*
D14*
X121751547Y-43993052D03*
X121251547Y-43993052D03*
X120751547Y-43993052D03*
X120251547Y-43993052D03*
X119751547Y-43993052D03*
X119251547Y-43993052D03*
X118751547Y-43993052D03*
X118251547Y-43993052D03*
X117751547Y-43993052D03*
X117251547Y-43993052D03*
X116751547Y-43993052D03*
X116251547Y-43993052D03*
X115751547Y-43993052D03*
X115251547Y-43993052D03*
X114751547Y-43993052D03*
X114251547Y-43993052D03*
%TD*%
D13*
%TO.C,J1*%
X101336547Y-41183052D03*
X92566547Y-41183052D03*
D14*
X100701547Y-43993052D03*
X100201547Y-43993052D03*
X99701547Y-43993052D03*
X99201547Y-43993052D03*
X98701547Y-43993052D03*
X98201547Y-43993052D03*
X97701547Y-43993052D03*
X97201547Y-43993052D03*
X96701547Y-43993052D03*
X96201547Y-43993052D03*
X95701547Y-43993052D03*
X95201547Y-43993052D03*
X94701547Y-43993052D03*
X94201547Y-43993052D03*
X93701547Y-43993052D03*
X93201547Y-43993052D03*
%TD*%
D13*
%TO.C,J1*%
X80286547Y-41183052D03*
X71516547Y-41183052D03*
D14*
X79651547Y-43993052D03*
X79151547Y-43993052D03*
X78651547Y-43993052D03*
X78151547Y-43993052D03*
X77651547Y-43993052D03*
X77151547Y-43993052D03*
X76651547Y-43993052D03*
X76151547Y-43993052D03*
X75651547Y-43993052D03*
X75151547Y-43993052D03*
X74651547Y-43993052D03*
X74151547Y-43993052D03*
X73651547Y-43993052D03*
X73151547Y-43993052D03*
X72651547Y-43993052D03*
X72151547Y-43993052D03*
%TD*%
%TO.C,C1*%
G36*
G01*
X59124547Y-48950052D02*
X59124547Y-49450052D01*
G75*
G02*
X58899547Y-49675052I-225000J0D01*
G01*
X58449547Y-49675052D01*
G75*
G02*
X58224547Y-49450052I0J225000D01*
G01*
X58224547Y-48950052D01*
G75*
G02*
X58449547Y-48725052I225000J0D01*
G01*
X58899547Y-48725052D01*
G75*
G02*
X59124547Y-48950052I0J-225000D01*
G01*
G37*
G36*
G01*
X57574547Y-48950052D02*
X57574547Y-49450052D01*
G75*
G02*
X57349547Y-49675052I-225000J0D01*
G01*
X56899547Y-49675052D01*
G75*
G02*
X56674547Y-49450052I0J225000D01*
G01*
X56674547Y-48950052D01*
G75*
G02*
X56899547Y-48725052I225000J0D01*
G01*
X57349547Y-48725052D01*
G75*
G02*
X57574547Y-48950052I0J-225000D01*
G01*
G37*
%TD*%
D12*
%TO.C,J5*%
X46342547Y-41708052D03*
D11*
G36*
X47342547Y-42958052D02*
G01*
X47342547Y-43258052D01*
X46142547Y-44458052D01*
X45342547Y-44458052D01*
X45342547Y-42958052D01*
X47342547Y-42958052D01*
G37*
G36*
X46142547Y-44958052D02*
G01*
X47342547Y-46158052D01*
X47342547Y-46458052D01*
X45342547Y-46458052D01*
X45342547Y-44958052D01*
X46142547Y-44958052D01*
G37*
G36*
X47342547Y-46958052D02*
G01*
X47342547Y-47258052D01*
X46142547Y-48458052D01*
X45342547Y-48458052D01*
X45342547Y-46958052D01*
X47342547Y-46958052D01*
G37*
G36*
X46142547Y-48958052D02*
G01*
X47342547Y-50158052D01*
X47342547Y-50458052D01*
X45342547Y-50458052D01*
X45342547Y-48958052D01*
X46142547Y-48958052D01*
G37*
G36*
X47342547Y-50958052D02*
G01*
X47342547Y-51258052D01*
X46142547Y-52458052D01*
X45342547Y-52458052D01*
X45342547Y-50958052D01*
X47342547Y-50958052D01*
G37*
G36*
X46142547Y-52958052D02*
G01*
X47342547Y-54158052D01*
X47342547Y-54458052D01*
X45342547Y-54458052D01*
X45342547Y-52958052D01*
X46142547Y-52958052D01*
G37*
G36*
X47342547Y-54958052D02*
G01*
X47342547Y-55258052D01*
X46142547Y-56458052D01*
X45342547Y-56458052D01*
X45342547Y-54958052D01*
X47342547Y-54958052D01*
G37*
G36*
X46142547Y-56958052D02*
G01*
X47342547Y-58158052D01*
X47342547Y-58458052D01*
X45342547Y-58458052D01*
X45342547Y-56958052D01*
X46142547Y-56958052D01*
G37*
G36*
X46442547Y-44958052D02*
G01*
X46442547Y-44458052D01*
X47342547Y-43558052D01*
X47342547Y-45858052D01*
X46442547Y-44958052D01*
G37*
G36*
X46442547Y-48958052D02*
G01*
X46442547Y-48458052D01*
X47342547Y-47558052D01*
X47342547Y-49858052D01*
X46442547Y-48958052D01*
G37*
G36*
X46442547Y-52958052D02*
G01*
X46442547Y-52458052D01*
X47342547Y-51558052D01*
X47342547Y-53858052D01*
X46442547Y-52958052D01*
G37*
G36*
X46442547Y-56958052D02*
G01*
X46442547Y-56458052D01*
X47342547Y-55558052D01*
X47342547Y-57858052D01*
X46442547Y-56958052D01*
G37*
%TD*%
D10*
%TO.C,D1*%
X52599547Y-53010052D03*
X50499547Y-53010052D03*
%TD*%
%TO.C,C2*%
G36*
G01*
X50783547Y-46869052D02*
X50283547Y-46869052D01*
G75*
G02*
X50058547Y-46644052I0J225000D01*
G01*
X50058547Y-46194052D01*
G75*
G02*
X50283547Y-45969052I225000J0D01*
G01*
X50783547Y-45969052D01*
G75*
G02*
X51008547Y-46194052I0J-225000D01*
G01*
X51008547Y-46644052D01*
G75*
G02*
X50783547Y-46869052I-225000J0D01*
G01*
G37*
G36*
G01*
X50783547Y-45319052D02*
X50283547Y-45319052D01*
G75*
G02*
X50058547Y-45094052I0J225000D01*
G01*
X50058547Y-44644052D01*
G75*
G02*
X50283547Y-44419052I225000J0D01*
G01*
X50783547Y-44419052D01*
G75*
G02*
X51008547Y-44644052I0J-225000D01*
G01*
X51008547Y-45094052D01*
G75*
G02*
X50783547Y-45319052I-225000J0D01*
G01*
G37*
%TD*%
%TO.C,C3*%
G36*
G01*
X48417547Y-43737052D02*
X48077547Y-43737052D01*
G75*
G02*
X47937547Y-43597052I0J140000D01*
G01*
X47937547Y-43317052D01*
G75*
G02*
X48077547Y-43177052I140000J0D01*
G01*
X48417547Y-43177052D01*
G75*
G02*
X48557547Y-43317052I0J-140000D01*
G01*
X48557547Y-43597052D01*
G75*
G02*
X48417547Y-43737052I-140000J0D01*
G01*
G37*
G36*
G01*
X48417547Y-42777052D02*
X48077547Y-42777052D01*
G75*
G02*
X47937547Y-42637052I0J140000D01*
G01*
X47937547Y-42357052D01*
G75*
G02*
X48077547Y-42217052I140000J0D01*
G01*
X48417547Y-42217052D01*
G75*
G02*
X48557547Y-42357052I0J-140000D01*
G01*
X48557547Y-42637052D01*
G75*
G02*
X48417547Y-42777052I-140000J0D01*
G01*
G37*
%TD*%
%TO.C,C6*%
G36*
G01*
X52821547Y-47592052D02*
X52821547Y-47252052D01*
G75*
G02*
X52961547Y-47112052I140000J0D01*
G01*
X53241547Y-47112052D01*
G75*
G02*
X53381547Y-47252052I0J-140000D01*
G01*
X53381547Y-47592052D01*
G75*
G02*
X53241547Y-47732052I-140000J0D01*
G01*
X52961547Y-47732052D01*
G75*
G02*
X52821547Y-47592052I0J140000D01*
G01*
G37*
G36*
G01*
X53781547Y-47592052D02*
X53781547Y-47252052D01*
G75*
G02*
X53921547Y-47112052I140000J0D01*
G01*
X54201547Y-47112052D01*
G75*
G02*
X54341547Y-47252052I0J-140000D01*
G01*
X54341547Y-47592052D01*
G75*
G02*
X54201547Y-47732052I-140000J0D01*
G01*
X53921547Y-47732052D01*
G75*
G02*
X53781547Y-47592052I0J140000D01*
G01*
G37*
%TD*%
%TO.C,C4*%
G36*
G01*
X58870547Y-47426052D02*
X58870547Y-47926052D01*
G75*
G02*
X58645547Y-48151052I-225000J0D01*
G01*
X58195547Y-48151052D01*
G75*
G02*
X57970547Y-47926052I0J225000D01*
G01*
X57970547Y-47426052D01*
G75*
G02*
X58195547Y-47201052I225000J0D01*
G01*
X58645547Y-47201052D01*
G75*
G02*
X58870547Y-47426052I0J-225000D01*
G01*
G37*
G36*
G01*
X57320547Y-47426052D02*
X57320547Y-47926052D01*
G75*
G02*
X57095547Y-48151052I-225000J0D01*
G01*
X56645547Y-48151052D01*
G75*
G02*
X56420547Y-47926052I0J225000D01*
G01*
X56420547Y-47426052D01*
G75*
G02*
X56645547Y-47201052I225000J0D01*
G01*
X57095547Y-47201052D01*
G75*
G02*
X57320547Y-47426052I0J-225000D01*
G01*
G37*
%TD*%
%TO.C,C5*%
G36*
G01*
X51452547Y-46449052D02*
X51452547Y-46109052D01*
G75*
G02*
X51592547Y-45969052I140000J0D01*
G01*
X51872547Y-45969052D01*
G75*
G02*
X52012547Y-46109052I0J-140000D01*
G01*
X52012547Y-46449052D01*
G75*
G02*
X51872547Y-46589052I-140000J0D01*
G01*
X51592547Y-46589052D01*
G75*
G02*
X51452547Y-46449052I0J140000D01*
G01*
G37*
G36*
G01*
X52412547Y-46449052D02*
X52412547Y-46109052D01*
G75*
G02*
X52552547Y-45969052I140000J0D01*
G01*
X52832547Y-45969052D01*
G75*
G02*
X52972547Y-46109052I0J-140000D01*
G01*
X52972547Y-46449052D01*
G75*
G02*
X52832547Y-46589052I-140000J0D01*
G01*
X52552547Y-46589052D01*
G75*
G02*
X52412547Y-46449052I0J140000D01*
G01*
G37*
%TD*%
D12*
%TO.C,J6*%
X63360547Y-49708052D03*
X63360547Y-47708052D03*
X63360547Y-45708052D03*
X63360547Y-43708052D03*
X63360547Y-51708052D03*
X63360547Y-41708052D03*
X63360547Y-53708052D03*
X63360547Y-55708052D03*
X63360547Y-57708052D03*
%TD*%
D14*
%TO.C,J1*%
X51101547Y-43993052D03*
X51601547Y-43993052D03*
X52101547Y-43993052D03*
X52601547Y-43993052D03*
X53101547Y-43993052D03*
X53601547Y-43993052D03*
X54101547Y-43993052D03*
X54601547Y-43993052D03*
X55101547Y-43993052D03*
X55601547Y-43993052D03*
X56101547Y-43993052D03*
X56601547Y-43993052D03*
X57101547Y-43993052D03*
X57601547Y-43993052D03*
X58101547Y-43993052D03*
X58601547Y-43993052D03*
D13*
X50466547Y-41183052D03*
X59236547Y-41183052D03*
%TD*%
M02*
