%FSLAX45Y45*%
G04 Gerber Fmt 4.5, Leading zero omitted, Abs format (unit mm)*
G04 Created by KiCad (PCBNEW (5.1.9)-1) date 2021-09-16 12:17:50*
%MOMM*%
%LPD*%
G01*
G04 APERTURE LIST*
%TA.AperFunction,Profile*%
%ADD10C,0.050000*%
%TD*%
%ADD11C,0.200000*%
%ADD12C,0.300000*%
G04 APERTURE END LIST*
D10*
X14324255Y-14114705D02*
X13486055Y-14114705D01*
X12219255Y-14114705D02*
X11381055Y-14114705D01*
X10114255Y-14114705D02*
X9276055Y-14114705D01*
X8009255Y-14114705D02*
X7171055Y-14114705D01*
X5904255Y-14114705D02*
X5066055Y-14114705D01*
X14324255Y-12009705D02*
X13486055Y-12009705D01*
X12219255Y-12009705D02*
X11381055Y-12009705D01*
X10114255Y-12009705D02*
X9276055Y-12009705D01*
X8009255Y-12009705D02*
X7171055Y-12009705D01*
X5904255Y-12009705D02*
X5066055Y-12009705D01*
X14324255Y-9904705D02*
X13486055Y-9904705D01*
X12219255Y-9904705D02*
X11381055Y-9904705D01*
X10114255Y-9904705D02*
X9276055Y-9904705D01*
X8009255Y-9904705D02*
X7171055Y-9904705D01*
X5904255Y-9904705D02*
X5066055Y-9904705D01*
X14324255Y-7799705D02*
X13486055Y-7799705D01*
X12219255Y-7799705D02*
X11381055Y-7799705D01*
X10114255Y-7799705D02*
X9276055Y-7799705D01*
X8009255Y-7799705D02*
X7171055Y-7799705D01*
X5904255Y-7799705D02*
X5066055Y-7799705D01*
X14324255Y-5694705D02*
X13486055Y-5694705D01*
X12219255Y-5694705D02*
X11381055Y-5694705D01*
X10114255Y-5694705D02*
X9276055Y-5694705D01*
X8009255Y-5694705D02*
X7171055Y-5694705D01*
X14324255Y-13936905D02*
G75*
G02*
X14324255Y-14114705I0J-88900D01*
G01*
X12219255Y-13936905D02*
G75*
G02*
X12219255Y-14114705I0J-88900D01*
G01*
X10114255Y-13936905D02*
G75*
G02*
X10114255Y-14114705I0J-88900D01*
G01*
X8009255Y-13936905D02*
G75*
G02*
X8009255Y-14114705I0J-88900D01*
G01*
X5904255Y-13936905D02*
G75*
G02*
X5904255Y-14114705I0J-88900D01*
G01*
X14324255Y-11831905D02*
G75*
G02*
X14324255Y-12009705I0J-88900D01*
G01*
X12219255Y-11831905D02*
G75*
G02*
X12219255Y-12009705I0J-88900D01*
G01*
X10114255Y-11831905D02*
G75*
G02*
X10114255Y-12009705I0J-88900D01*
G01*
X8009255Y-11831905D02*
G75*
G02*
X8009255Y-12009705I0J-88900D01*
G01*
X5904255Y-11831905D02*
G75*
G02*
X5904255Y-12009705I0J-88900D01*
G01*
X14324255Y-9726905D02*
G75*
G02*
X14324255Y-9904705I0J-88900D01*
G01*
X12219255Y-9726905D02*
G75*
G02*
X12219255Y-9904705I0J-88900D01*
G01*
X10114255Y-9726905D02*
G75*
G02*
X10114255Y-9904705I0J-88900D01*
G01*
X8009255Y-9726905D02*
G75*
G02*
X8009255Y-9904705I0J-88900D01*
G01*
X5904255Y-9726905D02*
G75*
G02*
X5904255Y-9904705I0J-88900D01*
G01*
X14324255Y-7621905D02*
G75*
G02*
X14324255Y-7799705I0J-88900D01*
G01*
X12219255Y-7621905D02*
G75*
G02*
X12219255Y-7799705I0J-88900D01*
G01*
X10114255Y-7621905D02*
G75*
G02*
X10114255Y-7799705I0J-88900D01*
G01*
X8009255Y-7621905D02*
G75*
G02*
X8009255Y-7799705I0J-88900D01*
G01*
X5904255Y-7621905D02*
G75*
G02*
X5904255Y-7799705I0J-88900D01*
G01*
X14324255Y-5516905D02*
G75*
G02*
X14324255Y-5694705I0J-88900D01*
G01*
X12219255Y-5516905D02*
G75*
G02*
X12219255Y-5694705I0J-88900D01*
G01*
X10114255Y-5516905D02*
G75*
G02*
X10114255Y-5694705I0J-88900D01*
G01*
X8009255Y-5516905D02*
G75*
G02*
X8009255Y-5694705I0J-88900D01*
G01*
X13486055Y-14114705D02*
G75*
G02*
X13486055Y-13936905I0J88900D01*
G01*
X11381055Y-14114705D02*
G75*
G02*
X11381055Y-13936905I0J88900D01*
G01*
X9276055Y-14114705D02*
G75*
G02*
X9276055Y-13936905I0J88900D01*
G01*
X7171055Y-14114705D02*
G75*
G02*
X7171055Y-13936905I0J88900D01*
G01*
X5066055Y-14114705D02*
G75*
G02*
X5066055Y-13936905I0J88900D01*
G01*
X13486055Y-12009705D02*
G75*
G02*
X13486055Y-11831905I0J88900D01*
G01*
X11381055Y-12009705D02*
G75*
G02*
X11381055Y-11831905I0J88900D01*
G01*
X9276055Y-12009705D02*
G75*
G02*
X9276055Y-11831905I0J88900D01*
G01*
X7171055Y-12009705D02*
G75*
G02*
X7171055Y-11831905I0J88900D01*
G01*
X5066055Y-12009705D02*
G75*
G02*
X5066055Y-11831905I0J88900D01*
G01*
X13486055Y-9904705D02*
G75*
G02*
X13486055Y-9726905I0J88900D01*
G01*
X11381055Y-9904705D02*
G75*
G02*
X11381055Y-9726905I0J88900D01*
G01*
X9276055Y-9904705D02*
G75*
G02*
X9276055Y-9726905I0J88900D01*
G01*
X7171055Y-9904705D02*
G75*
G02*
X7171055Y-9726905I0J88900D01*
G01*
X5066055Y-9904705D02*
G75*
G02*
X5066055Y-9726905I0J88900D01*
G01*
X13486055Y-7799705D02*
G75*
G02*
X13486055Y-7621905I0J88900D01*
G01*
X11381055Y-7799705D02*
G75*
G02*
X11381055Y-7621905I0J88900D01*
G01*
X9276055Y-7799705D02*
G75*
G02*
X9276055Y-7621905I0J88900D01*
G01*
X7171055Y-7799705D02*
G75*
G02*
X7171055Y-7621905I0J88900D01*
G01*
X5066055Y-7799705D02*
G75*
G02*
X5066055Y-7621905I0J88900D01*
G01*
X13486055Y-5694705D02*
G75*
G02*
X13486055Y-5516905I0J88900D01*
G01*
X11381055Y-5694705D02*
G75*
G02*
X11381055Y-5516905I0J88900D01*
G01*
X9276055Y-5694705D02*
G75*
G02*
X9276055Y-5516905I0J88900D01*
G01*
X7171055Y-5694705D02*
G75*
G02*
X7171055Y-5516905I0J88900D01*
G01*
X14324255Y-13936905D02*
X13486055Y-13936905D01*
X12219255Y-13936905D02*
X11381055Y-13936905D01*
X10114255Y-13936905D02*
X9276055Y-13936905D01*
X8009255Y-13936905D02*
X7171055Y-13936905D01*
X5904255Y-13936905D02*
X5066055Y-13936905D01*
X14324255Y-11831905D02*
X13486055Y-11831905D01*
X12219255Y-11831905D02*
X11381055Y-11831905D01*
X10114255Y-11831905D02*
X9276055Y-11831905D01*
X8009255Y-11831905D02*
X7171055Y-11831905D01*
X5904255Y-11831905D02*
X5066055Y-11831905D01*
X14324255Y-9726905D02*
X13486055Y-9726905D01*
X12219255Y-9726905D02*
X11381055Y-9726905D01*
X10114255Y-9726905D02*
X9276055Y-9726905D01*
X8009255Y-9726905D02*
X7171055Y-9726905D01*
X5904255Y-9726905D02*
X5066055Y-9726905D01*
X14324255Y-7621905D02*
X13486055Y-7621905D01*
X12219255Y-7621905D02*
X11381055Y-7621905D01*
X10114255Y-7621905D02*
X9276055Y-7621905D01*
X8009255Y-7621905D02*
X7171055Y-7621905D01*
X5904255Y-7621905D02*
X5066055Y-7621905D01*
X14324255Y-5516905D02*
X13486055Y-5516905D01*
X12219255Y-5516905D02*
X11381055Y-5516905D01*
X10114255Y-5516905D02*
X9276055Y-5516905D01*
X8009255Y-5516905D02*
X7171055Y-5516905D01*
X5904255Y-5694705D02*
X5066055Y-5694705D01*
X5066055Y-5694705D02*
G75*
G02*
X5066055Y-5516905I0J88900D01*
G01*
X5904255Y-5516905D02*
G75*
G02*
X5904255Y-5694705I0J-88900D01*
G01*
X5904255Y-5516905D02*
X5066055Y-5516905D01*
X4535150Y-14843300D02*
X14860150Y-14843300D01*
X4535150Y-14543300D02*
X5180150Y-14543300D01*
X5792650Y-14543300D02*
X7285150Y-14543300D01*
X7897650Y-14543300D02*
X9390150Y-14543300D01*
X4535150Y-14543300D02*
X4535150Y-14843300D01*
X4860150Y-14693300D02*
G75*
G03*
X4860150Y-14693300I-100000J0D01*
G01*
X12107650Y-14543300D02*
X12755150Y-14543300D01*
X14212650Y-14543300D02*
X14860150Y-14543300D01*
X12955150Y-14543300D02*
X12755150Y-14543300D01*
X10002650Y-14543300D02*
X11495150Y-14543300D01*
X12955150Y-14543300D02*
X13600150Y-14543300D01*
X14860150Y-14543300D02*
X14860150Y-14843300D01*
X14735150Y-14693300D02*
G75*
G03*
X14735150Y-14693300I-100000J0D01*
G01*
X13600150Y-3818300D02*
X12107650Y-3818300D01*
X11495150Y-3818300D02*
X10002650Y-3818300D01*
X14857650Y-3818300D02*
X14857650Y-3518300D01*
X14857650Y-3518300D02*
X4532650Y-3518300D01*
X14857650Y-3818300D02*
X14212650Y-3818300D01*
X14732650Y-3668300D02*
G75*
G03*
X14732650Y-3668300I-100000J0D01*
G01*
X14857650Y-4018300D02*
X14857650Y-5923300D01*
X12952650Y-5923300D02*
X12952650Y-4018300D01*
X14857650Y-14343300D02*
X14212650Y-14343300D01*
X14857650Y-12438300D02*
X14212650Y-12438300D01*
X13600150Y-12438300D02*
X12952650Y-12438300D01*
X12952650Y-14343300D02*
X12952650Y-12438300D01*
X13600150Y-14343300D02*
X12952650Y-14343300D01*
X13600150Y-12238300D02*
G75*
G02*
X13600150Y-12438300I0J-100000D01*
G01*
X14212650Y-12438300D02*
G75*
G02*
X14212650Y-12238300I0J100000D01*
G01*
X14857650Y-12438300D02*
X14857650Y-14343300D01*
X14857650Y-6123300D02*
X14212650Y-6123300D01*
X14857650Y-8028300D02*
X14212650Y-8028300D01*
X14212650Y-6123300D02*
G75*
G02*
X14212650Y-5923300I0J100000D01*
G01*
X13600150Y-6123300D02*
X12952650Y-6123300D01*
X13600150Y-5923300D02*
G75*
G02*
X13600150Y-6123300I0J-100000D01*
G01*
X13600150Y-5923300D02*
X12952650Y-5923300D01*
X14857650Y-5923300D02*
X14212650Y-5923300D01*
X14212650Y-4018300D02*
G75*
G02*
X14212650Y-3818300I0J100000D01*
G01*
X13600150Y-4018300D02*
X12952650Y-4018300D01*
X13600150Y-14343300D02*
G75*
G02*
X13600150Y-14543300I0J-100000D01*
G01*
X14212650Y-14543300D02*
G75*
G02*
X14212650Y-14343300I0J100000D01*
G01*
X13600150Y-3818300D02*
G75*
G02*
X13600150Y-4018300I0J-100000D01*
G01*
X14857650Y-4018300D02*
X14212650Y-4018300D01*
X14857650Y-6123300D02*
X14857650Y-8028300D01*
X12952650Y-8028300D02*
X12952650Y-6123300D01*
X13600150Y-8028300D02*
X12952650Y-8028300D01*
X14857650Y-8228300D02*
X14857650Y-10133300D01*
X13600150Y-10333300D02*
X12952650Y-10333300D01*
X14857650Y-10333300D02*
X14857650Y-12238300D01*
X13600150Y-12238300D02*
X12952650Y-12238300D01*
X14212650Y-10333300D02*
G75*
G02*
X14212650Y-10133300I0J100000D01*
G01*
X13600150Y-10133300D02*
G75*
G02*
X13600150Y-10333300I0J-100000D01*
G01*
X14857650Y-12238300D02*
X14212650Y-12238300D01*
X14857650Y-10333300D02*
X14212650Y-10333300D01*
X12952650Y-10133300D02*
X12952650Y-8228300D01*
X12952650Y-12238300D02*
X12952650Y-10333300D01*
X14212650Y-8228300D02*
G75*
G02*
X14212650Y-8028300I0J100000D01*
G01*
X14857650Y-8228300D02*
X14212650Y-8228300D01*
X14857650Y-10133300D02*
X14212650Y-10133300D01*
X13600150Y-8028300D02*
G75*
G02*
X13600150Y-8228300I0J-100000D01*
G01*
X13600150Y-10133300D02*
X12952650Y-10133300D01*
X13600150Y-8228300D02*
X12952650Y-8228300D01*
X12752650Y-4018300D02*
X12752650Y-5923300D01*
X10847650Y-5923300D02*
X10847650Y-4018300D01*
X12752650Y-14343300D02*
X12107650Y-14343300D01*
X12752650Y-12438300D02*
X12107650Y-12438300D01*
X11495150Y-12438300D02*
X10847650Y-12438300D01*
X10847650Y-14343300D02*
X10847650Y-12438300D01*
X11495150Y-14343300D02*
X10847650Y-14343300D01*
X11495150Y-12238300D02*
G75*
G02*
X11495150Y-12438300I0J-100000D01*
G01*
X12107650Y-12438300D02*
G75*
G02*
X12107650Y-12238300I0J100000D01*
G01*
X12752650Y-12438300D02*
X12752650Y-14343300D01*
X12752650Y-6123300D02*
X12107650Y-6123300D01*
X12752650Y-8028300D02*
X12107650Y-8028300D01*
X12107650Y-6123300D02*
G75*
G02*
X12107650Y-5923300I0J100000D01*
G01*
X11495150Y-6123300D02*
X10847650Y-6123300D01*
X11495150Y-5923300D02*
G75*
G02*
X11495150Y-6123300I0J-100000D01*
G01*
X11495150Y-5923300D02*
X10847650Y-5923300D01*
X12752650Y-5923300D02*
X12107650Y-5923300D01*
X12107650Y-4018300D02*
G75*
G02*
X12107650Y-3818300I0J100000D01*
G01*
X11495150Y-4018300D02*
X10847650Y-4018300D01*
X11495150Y-14343300D02*
G75*
G02*
X11495150Y-14543300I0J-100000D01*
G01*
X12107650Y-14543300D02*
G75*
G02*
X12107650Y-14343300I0J100000D01*
G01*
X11495150Y-3818300D02*
G75*
G02*
X11495150Y-4018300I0J-100000D01*
G01*
X12752650Y-4018300D02*
X12107650Y-4018300D01*
X12752650Y-6123300D02*
X12752650Y-8028300D01*
X10847650Y-8028300D02*
X10847650Y-6123300D01*
X11495150Y-8028300D02*
X10847650Y-8028300D01*
X12752650Y-8228300D02*
X12752650Y-10133300D01*
X11495150Y-10333300D02*
X10847650Y-10333300D01*
X12752650Y-10333300D02*
X12752650Y-12238300D01*
X11495150Y-12238300D02*
X10847650Y-12238300D01*
X12107650Y-10333300D02*
G75*
G02*
X12107650Y-10133300I0J100000D01*
G01*
X11495150Y-10133300D02*
G75*
G02*
X11495150Y-10333300I0J-100000D01*
G01*
X12752650Y-12238300D02*
X12107650Y-12238300D01*
X12752650Y-10333300D02*
X12107650Y-10333300D01*
X10847650Y-10133300D02*
X10847650Y-8228300D01*
X10847650Y-12238300D02*
X10847650Y-10333300D01*
X12107650Y-8228300D02*
G75*
G02*
X12107650Y-8028300I0J100000D01*
G01*
X12752650Y-8228300D02*
X12107650Y-8228300D01*
X12752650Y-10133300D02*
X12107650Y-10133300D01*
X11495150Y-8028300D02*
G75*
G02*
X11495150Y-8228300I0J-100000D01*
G01*
X11495150Y-10133300D02*
X10847650Y-10133300D01*
X11495150Y-8228300D02*
X10847650Y-8228300D01*
X10647650Y-4018300D02*
X10647650Y-5923300D01*
X8742650Y-5923300D02*
X8742650Y-4018300D01*
X10647650Y-14343300D02*
X10002650Y-14343300D01*
X10647650Y-12438300D02*
X10002650Y-12438300D01*
X9390150Y-12438300D02*
X8742650Y-12438300D01*
X8742650Y-14343300D02*
X8742650Y-12438300D01*
X9390150Y-14343300D02*
X8742650Y-14343300D01*
X9390150Y-12238300D02*
G75*
G02*
X9390150Y-12438300I0J-100000D01*
G01*
X10002650Y-12438300D02*
G75*
G02*
X10002650Y-12238300I0J100000D01*
G01*
X10647650Y-12438300D02*
X10647650Y-14343300D01*
X10647650Y-6123300D02*
X10002650Y-6123300D01*
X10647650Y-8028300D02*
X10002650Y-8028300D01*
X10002650Y-6123300D02*
G75*
G02*
X10002650Y-5923300I0J100000D01*
G01*
X9390150Y-6123300D02*
X8742650Y-6123300D01*
X9390150Y-5923300D02*
G75*
G02*
X9390150Y-6123300I0J-100000D01*
G01*
X9390150Y-5923300D02*
X8742650Y-5923300D01*
X10647650Y-5923300D02*
X10002650Y-5923300D01*
X10002650Y-4018300D02*
G75*
G02*
X10002650Y-3818300I0J100000D01*
G01*
X9390150Y-4018300D02*
X8742650Y-4018300D01*
X9390150Y-14343300D02*
G75*
G02*
X9390150Y-14543300I0J-100000D01*
G01*
X10002650Y-14543300D02*
G75*
G02*
X10002650Y-14343300I0J100000D01*
G01*
X9390150Y-3818300D02*
G75*
G02*
X9390150Y-4018300I0J-100000D01*
G01*
X10647650Y-4018300D02*
X10002650Y-4018300D01*
X10647650Y-6123300D02*
X10647650Y-8028300D01*
X8742650Y-8028300D02*
X8742650Y-6123300D01*
X9390150Y-8028300D02*
X8742650Y-8028300D01*
X10647650Y-8228300D02*
X10647650Y-10133300D01*
X9390150Y-10333300D02*
X8742650Y-10333300D01*
X10647650Y-10333300D02*
X10647650Y-12238300D01*
X9390150Y-12238300D02*
X8742650Y-12238300D01*
X10002650Y-10333300D02*
G75*
G02*
X10002650Y-10133300I0J100000D01*
G01*
X9390150Y-10133300D02*
G75*
G02*
X9390150Y-10333300I0J-100000D01*
G01*
X10647650Y-12238300D02*
X10002650Y-12238300D01*
X10647650Y-10333300D02*
X10002650Y-10333300D01*
X8742650Y-10133300D02*
X8742650Y-8228300D01*
X8742650Y-12238300D02*
X8742650Y-10333300D01*
X10002650Y-8228300D02*
G75*
G02*
X10002650Y-8028300I0J100000D01*
G01*
X10647650Y-8228300D02*
X10002650Y-8228300D01*
X10647650Y-10133300D02*
X10002650Y-10133300D01*
X9390150Y-8028300D02*
G75*
G02*
X9390150Y-8228300I0J-100000D01*
G01*
X9390150Y-10133300D02*
X8742650Y-10133300D01*
X9390150Y-8228300D02*
X8742650Y-8228300D01*
X5792650Y-14543300D02*
G75*
G02*
X5792650Y-14343300I0J100000D01*
G01*
X7285150Y-14343300D02*
G75*
G02*
X7285150Y-14543300I0J-100000D01*
G01*
X7897650Y-14543300D02*
G75*
G02*
X7897650Y-14343300I0J100000D01*
G01*
X5180150Y-14343300D02*
G75*
G02*
X5180150Y-14543300I0J-100000D01*
G01*
X6437650Y-12438300D02*
X6437650Y-14343300D01*
X8542650Y-12438300D02*
X8542650Y-14343300D01*
X6637650Y-14343300D02*
X6637650Y-12438300D01*
X4532650Y-14343300D02*
X4532650Y-12438300D01*
X7285150Y-14343300D02*
X6637650Y-14343300D01*
X8542650Y-14343300D02*
X7897650Y-14343300D01*
X7897650Y-12438300D02*
G75*
G02*
X7897650Y-12238300I0J100000D01*
G01*
X7285150Y-12438300D02*
X6637650Y-12438300D01*
X5792650Y-12438300D02*
G75*
G02*
X5792650Y-12238300I0J100000D01*
G01*
X6437650Y-12438300D02*
X5792650Y-12438300D01*
X6437650Y-14343300D02*
X5792650Y-14343300D01*
X7285150Y-12238300D02*
G75*
G02*
X7285150Y-12438300I0J-100000D01*
G01*
X8542650Y-12438300D02*
X7897650Y-12438300D01*
X5180150Y-14343300D02*
X4532650Y-14343300D01*
X5180150Y-12438300D02*
X4532650Y-12438300D01*
X5180150Y-12238300D02*
G75*
G02*
X5180150Y-12438300I0J-100000D01*
G01*
X6437650Y-10333300D02*
X6437650Y-12238300D01*
X8542650Y-10333300D02*
X8542650Y-12238300D01*
X6637650Y-12238300D02*
X6637650Y-10333300D01*
X4532650Y-12238300D02*
X4532650Y-10333300D01*
X7285150Y-12238300D02*
X6637650Y-12238300D01*
X8542650Y-12238300D02*
X7897650Y-12238300D01*
X7897650Y-10333300D02*
G75*
G02*
X7897650Y-10133300I0J100000D01*
G01*
X7285150Y-10333300D02*
X6637650Y-10333300D01*
X5792650Y-10333300D02*
G75*
G02*
X5792650Y-10133300I0J100000D01*
G01*
X6437650Y-10333300D02*
X5792650Y-10333300D01*
X6437650Y-12238300D02*
X5792650Y-12238300D01*
X7285150Y-10133300D02*
G75*
G02*
X7285150Y-10333300I0J-100000D01*
G01*
X8542650Y-10333300D02*
X7897650Y-10333300D01*
X5180150Y-12238300D02*
X4532650Y-12238300D01*
X5180150Y-10333300D02*
X4532650Y-10333300D01*
X5180150Y-10133300D02*
G75*
G02*
X5180150Y-10333300I0J-100000D01*
G01*
X6437650Y-8228300D02*
X6437650Y-10133300D01*
X8542650Y-8228300D02*
X8542650Y-10133300D01*
X6637650Y-10133300D02*
X6637650Y-8228300D01*
X4532650Y-10133300D02*
X4532650Y-8228300D01*
X7285150Y-10133300D02*
X6637650Y-10133300D01*
X8542650Y-10133300D02*
X7897650Y-10133300D01*
X7897650Y-8228300D02*
G75*
G02*
X7897650Y-8028300I0J100000D01*
G01*
X7285150Y-8228300D02*
X6637650Y-8228300D01*
X5792650Y-8228300D02*
G75*
G02*
X5792650Y-8028300I0J100000D01*
G01*
X6437650Y-8228300D02*
X5792650Y-8228300D01*
X6437650Y-10133300D02*
X5792650Y-10133300D01*
X7285150Y-8028300D02*
G75*
G02*
X7285150Y-8228300I0J-100000D01*
G01*
X8542650Y-8228300D02*
X7897650Y-8228300D01*
X5180150Y-10133300D02*
X4532650Y-10133300D01*
X5180150Y-8228300D02*
X4532650Y-8228300D01*
X5180150Y-8028300D02*
G75*
G02*
X5180150Y-8228300I0J-100000D01*
G01*
X6437650Y-6123300D02*
X6437650Y-8028300D01*
X8542650Y-6123300D02*
X8542650Y-8028300D01*
X6637650Y-8028300D02*
X6637650Y-6123300D01*
X4532650Y-8028300D02*
X4532650Y-6123300D01*
X7285150Y-8028300D02*
X6637650Y-8028300D01*
X8542650Y-8028300D02*
X7897650Y-8028300D01*
X7897650Y-6123300D02*
G75*
G02*
X7897650Y-5923300I0J100000D01*
G01*
X7285150Y-6123300D02*
X6637650Y-6123300D01*
X5792650Y-6123300D02*
G75*
G02*
X5792650Y-5923300I0J100000D01*
G01*
X6437650Y-6123300D02*
X5792650Y-6123300D01*
X6437650Y-8028300D02*
X5792650Y-8028300D01*
X7285150Y-5923300D02*
G75*
G02*
X7285150Y-6123300I0J-100000D01*
G01*
X8542650Y-6123300D02*
X7897650Y-6123300D01*
X5180150Y-8028300D02*
X4532650Y-8028300D01*
X5180150Y-6123300D02*
X4532650Y-6123300D01*
X5180150Y-5923300D02*
G75*
G02*
X5180150Y-6123300I0J-100000D01*
G01*
X4857650Y-3668300D02*
G75*
G03*
X4857650Y-3668300I-100000J0D01*
G01*
X4532650Y-3818300D02*
X4532650Y-3518300D01*
X6437650Y-3818300D02*
X6637650Y-3818300D01*
X5180150Y-3818300D02*
X4532650Y-3818300D01*
X6437650Y-3818300D02*
X5792650Y-3818300D01*
X7285150Y-3818300D02*
X6637650Y-3818300D01*
X9390150Y-3818300D02*
X7897650Y-3818300D01*
X5180150Y-5923300D02*
X4532650Y-5923300D01*
X6437650Y-5923300D02*
X5792650Y-5923300D01*
X6437650Y-4018300D02*
X5792650Y-4018300D01*
X5180150Y-3818300D02*
G75*
G02*
X5180150Y-4018300I0J-100000D01*
G01*
X5792650Y-4018300D02*
G75*
G02*
X5792650Y-3818300I0J100000D01*
G01*
X5180150Y-4018300D02*
X4532650Y-4018300D01*
X8542650Y-4018300D02*
X7897650Y-4018300D01*
X7285150Y-3818300D02*
G75*
G02*
X7285150Y-4018300I0J-100000D01*
G01*
X7897650Y-4018300D02*
G75*
G02*
X7897650Y-3818300I0J100000D01*
G01*
X7285150Y-4018300D02*
X6637650Y-4018300D01*
X8542650Y-5923300D02*
X7897650Y-5923300D01*
X7285150Y-5923300D02*
X6637650Y-5923300D01*
X8542650Y-4018300D02*
X8542650Y-5923300D01*
X6637650Y-5923300D02*
X6637650Y-4018300D01*
X6437650Y-4018300D02*
X6437650Y-5923300D01*
X4532650Y-5923300D02*
X4532650Y-4018300D01*
D11*
X4758826Y-5437873D02*
X4794386Y-5473433D01*
X4794386Y-5437873D02*
X4758826Y-5473433D01*
X4758826Y-7542873D02*
X4794386Y-7578433D01*
X4794386Y-7542873D02*
X4758826Y-7578433D01*
X4758826Y-9647873D02*
X4794386Y-9683433D01*
X4794386Y-9647873D02*
X4758826Y-9683433D01*
X4758826Y-11752873D02*
X4794386Y-11788433D01*
X4794386Y-11752873D02*
X4758826Y-11788433D01*
X4758826Y-13857873D02*
X4794386Y-13893433D01*
X4794386Y-13857873D02*
X4758826Y-13893433D01*
X4759200Y-4636097D02*
X4794760Y-4671657D01*
X4794760Y-4636097D02*
X4759200Y-4671657D01*
X4759200Y-6741097D02*
X4794760Y-6776657D01*
X4794760Y-6741097D02*
X4759200Y-6776657D01*
X4759200Y-8846097D02*
X4794760Y-8881657D01*
X4794760Y-8846097D02*
X4759200Y-8881657D01*
X4759200Y-10951097D02*
X4794760Y-10986657D01*
X4794760Y-10951097D02*
X4759200Y-10986657D01*
X4759200Y-13056097D02*
X4794760Y-13091657D01*
X4794760Y-13056097D02*
X4759200Y-13091657D01*
X4759955Y-4902225D02*
X4795515Y-4937785D01*
X4795515Y-4902225D02*
X4759955Y-4937785D01*
X4759955Y-7007225D02*
X4795515Y-7042785D01*
X4795515Y-7007225D02*
X4759955Y-7042785D01*
X4759955Y-9112225D02*
X4795515Y-9147785D01*
X4795515Y-9112225D02*
X4759955Y-9147785D01*
X4759955Y-11217225D02*
X4795515Y-11252785D01*
X4795515Y-11217225D02*
X4759955Y-11252785D01*
X4759955Y-13322225D02*
X4795515Y-13357785D01*
X4795515Y-13322225D02*
X4759955Y-13357785D01*
X4759955Y-4777640D02*
X4795515Y-4813200D01*
X4795515Y-4777640D02*
X4759955Y-4813200D01*
X4759955Y-6882640D02*
X4795515Y-6918200D01*
X4795515Y-6882640D02*
X4759955Y-6918200D01*
X4759955Y-8987640D02*
X4795515Y-9023200D01*
X4795515Y-8987640D02*
X4759955Y-9023200D01*
X4759955Y-11092640D02*
X4795515Y-11128200D01*
X4795515Y-11092640D02*
X4759955Y-11128200D01*
X4759955Y-13197640D02*
X4795515Y-13233200D01*
X4795515Y-13197640D02*
X4759955Y-13233200D01*
X4759959Y-5511825D02*
X4795519Y-5547385D01*
X4795519Y-5511825D02*
X4759959Y-5547385D01*
X4759959Y-7616825D02*
X4795519Y-7652385D01*
X4795519Y-7616825D02*
X4759959Y-7652385D01*
X4759959Y-9721825D02*
X4795519Y-9757385D01*
X4795519Y-9721825D02*
X4759959Y-9757385D01*
X4759959Y-11826825D02*
X4795519Y-11862385D01*
X4795519Y-11826825D02*
X4759959Y-11862385D01*
X4759959Y-13931825D02*
X4795519Y-13967385D01*
X4795519Y-13931825D02*
X4759959Y-13967385D01*
X4760499Y-5669213D02*
X4796059Y-5704773D01*
X4796059Y-5669213D02*
X4760499Y-5704773D01*
X4760499Y-7774213D02*
X4796059Y-7809773D01*
X4796059Y-7774213D02*
X4760499Y-7809773D01*
X4760499Y-9879213D02*
X4796059Y-9914773D01*
X4796059Y-9879213D02*
X4760499Y-9914773D01*
X4760499Y-11984213D02*
X4796059Y-12019773D01*
X4796059Y-11984213D02*
X4760499Y-12019773D01*
X4760499Y-14089213D02*
X4796059Y-14124773D01*
X4796059Y-14089213D02*
X4760499Y-14124773D01*
X4768875Y-5207025D02*
X4804435Y-5242585D01*
X4804435Y-5207025D02*
X4768875Y-5242585D01*
X4768875Y-7312025D02*
X4804435Y-7347585D01*
X4804435Y-7312025D02*
X4768875Y-7347585D01*
X4768875Y-9417025D02*
X4804435Y-9452585D01*
X4804435Y-9417025D02*
X4768875Y-9452585D01*
X4768875Y-11522025D02*
X4804435Y-11557585D01*
X4804435Y-11522025D02*
X4768875Y-11557585D01*
X4768875Y-13627025D02*
X4804435Y-13662585D01*
X4804435Y-13627025D02*
X4768875Y-13662585D01*
X4776394Y-5029225D02*
X4811954Y-5064785D01*
X4811954Y-5029225D02*
X4776394Y-5064785D01*
X4776394Y-7134225D02*
X4811954Y-7169785D01*
X4811954Y-7134225D02*
X4776394Y-7169785D01*
X4776394Y-9239225D02*
X4811954Y-9274785D01*
X4811954Y-9239225D02*
X4776394Y-9274785D01*
X4776394Y-11344225D02*
X4811954Y-11379785D01*
X4811954Y-11344225D02*
X4776394Y-11379785D01*
X4776394Y-13449225D02*
X4811954Y-13484785D01*
X4811954Y-13449225D02*
X4776394Y-13484785D01*
X4781575Y-4406925D02*
X4817135Y-4442485D01*
X4817135Y-4406925D02*
X4781575Y-4442485D01*
X4781575Y-6511925D02*
X4817135Y-6547485D01*
X4817135Y-6511925D02*
X4781575Y-6547485D01*
X4781575Y-8616925D02*
X4817135Y-8652485D01*
X4817135Y-8616925D02*
X4781575Y-8652485D01*
X4781575Y-10721925D02*
X4817135Y-10757485D01*
X4817135Y-10721925D02*
X4781575Y-10757485D01*
X4781575Y-12826925D02*
X4817135Y-12862485D01*
X4817135Y-12826925D02*
X4781575Y-12862485D01*
X4821656Y-5270525D02*
X4857216Y-5306085D01*
X4857216Y-5270525D02*
X4821656Y-5306085D01*
X4821656Y-7375525D02*
X4857216Y-7411085D01*
X4857216Y-7375525D02*
X4821656Y-7411085D01*
X4821656Y-9480525D02*
X4857216Y-9516085D01*
X4857216Y-9480525D02*
X4821656Y-9516085D01*
X4821656Y-11585525D02*
X4857216Y-11621085D01*
X4857216Y-11585525D02*
X4821656Y-11621085D01*
X4821656Y-13690525D02*
X4857216Y-13726085D01*
X4857216Y-13690525D02*
X4821656Y-13726085D01*
X4856343Y-4303894D02*
X4891903Y-4339454D01*
X4891903Y-4303894D02*
X4856343Y-4339454D01*
X4856343Y-6408894D02*
X4891903Y-6444454D01*
X4891903Y-6408894D02*
X4856343Y-6444454D01*
X4856343Y-8513894D02*
X4891903Y-8549454D01*
X4891903Y-8513894D02*
X4856343Y-8549454D01*
X4856343Y-10618894D02*
X4891903Y-10654454D01*
X4891903Y-10618894D02*
X4856343Y-10654454D01*
X4856343Y-12723894D02*
X4891903Y-12759454D01*
X4891903Y-12723894D02*
X4856343Y-12759454D01*
X4898705Y-4903472D02*
X4934265Y-4939032D01*
X4934265Y-4903472D02*
X4898705Y-4939032D01*
X4898705Y-7008472D02*
X4934265Y-7044032D01*
X4934265Y-7008472D02*
X4898705Y-7044032D01*
X4898705Y-9113472D02*
X4934265Y-9149032D01*
X4934265Y-9113472D02*
X4898705Y-9149032D01*
X4898705Y-11218472D02*
X4934265Y-11254032D01*
X4934265Y-11218472D02*
X4898705Y-11254032D01*
X4898705Y-13323472D02*
X4934265Y-13359032D01*
X4934265Y-13323472D02*
X4898705Y-13359032D01*
X4911481Y-5615344D02*
X4947041Y-5650904D01*
X4947041Y-5615344D02*
X4911481Y-5650904D01*
X4911481Y-7720344D02*
X4947041Y-7755904D01*
X4947041Y-7720344D02*
X4911481Y-7755904D01*
X4911481Y-9825344D02*
X4947041Y-9860904D01*
X4947041Y-9825344D02*
X4911481Y-9860904D01*
X4911481Y-11930344D02*
X4947041Y-11965904D01*
X4947041Y-11930344D02*
X4911481Y-11965904D01*
X4911481Y-14035344D02*
X4947041Y-14070904D01*
X4947041Y-14035344D02*
X4911481Y-14070904D01*
X4921275Y-5461025D02*
X4956835Y-5496585D01*
X4956835Y-5461025D02*
X4921275Y-5496585D01*
X4921275Y-7566025D02*
X4956835Y-7601585D01*
X4956835Y-7566025D02*
X4921275Y-7601585D01*
X4921275Y-9671025D02*
X4956835Y-9706585D01*
X4956835Y-9671025D02*
X4921275Y-9706585D01*
X4921275Y-11776025D02*
X4956835Y-11811585D01*
X4956835Y-11776025D02*
X4921275Y-11811585D01*
X4921275Y-13881025D02*
X4956835Y-13916585D01*
X4956835Y-13881025D02*
X4921275Y-13916585D01*
X4921279Y-4699025D02*
X4956839Y-4734585D01*
X4956839Y-4699025D02*
X4921279Y-4734585D01*
X4921279Y-6804025D02*
X4956839Y-6839585D01*
X4956839Y-6804025D02*
X4921279Y-6839585D01*
X4921279Y-8909025D02*
X4956839Y-8944585D01*
X4956839Y-8909025D02*
X4921279Y-8944585D01*
X4921279Y-11014025D02*
X4956839Y-11049585D01*
X4956839Y-11014025D02*
X4921279Y-11049585D01*
X4921279Y-13119025D02*
X4956839Y-13154585D01*
X4956839Y-13119025D02*
X4921279Y-13154585D01*
X4935578Y-5294507D02*
X4971138Y-5330067D01*
X4971138Y-5294507D02*
X4935578Y-5330067D01*
X4935578Y-7399507D02*
X4971138Y-7435067D01*
X4971138Y-7399507D02*
X4935578Y-7435067D01*
X4935578Y-9504507D02*
X4971138Y-9540067D01*
X4971138Y-9504507D02*
X4935578Y-9540067D01*
X4935578Y-11609507D02*
X4971138Y-11645067D01*
X4971138Y-11609507D02*
X4935578Y-11645067D01*
X4935578Y-13714507D02*
X4971138Y-13750067D01*
X4971138Y-13714507D02*
X4935578Y-13750067D01*
X5096678Y-4549022D02*
X5132238Y-4584582D01*
X5132238Y-4549022D02*
X5096678Y-4584582D01*
X5096678Y-6654022D02*
X5132238Y-6689582D01*
X5132238Y-6654022D02*
X5096678Y-6689582D01*
X5096678Y-8759022D02*
X5132238Y-8794582D01*
X5132238Y-8759022D02*
X5096678Y-8794582D01*
X5096678Y-10864022D02*
X5132238Y-10899582D01*
X5132238Y-10864022D02*
X5096678Y-10899582D01*
X5096678Y-12969022D02*
X5132238Y-13004582D01*
X5132238Y-12969022D02*
X5096678Y-13004582D01*
X5111775Y-4978425D02*
X5147335Y-5013985D01*
X5147335Y-4978425D02*
X5111775Y-5013985D01*
X5111775Y-7083425D02*
X5147335Y-7118985D01*
X5147335Y-7083425D02*
X5111775Y-7118985D01*
X5111775Y-9188425D02*
X5147335Y-9223985D01*
X5147335Y-9188425D02*
X5111775Y-9223985D01*
X5111775Y-11293425D02*
X5147335Y-11328985D01*
X5147335Y-11293425D02*
X5111775Y-11328985D01*
X5111775Y-13398425D02*
X5147335Y-13433985D01*
X5147335Y-13398425D02*
X5111775Y-13433985D01*
X5137175Y-4478106D02*
X5172735Y-4513666D01*
X5172735Y-4478106D02*
X5137175Y-4513666D01*
X5137175Y-6583106D02*
X5172735Y-6618666D01*
X5172735Y-6583106D02*
X5137175Y-6618666D01*
X5137175Y-8688106D02*
X5172735Y-8723666D01*
X5172735Y-8688106D02*
X5137175Y-8723666D01*
X5137175Y-10793106D02*
X5172735Y-10828666D01*
X5172735Y-10793106D02*
X5137175Y-10828666D01*
X5137175Y-12898106D02*
X5172735Y-12933666D01*
X5172735Y-12898106D02*
X5137175Y-12933666D01*
X5200675Y-5130825D02*
X5236235Y-5166385D01*
X5236235Y-5130825D02*
X5200675Y-5166385D01*
X5200675Y-7235825D02*
X5236235Y-7271385D01*
X5236235Y-7235825D02*
X5200675Y-7271385D01*
X5200675Y-9340825D02*
X5236235Y-9376385D01*
X5236235Y-9340825D02*
X5200675Y-9376385D01*
X5200675Y-11445825D02*
X5236235Y-11481385D01*
X5236235Y-11445825D02*
X5200675Y-11481385D01*
X5200675Y-13550825D02*
X5236235Y-13586385D01*
X5236235Y-13550825D02*
X5200675Y-13586385D01*
X5216230Y-4276276D02*
X5251790Y-4311836D01*
X5251790Y-4276276D02*
X5216230Y-4311836D01*
X5216230Y-6381276D02*
X5251790Y-6416836D01*
X5251790Y-6381276D02*
X5216230Y-6416836D01*
X5216230Y-8486276D02*
X5251790Y-8521836D01*
X5251790Y-8486276D02*
X5216230Y-8521836D01*
X5216230Y-10591276D02*
X5251790Y-10626836D01*
X5251790Y-10591276D02*
X5216230Y-10626836D01*
X5216230Y-12696276D02*
X5251790Y-12731836D01*
X5251790Y-12696276D02*
X5216230Y-12731836D01*
X5264175Y-4826025D02*
X5299735Y-4861585D01*
X5299735Y-4826025D02*
X5264175Y-4861585D01*
X5264175Y-6931025D02*
X5299735Y-6966585D01*
X5299735Y-6931025D02*
X5264175Y-6966585D01*
X5264175Y-9036025D02*
X5299735Y-9071585D01*
X5299735Y-9036025D02*
X5264175Y-9071585D01*
X5264175Y-11141025D02*
X5299735Y-11176585D01*
X5299735Y-11141025D02*
X5264175Y-11176585D01*
X5264175Y-13246025D02*
X5299735Y-13281585D01*
X5299735Y-13246025D02*
X5264175Y-13281585D01*
X5410083Y-4560290D02*
X5445643Y-4595850D01*
X5445643Y-4560290D02*
X5410083Y-4595850D01*
X5410083Y-6665290D02*
X5445643Y-6700850D01*
X5445643Y-6665290D02*
X5410083Y-6700850D01*
X5410083Y-8770290D02*
X5445643Y-8805850D01*
X5445643Y-8770290D02*
X5410083Y-8805850D01*
X5410083Y-10875290D02*
X5445643Y-10910850D01*
X5445643Y-10875290D02*
X5410083Y-10910850D01*
X5410083Y-12980290D02*
X5445643Y-13015850D01*
X5445643Y-12980290D02*
X5410083Y-13015850D01*
X5441975Y-4292625D02*
X5477535Y-4328185D01*
X5477535Y-4292625D02*
X5441975Y-4328185D01*
X5441975Y-6397625D02*
X5477535Y-6433185D01*
X5477535Y-6397625D02*
X5441975Y-6433185D01*
X5441975Y-8502625D02*
X5477535Y-8538185D01*
X5477535Y-8502625D02*
X5441975Y-8538185D01*
X5441975Y-10607625D02*
X5477535Y-10643185D01*
X5477535Y-10607625D02*
X5441975Y-10643185D01*
X5441975Y-12712625D02*
X5477535Y-12748185D01*
X5477535Y-12712625D02*
X5441975Y-12748185D01*
X5492707Y-4833696D02*
X5528267Y-4869256D01*
X5528267Y-4833696D02*
X5492707Y-4869256D01*
X5492707Y-6938696D02*
X5528267Y-6974256D01*
X5528267Y-6938696D02*
X5492707Y-6974256D01*
X5492707Y-9043696D02*
X5528267Y-9079256D01*
X5528267Y-9043696D02*
X5492707Y-9079256D01*
X5492707Y-11148696D02*
X5528267Y-11184256D01*
X5528267Y-11148696D02*
X5492707Y-11184256D01*
X5492707Y-13253696D02*
X5528267Y-13289256D01*
X5528267Y-13253696D02*
X5492707Y-13289256D01*
X5571824Y-4611093D02*
X5607384Y-4646653D01*
X5607384Y-4611093D02*
X5571824Y-4646653D01*
X5571824Y-6716093D02*
X5607384Y-6751653D01*
X5607384Y-6716093D02*
X5571824Y-6751653D01*
X5571824Y-8821093D02*
X5607384Y-8856653D01*
X5607384Y-8821093D02*
X5571824Y-8856653D01*
X5571824Y-10926093D02*
X5607384Y-10961653D01*
X5607384Y-10926093D02*
X5571824Y-10961653D01*
X5571824Y-13031093D02*
X5607384Y-13066653D01*
X5607384Y-13031093D02*
X5571824Y-13066653D01*
X5721375Y-5308625D02*
X5756935Y-5344185D01*
X5756935Y-5308625D02*
X5721375Y-5344185D01*
X5721375Y-7413625D02*
X5756935Y-7449185D01*
X5756935Y-7413625D02*
X5721375Y-7449185D01*
X5721375Y-9518625D02*
X5756935Y-9554185D01*
X5756935Y-9518625D02*
X5721375Y-9554185D01*
X5721375Y-11623625D02*
X5756935Y-11659185D01*
X5756935Y-11623625D02*
X5721375Y-11659185D01*
X5721375Y-13728625D02*
X5756935Y-13764185D01*
X5756935Y-13728625D02*
X5721375Y-13764185D01*
X5772175Y-4076725D02*
X5807735Y-4112285D01*
X5807735Y-4076725D02*
X5772175Y-4112285D01*
X5772175Y-6181725D02*
X5807735Y-6217285D01*
X5807735Y-6181725D02*
X5772175Y-6217285D01*
X5772175Y-8286725D02*
X5807735Y-8322285D01*
X5807735Y-8286725D02*
X5772175Y-8322285D01*
X5772175Y-10391725D02*
X5807735Y-10427285D01*
X5807735Y-10391725D02*
X5772175Y-10427285D01*
X5772175Y-12496725D02*
X5807735Y-12532285D01*
X5807735Y-12496725D02*
X5772175Y-12532285D01*
X5777313Y-4150508D02*
X5812873Y-4186068D01*
X5812873Y-4150508D02*
X5777313Y-4186068D01*
X5777313Y-6255508D02*
X5812873Y-6291068D01*
X5812873Y-6255508D02*
X5777313Y-6291068D01*
X5777313Y-8360508D02*
X5812873Y-8396068D01*
X5812873Y-8360508D02*
X5777313Y-8396068D01*
X5777313Y-10465508D02*
X5812873Y-10501068D01*
X5812873Y-10465508D02*
X5777313Y-10501068D01*
X5777313Y-12570508D02*
X5812873Y-12606068D01*
X5812873Y-12570508D02*
X5777313Y-12606068D01*
X5800403Y-5190028D02*
X5835963Y-5225588D01*
X5835963Y-5190028D02*
X5800403Y-5225588D01*
X5800403Y-7295028D02*
X5835963Y-7330588D01*
X5835963Y-7295028D02*
X5800403Y-7330588D01*
X5800403Y-9400028D02*
X5835963Y-9435588D01*
X5835963Y-9400028D02*
X5800403Y-9435588D01*
X5800403Y-11505028D02*
X5835963Y-11540588D01*
X5835963Y-11505028D02*
X5800403Y-11540588D01*
X5800403Y-13610028D02*
X5835963Y-13645588D01*
X5835963Y-13610028D02*
X5800403Y-13645588D01*
X5878794Y-4373609D02*
X5914354Y-4409169D01*
X5914354Y-4373609D02*
X5878794Y-4409169D01*
X5878794Y-6478609D02*
X5914354Y-6514169D01*
X5914354Y-6478609D02*
X5878794Y-6514169D01*
X5878794Y-8583609D02*
X5914354Y-8619169D01*
X5914354Y-8583609D02*
X5878794Y-8619169D01*
X5878794Y-10688609D02*
X5914354Y-10724169D01*
X5914354Y-10688609D02*
X5878794Y-10724169D01*
X5878794Y-12793609D02*
X5914354Y-12829169D01*
X5914354Y-12793609D02*
X5878794Y-12829169D01*
X5924338Y-5342642D02*
X5959898Y-5378202D01*
X5959898Y-5342642D02*
X5924338Y-5378202D01*
X5924338Y-7447642D02*
X5959898Y-7483202D01*
X5959898Y-7447642D02*
X5924338Y-7483202D01*
X5924338Y-9552642D02*
X5959898Y-9588202D01*
X5959898Y-9552642D02*
X5924338Y-9588202D01*
X5924338Y-11657642D02*
X5959898Y-11693202D01*
X5959898Y-11657642D02*
X5924338Y-11693202D01*
X5924338Y-13762642D02*
X5959898Y-13798202D01*
X5959898Y-13762642D02*
X5924338Y-13798202D01*
X6091560Y-4730380D02*
X6127120Y-4765940D01*
X6127120Y-4730380D02*
X6091560Y-4765940D01*
X6091560Y-6835379D02*
X6127120Y-6870939D01*
X6127120Y-6835379D02*
X6091560Y-6870939D01*
X6091560Y-8940380D02*
X6127120Y-8975940D01*
X6127120Y-8940380D02*
X6091560Y-8975940D01*
X6091560Y-11045380D02*
X6127120Y-11080940D01*
X6127120Y-11045380D02*
X6091560Y-11080940D01*
X6091560Y-13150379D02*
X6127120Y-13185939D01*
X6127120Y-13150379D02*
X6091560Y-13185939D01*
X6104545Y-4803192D02*
X6140105Y-4838752D01*
X6140105Y-4803192D02*
X6104545Y-4838752D01*
X6104545Y-6908192D02*
X6140105Y-6943752D01*
X6140105Y-6908192D02*
X6104545Y-6943752D01*
X6104545Y-9013192D02*
X6140105Y-9048752D01*
X6140105Y-9013192D02*
X6104545Y-9048752D01*
X6104545Y-11118192D02*
X6140105Y-11153752D01*
X6140105Y-11118192D02*
X6104545Y-11153752D01*
X6104545Y-13223192D02*
X6140105Y-13258752D01*
X6140105Y-13223192D02*
X6104545Y-13258752D01*
X6106794Y-5434881D02*
X6142354Y-5470441D01*
X6142354Y-5434881D02*
X6106794Y-5470441D01*
X6106794Y-7539881D02*
X6142354Y-7575441D01*
X6142354Y-7539881D02*
X6106794Y-7575441D01*
X6106794Y-9644881D02*
X6142354Y-9680441D01*
X6142354Y-9644881D02*
X6106794Y-9680441D01*
X6106794Y-11749881D02*
X6142354Y-11785441D01*
X6142354Y-11749881D02*
X6106794Y-11785441D01*
X6106794Y-13854881D02*
X6142354Y-13890441D01*
X6142354Y-13854881D02*
X6106794Y-13890441D01*
X6127775Y-5664225D02*
X6163335Y-5699785D01*
X6163335Y-5664225D02*
X6127775Y-5699785D01*
X6127775Y-7769225D02*
X6163335Y-7804785D01*
X6163335Y-7769225D02*
X6127775Y-7804785D01*
X6127775Y-9874225D02*
X6163335Y-9909785D01*
X6163335Y-9874225D02*
X6127775Y-9909785D01*
X6127775Y-11979225D02*
X6163335Y-12014785D01*
X6163335Y-11979225D02*
X6127775Y-12014785D01*
X6127775Y-14084225D02*
X6163335Y-14119785D01*
X6163335Y-14084225D02*
X6127775Y-14119785D01*
X6134561Y-4431521D02*
X6170121Y-4467081D01*
X6170121Y-4431521D02*
X6134561Y-4467081D01*
X6134561Y-4622825D02*
X6170121Y-4658385D01*
X6170121Y-4622825D02*
X6134561Y-4658385D01*
X6134561Y-6536521D02*
X6170121Y-6572081D01*
X6170121Y-6536521D02*
X6134561Y-6572081D01*
X6134561Y-6727825D02*
X6170121Y-6763385D01*
X6170121Y-6727825D02*
X6134561Y-6763385D01*
X6134561Y-8641521D02*
X6170121Y-8677081D01*
X6170121Y-8641521D02*
X6134561Y-8677081D01*
X6134561Y-8832825D02*
X6170121Y-8868385D01*
X6170121Y-8832825D02*
X6134561Y-8868385D01*
X6134561Y-10746521D02*
X6170121Y-10782081D01*
X6170121Y-10746521D02*
X6134561Y-10782081D01*
X6134561Y-10937825D02*
X6170121Y-10973385D01*
X6170121Y-10937825D02*
X6134561Y-10973385D01*
X6134561Y-12851521D02*
X6170121Y-12887081D01*
X6170121Y-12851521D02*
X6134561Y-12887081D01*
X6134561Y-13042825D02*
X6170121Y-13078385D01*
X6170121Y-13042825D02*
X6134561Y-13078385D01*
X6140238Y-5359425D02*
X6175798Y-5394985D01*
X6175798Y-5359425D02*
X6140238Y-5394985D01*
X6140238Y-7464425D02*
X6175798Y-7499985D01*
X6175798Y-7464425D02*
X6140238Y-7499985D01*
X6140238Y-9569425D02*
X6175798Y-9604985D01*
X6175798Y-9569425D02*
X6140238Y-9604985D01*
X6140238Y-11674425D02*
X6175798Y-11709985D01*
X6175798Y-11674425D02*
X6140238Y-11709985D01*
X6140238Y-13779425D02*
X6175798Y-13814985D01*
X6175798Y-13779425D02*
X6140238Y-13814985D01*
X6156349Y-4915119D02*
X6191909Y-4950679D01*
X6191909Y-4915119D02*
X6156349Y-4950679D01*
X6156349Y-7020119D02*
X6191909Y-7055679D01*
X6191909Y-7020119D02*
X6156349Y-7055679D01*
X6156349Y-9125119D02*
X6191909Y-9160679D01*
X6191909Y-9125119D02*
X6156349Y-9160679D01*
X6156349Y-11230119D02*
X6191909Y-11265679D01*
X6191909Y-11230119D02*
X6156349Y-11265679D01*
X6156349Y-13335119D02*
X6191909Y-13370679D01*
X6191909Y-13335119D02*
X6156349Y-13370679D01*
X6170539Y-5241308D02*
X6206099Y-5276868D01*
X6206099Y-5241308D02*
X6170539Y-5276868D01*
X6170539Y-7346308D02*
X6206099Y-7381868D01*
X6206099Y-7346308D02*
X6170539Y-7381868D01*
X6170539Y-9451308D02*
X6206099Y-9486868D01*
X6206099Y-9451308D02*
X6170539Y-9486868D01*
X6170539Y-11556308D02*
X6206099Y-11591868D01*
X6206099Y-11556308D02*
X6170539Y-11591868D01*
X6170539Y-13661308D02*
X6206099Y-13696868D01*
X6206099Y-13661308D02*
X6170539Y-13696868D01*
X6863826Y-5437873D02*
X6899386Y-5473433D01*
X6899386Y-5437873D02*
X6863826Y-5473433D01*
X6863826Y-7542873D02*
X6899386Y-7578433D01*
X6899386Y-7542873D02*
X6863826Y-7578433D01*
X6863826Y-9647873D02*
X6899386Y-9683433D01*
X6899386Y-9647873D02*
X6863826Y-9683433D01*
X6863826Y-11752873D02*
X6899386Y-11788433D01*
X6899386Y-11752873D02*
X6863826Y-11788433D01*
X6863826Y-13857873D02*
X6899386Y-13893433D01*
X6899386Y-13857873D02*
X6863826Y-13893433D01*
X6864200Y-4636097D02*
X6899760Y-4671657D01*
X6899760Y-4636097D02*
X6864200Y-4671657D01*
X6864200Y-6741097D02*
X6899760Y-6776657D01*
X6899760Y-6741097D02*
X6864200Y-6776657D01*
X6864200Y-8846097D02*
X6899760Y-8881657D01*
X6899760Y-8846097D02*
X6864200Y-8881657D01*
X6864200Y-10951097D02*
X6899760Y-10986657D01*
X6899760Y-10951097D02*
X6864200Y-10986657D01*
X6864200Y-13056097D02*
X6899760Y-13091657D01*
X6899760Y-13056097D02*
X6864200Y-13091657D01*
X6864955Y-4902225D02*
X6900515Y-4937785D01*
X6900515Y-4902225D02*
X6864955Y-4937785D01*
X6864955Y-7007225D02*
X6900515Y-7042785D01*
X6900515Y-7007225D02*
X6864955Y-7042785D01*
X6864955Y-9112225D02*
X6900515Y-9147785D01*
X6900515Y-9112225D02*
X6864955Y-9147785D01*
X6864955Y-11217225D02*
X6900515Y-11252785D01*
X6900515Y-11217225D02*
X6864955Y-11252785D01*
X6864955Y-13322225D02*
X6900515Y-13357785D01*
X6900515Y-13322225D02*
X6864955Y-13357785D01*
X6864955Y-4777640D02*
X6900515Y-4813200D01*
X6900515Y-4777640D02*
X6864955Y-4813200D01*
X6864955Y-6882640D02*
X6900515Y-6918200D01*
X6900515Y-6882640D02*
X6864955Y-6918200D01*
X6864955Y-8987640D02*
X6900515Y-9023200D01*
X6900515Y-8987640D02*
X6864955Y-9023200D01*
X6864955Y-11092640D02*
X6900515Y-11128200D01*
X6900515Y-11092640D02*
X6864955Y-11128200D01*
X6864955Y-13197640D02*
X6900515Y-13233200D01*
X6900515Y-13197640D02*
X6864955Y-13233200D01*
X6864959Y-5511825D02*
X6900519Y-5547385D01*
X6900519Y-5511825D02*
X6864959Y-5547385D01*
X6864959Y-7616825D02*
X6900519Y-7652385D01*
X6900519Y-7616825D02*
X6864959Y-7652385D01*
X6864959Y-9721825D02*
X6900519Y-9757385D01*
X6900519Y-9721825D02*
X6864959Y-9757385D01*
X6864959Y-11826825D02*
X6900519Y-11862385D01*
X6900519Y-11826825D02*
X6864959Y-11862385D01*
X6864959Y-13931825D02*
X6900519Y-13967385D01*
X6900519Y-13931825D02*
X6864959Y-13967385D01*
X6865499Y-5669213D02*
X6901059Y-5704773D01*
X6901059Y-5669213D02*
X6865499Y-5704773D01*
X6865499Y-7774213D02*
X6901059Y-7809773D01*
X6901059Y-7774213D02*
X6865499Y-7809773D01*
X6865499Y-9879213D02*
X6901059Y-9914773D01*
X6901059Y-9879213D02*
X6865499Y-9914773D01*
X6865499Y-11984213D02*
X6901059Y-12019773D01*
X6901059Y-11984213D02*
X6865499Y-12019773D01*
X6865499Y-14089213D02*
X6901059Y-14124773D01*
X6901059Y-14089213D02*
X6865499Y-14124773D01*
X6873875Y-5207025D02*
X6909435Y-5242585D01*
X6909435Y-5207025D02*
X6873875Y-5242585D01*
X6873875Y-7312025D02*
X6909435Y-7347585D01*
X6909435Y-7312025D02*
X6873875Y-7347585D01*
X6873875Y-9417025D02*
X6909435Y-9452585D01*
X6909435Y-9417025D02*
X6873875Y-9452585D01*
X6873875Y-11522025D02*
X6909435Y-11557585D01*
X6909435Y-11522025D02*
X6873875Y-11557585D01*
X6873875Y-13627025D02*
X6909435Y-13662585D01*
X6909435Y-13627025D02*
X6873875Y-13662585D01*
X6881394Y-5029225D02*
X6916954Y-5064785D01*
X6916954Y-5029225D02*
X6881394Y-5064785D01*
X6881394Y-7134225D02*
X6916954Y-7169785D01*
X6916954Y-7134225D02*
X6881394Y-7169785D01*
X6881394Y-9239225D02*
X6916954Y-9274785D01*
X6916954Y-9239225D02*
X6881394Y-9274785D01*
X6881394Y-11344225D02*
X6916954Y-11379785D01*
X6916954Y-11344225D02*
X6881394Y-11379785D01*
X6881394Y-13449225D02*
X6916954Y-13484785D01*
X6916954Y-13449225D02*
X6881394Y-13484785D01*
X6886574Y-4406925D02*
X6922134Y-4442485D01*
X6922134Y-4406925D02*
X6886574Y-4442485D01*
X6886574Y-6511925D02*
X6922134Y-6547485D01*
X6922134Y-6511925D02*
X6886574Y-6547485D01*
X6886574Y-8616925D02*
X6922134Y-8652485D01*
X6922134Y-8616925D02*
X6886574Y-8652485D01*
X6886574Y-10721925D02*
X6922134Y-10757485D01*
X6922134Y-10721925D02*
X6886574Y-10757485D01*
X6886574Y-12826925D02*
X6922134Y-12862485D01*
X6922134Y-12826925D02*
X6886574Y-12862485D01*
X6926656Y-5270525D02*
X6962216Y-5306085D01*
X6962216Y-5270525D02*
X6926656Y-5306085D01*
X6926656Y-7375525D02*
X6962216Y-7411085D01*
X6962216Y-7375525D02*
X6926656Y-7411085D01*
X6926656Y-9480525D02*
X6962216Y-9516085D01*
X6962216Y-9480525D02*
X6926656Y-9516085D01*
X6926656Y-11585525D02*
X6962216Y-11621085D01*
X6962216Y-11585525D02*
X6926656Y-11621085D01*
X6926656Y-13690525D02*
X6962216Y-13726085D01*
X6962216Y-13690525D02*
X6926656Y-13726085D01*
X6961343Y-4303894D02*
X6996903Y-4339454D01*
X6996903Y-4303894D02*
X6961343Y-4339454D01*
X6961343Y-6408894D02*
X6996903Y-6444454D01*
X6996903Y-6408894D02*
X6961343Y-6444454D01*
X6961343Y-8513894D02*
X6996903Y-8549454D01*
X6996903Y-8513894D02*
X6961343Y-8549454D01*
X6961343Y-10618894D02*
X6996903Y-10654454D01*
X6996903Y-10618894D02*
X6961343Y-10654454D01*
X6961343Y-12723894D02*
X6996903Y-12759454D01*
X6996903Y-12723894D02*
X6961343Y-12759454D01*
X7003705Y-4903472D02*
X7039265Y-4939032D01*
X7039265Y-4903472D02*
X7003705Y-4939032D01*
X7003705Y-7008472D02*
X7039265Y-7044032D01*
X7039265Y-7008472D02*
X7003705Y-7044032D01*
X7003705Y-9113472D02*
X7039265Y-9149032D01*
X7039265Y-9113472D02*
X7003705Y-9149032D01*
X7003705Y-11218472D02*
X7039265Y-11254032D01*
X7039265Y-11218472D02*
X7003705Y-11254032D01*
X7003705Y-13323472D02*
X7039265Y-13359032D01*
X7039265Y-13323472D02*
X7003705Y-13359032D01*
X7016481Y-5615344D02*
X7052041Y-5650904D01*
X7052041Y-5615344D02*
X7016481Y-5650904D01*
X7016481Y-7720344D02*
X7052041Y-7755904D01*
X7052041Y-7720344D02*
X7016481Y-7755904D01*
X7016481Y-9825344D02*
X7052041Y-9860904D01*
X7052041Y-9825344D02*
X7016481Y-9860904D01*
X7016481Y-11930344D02*
X7052041Y-11965904D01*
X7052041Y-11930344D02*
X7016481Y-11965904D01*
X7016481Y-14035344D02*
X7052041Y-14070904D01*
X7052041Y-14035344D02*
X7016481Y-14070904D01*
X7026275Y-5461025D02*
X7061835Y-5496585D01*
X7061835Y-5461025D02*
X7026275Y-5496585D01*
X7026275Y-7566025D02*
X7061835Y-7601585D01*
X7061835Y-7566025D02*
X7026275Y-7601585D01*
X7026275Y-9671025D02*
X7061835Y-9706585D01*
X7061835Y-9671025D02*
X7026275Y-9706585D01*
X7026275Y-11776025D02*
X7061835Y-11811585D01*
X7061835Y-11776025D02*
X7026275Y-11811585D01*
X7026275Y-13881025D02*
X7061835Y-13916585D01*
X7061835Y-13881025D02*
X7026275Y-13916585D01*
X7026279Y-4699025D02*
X7061839Y-4734585D01*
X7061839Y-4699025D02*
X7026279Y-4734585D01*
X7026279Y-6804025D02*
X7061839Y-6839585D01*
X7061839Y-6804025D02*
X7026279Y-6839585D01*
X7026279Y-8909025D02*
X7061839Y-8944585D01*
X7061839Y-8909025D02*
X7026279Y-8944585D01*
X7026279Y-11014025D02*
X7061839Y-11049585D01*
X7061839Y-11014025D02*
X7026279Y-11049585D01*
X7026279Y-13119025D02*
X7061839Y-13154585D01*
X7061839Y-13119025D02*
X7026279Y-13154585D01*
X7040578Y-5294507D02*
X7076138Y-5330067D01*
X7076138Y-5294507D02*
X7040578Y-5330067D01*
X7040578Y-7399507D02*
X7076138Y-7435067D01*
X7076138Y-7399507D02*
X7040578Y-7435067D01*
X7040578Y-9504507D02*
X7076138Y-9540067D01*
X7076138Y-9504507D02*
X7040578Y-9540067D01*
X7040578Y-11609507D02*
X7076138Y-11645067D01*
X7076138Y-11609507D02*
X7040578Y-11645067D01*
X7040578Y-13714507D02*
X7076138Y-13750067D01*
X7076138Y-13714507D02*
X7040578Y-13750067D01*
X7201678Y-4549022D02*
X7237238Y-4584582D01*
X7237238Y-4549022D02*
X7201678Y-4584582D01*
X7201678Y-6654022D02*
X7237238Y-6689582D01*
X7237238Y-6654022D02*
X7201678Y-6689582D01*
X7201678Y-8759022D02*
X7237238Y-8794582D01*
X7237238Y-8759022D02*
X7201678Y-8794582D01*
X7201678Y-10864022D02*
X7237238Y-10899582D01*
X7237238Y-10864022D02*
X7201678Y-10899582D01*
X7201678Y-12969022D02*
X7237238Y-13004582D01*
X7237238Y-12969022D02*
X7201678Y-13004582D01*
X7216775Y-4978425D02*
X7252335Y-5013985D01*
X7252335Y-4978425D02*
X7216775Y-5013985D01*
X7216775Y-7083425D02*
X7252335Y-7118985D01*
X7252335Y-7083425D02*
X7216775Y-7118985D01*
X7216775Y-9188425D02*
X7252335Y-9223985D01*
X7252335Y-9188425D02*
X7216775Y-9223985D01*
X7216775Y-11293425D02*
X7252335Y-11328985D01*
X7252335Y-11293425D02*
X7216775Y-11328985D01*
X7216775Y-13398425D02*
X7252335Y-13433985D01*
X7252335Y-13398425D02*
X7216775Y-13433985D01*
X7242175Y-4478106D02*
X7277735Y-4513666D01*
X7277735Y-4478106D02*
X7242175Y-4513666D01*
X7242175Y-6583106D02*
X7277735Y-6618666D01*
X7277735Y-6583106D02*
X7242175Y-6618666D01*
X7242175Y-8688106D02*
X7277735Y-8723666D01*
X7277735Y-8688106D02*
X7242175Y-8723666D01*
X7242175Y-10793106D02*
X7277735Y-10828666D01*
X7277735Y-10793106D02*
X7242175Y-10828666D01*
X7242175Y-12898106D02*
X7277735Y-12933666D01*
X7277735Y-12898106D02*
X7242175Y-12933666D01*
X7305675Y-5130825D02*
X7341235Y-5166385D01*
X7341235Y-5130825D02*
X7305675Y-5166385D01*
X7305675Y-7235825D02*
X7341235Y-7271385D01*
X7341235Y-7235825D02*
X7305675Y-7271385D01*
X7305675Y-9340825D02*
X7341235Y-9376385D01*
X7341235Y-9340825D02*
X7305675Y-9376385D01*
X7305675Y-11445825D02*
X7341235Y-11481385D01*
X7341235Y-11445825D02*
X7305675Y-11481385D01*
X7305675Y-13550825D02*
X7341235Y-13586385D01*
X7341235Y-13550825D02*
X7305675Y-13586385D01*
X7321230Y-4276276D02*
X7356790Y-4311836D01*
X7356790Y-4276276D02*
X7321230Y-4311836D01*
X7321230Y-6381276D02*
X7356790Y-6416836D01*
X7356790Y-6381276D02*
X7321230Y-6416836D01*
X7321230Y-8486276D02*
X7356790Y-8521836D01*
X7356790Y-8486276D02*
X7321230Y-8521836D01*
X7321230Y-10591276D02*
X7356790Y-10626836D01*
X7356790Y-10591276D02*
X7321230Y-10626836D01*
X7321230Y-12696276D02*
X7356790Y-12731836D01*
X7356790Y-12696276D02*
X7321230Y-12731836D01*
X7369175Y-4826025D02*
X7404735Y-4861585D01*
X7404735Y-4826025D02*
X7369175Y-4861585D01*
X7369175Y-6931025D02*
X7404735Y-6966585D01*
X7404735Y-6931025D02*
X7369175Y-6966585D01*
X7369175Y-9036025D02*
X7404735Y-9071585D01*
X7404735Y-9036025D02*
X7369175Y-9071585D01*
X7369175Y-11141025D02*
X7404735Y-11176585D01*
X7404735Y-11141025D02*
X7369175Y-11176585D01*
X7369175Y-13246025D02*
X7404735Y-13281585D01*
X7404735Y-13246025D02*
X7369175Y-13281585D01*
X7515083Y-4560290D02*
X7550643Y-4595850D01*
X7550643Y-4560290D02*
X7515083Y-4595850D01*
X7515083Y-6665290D02*
X7550643Y-6700850D01*
X7550643Y-6665290D02*
X7515083Y-6700850D01*
X7515083Y-8770290D02*
X7550643Y-8805850D01*
X7550643Y-8770290D02*
X7515083Y-8805850D01*
X7515083Y-10875290D02*
X7550643Y-10910850D01*
X7550643Y-10875290D02*
X7515083Y-10910850D01*
X7515083Y-12980290D02*
X7550643Y-13015850D01*
X7550643Y-12980290D02*
X7515083Y-13015850D01*
X7546975Y-4292625D02*
X7582535Y-4328185D01*
X7582535Y-4292625D02*
X7546975Y-4328185D01*
X7546975Y-6397625D02*
X7582535Y-6433185D01*
X7582535Y-6397625D02*
X7546975Y-6433185D01*
X7546975Y-8502625D02*
X7582535Y-8538185D01*
X7582535Y-8502625D02*
X7546975Y-8538185D01*
X7546975Y-10607625D02*
X7582535Y-10643185D01*
X7582535Y-10607625D02*
X7546975Y-10643185D01*
X7546975Y-12712625D02*
X7582535Y-12748185D01*
X7582535Y-12712625D02*
X7546975Y-12748185D01*
X7597707Y-4833696D02*
X7633267Y-4869256D01*
X7633267Y-4833696D02*
X7597707Y-4869256D01*
X7597707Y-6938696D02*
X7633267Y-6974256D01*
X7633267Y-6938696D02*
X7597707Y-6974256D01*
X7597707Y-9043696D02*
X7633267Y-9079256D01*
X7633267Y-9043696D02*
X7597707Y-9079256D01*
X7597707Y-11148696D02*
X7633267Y-11184256D01*
X7633267Y-11148696D02*
X7597707Y-11184256D01*
X7597707Y-13253696D02*
X7633267Y-13289256D01*
X7633267Y-13253696D02*
X7597707Y-13289256D01*
X7676824Y-4611093D02*
X7712384Y-4646653D01*
X7712384Y-4611093D02*
X7676824Y-4646653D01*
X7676824Y-6716093D02*
X7712384Y-6751653D01*
X7712384Y-6716093D02*
X7676824Y-6751653D01*
X7676824Y-8821093D02*
X7712384Y-8856653D01*
X7712384Y-8821093D02*
X7676824Y-8856653D01*
X7676824Y-10926093D02*
X7712384Y-10961653D01*
X7712384Y-10926093D02*
X7676824Y-10961653D01*
X7676824Y-13031093D02*
X7712384Y-13066653D01*
X7712384Y-13031093D02*
X7676824Y-13066653D01*
X7826375Y-5308625D02*
X7861935Y-5344185D01*
X7861935Y-5308625D02*
X7826375Y-5344185D01*
X7826375Y-7413625D02*
X7861935Y-7449185D01*
X7861935Y-7413625D02*
X7826375Y-7449185D01*
X7826375Y-9518625D02*
X7861935Y-9554185D01*
X7861935Y-9518625D02*
X7826375Y-9554185D01*
X7826375Y-11623625D02*
X7861935Y-11659185D01*
X7861935Y-11623625D02*
X7826375Y-11659185D01*
X7826375Y-13728625D02*
X7861935Y-13764185D01*
X7861935Y-13728625D02*
X7826375Y-13764185D01*
X7877175Y-4076725D02*
X7912735Y-4112285D01*
X7912735Y-4076725D02*
X7877175Y-4112285D01*
X7877175Y-6181725D02*
X7912735Y-6217285D01*
X7912735Y-6181725D02*
X7877175Y-6217285D01*
X7877175Y-8286725D02*
X7912735Y-8322285D01*
X7912735Y-8286725D02*
X7877175Y-8322285D01*
X7877175Y-10391725D02*
X7912735Y-10427285D01*
X7912735Y-10391725D02*
X7877175Y-10427285D01*
X7877175Y-12496725D02*
X7912735Y-12532285D01*
X7912735Y-12496725D02*
X7877175Y-12532285D01*
X7882313Y-4150508D02*
X7917873Y-4186068D01*
X7917873Y-4150508D02*
X7882313Y-4186068D01*
X7882313Y-6255508D02*
X7917873Y-6291068D01*
X7917873Y-6255508D02*
X7882313Y-6291068D01*
X7882313Y-8360508D02*
X7917873Y-8396068D01*
X7917873Y-8360508D02*
X7882313Y-8396068D01*
X7882313Y-10465508D02*
X7917873Y-10501068D01*
X7917873Y-10465508D02*
X7882313Y-10501068D01*
X7882313Y-12570508D02*
X7917873Y-12606068D01*
X7917873Y-12570508D02*
X7882313Y-12606068D01*
X7905403Y-5190028D02*
X7940963Y-5225588D01*
X7940963Y-5190028D02*
X7905403Y-5225588D01*
X7905403Y-7295028D02*
X7940963Y-7330588D01*
X7940963Y-7295028D02*
X7905403Y-7330588D01*
X7905403Y-9400028D02*
X7940963Y-9435588D01*
X7940963Y-9400028D02*
X7905403Y-9435588D01*
X7905403Y-11505028D02*
X7940963Y-11540588D01*
X7940963Y-11505028D02*
X7905403Y-11540588D01*
X7905403Y-13610028D02*
X7940963Y-13645588D01*
X7940963Y-13610028D02*
X7905403Y-13645588D01*
X7983794Y-4373609D02*
X8019354Y-4409169D01*
X8019354Y-4373609D02*
X7983794Y-4409169D01*
X7983794Y-6478609D02*
X8019354Y-6514169D01*
X8019354Y-6478609D02*
X7983794Y-6514169D01*
X7983794Y-8583609D02*
X8019354Y-8619169D01*
X8019354Y-8583609D02*
X7983794Y-8619169D01*
X7983794Y-10688609D02*
X8019354Y-10724169D01*
X8019354Y-10688609D02*
X7983794Y-10724169D01*
X7983794Y-12793609D02*
X8019354Y-12829169D01*
X8019354Y-12793609D02*
X7983794Y-12829169D01*
X8029338Y-5342642D02*
X8064898Y-5378202D01*
X8064898Y-5342642D02*
X8029338Y-5378202D01*
X8029338Y-7447642D02*
X8064898Y-7483202D01*
X8064898Y-7447642D02*
X8029338Y-7483202D01*
X8029338Y-9552642D02*
X8064898Y-9588202D01*
X8064898Y-9552642D02*
X8029338Y-9588202D01*
X8029338Y-11657642D02*
X8064898Y-11693202D01*
X8064898Y-11657642D02*
X8029338Y-11693202D01*
X8029338Y-13762642D02*
X8064898Y-13798202D01*
X8064898Y-13762642D02*
X8029338Y-13798202D01*
X8196560Y-4730380D02*
X8232120Y-4765940D01*
X8232120Y-4730380D02*
X8196560Y-4765940D01*
X8196560Y-6835379D02*
X8232120Y-6870939D01*
X8232120Y-6835379D02*
X8196560Y-6870939D01*
X8196560Y-8940380D02*
X8232120Y-8975940D01*
X8232120Y-8940380D02*
X8196560Y-8975940D01*
X8196560Y-11045380D02*
X8232120Y-11080940D01*
X8232120Y-11045380D02*
X8196560Y-11080940D01*
X8196560Y-13150379D02*
X8232120Y-13185939D01*
X8232120Y-13150379D02*
X8196560Y-13185939D01*
X8209545Y-4803192D02*
X8245105Y-4838752D01*
X8245105Y-4803192D02*
X8209545Y-4838752D01*
X8209545Y-6908192D02*
X8245105Y-6943752D01*
X8245105Y-6908192D02*
X8209545Y-6943752D01*
X8209545Y-9013192D02*
X8245105Y-9048752D01*
X8245105Y-9013192D02*
X8209545Y-9048752D01*
X8209545Y-11118192D02*
X8245105Y-11153752D01*
X8245105Y-11118192D02*
X8209545Y-11153752D01*
X8209545Y-13223192D02*
X8245105Y-13258752D01*
X8245105Y-13223192D02*
X8209545Y-13258752D01*
X8211794Y-5434881D02*
X8247354Y-5470441D01*
X8247354Y-5434881D02*
X8211794Y-5470441D01*
X8211794Y-7539881D02*
X8247354Y-7575441D01*
X8247354Y-7539881D02*
X8211794Y-7575441D01*
X8211794Y-9644881D02*
X8247354Y-9680441D01*
X8247354Y-9644881D02*
X8211794Y-9680441D01*
X8211794Y-11749881D02*
X8247354Y-11785441D01*
X8247354Y-11749881D02*
X8211794Y-11785441D01*
X8211794Y-13854881D02*
X8247354Y-13890441D01*
X8247354Y-13854881D02*
X8211794Y-13890441D01*
X8232775Y-5664225D02*
X8268335Y-5699785D01*
X8268335Y-5664225D02*
X8232775Y-5699785D01*
X8232775Y-7769225D02*
X8268335Y-7804785D01*
X8268335Y-7769225D02*
X8232775Y-7804785D01*
X8232775Y-9874225D02*
X8268335Y-9909785D01*
X8268335Y-9874225D02*
X8232775Y-9909785D01*
X8232775Y-11979225D02*
X8268335Y-12014785D01*
X8268335Y-11979225D02*
X8232775Y-12014785D01*
X8232775Y-14084225D02*
X8268335Y-14119785D01*
X8268335Y-14084225D02*
X8232775Y-14119785D01*
X8239561Y-4431521D02*
X8275121Y-4467081D01*
X8275121Y-4431521D02*
X8239561Y-4467081D01*
X8239561Y-4622825D02*
X8275121Y-4658385D01*
X8275121Y-4622825D02*
X8239561Y-4658385D01*
X8239561Y-6536521D02*
X8275121Y-6572081D01*
X8275121Y-6536521D02*
X8239561Y-6572081D01*
X8239561Y-6727825D02*
X8275121Y-6763385D01*
X8275121Y-6727825D02*
X8239561Y-6763385D01*
X8239561Y-8641521D02*
X8275121Y-8677081D01*
X8275121Y-8641521D02*
X8239561Y-8677081D01*
X8239561Y-8832825D02*
X8275121Y-8868385D01*
X8275121Y-8832825D02*
X8239561Y-8868385D01*
X8239561Y-10746521D02*
X8275121Y-10782081D01*
X8275121Y-10746521D02*
X8239561Y-10782081D01*
X8239561Y-10937825D02*
X8275121Y-10973385D01*
X8275121Y-10937825D02*
X8239561Y-10973385D01*
X8239561Y-12851521D02*
X8275121Y-12887081D01*
X8275121Y-12851521D02*
X8239561Y-12887081D01*
X8239561Y-13042825D02*
X8275121Y-13078385D01*
X8275121Y-13042825D02*
X8239561Y-13078385D01*
X8245238Y-5359425D02*
X8280798Y-5394985D01*
X8280798Y-5359425D02*
X8245238Y-5394985D01*
X8245238Y-7464425D02*
X8280798Y-7499985D01*
X8280798Y-7464425D02*
X8245238Y-7499985D01*
X8245238Y-9569425D02*
X8280798Y-9604985D01*
X8280798Y-9569425D02*
X8245238Y-9604985D01*
X8245238Y-11674425D02*
X8280798Y-11709985D01*
X8280798Y-11674425D02*
X8245238Y-11709985D01*
X8245238Y-13779425D02*
X8280798Y-13814985D01*
X8280798Y-13779425D02*
X8245238Y-13814985D01*
X8261349Y-4915119D02*
X8296909Y-4950679D01*
X8296909Y-4915119D02*
X8261349Y-4950679D01*
X8261349Y-7020119D02*
X8296909Y-7055679D01*
X8296909Y-7020119D02*
X8261349Y-7055679D01*
X8261349Y-9125119D02*
X8296909Y-9160679D01*
X8296909Y-9125119D02*
X8261349Y-9160679D01*
X8261349Y-11230119D02*
X8296909Y-11265679D01*
X8296909Y-11230119D02*
X8261349Y-11265679D01*
X8261349Y-13335119D02*
X8296909Y-13370679D01*
X8296909Y-13335119D02*
X8261349Y-13370679D01*
X8275539Y-5241308D02*
X8311099Y-5276868D01*
X8311099Y-5241308D02*
X8275539Y-5276868D01*
X8275539Y-7346308D02*
X8311099Y-7381868D01*
X8311099Y-7346308D02*
X8275539Y-7381868D01*
X8275539Y-9451308D02*
X8311099Y-9486868D01*
X8311099Y-9451308D02*
X8275539Y-9486868D01*
X8275539Y-11556308D02*
X8311099Y-11591868D01*
X8311099Y-11556308D02*
X8275539Y-11591868D01*
X8275539Y-13661308D02*
X8311099Y-13696868D01*
X8311099Y-13661308D02*
X8275539Y-13696868D01*
X8968826Y-5437873D02*
X9004386Y-5473433D01*
X9004386Y-5437873D02*
X8968826Y-5473433D01*
X8968826Y-7542873D02*
X9004386Y-7578433D01*
X9004386Y-7542873D02*
X8968826Y-7578433D01*
X8968826Y-9647873D02*
X9004386Y-9683433D01*
X9004386Y-9647873D02*
X8968826Y-9683433D01*
X8968826Y-11752873D02*
X9004386Y-11788433D01*
X9004386Y-11752873D02*
X8968826Y-11788433D01*
X8968826Y-13857873D02*
X9004386Y-13893433D01*
X9004386Y-13857873D02*
X8968826Y-13893433D01*
X8969200Y-4636097D02*
X9004760Y-4671657D01*
X9004760Y-4636097D02*
X8969200Y-4671657D01*
X8969200Y-6741097D02*
X9004760Y-6776657D01*
X9004760Y-6741097D02*
X8969200Y-6776657D01*
X8969200Y-8846097D02*
X9004760Y-8881657D01*
X9004760Y-8846097D02*
X8969200Y-8881657D01*
X8969200Y-10951097D02*
X9004760Y-10986657D01*
X9004760Y-10951097D02*
X8969200Y-10986657D01*
X8969200Y-13056097D02*
X9004760Y-13091657D01*
X9004760Y-13056097D02*
X8969200Y-13091657D01*
X8969955Y-4902225D02*
X9005515Y-4937785D01*
X9005515Y-4902225D02*
X8969955Y-4937785D01*
X8969955Y-7007225D02*
X9005515Y-7042785D01*
X9005515Y-7007225D02*
X8969955Y-7042785D01*
X8969955Y-9112225D02*
X9005515Y-9147785D01*
X9005515Y-9112225D02*
X8969955Y-9147785D01*
X8969955Y-11217225D02*
X9005515Y-11252785D01*
X9005515Y-11217225D02*
X8969955Y-11252785D01*
X8969955Y-13322225D02*
X9005515Y-13357785D01*
X9005515Y-13322225D02*
X8969955Y-13357785D01*
X8969955Y-4777640D02*
X9005515Y-4813200D01*
X9005515Y-4777640D02*
X8969955Y-4813200D01*
X8969955Y-6882640D02*
X9005515Y-6918200D01*
X9005515Y-6882640D02*
X8969955Y-6918200D01*
X8969955Y-8987640D02*
X9005515Y-9023200D01*
X9005515Y-8987640D02*
X8969955Y-9023200D01*
X8969955Y-11092640D02*
X9005515Y-11128200D01*
X9005515Y-11092640D02*
X8969955Y-11128200D01*
X8969955Y-13197640D02*
X9005515Y-13233200D01*
X9005515Y-13197640D02*
X8969955Y-13233200D01*
X8969959Y-5511825D02*
X9005519Y-5547385D01*
X9005519Y-5511825D02*
X8969959Y-5547385D01*
X8969959Y-7616825D02*
X9005519Y-7652385D01*
X9005519Y-7616825D02*
X8969959Y-7652385D01*
X8969959Y-9721825D02*
X9005519Y-9757385D01*
X9005519Y-9721825D02*
X8969959Y-9757385D01*
X8969959Y-11826825D02*
X9005519Y-11862385D01*
X9005519Y-11826825D02*
X8969959Y-11862385D01*
X8969959Y-13931825D02*
X9005519Y-13967385D01*
X9005519Y-13931825D02*
X8969959Y-13967385D01*
X8970499Y-5669213D02*
X9006059Y-5704773D01*
X9006059Y-5669213D02*
X8970499Y-5704773D01*
X8970499Y-7774213D02*
X9006059Y-7809773D01*
X9006059Y-7774213D02*
X8970499Y-7809773D01*
X8970499Y-9879213D02*
X9006059Y-9914773D01*
X9006059Y-9879213D02*
X8970499Y-9914773D01*
X8970499Y-11984213D02*
X9006059Y-12019773D01*
X9006059Y-11984213D02*
X8970499Y-12019773D01*
X8970499Y-14089213D02*
X9006059Y-14124773D01*
X9006059Y-14089213D02*
X8970499Y-14124773D01*
X8978875Y-5207025D02*
X9014435Y-5242585D01*
X9014435Y-5207025D02*
X8978875Y-5242585D01*
X8978875Y-7312025D02*
X9014435Y-7347585D01*
X9014435Y-7312025D02*
X8978875Y-7347585D01*
X8978875Y-9417025D02*
X9014435Y-9452585D01*
X9014435Y-9417025D02*
X8978875Y-9452585D01*
X8978875Y-11522025D02*
X9014435Y-11557585D01*
X9014435Y-11522025D02*
X8978875Y-11557585D01*
X8978875Y-13627025D02*
X9014435Y-13662585D01*
X9014435Y-13627025D02*
X8978875Y-13662585D01*
X8986394Y-5029225D02*
X9021954Y-5064785D01*
X9021954Y-5029225D02*
X8986394Y-5064785D01*
X8986394Y-7134225D02*
X9021954Y-7169785D01*
X9021954Y-7134225D02*
X8986394Y-7169785D01*
X8986394Y-9239225D02*
X9021954Y-9274785D01*
X9021954Y-9239225D02*
X8986394Y-9274785D01*
X8986394Y-11344225D02*
X9021954Y-11379785D01*
X9021954Y-11344225D02*
X8986394Y-11379785D01*
X8986394Y-13449225D02*
X9021954Y-13484785D01*
X9021954Y-13449225D02*
X8986394Y-13484785D01*
X8991575Y-4406925D02*
X9027135Y-4442485D01*
X9027135Y-4406925D02*
X8991575Y-4442485D01*
X8991575Y-6511925D02*
X9027135Y-6547485D01*
X9027135Y-6511925D02*
X8991575Y-6547485D01*
X8991575Y-8616925D02*
X9027135Y-8652485D01*
X9027135Y-8616925D02*
X8991575Y-8652485D01*
X8991575Y-10721925D02*
X9027135Y-10757485D01*
X9027135Y-10721925D02*
X8991575Y-10757485D01*
X8991575Y-12826925D02*
X9027135Y-12862485D01*
X9027135Y-12826925D02*
X8991575Y-12862485D01*
X9031656Y-5270525D02*
X9067216Y-5306085D01*
X9067216Y-5270525D02*
X9031656Y-5306085D01*
X9031656Y-7375525D02*
X9067216Y-7411085D01*
X9067216Y-7375525D02*
X9031656Y-7411085D01*
X9031656Y-9480525D02*
X9067216Y-9516085D01*
X9067216Y-9480525D02*
X9031656Y-9516085D01*
X9031656Y-11585525D02*
X9067216Y-11621085D01*
X9067216Y-11585525D02*
X9031656Y-11621085D01*
X9031656Y-13690525D02*
X9067216Y-13726085D01*
X9067216Y-13690525D02*
X9031656Y-13726085D01*
X9066343Y-4303894D02*
X9101903Y-4339454D01*
X9101903Y-4303894D02*
X9066343Y-4339454D01*
X9066343Y-6408894D02*
X9101903Y-6444454D01*
X9101903Y-6408894D02*
X9066343Y-6444454D01*
X9066343Y-8513894D02*
X9101903Y-8549454D01*
X9101903Y-8513894D02*
X9066343Y-8549454D01*
X9066343Y-10618894D02*
X9101903Y-10654454D01*
X9101903Y-10618894D02*
X9066343Y-10654454D01*
X9066343Y-12723894D02*
X9101903Y-12759454D01*
X9101903Y-12723894D02*
X9066343Y-12759454D01*
X9108705Y-4903472D02*
X9144265Y-4939032D01*
X9144265Y-4903472D02*
X9108705Y-4939032D01*
X9108705Y-7008472D02*
X9144265Y-7044032D01*
X9144265Y-7008472D02*
X9108705Y-7044032D01*
X9108705Y-9113472D02*
X9144265Y-9149032D01*
X9144265Y-9113472D02*
X9108705Y-9149032D01*
X9108705Y-11218472D02*
X9144265Y-11254032D01*
X9144265Y-11218472D02*
X9108705Y-11254032D01*
X9108705Y-13323472D02*
X9144265Y-13359032D01*
X9144265Y-13323472D02*
X9108705Y-13359032D01*
X9121481Y-5615344D02*
X9157041Y-5650904D01*
X9157041Y-5615344D02*
X9121481Y-5650904D01*
X9121481Y-7720344D02*
X9157041Y-7755904D01*
X9157041Y-7720344D02*
X9121481Y-7755904D01*
X9121481Y-9825344D02*
X9157041Y-9860904D01*
X9157041Y-9825344D02*
X9121481Y-9860904D01*
X9121481Y-11930344D02*
X9157041Y-11965904D01*
X9157041Y-11930344D02*
X9121481Y-11965904D01*
X9121481Y-14035344D02*
X9157041Y-14070904D01*
X9157041Y-14035344D02*
X9121481Y-14070904D01*
X9131275Y-5461025D02*
X9166835Y-5496585D01*
X9166835Y-5461025D02*
X9131275Y-5496585D01*
X9131275Y-7566025D02*
X9166835Y-7601585D01*
X9166835Y-7566025D02*
X9131275Y-7601585D01*
X9131275Y-9671025D02*
X9166835Y-9706585D01*
X9166835Y-9671025D02*
X9131275Y-9706585D01*
X9131275Y-11776025D02*
X9166835Y-11811585D01*
X9166835Y-11776025D02*
X9131275Y-11811585D01*
X9131275Y-13881025D02*
X9166835Y-13916585D01*
X9166835Y-13881025D02*
X9131275Y-13916585D01*
X9131279Y-4699025D02*
X9166839Y-4734585D01*
X9166839Y-4699025D02*
X9131279Y-4734585D01*
X9131279Y-6804025D02*
X9166839Y-6839585D01*
X9166839Y-6804025D02*
X9131279Y-6839585D01*
X9131279Y-8909025D02*
X9166839Y-8944585D01*
X9166839Y-8909025D02*
X9131279Y-8944585D01*
X9131279Y-11014025D02*
X9166839Y-11049585D01*
X9166839Y-11014025D02*
X9131279Y-11049585D01*
X9131279Y-13119025D02*
X9166839Y-13154585D01*
X9166839Y-13119025D02*
X9131279Y-13154585D01*
X9145578Y-5294507D02*
X9181138Y-5330067D01*
X9181138Y-5294507D02*
X9145578Y-5330067D01*
X9145578Y-7399507D02*
X9181138Y-7435067D01*
X9181138Y-7399507D02*
X9145578Y-7435067D01*
X9145578Y-9504507D02*
X9181138Y-9540067D01*
X9181138Y-9504507D02*
X9145578Y-9540067D01*
X9145578Y-11609507D02*
X9181138Y-11645067D01*
X9181138Y-11609507D02*
X9145578Y-11645067D01*
X9145578Y-13714507D02*
X9181138Y-13750067D01*
X9181138Y-13714507D02*
X9145578Y-13750067D01*
X9306678Y-4549022D02*
X9342238Y-4584582D01*
X9342238Y-4549022D02*
X9306678Y-4584582D01*
X9306678Y-6654022D02*
X9342238Y-6689582D01*
X9342238Y-6654022D02*
X9306678Y-6689582D01*
X9306678Y-8759022D02*
X9342238Y-8794582D01*
X9342238Y-8759022D02*
X9306678Y-8794582D01*
X9306678Y-10864022D02*
X9342238Y-10899582D01*
X9342238Y-10864022D02*
X9306678Y-10899582D01*
X9306678Y-12969022D02*
X9342238Y-13004582D01*
X9342238Y-12969022D02*
X9306678Y-13004582D01*
X9321775Y-4978425D02*
X9357335Y-5013985D01*
X9357335Y-4978425D02*
X9321775Y-5013985D01*
X9321775Y-7083425D02*
X9357335Y-7118985D01*
X9357335Y-7083425D02*
X9321775Y-7118985D01*
X9321775Y-9188425D02*
X9357335Y-9223985D01*
X9357335Y-9188425D02*
X9321775Y-9223985D01*
X9321775Y-11293425D02*
X9357335Y-11328985D01*
X9357335Y-11293425D02*
X9321775Y-11328985D01*
X9321775Y-13398425D02*
X9357335Y-13433985D01*
X9357335Y-13398425D02*
X9321775Y-13433985D01*
X9347175Y-4478106D02*
X9382735Y-4513666D01*
X9382735Y-4478106D02*
X9347175Y-4513666D01*
X9347175Y-6583106D02*
X9382735Y-6618666D01*
X9382735Y-6583106D02*
X9347175Y-6618666D01*
X9347175Y-8688106D02*
X9382735Y-8723666D01*
X9382735Y-8688106D02*
X9347175Y-8723666D01*
X9347175Y-10793106D02*
X9382735Y-10828666D01*
X9382735Y-10793106D02*
X9347175Y-10828666D01*
X9347175Y-12898106D02*
X9382735Y-12933666D01*
X9382735Y-12898106D02*
X9347175Y-12933666D01*
X9410675Y-5130825D02*
X9446235Y-5166385D01*
X9446235Y-5130825D02*
X9410675Y-5166385D01*
X9410675Y-7235825D02*
X9446235Y-7271385D01*
X9446235Y-7235825D02*
X9410675Y-7271385D01*
X9410675Y-9340825D02*
X9446235Y-9376385D01*
X9446235Y-9340825D02*
X9410675Y-9376385D01*
X9410675Y-11445825D02*
X9446235Y-11481385D01*
X9446235Y-11445825D02*
X9410675Y-11481385D01*
X9410675Y-13550825D02*
X9446235Y-13586385D01*
X9446235Y-13550825D02*
X9410675Y-13586385D01*
X9426230Y-4276276D02*
X9461790Y-4311836D01*
X9461790Y-4276276D02*
X9426230Y-4311836D01*
X9426230Y-6381276D02*
X9461790Y-6416836D01*
X9461790Y-6381276D02*
X9426230Y-6416836D01*
X9426230Y-8486276D02*
X9461790Y-8521836D01*
X9461790Y-8486276D02*
X9426230Y-8521836D01*
X9426230Y-10591276D02*
X9461790Y-10626836D01*
X9461790Y-10591276D02*
X9426230Y-10626836D01*
X9426230Y-12696276D02*
X9461790Y-12731836D01*
X9461790Y-12696276D02*
X9426230Y-12731836D01*
X9474175Y-4826025D02*
X9509735Y-4861585D01*
X9509735Y-4826025D02*
X9474175Y-4861585D01*
X9474175Y-6931025D02*
X9509735Y-6966585D01*
X9509735Y-6931025D02*
X9474175Y-6966585D01*
X9474175Y-9036025D02*
X9509735Y-9071585D01*
X9509735Y-9036025D02*
X9474175Y-9071585D01*
X9474175Y-11141025D02*
X9509735Y-11176585D01*
X9509735Y-11141025D02*
X9474175Y-11176585D01*
X9474175Y-13246025D02*
X9509735Y-13281585D01*
X9509735Y-13246025D02*
X9474175Y-13281585D01*
X9620083Y-4560290D02*
X9655643Y-4595850D01*
X9655643Y-4560290D02*
X9620083Y-4595850D01*
X9620083Y-6665290D02*
X9655643Y-6700850D01*
X9655643Y-6665290D02*
X9620083Y-6700850D01*
X9620083Y-8770290D02*
X9655643Y-8805850D01*
X9655643Y-8770290D02*
X9620083Y-8805850D01*
X9620083Y-10875290D02*
X9655643Y-10910850D01*
X9655643Y-10875290D02*
X9620083Y-10910850D01*
X9620083Y-12980290D02*
X9655643Y-13015850D01*
X9655643Y-12980290D02*
X9620083Y-13015850D01*
X9651975Y-4292625D02*
X9687535Y-4328185D01*
X9687535Y-4292625D02*
X9651975Y-4328185D01*
X9651975Y-6397625D02*
X9687535Y-6433185D01*
X9687535Y-6397625D02*
X9651975Y-6433185D01*
X9651975Y-8502625D02*
X9687535Y-8538185D01*
X9687535Y-8502625D02*
X9651975Y-8538185D01*
X9651975Y-10607625D02*
X9687535Y-10643185D01*
X9687535Y-10607625D02*
X9651975Y-10643185D01*
X9651975Y-12712625D02*
X9687535Y-12748185D01*
X9687535Y-12712625D02*
X9651975Y-12748185D01*
X9702707Y-4833696D02*
X9738267Y-4869256D01*
X9738267Y-4833696D02*
X9702707Y-4869256D01*
X9702707Y-6938696D02*
X9738267Y-6974256D01*
X9738267Y-6938696D02*
X9702707Y-6974256D01*
X9702707Y-9043696D02*
X9738267Y-9079256D01*
X9738267Y-9043696D02*
X9702707Y-9079256D01*
X9702707Y-11148696D02*
X9738267Y-11184256D01*
X9738267Y-11148696D02*
X9702707Y-11184256D01*
X9702707Y-13253696D02*
X9738267Y-13289256D01*
X9738267Y-13253696D02*
X9702707Y-13289256D01*
X9781824Y-4611093D02*
X9817384Y-4646653D01*
X9817384Y-4611093D02*
X9781824Y-4646653D01*
X9781824Y-6716093D02*
X9817384Y-6751653D01*
X9817384Y-6716093D02*
X9781824Y-6751653D01*
X9781824Y-8821093D02*
X9817384Y-8856653D01*
X9817384Y-8821093D02*
X9781824Y-8856653D01*
X9781824Y-10926093D02*
X9817384Y-10961653D01*
X9817384Y-10926093D02*
X9781824Y-10961653D01*
X9781824Y-13031093D02*
X9817384Y-13066653D01*
X9817384Y-13031093D02*
X9781824Y-13066653D01*
X9931375Y-5308625D02*
X9966935Y-5344185D01*
X9966935Y-5308625D02*
X9931375Y-5344185D01*
X9931375Y-7413625D02*
X9966935Y-7449185D01*
X9966935Y-7413625D02*
X9931375Y-7449185D01*
X9931375Y-9518625D02*
X9966935Y-9554185D01*
X9966935Y-9518625D02*
X9931375Y-9554185D01*
X9931375Y-11623625D02*
X9966935Y-11659185D01*
X9966935Y-11623625D02*
X9931375Y-11659185D01*
X9931375Y-13728625D02*
X9966935Y-13764185D01*
X9966935Y-13728625D02*
X9931375Y-13764185D01*
X9982175Y-4076725D02*
X10017735Y-4112285D01*
X10017735Y-4076725D02*
X9982175Y-4112285D01*
X9982175Y-6181725D02*
X10017735Y-6217285D01*
X10017735Y-6181725D02*
X9982175Y-6217285D01*
X9982175Y-8286725D02*
X10017735Y-8322285D01*
X10017735Y-8286725D02*
X9982175Y-8322285D01*
X9982175Y-10391725D02*
X10017735Y-10427285D01*
X10017735Y-10391725D02*
X9982175Y-10427285D01*
X9982175Y-12496725D02*
X10017735Y-12532285D01*
X10017735Y-12496725D02*
X9982175Y-12532285D01*
X9987313Y-4150508D02*
X10022873Y-4186068D01*
X10022873Y-4150508D02*
X9987313Y-4186068D01*
X9987313Y-6255508D02*
X10022873Y-6291068D01*
X10022873Y-6255508D02*
X9987313Y-6291068D01*
X9987313Y-8360508D02*
X10022873Y-8396068D01*
X10022873Y-8360508D02*
X9987313Y-8396068D01*
X9987313Y-10465508D02*
X10022873Y-10501068D01*
X10022873Y-10465508D02*
X9987313Y-10501068D01*
X9987313Y-12570508D02*
X10022873Y-12606068D01*
X10022873Y-12570508D02*
X9987313Y-12606068D01*
X10010403Y-5190028D02*
X10045963Y-5225588D01*
X10045963Y-5190028D02*
X10010403Y-5225588D01*
X10010403Y-7295028D02*
X10045963Y-7330588D01*
X10045963Y-7295028D02*
X10010403Y-7330588D01*
X10010403Y-9400028D02*
X10045963Y-9435588D01*
X10045963Y-9400028D02*
X10010403Y-9435588D01*
X10010403Y-11505028D02*
X10045963Y-11540588D01*
X10045963Y-11505028D02*
X10010403Y-11540588D01*
X10010403Y-13610028D02*
X10045963Y-13645588D01*
X10045963Y-13610028D02*
X10010403Y-13645588D01*
X10088794Y-4373609D02*
X10124354Y-4409169D01*
X10124354Y-4373609D02*
X10088794Y-4409169D01*
X10088794Y-6478609D02*
X10124354Y-6514169D01*
X10124354Y-6478609D02*
X10088794Y-6514169D01*
X10088794Y-8583609D02*
X10124354Y-8619169D01*
X10124354Y-8583609D02*
X10088794Y-8619169D01*
X10088794Y-10688609D02*
X10124354Y-10724169D01*
X10124354Y-10688609D02*
X10088794Y-10724169D01*
X10088794Y-12793609D02*
X10124354Y-12829169D01*
X10124354Y-12793609D02*
X10088794Y-12829169D01*
X10134338Y-5342642D02*
X10169898Y-5378202D01*
X10169898Y-5342642D02*
X10134338Y-5378202D01*
X10134338Y-7447642D02*
X10169898Y-7483202D01*
X10169898Y-7447642D02*
X10134338Y-7483202D01*
X10134338Y-9552642D02*
X10169898Y-9588202D01*
X10169898Y-9552642D02*
X10134338Y-9588202D01*
X10134338Y-11657642D02*
X10169898Y-11693202D01*
X10169898Y-11657642D02*
X10134338Y-11693202D01*
X10134338Y-13762642D02*
X10169898Y-13798202D01*
X10169898Y-13762642D02*
X10134338Y-13798202D01*
X10301560Y-4730380D02*
X10337120Y-4765940D01*
X10337120Y-4730380D02*
X10301560Y-4765940D01*
X10301560Y-6835379D02*
X10337120Y-6870939D01*
X10337120Y-6835379D02*
X10301560Y-6870939D01*
X10301560Y-8940380D02*
X10337120Y-8975940D01*
X10337120Y-8940380D02*
X10301560Y-8975940D01*
X10301560Y-11045380D02*
X10337120Y-11080940D01*
X10337120Y-11045380D02*
X10301560Y-11080940D01*
X10301560Y-13150379D02*
X10337120Y-13185939D01*
X10337120Y-13150379D02*
X10301560Y-13185939D01*
X10314545Y-4803192D02*
X10350105Y-4838752D01*
X10350105Y-4803192D02*
X10314545Y-4838752D01*
X10314545Y-6908192D02*
X10350105Y-6943752D01*
X10350105Y-6908192D02*
X10314545Y-6943752D01*
X10314545Y-9013192D02*
X10350105Y-9048752D01*
X10350105Y-9013192D02*
X10314545Y-9048752D01*
X10314545Y-11118192D02*
X10350105Y-11153752D01*
X10350105Y-11118192D02*
X10314545Y-11153752D01*
X10314545Y-13223192D02*
X10350105Y-13258752D01*
X10350105Y-13223192D02*
X10314545Y-13258752D01*
X10316794Y-5434881D02*
X10352354Y-5470441D01*
X10352354Y-5434881D02*
X10316794Y-5470441D01*
X10316794Y-7539881D02*
X10352354Y-7575441D01*
X10352354Y-7539881D02*
X10316794Y-7575441D01*
X10316794Y-9644881D02*
X10352354Y-9680441D01*
X10352354Y-9644881D02*
X10316794Y-9680441D01*
X10316794Y-11749881D02*
X10352354Y-11785441D01*
X10352354Y-11749881D02*
X10316794Y-11785441D01*
X10316794Y-13854881D02*
X10352354Y-13890441D01*
X10352354Y-13854881D02*
X10316794Y-13890441D01*
X10337775Y-5664225D02*
X10373335Y-5699785D01*
X10373335Y-5664225D02*
X10337775Y-5699785D01*
X10337775Y-7769225D02*
X10373335Y-7804785D01*
X10373335Y-7769225D02*
X10337775Y-7804785D01*
X10337775Y-9874225D02*
X10373335Y-9909785D01*
X10373335Y-9874225D02*
X10337775Y-9909785D01*
X10337775Y-11979225D02*
X10373335Y-12014785D01*
X10373335Y-11979225D02*
X10337775Y-12014785D01*
X10337775Y-14084225D02*
X10373335Y-14119785D01*
X10373335Y-14084225D02*
X10337775Y-14119785D01*
X10344561Y-4431521D02*
X10380121Y-4467081D01*
X10380121Y-4431521D02*
X10344561Y-4467081D01*
X10344561Y-4622825D02*
X10380121Y-4658385D01*
X10380121Y-4622825D02*
X10344561Y-4658385D01*
X10344561Y-6536521D02*
X10380121Y-6572081D01*
X10380121Y-6536521D02*
X10344561Y-6572081D01*
X10344561Y-6727825D02*
X10380121Y-6763385D01*
X10380121Y-6727825D02*
X10344561Y-6763385D01*
X10344561Y-8641521D02*
X10380121Y-8677081D01*
X10380121Y-8641521D02*
X10344561Y-8677081D01*
X10344561Y-8832825D02*
X10380121Y-8868385D01*
X10380121Y-8832825D02*
X10344561Y-8868385D01*
X10344561Y-10746521D02*
X10380121Y-10782081D01*
X10380121Y-10746521D02*
X10344561Y-10782081D01*
X10344561Y-10937825D02*
X10380121Y-10973385D01*
X10380121Y-10937825D02*
X10344561Y-10973385D01*
X10344561Y-12851521D02*
X10380121Y-12887081D01*
X10380121Y-12851521D02*
X10344561Y-12887081D01*
X10344561Y-13042825D02*
X10380121Y-13078385D01*
X10380121Y-13042825D02*
X10344561Y-13078385D01*
X10350238Y-5359425D02*
X10385798Y-5394985D01*
X10385798Y-5359425D02*
X10350238Y-5394985D01*
X10350238Y-7464425D02*
X10385798Y-7499985D01*
X10385798Y-7464425D02*
X10350238Y-7499985D01*
X10350238Y-9569425D02*
X10385798Y-9604985D01*
X10385798Y-9569425D02*
X10350238Y-9604985D01*
X10350238Y-11674425D02*
X10385798Y-11709985D01*
X10385798Y-11674425D02*
X10350238Y-11709985D01*
X10350238Y-13779425D02*
X10385798Y-13814985D01*
X10385798Y-13779425D02*
X10350238Y-13814985D01*
X10366349Y-4915119D02*
X10401909Y-4950679D01*
X10401909Y-4915119D02*
X10366349Y-4950679D01*
X10366349Y-7020119D02*
X10401909Y-7055679D01*
X10401909Y-7020119D02*
X10366349Y-7055679D01*
X10366349Y-9125119D02*
X10401909Y-9160679D01*
X10401909Y-9125119D02*
X10366349Y-9160679D01*
X10366349Y-11230119D02*
X10401909Y-11265679D01*
X10401909Y-11230119D02*
X10366349Y-11265679D01*
X10366349Y-13335119D02*
X10401909Y-13370679D01*
X10401909Y-13335119D02*
X10366349Y-13370679D01*
X10380539Y-5241308D02*
X10416099Y-5276868D01*
X10416099Y-5241308D02*
X10380539Y-5276868D01*
X10380539Y-7346308D02*
X10416099Y-7381868D01*
X10416099Y-7346308D02*
X10380539Y-7381868D01*
X10380539Y-9451308D02*
X10416099Y-9486868D01*
X10416099Y-9451308D02*
X10380539Y-9486868D01*
X10380539Y-11556308D02*
X10416099Y-11591868D01*
X10416099Y-11556308D02*
X10380539Y-11591868D01*
X10380539Y-13661308D02*
X10416099Y-13696868D01*
X10416099Y-13661308D02*
X10380539Y-13696868D01*
X11073826Y-5437873D02*
X11109386Y-5473433D01*
X11109386Y-5437873D02*
X11073826Y-5473433D01*
X11073826Y-7542873D02*
X11109386Y-7578433D01*
X11109386Y-7542873D02*
X11073826Y-7578433D01*
X11073826Y-9647873D02*
X11109386Y-9683433D01*
X11109386Y-9647873D02*
X11073826Y-9683433D01*
X11073826Y-11752873D02*
X11109386Y-11788433D01*
X11109386Y-11752873D02*
X11073826Y-11788433D01*
X11073826Y-13857873D02*
X11109386Y-13893433D01*
X11109386Y-13857873D02*
X11073826Y-13893433D01*
X11074200Y-4636097D02*
X11109760Y-4671657D01*
X11109760Y-4636097D02*
X11074200Y-4671657D01*
X11074200Y-6741097D02*
X11109760Y-6776657D01*
X11109760Y-6741097D02*
X11074200Y-6776657D01*
X11074200Y-8846097D02*
X11109760Y-8881657D01*
X11109760Y-8846097D02*
X11074200Y-8881657D01*
X11074200Y-10951097D02*
X11109760Y-10986657D01*
X11109760Y-10951097D02*
X11074200Y-10986657D01*
X11074200Y-13056097D02*
X11109760Y-13091657D01*
X11109760Y-13056097D02*
X11074200Y-13091657D01*
X11074955Y-4902225D02*
X11110515Y-4937785D01*
X11110515Y-4902225D02*
X11074955Y-4937785D01*
X11074955Y-7007225D02*
X11110515Y-7042785D01*
X11110515Y-7007225D02*
X11074955Y-7042785D01*
X11074955Y-9112225D02*
X11110515Y-9147785D01*
X11110515Y-9112225D02*
X11074955Y-9147785D01*
X11074955Y-11217225D02*
X11110515Y-11252785D01*
X11110515Y-11217225D02*
X11074955Y-11252785D01*
X11074955Y-13322225D02*
X11110515Y-13357785D01*
X11110515Y-13322225D02*
X11074955Y-13357785D01*
X11074955Y-4777640D02*
X11110515Y-4813200D01*
X11110515Y-4777640D02*
X11074955Y-4813200D01*
X11074955Y-6882640D02*
X11110515Y-6918200D01*
X11110515Y-6882640D02*
X11074955Y-6918200D01*
X11074955Y-8987640D02*
X11110515Y-9023200D01*
X11110515Y-8987640D02*
X11074955Y-9023200D01*
X11074955Y-11092640D02*
X11110515Y-11128200D01*
X11110515Y-11092640D02*
X11074955Y-11128200D01*
X11074955Y-13197640D02*
X11110515Y-13233200D01*
X11110515Y-13197640D02*
X11074955Y-13233200D01*
X11074959Y-5511825D02*
X11110519Y-5547385D01*
X11110519Y-5511825D02*
X11074959Y-5547385D01*
X11074959Y-7616825D02*
X11110519Y-7652385D01*
X11110519Y-7616825D02*
X11074959Y-7652385D01*
X11074959Y-9721825D02*
X11110519Y-9757385D01*
X11110519Y-9721825D02*
X11074959Y-9757385D01*
X11074959Y-11826825D02*
X11110519Y-11862385D01*
X11110519Y-11826825D02*
X11074959Y-11862385D01*
X11074959Y-13931825D02*
X11110519Y-13967385D01*
X11110519Y-13931825D02*
X11074959Y-13967385D01*
X11075499Y-5669213D02*
X11111059Y-5704773D01*
X11111059Y-5669213D02*
X11075499Y-5704773D01*
X11075499Y-7774213D02*
X11111059Y-7809773D01*
X11111059Y-7774213D02*
X11075499Y-7809773D01*
X11075499Y-9879213D02*
X11111059Y-9914773D01*
X11111059Y-9879213D02*
X11075499Y-9914773D01*
X11075499Y-11984213D02*
X11111059Y-12019773D01*
X11111059Y-11984213D02*
X11075499Y-12019773D01*
X11075499Y-14089213D02*
X11111059Y-14124773D01*
X11111059Y-14089213D02*
X11075499Y-14124773D01*
X11083875Y-5207025D02*
X11119435Y-5242585D01*
X11119435Y-5207025D02*
X11083875Y-5242585D01*
X11083875Y-7312025D02*
X11119435Y-7347585D01*
X11119435Y-7312025D02*
X11083875Y-7347585D01*
X11083875Y-9417025D02*
X11119435Y-9452585D01*
X11119435Y-9417025D02*
X11083875Y-9452585D01*
X11083875Y-11522025D02*
X11119435Y-11557585D01*
X11119435Y-11522025D02*
X11083875Y-11557585D01*
X11083875Y-13627025D02*
X11119435Y-13662585D01*
X11119435Y-13627025D02*
X11083875Y-13662585D01*
X11091394Y-5029225D02*
X11126954Y-5064785D01*
X11126954Y-5029225D02*
X11091394Y-5064785D01*
X11091394Y-7134225D02*
X11126954Y-7169785D01*
X11126954Y-7134225D02*
X11091394Y-7169785D01*
X11091394Y-9239225D02*
X11126954Y-9274785D01*
X11126954Y-9239225D02*
X11091394Y-9274785D01*
X11091394Y-11344225D02*
X11126954Y-11379785D01*
X11126954Y-11344225D02*
X11091394Y-11379785D01*
X11091394Y-13449225D02*
X11126954Y-13484785D01*
X11126954Y-13449225D02*
X11091394Y-13484785D01*
X11096575Y-4406925D02*
X11132135Y-4442485D01*
X11132135Y-4406925D02*
X11096575Y-4442485D01*
X11096575Y-6511925D02*
X11132135Y-6547485D01*
X11132135Y-6511925D02*
X11096575Y-6547485D01*
X11096575Y-8616925D02*
X11132135Y-8652485D01*
X11132135Y-8616925D02*
X11096575Y-8652485D01*
X11096575Y-10721925D02*
X11132135Y-10757485D01*
X11132135Y-10721925D02*
X11096575Y-10757485D01*
X11096575Y-12826925D02*
X11132135Y-12862485D01*
X11132135Y-12826925D02*
X11096575Y-12862485D01*
X11136656Y-5270525D02*
X11172216Y-5306085D01*
X11172216Y-5270525D02*
X11136656Y-5306085D01*
X11136656Y-7375525D02*
X11172216Y-7411085D01*
X11172216Y-7375525D02*
X11136656Y-7411085D01*
X11136656Y-9480525D02*
X11172216Y-9516085D01*
X11172216Y-9480525D02*
X11136656Y-9516085D01*
X11136656Y-11585525D02*
X11172216Y-11621085D01*
X11172216Y-11585525D02*
X11136656Y-11621085D01*
X11136656Y-13690525D02*
X11172216Y-13726085D01*
X11172216Y-13690525D02*
X11136656Y-13726085D01*
X11171343Y-4303894D02*
X11206903Y-4339454D01*
X11206903Y-4303894D02*
X11171343Y-4339454D01*
X11171343Y-6408894D02*
X11206903Y-6444454D01*
X11206903Y-6408894D02*
X11171343Y-6444454D01*
X11171343Y-8513894D02*
X11206903Y-8549454D01*
X11206903Y-8513894D02*
X11171343Y-8549454D01*
X11171343Y-10618894D02*
X11206903Y-10654454D01*
X11206903Y-10618894D02*
X11171343Y-10654454D01*
X11171343Y-12723894D02*
X11206903Y-12759454D01*
X11206903Y-12723894D02*
X11171343Y-12759454D01*
X11213705Y-4903472D02*
X11249265Y-4939032D01*
X11249265Y-4903472D02*
X11213705Y-4939032D01*
X11213705Y-7008472D02*
X11249265Y-7044032D01*
X11249265Y-7008472D02*
X11213705Y-7044032D01*
X11213705Y-9113472D02*
X11249265Y-9149032D01*
X11249265Y-9113472D02*
X11213705Y-9149032D01*
X11213705Y-11218472D02*
X11249265Y-11254032D01*
X11249265Y-11218472D02*
X11213705Y-11254032D01*
X11213705Y-13323472D02*
X11249265Y-13359032D01*
X11249265Y-13323472D02*
X11213705Y-13359032D01*
X11226481Y-5615344D02*
X11262041Y-5650904D01*
X11262041Y-5615344D02*
X11226481Y-5650904D01*
X11226481Y-7720344D02*
X11262041Y-7755904D01*
X11262041Y-7720344D02*
X11226481Y-7755904D01*
X11226481Y-9825344D02*
X11262041Y-9860904D01*
X11262041Y-9825344D02*
X11226481Y-9860904D01*
X11226481Y-11930344D02*
X11262041Y-11965904D01*
X11262041Y-11930344D02*
X11226481Y-11965904D01*
X11226481Y-14035344D02*
X11262041Y-14070904D01*
X11262041Y-14035344D02*
X11226481Y-14070904D01*
X11236275Y-5461025D02*
X11271835Y-5496585D01*
X11271835Y-5461025D02*
X11236275Y-5496585D01*
X11236275Y-7566025D02*
X11271835Y-7601585D01*
X11271835Y-7566025D02*
X11236275Y-7601585D01*
X11236275Y-9671025D02*
X11271835Y-9706585D01*
X11271835Y-9671025D02*
X11236275Y-9706585D01*
X11236275Y-11776025D02*
X11271835Y-11811585D01*
X11271835Y-11776025D02*
X11236275Y-11811585D01*
X11236275Y-13881025D02*
X11271835Y-13916585D01*
X11271835Y-13881025D02*
X11236275Y-13916585D01*
X11236279Y-4699025D02*
X11271839Y-4734585D01*
X11271839Y-4699025D02*
X11236279Y-4734585D01*
X11236279Y-6804025D02*
X11271839Y-6839585D01*
X11271839Y-6804025D02*
X11236279Y-6839585D01*
X11236279Y-8909025D02*
X11271839Y-8944585D01*
X11271839Y-8909025D02*
X11236279Y-8944585D01*
X11236279Y-11014025D02*
X11271839Y-11049585D01*
X11271839Y-11014025D02*
X11236279Y-11049585D01*
X11236279Y-13119025D02*
X11271839Y-13154585D01*
X11271839Y-13119025D02*
X11236279Y-13154585D01*
X11250578Y-5294507D02*
X11286138Y-5330067D01*
X11286138Y-5294507D02*
X11250578Y-5330067D01*
X11250578Y-7399507D02*
X11286138Y-7435067D01*
X11286138Y-7399507D02*
X11250578Y-7435067D01*
X11250578Y-9504507D02*
X11286138Y-9540067D01*
X11286138Y-9504507D02*
X11250578Y-9540067D01*
X11250578Y-11609507D02*
X11286138Y-11645067D01*
X11286138Y-11609507D02*
X11250578Y-11645067D01*
X11250578Y-13714507D02*
X11286138Y-13750067D01*
X11286138Y-13714507D02*
X11250578Y-13750067D01*
X11411678Y-4549022D02*
X11447238Y-4584582D01*
X11447238Y-4549022D02*
X11411678Y-4584582D01*
X11411678Y-6654022D02*
X11447238Y-6689582D01*
X11447238Y-6654022D02*
X11411678Y-6689582D01*
X11411678Y-8759022D02*
X11447238Y-8794582D01*
X11447238Y-8759022D02*
X11411678Y-8794582D01*
X11411678Y-10864022D02*
X11447238Y-10899582D01*
X11447238Y-10864022D02*
X11411678Y-10899582D01*
X11411678Y-12969022D02*
X11447238Y-13004582D01*
X11447238Y-12969022D02*
X11411678Y-13004582D01*
X11426775Y-4978425D02*
X11462335Y-5013985D01*
X11462335Y-4978425D02*
X11426775Y-5013985D01*
X11426775Y-7083425D02*
X11462335Y-7118985D01*
X11462335Y-7083425D02*
X11426775Y-7118985D01*
X11426775Y-9188425D02*
X11462335Y-9223985D01*
X11462335Y-9188425D02*
X11426775Y-9223985D01*
X11426775Y-11293425D02*
X11462335Y-11328985D01*
X11462335Y-11293425D02*
X11426775Y-11328985D01*
X11426775Y-13398425D02*
X11462335Y-13433985D01*
X11462335Y-13398425D02*
X11426775Y-13433985D01*
X11452175Y-4478106D02*
X11487735Y-4513666D01*
X11487735Y-4478106D02*
X11452175Y-4513666D01*
X11452175Y-6583106D02*
X11487735Y-6618666D01*
X11487735Y-6583106D02*
X11452175Y-6618666D01*
X11452175Y-8688106D02*
X11487735Y-8723666D01*
X11487735Y-8688106D02*
X11452175Y-8723666D01*
X11452175Y-10793106D02*
X11487735Y-10828666D01*
X11487735Y-10793106D02*
X11452175Y-10828666D01*
X11452175Y-12898106D02*
X11487735Y-12933666D01*
X11487735Y-12898106D02*
X11452175Y-12933666D01*
X11515675Y-5130825D02*
X11551235Y-5166385D01*
X11551235Y-5130825D02*
X11515675Y-5166385D01*
X11515675Y-7235825D02*
X11551235Y-7271385D01*
X11551235Y-7235825D02*
X11515675Y-7271385D01*
X11515675Y-9340825D02*
X11551235Y-9376385D01*
X11551235Y-9340825D02*
X11515675Y-9376385D01*
X11515675Y-11445825D02*
X11551235Y-11481385D01*
X11551235Y-11445825D02*
X11515675Y-11481385D01*
X11515675Y-13550825D02*
X11551235Y-13586385D01*
X11551235Y-13550825D02*
X11515675Y-13586385D01*
X11531230Y-4276276D02*
X11566790Y-4311836D01*
X11566790Y-4276276D02*
X11531230Y-4311836D01*
X11531230Y-6381276D02*
X11566790Y-6416836D01*
X11566790Y-6381276D02*
X11531230Y-6416836D01*
X11531230Y-8486276D02*
X11566790Y-8521836D01*
X11566790Y-8486276D02*
X11531230Y-8521836D01*
X11531230Y-10591276D02*
X11566790Y-10626836D01*
X11566790Y-10591276D02*
X11531230Y-10626836D01*
X11531230Y-12696276D02*
X11566790Y-12731836D01*
X11566790Y-12696276D02*
X11531230Y-12731836D01*
X11579175Y-4826025D02*
X11614735Y-4861585D01*
X11614735Y-4826025D02*
X11579175Y-4861585D01*
X11579175Y-6931025D02*
X11614735Y-6966585D01*
X11614735Y-6931025D02*
X11579175Y-6966585D01*
X11579175Y-9036025D02*
X11614735Y-9071585D01*
X11614735Y-9036025D02*
X11579175Y-9071585D01*
X11579175Y-11141025D02*
X11614735Y-11176585D01*
X11614735Y-11141025D02*
X11579175Y-11176585D01*
X11579175Y-13246025D02*
X11614735Y-13281585D01*
X11614735Y-13246025D02*
X11579175Y-13281585D01*
X11725083Y-4560290D02*
X11760643Y-4595850D01*
X11760643Y-4560290D02*
X11725083Y-4595850D01*
X11725083Y-6665290D02*
X11760643Y-6700850D01*
X11760643Y-6665290D02*
X11725083Y-6700850D01*
X11725083Y-8770290D02*
X11760643Y-8805850D01*
X11760643Y-8770290D02*
X11725083Y-8805850D01*
X11725083Y-10875290D02*
X11760643Y-10910850D01*
X11760643Y-10875290D02*
X11725083Y-10910850D01*
X11725083Y-12980290D02*
X11760643Y-13015850D01*
X11760643Y-12980290D02*
X11725083Y-13015850D01*
X11756975Y-4292625D02*
X11792535Y-4328185D01*
X11792535Y-4292625D02*
X11756975Y-4328185D01*
X11756975Y-6397625D02*
X11792535Y-6433185D01*
X11792535Y-6397625D02*
X11756975Y-6433185D01*
X11756975Y-8502625D02*
X11792535Y-8538185D01*
X11792535Y-8502625D02*
X11756975Y-8538185D01*
X11756975Y-10607625D02*
X11792535Y-10643185D01*
X11792535Y-10607625D02*
X11756975Y-10643185D01*
X11756975Y-12712625D02*
X11792535Y-12748185D01*
X11792535Y-12712625D02*
X11756975Y-12748185D01*
X11807707Y-4833696D02*
X11843267Y-4869256D01*
X11843267Y-4833696D02*
X11807707Y-4869256D01*
X11807707Y-6938696D02*
X11843267Y-6974256D01*
X11843267Y-6938696D02*
X11807707Y-6974256D01*
X11807707Y-9043696D02*
X11843267Y-9079256D01*
X11843267Y-9043696D02*
X11807707Y-9079256D01*
X11807707Y-11148696D02*
X11843267Y-11184256D01*
X11843267Y-11148696D02*
X11807707Y-11184256D01*
X11807707Y-13253696D02*
X11843267Y-13289256D01*
X11843267Y-13253696D02*
X11807707Y-13289256D01*
X11886824Y-4611093D02*
X11922384Y-4646653D01*
X11922384Y-4611093D02*
X11886824Y-4646653D01*
X11886824Y-6716093D02*
X11922384Y-6751653D01*
X11922384Y-6716093D02*
X11886824Y-6751653D01*
X11886824Y-8821093D02*
X11922384Y-8856653D01*
X11922384Y-8821093D02*
X11886824Y-8856653D01*
X11886824Y-10926093D02*
X11922384Y-10961653D01*
X11922384Y-10926093D02*
X11886824Y-10961653D01*
X11886824Y-13031093D02*
X11922384Y-13066653D01*
X11922384Y-13031093D02*
X11886824Y-13066653D01*
X12036375Y-5308625D02*
X12071935Y-5344185D01*
X12071935Y-5308625D02*
X12036375Y-5344185D01*
X12036375Y-7413625D02*
X12071935Y-7449185D01*
X12071935Y-7413625D02*
X12036375Y-7449185D01*
X12036375Y-9518625D02*
X12071935Y-9554185D01*
X12071935Y-9518625D02*
X12036375Y-9554185D01*
X12036375Y-11623625D02*
X12071935Y-11659185D01*
X12071935Y-11623625D02*
X12036375Y-11659185D01*
X12036375Y-13728625D02*
X12071935Y-13764185D01*
X12071935Y-13728625D02*
X12036375Y-13764185D01*
X12087175Y-4076725D02*
X12122735Y-4112285D01*
X12122735Y-4076725D02*
X12087175Y-4112285D01*
X12087175Y-6181725D02*
X12122735Y-6217285D01*
X12122735Y-6181725D02*
X12087175Y-6217285D01*
X12087175Y-8286725D02*
X12122735Y-8322285D01*
X12122735Y-8286725D02*
X12087175Y-8322285D01*
X12087175Y-10391725D02*
X12122735Y-10427285D01*
X12122735Y-10391725D02*
X12087175Y-10427285D01*
X12087175Y-12496725D02*
X12122735Y-12532285D01*
X12122735Y-12496725D02*
X12087175Y-12532285D01*
X12092313Y-4150508D02*
X12127873Y-4186068D01*
X12127873Y-4150508D02*
X12092313Y-4186068D01*
X12092313Y-6255508D02*
X12127873Y-6291068D01*
X12127873Y-6255508D02*
X12092313Y-6291068D01*
X12092313Y-8360508D02*
X12127873Y-8396068D01*
X12127873Y-8360508D02*
X12092313Y-8396068D01*
X12092313Y-10465508D02*
X12127873Y-10501068D01*
X12127873Y-10465508D02*
X12092313Y-10501068D01*
X12092313Y-12570508D02*
X12127873Y-12606068D01*
X12127873Y-12570508D02*
X12092313Y-12606068D01*
X12115403Y-5190028D02*
X12150963Y-5225588D01*
X12150963Y-5190028D02*
X12115403Y-5225588D01*
X12115403Y-7295028D02*
X12150963Y-7330588D01*
X12150963Y-7295028D02*
X12115403Y-7330588D01*
X12115403Y-9400028D02*
X12150963Y-9435588D01*
X12150963Y-9400028D02*
X12115403Y-9435588D01*
X12115403Y-11505028D02*
X12150963Y-11540588D01*
X12150963Y-11505028D02*
X12115403Y-11540588D01*
X12115403Y-13610028D02*
X12150963Y-13645588D01*
X12150963Y-13610028D02*
X12115403Y-13645588D01*
X12193794Y-4373609D02*
X12229354Y-4409169D01*
X12229354Y-4373609D02*
X12193794Y-4409169D01*
X12193794Y-6478609D02*
X12229354Y-6514169D01*
X12229354Y-6478609D02*
X12193794Y-6514169D01*
X12193794Y-8583609D02*
X12229354Y-8619169D01*
X12229354Y-8583609D02*
X12193794Y-8619169D01*
X12193794Y-10688609D02*
X12229354Y-10724169D01*
X12229354Y-10688609D02*
X12193794Y-10724169D01*
X12193794Y-12793609D02*
X12229354Y-12829169D01*
X12229354Y-12793609D02*
X12193794Y-12829169D01*
X12239338Y-5342642D02*
X12274898Y-5378202D01*
X12274898Y-5342642D02*
X12239338Y-5378202D01*
X12239338Y-7447642D02*
X12274898Y-7483202D01*
X12274898Y-7447642D02*
X12239338Y-7483202D01*
X12239338Y-9552642D02*
X12274898Y-9588202D01*
X12274898Y-9552642D02*
X12239338Y-9588202D01*
X12239338Y-11657642D02*
X12274898Y-11693202D01*
X12274898Y-11657642D02*
X12239338Y-11693202D01*
X12239338Y-13762642D02*
X12274898Y-13798202D01*
X12274898Y-13762642D02*
X12239338Y-13798202D01*
X12406560Y-4730380D02*
X12442120Y-4765940D01*
X12442120Y-4730380D02*
X12406560Y-4765940D01*
X12406560Y-6835379D02*
X12442120Y-6870939D01*
X12442120Y-6835379D02*
X12406560Y-6870939D01*
X12406560Y-8940380D02*
X12442120Y-8975940D01*
X12442120Y-8940380D02*
X12406560Y-8975940D01*
X12406560Y-11045380D02*
X12442120Y-11080940D01*
X12442120Y-11045380D02*
X12406560Y-11080940D01*
X12406560Y-13150379D02*
X12442120Y-13185939D01*
X12442120Y-13150379D02*
X12406560Y-13185939D01*
X12419545Y-4803192D02*
X12455105Y-4838752D01*
X12455105Y-4803192D02*
X12419545Y-4838752D01*
X12419545Y-6908192D02*
X12455105Y-6943752D01*
X12455105Y-6908192D02*
X12419545Y-6943752D01*
X12419545Y-9013192D02*
X12455105Y-9048752D01*
X12455105Y-9013192D02*
X12419545Y-9048752D01*
X12419545Y-11118192D02*
X12455105Y-11153752D01*
X12455105Y-11118192D02*
X12419545Y-11153752D01*
X12419545Y-13223192D02*
X12455105Y-13258752D01*
X12455105Y-13223192D02*
X12419545Y-13258752D01*
X12421794Y-5434881D02*
X12457354Y-5470441D01*
X12457354Y-5434881D02*
X12421794Y-5470441D01*
X12421794Y-7539881D02*
X12457354Y-7575441D01*
X12457354Y-7539881D02*
X12421794Y-7575441D01*
X12421794Y-9644881D02*
X12457354Y-9680441D01*
X12457354Y-9644881D02*
X12421794Y-9680441D01*
X12421794Y-11749881D02*
X12457354Y-11785441D01*
X12457354Y-11749881D02*
X12421794Y-11785441D01*
X12421794Y-13854881D02*
X12457354Y-13890441D01*
X12457354Y-13854881D02*
X12421794Y-13890441D01*
X12442775Y-5664225D02*
X12478335Y-5699785D01*
X12478335Y-5664225D02*
X12442775Y-5699785D01*
X12442775Y-7769225D02*
X12478335Y-7804785D01*
X12478335Y-7769225D02*
X12442775Y-7804785D01*
X12442775Y-9874225D02*
X12478335Y-9909785D01*
X12478335Y-9874225D02*
X12442775Y-9909785D01*
X12442775Y-11979225D02*
X12478335Y-12014785D01*
X12478335Y-11979225D02*
X12442775Y-12014785D01*
X12442775Y-14084225D02*
X12478335Y-14119785D01*
X12478335Y-14084225D02*
X12442775Y-14119785D01*
X12449561Y-4431521D02*
X12485121Y-4467081D01*
X12485121Y-4431521D02*
X12449561Y-4467081D01*
X12449561Y-4622825D02*
X12485121Y-4658385D01*
X12485121Y-4622825D02*
X12449561Y-4658385D01*
X12449561Y-6536521D02*
X12485121Y-6572081D01*
X12485121Y-6536521D02*
X12449561Y-6572081D01*
X12449561Y-6727825D02*
X12485121Y-6763385D01*
X12485121Y-6727825D02*
X12449561Y-6763385D01*
X12449561Y-8641521D02*
X12485121Y-8677081D01*
X12485121Y-8641521D02*
X12449561Y-8677081D01*
X12449561Y-8832825D02*
X12485121Y-8868385D01*
X12485121Y-8832825D02*
X12449561Y-8868385D01*
X12449561Y-10746521D02*
X12485121Y-10782081D01*
X12485121Y-10746521D02*
X12449561Y-10782081D01*
X12449561Y-10937825D02*
X12485121Y-10973385D01*
X12485121Y-10937825D02*
X12449561Y-10973385D01*
X12449561Y-12851521D02*
X12485121Y-12887081D01*
X12485121Y-12851521D02*
X12449561Y-12887081D01*
X12449561Y-13042825D02*
X12485121Y-13078385D01*
X12485121Y-13042825D02*
X12449561Y-13078385D01*
X12455238Y-5359425D02*
X12490798Y-5394985D01*
X12490798Y-5359425D02*
X12455238Y-5394985D01*
X12455238Y-7464425D02*
X12490798Y-7499985D01*
X12490798Y-7464425D02*
X12455238Y-7499985D01*
X12455238Y-9569425D02*
X12490798Y-9604985D01*
X12490798Y-9569425D02*
X12455238Y-9604985D01*
X12455238Y-11674425D02*
X12490798Y-11709985D01*
X12490798Y-11674425D02*
X12455238Y-11709985D01*
X12455238Y-13779425D02*
X12490798Y-13814985D01*
X12490798Y-13779425D02*
X12455238Y-13814985D01*
X12471349Y-4915119D02*
X12506909Y-4950679D01*
X12506909Y-4915119D02*
X12471349Y-4950679D01*
X12471349Y-7020119D02*
X12506909Y-7055679D01*
X12506909Y-7020119D02*
X12471349Y-7055679D01*
X12471349Y-9125119D02*
X12506909Y-9160679D01*
X12506909Y-9125119D02*
X12471349Y-9160679D01*
X12471349Y-11230119D02*
X12506909Y-11265679D01*
X12506909Y-11230119D02*
X12471349Y-11265679D01*
X12471349Y-13335119D02*
X12506909Y-13370679D01*
X12506909Y-13335119D02*
X12471349Y-13370679D01*
X12485539Y-5241308D02*
X12521099Y-5276868D01*
X12521099Y-5241308D02*
X12485539Y-5276868D01*
X12485539Y-7346308D02*
X12521099Y-7381868D01*
X12521099Y-7346308D02*
X12485539Y-7381868D01*
X12485539Y-9451308D02*
X12521099Y-9486868D01*
X12521099Y-9451308D02*
X12485539Y-9486868D01*
X12485539Y-11556308D02*
X12521099Y-11591868D01*
X12521099Y-11556308D02*
X12485539Y-11591868D01*
X12485539Y-13661308D02*
X12521099Y-13696868D01*
X12521099Y-13661308D02*
X12485539Y-13696868D01*
X13178826Y-5437873D02*
X13214386Y-5473433D01*
X13214386Y-5437873D02*
X13178826Y-5473433D01*
X13178826Y-7542873D02*
X13214386Y-7578433D01*
X13214386Y-7542873D02*
X13178826Y-7578433D01*
X13178826Y-9647873D02*
X13214386Y-9683433D01*
X13214386Y-9647873D02*
X13178826Y-9683433D01*
X13178826Y-11752873D02*
X13214386Y-11788433D01*
X13214386Y-11752873D02*
X13178826Y-11788433D01*
X13178826Y-13857873D02*
X13214386Y-13893433D01*
X13214386Y-13857873D02*
X13178826Y-13893433D01*
X13179200Y-4636097D02*
X13214760Y-4671657D01*
X13214760Y-4636097D02*
X13179200Y-4671657D01*
X13179200Y-6741097D02*
X13214760Y-6776657D01*
X13214760Y-6741097D02*
X13179200Y-6776657D01*
X13179200Y-8846097D02*
X13214760Y-8881657D01*
X13214760Y-8846097D02*
X13179200Y-8881657D01*
X13179200Y-10951097D02*
X13214760Y-10986657D01*
X13214760Y-10951097D02*
X13179200Y-10986657D01*
X13179200Y-13056097D02*
X13214760Y-13091657D01*
X13214760Y-13056097D02*
X13179200Y-13091657D01*
X13179955Y-4902225D02*
X13215515Y-4937785D01*
X13215515Y-4902225D02*
X13179955Y-4937785D01*
X13179955Y-7007225D02*
X13215515Y-7042785D01*
X13215515Y-7007225D02*
X13179955Y-7042785D01*
X13179955Y-9112225D02*
X13215515Y-9147785D01*
X13215515Y-9112225D02*
X13179955Y-9147785D01*
X13179955Y-11217225D02*
X13215515Y-11252785D01*
X13215515Y-11217225D02*
X13179955Y-11252785D01*
X13179955Y-13322225D02*
X13215515Y-13357785D01*
X13215515Y-13322225D02*
X13179955Y-13357785D01*
X13179955Y-4777640D02*
X13215515Y-4813200D01*
X13215515Y-4777640D02*
X13179955Y-4813200D01*
X13179955Y-6882640D02*
X13215515Y-6918200D01*
X13215515Y-6882640D02*
X13179955Y-6918200D01*
X13179955Y-8987640D02*
X13215515Y-9023200D01*
X13215515Y-8987640D02*
X13179955Y-9023200D01*
X13179955Y-11092640D02*
X13215515Y-11128200D01*
X13215515Y-11092640D02*
X13179955Y-11128200D01*
X13179955Y-13197640D02*
X13215515Y-13233200D01*
X13215515Y-13197640D02*
X13179955Y-13233200D01*
X13179959Y-5511825D02*
X13215519Y-5547385D01*
X13215519Y-5511825D02*
X13179959Y-5547385D01*
X13179959Y-7616825D02*
X13215519Y-7652385D01*
X13215519Y-7616825D02*
X13179959Y-7652385D01*
X13179959Y-9721825D02*
X13215519Y-9757385D01*
X13215519Y-9721825D02*
X13179959Y-9757385D01*
X13179959Y-11826825D02*
X13215519Y-11862385D01*
X13215519Y-11826825D02*
X13179959Y-11862385D01*
X13179959Y-13931825D02*
X13215519Y-13967385D01*
X13215519Y-13931825D02*
X13179959Y-13967385D01*
X13180499Y-5669213D02*
X13216059Y-5704773D01*
X13216059Y-5669213D02*
X13180499Y-5704773D01*
X13180499Y-7774213D02*
X13216059Y-7809773D01*
X13216059Y-7774213D02*
X13180499Y-7809773D01*
X13180499Y-9879213D02*
X13216059Y-9914773D01*
X13216059Y-9879213D02*
X13180499Y-9914773D01*
X13180499Y-11984213D02*
X13216059Y-12019773D01*
X13216059Y-11984213D02*
X13180499Y-12019773D01*
X13180499Y-14089213D02*
X13216059Y-14124773D01*
X13216059Y-14089213D02*
X13180499Y-14124773D01*
X13188875Y-5207025D02*
X13224435Y-5242585D01*
X13224435Y-5207025D02*
X13188875Y-5242585D01*
X13188875Y-7312025D02*
X13224435Y-7347585D01*
X13224435Y-7312025D02*
X13188875Y-7347585D01*
X13188875Y-9417025D02*
X13224435Y-9452585D01*
X13224435Y-9417025D02*
X13188875Y-9452585D01*
X13188875Y-11522025D02*
X13224435Y-11557585D01*
X13224435Y-11522025D02*
X13188875Y-11557585D01*
X13188875Y-13627025D02*
X13224435Y-13662585D01*
X13224435Y-13627025D02*
X13188875Y-13662585D01*
X13196394Y-5029225D02*
X13231954Y-5064785D01*
X13231954Y-5029225D02*
X13196394Y-5064785D01*
X13196394Y-7134225D02*
X13231954Y-7169785D01*
X13231954Y-7134225D02*
X13196394Y-7169785D01*
X13196394Y-9239225D02*
X13231954Y-9274785D01*
X13231954Y-9239225D02*
X13196394Y-9274785D01*
X13196394Y-11344225D02*
X13231954Y-11379785D01*
X13231954Y-11344225D02*
X13196394Y-11379785D01*
X13196394Y-13449225D02*
X13231954Y-13484785D01*
X13231954Y-13449225D02*
X13196394Y-13484785D01*
X13201574Y-4406925D02*
X13237134Y-4442485D01*
X13237134Y-4406925D02*
X13201574Y-4442485D01*
X13201574Y-6511925D02*
X13237134Y-6547485D01*
X13237134Y-6511925D02*
X13201574Y-6547485D01*
X13201574Y-8616925D02*
X13237134Y-8652485D01*
X13237134Y-8616925D02*
X13201574Y-8652485D01*
X13201574Y-10721925D02*
X13237134Y-10757485D01*
X13237134Y-10721925D02*
X13201574Y-10757485D01*
X13201574Y-12826925D02*
X13237134Y-12862485D01*
X13237134Y-12826925D02*
X13201574Y-12862485D01*
X13241656Y-5270525D02*
X13277216Y-5306085D01*
X13277216Y-5270525D02*
X13241656Y-5306085D01*
X13241656Y-7375525D02*
X13277216Y-7411085D01*
X13277216Y-7375525D02*
X13241656Y-7411085D01*
X13241656Y-9480525D02*
X13277216Y-9516085D01*
X13277216Y-9480525D02*
X13241656Y-9516085D01*
X13241656Y-11585525D02*
X13277216Y-11621085D01*
X13277216Y-11585525D02*
X13241656Y-11621085D01*
X13241656Y-13690525D02*
X13277216Y-13726085D01*
X13277216Y-13690525D02*
X13241656Y-13726085D01*
X13276343Y-4303894D02*
X13311903Y-4339454D01*
X13311903Y-4303894D02*
X13276343Y-4339454D01*
X13276343Y-6408894D02*
X13311903Y-6444454D01*
X13311903Y-6408894D02*
X13276343Y-6444454D01*
X13276343Y-8513894D02*
X13311903Y-8549454D01*
X13311903Y-8513894D02*
X13276343Y-8549454D01*
X13276343Y-10618894D02*
X13311903Y-10654454D01*
X13311903Y-10618894D02*
X13276343Y-10654454D01*
X13276343Y-12723894D02*
X13311903Y-12759454D01*
X13311903Y-12723894D02*
X13276343Y-12759454D01*
X13318705Y-4903472D02*
X13354265Y-4939032D01*
X13354265Y-4903472D02*
X13318705Y-4939032D01*
X13318705Y-7008472D02*
X13354265Y-7044032D01*
X13354265Y-7008472D02*
X13318705Y-7044032D01*
X13318705Y-9113472D02*
X13354265Y-9149032D01*
X13354265Y-9113472D02*
X13318705Y-9149032D01*
X13318705Y-11218472D02*
X13354265Y-11254032D01*
X13354265Y-11218472D02*
X13318705Y-11254032D01*
X13318705Y-13323472D02*
X13354265Y-13359032D01*
X13354265Y-13323472D02*
X13318705Y-13359032D01*
X13331481Y-5615344D02*
X13367041Y-5650904D01*
X13367041Y-5615344D02*
X13331481Y-5650904D01*
X13331481Y-7720344D02*
X13367041Y-7755904D01*
X13367041Y-7720344D02*
X13331481Y-7755904D01*
X13331481Y-9825344D02*
X13367041Y-9860904D01*
X13367041Y-9825344D02*
X13331481Y-9860904D01*
X13331481Y-11930344D02*
X13367041Y-11965904D01*
X13367041Y-11930344D02*
X13331481Y-11965904D01*
X13331481Y-14035344D02*
X13367041Y-14070904D01*
X13367041Y-14035344D02*
X13331481Y-14070904D01*
X13341275Y-5461025D02*
X13376835Y-5496585D01*
X13376835Y-5461025D02*
X13341275Y-5496585D01*
X13341275Y-7566025D02*
X13376835Y-7601585D01*
X13376835Y-7566025D02*
X13341275Y-7601585D01*
X13341275Y-9671025D02*
X13376835Y-9706585D01*
X13376835Y-9671025D02*
X13341275Y-9706585D01*
X13341275Y-11776025D02*
X13376835Y-11811585D01*
X13376835Y-11776025D02*
X13341275Y-11811585D01*
X13341275Y-13881025D02*
X13376835Y-13916585D01*
X13376835Y-13881025D02*
X13341275Y-13916585D01*
X13341279Y-4699025D02*
X13376839Y-4734585D01*
X13376839Y-4699025D02*
X13341279Y-4734585D01*
X13341279Y-6804025D02*
X13376839Y-6839585D01*
X13376839Y-6804025D02*
X13341279Y-6839585D01*
X13341279Y-8909025D02*
X13376839Y-8944585D01*
X13376839Y-8909025D02*
X13341279Y-8944585D01*
X13341279Y-11014025D02*
X13376839Y-11049585D01*
X13376839Y-11014025D02*
X13341279Y-11049585D01*
X13341279Y-13119025D02*
X13376839Y-13154585D01*
X13376839Y-13119025D02*
X13341279Y-13154585D01*
X13355578Y-5294507D02*
X13391138Y-5330067D01*
X13391138Y-5294507D02*
X13355578Y-5330067D01*
X13355578Y-7399507D02*
X13391138Y-7435067D01*
X13391138Y-7399507D02*
X13355578Y-7435067D01*
X13355578Y-9504507D02*
X13391138Y-9540067D01*
X13391138Y-9504507D02*
X13355578Y-9540067D01*
X13355578Y-11609507D02*
X13391138Y-11645067D01*
X13391138Y-11609507D02*
X13355578Y-11645067D01*
X13355578Y-13714507D02*
X13391138Y-13750067D01*
X13391138Y-13714507D02*
X13355578Y-13750067D01*
X13516678Y-4549022D02*
X13552238Y-4584582D01*
X13552238Y-4549022D02*
X13516678Y-4584582D01*
X13516678Y-6654022D02*
X13552238Y-6689582D01*
X13552238Y-6654022D02*
X13516678Y-6689582D01*
X13516678Y-8759022D02*
X13552238Y-8794582D01*
X13552238Y-8759022D02*
X13516678Y-8794582D01*
X13516678Y-10864022D02*
X13552238Y-10899582D01*
X13552238Y-10864022D02*
X13516678Y-10899582D01*
X13516678Y-12969022D02*
X13552238Y-13004582D01*
X13552238Y-12969022D02*
X13516678Y-13004582D01*
X13531775Y-4978425D02*
X13567335Y-5013985D01*
X13567335Y-4978425D02*
X13531775Y-5013985D01*
X13531775Y-7083425D02*
X13567335Y-7118985D01*
X13567335Y-7083425D02*
X13531775Y-7118985D01*
X13531775Y-9188425D02*
X13567335Y-9223985D01*
X13567335Y-9188425D02*
X13531775Y-9223985D01*
X13531775Y-11293425D02*
X13567335Y-11328985D01*
X13567335Y-11293425D02*
X13531775Y-11328985D01*
X13531775Y-13398425D02*
X13567335Y-13433985D01*
X13567335Y-13398425D02*
X13531775Y-13433985D01*
X13557175Y-4478106D02*
X13592735Y-4513666D01*
X13592735Y-4478106D02*
X13557175Y-4513666D01*
X13557175Y-6583106D02*
X13592735Y-6618666D01*
X13592735Y-6583106D02*
X13557175Y-6618666D01*
X13557175Y-8688106D02*
X13592735Y-8723666D01*
X13592735Y-8688106D02*
X13557175Y-8723666D01*
X13557175Y-10793106D02*
X13592735Y-10828666D01*
X13592735Y-10793106D02*
X13557175Y-10828666D01*
X13557175Y-12898106D02*
X13592735Y-12933666D01*
X13592735Y-12898106D02*
X13557175Y-12933666D01*
X13620675Y-5130825D02*
X13656235Y-5166385D01*
X13656235Y-5130825D02*
X13620675Y-5166385D01*
X13620675Y-7235825D02*
X13656235Y-7271385D01*
X13656235Y-7235825D02*
X13620675Y-7271385D01*
X13620675Y-9340825D02*
X13656235Y-9376385D01*
X13656235Y-9340825D02*
X13620675Y-9376385D01*
X13620675Y-11445825D02*
X13656235Y-11481385D01*
X13656235Y-11445825D02*
X13620675Y-11481385D01*
X13620675Y-13550825D02*
X13656235Y-13586385D01*
X13656235Y-13550825D02*
X13620675Y-13586385D01*
X13636230Y-4276276D02*
X13671790Y-4311836D01*
X13671790Y-4276276D02*
X13636230Y-4311836D01*
X13636230Y-6381276D02*
X13671790Y-6416836D01*
X13671790Y-6381276D02*
X13636230Y-6416836D01*
X13636230Y-8486276D02*
X13671790Y-8521836D01*
X13671790Y-8486276D02*
X13636230Y-8521836D01*
X13636230Y-10591276D02*
X13671790Y-10626836D01*
X13671790Y-10591276D02*
X13636230Y-10626836D01*
X13636230Y-12696276D02*
X13671790Y-12731836D01*
X13671790Y-12696276D02*
X13636230Y-12731836D01*
X13684175Y-4826025D02*
X13719735Y-4861585D01*
X13719735Y-4826025D02*
X13684175Y-4861585D01*
X13684175Y-6931025D02*
X13719735Y-6966585D01*
X13719735Y-6931025D02*
X13684175Y-6966585D01*
X13684175Y-9036025D02*
X13719735Y-9071585D01*
X13719735Y-9036025D02*
X13684175Y-9071585D01*
X13684175Y-11141025D02*
X13719735Y-11176585D01*
X13719735Y-11141025D02*
X13684175Y-11176585D01*
X13684175Y-13246025D02*
X13719735Y-13281585D01*
X13719735Y-13246025D02*
X13684175Y-13281585D01*
X13830083Y-4560290D02*
X13865643Y-4595850D01*
X13865643Y-4560290D02*
X13830083Y-4595850D01*
X13830083Y-6665290D02*
X13865643Y-6700850D01*
X13865643Y-6665290D02*
X13830083Y-6700850D01*
X13830083Y-8770290D02*
X13865643Y-8805850D01*
X13865643Y-8770290D02*
X13830083Y-8805850D01*
X13830083Y-10875290D02*
X13865643Y-10910850D01*
X13865643Y-10875290D02*
X13830083Y-10910850D01*
X13830083Y-12980290D02*
X13865643Y-13015850D01*
X13865643Y-12980290D02*
X13830083Y-13015850D01*
X13861975Y-4292625D02*
X13897535Y-4328185D01*
X13897535Y-4292625D02*
X13861975Y-4328185D01*
X13861975Y-6397625D02*
X13897535Y-6433185D01*
X13897535Y-6397625D02*
X13861975Y-6433185D01*
X13861975Y-8502625D02*
X13897535Y-8538185D01*
X13897535Y-8502625D02*
X13861975Y-8538185D01*
X13861975Y-10607625D02*
X13897535Y-10643185D01*
X13897535Y-10607625D02*
X13861975Y-10643185D01*
X13861975Y-12712625D02*
X13897535Y-12748185D01*
X13897535Y-12712625D02*
X13861975Y-12748185D01*
X13912707Y-4833696D02*
X13948267Y-4869256D01*
X13948267Y-4833696D02*
X13912707Y-4869256D01*
X13912707Y-6938696D02*
X13948267Y-6974256D01*
X13948267Y-6938696D02*
X13912707Y-6974256D01*
X13912707Y-9043696D02*
X13948267Y-9079256D01*
X13948267Y-9043696D02*
X13912707Y-9079256D01*
X13912707Y-11148696D02*
X13948267Y-11184256D01*
X13948267Y-11148696D02*
X13912707Y-11184256D01*
X13912707Y-13253696D02*
X13948267Y-13289256D01*
X13948267Y-13253696D02*
X13912707Y-13289256D01*
X13991824Y-4611093D02*
X14027384Y-4646653D01*
X14027384Y-4611093D02*
X13991824Y-4646653D01*
X13991824Y-6716093D02*
X14027384Y-6751653D01*
X14027384Y-6716093D02*
X13991824Y-6751653D01*
X13991824Y-8821093D02*
X14027384Y-8856653D01*
X14027384Y-8821093D02*
X13991824Y-8856653D01*
X13991824Y-10926093D02*
X14027384Y-10961653D01*
X14027384Y-10926093D02*
X13991824Y-10961653D01*
X13991824Y-13031093D02*
X14027384Y-13066653D01*
X14027384Y-13031093D02*
X13991824Y-13066653D01*
X14141375Y-5308625D02*
X14176935Y-5344185D01*
X14176935Y-5308625D02*
X14141375Y-5344185D01*
X14141375Y-7413625D02*
X14176935Y-7449185D01*
X14176935Y-7413625D02*
X14141375Y-7449185D01*
X14141375Y-9518625D02*
X14176935Y-9554185D01*
X14176935Y-9518625D02*
X14141375Y-9554185D01*
X14141375Y-11623625D02*
X14176935Y-11659185D01*
X14176935Y-11623625D02*
X14141375Y-11659185D01*
X14141375Y-13728625D02*
X14176935Y-13764185D01*
X14176935Y-13728625D02*
X14141375Y-13764185D01*
X14192175Y-4076725D02*
X14227735Y-4112285D01*
X14227735Y-4076725D02*
X14192175Y-4112285D01*
X14192175Y-6181725D02*
X14227735Y-6217285D01*
X14227735Y-6181725D02*
X14192175Y-6217285D01*
X14192175Y-8286725D02*
X14227735Y-8322285D01*
X14227735Y-8286725D02*
X14192175Y-8322285D01*
X14192175Y-10391725D02*
X14227735Y-10427285D01*
X14227735Y-10391725D02*
X14192175Y-10427285D01*
X14192175Y-12496725D02*
X14227735Y-12532285D01*
X14227735Y-12496725D02*
X14192175Y-12532285D01*
X14197313Y-4150508D02*
X14232873Y-4186068D01*
X14232873Y-4150508D02*
X14197313Y-4186068D01*
X14197313Y-6255508D02*
X14232873Y-6291068D01*
X14232873Y-6255508D02*
X14197313Y-6291068D01*
X14197313Y-8360508D02*
X14232873Y-8396068D01*
X14232873Y-8360508D02*
X14197313Y-8396068D01*
X14197313Y-10465508D02*
X14232873Y-10501068D01*
X14232873Y-10465508D02*
X14197313Y-10501068D01*
X14197313Y-12570508D02*
X14232873Y-12606068D01*
X14232873Y-12570508D02*
X14197313Y-12606068D01*
X14220403Y-5190028D02*
X14255963Y-5225588D01*
X14255963Y-5190028D02*
X14220403Y-5225588D01*
X14220403Y-7295028D02*
X14255963Y-7330588D01*
X14255963Y-7295028D02*
X14220403Y-7330588D01*
X14220403Y-9400028D02*
X14255963Y-9435588D01*
X14255963Y-9400028D02*
X14220403Y-9435588D01*
X14220403Y-11505028D02*
X14255963Y-11540588D01*
X14255963Y-11505028D02*
X14220403Y-11540588D01*
X14220403Y-13610028D02*
X14255963Y-13645588D01*
X14255963Y-13610028D02*
X14220403Y-13645588D01*
X14298794Y-4373609D02*
X14334354Y-4409169D01*
X14334354Y-4373609D02*
X14298794Y-4409169D01*
X14298794Y-6478609D02*
X14334354Y-6514169D01*
X14334354Y-6478609D02*
X14298794Y-6514169D01*
X14298794Y-8583609D02*
X14334354Y-8619169D01*
X14334354Y-8583609D02*
X14298794Y-8619169D01*
X14298794Y-10688609D02*
X14334354Y-10724169D01*
X14334354Y-10688609D02*
X14298794Y-10724169D01*
X14298794Y-12793609D02*
X14334354Y-12829169D01*
X14334354Y-12793609D02*
X14298794Y-12829169D01*
X14344338Y-5342642D02*
X14379898Y-5378202D01*
X14379898Y-5342642D02*
X14344338Y-5378202D01*
X14344338Y-7447642D02*
X14379898Y-7483202D01*
X14379898Y-7447642D02*
X14344338Y-7483202D01*
X14344338Y-9552642D02*
X14379898Y-9588202D01*
X14379898Y-9552642D02*
X14344338Y-9588202D01*
X14344338Y-11657642D02*
X14379898Y-11693202D01*
X14379898Y-11657642D02*
X14344338Y-11693202D01*
X14344338Y-13762642D02*
X14379898Y-13798202D01*
X14379898Y-13762642D02*
X14344338Y-13798202D01*
X14511560Y-4730380D02*
X14547120Y-4765940D01*
X14547120Y-4730380D02*
X14511560Y-4765940D01*
X14511560Y-6835379D02*
X14547120Y-6870939D01*
X14547120Y-6835379D02*
X14511560Y-6870939D01*
X14511560Y-8940380D02*
X14547120Y-8975940D01*
X14547120Y-8940380D02*
X14511560Y-8975940D01*
X14511560Y-11045380D02*
X14547120Y-11080940D01*
X14547120Y-11045380D02*
X14511560Y-11080940D01*
X14511560Y-13150379D02*
X14547120Y-13185939D01*
X14547120Y-13150379D02*
X14511560Y-13185939D01*
X14524545Y-4803192D02*
X14560105Y-4838752D01*
X14560105Y-4803192D02*
X14524545Y-4838752D01*
X14524545Y-6908192D02*
X14560105Y-6943752D01*
X14560105Y-6908192D02*
X14524545Y-6943752D01*
X14524545Y-9013192D02*
X14560105Y-9048752D01*
X14560105Y-9013192D02*
X14524545Y-9048752D01*
X14524545Y-11118192D02*
X14560105Y-11153752D01*
X14560105Y-11118192D02*
X14524545Y-11153752D01*
X14524545Y-13223192D02*
X14560105Y-13258752D01*
X14560105Y-13223192D02*
X14524545Y-13258752D01*
X14526794Y-5434881D02*
X14562354Y-5470441D01*
X14562354Y-5434881D02*
X14526794Y-5470441D01*
X14526794Y-7539881D02*
X14562354Y-7575441D01*
X14562354Y-7539881D02*
X14526794Y-7575441D01*
X14526794Y-9644881D02*
X14562354Y-9680441D01*
X14562354Y-9644881D02*
X14526794Y-9680441D01*
X14526794Y-11749881D02*
X14562354Y-11785441D01*
X14562354Y-11749881D02*
X14526794Y-11785441D01*
X14526794Y-13854881D02*
X14562354Y-13890441D01*
X14562354Y-13854881D02*
X14526794Y-13890441D01*
X14547775Y-5664225D02*
X14583335Y-5699785D01*
X14583335Y-5664225D02*
X14547775Y-5699785D01*
X14547775Y-7769225D02*
X14583335Y-7804785D01*
X14583335Y-7769225D02*
X14547775Y-7804785D01*
X14547775Y-9874225D02*
X14583335Y-9909785D01*
X14583335Y-9874225D02*
X14547775Y-9909785D01*
X14547775Y-11979225D02*
X14583335Y-12014785D01*
X14583335Y-11979225D02*
X14547775Y-12014785D01*
X14547775Y-14084225D02*
X14583335Y-14119785D01*
X14583335Y-14084225D02*
X14547775Y-14119785D01*
X14554561Y-4431521D02*
X14590121Y-4467081D01*
X14590121Y-4431521D02*
X14554561Y-4467081D01*
X14554561Y-4622825D02*
X14590121Y-4658385D01*
X14590121Y-4622825D02*
X14554561Y-4658385D01*
X14554561Y-6536521D02*
X14590121Y-6572081D01*
X14590121Y-6536521D02*
X14554561Y-6572081D01*
X14554561Y-6727825D02*
X14590121Y-6763385D01*
X14590121Y-6727825D02*
X14554561Y-6763385D01*
X14554561Y-8641521D02*
X14590121Y-8677081D01*
X14590121Y-8641521D02*
X14554561Y-8677081D01*
X14554561Y-8832825D02*
X14590121Y-8868385D01*
X14590121Y-8832825D02*
X14554561Y-8868385D01*
X14554561Y-10746521D02*
X14590121Y-10782081D01*
X14590121Y-10746521D02*
X14554561Y-10782081D01*
X14554561Y-10937825D02*
X14590121Y-10973385D01*
X14590121Y-10937825D02*
X14554561Y-10973385D01*
X14554561Y-12851521D02*
X14590121Y-12887081D01*
X14590121Y-12851521D02*
X14554561Y-12887081D01*
X14554561Y-13042825D02*
X14590121Y-13078385D01*
X14590121Y-13042825D02*
X14554561Y-13078385D01*
X14560238Y-5359425D02*
X14595798Y-5394985D01*
X14595798Y-5359425D02*
X14560238Y-5394985D01*
X14560238Y-7464425D02*
X14595798Y-7499985D01*
X14595798Y-7464425D02*
X14560238Y-7499985D01*
X14560238Y-9569425D02*
X14595798Y-9604985D01*
X14595798Y-9569425D02*
X14560238Y-9604985D01*
X14560238Y-11674425D02*
X14595798Y-11709985D01*
X14595798Y-11674425D02*
X14560238Y-11709985D01*
X14560238Y-13779425D02*
X14595798Y-13814985D01*
X14595798Y-13779425D02*
X14560238Y-13814985D01*
X14576349Y-4915119D02*
X14611909Y-4950679D01*
X14611909Y-4915119D02*
X14576349Y-4950679D01*
X14576349Y-7020119D02*
X14611909Y-7055679D01*
X14611909Y-7020119D02*
X14576349Y-7055679D01*
X14576349Y-9125119D02*
X14611909Y-9160679D01*
X14611909Y-9125119D02*
X14576349Y-9160679D01*
X14576349Y-11230119D02*
X14611909Y-11265679D01*
X14611909Y-11230119D02*
X14576349Y-11265679D01*
X14576349Y-13335119D02*
X14611909Y-13370679D01*
X14611909Y-13335119D02*
X14576349Y-13370679D01*
X14590539Y-5241308D02*
X14626099Y-5276868D01*
X14626099Y-5241308D02*
X14590539Y-5276868D01*
X14590539Y-7346308D02*
X14626099Y-7381868D01*
X14626099Y-7346308D02*
X14590539Y-7381868D01*
X14590539Y-9451308D02*
X14626099Y-9486868D01*
X14626099Y-9451308D02*
X14590539Y-9486868D01*
X14590539Y-11556308D02*
X14626099Y-11591868D01*
X14626099Y-11556308D02*
X14590539Y-11591868D01*
X14590539Y-13661308D02*
X14626099Y-13696868D01*
X14626099Y-13661308D02*
X14590539Y-13696868D01*
X4868417Y-4511241D02*
G75*
G03*
X4868417Y-4511241I-20000J0D01*
G01*
X4868417Y-6616241D02*
G75*
G03*
X4868417Y-6616241I-20000J0D01*
G01*
X4868417Y-8721241D02*
G75*
G03*
X4868417Y-8721241I-20000J0D01*
G01*
X4868417Y-10826241D02*
G75*
G03*
X4868417Y-10826241I-20000J0D01*
G01*
X4868417Y-12931241D02*
G75*
G03*
X4868417Y-12931241I-20000J0D01*
G01*
X4982775Y-4285508D02*
G75*
G03*
X4982775Y-4285508I-20000J0D01*
G01*
X4982775Y-6390508D02*
G75*
G03*
X4982775Y-6390508I-20000J0D01*
G01*
X4982775Y-8495508D02*
G75*
G03*
X4982775Y-8495508I-20000J0D01*
G01*
X4982775Y-10600508D02*
G75*
G03*
X4982775Y-10600508I-20000J0D01*
G01*
X4982775Y-12705508D02*
G75*
G03*
X4982775Y-12705508I-20000J0D01*
G01*
X6174957Y-4286806D02*
G75*
G03*
X6174957Y-4286806I-20000J0D01*
G01*
X6174957Y-6391806D02*
G75*
G03*
X6174957Y-6391806I-20000J0D01*
G01*
X6174957Y-8496806D02*
G75*
G03*
X6174957Y-8496806I-20000J0D01*
G01*
X6174957Y-10601806D02*
G75*
G03*
X6174957Y-10601806I-20000J0D01*
G01*
X6174957Y-12706806D02*
G75*
G03*
X6174957Y-12706806I-20000J0D01*
G01*
X6973417Y-4511241D02*
G75*
G03*
X6973417Y-4511241I-20000J0D01*
G01*
X6973417Y-6616241D02*
G75*
G03*
X6973417Y-6616241I-20000J0D01*
G01*
X6973417Y-8721241D02*
G75*
G03*
X6973417Y-8721241I-20000J0D01*
G01*
X6973417Y-10826241D02*
G75*
G03*
X6973417Y-10826241I-20000J0D01*
G01*
X6973417Y-12931241D02*
G75*
G03*
X6973417Y-12931241I-20000J0D01*
G01*
X7087775Y-4285508D02*
G75*
G03*
X7087775Y-4285508I-20000J0D01*
G01*
X7087775Y-6390508D02*
G75*
G03*
X7087775Y-6390508I-20000J0D01*
G01*
X7087775Y-8495508D02*
G75*
G03*
X7087775Y-8495508I-20000J0D01*
G01*
X7087775Y-10600508D02*
G75*
G03*
X7087775Y-10600508I-20000J0D01*
G01*
X7087775Y-12705508D02*
G75*
G03*
X7087775Y-12705508I-20000J0D01*
G01*
X8279957Y-4286806D02*
G75*
G03*
X8279957Y-4286806I-20000J0D01*
G01*
X8279957Y-6391806D02*
G75*
G03*
X8279957Y-6391806I-20000J0D01*
G01*
X8279957Y-8496806D02*
G75*
G03*
X8279957Y-8496806I-20000J0D01*
G01*
X8279957Y-10601806D02*
G75*
G03*
X8279957Y-10601806I-20000J0D01*
G01*
X8279957Y-12706806D02*
G75*
G03*
X8279957Y-12706806I-20000J0D01*
G01*
X9078417Y-4511241D02*
G75*
G03*
X9078417Y-4511241I-20000J0D01*
G01*
X9078417Y-6616241D02*
G75*
G03*
X9078417Y-6616241I-20000J0D01*
G01*
X9078417Y-8721241D02*
G75*
G03*
X9078417Y-8721241I-20000J0D01*
G01*
X9078417Y-10826241D02*
G75*
G03*
X9078417Y-10826241I-20000J0D01*
G01*
X9078417Y-12931241D02*
G75*
G03*
X9078417Y-12931241I-20000J0D01*
G01*
X9192775Y-4285508D02*
G75*
G03*
X9192775Y-4285508I-20000J0D01*
G01*
X9192775Y-6390508D02*
G75*
G03*
X9192775Y-6390508I-20000J0D01*
G01*
X9192775Y-8495508D02*
G75*
G03*
X9192775Y-8495508I-20000J0D01*
G01*
X9192775Y-10600508D02*
G75*
G03*
X9192775Y-10600508I-20000J0D01*
G01*
X9192775Y-12705508D02*
G75*
G03*
X9192775Y-12705508I-20000J0D01*
G01*
X10384957Y-4286806D02*
G75*
G03*
X10384957Y-4286806I-20000J0D01*
G01*
X10384957Y-6391806D02*
G75*
G03*
X10384957Y-6391806I-20000J0D01*
G01*
X10384957Y-8496806D02*
G75*
G03*
X10384957Y-8496806I-20000J0D01*
G01*
X10384957Y-10601806D02*
G75*
G03*
X10384957Y-10601806I-20000J0D01*
G01*
X10384957Y-12706806D02*
G75*
G03*
X10384957Y-12706806I-20000J0D01*
G01*
X11183417Y-4511241D02*
G75*
G03*
X11183417Y-4511241I-20000J0D01*
G01*
X11183417Y-6616241D02*
G75*
G03*
X11183417Y-6616241I-20000J0D01*
G01*
X11183417Y-8721241D02*
G75*
G03*
X11183417Y-8721241I-20000J0D01*
G01*
X11183417Y-10826241D02*
G75*
G03*
X11183417Y-10826241I-20000J0D01*
G01*
X11183417Y-12931241D02*
G75*
G03*
X11183417Y-12931241I-20000J0D01*
G01*
X11297775Y-4285508D02*
G75*
G03*
X11297775Y-4285508I-20000J0D01*
G01*
X11297775Y-6390508D02*
G75*
G03*
X11297775Y-6390508I-20000J0D01*
G01*
X11297775Y-8495508D02*
G75*
G03*
X11297775Y-8495508I-20000J0D01*
G01*
X11297775Y-10600508D02*
G75*
G03*
X11297775Y-10600508I-20000J0D01*
G01*
X11297775Y-12705508D02*
G75*
G03*
X11297775Y-12705508I-20000J0D01*
G01*
X12489957Y-4286806D02*
G75*
G03*
X12489957Y-4286806I-20000J0D01*
G01*
X12489957Y-6391806D02*
G75*
G03*
X12489957Y-6391806I-20000J0D01*
G01*
X12489957Y-8496806D02*
G75*
G03*
X12489957Y-8496806I-20000J0D01*
G01*
X12489957Y-10601806D02*
G75*
G03*
X12489957Y-10601806I-20000J0D01*
G01*
X12489957Y-12706806D02*
G75*
G03*
X12489957Y-12706806I-20000J0D01*
G01*
X13288417Y-4511241D02*
G75*
G03*
X13288417Y-4511241I-20000J0D01*
G01*
X13288417Y-6616241D02*
G75*
G03*
X13288417Y-6616241I-20000J0D01*
G01*
X13288417Y-8721241D02*
G75*
G03*
X13288417Y-8721241I-20000J0D01*
G01*
X13288417Y-10826241D02*
G75*
G03*
X13288417Y-10826241I-20000J0D01*
G01*
X13288417Y-12931241D02*
G75*
G03*
X13288417Y-12931241I-20000J0D01*
G01*
X13402775Y-4285508D02*
G75*
G03*
X13402775Y-4285508I-20000J0D01*
G01*
X13402775Y-6390508D02*
G75*
G03*
X13402775Y-6390508I-20000J0D01*
G01*
X13402775Y-8495508D02*
G75*
G03*
X13402775Y-8495508I-20000J0D01*
G01*
X13402775Y-10600508D02*
G75*
G03*
X13402775Y-10600508I-20000J0D01*
G01*
X13402775Y-12705508D02*
G75*
G03*
X13402775Y-12705508I-20000J0D01*
G01*
X14594957Y-4286806D02*
G75*
G03*
X14594957Y-4286806I-20000J0D01*
G01*
X14594957Y-6391806D02*
G75*
G03*
X14594957Y-6391806I-20000J0D01*
G01*
X14594957Y-8496806D02*
G75*
G03*
X14594957Y-8496806I-20000J0D01*
G01*
X14594957Y-10601806D02*
G75*
G03*
X14594957Y-10601806I-20000J0D01*
G01*
X14594957Y-12706806D02*
G75*
G03*
X14594957Y-12706806I-20000J0D01*
G01*
X4888255Y-4059505D02*
X4888255Y-4129505D01*
X4853255Y-4094505D02*
X4923255Y-4094505D01*
X4888255Y-5812105D02*
X4888255Y-5882105D01*
X4853255Y-5847105D02*
X4923255Y-5847105D01*
X4888255Y-6164505D02*
X4888255Y-6234505D01*
X4853255Y-6199505D02*
X4923255Y-6199505D01*
X4888255Y-7917105D02*
X4888255Y-7987105D01*
X4853255Y-7952105D02*
X4923255Y-7952105D01*
X4888255Y-8269505D02*
X4888255Y-8339505D01*
X4853255Y-8304505D02*
X4923255Y-8304505D01*
X4888255Y-10022105D02*
X4888255Y-10092105D01*
X4853255Y-10057105D02*
X4923255Y-10057105D01*
X4888255Y-10374505D02*
X4888255Y-10444505D01*
X4853255Y-10409505D02*
X4923255Y-10409505D01*
X4888255Y-12127105D02*
X4888255Y-12197105D01*
X4853255Y-12162105D02*
X4923255Y-12162105D01*
X4888255Y-12479505D02*
X4888255Y-12549505D01*
X4853255Y-12514505D02*
X4923255Y-12514505D01*
X4888255Y-14232105D02*
X4888255Y-14302105D01*
X4853255Y-14267105D02*
X4923255Y-14267105D01*
X6082055Y-4059505D02*
X6082055Y-4129505D01*
X6047055Y-4094505D02*
X6117055Y-4094505D01*
X6082055Y-5812105D02*
X6082055Y-5882105D01*
X6047055Y-5847105D02*
X6117055Y-5847105D01*
X6082055Y-6164505D02*
X6082055Y-6234505D01*
X6047055Y-6199505D02*
X6117055Y-6199505D01*
X6082055Y-7917105D02*
X6082055Y-7987105D01*
X6047055Y-7952105D02*
X6117055Y-7952105D01*
X6082055Y-8269505D02*
X6082055Y-8339505D01*
X6047055Y-8304505D02*
X6117055Y-8304505D01*
X6082055Y-10022105D02*
X6082055Y-10092105D01*
X6047055Y-10057105D02*
X6117055Y-10057105D01*
X6082055Y-10374505D02*
X6082055Y-10444505D01*
X6047055Y-10409505D02*
X6117055Y-10409505D01*
X6082055Y-12127105D02*
X6082055Y-12197105D01*
X6047055Y-12162105D02*
X6117055Y-12162105D01*
X6082055Y-12479505D02*
X6082055Y-12549505D01*
X6047055Y-12514505D02*
X6117055Y-12514505D01*
X6082055Y-14232105D02*
X6082055Y-14302105D01*
X6047055Y-14267105D02*
X6117055Y-14267105D01*
X6993255Y-4059505D02*
X6993255Y-4129505D01*
X6958255Y-4094505D02*
X7028255Y-4094505D01*
X6993255Y-5812105D02*
X6993255Y-5882105D01*
X6958255Y-5847105D02*
X7028255Y-5847105D01*
X6993255Y-6164505D02*
X6993255Y-6234505D01*
X6958255Y-6199505D02*
X7028255Y-6199505D01*
X6993255Y-7917105D02*
X6993255Y-7987105D01*
X6958255Y-7952105D02*
X7028255Y-7952105D01*
X6993255Y-8269505D02*
X6993255Y-8339505D01*
X6958255Y-8304505D02*
X7028255Y-8304505D01*
X6993255Y-10022105D02*
X6993255Y-10092105D01*
X6958255Y-10057105D02*
X7028255Y-10057105D01*
X6993255Y-10374505D02*
X6993255Y-10444505D01*
X6958255Y-10409505D02*
X7028255Y-10409505D01*
X6993255Y-12127105D02*
X6993255Y-12197105D01*
X6958255Y-12162105D02*
X7028255Y-12162105D01*
X6993255Y-12479505D02*
X6993255Y-12549505D01*
X6958255Y-12514505D02*
X7028255Y-12514505D01*
X6993255Y-14232105D02*
X6993255Y-14302105D01*
X6958255Y-14267105D02*
X7028255Y-14267105D01*
X8187055Y-4059505D02*
X8187055Y-4129505D01*
X8152055Y-4094505D02*
X8222055Y-4094505D01*
X8187055Y-5812105D02*
X8187055Y-5882105D01*
X8152055Y-5847105D02*
X8222055Y-5847105D01*
X8187055Y-6164505D02*
X8187055Y-6234505D01*
X8152055Y-6199505D02*
X8222055Y-6199505D01*
X8187055Y-7917105D02*
X8187055Y-7987105D01*
X8152055Y-7952105D02*
X8222055Y-7952105D01*
X8187055Y-8269505D02*
X8187055Y-8339505D01*
X8152055Y-8304505D02*
X8222055Y-8304505D01*
X8187055Y-10022105D02*
X8187055Y-10092105D01*
X8152055Y-10057105D02*
X8222055Y-10057105D01*
X8187055Y-10374505D02*
X8187055Y-10444505D01*
X8152055Y-10409505D02*
X8222055Y-10409505D01*
X8187055Y-12127105D02*
X8187055Y-12197105D01*
X8152055Y-12162105D02*
X8222055Y-12162105D01*
X8187055Y-12479505D02*
X8187055Y-12549505D01*
X8152055Y-12514505D02*
X8222055Y-12514505D01*
X8187055Y-14232105D02*
X8187055Y-14302105D01*
X8152055Y-14267105D02*
X8222055Y-14267105D01*
X9098255Y-4059505D02*
X9098255Y-4129505D01*
X9063255Y-4094505D02*
X9133255Y-4094505D01*
X9098255Y-5812105D02*
X9098255Y-5882105D01*
X9063255Y-5847105D02*
X9133255Y-5847105D01*
X9098255Y-6164505D02*
X9098255Y-6234505D01*
X9063255Y-6199505D02*
X9133255Y-6199505D01*
X9098255Y-7917105D02*
X9098255Y-7987105D01*
X9063255Y-7952105D02*
X9133255Y-7952105D01*
X9098255Y-8269505D02*
X9098255Y-8339505D01*
X9063255Y-8304505D02*
X9133255Y-8304505D01*
X9098255Y-10022105D02*
X9098255Y-10092105D01*
X9063255Y-10057105D02*
X9133255Y-10057105D01*
X9098255Y-10374505D02*
X9098255Y-10444505D01*
X9063255Y-10409505D02*
X9133255Y-10409505D01*
X9098255Y-12127105D02*
X9098255Y-12197105D01*
X9063255Y-12162105D02*
X9133255Y-12162105D01*
X9098255Y-12479505D02*
X9098255Y-12549505D01*
X9063255Y-12514505D02*
X9133255Y-12514505D01*
X9098255Y-14232105D02*
X9098255Y-14302105D01*
X9063255Y-14267105D02*
X9133255Y-14267105D01*
X10292055Y-4059505D02*
X10292055Y-4129505D01*
X10257055Y-4094505D02*
X10327055Y-4094505D01*
X10292055Y-5812105D02*
X10292055Y-5882105D01*
X10257055Y-5847105D02*
X10327055Y-5847105D01*
X10292055Y-6164505D02*
X10292055Y-6234505D01*
X10257055Y-6199505D02*
X10327055Y-6199505D01*
X10292055Y-7917105D02*
X10292055Y-7987105D01*
X10257055Y-7952105D02*
X10327055Y-7952105D01*
X10292055Y-8269505D02*
X10292055Y-8339505D01*
X10257055Y-8304505D02*
X10327055Y-8304505D01*
X10292055Y-10022105D02*
X10292055Y-10092105D01*
X10257055Y-10057105D02*
X10327055Y-10057105D01*
X10292055Y-10374505D02*
X10292055Y-10444505D01*
X10257055Y-10409505D02*
X10327055Y-10409505D01*
X10292055Y-12127105D02*
X10292055Y-12197105D01*
X10257055Y-12162105D02*
X10327055Y-12162105D01*
X10292055Y-12479505D02*
X10292055Y-12549505D01*
X10257055Y-12514505D02*
X10327055Y-12514505D01*
X10292055Y-14232105D02*
X10292055Y-14302105D01*
X10257055Y-14267105D02*
X10327055Y-14267105D01*
X11203255Y-4059505D02*
X11203255Y-4129505D01*
X11168255Y-4094505D02*
X11238255Y-4094505D01*
X11203255Y-5812105D02*
X11203255Y-5882105D01*
X11168255Y-5847105D02*
X11238255Y-5847105D01*
X11203255Y-6164505D02*
X11203255Y-6234505D01*
X11168255Y-6199505D02*
X11238255Y-6199505D01*
X11203255Y-7917105D02*
X11203255Y-7987105D01*
X11168255Y-7952105D02*
X11238255Y-7952105D01*
X11203255Y-8269505D02*
X11203255Y-8339505D01*
X11168255Y-8304505D02*
X11238255Y-8304505D01*
X11203255Y-10022105D02*
X11203255Y-10092105D01*
X11168255Y-10057105D02*
X11238255Y-10057105D01*
X11203255Y-10374505D02*
X11203255Y-10444505D01*
X11168255Y-10409505D02*
X11238255Y-10409505D01*
X11203255Y-12127105D02*
X11203255Y-12197105D01*
X11168255Y-12162105D02*
X11238255Y-12162105D01*
X11203255Y-12479505D02*
X11203255Y-12549505D01*
X11168255Y-12514505D02*
X11238255Y-12514505D01*
X11203255Y-14232105D02*
X11203255Y-14302105D01*
X11168255Y-14267105D02*
X11238255Y-14267105D01*
X12397055Y-4059505D02*
X12397055Y-4129505D01*
X12362055Y-4094505D02*
X12432055Y-4094505D01*
X12397055Y-5812105D02*
X12397055Y-5882105D01*
X12362055Y-5847105D02*
X12432055Y-5847105D01*
X12397055Y-6164505D02*
X12397055Y-6234505D01*
X12362055Y-6199505D02*
X12432055Y-6199505D01*
X12397055Y-7917105D02*
X12397055Y-7987105D01*
X12362055Y-7952105D02*
X12432055Y-7952105D01*
X12397055Y-8269505D02*
X12397055Y-8339505D01*
X12362055Y-8304505D02*
X12432055Y-8304505D01*
X12397055Y-10022105D02*
X12397055Y-10092105D01*
X12362055Y-10057105D02*
X12432055Y-10057105D01*
X12397055Y-10374505D02*
X12397055Y-10444505D01*
X12362055Y-10409505D02*
X12432055Y-10409505D01*
X12397055Y-12127105D02*
X12397055Y-12197105D01*
X12362055Y-12162105D02*
X12432055Y-12162105D01*
X12397055Y-12479505D02*
X12397055Y-12549505D01*
X12362055Y-12514505D02*
X12432055Y-12514505D01*
X12397055Y-14232105D02*
X12397055Y-14302105D01*
X12362055Y-14267105D02*
X12432055Y-14267105D01*
X13308255Y-4059505D02*
X13308255Y-4129505D01*
X13273255Y-4094505D02*
X13343255Y-4094505D01*
X13308255Y-5812105D02*
X13308255Y-5882105D01*
X13273255Y-5847105D02*
X13343255Y-5847105D01*
X13308255Y-6164505D02*
X13308255Y-6234505D01*
X13273255Y-6199505D02*
X13343255Y-6199505D01*
X13308255Y-7917105D02*
X13308255Y-7987105D01*
X13273255Y-7952105D02*
X13343255Y-7952105D01*
X13308255Y-8269505D02*
X13308255Y-8339505D01*
X13273255Y-8304505D02*
X13343255Y-8304505D01*
X13308255Y-10022105D02*
X13308255Y-10092105D01*
X13273255Y-10057105D02*
X13343255Y-10057105D01*
X13308255Y-10374505D02*
X13308255Y-10444505D01*
X13273255Y-10409505D02*
X13343255Y-10409505D01*
X13308255Y-12127105D02*
X13308255Y-12197105D01*
X13273255Y-12162105D02*
X13343255Y-12162105D01*
X13308255Y-12479505D02*
X13308255Y-12549505D01*
X13273255Y-12514505D02*
X13343255Y-12514505D01*
X13308255Y-14232105D02*
X13308255Y-14302105D01*
X13273255Y-14267105D02*
X13343255Y-14267105D01*
X14502055Y-4059505D02*
X14502055Y-4129505D01*
X14467055Y-4094505D02*
X14537055Y-4094505D01*
X14502055Y-5812105D02*
X14502055Y-5882105D01*
X14467055Y-5847105D02*
X14537055Y-5847105D01*
X14502055Y-6164505D02*
X14502055Y-6234505D01*
X14467055Y-6199505D02*
X14537055Y-6199505D01*
X14502055Y-7917105D02*
X14502055Y-7987105D01*
X14467055Y-7952105D02*
X14537055Y-7952105D01*
X14502055Y-8269505D02*
X14502055Y-8339505D01*
X14467055Y-8304505D02*
X14537055Y-8304505D01*
X14502055Y-10022105D02*
X14502055Y-10092105D01*
X14467055Y-10057105D02*
X14537055Y-10057105D01*
X14502055Y-10374505D02*
X14502055Y-10444505D01*
X14467055Y-10409505D02*
X14537055Y-10409505D01*
X14502055Y-12127105D02*
X14502055Y-12197105D01*
X14467055Y-12162105D02*
X14537055Y-12162105D01*
X14502055Y-12479505D02*
X14502055Y-12549505D01*
X14467055Y-12514505D02*
X14537055Y-12514505D01*
X14502055Y-14232105D02*
X14502055Y-14302105D01*
X14467055Y-14267105D02*
X14537055Y-14267105D01*
X5157188Y-4896839D02*
X5157188Y-4790772D01*
X5051121Y-4790772D01*
X5051121Y-4896839D01*
X5157188Y-4896839D01*
X5157188Y-7001839D02*
X5157188Y-6895772D01*
X5051121Y-6895772D01*
X5051121Y-7001839D01*
X5157188Y-7001839D01*
X5157188Y-9106839D02*
X5157188Y-9000772D01*
X5051121Y-9000772D01*
X5051121Y-9106839D01*
X5157188Y-9106839D01*
X5157188Y-11211839D02*
X5157188Y-11105772D01*
X5051121Y-11105772D01*
X5051121Y-11211839D01*
X5157188Y-11211839D01*
X5157188Y-13316839D02*
X5157188Y-13210772D01*
X5051121Y-13210772D01*
X5051121Y-13316839D01*
X5157188Y-13316839D01*
X5792188Y-4642839D02*
X5792188Y-4536772D01*
X5686121Y-4536772D01*
X5686121Y-4642839D01*
X5792188Y-4642839D01*
X5792188Y-6747839D02*
X5792188Y-6641772D01*
X5686121Y-6641772D01*
X5686121Y-6747839D01*
X5792188Y-6747839D01*
X5792188Y-8852839D02*
X5792188Y-8746772D01*
X5686121Y-8746772D01*
X5686121Y-8852839D01*
X5792188Y-8852839D01*
X5792188Y-10957839D02*
X5792188Y-10851772D01*
X5686121Y-10851772D01*
X5686121Y-10957839D01*
X5792188Y-10957839D01*
X5792188Y-13062839D02*
X5792188Y-12956772D01*
X5686121Y-12956772D01*
X5686121Y-13062839D01*
X5792188Y-13062839D01*
X7262188Y-4896839D02*
X7262188Y-4790772D01*
X7156121Y-4790772D01*
X7156121Y-4896839D01*
X7262188Y-4896839D01*
X7262188Y-7001839D02*
X7262188Y-6895772D01*
X7156121Y-6895772D01*
X7156121Y-7001839D01*
X7262188Y-7001839D01*
X7262188Y-9106839D02*
X7262188Y-9000772D01*
X7156121Y-9000772D01*
X7156121Y-9106839D01*
X7262188Y-9106839D01*
X7262188Y-11211839D02*
X7262188Y-11105772D01*
X7156121Y-11105772D01*
X7156121Y-11211839D01*
X7262188Y-11211839D01*
X7262188Y-13316839D02*
X7262188Y-13210772D01*
X7156121Y-13210772D01*
X7156121Y-13316839D01*
X7262188Y-13316839D01*
X7897188Y-4642839D02*
X7897188Y-4536772D01*
X7791121Y-4536772D01*
X7791121Y-4642839D01*
X7897188Y-4642839D01*
X7897188Y-6747839D02*
X7897188Y-6641772D01*
X7791121Y-6641772D01*
X7791121Y-6747839D01*
X7897188Y-6747839D01*
X7897188Y-8852839D02*
X7897188Y-8746772D01*
X7791121Y-8746772D01*
X7791121Y-8852839D01*
X7897188Y-8852839D01*
X7897188Y-10957839D02*
X7897188Y-10851772D01*
X7791121Y-10851772D01*
X7791121Y-10957839D01*
X7897188Y-10957839D01*
X7897188Y-13062839D02*
X7897188Y-12956772D01*
X7791121Y-12956772D01*
X7791121Y-13062839D01*
X7897188Y-13062839D01*
X9367188Y-4896839D02*
X9367188Y-4790772D01*
X9261121Y-4790772D01*
X9261121Y-4896839D01*
X9367188Y-4896839D01*
X9367188Y-7001839D02*
X9367188Y-6895772D01*
X9261121Y-6895772D01*
X9261121Y-7001839D01*
X9367188Y-7001839D01*
X9367188Y-9106839D02*
X9367188Y-9000772D01*
X9261121Y-9000772D01*
X9261121Y-9106839D01*
X9367188Y-9106839D01*
X9367188Y-11211839D02*
X9367188Y-11105772D01*
X9261121Y-11105772D01*
X9261121Y-11211839D01*
X9367188Y-11211839D01*
X9367188Y-13316839D02*
X9367188Y-13210772D01*
X9261121Y-13210772D01*
X9261121Y-13316839D01*
X9367188Y-13316839D01*
X10002188Y-4642839D02*
X10002188Y-4536772D01*
X9896121Y-4536772D01*
X9896121Y-4642839D01*
X10002188Y-4642839D01*
X10002188Y-6747839D02*
X10002188Y-6641772D01*
X9896121Y-6641772D01*
X9896121Y-6747839D01*
X10002188Y-6747839D01*
X10002188Y-8852839D02*
X10002188Y-8746772D01*
X9896121Y-8746772D01*
X9896121Y-8852839D01*
X10002188Y-8852839D01*
X10002188Y-10957839D02*
X10002188Y-10851772D01*
X9896121Y-10851772D01*
X9896121Y-10957839D01*
X10002188Y-10957839D01*
X10002188Y-13062839D02*
X10002188Y-12956772D01*
X9896121Y-12956772D01*
X9896121Y-13062839D01*
X10002188Y-13062839D01*
X11472188Y-4896839D02*
X11472188Y-4790772D01*
X11366121Y-4790772D01*
X11366121Y-4896839D01*
X11472188Y-4896839D01*
X11472188Y-7001839D02*
X11472188Y-6895772D01*
X11366121Y-6895772D01*
X11366121Y-7001839D01*
X11472188Y-7001839D01*
X11472188Y-9106839D02*
X11472188Y-9000772D01*
X11366121Y-9000772D01*
X11366121Y-9106839D01*
X11472188Y-9106839D01*
X11472188Y-11211839D02*
X11472188Y-11105772D01*
X11366121Y-11105772D01*
X11366121Y-11211839D01*
X11472188Y-11211839D01*
X11472188Y-13316839D02*
X11472188Y-13210772D01*
X11366121Y-13210772D01*
X11366121Y-13316839D01*
X11472188Y-13316839D01*
X12107188Y-4642839D02*
X12107188Y-4536772D01*
X12001121Y-4536772D01*
X12001121Y-4642839D01*
X12107188Y-4642839D01*
X12107188Y-6747839D02*
X12107188Y-6641772D01*
X12001121Y-6641772D01*
X12001121Y-6747839D01*
X12107188Y-6747839D01*
X12107188Y-8852839D02*
X12107188Y-8746772D01*
X12001121Y-8746772D01*
X12001121Y-8852839D01*
X12107188Y-8852839D01*
X12107188Y-10957839D02*
X12107188Y-10851772D01*
X12001121Y-10851772D01*
X12001121Y-10957839D01*
X12107188Y-10957839D01*
X12107188Y-13062839D02*
X12107188Y-12956772D01*
X12001121Y-12956772D01*
X12001121Y-13062839D01*
X12107188Y-13062839D01*
X13577188Y-4896839D02*
X13577188Y-4790772D01*
X13471121Y-4790772D01*
X13471121Y-4896839D01*
X13577188Y-4896839D01*
X13577188Y-7001839D02*
X13577188Y-6895772D01*
X13471121Y-6895772D01*
X13471121Y-7001839D01*
X13577188Y-7001839D01*
X13577188Y-9106839D02*
X13577188Y-9000772D01*
X13471121Y-9000772D01*
X13471121Y-9106839D01*
X13577188Y-9106839D01*
X13577188Y-11211839D02*
X13577188Y-11105772D01*
X13471121Y-11105772D01*
X13471121Y-11211839D01*
X13577188Y-11211839D01*
X13577188Y-13316839D02*
X13577188Y-13210772D01*
X13471121Y-13210772D01*
X13471121Y-13316839D01*
X13577188Y-13316839D01*
X14212188Y-4642839D02*
X14212188Y-4536772D01*
X14106121Y-4536772D01*
X14106121Y-4642839D01*
X14212188Y-4642839D01*
X14212188Y-6747839D02*
X14212188Y-6641772D01*
X14106121Y-6641772D01*
X14106121Y-6747839D01*
X14212188Y-6747839D01*
X14212188Y-8852839D02*
X14212188Y-8746772D01*
X14106121Y-8746772D01*
X14106121Y-8852839D01*
X14212188Y-8852839D01*
X14212188Y-10957839D02*
X14212188Y-10851772D01*
X14106121Y-10851772D01*
X14106121Y-10957839D01*
X14212188Y-10957839D01*
X14212188Y-13062839D02*
X14212188Y-12956772D01*
X14106121Y-12956772D01*
X14106121Y-13062839D01*
X14212188Y-13062839D01*
D12*
X4816578Y-15311514D02*
X4816578Y-15011514D01*
X4888007Y-15011514D01*
X4930864Y-15025800D01*
X4959436Y-15054371D01*
X4973721Y-15082943D01*
X4988007Y-15140086D01*
X4988007Y-15182943D01*
X4973721Y-15240086D01*
X4959436Y-15268657D01*
X4930864Y-15297229D01*
X4888007Y-15311514D01*
X4816578Y-15311514D01*
X5116578Y-15311514D02*
X5116578Y-15111514D01*
X5116578Y-15168657D02*
X5130864Y-15140086D01*
X5145150Y-15125800D01*
X5173721Y-15111514D01*
X5202293Y-15111514D01*
X5302293Y-15311514D02*
X5302293Y-15111514D01*
X5302293Y-15011514D02*
X5288007Y-15025800D01*
X5302293Y-15040086D01*
X5316578Y-15025800D01*
X5302293Y-15011514D01*
X5302293Y-15040086D01*
X5488007Y-15311514D02*
X5459436Y-15297229D01*
X5445150Y-15268657D01*
X5445150Y-15011514D01*
X5645150Y-15311514D02*
X5616578Y-15297229D01*
X5602293Y-15268657D01*
X5602293Y-15011514D01*
X5988007Y-15311514D02*
X5988007Y-15011514D01*
X6088007Y-15225800D01*
X6188007Y-15011514D01*
X6188007Y-15311514D01*
X6459436Y-15311514D02*
X6459436Y-15154371D01*
X6445150Y-15125800D01*
X6416578Y-15111514D01*
X6359436Y-15111514D01*
X6330864Y-15125800D01*
X6459436Y-15297229D02*
X6430864Y-15311514D01*
X6359436Y-15311514D01*
X6330864Y-15297229D01*
X6316578Y-15268657D01*
X6316578Y-15240086D01*
X6330864Y-15211514D01*
X6359436Y-15197229D01*
X6430864Y-15197229D01*
X6459436Y-15182943D01*
X6602293Y-15111514D02*
X6602293Y-15411514D01*
X6602293Y-15125800D02*
X6630864Y-15111514D01*
X6688007Y-15111514D01*
X6716578Y-15125800D01*
X6730864Y-15140086D01*
X6745150Y-15168657D01*
X6745150Y-15254371D01*
X6730864Y-15282943D01*
X6716578Y-15297229D01*
X6688007Y-15311514D01*
X6630864Y-15311514D01*
X6602293Y-15297229D01*
X6873721Y-15282943D02*
X6888007Y-15297229D01*
X6873721Y-15311514D01*
X6859436Y-15297229D01*
X6873721Y-15282943D01*
X6873721Y-15311514D01*
X6873721Y-15125800D02*
X6888007Y-15140086D01*
X6873721Y-15154371D01*
X6859436Y-15140086D01*
X6873721Y-15125800D01*
X6873721Y-15154371D01*
X4494590Y-15788020D02*
X4530150Y-15823580D01*
X4530150Y-15788020D02*
X4494590Y-15823580D01*
X4873721Y-15641514D02*
X4902293Y-15641514D01*
X4930864Y-15655800D01*
X4945150Y-15670086D01*
X4959436Y-15698657D01*
X4973721Y-15755800D01*
X4973721Y-15827229D01*
X4959436Y-15884371D01*
X4945150Y-15912943D01*
X4930864Y-15927229D01*
X4902293Y-15941514D01*
X4873721Y-15941514D01*
X4845150Y-15927229D01*
X4830864Y-15912943D01*
X4816578Y-15884371D01*
X4802293Y-15827229D01*
X4802293Y-15755800D01*
X4816578Y-15698657D01*
X4830864Y-15670086D01*
X4845150Y-15655800D01*
X4873721Y-15641514D01*
X5102293Y-15912943D02*
X5116578Y-15927229D01*
X5102293Y-15941514D01*
X5088007Y-15927229D01*
X5102293Y-15912943D01*
X5102293Y-15941514D01*
X5216578Y-15641514D02*
X5402293Y-15641514D01*
X5302293Y-15755800D01*
X5345150Y-15755800D01*
X5373721Y-15770086D01*
X5388007Y-15784371D01*
X5402293Y-15812943D01*
X5402293Y-15884371D01*
X5388007Y-15912943D01*
X5373721Y-15927229D01*
X5345150Y-15941514D01*
X5259436Y-15941514D01*
X5230864Y-15927229D01*
X5216578Y-15912943D01*
X5659436Y-15641514D02*
X5602293Y-15641514D01*
X5573721Y-15655800D01*
X5559436Y-15670086D01*
X5530864Y-15712943D01*
X5516578Y-15770086D01*
X5516578Y-15884371D01*
X5530864Y-15912943D01*
X5545150Y-15927229D01*
X5573721Y-15941514D01*
X5630864Y-15941514D01*
X5659436Y-15927229D01*
X5673721Y-15912943D01*
X5688007Y-15884371D01*
X5688007Y-15812943D01*
X5673721Y-15784371D01*
X5659436Y-15770086D01*
X5630864Y-15755800D01*
X5573721Y-15755800D01*
X5545150Y-15770086D01*
X5530864Y-15784371D01*
X5516578Y-15812943D01*
X5816578Y-15941514D02*
X5816578Y-15741514D01*
X5816578Y-15770086D02*
X5830864Y-15755800D01*
X5859436Y-15741514D01*
X5902293Y-15741514D01*
X5930864Y-15755800D01*
X5945150Y-15784371D01*
X5945150Y-15941514D01*
X5945150Y-15784371D02*
X5959436Y-15755800D01*
X5988007Y-15741514D01*
X6030864Y-15741514D01*
X6059436Y-15755800D01*
X6073721Y-15784371D01*
X6073721Y-15941514D01*
X6216578Y-15941514D02*
X6216578Y-15741514D01*
X6216578Y-15770086D02*
X6230864Y-15755800D01*
X6259436Y-15741514D01*
X6302293Y-15741514D01*
X6330864Y-15755800D01*
X6345150Y-15784371D01*
X6345150Y-15941514D01*
X6345150Y-15784371D02*
X6359436Y-15755800D01*
X6388007Y-15741514D01*
X6430864Y-15741514D01*
X6459436Y-15755800D01*
X6473721Y-15784371D01*
X6473721Y-15941514D01*
X7059436Y-15627229D02*
X6802293Y-16012943D01*
X7445150Y-15641514D02*
X7473721Y-15641514D01*
X7502293Y-15655800D01*
X7516578Y-15670086D01*
X7530864Y-15698657D01*
X7545150Y-15755800D01*
X7545150Y-15827229D01*
X7530864Y-15884371D01*
X7516578Y-15912943D01*
X7502293Y-15927229D01*
X7473721Y-15941514D01*
X7445150Y-15941514D01*
X7416578Y-15927229D01*
X7402293Y-15912943D01*
X7388007Y-15884371D01*
X7373721Y-15827229D01*
X7373721Y-15755800D01*
X7388007Y-15698657D01*
X7402293Y-15670086D01*
X7416578Y-15655800D01*
X7445150Y-15641514D01*
X7673721Y-15912943D02*
X7688007Y-15927229D01*
X7673721Y-15941514D01*
X7659436Y-15927229D01*
X7673721Y-15912943D01*
X7673721Y-15941514D01*
X7873721Y-15641514D02*
X7902293Y-15641514D01*
X7930864Y-15655800D01*
X7945150Y-15670086D01*
X7959436Y-15698657D01*
X7973721Y-15755800D01*
X7973721Y-15827229D01*
X7959436Y-15884371D01*
X7945150Y-15912943D01*
X7930864Y-15927229D01*
X7902293Y-15941514D01*
X7873721Y-15941514D01*
X7845150Y-15927229D01*
X7830864Y-15912943D01*
X7816578Y-15884371D01*
X7802293Y-15827229D01*
X7802293Y-15755800D01*
X7816578Y-15698657D01*
X7830864Y-15670086D01*
X7845150Y-15655800D01*
X7873721Y-15641514D01*
X8259436Y-15941514D02*
X8088007Y-15941514D01*
X8173721Y-15941514D02*
X8173721Y-15641514D01*
X8145150Y-15684371D01*
X8116578Y-15712943D01*
X8088007Y-15727229D01*
X8516578Y-15741514D02*
X8516578Y-15941514D01*
X8445150Y-15627229D02*
X8373721Y-15841514D01*
X8559436Y-15841514D01*
X8659436Y-15641514D02*
X8659436Y-15698657D01*
X8773721Y-15641514D02*
X8773721Y-15698657D01*
X9216578Y-16055800D02*
X9202293Y-16041514D01*
X9173721Y-15998657D01*
X9159436Y-15970086D01*
X9145150Y-15927229D01*
X9130864Y-15855800D01*
X9130864Y-15798657D01*
X9145150Y-15727229D01*
X9159436Y-15684371D01*
X9173721Y-15655800D01*
X9202293Y-15612943D01*
X9216578Y-15598657D01*
X9488007Y-15941514D02*
X9316578Y-15941514D01*
X9402293Y-15941514D02*
X9402293Y-15641514D01*
X9373721Y-15684371D01*
X9345150Y-15712943D01*
X9316578Y-15727229D01*
X9673721Y-15641514D02*
X9702293Y-15641514D01*
X9730864Y-15655800D01*
X9745150Y-15670086D01*
X9759436Y-15698657D01*
X9773721Y-15755800D01*
X9773721Y-15827229D01*
X9759436Y-15884371D01*
X9745150Y-15912943D01*
X9730864Y-15927229D01*
X9702293Y-15941514D01*
X9673721Y-15941514D01*
X9645150Y-15927229D01*
X9630864Y-15912943D01*
X9616578Y-15884371D01*
X9602293Y-15827229D01*
X9602293Y-15755800D01*
X9616578Y-15698657D01*
X9630864Y-15670086D01*
X9645150Y-15655800D01*
X9673721Y-15641514D01*
X9888007Y-15670086D02*
X9902293Y-15655800D01*
X9930864Y-15641514D01*
X10002293Y-15641514D01*
X10030864Y-15655800D01*
X10045150Y-15670086D01*
X10059436Y-15698657D01*
X10059436Y-15727229D01*
X10045150Y-15770086D01*
X9873721Y-15941514D01*
X10059436Y-15941514D01*
X10330864Y-15641514D02*
X10188007Y-15641514D01*
X10173721Y-15784371D01*
X10188007Y-15770086D01*
X10216578Y-15755800D01*
X10288007Y-15755800D01*
X10316578Y-15770086D01*
X10330864Y-15784371D01*
X10345150Y-15812943D01*
X10345150Y-15884371D01*
X10330864Y-15912943D01*
X10316578Y-15927229D01*
X10288007Y-15941514D01*
X10216578Y-15941514D01*
X10188007Y-15927229D01*
X10173721Y-15912943D01*
X10702293Y-15941514D02*
X10702293Y-15641514D01*
X10830864Y-15941514D02*
X10830864Y-15784371D01*
X10816578Y-15755800D01*
X10788007Y-15741514D01*
X10745150Y-15741514D01*
X10716578Y-15755800D01*
X10702293Y-15770086D01*
X11016578Y-15941514D02*
X10988007Y-15927229D01*
X10973721Y-15912943D01*
X10959436Y-15884371D01*
X10959436Y-15798657D01*
X10973721Y-15770086D01*
X10988007Y-15755800D01*
X11016578Y-15741514D01*
X11059436Y-15741514D01*
X11088007Y-15755800D01*
X11102293Y-15770086D01*
X11116578Y-15798657D01*
X11116578Y-15884371D01*
X11102293Y-15912943D01*
X11088007Y-15927229D01*
X11059436Y-15941514D01*
X11016578Y-15941514D01*
X11288007Y-15941514D02*
X11259436Y-15927229D01*
X11245150Y-15898657D01*
X11245150Y-15641514D01*
X11516578Y-15927229D02*
X11488007Y-15941514D01*
X11430864Y-15941514D01*
X11402293Y-15927229D01*
X11388007Y-15898657D01*
X11388007Y-15784371D01*
X11402293Y-15755800D01*
X11430864Y-15741514D01*
X11488007Y-15741514D01*
X11516578Y-15755800D01*
X11530864Y-15784371D01*
X11530864Y-15812943D01*
X11388007Y-15841514D01*
X11645150Y-15927229D02*
X11673721Y-15941514D01*
X11730864Y-15941514D01*
X11759436Y-15927229D01*
X11773721Y-15898657D01*
X11773721Y-15884371D01*
X11759436Y-15855800D01*
X11730864Y-15841514D01*
X11688007Y-15841514D01*
X11659436Y-15827229D01*
X11645150Y-15798657D01*
X11645150Y-15784371D01*
X11659436Y-15755800D01*
X11688007Y-15741514D01*
X11730864Y-15741514D01*
X11759436Y-15755800D01*
X11873721Y-16055800D02*
X11888007Y-16041514D01*
X11916578Y-15998657D01*
X11930864Y-15970086D01*
X11945150Y-15927229D01*
X11959436Y-15855800D01*
X11959436Y-15798657D01*
X11945150Y-15727229D01*
X11930864Y-15684371D01*
X11916578Y-15655800D01*
X11888007Y-15612943D01*
X11873721Y-15598657D01*
X4530150Y-16201800D02*
G75*
G03*
X4530150Y-16201800I-20000J0D01*
G01*
X4873721Y-16037514D02*
X4902293Y-16037514D01*
X4930864Y-16051800D01*
X4945150Y-16066086D01*
X4959436Y-16094657D01*
X4973721Y-16151800D01*
X4973721Y-16223229D01*
X4959436Y-16280371D01*
X4945150Y-16308943D01*
X4930864Y-16323229D01*
X4902293Y-16337514D01*
X4873721Y-16337514D01*
X4845150Y-16323229D01*
X4830864Y-16308943D01*
X4816578Y-16280371D01*
X4802293Y-16223229D01*
X4802293Y-16151800D01*
X4816578Y-16094657D01*
X4830864Y-16066086D01*
X4845150Y-16051800D01*
X4873721Y-16037514D01*
X5102293Y-16308943D02*
X5116578Y-16323229D01*
X5102293Y-16337514D01*
X5088007Y-16323229D01*
X5102293Y-16308943D01*
X5102293Y-16337514D01*
X5373721Y-16137514D02*
X5373721Y-16337514D01*
X5302293Y-16023229D02*
X5230864Y-16237514D01*
X5416578Y-16237514D01*
X5588007Y-16037514D02*
X5616578Y-16037514D01*
X5645150Y-16051800D01*
X5659436Y-16066086D01*
X5673721Y-16094657D01*
X5688007Y-16151800D01*
X5688007Y-16223229D01*
X5673721Y-16280371D01*
X5659436Y-16308943D01*
X5645150Y-16323229D01*
X5616578Y-16337514D01*
X5588007Y-16337514D01*
X5559436Y-16323229D01*
X5545150Y-16308943D01*
X5530864Y-16280371D01*
X5516578Y-16223229D01*
X5516578Y-16151800D01*
X5530864Y-16094657D01*
X5545150Y-16066086D01*
X5559436Y-16051800D01*
X5588007Y-16037514D01*
X5816578Y-16337514D02*
X5816578Y-16137514D01*
X5816578Y-16166086D02*
X5830864Y-16151800D01*
X5859436Y-16137514D01*
X5902293Y-16137514D01*
X5930864Y-16151800D01*
X5945150Y-16180371D01*
X5945150Y-16337514D01*
X5945150Y-16180371D02*
X5959436Y-16151800D01*
X5988007Y-16137514D01*
X6030864Y-16137514D01*
X6059436Y-16151800D01*
X6073721Y-16180371D01*
X6073721Y-16337514D01*
X6216578Y-16337514D02*
X6216578Y-16137514D01*
X6216578Y-16166086D02*
X6230864Y-16151800D01*
X6259436Y-16137514D01*
X6302293Y-16137514D01*
X6330864Y-16151800D01*
X6345150Y-16180371D01*
X6345150Y-16337514D01*
X6345150Y-16180371D02*
X6359436Y-16151800D01*
X6388007Y-16137514D01*
X6430864Y-16137514D01*
X6459436Y-16151800D01*
X6473721Y-16180371D01*
X6473721Y-16337514D01*
X7059436Y-16023229D02*
X6802293Y-16408943D01*
X7445150Y-16037514D02*
X7473721Y-16037514D01*
X7502293Y-16051800D01*
X7516578Y-16066086D01*
X7530864Y-16094657D01*
X7545150Y-16151800D01*
X7545150Y-16223229D01*
X7530864Y-16280371D01*
X7516578Y-16308943D01*
X7502293Y-16323229D01*
X7473721Y-16337514D01*
X7445150Y-16337514D01*
X7416578Y-16323229D01*
X7402293Y-16308943D01*
X7388007Y-16280371D01*
X7373721Y-16223229D01*
X7373721Y-16151800D01*
X7388007Y-16094657D01*
X7402293Y-16066086D01*
X7416578Y-16051800D01*
X7445150Y-16037514D01*
X7673721Y-16308943D02*
X7688007Y-16323229D01*
X7673721Y-16337514D01*
X7659436Y-16323229D01*
X7673721Y-16308943D01*
X7673721Y-16337514D01*
X7873721Y-16037514D02*
X7902293Y-16037514D01*
X7930864Y-16051800D01*
X7945150Y-16066086D01*
X7959436Y-16094657D01*
X7973721Y-16151800D01*
X7973721Y-16223229D01*
X7959436Y-16280371D01*
X7945150Y-16308943D01*
X7930864Y-16323229D01*
X7902293Y-16337514D01*
X7873721Y-16337514D01*
X7845150Y-16323229D01*
X7830864Y-16308943D01*
X7816578Y-16280371D01*
X7802293Y-16223229D01*
X7802293Y-16151800D01*
X7816578Y-16094657D01*
X7830864Y-16066086D01*
X7845150Y-16051800D01*
X7873721Y-16037514D01*
X8259436Y-16337514D02*
X8088007Y-16337514D01*
X8173721Y-16337514D02*
X8173721Y-16037514D01*
X8145150Y-16080371D01*
X8116578Y-16108943D01*
X8088007Y-16123229D01*
X8516578Y-16037514D02*
X8459436Y-16037514D01*
X8430864Y-16051800D01*
X8416578Y-16066086D01*
X8388007Y-16108943D01*
X8373721Y-16166086D01*
X8373721Y-16280371D01*
X8388007Y-16308943D01*
X8402293Y-16323229D01*
X8430864Y-16337514D01*
X8488007Y-16337514D01*
X8516578Y-16323229D01*
X8530864Y-16308943D01*
X8545150Y-16280371D01*
X8545150Y-16208943D01*
X8530864Y-16180371D01*
X8516578Y-16166086D01*
X8488007Y-16151800D01*
X8430864Y-16151800D01*
X8402293Y-16166086D01*
X8388007Y-16180371D01*
X8373721Y-16208943D01*
X8659436Y-16037514D02*
X8659436Y-16094657D01*
X8773721Y-16037514D02*
X8773721Y-16094657D01*
X9216578Y-16451800D02*
X9202293Y-16437514D01*
X9173721Y-16394657D01*
X9159436Y-16366086D01*
X9145150Y-16323229D01*
X9130864Y-16251800D01*
X9130864Y-16194657D01*
X9145150Y-16123229D01*
X9159436Y-16080371D01*
X9173721Y-16051800D01*
X9202293Y-16008943D01*
X9216578Y-15994657D01*
X9302293Y-16037514D02*
X9502293Y-16037514D01*
X9373721Y-16337514D01*
X9759436Y-16037514D02*
X9616578Y-16037514D01*
X9602293Y-16180371D01*
X9616578Y-16166086D01*
X9645150Y-16151800D01*
X9716578Y-16151800D01*
X9745150Y-16166086D01*
X9759436Y-16180371D01*
X9773721Y-16208943D01*
X9773721Y-16280371D01*
X9759436Y-16308943D01*
X9745150Y-16323229D01*
X9716578Y-16337514D01*
X9645150Y-16337514D01*
X9616578Y-16323229D01*
X9602293Y-16308943D01*
X10130864Y-16337514D02*
X10130864Y-16037514D01*
X10259436Y-16337514D02*
X10259436Y-16180371D01*
X10245150Y-16151800D01*
X10216578Y-16137514D01*
X10173721Y-16137514D01*
X10145150Y-16151800D01*
X10130864Y-16166086D01*
X10445150Y-16337514D02*
X10416578Y-16323229D01*
X10402293Y-16308943D01*
X10388007Y-16280371D01*
X10388007Y-16194657D01*
X10402293Y-16166086D01*
X10416578Y-16151800D01*
X10445150Y-16137514D01*
X10488007Y-16137514D01*
X10516578Y-16151800D01*
X10530864Y-16166086D01*
X10545150Y-16194657D01*
X10545150Y-16280371D01*
X10530864Y-16308943D01*
X10516578Y-16323229D01*
X10488007Y-16337514D01*
X10445150Y-16337514D01*
X10716578Y-16337514D02*
X10688007Y-16323229D01*
X10673721Y-16294657D01*
X10673721Y-16037514D01*
X10945150Y-16323229D02*
X10916578Y-16337514D01*
X10859436Y-16337514D01*
X10830864Y-16323229D01*
X10816578Y-16294657D01*
X10816578Y-16180371D01*
X10830864Y-16151800D01*
X10859436Y-16137514D01*
X10916578Y-16137514D01*
X10945150Y-16151800D01*
X10959436Y-16180371D01*
X10959436Y-16208943D01*
X10816578Y-16237514D01*
X11073721Y-16323229D02*
X11102293Y-16337514D01*
X11159436Y-16337514D01*
X11188007Y-16323229D01*
X11202293Y-16294657D01*
X11202293Y-16280371D01*
X11188007Y-16251800D01*
X11159436Y-16237514D01*
X11116578Y-16237514D01*
X11088007Y-16223229D01*
X11073721Y-16194657D01*
X11073721Y-16180371D01*
X11088007Y-16151800D01*
X11116578Y-16137514D01*
X11159436Y-16137514D01*
X11188007Y-16151800D01*
X11302293Y-16451800D02*
X11316578Y-16437514D01*
X11345150Y-16394657D01*
X11359436Y-16366086D01*
X11373721Y-16323229D01*
X11388007Y-16251800D01*
X11388007Y-16194657D01*
X11373721Y-16123229D01*
X11359436Y-16080371D01*
X11345150Y-16051800D01*
X11316578Y-16008943D01*
X11302293Y-15994657D01*
X4495150Y-16562800D02*
X4495150Y-16632800D01*
X4460150Y-16597800D02*
X4530150Y-16597800D01*
X4873721Y-16433514D02*
X4902293Y-16433514D01*
X4930864Y-16447800D01*
X4945150Y-16462086D01*
X4959436Y-16490657D01*
X4973721Y-16547800D01*
X4973721Y-16619229D01*
X4959436Y-16676371D01*
X4945150Y-16704943D01*
X4930864Y-16719229D01*
X4902293Y-16733514D01*
X4873721Y-16733514D01*
X4845150Y-16719229D01*
X4830864Y-16704943D01*
X4816578Y-16676371D01*
X4802293Y-16619229D01*
X4802293Y-16547800D01*
X4816578Y-16490657D01*
X4830864Y-16462086D01*
X4845150Y-16447800D01*
X4873721Y-16433514D01*
X5102293Y-16704943D02*
X5116578Y-16719229D01*
X5102293Y-16733514D01*
X5088007Y-16719229D01*
X5102293Y-16704943D01*
X5102293Y-16733514D01*
X5216578Y-16433514D02*
X5416578Y-16433514D01*
X5288007Y-16733514D01*
X5588007Y-16433514D02*
X5616578Y-16433514D01*
X5645150Y-16447800D01*
X5659436Y-16462086D01*
X5673721Y-16490657D01*
X5688007Y-16547800D01*
X5688007Y-16619229D01*
X5673721Y-16676371D01*
X5659436Y-16704943D01*
X5645150Y-16719229D01*
X5616578Y-16733514D01*
X5588007Y-16733514D01*
X5559436Y-16719229D01*
X5545150Y-16704943D01*
X5530864Y-16676371D01*
X5516578Y-16619229D01*
X5516578Y-16547800D01*
X5530864Y-16490657D01*
X5545150Y-16462086D01*
X5559436Y-16447800D01*
X5588007Y-16433514D01*
X5816578Y-16733514D02*
X5816578Y-16533514D01*
X5816578Y-16562086D02*
X5830864Y-16547800D01*
X5859436Y-16533514D01*
X5902293Y-16533514D01*
X5930864Y-16547800D01*
X5945150Y-16576371D01*
X5945150Y-16733514D01*
X5945150Y-16576371D02*
X5959436Y-16547800D01*
X5988007Y-16533514D01*
X6030864Y-16533514D01*
X6059436Y-16547800D01*
X6073721Y-16576371D01*
X6073721Y-16733514D01*
X6216578Y-16733514D02*
X6216578Y-16533514D01*
X6216578Y-16562086D02*
X6230864Y-16547800D01*
X6259436Y-16533514D01*
X6302293Y-16533514D01*
X6330864Y-16547800D01*
X6345150Y-16576371D01*
X6345150Y-16733514D01*
X6345150Y-16576371D02*
X6359436Y-16547800D01*
X6388007Y-16533514D01*
X6430864Y-16533514D01*
X6459436Y-16547800D01*
X6473721Y-16576371D01*
X6473721Y-16733514D01*
X7059436Y-16419229D02*
X6802293Y-16804943D01*
X7445150Y-16433514D02*
X7473721Y-16433514D01*
X7502293Y-16447800D01*
X7516578Y-16462086D01*
X7530864Y-16490657D01*
X7545150Y-16547800D01*
X7545150Y-16619229D01*
X7530864Y-16676371D01*
X7516578Y-16704943D01*
X7502293Y-16719229D01*
X7473721Y-16733514D01*
X7445150Y-16733514D01*
X7416578Y-16719229D01*
X7402293Y-16704943D01*
X7388007Y-16676371D01*
X7373721Y-16619229D01*
X7373721Y-16547800D01*
X7388007Y-16490657D01*
X7402293Y-16462086D01*
X7416578Y-16447800D01*
X7445150Y-16433514D01*
X7673721Y-16704943D02*
X7688007Y-16719229D01*
X7673721Y-16733514D01*
X7659436Y-16719229D01*
X7673721Y-16704943D01*
X7673721Y-16733514D01*
X7873721Y-16433514D02*
X7902293Y-16433514D01*
X7930864Y-16447800D01*
X7945150Y-16462086D01*
X7959436Y-16490657D01*
X7973721Y-16547800D01*
X7973721Y-16619229D01*
X7959436Y-16676371D01*
X7945150Y-16704943D01*
X7930864Y-16719229D01*
X7902293Y-16733514D01*
X7873721Y-16733514D01*
X7845150Y-16719229D01*
X7830864Y-16704943D01*
X7816578Y-16676371D01*
X7802293Y-16619229D01*
X7802293Y-16547800D01*
X7816578Y-16490657D01*
X7830864Y-16462086D01*
X7845150Y-16447800D01*
X7873721Y-16433514D01*
X8088007Y-16462086D02*
X8102293Y-16447800D01*
X8130864Y-16433514D01*
X8202293Y-16433514D01*
X8230864Y-16447800D01*
X8245150Y-16462086D01*
X8259436Y-16490657D01*
X8259436Y-16519229D01*
X8245150Y-16562086D01*
X8073721Y-16733514D01*
X8259436Y-16733514D01*
X8430864Y-16562086D02*
X8402293Y-16547800D01*
X8388007Y-16533514D01*
X8373721Y-16504943D01*
X8373721Y-16490657D01*
X8388007Y-16462086D01*
X8402293Y-16447800D01*
X8430864Y-16433514D01*
X8488007Y-16433514D01*
X8516578Y-16447800D01*
X8530864Y-16462086D01*
X8545150Y-16490657D01*
X8545150Y-16504943D01*
X8530864Y-16533514D01*
X8516578Y-16547800D01*
X8488007Y-16562086D01*
X8430864Y-16562086D01*
X8402293Y-16576371D01*
X8388007Y-16590657D01*
X8373721Y-16619229D01*
X8373721Y-16676371D01*
X8388007Y-16704943D01*
X8402293Y-16719229D01*
X8430864Y-16733514D01*
X8488007Y-16733514D01*
X8516578Y-16719229D01*
X8530864Y-16704943D01*
X8545150Y-16676371D01*
X8545150Y-16619229D01*
X8530864Y-16590657D01*
X8516578Y-16576371D01*
X8488007Y-16562086D01*
X8659436Y-16433514D02*
X8659436Y-16490657D01*
X8773721Y-16433514D02*
X8773721Y-16490657D01*
X9216578Y-16847800D02*
X9202293Y-16833514D01*
X9173721Y-16790657D01*
X9159436Y-16762086D01*
X9145150Y-16719229D01*
X9130864Y-16647800D01*
X9130864Y-16590657D01*
X9145150Y-16519229D01*
X9159436Y-16476371D01*
X9173721Y-16447800D01*
X9202293Y-16404943D01*
X9216578Y-16390657D01*
X9488007Y-16733514D02*
X9316578Y-16733514D01*
X9402293Y-16733514D02*
X9402293Y-16433514D01*
X9373721Y-16476371D01*
X9345150Y-16504943D01*
X9316578Y-16519229D01*
X9673721Y-16433514D02*
X9702293Y-16433514D01*
X9730864Y-16447800D01*
X9745150Y-16462086D01*
X9759436Y-16490657D01*
X9773721Y-16547800D01*
X9773721Y-16619229D01*
X9759436Y-16676371D01*
X9745150Y-16704943D01*
X9730864Y-16719229D01*
X9702293Y-16733514D01*
X9673721Y-16733514D01*
X9645150Y-16719229D01*
X9630864Y-16704943D01*
X9616578Y-16676371D01*
X9602293Y-16619229D01*
X9602293Y-16547800D01*
X9616578Y-16490657D01*
X9630864Y-16462086D01*
X9645150Y-16447800D01*
X9673721Y-16433514D01*
X9959436Y-16433514D02*
X9988007Y-16433514D01*
X10016578Y-16447800D01*
X10030864Y-16462086D01*
X10045150Y-16490657D01*
X10059436Y-16547800D01*
X10059436Y-16619229D01*
X10045150Y-16676371D01*
X10030864Y-16704943D01*
X10016578Y-16719229D01*
X9988007Y-16733514D01*
X9959436Y-16733514D01*
X9930864Y-16719229D01*
X9916578Y-16704943D01*
X9902293Y-16676371D01*
X9888007Y-16619229D01*
X9888007Y-16547800D01*
X9902293Y-16490657D01*
X9916578Y-16462086D01*
X9930864Y-16447800D01*
X9959436Y-16433514D01*
X10416578Y-16733514D02*
X10416578Y-16433514D01*
X10545150Y-16733514D02*
X10545150Y-16576371D01*
X10530864Y-16547800D01*
X10502293Y-16533514D01*
X10459436Y-16533514D01*
X10430864Y-16547800D01*
X10416578Y-16562086D01*
X10730864Y-16733514D02*
X10702293Y-16719229D01*
X10688007Y-16704943D01*
X10673721Y-16676371D01*
X10673721Y-16590657D01*
X10688007Y-16562086D01*
X10702293Y-16547800D01*
X10730864Y-16533514D01*
X10773721Y-16533514D01*
X10802293Y-16547800D01*
X10816578Y-16562086D01*
X10830864Y-16590657D01*
X10830864Y-16676371D01*
X10816578Y-16704943D01*
X10802293Y-16719229D01*
X10773721Y-16733514D01*
X10730864Y-16733514D01*
X11002293Y-16733514D02*
X10973721Y-16719229D01*
X10959436Y-16690657D01*
X10959436Y-16433514D01*
X11230864Y-16719229D02*
X11202293Y-16733514D01*
X11145150Y-16733514D01*
X11116578Y-16719229D01*
X11102293Y-16690657D01*
X11102293Y-16576371D01*
X11116578Y-16547800D01*
X11145150Y-16533514D01*
X11202293Y-16533514D01*
X11230864Y-16547800D01*
X11245150Y-16576371D01*
X11245150Y-16604943D01*
X11102293Y-16633514D01*
X11359436Y-16719229D02*
X11388007Y-16733514D01*
X11445150Y-16733514D01*
X11473721Y-16719229D01*
X11488007Y-16690657D01*
X11488007Y-16676371D01*
X11473721Y-16647800D01*
X11445150Y-16633514D01*
X11402293Y-16633514D01*
X11373721Y-16619229D01*
X11359436Y-16590657D01*
X11359436Y-16576371D01*
X11373721Y-16547800D01*
X11402293Y-16533514D01*
X11445150Y-16533514D01*
X11473721Y-16547800D01*
X11588007Y-16847800D02*
X11602293Y-16833514D01*
X11630864Y-16790657D01*
X11645150Y-16762086D01*
X11659436Y-16719229D01*
X11673721Y-16647800D01*
X11673721Y-16590657D01*
X11659436Y-16519229D01*
X11645150Y-16476371D01*
X11630864Y-16447800D01*
X11602293Y-16404943D01*
X11588007Y-16390657D01*
X4508183Y-17046834D02*
X4508183Y-16940767D01*
X4402116Y-16940767D01*
X4402116Y-17046834D01*
X4508183Y-17046834D01*
X4973721Y-17129514D02*
X4802293Y-17129514D01*
X4888007Y-17129514D02*
X4888007Y-16829514D01*
X4859436Y-16872372D01*
X4830864Y-16900943D01*
X4802293Y-16915229D01*
X5102293Y-17100943D02*
X5116578Y-17115229D01*
X5102293Y-17129514D01*
X5088007Y-17115229D01*
X5102293Y-17100943D01*
X5102293Y-17129514D01*
X5388007Y-16829514D02*
X5245150Y-16829514D01*
X5230864Y-16972372D01*
X5245150Y-16958086D01*
X5273721Y-16943800D01*
X5345150Y-16943800D01*
X5373721Y-16958086D01*
X5388007Y-16972372D01*
X5402293Y-17000943D01*
X5402293Y-17072372D01*
X5388007Y-17100943D01*
X5373721Y-17115229D01*
X5345150Y-17129514D01*
X5273721Y-17129514D01*
X5245150Y-17115229D01*
X5230864Y-17100943D01*
X5588007Y-16829514D02*
X5616578Y-16829514D01*
X5645150Y-16843800D01*
X5659436Y-16858086D01*
X5673721Y-16886657D01*
X5688007Y-16943800D01*
X5688007Y-17015229D01*
X5673721Y-17072372D01*
X5659436Y-17100943D01*
X5645150Y-17115229D01*
X5616578Y-17129514D01*
X5588007Y-17129514D01*
X5559436Y-17115229D01*
X5545150Y-17100943D01*
X5530864Y-17072372D01*
X5516578Y-17015229D01*
X5516578Y-16943800D01*
X5530864Y-16886657D01*
X5545150Y-16858086D01*
X5559436Y-16843800D01*
X5588007Y-16829514D01*
X5816578Y-17129514D02*
X5816578Y-16929514D01*
X5816578Y-16958086D02*
X5830864Y-16943800D01*
X5859436Y-16929514D01*
X5902293Y-16929514D01*
X5930864Y-16943800D01*
X5945150Y-16972372D01*
X5945150Y-17129514D01*
X5945150Y-16972372D02*
X5959436Y-16943800D01*
X5988007Y-16929514D01*
X6030864Y-16929514D01*
X6059436Y-16943800D01*
X6073721Y-16972372D01*
X6073721Y-17129514D01*
X6216578Y-17129514D02*
X6216578Y-16929514D01*
X6216578Y-16958086D02*
X6230864Y-16943800D01*
X6259436Y-16929514D01*
X6302293Y-16929514D01*
X6330864Y-16943800D01*
X6345150Y-16972372D01*
X6345150Y-17129514D01*
X6345150Y-16972372D02*
X6359436Y-16943800D01*
X6388007Y-16929514D01*
X6430864Y-16929514D01*
X6459436Y-16943800D01*
X6473721Y-16972372D01*
X6473721Y-17129514D01*
X7059436Y-16815229D02*
X6802293Y-17200943D01*
X7445150Y-16829514D02*
X7473721Y-16829514D01*
X7502293Y-16843800D01*
X7516578Y-16858086D01*
X7530864Y-16886657D01*
X7545150Y-16943800D01*
X7545150Y-17015229D01*
X7530864Y-17072372D01*
X7516578Y-17100943D01*
X7502293Y-17115229D01*
X7473721Y-17129514D01*
X7445150Y-17129514D01*
X7416578Y-17115229D01*
X7402293Y-17100943D01*
X7388007Y-17072372D01*
X7373721Y-17015229D01*
X7373721Y-16943800D01*
X7388007Y-16886657D01*
X7402293Y-16858086D01*
X7416578Y-16843800D01*
X7445150Y-16829514D01*
X7673721Y-17100943D02*
X7688007Y-17115229D01*
X7673721Y-17129514D01*
X7659436Y-17115229D01*
X7673721Y-17100943D01*
X7673721Y-17129514D01*
X7873721Y-16829514D02*
X7902293Y-16829514D01*
X7930864Y-16843800D01*
X7945150Y-16858086D01*
X7959436Y-16886657D01*
X7973721Y-16943800D01*
X7973721Y-17015229D01*
X7959436Y-17072372D01*
X7945150Y-17100943D01*
X7930864Y-17115229D01*
X7902293Y-17129514D01*
X7873721Y-17129514D01*
X7845150Y-17115229D01*
X7830864Y-17100943D01*
X7816578Y-17072372D01*
X7802293Y-17015229D01*
X7802293Y-16943800D01*
X7816578Y-16886657D01*
X7830864Y-16858086D01*
X7845150Y-16843800D01*
X7873721Y-16829514D01*
X8245150Y-16829514D02*
X8102293Y-16829514D01*
X8088007Y-16972372D01*
X8102293Y-16958086D01*
X8130864Y-16943800D01*
X8202293Y-16943800D01*
X8230864Y-16958086D01*
X8245150Y-16972372D01*
X8259436Y-17000943D01*
X8259436Y-17072372D01*
X8245150Y-17100943D01*
X8230864Y-17115229D01*
X8202293Y-17129514D01*
X8130864Y-17129514D01*
X8102293Y-17115229D01*
X8088007Y-17100943D01*
X8402293Y-17129514D02*
X8459436Y-17129514D01*
X8488007Y-17115229D01*
X8502293Y-17100943D01*
X8530864Y-17058086D01*
X8545150Y-17000943D01*
X8545150Y-16886657D01*
X8530864Y-16858086D01*
X8516578Y-16843800D01*
X8488007Y-16829514D01*
X8430864Y-16829514D01*
X8402293Y-16843800D01*
X8388007Y-16858086D01*
X8373721Y-16886657D01*
X8373721Y-16958086D01*
X8388007Y-16986657D01*
X8402293Y-17000943D01*
X8430864Y-17015229D01*
X8488007Y-17015229D01*
X8516578Y-17000943D01*
X8530864Y-16986657D01*
X8545150Y-16958086D01*
X8659436Y-16829514D02*
X8659436Y-16886657D01*
X8773721Y-16829514D02*
X8773721Y-16886657D01*
X9216578Y-17243800D02*
X9202293Y-17229514D01*
X9173721Y-17186657D01*
X9159436Y-17158086D01*
X9145150Y-17115229D01*
X9130864Y-17043800D01*
X9130864Y-16986657D01*
X9145150Y-16915229D01*
X9159436Y-16872372D01*
X9173721Y-16843800D01*
X9202293Y-16800943D01*
X9216578Y-16786657D01*
X9473721Y-16829514D02*
X9330864Y-16829514D01*
X9316578Y-16972372D01*
X9330864Y-16958086D01*
X9359436Y-16943800D01*
X9430864Y-16943800D01*
X9459436Y-16958086D01*
X9473721Y-16972372D01*
X9488007Y-17000943D01*
X9488007Y-17072372D01*
X9473721Y-17100943D01*
X9459436Y-17115229D01*
X9430864Y-17129514D01*
X9359436Y-17129514D01*
X9330864Y-17115229D01*
X9316578Y-17100943D01*
X9673721Y-16829514D02*
X9702293Y-16829514D01*
X9730864Y-16843800D01*
X9745150Y-16858086D01*
X9759436Y-16886657D01*
X9773721Y-16943800D01*
X9773721Y-17015229D01*
X9759436Y-17072372D01*
X9745150Y-17100943D01*
X9730864Y-17115229D01*
X9702293Y-17129514D01*
X9673721Y-17129514D01*
X9645150Y-17115229D01*
X9630864Y-17100943D01*
X9616578Y-17072372D01*
X9602293Y-17015229D01*
X9602293Y-16943800D01*
X9616578Y-16886657D01*
X9630864Y-16858086D01*
X9645150Y-16843800D01*
X9673721Y-16829514D01*
X10130864Y-17129514D02*
X10130864Y-16829514D01*
X10259436Y-17129514D02*
X10259436Y-16972372D01*
X10245150Y-16943800D01*
X10216578Y-16929514D01*
X10173721Y-16929514D01*
X10145150Y-16943800D01*
X10130864Y-16958086D01*
X10445150Y-17129514D02*
X10416578Y-17115229D01*
X10402293Y-17100943D01*
X10388007Y-17072372D01*
X10388007Y-16986657D01*
X10402293Y-16958086D01*
X10416578Y-16943800D01*
X10445150Y-16929514D01*
X10488007Y-16929514D01*
X10516578Y-16943800D01*
X10530864Y-16958086D01*
X10545150Y-16986657D01*
X10545150Y-17072372D01*
X10530864Y-17100943D01*
X10516578Y-17115229D01*
X10488007Y-17129514D01*
X10445150Y-17129514D01*
X10716578Y-17129514D02*
X10688007Y-17115229D01*
X10673721Y-17086657D01*
X10673721Y-16829514D01*
X10945150Y-17115229D02*
X10916578Y-17129514D01*
X10859436Y-17129514D01*
X10830864Y-17115229D01*
X10816578Y-17086657D01*
X10816578Y-16972372D01*
X10830864Y-16943800D01*
X10859436Y-16929514D01*
X10916578Y-16929514D01*
X10945150Y-16943800D01*
X10959436Y-16972372D01*
X10959436Y-17000943D01*
X10816578Y-17029514D01*
X11073721Y-17115229D02*
X11102293Y-17129514D01*
X11159436Y-17129514D01*
X11188007Y-17115229D01*
X11202293Y-17086657D01*
X11202293Y-17072372D01*
X11188007Y-17043800D01*
X11159436Y-17029514D01*
X11116578Y-17029514D01*
X11088007Y-17015229D01*
X11073721Y-16986657D01*
X11073721Y-16972372D01*
X11088007Y-16943800D01*
X11116578Y-16929514D01*
X11159436Y-16929514D01*
X11188007Y-16943800D01*
X11302293Y-17243800D02*
X11316578Y-17229514D01*
X11345150Y-17186657D01*
X11359436Y-17158086D01*
X11373721Y-17115229D01*
X11388007Y-17043800D01*
X11388007Y-16986657D01*
X11373721Y-16915229D01*
X11359436Y-16872372D01*
X11345150Y-16843800D01*
X11316578Y-16800943D01*
X11302293Y-16786657D01*
M02*
