M48
; DRILL file {KiCad (5.1.9)-1} date 09/16/21 12:17:49
; FORMAT={-:-/ absolute / metric / decimal}
; #@! TF.CreationDate,2021-09-16T12:17:49+02:00
; #@! TF.GenerationSoftware,Kicad,Pcbnew,(5.1.9)-1
; #@! TF.FileFunction,NonPlated,1,2,NPTH
FMAT,2
METRIC
T1C0.500
T2C1.700
T3C4.000
%
G90
G05
T1
X52.99Y-38.442
X52.99Y-39.942
X52.99Y-59.492
X52.99Y-60.992
X52.99Y-80.542
X52.99Y-82.042
X52.99Y-101.592
X52.99Y-103.092
X52.99Y-122.642
X52.99Y-124.142
X52.99Y-143.692
X52.99Y-145.192
X53.74Y-38.442
X53.74Y-39.942
X53.74Y-59.492
X53.74Y-60.992
X53.74Y-80.542
X53.74Y-82.042
X53.74Y-101.592
X53.74Y-103.092
X53.74Y-122.642
X53.74Y-124.142
X53.74Y-143.692
X53.74Y-145.192
X54.49Y-38.442
X54.49Y-39.942
X54.49Y-59.492
X54.49Y-60.992
X54.49Y-80.542
X54.49Y-82.042
X54.49Y-101.592
X54.49Y-103.092
X54.49Y-122.642
X54.49Y-124.142
X54.49Y-143.692
X54.49Y-145.192
X55.244Y-38.442
X55.244Y-39.942
X55.244Y-59.492
X55.244Y-60.992
X55.244Y-80.542
X55.244Y-82.042
X55.244Y-101.592
X55.244Y-103.092
X55.244Y-122.642
X55.244Y-124.142
X55.244Y-143.692
X55.244Y-145.192
X55.994Y-38.442
X55.994Y-39.942
X55.994Y-59.492
X55.994Y-60.992
X55.994Y-80.542
X55.994Y-82.042
X55.994Y-101.592
X55.994Y-103.092
X55.994Y-122.642
X55.994Y-124.142
X55.994Y-143.692
X55.994Y-145.192
X56.744Y-38.442
X56.744Y-39.942
X56.744Y-59.492
X56.744Y-60.992
X56.744Y-80.542
X56.744Y-82.042
X56.744Y-101.592
X56.744Y-103.092
X56.744Y-122.642
X56.744Y-124.142
X56.744Y-143.692
X56.744Y-145.192
X74.04Y-38.442
X74.04Y-39.942
X74.04Y-59.492
X74.04Y-60.992
X74.04Y-80.542
X74.04Y-82.042
X74.04Y-101.592
X74.04Y-103.092
X74.04Y-122.642
X74.04Y-124.142
X74.04Y-143.692
X74.04Y-145.192
X74.79Y-38.442
X74.79Y-39.942
X74.79Y-59.492
X74.79Y-60.992
X74.79Y-80.542
X74.79Y-82.042
X74.79Y-101.592
X74.79Y-103.092
X74.79Y-122.642
X74.79Y-124.142
X74.79Y-143.692
X74.79Y-145.192
X75.54Y-38.442
X75.54Y-39.942
X75.54Y-59.492
X75.54Y-60.992
X75.54Y-80.542
X75.54Y-82.042
X75.54Y-101.592
X75.54Y-103.092
X75.54Y-122.642
X75.54Y-124.142
X75.54Y-143.692
X75.54Y-145.192
X76.294Y-38.442
X76.294Y-39.942
X76.294Y-59.492
X76.294Y-60.992
X76.294Y-80.542
X76.294Y-82.042
X76.294Y-101.592
X76.294Y-103.092
X76.294Y-122.642
X76.294Y-124.142
X76.294Y-143.692
X76.294Y-145.192
X77.044Y-38.442
X77.044Y-39.942
X77.044Y-59.492
X77.044Y-60.992
X77.044Y-80.542
X77.044Y-82.042
X77.044Y-101.592
X77.044Y-103.092
X77.044Y-122.642
X77.044Y-124.142
X77.044Y-143.692
X77.044Y-145.192
X77.794Y-38.442
X77.794Y-39.942
X77.794Y-59.492
X77.794Y-60.992
X77.794Y-80.542
X77.794Y-82.042
X77.794Y-101.592
X77.794Y-103.092
X77.794Y-122.642
X77.794Y-124.142
X77.794Y-143.692
X77.794Y-145.192
X95.09Y-38.442
X95.09Y-39.942
X95.09Y-59.492
X95.09Y-60.992
X95.09Y-80.542
X95.09Y-82.042
X95.09Y-101.592
X95.09Y-103.092
X95.09Y-122.642
X95.09Y-124.142
X95.09Y-143.692
X95.09Y-145.192
X95.84Y-38.442
X95.84Y-39.942
X95.84Y-59.492
X95.84Y-60.992
X95.84Y-80.542
X95.84Y-82.042
X95.84Y-101.592
X95.84Y-103.092
X95.84Y-122.642
X95.84Y-124.142
X95.84Y-143.692
X95.84Y-145.192
X96.59Y-38.442
X96.59Y-39.942
X96.59Y-59.492
X96.59Y-60.992
X96.59Y-80.542
X96.59Y-82.042
X96.59Y-101.592
X96.59Y-103.092
X96.59Y-122.642
X96.59Y-124.142
X96.59Y-143.692
X96.59Y-145.192
X97.344Y-38.442
X97.344Y-39.942
X97.344Y-59.492
X97.344Y-60.992
X97.344Y-80.542
X97.344Y-82.042
X97.344Y-101.592
X97.344Y-103.092
X97.344Y-122.642
X97.344Y-124.142
X97.344Y-143.692
X97.344Y-145.192
X98.094Y-38.442
X98.094Y-39.942
X98.094Y-59.492
X98.094Y-60.992
X98.094Y-80.542
X98.094Y-82.042
X98.094Y-101.592
X98.094Y-103.092
X98.094Y-122.642
X98.094Y-124.142
X98.094Y-143.692
X98.094Y-145.192
X98.844Y-38.442
X98.844Y-39.942
X98.844Y-59.492
X98.844Y-60.992
X98.844Y-80.542
X98.844Y-82.042
X98.844Y-101.592
X98.844Y-103.092
X98.844Y-122.642
X98.844Y-124.142
X98.844Y-143.692
X98.844Y-145.192
X116.14Y-38.442
X116.14Y-39.942
X116.14Y-59.492
X116.14Y-60.992
X116.14Y-80.542
X116.14Y-82.042
X116.14Y-101.592
X116.14Y-103.092
X116.14Y-122.642
X116.14Y-124.142
X116.14Y-143.692
X116.14Y-145.192
X116.89Y-38.442
X116.89Y-39.942
X116.89Y-59.492
X116.89Y-60.992
X116.89Y-80.542
X116.89Y-82.042
X116.89Y-101.592
X116.89Y-103.092
X116.89Y-122.642
X116.89Y-124.142
X116.89Y-143.692
X116.89Y-145.192
X117.64Y-38.442
X117.64Y-39.942
X117.64Y-59.492
X117.64Y-60.992
X117.64Y-80.542
X117.64Y-82.042
X117.64Y-101.592
X117.64Y-103.092
X117.64Y-122.642
X117.64Y-124.142
X117.64Y-143.692
X117.64Y-145.192
X118.394Y-38.442
X118.394Y-39.942
X118.394Y-59.492
X118.394Y-60.992
X118.394Y-80.542
X118.394Y-82.042
X118.394Y-101.592
X118.394Y-103.092
X118.394Y-122.642
X118.394Y-124.142
X118.394Y-143.692
X118.394Y-145.192
X119.144Y-38.442
X119.144Y-39.942
X119.144Y-59.492
X119.144Y-60.992
X119.144Y-80.542
X119.144Y-82.042
X119.144Y-101.592
X119.144Y-103.092
X119.144Y-122.642
X119.144Y-124.142
X119.144Y-143.692
X119.144Y-145.192
X119.894Y-38.442
X119.894Y-39.942
X119.894Y-59.492
X119.894Y-60.992
X119.894Y-80.542
X119.894Y-82.042
X119.894Y-101.592
X119.894Y-103.092
X119.894Y-122.642
X119.894Y-124.142
X119.894Y-143.692
X119.894Y-145.192
X137.19Y-38.442
X137.19Y-39.942
X137.19Y-59.492
X137.19Y-60.992
X137.19Y-80.542
X137.19Y-82.042
X137.19Y-101.592
X137.19Y-103.092
X137.19Y-122.642
X137.19Y-124.142
X137.19Y-143.692
X137.19Y-145.192
X137.94Y-38.442
X137.94Y-39.942
X137.94Y-59.492
X137.94Y-60.992
X137.94Y-80.542
X137.94Y-82.042
X137.94Y-101.592
X137.94Y-103.092
X137.94Y-122.642
X137.94Y-124.142
X137.94Y-143.692
X137.94Y-145.192
X138.69Y-38.442
X138.69Y-39.942
X138.69Y-59.492
X138.69Y-60.992
X138.69Y-80.542
X138.69Y-82.042
X138.69Y-101.592
X138.69Y-103.092
X138.69Y-122.642
X138.69Y-124.142
X138.69Y-143.692
X138.69Y-145.192
X139.444Y-38.442
X139.444Y-39.942
X139.444Y-59.492
X139.444Y-60.992
X139.444Y-80.542
X139.444Y-82.042
X139.444Y-101.592
X139.444Y-103.092
X139.444Y-122.642
X139.444Y-124.142
X139.444Y-143.692
X139.444Y-145.192
X140.194Y-38.442
X140.194Y-39.942
X140.194Y-59.492
X140.194Y-60.992
X140.194Y-80.542
X140.194Y-82.042
X140.194Y-101.592
X140.194Y-103.092
X140.194Y-122.642
X140.194Y-124.142
X140.194Y-143.692
X140.194Y-145.192
X140.944Y-38.442
X140.944Y-39.942
X140.944Y-59.492
X140.944Y-60.992
X140.944Y-80.542
X140.944Y-82.042
X140.944Y-101.592
X140.944Y-103.092
X140.944Y-122.642
X140.944Y-124.142
X140.944Y-143.692
X140.944Y-145.192
T2
X49.772Y-50.978
X49.772Y-72.028
X49.772Y-93.078
X49.772Y-114.128
X49.772Y-135.178
X59.932Y-50.978
X59.932Y-72.028
X59.932Y-93.078
X59.932Y-114.128
X59.932Y-135.178
X70.822Y-50.978
X70.822Y-72.028
X70.822Y-93.078
X70.822Y-114.128
X70.822Y-135.178
X80.982Y-50.978
X80.982Y-72.028
X80.982Y-93.078
X80.982Y-114.128
X80.982Y-135.178
X91.872Y-50.978
X91.872Y-72.028
X91.872Y-93.078
X91.872Y-114.128
X91.872Y-135.178
X102.032Y-50.978
X102.032Y-72.028
X102.032Y-93.078
X102.032Y-114.128
X102.032Y-135.178
X112.922Y-50.978
X112.922Y-72.028
X112.922Y-93.078
X112.922Y-114.128
X112.922Y-135.178
X123.082Y-50.978
X123.082Y-72.028
X123.082Y-93.078
X123.082Y-114.128
X123.082Y-135.178
X133.972Y-50.978
X133.972Y-72.028
X133.972Y-93.078
X133.972Y-114.128
X133.972Y-135.178
X144.132Y-50.978
X144.132Y-72.028
X144.132Y-93.078
X144.132Y-114.128
X144.132Y-135.178
T3
X54.852Y-50.978
X54.852Y-72.028
X54.852Y-93.078
X54.852Y-114.128
X54.852Y-135.178
X75.902Y-50.978
X75.902Y-72.028
X75.902Y-93.078
X75.902Y-114.128
X75.902Y-135.178
X96.952Y-50.978
X96.952Y-72.028
X96.952Y-93.078
X96.952Y-114.128
X96.952Y-135.178
X118.002Y-50.978
X118.002Y-72.028
X118.002Y-93.078
X118.002Y-114.128
X118.002Y-135.178
X139.052Y-50.978
X139.052Y-72.028
X139.052Y-93.078
X139.052Y-114.128
X139.052Y-135.178
T0
M30
