M48
; DRILL file {KiCad (5.1.5)-3} date 26.02.2021 11:51:30
; FORMAT={-:-/ absolute / metric / decimal}
; #@! TF.CreationDate,2021-02-26T11:51:30+01:00
; #@! TF.GenerationSoftware,Kicad,Pcbnew,(5.1.5)-3
; #@! TF.FileFunction,Plated,1,2,PTH
FMAT,2
METRIC
T1C0.200
T2C0.216
T3C0.279
T4C0.400
T5C0.500
T6C0.600
T7C0.762
T8C1.000
T9C4.300
%
G90
G05
T1
X33.84Y-114.165
X35.68Y-65.46
X35.825Y-85.25
X35.825Y-86.535
X36.181Y-65.046
X36.264Y-87.015
X36.314Y-84.564
X36.488Y-91.527
X36.5Y-88.25
X36.768Y-64.595
X37.5Y-72.5
X37.5Y-87.5
X37.5Y-86.535
X37.592Y-118.364
X37.647Y-83.536
X37.667Y-64.255
X37.703Y-82.221
X37.9Y-65.949
X37.94Y-65.3
X38.006Y-105.521
X38.555Y-69.43
X38.705Y-67.49
X39.243Y-71.472
X40.575Y-66.02
X41.148Y-99.568
X41.148Y-107.696
X41.435Y-65.65
X41.656Y-101.6
X42.306Y-101.6
X42.975Y-65.65
X43.317Y-88.48
X43.467Y-86.54
X44.005Y-90.522
X45.337Y-85.07
X45.485Y-64.72
X46.17Y-107.569
X46.197Y-84.7
X46.32Y-105.629
X46.858Y-109.611
X46.875Y-65.01
X46.99Y-57.15
X47.685Y-64.97
X47.725Y-67.437
X47.737Y-84.7
X48.19Y-104.159
X48.26Y-52.705
X48.26Y-57.15
X48.453Y-67.447
X49.05Y-103.789
X50.247Y-83.77
X50.59Y-103.789
X51.637Y-84.06
X51.675Y-67.43
X52.448Y-84.02
X52.487Y-86.487
X53.1Y-102.859
X53.215Y-86.497
X54.49Y-103.149
X54.835Y-72.49
X55.045Y-67.58
X55.3Y-103.109
X55.34Y-105.576
X55.975Y-65.41
X56.068Y-105.586
X56.438Y-86.48
X57.605Y-69.43
X57.755Y-67.49
X58.293Y-71.472
X59.29Y-105.569
X59.597Y-91.54
X59.625Y-66.02
X59.807Y-86.63
X60.485Y-65.65
X60.737Y-84.46
X62.025Y-65.65
X62.45Y-110.629
X62.66Y-105.72
X63.59Y-103.549
X64.535Y-64.72
X65.925Y-65.01
X66.735Y-64.97
X66.775Y-67.437
X67.13Y-88.48
X67.28Y-86.54
X67.503Y-67.447
X67.818Y-90.522
X69.15Y-85.07
X70.01Y-84.7
X70.725Y-67.43
X71.55Y-84.7
X71.93Y-107.569
X72.08Y-105.629
X72.618Y-109.611
X73.885Y-72.49
X73.95Y-104.159
X74.06Y-83.77
X74.095Y-67.58
X74.81Y-103.789
X75.025Y-65.41
X75.45Y-84.06
X76.26Y-84.02
X76.3Y-86.487
X76.35Y-103.789
X76.655Y-69.43
X76.805Y-67.49
X77.028Y-86.497
X77.343Y-71.472
X78.675Y-66.02
X78.86Y-102.859
X79.535Y-65.65
X80.25Y-86.48
X80.25Y-103.149
X81.06Y-103.109
X81.075Y-65.65
X81.1Y-105.576
X81.828Y-105.586
X83.41Y-91.54
X83.585Y-64.773
X83.62Y-86.63
X84.55Y-84.46
X84.975Y-65.01
X85.05Y-105.569
X85.785Y-64.97
X85.825Y-67.437
X86.18Y-88.48
X86.33Y-86.54
X86.553Y-67.447
X86.868Y-90.522
X88.2Y-85.07
X88.21Y-110.629
X88.42Y-105.72
X89.06Y-84.7
X89.35Y-103.549
X89.775Y-67.43
X90.6Y-84.7
X90.79Y-51.948
X90.93Y-107.569
X91.08Y-105.629
X91.618Y-109.611
X92.935Y-72.49
X92.95Y-104.159
X93.11Y-83.77
X93.145Y-67.58
X93.81Y-103.789
X94.5Y-84.06
X95.31Y-84.02
X95.35Y-86.487
X95.35Y-103.789
X96.078Y-86.497
X97.79Y-50.8
X97.86Y-102.859
X97.917Y-76.327
X98.678Y-62.471
X99.25Y-103.149
X99.3Y-86.48
X99.695Y-53.848
X100.06Y-103.109
X100.1Y-105.576
X100.828Y-105.586
X102.46Y-91.54
X102.67Y-86.63
X103.505Y-49.53
X104.05Y-105.569
X107.21Y-110.629
X107.42Y-105.72
X108.331Y-72.898
X109.728Y-77.724
X109.855Y-48.895
X109.982Y-111.252
X110.49Y-71.882
X110.738Y-111.333
X110.744Y-77.851
X111.888Y-72.379
X112.014Y-53.086
X112.522Y-115.57
X113.03Y-78.232
X113.036Y-116.586
X113.284Y-94.488
X113.284Y-120.396
X113.762Y-78.232
X114.412Y-78.229
X114.554Y-55.88
X115.062Y-78.241
X118.37Y-68.351
X119.07Y-68.351
X120.142Y-76.2
X120.269Y-106.934
X120.769Y-55.53
X120.769Y-56.23
X120.783Y-106.343
X121.029Y-93.062
X121.285Y-108.077
X121.793Y-98.552
X122.047Y-99.949
X122.174Y-66.802
X122.428Y-94.996
X122.428Y-96.901
X122.682Y-101.981
X123.317Y-83.058
X124.264Y-89.138
X124.587Y-63.246
X124.864Y-69.891
X124.908Y-71.568
X125.112Y-77.222
X125.603Y-71.247
X125.901Y-77.199
X126.202Y-77.834
X126.204Y-70.237
X126.533Y-68.326
X126.564Y-71.29
X126.936Y-68.961
X126.944Y-77.774
X127.0Y-106.426
X127.046Y-81.488
X127.257Y-70.128
X127.361Y-102.382
X127.689Y-77.762
X128.016Y-112.268
X128.016Y-114.3
X128.563Y-59.313
X128.669Y-77.579
X128.905Y-95.758
X129.032Y-76.962
X129.366Y-87.674
X129.444Y-86.947
X129.821Y-75.203
X130.048Y-105.664
X130.289Y-73.518
X130.471Y-75.203
X130.556Y-82.804
X130.556Y-91.821
X130.68Y-76.23
X130.937Y-73.66
X131.064Y-66.294
X131.291Y-89.371
X131.291Y-90.021
X131.448Y-75.101
X131.56Y-77.296
X131.569Y-71.582
X131.662Y-100.679
X131.739Y-88.857
X131.792Y-83.687
X131.826Y-126.238
X131.937Y-66.32
X131.95Y-62.356
X132.178Y-83.121
X132.318Y-95.072
X132.368Y-76.239
X132.376Y-77.216
X132.461Y-80.772
X132.553Y-74.71
X132.588Y-62.23
X132.756Y-93.621
X132.842Y-100.711
X133.015Y-74.253
X133.12Y-82.491
X133.231Y-83.132
X133.285Y-61.662
X133.371Y-95.184
X133.46Y-73.779
X133.692Y-83.59
X133.776Y-92.964
X133.934Y-73.334
X133.991Y-61.622
X134.071Y-93.697
X134.586Y-73.945
X134.601Y-94.072
X135.128Y-68.326
X135.228Y-73.847
X135.236Y-93.524
X135.296Y-84.207
X135.727Y-84.693
X135.858Y-74.008
X136.061Y-54.798
X136.095Y-71.268
X136.188Y-85.151
X136.369Y-72.165
X136.413Y-55.51
X136.652Y-75.946
X136.884Y-106.448
X137.037Y-73.574
X137.16Y-112.776
X137.367Y-76.501
X137.668Y-74.041
X137.922Y-119.126
X138.103Y-110.707
X138.132Y-78.486
X138.684Y-78.994
X138.684Y-110.998
X139.192Y-95.25
X139.446Y-55.88
X139.446Y-94.107
X139.446Y-111.506
X140.005Y-56.464
X140.716Y-83.566
X141.903Y-98.425
X142.767Y-53.974
X142.85Y-58.623
T2
X39.243Y-69.532
X44.005Y-88.582
X46.858Y-107.671
X50.875Y-68.1
X55.637Y-87.15
X58.293Y-69.532
X58.49Y-106.239
X67.818Y-88.582
X69.925Y-68.1
X72.618Y-107.671
X77.343Y-69.532
X79.45Y-87.15
X84.25Y-106.239
X86.868Y-88.582
X88.975Y-68.1
X91.618Y-107.671
X98.5Y-87.15
X103.25Y-106.239
T3
X35.22Y-66.81
X37.84Y-66.8
T4
X34.544Y-71.628
X34.544Y-89.916
X35.954Y-61.608
X42.418Y-59.69
X45.231Y-109.709
X49.085Y-57.15
X50.8Y-52.727
X51.435Y-57.785
X53.975Y-53.34
X53.975Y-59.69
X60.458Y-59.684
X60.516Y-56.417
X61.214Y-61.468
X64.531Y-58.189
X65.321Y-55.826
X66.591Y-55.917
X69.269Y-57.785
X69.575Y-55.784
X70.485Y-56.515
X72.517Y-61.468
X95.785Y-66.548
X95.785Y-67.818
X96.139Y-70.358
X96.52Y-68.834
X99.009Y-67.818
X99.06Y-69.215
X99.06Y-70.485
X99.187Y-71.755
X101.362Y-59.266
X102.298Y-58.913
X102.759Y-64.516
X103.23Y-58.55
X103.759Y-64.516
X104.169Y-58.208
X104.775Y-64.516
X105.169Y-58.204
X105.791Y-64.516
X106.169Y-58.23
X106.807Y-64.516
X107.159Y-58.091
X107.442Y-53.848
X107.95Y-64.516
X108.073Y-58.498
X109.093Y-64.516
X109.446Y-56.563
X110.236Y-64.516
X110.49Y-50.292
X113.657Y-56.537
X113.673Y-64.225
X114.386Y-63.524
X114.501Y-53.774
X114.748Y-61.768
X114.849Y-71.262
X115.306Y-63.932
X115.581Y-61.214
X116.581Y-61.22
X117.602Y-75.438
X119.38Y-80.264
X119.888Y-53.594
X121.785Y-63.881
X123.444Y-56.896
X128.524Y-51.562
X128.524Y-54.356
X131.572Y-59.614
X134.112Y-56.515
X137.541Y-74.93
X137.887Y-82.379
X138.938Y-102.108
X140.545Y-80.518
X142.875Y-75.756
X143.256Y-67.183
T5
X77.525Y-81.65
X40.64Y-59.944
X74.676Y-56.896
X37.592Y-56.896
X76.2Y-58.42
X39.37Y-81.661
X77.724Y-59.944
X58.547Y-81.65
X68.0Y-100.7
X91.872Y-119.789
X47.112Y-119.789
X56.388Y-58.42
X39.116Y-58.42
X57.912Y-59.944
X87.05Y-100.7
X54.864Y-56.896
X44.196Y-100.711
X72.872Y-119.789
T6
X29.795Y-125.73
X30.74Y-123.45
X30.74Y-128.01
X33.02Y-122.505
X33.02Y-128.955
X35.3Y-123.45
X35.3Y-128.01
X36.245Y-125.73
X136.475Y-125.73
X137.42Y-123.45
X137.42Y-128.01
X139.7Y-122.505
X139.7Y-128.955
X141.98Y-123.45
X141.98Y-128.01
X142.925Y-125.73
X29.795Y-49.53
X30.74Y-47.25
X30.74Y-51.81
X33.02Y-46.305
X33.02Y-52.755
X35.3Y-47.25
X35.3Y-51.81
X36.245Y-49.53
X136.475Y-49.53
X137.42Y-47.25
X137.42Y-51.81
X139.7Y-46.305
X139.7Y-52.755
X141.98Y-47.25
X141.98Y-51.81
X142.925Y-49.53
T7
X133.35Y-104.14
X133.35Y-109.22
X31.75Y-104.14
X31.75Y-109.22
X140.97Y-104.14
X140.97Y-109.22
T8
X138.557Y-84.963
X138.557Y-87.503
X138.557Y-90.043
X138.557Y-92.583
X103.505Y-69.85
X103.505Y-72.39
X103.505Y-74.93
X103.505Y-77.47
X106.045Y-69.85
X106.045Y-72.39
X106.045Y-74.93
X106.045Y-77.47
X130.81Y-121.666
X133.35Y-121.666
X115.697Y-116.586
X115.697Y-119.126
X115.697Y-121.666
X115.697Y-124.206
X118.237Y-116.586
X118.237Y-119.126
X118.237Y-121.666
X118.237Y-124.206
X30.734Y-58.166
X30.734Y-60.706
X30.734Y-63.246
X30.734Y-65.786
X30.734Y-68.326
X30.734Y-70.866
X30.734Y-73.406
X30.734Y-75.946
X121.92Y-116.586
X121.92Y-119.126
X121.92Y-121.666
X121.92Y-124.206
X124.46Y-116.586
X124.46Y-119.126
X124.46Y-121.666
X124.46Y-124.206
X115.57Y-96.266
X115.57Y-98.806
X115.57Y-101.346
X115.57Y-103.886
X115.57Y-106.426
X115.57Y-108.966
X40.005Y-45.72
X40.005Y-48.26
X40.005Y-50.8
X120.015Y-85.725
X122.555Y-85.725
X125.095Y-85.725
X127.635Y-85.725
X130.81Y-114.173
X130.81Y-116.713
X133.35Y-114.173
X133.35Y-116.713
X135.89Y-114.173
X135.89Y-116.713
X138.43Y-114.173
X138.43Y-116.713
X140.97Y-114.173
X140.97Y-116.713
X87.63Y-46.99
X90.17Y-46.99
X92.71Y-46.99
X95.25Y-46.99
X97.79Y-46.99
X46.99Y-46.99
X49.53Y-46.99
X52.07Y-46.99
X54.61Y-46.99
X57.15Y-46.99
X59.69Y-46.99
X62.23Y-46.99
X64.77Y-46.99
X67.31Y-46.99
X69.85Y-46.99
X72.39Y-46.99
X74.93Y-46.99
X77.47Y-46.99
X80.01Y-46.99
X82.55Y-46.99
X85.09Y-46.99
X120.015Y-90.805
X122.555Y-90.805
X125.095Y-90.805
X127.635Y-90.805
X133.35Y-59.665
X135.89Y-59.665
X138.43Y-59.665
X140.97Y-59.665
X42.545Y-45.72
X42.545Y-48.26
X42.545Y-50.8
T9
X33.02Y-125.73
X139.7Y-125.73
X33.02Y-49.53
X139.7Y-49.53
T6
G00X106.805Y-46.636
M15
G01X106.805Y-47.436
M16
G05
G00X106.805Y-50.656
M15
G01X106.805Y-51.756
M16
G05
G00X115.445Y-46.636
M15
G01X115.445Y-47.436
M16
G05
G00X115.445Y-50.656
M15
G01X115.445Y-51.756
M16
G05
T0
M30
