%TF.GenerationSoftware,KiCad,Pcbnew,(5.1.5)-3*%
%TF.CreationDate,2021-02-26T11:52:20+01:00*%
%TF.ProjectId,poly_kb,706f6c79-5f6b-4622-9e6b-696361645f70,rev?*%
%TF.SameCoordinates,Original*%
%TF.FileFunction,Legend,Top*%
%TF.FilePolarity,Positive*%
%FSLAX46Y46*%
G04 Gerber Fmt 4.6, Leading zero omitted, Abs format (unit mm)*
G04 Created by KiCad (PCBNEW (5.1.5)-3) date 2021-02-26 11:52:20*
%MOMM*%
%LPD*%
G04 APERTURE LIST*
%ADD10C,0.150000*%
%ADD11C,0.120000*%
G04 APERTURE END LIST*
D10*
X136596571Y-97115880D02*
X136787047Y-97115880D01*
X136882285Y-97163500D01*
X136977523Y-97258738D01*
X137025142Y-97449214D01*
X137025142Y-97782547D01*
X136977523Y-97973023D01*
X136882285Y-98068261D01*
X136787047Y-98115880D01*
X136596571Y-98115880D01*
X136501333Y-98068261D01*
X136406095Y-97973023D01*
X136358476Y-97782547D01*
X136358476Y-97449214D01*
X136406095Y-97258738D01*
X136501333Y-97163500D01*
X136596571Y-97115880D01*
X137406095Y-98068261D02*
X137548952Y-98115880D01*
X137787047Y-98115880D01*
X137882285Y-98068261D01*
X137929904Y-98020642D01*
X137977523Y-97925404D01*
X137977523Y-97830166D01*
X137929904Y-97734928D01*
X137882285Y-97687309D01*
X137787047Y-97639690D01*
X137596571Y-97592071D01*
X137501333Y-97544452D01*
X137453714Y-97496833D01*
X137406095Y-97401595D01*
X137406095Y-97306357D01*
X137453714Y-97211119D01*
X137501333Y-97163500D01*
X137596571Y-97115880D01*
X137834666Y-97115880D01*
X137977523Y-97163500D01*
X138977523Y-98020642D02*
X138929904Y-98068261D01*
X138787047Y-98115880D01*
X138691809Y-98115880D01*
X138548952Y-98068261D01*
X138453714Y-97973023D01*
X138406095Y-97877785D01*
X138358476Y-97687309D01*
X138358476Y-97544452D01*
X138406095Y-97353976D01*
X138453714Y-97258738D01*
X138548952Y-97163500D01*
X138691809Y-97115880D01*
X138787047Y-97115880D01*
X138929904Y-97163500D01*
X138977523Y-97211119D01*
X136858476Y-98765880D02*
X137477523Y-98765880D01*
X137144190Y-99146833D01*
X137287047Y-99146833D01*
X137382285Y-99194452D01*
X137429904Y-99242071D01*
X137477523Y-99337309D01*
X137477523Y-99575404D01*
X137429904Y-99670642D01*
X137382285Y-99718261D01*
X137287047Y-99765880D01*
X137001333Y-99765880D01*
X136906095Y-99718261D01*
X136858476Y-99670642D01*
X137858476Y-98861119D02*
X137906095Y-98813500D01*
X138001333Y-98765880D01*
X138239428Y-98765880D01*
X138334666Y-98813500D01*
X138382285Y-98861119D01*
X138429904Y-98956357D01*
X138429904Y-99051595D01*
X138382285Y-99194452D01*
X137810857Y-99765880D01*
X138429904Y-99765880D01*
X143009880Y-72207285D02*
X142009880Y-72207285D01*
X142486071Y-72207285D02*
X142486071Y-71635857D01*
X143009880Y-71635857D02*
X142009880Y-71635857D01*
X142962261Y-71207285D02*
X143009880Y-71064428D01*
X143009880Y-70826333D01*
X142962261Y-70731095D01*
X142914642Y-70683476D01*
X142819404Y-70635857D01*
X142724166Y-70635857D01*
X142628928Y-70683476D01*
X142581309Y-70731095D01*
X142533690Y-70826333D01*
X142486071Y-71016809D01*
X142438452Y-71112047D01*
X142390833Y-71159666D01*
X142295595Y-71207285D01*
X142200357Y-71207285D01*
X142105119Y-71159666D01*
X142057500Y-71112047D01*
X142009880Y-71016809D01*
X142009880Y-70778714D01*
X142057500Y-70635857D01*
X142486071Y-70207285D02*
X142486071Y-69873952D01*
X143009880Y-69731095D02*
X143009880Y-70207285D01*
X142009880Y-70207285D01*
X142009880Y-69731095D01*
D11*
X140335000Y-76263500D02*
X144780000Y-76263500D01*
X140017500Y-75946000D02*
X140335000Y-76263500D01*
X140017500Y-71755000D02*
X140017500Y-75946000D01*
X138430000Y-71755000D02*
X140017500Y-71755000D01*
X140017500Y-70739000D02*
X138493500Y-70739000D01*
X140017500Y-67818000D02*
X140017500Y-70739000D01*
X140716000Y-67183000D02*
X140017500Y-67818000D01*
X140716000Y-65786000D02*
X140716000Y-67183000D01*
X144653000Y-65786000D02*
X140716000Y-65786000D01*
X140208000Y-102743000D02*
X140208000Y-102298500D01*
X140208000Y-95758000D02*
X140208000Y-100774500D01*
X135128000Y-102743000D02*
X135128000Y-102362000D01*
X135128000Y-95758000D02*
X135128000Y-100774500D01*
X135128000Y-102743000D02*
X140208000Y-102743000D01*
X140208000Y-95758000D02*
X135128000Y-95758000D01*
X143891000Y-85217000D02*
X143573500Y-85217000D01*
X143954500Y-97917000D02*
X143954500Y-85217000D01*
X140779500Y-85217000D02*
X143573500Y-85217000D01*
X140779500Y-97917000D02*
X140779500Y-85217000D01*
X143954500Y-97917000D02*
X140779500Y-97917000D01*
D10*
X140994380Y-88241142D02*
X141708666Y-88241142D01*
X141851523Y-88288761D01*
X141946761Y-88384000D01*
X141994380Y-88526857D01*
X141994380Y-88622095D01*
X141994380Y-87764952D02*
X140994380Y-87764952D01*
X140994380Y-87384000D01*
X141042000Y-87288761D01*
X141089619Y-87241142D01*
X141184857Y-87193523D01*
X141327714Y-87193523D01*
X141422952Y-87241142D01*
X141470571Y-87288761D01*
X141518190Y-87384000D01*
X141518190Y-87764952D01*
X142644380Y-89907809D02*
X142644380Y-89717333D01*
X142692000Y-89622095D01*
X142787238Y-89526857D01*
X142977714Y-89479238D01*
X143311047Y-89479238D01*
X143501523Y-89526857D01*
X143596761Y-89622095D01*
X143644380Y-89717333D01*
X143644380Y-89907809D01*
X143596761Y-90003047D01*
X143501523Y-90098285D01*
X143311047Y-90145904D01*
X142977714Y-90145904D01*
X142787238Y-90098285D01*
X142692000Y-90003047D01*
X142644380Y-89907809D01*
X143596761Y-89098285D02*
X143644380Y-88955428D01*
X143644380Y-88717333D01*
X143596761Y-88622095D01*
X143549142Y-88574476D01*
X143453904Y-88526857D01*
X143358666Y-88526857D01*
X143263428Y-88574476D01*
X143215809Y-88622095D01*
X143168190Y-88717333D01*
X143120571Y-88907809D01*
X143072952Y-89003047D01*
X143025333Y-89050666D01*
X142930095Y-89098285D01*
X142834857Y-89098285D01*
X142739619Y-89050666D01*
X142692000Y-89003047D01*
X142644380Y-88907809D01*
X142644380Y-88669714D01*
X142692000Y-88526857D01*
X143549142Y-87526857D02*
X143596761Y-87574476D01*
X143644380Y-87717333D01*
X143644380Y-87812571D01*
X143596761Y-87955428D01*
X143501523Y-88050666D01*
X143406285Y-88098285D01*
X143215809Y-88145904D01*
X143072952Y-88145904D01*
X142882476Y-88098285D01*
X142787238Y-88050666D01*
X142692000Y-87955428D01*
X142644380Y-87812571D01*
X142644380Y-87717333D01*
X142692000Y-87574476D01*
X142739619Y-87526857D01*
X142644380Y-87193523D02*
X142644380Y-86574476D01*
X143025333Y-86907809D01*
X143025333Y-86764952D01*
X143072952Y-86669714D01*
X143120571Y-86622095D01*
X143215809Y-86574476D01*
X143453904Y-86574476D01*
X143549142Y-86622095D01*
X143596761Y-86669714D01*
X143644380Y-86764952D01*
X143644380Y-87050666D01*
X143596761Y-87145904D01*
X143549142Y-87193523D01*
X142739619Y-86193523D02*
X142692000Y-86145904D01*
X142644380Y-86050666D01*
X142644380Y-85812571D01*
X142692000Y-85717333D01*
X142739619Y-85669714D01*
X142834857Y-85622095D01*
X142930095Y-85622095D01*
X143072952Y-85669714D01*
X143644380Y-86241142D01*
X143644380Y-85622095D01*
X128833904Y-45458619D02*
X129024380Y-45315761D01*
X129214857Y-45458619D01*
X129548190Y-46363380D02*
X129548190Y-45363380D01*
X129929142Y-45363380D01*
X130024380Y-45411000D01*
X130072000Y-45458619D01*
X130119619Y-45553857D01*
X130119619Y-45696714D01*
X130072000Y-45791952D01*
X130024380Y-45839571D01*
X129929142Y-45887190D01*
X129548190Y-45887190D01*
X130738666Y-45363380D02*
X130929142Y-45363380D01*
X131024380Y-45411000D01*
X131119619Y-45506238D01*
X131167238Y-45696714D01*
X131167238Y-46030047D01*
X131119619Y-46220523D01*
X131024380Y-46315761D01*
X130929142Y-46363380D01*
X130738666Y-46363380D01*
X130643428Y-46315761D01*
X130548190Y-46220523D01*
X130500571Y-46030047D01*
X130500571Y-45696714D01*
X130548190Y-45506238D01*
X130643428Y-45411000D01*
X130738666Y-45363380D01*
X131500571Y-45363380D02*
X131738666Y-46363380D01*
X131929142Y-45649095D01*
X132119619Y-46363380D01*
X132357714Y-45363380D01*
X132738666Y-45839571D02*
X133072000Y-45839571D01*
X133214857Y-46363380D02*
X132738666Y-46363380D01*
X132738666Y-45363380D01*
X133214857Y-45363380D01*
X134214857Y-46363380D02*
X133881523Y-45887190D01*
X133643428Y-46363380D02*
X133643428Y-45363380D01*
X134024380Y-45363380D01*
X134119619Y-45411000D01*
X134167238Y-45458619D01*
X134214857Y-45553857D01*
X134214857Y-45696714D01*
X134167238Y-45791952D01*
X134119619Y-45839571D01*
X134024380Y-45887190D01*
X133643428Y-45887190D01*
X130929142Y-48013380D02*
X130452952Y-48013380D01*
X130452952Y-47013380D01*
X131262476Y-47489571D02*
X131595809Y-47489571D01*
X131738666Y-48013380D02*
X131262476Y-48013380D01*
X131262476Y-47013380D01*
X131738666Y-47013380D01*
X132167238Y-48013380D02*
X132167238Y-47013380D01*
X132405333Y-47013380D01*
X132548190Y-47061000D01*
X132643428Y-47156238D01*
X132691047Y-47251476D01*
X132738666Y-47441952D01*
X132738666Y-47584809D01*
X132691047Y-47775285D01*
X132643428Y-47870523D01*
X132548190Y-47965761D01*
X132405333Y-48013380D01*
X132167238Y-48013380D01*
X90503952Y-126960380D02*
X90503952Y-127674666D01*
X90456333Y-127817523D01*
X90361095Y-127912761D01*
X90218238Y-127960380D01*
X90123000Y-127960380D01*
X91456333Y-127960380D02*
X90980142Y-127960380D01*
X90980142Y-126960380D01*
X92361095Y-127865142D02*
X92313476Y-127912761D01*
X92170619Y-127960380D01*
X92075380Y-127960380D01*
X91932523Y-127912761D01*
X91837285Y-127817523D01*
X91789666Y-127722285D01*
X91742047Y-127531809D01*
X91742047Y-127388952D01*
X91789666Y-127198476D01*
X91837285Y-127103238D01*
X91932523Y-127008000D01*
X92075380Y-126960380D01*
X92170619Y-126960380D01*
X92313476Y-127008000D01*
X92361095Y-127055619D01*
X93075380Y-126960380D02*
X93075380Y-127674666D01*
X93027761Y-127817523D01*
X92932523Y-127912761D01*
X92789666Y-127960380D01*
X92694428Y-127960380D01*
X94027761Y-127960380D02*
X93551571Y-127960380D01*
X93551571Y-126960380D01*
X94932523Y-127865142D02*
X94884904Y-127912761D01*
X94742047Y-127960380D01*
X94646809Y-127960380D01*
X94503952Y-127912761D01*
X94408714Y-127817523D01*
X94361095Y-127722285D01*
X94313476Y-127531809D01*
X94313476Y-127388952D01*
X94361095Y-127198476D01*
X94408714Y-127103238D01*
X94503952Y-127008000D01*
X94646809Y-126960380D01*
X94742047Y-126960380D01*
X94884904Y-127008000D01*
X94932523Y-127055619D01*
X95646809Y-126960380D02*
X95646809Y-127674666D01*
X95599190Y-127817523D01*
X95503952Y-127912761D01*
X95361095Y-127960380D01*
X95265857Y-127960380D01*
X96599190Y-127960380D02*
X96123000Y-127960380D01*
X96123000Y-126960380D01*
X97503952Y-127865142D02*
X97456333Y-127912761D01*
X97313476Y-127960380D01*
X97218238Y-127960380D01*
X97075380Y-127912761D01*
X96980142Y-127817523D01*
X96932523Y-127722285D01*
X96884904Y-127531809D01*
X96884904Y-127388952D01*
X96932523Y-127198476D01*
X96980142Y-127103238D01*
X97075380Y-127008000D01*
X97218238Y-126960380D01*
X97313476Y-126960380D01*
X97456333Y-127008000D01*
X97503952Y-127055619D01*
X98218238Y-126960380D02*
X98218238Y-127674666D01*
X98170619Y-127817523D01*
X98075380Y-127912761D01*
X97932523Y-127960380D01*
X97837285Y-127960380D01*
X99170619Y-127960380D02*
X98694428Y-127960380D01*
X98694428Y-126960380D01*
X100075380Y-127865142D02*
X100027761Y-127912761D01*
X99884904Y-127960380D01*
X99789666Y-127960380D01*
X99646809Y-127912761D01*
X99551571Y-127817523D01*
X99503952Y-127722285D01*
X99456333Y-127531809D01*
X99456333Y-127388952D01*
X99503952Y-127198476D01*
X99551571Y-127103238D01*
X99646809Y-127008000D01*
X99789666Y-126960380D01*
X99884904Y-126960380D01*
X100027761Y-127008000D01*
X100075380Y-127055619D01*
X95180816Y-49330893D02*
X95113473Y-49330893D01*
X94978786Y-49263549D01*
X94911442Y-49196206D01*
X94844099Y-49061519D01*
X94844099Y-48926832D01*
X94877771Y-48825816D01*
X94978786Y-48657458D01*
X95079801Y-48556442D01*
X95248160Y-48455427D01*
X95349175Y-48421755D01*
X95483862Y-48421755D01*
X95618549Y-48489099D01*
X95685893Y-48556442D01*
X95753236Y-48691129D01*
X95753236Y-48758473D01*
X95517534Y-49802297D02*
X95483862Y-49701282D01*
X95483862Y-49633938D01*
X95517534Y-49532923D01*
X95719564Y-49330893D01*
X95820580Y-49297221D01*
X95887923Y-49297221D01*
X95988938Y-49330893D01*
X96089954Y-49431908D01*
X96123625Y-49532923D01*
X96123625Y-49600267D01*
X96089954Y-49701282D01*
X95887923Y-49903312D01*
X95786908Y-49936984D01*
X95719564Y-49936984D01*
X95618549Y-49903312D01*
X95517534Y-49802297D01*
X96157297Y-50442061D02*
X96123625Y-50341045D01*
X96157297Y-50240030D01*
X96763389Y-49633938D01*
X97032763Y-50037999D02*
X97100106Y-50038000D01*
X97201122Y-50071671D01*
X97369480Y-50240030D01*
X97403152Y-50341045D01*
X97403152Y-50408389D01*
X97369480Y-50509404D01*
X97302137Y-50576748D01*
X97167450Y-50644091D01*
X96359328Y-50644091D01*
X96797061Y-51081824D01*
X97941900Y-50812450D02*
X98009244Y-50879793D01*
X98042915Y-50980809D01*
X98042915Y-51048152D01*
X98009244Y-51149167D01*
X97908228Y-51317526D01*
X97739870Y-51485885D01*
X97571511Y-51586900D01*
X97470496Y-51620572D01*
X97403152Y-51620572D01*
X97302137Y-51586900D01*
X97234793Y-51519557D01*
X97201122Y-51418541D01*
X97201122Y-51351198D01*
X97234793Y-51250183D01*
X97335809Y-51081824D01*
X97504167Y-50913465D01*
X97672526Y-50812450D01*
X97773541Y-50778778D01*
X97840885Y-50778778D01*
X97941900Y-50812450D01*
X97720816Y-49330893D02*
X97653473Y-49330893D01*
X97518786Y-49263549D01*
X97451442Y-49196206D01*
X97384099Y-49061519D01*
X97384099Y-48926832D01*
X97417771Y-48825816D01*
X97518786Y-48657458D01*
X97619801Y-48556442D01*
X97788160Y-48455427D01*
X97889175Y-48421755D01*
X98023862Y-48421755D01*
X98158549Y-48489099D01*
X98225893Y-48556442D01*
X98293236Y-48691129D01*
X98293236Y-48758473D01*
X98057534Y-49802297D02*
X98023862Y-49701282D01*
X98023862Y-49633938D01*
X98057534Y-49532923D01*
X98259564Y-49330893D01*
X98360580Y-49297221D01*
X98427923Y-49297221D01*
X98528938Y-49330893D01*
X98629954Y-49431908D01*
X98663625Y-49532923D01*
X98663625Y-49600267D01*
X98629954Y-49701282D01*
X98427923Y-49903312D01*
X98326908Y-49936984D01*
X98259564Y-49936984D01*
X98158549Y-49903312D01*
X98057534Y-49802297D01*
X98697297Y-50442061D02*
X98663625Y-50341045D01*
X98697297Y-50240030D01*
X99303389Y-49633938D01*
X99572763Y-50037999D02*
X99640106Y-50038000D01*
X99741122Y-50071671D01*
X99909480Y-50240030D01*
X99943152Y-50341045D01*
X99943152Y-50408389D01*
X99909480Y-50509404D01*
X99842137Y-50576748D01*
X99707450Y-50644091D01*
X98899328Y-50644091D01*
X99337061Y-51081824D01*
X100010496Y-51755259D02*
X99606435Y-51351198D01*
X99808465Y-51553228D02*
X100515572Y-50846122D01*
X100347213Y-50879793D01*
X100212526Y-50879793D01*
X100111511Y-50846122D01*
X62160816Y-49330893D02*
X62093473Y-49330893D01*
X61958786Y-49263549D01*
X61891442Y-49196206D01*
X61824099Y-49061519D01*
X61824099Y-48926832D01*
X61857771Y-48825816D01*
X61958786Y-48657458D01*
X62059801Y-48556442D01*
X62228160Y-48455427D01*
X62329175Y-48421755D01*
X62463862Y-48421755D01*
X62598549Y-48489099D01*
X62665893Y-48556442D01*
X62733236Y-48691129D01*
X62733236Y-48758473D01*
X62497534Y-49802297D02*
X62463862Y-49701282D01*
X62463862Y-49633938D01*
X62497534Y-49532923D01*
X62699564Y-49330893D01*
X62800580Y-49297221D01*
X62867923Y-49297221D01*
X62968938Y-49330893D01*
X63069954Y-49431908D01*
X63103625Y-49532923D01*
X63103625Y-49600267D01*
X63069954Y-49701282D01*
X62867923Y-49903312D01*
X62766908Y-49936984D01*
X62699564Y-49936984D01*
X62598549Y-49903312D01*
X62497534Y-49802297D01*
X63137297Y-50442061D02*
X63103625Y-50341045D01*
X63137297Y-50240030D01*
X63743389Y-49633938D01*
X64248465Y-50139015D02*
X64315809Y-50206358D01*
X64349480Y-50307374D01*
X64349480Y-50374717D01*
X64315809Y-50475732D01*
X64214793Y-50644091D01*
X64046435Y-50812450D01*
X63878076Y-50913465D01*
X63777061Y-50947137D01*
X63709717Y-50947137D01*
X63608702Y-50913465D01*
X63541358Y-50846122D01*
X63507687Y-50745106D01*
X63507687Y-50677763D01*
X63541358Y-50576748D01*
X63642374Y-50408389D01*
X63810732Y-50240030D01*
X63979091Y-50139015D01*
X64080106Y-50105343D01*
X64147450Y-50105343D01*
X64248465Y-50139015D01*
X64719870Y-50610419D02*
X65191274Y-51081824D01*
X64181122Y-51485885D01*
X59620816Y-49330893D02*
X59553473Y-49330893D01*
X59418786Y-49263549D01*
X59351442Y-49196206D01*
X59284099Y-49061519D01*
X59284099Y-48926832D01*
X59317771Y-48825816D01*
X59418786Y-48657458D01*
X59519801Y-48556442D01*
X59688160Y-48455427D01*
X59789175Y-48421755D01*
X59923862Y-48421755D01*
X60058549Y-48489099D01*
X60125893Y-48556442D01*
X60193236Y-48691129D01*
X60193236Y-48758473D01*
X59957534Y-49802297D02*
X59923862Y-49701282D01*
X59923862Y-49633938D01*
X59957534Y-49532923D01*
X60159564Y-49330893D01*
X60260580Y-49297221D01*
X60327923Y-49297221D01*
X60428938Y-49330893D01*
X60529954Y-49431908D01*
X60563625Y-49532923D01*
X60563625Y-49600267D01*
X60529954Y-49701282D01*
X60327923Y-49903312D01*
X60226908Y-49936984D01*
X60159564Y-49936984D01*
X60058549Y-49903312D01*
X59957534Y-49802297D01*
X60597297Y-50442061D02*
X60563625Y-50341045D01*
X60597297Y-50240030D01*
X61203389Y-49633938D01*
X61708465Y-50139015D02*
X61775809Y-50206358D01*
X61809480Y-50307374D01*
X61809480Y-50374717D01*
X61775809Y-50475732D01*
X61674793Y-50644091D01*
X61506435Y-50812450D01*
X61338076Y-50913465D01*
X61237061Y-50947137D01*
X61169717Y-50947137D01*
X61068702Y-50913465D01*
X61001358Y-50846122D01*
X60967687Y-50745106D01*
X60967687Y-50677763D01*
X61001358Y-50576748D01*
X61102374Y-50408389D01*
X61270732Y-50240030D01*
X61439091Y-50139015D01*
X61540106Y-50105343D01*
X61607450Y-50105343D01*
X61708465Y-50139015D01*
X62550259Y-50980809D02*
X62415572Y-50846122D01*
X62314557Y-50812450D01*
X62247213Y-50812450D01*
X62078854Y-50846122D01*
X61910496Y-50947137D01*
X61641122Y-51216511D01*
X61607450Y-51317526D01*
X61607450Y-51384870D01*
X61641122Y-51485885D01*
X61775809Y-51620572D01*
X61876824Y-51654244D01*
X61944167Y-51654244D01*
X62045183Y-51620572D01*
X62213541Y-51452213D01*
X62247213Y-51351198D01*
X62247213Y-51283854D01*
X62213541Y-51182839D01*
X62078854Y-51048152D01*
X61977839Y-51014480D01*
X61910496Y-51014480D01*
X61809480Y-51048152D01*
X87560816Y-49330893D02*
X87493473Y-49330893D01*
X87358786Y-49263549D01*
X87291442Y-49196206D01*
X87224099Y-49061519D01*
X87224099Y-48926832D01*
X87257771Y-48825816D01*
X87358786Y-48657458D01*
X87459801Y-48556442D01*
X87628160Y-48455427D01*
X87729175Y-48421755D01*
X87863862Y-48421755D01*
X87998549Y-48489099D01*
X88065893Y-48556442D01*
X88133236Y-48691129D01*
X88133236Y-48758473D01*
X87897534Y-49802297D02*
X87863862Y-49701282D01*
X87863862Y-49633938D01*
X87897534Y-49532923D01*
X88099564Y-49330893D01*
X88200580Y-49297221D01*
X88267923Y-49297221D01*
X88368938Y-49330893D01*
X88469954Y-49431908D01*
X88503625Y-49532923D01*
X88503625Y-49600267D01*
X88469954Y-49701282D01*
X88267923Y-49903312D01*
X88166908Y-49936984D01*
X88099564Y-49936984D01*
X87998549Y-49903312D01*
X87897534Y-49802297D01*
X88537297Y-50442061D02*
X88503625Y-50341045D01*
X88537297Y-50240030D01*
X89143389Y-49633938D01*
X89177061Y-51081824D02*
X88772999Y-50677763D01*
X88975030Y-50879793D02*
X89682137Y-50172687D01*
X89513778Y-50206358D01*
X89379091Y-50206358D01*
X89278076Y-50172687D01*
X90119870Y-50610419D02*
X90591274Y-51081824D01*
X89581122Y-51485885D01*
X64700816Y-49330893D02*
X64633473Y-49330893D01*
X64498786Y-49263549D01*
X64431442Y-49196206D01*
X64364099Y-49061519D01*
X64364099Y-48926832D01*
X64397771Y-48825816D01*
X64498786Y-48657458D01*
X64599801Y-48556442D01*
X64768160Y-48455427D01*
X64869175Y-48421755D01*
X65003862Y-48421755D01*
X65138549Y-48489099D01*
X65205893Y-48556442D01*
X65273236Y-48691129D01*
X65273236Y-48758473D01*
X65037534Y-49802297D02*
X65003862Y-49701282D01*
X65003862Y-49633938D01*
X65037534Y-49532923D01*
X65239564Y-49330893D01*
X65340580Y-49297221D01*
X65407923Y-49297221D01*
X65508938Y-49330893D01*
X65609954Y-49431908D01*
X65643625Y-49532923D01*
X65643625Y-49600267D01*
X65609954Y-49701282D01*
X65407923Y-49903312D01*
X65306908Y-49936984D01*
X65239564Y-49936984D01*
X65138549Y-49903312D01*
X65037534Y-49802297D01*
X65677297Y-50442061D02*
X65643625Y-50341045D01*
X65677297Y-50240030D01*
X66283389Y-49633938D01*
X66788465Y-50139015D02*
X66855809Y-50206358D01*
X66889480Y-50307374D01*
X66889480Y-50374717D01*
X66855809Y-50475732D01*
X66754793Y-50644091D01*
X66586435Y-50812450D01*
X66418076Y-50913465D01*
X66317061Y-50947137D01*
X66249717Y-50947137D01*
X66148702Y-50913465D01*
X66081358Y-50846122D01*
X66047687Y-50745106D01*
X66047687Y-50677763D01*
X66081358Y-50576748D01*
X66182374Y-50408389D01*
X66350732Y-50240030D01*
X66519091Y-50139015D01*
X66620106Y-50105343D01*
X66687450Y-50105343D01*
X66788465Y-50139015D01*
X67125183Y-51081824D02*
X67091511Y-50980809D01*
X67091511Y-50913465D01*
X67125183Y-50812450D01*
X67158854Y-50778778D01*
X67259870Y-50745106D01*
X67327213Y-50745106D01*
X67428228Y-50778778D01*
X67562915Y-50913465D01*
X67596587Y-51014480D01*
X67596587Y-51081824D01*
X67562915Y-51182839D01*
X67529244Y-51216511D01*
X67428228Y-51250183D01*
X67360885Y-51250183D01*
X67259870Y-51216511D01*
X67125183Y-51081824D01*
X67024167Y-51048152D01*
X66956824Y-51048152D01*
X66855809Y-51081824D01*
X66721122Y-51216511D01*
X66687450Y-51317526D01*
X66687450Y-51384870D01*
X66721122Y-51485885D01*
X66855809Y-51620572D01*
X66956824Y-51654244D01*
X67024167Y-51654244D01*
X67125183Y-51620572D01*
X67259870Y-51485885D01*
X67293541Y-51384870D01*
X67293541Y-51317526D01*
X67259870Y-51216511D01*
X54540816Y-49330893D02*
X54473473Y-49330893D01*
X54338786Y-49263549D01*
X54271442Y-49196206D01*
X54204099Y-49061519D01*
X54204099Y-48926832D01*
X54237771Y-48825816D01*
X54338786Y-48657458D01*
X54439801Y-48556442D01*
X54608160Y-48455427D01*
X54709175Y-48421755D01*
X54843862Y-48421755D01*
X54978549Y-48489099D01*
X55045893Y-48556442D01*
X55113236Y-48691129D01*
X55113236Y-48758473D01*
X54877534Y-49802297D02*
X54843862Y-49701282D01*
X54843862Y-49633938D01*
X54877534Y-49532923D01*
X55079564Y-49330893D01*
X55180580Y-49297221D01*
X55247923Y-49297221D01*
X55348938Y-49330893D01*
X55449954Y-49431908D01*
X55483625Y-49532923D01*
X55483625Y-49600267D01*
X55449954Y-49701282D01*
X55247923Y-49903312D01*
X55146908Y-49936984D01*
X55079564Y-49936984D01*
X54978549Y-49903312D01*
X54877534Y-49802297D01*
X55517297Y-50442061D02*
X55483625Y-50341045D01*
X55517297Y-50240030D01*
X56123389Y-49633938D01*
X56628465Y-50139015D02*
X56695809Y-50206358D01*
X56729480Y-50307374D01*
X56729480Y-50374717D01*
X56695809Y-50475732D01*
X56594793Y-50644091D01*
X56426435Y-50812450D01*
X56258076Y-50913465D01*
X56157061Y-50947137D01*
X56089717Y-50947137D01*
X55988702Y-50913465D01*
X55921358Y-50846122D01*
X55887687Y-50745106D01*
X55887687Y-50677763D01*
X55921358Y-50576748D01*
X56022374Y-50408389D01*
X56190732Y-50240030D01*
X56359091Y-50139015D01*
X56460106Y-50105343D01*
X56527450Y-50105343D01*
X56628465Y-50139015D01*
X57234557Y-51216511D02*
X56763152Y-51687915D01*
X57335572Y-50778778D02*
X56662137Y-51115496D01*
X57099870Y-51553228D01*
X82480816Y-49330893D02*
X82413473Y-49330893D01*
X82278786Y-49263549D01*
X82211442Y-49196206D01*
X82144099Y-49061519D01*
X82144099Y-48926832D01*
X82177771Y-48825816D01*
X82278786Y-48657458D01*
X82379801Y-48556442D01*
X82548160Y-48455427D01*
X82649175Y-48421755D01*
X82783862Y-48421755D01*
X82918549Y-48489099D01*
X82985893Y-48556442D01*
X83053236Y-48691129D01*
X83053236Y-48758473D01*
X82817534Y-49802297D02*
X82783862Y-49701282D01*
X82783862Y-49633938D01*
X82817534Y-49532923D01*
X83019564Y-49330893D01*
X83120580Y-49297221D01*
X83187923Y-49297221D01*
X83288938Y-49330893D01*
X83389954Y-49431908D01*
X83423625Y-49532923D01*
X83423625Y-49600267D01*
X83389954Y-49701282D01*
X83187923Y-49903312D01*
X83086908Y-49936984D01*
X83019564Y-49936984D01*
X82918549Y-49903312D01*
X82817534Y-49802297D01*
X83457297Y-50442061D02*
X83423625Y-50341045D01*
X83457297Y-50240030D01*
X84063389Y-49633938D01*
X84097061Y-51081824D02*
X83692999Y-50677763D01*
X83895030Y-50879793D02*
X84602137Y-50172687D01*
X84433778Y-50206358D01*
X84299091Y-50206358D01*
X84198076Y-50172687D01*
X85443931Y-51014480D02*
X85107213Y-50677763D01*
X84736824Y-50980809D01*
X84804167Y-50980809D01*
X84905183Y-51014480D01*
X85073541Y-51182839D01*
X85107213Y-51283854D01*
X85107213Y-51351198D01*
X85073541Y-51452213D01*
X84905183Y-51620572D01*
X84804167Y-51654244D01*
X84736824Y-51654244D01*
X84635809Y-51620572D01*
X84467450Y-51452213D01*
X84433778Y-51351198D01*
X84433778Y-51283854D01*
X72320816Y-49330893D02*
X72253473Y-49330893D01*
X72118786Y-49263549D01*
X72051442Y-49196206D01*
X71984099Y-49061519D01*
X71984099Y-48926832D01*
X72017771Y-48825816D01*
X72118786Y-48657458D01*
X72219801Y-48556442D01*
X72388160Y-48455427D01*
X72489175Y-48421755D01*
X72623862Y-48421755D01*
X72758549Y-48489099D01*
X72825893Y-48556442D01*
X72893236Y-48691129D01*
X72893236Y-48758473D01*
X72657534Y-49802297D02*
X72623862Y-49701282D01*
X72623862Y-49633938D01*
X72657534Y-49532923D01*
X72859564Y-49330893D01*
X72960580Y-49297221D01*
X73027923Y-49297221D01*
X73128938Y-49330893D01*
X73229954Y-49431908D01*
X73263625Y-49532923D01*
X73263625Y-49600267D01*
X73229954Y-49701282D01*
X73027923Y-49903312D01*
X72926908Y-49936984D01*
X72859564Y-49936984D01*
X72758549Y-49903312D01*
X72657534Y-49802297D01*
X73297297Y-50442061D02*
X73263625Y-50341045D01*
X73297297Y-50240030D01*
X73903389Y-49633938D01*
X73937061Y-51081824D02*
X73532999Y-50677763D01*
X73735030Y-50879793D02*
X74442137Y-50172687D01*
X74273778Y-50206358D01*
X74139091Y-50206358D01*
X74038076Y-50172687D01*
X74610496Y-51755259D02*
X74206435Y-51351198D01*
X74408465Y-51553228D02*
X75115572Y-50846122D01*
X74947213Y-50879793D01*
X74812526Y-50879793D01*
X74711511Y-50846122D01*
X67240816Y-49330893D02*
X67173473Y-49330893D01*
X67038786Y-49263549D01*
X66971442Y-49196206D01*
X66904099Y-49061519D01*
X66904099Y-48926832D01*
X66937771Y-48825816D01*
X67038786Y-48657458D01*
X67139801Y-48556442D01*
X67308160Y-48455427D01*
X67409175Y-48421755D01*
X67543862Y-48421755D01*
X67678549Y-48489099D01*
X67745893Y-48556442D01*
X67813236Y-48691129D01*
X67813236Y-48758473D01*
X67577534Y-49802297D02*
X67543862Y-49701282D01*
X67543862Y-49633938D01*
X67577534Y-49532923D01*
X67779564Y-49330893D01*
X67880580Y-49297221D01*
X67947923Y-49297221D01*
X68048938Y-49330893D01*
X68149954Y-49431908D01*
X68183625Y-49532923D01*
X68183625Y-49600267D01*
X68149954Y-49701282D01*
X67947923Y-49903312D01*
X67846908Y-49936984D01*
X67779564Y-49936984D01*
X67678549Y-49903312D01*
X67577534Y-49802297D01*
X68217297Y-50442061D02*
X68183625Y-50341045D01*
X68217297Y-50240030D01*
X68823389Y-49633938D01*
X69328465Y-50139015D02*
X69395809Y-50206358D01*
X69429480Y-50307374D01*
X69429480Y-50374717D01*
X69395809Y-50475732D01*
X69294793Y-50644091D01*
X69126435Y-50812450D01*
X68958076Y-50913465D01*
X68857061Y-50947137D01*
X68789717Y-50947137D01*
X68688702Y-50913465D01*
X68621358Y-50846122D01*
X68587687Y-50745106D01*
X68587687Y-50677763D01*
X68621358Y-50576748D01*
X68722374Y-50408389D01*
X68890732Y-50240030D01*
X69059091Y-50139015D01*
X69160106Y-50105343D01*
X69227450Y-50105343D01*
X69328465Y-50139015D01*
X69193778Y-51418541D02*
X69328465Y-51553228D01*
X69429480Y-51586900D01*
X69496824Y-51586900D01*
X69665183Y-51553228D01*
X69833541Y-51452213D01*
X70102915Y-51182839D01*
X70136587Y-51081824D01*
X70136587Y-51014480D01*
X70102915Y-50913465D01*
X69968228Y-50778778D01*
X69867213Y-50745106D01*
X69799870Y-50745106D01*
X69698854Y-50778778D01*
X69530496Y-50947137D01*
X69496824Y-51048152D01*
X69496824Y-51115496D01*
X69530496Y-51216511D01*
X69665183Y-51351198D01*
X69766198Y-51384870D01*
X69833541Y-51384870D01*
X69934557Y-51351198D01*
X57080816Y-49330893D02*
X57013473Y-49330893D01*
X56878786Y-49263549D01*
X56811442Y-49196206D01*
X56744099Y-49061519D01*
X56744099Y-48926832D01*
X56777771Y-48825816D01*
X56878786Y-48657458D01*
X56979801Y-48556442D01*
X57148160Y-48455427D01*
X57249175Y-48421755D01*
X57383862Y-48421755D01*
X57518549Y-48489099D01*
X57585893Y-48556442D01*
X57653236Y-48691129D01*
X57653236Y-48758473D01*
X57417534Y-49802297D02*
X57383862Y-49701282D01*
X57383862Y-49633938D01*
X57417534Y-49532923D01*
X57619564Y-49330893D01*
X57720580Y-49297221D01*
X57787923Y-49297221D01*
X57888938Y-49330893D01*
X57989954Y-49431908D01*
X58023625Y-49532923D01*
X58023625Y-49600267D01*
X57989954Y-49701282D01*
X57787923Y-49903312D01*
X57686908Y-49936984D01*
X57619564Y-49936984D01*
X57518549Y-49903312D01*
X57417534Y-49802297D01*
X58057297Y-50442061D02*
X58023625Y-50341045D01*
X58057297Y-50240030D01*
X58663389Y-49633938D01*
X59168465Y-50139015D02*
X59235809Y-50206358D01*
X59269480Y-50307374D01*
X59269480Y-50374717D01*
X59235809Y-50475732D01*
X59134793Y-50644091D01*
X58966435Y-50812450D01*
X58798076Y-50913465D01*
X58697061Y-50947137D01*
X58629717Y-50947137D01*
X58528702Y-50913465D01*
X58461358Y-50846122D01*
X58427687Y-50745106D01*
X58427687Y-50677763D01*
X58461358Y-50576748D01*
X58562374Y-50408389D01*
X58730732Y-50240030D01*
X58899091Y-50139015D01*
X59000106Y-50105343D01*
X59067450Y-50105343D01*
X59168465Y-50139015D01*
X60043931Y-51014480D02*
X59707213Y-50677763D01*
X59336824Y-50980809D01*
X59404167Y-50980809D01*
X59505183Y-51014480D01*
X59673541Y-51182839D01*
X59707213Y-51283854D01*
X59707213Y-51351198D01*
X59673541Y-51452213D01*
X59505183Y-51620572D01*
X59404167Y-51654244D01*
X59336824Y-51654244D01*
X59235809Y-51620572D01*
X59067450Y-51452213D01*
X59033778Y-51351198D01*
X59033778Y-51283854D01*
X90100816Y-49330893D02*
X90033473Y-49330893D01*
X89898786Y-49263549D01*
X89831442Y-49196206D01*
X89764099Y-49061519D01*
X89764099Y-48926832D01*
X89797771Y-48825816D01*
X89898786Y-48657458D01*
X89999801Y-48556442D01*
X90168160Y-48455427D01*
X90269175Y-48421755D01*
X90403862Y-48421755D01*
X90538549Y-48489099D01*
X90605893Y-48556442D01*
X90673236Y-48691129D01*
X90673236Y-48758473D01*
X90437534Y-49802297D02*
X90403862Y-49701282D01*
X90403862Y-49633938D01*
X90437534Y-49532923D01*
X90639564Y-49330893D01*
X90740580Y-49297221D01*
X90807923Y-49297221D01*
X90908938Y-49330893D01*
X91009954Y-49431908D01*
X91043625Y-49532923D01*
X91043625Y-49600267D01*
X91009954Y-49701282D01*
X90807923Y-49903312D01*
X90706908Y-49936984D01*
X90639564Y-49936984D01*
X90538549Y-49903312D01*
X90437534Y-49802297D01*
X91077297Y-50442061D02*
X91043625Y-50341045D01*
X91077297Y-50240030D01*
X91683389Y-49633938D01*
X91717061Y-51081824D02*
X91312999Y-50677763D01*
X91515030Y-50879793D02*
X92222137Y-50172687D01*
X92053778Y-50206358D01*
X91919091Y-50206358D01*
X91818076Y-50172687D01*
X92525183Y-51081824D02*
X92491511Y-50980809D01*
X92491511Y-50913465D01*
X92525183Y-50812450D01*
X92558854Y-50778778D01*
X92659870Y-50745106D01*
X92727213Y-50745106D01*
X92828228Y-50778778D01*
X92962915Y-50913465D01*
X92996587Y-51014480D01*
X92996587Y-51081824D01*
X92962915Y-51182839D01*
X92929244Y-51216511D01*
X92828228Y-51250183D01*
X92760885Y-51250183D01*
X92659870Y-51216511D01*
X92525183Y-51081824D01*
X92424167Y-51048152D01*
X92356824Y-51048152D01*
X92255809Y-51081824D01*
X92121122Y-51216511D01*
X92087450Y-51317526D01*
X92087450Y-51384870D01*
X92121122Y-51485885D01*
X92255809Y-51620572D01*
X92356824Y-51654244D01*
X92424167Y-51654244D01*
X92525183Y-51620572D01*
X92659870Y-51485885D01*
X92693541Y-51384870D01*
X92693541Y-51317526D01*
X92659870Y-51216511D01*
X74860816Y-49330893D02*
X74793473Y-49330893D01*
X74658786Y-49263549D01*
X74591442Y-49196206D01*
X74524099Y-49061519D01*
X74524099Y-48926832D01*
X74557771Y-48825816D01*
X74658786Y-48657458D01*
X74759801Y-48556442D01*
X74928160Y-48455427D01*
X75029175Y-48421755D01*
X75163862Y-48421755D01*
X75298549Y-48489099D01*
X75365893Y-48556442D01*
X75433236Y-48691129D01*
X75433236Y-48758473D01*
X75197534Y-49802297D02*
X75163862Y-49701282D01*
X75163862Y-49633938D01*
X75197534Y-49532923D01*
X75399564Y-49330893D01*
X75500580Y-49297221D01*
X75567923Y-49297221D01*
X75668938Y-49330893D01*
X75769954Y-49431908D01*
X75803625Y-49532923D01*
X75803625Y-49600267D01*
X75769954Y-49701282D01*
X75567923Y-49903312D01*
X75466908Y-49936984D01*
X75399564Y-49936984D01*
X75298549Y-49903312D01*
X75197534Y-49802297D01*
X75837297Y-50442061D02*
X75803625Y-50341045D01*
X75837297Y-50240030D01*
X76443389Y-49633938D01*
X76477061Y-51081824D02*
X76072999Y-50677763D01*
X76275030Y-50879793D02*
X76982137Y-50172687D01*
X76813778Y-50206358D01*
X76679091Y-50206358D01*
X76578076Y-50172687D01*
X77386198Y-50711435D02*
X77453541Y-50711435D01*
X77554557Y-50745106D01*
X77722915Y-50913465D01*
X77756587Y-51014480D01*
X77756587Y-51081824D01*
X77722915Y-51182839D01*
X77655572Y-51250183D01*
X77520885Y-51317526D01*
X76712763Y-51317526D01*
X77150496Y-51755259D01*
X69780816Y-49330893D02*
X69713473Y-49330893D01*
X69578786Y-49263549D01*
X69511442Y-49196206D01*
X69444099Y-49061519D01*
X69444099Y-48926832D01*
X69477771Y-48825816D01*
X69578786Y-48657458D01*
X69679801Y-48556442D01*
X69848160Y-48455427D01*
X69949175Y-48421755D01*
X70083862Y-48421755D01*
X70218549Y-48489099D01*
X70285893Y-48556442D01*
X70353236Y-48691129D01*
X70353236Y-48758473D01*
X70117534Y-49802297D02*
X70083862Y-49701282D01*
X70083862Y-49633938D01*
X70117534Y-49532923D01*
X70319564Y-49330893D01*
X70420580Y-49297221D01*
X70487923Y-49297221D01*
X70588938Y-49330893D01*
X70689954Y-49431908D01*
X70723625Y-49532923D01*
X70723625Y-49600267D01*
X70689954Y-49701282D01*
X70487923Y-49903312D01*
X70386908Y-49936984D01*
X70319564Y-49936984D01*
X70218549Y-49903312D01*
X70117534Y-49802297D01*
X70757297Y-50442061D02*
X70723625Y-50341045D01*
X70757297Y-50240030D01*
X71363389Y-49633938D01*
X71397061Y-51081824D02*
X70992999Y-50677763D01*
X71195030Y-50879793D02*
X71902137Y-50172687D01*
X71733778Y-50206358D01*
X71599091Y-50206358D01*
X71498076Y-50172687D01*
X72541900Y-50812450D02*
X72609244Y-50879793D01*
X72642915Y-50980809D01*
X72642915Y-51048152D01*
X72609244Y-51149167D01*
X72508228Y-51317526D01*
X72339870Y-51485885D01*
X72171511Y-51586900D01*
X72070496Y-51620572D01*
X72003152Y-51620572D01*
X71902137Y-51586900D01*
X71834793Y-51519557D01*
X71801122Y-51418541D01*
X71801122Y-51351198D01*
X71834793Y-51250183D01*
X71935809Y-51081824D01*
X72104167Y-50913465D01*
X72272526Y-50812450D01*
X72373541Y-50778778D01*
X72440885Y-50778778D01*
X72541900Y-50812450D01*
X49460816Y-49330893D02*
X49393473Y-49330893D01*
X49258786Y-49263549D01*
X49191442Y-49196206D01*
X49124099Y-49061519D01*
X49124099Y-48926832D01*
X49157771Y-48825816D01*
X49258786Y-48657458D01*
X49359801Y-48556442D01*
X49528160Y-48455427D01*
X49629175Y-48421755D01*
X49763862Y-48421755D01*
X49898549Y-48489099D01*
X49965893Y-48556442D01*
X50033236Y-48691129D01*
X50033236Y-48758473D01*
X49797534Y-49802297D02*
X49763862Y-49701282D01*
X49763862Y-49633938D01*
X49797534Y-49532923D01*
X49999564Y-49330893D01*
X50100580Y-49297221D01*
X50167923Y-49297221D01*
X50268938Y-49330893D01*
X50369954Y-49431908D01*
X50403625Y-49532923D01*
X50403625Y-49600267D01*
X50369954Y-49701282D01*
X50167923Y-49903312D01*
X50066908Y-49936984D01*
X49999564Y-49936984D01*
X49898549Y-49903312D01*
X49797534Y-49802297D01*
X50437297Y-50442061D02*
X50403625Y-50341045D01*
X50437297Y-50240030D01*
X51043389Y-49633938D01*
X51548465Y-50139015D02*
X51615809Y-50206358D01*
X51649480Y-50307374D01*
X51649480Y-50374717D01*
X51615809Y-50475732D01*
X51514793Y-50644091D01*
X51346435Y-50812450D01*
X51178076Y-50913465D01*
X51077061Y-50947137D01*
X51009717Y-50947137D01*
X50908702Y-50913465D01*
X50841358Y-50846122D01*
X50807687Y-50745106D01*
X50807687Y-50677763D01*
X50841358Y-50576748D01*
X50942374Y-50408389D01*
X51110732Y-50240030D01*
X51279091Y-50139015D01*
X51380106Y-50105343D01*
X51447450Y-50105343D01*
X51548465Y-50139015D01*
X51986198Y-50711435D02*
X52053541Y-50711435D01*
X52154557Y-50745106D01*
X52322915Y-50913465D01*
X52356587Y-51014480D01*
X52356587Y-51081824D01*
X52322915Y-51182839D01*
X52255572Y-51250183D01*
X52120885Y-51317526D01*
X51312763Y-51317526D01*
X51750496Y-51755259D01*
X52000816Y-49330893D02*
X51933473Y-49330893D01*
X51798786Y-49263549D01*
X51731442Y-49196206D01*
X51664099Y-49061519D01*
X51664099Y-48926832D01*
X51697771Y-48825816D01*
X51798786Y-48657458D01*
X51899801Y-48556442D01*
X52068160Y-48455427D01*
X52169175Y-48421755D01*
X52303862Y-48421755D01*
X52438549Y-48489099D01*
X52505893Y-48556442D01*
X52573236Y-48691129D01*
X52573236Y-48758473D01*
X52337534Y-49802297D02*
X52303862Y-49701282D01*
X52303862Y-49633938D01*
X52337534Y-49532923D01*
X52539564Y-49330893D01*
X52640580Y-49297221D01*
X52707923Y-49297221D01*
X52808938Y-49330893D01*
X52909954Y-49431908D01*
X52943625Y-49532923D01*
X52943625Y-49600267D01*
X52909954Y-49701282D01*
X52707923Y-49903312D01*
X52606908Y-49936984D01*
X52539564Y-49936984D01*
X52438549Y-49903312D01*
X52337534Y-49802297D01*
X52977297Y-50442061D02*
X52943625Y-50341045D01*
X52977297Y-50240030D01*
X53583389Y-49633938D01*
X54088465Y-50139015D02*
X54155809Y-50206358D01*
X54189480Y-50307374D01*
X54189480Y-50374717D01*
X54155809Y-50475732D01*
X54054793Y-50644091D01*
X53886435Y-50812450D01*
X53718076Y-50913465D01*
X53617061Y-50947137D01*
X53549717Y-50947137D01*
X53448702Y-50913465D01*
X53381358Y-50846122D01*
X53347687Y-50745106D01*
X53347687Y-50677763D01*
X53381358Y-50576748D01*
X53482374Y-50408389D01*
X53650732Y-50240030D01*
X53819091Y-50139015D01*
X53920106Y-50105343D01*
X53987450Y-50105343D01*
X54088465Y-50139015D01*
X54559870Y-50610419D02*
X54997602Y-51048152D01*
X54492526Y-51081824D01*
X54593541Y-51182839D01*
X54627213Y-51283854D01*
X54627213Y-51351198D01*
X54593541Y-51452213D01*
X54425183Y-51620572D01*
X54324167Y-51654244D01*
X54256824Y-51654244D01*
X54155809Y-51620572D01*
X53953778Y-51418541D01*
X53920106Y-51317526D01*
X53920106Y-51250183D01*
X92640816Y-49330893D02*
X92573473Y-49330893D01*
X92438786Y-49263549D01*
X92371442Y-49196206D01*
X92304099Y-49061519D01*
X92304099Y-48926832D01*
X92337771Y-48825816D01*
X92438786Y-48657458D01*
X92539801Y-48556442D01*
X92708160Y-48455427D01*
X92809175Y-48421755D01*
X92943862Y-48421755D01*
X93078549Y-48489099D01*
X93145893Y-48556442D01*
X93213236Y-48691129D01*
X93213236Y-48758473D01*
X92977534Y-49802297D02*
X92943862Y-49701282D01*
X92943862Y-49633938D01*
X92977534Y-49532923D01*
X93179564Y-49330893D01*
X93280580Y-49297221D01*
X93347923Y-49297221D01*
X93448938Y-49330893D01*
X93549954Y-49431908D01*
X93583625Y-49532923D01*
X93583625Y-49600267D01*
X93549954Y-49701282D01*
X93347923Y-49903312D01*
X93246908Y-49936984D01*
X93179564Y-49936984D01*
X93078549Y-49903312D01*
X92977534Y-49802297D01*
X93617297Y-50442061D02*
X93583625Y-50341045D01*
X93617297Y-50240030D01*
X94223389Y-49633938D01*
X94257061Y-51081824D02*
X93852999Y-50677763D01*
X94055030Y-50879793D02*
X94762137Y-50172687D01*
X94593778Y-50206358D01*
X94459091Y-50206358D01*
X94358076Y-50172687D01*
X94593778Y-51418541D02*
X94728465Y-51553228D01*
X94829480Y-51586900D01*
X94896824Y-51586900D01*
X95065183Y-51553228D01*
X95233541Y-51452213D01*
X95502915Y-51182839D01*
X95536587Y-51081824D01*
X95536587Y-51014480D01*
X95502915Y-50913465D01*
X95368228Y-50778778D01*
X95267213Y-50745106D01*
X95199870Y-50745106D01*
X95098854Y-50778778D01*
X94930496Y-50947137D01*
X94896824Y-51048152D01*
X94896824Y-51115496D01*
X94930496Y-51216511D01*
X95065183Y-51351198D01*
X95166198Y-51384870D01*
X95233541Y-51384870D01*
X95334557Y-51351198D01*
X85020816Y-49330893D02*
X84953473Y-49330893D01*
X84818786Y-49263549D01*
X84751442Y-49196206D01*
X84684099Y-49061519D01*
X84684099Y-48926832D01*
X84717771Y-48825816D01*
X84818786Y-48657458D01*
X84919801Y-48556442D01*
X85088160Y-48455427D01*
X85189175Y-48421755D01*
X85323862Y-48421755D01*
X85458549Y-48489099D01*
X85525893Y-48556442D01*
X85593236Y-48691129D01*
X85593236Y-48758473D01*
X85357534Y-49802297D02*
X85323862Y-49701282D01*
X85323862Y-49633938D01*
X85357534Y-49532923D01*
X85559564Y-49330893D01*
X85660580Y-49297221D01*
X85727923Y-49297221D01*
X85828938Y-49330893D01*
X85929954Y-49431908D01*
X85963625Y-49532923D01*
X85963625Y-49600267D01*
X85929954Y-49701282D01*
X85727923Y-49903312D01*
X85626908Y-49936984D01*
X85559564Y-49936984D01*
X85458549Y-49903312D01*
X85357534Y-49802297D01*
X85997297Y-50442061D02*
X85963625Y-50341045D01*
X85997297Y-50240030D01*
X86603389Y-49633938D01*
X86637061Y-51081824D02*
X86232999Y-50677763D01*
X86435030Y-50879793D02*
X87142137Y-50172687D01*
X86973778Y-50206358D01*
X86839091Y-50206358D01*
X86738076Y-50172687D01*
X87950259Y-50980809D02*
X87815572Y-50846122D01*
X87714557Y-50812450D01*
X87647213Y-50812450D01*
X87478854Y-50846122D01*
X87310496Y-50947137D01*
X87041122Y-51216511D01*
X87007450Y-51317526D01*
X87007450Y-51384870D01*
X87041122Y-51485885D01*
X87175809Y-51620572D01*
X87276824Y-51654244D01*
X87344167Y-51654244D01*
X87445183Y-51620572D01*
X87613541Y-51452213D01*
X87647213Y-51351198D01*
X87647213Y-51283854D01*
X87613541Y-51182839D01*
X87478854Y-51048152D01*
X87377839Y-51014480D01*
X87310496Y-51014480D01*
X87209480Y-51048152D01*
X79940816Y-49330893D02*
X79873473Y-49330893D01*
X79738786Y-49263549D01*
X79671442Y-49196206D01*
X79604099Y-49061519D01*
X79604099Y-48926832D01*
X79637771Y-48825816D01*
X79738786Y-48657458D01*
X79839801Y-48556442D01*
X80008160Y-48455427D01*
X80109175Y-48421755D01*
X80243862Y-48421755D01*
X80378549Y-48489099D01*
X80445893Y-48556442D01*
X80513236Y-48691129D01*
X80513236Y-48758473D01*
X80277534Y-49802297D02*
X80243862Y-49701282D01*
X80243862Y-49633938D01*
X80277534Y-49532923D01*
X80479564Y-49330893D01*
X80580580Y-49297221D01*
X80647923Y-49297221D01*
X80748938Y-49330893D01*
X80849954Y-49431908D01*
X80883625Y-49532923D01*
X80883625Y-49600267D01*
X80849954Y-49701282D01*
X80647923Y-49903312D01*
X80546908Y-49936984D01*
X80479564Y-49936984D01*
X80378549Y-49903312D01*
X80277534Y-49802297D01*
X80917297Y-50442061D02*
X80883625Y-50341045D01*
X80917297Y-50240030D01*
X81523389Y-49633938D01*
X81557061Y-51081824D02*
X81152999Y-50677763D01*
X81355030Y-50879793D02*
X82062137Y-50172687D01*
X81893778Y-50206358D01*
X81759091Y-50206358D01*
X81658076Y-50172687D01*
X82634557Y-51216511D02*
X82163152Y-51687915D01*
X82735572Y-50778778D02*
X82062137Y-51115496D01*
X82499870Y-51553228D01*
X77400816Y-49330893D02*
X77333473Y-49330893D01*
X77198786Y-49263549D01*
X77131442Y-49196206D01*
X77064099Y-49061519D01*
X77064099Y-48926832D01*
X77097771Y-48825816D01*
X77198786Y-48657458D01*
X77299801Y-48556442D01*
X77468160Y-48455427D01*
X77569175Y-48421755D01*
X77703862Y-48421755D01*
X77838549Y-48489099D01*
X77905893Y-48556442D01*
X77973236Y-48691129D01*
X77973236Y-48758473D01*
X77737534Y-49802297D02*
X77703862Y-49701282D01*
X77703862Y-49633938D01*
X77737534Y-49532923D01*
X77939564Y-49330893D01*
X78040580Y-49297221D01*
X78107923Y-49297221D01*
X78208938Y-49330893D01*
X78309954Y-49431908D01*
X78343625Y-49532923D01*
X78343625Y-49600267D01*
X78309954Y-49701282D01*
X78107923Y-49903312D01*
X78006908Y-49936984D01*
X77939564Y-49936984D01*
X77838549Y-49903312D01*
X77737534Y-49802297D01*
X78377297Y-50442061D02*
X78343625Y-50341045D01*
X78377297Y-50240030D01*
X78983389Y-49633938D01*
X79017061Y-51081824D02*
X78612999Y-50677763D01*
X78815030Y-50879793D02*
X79522137Y-50172687D01*
X79353778Y-50206358D01*
X79219091Y-50206358D01*
X79118076Y-50172687D01*
X79959870Y-50610419D02*
X80397602Y-51048152D01*
X79892526Y-51081824D01*
X79993541Y-51182839D01*
X80027213Y-51283854D01*
X80027213Y-51351198D01*
X79993541Y-51452213D01*
X79825183Y-51620572D01*
X79724167Y-51654244D01*
X79656824Y-51654244D01*
X79555809Y-51620572D01*
X79353778Y-51418541D01*
X79320106Y-51317526D01*
X79320106Y-51250183D01*
X46920816Y-49330893D02*
X46853473Y-49330893D01*
X46718786Y-49263549D01*
X46651442Y-49196206D01*
X46584099Y-49061519D01*
X46584099Y-48926832D01*
X46617771Y-48825816D01*
X46718786Y-48657458D01*
X46819801Y-48556442D01*
X46988160Y-48455427D01*
X47089175Y-48421755D01*
X47223862Y-48421755D01*
X47358549Y-48489099D01*
X47425893Y-48556442D01*
X47493236Y-48691129D01*
X47493236Y-48758473D01*
X47257534Y-49802297D02*
X47223862Y-49701282D01*
X47223862Y-49633938D01*
X47257534Y-49532923D01*
X47459564Y-49330893D01*
X47560580Y-49297221D01*
X47627923Y-49297221D01*
X47728938Y-49330893D01*
X47829954Y-49431908D01*
X47863625Y-49532923D01*
X47863625Y-49600267D01*
X47829954Y-49701282D01*
X47627923Y-49903312D01*
X47526908Y-49936984D01*
X47459564Y-49936984D01*
X47358549Y-49903312D01*
X47257534Y-49802297D01*
X47897297Y-50442061D02*
X47863625Y-50341045D01*
X47897297Y-50240030D01*
X48503389Y-49633938D01*
X49008465Y-50139015D02*
X49075809Y-50206358D01*
X49109480Y-50307374D01*
X49109480Y-50374717D01*
X49075809Y-50475732D01*
X48974793Y-50644091D01*
X48806435Y-50812450D01*
X48638076Y-50913465D01*
X48537061Y-50947137D01*
X48469717Y-50947137D01*
X48368702Y-50913465D01*
X48301358Y-50846122D01*
X48267687Y-50745106D01*
X48267687Y-50677763D01*
X48301358Y-50576748D01*
X48402374Y-50408389D01*
X48570732Y-50240030D01*
X48739091Y-50139015D01*
X48840106Y-50105343D01*
X48907450Y-50105343D01*
X49008465Y-50139015D01*
X49210496Y-51755259D02*
X48806435Y-51351198D01*
X49008465Y-51553228D02*
X49715572Y-50846122D01*
X49547213Y-50879793D01*
X49412526Y-50879793D01*
X49311511Y-50846122D01*
X99996809Y-47315380D02*
X99996809Y-46315380D01*
X100568238Y-47315380D02*
X100139666Y-46743952D01*
X100568238Y-46315380D02*
X99996809Y-46886809D01*
X101377761Y-47267761D02*
X101282523Y-47315380D01*
X101092047Y-47315380D01*
X100996809Y-47267761D01*
X100949190Y-47172523D01*
X100949190Y-46791571D01*
X100996809Y-46696333D01*
X101092047Y-46648714D01*
X101282523Y-46648714D01*
X101377761Y-46696333D01*
X101425380Y-46791571D01*
X101425380Y-46886809D01*
X100949190Y-46982047D01*
X101758714Y-46648714D02*
X101996809Y-47315380D01*
X102234904Y-46648714D02*
X101996809Y-47315380D01*
X101901571Y-47553476D01*
X101853952Y-47601095D01*
X101758714Y-47648714D01*
X102568238Y-47267761D02*
X102663476Y-47315380D01*
X102853952Y-47315380D01*
X102949190Y-47267761D01*
X102996809Y-47172523D01*
X102996809Y-47124904D01*
X102949190Y-47029666D01*
X102853952Y-46982047D01*
X102711095Y-46982047D01*
X102615857Y-46934428D01*
X102568238Y-46839190D01*
X102568238Y-46791571D01*
X102615857Y-46696333D01*
X102711095Y-46648714D01*
X102853952Y-46648714D01*
X102949190Y-46696333D01*
X114093809Y-111958380D02*
X114093809Y-110958380D01*
X114665238Y-111958380D02*
X114236666Y-111386952D01*
X114665238Y-110958380D02*
X114093809Y-111529809D01*
X115474761Y-111910761D02*
X115379523Y-111958380D01*
X115189047Y-111958380D01*
X115093809Y-111910761D01*
X115046190Y-111815523D01*
X115046190Y-111434571D01*
X115093809Y-111339333D01*
X115189047Y-111291714D01*
X115379523Y-111291714D01*
X115474761Y-111339333D01*
X115522380Y-111434571D01*
X115522380Y-111529809D01*
X115046190Y-111625047D01*
X115855714Y-111291714D02*
X116093809Y-111958380D01*
X116331904Y-111291714D02*
X116093809Y-111958380D01*
X115998571Y-112196476D01*
X115950952Y-112244095D01*
X115855714Y-112291714D01*
X116665238Y-111910761D02*
X116760476Y-111958380D01*
X116950952Y-111958380D01*
X117046190Y-111910761D01*
X117093809Y-111815523D01*
X117093809Y-111767904D01*
X117046190Y-111672666D01*
X116950952Y-111625047D01*
X116808095Y-111625047D01*
X116712857Y-111577428D01*
X116665238Y-111482190D01*
X116665238Y-111434571D01*
X116712857Y-111339333D01*
X116808095Y-111291714D01*
X116950952Y-111291714D01*
X117046190Y-111339333D01*
X117856142Y-101671380D02*
X117522809Y-101195190D01*
X117284714Y-101671380D02*
X117284714Y-100671380D01*
X117665666Y-100671380D01*
X117760904Y-100719000D01*
X117808523Y-100766619D01*
X117856142Y-100861857D01*
X117856142Y-101004714D01*
X117808523Y-101099952D01*
X117760904Y-101147571D01*
X117665666Y-101195190D01*
X117284714Y-101195190D01*
X118427571Y-101671380D02*
X118332333Y-101623761D01*
X118284714Y-101576142D01*
X118237095Y-101480904D01*
X118237095Y-101195190D01*
X118284714Y-101099952D01*
X118332333Y-101052333D01*
X118427571Y-101004714D01*
X118570428Y-101004714D01*
X118665666Y-101052333D01*
X118713285Y-101099952D01*
X118760904Y-101195190D01*
X118760904Y-101480904D01*
X118713285Y-101576142D01*
X118665666Y-101623761D01*
X118570428Y-101671380D01*
X118427571Y-101671380D01*
X119094238Y-101004714D02*
X119284714Y-101671380D01*
X119475190Y-101195190D01*
X119665666Y-101671380D01*
X119856142Y-101004714D01*
X120141857Y-100671380D02*
X120760904Y-100671380D01*
X120427571Y-101052333D01*
X120570428Y-101052333D01*
X120665666Y-101099952D01*
X120713285Y-101147571D01*
X120760904Y-101242809D01*
X120760904Y-101480904D01*
X120713285Y-101576142D01*
X120665666Y-101623761D01*
X120570428Y-101671380D01*
X120284714Y-101671380D01*
X120189476Y-101623761D01*
X120141857Y-101576142D01*
X117856142Y-109291380D02*
X117522809Y-108815190D01*
X117284714Y-109291380D02*
X117284714Y-108291380D01*
X117665666Y-108291380D01*
X117760904Y-108339000D01*
X117808523Y-108386619D01*
X117856142Y-108481857D01*
X117856142Y-108624714D01*
X117808523Y-108719952D01*
X117760904Y-108767571D01*
X117665666Y-108815190D01*
X117284714Y-108815190D01*
X118427571Y-109291380D02*
X118332333Y-109243761D01*
X118284714Y-109196142D01*
X118237095Y-109100904D01*
X118237095Y-108815190D01*
X118284714Y-108719952D01*
X118332333Y-108672333D01*
X118427571Y-108624714D01*
X118570428Y-108624714D01*
X118665666Y-108672333D01*
X118713285Y-108719952D01*
X118760904Y-108815190D01*
X118760904Y-109100904D01*
X118713285Y-109196142D01*
X118665666Y-109243761D01*
X118570428Y-109291380D01*
X118427571Y-109291380D01*
X119094238Y-108624714D02*
X119284714Y-109291380D01*
X119475190Y-108815190D01*
X119665666Y-109291380D01*
X119856142Y-108624714D01*
X120665666Y-108291380D02*
X120475190Y-108291380D01*
X120379952Y-108339000D01*
X120332333Y-108386619D01*
X120237095Y-108529476D01*
X120189476Y-108719952D01*
X120189476Y-109100904D01*
X120237095Y-109196142D01*
X120284714Y-109243761D01*
X120379952Y-109291380D01*
X120570428Y-109291380D01*
X120665666Y-109243761D01*
X120713285Y-109196142D01*
X120760904Y-109100904D01*
X120760904Y-108862809D01*
X120713285Y-108767571D01*
X120665666Y-108719952D01*
X120570428Y-108672333D01*
X120379952Y-108672333D01*
X120284714Y-108719952D01*
X120237095Y-108767571D01*
X120189476Y-108862809D01*
X117856142Y-96591380D02*
X117522809Y-96115190D01*
X117284714Y-96591380D02*
X117284714Y-95591380D01*
X117665666Y-95591380D01*
X117760904Y-95639000D01*
X117808523Y-95686619D01*
X117856142Y-95781857D01*
X117856142Y-95924714D01*
X117808523Y-96019952D01*
X117760904Y-96067571D01*
X117665666Y-96115190D01*
X117284714Y-96115190D01*
X118427571Y-96591380D02*
X118332333Y-96543761D01*
X118284714Y-96496142D01*
X118237095Y-96400904D01*
X118237095Y-96115190D01*
X118284714Y-96019952D01*
X118332333Y-95972333D01*
X118427571Y-95924714D01*
X118570428Y-95924714D01*
X118665666Y-95972333D01*
X118713285Y-96019952D01*
X118760904Y-96115190D01*
X118760904Y-96400904D01*
X118713285Y-96496142D01*
X118665666Y-96543761D01*
X118570428Y-96591380D01*
X118427571Y-96591380D01*
X119094238Y-95924714D02*
X119284714Y-96591380D01*
X119475190Y-96115190D01*
X119665666Y-96591380D01*
X119856142Y-95924714D01*
X120760904Y-96591380D02*
X120189476Y-96591380D01*
X120475190Y-96591380D02*
X120475190Y-95591380D01*
X120379952Y-95734238D01*
X120284714Y-95829476D01*
X120189476Y-95877095D01*
X117856142Y-106751380D02*
X117522809Y-106275190D01*
X117284714Y-106751380D02*
X117284714Y-105751380D01*
X117665666Y-105751380D01*
X117760904Y-105799000D01*
X117808523Y-105846619D01*
X117856142Y-105941857D01*
X117856142Y-106084714D01*
X117808523Y-106179952D01*
X117760904Y-106227571D01*
X117665666Y-106275190D01*
X117284714Y-106275190D01*
X118427571Y-106751380D02*
X118332333Y-106703761D01*
X118284714Y-106656142D01*
X118237095Y-106560904D01*
X118237095Y-106275190D01*
X118284714Y-106179952D01*
X118332333Y-106132333D01*
X118427571Y-106084714D01*
X118570428Y-106084714D01*
X118665666Y-106132333D01*
X118713285Y-106179952D01*
X118760904Y-106275190D01*
X118760904Y-106560904D01*
X118713285Y-106656142D01*
X118665666Y-106703761D01*
X118570428Y-106751380D01*
X118427571Y-106751380D01*
X119094238Y-106084714D02*
X119284714Y-106751380D01*
X119475190Y-106275190D01*
X119665666Y-106751380D01*
X119856142Y-106084714D01*
X120713285Y-105751380D02*
X120237095Y-105751380D01*
X120189476Y-106227571D01*
X120237095Y-106179952D01*
X120332333Y-106132333D01*
X120570428Y-106132333D01*
X120665666Y-106179952D01*
X120713285Y-106227571D01*
X120760904Y-106322809D01*
X120760904Y-106560904D01*
X120713285Y-106656142D01*
X120665666Y-106703761D01*
X120570428Y-106751380D01*
X120332333Y-106751380D01*
X120237095Y-106703761D01*
X120189476Y-106656142D01*
X117856142Y-99131380D02*
X117522809Y-98655190D01*
X117284714Y-99131380D02*
X117284714Y-98131380D01*
X117665666Y-98131380D01*
X117760904Y-98179000D01*
X117808523Y-98226619D01*
X117856142Y-98321857D01*
X117856142Y-98464714D01*
X117808523Y-98559952D01*
X117760904Y-98607571D01*
X117665666Y-98655190D01*
X117284714Y-98655190D01*
X118427571Y-99131380D02*
X118332333Y-99083761D01*
X118284714Y-99036142D01*
X118237095Y-98940904D01*
X118237095Y-98655190D01*
X118284714Y-98559952D01*
X118332333Y-98512333D01*
X118427571Y-98464714D01*
X118570428Y-98464714D01*
X118665666Y-98512333D01*
X118713285Y-98559952D01*
X118760904Y-98655190D01*
X118760904Y-98940904D01*
X118713285Y-99036142D01*
X118665666Y-99083761D01*
X118570428Y-99131380D01*
X118427571Y-99131380D01*
X119094238Y-98464714D02*
X119284714Y-99131380D01*
X119475190Y-98655190D01*
X119665666Y-99131380D01*
X119856142Y-98464714D01*
X120189476Y-98226619D02*
X120237095Y-98179000D01*
X120332333Y-98131380D01*
X120570428Y-98131380D01*
X120665666Y-98179000D01*
X120713285Y-98226619D01*
X120760904Y-98321857D01*
X120760904Y-98417095D01*
X120713285Y-98559952D01*
X120141857Y-99131380D01*
X120760904Y-99131380D01*
X117856142Y-104211380D02*
X117522809Y-103735190D01*
X117284714Y-104211380D02*
X117284714Y-103211380D01*
X117665666Y-103211380D01*
X117760904Y-103259000D01*
X117808523Y-103306619D01*
X117856142Y-103401857D01*
X117856142Y-103544714D01*
X117808523Y-103639952D01*
X117760904Y-103687571D01*
X117665666Y-103735190D01*
X117284714Y-103735190D01*
X118427571Y-104211380D02*
X118332333Y-104163761D01*
X118284714Y-104116142D01*
X118237095Y-104020904D01*
X118237095Y-103735190D01*
X118284714Y-103639952D01*
X118332333Y-103592333D01*
X118427571Y-103544714D01*
X118570428Y-103544714D01*
X118665666Y-103592333D01*
X118713285Y-103639952D01*
X118760904Y-103735190D01*
X118760904Y-104020904D01*
X118713285Y-104116142D01*
X118665666Y-104163761D01*
X118570428Y-104211380D01*
X118427571Y-104211380D01*
X119094238Y-103544714D02*
X119284714Y-104211380D01*
X119475190Y-103735190D01*
X119665666Y-104211380D01*
X119856142Y-103544714D01*
X120665666Y-103544714D02*
X120665666Y-104211380D01*
X120427571Y-103163761D02*
X120189476Y-103878047D01*
X120808523Y-103878047D01*
X139084759Y-61221309D02*
X139522492Y-61659042D01*
X139017416Y-61692713D01*
X139118431Y-61793729D01*
X139152103Y-61894744D01*
X139152103Y-61962087D01*
X139118431Y-62063103D01*
X138950072Y-62231461D01*
X138849057Y-62265133D01*
X138781713Y-62265133D01*
X138680698Y-62231461D01*
X138478668Y-62029431D01*
X138444996Y-61928416D01*
X138444996Y-61861072D01*
X139724522Y-61861072D02*
X139253118Y-62803881D01*
X140195927Y-62332477D01*
X140364286Y-62500835D02*
X140802018Y-62938568D01*
X140296942Y-62972240D01*
X140397957Y-63073255D01*
X140431629Y-63174270D01*
X140431629Y-63241614D01*
X140397957Y-63342629D01*
X140229599Y-63510988D01*
X140128583Y-63544660D01*
X140061240Y-63544660D01*
X139960225Y-63510988D01*
X139758194Y-63308957D01*
X139724522Y-63207942D01*
X139724522Y-63140599D01*
X133348160Y-61911580D02*
X133415503Y-62046267D01*
X133583862Y-62214625D01*
X133684877Y-62248297D01*
X133752221Y-62248297D01*
X133853236Y-62214625D01*
X133920580Y-62147282D01*
X133954251Y-62046267D01*
X133954251Y-61978923D01*
X133920580Y-61877908D01*
X133819564Y-61709549D01*
X133785893Y-61608534D01*
X133785893Y-61541190D01*
X133819564Y-61440175D01*
X133886908Y-61372832D01*
X133987923Y-61339160D01*
X134055267Y-61339160D01*
X134156282Y-61372832D01*
X134324641Y-61541190D01*
X134391984Y-61675877D01*
X134021595Y-62652358D02*
X134728702Y-61945251D01*
X134897061Y-62113610D01*
X134964404Y-62248297D01*
X134964404Y-62382984D01*
X134930732Y-62483999D01*
X134829717Y-62652358D01*
X134728702Y-62753374D01*
X134560343Y-62854389D01*
X134459328Y-62888061D01*
X134324641Y-62888061D01*
X134189954Y-62820717D01*
X134021595Y-62652358D01*
X134897061Y-63123763D02*
X135233778Y-63460480D01*
X134627687Y-63258450D02*
X135570496Y-62787045D01*
X135099091Y-63729854D01*
X135904996Y-61928416D02*
X135972339Y-62063103D01*
X136140698Y-62231461D01*
X136241713Y-62265133D01*
X136309057Y-62265133D01*
X136410072Y-62231461D01*
X136477416Y-62164118D01*
X136511087Y-62063103D01*
X136511087Y-61995759D01*
X136477416Y-61894744D01*
X136376400Y-61726385D01*
X136342729Y-61625370D01*
X136342729Y-61558026D01*
X136376400Y-61457011D01*
X136443744Y-61389668D01*
X136544759Y-61355996D01*
X136612103Y-61355996D01*
X136713118Y-61389668D01*
X136881477Y-61558026D01*
X136948820Y-61692713D01*
X137049835Y-63005912D02*
X136982492Y-63005912D01*
X136847805Y-62938568D01*
X136780461Y-62871225D01*
X136713118Y-62736538D01*
X136713118Y-62601851D01*
X136746790Y-62500835D01*
X136847805Y-62332477D01*
X136948820Y-62231461D01*
X137117179Y-62130446D01*
X137218194Y-62096774D01*
X137352881Y-62096774D01*
X137487568Y-62164118D01*
X137554912Y-62231461D01*
X137622255Y-62366148D01*
X137622255Y-62433492D01*
X137622255Y-63713018D02*
X137285538Y-63376301D01*
X137992644Y-62669194D01*
X141927805Y-61591698D02*
X141894133Y-61490683D01*
X141793118Y-61389668D01*
X141658431Y-61322324D01*
X141523744Y-61322324D01*
X141422729Y-61355996D01*
X141254370Y-61457011D01*
X141153355Y-61558026D01*
X141052339Y-61726385D01*
X141018668Y-61827400D01*
X141018668Y-61962087D01*
X141086011Y-62096774D01*
X141153355Y-62164118D01*
X141288042Y-62231461D01*
X141355385Y-62231461D01*
X141591087Y-61995759D01*
X141456400Y-61861072D01*
X141591087Y-62601851D02*
X142298194Y-61894744D01*
X141995148Y-63005912D01*
X142702255Y-62298805D01*
X142331866Y-63342629D02*
X143038973Y-62635522D01*
X143207331Y-62803881D01*
X143274675Y-62938568D01*
X143274675Y-63073255D01*
X143241003Y-63174270D01*
X143139988Y-63342629D01*
X143038973Y-63443644D01*
X142870614Y-63544660D01*
X142769599Y-63578331D01*
X142634912Y-63578331D01*
X142500225Y-63510988D01*
X142331866Y-63342629D01*
X125749759Y-92082309D02*
X126187492Y-92520042D01*
X125682416Y-92553713D01*
X125783431Y-92654729D01*
X125817103Y-92755744D01*
X125817103Y-92823087D01*
X125783431Y-92924103D01*
X125615072Y-93092461D01*
X125514057Y-93126133D01*
X125446713Y-93126133D01*
X125345698Y-93092461D01*
X125143668Y-92890431D01*
X125109996Y-92789416D01*
X125109996Y-92722072D01*
X126389522Y-92722072D02*
X125918118Y-93664881D01*
X126860927Y-93193477D01*
X127029286Y-93361835D02*
X127467018Y-93799568D01*
X126961942Y-93833240D01*
X127062957Y-93934255D01*
X127096629Y-94035270D01*
X127096629Y-94102614D01*
X127062957Y-94203629D01*
X126894599Y-94371988D01*
X126793583Y-94405660D01*
X126726240Y-94405660D01*
X126625225Y-94371988D01*
X126423194Y-94169957D01*
X126389522Y-94068942D01*
X126389522Y-94001599D01*
X120013160Y-92772580D02*
X120080503Y-92907267D01*
X120248862Y-93075625D01*
X120349877Y-93109297D01*
X120417221Y-93109297D01*
X120518236Y-93075625D01*
X120585580Y-93008282D01*
X120619251Y-92907267D01*
X120619251Y-92839923D01*
X120585580Y-92738908D01*
X120484564Y-92570549D01*
X120450893Y-92469534D01*
X120450893Y-92402190D01*
X120484564Y-92301175D01*
X120551908Y-92233832D01*
X120652923Y-92200160D01*
X120720267Y-92200160D01*
X120821282Y-92233832D01*
X120989641Y-92402190D01*
X121056984Y-92536877D01*
X120686595Y-93513358D02*
X121393702Y-92806251D01*
X121562061Y-92974610D01*
X121629404Y-93109297D01*
X121629404Y-93243984D01*
X121595732Y-93345000D01*
X121494717Y-93513358D01*
X121393702Y-93614374D01*
X121225343Y-93715389D01*
X121124328Y-93749061D01*
X120989641Y-93749061D01*
X120854954Y-93681717D01*
X120686595Y-93513358D01*
X121562061Y-93984763D02*
X121898778Y-94321480D01*
X121292687Y-94119450D02*
X122235496Y-93648045D01*
X121764091Y-94590854D01*
X122569996Y-92789416D02*
X122637339Y-92924103D01*
X122805698Y-93092461D01*
X122906713Y-93126133D01*
X122974057Y-93126133D01*
X123075072Y-93092461D01*
X123142416Y-93025118D01*
X123176087Y-92924103D01*
X123176087Y-92856759D01*
X123142416Y-92755744D01*
X123041400Y-92587385D01*
X123007729Y-92486370D01*
X123007729Y-92419026D01*
X123041400Y-92318011D01*
X123108744Y-92250668D01*
X123209759Y-92216996D01*
X123277103Y-92216996D01*
X123378118Y-92250668D01*
X123546477Y-92419026D01*
X123613820Y-92553713D01*
X123714835Y-93866912D02*
X123647492Y-93866912D01*
X123512805Y-93799568D01*
X123445461Y-93732225D01*
X123378118Y-93597538D01*
X123378118Y-93462851D01*
X123411790Y-93361835D01*
X123512805Y-93193477D01*
X123613820Y-93092461D01*
X123782179Y-92991446D01*
X123883194Y-92957774D01*
X124017881Y-92957774D01*
X124152568Y-93025118D01*
X124219912Y-93092461D01*
X124287255Y-93227148D01*
X124287255Y-93294492D01*
X124287255Y-94574018D02*
X123950538Y-94237301D01*
X124657644Y-93530194D01*
X128592805Y-92452698D02*
X128559133Y-92351683D01*
X128458118Y-92250668D01*
X128323431Y-92183324D01*
X128188744Y-92183324D01*
X128087729Y-92216996D01*
X127919370Y-92318011D01*
X127818355Y-92419026D01*
X127717339Y-92587385D01*
X127683668Y-92688400D01*
X127683668Y-92823087D01*
X127751011Y-92957774D01*
X127818355Y-93025118D01*
X127953042Y-93092461D01*
X128020385Y-93092461D01*
X128256087Y-92856759D01*
X128121400Y-92722072D01*
X128256087Y-93462851D02*
X128963194Y-92755744D01*
X128660148Y-93866912D01*
X129367255Y-93159805D01*
X128996866Y-94203629D02*
X129703973Y-93496522D01*
X129872331Y-93664881D01*
X129939675Y-93799568D01*
X129939675Y-93934255D01*
X129906003Y-94035270D01*
X129804988Y-94203629D01*
X129703973Y-94304644D01*
X129535614Y-94405660D01*
X129434599Y-94439331D01*
X129299912Y-94439331D01*
X129165225Y-94371988D01*
X128996866Y-94203629D01*
X128592805Y-87372698D02*
X128559133Y-87271683D01*
X128458118Y-87170668D01*
X128323431Y-87103324D01*
X128188744Y-87103324D01*
X128087729Y-87136996D01*
X127919370Y-87238011D01*
X127818355Y-87339026D01*
X127717339Y-87507385D01*
X127683668Y-87608400D01*
X127683668Y-87743087D01*
X127751011Y-87877774D01*
X127818355Y-87945118D01*
X127953042Y-88012461D01*
X128020385Y-88012461D01*
X128256087Y-87776759D01*
X128121400Y-87642072D01*
X128256087Y-88382851D02*
X128963194Y-87675744D01*
X128660148Y-88786912D01*
X129367255Y-88079805D01*
X128996866Y-89123629D02*
X129703973Y-88416522D01*
X129872331Y-88584881D01*
X129939675Y-88719568D01*
X129939675Y-88854255D01*
X129906003Y-88955270D01*
X129804988Y-89123629D01*
X129703973Y-89224644D01*
X129535614Y-89325660D01*
X129434599Y-89359331D01*
X129299912Y-89359331D01*
X129165225Y-89291988D01*
X128996866Y-89123629D01*
X125749759Y-87002309D02*
X126187492Y-87440042D01*
X125682416Y-87473713D01*
X125783431Y-87574729D01*
X125817103Y-87675744D01*
X125817103Y-87743087D01*
X125783431Y-87844103D01*
X125615072Y-88012461D01*
X125514057Y-88046133D01*
X125446713Y-88046133D01*
X125345698Y-88012461D01*
X125143668Y-87810431D01*
X125109996Y-87709416D01*
X125109996Y-87642072D01*
X126389522Y-87642072D02*
X125918118Y-88584881D01*
X126860927Y-88113477D01*
X127029286Y-88281835D02*
X127467018Y-88719568D01*
X126961942Y-88753240D01*
X127062957Y-88854255D01*
X127096629Y-88955270D01*
X127096629Y-89022614D01*
X127062957Y-89123629D01*
X126894599Y-89291988D01*
X126793583Y-89325660D01*
X126726240Y-89325660D01*
X126625225Y-89291988D01*
X126423194Y-89089957D01*
X126389522Y-88988942D01*
X126389522Y-88921599D01*
X122569996Y-87709416D02*
X122637339Y-87844103D01*
X122805698Y-88012461D01*
X122906713Y-88046133D01*
X122974057Y-88046133D01*
X123075072Y-88012461D01*
X123142416Y-87945118D01*
X123176087Y-87844103D01*
X123176087Y-87776759D01*
X123142416Y-87675744D01*
X123041400Y-87507385D01*
X123007729Y-87406370D01*
X123007729Y-87339026D01*
X123041400Y-87238011D01*
X123108744Y-87170668D01*
X123209759Y-87136996D01*
X123277103Y-87136996D01*
X123378118Y-87170668D01*
X123546477Y-87339026D01*
X123613820Y-87473713D01*
X123714835Y-88786912D02*
X123647492Y-88786912D01*
X123512805Y-88719568D01*
X123445461Y-88652225D01*
X123378118Y-88517538D01*
X123378118Y-88382851D01*
X123411790Y-88281835D01*
X123512805Y-88113477D01*
X123613820Y-88012461D01*
X123782179Y-87911446D01*
X123883194Y-87877774D01*
X124017881Y-87877774D01*
X124152568Y-87945118D01*
X124219912Y-88012461D01*
X124287255Y-88147148D01*
X124287255Y-88214492D01*
X124287255Y-89494018D02*
X123950538Y-89157301D01*
X124657644Y-88450194D01*
X120013160Y-87692580D02*
X120080503Y-87827267D01*
X120248862Y-87995625D01*
X120349877Y-88029297D01*
X120417221Y-88029297D01*
X120518236Y-87995625D01*
X120585580Y-87928282D01*
X120619251Y-87827267D01*
X120619251Y-87759923D01*
X120585580Y-87658908D01*
X120484564Y-87490549D01*
X120450893Y-87389534D01*
X120450893Y-87322190D01*
X120484564Y-87221175D01*
X120551908Y-87153832D01*
X120652923Y-87120160D01*
X120720267Y-87120160D01*
X120821282Y-87153832D01*
X120989641Y-87322190D01*
X121056984Y-87456877D01*
X120686595Y-88433358D02*
X121393702Y-87726251D01*
X121562061Y-87894610D01*
X121629404Y-88029297D01*
X121629404Y-88163984D01*
X121595732Y-88265000D01*
X121494717Y-88433358D01*
X121393702Y-88534374D01*
X121225343Y-88635389D01*
X121124328Y-88669061D01*
X120989641Y-88669061D01*
X120854954Y-88601717D01*
X120686595Y-88433358D01*
X121562061Y-88904763D02*
X121898778Y-89241480D01*
X121292687Y-89039450D02*
X122235496Y-88568045D01*
X121764091Y-89510854D01*
X134270904Y-92162380D02*
X134889952Y-92162380D01*
X134556619Y-92543333D01*
X134699476Y-92543333D01*
X134794714Y-92590952D01*
X134842333Y-92638571D01*
X134889952Y-92733809D01*
X134889952Y-92971904D01*
X134842333Y-93067142D01*
X134794714Y-93114761D01*
X134699476Y-93162380D01*
X134413761Y-93162380D01*
X134318523Y-93114761D01*
X134270904Y-93067142D01*
X135175666Y-92162380D02*
X135509000Y-93162380D01*
X135842333Y-92162380D01*
X136080428Y-92162380D02*
X136699476Y-92162380D01*
X136366142Y-92543333D01*
X136509000Y-92543333D01*
X136604238Y-92590952D01*
X136651857Y-92638571D01*
X136699476Y-92733809D01*
X136699476Y-92971904D01*
X136651857Y-93067142D01*
X136604238Y-93114761D01*
X136509000Y-93162380D01*
X136223285Y-93162380D01*
X136128047Y-93114761D01*
X136080428Y-93067142D01*
X134747095Y-89495380D02*
X135318523Y-89495380D01*
X135032809Y-90495380D02*
X135032809Y-89495380D01*
X135556619Y-89495380D02*
X136223285Y-90495380D01*
X136223285Y-89495380D02*
X135556619Y-90495380D01*
X135342333Y-87955380D02*
X135009000Y-87479190D01*
X134770904Y-87955380D02*
X134770904Y-86955380D01*
X135151857Y-86955380D01*
X135247095Y-87003000D01*
X135294714Y-87050619D01*
X135342333Y-87145857D01*
X135342333Y-87288714D01*
X135294714Y-87383952D01*
X135247095Y-87431571D01*
X135151857Y-87479190D01*
X134770904Y-87479190D01*
X135675666Y-86955380D02*
X136342333Y-87955380D01*
X136342333Y-86955380D02*
X135675666Y-87955380D01*
X134747095Y-84717000D02*
X134651857Y-84669380D01*
X134509000Y-84669380D01*
X134366142Y-84717000D01*
X134270904Y-84812238D01*
X134223285Y-84907476D01*
X134175666Y-85097952D01*
X134175666Y-85240809D01*
X134223285Y-85431285D01*
X134270904Y-85526523D01*
X134366142Y-85621761D01*
X134509000Y-85669380D01*
X134604238Y-85669380D01*
X134747095Y-85621761D01*
X134794714Y-85574142D01*
X134794714Y-85240809D01*
X134604238Y-85240809D01*
X135223285Y-85669380D02*
X135223285Y-84669380D01*
X135794714Y-85669380D01*
X135794714Y-84669380D01*
X136270904Y-85669380D02*
X136270904Y-84669380D01*
X136509000Y-84669380D01*
X136651857Y-84717000D01*
X136747095Y-84812238D01*
X136794714Y-84907476D01*
X136842333Y-85097952D01*
X136842333Y-85240809D01*
X136794714Y-85431285D01*
X136747095Y-85526523D01*
X136651857Y-85621761D01*
X136509000Y-85669380D01*
X136270904Y-85669380D01*
X131083759Y-118117309D02*
X131521492Y-118555042D01*
X131016416Y-118588713D01*
X131117431Y-118689729D01*
X131151103Y-118790744D01*
X131151103Y-118858087D01*
X131117431Y-118959103D01*
X130949072Y-119127461D01*
X130848057Y-119161133D01*
X130780713Y-119161133D01*
X130679698Y-119127461D01*
X130477668Y-118925431D01*
X130443996Y-118824416D01*
X130443996Y-118757072D01*
X131723522Y-118757072D02*
X131252118Y-119699881D01*
X132194927Y-119228477D01*
X132363286Y-119396835D02*
X132801018Y-119834568D01*
X132295942Y-119868240D01*
X132396957Y-119969255D01*
X132430629Y-120070270D01*
X132430629Y-120137614D01*
X132396957Y-120238629D01*
X132228599Y-120406988D01*
X132127583Y-120440660D01*
X132060240Y-120440660D01*
X131959225Y-120406988D01*
X131757194Y-120204957D01*
X131723522Y-120103942D01*
X131723522Y-120036599D01*
X133926805Y-118487698D02*
X133893133Y-118386683D01*
X133792118Y-118285668D01*
X133657431Y-118218324D01*
X133522744Y-118218324D01*
X133421729Y-118251996D01*
X133253370Y-118353011D01*
X133152355Y-118454026D01*
X133051339Y-118622385D01*
X133017668Y-118723400D01*
X133017668Y-118858087D01*
X133085011Y-118992774D01*
X133152355Y-119060118D01*
X133287042Y-119127461D01*
X133354385Y-119127461D01*
X133590087Y-118891759D01*
X133455400Y-118757072D01*
X133590087Y-119497851D02*
X134297194Y-118790744D01*
X133994148Y-119901912D01*
X134701255Y-119194805D01*
X134330866Y-120238629D02*
X135037973Y-119531522D01*
X135206331Y-119699881D01*
X135273675Y-119834568D01*
X135273675Y-119969255D01*
X135240003Y-120070270D01*
X135138988Y-120238629D01*
X135037973Y-120339644D01*
X134869614Y-120440660D01*
X134768599Y-120474331D01*
X134633912Y-120474331D01*
X134499225Y-120406988D01*
X134330866Y-120238629D01*
X136466805Y-118487698D02*
X136433133Y-118386683D01*
X136332118Y-118285668D01*
X136197431Y-118218324D01*
X136062744Y-118218324D01*
X135961729Y-118251996D01*
X135793370Y-118353011D01*
X135692355Y-118454026D01*
X135591339Y-118622385D01*
X135557668Y-118723400D01*
X135557668Y-118858087D01*
X135625011Y-118992774D01*
X135692355Y-119060118D01*
X135827042Y-119127461D01*
X135894385Y-119127461D01*
X136130087Y-118891759D01*
X135995400Y-118757072D01*
X136130087Y-119497851D02*
X136837194Y-118790744D01*
X136534148Y-119901912D01*
X137241255Y-119194805D01*
X136870866Y-120238629D02*
X137577973Y-119531522D01*
X137746331Y-119699881D01*
X137813675Y-119834568D01*
X137813675Y-119969255D01*
X137780003Y-120070270D01*
X137678988Y-120238629D01*
X137577973Y-120339644D01*
X137409614Y-120440660D01*
X137308599Y-120474331D01*
X137173912Y-120474331D01*
X137039225Y-120406988D01*
X136870866Y-120238629D01*
X141546805Y-118487698D02*
X141513133Y-118386683D01*
X141412118Y-118285668D01*
X141277431Y-118218324D01*
X141142744Y-118218324D01*
X141041729Y-118251996D01*
X140873370Y-118353011D01*
X140772355Y-118454026D01*
X140671339Y-118622385D01*
X140637668Y-118723400D01*
X140637668Y-118858087D01*
X140705011Y-118992774D01*
X140772355Y-119060118D01*
X140907042Y-119127461D01*
X140974385Y-119127461D01*
X141210087Y-118891759D01*
X141075400Y-118757072D01*
X141210087Y-119497851D02*
X141917194Y-118790744D01*
X141614148Y-119901912D01*
X142321255Y-119194805D01*
X141950866Y-120238629D02*
X142657973Y-119531522D01*
X142826331Y-119699881D01*
X142893675Y-119834568D01*
X142893675Y-119969255D01*
X142860003Y-120070270D01*
X142758988Y-120238629D01*
X142657973Y-120339644D01*
X142489614Y-120440660D01*
X142388599Y-120474331D01*
X142253912Y-120474331D01*
X142119225Y-120406988D01*
X141950866Y-120238629D01*
X138189534Y-118890297D02*
X138896641Y-118183190D01*
X138593595Y-119294358D01*
X139300702Y-118587251D01*
X139401717Y-119967793D02*
X139334374Y-119967793D01*
X139199687Y-119900450D01*
X139132343Y-119833106D01*
X139065000Y-119698419D01*
X139065000Y-119563732D01*
X139098671Y-119462717D01*
X139199687Y-119294358D01*
X139300702Y-119193343D01*
X139469061Y-119092328D01*
X139570076Y-119058656D01*
X139704763Y-119058656D01*
X139839450Y-119126000D01*
X139906793Y-119193343D01*
X139974137Y-119328030D01*
X139974137Y-119395374D01*
X136665534Y-111270297D02*
X137372641Y-110563190D01*
X137069595Y-111674358D01*
X137776702Y-110967251D01*
X137877717Y-112347793D02*
X137810374Y-112347793D01*
X137675687Y-112280450D01*
X137608343Y-112213106D01*
X137541000Y-112078419D01*
X137541000Y-111943732D01*
X137574671Y-111842717D01*
X137675687Y-111674358D01*
X137776702Y-111573343D01*
X137945061Y-111472328D01*
X138046076Y-111438656D01*
X138180763Y-111438656D01*
X138315450Y-111506000D01*
X138382793Y-111573343D01*
X138450137Y-111708030D01*
X138450137Y-111775374D01*
X137964442Y-110156206D02*
X138671549Y-109449099D01*
X138368503Y-110560267D01*
X139075610Y-109853160D01*
X139109282Y-111301045D02*
X139210297Y-110728625D01*
X138705221Y-110896984D02*
X139412328Y-110189877D01*
X139681702Y-110459251D01*
X139715374Y-110560267D01*
X139715374Y-110627610D01*
X139681702Y-110728625D01*
X139580687Y-110829641D01*
X139479671Y-110863312D01*
X139412328Y-110863312D01*
X139311312Y-110829641D01*
X139041938Y-110560267D01*
X139412328Y-111536748D02*
X139479671Y-111671435D01*
X139648030Y-111839793D01*
X139749045Y-111873465D01*
X139816389Y-111873465D01*
X139917404Y-111839793D01*
X139984748Y-111772450D01*
X140018419Y-111671435D01*
X140018419Y-111604091D01*
X139984748Y-111503076D01*
X139883732Y-111334717D01*
X139850061Y-111233702D01*
X139850061Y-111166358D01*
X139883732Y-111065343D01*
X139951076Y-110997999D01*
X140052091Y-110964328D01*
X140119435Y-110964328D01*
X140220450Y-110998000D01*
X140388809Y-111166358D01*
X140456152Y-111301045D01*
X140691854Y-111469404D02*
X141095915Y-111873465D01*
X140186778Y-112378541D02*
X140893885Y-111671435D01*
X133230309Y-110434729D02*
X133297652Y-110569416D01*
X133466011Y-110737774D01*
X133567026Y-110771446D01*
X133634370Y-110771446D01*
X133735385Y-110737774D01*
X133802729Y-110670431D01*
X133836400Y-110569416D01*
X133836400Y-110502072D01*
X133802729Y-110401057D01*
X133701713Y-110232698D01*
X133668042Y-110131683D01*
X133668042Y-110064339D01*
X133701713Y-109963324D01*
X133769057Y-109895981D01*
X133870072Y-109862309D01*
X133937416Y-109862309D01*
X134038431Y-109895981D01*
X134206790Y-110064339D01*
X134274133Y-110199026D01*
X134543507Y-110401057D02*
X134004759Y-111276522D01*
X134644522Y-110906133D01*
X134274133Y-111545896D01*
X135149599Y-111007148D01*
X135553660Y-111411209D02*
X135688347Y-111545896D01*
X135722018Y-111646912D01*
X135722018Y-111781599D01*
X135621003Y-111949957D01*
X135385301Y-112185660D01*
X135216942Y-112286675D01*
X135082255Y-112286675D01*
X134981240Y-112253003D01*
X134846553Y-112118316D01*
X134812881Y-112017301D01*
X134812881Y-111882614D01*
X134913896Y-111714255D01*
X135149599Y-111478553D01*
X135317957Y-111377538D01*
X135452644Y-111377538D01*
X135553660Y-111411209D01*
X129559381Y-109430801D02*
X129626725Y-109565488D01*
X129795084Y-109733847D01*
X129896099Y-109767519D01*
X129963442Y-109767519D01*
X130064458Y-109733847D01*
X130131801Y-109666503D01*
X130165473Y-109565488D01*
X130165473Y-109498145D01*
X130131801Y-109397129D01*
X130030786Y-109228771D01*
X129997114Y-109127755D01*
X129997114Y-109060412D01*
X130030786Y-108959397D01*
X130098129Y-108892053D01*
X130199145Y-108858381D01*
X130266488Y-108858381D01*
X130367503Y-108892053D01*
X130535862Y-109060412D01*
X130603206Y-109195099D01*
X130872580Y-109397129D02*
X130333832Y-110272595D01*
X130973595Y-109902206D01*
X130603206Y-110541969D01*
X131478671Y-110003221D01*
X131512343Y-111316419D02*
X131444999Y-111316419D01*
X131310312Y-111249076D01*
X131242969Y-111181732D01*
X131175625Y-111047045D01*
X131175625Y-110912358D01*
X131209297Y-110811343D01*
X131310312Y-110642984D01*
X131411328Y-110541969D01*
X131579687Y-110440954D01*
X131680702Y-110407282D01*
X131815389Y-110407282D01*
X131950076Y-110474625D01*
X132017419Y-110541969D01*
X132084763Y-110676656D01*
X132084763Y-110744000D01*
X132084763Y-112023526D02*
X131748045Y-111686809D01*
X132455152Y-110979702D01*
X132320465Y-112259228D02*
X133027572Y-111552122D01*
X132724526Y-112663289D02*
X132825541Y-111956183D01*
X133431633Y-111956183D02*
X132623511Y-111956183D01*
X127120397Y-109531816D02*
X127187740Y-109666503D01*
X127356099Y-109834862D01*
X127457114Y-109868534D01*
X127524458Y-109868534D01*
X127625473Y-109834862D01*
X127692816Y-109767519D01*
X127726488Y-109666503D01*
X127726488Y-109599160D01*
X127692816Y-109498145D01*
X127591801Y-109329786D01*
X127558129Y-109228771D01*
X127558129Y-109161427D01*
X127591801Y-109060412D01*
X127659145Y-108993068D01*
X127760160Y-108959397D01*
X127827503Y-108959397D01*
X127928519Y-108993068D01*
X128096877Y-109161427D01*
X128164221Y-109296114D01*
X128433595Y-109498145D02*
X127894847Y-110373610D01*
X128534610Y-110003221D01*
X128164221Y-110642984D01*
X129039687Y-110104236D01*
X128601954Y-111080717D02*
X129309061Y-110373610D01*
X129477419Y-110541969D01*
X129544763Y-110676656D01*
X129544763Y-110811343D01*
X129511091Y-110912358D01*
X129410076Y-111080717D01*
X129309061Y-111181732D01*
X129140702Y-111282748D01*
X129039687Y-111316419D01*
X128905000Y-111316419D01*
X128770312Y-111249076D01*
X128601954Y-111080717D01*
X129309061Y-111787824D02*
X130016167Y-111080717D01*
X130487572Y-111552122D02*
X130622259Y-111686809D01*
X130655931Y-111787824D01*
X130655931Y-111922511D01*
X130554915Y-112090870D01*
X130319213Y-112326572D01*
X130150854Y-112427587D01*
X130016167Y-112427587D01*
X129915152Y-112393915D01*
X129780465Y-112259228D01*
X129746793Y-112158213D01*
X129746793Y-112023526D01*
X129847809Y-111855167D01*
X130083511Y-111619465D01*
X130251870Y-111518450D01*
X130386557Y-111518450D01*
X130487572Y-111552122D01*
X108458095Y-77097000D02*
X108362857Y-77049380D01*
X108220000Y-77049380D01*
X108077142Y-77097000D01*
X107981904Y-77192238D01*
X107934285Y-77287476D01*
X107886666Y-77477952D01*
X107886666Y-77620809D01*
X107934285Y-77811285D01*
X107981904Y-77906523D01*
X108077142Y-78001761D01*
X108220000Y-78049380D01*
X108315238Y-78049380D01*
X108458095Y-78001761D01*
X108505714Y-77954142D01*
X108505714Y-77620809D01*
X108315238Y-77620809D01*
X108934285Y-78049380D02*
X108934285Y-77049380D01*
X109505714Y-78049380D01*
X109505714Y-77049380D01*
X109981904Y-78049380D02*
X109981904Y-77049380D01*
X110220000Y-77049380D01*
X110362857Y-77097000D01*
X110458095Y-77192238D01*
X110505714Y-77287476D01*
X110553333Y-77477952D01*
X110553333Y-77620809D01*
X110505714Y-77811285D01*
X110458095Y-77906523D01*
X110362857Y-78001761D01*
X110220000Y-78049380D01*
X109981904Y-78049380D01*
X107902571Y-72969380D02*
X107902571Y-71969380D01*
X108235904Y-72683666D01*
X108569238Y-71969380D01*
X108569238Y-72969380D01*
X109235904Y-71969380D02*
X109426380Y-71969380D01*
X109521619Y-72017000D01*
X109616857Y-72112238D01*
X109664476Y-72302714D01*
X109664476Y-72636047D01*
X109616857Y-72826523D01*
X109521619Y-72921761D01*
X109426380Y-72969380D01*
X109235904Y-72969380D01*
X109140666Y-72921761D01*
X109045428Y-72826523D01*
X108997809Y-72636047D01*
X108997809Y-72302714D01*
X109045428Y-72112238D01*
X109140666Y-72017000D01*
X109235904Y-71969380D01*
X110045428Y-72921761D02*
X110188285Y-72969380D01*
X110426380Y-72969380D01*
X110521619Y-72921761D01*
X110569238Y-72874142D01*
X110616857Y-72778904D01*
X110616857Y-72683666D01*
X110569238Y-72588428D01*
X110521619Y-72540809D01*
X110426380Y-72493190D01*
X110235904Y-72445571D01*
X110140666Y-72397952D01*
X110093047Y-72350333D01*
X110045428Y-72255095D01*
X110045428Y-72159857D01*
X110093047Y-72064619D01*
X110140666Y-72017000D01*
X110235904Y-71969380D01*
X110474000Y-71969380D01*
X110616857Y-72017000D01*
X111045428Y-72969380D02*
X111045428Y-71969380D01*
X107981904Y-69556380D02*
X108600952Y-69556380D01*
X108267619Y-69937333D01*
X108410476Y-69937333D01*
X108505714Y-69984952D01*
X108553333Y-70032571D01*
X108600952Y-70127809D01*
X108600952Y-70365904D01*
X108553333Y-70461142D01*
X108505714Y-70508761D01*
X108410476Y-70556380D01*
X108124761Y-70556380D01*
X108029523Y-70508761D01*
X107981904Y-70461142D01*
X108886666Y-69556380D02*
X109220000Y-70556380D01*
X109553333Y-69556380D01*
X109791428Y-69556380D02*
X110410476Y-69556380D01*
X110077142Y-69937333D01*
X110220000Y-69937333D01*
X110315238Y-69984952D01*
X110362857Y-70032571D01*
X110410476Y-70127809D01*
X110410476Y-70365904D01*
X110362857Y-70461142D01*
X110315238Y-70508761D01*
X110220000Y-70556380D01*
X109934285Y-70556380D01*
X109839047Y-70508761D01*
X109791428Y-70461142D01*
X108545380Y-75509380D02*
X108212047Y-75033190D01*
X107973952Y-75509380D02*
X107973952Y-74509380D01*
X108354904Y-74509380D01*
X108450142Y-74557000D01*
X108497761Y-74604619D01*
X108545380Y-74699857D01*
X108545380Y-74842714D01*
X108497761Y-74937952D01*
X108450142Y-74985571D01*
X108354904Y-75033190D01*
X107973952Y-75033190D01*
X108926333Y-75461761D02*
X109069190Y-75509380D01*
X109307285Y-75509380D01*
X109402523Y-75461761D01*
X109450142Y-75414142D01*
X109497761Y-75318904D01*
X109497761Y-75223666D01*
X109450142Y-75128428D01*
X109402523Y-75080809D01*
X109307285Y-75033190D01*
X109116809Y-74985571D01*
X109021571Y-74937952D01*
X108973952Y-74890333D01*
X108926333Y-74795095D01*
X108926333Y-74699857D01*
X108973952Y-74604619D01*
X109021571Y-74557000D01*
X109116809Y-74509380D01*
X109354904Y-74509380D01*
X109497761Y-74557000D01*
X109783476Y-74509380D02*
X110354904Y-74509380D01*
X110069190Y-75509380D02*
X110069190Y-74509380D01*
X99314095Y-77097000D02*
X99218857Y-77049380D01*
X99076000Y-77049380D01*
X98933142Y-77097000D01*
X98837904Y-77192238D01*
X98790285Y-77287476D01*
X98742666Y-77477952D01*
X98742666Y-77620809D01*
X98790285Y-77811285D01*
X98837904Y-77906523D01*
X98933142Y-78001761D01*
X99076000Y-78049380D01*
X99171238Y-78049380D01*
X99314095Y-78001761D01*
X99361714Y-77954142D01*
X99361714Y-77620809D01*
X99171238Y-77620809D01*
X99790285Y-78049380D02*
X99790285Y-77049380D01*
X100361714Y-78049380D01*
X100361714Y-77049380D01*
X100837904Y-78049380D02*
X100837904Y-77049380D01*
X101076000Y-77049380D01*
X101218857Y-77097000D01*
X101314095Y-77192238D01*
X101361714Y-77287476D01*
X101409333Y-77477952D01*
X101409333Y-77620809D01*
X101361714Y-77811285D01*
X101314095Y-77906523D01*
X101218857Y-78001761D01*
X101076000Y-78049380D01*
X100837904Y-78049380D01*
X98631571Y-70429380D02*
X98631571Y-69429380D01*
X98964904Y-70143666D01*
X99298238Y-69429380D01*
X99298238Y-70429380D01*
X99774428Y-70429380D02*
X99774428Y-69429380D01*
X100203000Y-70381761D02*
X100345857Y-70429380D01*
X100583952Y-70429380D01*
X100679190Y-70381761D01*
X100726809Y-70334142D01*
X100774428Y-70238904D01*
X100774428Y-70143666D01*
X100726809Y-70048428D01*
X100679190Y-70000809D01*
X100583952Y-69953190D01*
X100393476Y-69905571D01*
X100298238Y-69857952D01*
X100250619Y-69810333D01*
X100203000Y-69715095D01*
X100203000Y-69619857D01*
X100250619Y-69524619D01*
X100298238Y-69477000D01*
X100393476Y-69429380D01*
X100631571Y-69429380D01*
X100774428Y-69477000D01*
X101393476Y-69429380D02*
X101583952Y-69429380D01*
X101679190Y-69477000D01*
X101774428Y-69572238D01*
X101822047Y-69762714D01*
X101822047Y-70096047D01*
X101774428Y-70286523D01*
X101679190Y-70381761D01*
X101583952Y-70429380D01*
X101393476Y-70429380D01*
X101298238Y-70381761D01*
X101203000Y-70286523D01*
X101155380Y-70096047D01*
X101155380Y-69762714D01*
X101203000Y-69572238D01*
X101298238Y-69477000D01*
X101393476Y-69429380D01*
X98790285Y-72921761D02*
X98933142Y-72969380D01*
X99171238Y-72969380D01*
X99266476Y-72921761D01*
X99314095Y-72874142D01*
X99361714Y-72778904D01*
X99361714Y-72683666D01*
X99314095Y-72588428D01*
X99266476Y-72540809D01*
X99171238Y-72493190D01*
X98980761Y-72445571D01*
X98885523Y-72397952D01*
X98837904Y-72350333D01*
X98790285Y-72255095D01*
X98790285Y-72159857D01*
X98837904Y-72064619D01*
X98885523Y-72017000D01*
X98980761Y-71969380D01*
X99218857Y-71969380D01*
X99361714Y-72017000D01*
X100361714Y-72874142D02*
X100314095Y-72921761D01*
X100171238Y-72969380D01*
X100076000Y-72969380D01*
X99933142Y-72921761D01*
X99837904Y-72826523D01*
X99790285Y-72731285D01*
X99742666Y-72540809D01*
X99742666Y-72397952D01*
X99790285Y-72207476D01*
X99837904Y-72112238D01*
X99933142Y-72017000D01*
X100076000Y-71969380D01*
X100171238Y-71969380D01*
X100314095Y-72017000D01*
X100361714Y-72064619D01*
X100790285Y-72969380D02*
X100790285Y-71969380D01*
X101361714Y-72969380D02*
X100933142Y-72397952D01*
X101361714Y-71969380D02*
X100790285Y-72540809D01*
X99314095Y-75334761D02*
X99456952Y-75382380D01*
X99695047Y-75382380D01*
X99790285Y-75334761D01*
X99837904Y-75287142D01*
X99885523Y-75191904D01*
X99885523Y-75096666D01*
X99837904Y-75001428D01*
X99790285Y-74953809D01*
X99695047Y-74906190D01*
X99504571Y-74858571D01*
X99409333Y-74810952D01*
X99361714Y-74763333D01*
X99314095Y-74668095D01*
X99314095Y-74572857D01*
X99361714Y-74477619D01*
X99409333Y-74430000D01*
X99504571Y-74382380D01*
X99742666Y-74382380D01*
X99885523Y-74430000D01*
X100266476Y-75334761D02*
X100409333Y-75382380D01*
X100647428Y-75382380D01*
X100742666Y-75334761D01*
X100790285Y-75287142D01*
X100837904Y-75191904D01*
X100837904Y-75096666D01*
X100790285Y-75001428D01*
X100742666Y-74953809D01*
X100647428Y-74906190D01*
X100456952Y-74858571D01*
X100361714Y-74810952D01*
X100314095Y-74763333D01*
X100266476Y-74668095D01*
X100266476Y-74572857D01*
X100314095Y-74477619D01*
X100361714Y-74430000D01*
X100456952Y-74382380D01*
X100695047Y-74382380D01*
X100837904Y-74430000D01*
X126873095Y-123833000D02*
X126777857Y-123785380D01*
X126635000Y-123785380D01*
X126492142Y-123833000D01*
X126396904Y-123928238D01*
X126349285Y-124023476D01*
X126301666Y-124213952D01*
X126301666Y-124356809D01*
X126349285Y-124547285D01*
X126396904Y-124642523D01*
X126492142Y-124737761D01*
X126635000Y-124785380D01*
X126730238Y-124785380D01*
X126873095Y-124737761D01*
X126920714Y-124690142D01*
X126920714Y-124356809D01*
X126730238Y-124356809D01*
X127349285Y-124785380D02*
X127349285Y-123785380D01*
X127920714Y-124785380D01*
X127920714Y-123785380D01*
X128396904Y-124785380D02*
X128396904Y-123785380D01*
X128635000Y-123785380D01*
X128777857Y-123833000D01*
X128873095Y-123928238D01*
X128920714Y-124023476D01*
X128968333Y-124213952D01*
X128968333Y-124356809D01*
X128920714Y-124547285D01*
X128873095Y-124642523D01*
X128777857Y-124737761D01*
X128635000Y-124785380D01*
X128396904Y-124785380D01*
X126960380Y-122245380D02*
X126627047Y-121769190D01*
X126388952Y-122245380D02*
X126388952Y-121245380D01*
X126769904Y-121245380D01*
X126865142Y-121293000D01*
X126912761Y-121340619D01*
X126960380Y-121435857D01*
X126960380Y-121578714D01*
X126912761Y-121673952D01*
X126865142Y-121721571D01*
X126769904Y-121769190D01*
X126388952Y-121769190D01*
X127341333Y-122197761D02*
X127484190Y-122245380D01*
X127722285Y-122245380D01*
X127817523Y-122197761D01*
X127865142Y-122150142D01*
X127912761Y-122054904D01*
X127912761Y-121959666D01*
X127865142Y-121864428D01*
X127817523Y-121816809D01*
X127722285Y-121769190D01*
X127531809Y-121721571D01*
X127436571Y-121673952D01*
X127388952Y-121626333D01*
X127341333Y-121531095D01*
X127341333Y-121435857D01*
X127388952Y-121340619D01*
X127436571Y-121293000D01*
X127531809Y-121245380D01*
X127769904Y-121245380D01*
X127912761Y-121293000D01*
X128198476Y-121245380D02*
X128769904Y-121245380D01*
X128484190Y-122245380D02*
X128484190Y-121245380D01*
X126317571Y-119705380D02*
X126317571Y-118705380D01*
X126650904Y-119419666D01*
X126984238Y-118705380D01*
X126984238Y-119705380D01*
X127650904Y-118705380D02*
X127841380Y-118705380D01*
X127936619Y-118753000D01*
X128031857Y-118848238D01*
X128079476Y-119038714D01*
X128079476Y-119372047D01*
X128031857Y-119562523D01*
X127936619Y-119657761D01*
X127841380Y-119705380D01*
X127650904Y-119705380D01*
X127555666Y-119657761D01*
X127460428Y-119562523D01*
X127412809Y-119372047D01*
X127412809Y-119038714D01*
X127460428Y-118848238D01*
X127555666Y-118753000D01*
X127650904Y-118705380D01*
X128460428Y-119657761D02*
X128603285Y-119705380D01*
X128841380Y-119705380D01*
X128936619Y-119657761D01*
X128984238Y-119610142D01*
X129031857Y-119514904D01*
X129031857Y-119419666D01*
X128984238Y-119324428D01*
X128936619Y-119276809D01*
X128841380Y-119229190D01*
X128650904Y-119181571D01*
X128555666Y-119133952D01*
X128508047Y-119086333D01*
X128460428Y-118991095D01*
X128460428Y-118895857D01*
X128508047Y-118800619D01*
X128555666Y-118753000D01*
X128650904Y-118705380D01*
X128889000Y-118705380D01*
X129031857Y-118753000D01*
X129460428Y-119705380D02*
X129460428Y-118705380D01*
X126396904Y-116292380D02*
X127015952Y-116292380D01*
X126682619Y-116673333D01*
X126825476Y-116673333D01*
X126920714Y-116720952D01*
X126968333Y-116768571D01*
X127015952Y-116863809D01*
X127015952Y-117101904D01*
X126968333Y-117197142D01*
X126920714Y-117244761D01*
X126825476Y-117292380D01*
X126539761Y-117292380D01*
X126444523Y-117244761D01*
X126396904Y-117197142D01*
X127301666Y-116292380D02*
X127635000Y-117292380D01*
X127968333Y-116292380D01*
X128206428Y-116292380D02*
X128825476Y-116292380D01*
X128492142Y-116673333D01*
X128635000Y-116673333D01*
X128730238Y-116720952D01*
X128777857Y-116768571D01*
X128825476Y-116863809D01*
X128825476Y-117101904D01*
X128777857Y-117197142D01*
X128730238Y-117244761D01*
X128635000Y-117292380D01*
X128349285Y-117292380D01*
X128254047Y-117244761D01*
X128206428Y-117197142D01*
X111379095Y-123833000D02*
X111283857Y-123785380D01*
X111141000Y-123785380D01*
X110998142Y-123833000D01*
X110902904Y-123928238D01*
X110855285Y-124023476D01*
X110807666Y-124213952D01*
X110807666Y-124356809D01*
X110855285Y-124547285D01*
X110902904Y-124642523D01*
X110998142Y-124737761D01*
X111141000Y-124785380D01*
X111236238Y-124785380D01*
X111379095Y-124737761D01*
X111426714Y-124690142D01*
X111426714Y-124356809D01*
X111236238Y-124356809D01*
X111855285Y-124785380D02*
X111855285Y-123785380D01*
X112426714Y-124785380D01*
X112426714Y-123785380D01*
X112902904Y-124785380D02*
X112902904Y-123785380D01*
X113141000Y-123785380D01*
X113283857Y-123833000D01*
X113379095Y-123928238D01*
X113426714Y-124023476D01*
X113474333Y-124213952D01*
X113474333Y-124356809D01*
X113426714Y-124547285D01*
X113379095Y-124642523D01*
X113283857Y-124737761D01*
X113141000Y-124785380D01*
X112902904Y-124785380D01*
X111379095Y-122070761D02*
X111521952Y-122118380D01*
X111760047Y-122118380D01*
X111855285Y-122070761D01*
X111902904Y-122023142D01*
X111950523Y-121927904D01*
X111950523Y-121832666D01*
X111902904Y-121737428D01*
X111855285Y-121689809D01*
X111760047Y-121642190D01*
X111569571Y-121594571D01*
X111474333Y-121546952D01*
X111426714Y-121499333D01*
X111379095Y-121404095D01*
X111379095Y-121308857D01*
X111426714Y-121213619D01*
X111474333Y-121166000D01*
X111569571Y-121118380D01*
X111807666Y-121118380D01*
X111950523Y-121166000D01*
X112331476Y-122070761D02*
X112474333Y-122118380D01*
X112712428Y-122118380D01*
X112807666Y-122070761D01*
X112855285Y-122023142D01*
X112902904Y-121927904D01*
X112902904Y-121832666D01*
X112855285Y-121737428D01*
X112807666Y-121689809D01*
X112712428Y-121642190D01*
X112521952Y-121594571D01*
X112426714Y-121546952D01*
X112379095Y-121499333D01*
X112331476Y-121404095D01*
X112331476Y-121308857D01*
X112379095Y-121213619D01*
X112426714Y-121166000D01*
X112521952Y-121118380D01*
X112760047Y-121118380D01*
X112902904Y-121166000D01*
X110855285Y-119657761D02*
X110998142Y-119705380D01*
X111236238Y-119705380D01*
X111331476Y-119657761D01*
X111379095Y-119610142D01*
X111426714Y-119514904D01*
X111426714Y-119419666D01*
X111379095Y-119324428D01*
X111331476Y-119276809D01*
X111236238Y-119229190D01*
X111045761Y-119181571D01*
X110950523Y-119133952D01*
X110902904Y-119086333D01*
X110855285Y-118991095D01*
X110855285Y-118895857D01*
X110902904Y-118800619D01*
X110950523Y-118753000D01*
X111045761Y-118705380D01*
X111283857Y-118705380D01*
X111426714Y-118753000D01*
X112426714Y-119610142D02*
X112379095Y-119657761D01*
X112236238Y-119705380D01*
X112141000Y-119705380D01*
X111998142Y-119657761D01*
X111902904Y-119562523D01*
X111855285Y-119467285D01*
X111807666Y-119276809D01*
X111807666Y-119133952D01*
X111855285Y-118943476D01*
X111902904Y-118848238D01*
X111998142Y-118753000D01*
X112141000Y-118705380D01*
X112236238Y-118705380D01*
X112379095Y-118753000D01*
X112426714Y-118800619D01*
X112855285Y-119705380D02*
X112855285Y-118705380D01*
X113426714Y-119705380D02*
X112998142Y-119133952D01*
X113426714Y-118705380D02*
X112855285Y-119276809D01*
X110696571Y-117165380D02*
X110696571Y-116165380D01*
X111029904Y-116879666D01*
X111363238Y-116165380D01*
X111363238Y-117165380D01*
X111839428Y-117165380D02*
X111839428Y-116165380D01*
X112268000Y-117117761D02*
X112410857Y-117165380D01*
X112648952Y-117165380D01*
X112744190Y-117117761D01*
X112791809Y-117070142D01*
X112839428Y-116974904D01*
X112839428Y-116879666D01*
X112791809Y-116784428D01*
X112744190Y-116736809D01*
X112648952Y-116689190D01*
X112458476Y-116641571D01*
X112363238Y-116593952D01*
X112315619Y-116546333D01*
X112268000Y-116451095D01*
X112268000Y-116355857D01*
X112315619Y-116260619D01*
X112363238Y-116213000D01*
X112458476Y-116165380D01*
X112696571Y-116165380D01*
X112839428Y-116213000D01*
X113458476Y-116165380D02*
X113648952Y-116165380D01*
X113744190Y-116213000D01*
X113839428Y-116308238D01*
X113887047Y-116498714D01*
X113887047Y-116832047D01*
X113839428Y-117022523D01*
X113744190Y-117117761D01*
X113648952Y-117165380D01*
X113458476Y-117165380D01*
X113363238Y-117117761D01*
X113268000Y-117022523D01*
X113220380Y-116832047D01*
X113220380Y-116498714D01*
X113268000Y-116308238D01*
X113363238Y-116213000D01*
X113458476Y-116165380D01*
X69175285Y-107347285D02*
X68889571Y-106585380D01*
X68603857Y-107347285D01*
X68889571Y-107823476D02*
X68889571Y-108585380D01*
X68889571Y-109061571D02*
X68889571Y-109823476D01*
X68889571Y-110299666D02*
X68889571Y-111061571D01*
X68508619Y-112775857D02*
X68508619Y-112299666D01*
X69508619Y-112299666D01*
X68556238Y-113490142D02*
X68508619Y-113394904D01*
X68508619Y-113204428D01*
X68556238Y-113109190D01*
X68651476Y-113061571D01*
X69032428Y-113061571D01*
X69127666Y-113109190D01*
X69175285Y-113204428D01*
X69175285Y-113394904D01*
X69127666Y-113490142D01*
X69032428Y-113537761D01*
X68937190Y-113537761D01*
X68841952Y-113061571D01*
X68508619Y-114394904D02*
X69508619Y-114394904D01*
X68556238Y-114394904D02*
X68508619Y-114299666D01*
X68508619Y-114109190D01*
X68556238Y-114013952D01*
X68603857Y-113966333D01*
X68699095Y-113918714D01*
X68984809Y-113918714D01*
X69080047Y-113966333D01*
X69127666Y-114013952D01*
X69175285Y-114109190D01*
X69175285Y-114299666D01*
X69127666Y-114394904D01*
X68508619Y-115633000D02*
X69508619Y-115633000D01*
X68508619Y-116109190D02*
X69508619Y-116109190D01*
X68508619Y-116680619D01*
X69508619Y-116680619D01*
X67651285Y-106489904D02*
X67365571Y-105728000D01*
X67079857Y-106489904D01*
X67365571Y-106966095D02*
X67365571Y-107728000D01*
X67365571Y-108204190D02*
X67365571Y-108966095D01*
X67365571Y-109442285D02*
X67365571Y-110204190D01*
X67984619Y-111347047D02*
X67984619Y-111966095D01*
X67603666Y-111632761D01*
X67603666Y-111775619D01*
X67556047Y-111870857D01*
X67508428Y-111918476D01*
X67413190Y-111966095D01*
X67175095Y-111966095D01*
X67079857Y-111918476D01*
X67032238Y-111870857D01*
X66984619Y-111775619D01*
X66984619Y-111489904D01*
X67032238Y-111394666D01*
X67079857Y-111347047D01*
X67984619Y-112251809D02*
X66984619Y-112585142D01*
X67984619Y-112918476D01*
X67984619Y-113156571D02*
X67984619Y-113775619D01*
X67603666Y-113442285D01*
X67603666Y-113585142D01*
X67556047Y-113680380D01*
X67508428Y-113728000D01*
X67413190Y-113775619D01*
X67175095Y-113775619D01*
X67079857Y-113728000D01*
X67032238Y-113680380D01*
X66984619Y-113585142D01*
X66984619Y-113299428D01*
X67032238Y-113204190D01*
X67079857Y-113156571D01*
X66127285Y-105950095D02*
X65841571Y-105188190D01*
X65555857Y-105950095D01*
X65841571Y-106426285D02*
X65841571Y-107188190D01*
X65841571Y-107664380D02*
X65841571Y-108426285D01*
X65841571Y-108902476D02*
X65841571Y-109664380D01*
X66460619Y-111378666D02*
X66460619Y-110902476D01*
X65984428Y-110854857D01*
X66032047Y-110902476D01*
X66079666Y-110997714D01*
X66079666Y-111235809D01*
X66032047Y-111331047D01*
X65984428Y-111378666D01*
X65889190Y-111426285D01*
X65651095Y-111426285D01*
X65555857Y-111378666D01*
X65508238Y-111331047D01*
X65460619Y-111235809D01*
X65460619Y-110997714D01*
X65508238Y-110902476D01*
X65555857Y-110854857D01*
X66460619Y-111712000D02*
X65460619Y-112045333D01*
X66460619Y-112378666D01*
X125024285Y-65809761D02*
X125167142Y-65857380D01*
X125405238Y-65857380D01*
X125500476Y-65809761D01*
X125548095Y-65762142D01*
X125595714Y-65666904D01*
X125595714Y-65571666D01*
X125548095Y-65476428D01*
X125500476Y-65428809D01*
X125405238Y-65381190D01*
X125214761Y-65333571D01*
X125119523Y-65285952D01*
X125071904Y-65238333D01*
X125024285Y-65143095D01*
X125024285Y-65047857D01*
X125071904Y-64952619D01*
X125119523Y-64905000D01*
X125214761Y-64857380D01*
X125452857Y-64857380D01*
X125595714Y-64905000D01*
X125881428Y-64857380D02*
X126452857Y-64857380D01*
X126167142Y-65857380D02*
X126167142Y-64857380D01*
X126786190Y-65857380D02*
X126786190Y-64857380D01*
X127119523Y-65571666D01*
X127452857Y-64857380D01*
X127452857Y-65857380D01*
X127833809Y-64857380D02*
X128452857Y-64857380D01*
X128119523Y-65238333D01*
X128262380Y-65238333D01*
X128357619Y-65285952D01*
X128405238Y-65333571D01*
X128452857Y-65428809D01*
X128452857Y-65666904D01*
X128405238Y-65762142D01*
X128357619Y-65809761D01*
X128262380Y-65857380D01*
X127976666Y-65857380D01*
X127881428Y-65809761D01*
X127833809Y-65762142D01*
X128833809Y-64952619D02*
X128881428Y-64905000D01*
X128976666Y-64857380D01*
X129214761Y-64857380D01*
X129310000Y-64905000D01*
X129357619Y-64952619D01*
X129405238Y-65047857D01*
X129405238Y-65143095D01*
X129357619Y-65285952D01*
X128786190Y-65857380D01*
X129405238Y-65857380D01*
X130167142Y-65333571D02*
X129833809Y-65333571D01*
X129833809Y-65857380D02*
X129833809Y-64857380D01*
X130310000Y-64857380D01*
X131214761Y-65857380D02*
X130643333Y-65857380D01*
X130929047Y-65857380D02*
X130929047Y-64857380D01*
X130833809Y-65000238D01*
X130738571Y-65095476D01*
X130643333Y-65143095D01*
X131833809Y-64857380D02*
X131929047Y-64857380D01*
X132024285Y-64905000D01*
X132071904Y-64952619D01*
X132119523Y-65047857D01*
X132167142Y-65238333D01*
X132167142Y-65476428D01*
X132119523Y-65666904D01*
X132071904Y-65762142D01*
X132024285Y-65809761D01*
X131929047Y-65857380D01*
X131833809Y-65857380D01*
X131738571Y-65809761D01*
X131690952Y-65762142D01*
X131643333Y-65666904D01*
X131595714Y-65476428D01*
X131595714Y-65238333D01*
X131643333Y-65047857D01*
X131690952Y-64952619D01*
X131738571Y-64905000D01*
X131833809Y-64857380D01*
X132500476Y-64857380D02*
X133119523Y-64857380D01*
X132786190Y-65238333D01*
X132929047Y-65238333D01*
X133024285Y-65285952D01*
X133071904Y-65333571D01*
X133119523Y-65428809D01*
X133119523Y-65666904D01*
X133071904Y-65762142D01*
X133024285Y-65809761D01*
X132929047Y-65857380D01*
X132643333Y-65857380D01*
X132548095Y-65809761D01*
X132500476Y-65762142D01*
X133405238Y-64857380D02*
X133738571Y-65857380D01*
X134071904Y-64857380D01*
X134405238Y-65333571D02*
X134738571Y-65333571D01*
X134881428Y-65857380D02*
X134405238Y-65857380D01*
X134405238Y-64857380D01*
X134881428Y-64857380D01*
X135167142Y-64857380D02*
X135738571Y-64857380D01*
X135452857Y-65857380D02*
X135452857Y-64857380D01*
X136500476Y-64857380D02*
X136310000Y-64857380D01*
X136214761Y-64905000D01*
X136167142Y-64952619D01*
X136071904Y-65095476D01*
X136024285Y-65285952D01*
X136024285Y-65666904D01*
X136071904Y-65762142D01*
X136119523Y-65809761D01*
X136214761Y-65857380D01*
X136405238Y-65857380D01*
X136500476Y-65809761D01*
X136548095Y-65762142D01*
X136595714Y-65666904D01*
X136595714Y-65428809D01*
X136548095Y-65333571D01*
X136500476Y-65285952D01*
X136405238Y-65238333D01*
X136214761Y-65238333D01*
X136119523Y-65285952D01*
X136071904Y-65333571D01*
X136024285Y-65428809D01*
X137795000Y-64746142D02*
X137842619Y-64793761D01*
X137795000Y-64841380D01*
X137747380Y-64793761D01*
X137795000Y-64746142D01*
X137795000Y-64841380D01*
D11*
X124460000Y-78105000D02*
X124460000Y-64135000D01*
X138430000Y-78105000D02*
X124460000Y-78105000D01*
X138430000Y-64135000D02*
X138430000Y-78105000D01*
X124460000Y-64135000D02*
X138430000Y-64135000D01*
D10*
X126809809Y-128357761D02*
X126952666Y-128405380D01*
X127190761Y-128405380D01*
X127286000Y-128357761D01*
X127333619Y-128310142D01*
X127381238Y-128214904D01*
X127381238Y-128119666D01*
X127333619Y-128024428D01*
X127286000Y-127976809D01*
X127190761Y-127929190D01*
X127000285Y-127881571D01*
X126905047Y-127833952D01*
X126857428Y-127786333D01*
X126809809Y-127691095D01*
X126809809Y-127595857D01*
X126857428Y-127500619D01*
X126905047Y-127453000D01*
X127000285Y-127405380D01*
X127238380Y-127405380D01*
X127381238Y-127453000D01*
X127666952Y-127405380D02*
X128238380Y-127405380D01*
X127952666Y-128405380D02*
X127952666Y-127405380D01*
X128524095Y-128119666D02*
X129000285Y-128119666D01*
X128428857Y-128405380D02*
X128762190Y-127405380D01*
X129095523Y-128405380D01*
X129286000Y-127405380D02*
X129857428Y-127405380D01*
X129571714Y-128405380D02*
X129571714Y-127405380D01*
X130190761Y-127405380D02*
X130190761Y-128214904D01*
X130238380Y-128310142D01*
X130286000Y-128357761D01*
X130381238Y-128405380D01*
X130571714Y-128405380D01*
X130666952Y-128357761D01*
X130714571Y-128310142D01*
X130762190Y-128214904D01*
X130762190Y-127405380D01*
X131190761Y-128357761D02*
X131333619Y-128405380D01*
X131571714Y-128405380D01*
X131666952Y-128357761D01*
X131714571Y-128310142D01*
X131762190Y-128214904D01*
X131762190Y-128119666D01*
X131714571Y-128024428D01*
X131666952Y-127976809D01*
X131571714Y-127929190D01*
X131381238Y-127881571D01*
X131286000Y-127833952D01*
X131238380Y-127786333D01*
X131190761Y-127691095D01*
X131190761Y-127595857D01*
X131238380Y-127500619D01*
X131286000Y-127453000D01*
X131381238Y-127405380D01*
X131619333Y-127405380D01*
X131762190Y-127453000D01*
X127881238Y-130055380D02*
X127405047Y-130055380D01*
X127405047Y-129055380D01*
X128214571Y-129531571D02*
X128547904Y-129531571D01*
X128690761Y-130055380D02*
X128214571Y-130055380D01*
X128214571Y-129055380D01*
X128690761Y-129055380D01*
X129119333Y-130055380D02*
X129119333Y-129055380D01*
X129357428Y-129055380D01*
X129500285Y-129103000D01*
X129595523Y-129198238D01*
X129643142Y-129293476D01*
X129690761Y-129483952D01*
X129690761Y-129626809D01*
X129643142Y-129817285D01*
X129595523Y-129912523D01*
X129500285Y-130007761D01*
X129357428Y-130055380D01*
X129119333Y-130055380D01*
X130786000Y-129388714D02*
X131024095Y-130055380D01*
X131262190Y-129388714D01*
X38544857Y-55316380D02*
X38544857Y-54316380D01*
X38782952Y-54316380D01*
X38925809Y-54364000D01*
X39021047Y-54459238D01*
X39068666Y-54554476D01*
X39116285Y-54744952D01*
X39116285Y-54887809D01*
X39068666Y-55078285D01*
X39021047Y-55173523D01*
X38925809Y-55268761D01*
X38782952Y-55316380D01*
X38544857Y-55316380D01*
X39544857Y-55316380D02*
X39544857Y-54649714D01*
X39544857Y-54316380D02*
X39497238Y-54364000D01*
X39544857Y-54411619D01*
X39592476Y-54364000D01*
X39544857Y-54316380D01*
X39544857Y-54411619D01*
X39973428Y-55268761D02*
X40068666Y-55316380D01*
X40259142Y-55316380D01*
X40354380Y-55268761D01*
X40402000Y-55173523D01*
X40402000Y-55125904D01*
X40354380Y-55030666D01*
X40259142Y-54983047D01*
X40116285Y-54983047D01*
X40021047Y-54935428D01*
X39973428Y-54840190D01*
X39973428Y-54792571D01*
X40021047Y-54697333D01*
X40116285Y-54649714D01*
X40259142Y-54649714D01*
X40354380Y-54697333D01*
X40830571Y-54649714D02*
X40830571Y-55649714D01*
X40830571Y-54697333D02*
X40925809Y-54649714D01*
X41116285Y-54649714D01*
X41211523Y-54697333D01*
X41259142Y-54744952D01*
X41306761Y-54840190D01*
X41306761Y-55125904D01*
X41259142Y-55221142D01*
X41211523Y-55268761D01*
X41116285Y-55316380D01*
X40925809Y-55316380D01*
X40830571Y-55268761D01*
X41878190Y-55316380D02*
X41782952Y-55268761D01*
X41735333Y-55173523D01*
X41735333Y-54316380D01*
X42687714Y-55316380D02*
X42687714Y-54792571D01*
X42640095Y-54697333D01*
X42544857Y-54649714D01*
X42354380Y-54649714D01*
X42259142Y-54697333D01*
X42687714Y-55268761D02*
X42592476Y-55316380D01*
X42354380Y-55316380D01*
X42259142Y-55268761D01*
X42211523Y-55173523D01*
X42211523Y-55078285D01*
X42259142Y-54983047D01*
X42354380Y-54935428D01*
X42592476Y-54935428D01*
X42687714Y-54887809D01*
X43068666Y-54649714D02*
X43306761Y-55316380D01*
X43544857Y-54649714D02*
X43306761Y-55316380D01*
X43211523Y-55554476D01*
X43163904Y-55602095D01*
X43068666Y-55649714D01*
X43878190Y-55268761D02*
X43973428Y-55316380D01*
X44163904Y-55316380D01*
X44259142Y-55268761D01*
X44306761Y-55173523D01*
X44306761Y-55125904D01*
X44259142Y-55030666D01*
X44163904Y-54983047D01*
X44021047Y-54983047D01*
X43925809Y-54935428D01*
X43878190Y-54840190D01*
X43878190Y-54792571D01*
X43925809Y-54697333D01*
X44021047Y-54649714D01*
X44163904Y-54649714D01*
X44259142Y-54697333D01*
X39859300Y-128087380D02*
X39984300Y-127087380D01*
X40365252Y-127087380D01*
X40454538Y-127135000D01*
X40496205Y-127182619D01*
X40531919Y-127277857D01*
X40514062Y-127420714D01*
X40454538Y-127515952D01*
X40400967Y-127563571D01*
X40299776Y-127611190D01*
X39918824Y-127611190D01*
X41002157Y-128087380D02*
X40912872Y-128039761D01*
X40871205Y-127992142D01*
X40835491Y-127896904D01*
X40871205Y-127611190D01*
X40930729Y-127515952D01*
X40984300Y-127468333D01*
X41085491Y-127420714D01*
X41228348Y-127420714D01*
X41317633Y-127468333D01*
X41359300Y-127515952D01*
X41395014Y-127611190D01*
X41359300Y-127896904D01*
X41299776Y-127992142D01*
X41246205Y-128039761D01*
X41145014Y-128087380D01*
X41002157Y-128087380D01*
X41906919Y-128087380D02*
X41817633Y-128039761D01*
X41781919Y-127944523D01*
X41889062Y-127087380D01*
X42275967Y-127420714D02*
X42430729Y-128087380D01*
X42752157Y-127420714D02*
X42430729Y-128087380D01*
X42305729Y-128325476D01*
X42252157Y-128373095D01*
X42150967Y-128420714D01*
X43811681Y-128087380D02*
X43936681Y-127087380D01*
X44383110Y-128087380D02*
X44025967Y-127515952D01*
X44508110Y-127087380D02*
X43865252Y-127658809D01*
X45198586Y-128039761D02*
X45097395Y-128087380D01*
X44906919Y-128087380D01*
X44817633Y-128039761D01*
X44781919Y-127944523D01*
X44829538Y-127563571D01*
X44889062Y-127468333D01*
X44990252Y-127420714D01*
X45180729Y-127420714D01*
X45270014Y-127468333D01*
X45305729Y-127563571D01*
X45293824Y-127658809D01*
X44805729Y-127754047D01*
X45656919Y-127420714D02*
X45811681Y-128087380D01*
X46133110Y-127420714D02*
X45811681Y-128087380D01*
X45686681Y-128325476D01*
X45633110Y-128373095D01*
X45531919Y-128420714D01*
X46430729Y-128087380D02*
X46555729Y-127087380D01*
X46508110Y-127468333D02*
X46609300Y-127420714D01*
X46799776Y-127420714D01*
X46889062Y-127468333D01*
X46930729Y-127515952D01*
X46966443Y-127611190D01*
X46930729Y-127896904D01*
X46871205Y-127992142D01*
X46817633Y-128039761D01*
X46716443Y-128087380D01*
X46525967Y-128087380D01*
X46436681Y-128039761D01*
X47478348Y-128087380D02*
X47389062Y-128039761D01*
X47347395Y-127992142D01*
X47311681Y-127896904D01*
X47347395Y-127611190D01*
X47406919Y-127515952D01*
X47460491Y-127468333D01*
X47561681Y-127420714D01*
X47704538Y-127420714D01*
X47793824Y-127468333D01*
X47835491Y-127515952D01*
X47871205Y-127611190D01*
X47835491Y-127896904D01*
X47775967Y-127992142D01*
X47722395Y-128039761D01*
X47621205Y-128087380D01*
X47478348Y-128087380D01*
X48668824Y-128087380D02*
X48734300Y-127563571D01*
X48698586Y-127468333D01*
X48609300Y-127420714D01*
X48418824Y-127420714D01*
X48317633Y-127468333D01*
X48674776Y-128039761D02*
X48573586Y-128087380D01*
X48335491Y-128087380D01*
X48246205Y-128039761D01*
X48210491Y-127944523D01*
X48222395Y-127849285D01*
X48281919Y-127754047D01*
X48383110Y-127706428D01*
X48621205Y-127706428D01*
X48722395Y-127658809D01*
X49145014Y-128087380D02*
X49228348Y-127420714D01*
X49204538Y-127611190D02*
X49264062Y-127515952D01*
X49317633Y-127468333D01*
X49418824Y-127420714D01*
X49514062Y-127420714D01*
X50192633Y-128087380D02*
X50317633Y-127087380D01*
X50198586Y-128039761D02*
X50097395Y-128087380D01*
X49906919Y-128087380D01*
X49817633Y-128039761D01*
X49775967Y-127992142D01*
X49740252Y-127896904D01*
X49775967Y-127611190D01*
X49835491Y-127515952D01*
X49889062Y-127468333D01*
X49990252Y-127420714D01*
X50180729Y-127420714D01*
X50270014Y-127468333D01*
X51430729Y-128087380D02*
X51555729Y-127087380D01*
X51936681Y-127087380D01*
X52025967Y-127135000D01*
X52067633Y-127182619D01*
X52103348Y-127277857D01*
X52085491Y-127420714D01*
X52025967Y-127515952D01*
X51972395Y-127563571D01*
X51871205Y-127611190D01*
X51490252Y-127611190D01*
X52430729Y-128087380D02*
X52514062Y-127420714D01*
X52490252Y-127611190D02*
X52549776Y-127515952D01*
X52603348Y-127468333D01*
X52704538Y-127420714D01*
X52799776Y-127420714D01*
X53192633Y-128087380D02*
X53103348Y-128039761D01*
X53061681Y-127992142D01*
X53025967Y-127896904D01*
X53061681Y-127611190D01*
X53121205Y-127515952D01*
X53174776Y-127468333D01*
X53275967Y-127420714D01*
X53418824Y-127420714D01*
X53508110Y-127468333D01*
X53549776Y-127515952D01*
X53585491Y-127611190D01*
X53549776Y-127896904D01*
X53490252Y-127992142D01*
X53436681Y-128039761D01*
X53335491Y-128087380D01*
X53192633Y-128087380D01*
X53895014Y-127420714D02*
X54275967Y-127420714D01*
X54079538Y-127087380D02*
X53972395Y-127944523D01*
X54008110Y-128039761D01*
X54097395Y-128087380D01*
X54192633Y-128087380D01*
X54668824Y-128087380D02*
X54579538Y-128039761D01*
X54537872Y-127992142D01*
X54502157Y-127896904D01*
X54537872Y-127611190D01*
X54597395Y-127515952D01*
X54650967Y-127468333D01*
X54752157Y-127420714D01*
X54895014Y-127420714D01*
X54984300Y-127468333D01*
X55025967Y-127515952D01*
X55061681Y-127611190D01*
X55025967Y-127896904D01*
X54966443Y-127992142D01*
X54912872Y-128039761D01*
X54811681Y-128087380D01*
X54668824Y-128087380D01*
X55371205Y-127420714D02*
X55752157Y-127420714D01*
X55555729Y-127087380D02*
X55448586Y-127944523D01*
X55484300Y-128039761D01*
X55573586Y-128087380D01*
X55668824Y-128087380D01*
X55990252Y-127420714D02*
X56145014Y-128087380D01*
X56466443Y-127420714D02*
X56145014Y-128087380D01*
X56020014Y-128325476D01*
X55966443Y-128373095D01*
X55865252Y-128420714D01*
X56847395Y-127420714D02*
X56722395Y-128420714D01*
X56841443Y-127468333D02*
X56942633Y-127420714D01*
X57133110Y-127420714D01*
X57222395Y-127468333D01*
X57264062Y-127515952D01*
X57299776Y-127611190D01*
X57264062Y-127896904D01*
X57204538Y-127992142D01*
X57150967Y-128039761D01*
X57049776Y-128087380D01*
X56859300Y-128087380D01*
X56770014Y-128039761D01*
X58055729Y-128039761D02*
X57954538Y-128087380D01*
X57764062Y-128087380D01*
X57674776Y-128039761D01*
X57639062Y-127944523D01*
X57686681Y-127563571D01*
X57746205Y-127468333D01*
X57847395Y-127420714D01*
X58037872Y-127420714D01*
X58127157Y-127468333D01*
X58162872Y-127563571D01*
X58150967Y-127658809D01*
X57662872Y-127754047D01*
X59287872Y-128087380D02*
X59412872Y-127087380D01*
X59650967Y-127087380D01*
X59787872Y-127135000D01*
X59871205Y-127230238D01*
X59906919Y-127325476D01*
X59930729Y-127515952D01*
X59912872Y-127658809D01*
X59841443Y-127849285D01*
X59781919Y-127944523D01*
X59674776Y-128039761D01*
X59525967Y-128087380D01*
X59287872Y-128087380D01*
X60674776Y-128039761D02*
X60573586Y-128087380D01*
X60383110Y-128087380D01*
X60293824Y-128039761D01*
X60258110Y-127944523D01*
X60305729Y-127563571D01*
X60365252Y-127468333D01*
X60466443Y-127420714D01*
X60656919Y-127420714D01*
X60746205Y-127468333D01*
X60781919Y-127563571D01*
X60770014Y-127658809D01*
X60281919Y-127754047D01*
X61133110Y-127420714D02*
X61287872Y-128087380D01*
X61609300Y-127420714D01*
X63067633Y-127563571D02*
X63204538Y-127611190D01*
X63246205Y-127658809D01*
X63281919Y-127754047D01*
X63264062Y-127896904D01*
X63204538Y-127992142D01*
X63150967Y-128039761D01*
X63049776Y-128087380D01*
X62668824Y-128087380D01*
X62793824Y-127087380D01*
X63127157Y-127087380D01*
X63216443Y-127135000D01*
X63258110Y-127182619D01*
X63293824Y-127277857D01*
X63281919Y-127373095D01*
X63222395Y-127468333D01*
X63168824Y-127515952D01*
X63067633Y-127563571D01*
X62734300Y-127563571D01*
X63811681Y-128087380D02*
X63722395Y-128039761D01*
X63680729Y-127992142D01*
X63645014Y-127896904D01*
X63680729Y-127611190D01*
X63740252Y-127515952D01*
X63793824Y-127468333D01*
X63895014Y-127420714D01*
X64037872Y-127420714D01*
X64127157Y-127468333D01*
X64168824Y-127515952D01*
X64204538Y-127611190D01*
X64168824Y-127896904D01*
X64109300Y-127992142D01*
X64055729Y-128039761D01*
X63954538Y-128087380D01*
X63811681Y-128087380D01*
X65002157Y-128087380D02*
X65067633Y-127563571D01*
X65031919Y-127468333D01*
X64942633Y-127420714D01*
X64752157Y-127420714D01*
X64650967Y-127468333D01*
X65008110Y-128039761D02*
X64906919Y-128087380D01*
X64668824Y-128087380D01*
X64579538Y-128039761D01*
X64543824Y-127944523D01*
X64555729Y-127849285D01*
X64615252Y-127754047D01*
X64716443Y-127706428D01*
X64954538Y-127706428D01*
X65055729Y-127658809D01*
X65478348Y-128087380D02*
X65561681Y-127420714D01*
X65537872Y-127611190D02*
X65597395Y-127515952D01*
X65650967Y-127468333D01*
X65752157Y-127420714D01*
X65847395Y-127420714D01*
X66525967Y-128087380D02*
X66650967Y-127087380D01*
X66531919Y-128039761D02*
X66430729Y-128087380D01*
X66240252Y-128087380D01*
X66150967Y-128039761D01*
X66109300Y-127992142D01*
X66073586Y-127896904D01*
X66109300Y-127611190D01*
X66168824Y-127515952D01*
X66222395Y-127468333D01*
X66323586Y-127420714D01*
X66514062Y-127420714D01*
X66603348Y-127468333D01*
X67752157Y-127420714D02*
X67906919Y-128087380D01*
X68228348Y-127420714D01*
X69049776Y-128087380D02*
X68478348Y-128087380D01*
X68764062Y-128087380D02*
X68889062Y-127087380D01*
X68775967Y-127230238D01*
X68668824Y-127325476D01*
X68567633Y-127373095D01*
X69490252Y-127992142D02*
X69531919Y-128039761D01*
X69478348Y-128087380D01*
X69436681Y-128039761D01*
X69490252Y-127992142D01*
X69478348Y-128087380D01*
X70270014Y-127087380D02*
X70365252Y-127087380D01*
X70454538Y-127135000D01*
X70496205Y-127182619D01*
X70531919Y-127277857D01*
X70555729Y-127468333D01*
X70525967Y-127706428D01*
X70454538Y-127896904D01*
X70395014Y-127992142D01*
X70341443Y-128039761D01*
X70240252Y-128087380D01*
X70145014Y-128087380D01*
X70055729Y-128039761D01*
X70014062Y-127992142D01*
X69978348Y-127896904D01*
X69954538Y-127706428D01*
X69984300Y-127468333D01*
X70055729Y-127277857D01*
X70115252Y-127182619D01*
X70168824Y-127135000D01*
X70270014Y-127087380D01*
X29234047Y-112625714D02*
X28472142Y-112911428D01*
X29234047Y-113197142D01*
X30281666Y-113292380D02*
X29948333Y-112816190D01*
X29710238Y-113292380D02*
X29710238Y-112292380D01*
X30091190Y-112292380D01*
X30186428Y-112340000D01*
X30234047Y-112387619D01*
X30281666Y-112482857D01*
X30281666Y-112625714D01*
X30234047Y-112720952D01*
X30186428Y-112768571D01*
X30091190Y-112816190D01*
X29710238Y-112816190D01*
X30710238Y-112768571D02*
X31043571Y-112768571D01*
X31186428Y-113292380D02*
X30710238Y-113292380D01*
X30710238Y-112292380D01*
X31186428Y-112292380D01*
X31567380Y-113244761D02*
X31710238Y-113292380D01*
X31948333Y-113292380D01*
X32043571Y-113244761D01*
X32091190Y-113197142D01*
X32138809Y-113101904D01*
X32138809Y-113006666D01*
X32091190Y-112911428D01*
X32043571Y-112863809D01*
X31948333Y-112816190D01*
X31757857Y-112768571D01*
X31662619Y-112720952D01*
X31615000Y-112673333D01*
X31567380Y-112578095D01*
X31567380Y-112482857D01*
X31615000Y-112387619D01*
X31662619Y-112340000D01*
X31757857Y-112292380D01*
X31995952Y-112292380D01*
X32138809Y-112340000D01*
X32567380Y-112768571D02*
X32900714Y-112768571D01*
X33043571Y-113292380D02*
X32567380Y-113292380D01*
X32567380Y-112292380D01*
X33043571Y-112292380D01*
X33329285Y-112292380D02*
X33900714Y-112292380D01*
X33615000Y-113292380D02*
X33615000Y-112292380D01*
X31234047Y-114942380D02*
X30757857Y-114942380D01*
X30757857Y-113942380D01*
X31567380Y-114418571D02*
X31900714Y-114418571D01*
X32043571Y-114942380D02*
X31567380Y-114942380D01*
X31567380Y-113942380D01*
X32043571Y-113942380D01*
X32472142Y-114942380D02*
X32472142Y-113942380D01*
X32710238Y-113942380D01*
X32853095Y-113990000D01*
X32948333Y-114085238D01*
X32995952Y-114180476D01*
X33043571Y-114370952D01*
X33043571Y-114513809D01*
X32995952Y-114704285D01*
X32948333Y-114799523D01*
X32853095Y-114894761D01*
X32710238Y-114942380D01*
X32472142Y-114942380D01*
X108982142Y-45807380D02*
X108982142Y-46616904D01*
X109029761Y-46712142D01*
X109077380Y-46759761D01*
X109172619Y-46807380D01*
X109363095Y-46807380D01*
X109458333Y-46759761D01*
X109505952Y-46712142D01*
X109553571Y-46616904D01*
X109553571Y-45807380D01*
X109982142Y-46759761D02*
X110125000Y-46807380D01*
X110363095Y-46807380D01*
X110458333Y-46759761D01*
X110505952Y-46712142D01*
X110553571Y-46616904D01*
X110553571Y-46521666D01*
X110505952Y-46426428D01*
X110458333Y-46378809D01*
X110363095Y-46331190D01*
X110172619Y-46283571D01*
X110077380Y-46235952D01*
X110029761Y-46188333D01*
X109982142Y-46093095D01*
X109982142Y-45997857D01*
X110029761Y-45902619D01*
X110077380Y-45855000D01*
X110172619Y-45807380D01*
X110410714Y-45807380D01*
X110553571Y-45855000D01*
X111315476Y-46283571D02*
X111458333Y-46331190D01*
X111505952Y-46378809D01*
X111553571Y-46474047D01*
X111553571Y-46616904D01*
X111505952Y-46712142D01*
X111458333Y-46759761D01*
X111363095Y-46807380D01*
X110982142Y-46807380D01*
X110982142Y-45807380D01*
X111315476Y-45807380D01*
X111410714Y-45855000D01*
X111458333Y-45902619D01*
X111505952Y-45997857D01*
X111505952Y-46093095D01*
X111458333Y-46188333D01*
X111410714Y-46235952D01*
X111315476Y-46283571D01*
X110982142Y-46283571D01*
X113315476Y-46712142D02*
X113267857Y-46759761D01*
X113125000Y-46807380D01*
X113029761Y-46807380D01*
X112886904Y-46759761D01*
X112791666Y-46664523D01*
X112744047Y-46569285D01*
X112696428Y-46378809D01*
X112696428Y-46235952D01*
X112744047Y-46045476D01*
X112791666Y-45950238D01*
X112886904Y-45855000D01*
X113029761Y-45807380D01*
X113125000Y-45807380D01*
X113267857Y-45855000D01*
X113315476Y-45902619D01*
X90185952Y-115085714D02*
X89947857Y-115085714D01*
X89947857Y-113657142D01*
X90185952Y-113657142D01*
X90519285Y-114704761D02*
X90662142Y-114752380D01*
X90900238Y-114752380D01*
X90995476Y-114704761D01*
X91043095Y-114657142D01*
X91090714Y-114561904D01*
X91090714Y-114466666D01*
X91043095Y-114371428D01*
X90995476Y-114323809D01*
X90900238Y-114276190D01*
X90709761Y-114228571D01*
X90614523Y-114180952D01*
X90566904Y-114133333D01*
X90519285Y-114038095D01*
X90519285Y-113942857D01*
X90566904Y-113847619D01*
X90614523Y-113800000D01*
X90709761Y-113752380D01*
X90947857Y-113752380D01*
X91090714Y-113800000D01*
X91424047Y-115085714D02*
X91662142Y-115085714D01*
X91662142Y-113657142D01*
X91424047Y-113657142D01*
X71183571Y-115085714D02*
X70945476Y-115085714D01*
X70945476Y-113657142D01*
X71183571Y-113657142D01*
X71516904Y-114466666D02*
X71993095Y-114466666D01*
X71421666Y-114752380D02*
X71755000Y-113752380D01*
X72088333Y-114752380D01*
X72326428Y-115085714D02*
X72564523Y-115085714D01*
X72564523Y-113657142D01*
X72326428Y-113657142D01*
X38521190Y-115085714D02*
X38283095Y-115085714D01*
X38283095Y-113657142D01*
X38521190Y-113657142D01*
X39473571Y-114657142D02*
X39425952Y-114704761D01*
X39283095Y-114752380D01*
X39187857Y-114752380D01*
X39045000Y-114704761D01*
X38949761Y-114609523D01*
X38902142Y-114514285D01*
X38854523Y-114323809D01*
X38854523Y-114180952D01*
X38902142Y-113990476D01*
X38949761Y-113895238D01*
X39045000Y-113800000D01*
X39187857Y-113752380D01*
X39283095Y-113752380D01*
X39425952Y-113800000D01*
X39473571Y-113847619D01*
X40330714Y-114752380D02*
X40330714Y-114228571D01*
X40283095Y-114133333D01*
X40187857Y-114085714D01*
X39997380Y-114085714D01*
X39902142Y-114133333D01*
X40330714Y-114704761D02*
X40235476Y-114752380D01*
X39997380Y-114752380D01*
X39902142Y-114704761D01*
X39854523Y-114609523D01*
X39854523Y-114514285D01*
X39902142Y-114419047D01*
X39997380Y-114371428D01*
X40235476Y-114371428D01*
X40330714Y-114323809D01*
X40806904Y-114085714D02*
X40806904Y-115085714D01*
X40806904Y-114133333D02*
X40902142Y-114085714D01*
X41092619Y-114085714D01*
X41187857Y-114133333D01*
X41235476Y-114180952D01*
X41283095Y-114276190D01*
X41283095Y-114561904D01*
X41235476Y-114657142D01*
X41187857Y-114704761D01*
X41092619Y-114752380D01*
X40902142Y-114752380D01*
X40806904Y-114704761D01*
X41664047Y-114704761D02*
X41759285Y-114752380D01*
X41949761Y-114752380D01*
X42045000Y-114704761D01*
X42092619Y-114609523D01*
X42092619Y-114561904D01*
X42045000Y-114466666D01*
X41949761Y-114419047D01*
X41806904Y-114419047D01*
X41711666Y-114371428D01*
X41664047Y-114276190D01*
X41664047Y-114228571D01*
X41711666Y-114133333D01*
X41806904Y-114085714D01*
X41949761Y-114085714D01*
X42045000Y-114133333D01*
X43759285Y-114752380D02*
X43283095Y-114752380D01*
X43283095Y-113752380D01*
X44235476Y-114752380D02*
X44140238Y-114704761D01*
X44092619Y-114657142D01*
X44045000Y-114561904D01*
X44045000Y-114276190D01*
X44092619Y-114180952D01*
X44140238Y-114133333D01*
X44235476Y-114085714D01*
X44378333Y-114085714D01*
X44473571Y-114133333D01*
X44521190Y-114180952D01*
X44568809Y-114276190D01*
X44568809Y-114561904D01*
X44521190Y-114657142D01*
X44473571Y-114704761D01*
X44378333Y-114752380D01*
X44235476Y-114752380D01*
X45425952Y-114704761D02*
X45330714Y-114752380D01*
X45140238Y-114752380D01*
X45045000Y-114704761D01*
X44997380Y-114657142D01*
X44949761Y-114561904D01*
X44949761Y-114276190D01*
X44997380Y-114180952D01*
X45045000Y-114133333D01*
X45140238Y-114085714D01*
X45330714Y-114085714D01*
X45425952Y-114133333D01*
X45854523Y-114752380D02*
X45854523Y-113752380D01*
X45949761Y-114371428D02*
X46235476Y-114752380D01*
X46235476Y-114085714D02*
X45854523Y-114466666D01*
X46568809Y-115085714D02*
X46806904Y-115085714D01*
X46806904Y-113657142D01*
X46568809Y-113657142D01*
X85645714Y-96035714D02*
X85407619Y-96035714D01*
X85407619Y-94607142D01*
X85645714Y-94607142D01*
X85931428Y-94702380D02*
X86169523Y-95702380D01*
X86360000Y-94988095D01*
X86550476Y-95702380D01*
X86788571Y-94702380D01*
X87074285Y-96035714D02*
X87312380Y-96035714D01*
X87312380Y-94607142D01*
X87074285Y-94607142D01*
X66643333Y-96035714D02*
X66405238Y-96035714D01*
X66405238Y-94607142D01*
X66643333Y-94607142D01*
X67690952Y-95797619D02*
X67595714Y-95750000D01*
X67500476Y-95654761D01*
X67357619Y-95511904D01*
X67262380Y-95464285D01*
X67167142Y-95464285D01*
X67214761Y-95702380D02*
X67119523Y-95654761D01*
X67024285Y-95559523D01*
X66976666Y-95369047D01*
X66976666Y-95035714D01*
X67024285Y-94845238D01*
X67119523Y-94750000D01*
X67214761Y-94702380D01*
X67405238Y-94702380D01*
X67500476Y-94750000D01*
X67595714Y-94845238D01*
X67643333Y-95035714D01*
X67643333Y-95369047D01*
X67595714Y-95559523D01*
X67500476Y-95654761D01*
X67405238Y-95702380D01*
X67214761Y-95702380D01*
X67976666Y-96035714D02*
X68214761Y-96035714D01*
X68214761Y-94607142D01*
X67976666Y-94607142D01*
X39846428Y-96035714D02*
X39608333Y-96035714D01*
X39608333Y-94607142D01*
X39846428Y-94607142D01*
X40084523Y-94702380D02*
X40655952Y-94702380D01*
X40370238Y-95702380D02*
X40370238Y-94702380D01*
X41417857Y-95702380D02*
X41417857Y-95178571D01*
X41370238Y-95083333D01*
X41275000Y-95035714D01*
X41084523Y-95035714D01*
X40989285Y-95083333D01*
X41417857Y-95654761D02*
X41322619Y-95702380D01*
X41084523Y-95702380D01*
X40989285Y-95654761D01*
X40941666Y-95559523D01*
X40941666Y-95464285D01*
X40989285Y-95369047D01*
X41084523Y-95321428D01*
X41322619Y-95321428D01*
X41417857Y-95273809D01*
X41894047Y-95702380D02*
X41894047Y-94702380D01*
X41894047Y-95083333D02*
X41989285Y-95035714D01*
X42179761Y-95035714D01*
X42275000Y-95083333D01*
X42322619Y-95130952D01*
X42370238Y-95226190D01*
X42370238Y-95511904D01*
X42322619Y-95607142D01*
X42275000Y-95654761D01*
X42179761Y-95702380D01*
X41989285Y-95702380D01*
X41894047Y-95654761D01*
X42703571Y-96035714D02*
X42941666Y-96035714D01*
X42941666Y-94607142D01*
X42703571Y-94607142D01*
X76215952Y-76985714D02*
X75977857Y-76985714D01*
X75977857Y-75557142D01*
X76215952Y-75557142D01*
X76549285Y-75747619D02*
X76596904Y-75700000D01*
X76692142Y-75652380D01*
X76930238Y-75652380D01*
X77025476Y-75700000D01*
X77073095Y-75747619D01*
X77120714Y-75842857D01*
X77120714Y-75938095D01*
X77073095Y-76080952D01*
X76501666Y-76652380D01*
X77120714Y-76652380D01*
X77454047Y-76985714D02*
X77692142Y-76985714D01*
X77692142Y-75557142D01*
X77454047Y-75557142D01*
X57165952Y-76985714D02*
X56927857Y-76985714D01*
X56927857Y-75557142D01*
X57165952Y-75557142D01*
X58070714Y-76652380D02*
X57499285Y-76652380D01*
X57785000Y-76652380D02*
X57785000Y-75652380D01*
X57689761Y-75795238D01*
X57594523Y-75890476D01*
X57499285Y-75938095D01*
X58404047Y-76985714D02*
X58642142Y-76985714D01*
X58642142Y-75557142D01*
X58404047Y-75557142D01*
X38401666Y-76985714D02*
X38163571Y-76985714D01*
X38163571Y-75557142D01*
X38401666Y-75557142D01*
X38639761Y-75604761D02*
X38782619Y-75747619D01*
X39068333Y-76985714D02*
X39306428Y-76985714D01*
X39306428Y-75557142D01*
X39068333Y-75557142D01*
X101917857Y-81732380D02*
X101917857Y-80732380D01*
X102155952Y-80732380D01*
X102298809Y-80780000D01*
X102394047Y-80875238D01*
X102441666Y-80970476D01*
X102489285Y-81160952D01*
X102489285Y-81303809D01*
X102441666Y-81494285D01*
X102394047Y-81589523D01*
X102298809Y-81684761D01*
X102155952Y-81732380D01*
X101917857Y-81732380D01*
X102917857Y-81732380D02*
X102917857Y-81065714D01*
X102917857Y-80732380D02*
X102870238Y-80780000D01*
X102917857Y-80827619D01*
X102965476Y-80780000D01*
X102917857Y-80732380D01*
X102917857Y-80827619D01*
X103346428Y-81684761D02*
X103441666Y-81732380D01*
X103632142Y-81732380D01*
X103727380Y-81684761D01*
X103775000Y-81589523D01*
X103775000Y-81541904D01*
X103727380Y-81446666D01*
X103632142Y-81399047D01*
X103489285Y-81399047D01*
X103394047Y-81351428D01*
X103346428Y-81256190D01*
X103346428Y-81208571D01*
X103394047Y-81113333D01*
X103489285Y-81065714D01*
X103632142Y-81065714D01*
X103727380Y-81113333D01*
X104203571Y-81065714D02*
X104203571Y-82065714D01*
X104203571Y-81113333D02*
X104298809Y-81065714D01*
X104489285Y-81065714D01*
X104584523Y-81113333D01*
X104632142Y-81160952D01*
X104679761Y-81256190D01*
X104679761Y-81541904D01*
X104632142Y-81637142D01*
X104584523Y-81684761D01*
X104489285Y-81732380D01*
X104298809Y-81732380D01*
X104203571Y-81684761D01*
X105251190Y-81732380D02*
X105155952Y-81684761D01*
X105108333Y-81589523D01*
X105108333Y-80732380D01*
X106060714Y-81732380D02*
X106060714Y-81208571D01*
X106013095Y-81113333D01*
X105917857Y-81065714D01*
X105727380Y-81065714D01*
X105632142Y-81113333D01*
X106060714Y-81684761D02*
X105965476Y-81732380D01*
X105727380Y-81732380D01*
X105632142Y-81684761D01*
X105584523Y-81589523D01*
X105584523Y-81494285D01*
X105632142Y-81399047D01*
X105727380Y-81351428D01*
X105965476Y-81351428D01*
X106060714Y-81303809D01*
X106441666Y-81065714D02*
X106679761Y-81732380D01*
X106917857Y-81065714D02*
X106679761Y-81732380D01*
X106584523Y-81970476D01*
X106536904Y-82018095D01*
X106441666Y-82065714D01*
X107251190Y-81684761D02*
X107346428Y-81732380D01*
X107536904Y-81732380D01*
X107632142Y-81684761D01*
X107679761Y-81589523D01*
X107679761Y-81541904D01*
X107632142Y-81446666D01*
X107536904Y-81399047D01*
X107394047Y-81399047D01*
X107298809Y-81351428D01*
X107251190Y-81256190D01*
X107251190Y-81208571D01*
X107298809Y-81113333D01*
X107394047Y-81065714D01*
X107536904Y-81065714D01*
X107632142Y-81113333D01*
D11*
%TO.C,JP2*%
X141240000Y-93602000D02*
X141240000Y-90802000D01*
X141240000Y-90802000D02*
X143240000Y-90802000D01*
X143240000Y-90802000D02*
X143240000Y-93602000D01*
X143240000Y-93602000D02*
X141240000Y-93602000D01*
%TO.C,JP1*%
X141240000Y-97412000D02*
X141240000Y-94612000D01*
X141240000Y-94612000D02*
X143240000Y-94612000D01*
X143240000Y-94612000D02*
X143240000Y-97412000D01*
X143240000Y-97412000D02*
X141240000Y-97412000D01*
%TO.C,LED_7*%
X56160000Y-107259200D02*
X56920000Y-107259200D01*
X56960000Y-103779200D02*
X56960000Y-104019200D01*
X53480000Y-103779200D02*
X53480000Y-104019200D01*
X53480000Y-107259200D02*
X53480000Y-107019200D01*
X53480000Y-103779200D02*
X56960000Y-103779200D01*
X56160000Y-107259200D02*
X53480000Y-107259200D01*
%TO.C,LED_9*%
X100920000Y-107259200D02*
X101680000Y-107259200D01*
X101720000Y-103779200D02*
X101720000Y-104019200D01*
X98240000Y-103779200D02*
X98240000Y-104019200D01*
X98240000Y-107259200D02*
X98240000Y-107019200D01*
X98240000Y-103779200D02*
X101720000Y-103779200D01*
X100920000Y-107259200D02*
X98240000Y-107259200D01*
%TO.C,LED_8*%
X81920000Y-107259200D02*
X82680000Y-107259200D01*
X82720000Y-103779200D02*
X82720000Y-104019200D01*
X79240000Y-103779200D02*
X79240000Y-104019200D01*
X79240000Y-107259200D02*
X79240000Y-107019200D01*
X79240000Y-103779200D02*
X82720000Y-103779200D01*
X81920000Y-107259200D02*
X79240000Y-107259200D01*
%TO.C,SW3*%
X33250000Y-106680000D02*
G75*
G03X33250000Y-106680000I-1500000J0D01*
G01*
X29210000Y-109220000D02*
X34290000Y-109220000D01*
X29210000Y-104140000D02*
X29210000Y-109220000D01*
X34290000Y-104140000D02*
X29210000Y-104140000D01*
X34290000Y-109220000D02*
X34290000Y-104140000D01*
%TO.C,SW2*%
X142470000Y-106680000D02*
G75*
G03X142470000Y-106680000I-1500000J0D01*
G01*
X143510000Y-104140000D02*
X138430000Y-104140000D01*
X143510000Y-109220000D02*
X143510000Y-104140000D01*
X138430000Y-109220000D02*
X143510000Y-109220000D01*
X138430000Y-104140000D02*
X138430000Y-109220000D01*
%TO.C,SW1*%
X134850000Y-106680000D02*
G75*
G03X134850000Y-106680000I-1500000J0D01*
G01*
X135890000Y-104140000D02*
X130810000Y-104140000D01*
X135890000Y-109220000D02*
X135890000Y-104140000D01*
X130810000Y-109220000D02*
X135890000Y-109220000D01*
X130810000Y-104140000D02*
X130810000Y-109220000D01*
%TO.C,J15*%
X129480000Y-118043000D02*
X129480000Y-116713000D01*
X130810000Y-118043000D02*
X129480000Y-118043000D01*
X129480000Y-115443000D02*
X129480000Y-112843000D01*
X132080000Y-115443000D02*
X129480000Y-115443000D01*
X132080000Y-118043000D02*
X132080000Y-115443000D01*
X129480000Y-112843000D02*
X142300000Y-112843000D01*
X132080000Y-118043000D02*
X142300000Y-118043000D01*
X142300000Y-118043000D02*
X142300000Y-112843000D01*
%TO.C,J14*%
X129480000Y-122996000D02*
X129480000Y-121666000D01*
X130810000Y-122996000D02*
X129480000Y-122996000D01*
X132080000Y-122996000D02*
X132080000Y-120336000D01*
X132080000Y-120336000D02*
X134680000Y-120336000D01*
X132080000Y-122996000D02*
X134680000Y-122996000D01*
X134680000Y-122996000D02*
X134680000Y-120336000D01*
%TO.C,J13*%
X120590000Y-115256000D02*
X121920000Y-115256000D01*
X120590000Y-116586000D02*
X120590000Y-115256000D01*
X123190000Y-115256000D02*
X125790000Y-115256000D01*
X123190000Y-117856000D02*
X123190000Y-115256000D01*
X120590000Y-117856000D02*
X123190000Y-117856000D01*
X125790000Y-115256000D02*
X125790000Y-125536000D01*
X120590000Y-117856000D02*
X120590000Y-125536000D01*
X120590000Y-125536000D02*
X125790000Y-125536000D01*
%TO.C,J12*%
X137227000Y-83633000D02*
X138557000Y-83633000D01*
X137227000Y-84963000D02*
X137227000Y-83633000D01*
X137227000Y-86233000D02*
X139887000Y-86233000D01*
X139887000Y-86233000D02*
X139887000Y-93913000D01*
X137227000Y-86233000D02*
X137227000Y-93913000D01*
X137227000Y-93913000D02*
X139887000Y-93913000D01*
%TO.C,J11*%
X118685000Y-92135000D02*
X118685000Y-90805000D01*
X120015000Y-92135000D02*
X118685000Y-92135000D01*
X121285000Y-92135000D02*
X121285000Y-89475000D01*
X121285000Y-89475000D02*
X128965000Y-89475000D01*
X121285000Y-92135000D02*
X128965000Y-92135000D01*
X128965000Y-92135000D02*
X128965000Y-89475000D01*
%TO.C,J10*%
X114367000Y-115256000D02*
X115697000Y-115256000D01*
X114367000Y-116586000D02*
X114367000Y-115256000D01*
X116967000Y-115256000D02*
X119567000Y-115256000D01*
X116967000Y-117856000D02*
X116967000Y-115256000D01*
X114367000Y-117856000D02*
X116967000Y-117856000D01*
X119567000Y-115256000D02*
X119567000Y-125536000D01*
X114367000Y-117856000D02*
X114367000Y-125536000D01*
X114367000Y-125536000D02*
X119567000Y-125536000D01*
%TO.C,J8*%
X102175000Y-68520000D02*
X103505000Y-68520000D01*
X102175000Y-69850000D02*
X102175000Y-68520000D01*
X104775000Y-68520000D02*
X107375000Y-68520000D01*
X104775000Y-71120000D02*
X104775000Y-68520000D01*
X102175000Y-71120000D02*
X104775000Y-71120000D01*
X107375000Y-68520000D02*
X107375000Y-78800000D01*
X102175000Y-71120000D02*
X102175000Y-78800000D01*
X102175000Y-78800000D02*
X107375000Y-78800000D01*
%TO.C,J7*%
X118685000Y-87055000D02*
X118685000Y-85725000D01*
X120015000Y-87055000D02*
X118685000Y-87055000D01*
X121285000Y-87055000D02*
X121285000Y-84395000D01*
X121285000Y-84395000D02*
X128965000Y-84395000D01*
X121285000Y-87055000D02*
X128965000Y-87055000D01*
X128965000Y-87055000D02*
X128965000Y-84395000D01*
%TO.C,J6*%
X132020000Y-60994600D02*
X132020000Y-59664600D01*
X133350000Y-60994600D02*
X132020000Y-60994600D01*
X134620000Y-60994600D02*
X134620000Y-58334600D01*
X134620000Y-58334600D02*
X142300000Y-58334600D01*
X134620000Y-60994600D02*
X142300000Y-60994600D01*
X142300000Y-60994600D02*
X142300000Y-58334600D01*
%TO.C,J5*%
X41335000Y-52130000D02*
X40005000Y-52130000D01*
X41335000Y-50800000D02*
X41335000Y-52130000D01*
X41335000Y-49530000D02*
X38675000Y-49530000D01*
X38675000Y-49530000D02*
X38675000Y-44390000D01*
X41335000Y-49530000D02*
X41335000Y-44390000D01*
X41335000Y-44390000D02*
X38675000Y-44390000D01*
%TO.C,J4*%
X43875000Y-44390000D02*
X41215000Y-44390000D01*
X43875000Y-49530000D02*
X43875000Y-44390000D01*
X41215000Y-49530000D02*
X41215000Y-44390000D01*
X43875000Y-49530000D02*
X41215000Y-49530000D01*
X43875000Y-50800000D02*
X43875000Y-52130000D01*
X43875000Y-52130000D02*
X42545000Y-52130000D01*
%TO.C,LED_0*%
X131338000Y-73257000D02*
X132098000Y-73257000D01*
X132138000Y-69777000D02*
X132138000Y-70017000D01*
X128658000Y-69777000D02*
X128658000Y-70017000D01*
X128658000Y-73257000D02*
X128658000Y-73017000D01*
X128658000Y-69777000D02*
X132138000Y-69777000D01*
X131338000Y-73257000D02*
X128658000Y-73257000D01*
%TO.C,LED_1*%
X48545000Y-69120000D02*
X49305000Y-69120000D01*
X49345000Y-65640000D02*
X49345000Y-65880000D01*
X45865000Y-65640000D02*
X45865000Y-65880000D01*
X45865000Y-69120000D02*
X45865000Y-68880000D01*
X45865000Y-65640000D02*
X49345000Y-65640000D01*
X48545000Y-69120000D02*
X45865000Y-69120000D01*
%TO.C,LED_3*%
X86645000Y-69120000D02*
X87405000Y-69120000D01*
X87445000Y-65640000D02*
X87445000Y-65880000D01*
X83965000Y-65640000D02*
X83965000Y-65880000D01*
X83965000Y-69120000D02*
X83965000Y-68880000D01*
X83965000Y-65640000D02*
X87445000Y-65640000D01*
X86645000Y-69120000D02*
X83965000Y-69120000D01*
%TO.C,LED_2*%
X67595000Y-69120000D02*
X68355000Y-69120000D01*
X68395000Y-65640000D02*
X68395000Y-65880000D01*
X64915000Y-65640000D02*
X64915000Y-65880000D01*
X64915000Y-69120000D02*
X64915000Y-68880000D01*
X64915000Y-65640000D02*
X68395000Y-65640000D01*
X67595000Y-69120000D02*
X64915000Y-69120000D01*
%TO.C,LED_4*%
X53307500Y-88170000D02*
X54067500Y-88170000D01*
X54107500Y-84690000D02*
X54107500Y-84930000D01*
X50627500Y-84690000D02*
X50627500Y-84930000D01*
X50627500Y-88170000D02*
X50627500Y-87930000D01*
X50627500Y-84690000D02*
X54107500Y-84690000D01*
X53307500Y-88170000D02*
X50627500Y-88170000D01*
%TO.C,LED_6*%
X96170000Y-88170000D02*
X96930000Y-88170000D01*
X96970000Y-84690000D02*
X96970000Y-84930000D01*
X93490000Y-84690000D02*
X93490000Y-84930000D01*
X93490000Y-88170000D02*
X93490000Y-87930000D01*
X93490000Y-84690000D02*
X96970000Y-84690000D01*
X96170000Y-88170000D02*
X93490000Y-88170000D01*
%TO.C,LED_5*%
X77120000Y-88170000D02*
X77880000Y-88170000D01*
X77920000Y-84690000D02*
X77920000Y-84930000D01*
X74440000Y-84690000D02*
X74440000Y-84930000D01*
X74440000Y-88170000D02*
X74440000Y-87930000D01*
X74440000Y-84690000D02*
X77920000Y-84690000D01*
X77120000Y-88170000D02*
X74440000Y-88170000D01*
%TO.C,LED_7*%
D10*
X54355000Y-103430628D02*
X54069285Y-103430628D01*
X54069285Y-102830628D01*
X54555000Y-103116342D02*
X54755000Y-103116342D01*
X54840714Y-103430628D02*
X54555000Y-103430628D01*
X54555000Y-102830628D01*
X54840714Y-102830628D01*
X55097857Y-103430628D02*
X55097857Y-102830628D01*
X55240714Y-102830628D01*
X55326428Y-102859200D01*
X55383571Y-102916342D01*
X55412142Y-102973485D01*
X55440714Y-103087771D01*
X55440714Y-103173485D01*
X55412142Y-103287771D01*
X55383571Y-103344914D01*
X55326428Y-103402057D01*
X55240714Y-103430628D01*
X55097857Y-103430628D01*
X55555000Y-103487771D02*
X56012142Y-103487771D01*
X56097857Y-102830628D02*
X56497857Y-102830628D01*
X56240714Y-103430628D01*
X57720000Y-105171580D02*
X57720000Y-104504914D01*
X57720000Y-104171580D02*
X57672380Y-104219200D01*
X57720000Y-104266819D01*
X57767619Y-104219200D01*
X57720000Y-104171580D01*
X57720000Y-104266819D01*
X52648571Y-106771580D02*
X52553333Y-106723961D01*
X52505714Y-106676342D01*
X52458095Y-106581104D01*
X52458095Y-106295390D01*
X52505714Y-106200152D01*
X52553333Y-106152533D01*
X52648571Y-106104914D01*
X52791428Y-106104914D01*
X52886666Y-106152533D01*
X52934285Y-106200152D01*
X52981904Y-106295390D01*
X52981904Y-106581104D01*
X52934285Y-106676342D01*
X52886666Y-106723961D01*
X52791428Y-106771580D01*
X52648571Y-106771580D01*
X57339047Y-106390628D02*
X58100952Y-106390628D01*
X52339047Y-104590628D02*
X53100952Y-104590628D01*
X52720000Y-104971580D02*
X52720000Y-104209676D01*
%TO.C,LED_9*%
X99115000Y-103430628D02*
X98829285Y-103430628D01*
X98829285Y-102830628D01*
X99315000Y-103116342D02*
X99515000Y-103116342D01*
X99600714Y-103430628D02*
X99315000Y-103430628D01*
X99315000Y-102830628D01*
X99600714Y-102830628D01*
X99857857Y-103430628D02*
X99857857Y-102830628D01*
X100000714Y-102830628D01*
X100086428Y-102859200D01*
X100143571Y-102916342D01*
X100172142Y-102973485D01*
X100200714Y-103087771D01*
X100200714Y-103173485D01*
X100172142Y-103287771D01*
X100143571Y-103344914D01*
X100086428Y-103402057D01*
X100000714Y-103430628D01*
X99857857Y-103430628D01*
X100315000Y-103487771D02*
X100772142Y-103487771D01*
X100943571Y-103430628D02*
X101057857Y-103430628D01*
X101115000Y-103402057D01*
X101143571Y-103373485D01*
X101200714Y-103287771D01*
X101229285Y-103173485D01*
X101229285Y-102944914D01*
X101200714Y-102887771D01*
X101172142Y-102859200D01*
X101115000Y-102830628D01*
X101000714Y-102830628D01*
X100943571Y-102859200D01*
X100915000Y-102887771D01*
X100886428Y-102944914D01*
X100886428Y-103087771D01*
X100915000Y-103144914D01*
X100943571Y-103173485D01*
X101000714Y-103202057D01*
X101115000Y-103202057D01*
X101172142Y-103173485D01*
X101200714Y-103144914D01*
X101229285Y-103087771D01*
X102480000Y-105171580D02*
X102480000Y-104504914D01*
X102480000Y-104171580D02*
X102432380Y-104219200D01*
X102480000Y-104266819D01*
X102527619Y-104219200D01*
X102480000Y-104171580D01*
X102480000Y-104266819D01*
X97408571Y-106771580D02*
X97313333Y-106723961D01*
X97265714Y-106676342D01*
X97218095Y-106581104D01*
X97218095Y-106295390D01*
X97265714Y-106200152D01*
X97313333Y-106152533D01*
X97408571Y-106104914D01*
X97551428Y-106104914D01*
X97646666Y-106152533D01*
X97694285Y-106200152D01*
X97741904Y-106295390D01*
X97741904Y-106581104D01*
X97694285Y-106676342D01*
X97646666Y-106723961D01*
X97551428Y-106771580D01*
X97408571Y-106771580D01*
X102099047Y-106390628D02*
X102860952Y-106390628D01*
X97099047Y-104590628D02*
X97860952Y-104590628D01*
X97480000Y-104971580D02*
X97480000Y-104209676D01*
%TO.C,LED_8*%
X80115000Y-103430628D02*
X79829285Y-103430628D01*
X79829285Y-102830628D01*
X80315000Y-103116342D02*
X80515000Y-103116342D01*
X80600714Y-103430628D02*
X80315000Y-103430628D01*
X80315000Y-102830628D01*
X80600714Y-102830628D01*
X80857857Y-103430628D02*
X80857857Y-102830628D01*
X81000714Y-102830628D01*
X81086428Y-102859200D01*
X81143571Y-102916342D01*
X81172142Y-102973485D01*
X81200714Y-103087771D01*
X81200714Y-103173485D01*
X81172142Y-103287771D01*
X81143571Y-103344914D01*
X81086428Y-103402057D01*
X81000714Y-103430628D01*
X80857857Y-103430628D01*
X81315000Y-103487771D02*
X81772142Y-103487771D01*
X82000714Y-103087771D02*
X81943571Y-103059200D01*
X81915000Y-103030628D01*
X81886428Y-102973485D01*
X81886428Y-102944914D01*
X81915000Y-102887771D01*
X81943571Y-102859200D01*
X82000714Y-102830628D01*
X82115000Y-102830628D01*
X82172142Y-102859200D01*
X82200714Y-102887771D01*
X82229285Y-102944914D01*
X82229285Y-102973485D01*
X82200714Y-103030628D01*
X82172142Y-103059200D01*
X82115000Y-103087771D01*
X82000714Y-103087771D01*
X81943571Y-103116342D01*
X81915000Y-103144914D01*
X81886428Y-103202057D01*
X81886428Y-103316342D01*
X81915000Y-103373485D01*
X81943571Y-103402057D01*
X82000714Y-103430628D01*
X82115000Y-103430628D01*
X82172142Y-103402057D01*
X82200714Y-103373485D01*
X82229285Y-103316342D01*
X82229285Y-103202057D01*
X82200714Y-103144914D01*
X82172142Y-103116342D01*
X82115000Y-103087771D01*
X83480000Y-105171580D02*
X83480000Y-104504914D01*
X83480000Y-104171580D02*
X83432380Y-104219200D01*
X83480000Y-104266819D01*
X83527619Y-104219200D01*
X83480000Y-104171580D01*
X83480000Y-104266819D01*
X78408571Y-106771580D02*
X78313333Y-106723961D01*
X78265714Y-106676342D01*
X78218095Y-106581104D01*
X78218095Y-106295390D01*
X78265714Y-106200152D01*
X78313333Y-106152533D01*
X78408571Y-106104914D01*
X78551428Y-106104914D01*
X78646666Y-106152533D01*
X78694285Y-106200152D01*
X78741904Y-106295390D01*
X78741904Y-106581104D01*
X78694285Y-106676342D01*
X78646666Y-106723961D01*
X78551428Y-106771580D01*
X78408571Y-106771580D01*
X83099047Y-106390628D02*
X83860952Y-106390628D01*
X78099047Y-104590628D02*
X78860952Y-104590628D01*
X78480000Y-104971580D02*
X78480000Y-104209676D01*
%TO.C,SW3*%
X30322069Y-102990649D02*
X29988735Y-102514459D01*
X29750640Y-102990649D02*
X29750640Y-101990649D01*
X30131592Y-101990649D01*
X30226830Y-102038269D01*
X30274450Y-102085888D01*
X30322069Y-102181126D01*
X30322069Y-102323983D01*
X30274450Y-102419221D01*
X30226830Y-102466840D01*
X30131592Y-102514459D01*
X29750640Y-102514459D01*
X30750640Y-102466840D02*
X31083973Y-102466840D01*
X31226830Y-102990649D02*
X30750640Y-102990649D01*
X30750640Y-101990649D01*
X31226830Y-101990649D01*
X31607783Y-102943030D02*
X31750640Y-102990649D01*
X31988735Y-102990649D01*
X32083973Y-102943030D01*
X32131592Y-102895411D01*
X32179211Y-102800173D01*
X32179211Y-102704935D01*
X32131592Y-102609697D01*
X32083973Y-102562078D01*
X31988735Y-102514459D01*
X31798259Y-102466840D01*
X31703021Y-102419221D01*
X31655402Y-102371602D01*
X31607783Y-102276364D01*
X31607783Y-102181126D01*
X31655402Y-102085888D01*
X31703021Y-102038269D01*
X31798259Y-101990649D01*
X32036354Y-101990649D01*
X32179211Y-102038269D01*
X32607783Y-102466840D02*
X32941116Y-102466840D01*
X33083973Y-102990649D02*
X32607783Y-102990649D01*
X32607783Y-101990649D01*
X33083973Y-101990649D01*
X33369688Y-101990649D02*
X33941116Y-101990649D01*
X33655402Y-102990649D02*
X33655402Y-101990649D01*
%TO.C,SW2*%
X139136666Y-101528571D02*
X139279523Y-101576190D01*
X139327142Y-101623809D01*
X139374761Y-101719047D01*
X139374761Y-101861904D01*
X139327142Y-101957142D01*
X139279523Y-102004761D01*
X139184285Y-102052380D01*
X138803333Y-102052380D01*
X138803333Y-101052380D01*
X139136666Y-101052380D01*
X139231904Y-101100000D01*
X139279523Y-101147619D01*
X139327142Y-101242857D01*
X139327142Y-101338095D01*
X139279523Y-101433333D01*
X139231904Y-101480952D01*
X139136666Y-101528571D01*
X138803333Y-101528571D01*
X139993809Y-101052380D02*
X140184285Y-101052380D01*
X140279523Y-101100000D01*
X140374761Y-101195238D01*
X140422380Y-101385714D01*
X140422380Y-101719047D01*
X140374761Y-101909523D01*
X140279523Y-102004761D01*
X140184285Y-102052380D01*
X139993809Y-102052380D01*
X139898571Y-102004761D01*
X139803333Y-101909523D01*
X139755714Y-101719047D01*
X139755714Y-101385714D01*
X139803333Y-101195238D01*
X139898571Y-101100000D01*
X139993809Y-101052380D01*
X141041428Y-101052380D02*
X141231904Y-101052380D01*
X141327142Y-101100000D01*
X141422380Y-101195238D01*
X141470000Y-101385714D01*
X141470000Y-101719047D01*
X141422380Y-101909523D01*
X141327142Y-102004761D01*
X141231904Y-102052380D01*
X141041428Y-102052380D01*
X140946190Y-102004761D01*
X140850952Y-101909523D01*
X140803333Y-101719047D01*
X140803333Y-101385714D01*
X140850952Y-101195238D01*
X140946190Y-101100000D01*
X141041428Y-101052380D01*
X141755714Y-101052380D02*
X142327142Y-101052380D01*
X142041428Y-102052380D02*
X142041428Y-101052380D01*
X143184285Y-102052380D02*
X142612857Y-102052380D01*
X142898571Y-102052380D02*
X142898571Y-101052380D01*
X142803333Y-101195238D01*
X142708095Y-101290476D01*
X142612857Y-101338095D01*
%TO.C,SW1*%
X131516666Y-101528571D02*
X131659523Y-101576190D01*
X131707142Y-101623809D01*
X131754761Y-101719047D01*
X131754761Y-101861904D01*
X131707142Y-101957142D01*
X131659523Y-102004761D01*
X131564285Y-102052380D01*
X131183333Y-102052380D01*
X131183333Y-101052380D01*
X131516666Y-101052380D01*
X131611904Y-101100000D01*
X131659523Y-101147619D01*
X131707142Y-101242857D01*
X131707142Y-101338095D01*
X131659523Y-101433333D01*
X131611904Y-101480952D01*
X131516666Y-101528571D01*
X131183333Y-101528571D01*
X132373809Y-101052380D02*
X132564285Y-101052380D01*
X132659523Y-101100000D01*
X132754761Y-101195238D01*
X132802380Y-101385714D01*
X132802380Y-101719047D01*
X132754761Y-101909523D01*
X132659523Y-102004761D01*
X132564285Y-102052380D01*
X132373809Y-102052380D01*
X132278571Y-102004761D01*
X132183333Y-101909523D01*
X132135714Y-101719047D01*
X132135714Y-101385714D01*
X132183333Y-101195238D01*
X132278571Y-101100000D01*
X132373809Y-101052380D01*
X133421428Y-101052380D02*
X133611904Y-101052380D01*
X133707142Y-101100000D01*
X133802380Y-101195238D01*
X133850000Y-101385714D01*
X133850000Y-101719047D01*
X133802380Y-101909523D01*
X133707142Y-102004761D01*
X133611904Y-102052380D01*
X133421428Y-102052380D01*
X133326190Y-102004761D01*
X133230952Y-101909523D01*
X133183333Y-101719047D01*
X133183333Y-101385714D01*
X133230952Y-101195238D01*
X133326190Y-101100000D01*
X133421428Y-101052380D01*
X134135714Y-101052380D02*
X134707142Y-101052380D01*
X134421428Y-102052380D02*
X134421428Y-101052380D01*
X135230952Y-101052380D02*
X135326190Y-101052380D01*
X135421428Y-101100000D01*
X135469047Y-101147619D01*
X135516666Y-101242857D01*
X135564285Y-101433333D01*
X135564285Y-101671428D01*
X135516666Y-101861904D01*
X135469047Y-101957142D01*
X135421428Y-102004761D01*
X135326190Y-102052380D01*
X135230952Y-102052380D01*
X135135714Y-102004761D01*
X135088095Y-101957142D01*
X135040476Y-101861904D01*
X134992857Y-101671428D01*
X134992857Y-101433333D01*
X135040476Y-101242857D01*
X135088095Y-101147619D01*
X135135714Y-101100000D01*
X135230952Y-101052380D01*
%TO.C,J15*%
X143660761Y-116800142D02*
X143708380Y-116657285D01*
X143708380Y-116419190D01*
X143660761Y-116323952D01*
X143613142Y-116276333D01*
X143517904Y-116228714D01*
X143422666Y-116228714D01*
X143327428Y-116276333D01*
X143279809Y-116323952D01*
X143232190Y-116419190D01*
X143184571Y-116609666D01*
X143136952Y-116704904D01*
X143089333Y-116752523D01*
X142994095Y-116800142D01*
X142898857Y-116800142D01*
X142803619Y-116752523D01*
X142756000Y-116704904D01*
X142708380Y-116609666D01*
X142708380Y-116371571D01*
X142756000Y-116228714D01*
X142708380Y-115895380D02*
X143708380Y-115657285D01*
X142994095Y-115466809D01*
X143708380Y-115276333D01*
X142708380Y-115038238D01*
X143708380Y-114657285D02*
X142708380Y-114657285D01*
X142708380Y-114419190D01*
X142756000Y-114276333D01*
X142851238Y-114181095D01*
X142946476Y-114133476D01*
X143136952Y-114085857D01*
X143279809Y-114085857D01*
X143470285Y-114133476D01*
X143565523Y-114181095D01*
X143660761Y-114276333D01*
X143708380Y-114419190D01*
X143708380Y-114657285D01*
%TO.C,J14*%
X130365714Y-124118666D02*
X130841904Y-124118666D01*
X130270476Y-124404380D02*
X130603809Y-123404380D01*
X130937142Y-124404380D01*
X131270476Y-124404380D02*
X131270476Y-123404380D01*
X131508571Y-123404380D01*
X131651428Y-123452000D01*
X131746666Y-123547238D01*
X131794285Y-123642476D01*
X131841904Y-123832952D01*
X131841904Y-123975809D01*
X131794285Y-124166285D01*
X131746666Y-124261523D01*
X131651428Y-124356761D01*
X131508571Y-124404380D01*
X131270476Y-124404380D01*
X132841904Y-124309142D02*
X132794285Y-124356761D01*
X132651428Y-124404380D01*
X132556190Y-124404380D01*
X132413333Y-124356761D01*
X132318095Y-124261523D01*
X132270476Y-124166285D01*
X132222857Y-123975809D01*
X132222857Y-123832952D01*
X132270476Y-123642476D01*
X132318095Y-123547238D01*
X132413333Y-123452000D01*
X132556190Y-123404380D01*
X132651428Y-123404380D01*
X132794285Y-123452000D01*
X132841904Y-123499619D01*
X133794285Y-124404380D02*
X133222857Y-124404380D01*
X133508571Y-124404380D02*
X133508571Y-123404380D01*
X133413333Y-123547238D01*
X133318095Y-123642476D01*
X133222857Y-123690095D01*
%TO.C,J13*%
X121690000Y-127404761D02*
X121832857Y-127452380D01*
X122070952Y-127452380D01*
X122166190Y-127404761D01*
X122213809Y-127357142D01*
X122261428Y-127261904D01*
X122261428Y-127166666D01*
X122213809Y-127071428D01*
X122166190Y-127023809D01*
X122070952Y-126976190D01*
X121880476Y-126928571D01*
X121785238Y-126880952D01*
X121737619Y-126833333D01*
X121690000Y-126738095D01*
X121690000Y-126642857D01*
X121737619Y-126547619D01*
X121785238Y-126500000D01*
X121880476Y-126452380D01*
X122118571Y-126452380D01*
X122261428Y-126500000D01*
X122690000Y-127452380D02*
X122690000Y-126452380D01*
X123070952Y-126452380D01*
X123166190Y-126500000D01*
X123213809Y-126547619D01*
X123261428Y-126642857D01*
X123261428Y-126785714D01*
X123213809Y-126880952D01*
X123166190Y-126928571D01*
X123070952Y-126976190D01*
X122690000Y-126976190D01*
X123690000Y-127452380D02*
X123690000Y-126452380D01*
X124594761Y-126785714D02*
X124594761Y-127452380D01*
X124356666Y-126404761D02*
X124118571Y-127119047D01*
X124737619Y-127119047D01*
%TO.C,J12*%
X136612571Y-81240380D02*
X136612571Y-82049904D01*
X136660190Y-82145142D01*
X136707809Y-82192761D01*
X136803047Y-82240380D01*
X136993523Y-82240380D01*
X137088761Y-82192761D01*
X137136380Y-82145142D01*
X137184000Y-82049904D01*
X137184000Y-81240380D01*
X137612571Y-81954666D02*
X138088761Y-81954666D01*
X137517333Y-82240380D02*
X137850666Y-81240380D01*
X138184000Y-82240380D01*
X139088761Y-82240380D02*
X138755428Y-81764190D01*
X138517333Y-82240380D02*
X138517333Y-81240380D01*
X138898285Y-81240380D01*
X138993523Y-81288000D01*
X139041142Y-81335619D01*
X139088761Y-81430857D01*
X139088761Y-81573714D01*
X139041142Y-81668952D01*
X138993523Y-81716571D01*
X138898285Y-81764190D01*
X138517333Y-81764190D01*
X139374476Y-81240380D02*
X139945904Y-81240380D01*
X139660190Y-82240380D02*
X139660190Y-81240380D01*
X140184000Y-81240380D02*
X140803047Y-81240380D01*
X140469714Y-81621333D01*
X140612571Y-81621333D01*
X140707809Y-81668952D01*
X140755428Y-81716571D01*
X140803047Y-81811809D01*
X140803047Y-82049904D01*
X140755428Y-82145142D01*
X140707809Y-82192761D01*
X140612571Y-82240380D01*
X140326857Y-82240380D01*
X140231619Y-82192761D01*
X140184000Y-82145142D01*
%TO.C,J11*%
X114752619Y-91384380D02*
X114752619Y-90384380D01*
X115181190Y-90479619D02*
X115228809Y-90432000D01*
X115324047Y-90384380D01*
X115562142Y-90384380D01*
X115657380Y-90432000D01*
X115705000Y-90479619D01*
X115752619Y-90574857D01*
X115752619Y-90670095D01*
X115705000Y-90812952D01*
X115133571Y-91384380D01*
X115752619Y-91384380D01*
X116752619Y-91289142D02*
X116705000Y-91336761D01*
X116562142Y-91384380D01*
X116466904Y-91384380D01*
X116324047Y-91336761D01*
X116228809Y-91241523D01*
X116181190Y-91146285D01*
X116133571Y-90955809D01*
X116133571Y-90812952D01*
X116181190Y-90622476D01*
X116228809Y-90527238D01*
X116324047Y-90432000D01*
X116466904Y-90384380D01*
X116562142Y-90384380D01*
X116705000Y-90432000D01*
X116752619Y-90479619D01*
X117085952Y-90384380D02*
X117705000Y-90384380D01*
X117371666Y-90765333D01*
X117514523Y-90765333D01*
X117609761Y-90812952D01*
X117657380Y-90860571D01*
X117705000Y-90955809D01*
X117705000Y-91193904D01*
X117657380Y-91289142D01*
X117609761Y-91336761D01*
X117514523Y-91384380D01*
X117228809Y-91384380D01*
X117133571Y-91336761D01*
X117085952Y-91289142D01*
%TO.C,J10*%
X115467000Y-127404761D02*
X115609857Y-127452380D01*
X115847952Y-127452380D01*
X115943190Y-127404761D01*
X115990809Y-127357142D01*
X116038428Y-127261904D01*
X116038428Y-127166666D01*
X115990809Y-127071428D01*
X115943190Y-127023809D01*
X115847952Y-126976190D01*
X115657476Y-126928571D01*
X115562238Y-126880952D01*
X115514619Y-126833333D01*
X115467000Y-126738095D01*
X115467000Y-126642857D01*
X115514619Y-126547619D01*
X115562238Y-126500000D01*
X115657476Y-126452380D01*
X115895571Y-126452380D01*
X116038428Y-126500000D01*
X116467000Y-127452380D02*
X116467000Y-126452380D01*
X116847952Y-126452380D01*
X116943190Y-126500000D01*
X116990809Y-126547619D01*
X117038428Y-126642857D01*
X117038428Y-126785714D01*
X116990809Y-126880952D01*
X116943190Y-126928571D01*
X116847952Y-126976190D01*
X116467000Y-126976190D01*
X117467000Y-127452380D02*
X117467000Y-126452380D01*
X117895571Y-126547619D02*
X117943190Y-126500000D01*
X118038428Y-126452380D01*
X118276523Y-126452380D01*
X118371761Y-126500000D01*
X118419380Y-126547619D01*
X118467000Y-126642857D01*
X118467000Y-126738095D01*
X118419380Y-126880952D01*
X117847952Y-127452380D01*
X118467000Y-127452380D01*
%TO.C,J8*%
X103275000Y-80287761D02*
X103417857Y-80335380D01*
X103655952Y-80335380D01*
X103751190Y-80287761D01*
X103798809Y-80240142D01*
X103846428Y-80144904D01*
X103846428Y-80049666D01*
X103798809Y-79954428D01*
X103751190Y-79906809D01*
X103655952Y-79859190D01*
X103465476Y-79811571D01*
X103370238Y-79763952D01*
X103322619Y-79716333D01*
X103275000Y-79621095D01*
X103275000Y-79525857D01*
X103322619Y-79430619D01*
X103370238Y-79383000D01*
X103465476Y-79335380D01*
X103703571Y-79335380D01*
X103846428Y-79383000D01*
X104275000Y-80335380D02*
X104275000Y-79335380D01*
X104655952Y-79335380D01*
X104751190Y-79383000D01*
X104798809Y-79430619D01*
X104846428Y-79525857D01*
X104846428Y-79668714D01*
X104798809Y-79763952D01*
X104751190Y-79811571D01*
X104655952Y-79859190D01*
X104275000Y-79859190D01*
X105275000Y-80335380D02*
X105275000Y-79335380D01*
X106275000Y-80335380D02*
X105703571Y-80335380D01*
X105989285Y-80335380D02*
X105989285Y-79335380D01*
X105894047Y-79478238D01*
X105798809Y-79573476D01*
X105703571Y-79621095D01*
%TO.C,J7*%
X114752619Y-86304380D02*
X114752619Y-85304380D01*
X115181190Y-85399619D02*
X115228809Y-85352000D01*
X115324047Y-85304380D01*
X115562142Y-85304380D01*
X115657380Y-85352000D01*
X115705000Y-85399619D01*
X115752619Y-85494857D01*
X115752619Y-85590095D01*
X115705000Y-85732952D01*
X115133571Y-86304380D01*
X115752619Y-86304380D01*
X116752619Y-86209142D02*
X116705000Y-86256761D01*
X116562142Y-86304380D01*
X116466904Y-86304380D01*
X116324047Y-86256761D01*
X116228809Y-86161523D01*
X116181190Y-86066285D01*
X116133571Y-85875809D01*
X116133571Y-85732952D01*
X116181190Y-85542476D01*
X116228809Y-85447238D01*
X116324047Y-85352000D01*
X116466904Y-85304380D01*
X116562142Y-85304380D01*
X116705000Y-85352000D01*
X116752619Y-85399619D01*
X117133571Y-85399619D02*
X117181190Y-85352000D01*
X117276428Y-85304380D01*
X117514523Y-85304380D01*
X117609761Y-85352000D01*
X117657380Y-85399619D01*
X117705000Y-85494857D01*
X117705000Y-85590095D01*
X117657380Y-85732952D01*
X117085952Y-86304380D01*
X117705000Y-86304380D01*
%TO.C,J6*%
X128341619Y-60243980D02*
X128341619Y-59243980D01*
X128770190Y-59339219D02*
X128817809Y-59291600D01*
X128913047Y-59243980D01*
X129151142Y-59243980D01*
X129246380Y-59291600D01*
X129294000Y-59339219D01*
X129341619Y-59434457D01*
X129341619Y-59529695D01*
X129294000Y-59672552D01*
X128722571Y-60243980D01*
X129341619Y-60243980D01*
X130341619Y-60148742D02*
X130294000Y-60196361D01*
X130151142Y-60243980D01*
X130055904Y-60243980D01*
X129913047Y-60196361D01*
X129817809Y-60101123D01*
X129770190Y-60005885D01*
X129722571Y-59815409D01*
X129722571Y-59672552D01*
X129770190Y-59482076D01*
X129817809Y-59386838D01*
X129913047Y-59291600D01*
X130055904Y-59243980D01*
X130151142Y-59243980D01*
X130294000Y-59291600D01*
X130341619Y-59339219D01*
X131294000Y-60243980D02*
X130722571Y-60243980D01*
X131008285Y-60243980D02*
X131008285Y-59243980D01*
X130913047Y-59386838D01*
X130817809Y-59482076D01*
X130722571Y-59529695D01*
%TO.C,J5*%
X39489142Y-52744761D02*
X38632000Y-54030476D01*
X39822476Y-53792380D02*
X39822476Y-52792380D01*
X40155809Y-53506666D01*
X40489142Y-52792380D01*
X40489142Y-53792380D01*
X41536761Y-53792380D02*
X41203428Y-53316190D01*
X40965333Y-53792380D02*
X40965333Y-52792380D01*
X41346285Y-52792380D01*
X41441523Y-52840000D01*
X41489142Y-52887619D01*
X41536761Y-52982857D01*
X41536761Y-53125714D01*
X41489142Y-53220952D01*
X41441523Y-53268571D01*
X41346285Y-53316190D01*
X40965333Y-53316190D01*
%TO.C,J4*%
X42124380Y-52744761D02*
X41267238Y-54030476D01*
X42648190Y-52792380D02*
X42838666Y-52792380D01*
X42933904Y-52840000D01*
X43029142Y-52935238D01*
X43076761Y-53125714D01*
X43076761Y-53459047D01*
X43029142Y-53649523D01*
X42933904Y-53744761D01*
X42838666Y-53792380D01*
X42648190Y-53792380D01*
X42552952Y-53744761D01*
X42457714Y-53649523D01*
X42410095Y-53459047D01*
X42410095Y-53125714D01*
X42457714Y-52935238D01*
X42552952Y-52840000D01*
X42648190Y-52792380D01*
X43505333Y-53268571D02*
X43838666Y-53268571D01*
X43981523Y-53792380D02*
X43505333Y-53792380D01*
X43505333Y-52792380D01*
X43981523Y-52792380D01*
%TO.C,LED_0*%
X129478200Y-68470428D02*
X129192485Y-68470428D01*
X129192485Y-67870428D01*
X129678200Y-68156142D02*
X129878200Y-68156142D01*
X129963914Y-68470428D02*
X129678200Y-68470428D01*
X129678200Y-67870428D01*
X129963914Y-67870428D01*
X130221057Y-68470428D02*
X130221057Y-67870428D01*
X130363914Y-67870428D01*
X130449628Y-67899000D01*
X130506771Y-67956142D01*
X130535342Y-68013285D01*
X130563914Y-68127571D01*
X130563914Y-68213285D01*
X130535342Y-68327571D01*
X130506771Y-68384714D01*
X130449628Y-68441857D01*
X130363914Y-68470428D01*
X130221057Y-68470428D01*
X130678200Y-68527571D02*
X131135342Y-68527571D01*
X131392485Y-67870428D02*
X131449628Y-67870428D01*
X131506771Y-67899000D01*
X131535342Y-67927571D01*
X131563914Y-67984714D01*
X131592485Y-68099000D01*
X131592485Y-68241857D01*
X131563914Y-68356142D01*
X131535342Y-68413285D01*
X131506771Y-68441857D01*
X131449628Y-68470428D01*
X131392485Y-68470428D01*
X131335342Y-68441857D01*
X131306771Y-68413285D01*
X131278200Y-68356142D01*
X131249628Y-68241857D01*
X131249628Y-68099000D01*
X131278200Y-67984714D01*
X131306771Y-67927571D01*
X131335342Y-67899000D01*
X131392485Y-67870428D01*
X132898000Y-71169380D02*
X132898000Y-70502714D01*
X132898000Y-70169380D02*
X132850380Y-70217000D01*
X132898000Y-70264619D01*
X132945619Y-70217000D01*
X132898000Y-70169380D01*
X132898000Y-70264619D01*
X127826571Y-72769380D02*
X127731333Y-72721761D01*
X127683714Y-72674142D01*
X127636095Y-72578904D01*
X127636095Y-72293190D01*
X127683714Y-72197952D01*
X127731333Y-72150333D01*
X127826571Y-72102714D01*
X127969428Y-72102714D01*
X128064666Y-72150333D01*
X128112285Y-72197952D01*
X128159904Y-72293190D01*
X128159904Y-72578904D01*
X128112285Y-72674142D01*
X128064666Y-72721761D01*
X127969428Y-72769380D01*
X127826571Y-72769380D01*
X132517047Y-72388428D02*
X133278952Y-72388428D01*
X127517047Y-70588428D02*
X128278952Y-70588428D01*
X127898000Y-70969380D02*
X127898000Y-70207476D01*
%TO.C,LED_1*%
X46740000Y-65291428D02*
X46454285Y-65291428D01*
X46454285Y-64691428D01*
X46940000Y-64977142D02*
X47140000Y-64977142D01*
X47225714Y-65291428D02*
X46940000Y-65291428D01*
X46940000Y-64691428D01*
X47225714Y-64691428D01*
X47482857Y-65291428D02*
X47482857Y-64691428D01*
X47625714Y-64691428D01*
X47711428Y-64720000D01*
X47768571Y-64777142D01*
X47797142Y-64834285D01*
X47825714Y-64948571D01*
X47825714Y-65034285D01*
X47797142Y-65148571D01*
X47768571Y-65205714D01*
X47711428Y-65262857D01*
X47625714Y-65291428D01*
X47482857Y-65291428D01*
X47940000Y-65348571D02*
X48397142Y-65348571D01*
X48854285Y-65291428D02*
X48511428Y-65291428D01*
X48682857Y-65291428D02*
X48682857Y-64691428D01*
X48625714Y-64777142D01*
X48568571Y-64834285D01*
X48511428Y-64862857D01*
X50105000Y-67032380D02*
X50105000Y-66365714D01*
X50105000Y-66032380D02*
X50057380Y-66080000D01*
X50105000Y-66127619D01*
X50152619Y-66080000D01*
X50105000Y-66032380D01*
X50105000Y-66127619D01*
X45033571Y-68632380D02*
X44938333Y-68584761D01*
X44890714Y-68537142D01*
X44843095Y-68441904D01*
X44843095Y-68156190D01*
X44890714Y-68060952D01*
X44938333Y-68013333D01*
X45033571Y-67965714D01*
X45176428Y-67965714D01*
X45271666Y-68013333D01*
X45319285Y-68060952D01*
X45366904Y-68156190D01*
X45366904Y-68441904D01*
X45319285Y-68537142D01*
X45271666Y-68584761D01*
X45176428Y-68632380D01*
X45033571Y-68632380D01*
X49724047Y-68251428D02*
X50485952Y-68251428D01*
X44724047Y-66451428D02*
X45485952Y-66451428D01*
X45105000Y-66832380D02*
X45105000Y-66070476D01*
%TO.C,LED_3*%
X84840000Y-65291428D02*
X84554285Y-65291428D01*
X84554285Y-64691428D01*
X85040000Y-64977142D02*
X85240000Y-64977142D01*
X85325714Y-65291428D02*
X85040000Y-65291428D01*
X85040000Y-64691428D01*
X85325714Y-64691428D01*
X85582857Y-65291428D02*
X85582857Y-64691428D01*
X85725714Y-64691428D01*
X85811428Y-64720000D01*
X85868571Y-64777142D01*
X85897142Y-64834285D01*
X85925714Y-64948571D01*
X85925714Y-65034285D01*
X85897142Y-65148571D01*
X85868571Y-65205714D01*
X85811428Y-65262857D01*
X85725714Y-65291428D01*
X85582857Y-65291428D01*
X86040000Y-65348571D02*
X86497142Y-65348571D01*
X86582857Y-64691428D02*
X86954285Y-64691428D01*
X86754285Y-64920000D01*
X86840000Y-64920000D01*
X86897142Y-64948571D01*
X86925714Y-64977142D01*
X86954285Y-65034285D01*
X86954285Y-65177142D01*
X86925714Y-65234285D01*
X86897142Y-65262857D01*
X86840000Y-65291428D01*
X86668571Y-65291428D01*
X86611428Y-65262857D01*
X86582857Y-65234285D01*
X88205000Y-67032380D02*
X88205000Y-66365714D01*
X88205000Y-66032380D02*
X88157380Y-66080000D01*
X88205000Y-66127619D01*
X88252619Y-66080000D01*
X88205000Y-66032380D01*
X88205000Y-66127619D01*
X83133571Y-68632380D02*
X83038333Y-68584761D01*
X82990714Y-68537142D01*
X82943095Y-68441904D01*
X82943095Y-68156190D01*
X82990714Y-68060952D01*
X83038333Y-68013333D01*
X83133571Y-67965714D01*
X83276428Y-67965714D01*
X83371666Y-68013333D01*
X83419285Y-68060952D01*
X83466904Y-68156190D01*
X83466904Y-68441904D01*
X83419285Y-68537142D01*
X83371666Y-68584761D01*
X83276428Y-68632380D01*
X83133571Y-68632380D01*
X87824047Y-68251428D02*
X88585952Y-68251428D01*
X82824047Y-66451428D02*
X83585952Y-66451428D01*
X83205000Y-66832380D02*
X83205000Y-66070476D01*
%TO.C,LED_2*%
X65790000Y-65291428D02*
X65504285Y-65291428D01*
X65504285Y-64691428D01*
X65990000Y-64977142D02*
X66190000Y-64977142D01*
X66275714Y-65291428D02*
X65990000Y-65291428D01*
X65990000Y-64691428D01*
X66275714Y-64691428D01*
X66532857Y-65291428D02*
X66532857Y-64691428D01*
X66675714Y-64691428D01*
X66761428Y-64720000D01*
X66818571Y-64777142D01*
X66847142Y-64834285D01*
X66875714Y-64948571D01*
X66875714Y-65034285D01*
X66847142Y-65148571D01*
X66818571Y-65205714D01*
X66761428Y-65262857D01*
X66675714Y-65291428D01*
X66532857Y-65291428D01*
X66990000Y-65348571D02*
X67447142Y-65348571D01*
X67561428Y-64748571D02*
X67590000Y-64720000D01*
X67647142Y-64691428D01*
X67790000Y-64691428D01*
X67847142Y-64720000D01*
X67875714Y-64748571D01*
X67904285Y-64805714D01*
X67904285Y-64862857D01*
X67875714Y-64948571D01*
X67532857Y-65291428D01*
X67904285Y-65291428D01*
X69155000Y-67032380D02*
X69155000Y-66365714D01*
X69155000Y-66032380D02*
X69107380Y-66080000D01*
X69155000Y-66127619D01*
X69202619Y-66080000D01*
X69155000Y-66032380D01*
X69155000Y-66127619D01*
X64083571Y-68632380D02*
X63988333Y-68584761D01*
X63940714Y-68537142D01*
X63893095Y-68441904D01*
X63893095Y-68156190D01*
X63940714Y-68060952D01*
X63988333Y-68013333D01*
X64083571Y-67965714D01*
X64226428Y-67965714D01*
X64321666Y-68013333D01*
X64369285Y-68060952D01*
X64416904Y-68156190D01*
X64416904Y-68441904D01*
X64369285Y-68537142D01*
X64321666Y-68584761D01*
X64226428Y-68632380D01*
X64083571Y-68632380D01*
X68774047Y-68251428D02*
X69535952Y-68251428D01*
X63774047Y-66451428D02*
X64535952Y-66451428D01*
X64155000Y-66832380D02*
X64155000Y-66070476D01*
%TO.C,LED_4*%
X51502500Y-84341428D02*
X51216785Y-84341428D01*
X51216785Y-83741428D01*
X51702500Y-84027142D02*
X51902500Y-84027142D01*
X51988214Y-84341428D02*
X51702500Y-84341428D01*
X51702500Y-83741428D01*
X51988214Y-83741428D01*
X52245357Y-84341428D02*
X52245357Y-83741428D01*
X52388214Y-83741428D01*
X52473928Y-83770000D01*
X52531071Y-83827142D01*
X52559642Y-83884285D01*
X52588214Y-83998571D01*
X52588214Y-84084285D01*
X52559642Y-84198571D01*
X52531071Y-84255714D01*
X52473928Y-84312857D01*
X52388214Y-84341428D01*
X52245357Y-84341428D01*
X52702500Y-84398571D02*
X53159642Y-84398571D01*
X53559642Y-83941428D02*
X53559642Y-84341428D01*
X53416785Y-83712857D02*
X53273928Y-84141428D01*
X53645357Y-84141428D01*
X54867500Y-86082380D02*
X54867500Y-85415714D01*
X54867500Y-85082380D02*
X54819880Y-85130000D01*
X54867500Y-85177619D01*
X54915119Y-85130000D01*
X54867500Y-85082380D01*
X54867500Y-85177619D01*
X49796071Y-87682380D02*
X49700833Y-87634761D01*
X49653214Y-87587142D01*
X49605595Y-87491904D01*
X49605595Y-87206190D01*
X49653214Y-87110952D01*
X49700833Y-87063333D01*
X49796071Y-87015714D01*
X49938928Y-87015714D01*
X50034166Y-87063333D01*
X50081785Y-87110952D01*
X50129404Y-87206190D01*
X50129404Y-87491904D01*
X50081785Y-87587142D01*
X50034166Y-87634761D01*
X49938928Y-87682380D01*
X49796071Y-87682380D01*
X54486547Y-87301428D02*
X55248452Y-87301428D01*
X49486547Y-85501428D02*
X50248452Y-85501428D01*
X49867500Y-85882380D02*
X49867500Y-85120476D01*
%TO.C,LED_6*%
X94365000Y-84341428D02*
X94079285Y-84341428D01*
X94079285Y-83741428D01*
X94565000Y-84027142D02*
X94765000Y-84027142D01*
X94850714Y-84341428D02*
X94565000Y-84341428D01*
X94565000Y-83741428D01*
X94850714Y-83741428D01*
X95107857Y-84341428D02*
X95107857Y-83741428D01*
X95250714Y-83741428D01*
X95336428Y-83770000D01*
X95393571Y-83827142D01*
X95422142Y-83884285D01*
X95450714Y-83998571D01*
X95450714Y-84084285D01*
X95422142Y-84198571D01*
X95393571Y-84255714D01*
X95336428Y-84312857D01*
X95250714Y-84341428D01*
X95107857Y-84341428D01*
X95565000Y-84398571D02*
X96022142Y-84398571D01*
X96422142Y-83741428D02*
X96307857Y-83741428D01*
X96250714Y-83770000D01*
X96222142Y-83798571D01*
X96165000Y-83884285D01*
X96136428Y-83998571D01*
X96136428Y-84227142D01*
X96165000Y-84284285D01*
X96193571Y-84312857D01*
X96250714Y-84341428D01*
X96365000Y-84341428D01*
X96422142Y-84312857D01*
X96450714Y-84284285D01*
X96479285Y-84227142D01*
X96479285Y-84084285D01*
X96450714Y-84027142D01*
X96422142Y-83998571D01*
X96365000Y-83970000D01*
X96250714Y-83970000D01*
X96193571Y-83998571D01*
X96165000Y-84027142D01*
X96136428Y-84084285D01*
X97730000Y-86082380D02*
X97730000Y-85415714D01*
X97730000Y-85082380D02*
X97682380Y-85130000D01*
X97730000Y-85177619D01*
X97777619Y-85130000D01*
X97730000Y-85082380D01*
X97730000Y-85177619D01*
X92658571Y-87682380D02*
X92563333Y-87634761D01*
X92515714Y-87587142D01*
X92468095Y-87491904D01*
X92468095Y-87206190D01*
X92515714Y-87110952D01*
X92563333Y-87063333D01*
X92658571Y-87015714D01*
X92801428Y-87015714D01*
X92896666Y-87063333D01*
X92944285Y-87110952D01*
X92991904Y-87206190D01*
X92991904Y-87491904D01*
X92944285Y-87587142D01*
X92896666Y-87634761D01*
X92801428Y-87682380D01*
X92658571Y-87682380D01*
X97349047Y-87301428D02*
X98110952Y-87301428D01*
X92349047Y-85501428D02*
X93110952Y-85501428D01*
X92730000Y-85882380D02*
X92730000Y-85120476D01*
%TO.C,LED_5*%
X75315000Y-84341428D02*
X75029285Y-84341428D01*
X75029285Y-83741428D01*
X75515000Y-84027142D02*
X75715000Y-84027142D01*
X75800714Y-84341428D02*
X75515000Y-84341428D01*
X75515000Y-83741428D01*
X75800714Y-83741428D01*
X76057857Y-84341428D02*
X76057857Y-83741428D01*
X76200714Y-83741428D01*
X76286428Y-83770000D01*
X76343571Y-83827142D01*
X76372142Y-83884285D01*
X76400714Y-83998571D01*
X76400714Y-84084285D01*
X76372142Y-84198571D01*
X76343571Y-84255714D01*
X76286428Y-84312857D01*
X76200714Y-84341428D01*
X76057857Y-84341428D01*
X76515000Y-84398571D02*
X76972142Y-84398571D01*
X77400714Y-83741428D02*
X77115000Y-83741428D01*
X77086428Y-84027142D01*
X77115000Y-83998571D01*
X77172142Y-83970000D01*
X77315000Y-83970000D01*
X77372142Y-83998571D01*
X77400714Y-84027142D01*
X77429285Y-84084285D01*
X77429285Y-84227142D01*
X77400714Y-84284285D01*
X77372142Y-84312857D01*
X77315000Y-84341428D01*
X77172142Y-84341428D01*
X77115000Y-84312857D01*
X77086428Y-84284285D01*
X78680000Y-86082380D02*
X78680000Y-85415714D01*
X78680000Y-85082380D02*
X78632380Y-85130000D01*
X78680000Y-85177619D01*
X78727619Y-85130000D01*
X78680000Y-85082380D01*
X78680000Y-85177619D01*
X73608571Y-87682380D02*
X73513333Y-87634761D01*
X73465714Y-87587142D01*
X73418095Y-87491904D01*
X73418095Y-87206190D01*
X73465714Y-87110952D01*
X73513333Y-87063333D01*
X73608571Y-87015714D01*
X73751428Y-87015714D01*
X73846666Y-87063333D01*
X73894285Y-87110952D01*
X73941904Y-87206190D01*
X73941904Y-87491904D01*
X73894285Y-87587142D01*
X73846666Y-87634761D01*
X73751428Y-87682380D01*
X73608571Y-87682380D01*
X78299047Y-87301428D02*
X79060952Y-87301428D01*
X73299047Y-85501428D02*
X74060952Y-85501428D01*
X73680000Y-85882380D02*
X73680000Y-85120476D01*
%TD*%
M02*
