%TF.GenerationSoftware,KiCad,Pcbnew,(5.1.9)-1*%
%TF.CreationDate,2021-11-25T09:31:56+01:00*%
%TF.ProjectId,connector,636f6e6e-6563-4746-9f72-2e6b69636164,rev?*%
%TF.SameCoordinates,Original*%
%TF.FileFunction,Legend,Bot*%
%TF.FilePolarity,Positive*%
%FSLAX46Y46*%
G04 Gerber Fmt 4.6, Leading zero omitted, Abs format (unit mm)*
G04 Created by KiCad (PCBNEW (5.1.9)-1) date 2021-11-25 09:31:56*
%MOMM*%
%LPD*%
G01*
G04 APERTURE LIST*
%ADD10C,0.150000*%
%ADD11C,0.120000*%
%ADD12C,0.200000*%
%ADD13C,0.400000*%
%ADD14C,0.500000*%
%ADD15O,1.700000X1.700000*%
%ADD16R,1.700000X1.700000*%
%ADD17C,0.127000*%
G04 APERTURE END LIST*
D10*
X86925095Y-130695238D02*
X86353666Y-130695238D01*
X86239380Y-130733333D01*
X86163190Y-130809523D01*
X86125095Y-130923809D01*
X86125095Y-131000000D01*
X86125095Y-129933333D02*
X86125095Y-130314285D01*
X86925095Y-130314285D01*
X86201285Y-129209523D02*
X86163190Y-129247619D01*
X86125095Y-129361904D01*
X86125095Y-129438095D01*
X86163190Y-129552380D01*
X86239380Y-129628571D01*
X86315571Y-129666666D01*
X86467952Y-129704761D01*
X86582238Y-129704761D01*
X86734619Y-129666666D01*
X86810809Y-129628571D01*
X86887000Y-129552380D01*
X86925095Y-129438095D01*
X86925095Y-129361904D01*
X86887000Y-129247619D01*
X86848904Y-129209523D01*
X86925095Y-128638095D02*
X86353666Y-128638095D01*
X86239380Y-128676190D01*
X86163190Y-128752380D01*
X86125095Y-128866666D01*
X86125095Y-128942857D01*
X86125095Y-127876190D02*
X86125095Y-128257142D01*
X86925095Y-128257142D01*
X86201285Y-127152380D02*
X86163190Y-127190476D01*
X86125095Y-127304761D01*
X86125095Y-127380952D01*
X86163190Y-127495238D01*
X86239380Y-127571428D01*
X86315571Y-127609523D01*
X86467952Y-127647619D01*
X86582238Y-127647619D01*
X86734619Y-127609523D01*
X86810809Y-127571428D01*
X86887000Y-127495238D01*
X86925095Y-127380952D01*
X86925095Y-127304761D01*
X86887000Y-127190476D01*
X86848904Y-127152380D01*
X86925095Y-126580952D02*
X86353666Y-126580952D01*
X86239380Y-126619047D01*
X86163190Y-126695238D01*
X86125095Y-126809523D01*
X86125095Y-126885714D01*
X86125095Y-125819047D02*
X86125095Y-126200000D01*
X86925095Y-126200000D01*
X86201285Y-125095238D02*
X86163190Y-125133333D01*
X86125095Y-125247619D01*
X86125095Y-125323809D01*
X86163190Y-125438095D01*
X86239380Y-125514285D01*
X86315571Y-125552380D01*
X86467952Y-125590476D01*
X86582238Y-125590476D01*
X86734619Y-125552380D01*
X86810809Y-125514285D01*
X86887000Y-125438095D01*
X86925095Y-125323809D01*
X86925095Y-125247619D01*
X86887000Y-125133333D01*
X86848904Y-125095238D01*
X86925095Y-124523809D02*
X86353666Y-124523809D01*
X86239380Y-124561904D01*
X86163190Y-124638095D01*
X86125095Y-124752380D01*
X86125095Y-124828571D01*
X86125095Y-123761904D02*
X86125095Y-124142857D01*
X86925095Y-124142857D01*
X86201285Y-123038095D02*
X86163190Y-123076190D01*
X86125095Y-123190476D01*
X86125095Y-123266666D01*
X86163190Y-123380952D01*
X86239380Y-123457142D01*
X86315571Y-123495238D01*
X86467952Y-123533333D01*
X86582238Y-123533333D01*
X86734619Y-123495238D01*
X86810809Y-123457142D01*
X86887000Y-123380952D01*
X86925095Y-123266666D01*
X86925095Y-123190476D01*
X86887000Y-123076190D01*
X86848904Y-123038095D01*
X87630000Y-85320142D02*
X87582380Y-85367761D01*
X87630000Y-85415380D01*
X87677619Y-85367761D01*
X87630000Y-85320142D01*
X87630000Y-85415380D01*
X87630000Y-121515142D02*
X87582380Y-121562761D01*
X87630000Y-121610380D01*
X87677619Y-121562761D01*
X87630000Y-121515142D01*
X87630000Y-121610380D01*
X87630000Y-110085142D02*
X87582380Y-110132761D01*
X87630000Y-110180380D01*
X87677619Y-110132761D01*
X87630000Y-110085142D01*
X87630000Y-110180380D01*
X87630000Y-98020142D02*
X87582380Y-98067761D01*
X87630000Y-98115380D01*
X87677619Y-98067761D01*
X87630000Y-98020142D01*
X87630000Y-98115380D01*
X87630000Y-72620142D02*
X87582380Y-72667761D01*
X87630000Y-72715380D01*
X87677619Y-72667761D01*
X87630000Y-72620142D01*
X87630000Y-72715380D01*
X87376000Y-37568142D02*
X87328380Y-37615761D01*
X87376000Y-37663380D01*
X87423619Y-37615761D01*
X87376000Y-37568142D01*
X87376000Y-37663380D01*
X81210190Y-126783857D02*
X81172095Y-126669571D01*
X81172095Y-126479095D01*
X81210190Y-126402904D01*
X81248285Y-126364809D01*
X81324476Y-126326714D01*
X81400666Y-126326714D01*
X81476857Y-126364809D01*
X81514952Y-126402904D01*
X81553047Y-126479095D01*
X81591142Y-126631476D01*
X81629238Y-126707666D01*
X81667333Y-126745761D01*
X81743523Y-126783857D01*
X81819714Y-126783857D01*
X81895904Y-126745761D01*
X81934000Y-126707666D01*
X81972095Y-126631476D01*
X81972095Y-126441000D01*
X81934000Y-126326714D01*
X81172095Y-125983857D02*
X81972095Y-125983857D01*
X81172095Y-125641000D02*
X81591142Y-125641000D01*
X81667333Y-125679095D01*
X81705428Y-125755285D01*
X81705428Y-125869571D01*
X81667333Y-125945761D01*
X81629238Y-125983857D01*
X81172095Y-125260047D02*
X81705428Y-125260047D01*
X81972095Y-125260047D02*
X81934000Y-125298142D01*
X81895904Y-125260047D01*
X81934000Y-125221952D01*
X81972095Y-125260047D01*
X81895904Y-125260047D01*
X81705428Y-124993380D02*
X81705428Y-124688619D01*
X81172095Y-124879095D02*
X81857809Y-124879095D01*
X81934000Y-124841000D01*
X81972095Y-124764809D01*
X81972095Y-124688619D01*
X81705428Y-124536238D02*
X81705428Y-124231476D01*
X81972095Y-124421952D02*
X81286380Y-124421952D01*
X81210190Y-124383857D01*
X81172095Y-124307666D01*
X81172095Y-124231476D01*
X81172095Y-122898142D02*
X81553047Y-123164809D01*
X81172095Y-123355285D02*
X81972095Y-123355285D01*
X81972095Y-123050523D01*
X81934000Y-122974333D01*
X81895904Y-122936238D01*
X81819714Y-122898142D01*
X81705428Y-122898142D01*
X81629238Y-122936238D01*
X81591142Y-122974333D01*
X81553047Y-123050523D01*
X81553047Y-123355285D01*
X81857714Y-102215904D02*
X81857714Y-101415904D01*
X81667238Y-101415904D01*
X81552952Y-101454000D01*
X81476761Y-101530190D01*
X81438666Y-101606380D01*
X81400571Y-101758761D01*
X81400571Y-101873047D01*
X81438666Y-102025428D01*
X81476761Y-102101619D01*
X81552952Y-102177809D01*
X81667238Y-102215904D01*
X81857714Y-102215904D01*
X81057714Y-102215904D02*
X81057714Y-101682571D01*
X81057714Y-101415904D02*
X81095809Y-101454000D01*
X81057714Y-101492095D01*
X81019619Y-101454000D01*
X81057714Y-101415904D01*
X81057714Y-101492095D01*
X80714857Y-102177809D02*
X80638666Y-102215904D01*
X80486285Y-102215904D01*
X80410095Y-102177809D01*
X80372000Y-102101619D01*
X80372000Y-102063523D01*
X80410095Y-101987333D01*
X80486285Y-101949238D01*
X80600571Y-101949238D01*
X80676761Y-101911142D01*
X80714857Y-101834952D01*
X80714857Y-101796857D01*
X80676761Y-101720666D01*
X80600571Y-101682571D01*
X80486285Y-101682571D01*
X80410095Y-101720666D01*
X80029142Y-101682571D02*
X80029142Y-102482571D01*
X80029142Y-101720666D02*
X79952952Y-101682571D01*
X79800571Y-101682571D01*
X79724380Y-101720666D01*
X79686285Y-101758761D01*
X79648190Y-101834952D01*
X79648190Y-102063523D01*
X79686285Y-102139714D01*
X79724380Y-102177809D01*
X79800571Y-102215904D01*
X79952952Y-102215904D01*
X80029142Y-102177809D01*
D11*
X81026000Y-50419000D02*
X79883000Y-50419000D01*
X84709000Y-50419000D02*
X83566000Y-50419000D01*
X87884000Y-50419000D02*
X87249000Y-50419000D01*
X93345000Y-50419000D02*
X90424000Y-50419000D01*
D12*
X91038419Y-40809657D02*
X91514609Y-41142990D01*
X91038419Y-41381085D02*
X92038419Y-41381085D01*
X92038419Y-41000133D01*
X91990800Y-40904895D01*
X91943180Y-40857276D01*
X91847942Y-40809657D01*
X91705085Y-40809657D01*
X91609847Y-40857276D01*
X91562228Y-40904895D01*
X91514609Y-41000133D01*
X91514609Y-41381085D01*
X92038419Y-40190609D02*
X92038419Y-40000133D01*
X91990800Y-39904895D01*
X91895561Y-39809657D01*
X91705085Y-39762038D01*
X91371752Y-39762038D01*
X91181276Y-39809657D01*
X91086038Y-39904895D01*
X91038419Y-40000133D01*
X91038419Y-40190609D01*
X91086038Y-40285847D01*
X91181276Y-40381085D01*
X91371752Y-40428704D01*
X91705085Y-40428704D01*
X91895561Y-40381085D01*
X91990800Y-40285847D01*
X92038419Y-40190609D01*
X92038419Y-39428704D02*
X91038419Y-39190609D01*
X91752704Y-39000133D01*
X91038419Y-38809657D01*
X92038419Y-38571561D01*
X92038419Y-37000133D02*
X92038419Y-37190609D01*
X91990800Y-37285847D01*
X91943180Y-37333466D01*
X91800323Y-37428704D01*
X91609847Y-37476323D01*
X91228895Y-37476323D01*
X91133657Y-37428704D01*
X91086038Y-37381085D01*
X91038419Y-37285847D01*
X91038419Y-37095371D01*
X91086038Y-37000133D01*
X91133657Y-36952514D01*
X91228895Y-36904895D01*
X91466990Y-36904895D01*
X91562228Y-36952514D01*
X91609847Y-37000133D01*
X91657466Y-37095371D01*
X91657466Y-37285847D01*
X91609847Y-37381085D01*
X91562228Y-37428704D01*
X91466990Y-37476323D01*
X91038419Y-64558657D02*
X91514609Y-64891990D01*
X91038419Y-65130085D02*
X92038419Y-65130085D01*
X92038419Y-64749133D01*
X91990800Y-64653895D01*
X91943180Y-64606276D01*
X91847942Y-64558657D01*
X91705085Y-64558657D01*
X91609847Y-64606276D01*
X91562228Y-64653895D01*
X91514609Y-64749133D01*
X91514609Y-65130085D01*
X92038419Y-63939609D02*
X92038419Y-63749133D01*
X91990800Y-63653895D01*
X91895561Y-63558657D01*
X91705085Y-63511038D01*
X91371752Y-63511038D01*
X91181276Y-63558657D01*
X91086038Y-63653895D01*
X91038419Y-63749133D01*
X91038419Y-63939609D01*
X91086038Y-64034847D01*
X91181276Y-64130085D01*
X91371752Y-64177704D01*
X91705085Y-64177704D01*
X91895561Y-64130085D01*
X91990800Y-64034847D01*
X92038419Y-63939609D01*
X92038419Y-63177704D02*
X91038419Y-62939609D01*
X91752704Y-62749133D01*
X91038419Y-62558657D01*
X92038419Y-62320561D01*
X92038419Y-60701514D02*
X92038419Y-61177704D01*
X91562228Y-61225323D01*
X91609847Y-61177704D01*
X91657466Y-61082466D01*
X91657466Y-60844371D01*
X91609847Y-60749133D01*
X91562228Y-60701514D01*
X91466990Y-60653895D01*
X91228895Y-60653895D01*
X91133657Y-60701514D01*
X91086038Y-60749133D01*
X91038419Y-60844371D01*
X91038419Y-61082466D01*
X91086038Y-61177704D01*
X91133657Y-61225323D01*
X91114619Y-83634057D02*
X91590809Y-83967390D01*
X91114619Y-84205485D02*
X92114619Y-84205485D01*
X92114619Y-83824533D01*
X92067000Y-83729295D01*
X92019380Y-83681676D01*
X91924142Y-83634057D01*
X91781285Y-83634057D01*
X91686047Y-83681676D01*
X91638428Y-83729295D01*
X91590809Y-83824533D01*
X91590809Y-84205485D01*
X92114619Y-83015009D02*
X92114619Y-82824533D01*
X92067000Y-82729295D01*
X91971761Y-82634057D01*
X91781285Y-82586438D01*
X91447952Y-82586438D01*
X91257476Y-82634057D01*
X91162238Y-82729295D01*
X91114619Y-82824533D01*
X91114619Y-83015009D01*
X91162238Y-83110247D01*
X91257476Y-83205485D01*
X91447952Y-83253104D01*
X91781285Y-83253104D01*
X91971761Y-83205485D01*
X92067000Y-83110247D01*
X92114619Y-83015009D01*
X92114619Y-82253104D02*
X91114619Y-82015009D01*
X91828904Y-81824533D01*
X91114619Y-81634057D01*
X92114619Y-81395961D01*
X91781285Y-79824533D02*
X91114619Y-79824533D01*
X92162238Y-80062628D02*
X91447952Y-80300723D01*
X91447952Y-79681676D01*
X91038419Y-102760257D02*
X91514609Y-103093590D01*
X91038419Y-103331685D02*
X92038419Y-103331685D01*
X92038419Y-102950733D01*
X91990800Y-102855495D01*
X91943180Y-102807876D01*
X91847942Y-102760257D01*
X91705085Y-102760257D01*
X91609847Y-102807876D01*
X91562228Y-102855495D01*
X91514609Y-102950733D01*
X91514609Y-103331685D01*
X92038419Y-102141209D02*
X92038419Y-101950733D01*
X91990800Y-101855495D01*
X91895561Y-101760257D01*
X91705085Y-101712638D01*
X91371752Y-101712638D01*
X91181276Y-101760257D01*
X91086038Y-101855495D01*
X91038419Y-101950733D01*
X91038419Y-102141209D01*
X91086038Y-102236447D01*
X91181276Y-102331685D01*
X91371752Y-102379304D01*
X91705085Y-102379304D01*
X91895561Y-102331685D01*
X91990800Y-102236447D01*
X92038419Y-102141209D01*
X92038419Y-101379304D02*
X91038419Y-101141209D01*
X91752704Y-100950733D01*
X91038419Y-100760257D01*
X92038419Y-100522161D01*
X92038419Y-99474542D02*
X92038419Y-98855495D01*
X91657466Y-99188828D01*
X91657466Y-99045971D01*
X91609847Y-98950733D01*
X91562228Y-98903114D01*
X91466990Y-98855495D01*
X91228895Y-98855495D01*
X91133657Y-98903114D01*
X91086038Y-98950733D01*
X91038419Y-99045971D01*
X91038419Y-99331685D01*
X91086038Y-99426923D01*
X91133657Y-99474542D01*
X90352619Y-121683257D02*
X90828809Y-122016590D01*
X90352619Y-122254685D02*
X91352619Y-122254685D01*
X91352619Y-121873733D01*
X91305000Y-121778495D01*
X91257380Y-121730876D01*
X91162142Y-121683257D01*
X91019285Y-121683257D01*
X90924047Y-121730876D01*
X90876428Y-121778495D01*
X90828809Y-121873733D01*
X90828809Y-122254685D01*
X91352619Y-121064209D02*
X91352619Y-120873733D01*
X91305000Y-120778495D01*
X91209761Y-120683257D01*
X91019285Y-120635638D01*
X90685952Y-120635638D01*
X90495476Y-120683257D01*
X90400238Y-120778495D01*
X90352619Y-120873733D01*
X90352619Y-121064209D01*
X90400238Y-121159447D01*
X90495476Y-121254685D01*
X90685952Y-121302304D01*
X91019285Y-121302304D01*
X91209761Y-121254685D01*
X91305000Y-121159447D01*
X91352619Y-121064209D01*
X91352619Y-120302304D02*
X90352619Y-120064209D01*
X91066904Y-119873733D01*
X90352619Y-119683257D01*
X91352619Y-119445161D01*
X91257380Y-118349923D02*
X91305000Y-118302304D01*
X91352619Y-118207066D01*
X91352619Y-117968971D01*
X91305000Y-117873733D01*
X91257380Y-117826114D01*
X91162142Y-117778495D01*
X91066904Y-117778495D01*
X90924047Y-117826114D01*
X90352619Y-118397542D01*
X90352619Y-117778495D01*
X90378019Y-140784057D02*
X90854209Y-141117390D01*
X90378019Y-141355485D02*
X91378019Y-141355485D01*
X91378019Y-140974533D01*
X91330400Y-140879295D01*
X91282780Y-140831676D01*
X91187542Y-140784057D01*
X91044685Y-140784057D01*
X90949447Y-140831676D01*
X90901828Y-140879295D01*
X90854209Y-140974533D01*
X90854209Y-141355485D01*
X91378019Y-140165009D02*
X91378019Y-139974533D01*
X91330400Y-139879295D01*
X91235161Y-139784057D01*
X91044685Y-139736438D01*
X90711352Y-139736438D01*
X90520876Y-139784057D01*
X90425638Y-139879295D01*
X90378019Y-139974533D01*
X90378019Y-140165009D01*
X90425638Y-140260247D01*
X90520876Y-140355485D01*
X90711352Y-140403104D01*
X91044685Y-140403104D01*
X91235161Y-140355485D01*
X91330400Y-140260247D01*
X91378019Y-140165009D01*
X91378019Y-139403104D02*
X90378019Y-139165009D01*
X91092304Y-138974533D01*
X90378019Y-138784057D01*
X91378019Y-138545961D01*
X90378019Y-136879295D02*
X90378019Y-137450723D01*
X90378019Y-137165009D02*
X91378019Y-137165009D01*
X91235161Y-137260247D01*
X91139923Y-137355485D01*
X91092304Y-137450723D01*
D11*
X91211400Y-129540000D02*
X89865200Y-129540000D01*
X94462600Y-110490000D02*
X90398600Y-110490000D01*
X94513400Y-91440000D02*
X90271600Y-91465400D01*
X94513400Y-72390000D02*
X90170000Y-72390000D01*
X94488000Y-53314600D02*
X88392000Y-53314600D01*
X94488000Y-48590200D02*
X88392000Y-48590200D01*
D10*
X89958419Y-146975438D02*
X90958419Y-146975438D01*
X90577466Y-146975438D02*
X90625085Y-146880200D01*
X90625085Y-146689723D01*
X90577466Y-146594485D01*
X90529847Y-146546866D01*
X90434609Y-146499247D01*
X90148895Y-146499247D01*
X90053657Y-146546866D01*
X90006038Y-146594485D01*
X89958419Y-146689723D01*
X89958419Y-146880200D01*
X90006038Y-146975438D01*
X90625085Y-146165914D02*
X89958419Y-145927819D01*
X90625085Y-145689723D02*
X89958419Y-145927819D01*
X89720323Y-146023057D01*
X89672704Y-146070676D01*
X89625085Y-146165914D01*
X88975085Y-146546866D02*
X88975085Y-146165914D01*
X89308419Y-146404009D02*
X88451276Y-146404009D01*
X88356038Y-146356390D01*
X88308419Y-146261152D01*
X88308419Y-146165914D01*
X88308419Y-145832580D02*
X89308419Y-145832580D01*
X88308419Y-145404009D02*
X88832228Y-145404009D01*
X88927466Y-145451628D01*
X88975085Y-145546866D01*
X88975085Y-145689723D01*
X88927466Y-145784961D01*
X88879847Y-145832580D01*
X88975085Y-144927819D02*
X87975085Y-144927819D01*
X88927466Y-144927819D02*
X88975085Y-144832580D01*
X88975085Y-144642104D01*
X88927466Y-144546866D01*
X88879847Y-144499247D01*
X88784609Y-144451628D01*
X88498895Y-144451628D01*
X88403657Y-144499247D01*
X88356038Y-144546866D01*
X88308419Y-144642104D01*
X88308419Y-144832580D01*
X88356038Y-144927819D01*
X88308419Y-143880200D02*
X88356038Y-143975438D01*
X88403657Y-144023057D01*
X88498895Y-144070676D01*
X88784609Y-144070676D01*
X88879847Y-144023057D01*
X88927466Y-143975438D01*
X88975085Y-143880200D01*
X88975085Y-143737342D01*
X88927466Y-143642104D01*
X88879847Y-143594485D01*
X88784609Y-143546866D01*
X88498895Y-143546866D01*
X88403657Y-143594485D01*
X88356038Y-143642104D01*
X88308419Y-143737342D01*
X88308419Y-143880200D01*
X88308419Y-142975438D02*
X88356038Y-143070676D01*
X88451276Y-143118295D01*
X89308419Y-143118295D01*
X88308419Y-142451628D02*
X88356038Y-142546866D01*
X88451276Y-142594485D01*
X89308419Y-142594485D01*
D13*
X92149714Y-146183050D02*
X93949714Y-145958050D01*
X93949714Y-145272335D01*
X93864000Y-145111621D01*
X93778285Y-145036621D01*
X93606857Y-144972335D01*
X93349714Y-145004478D01*
X93178285Y-145111621D01*
X93092571Y-145208050D01*
X93006857Y-145390192D01*
X93006857Y-146075907D01*
X93949714Y-143815192D02*
X93949714Y-143472335D01*
X93864000Y-143311621D01*
X93692571Y-143161621D01*
X93349714Y-143118764D01*
X92749714Y-143193764D01*
X92406857Y-143322335D01*
X92235428Y-143515192D01*
X92149714Y-143697335D01*
X92149714Y-144040192D01*
X92235428Y-144200907D01*
X92406857Y-144350907D01*
X92749714Y-144393764D01*
X93349714Y-144318764D01*
X93692571Y-144190192D01*
X93864000Y-143997335D01*
X93949714Y-143815192D01*
X92149714Y-141640192D02*
X92149714Y-142497335D01*
X93949714Y-142272335D01*
X93006857Y-140590192D02*
X92149714Y-140697335D01*
X93949714Y-141072335D02*
X93006857Y-140590192D01*
X93949714Y-139872335D01*
X92149714Y-139497335D02*
X93949714Y-139272335D01*
X92149714Y-138468764D02*
X93178285Y-139111621D01*
X93949714Y-138243764D02*
X92921142Y-139400907D01*
X93092571Y-136979478D02*
X93006857Y-136733050D01*
X92921142Y-136658050D01*
X92749714Y-136593764D01*
X92492571Y-136625907D01*
X92321142Y-136733050D01*
X92235428Y-136829478D01*
X92149714Y-137011621D01*
X92149714Y-137697335D01*
X93949714Y-137472335D01*
X93949714Y-136872335D01*
X93864000Y-136711621D01*
X93778285Y-136636621D01*
X93606857Y-136572335D01*
X93435428Y-136593764D01*
X93264000Y-136700907D01*
X93178285Y-136797335D01*
X93092571Y-136979478D01*
X93092571Y-137579478D01*
X92321142Y-133475907D02*
X92235428Y-133572335D01*
X92149714Y-133840192D01*
X92149714Y-134011621D01*
X92235428Y-134258050D01*
X92406857Y-134408050D01*
X92578285Y-134472335D01*
X92921142Y-134515192D01*
X93178285Y-134483050D01*
X93521142Y-134354478D01*
X93692571Y-134247335D01*
X93864000Y-134054478D01*
X93949714Y-133786621D01*
X93949714Y-133615192D01*
X93864000Y-133368764D01*
X93778285Y-133293764D01*
X93949714Y-132158050D02*
X93949714Y-131815192D01*
X93864000Y-131654478D01*
X93692571Y-131504478D01*
X93349714Y-131461621D01*
X92749714Y-131536621D01*
X92406857Y-131665192D01*
X92235428Y-131858050D01*
X92149714Y-132040192D01*
X92149714Y-132383050D01*
X92235428Y-132543764D01*
X92406857Y-132693764D01*
X92749714Y-132736621D01*
X93349714Y-132661621D01*
X93692571Y-132533050D01*
X93864000Y-132340192D01*
X93949714Y-132158050D01*
X92149714Y-130840192D02*
X93949714Y-130615192D01*
X92149714Y-129811621D01*
X93949714Y-129586621D01*
X92149714Y-128954478D02*
X93949714Y-128729478D01*
X92149714Y-127925907D01*
X93949714Y-127700907D01*
X93092571Y-126950907D02*
X93092571Y-126350907D01*
X92149714Y-126211621D02*
X92149714Y-127068764D01*
X93949714Y-126843764D01*
X93949714Y-125986621D01*
X92321142Y-124390192D02*
X92235428Y-124486621D01*
X92149714Y-124754478D01*
X92149714Y-124925907D01*
X92235428Y-125172335D01*
X92406857Y-125322335D01*
X92578285Y-125386621D01*
X92921142Y-125429478D01*
X93178285Y-125397335D01*
X93521142Y-125268764D01*
X93692571Y-125161621D01*
X93864000Y-124968764D01*
X93949714Y-124700907D01*
X93949714Y-124529478D01*
X93864000Y-124283050D01*
X93778285Y-124208050D01*
X93949714Y-123672335D02*
X93949714Y-122643764D01*
X92149714Y-123383050D02*
X93949714Y-123158050D01*
X93949714Y-121700907D02*
X93949714Y-121358050D01*
X93864000Y-121197335D01*
X93692571Y-121047335D01*
X93349714Y-121004478D01*
X92749714Y-121079478D01*
X92406857Y-121208050D01*
X92235428Y-121400907D01*
X92149714Y-121583050D01*
X92149714Y-121925907D01*
X92235428Y-122086621D01*
X92406857Y-122236621D01*
X92749714Y-122279478D01*
X93349714Y-122204478D01*
X93692571Y-122075907D01*
X93864000Y-121883050D01*
X93949714Y-121700907D01*
X92149714Y-119354478D02*
X93006857Y-119847335D01*
X92149714Y-120383050D02*
X93949714Y-120158050D01*
X93949714Y-119472335D01*
X93864000Y-119311621D01*
X93778285Y-119236621D01*
X93606857Y-119172335D01*
X93349714Y-119204478D01*
X93178285Y-119311621D01*
X93092571Y-119408050D01*
X93006857Y-119590192D01*
X93006857Y-120275907D01*
X92835428Y-118497335D02*
X92835428Y-117125907D01*
X92149714Y-115325907D02*
X93006857Y-115818764D01*
X92149714Y-116354478D02*
X93949714Y-116129478D01*
X93949714Y-115443764D01*
X93864000Y-115283050D01*
X93778285Y-115208050D01*
X93606857Y-115143764D01*
X93349714Y-115175907D01*
X93178285Y-115283050D01*
X93092571Y-115379478D01*
X93006857Y-115561621D01*
X93006857Y-116247335D01*
D10*
X80537000Y-124608071D02*
X80575095Y-124684261D01*
X80575095Y-124798547D01*
X80537000Y-124912833D01*
X80460809Y-124989023D01*
X80384619Y-125027119D01*
X80232238Y-125065214D01*
X80117952Y-125065214D01*
X79965571Y-125027119D01*
X79889380Y-124989023D01*
X79813190Y-124912833D01*
X79775095Y-124798547D01*
X79775095Y-124722357D01*
X79813190Y-124608071D01*
X79851285Y-124569976D01*
X80117952Y-124569976D01*
X80117952Y-124722357D01*
X79775095Y-124227119D02*
X80575095Y-124227119D01*
X79775095Y-123769976D01*
X80575095Y-123769976D01*
X79775095Y-123389023D02*
X80575095Y-123389023D01*
X80575095Y-123198547D01*
X80537000Y-123084261D01*
X80460809Y-123008071D01*
X80384619Y-122969976D01*
X80232238Y-122931880D01*
X80117952Y-122931880D01*
X79965571Y-122969976D01*
X79889380Y-123008071D01*
X79813190Y-123084261D01*
X79775095Y-123198547D01*
X79775095Y-123389023D01*
X84510619Y-134151619D02*
X85177285Y-134151619D01*
X84986809Y-134151619D02*
X85082047Y-134104000D01*
X85129666Y-134056380D01*
X85177285Y-133961142D01*
X85177285Y-133865904D01*
X85415380Y-133580190D02*
X85463000Y-133532571D01*
X85510619Y-133437333D01*
X85510619Y-133199238D01*
X85463000Y-133104000D01*
X85415380Y-133056380D01*
X85320142Y-133008761D01*
X85224904Y-133008761D01*
X85082047Y-133056380D01*
X84510619Y-133627809D01*
X84510619Y-133008761D01*
X80704095Y-129546285D02*
X80704095Y-129927238D01*
X81504095Y-129927238D01*
X81123142Y-129279619D02*
X81123142Y-129012952D01*
X80704095Y-128898666D02*
X80704095Y-129279619D01*
X81504095Y-129279619D01*
X81504095Y-128898666D01*
X80704095Y-128555809D02*
X81504095Y-128555809D01*
X81504095Y-128365333D01*
X81466000Y-128251047D01*
X81389809Y-128174857D01*
X81313619Y-128136761D01*
X81161238Y-128098666D01*
X81046952Y-128098666D01*
X80894571Y-128136761D01*
X80818380Y-128174857D01*
X80742190Y-128251047D01*
X80704095Y-128365333D01*
X80704095Y-128555809D01*
X79354095Y-129412952D02*
X79887428Y-129412952D01*
X80154095Y-129412952D02*
X80116000Y-129451047D01*
X80077904Y-129412952D01*
X80116000Y-129374857D01*
X80154095Y-129412952D01*
X80077904Y-129412952D01*
X80077904Y-129070095D02*
X80116000Y-129032000D01*
X80154095Y-128955809D01*
X80154095Y-128765333D01*
X80116000Y-128689142D01*
X80077904Y-128651047D01*
X80001714Y-128612952D01*
X79925523Y-128612952D01*
X79811238Y-128651047D01*
X79354095Y-129108190D01*
X79354095Y-128612952D01*
X88447619Y-140755619D02*
X89114285Y-140755619D01*
X88923809Y-140755619D02*
X89019047Y-140708000D01*
X89066666Y-140660380D01*
X89114285Y-140565142D01*
X89114285Y-140469904D01*
X88447619Y-139612761D02*
X88447619Y-140184190D01*
X88447619Y-139898476D02*
X89447619Y-139898476D01*
X89304761Y-139993714D01*
X89209523Y-140088952D01*
X89161904Y-140184190D01*
X87875619Y-137294857D02*
X87875619Y-137771047D01*
X88875619Y-137771047D01*
X88399428Y-136961523D02*
X88399428Y-136628190D01*
X87875619Y-136485333D02*
X87875619Y-136961523D01*
X88875619Y-136961523D01*
X88875619Y-136485333D01*
X87875619Y-136056761D02*
X88875619Y-136056761D01*
X88875619Y-135818666D01*
X88828000Y-135675809D01*
X88732761Y-135580571D01*
X88637523Y-135532952D01*
X88447047Y-135485333D01*
X88304190Y-135485333D01*
X88113714Y-135532952D01*
X88018476Y-135580571D01*
X87923238Y-135675809D01*
X87875619Y-135818666D01*
X87875619Y-136056761D01*
X86225619Y-137128190D02*
X86892285Y-137128190D01*
X87225619Y-137128190D02*
X87178000Y-137175809D01*
X87130380Y-137128190D01*
X87178000Y-137080571D01*
X87225619Y-137128190D01*
X87130380Y-137128190D01*
X86225619Y-136128190D02*
X86225619Y-136699619D01*
X86225619Y-136413904D02*
X87225619Y-136413904D01*
X87082761Y-136509142D01*
X86987523Y-136604380D01*
X86939904Y-136699619D01*
X81172000Y-82270523D02*
X81210095Y-82346714D01*
X81210095Y-82461000D01*
X81172000Y-82575285D01*
X81095809Y-82651476D01*
X81019619Y-82689571D01*
X80867238Y-82727666D01*
X80752952Y-82727666D01*
X80600571Y-82689571D01*
X80524380Y-82651476D01*
X80448190Y-82575285D01*
X80410095Y-82461000D01*
X80410095Y-82384809D01*
X80448190Y-82270523D01*
X80486285Y-82232428D01*
X80752952Y-82232428D01*
X80752952Y-82384809D01*
X80410095Y-81889571D02*
X81210095Y-81889571D01*
X80410095Y-81432428D01*
X81210095Y-81432428D01*
X80410095Y-81051476D02*
X81210095Y-81051476D01*
X81210095Y-80861000D01*
X81172000Y-80746714D01*
X81095809Y-80670523D01*
X81019619Y-80632428D01*
X80867238Y-80594333D01*
X80752952Y-80594333D01*
X80600571Y-80632428D01*
X80524380Y-80670523D01*
X80448190Y-80746714D01*
X80410095Y-80861000D01*
X80410095Y-81051476D01*
X83077000Y-59518238D02*
X83115095Y-59594428D01*
X83115095Y-59708714D01*
X83077000Y-59823000D01*
X83000809Y-59899190D01*
X82924619Y-59937285D01*
X82772238Y-59975380D01*
X82657952Y-59975380D01*
X82505571Y-59937285D01*
X82429380Y-59899190D01*
X82353190Y-59823000D01*
X82315095Y-59708714D01*
X82315095Y-59632523D01*
X82353190Y-59518238D01*
X82391285Y-59480142D01*
X82657952Y-59480142D01*
X82657952Y-59632523D01*
X82315095Y-59137285D02*
X83115095Y-59137285D01*
X82315095Y-58680142D01*
X83115095Y-58680142D01*
X82315095Y-58299190D02*
X83115095Y-58299190D01*
X83115095Y-58108714D01*
X83077000Y-57994428D01*
X83000809Y-57918238D01*
X82924619Y-57880142D01*
X82772238Y-57842047D01*
X82657952Y-57842047D01*
X82505571Y-57880142D01*
X82429380Y-57918238D01*
X82353190Y-57994428D01*
X82315095Y-58108714D01*
X82315095Y-58299190D01*
X82315095Y-56508714D02*
X82315095Y-56889666D01*
X83115095Y-56889666D01*
X82734142Y-56242047D02*
X82734142Y-55975380D01*
X82315095Y-55861095D02*
X82315095Y-56242047D01*
X83115095Y-56242047D01*
X83115095Y-55861095D01*
X82315095Y-55518238D02*
X83115095Y-55518238D01*
X83115095Y-55327761D01*
X83077000Y-55213476D01*
X83000809Y-55137285D01*
X82924619Y-55099190D01*
X82772238Y-55061095D01*
X82657952Y-55061095D01*
X82505571Y-55099190D01*
X82429380Y-55137285D01*
X82353190Y-55213476D01*
X82315095Y-55327761D01*
X82315095Y-55518238D01*
X82619857Y-54718238D02*
X82619857Y-54108714D01*
X82315095Y-54413476D02*
X82924619Y-54413476D01*
X82734190Y-69347952D02*
X82696095Y-69233666D01*
X82696095Y-69043190D01*
X82734190Y-68967000D01*
X82772285Y-68928904D01*
X82848476Y-68890809D01*
X82924666Y-68890809D01*
X83000857Y-68928904D01*
X83038952Y-68967000D01*
X83077047Y-69043190D01*
X83115142Y-69195571D01*
X83153238Y-69271761D01*
X83191333Y-69309857D01*
X83267523Y-69347952D01*
X83343714Y-69347952D01*
X83419904Y-69309857D01*
X83458000Y-69271761D01*
X83496095Y-69195571D01*
X83496095Y-69005095D01*
X83458000Y-68890809D01*
X82696095Y-68547952D02*
X83496095Y-68547952D01*
X83115142Y-68547952D02*
X83115142Y-68090809D01*
X82696095Y-68090809D02*
X83496095Y-68090809D01*
X82696095Y-67709857D02*
X83496095Y-67709857D01*
X83115142Y-67062238D02*
X83115142Y-67328904D01*
X82696095Y-67328904D02*
X83496095Y-67328904D01*
X83496095Y-66947952D01*
X83496095Y-66757476D02*
X83496095Y-66300333D01*
X82696095Y-66528904D02*
X83496095Y-66528904D01*
X83496095Y-65271761D02*
X83496095Y-65119380D01*
X83458000Y-65043190D01*
X83381809Y-64967000D01*
X83229428Y-64928904D01*
X82962761Y-64928904D01*
X82810380Y-64967000D01*
X82734190Y-65043190D01*
X82696095Y-65119380D01*
X82696095Y-65271761D01*
X82734190Y-65347952D01*
X82810380Y-65424142D01*
X82962761Y-65462238D01*
X83229428Y-65462238D01*
X83381809Y-65424142D01*
X83458000Y-65347952D01*
X83496095Y-65271761D01*
X83229428Y-64243190D02*
X82696095Y-64243190D01*
X83229428Y-64586047D02*
X82810380Y-64586047D01*
X82734190Y-64547952D01*
X82696095Y-64471761D01*
X82696095Y-64357476D01*
X82734190Y-64281285D01*
X82772285Y-64243190D01*
X83229428Y-63976523D02*
X83229428Y-63671761D01*
X83496095Y-63862238D02*
X82810380Y-63862238D01*
X82734190Y-63824142D01*
X82696095Y-63747952D01*
X82696095Y-63671761D01*
X83496095Y-63024142D02*
X83496095Y-63405095D01*
X83115142Y-63443190D01*
X83153238Y-63405095D01*
X83191333Y-63328904D01*
X83191333Y-63138428D01*
X83153238Y-63062238D01*
X83115142Y-63024142D01*
X83038952Y-62986047D01*
X82848476Y-62986047D01*
X82772285Y-63024142D01*
X82734190Y-63062238D01*
X82696095Y-63138428D01*
X82696095Y-63328904D01*
X82734190Y-63405095D01*
X82772285Y-63443190D01*
X81017619Y-71578214D02*
X81017619Y-72054404D01*
X82017619Y-72054404D01*
X81065238Y-70863928D02*
X81017619Y-70959166D01*
X81017619Y-71149642D01*
X81065238Y-71244880D01*
X81160476Y-71292500D01*
X81541428Y-71292500D01*
X81636666Y-71244880D01*
X81684285Y-71149642D01*
X81684285Y-70959166D01*
X81636666Y-70863928D01*
X81541428Y-70816309D01*
X81446190Y-70816309D01*
X81350952Y-71292500D01*
X81017619Y-69959166D02*
X82017619Y-69959166D01*
X81065238Y-69959166D02*
X81017619Y-70054404D01*
X81017619Y-70244880D01*
X81065238Y-70340119D01*
X81112857Y-70387738D01*
X81208095Y-70435357D01*
X81493809Y-70435357D01*
X81589047Y-70387738D01*
X81636666Y-70340119D01*
X81684285Y-70244880D01*
X81684285Y-70054404D01*
X81636666Y-69959166D01*
X79367619Y-72054404D02*
X80034285Y-72054404D01*
X80367619Y-72054404D02*
X80320000Y-72102023D01*
X80272380Y-72054404D01*
X80320000Y-72006785D01*
X80367619Y-72054404D01*
X80272380Y-72054404D01*
X80367619Y-71673452D02*
X80367619Y-71054404D01*
X79986666Y-71387738D01*
X79986666Y-71244880D01*
X79939047Y-71149642D01*
X79891428Y-71102023D01*
X79796190Y-71054404D01*
X79558095Y-71054404D01*
X79462857Y-71102023D01*
X79415238Y-71149642D01*
X79367619Y-71244880D01*
X79367619Y-71530595D01*
X79415238Y-71625833D01*
X79462857Y-71673452D01*
X80319619Y-79414619D02*
X80986285Y-79414619D01*
X80795809Y-79414619D02*
X80891047Y-79367000D01*
X80938666Y-79319380D01*
X80986285Y-79224142D01*
X80986285Y-79128904D01*
X81319619Y-78890809D02*
X81319619Y-78271761D01*
X80938666Y-78605095D01*
X80938666Y-78462238D01*
X80891047Y-78367000D01*
X80843428Y-78319380D01*
X80748190Y-78271761D01*
X80510095Y-78271761D01*
X80414857Y-78319380D01*
X80367238Y-78367000D01*
X80319619Y-78462238D01*
X80319619Y-78747952D01*
X80367238Y-78843190D01*
X80414857Y-78890809D01*
X87812619Y-70397619D02*
X88479285Y-70397619D01*
X88288809Y-70397619D02*
X88384047Y-70350000D01*
X88431666Y-70302380D01*
X88479285Y-70207142D01*
X88479285Y-70111904D01*
X88479285Y-69350000D02*
X87812619Y-69350000D01*
X88860238Y-69588095D02*
X88145952Y-69826190D01*
X88145952Y-69207142D01*
X89526619Y-67952857D02*
X89526619Y-68429047D01*
X90526619Y-68429047D01*
X90050428Y-67619523D02*
X90050428Y-67286190D01*
X89526619Y-67143333D02*
X89526619Y-67619523D01*
X90526619Y-67619523D01*
X90526619Y-67143333D01*
X89526619Y-66714761D02*
X90526619Y-66714761D01*
X90526619Y-66476666D01*
X90479000Y-66333809D01*
X90383761Y-66238571D01*
X90288523Y-66190952D01*
X90098047Y-66143333D01*
X89955190Y-66143333D01*
X89764714Y-66190952D01*
X89669476Y-66238571D01*
X89574238Y-66333809D01*
X89526619Y-66476666D01*
X89526619Y-66714761D01*
X87876619Y-67786190D02*
X88543285Y-67786190D01*
X88876619Y-67786190D02*
X88829000Y-67833809D01*
X88781380Y-67786190D01*
X88829000Y-67738571D01*
X88876619Y-67786190D01*
X88781380Y-67786190D01*
X88543285Y-66881428D02*
X87876619Y-66881428D01*
X88924238Y-67119523D02*
X88209952Y-67357619D01*
X88209952Y-66738571D01*
X89399619Y-56522857D02*
X89399619Y-56999047D01*
X90399619Y-56999047D01*
X89923428Y-56189523D02*
X89923428Y-55856190D01*
X89399619Y-55713333D02*
X89399619Y-56189523D01*
X90399619Y-56189523D01*
X90399619Y-55713333D01*
X89399619Y-55284761D02*
X90399619Y-55284761D01*
X90399619Y-55046666D01*
X90352000Y-54903809D01*
X90256761Y-54808571D01*
X90161523Y-54760952D01*
X89971047Y-54713333D01*
X89828190Y-54713333D01*
X89637714Y-54760952D01*
X89542476Y-54808571D01*
X89447238Y-54903809D01*
X89399619Y-55046666D01*
X89399619Y-55284761D01*
X87749619Y-56356190D02*
X88416285Y-56356190D01*
X88749619Y-56356190D02*
X88702000Y-56403809D01*
X88654380Y-56356190D01*
X88702000Y-56308571D01*
X88749619Y-56356190D01*
X88654380Y-56356190D01*
X88749619Y-55403809D02*
X88749619Y-55880000D01*
X88273428Y-55927619D01*
X88321047Y-55880000D01*
X88368666Y-55784761D01*
X88368666Y-55546666D01*
X88321047Y-55451428D01*
X88273428Y-55403809D01*
X88178190Y-55356190D01*
X87940095Y-55356190D01*
X87844857Y-55403809D01*
X87797238Y-55451428D01*
X87749619Y-55546666D01*
X87749619Y-55784761D01*
X87797238Y-55880000D01*
X87844857Y-55927619D01*
X87812619Y-59094619D02*
X88479285Y-59094619D01*
X88288809Y-59094619D02*
X88384047Y-59047000D01*
X88431666Y-58999380D01*
X88479285Y-58904142D01*
X88479285Y-58808904D01*
X88812619Y-57999380D02*
X88812619Y-58475571D01*
X88336428Y-58523190D01*
X88384047Y-58475571D01*
X88431666Y-58380333D01*
X88431666Y-58142238D01*
X88384047Y-58047000D01*
X88336428Y-57999380D01*
X88241190Y-57951761D01*
X88003095Y-57951761D01*
X87907857Y-57999380D01*
X87860238Y-58047000D01*
X87812619Y-58142238D01*
X87812619Y-58380333D01*
X87860238Y-58475571D01*
X87907857Y-58523190D01*
X89399619Y-33789857D02*
X89399619Y-34266047D01*
X90399619Y-34266047D01*
X89923428Y-33456523D02*
X89923428Y-33123190D01*
X89399619Y-32980333D02*
X89399619Y-33456523D01*
X90399619Y-33456523D01*
X90399619Y-32980333D01*
X89399619Y-32551761D02*
X90399619Y-32551761D01*
X90399619Y-32313666D01*
X90352000Y-32170809D01*
X90256761Y-32075571D01*
X90161523Y-32027952D01*
X89971047Y-31980333D01*
X89828190Y-31980333D01*
X89637714Y-32027952D01*
X89542476Y-32075571D01*
X89447238Y-32170809D01*
X89399619Y-32313666D01*
X89399619Y-32551761D01*
X87749619Y-33623190D02*
X88416285Y-33623190D01*
X88749619Y-33623190D02*
X88702000Y-33670809D01*
X88654380Y-33623190D01*
X88702000Y-33575571D01*
X88749619Y-33623190D01*
X88654380Y-33623190D01*
X88749619Y-32718428D02*
X88749619Y-32908904D01*
X88702000Y-33004142D01*
X88654380Y-33051761D01*
X88511523Y-33147000D01*
X88321047Y-33194619D01*
X87940095Y-33194619D01*
X87844857Y-33147000D01*
X87797238Y-33099380D01*
X87749619Y-33004142D01*
X87749619Y-32813666D01*
X87797238Y-32718428D01*
X87844857Y-32670809D01*
X87940095Y-32623190D01*
X88178190Y-32623190D01*
X88273428Y-32670809D01*
X88321047Y-32718428D01*
X88368666Y-32813666D01*
X88368666Y-33004142D01*
X88321047Y-33099380D01*
X88273428Y-33147000D01*
X88178190Y-33194619D01*
X86669619Y-36996619D02*
X87336285Y-36996619D01*
X87145809Y-36996619D02*
X87241047Y-36949000D01*
X87288666Y-36901380D01*
X87336285Y-36806142D01*
X87336285Y-36710904D01*
X87669619Y-35949000D02*
X87669619Y-36139476D01*
X87622000Y-36234714D01*
X87574380Y-36282333D01*
X87431523Y-36377571D01*
X87241047Y-36425190D01*
X86860095Y-36425190D01*
X86764857Y-36377571D01*
X86717238Y-36329952D01*
X86669619Y-36234714D01*
X86669619Y-36044238D01*
X86717238Y-35949000D01*
X86764857Y-35901380D01*
X86860095Y-35853761D01*
X87098190Y-35853761D01*
X87193428Y-35901380D01*
X87241047Y-35949000D01*
X87288666Y-36044238D01*
X87288666Y-36234714D01*
X87241047Y-36329952D01*
X87193428Y-36377571D01*
X87098190Y-36425190D01*
X80194190Y-44201952D02*
X80156095Y-44087666D01*
X80156095Y-43897190D01*
X80194190Y-43821000D01*
X80232285Y-43782904D01*
X80308476Y-43744809D01*
X80384666Y-43744809D01*
X80460857Y-43782904D01*
X80498952Y-43821000D01*
X80537047Y-43897190D01*
X80575142Y-44049571D01*
X80613238Y-44125761D01*
X80651333Y-44163857D01*
X80727523Y-44201952D01*
X80803714Y-44201952D01*
X80879904Y-44163857D01*
X80918000Y-44125761D01*
X80956095Y-44049571D01*
X80956095Y-43859095D01*
X80918000Y-43744809D01*
X80156095Y-43401952D02*
X80956095Y-43401952D01*
X80575142Y-43401952D02*
X80575142Y-42944809D01*
X80156095Y-42944809D02*
X80956095Y-42944809D01*
X80156095Y-42563857D02*
X80956095Y-42563857D01*
X80575142Y-41916238D02*
X80575142Y-42182904D01*
X80156095Y-42182904D02*
X80956095Y-42182904D01*
X80956095Y-41801952D01*
X80956095Y-41611476D02*
X80956095Y-41154333D01*
X80156095Y-41382904D02*
X80956095Y-41382904D01*
X80956095Y-40125761D02*
X80956095Y-39973380D01*
X80918000Y-39897190D01*
X80841809Y-39821000D01*
X80689428Y-39782904D01*
X80422761Y-39782904D01*
X80270380Y-39821000D01*
X80194190Y-39897190D01*
X80156095Y-39973380D01*
X80156095Y-40125761D01*
X80194190Y-40201952D01*
X80270380Y-40278142D01*
X80422761Y-40316238D01*
X80689428Y-40316238D01*
X80841809Y-40278142D01*
X80918000Y-40201952D01*
X80956095Y-40125761D01*
X80689428Y-39097190D02*
X80156095Y-39097190D01*
X80689428Y-39440047D02*
X80270380Y-39440047D01*
X80194190Y-39401952D01*
X80156095Y-39325761D01*
X80156095Y-39211476D01*
X80194190Y-39135285D01*
X80232285Y-39097190D01*
X80689428Y-38830523D02*
X80689428Y-38525761D01*
X80956095Y-38716238D02*
X80270380Y-38716238D01*
X80194190Y-38678142D01*
X80156095Y-38601952D01*
X80156095Y-38525761D01*
X80956095Y-37916238D02*
X80956095Y-38068619D01*
X80918000Y-38144809D01*
X80879904Y-38182904D01*
X80765619Y-38259095D01*
X80613238Y-38297190D01*
X80308476Y-38297190D01*
X80232285Y-38259095D01*
X80194190Y-38221000D01*
X80156095Y-38144809D01*
X80156095Y-37992428D01*
X80194190Y-37916238D01*
X80232285Y-37878142D01*
X80308476Y-37840047D01*
X80498952Y-37840047D01*
X80575142Y-37878142D01*
X80613238Y-37916238D01*
X80651333Y-37992428D01*
X80651333Y-38144809D01*
X80613238Y-38221000D01*
X80575142Y-38259095D01*
X80498952Y-38297190D01*
D11*
%TO.C,J16*%
X79442000Y-59750000D02*
X80772000Y-59750000D01*
X79442000Y-58420000D02*
X79442000Y-59750000D01*
X79442000Y-57150000D02*
X82102000Y-57150000D01*
X82102000Y-57150000D02*
X82102000Y-54550000D01*
X79442000Y-57150000D02*
X79442000Y-54550000D01*
X79442000Y-54550000D02*
X82102000Y-54550000D01*
%TO.C,J26*%
X88113904Y-34290000D02*
X87173452Y-33349548D01*
X87173452Y-35230452D02*
X88113904Y-34290000D01*
X86275426Y-36128478D02*
X84394522Y-34247574D01*
X84394522Y-34247574D02*
X82556045Y-36086051D01*
X86275426Y-36128478D02*
X84436949Y-37966955D01*
X84436949Y-37966955D02*
X82556045Y-36086051D01*
%TO.C,J25*%
X87309000Y-54550000D02*
X85979000Y-54550000D01*
X87309000Y-55880000D02*
X87309000Y-54550000D01*
X87309000Y-57150000D02*
X84649000Y-57150000D01*
X84649000Y-57150000D02*
X84649000Y-59750000D01*
X87309000Y-57150000D02*
X87309000Y-59750000D01*
X87309000Y-59750000D02*
X84649000Y-59750000D01*
%TO.C,J24*%
X87309000Y-65980000D02*
X85979000Y-65980000D01*
X87309000Y-67310000D02*
X87309000Y-65980000D01*
X87309000Y-68580000D02*
X84649000Y-68580000D01*
X84649000Y-68580000D02*
X84649000Y-71180000D01*
X87309000Y-68580000D02*
X87309000Y-71180000D01*
X87309000Y-71180000D02*
X84649000Y-71180000D01*
%TO.C,J23*%
X82102000Y-72584000D02*
X80772000Y-72584000D01*
X82102000Y-73914000D02*
X82102000Y-72584000D01*
X82102000Y-75184000D02*
X79442000Y-75184000D01*
X79442000Y-75184000D02*
X79442000Y-77784000D01*
X82102000Y-75184000D02*
X82102000Y-77784000D01*
X82102000Y-77784000D02*
X79442000Y-77784000D01*
%TO.C,J22*%
X81766814Y-130009186D02*
X80615000Y-130674186D01*
X82431814Y-131161000D02*
X81766814Y-130009186D01*
X83066814Y-132260852D02*
X80763186Y-133590852D01*
X80763186Y-133590852D02*
X82063186Y-135842518D01*
X83066814Y-132260852D02*
X84366814Y-134512518D01*
X84366814Y-134512518D02*
X82063186Y-135842518D01*
%TO.C,J21*%
X85068814Y-135724186D02*
X83917000Y-136389186D01*
X85733814Y-136876000D02*
X85068814Y-135724186D01*
X86368814Y-137975852D02*
X84065186Y-139305852D01*
X84065186Y-139305852D02*
X85365186Y-141557518D01*
X86368814Y-137975852D02*
X87668814Y-140227518D01*
X87668814Y-140227518D02*
X85365186Y-141557518D01*
%TO.C,J17*%
X79442000Y-67497000D02*
X80772000Y-67497000D01*
X79442000Y-66167000D02*
X79442000Y-67497000D01*
X79442000Y-64897000D02*
X82102000Y-64897000D01*
X82102000Y-64897000D02*
X82102000Y-64837000D01*
X79442000Y-64897000D02*
X79442000Y-64837000D01*
X79442000Y-64837000D02*
X82102000Y-64837000D01*
%TO.C,U6*%
X86360000Y-37993000D02*
X89810000Y-37993000D01*
X86360000Y-37993000D02*
X84410000Y-37993000D01*
X86360000Y-48113000D02*
X88310000Y-48113000D01*
X86360000Y-48113000D02*
X84410000Y-48113000D01*
%TO.C,U5*%
X86425000Y-73045000D02*
X89875000Y-73045000D01*
X86425000Y-73045000D02*
X84475000Y-73045000D01*
X86425000Y-83165000D02*
X88375000Y-83165000D01*
X86425000Y-83165000D02*
X84475000Y-83165000D01*
%TO.C,U4*%
X86360000Y-85745000D02*
X89810000Y-85745000D01*
X86360000Y-85745000D02*
X84410000Y-85745000D01*
X86360000Y-95865000D02*
X88310000Y-95865000D01*
X86360000Y-95865000D02*
X84410000Y-95865000D01*
%TO.C,U3*%
X86425000Y-98445000D02*
X89875000Y-98445000D01*
X86425000Y-98445000D02*
X84475000Y-98445000D01*
X86425000Y-108565000D02*
X88375000Y-108565000D01*
X86425000Y-108565000D02*
X84475000Y-108565000D01*
%TO.C,U2*%
X86425000Y-110510000D02*
X89875000Y-110510000D01*
X86425000Y-110510000D02*
X84475000Y-110510000D01*
X86425000Y-120630000D02*
X88375000Y-120630000D01*
X86425000Y-120630000D02*
X84475000Y-120630000D01*
%TO.C,U1*%
X86360000Y-121940000D02*
X89810000Y-121940000D01*
X86360000Y-121940000D02*
X84410000Y-121940000D01*
X86360000Y-132060000D02*
X88310000Y-132060000D01*
X86360000Y-132060000D02*
X84410000Y-132060000D01*
%TO.C,R4*%
X79360500Y-104377258D02*
X79360500Y-103902742D01*
X80405500Y-104377258D02*
X80405500Y-103902742D01*
%TO.C,R3*%
X81011500Y-104377258D02*
X81011500Y-103902742D01*
X82056500Y-104377258D02*
X82056500Y-103902742D01*
%TO.C,R2*%
X86279258Y-97550500D02*
X85804742Y-97550500D01*
X86279258Y-96505500D02*
X85804742Y-96505500D01*
%TO.C,R1*%
X84090742Y-83932500D02*
X84565258Y-83932500D01*
X84090742Y-84977500D02*
X84565258Y-84977500D01*
%TO.C,J15*%
X79442000Y-46923000D02*
X80772000Y-46923000D01*
X79442000Y-45593000D02*
X79442000Y-46923000D01*
X79442000Y-44323000D02*
X82102000Y-44323000D01*
X82102000Y-44323000D02*
X82102000Y-44263000D01*
X79442000Y-44323000D02*
X79442000Y-44263000D01*
X79442000Y-44263000D02*
X82102000Y-44263000D01*
%TO.C,J14*%
X82102000Y-107255000D02*
X80772000Y-107255000D01*
X82102000Y-108585000D02*
X82102000Y-107255000D01*
X82102000Y-109855000D02*
X79442000Y-109855000D01*
X79442000Y-109855000D02*
X79442000Y-122615000D01*
X82102000Y-109855000D02*
X82102000Y-122615000D01*
X82102000Y-122615000D02*
X79442000Y-122615000D01*
%TO.C,J13*%
X82102000Y-83252000D02*
X80772000Y-83252000D01*
X82102000Y-84582000D02*
X82102000Y-83252000D01*
X82102000Y-85852000D02*
X79442000Y-85852000D01*
X79442000Y-85852000D02*
X79442000Y-101152000D01*
X82102000Y-85852000D02*
X82102000Y-101152000D01*
X82102000Y-101152000D02*
X79442000Y-101152000D01*
%TO.C,U6*%
D10*
X89763504Y-36714180D02*
X89763504Y-37523704D01*
X89715885Y-37618942D01*
X89668266Y-37666561D01*
X89573028Y-37714180D01*
X89382552Y-37714180D01*
X89287314Y-37666561D01*
X89239695Y-37618942D01*
X89192076Y-37523704D01*
X89192076Y-36714180D01*
X88287314Y-36714180D02*
X88477790Y-36714180D01*
X88573028Y-36761800D01*
X88620647Y-36809419D01*
X88715885Y-36952276D01*
X88763504Y-37142752D01*
X88763504Y-37523704D01*
X88715885Y-37618942D01*
X88668266Y-37666561D01*
X88573028Y-37714180D01*
X88382552Y-37714180D01*
X88287314Y-37666561D01*
X88239695Y-37618942D01*
X88192076Y-37523704D01*
X88192076Y-37285609D01*
X88239695Y-37190371D01*
X88287314Y-37142752D01*
X88382552Y-37095133D01*
X88573028Y-37095133D01*
X88668266Y-37142752D01*
X88715885Y-37190371D01*
X88763504Y-37285609D01*
%TO.C,U5*%
X89788904Y-71766180D02*
X89788904Y-72575704D01*
X89741285Y-72670942D01*
X89693666Y-72718561D01*
X89598428Y-72766180D01*
X89407952Y-72766180D01*
X89312714Y-72718561D01*
X89265095Y-72670942D01*
X89217476Y-72575704D01*
X89217476Y-71766180D01*
X88265095Y-71766180D02*
X88741285Y-71766180D01*
X88788904Y-72242371D01*
X88741285Y-72194752D01*
X88646047Y-72147133D01*
X88407952Y-72147133D01*
X88312714Y-72194752D01*
X88265095Y-72242371D01*
X88217476Y-72337609D01*
X88217476Y-72575704D01*
X88265095Y-72670942D01*
X88312714Y-72718561D01*
X88407952Y-72766180D01*
X88646047Y-72766180D01*
X88741285Y-72718561D01*
X88788904Y-72670942D01*
%TO.C,U4*%
X89738104Y-84466180D02*
X89738104Y-85275704D01*
X89690485Y-85370942D01*
X89642866Y-85418561D01*
X89547628Y-85466180D01*
X89357152Y-85466180D01*
X89261914Y-85418561D01*
X89214295Y-85370942D01*
X89166676Y-85275704D01*
X89166676Y-84466180D01*
X88261914Y-84799514D02*
X88261914Y-85466180D01*
X88500009Y-84418561D02*
X88738104Y-85132847D01*
X88119057Y-85132847D01*
%TO.C,U3*%
X89890504Y-97191580D02*
X89890504Y-98001104D01*
X89842885Y-98096342D01*
X89795266Y-98143961D01*
X89700028Y-98191580D01*
X89509552Y-98191580D01*
X89414314Y-98143961D01*
X89366695Y-98096342D01*
X89319076Y-98001104D01*
X89319076Y-97191580D01*
X88938123Y-97191580D02*
X88319076Y-97191580D01*
X88652409Y-97572533D01*
X88509552Y-97572533D01*
X88414314Y-97620152D01*
X88366695Y-97667771D01*
X88319076Y-97763009D01*
X88319076Y-98001104D01*
X88366695Y-98096342D01*
X88414314Y-98143961D01*
X88509552Y-98191580D01*
X88795266Y-98191580D01*
X88890504Y-98143961D01*
X88938123Y-98096342D01*
%TO.C,U2*%
X89915904Y-109231180D02*
X89915904Y-110040704D01*
X89868285Y-110135942D01*
X89820666Y-110183561D01*
X89725428Y-110231180D01*
X89534952Y-110231180D01*
X89439714Y-110183561D01*
X89392095Y-110135942D01*
X89344476Y-110040704D01*
X89344476Y-109231180D01*
X88915904Y-109326419D02*
X88868285Y-109278800D01*
X88773047Y-109231180D01*
X88534952Y-109231180D01*
X88439714Y-109278800D01*
X88392095Y-109326419D01*
X88344476Y-109421657D01*
X88344476Y-109516895D01*
X88392095Y-109659752D01*
X88963523Y-110231180D01*
X88344476Y-110231180D01*
%TO.C,U1*%
X89915904Y-120737380D02*
X89915904Y-121546904D01*
X89868285Y-121642142D01*
X89820666Y-121689761D01*
X89725428Y-121737380D01*
X89534952Y-121737380D01*
X89439714Y-121689761D01*
X89392095Y-121642142D01*
X89344476Y-121546904D01*
X89344476Y-120737380D01*
X88344476Y-121737380D02*
X88915904Y-121737380D01*
X88630190Y-121737380D02*
X88630190Y-120737380D01*
X88725428Y-120880238D01*
X88820666Y-120975476D01*
X88915904Y-121023095D01*
%TO.C,R4*%
X80016333Y-106660904D02*
X80283000Y-106279952D01*
X80473476Y-106660904D02*
X80473476Y-105860904D01*
X80168714Y-105860904D01*
X80092523Y-105899000D01*
X80054428Y-105937095D01*
X80016333Y-106013285D01*
X80016333Y-106127571D01*
X80054428Y-106203761D01*
X80092523Y-106241857D01*
X80168714Y-106279952D01*
X80473476Y-106279952D01*
X79330619Y-106127571D02*
X79330619Y-106660904D01*
X79521095Y-105822809D02*
X79711571Y-106394238D01*
X79216333Y-106394238D01*
%TO.C,R3*%
X82048333Y-106660904D02*
X82315000Y-106279952D01*
X82505476Y-106660904D02*
X82505476Y-105860904D01*
X82200714Y-105860904D01*
X82124523Y-105899000D01*
X82086428Y-105937095D01*
X82048333Y-106013285D01*
X82048333Y-106127571D01*
X82086428Y-106203761D01*
X82124523Y-106241857D01*
X82200714Y-106279952D01*
X82505476Y-106279952D01*
X81781666Y-105860904D02*
X81286428Y-105860904D01*
X81553095Y-106165666D01*
X81438809Y-106165666D01*
X81362619Y-106203761D01*
X81324523Y-106241857D01*
X81286428Y-106318047D01*
X81286428Y-106508523D01*
X81324523Y-106584714D01*
X81362619Y-106622809D01*
X81438809Y-106660904D01*
X81667380Y-106660904D01*
X81743571Y-106622809D01*
X81781666Y-106584714D01*
%TO.C,R2*%
X83605666Y-97480380D02*
X83939000Y-97004190D01*
X84177095Y-97480380D02*
X84177095Y-96480380D01*
X83796142Y-96480380D01*
X83700904Y-96528000D01*
X83653285Y-96575619D01*
X83605666Y-96670857D01*
X83605666Y-96813714D01*
X83653285Y-96908952D01*
X83700904Y-96956571D01*
X83796142Y-97004190D01*
X84177095Y-97004190D01*
X83224714Y-96575619D02*
X83177095Y-96528000D01*
X83081857Y-96480380D01*
X82843761Y-96480380D01*
X82748523Y-96528000D01*
X82700904Y-96575619D01*
X82653285Y-96670857D01*
X82653285Y-96766095D01*
X82700904Y-96908952D01*
X83272333Y-97480380D01*
X82653285Y-97480380D01*
%TO.C,R1*%
X86653666Y-84907380D02*
X86987000Y-84431190D01*
X87225095Y-84907380D02*
X87225095Y-83907380D01*
X86844142Y-83907380D01*
X86748904Y-83955000D01*
X86701285Y-84002619D01*
X86653666Y-84097857D01*
X86653666Y-84240714D01*
X86701285Y-84335952D01*
X86748904Y-84383571D01*
X86844142Y-84431190D01*
X87225095Y-84431190D01*
X85701285Y-84907380D02*
X86272714Y-84907380D01*
X85987000Y-84907380D02*
X85987000Y-83907380D01*
X86082238Y-84050238D01*
X86177476Y-84145476D01*
X86272714Y-84193095D01*
%TD*%
%LPC*%
D14*
%TO.C,mouse-bite-2mm-slot*%
X90162500Y-50419000D03*
X89408000Y-50419000D03*
X88658000Y-50419000D03*
%TD*%
%TO.C,mouse-bite-2mm-slot*%
X86734200Y-50418300D03*
X85979700Y-50418300D03*
X85229700Y-50418300D03*
%TD*%
%TO.C,mouse-bite-2mm-slot*%
X83051200Y-50418300D03*
X82296700Y-50418300D03*
X81546700Y-50418300D03*
%TD*%
D15*
%TO.C,J16*%
X80772000Y-55880000D03*
D16*
X80772000Y-58420000D03*
%TD*%
%TO.C,J26*%
G36*
G01*
X85037990Y-36687092D02*
X85037990Y-36687092D01*
G75*
G02*
X83835908Y-36687092I-601041J601041D01*
G01*
X83835908Y-36687092D01*
G75*
G02*
X83835908Y-35485010I601041J601041D01*
G01*
X83835908Y-35485010D01*
G75*
G02*
X85037990Y-35485010I601041J-601041D01*
G01*
X85037990Y-35485010D01*
G75*
G02*
X85037990Y-36687092I-601041J-601041D01*
G01*
G37*
D17*
G36*
X87435082Y-34290000D02*
G01*
X86233000Y-35492082D01*
X85030918Y-34290000D01*
X86233000Y-33087918D01*
X87435082Y-34290000D01*
G37*
%TD*%
D15*
%TO.C,J25*%
X85979000Y-58420000D03*
D16*
X85979000Y-55880000D03*
%TD*%
D15*
%TO.C,J24*%
X85979000Y-69850000D03*
D16*
X85979000Y-67310000D03*
%TD*%
D15*
%TO.C,J23*%
X80772000Y-76454000D03*
D16*
X80772000Y-73914000D03*
%TD*%
%TO.C,J22*%
G36*
G01*
X83286122Y-133600705D02*
X83286122Y-133600705D01*
G75*
G02*
X82975000Y-134761827I-736122J-425000D01*
G01*
X82975000Y-134761827D01*
G75*
G02*
X81813878Y-134450705I-425000J736122D01*
G01*
X81813878Y-134450705D01*
G75*
G02*
X82125000Y-133289583I736122J425000D01*
G01*
X82125000Y-133289583D01*
G75*
G02*
X83286122Y-133600705I425000J-736122D01*
G01*
G37*
D17*
G36*
X81591122Y-130664878D02*
G01*
X82441122Y-132137122D01*
X80968878Y-132987122D01*
X80118878Y-131514878D01*
X81591122Y-130664878D01*
G37*
%TD*%
%TO.C,J21*%
G36*
G01*
X86588122Y-139315705D02*
X86588122Y-139315705D01*
G75*
G02*
X86277000Y-140476827I-736122J-425000D01*
G01*
X86277000Y-140476827D01*
G75*
G02*
X85115878Y-140165705I-425000J736122D01*
G01*
X85115878Y-140165705D01*
G75*
G02*
X85427000Y-139004583I736122J425000D01*
G01*
X85427000Y-139004583D01*
G75*
G02*
X86588122Y-139315705I425000J-736122D01*
G01*
G37*
G36*
X84893122Y-136379878D02*
G01*
X85743122Y-137852122D01*
X84270878Y-138702122D01*
X83420878Y-137229878D01*
X84893122Y-136379878D01*
G37*
%TD*%
D16*
%TO.C,J17*%
X80772000Y-66167000D03*
%TD*%
%TO.C,U6*%
G36*
G01*
X84860000Y-38458000D02*
X84860000Y-38758000D01*
G75*
G02*
X84710000Y-38908000I-150000J0D01*
G01*
X83060000Y-38908000D01*
G75*
G02*
X82910000Y-38758000I0J150000D01*
G01*
X82910000Y-38458000D01*
G75*
G02*
X83060000Y-38308000I150000J0D01*
G01*
X84710000Y-38308000D01*
G75*
G02*
X84860000Y-38458000I0J-150000D01*
G01*
G37*
G36*
G01*
X84860000Y-39728000D02*
X84860000Y-40028000D01*
G75*
G02*
X84710000Y-40178000I-150000J0D01*
G01*
X83060000Y-40178000D01*
G75*
G02*
X82910000Y-40028000I0J150000D01*
G01*
X82910000Y-39728000D01*
G75*
G02*
X83060000Y-39578000I150000J0D01*
G01*
X84710000Y-39578000D01*
G75*
G02*
X84860000Y-39728000I0J-150000D01*
G01*
G37*
G36*
G01*
X84860000Y-40998000D02*
X84860000Y-41298000D01*
G75*
G02*
X84710000Y-41448000I-150000J0D01*
G01*
X83060000Y-41448000D01*
G75*
G02*
X82910000Y-41298000I0J150000D01*
G01*
X82910000Y-40998000D01*
G75*
G02*
X83060000Y-40848000I150000J0D01*
G01*
X84710000Y-40848000D01*
G75*
G02*
X84860000Y-40998000I0J-150000D01*
G01*
G37*
G36*
G01*
X84860000Y-42268000D02*
X84860000Y-42568000D01*
G75*
G02*
X84710000Y-42718000I-150000J0D01*
G01*
X83060000Y-42718000D01*
G75*
G02*
X82910000Y-42568000I0J150000D01*
G01*
X82910000Y-42268000D01*
G75*
G02*
X83060000Y-42118000I150000J0D01*
G01*
X84710000Y-42118000D01*
G75*
G02*
X84860000Y-42268000I0J-150000D01*
G01*
G37*
G36*
G01*
X84860000Y-43538000D02*
X84860000Y-43838000D01*
G75*
G02*
X84710000Y-43988000I-150000J0D01*
G01*
X83060000Y-43988000D01*
G75*
G02*
X82910000Y-43838000I0J150000D01*
G01*
X82910000Y-43538000D01*
G75*
G02*
X83060000Y-43388000I150000J0D01*
G01*
X84710000Y-43388000D01*
G75*
G02*
X84860000Y-43538000I0J-150000D01*
G01*
G37*
G36*
G01*
X84860000Y-44808000D02*
X84860000Y-45108000D01*
G75*
G02*
X84710000Y-45258000I-150000J0D01*
G01*
X83060000Y-45258000D01*
G75*
G02*
X82910000Y-45108000I0J150000D01*
G01*
X82910000Y-44808000D01*
G75*
G02*
X83060000Y-44658000I150000J0D01*
G01*
X84710000Y-44658000D01*
G75*
G02*
X84860000Y-44808000I0J-150000D01*
G01*
G37*
G36*
G01*
X84860000Y-46078000D02*
X84860000Y-46378000D01*
G75*
G02*
X84710000Y-46528000I-150000J0D01*
G01*
X83060000Y-46528000D01*
G75*
G02*
X82910000Y-46378000I0J150000D01*
G01*
X82910000Y-46078000D01*
G75*
G02*
X83060000Y-45928000I150000J0D01*
G01*
X84710000Y-45928000D01*
G75*
G02*
X84860000Y-46078000I0J-150000D01*
G01*
G37*
G36*
G01*
X84860000Y-47348000D02*
X84860000Y-47648000D01*
G75*
G02*
X84710000Y-47798000I-150000J0D01*
G01*
X83060000Y-47798000D01*
G75*
G02*
X82910000Y-47648000I0J150000D01*
G01*
X82910000Y-47348000D01*
G75*
G02*
X83060000Y-47198000I150000J0D01*
G01*
X84710000Y-47198000D01*
G75*
G02*
X84860000Y-47348000I0J-150000D01*
G01*
G37*
G36*
G01*
X89810000Y-47348000D02*
X89810000Y-47648000D01*
G75*
G02*
X89660000Y-47798000I-150000J0D01*
G01*
X88010000Y-47798000D01*
G75*
G02*
X87860000Y-47648000I0J150000D01*
G01*
X87860000Y-47348000D01*
G75*
G02*
X88010000Y-47198000I150000J0D01*
G01*
X89660000Y-47198000D01*
G75*
G02*
X89810000Y-47348000I0J-150000D01*
G01*
G37*
G36*
G01*
X89810000Y-46078000D02*
X89810000Y-46378000D01*
G75*
G02*
X89660000Y-46528000I-150000J0D01*
G01*
X88010000Y-46528000D01*
G75*
G02*
X87860000Y-46378000I0J150000D01*
G01*
X87860000Y-46078000D01*
G75*
G02*
X88010000Y-45928000I150000J0D01*
G01*
X89660000Y-45928000D01*
G75*
G02*
X89810000Y-46078000I0J-150000D01*
G01*
G37*
G36*
G01*
X89810000Y-44808000D02*
X89810000Y-45108000D01*
G75*
G02*
X89660000Y-45258000I-150000J0D01*
G01*
X88010000Y-45258000D01*
G75*
G02*
X87860000Y-45108000I0J150000D01*
G01*
X87860000Y-44808000D01*
G75*
G02*
X88010000Y-44658000I150000J0D01*
G01*
X89660000Y-44658000D01*
G75*
G02*
X89810000Y-44808000I0J-150000D01*
G01*
G37*
G36*
G01*
X89810000Y-43538000D02*
X89810000Y-43838000D01*
G75*
G02*
X89660000Y-43988000I-150000J0D01*
G01*
X88010000Y-43988000D01*
G75*
G02*
X87860000Y-43838000I0J150000D01*
G01*
X87860000Y-43538000D01*
G75*
G02*
X88010000Y-43388000I150000J0D01*
G01*
X89660000Y-43388000D01*
G75*
G02*
X89810000Y-43538000I0J-150000D01*
G01*
G37*
G36*
G01*
X89810000Y-42268000D02*
X89810000Y-42568000D01*
G75*
G02*
X89660000Y-42718000I-150000J0D01*
G01*
X88010000Y-42718000D01*
G75*
G02*
X87860000Y-42568000I0J150000D01*
G01*
X87860000Y-42268000D01*
G75*
G02*
X88010000Y-42118000I150000J0D01*
G01*
X89660000Y-42118000D01*
G75*
G02*
X89810000Y-42268000I0J-150000D01*
G01*
G37*
G36*
G01*
X89810000Y-40998000D02*
X89810000Y-41298000D01*
G75*
G02*
X89660000Y-41448000I-150000J0D01*
G01*
X88010000Y-41448000D01*
G75*
G02*
X87860000Y-41298000I0J150000D01*
G01*
X87860000Y-40998000D01*
G75*
G02*
X88010000Y-40848000I150000J0D01*
G01*
X89660000Y-40848000D01*
G75*
G02*
X89810000Y-40998000I0J-150000D01*
G01*
G37*
G36*
G01*
X89810000Y-39728000D02*
X89810000Y-40028000D01*
G75*
G02*
X89660000Y-40178000I-150000J0D01*
G01*
X88010000Y-40178000D01*
G75*
G02*
X87860000Y-40028000I0J150000D01*
G01*
X87860000Y-39728000D01*
G75*
G02*
X88010000Y-39578000I150000J0D01*
G01*
X89660000Y-39578000D01*
G75*
G02*
X89810000Y-39728000I0J-150000D01*
G01*
G37*
G36*
G01*
X89810000Y-38458000D02*
X89810000Y-38758000D01*
G75*
G02*
X89660000Y-38908000I-150000J0D01*
G01*
X88010000Y-38908000D01*
G75*
G02*
X87860000Y-38758000I0J150000D01*
G01*
X87860000Y-38458000D01*
G75*
G02*
X88010000Y-38308000I150000J0D01*
G01*
X89660000Y-38308000D01*
G75*
G02*
X89810000Y-38458000I0J-150000D01*
G01*
G37*
%TD*%
%TO.C,U5*%
G36*
G01*
X84925000Y-73510000D02*
X84925000Y-73810000D01*
G75*
G02*
X84775000Y-73960000I-150000J0D01*
G01*
X83125000Y-73960000D01*
G75*
G02*
X82975000Y-73810000I0J150000D01*
G01*
X82975000Y-73510000D01*
G75*
G02*
X83125000Y-73360000I150000J0D01*
G01*
X84775000Y-73360000D01*
G75*
G02*
X84925000Y-73510000I0J-150000D01*
G01*
G37*
G36*
G01*
X84925000Y-74780000D02*
X84925000Y-75080000D01*
G75*
G02*
X84775000Y-75230000I-150000J0D01*
G01*
X83125000Y-75230000D01*
G75*
G02*
X82975000Y-75080000I0J150000D01*
G01*
X82975000Y-74780000D01*
G75*
G02*
X83125000Y-74630000I150000J0D01*
G01*
X84775000Y-74630000D01*
G75*
G02*
X84925000Y-74780000I0J-150000D01*
G01*
G37*
G36*
G01*
X84925000Y-76050000D02*
X84925000Y-76350000D01*
G75*
G02*
X84775000Y-76500000I-150000J0D01*
G01*
X83125000Y-76500000D01*
G75*
G02*
X82975000Y-76350000I0J150000D01*
G01*
X82975000Y-76050000D01*
G75*
G02*
X83125000Y-75900000I150000J0D01*
G01*
X84775000Y-75900000D01*
G75*
G02*
X84925000Y-76050000I0J-150000D01*
G01*
G37*
G36*
G01*
X84925000Y-77320000D02*
X84925000Y-77620000D01*
G75*
G02*
X84775000Y-77770000I-150000J0D01*
G01*
X83125000Y-77770000D01*
G75*
G02*
X82975000Y-77620000I0J150000D01*
G01*
X82975000Y-77320000D01*
G75*
G02*
X83125000Y-77170000I150000J0D01*
G01*
X84775000Y-77170000D01*
G75*
G02*
X84925000Y-77320000I0J-150000D01*
G01*
G37*
G36*
G01*
X84925000Y-78590000D02*
X84925000Y-78890000D01*
G75*
G02*
X84775000Y-79040000I-150000J0D01*
G01*
X83125000Y-79040000D01*
G75*
G02*
X82975000Y-78890000I0J150000D01*
G01*
X82975000Y-78590000D01*
G75*
G02*
X83125000Y-78440000I150000J0D01*
G01*
X84775000Y-78440000D01*
G75*
G02*
X84925000Y-78590000I0J-150000D01*
G01*
G37*
G36*
G01*
X84925000Y-79860000D02*
X84925000Y-80160000D01*
G75*
G02*
X84775000Y-80310000I-150000J0D01*
G01*
X83125000Y-80310000D01*
G75*
G02*
X82975000Y-80160000I0J150000D01*
G01*
X82975000Y-79860000D01*
G75*
G02*
X83125000Y-79710000I150000J0D01*
G01*
X84775000Y-79710000D01*
G75*
G02*
X84925000Y-79860000I0J-150000D01*
G01*
G37*
G36*
G01*
X84925000Y-81130000D02*
X84925000Y-81430000D01*
G75*
G02*
X84775000Y-81580000I-150000J0D01*
G01*
X83125000Y-81580000D01*
G75*
G02*
X82975000Y-81430000I0J150000D01*
G01*
X82975000Y-81130000D01*
G75*
G02*
X83125000Y-80980000I150000J0D01*
G01*
X84775000Y-80980000D01*
G75*
G02*
X84925000Y-81130000I0J-150000D01*
G01*
G37*
G36*
G01*
X84925000Y-82400000D02*
X84925000Y-82700000D01*
G75*
G02*
X84775000Y-82850000I-150000J0D01*
G01*
X83125000Y-82850000D01*
G75*
G02*
X82975000Y-82700000I0J150000D01*
G01*
X82975000Y-82400000D01*
G75*
G02*
X83125000Y-82250000I150000J0D01*
G01*
X84775000Y-82250000D01*
G75*
G02*
X84925000Y-82400000I0J-150000D01*
G01*
G37*
G36*
G01*
X89875000Y-82400000D02*
X89875000Y-82700000D01*
G75*
G02*
X89725000Y-82850000I-150000J0D01*
G01*
X88075000Y-82850000D01*
G75*
G02*
X87925000Y-82700000I0J150000D01*
G01*
X87925000Y-82400000D01*
G75*
G02*
X88075000Y-82250000I150000J0D01*
G01*
X89725000Y-82250000D01*
G75*
G02*
X89875000Y-82400000I0J-150000D01*
G01*
G37*
G36*
G01*
X89875000Y-81130000D02*
X89875000Y-81430000D01*
G75*
G02*
X89725000Y-81580000I-150000J0D01*
G01*
X88075000Y-81580000D01*
G75*
G02*
X87925000Y-81430000I0J150000D01*
G01*
X87925000Y-81130000D01*
G75*
G02*
X88075000Y-80980000I150000J0D01*
G01*
X89725000Y-80980000D01*
G75*
G02*
X89875000Y-81130000I0J-150000D01*
G01*
G37*
G36*
G01*
X89875000Y-79860000D02*
X89875000Y-80160000D01*
G75*
G02*
X89725000Y-80310000I-150000J0D01*
G01*
X88075000Y-80310000D01*
G75*
G02*
X87925000Y-80160000I0J150000D01*
G01*
X87925000Y-79860000D01*
G75*
G02*
X88075000Y-79710000I150000J0D01*
G01*
X89725000Y-79710000D01*
G75*
G02*
X89875000Y-79860000I0J-150000D01*
G01*
G37*
G36*
G01*
X89875000Y-78590000D02*
X89875000Y-78890000D01*
G75*
G02*
X89725000Y-79040000I-150000J0D01*
G01*
X88075000Y-79040000D01*
G75*
G02*
X87925000Y-78890000I0J150000D01*
G01*
X87925000Y-78590000D01*
G75*
G02*
X88075000Y-78440000I150000J0D01*
G01*
X89725000Y-78440000D01*
G75*
G02*
X89875000Y-78590000I0J-150000D01*
G01*
G37*
G36*
G01*
X89875000Y-77320000D02*
X89875000Y-77620000D01*
G75*
G02*
X89725000Y-77770000I-150000J0D01*
G01*
X88075000Y-77770000D01*
G75*
G02*
X87925000Y-77620000I0J150000D01*
G01*
X87925000Y-77320000D01*
G75*
G02*
X88075000Y-77170000I150000J0D01*
G01*
X89725000Y-77170000D01*
G75*
G02*
X89875000Y-77320000I0J-150000D01*
G01*
G37*
G36*
G01*
X89875000Y-76050000D02*
X89875000Y-76350000D01*
G75*
G02*
X89725000Y-76500000I-150000J0D01*
G01*
X88075000Y-76500000D01*
G75*
G02*
X87925000Y-76350000I0J150000D01*
G01*
X87925000Y-76050000D01*
G75*
G02*
X88075000Y-75900000I150000J0D01*
G01*
X89725000Y-75900000D01*
G75*
G02*
X89875000Y-76050000I0J-150000D01*
G01*
G37*
G36*
G01*
X89875000Y-74780000D02*
X89875000Y-75080000D01*
G75*
G02*
X89725000Y-75230000I-150000J0D01*
G01*
X88075000Y-75230000D01*
G75*
G02*
X87925000Y-75080000I0J150000D01*
G01*
X87925000Y-74780000D01*
G75*
G02*
X88075000Y-74630000I150000J0D01*
G01*
X89725000Y-74630000D01*
G75*
G02*
X89875000Y-74780000I0J-150000D01*
G01*
G37*
G36*
G01*
X89875000Y-73510000D02*
X89875000Y-73810000D01*
G75*
G02*
X89725000Y-73960000I-150000J0D01*
G01*
X88075000Y-73960000D01*
G75*
G02*
X87925000Y-73810000I0J150000D01*
G01*
X87925000Y-73510000D01*
G75*
G02*
X88075000Y-73360000I150000J0D01*
G01*
X89725000Y-73360000D01*
G75*
G02*
X89875000Y-73510000I0J-150000D01*
G01*
G37*
%TD*%
%TO.C,U4*%
G36*
G01*
X84860000Y-86210000D02*
X84860000Y-86510000D01*
G75*
G02*
X84710000Y-86660000I-150000J0D01*
G01*
X83060000Y-86660000D01*
G75*
G02*
X82910000Y-86510000I0J150000D01*
G01*
X82910000Y-86210000D01*
G75*
G02*
X83060000Y-86060000I150000J0D01*
G01*
X84710000Y-86060000D01*
G75*
G02*
X84860000Y-86210000I0J-150000D01*
G01*
G37*
G36*
G01*
X84860000Y-87480000D02*
X84860000Y-87780000D01*
G75*
G02*
X84710000Y-87930000I-150000J0D01*
G01*
X83060000Y-87930000D01*
G75*
G02*
X82910000Y-87780000I0J150000D01*
G01*
X82910000Y-87480000D01*
G75*
G02*
X83060000Y-87330000I150000J0D01*
G01*
X84710000Y-87330000D01*
G75*
G02*
X84860000Y-87480000I0J-150000D01*
G01*
G37*
G36*
G01*
X84860000Y-88750000D02*
X84860000Y-89050000D01*
G75*
G02*
X84710000Y-89200000I-150000J0D01*
G01*
X83060000Y-89200000D01*
G75*
G02*
X82910000Y-89050000I0J150000D01*
G01*
X82910000Y-88750000D01*
G75*
G02*
X83060000Y-88600000I150000J0D01*
G01*
X84710000Y-88600000D01*
G75*
G02*
X84860000Y-88750000I0J-150000D01*
G01*
G37*
G36*
G01*
X84860000Y-90020000D02*
X84860000Y-90320000D01*
G75*
G02*
X84710000Y-90470000I-150000J0D01*
G01*
X83060000Y-90470000D01*
G75*
G02*
X82910000Y-90320000I0J150000D01*
G01*
X82910000Y-90020000D01*
G75*
G02*
X83060000Y-89870000I150000J0D01*
G01*
X84710000Y-89870000D01*
G75*
G02*
X84860000Y-90020000I0J-150000D01*
G01*
G37*
G36*
G01*
X84860000Y-91290000D02*
X84860000Y-91590000D01*
G75*
G02*
X84710000Y-91740000I-150000J0D01*
G01*
X83060000Y-91740000D01*
G75*
G02*
X82910000Y-91590000I0J150000D01*
G01*
X82910000Y-91290000D01*
G75*
G02*
X83060000Y-91140000I150000J0D01*
G01*
X84710000Y-91140000D01*
G75*
G02*
X84860000Y-91290000I0J-150000D01*
G01*
G37*
G36*
G01*
X84860000Y-92560000D02*
X84860000Y-92860000D01*
G75*
G02*
X84710000Y-93010000I-150000J0D01*
G01*
X83060000Y-93010000D01*
G75*
G02*
X82910000Y-92860000I0J150000D01*
G01*
X82910000Y-92560000D01*
G75*
G02*
X83060000Y-92410000I150000J0D01*
G01*
X84710000Y-92410000D01*
G75*
G02*
X84860000Y-92560000I0J-150000D01*
G01*
G37*
G36*
G01*
X84860000Y-93830000D02*
X84860000Y-94130000D01*
G75*
G02*
X84710000Y-94280000I-150000J0D01*
G01*
X83060000Y-94280000D01*
G75*
G02*
X82910000Y-94130000I0J150000D01*
G01*
X82910000Y-93830000D01*
G75*
G02*
X83060000Y-93680000I150000J0D01*
G01*
X84710000Y-93680000D01*
G75*
G02*
X84860000Y-93830000I0J-150000D01*
G01*
G37*
G36*
G01*
X84860000Y-95100000D02*
X84860000Y-95400000D01*
G75*
G02*
X84710000Y-95550000I-150000J0D01*
G01*
X83060000Y-95550000D01*
G75*
G02*
X82910000Y-95400000I0J150000D01*
G01*
X82910000Y-95100000D01*
G75*
G02*
X83060000Y-94950000I150000J0D01*
G01*
X84710000Y-94950000D01*
G75*
G02*
X84860000Y-95100000I0J-150000D01*
G01*
G37*
G36*
G01*
X89810000Y-95100000D02*
X89810000Y-95400000D01*
G75*
G02*
X89660000Y-95550000I-150000J0D01*
G01*
X88010000Y-95550000D01*
G75*
G02*
X87860000Y-95400000I0J150000D01*
G01*
X87860000Y-95100000D01*
G75*
G02*
X88010000Y-94950000I150000J0D01*
G01*
X89660000Y-94950000D01*
G75*
G02*
X89810000Y-95100000I0J-150000D01*
G01*
G37*
G36*
G01*
X89810000Y-93830000D02*
X89810000Y-94130000D01*
G75*
G02*
X89660000Y-94280000I-150000J0D01*
G01*
X88010000Y-94280000D01*
G75*
G02*
X87860000Y-94130000I0J150000D01*
G01*
X87860000Y-93830000D01*
G75*
G02*
X88010000Y-93680000I150000J0D01*
G01*
X89660000Y-93680000D01*
G75*
G02*
X89810000Y-93830000I0J-150000D01*
G01*
G37*
G36*
G01*
X89810000Y-92560000D02*
X89810000Y-92860000D01*
G75*
G02*
X89660000Y-93010000I-150000J0D01*
G01*
X88010000Y-93010000D01*
G75*
G02*
X87860000Y-92860000I0J150000D01*
G01*
X87860000Y-92560000D01*
G75*
G02*
X88010000Y-92410000I150000J0D01*
G01*
X89660000Y-92410000D01*
G75*
G02*
X89810000Y-92560000I0J-150000D01*
G01*
G37*
G36*
G01*
X89810000Y-91290000D02*
X89810000Y-91590000D01*
G75*
G02*
X89660000Y-91740000I-150000J0D01*
G01*
X88010000Y-91740000D01*
G75*
G02*
X87860000Y-91590000I0J150000D01*
G01*
X87860000Y-91290000D01*
G75*
G02*
X88010000Y-91140000I150000J0D01*
G01*
X89660000Y-91140000D01*
G75*
G02*
X89810000Y-91290000I0J-150000D01*
G01*
G37*
G36*
G01*
X89810000Y-90020000D02*
X89810000Y-90320000D01*
G75*
G02*
X89660000Y-90470000I-150000J0D01*
G01*
X88010000Y-90470000D01*
G75*
G02*
X87860000Y-90320000I0J150000D01*
G01*
X87860000Y-90020000D01*
G75*
G02*
X88010000Y-89870000I150000J0D01*
G01*
X89660000Y-89870000D01*
G75*
G02*
X89810000Y-90020000I0J-150000D01*
G01*
G37*
G36*
G01*
X89810000Y-88750000D02*
X89810000Y-89050000D01*
G75*
G02*
X89660000Y-89200000I-150000J0D01*
G01*
X88010000Y-89200000D01*
G75*
G02*
X87860000Y-89050000I0J150000D01*
G01*
X87860000Y-88750000D01*
G75*
G02*
X88010000Y-88600000I150000J0D01*
G01*
X89660000Y-88600000D01*
G75*
G02*
X89810000Y-88750000I0J-150000D01*
G01*
G37*
G36*
G01*
X89810000Y-87480000D02*
X89810000Y-87780000D01*
G75*
G02*
X89660000Y-87930000I-150000J0D01*
G01*
X88010000Y-87930000D01*
G75*
G02*
X87860000Y-87780000I0J150000D01*
G01*
X87860000Y-87480000D01*
G75*
G02*
X88010000Y-87330000I150000J0D01*
G01*
X89660000Y-87330000D01*
G75*
G02*
X89810000Y-87480000I0J-150000D01*
G01*
G37*
G36*
G01*
X89810000Y-86210000D02*
X89810000Y-86510000D01*
G75*
G02*
X89660000Y-86660000I-150000J0D01*
G01*
X88010000Y-86660000D01*
G75*
G02*
X87860000Y-86510000I0J150000D01*
G01*
X87860000Y-86210000D01*
G75*
G02*
X88010000Y-86060000I150000J0D01*
G01*
X89660000Y-86060000D01*
G75*
G02*
X89810000Y-86210000I0J-150000D01*
G01*
G37*
%TD*%
%TO.C,U3*%
G36*
G01*
X84925000Y-98910000D02*
X84925000Y-99210000D01*
G75*
G02*
X84775000Y-99360000I-150000J0D01*
G01*
X83125000Y-99360000D01*
G75*
G02*
X82975000Y-99210000I0J150000D01*
G01*
X82975000Y-98910000D01*
G75*
G02*
X83125000Y-98760000I150000J0D01*
G01*
X84775000Y-98760000D01*
G75*
G02*
X84925000Y-98910000I0J-150000D01*
G01*
G37*
G36*
G01*
X84925000Y-100180000D02*
X84925000Y-100480000D01*
G75*
G02*
X84775000Y-100630000I-150000J0D01*
G01*
X83125000Y-100630000D01*
G75*
G02*
X82975000Y-100480000I0J150000D01*
G01*
X82975000Y-100180000D01*
G75*
G02*
X83125000Y-100030000I150000J0D01*
G01*
X84775000Y-100030000D01*
G75*
G02*
X84925000Y-100180000I0J-150000D01*
G01*
G37*
G36*
G01*
X84925000Y-101450000D02*
X84925000Y-101750000D01*
G75*
G02*
X84775000Y-101900000I-150000J0D01*
G01*
X83125000Y-101900000D01*
G75*
G02*
X82975000Y-101750000I0J150000D01*
G01*
X82975000Y-101450000D01*
G75*
G02*
X83125000Y-101300000I150000J0D01*
G01*
X84775000Y-101300000D01*
G75*
G02*
X84925000Y-101450000I0J-150000D01*
G01*
G37*
G36*
G01*
X84925000Y-102720000D02*
X84925000Y-103020000D01*
G75*
G02*
X84775000Y-103170000I-150000J0D01*
G01*
X83125000Y-103170000D01*
G75*
G02*
X82975000Y-103020000I0J150000D01*
G01*
X82975000Y-102720000D01*
G75*
G02*
X83125000Y-102570000I150000J0D01*
G01*
X84775000Y-102570000D01*
G75*
G02*
X84925000Y-102720000I0J-150000D01*
G01*
G37*
G36*
G01*
X84925000Y-103990000D02*
X84925000Y-104290000D01*
G75*
G02*
X84775000Y-104440000I-150000J0D01*
G01*
X83125000Y-104440000D01*
G75*
G02*
X82975000Y-104290000I0J150000D01*
G01*
X82975000Y-103990000D01*
G75*
G02*
X83125000Y-103840000I150000J0D01*
G01*
X84775000Y-103840000D01*
G75*
G02*
X84925000Y-103990000I0J-150000D01*
G01*
G37*
G36*
G01*
X84925000Y-105260000D02*
X84925000Y-105560000D01*
G75*
G02*
X84775000Y-105710000I-150000J0D01*
G01*
X83125000Y-105710000D01*
G75*
G02*
X82975000Y-105560000I0J150000D01*
G01*
X82975000Y-105260000D01*
G75*
G02*
X83125000Y-105110000I150000J0D01*
G01*
X84775000Y-105110000D01*
G75*
G02*
X84925000Y-105260000I0J-150000D01*
G01*
G37*
G36*
G01*
X84925000Y-106530000D02*
X84925000Y-106830000D01*
G75*
G02*
X84775000Y-106980000I-150000J0D01*
G01*
X83125000Y-106980000D01*
G75*
G02*
X82975000Y-106830000I0J150000D01*
G01*
X82975000Y-106530000D01*
G75*
G02*
X83125000Y-106380000I150000J0D01*
G01*
X84775000Y-106380000D01*
G75*
G02*
X84925000Y-106530000I0J-150000D01*
G01*
G37*
G36*
G01*
X84925000Y-107800000D02*
X84925000Y-108100000D01*
G75*
G02*
X84775000Y-108250000I-150000J0D01*
G01*
X83125000Y-108250000D01*
G75*
G02*
X82975000Y-108100000I0J150000D01*
G01*
X82975000Y-107800000D01*
G75*
G02*
X83125000Y-107650000I150000J0D01*
G01*
X84775000Y-107650000D01*
G75*
G02*
X84925000Y-107800000I0J-150000D01*
G01*
G37*
G36*
G01*
X89875000Y-107800000D02*
X89875000Y-108100000D01*
G75*
G02*
X89725000Y-108250000I-150000J0D01*
G01*
X88075000Y-108250000D01*
G75*
G02*
X87925000Y-108100000I0J150000D01*
G01*
X87925000Y-107800000D01*
G75*
G02*
X88075000Y-107650000I150000J0D01*
G01*
X89725000Y-107650000D01*
G75*
G02*
X89875000Y-107800000I0J-150000D01*
G01*
G37*
G36*
G01*
X89875000Y-106530000D02*
X89875000Y-106830000D01*
G75*
G02*
X89725000Y-106980000I-150000J0D01*
G01*
X88075000Y-106980000D01*
G75*
G02*
X87925000Y-106830000I0J150000D01*
G01*
X87925000Y-106530000D01*
G75*
G02*
X88075000Y-106380000I150000J0D01*
G01*
X89725000Y-106380000D01*
G75*
G02*
X89875000Y-106530000I0J-150000D01*
G01*
G37*
G36*
G01*
X89875000Y-105260000D02*
X89875000Y-105560000D01*
G75*
G02*
X89725000Y-105710000I-150000J0D01*
G01*
X88075000Y-105710000D01*
G75*
G02*
X87925000Y-105560000I0J150000D01*
G01*
X87925000Y-105260000D01*
G75*
G02*
X88075000Y-105110000I150000J0D01*
G01*
X89725000Y-105110000D01*
G75*
G02*
X89875000Y-105260000I0J-150000D01*
G01*
G37*
G36*
G01*
X89875000Y-103990000D02*
X89875000Y-104290000D01*
G75*
G02*
X89725000Y-104440000I-150000J0D01*
G01*
X88075000Y-104440000D01*
G75*
G02*
X87925000Y-104290000I0J150000D01*
G01*
X87925000Y-103990000D01*
G75*
G02*
X88075000Y-103840000I150000J0D01*
G01*
X89725000Y-103840000D01*
G75*
G02*
X89875000Y-103990000I0J-150000D01*
G01*
G37*
G36*
G01*
X89875000Y-102720000D02*
X89875000Y-103020000D01*
G75*
G02*
X89725000Y-103170000I-150000J0D01*
G01*
X88075000Y-103170000D01*
G75*
G02*
X87925000Y-103020000I0J150000D01*
G01*
X87925000Y-102720000D01*
G75*
G02*
X88075000Y-102570000I150000J0D01*
G01*
X89725000Y-102570000D01*
G75*
G02*
X89875000Y-102720000I0J-150000D01*
G01*
G37*
G36*
G01*
X89875000Y-101450000D02*
X89875000Y-101750000D01*
G75*
G02*
X89725000Y-101900000I-150000J0D01*
G01*
X88075000Y-101900000D01*
G75*
G02*
X87925000Y-101750000I0J150000D01*
G01*
X87925000Y-101450000D01*
G75*
G02*
X88075000Y-101300000I150000J0D01*
G01*
X89725000Y-101300000D01*
G75*
G02*
X89875000Y-101450000I0J-150000D01*
G01*
G37*
G36*
G01*
X89875000Y-100180000D02*
X89875000Y-100480000D01*
G75*
G02*
X89725000Y-100630000I-150000J0D01*
G01*
X88075000Y-100630000D01*
G75*
G02*
X87925000Y-100480000I0J150000D01*
G01*
X87925000Y-100180000D01*
G75*
G02*
X88075000Y-100030000I150000J0D01*
G01*
X89725000Y-100030000D01*
G75*
G02*
X89875000Y-100180000I0J-150000D01*
G01*
G37*
G36*
G01*
X89875000Y-98910000D02*
X89875000Y-99210000D01*
G75*
G02*
X89725000Y-99360000I-150000J0D01*
G01*
X88075000Y-99360000D01*
G75*
G02*
X87925000Y-99210000I0J150000D01*
G01*
X87925000Y-98910000D01*
G75*
G02*
X88075000Y-98760000I150000J0D01*
G01*
X89725000Y-98760000D01*
G75*
G02*
X89875000Y-98910000I0J-150000D01*
G01*
G37*
%TD*%
%TO.C,U2*%
G36*
G01*
X84925000Y-110975000D02*
X84925000Y-111275000D01*
G75*
G02*
X84775000Y-111425000I-150000J0D01*
G01*
X83125000Y-111425000D01*
G75*
G02*
X82975000Y-111275000I0J150000D01*
G01*
X82975000Y-110975000D01*
G75*
G02*
X83125000Y-110825000I150000J0D01*
G01*
X84775000Y-110825000D01*
G75*
G02*
X84925000Y-110975000I0J-150000D01*
G01*
G37*
G36*
G01*
X84925000Y-112245000D02*
X84925000Y-112545000D01*
G75*
G02*
X84775000Y-112695000I-150000J0D01*
G01*
X83125000Y-112695000D01*
G75*
G02*
X82975000Y-112545000I0J150000D01*
G01*
X82975000Y-112245000D01*
G75*
G02*
X83125000Y-112095000I150000J0D01*
G01*
X84775000Y-112095000D01*
G75*
G02*
X84925000Y-112245000I0J-150000D01*
G01*
G37*
G36*
G01*
X84925000Y-113515000D02*
X84925000Y-113815000D01*
G75*
G02*
X84775000Y-113965000I-150000J0D01*
G01*
X83125000Y-113965000D01*
G75*
G02*
X82975000Y-113815000I0J150000D01*
G01*
X82975000Y-113515000D01*
G75*
G02*
X83125000Y-113365000I150000J0D01*
G01*
X84775000Y-113365000D01*
G75*
G02*
X84925000Y-113515000I0J-150000D01*
G01*
G37*
G36*
G01*
X84925000Y-114785000D02*
X84925000Y-115085000D01*
G75*
G02*
X84775000Y-115235000I-150000J0D01*
G01*
X83125000Y-115235000D01*
G75*
G02*
X82975000Y-115085000I0J150000D01*
G01*
X82975000Y-114785000D01*
G75*
G02*
X83125000Y-114635000I150000J0D01*
G01*
X84775000Y-114635000D01*
G75*
G02*
X84925000Y-114785000I0J-150000D01*
G01*
G37*
G36*
G01*
X84925000Y-116055000D02*
X84925000Y-116355000D01*
G75*
G02*
X84775000Y-116505000I-150000J0D01*
G01*
X83125000Y-116505000D01*
G75*
G02*
X82975000Y-116355000I0J150000D01*
G01*
X82975000Y-116055000D01*
G75*
G02*
X83125000Y-115905000I150000J0D01*
G01*
X84775000Y-115905000D01*
G75*
G02*
X84925000Y-116055000I0J-150000D01*
G01*
G37*
G36*
G01*
X84925000Y-117325000D02*
X84925000Y-117625000D01*
G75*
G02*
X84775000Y-117775000I-150000J0D01*
G01*
X83125000Y-117775000D01*
G75*
G02*
X82975000Y-117625000I0J150000D01*
G01*
X82975000Y-117325000D01*
G75*
G02*
X83125000Y-117175000I150000J0D01*
G01*
X84775000Y-117175000D01*
G75*
G02*
X84925000Y-117325000I0J-150000D01*
G01*
G37*
G36*
G01*
X84925000Y-118595000D02*
X84925000Y-118895000D01*
G75*
G02*
X84775000Y-119045000I-150000J0D01*
G01*
X83125000Y-119045000D01*
G75*
G02*
X82975000Y-118895000I0J150000D01*
G01*
X82975000Y-118595000D01*
G75*
G02*
X83125000Y-118445000I150000J0D01*
G01*
X84775000Y-118445000D01*
G75*
G02*
X84925000Y-118595000I0J-150000D01*
G01*
G37*
G36*
G01*
X84925000Y-119865000D02*
X84925000Y-120165000D01*
G75*
G02*
X84775000Y-120315000I-150000J0D01*
G01*
X83125000Y-120315000D01*
G75*
G02*
X82975000Y-120165000I0J150000D01*
G01*
X82975000Y-119865000D01*
G75*
G02*
X83125000Y-119715000I150000J0D01*
G01*
X84775000Y-119715000D01*
G75*
G02*
X84925000Y-119865000I0J-150000D01*
G01*
G37*
G36*
G01*
X89875000Y-119865000D02*
X89875000Y-120165000D01*
G75*
G02*
X89725000Y-120315000I-150000J0D01*
G01*
X88075000Y-120315000D01*
G75*
G02*
X87925000Y-120165000I0J150000D01*
G01*
X87925000Y-119865000D01*
G75*
G02*
X88075000Y-119715000I150000J0D01*
G01*
X89725000Y-119715000D01*
G75*
G02*
X89875000Y-119865000I0J-150000D01*
G01*
G37*
G36*
G01*
X89875000Y-118595000D02*
X89875000Y-118895000D01*
G75*
G02*
X89725000Y-119045000I-150000J0D01*
G01*
X88075000Y-119045000D01*
G75*
G02*
X87925000Y-118895000I0J150000D01*
G01*
X87925000Y-118595000D01*
G75*
G02*
X88075000Y-118445000I150000J0D01*
G01*
X89725000Y-118445000D01*
G75*
G02*
X89875000Y-118595000I0J-150000D01*
G01*
G37*
G36*
G01*
X89875000Y-117325000D02*
X89875000Y-117625000D01*
G75*
G02*
X89725000Y-117775000I-150000J0D01*
G01*
X88075000Y-117775000D01*
G75*
G02*
X87925000Y-117625000I0J150000D01*
G01*
X87925000Y-117325000D01*
G75*
G02*
X88075000Y-117175000I150000J0D01*
G01*
X89725000Y-117175000D01*
G75*
G02*
X89875000Y-117325000I0J-150000D01*
G01*
G37*
G36*
G01*
X89875000Y-116055000D02*
X89875000Y-116355000D01*
G75*
G02*
X89725000Y-116505000I-150000J0D01*
G01*
X88075000Y-116505000D01*
G75*
G02*
X87925000Y-116355000I0J150000D01*
G01*
X87925000Y-116055000D01*
G75*
G02*
X88075000Y-115905000I150000J0D01*
G01*
X89725000Y-115905000D01*
G75*
G02*
X89875000Y-116055000I0J-150000D01*
G01*
G37*
G36*
G01*
X89875000Y-114785000D02*
X89875000Y-115085000D01*
G75*
G02*
X89725000Y-115235000I-150000J0D01*
G01*
X88075000Y-115235000D01*
G75*
G02*
X87925000Y-115085000I0J150000D01*
G01*
X87925000Y-114785000D01*
G75*
G02*
X88075000Y-114635000I150000J0D01*
G01*
X89725000Y-114635000D01*
G75*
G02*
X89875000Y-114785000I0J-150000D01*
G01*
G37*
G36*
G01*
X89875000Y-113515000D02*
X89875000Y-113815000D01*
G75*
G02*
X89725000Y-113965000I-150000J0D01*
G01*
X88075000Y-113965000D01*
G75*
G02*
X87925000Y-113815000I0J150000D01*
G01*
X87925000Y-113515000D01*
G75*
G02*
X88075000Y-113365000I150000J0D01*
G01*
X89725000Y-113365000D01*
G75*
G02*
X89875000Y-113515000I0J-150000D01*
G01*
G37*
G36*
G01*
X89875000Y-112245000D02*
X89875000Y-112545000D01*
G75*
G02*
X89725000Y-112695000I-150000J0D01*
G01*
X88075000Y-112695000D01*
G75*
G02*
X87925000Y-112545000I0J150000D01*
G01*
X87925000Y-112245000D01*
G75*
G02*
X88075000Y-112095000I150000J0D01*
G01*
X89725000Y-112095000D01*
G75*
G02*
X89875000Y-112245000I0J-150000D01*
G01*
G37*
G36*
G01*
X89875000Y-110975000D02*
X89875000Y-111275000D01*
G75*
G02*
X89725000Y-111425000I-150000J0D01*
G01*
X88075000Y-111425000D01*
G75*
G02*
X87925000Y-111275000I0J150000D01*
G01*
X87925000Y-110975000D01*
G75*
G02*
X88075000Y-110825000I150000J0D01*
G01*
X89725000Y-110825000D01*
G75*
G02*
X89875000Y-110975000I0J-150000D01*
G01*
G37*
%TD*%
%TO.C,U1*%
G36*
G01*
X84860000Y-122405000D02*
X84860000Y-122705000D01*
G75*
G02*
X84710000Y-122855000I-150000J0D01*
G01*
X83060000Y-122855000D01*
G75*
G02*
X82910000Y-122705000I0J150000D01*
G01*
X82910000Y-122405000D01*
G75*
G02*
X83060000Y-122255000I150000J0D01*
G01*
X84710000Y-122255000D01*
G75*
G02*
X84860000Y-122405000I0J-150000D01*
G01*
G37*
G36*
G01*
X84860000Y-123675000D02*
X84860000Y-123975000D01*
G75*
G02*
X84710000Y-124125000I-150000J0D01*
G01*
X83060000Y-124125000D01*
G75*
G02*
X82910000Y-123975000I0J150000D01*
G01*
X82910000Y-123675000D01*
G75*
G02*
X83060000Y-123525000I150000J0D01*
G01*
X84710000Y-123525000D01*
G75*
G02*
X84860000Y-123675000I0J-150000D01*
G01*
G37*
G36*
G01*
X84860000Y-124945000D02*
X84860000Y-125245000D01*
G75*
G02*
X84710000Y-125395000I-150000J0D01*
G01*
X83060000Y-125395000D01*
G75*
G02*
X82910000Y-125245000I0J150000D01*
G01*
X82910000Y-124945000D01*
G75*
G02*
X83060000Y-124795000I150000J0D01*
G01*
X84710000Y-124795000D01*
G75*
G02*
X84860000Y-124945000I0J-150000D01*
G01*
G37*
G36*
G01*
X84860000Y-126215000D02*
X84860000Y-126515000D01*
G75*
G02*
X84710000Y-126665000I-150000J0D01*
G01*
X83060000Y-126665000D01*
G75*
G02*
X82910000Y-126515000I0J150000D01*
G01*
X82910000Y-126215000D01*
G75*
G02*
X83060000Y-126065000I150000J0D01*
G01*
X84710000Y-126065000D01*
G75*
G02*
X84860000Y-126215000I0J-150000D01*
G01*
G37*
G36*
G01*
X84860000Y-127485000D02*
X84860000Y-127785000D01*
G75*
G02*
X84710000Y-127935000I-150000J0D01*
G01*
X83060000Y-127935000D01*
G75*
G02*
X82910000Y-127785000I0J150000D01*
G01*
X82910000Y-127485000D01*
G75*
G02*
X83060000Y-127335000I150000J0D01*
G01*
X84710000Y-127335000D01*
G75*
G02*
X84860000Y-127485000I0J-150000D01*
G01*
G37*
G36*
G01*
X84860000Y-128755000D02*
X84860000Y-129055000D01*
G75*
G02*
X84710000Y-129205000I-150000J0D01*
G01*
X83060000Y-129205000D01*
G75*
G02*
X82910000Y-129055000I0J150000D01*
G01*
X82910000Y-128755000D01*
G75*
G02*
X83060000Y-128605000I150000J0D01*
G01*
X84710000Y-128605000D01*
G75*
G02*
X84860000Y-128755000I0J-150000D01*
G01*
G37*
G36*
G01*
X84860000Y-130025000D02*
X84860000Y-130325000D01*
G75*
G02*
X84710000Y-130475000I-150000J0D01*
G01*
X83060000Y-130475000D01*
G75*
G02*
X82910000Y-130325000I0J150000D01*
G01*
X82910000Y-130025000D01*
G75*
G02*
X83060000Y-129875000I150000J0D01*
G01*
X84710000Y-129875000D01*
G75*
G02*
X84860000Y-130025000I0J-150000D01*
G01*
G37*
G36*
G01*
X84860000Y-131295000D02*
X84860000Y-131595000D01*
G75*
G02*
X84710000Y-131745000I-150000J0D01*
G01*
X83060000Y-131745000D01*
G75*
G02*
X82910000Y-131595000I0J150000D01*
G01*
X82910000Y-131295000D01*
G75*
G02*
X83060000Y-131145000I150000J0D01*
G01*
X84710000Y-131145000D01*
G75*
G02*
X84860000Y-131295000I0J-150000D01*
G01*
G37*
G36*
G01*
X89810000Y-131295000D02*
X89810000Y-131595000D01*
G75*
G02*
X89660000Y-131745000I-150000J0D01*
G01*
X88010000Y-131745000D01*
G75*
G02*
X87860000Y-131595000I0J150000D01*
G01*
X87860000Y-131295000D01*
G75*
G02*
X88010000Y-131145000I150000J0D01*
G01*
X89660000Y-131145000D01*
G75*
G02*
X89810000Y-131295000I0J-150000D01*
G01*
G37*
G36*
G01*
X89810000Y-130025000D02*
X89810000Y-130325000D01*
G75*
G02*
X89660000Y-130475000I-150000J0D01*
G01*
X88010000Y-130475000D01*
G75*
G02*
X87860000Y-130325000I0J150000D01*
G01*
X87860000Y-130025000D01*
G75*
G02*
X88010000Y-129875000I150000J0D01*
G01*
X89660000Y-129875000D01*
G75*
G02*
X89810000Y-130025000I0J-150000D01*
G01*
G37*
G36*
G01*
X89810000Y-128755000D02*
X89810000Y-129055000D01*
G75*
G02*
X89660000Y-129205000I-150000J0D01*
G01*
X88010000Y-129205000D01*
G75*
G02*
X87860000Y-129055000I0J150000D01*
G01*
X87860000Y-128755000D01*
G75*
G02*
X88010000Y-128605000I150000J0D01*
G01*
X89660000Y-128605000D01*
G75*
G02*
X89810000Y-128755000I0J-150000D01*
G01*
G37*
G36*
G01*
X89810000Y-127485000D02*
X89810000Y-127785000D01*
G75*
G02*
X89660000Y-127935000I-150000J0D01*
G01*
X88010000Y-127935000D01*
G75*
G02*
X87860000Y-127785000I0J150000D01*
G01*
X87860000Y-127485000D01*
G75*
G02*
X88010000Y-127335000I150000J0D01*
G01*
X89660000Y-127335000D01*
G75*
G02*
X89810000Y-127485000I0J-150000D01*
G01*
G37*
G36*
G01*
X89810000Y-126215000D02*
X89810000Y-126515000D01*
G75*
G02*
X89660000Y-126665000I-150000J0D01*
G01*
X88010000Y-126665000D01*
G75*
G02*
X87860000Y-126515000I0J150000D01*
G01*
X87860000Y-126215000D01*
G75*
G02*
X88010000Y-126065000I150000J0D01*
G01*
X89660000Y-126065000D01*
G75*
G02*
X89810000Y-126215000I0J-150000D01*
G01*
G37*
G36*
G01*
X89810000Y-124945000D02*
X89810000Y-125245000D01*
G75*
G02*
X89660000Y-125395000I-150000J0D01*
G01*
X88010000Y-125395000D01*
G75*
G02*
X87860000Y-125245000I0J150000D01*
G01*
X87860000Y-124945000D01*
G75*
G02*
X88010000Y-124795000I150000J0D01*
G01*
X89660000Y-124795000D01*
G75*
G02*
X89810000Y-124945000I0J-150000D01*
G01*
G37*
G36*
G01*
X89810000Y-123675000D02*
X89810000Y-123975000D01*
G75*
G02*
X89660000Y-124125000I-150000J0D01*
G01*
X88010000Y-124125000D01*
G75*
G02*
X87860000Y-123975000I0J150000D01*
G01*
X87860000Y-123675000D01*
G75*
G02*
X88010000Y-123525000I150000J0D01*
G01*
X89660000Y-123525000D01*
G75*
G02*
X89810000Y-123675000I0J-150000D01*
G01*
G37*
G36*
G01*
X89810000Y-122405000D02*
X89810000Y-122705000D01*
G75*
G02*
X89660000Y-122855000I-150000J0D01*
G01*
X88010000Y-122855000D01*
G75*
G02*
X87860000Y-122705000I0J150000D01*
G01*
X87860000Y-122405000D01*
G75*
G02*
X88010000Y-122255000I150000J0D01*
G01*
X89660000Y-122255000D01*
G75*
G02*
X89810000Y-122405000I0J-150000D01*
G01*
G37*
%TD*%
%TO.C,R4*%
G36*
G01*
X80158000Y-103715000D02*
X79608000Y-103715000D01*
G75*
G02*
X79408000Y-103515000I0J200000D01*
G01*
X79408000Y-103115000D01*
G75*
G02*
X79608000Y-102915000I200000J0D01*
G01*
X80158000Y-102915000D01*
G75*
G02*
X80358000Y-103115000I0J-200000D01*
G01*
X80358000Y-103515000D01*
G75*
G02*
X80158000Y-103715000I-200000J0D01*
G01*
G37*
G36*
G01*
X80158000Y-105365000D02*
X79608000Y-105365000D01*
G75*
G02*
X79408000Y-105165000I0J200000D01*
G01*
X79408000Y-104765000D01*
G75*
G02*
X79608000Y-104565000I200000J0D01*
G01*
X80158000Y-104565000D01*
G75*
G02*
X80358000Y-104765000I0J-200000D01*
G01*
X80358000Y-105165000D01*
G75*
G02*
X80158000Y-105365000I-200000J0D01*
G01*
G37*
%TD*%
%TO.C,R3*%
G36*
G01*
X81809000Y-103715000D02*
X81259000Y-103715000D01*
G75*
G02*
X81059000Y-103515000I0J200000D01*
G01*
X81059000Y-103115000D01*
G75*
G02*
X81259000Y-102915000I200000J0D01*
G01*
X81809000Y-102915000D01*
G75*
G02*
X82009000Y-103115000I0J-200000D01*
G01*
X82009000Y-103515000D01*
G75*
G02*
X81809000Y-103715000I-200000J0D01*
G01*
G37*
G36*
G01*
X81809000Y-105365000D02*
X81259000Y-105365000D01*
G75*
G02*
X81059000Y-105165000I0J200000D01*
G01*
X81059000Y-104765000D01*
G75*
G02*
X81259000Y-104565000I200000J0D01*
G01*
X81809000Y-104565000D01*
G75*
G02*
X82009000Y-104765000I0J-200000D01*
G01*
X82009000Y-105165000D01*
G75*
G02*
X81809000Y-105365000I-200000J0D01*
G01*
G37*
%TD*%
%TO.C,R2*%
G36*
G01*
X85617000Y-96753000D02*
X85617000Y-97303000D01*
G75*
G02*
X85417000Y-97503000I-200000J0D01*
G01*
X85017000Y-97503000D01*
G75*
G02*
X84817000Y-97303000I0J200000D01*
G01*
X84817000Y-96753000D01*
G75*
G02*
X85017000Y-96553000I200000J0D01*
G01*
X85417000Y-96553000D01*
G75*
G02*
X85617000Y-96753000I0J-200000D01*
G01*
G37*
G36*
G01*
X87267000Y-96753000D02*
X87267000Y-97303000D01*
G75*
G02*
X87067000Y-97503000I-200000J0D01*
G01*
X86667000Y-97503000D01*
G75*
G02*
X86467000Y-97303000I0J200000D01*
G01*
X86467000Y-96753000D01*
G75*
G02*
X86667000Y-96553000I200000J0D01*
G01*
X87067000Y-96553000D01*
G75*
G02*
X87267000Y-96753000I0J-200000D01*
G01*
G37*
%TD*%
%TO.C,R1*%
G36*
G01*
X84753000Y-84730000D02*
X84753000Y-84180000D01*
G75*
G02*
X84953000Y-83980000I200000J0D01*
G01*
X85353000Y-83980000D01*
G75*
G02*
X85553000Y-84180000I0J-200000D01*
G01*
X85553000Y-84730000D01*
G75*
G02*
X85353000Y-84930000I-200000J0D01*
G01*
X84953000Y-84930000D01*
G75*
G02*
X84753000Y-84730000I0J200000D01*
G01*
G37*
G36*
G01*
X83103000Y-84730000D02*
X83103000Y-84180000D01*
G75*
G02*
X83303000Y-83980000I200000J0D01*
G01*
X83703000Y-83980000D01*
G75*
G02*
X83903000Y-84180000I0J-200000D01*
G01*
X83903000Y-84730000D01*
G75*
G02*
X83703000Y-84930000I-200000J0D01*
G01*
X83303000Y-84930000D01*
G75*
G02*
X83103000Y-84730000I0J200000D01*
G01*
G37*
%TD*%
%TO.C,J15*%
X80772000Y-45593000D03*
%TD*%
D15*
%TO.C,J14*%
X80772000Y-121285000D03*
X80772000Y-118745000D03*
X80772000Y-116205000D03*
X80772000Y-113665000D03*
X80772000Y-111125000D03*
D16*
X80772000Y-108585000D03*
%TD*%
D15*
%TO.C,J13*%
X80772000Y-99822000D03*
X80772000Y-97282000D03*
X80772000Y-94742000D03*
X80772000Y-92202000D03*
X80772000Y-89662000D03*
X80772000Y-87122000D03*
D16*
X80772000Y-84582000D03*
%TD*%
M02*
