M48
; DRILL file {KiCad (5.1.9)-1} date 11/25/21 09:32:03
; FORMAT={-:-/ absolute / metric / decimal}
; #@! TF.CreationDate,2021-11-25T09:32:03+01:00
; #@! TF.GenerationSoftware,Kicad,Pcbnew,(5.1.9)-1
; #@! TF.FileFunction,Plated,1,2,PTH
FMAT,2
METRIC
T1C0.356
T2C0.400
T3C1.000
%
G90
G05
T1
X79.248Y-98.425
X79.451Y-68.301
X79.502Y-106.172
X79.629Y-52.451
X79.883Y-39.37
X79.883Y-47.244
X79.883Y-129.794
X80.368Y-72.115
X80.391Y-123.444
X80.391Y-126.873
X80.415Y-71.292
X80.645Y-53.721
X80.899Y-105.918
X81.491Y-71.822
X81.661Y-109.982
X81.788Y-52.07
X81.796Y-82.415
X81.813Y-91.008
X81.915Y-98.425
X82.042Y-42.418
X82.067Y-112.598
X82.073Y-95.634
X82.169Y-125.095
X82.194Y-118.669
X82.194Y-126.34
X82.242Y-94.107
X82.242Y-106.807
X82.262Y-115.573
X82.423Y-80.01
X82.437Y-88.013
X82.532Y-80.91
X82.55Y-123.825
X82.55Y-39.878
X82.55Y-47.498
X82.55Y-116.967
X82.604Y-92.71
X82.606Y-62.996
X82.692Y-81.83
X82.702Y-85.25
X82.753Y-48.565
X82.804Y-105.789
X82.923Y-114.513
X83.002Y-53.327
X83.058Y-121.031
X83.134Y-61.366
X83.337Y-69.8
X83.566Y-108.839
X83.668Y-132.258
X84.201Y-70.79
X84.201Y-121.539
X84.328Y-96.495
X84.351Y-103.68
X84.555Y-132.82
X84.582Y-97.865
X84.963Y-91.821
X84.963Y-88.011
X84.969Y-94.932
X85.017Y-121.9
X85.021Y-109.972
X85.03Y-76.585
X85.034Y-89.131
X85.09Y-135.001
X85.117Y-102.926
X85.168Y-111.33
X85.171Y-100.038
X85.293Y-124.485
X85.295Y-121.214
X85.374Y-84.349
X85.501Y-80.406
X85.588Y-71.179
X85.598Y-81.788
X85.603Y-78.735
X85.616Y-71.918
X85.65Y-112.649
X85.65Y-115.916
X85.725Y-125.222
X85.725Y-101.117
X85.74Y-117.256
X85.77Y-94.044
X85.77Y-90.791
X85.817Y-123.961
X85.926Y-119.791
X85.97Y-76.66
X86.086Y-86.666
X86.106Y-97.79
X86.106Y-141.732
X86.208Y-85.725
X86.233Y-39.878
X86.233Y-41.148
X86.233Y-42.545
X86.284Y-96.037
X86.285Y-87.873
X86.383Y-82.507
X86.418Y-71.1
X86.437Y-94.405
X86.476Y-93.124
X86.487Y-37.465
X86.487Y-80.772
X86.904Y-68.707
X86.995Y-83.633
X86.995Y-84.679
X87.122Y-100.762
X87.122Y-135.001
X87.14Y-122.7
X87.249Y-32.258
X87.249Y-43.688
X87.274Y-90.424
X87.274Y-115.214
X87.325Y-67.056
X87.376Y-44.958
X87.376Y-46.228
X87.376Y-64.897
X87.63Y-100.076
X87.63Y-101.473
X87.63Y-102.997
X87.63Y-104.14
X87.63Y-105.41
X87.63Y-106.68
X87.63Y-145.288
X87.757Y-137.033
X87.884Y-61.087
X87.986Y-37.668
X88.075Y-121.374
X88.086Y-63.119
X88.265Y-97.028
X88.265Y-141.986
X88.392Y-139.065
X88.392Y-141.097
X88.657Y-59.581
X88.662Y-142.859
X90.805Y-144.526
X91.202Y-45.212
X91.421Y-146.575
X91.44Y-43.561
X91.44Y-147.32
X91.456Y-145.653
X91.524Y-68.749
X91.528Y-125.984
X91.528Y-106.807
X91.559Y-87.44
X91.561Y-66.802
X91.587Y-105.009
X91.748Y-123.828
X91.926Y-85.853
X91.945Y-64.77
X91.97Y-41.021
X92.016Y-91.108
X92.072Y-102.76
X92.075Y-35.052
X92.075Y-36.83
X92.075Y-142.875
X92.132Y-121.666
X92.147Y-33.17
X92.183Y-144.556
X92.2Y-83.128
X92.202Y-38.989
X92.259Y-140.97
X92.329Y-62.05
X92.469Y-81.114
X92.516Y-100.15
X92.516Y-119.2
X92.526Y-52.127
X92.71Y-138.25
X92.759Y-58.195
X92.872Y-77.124
X92.9Y-96.237
X92.9Y-115.287
X92.989Y-134.25
X93.24Y-56.062
X93.397Y-113.2
X93.457Y-75.1
X93.751Y-94.15
X93.929Y-132.25
T2
X80.367Y-80.105
X82.434Y-78.925
X82.902Y-70.633
X85.454Y-44.704
X85.578Y-38.608
X86.84Y-110.645
X88.095Y-54.515
X88.231Y-48.734
X90.75Y-130.2
X90.751Y-92.343
X91.181Y-38.044
X91.262Y-32.055
X93.726Y-30.082
X94.014Y-53.805
X94.147Y-72.837
X94.18Y-110.771
X94.281Y-91.715
X94.289Y-129.616
T3
X80.772Y-45.593
X80.772Y-55.88
X80.772Y-58.42
X80.772Y-66.167
X80.772Y-73.914
X80.772Y-76.454
X80.772Y-84.582
X80.772Y-87.122
X80.772Y-89.662
X80.772Y-92.202
X80.772Y-94.742
X80.772Y-97.282
X80.772Y-99.822
X80.772Y-108.585
X80.772Y-111.125
X80.772Y-113.665
X80.772Y-116.205
X80.772Y-118.745
X80.772Y-121.285
X81.28Y-131.826
X82.55Y-134.026
X84.437Y-36.086
X84.582Y-137.541
X85.852Y-139.741
X85.979Y-55.88
X85.979Y-58.42
X85.979Y-67.31
X85.979Y-69.85
X86.233Y-34.29
T0
M30
