%TF.GenerationSoftware,KiCad,Pcbnew,(5.1.9)-1*%
%TF.CreationDate,2021-11-25T09:31:56+01:00*%
%TF.ProjectId,connector,636f6e6e-6563-4746-9f72-2e6b69636164,rev?*%
%TF.SameCoordinates,Original*%
%TF.FileFunction,Profile,NP*%
%FSLAX46Y46*%
G04 Gerber Fmt 4.6, Leading zero omitted, Abs format (unit mm)*
G04 Created by KiCad (PCBNEW (5.1.9)-1) date 2021-11-25 09:31:56*
%MOMM*%
%LPD*%
G01*
G04 APERTURE LIST*
%TA.AperFunction,Profile*%
%ADD10C,0.050000*%
%TD*%
G04 APERTURE END LIST*
D10*
X94615000Y-29527500D02*
X94843600Y-29756100D01*
X94615000Y-148564600D02*
X94843600Y-148336000D01*
X94843600Y-49276000D02*
X94843600Y-29756100D01*
X93954600Y-50673000D02*
X94843600Y-51562000D01*
X93954601Y-50672999D02*
G75*
G02*
X93954601Y-50165001I253999J253999D01*
G01*
X93954601Y-50165001D02*
X94843600Y-49276000D01*
X78740000Y-49276000D02*
X78740000Y-39624000D01*
X79628999Y-50165001D02*
G75*
G02*
X79628999Y-50672999I-253999J-253999D01*
G01*
X79628999Y-50672999D02*
X78740000Y-51562000D01*
X79629000Y-50165000D02*
X78740000Y-49276000D01*
X87919059Y-30268134D02*
G75*
G02*
X89281000Y-29527500I1771702J-1635414D01*
G01*
X78740000Y-39624000D02*
G75*
G02*
X79567822Y-37719001I2605821J0D01*
G01*
X78950241Y-131207410D02*
G75*
G02*
X78740000Y-130048000I3091759J1159410D01*
G01*
X90931339Y-148567547D02*
G75*
G02*
X87249001Y-146684999I-126339J4295547D01*
G01*
X79567822Y-37719001D02*
X87919059Y-30268134D01*
X87249001Y-146684999D02*
X78950241Y-131207410D01*
X89281000Y-29527500D02*
X94615000Y-29527500D01*
X78740000Y-130048000D02*
X78740000Y-51562000D01*
X94615000Y-148567548D02*
X90931339Y-148567548D01*
X94843600Y-51562000D02*
X94843600Y-148336000D01*
M02*
