%TF.GenerationSoftware,KiCad,Pcbnew,(5.1.9)-1*%
%TF.CreationDate,2021-03-10T22:07:46+01:00*%
%TF.ProjectId,poly_kb,706f6c79-5f6b-4622-9e6b-696361645f70,rev?*%
%TF.SameCoordinates,Original*%
%TF.FileFunction,Copper,L2,Bot*%
%TF.FilePolarity,Positive*%
%FSLAX46Y46*%
G04 Gerber Fmt 4.6, Leading zero omitted, Abs format (unit mm)*
G04 Created by KiCad (PCBNEW (5.1.9)-1) date 2021-03-10 22:07:46*
%MOMM*%
%LPD*%
G01*
G04 APERTURE LIST*
%TA.AperFunction,ComponentPad*%
%ADD10O,1.700000X1.700000*%
%TD*%
%TA.AperFunction,ComponentPad*%
%ADD11R,1.700000X1.700000*%
%TD*%
%TA.AperFunction,SMDPad,CuDef*%
%ADD12R,3.500000X1.400000*%
%TD*%
%TA.AperFunction,ComponentPad*%
%ADD13O,2.100000X1.000000*%
%TD*%
%TA.AperFunction,ComponentPad*%
%ADD14O,1.600000X1.000000*%
%TD*%
%TA.AperFunction,ViaPad*%
%ADD15C,0.609600*%
%TD*%
%TA.AperFunction,ViaPad*%
%ADD16C,0.800000*%
%TD*%
%TA.AperFunction,Conductor*%
%ADD17C,0.292100*%
%TD*%
%TA.AperFunction,Conductor*%
%ADD18C,0.500000*%
%TD*%
%TA.AperFunction,Conductor*%
%ADD19C,1.000000*%
%TD*%
%TA.AperFunction,Conductor*%
%ADD20C,0.750000*%
%TD*%
%TA.AperFunction,Conductor*%
%ADD21C,0.300000*%
%TD*%
%TA.AperFunction,Conductor*%
%ADD22C,0.254000*%
%TD*%
%TA.AperFunction,Conductor*%
%ADD23C,0.127000*%
%TD*%
G04 APERTURE END LIST*
D10*
%TO.P,J10,12*%
%TO.N,+5V*%
X445770000Y-184658000D03*
%TO.P,J10,11*%
X443230000Y-184658000D03*
%TO.P,J10,10*%
%TO.N,GND*%
X445770000Y-182118000D03*
%TO.P,J10,9*%
X443230000Y-182118000D03*
%TO.P,J10,8*%
%TO.N,SPI1_SS*%
X445770000Y-179578000D03*
%TO.P,J10,7*%
%TO.N,SPI1_SCK*%
X443230000Y-179578000D03*
%TO.P,J10,6*%
%TO.N,SPI1_MISO*%
X445770000Y-177038000D03*
%TO.P,J10,5*%
%TO.N,SPI1_MOSI*%
X443230000Y-177038000D03*
%TO.P,J10,4*%
%TO.N,SPI1_RESET*%
X445770000Y-174498000D03*
%TO.P,J10,3*%
%TO.N,LED_ARRAY*%
X443230000Y-174498000D03*
%TO.P,J10,2*%
%TO.N,+3V3*%
X445770000Y-171958000D03*
D11*
%TO.P,J10,1*%
%TO.N,SPI3_SS*%
X443230000Y-171958000D03*
%TD*%
D10*
%TO.P,J12,40*%
%TO.N,KCol19*%
X491490000Y-189738000D03*
%TO.P,J12,39*%
%TO.N,KCol18*%
X491490000Y-187198000D03*
%TO.P,J12,38*%
%TO.N,KCol17*%
X488950000Y-189738000D03*
%TO.P,J12,37*%
%TO.N,KCol16*%
X488950000Y-187198000D03*
%TO.P,J12,36*%
%TO.N,KCol15*%
X486410000Y-189738000D03*
%TO.P,J12,35*%
%TO.N,KCol14*%
X486410000Y-187198000D03*
%TO.P,J12,34*%
%TO.N,KCol13*%
X483870000Y-189738000D03*
%TO.P,J12,33*%
%TO.N,KCol12*%
X483870000Y-187198000D03*
%TO.P,J12,32*%
%TO.N,KCol11*%
X481330000Y-189738000D03*
%TO.P,J12,31*%
%TO.N,KCol10*%
X481330000Y-187198000D03*
%TO.P,J12,30*%
%TO.N,KCol9*%
X478790000Y-189738000D03*
%TO.P,J12,29*%
%TO.N,KCol8*%
X478790000Y-187198000D03*
%TO.P,J12,28*%
%TO.N,KCol7*%
X476250000Y-189738000D03*
%TO.P,J12,27*%
%TO.N,KCol6*%
X476250000Y-187198000D03*
%TO.P,J12,26*%
%TO.N,KCol5*%
X473710000Y-189738000D03*
%TO.P,J12,25*%
%TO.N,KCol4*%
X473710000Y-187198000D03*
%TO.P,J12,24*%
%TO.N,KCol3*%
X471170000Y-189738000D03*
%TO.P,J12,23*%
%TO.N,KCol2*%
X471170000Y-187198000D03*
%TO.P,J12,22*%
%TO.N,KCol1*%
X468630000Y-189738000D03*
%TO.P,J12,21*%
%TO.N,KCol0*%
X468630000Y-187198000D03*
%TO.P,J12,20*%
%TO.N,USART6_TX*%
X466090000Y-189738000D03*
%TO.P,J12,19*%
%TO.N,USART6_RX*%
X466090000Y-187198000D03*
%TO.P,J12,18*%
%TO.N,I2C3_SDA*%
X463550000Y-189738000D03*
%TO.P,J12,17*%
%TO.N,I2C3_SCL*%
X463550000Y-187198000D03*
%TO.P,J12,16*%
%TO.N,USART1_TX*%
X461010000Y-189738000D03*
%TO.P,J12,15*%
%TO.N,USART1_RX*%
X461010000Y-187198000D03*
%TO.P,J12,14*%
%TO.N,I2C2_SDA*%
X458470000Y-189738000D03*
%TO.P,J12,13*%
%TO.N,I2C2_SCL*%
X458470000Y-187198000D03*
%TO.P,J12,12*%
%TO.N,PD15*%
X455930000Y-189738000D03*
%TO.P,J12,11*%
%TO.N,PD14*%
X455930000Y-187198000D03*
%TO.P,J12,10*%
%TO.N,PD13*%
X453390000Y-189738000D03*
%TO.P,J12,9*%
%TO.N,PD12*%
X453390000Y-187198000D03*
%TO.P,J12,8*%
%TO.N,PD11*%
X450850000Y-189738000D03*
%TO.P,J12,7*%
%TO.N,PD10*%
X450850000Y-187198000D03*
%TO.P,J12,6*%
%TO.N,PB1*%
X448310000Y-189738000D03*
%TO.P,J12,5*%
%TO.N,PB0*%
X448310000Y-187198000D03*
%TO.P,J12,4*%
%TO.N,SHIFTR_LATCH_CLK*%
X445770000Y-189738000D03*
%TO.P,J12,3*%
%TO.N,SHIFTR_DATA*%
X445770000Y-187198000D03*
%TO.P,J12,2*%
%TO.N,SHIFTR_CLK*%
X443230000Y-189738000D03*
D11*
%TO.P,J12,1*%
%TO.N,SHIFTR_NMASTER_RST*%
X443230000Y-187198000D03*
%TD*%
D10*
%TO.P,J11,12*%
%TO.N,KCol20*%
X511810000Y-189738000D03*
%TO.P,J11,11*%
%TO.N,KRow0*%
X511810000Y-187198000D03*
%TO.P,J11,10*%
%TO.N,KRow1*%
X511810000Y-184658000D03*
%TO.P,J11,9*%
%TO.N,KRow2*%
X511810000Y-182118000D03*
%TO.P,J11,8*%
%TO.N,KRow3*%
X511810000Y-179578000D03*
%TO.P,J11,7*%
%TO.N,KRow4*%
X511810000Y-177038000D03*
%TO.P,J11,6*%
%TO.N,KRow5*%
X511810000Y-174498000D03*
%TO.P,J11,5*%
%TO.N,KRow6*%
X511810000Y-171958000D03*
%TO.P,J11,4*%
%TO.N,KRow7*%
X511810000Y-169418000D03*
%TO.P,J11,3*%
%TO.N,ADC1_IN2*%
X511810000Y-166878000D03*
%TO.P,J11,2*%
%TO.N,ADC1_IN1*%
X511810000Y-164338000D03*
D11*
%TO.P,J11,1*%
%TO.N,+3.3VA*%
X511810000Y-161798000D03*
%TD*%
%TO.P,J9,1*%
%TO.N,GND*%
X457200000Y-161798000D03*
D10*
%TO.P,J9,2*%
X457200000Y-164338000D03*
%TD*%
%TO.P,J8,2*%
%TO.N,GND*%
X554355000Y-173228000D03*
D11*
%TO.P,J8,1*%
X556895000Y-173228000D03*
%TD*%
D10*
%TO.P,J3,12*%
%TO.N,+5V*%
X534035000Y-161798000D03*
%TO.P,J3,11*%
X534035000Y-159258000D03*
%TO.P,J3,10*%
%TO.N,GND*%
X536575000Y-161798000D03*
%TO.P,J3,9*%
X536575000Y-159258000D03*
%TO.P,J3,8*%
%TO.N,SPI1_SS*%
X539115000Y-161798000D03*
%TO.P,J3,7*%
%TO.N,SPI1_SCK*%
X539115000Y-159258000D03*
%TO.P,J3,6*%
%TO.N,SPI1_MISO*%
X541655000Y-161798000D03*
%TO.P,J3,5*%
%TO.N,SPI1_MOSI*%
X541655000Y-159258000D03*
%TO.P,J3,4*%
%TO.N,SPI1_RESET*%
X544195000Y-161798000D03*
%TO.P,J3,3*%
%TO.N,LED_ARRAY*%
X544195000Y-159258000D03*
%TO.P,J3,2*%
%TO.N,+3V3*%
X546735000Y-161798000D03*
D11*
%TO.P,J3,1*%
%TO.N,SPI3_SS*%
X546735000Y-159258000D03*
%TD*%
D12*
%TO.P,J1,10*%
%TO.N,Net-(J1-Pad10)*%
X550358000Y-169291000D03*
%TO.P,J1,8*%
%TO.N,N/C*%
X550358000Y-166751000D03*
%TO.P,J1,6*%
%TO.N,Net-(J1-Pad6)*%
X550358000Y-164211000D03*
%TO.P,J1,4*%
%TO.N,Net-(J1-Pad4)*%
X550358000Y-161671000D03*
%TO.P,J1,2*%
%TO.N,Net-(J1-Pad2)*%
X550358000Y-159131000D03*
%TD*%
D10*
%TO.P,J5,8*%
%TO.N,USART2_RX*%
X528955000Y-215138000D03*
%TO.P,J5,7*%
%TO.N,GND*%
X531495000Y-215138000D03*
%TO.P,J5,6*%
%TO.N,ESP01_EN*%
X528955000Y-217678000D03*
%TO.P,J5,5*%
%TO.N,ESP01_IO2*%
X531495000Y-217678000D03*
%TO.P,J5,4*%
%TO.N,ESP01_RST*%
X528955000Y-220218000D03*
%TO.P,J5,3*%
%TO.N,ESP01_IO0*%
X531495000Y-220218000D03*
%TO.P,J5,2*%
%TO.N,+3V3*%
X528955000Y-222758000D03*
D11*
%TO.P,J5,1*%
%TO.N,USART2_TX*%
X531495000Y-222758000D03*
%TD*%
D10*
%TO.P,J6,4*%
%TO.N,GND*%
X540385000Y-173228000D03*
%TO.P,J6,3*%
%TO.N,+3V3*%
X542925000Y-173228000D03*
%TO.P,J6,2*%
%TO.N,I2C1_SCL*%
X545465000Y-173228000D03*
D11*
%TO.P,J6,1*%
%TO.N,I2C1_SDA*%
X548005000Y-173228000D03*
%TD*%
D13*
%TO.P,J2,S1*%
%TO.N,Net-(J2-PadS1)*%
X555289000Y-179068000D03*
X555289000Y-187708000D03*
D14*
X559469000Y-187708000D03*
X559469000Y-179068000D03*
%TD*%
D10*
%TO.P,J7,40*%
%TO.N,KCol19*%
X528955000Y-207518000D03*
%TO.P,J7,39*%
%TO.N,KCol18*%
X531495000Y-207518000D03*
%TO.P,J7,38*%
%TO.N,KCol17*%
X528955000Y-204978000D03*
%TO.P,J7,37*%
%TO.N,KCol16*%
X531495000Y-204978000D03*
%TO.P,J7,36*%
%TO.N,KCol15*%
X528955000Y-202438000D03*
%TO.P,J7,35*%
%TO.N,KCol14*%
X531495000Y-202438000D03*
%TO.P,J7,34*%
%TO.N,KCol13*%
X528955000Y-199898000D03*
%TO.P,J7,33*%
%TO.N,KCol12*%
X531495000Y-199898000D03*
%TO.P,J7,32*%
%TO.N,KCol11*%
X528955000Y-197358000D03*
%TO.P,J7,31*%
%TO.N,KCol10*%
X531495000Y-197358000D03*
%TO.P,J7,30*%
%TO.N,KCol9*%
X528955000Y-194818000D03*
%TO.P,J7,29*%
%TO.N,KCol8*%
X531495000Y-194818000D03*
%TO.P,J7,28*%
%TO.N,KCol7*%
X528955000Y-192278000D03*
%TO.P,J7,27*%
%TO.N,KCol6*%
X531495000Y-192278000D03*
%TO.P,J7,26*%
%TO.N,KCol5*%
X528955000Y-189738000D03*
%TO.P,J7,25*%
%TO.N,KCol4*%
X531495000Y-189738000D03*
%TO.P,J7,24*%
%TO.N,KCol3*%
X528955000Y-187198000D03*
%TO.P,J7,23*%
%TO.N,KCol2*%
X531495000Y-187198000D03*
%TO.P,J7,22*%
%TO.N,KCol1*%
X528955000Y-184658000D03*
%TO.P,J7,21*%
%TO.N,KCol0*%
X531495000Y-184658000D03*
%TO.P,J7,20*%
%TO.N,USART6_TX*%
X528955000Y-182118000D03*
%TO.P,J7,19*%
%TO.N,USART6_RX*%
X531495000Y-182118000D03*
%TO.P,J7,18*%
%TO.N,I2C3_SDA*%
X528955000Y-179578000D03*
%TO.P,J7,17*%
%TO.N,I2C3_SCL*%
X531495000Y-179578000D03*
%TO.P,J7,16*%
%TO.N,USART1_TX*%
X528955000Y-177038000D03*
%TO.P,J7,15*%
%TO.N,USART1_RX*%
X531495000Y-177038000D03*
%TO.P,J7,14*%
%TO.N,I2C2_SDA*%
X528955000Y-174498000D03*
%TO.P,J7,13*%
%TO.N,I2C2_SCL*%
X531495000Y-174498000D03*
%TO.P,J7,12*%
%TO.N,PD15*%
X528955000Y-171958000D03*
%TO.P,J7,11*%
%TO.N,PD14*%
X531495000Y-171958000D03*
%TO.P,J7,10*%
%TO.N,PD13*%
X528955000Y-169418000D03*
%TO.P,J7,9*%
%TO.N,PD12*%
X531495000Y-169418000D03*
%TO.P,J7,8*%
%TO.N,PD11*%
X528955000Y-166878000D03*
%TO.P,J7,7*%
%TO.N,PD10*%
X531495000Y-166878000D03*
%TO.P,J7,6*%
%TO.N,PB1*%
X528955000Y-164338000D03*
%TO.P,J7,5*%
%TO.N,PB0*%
X531495000Y-164338000D03*
%TO.P,J7,4*%
%TO.N,SHIFTR_LATCH_CLK*%
X528955000Y-161798000D03*
%TO.P,J7,3*%
%TO.N,SHIFTR_DATA*%
X531495000Y-161798000D03*
%TO.P,J7,2*%
%TO.N,SHIFTR_CLK*%
X528955000Y-159258000D03*
D11*
%TO.P,J7,1*%
%TO.N,SHIFTR_NMASTER_RST*%
X531495000Y-159258000D03*
%TD*%
D10*
%TO.P,J4,12*%
%TO.N,KCol20*%
X528955000Y-227838000D03*
%TO.P,J4,11*%
%TO.N,KRow0*%
X531495000Y-227838000D03*
%TO.P,J4,10*%
%TO.N,KRow1*%
X534035000Y-227838000D03*
%TO.P,J4,9*%
%TO.N,KRow2*%
X536575000Y-227838000D03*
%TO.P,J4,8*%
%TO.N,KRow3*%
X539115000Y-227838000D03*
%TO.P,J4,7*%
%TO.N,KRow4*%
X541655000Y-227838000D03*
%TO.P,J4,6*%
%TO.N,KRow5*%
X544195000Y-227838000D03*
%TO.P,J4,5*%
%TO.N,KRow6*%
X546735000Y-227838000D03*
%TO.P,J4,4*%
%TO.N,KRow7*%
X549275000Y-227838000D03*
%TO.P,J4,3*%
%TO.N,ADC1_IN2*%
X551815000Y-227838000D03*
%TO.P,J4,2*%
%TO.N,ADC1_IN1*%
X554355000Y-227838000D03*
D11*
%TO.P,J4,1*%
%TO.N,+3.3VA*%
X556895000Y-227838000D03*
%TD*%
D15*
%TO.N,GND*%
X536829000Y-211369260D03*
X534428873Y-211509133D03*
X555777400Y-225171000D03*
X557403000Y-222224600D03*
X535508200Y-213131400D03*
X537286200Y-217398600D03*
X547395400Y-218211400D03*
X558038000Y-193421000D03*
X554732000Y-190758000D03*
X558038000Y-197739000D03*
X558137159Y-206638194D03*
D16*
X552678600Y-187172600D03*
D15*
X557631921Y-211927599D03*
D16*
X552653200Y-179451000D03*
D15*
X535432000Y-218440000D03*
X538988000Y-218821000D03*
X534670000Y-217678000D03*
X532511000Y-213487000D03*
X532892000Y-215900000D03*
X533497003Y-212441003D03*
X540312572Y-209786006D03*
X543400220Y-213681356D03*
X541670860Y-217783561D03*
X539750000Y-218059000D03*
D16*
X553542200Y-175564800D03*
X553491400Y-176987200D03*
X553618400Y-189712600D03*
X560476400Y-199237600D03*
X560451000Y-189611000D03*
X560527200Y-200558400D03*
X558137159Y-208937959D03*
X558137159Y-210842959D03*
X555853600Y-217551000D03*
X553948600Y-219456000D03*
X550824400Y-222453200D03*
X528320000Y-225018600D03*
X558647600Y-229285800D03*
X548055800Y-229260400D03*
X537921200Y-229311200D03*
X537006800Y-168935400D03*
X540004000Y-168910000D03*
X537006800Y-166624000D03*
D15*
X539623000Y-214757000D03*
X530098000Y-210540600D03*
D16*
X543674300Y-191122300D03*
X543636200Y-185623200D03*
D15*
X550214800Y-195148200D03*
X551078400Y-197789800D03*
X552907200Y-199669400D03*
D16*
X532409400Y-225755200D03*
X535305000Y-225425000D03*
X540308800Y-225399600D03*
X543001200Y-225399600D03*
X545566600Y-226339400D03*
X547776400Y-226212400D03*
D15*
X537845000Y-225577400D03*
D16*
X559790600Y-183413400D03*
D15*
X533019000Y-217932000D03*
X536143200Y-219227404D03*
X537921200Y-219456000D03*
X542417000Y-165354000D03*
X539877000Y-166497000D03*
X545084000Y-177165000D03*
X546481000Y-192532000D03*
X537845000Y-205486000D03*
X546227000Y-208026000D03*
X548894000Y-175006000D03*
%TO.N,+3V3*%
X533247600Y-203149200D03*
X545338000Y-218592400D03*
X548253055Y-216764241D03*
X553313600Y-222148400D03*
X556260000Y-208534000D03*
X557158540Y-217166765D03*
D16*
X546404805Y-196342013D03*
D15*
X557834800Y-181914800D03*
X551992800Y-181203600D03*
D16*
X545125340Y-185597800D03*
X545515800Y-163601400D03*
X543814000Y-193649600D03*
D15*
X543104181Y-210967723D03*
X541371035Y-209756943D03*
X544811568Y-212759886D03*
D16*
X540385000Y-167513000D03*
%TO.N,+5V*%
X545851313Y-178263598D03*
D15*
%TO.N,SPI1_MOSI*%
X550743603Y-208554803D03*
X543437751Y-164044369D03*
%TO.N,SPI1_SCK*%
X548973228Y-208765628D03*
%TO.N,SPI1_MISO*%
X549862228Y-208740228D03*
%TO.N,SPI1_RESET*%
X551662600Y-208432400D03*
X543901698Y-164707862D03*
%TO.N,LED_ARRAY*%
X552567663Y-208447794D03*
%TO.N,SHIFTR_CLK*%
X533774650Y-167868600D03*
%TO.N,BOOT0*%
X544525200Y-210642200D03*
X556304130Y-215753968D03*
%TO.N,I2C1_SDA*%
X542899600Y-201693966D03*
X539293121Y-182744440D03*
X541886714Y-176690745D03*
X545926789Y-175941195D03*
%TO.N,I2C1_SCL*%
X542340800Y-201066400D03*
X541248600Y-175869600D03*
X538801010Y-181832617D03*
X543549037Y-175467757D03*
%TO.N,SWO*%
X536067000Y-179908200D03*
X537438211Y-199769704D03*
%TO.N,USB_D-*%
X555976486Y-182981608D03*
X556954990Y-183871729D03*
%TO.N,I2C2_SDA*%
X546648313Y-206380364D03*
%TO.N,I2C2_SCL*%
X547344600Y-206806800D03*
%TO.N,I2C3_SCL*%
X542809629Y-204789501D03*
%TO.N,I2C3_SDA*%
X542357030Y-205460787D03*
%TO.N,LED_STATUS*%
X551054144Y-214899914D03*
X558800359Y-204226740D03*
%TO.N,ADC1_IN2*%
X544687272Y-215153728D03*
X550761316Y-225800402D03*
%TO.N,ADC1_IN1*%
X542733159Y-218589091D03*
%TO.N,+3.3VA*%
X541670860Y-218605585D03*
%TO.N,NRST*%
X553218437Y-225196781D03*
X541781999Y-210566001D03*
%TO.N,SHIFTR_NMASTER_RST*%
X534416000Y-166471600D03*
%TO.N,RESET_INDICATOR*%
X537286200Y-206806800D03*
X558952400Y-227660200D03*
%TO.N,Net-(D3-Pad1)*%
X556387000Y-175539400D03*
X558850800Y-176174400D03*
%TO.N,BOOT1*%
X551470309Y-213436200D03*
X558800359Y-202803652D03*
D16*
%TO.N,VCC*%
X552881800Y-185851800D03*
X552094400Y-183819800D03*
D15*
%TO.N,KCol20*%
X542541156Y-212374943D03*
%TO.N,ESP01_IO2*%
X540108850Y-209002444D03*
%TO.N,ESP01_RST*%
X538099000Y-221615000D03*
%TO.N,ESP01_IO0*%
X531495000Y-212344000D03*
X539309450Y-208874263D03*
%TO.N,USART2_RX*%
X541087126Y-221349034D03*
%TO.N,KCol19*%
X539477482Y-207572552D03*
%TO.N,PD15*%
X546941495Y-205004979D03*
%TO.N,PD14*%
X547776400Y-204952600D03*
%TO.N,PD13*%
X548652121Y-204943292D03*
%TO.N,PD12*%
X549437831Y-204748023D03*
%TO.N,PD11*%
X550341033Y-204727800D03*
%TO.N,PD10*%
X550328613Y-205547240D03*
%TO.N,PB1*%
X550996084Y-214092387D03*
%TO.N,PB0*%
X548935260Y-212282915D03*
%TO.N,USART6_RX*%
X543585400Y-206756000D03*
%TO.N,USART6_TX*%
X545194563Y-207112787D03*
%TO.N,USART1_RX*%
X542501334Y-203487789D03*
%TO.N,USART1_TX*%
X543509200Y-204138641D03*
%TO.N,SPI3_SS*%
X552627800Y-191262000D03*
X550505499Y-170651301D03*
X551947352Y-171983400D03*
%TO.N,Net-(J1-Pad10)*%
X555244000Y-222834200D03*
%TO.N,Net-(J1-Pad6)*%
X546049200Y-166573200D03*
%TO.N,Net-(J1-Pad4)*%
X546550704Y-165151240D03*
%TO.N,Net-(J1-Pad2)*%
X546404800Y-189534800D03*
X546665444Y-164116044D03*
X544725364Y-176174268D03*
%TO.N,SPI1_SS*%
X547674800Y-208711800D03*
%TD*%
D17*
%TO.N,GND*%
X534568746Y-211369260D02*
X534428873Y-211509133D01*
X536829000Y-211369260D02*
X534568746Y-211369260D01*
X555777400Y-223850200D02*
X557403000Y-222224600D01*
X555777400Y-225171000D02*
X555777400Y-223850200D01*
X534428873Y-211509133D02*
X533730200Y-212207806D01*
X533730200Y-212207806D02*
X533730200Y-212648800D01*
X534212800Y-213131400D02*
X535508200Y-213131400D01*
X533730200Y-212648800D02*
X534212800Y-213131400D01*
X547395400Y-218211400D02*
X547395400Y-219608400D01*
X547395400Y-219608400D02*
X551688000Y-223901000D01*
X555726600Y-223901000D02*
X555777400Y-223850200D01*
X551688000Y-223901000D02*
X555726600Y-223901000D01*
X557395000Y-193421000D02*
X554732000Y-190758000D01*
X558038000Y-193421000D02*
X557395000Y-193421000D01*
X558038000Y-197739000D02*
X558038000Y-193421000D01*
X559943321Y-199644321D02*
X559943321Y-204832032D01*
X559943321Y-204832032D02*
X558137159Y-206638194D01*
X558038000Y-197739000D02*
X559943321Y-199644321D01*
X558137159Y-211422361D02*
X557631921Y-211927599D01*
X558137159Y-206638194D02*
X558137159Y-208937959D01*
X557403000Y-222224600D02*
X558590770Y-221036830D01*
X558590770Y-221036830D02*
X558590770Y-212886448D01*
X558590770Y-212886448D02*
X557631921Y-211927599D01*
D18*
X552526200Y-179451000D02*
X552653200Y-179451000D01*
X550761353Y-181215847D02*
X552526200Y-179451000D01*
X550761353Y-185255353D02*
X550761353Y-181215847D01*
X552678600Y-187172600D02*
X550761353Y-185255353D01*
D19*
X536575000Y-159258000D02*
X536575000Y-161798000D01*
X537006800Y-162229800D02*
X536575000Y-161798000D01*
D17*
X536829000Y-211369260D02*
X538729318Y-211369260D01*
X538729318Y-211369260D02*
X540312572Y-209786006D01*
X543400220Y-213681356D02*
X543400220Y-216054201D01*
X543400220Y-216054201D02*
X541670860Y-217783561D01*
X558137159Y-208937959D02*
X558137159Y-210842959D01*
X558137159Y-210842959D02*
X558137159Y-211422361D01*
D19*
X537006800Y-168935400D02*
X537006800Y-166624000D01*
X537006800Y-164160200D02*
X537006800Y-162229800D01*
X537006800Y-166624000D02*
X537006800Y-164160200D01*
D17*
X536143200Y-219151200D02*
X536143200Y-219227404D01*
D19*
X540131000Y-173228000D02*
X537006800Y-170103800D01*
X537006800Y-170103800D02*
X537006800Y-168935400D01*
X540385000Y-173228000D02*
X540131000Y-173228000D01*
D17*
%TO.N,+3V3*%
X556250490Y-213223490D02*
X557183940Y-214156940D01*
D20*
X556260000Y-213213980D02*
X556250490Y-213223490D01*
X556260000Y-208534000D02*
X556260000Y-213213980D01*
X556260000Y-213233000D02*
X557183940Y-214156940D01*
X556260000Y-213213980D02*
X556260000Y-213233000D01*
X557183940Y-217141365D02*
X557158540Y-217166765D01*
X557183940Y-214156940D02*
X557183940Y-217141365D01*
X557158540Y-218303460D02*
X553313600Y-222148400D01*
X557158540Y-217166765D02*
X557158540Y-218303460D01*
X553313600Y-221824786D02*
X548253055Y-216764241D01*
X553313600Y-222148400D02*
X553313600Y-221824786D01*
X557834800Y-181914800D02*
X552704000Y-181914800D01*
X552704000Y-181914800D02*
X551992800Y-181203600D01*
X546404805Y-196342013D02*
X545125340Y-195062548D01*
X546735000Y-162382200D02*
X545515800Y-163601400D01*
X546735000Y-161798000D02*
X546735000Y-162382200D01*
X545084000Y-193649600D02*
X545125340Y-193608260D01*
X543814000Y-193649600D02*
X545084000Y-193649600D01*
X545125340Y-193608260D02*
X545125340Y-185597800D01*
X545125340Y-195062548D02*
X545125340Y-193608260D01*
D17*
X541893401Y-209756943D02*
X543104181Y-210967723D01*
X541371035Y-209756943D02*
X541893401Y-209756943D01*
X546176200Y-217754200D02*
X546176200Y-214124518D01*
X546176200Y-214124518D02*
X544811568Y-212759886D01*
X545338000Y-218592400D02*
X546176200Y-217754200D01*
X543104181Y-210967723D02*
X544811568Y-212675110D01*
X544811568Y-212675110D02*
X544811568Y-212759886D01*
X527758949Y-221561949D02*
X528955000Y-222758000D01*
X527758949Y-206943895D02*
X527758949Y-221561949D01*
X528380895Y-206321949D02*
X527758949Y-206943895D01*
X531921207Y-206321949D02*
X528380895Y-206321949D01*
X533247600Y-204995556D02*
X531921207Y-206321949D01*
X533247600Y-203149200D02*
X533247600Y-204995556D01*
D20*
X542838939Y-169966939D02*
X540385000Y-167513000D01*
X542838939Y-173395939D02*
X542838939Y-169966939D01*
X543052000Y-173609000D02*
X542838939Y-173395939D01*
D19*
%TO.N,+5V*%
X534035000Y-161798000D02*
X534035000Y-159258000D01*
X534035000Y-162712400D02*
X534035000Y-161798000D01*
X535660600Y-164338000D02*
X534035000Y-162712400D01*
X535660600Y-171958000D02*
X535660600Y-164338000D01*
X541966198Y-178263598D02*
X535660600Y-171958000D01*
X545851313Y-178263598D02*
X541966198Y-178263598D01*
D17*
%TO.N,SPI1_MOSI*%
X543132952Y-164349168D02*
X543437751Y-164044369D01*
X550743603Y-208554803D02*
X550743603Y-208402403D01*
X550743603Y-208402403D02*
X555609110Y-203536896D01*
X555609110Y-203536896D02*
X555609110Y-198134610D01*
X548093844Y-180012356D02*
X549751222Y-178354978D01*
X549820160Y-172278318D02*
X549355225Y-171813383D01*
X543132952Y-167226694D02*
X543132952Y-164349168D01*
X549355225Y-171813383D02*
X547719641Y-171813383D01*
X555609110Y-198134610D02*
X548904410Y-191429910D01*
X548904410Y-191429910D02*
X548904410Y-187294810D01*
X548904410Y-187294810D02*
X548093844Y-186484244D01*
X548093844Y-186484244D02*
X548093844Y-180012356D01*
X549751222Y-178354978D02*
X549751224Y-175008614D01*
X547719641Y-171813383D02*
X543132952Y-167226694D01*
X549751224Y-175008614D02*
X549820160Y-174939678D01*
X549820160Y-174939678D02*
X549820160Y-172278318D01*
%TO.N,SPI1_SCK*%
X540311051Y-160454051D02*
X539115000Y-159258000D01*
X540311051Y-165857259D02*
X540311051Y-160454051D01*
X543560000Y-169106208D02*
X540311051Y-165857259D01*
X543560000Y-171944946D02*
X543560000Y-169106208D01*
X544195000Y-172579946D02*
X543560000Y-171944946D01*
X544195000Y-173863000D02*
X544195000Y-172579946D01*
X544830000Y-174498000D02*
X544195000Y-173863000D01*
X546100000Y-174498000D02*
X544830000Y-174498000D01*
X548512962Y-176910962D02*
X546100000Y-174498000D01*
X548512962Y-178201338D02*
X548512962Y-176910962D01*
X547109622Y-179604678D02*
X548512962Y-178201338D01*
X547109622Y-186891922D02*
X547109622Y-179604678D01*
X547920188Y-187702488D02*
X547109622Y-186891922D01*
X548973228Y-208765628D02*
X548973228Y-208689428D01*
X547920188Y-191837588D02*
X547920188Y-187702488D01*
X548973228Y-208689428D02*
X554456600Y-203206056D01*
X554456600Y-203206056D02*
X554456600Y-198374000D01*
X554456600Y-198374000D02*
X547920188Y-191837588D01*
%TO.N,SPI1_MISO*%
X546661051Y-171450741D02*
X541655000Y-166444690D01*
X546661051Y-174206943D02*
X546661051Y-171450741D01*
X549259111Y-176805003D02*
X546661051Y-174206943D01*
X547601733Y-186688083D02*
X547601733Y-179808517D01*
X541655000Y-166444690D02*
X541655000Y-161798000D01*
X548412299Y-187498649D02*
X547601733Y-186688083D01*
X548412299Y-191633749D02*
X548412299Y-187498649D01*
X549259111Y-178151139D02*
X549259111Y-176805003D01*
X555116999Y-198338449D02*
X548412299Y-191633749D01*
X547601733Y-179808517D02*
X549259111Y-178151139D01*
X555116999Y-203260951D02*
X555116999Y-198338449D01*
X549862228Y-208515722D02*
X555116999Y-203260951D01*
X549862228Y-208740228D02*
X549862228Y-208515722D01*
%TO.N,SPI1_RESET*%
X543901698Y-167299490D02*
X543901698Y-164707862D01*
X551662600Y-208432400D02*
X556101221Y-203993779D01*
X549559064Y-171321272D02*
X547923480Y-171321272D01*
X548585956Y-180216194D02*
X550243333Y-178558817D01*
X550243333Y-178558817D02*
X550243334Y-175212454D01*
X550312271Y-172074479D02*
X549559064Y-171321272D01*
X556101220Y-197930770D02*
X549396521Y-191226071D01*
X550243334Y-175212454D02*
X550312271Y-175143517D01*
X550312271Y-175143517D02*
X550312271Y-172074479D01*
X549396520Y-187090970D02*
X548585955Y-186280405D01*
X556101221Y-203993779D02*
X556101220Y-197930770D01*
X548585955Y-186280405D02*
X548585956Y-180216194D01*
X547923480Y-171321272D02*
X543901698Y-167299490D01*
X549396521Y-191226071D02*
X549396520Y-187090970D01*
%TO.N,LED_ARRAY*%
X542998949Y-160454051D02*
X544195000Y-159258000D01*
X550735444Y-178762656D02*
X550735444Y-175416294D01*
X549078066Y-186076566D02*
X549078066Y-180420034D01*
X548127320Y-170829162D02*
X544845852Y-167547694D01*
X542998949Y-162661287D02*
X542998949Y-160454051D01*
X544277637Y-163939975D02*
X542998949Y-162661287D01*
X544277637Y-164163345D02*
X544277637Y-163939975D01*
X544845852Y-164731560D02*
X544277637Y-164163345D01*
X544845852Y-167547694D02*
X544845852Y-164731560D01*
X550804381Y-171870639D02*
X549762904Y-170829162D01*
X550804382Y-175347356D02*
X550804381Y-171870639D01*
X550735444Y-175416294D02*
X550804382Y-175347356D01*
X549078066Y-180420034D02*
X550735444Y-178762656D01*
X549888630Y-186887130D02*
X549078066Y-186076566D01*
X549888632Y-191022232D02*
X549888630Y-186887130D01*
X556593332Y-204197618D02*
X556593330Y-197726930D01*
X552567663Y-208223287D02*
X556593332Y-204197618D01*
X552567663Y-208447794D02*
X552567663Y-208223287D01*
X556593330Y-197726930D02*
X549888632Y-191022232D01*
X549762904Y-170829162D02*
X548127320Y-170829162D01*
%TO.N,SHIFTR_CLK*%
X530151051Y-162892451D02*
X530400549Y-163141949D01*
X533469851Y-167563801D02*
X533774650Y-167868600D01*
X528955000Y-159258000D02*
X530151051Y-160454051D01*
X530400549Y-163141949D02*
X532069105Y-163141949D01*
X530151051Y-160454051D02*
X530151051Y-162892451D01*
X532069105Y-163141949D02*
X533469851Y-164542695D01*
X533469851Y-164542695D02*
X533469851Y-167563801D01*
%TO.N,BOOT0*%
X549636968Y-215753968D02*
X556304130Y-215753968D01*
X544525200Y-210642200D02*
X549636968Y-215753968D01*
%TO.N,I2C1_SDA*%
X543204399Y-201389167D02*
X543204399Y-200685399D01*
X539293121Y-196774121D02*
X539293121Y-182744440D01*
X543204399Y-200685399D02*
X539293121Y-196774121D01*
X542899600Y-201693966D02*
X543204399Y-201389167D01*
X543288430Y-176690745D02*
X544496953Y-175482222D01*
X544496953Y-175482222D02*
X545467816Y-175482222D01*
X541886714Y-176690745D02*
X543288430Y-176690745D01*
X545467816Y-175482222D02*
X545926789Y-175941195D01*
%TO.N,I2C1_SCL*%
X538496211Y-182137416D02*
X538801010Y-181832617D01*
X538496211Y-197221811D02*
X538496211Y-182137416D01*
X542340800Y-201066400D02*
X538496211Y-197221811D01*
X543147194Y-175869600D02*
X543549037Y-175467757D01*
X541248600Y-175869600D02*
X543147194Y-175869600D01*
%TO.N,SWO*%
X536135826Y-198467319D02*
X537438211Y-199769704D01*
X536067000Y-179908200D02*
X536135826Y-179977026D01*
X536135826Y-179977026D02*
X536135826Y-198467319D01*
%TO.N,USB_D-*%
X555976486Y-182981608D02*
X556866607Y-183871729D01*
X556866607Y-183871729D02*
X556954990Y-183871729D01*
%TO.N,I2C2_SDA*%
X536727438Y-179427576D02*
X536727439Y-181846849D01*
X546648313Y-206355197D02*
X546648313Y-206380364D01*
X536727439Y-181846849D02*
X536886178Y-182005588D01*
X528955000Y-174498000D02*
X530298949Y-175841949D01*
X530298949Y-175841949D02*
X532069105Y-175841949D01*
X532069105Y-175841949D02*
X535443187Y-179216031D01*
X536886178Y-197460978D02*
X542262137Y-202836937D01*
X543130053Y-202836937D02*
X546648313Y-206355197D01*
X535443187Y-179216031D02*
X536515893Y-179216031D01*
X536515893Y-179216031D02*
X536727438Y-179427576D01*
X536886178Y-182005588D02*
X536886178Y-197460978D01*
X542262137Y-202836937D02*
X543130053Y-202836937D01*
%TO.N,I2C2_SCL*%
X532498190Y-174498000D02*
X537219549Y-179219359D01*
X537378289Y-181801749D02*
X537378289Y-197206339D01*
X537378289Y-197206339D02*
X542516776Y-202344826D01*
X537219549Y-179219359D02*
X537219549Y-181643009D01*
X542516776Y-202344826D02*
X543341110Y-202344826D01*
X543341110Y-202344826D02*
X546665599Y-205669315D01*
X546998919Y-205669315D02*
X547344600Y-206014996D01*
X531495000Y-174498000D02*
X532498190Y-174498000D01*
X546665599Y-205669315D02*
X546998919Y-205669315D01*
X537219549Y-181643009D02*
X537378289Y-181801749D01*
X547344600Y-206014996D02*
X547344600Y-206806800D01*
%TO.N,I2C3_SCL*%
X534659495Y-199303345D02*
X536908395Y-201552245D01*
X536908395Y-201552245D02*
X538813390Y-201552245D01*
X538813390Y-201552245D02*
X542050646Y-204789501D01*
X542050646Y-204789501D02*
X542809629Y-204789501D01*
X534659495Y-182742495D02*
X534659495Y-199303345D01*
X531495000Y-179578000D02*
X534659495Y-182742495D01*
%TO.N,I2C3_SDA*%
X534167384Y-183020228D02*
X534167384Y-199507184D01*
X534167384Y-199507184D02*
X536704556Y-202044356D01*
X536704556Y-202044356D02*
X538609552Y-202044356D01*
X538609552Y-202044356D02*
X542025983Y-205460787D01*
X542025983Y-205460787D02*
X542357030Y-205460787D01*
X528955000Y-179578000D02*
X530151051Y-180774051D01*
X531921207Y-180774051D02*
X534167384Y-183020228D01*
X530151051Y-180774051D02*
X531921207Y-180774051D01*
%TO.N,LED_STATUS*%
X555132540Y-207894559D02*
X558800359Y-204226740D01*
X555132540Y-211252570D02*
X555132540Y-207894559D01*
X551485196Y-214899914D02*
X555132540Y-211252570D01*
X551054144Y-214899914D02*
X551485196Y-214899914D01*
%TO.N,ADC1_IN2*%
X544687272Y-215153728D02*
X544195037Y-215645963D01*
X544195037Y-219371475D02*
X550623964Y-225800402D01*
X544195037Y-215645963D02*
X544195037Y-219371475D01*
X550623964Y-225800402D02*
X550761316Y-225800402D01*
%TO.N,ADC1_IN1*%
X554355000Y-227838000D02*
X553158949Y-226641949D01*
X542733159Y-218756155D02*
X542733159Y-218589091D01*
X550618953Y-226641949D02*
X542733159Y-218756155D01*
X553158949Y-226641949D02*
X550618953Y-226641949D01*
%TO.N,+3.3VA*%
X556895000Y-227838000D02*
X555698949Y-229034051D01*
X541794684Y-218605585D02*
X541670860Y-218605585D01*
X550471051Y-227281952D02*
X541794684Y-218605585D01*
X550471051Y-228264207D02*
X550471051Y-227281952D01*
X551240895Y-229034051D02*
X550471051Y-228264207D01*
X555698949Y-229034051D02*
X551240895Y-229034051D01*
%TO.N,NRST*%
X541781999Y-210650774D02*
X541781999Y-210566001D01*
X545541200Y-214409975D02*
X541781999Y-210650774D01*
X553171206Y-225149550D02*
X550802950Y-225149550D01*
X553218437Y-225196781D02*
X553171206Y-225149550D01*
X545541200Y-215417400D02*
X545541200Y-214409975D01*
X550802950Y-225149550D02*
X544687148Y-219033748D01*
X544687148Y-219033748D02*
X544687148Y-216271452D01*
X544687148Y-216271452D02*
X545541200Y-215417400D01*
%TO.N,SHIFTR_NMASTER_RST*%
X532691051Y-160454051D02*
X531495000Y-159258000D01*
X532691051Y-163067945D02*
X532691051Y-160454051D01*
X534416000Y-164792894D02*
X532691051Y-163067945D01*
X534416000Y-166471600D02*
X534416000Y-164792894D01*
%TO.N,RESET_INDICATOR*%
X539842830Y-206806800D02*
X543352901Y-210316871D01*
X537286200Y-206806800D02*
X539842830Y-206806800D01*
X543416591Y-210316871D02*
X543755033Y-210655313D01*
X557530000Y-226237800D02*
X558647601Y-227355401D01*
X543755033Y-210655313D02*
X543755033Y-210860695D01*
X558647601Y-227355401D02*
X558952400Y-227660200D01*
X545123978Y-212109034D02*
X546668310Y-213653366D01*
X546668310Y-213653366D02*
X546668310Y-219823048D01*
X543755033Y-210860695D02*
X545003372Y-212109034D01*
X555478140Y-226237800D02*
X557530000Y-226237800D01*
X543352901Y-210316871D02*
X543416591Y-210316871D01*
X545003372Y-212109034D02*
X545123978Y-212109034D01*
X546668310Y-219823048D02*
X551391192Y-224545930D01*
X551391192Y-224545930D02*
X553786270Y-224545930D01*
X553786270Y-224545930D02*
X555478140Y-226237800D01*
D21*
%TO.N,Net-(D3-Pad1)*%
X556387000Y-175539400D02*
X558215800Y-175539400D01*
X558215800Y-175539400D02*
X558850800Y-176174400D01*
D17*
%TO.N,BOOT1*%
X551470309Y-213436200D02*
X553218514Y-211687995D01*
X553218514Y-208385497D02*
X558800359Y-202803652D01*
X553218514Y-211687995D02*
X553218514Y-208385497D01*
D18*
%TO.N,VCC*%
X552881800Y-184607200D02*
X552094400Y-183819800D01*
X552881800Y-185851800D02*
X552881800Y-184607200D01*
D17*
%TO.N,KCol20*%
X529146244Y-227838000D02*
X528955000Y-227838000D01*
X532067244Y-224917000D02*
X529146244Y-227838000D01*
X532783454Y-224917000D02*
X532067244Y-224917000D01*
X535434603Y-222265851D02*
X532783454Y-224917000D01*
X541133569Y-222265851D02*
X535434603Y-222265851D01*
X541909000Y-221490420D02*
X541133569Y-222265851D01*
X541909000Y-220345000D02*
X541909000Y-221490420D01*
X541020000Y-219456000D02*
X541909000Y-220345000D01*
X541020000Y-213896099D02*
X541020000Y-219456000D01*
X542541156Y-212374943D02*
X541020000Y-213896099D01*
%TO.N,ESP01_IO2*%
X540108850Y-208571392D02*
X540108850Y-209002444D01*
X539760870Y-208223412D02*
X540108850Y-208571392D01*
X538997041Y-208223412D02*
X539760870Y-208223412D01*
X532095052Y-211693148D02*
X535228800Y-208559400D01*
X531182590Y-211693148D02*
X532095052Y-211693148D01*
X535228800Y-208559400D02*
X538661053Y-208559400D01*
X530298949Y-212576789D02*
X531182590Y-211693148D01*
X530298949Y-215719949D02*
X530298949Y-212576789D01*
X538661053Y-208559400D02*
X538997041Y-208223412D01*
X531495000Y-216916000D02*
X530298949Y-215719949D01*
X531495000Y-217043000D02*
X531495000Y-216916000D01*
%TO.N,ESP01_RST*%
X528955000Y-220345000D02*
X528955000Y-219583000D01*
X530151051Y-221541051D02*
X528955000Y-220345000D01*
X534924000Y-221615000D02*
X532257000Y-224282000D01*
X538099000Y-221615000D02*
X534924000Y-221615000D01*
X530479000Y-224282000D02*
X530151051Y-223954051D01*
X530151051Y-223954051D02*
X530151051Y-221541051D01*
X532257000Y-224282000D02*
X530479000Y-224282000D01*
%TO.N,ESP01_IO0*%
X535838488Y-209179062D02*
X539004651Y-209179062D01*
X539004651Y-209179062D02*
X539309450Y-208874263D01*
X531495000Y-212344000D02*
X532673550Y-212344000D01*
X532673550Y-212344000D02*
X535838488Y-209179062D01*
%TO.N,USART2_RX*%
X540631373Y-220893281D02*
X541087126Y-221349034D01*
X532589875Y-220893281D02*
X540631373Y-220893281D01*
X532069105Y-221414051D02*
X532589875Y-220893281D01*
X530920895Y-221414051D02*
X532069105Y-221414051D01*
X530151051Y-220644207D02*
X530920895Y-221414051D01*
X530151051Y-216334051D02*
X530151051Y-220644207D01*
X528955000Y-215138000D02*
X530151051Y-216334051D01*
%TO.N,KCol19*%
X530232160Y-208795160D02*
X534297090Y-208795160D01*
X535519698Y-207572552D02*
X539477482Y-207572552D01*
X528955000Y-207518000D02*
X530232160Y-208795160D01*
X534297090Y-208795160D02*
X535519698Y-207572552D01*
%TO.N,PD15*%
X531850191Y-173154051D02*
X539943973Y-181247833D01*
X546941495Y-203661243D02*
X546941495Y-205004979D01*
X539943973Y-196663721D02*
X546941495Y-203661243D01*
X530151051Y-173154051D02*
X531850191Y-173154051D01*
X539943973Y-181247833D02*
X539943973Y-196663721D01*
X528955000Y-171958000D02*
X530151051Y-173154051D01*
%TO.N,PD14*%
X547776400Y-203030282D02*
X547776400Y-204952600D01*
X540436083Y-195689965D02*
X547776400Y-203030282D01*
X540436083Y-181043993D02*
X540436083Y-195689965D01*
X531495000Y-172102910D02*
X540436083Y-181043993D01*
X531495000Y-171958000D02*
X531495000Y-172102910D01*
%TO.N,PD13*%
X528955000Y-169418000D02*
X530298949Y-170761949D01*
X531990599Y-170761949D02*
X533338208Y-172109558D01*
X540928193Y-180840153D02*
X540928193Y-195406893D01*
X540928193Y-195406893D02*
X548652121Y-203130821D01*
X548652121Y-203130821D02*
X548652121Y-204943292D01*
X533338208Y-172109558D02*
X533338209Y-173250169D01*
X530298949Y-170761949D02*
X531990599Y-170761949D01*
X533338209Y-173250169D02*
X540928193Y-180840153D01*
%TO.N,PD12*%
X531495000Y-169418000D02*
X533830319Y-171753319D01*
X533830319Y-173046329D02*
X541420303Y-180636313D01*
X541420303Y-180636313D02*
X541420303Y-195203053D01*
X541420303Y-195203053D02*
X549437831Y-203220581D01*
X549437831Y-203220581D02*
X549437831Y-204748023D01*
X533830319Y-171753319D02*
X533830319Y-173046329D01*
%TO.N,PD11*%
X530151051Y-168074051D02*
X531921207Y-168074051D01*
X528955000Y-166878000D02*
X530151051Y-168074051D01*
X541912413Y-194999213D02*
X550341033Y-203427833D01*
X534322430Y-172842490D02*
X541912413Y-180432473D01*
X550341033Y-203427833D02*
X550341033Y-204727800D01*
X534322430Y-170475274D02*
X534322430Y-172842490D01*
X531921207Y-168074051D02*
X534322430Y-170475274D01*
X541912413Y-180432473D02*
X541912413Y-194999213D01*
%TO.N,PD10*%
X550574462Y-205547240D02*
X550328613Y-205547240D01*
X551230160Y-204891542D02*
X550574462Y-205547240D01*
X551230160Y-203606508D02*
X551230160Y-204891542D01*
X542404523Y-194780871D02*
X551230160Y-203606508D01*
X542404523Y-180228633D02*
X542404523Y-194780871D01*
X534814541Y-172638651D02*
X542404523Y-180228633D01*
X534814541Y-170197541D02*
X534814541Y-172638651D01*
X531495000Y-166878000D02*
X534814541Y-170197541D01*
%TO.N,PB1*%
X532970451Y-201094051D02*
X535965400Y-204089000D01*
X527266838Y-166026162D02*
X527266838Y-199979994D01*
X545508266Y-209824760D02*
X549775893Y-214092387D01*
X528380895Y-201094051D02*
X532970451Y-201094051D01*
X528955000Y-164338000D02*
X527266838Y-166026162D01*
X527266838Y-199979994D02*
X528380895Y-201094051D01*
X537870400Y-204089000D02*
X543606160Y-209824760D01*
X535965400Y-204089000D02*
X537870400Y-204089000D01*
X543606160Y-209824760D02*
X545508266Y-209824760D01*
X549775893Y-214092387D02*
X550996084Y-214092387D01*
%TO.N,PB0*%
X528528793Y-165534051D02*
X527758949Y-166303895D01*
X543810001Y-209332651D02*
X545984996Y-209332651D01*
X545984996Y-209332651D02*
X548935260Y-212282915D01*
X530298949Y-165534051D02*
X528528793Y-165534051D01*
X527758949Y-197932105D02*
X528528793Y-198701949D01*
X527758949Y-166303895D02*
X527758949Y-197932105D01*
X531495000Y-164338000D02*
X530298949Y-165534051D01*
X528528793Y-198701949D02*
X532069105Y-198701949D01*
X532069105Y-198701949D02*
X532691051Y-199323895D01*
X532691051Y-200118701D02*
X536169239Y-203596889D01*
X538074240Y-203596890D02*
X543810001Y-209332651D01*
X532691051Y-199323895D02*
X532691051Y-200118701D01*
X536169239Y-203596889D02*
X538074240Y-203596890D01*
%TO.N,USART6_RX*%
X533675273Y-184298273D02*
X531495000Y-182118000D01*
X533675273Y-199711023D02*
X533675273Y-184298273D01*
X536500717Y-202536467D02*
X533675273Y-199711023D01*
X538405715Y-202536467D02*
X536500717Y-202536467D01*
X542625248Y-206756000D02*
X538405715Y-202536467D01*
X543585400Y-206756000D02*
X542625248Y-206756000D01*
%TO.N,USART6_TX*%
X533183162Y-184576006D02*
X532069105Y-183461949D01*
X545194563Y-207112787D02*
X544889764Y-207417586D01*
X530298949Y-183461949D02*
X528955000Y-182118000D01*
X532069105Y-183461949D02*
X530298949Y-183461949D01*
X533183162Y-199914862D02*
X533183162Y-184576006D01*
X536296878Y-203028578D02*
X533183162Y-199914862D01*
X538201878Y-203028578D02*
X536296878Y-203028578D01*
X542590886Y-207417586D02*
X538201878Y-203028578D01*
X544889764Y-207417586D02*
X542590886Y-207417586D01*
%TO.N,USART1_RX*%
X542140832Y-203487789D02*
X542501334Y-203487789D01*
X539221066Y-200568023D02*
X542140832Y-203487789D01*
X537316073Y-200568023D02*
X539221066Y-200568023D01*
X535643717Y-198895667D02*
X537316073Y-200568023D01*
X535643717Y-181186717D02*
X535643717Y-198895667D01*
X531495000Y-177038000D02*
X535643717Y-181186717D01*
%TO.N,USART1_TX*%
X528955000Y-177038000D02*
X530298949Y-178381949D01*
X530298949Y-178381949D02*
X532069105Y-178381949D01*
X542095735Y-204138641D02*
X543509200Y-204138641D01*
X532069105Y-178381949D02*
X535151606Y-181464450D01*
X539017228Y-201060134D02*
X542095735Y-204138641D01*
X535151606Y-199099506D02*
X537112234Y-201060134D01*
X537112234Y-201060134D02*
X539017228Y-201060134D01*
X535151606Y-181464450D02*
X535151606Y-199099506D01*
%TO.N,SPI3_SS*%
X550062288Y-180827712D02*
X551947352Y-178942648D01*
X550062288Y-185668888D02*
X550062288Y-180827712D01*
X551947352Y-178942648D02*
X551947352Y-171983400D01*
X552627800Y-191262000D02*
X552627800Y-188234400D01*
X552627800Y-188234400D02*
X550062288Y-185668888D01*
X545398349Y-164588107D02*
X545398349Y-167404241D01*
X544769748Y-163959506D02*
X545398349Y-164588107D01*
X550191249Y-170337051D02*
X550505499Y-170651301D01*
X548331159Y-170337051D02*
X550191249Y-170337051D01*
X544769748Y-163243294D02*
X544769748Y-163959506D01*
X545398349Y-162614693D02*
X544769748Y-163243294D01*
X545398349Y-160594651D02*
X545398349Y-162614693D01*
X546735000Y-159258000D02*
X545398349Y-160594651D01*
X545398349Y-167404241D02*
X548331159Y-170337051D01*
%TO.N,Net-(J1-Pad10)*%
X556981061Y-206873836D02*
X558979258Y-204875639D01*
X558098660Y-214004860D02*
X556981061Y-212887261D01*
X551227555Y-175620133D02*
X551296492Y-175551194D01*
X557085443Y-197736443D02*
X557085443Y-197523093D01*
X551296492Y-170229492D02*
X550358000Y-169291000D01*
X550380740Y-186683290D02*
X549570177Y-185872727D01*
X549570177Y-180623873D02*
X551227555Y-178966495D01*
X558098660Y-219979540D02*
X558098660Y-214004860D01*
X551227555Y-178966495D02*
X551227555Y-175620133D01*
X558979258Y-204875639D02*
X559093031Y-204875639D01*
X559451210Y-200102210D02*
X557085443Y-197736443D01*
X557085443Y-197523093D02*
X550380741Y-190818391D01*
X551296492Y-175551194D02*
X551296492Y-170229492D01*
X559451210Y-204517460D02*
X559451210Y-200102210D01*
X549570177Y-185872727D02*
X549570177Y-180623873D01*
X559093031Y-204875639D02*
X559451210Y-204517460D01*
X556981061Y-212887261D02*
X556981061Y-206873836D01*
X555244000Y-222834200D02*
X558098660Y-219979540D01*
X550380741Y-190818391D02*
X550380740Y-186683290D01*
%TO.N,Net-(J1-Pad6)*%
X550358000Y-164211000D02*
X549097200Y-164211000D01*
X548411400Y-164211000D02*
X550358000Y-164211000D01*
X546049200Y-166573200D02*
X548411400Y-164211000D01*
%TO.N,Net-(J1-Pad4)*%
X547598600Y-164103344D02*
X546550704Y-165151240D01*
X550358000Y-161671000D02*
X549325800Y-161671000D01*
X549325800Y-161671000D02*
X547598600Y-163398200D01*
X547598600Y-163398200D02*
X547598600Y-164103344D01*
%TO.N,Net-(J1-Pad2)*%
X547931051Y-159515849D02*
X547931051Y-162369799D01*
X546665444Y-163635406D02*
X546665444Y-164116044D01*
X548315900Y-159131000D02*
X547931051Y-159515849D01*
X547931051Y-162369799D02*
X546665444Y-163635406D01*
X550358000Y-159131000D02*
X548315900Y-159131000D01*
X546404800Y-189534800D02*
X546100001Y-189230001D01*
X546100001Y-189230001D02*
X546100001Y-179222401D01*
X546785800Y-178536602D02*
X546785800Y-177803652D01*
X546785800Y-177803652D02*
X545156416Y-176174268D01*
X545156416Y-176174268D02*
X544725364Y-176174268D01*
X546100001Y-179222401D02*
X546785800Y-178536602D01*
%TO.N,SPI1_SS*%
X548020851Y-177997499D02*
X546617511Y-179400839D01*
X546617511Y-179400839D02*
X546617511Y-187095761D01*
X547428077Y-187906327D02*
X547428077Y-196754929D01*
X547428077Y-196754929D02*
X553745400Y-203072252D01*
X541728949Y-171739105D02*
X541728949Y-174056105D01*
X546617511Y-187095761D02*
X547428077Y-187906327D01*
X553745400Y-203072252D02*
X548105852Y-208711800D01*
X548105852Y-208711800D02*
X547674800Y-208711800D01*
X545896161Y-174990111D02*
X548020851Y-177114801D01*
X543806101Y-174805051D02*
X543991161Y-174990111D01*
X539115000Y-161798000D02*
X539115000Y-169125156D01*
X542477895Y-174805051D02*
X543806101Y-174805051D01*
X541728949Y-174056105D02*
X542477895Y-174805051D01*
X543991161Y-174990111D02*
X545896161Y-174990111D01*
X539115000Y-169125156D02*
X541728949Y-171739105D01*
X548020851Y-177114801D02*
X548020851Y-177997499D01*
%TD*%
D22*
%TO.N,GND*%
X540789594Y-211480400D02*
X539355397Y-212914597D01*
X539339603Y-212933843D01*
X539327867Y-212955799D01*
X539320640Y-212979624D01*
X539318200Y-213004400D01*
X539320640Y-213029176D01*
X539327867Y-213053001D01*
X539339603Y-213074957D01*
X539355397Y-213094203D01*
X539748194Y-213487000D01*
X538517197Y-214717997D01*
X538501403Y-214737243D01*
X538489667Y-214759199D01*
X538482440Y-214783024D01*
X538480000Y-214807800D01*
X538482440Y-214832576D01*
X538489667Y-214856401D01*
X538501403Y-214878357D01*
X538517197Y-214897603D01*
X539191200Y-215571606D01*
X539191200Y-216990394D01*
X537843194Y-218338400D01*
X536754606Y-218338400D01*
X533476200Y-215059994D01*
X533476200Y-213717406D01*
X534671806Y-212521800D01*
X536115994Y-212521800D01*
X536993197Y-213399003D01*
X537012443Y-213414797D01*
X537034399Y-213426533D01*
X537058224Y-213433760D01*
X537083000Y-213436200D01*
X537718000Y-213436200D01*
X537742776Y-213433760D01*
X537766601Y-213426533D01*
X537788557Y-213414797D01*
X537807803Y-213399003D01*
X540258000Y-210948806D01*
X540789594Y-211480400D01*
%TA.AperFunction,Conductor*%
D23*
G36*
X540789594Y-211480400D02*
G01*
X539355397Y-212914597D01*
X539339603Y-212933843D01*
X539327867Y-212955799D01*
X539320640Y-212979624D01*
X539318200Y-213004400D01*
X539320640Y-213029176D01*
X539327867Y-213053001D01*
X539339603Y-213074957D01*
X539355397Y-213094203D01*
X539748194Y-213487000D01*
X538517197Y-214717997D01*
X538501403Y-214737243D01*
X538489667Y-214759199D01*
X538482440Y-214783024D01*
X538480000Y-214807800D01*
X538482440Y-214832576D01*
X538489667Y-214856401D01*
X538501403Y-214878357D01*
X538517197Y-214897603D01*
X539191200Y-215571606D01*
X539191200Y-216990394D01*
X537843194Y-218338400D01*
X536754606Y-218338400D01*
X533476200Y-215059994D01*
X533476200Y-213717406D01*
X534671806Y-212521800D01*
X536115994Y-212521800D01*
X536993197Y-213399003D01*
X537012443Y-213414797D01*
X537034399Y-213426533D01*
X537058224Y-213433760D01*
X537083000Y-213436200D01*
X537718000Y-213436200D01*
X537742776Y-213433760D01*
X537766601Y-213426533D01*
X537788557Y-213414797D01*
X537807803Y-213399003D01*
X540258000Y-210948806D01*
X540789594Y-211480400D01*
G37*
%TD.AperFunction*%
%TD*%
D22*
%TO.N,GND*%
X560888000Y-229926000D02*
X526867000Y-229926000D01*
X526867000Y-229130205D01*
X526869187Y-229108000D01*
X526862549Y-229040601D01*
X526928275Y-228942234D01*
X526982739Y-228810747D01*
X527010504Y-228671160D01*
X527010504Y-228528840D01*
X526982739Y-228389253D01*
X526928275Y-228257766D01*
X526902373Y-228219000D01*
X526928275Y-228180234D01*
X526982739Y-228048747D01*
X527010504Y-227909160D01*
X527010504Y-227766840D01*
X526982739Y-227627253D01*
X526928275Y-227495766D01*
X526902373Y-227457000D01*
X526928275Y-227418234D01*
X526982739Y-227286747D01*
X527010504Y-227147160D01*
X527010504Y-227004840D01*
X526982739Y-226865253D01*
X526928275Y-226733766D01*
X526902373Y-226695000D01*
X526928275Y-226656234D01*
X526982739Y-226524747D01*
X527010504Y-226385160D01*
X527010504Y-226242840D01*
X526982739Y-226103253D01*
X526928275Y-225971766D01*
X526902373Y-225933000D01*
X526928275Y-225894234D01*
X526982739Y-225762747D01*
X527010504Y-225623160D01*
X527010504Y-225480840D01*
X526982739Y-225341253D01*
X526928275Y-225209766D01*
X526902373Y-225171000D01*
X526928275Y-225132234D01*
X526982739Y-225000747D01*
X527010504Y-224861160D01*
X527010504Y-224718840D01*
X526982739Y-224579253D01*
X526928275Y-224447766D01*
X526902373Y-224409000D01*
X526928275Y-224370234D01*
X526982739Y-224238747D01*
X527010504Y-224099160D01*
X527010504Y-223956840D01*
X526982739Y-223817253D01*
X526928275Y-223685766D01*
X526862549Y-223587399D01*
X526869187Y-223520000D01*
X526867000Y-223497795D01*
X526867000Y-206270205D01*
X526869187Y-206248000D01*
X526862549Y-206180601D01*
X526928275Y-206082234D01*
X526982739Y-205950747D01*
X527010504Y-205811160D01*
X527010504Y-205668840D01*
X526982739Y-205529253D01*
X526928275Y-205397766D01*
X526902373Y-205359000D01*
X526928275Y-205320234D01*
X526982739Y-205188747D01*
X527010504Y-205049160D01*
X527010504Y-204906840D01*
X526982739Y-204767253D01*
X526928275Y-204635766D01*
X526902373Y-204597000D01*
X526928275Y-204558234D01*
X526982739Y-204426747D01*
X527010504Y-204287160D01*
X527010504Y-204144840D01*
X526982739Y-204005253D01*
X526928275Y-203873766D01*
X526902373Y-203835000D01*
X526928275Y-203796234D01*
X526982739Y-203664747D01*
X527010504Y-203525160D01*
X527010504Y-203382840D01*
X526982739Y-203243253D01*
X526928275Y-203111766D01*
X526902373Y-203073000D01*
X526928275Y-203034234D01*
X526982739Y-202902747D01*
X527010504Y-202763160D01*
X527010504Y-202620840D01*
X526982739Y-202481253D01*
X526928275Y-202349766D01*
X526902373Y-202311000D01*
X526928275Y-202272234D01*
X526982739Y-202140747D01*
X527010504Y-202001160D01*
X527010504Y-201858840D01*
X526982739Y-201719253D01*
X526928275Y-201587766D01*
X526902373Y-201549000D01*
X526928275Y-201510234D01*
X526982739Y-201378747D01*
X527010504Y-201239160D01*
X527010504Y-201096840D01*
X526982739Y-200957253D01*
X526928275Y-200825766D01*
X526862549Y-200727399D01*
X526869187Y-200660000D01*
X526867000Y-200637795D01*
X526867000Y-200393177D01*
X526881530Y-200405101D01*
X527955783Y-201479354D01*
X527973727Y-201501219D01*
X528035299Y-201551750D01*
X527963089Y-201623960D01*
X527823337Y-201833114D01*
X527727074Y-202065513D01*
X527678000Y-202312226D01*
X527678000Y-202563774D01*
X527727074Y-202810487D01*
X527823337Y-203042886D01*
X527963089Y-203252040D01*
X528140960Y-203429911D01*
X528350114Y-203569663D01*
X528582513Y-203665926D01*
X528794034Y-203708000D01*
X528582513Y-203750074D01*
X528350114Y-203846337D01*
X528140960Y-203986089D01*
X527963089Y-204163960D01*
X527823337Y-204373114D01*
X527727074Y-204605513D01*
X527678000Y-204852226D01*
X527678000Y-205103774D01*
X527727074Y-205350487D01*
X527823337Y-205582886D01*
X527963089Y-205792040D01*
X528035299Y-205864250D01*
X528031767Y-205867149D01*
X527973727Y-205914781D01*
X527955786Y-205936643D01*
X527373646Y-206518783D01*
X527351781Y-206536727D01*
X527280171Y-206623986D01*
X527226959Y-206723538D01*
X527194191Y-206831559D01*
X527186234Y-206912354D01*
X527183127Y-206943895D01*
X527185899Y-206972037D01*
X527185900Y-221533797D01*
X527183127Y-221561949D01*
X527192134Y-221653387D01*
X527194192Y-221674286D01*
X527200679Y-221695671D01*
X527226959Y-221782306D01*
X527280171Y-221881858D01*
X527333840Y-221947255D01*
X527333843Y-221947258D01*
X527351782Y-221969117D01*
X527373641Y-221987056D01*
X527740261Y-222353676D01*
X527727074Y-222385513D01*
X527678000Y-222632226D01*
X527678000Y-222883774D01*
X527727074Y-223130487D01*
X527823337Y-223362886D01*
X527963089Y-223572040D01*
X528140960Y-223749911D01*
X528350114Y-223889663D01*
X528582513Y-223985926D01*
X528829226Y-224035000D01*
X529080774Y-224035000D01*
X529327487Y-223985926D01*
X529559886Y-223889663D01*
X529578001Y-223877559D01*
X529578001Y-223925908D01*
X529575229Y-223954051D01*
X529578001Y-223982193D01*
X529578001Y-223982195D01*
X529586293Y-224066387D01*
X529619061Y-224174408D01*
X529672273Y-224273960D01*
X529743883Y-224361219D01*
X529765748Y-224379163D01*
X530053884Y-224667298D01*
X530071832Y-224689168D01*
X530159090Y-224760778D01*
X530258642Y-224813990D01*
X530366663Y-224846758D01*
X530450855Y-224855050D01*
X530450857Y-224855050D01*
X530479000Y-224857822D01*
X530507142Y-224855050D01*
X531318779Y-224855050D01*
X529494554Y-226679275D01*
X529327487Y-226610074D01*
X529080774Y-226561000D01*
X528829226Y-226561000D01*
X528582513Y-226610074D01*
X528350114Y-226706337D01*
X528140960Y-226846089D01*
X527963089Y-227023960D01*
X527823337Y-227233114D01*
X527727074Y-227465513D01*
X527678000Y-227712226D01*
X527678000Y-227963774D01*
X527727074Y-228210487D01*
X527823337Y-228442886D01*
X527963089Y-228652040D01*
X528140960Y-228829911D01*
X528350114Y-228969663D01*
X528582513Y-229065926D01*
X528829226Y-229115000D01*
X529080774Y-229115000D01*
X529327487Y-229065926D01*
X529559886Y-228969663D01*
X529769040Y-228829911D01*
X529946911Y-228652040D01*
X530086663Y-228442886D01*
X530182926Y-228210487D01*
X530225000Y-227998966D01*
X530267074Y-228210487D01*
X530363337Y-228442886D01*
X530503089Y-228652040D01*
X530680960Y-228829911D01*
X530890114Y-228969663D01*
X531122513Y-229065926D01*
X531369226Y-229115000D01*
X531620774Y-229115000D01*
X531867487Y-229065926D01*
X532099886Y-228969663D01*
X532309040Y-228829911D01*
X532486911Y-228652040D01*
X532626663Y-228442886D01*
X532722926Y-228210487D01*
X532765000Y-227998966D01*
X532807074Y-228210487D01*
X532903337Y-228442886D01*
X533043089Y-228652040D01*
X533220960Y-228829911D01*
X533430114Y-228969663D01*
X533662513Y-229065926D01*
X533909226Y-229115000D01*
X534160774Y-229115000D01*
X534407487Y-229065926D01*
X534639886Y-228969663D01*
X534849040Y-228829911D01*
X535026911Y-228652040D01*
X535166663Y-228442886D01*
X535262926Y-228210487D01*
X535305000Y-227998966D01*
X535347074Y-228210487D01*
X535443337Y-228442886D01*
X535583089Y-228652040D01*
X535760960Y-228829911D01*
X535970114Y-228969663D01*
X536202513Y-229065926D01*
X536449226Y-229115000D01*
X536700774Y-229115000D01*
X536947487Y-229065926D01*
X537179886Y-228969663D01*
X537389040Y-228829911D01*
X537566911Y-228652040D01*
X537706663Y-228442886D01*
X537802926Y-228210487D01*
X537845000Y-227998966D01*
X537887074Y-228210487D01*
X537983337Y-228442886D01*
X538123089Y-228652040D01*
X538300960Y-228829911D01*
X538510114Y-228969663D01*
X538742513Y-229065926D01*
X538989226Y-229115000D01*
X539240774Y-229115000D01*
X539487487Y-229065926D01*
X539719886Y-228969663D01*
X539929040Y-228829911D01*
X540106911Y-228652040D01*
X540246663Y-228442886D01*
X540342926Y-228210487D01*
X540385000Y-227998966D01*
X540427074Y-228210487D01*
X540523337Y-228442886D01*
X540663089Y-228652040D01*
X540840960Y-228829911D01*
X541050114Y-228969663D01*
X541282513Y-229065926D01*
X541529226Y-229115000D01*
X541780774Y-229115000D01*
X542027487Y-229065926D01*
X542259886Y-228969663D01*
X542469040Y-228829911D01*
X542646911Y-228652040D01*
X542786663Y-228442886D01*
X542882926Y-228210487D01*
X542925000Y-227998966D01*
X542967074Y-228210487D01*
X543063337Y-228442886D01*
X543203089Y-228652040D01*
X543380960Y-228829911D01*
X543590114Y-228969663D01*
X543822513Y-229065926D01*
X544069226Y-229115000D01*
X544320774Y-229115000D01*
X544567487Y-229065926D01*
X544799886Y-228969663D01*
X545009040Y-228829911D01*
X545186911Y-228652040D01*
X545326663Y-228442886D01*
X545422926Y-228210487D01*
X545465000Y-227998966D01*
X545507074Y-228210487D01*
X545603337Y-228442886D01*
X545743089Y-228652040D01*
X545920960Y-228829911D01*
X546130114Y-228969663D01*
X546362513Y-229065926D01*
X546609226Y-229115000D01*
X546860774Y-229115000D01*
X547107487Y-229065926D01*
X547339886Y-228969663D01*
X547549040Y-228829911D01*
X547726911Y-228652040D01*
X547866663Y-228442886D01*
X547962926Y-228210487D01*
X548005000Y-227998966D01*
X548047074Y-228210487D01*
X548143337Y-228442886D01*
X548283089Y-228652040D01*
X548460960Y-228829911D01*
X548670114Y-228969663D01*
X548902513Y-229065926D01*
X549149226Y-229115000D01*
X549400774Y-229115000D01*
X549647487Y-229065926D01*
X549879886Y-228969663D01*
X550089040Y-228829911D01*
X550157690Y-228761261D01*
X550815783Y-229419354D01*
X550833727Y-229441219D01*
X550920985Y-229512829D01*
X551020537Y-229566041D01*
X551128558Y-229598809D01*
X551212750Y-229607101D01*
X551212752Y-229607101D01*
X551240895Y-229609873D01*
X551269037Y-229607101D01*
X555670807Y-229607101D01*
X555698949Y-229609873D01*
X555727091Y-229607101D01*
X555727094Y-229607101D01*
X555811286Y-229598809D01*
X555919307Y-229566041D01*
X556018859Y-229512829D01*
X556106117Y-229441219D01*
X556124061Y-229419354D01*
X556426349Y-229117066D01*
X557745000Y-229117066D01*
X557828707Y-229108822D01*
X557909196Y-229084405D01*
X557983376Y-229044755D01*
X558048395Y-228991395D01*
X558101755Y-228926376D01*
X558141405Y-228852196D01*
X558165822Y-228771707D01*
X558174066Y-228688000D01*
X558174066Y-227692281D01*
X558222224Y-227740439D01*
X558248723Y-227873658D01*
X558303887Y-228006837D01*
X558383974Y-228126695D01*
X558485905Y-228228626D01*
X558605763Y-228308713D01*
X558738942Y-228363877D01*
X558880324Y-228392000D01*
X559024476Y-228392000D01*
X559165858Y-228363877D01*
X559299037Y-228308713D01*
X559418895Y-228228626D01*
X559520826Y-228126695D01*
X559600913Y-228006837D01*
X559656077Y-227873658D01*
X559684200Y-227732276D01*
X559684200Y-227588124D01*
X559656077Y-227446742D01*
X559600913Y-227313563D01*
X559520826Y-227193705D01*
X559418895Y-227091774D01*
X559299037Y-227011687D01*
X559165858Y-226956523D01*
X559032639Y-226930024D01*
X557955112Y-225852497D01*
X557937168Y-225830632D01*
X557849910Y-225759022D01*
X557750358Y-225705810D01*
X557642337Y-225673042D01*
X557558145Y-225664750D01*
X557558142Y-225664750D01*
X557530000Y-225661978D01*
X557501858Y-225664750D01*
X555715505Y-225664750D01*
X554211379Y-224160624D01*
X554193438Y-224138762D01*
X554106180Y-224067152D01*
X554006628Y-224013940D01*
X553898607Y-223981172D01*
X553814415Y-223972880D01*
X553814412Y-223972880D01*
X553786270Y-223970108D01*
X553758128Y-223972880D01*
X551628557Y-223972880D01*
X547241360Y-219585683D01*
X547241360Y-214168775D01*
X549211856Y-216139271D01*
X549229800Y-216161136D01*
X549317058Y-216232746D01*
X549416610Y-216285958D01*
X549524631Y-216318726D01*
X549608823Y-216327018D01*
X549608825Y-216327018D01*
X549636968Y-216329790D01*
X549665110Y-216327018D01*
X555844555Y-216327018D01*
X555957493Y-216402481D01*
X556090672Y-216457645D01*
X556232054Y-216485768D01*
X556376206Y-216485768D01*
X556381941Y-216484627D01*
X556381941Y-216964068D01*
X556368145Y-217009547D01*
X556356540Y-217127372D01*
X556356540Y-217127379D01*
X556352661Y-217166765D01*
X556356540Y-217206152D01*
X556356541Y-217971259D01*
X553475408Y-220852394D01*
X548792298Y-216169286D01*
X548700778Y-216094177D01*
X548561451Y-216019705D01*
X548410274Y-215973846D01*
X548253055Y-215958362D01*
X548095836Y-215973846D01*
X547944659Y-216019705D01*
X547805332Y-216094177D01*
X547683212Y-216194398D01*
X547582991Y-216316518D01*
X547508519Y-216455845D01*
X547462660Y-216607022D01*
X547447176Y-216764241D01*
X547462660Y-216921460D01*
X547508519Y-217072637D01*
X547582991Y-217211964D01*
X547658100Y-217303484D01*
X552508235Y-222153621D01*
X552511600Y-222187786D01*
X552511600Y-222187793D01*
X552519058Y-222263513D01*
X552523205Y-222305619D01*
X552563390Y-222438090D01*
X552569064Y-222456796D01*
X552643535Y-222596122D01*
X552743757Y-222718243D01*
X552865877Y-222818465D01*
X553005203Y-222892936D01*
X553156381Y-222938795D01*
X553313600Y-222954280D01*
X553456722Y-222940183D01*
X553470819Y-222938795D01*
X553621996Y-222892936D01*
X553645823Y-222880200D01*
X553761322Y-222818465D01*
X553883443Y-222718243D01*
X553908560Y-222687638D01*
X557525610Y-219070590D01*
X557525610Y-219742175D01*
X555163761Y-222104024D01*
X555030542Y-222130523D01*
X554897363Y-222185687D01*
X554777505Y-222265774D01*
X554675574Y-222367705D01*
X554595487Y-222487563D01*
X554540323Y-222620742D01*
X554512200Y-222762124D01*
X554512200Y-222906276D01*
X554540323Y-223047658D01*
X554595487Y-223180837D01*
X554675574Y-223300695D01*
X554777505Y-223402626D01*
X554897363Y-223482713D01*
X555030542Y-223537877D01*
X555171924Y-223566000D01*
X555316076Y-223566000D01*
X555457458Y-223537877D01*
X555590637Y-223482713D01*
X555710495Y-223402626D01*
X555812426Y-223300695D01*
X555890033Y-223184548D01*
X558862000Y-223184548D01*
X558862000Y-223347452D01*
X558893782Y-223507227D01*
X558956123Y-223657731D01*
X559046628Y-223793181D01*
X559161819Y-223908372D01*
X559297269Y-223998877D01*
X559447773Y-224061218D01*
X559607548Y-224093000D01*
X559770452Y-224093000D01*
X559930227Y-224061218D01*
X560080731Y-223998877D01*
X560216181Y-223908372D01*
X560331372Y-223793181D01*
X560421877Y-223657731D01*
X560484218Y-223507227D01*
X560516000Y-223347452D01*
X560516000Y-223184548D01*
X560484218Y-223024773D01*
X560421877Y-222874269D01*
X560331372Y-222738819D01*
X560216181Y-222623628D01*
X560080731Y-222533123D01*
X559930227Y-222470782D01*
X559770452Y-222439000D01*
X559607548Y-222439000D01*
X559447773Y-222470782D01*
X559297269Y-222533123D01*
X559161819Y-222623628D01*
X559046628Y-222738819D01*
X558956123Y-222874269D01*
X558893782Y-223024773D01*
X558862000Y-223184548D01*
X555890033Y-223184548D01*
X555892513Y-223180837D01*
X555947677Y-223047658D01*
X555974176Y-222914439D01*
X558483964Y-220404651D01*
X558505828Y-220386708D01*
X558577438Y-220299450D01*
X558630650Y-220199898D01*
X558663418Y-220091877D01*
X558671710Y-220007685D01*
X558671710Y-220007683D01*
X558674482Y-219979540D01*
X558671710Y-219951398D01*
X558671710Y-215945548D01*
X558862000Y-215945548D01*
X558862000Y-216108452D01*
X558893782Y-216268227D01*
X558956123Y-216418731D01*
X559046628Y-216554181D01*
X559161819Y-216669372D01*
X559297269Y-216759877D01*
X559447773Y-216822218D01*
X559607548Y-216854000D01*
X559770452Y-216854000D01*
X559930227Y-216822218D01*
X560080731Y-216759877D01*
X560216181Y-216669372D01*
X560331372Y-216554181D01*
X560421877Y-216418731D01*
X560484218Y-216268227D01*
X560516000Y-216108452D01*
X560516000Y-215945548D01*
X560484218Y-215785773D01*
X560421877Y-215635269D01*
X560331372Y-215499819D01*
X560216181Y-215384628D01*
X560080731Y-215294123D01*
X559930227Y-215231782D01*
X559770452Y-215200000D01*
X559607548Y-215200000D01*
X559447773Y-215231782D01*
X559297269Y-215294123D01*
X559161819Y-215384628D01*
X559046628Y-215499819D01*
X558956123Y-215635269D01*
X558893782Y-215785773D01*
X558862000Y-215945548D01*
X558671710Y-215945548D01*
X558671710Y-214033002D01*
X558674482Y-214004860D01*
X558670854Y-213968026D01*
X558663418Y-213892523D01*
X558630650Y-213784502D01*
X558577438Y-213684950D01*
X558505828Y-213597692D01*
X558483963Y-213579748D01*
X557554111Y-212649896D01*
X557554111Y-210992548D01*
X558862000Y-210992548D01*
X558862000Y-211155452D01*
X558893782Y-211315227D01*
X558956123Y-211465731D01*
X559046628Y-211601181D01*
X559161819Y-211716372D01*
X559297269Y-211806877D01*
X559447773Y-211869218D01*
X559607548Y-211901000D01*
X559770452Y-211901000D01*
X559930227Y-211869218D01*
X560080731Y-211806877D01*
X560216181Y-211716372D01*
X560331372Y-211601181D01*
X560421877Y-211465731D01*
X560484218Y-211315227D01*
X560516000Y-211155452D01*
X560516000Y-210992548D01*
X560484218Y-210832773D01*
X560421877Y-210682269D01*
X560331372Y-210546819D01*
X560216181Y-210431628D01*
X560080731Y-210341123D01*
X559930227Y-210278782D01*
X559770452Y-210247000D01*
X559607548Y-210247000D01*
X559447773Y-210278782D01*
X559297269Y-210341123D01*
X559161819Y-210431628D01*
X559046628Y-210546819D01*
X558956123Y-210682269D01*
X558893782Y-210832773D01*
X558862000Y-210992548D01*
X557554111Y-210992548D01*
X557554111Y-207111201D01*
X559233427Y-205431885D01*
X559313389Y-205407629D01*
X559412941Y-205354417D01*
X559500199Y-205282807D01*
X559518143Y-205260942D01*
X559836509Y-204942575D01*
X559858378Y-204924628D01*
X559929988Y-204837370D01*
X559983200Y-204737818D01*
X560015968Y-204629797D01*
X560024260Y-204545605D01*
X560024260Y-204545603D01*
X560027032Y-204517460D01*
X560024260Y-204489318D01*
X560024260Y-200130352D01*
X560027032Y-200102210D01*
X560024051Y-200071942D01*
X560015968Y-199989873D01*
X559983200Y-199881852D01*
X559929988Y-199782300D01*
X559858378Y-199695042D01*
X559836513Y-199677098D01*
X557658944Y-197499529D01*
X557650201Y-197410756D01*
X557617433Y-197302736D01*
X557564221Y-197203183D01*
X557538372Y-197171686D01*
X557492611Y-197115925D01*
X557470746Y-197097981D01*
X552284774Y-191912009D01*
X552414342Y-191965677D01*
X552555724Y-191993800D01*
X552699876Y-191993800D01*
X552841258Y-191965677D01*
X552974437Y-191910513D01*
X553094295Y-191830426D01*
X553196226Y-191728495D01*
X553276313Y-191608637D01*
X553331477Y-191475458D01*
X553359600Y-191334076D01*
X553359600Y-191189924D01*
X553331477Y-191048542D01*
X553276313Y-190915363D01*
X553200850Y-190802425D01*
X553200850Y-188262542D01*
X553203622Y-188234400D01*
X553199240Y-188189911D01*
X553192558Y-188122063D01*
X553159790Y-188014042D01*
X553106578Y-187914490D01*
X553034968Y-187827232D01*
X553013103Y-187809288D01*
X552911815Y-187708000D01*
X553807515Y-187708000D01*
X553825413Y-187889724D01*
X553878420Y-188064464D01*
X553964499Y-188225505D01*
X554080341Y-188366659D01*
X554221495Y-188482501D01*
X554382536Y-188568580D01*
X554557276Y-188621587D01*
X554693462Y-188635000D01*
X555884538Y-188635000D01*
X556020724Y-188621587D01*
X556195464Y-188568580D01*
X556356505Y-188482501D01*
X556497659Y-188366659D01*
X556613501Y-188225505D01*
X556699580Y-188064464D01*
X556752587Y-187889724D01*
X556770485Y-187708000D01*
X558237515Y-187708000D01*
X558255413Y-187889724D01*
X558308420Y-188064464D01*
X558394499Y-188225505D01*
X558510341Y-188366659D01*
X558651495Y-188482501D01*
X558812536Y-188568580D01*
X558987276Y-188621587D01*
X559123462Y-188635000D01*
X559814538Y-188635000D01*
X559950724Y-188621587D01*
X560125464Y-188568580D01*
X560286505Y-188482501D01*
X560427659Y-188366659D01*
X560543501Y-188225505D01*
X560629580Y-188064464D01*
X560682587Y-187889724D01*
X560700485Y-187708000D01*
X560682587Y-187526276D01*
X560629580Y-187351536D01*
X560543501Y-187190495D01*
X560427659Y-187049341D01*
X560286505Y-186933499D01*
X560125464Y-186847420D01*
X559950724Y-186794413D01*
X559814538Y-186781000D01*
X559123462Y-186781000D01*
X558987276Y-186794413D01*
X558812536Y-186847420D01*
X558651495Y-186933499D01*
X558510341Y-187049341D01*
X558394499Y-187190495D01*
X558308420Y-187351536D01*
X558255413Y-187526276D01*
X558237515Y-187708000D01*
X556770485Y-187708000D01*
X556752587Y-187526276D01*
X556699580Y-187351536D01*
X556613501Y-187190495D01*
X556497659Y-187049341D01*
X556356505Y-186933499D01*
X556264856Y-186884511D01*
X556298372Y-186862117D01*
X556403117Y-186757372D01*
X556485414Y-186634206D01*
X556542101Y-186497350D01*
X556571000Y-186352066D01*
X556571000Y-186203934D01*
X556542101Y-186058650D01*
X556485414Y-185921794D01*
X556403117Y-185798628D01*
X556298372Y-185693883D01*
X556175206Y-185611586D01*
X556038350Y-185554899D01*
X555893066Y-185526000D01*
X555744934Y-185526000D01*
X555599650Y-185554899D01*
X555462794Y-185611586D01*
X555339628Y-185693883D01*
X555234883Y-185798628D01*
X555152586Y-185921794D01*
X555095899Y-186058650D01*
X555067000Y-186203934D01*
X555067000Y-186352066D01*
X555095899Y-186497350D01*
X555152586Y-186634206D01*
X555234883Y-186757372D01*
X555258511Y-186781000D01*
X554693462Y-186781000D01*
X554557276Y-186794413D01*
X554382536Y-186847420D01*
X554221495Y-186933499D01*
X554080341Y-187049341D01*
X553964499Y-187190495D01*
X553878420Y-187351536D01*
X553825413Y-187526276D01*
X553807515Y-187708000D01*
X552911815Y-187708000D01*
X550635338Y-185431523D01*
X550635338Y-183738348D01*
X551267400Y-183738348D01*
X551267400Y-183901252D01*
X551299182Y-184061027D01*
X551361523Y-184211531D01*
X551452028Y-184346981D01*
X551567219Y-184462172D01*
X551702669Y-184552677D01*
X551853173Y-184615018D01*
X551951818Y-184634640D01*
X552204801Y-184887623D01*
X552204800Y-185376443D01*
X552148923Y-185460069D01*
X552086582Y-185610573D01*
X552054800Y-185770348D01*
X552054800Y-185933252D01*
X552086582Y-186093027D01*
X552148923Y-186243531D01*
X552239428Y-186378981D01*
X552354619Y-186494172D01*
X552490069Y-186584677D01*
X552640573Y-186647018D01*
X552800348Y-186678800D01*
X552963252Y-186678800D01*
X553123027Y-186647018D01*
X553273531Y-186584677D01*
X553408981Y-186494172D01*
X553524172Y-186378981D01*
X553614677Y-186243531D01*
X553677018Y-186093027D01*
X553708800Y-185933252D01*
X553708800Y-185770348D01*
X553677018Y-185610573D01*
X553614677Y-185460069D01*
X553558800Y-185376443D01*
X553558800Y-184640452D01*
X553562075Y-184607200D01*
X553549004Y-184474485D01*
X553510292Y-184346870D01*
X553447428Y-184229259D01*
X553384024Y-184152001D01*
X553384022Y-184151999D01*
X553362827Y-184126173D01*
X553337001Y-184104978D01*
X552909240Y-183677218D01*
X552889618Y-183578573D01*
X552827277Y-183428069D01*
X552736772Y-183292619D01*
X552621581Y-183177428D01*
X552486131Y-183086923D01*
X552335627Y-183024582D01*
X552175852Y-182992800D01*
X552012948Y-182992800D01*
X551853173Y-183024582D01*
X551702669Y-183086923D01*
X551567219Y-183177428D01*
X551452028Y-183292619D01*
X551361523Y-183428069D01*
X551299182Y-183578573D01*
X551267400Y-183738348D01*
X550635338Y-183738348D01*
X550635338Y-181203600D01*
X551186921Y-181203600D01*
X551202405Y-181360819D01*
X551248264Y-181511996D01*
X551322736Y-181651323D01*
X551397845Y-181742843D01*
X552109044Y-182454043D01*
X552134157Y-182484643D01*
X552256277Y-182584865D01*
X552371776Y-182646600D01*
X552395603Y-182659336D01*
X552546780Y-182705195D01*
X552560215Y-182706518D01*
X552664606Y-182716800D01*
X552664614Y-182716800D01*
X552704000Y-182720679D01*
X552743386Y-182716800D01*
X555294079Y-182716800D01*
X555272809Y-182768150D01*
X555244686Y-182909532D01*
X555244686Y-183053684D01*
X555272809Y-183195066D01*
X555327973Y-183328245D01*
X555408060Y-183448103D01*
X555509991Y-183550034D01*
X555629849Y-183630121D01*
X555763028Y-183685285D01*
X555896247Y-183711784D01*
X556246760Y-184062297D01*
X556251313Y-184085187D01*
X556306477Y-184218366D01*
X556386564Y-184338224D01*
X556488495Y-184440155D01*
X556608353Y-184520242D01*
X556741532Y-184575406D01*
X556882914Y-184603529D01*
X557027066Y-184603529D01*
X557168448Y-184575406D01*
X557301627Y-184520242D01*
X557421485Y-184440155D01*
X557523416Y-184338224D01*
X557603503Y-184218366D01*
X557658667Y-184085187D01*
X557686790Y-183943805D01*
X557686790Y-183799653D01*
X557658667Y-183658271D01*
X557603503Y-183525092D01*
X557523416Y-183405234D01*
X557421485Y-183303303D01*
X557301627Y-183223216D01*
X557168448Y-183168052D01*
X557027066Y-183139929D01*
X556945222Y-183139929D01*
X556706662Y-182901369D01*
X556680163Y-182768150D01*
X556658893Y-182716800D01*
X557874194Y-182716800D01*
X557992019Y-182705195D01*
X558143197Y-182659336D01*
X558282523Y-182584865D01*
X558404643Y-182484643D01*
X558504865Y-182362523D01*
X558579336Y-182223197D01*
X558625195Y-182072019D01*
X558640680Y-181914800D01*
X558625195Y-181757581D01*
X558579336Y-181606403D01*
X558504865Y-181467077D01*
X558404643Y-181344957D01*
X558282523Y-181244735D01*
X558143197Y-181170264D01*
X557992019Y-181124405D01*
X557874194Y-181112800D01*
X556252452Y-181112800D01*
X556298372Y-181082117D01*
X556403117Y-180977372D01*
X556485414Y-180854206D01*
X556542101Y-180717350D01*
X556571000Y-180572066D01*
X556571000Y-180423934D01*
X556542101Y-180278650D01*
X556485414Y-180141794D01*
X556403117Y-180018628D01*
X556298372Y-179913883D01*
X556264856Y-179891489D01*
X556356505Y-179842501D01*
X556497659Y-179726659D01*
X556613501Y-179585505D01*
X556699580Y-179424464D01*
X556752587Y-179249724D01*
X556770485Y-179068000D01*
X558237515Y-179068000D01*
X558255413Y-179249724D01*
X558308420Y-179424464D01*
X558394499Y-179585505D01*
X558510341Y-179726659D01*
X558651495Y-179842501D01*
X558812536Y-179928580D01*
X558987276Y-179981587D01*
X559123462Y-179995000D01*
X559814538Y-179995000D01*
X559950724Y-179981587D01*
X560125464Y-179928580D01*
X560286505Y-179842501D01*
X560427659Y-179726659D01*
X560543501Y-179585505D01*
X560629580Y-179424464D01*
X560682587Y-179249724D01*
X560700485Y-179068000D01*
X560682587Y-178886276D01*
X560629580Y-178711536D01*
X560543501Y-178550495D01*
X560427659Y-178409341D01*
X560286505Y-178293499D01*
X560125464Y-178207420D01*
X559950724Y-178154413D01*
X559814538Y-178141000D01*
X559123462Y-178141000D01*
X558987276Y-178154413D01*
X558812536Y-178207420D01*
X558651495Y-178293499D01*
X558510341Y-178409341D01*
X558394499Y-178550495D01*
X558308420Y-178711536D01*
X558255413Y-178886276D01*
X558237515Y-179068000D01*
X556770485Y-179068000D01*
X556752587Y-178886276D01*
X556699580Y-178711536D01*
X556613501Y-178550495D01*
X556497659Y-178409341D01*
X556356505Y-178293499D01*
X556195464Y-178207420D01*
X556020724Y-178154413D01*
X555884538Y-178141000D01*
X554693462Y-178141000D01*
X554557276Y-178154413D01*
X554382536Y-178207420D01*
X554221495Y-178293499D01*
X554080341Y-178409341D01*
X553964499Y-178550495D01*
X553878420Y-178711536D01*
X553825413Y-178886276D01*
X553807515Y-179068000D01*
X553825413Y-179249724D01*
X553878420Y-179424464D01*
X553964499Y-179585505D01*
X554080341Y-179726659D01*
X554221495Y-179842501D01*
X554382536Y-179928580D01*
X554557276Y-179981587D01*
X554693462Y-179995000D01*
X555258511Y-179995000D01*
X555234883Y-180018628D01*
X555152586Y-180141794D01*
X555095899Y-180278650D01*
X555067000Y-180423934D01*
X555067000Y-180572066D01*
X555095899Y-180717350D01*
X555152586Y-180854206D01*
X555234883Y-180977372D01*
X555339628Y-181082117D01*
X555385548Y-181112800D01*
X553036199Y-181112800D01*
X552532043Y-180608645D01*
X552440523Y-180533536D01*
X552301196Y-180459064D01*
X552150019Y-180413205D01*
X551992800Y-180397721D01*
X551835581Y-180413205D01*
X551684404Y-180459064D01*
X551545077Y-180533536D01*
X551422957Y-180633757D01*
X551322736Y-180755877D01*
X551248264Y-180895204D01*
X551202405Y-181046381D01*
X551186921Y-181203600D01*
X550635338Y-181203600D01*
X550635338Y-181065077D01*
X552332662Y-179367754D01*
X552354520Y-179349816D01*
X552372905Y-179327414D01*
X552426130Y-179262559D01*
X552479342Y-179163006D01*
X552491120Y-179124178D01*
X552512110Y-179054985D01*
X552520402Y-178970793D01*
X552520402Y-178970791D01*
X552523174Y-178942649D01*
X552520402Y-178914506D01*
X552520402Y-175467324D01*
X555655200Y-175467324D01*
X555655200Y-175611476D01*
X555683323Y-175752858D01*
X555738487Y-175886037D01*
X555818574Y-176005895D01*
X555920505Y-176107826D01*
X556040363Y-176187913D01*
X556173542Y-176243077D01*
X556314924Y-176271200D01*
X556459076Y-176271200D01*
X556600458Y-176243077D01*
X556733637Y-176187913D01*
X556840663Y-176116400D01*
X557976799Y-176116400D01*
X558122011Y-176261612D01*
X558147123Y-176387858D01*
X558202287Y-176521037D01*
X558282374Y-176640895D01*
X558384305Y-176742826D01*
X558504163Y-176822913D01*
X558637342Y-176878077D01*
X558778724Y-176906200D01*
X558922876Y-176906200D01*
X559064258Y-176878077D01*
X559197437Y-176822913D01*
X559317295Y-176742826D01*
X559419226Y-176640895D01*
X559499313Y-176521037D01*
X559554477Y-176387858D01*
X559582600Y-176246476D01*
X559582600Y-176102324D01*
X559554477Y-175960942D01*
X559499313Y-175827763D01*
X559419226Y-175707905D01*
X559317295Y-175605974D01*
X559197437Y-175525887D01*
X559064258Y-175470723D01*
X558938012Y-175445611D01*
X558643839Y-175151438D01*
X558625774Y-175129426D01*
X558537915Y-175057321D01*
X558437676Y-175003743D01*
X558360955Y-174980470D01*
X558328911Y-174970749D01*
X558273845Y-174965326D01*
X558244136Y-174962400D01*
X558244131Y-174962400D01*
X558215800Y-174959610D01*
X558187469Y-174962400D01*
X556840663Y-174962400D01*
X556733637Y-174890887D01*
X556600458Y-174835723D01*
X556459076Y-174807600D01*
X556314924Y-174807600D01*
X556173542Y-174835723D01*
X556040363Y-174890887D01*
X555920505Y-174970974D01*
X555818574Y-175072905D01*
X555738487Y-175192763D01*
X555683323Y-175325942D01*
X555655200Y-175467324D01*
X552520402Y-175467324D01*
X552520402Y-173515209D01*
X553008282Y-173515209D01*
X553090191Y-173772422D01*
X553220705Y-174008713D01*
X553394810Y-174215002D01*
X553605814Y-174383361D01*
X553845609Y-174507320D01*
X554067791Y-174574715D01*
X554282000Y-174471108D01*
X554282000Y-173301000D01*
X554428000Y-173301000D01*
X554428000Y-174471108D01*
X554642209Y-174574715D01*
X554864391Y-174507320D01*
X555104186Y-174383361D01*
X555315190Y-174215002D01*
X555489295Y-174008713D01*
X555515914Y-173960520D01*
X555515450Y-174078000D01*
X555525625Y-174181310D01*
X555555760Y-174280650D01*
X555604695Y-174372202D01*
X555670552Y-174452448D01*
X555750798Y-174518305D01*
X555842350Y-174567240D01*
X555941690Y-174597375D01*
X556045000Y-174607550D01*
X556690250Y-174605000D01*
X556822000Y-174473250D01*
X556822000Y-173301000D01*
X556968000Y-173301000D01*
X556968000Y-174473250D01*
X557099750Y-174605000D01*
X557745000Y-174607550D01*
X557848310Y-174597375D01*
X557947650Y-174567240D01*
X558039202Y-174518305D01*
X558119448Y-174452448D01*
X558185305Y-174372202D01*
X558234240Y-174280650D01*
X558264375Y-174181310D01*
X558274550Y-174078000D01*
X558272000Y-173432750D01*
X558140250Y-173301000D01*
X556968000Y-173301000D01*
X556822000Y-173301000D01*
X555649750Y-173301000D01*
X555615062Y-173335688D01*
X555598317Y-173301000D01*
X554428000Y-173301000D01*
X554282000Y-173301000D01*
X553111683Y-173301000D01*
X553008282Y-173515209D01*
X552520402Y-173515209D01*
X552520402Y-172940791D01*
X553008282Y-172940791D01*
X553111683Y-173155000D01*
X554282000Y-173155000D01*
X554282000Y-171984892D01*
X554428000Y-171984892D01*
X554428000Y-173155000D01*
X555598317Y-173155000D01*
X555615062Y-173120312D01*
X555649750Y-173155000D01*
X556822000Y-173155000D01*
X556822000Y-171982750D01*
X556968000Y-171982750D01*
X556968000Y-173155000D01*
X558140250Y-173155000D01*
X558272000Y-173023250D01*
X558274550Y-172378000D01*
X558264375Y-172274690D01*
X558234240Y-172175350D01*
X558185305Y-172083798D01*
X558119448Y-172003552D01*
X558039202Y-171937695D01*
X557947650Y-171888760D01*
X557848310Y-171858625D01*
X557745000Y-171848450D01*
X557099750Y-171851000D01*
X556968000Y-171982750D01*
X556822000Y-171982750D01*
X556690250Y-171851000D01*
X556045000Y-171848450D01*
X555941690Y-171858625D01*
X555842350Y-171888760D01*
X555750798Y-171937695D01*
X555670552Y-172003552D01*
X555604695Y-172083798D01*
X555555760Y-172175350D01*
X555525625Y-172274690D01*
X555515450Y-172378000D01*
X555515914Y-172495480D01*
X555489295Y-172447287D01*
X555315190Y-172240998D01*
X555104186Y-172072639D01*
X554864391Y-171948680D01*
X554642209Y-171881285D01*
X554428000Y-171984892D01*
X554282000Y-171984892D01*
X554067791Y-171881285D01*
X553845609Y-171948680D01*
X553605814Y-172072639D01*
X553394810Y-172240998D01*
X553220705Y-172447287D01*
X553090191Y-172683578D01*
X553008282Y-172940791D01*
X552520402Y-172940791D01*
X552520402Y-172442975D01*
X552595865Y-172330037D01*
X552651029Y-172196858D01*
X552679152Y-172055476D01*
X552679152Y-171911324D01*
X552651029Y-171769942D01*
X552600519Y-171648000D01*
X560888001Y-171648000D01*
X560888000Y-229926000D01*
%TA.AperFunction,Conductor*%
D23*
G36*
X560888000Y-229926000D02*
G01*
X526867000Y-229926000D01*
X526867000Y-229130205D01*
X526869187Y-229108000D01*
X526862549Y-229040601D01*
X526928275Y-228942234D01*
X526982739Y-228810747D01*
X527010504Y-228671160D01*
X527010504Y-228528840D01*
X526982739Y-228389253D01*
X526928275Y-228257766D01*
X526902373Y-228219000D01*
X526928275Y-228180234D01*
X526982739Y-228048747D01*
X527010504Y-227909160D01*
X527010504Y-227766840D01*
X526982739Y-227627253D01*
X526928275Y-227495766D01*
X526902373Y-227457000D01*
X526928275Y-227418234D01*
X526982739Y-227286747D01*
X527010504Y-227147160D01*
X527010504Y-227004840D01*
X526982739Y-226865253D01*
X526928275Y-226733766D01*
X526902373Y-226695000D01*
X526928275Y-226656234D01*
X526982739Y-226524747D01*
X527010504Y-226385160D01*
X527010504Y-226242840D01*
X526982739Y-226103253D01*
X526928275Y-225971766D01*
X526902373Y-225933000D01*
X526928275Y-225894234D01*
X526982739Y-225762747D01*
X527010504Y-225623160D01*
X527010504Y-225480840D01*
X526982739Y-225341253D01*
X526928275Y-225209766D01*
X526902373Y-225171000D01*
X526928275Y-225132234D01*
X526982739Y-225000747D01*
X527010504Y-224861160D01*
X527010504Y-224718840D01*
X526982739Y-224579253D01*
X526928275Y-224447766D01*
X526902373Y-224409000D01*
X526928275Y-224370234D01*
X526982739Y-224238747D01*
X527010504Y-224099160D01*
X527010504Y-223956840D01*
X526982739Y-223817253D01*
X526928275Y-223685766D01*
X526862549Y-223587399D01*
X526869187Y-223520000D01*
X526867000Y-223497795D01*
X526867000Y-206270205D01*
X526869187Y-206248000D01*
X526862549Y-206180601D01*
X526928275Y-206082234D01*
X526982739Y-205950747D01*
X527010504Y-205811160D01*
X527010504Y-205668840D01*
X526982739Y-205529253D01*
X526928275Y-205397766D01*
X526902373Y-205359000D01*
X526928275Y-205320234D01*
X526982739Y-205188747D01*
X527010504Y-205049160D01*
X527010504Y-204906840D01*
X526982739Y-204767253D01*
X526928275Y-204635766D01*
X526902373Y-204597000D01*
X526928275Y-204558234D01*
X526982739Y-204426747D01*
X527010504Y-204287160D01*
X527010504Y-204144840D01*
X526982739Y-204005253D01*
X526928275Y-203873766D01*
X526902373Y-203835000D01*
X526928275Y-203796234D01*
X526982739Y-203664747D01*
X527010504Y-203525160D01*
X527010504Y-203382840D01*
X526982739Y-203243253D01*
X526928275Y-203111766D01*
X526902373Y-203073000D01*
X526928275Y-203034234D01*
X526982739Y-202902747D01*
X527010504Y-202763160D01*
X527010504Y-202620840D01*
X526982739Y-202481253D01*
X526928275Y-202349766D01*
X526902373Y-202311000D01*
X526928275Y-202272234D01*
X526982739Y-202140747D01*
X527010504Y-202001160D01*
X527010504Y-201858840D01*
X526982739Y-201719253D01*
X526928275Y-201587766D01*
X526902373Y-201549000D01*
X526928275Y-201510234D01*
X526982739Y-201378747D01*
X527010504Y-201239160D01*
X527010504Y-201096840D01*
X526982739Y-200957253D01*
X526928275Y-200825766D01*
X526862549Y-200727399D01*
X526869187Y-200660000D01*
X526867000Y-200637795D01*
X526867000Y-200393177D01*
X526881530Y-200405101D01*
X527955783Y-201479354D01*
X527973727Y-201501219D01*
X528035299Y-201551750D01*
X527963089Y-201623960D01*
X527823337Y-201833114D01*
X527727074Y-202065513D01*
X527678000Y-202312226D01*
X527678000Y-202563774D01*
X527727074Y-202810487D01*
X527823337Y-203042886D01*
X527963089Y-203252040D01*
X528140960Y-203429911D01*
X528350114Y-203569663D01*
X528582513Y-203665926D01*
X528794034Y-203708000D01*
X528582513Y-203750074D01*
X528350114Y-203846337D01*
X528140960Y-203986089D01*
X527963089Y-204163960D01*
X527823337Y-204373114D01*
X527727074Y-204605513D01*
X527678000Y-204852226D01*
X527678000Y-205103774D01*
X527727074Y-205350487D01*
X527823337Y-205582886D01*
X527963089Y-205792040D01*
X528035299Y-205864250D01*
X528031767Y-205867149D01*
X527973727Y-205914781D01*
X527955786Y-205936643D01*
X527373646Y-206518783D01*
X527351781Y-206536727D01*
X527280171Y-206623986D01*
X527226959Y-206723538D01*
X527194191Y-206831559D01*
X527186234Y-206912354D01*
X527183127Y-206943895D01*
X527185899Y-206972037D01*
X527185900Y-221533797D01*
X527183127Y-221561949D01*
X527192134Y-221653387D01*
X527194192Y-221674286D01*
X527200679Y-221695671D01*
X527226959Y-221782306D01*
X527280171Y-221881858D01*
X527333840Y-221947255D01*
X527333843Y-221947258D01*
X527351782Y-221969117D01*
X527373641Y-221987056D01*
X527740261Y-222353676D01*
X527727074Y-222385513D01*
X527678000Y-222632226D01*
X527678000Y-222883774D01*
X527727074Y-223130487D01*
X527823337Y-223362886D01*
X527963089Y-223572040D01*
X528140960Y-223749911D01*
X528350114Y-223889663D01*
X528582513Y-223985926D01*
X528829226Y-224035000D01*
X529080774Y-224035000D01*
X529327487Y-223985926D01*
X529559886Y-223889663D01*
X529578001Y-223877559D01*
X529578001Y-223925908D01*
X529575229Y-223954051D01*
X529578001Y-223982193D01*
X529578001Y-223982195D01*
X529586293Y-224066387D01*
X529619061Y-224174408D01*
X529672273Y-224273960D01*
X529743883Y-224361219D01*
X529765748Y-224379163D01*
X530053884Y-224667298D01*
X530071832Y-224689168D01*
X530159090Y-224760778D01*
X530258642Y-224813990D01*
X530366663Y-224846758D01*
X530450855Y-224855050D01*
X530450857Y-224855050D01*
X530479000Y-224857822D01*
X530507142Y-224855050D01*
X531318779Y-224855050D01*
X529494554Y-226679275D01*
X529327487Y-226610074D01*
X529080774Y-226561000D01*
X528829226Y-226561000D01*
X528582513Y-226610074D01*
X528350114Y-226706337D01*
X528140960Y-226846089D01*
X527963089Y-227023960D01*
X527823337Y-227233114D01*
X527727074Y-227465513D01*
X527678000Y-227712226D01*
X527678000Y-227963774D01*
X527727074Y-228210487D01*
X527823337Y-228442886D01*
X527963089Y-228652040D01*
X528140960Y-228829911D01*
X528350114Y-228969663D01*
X528582513Y-229065926D01*
X528829226Y-229115000D01*
X529080774Y-229115000D01*
X529327487Y-229065926D01*
X529559886Y-228969663D01*
X529769040Y-228829911D01*
X529946911Y-228652040D01*
X530086663Y-228442886D01*
X530182926Y-228210487D01*
X530225000Y-227998966D01*
X530267074Y-228210487D01*
X530363337Y-228442886D01*
X530503089Y-228652040D01*
X530680960Y-228829911D01*
X530890114Y-228969663D01*
X531122513Y-229065926D01*
X531369226Y-229115000D01*
X531620774Y-229115000D01*
X531867487Y-229065926D01*
X532099886Y-228969663D01*
X532309040Y-228829911D01*
X532486911Y-228652040D01*
X532626663Y-228442886D01*
X532722926Y-228210487D01*
X532765000Y-227998966D01*
X532807074Y-228210487D01*
X532903337Y-228442886D01*
X533043089Y-228652040D01*
X533220960Y-228829911D01*
X533430114Y-228969663D01*
X533662513Y-229065926D01*
X533909226Y-229115000D01*
X534160774Y-229115000D01*
X534407487Y-229065926D01*
X534639886Y-228969663D01*
X534849040Y-228829911D01*
X535026911Y-228652040D01*
X535166663Y-228442886D01*
X535262926Y-228210487D01*
X535305000Y-227998966D01*
X535347074Y-228210487D01*
X535443337Y-228442886D01*
X535583089Y-228652040D01*
X535760960Y-228829911D01*
X535970114Y-228969663D01*
X536202513Y-229065926D01*
X536449226Y-229115000D01*
X536700774Y-229115000D01*
X536947487Y-229065926D01*
X537179886Y-228969663D01*
X537389040Y-228829911D01*
X537566911Y-228652040D01*
X537706663Y-228442886D01*
X537802926Y-228210487D01*
X537845000Y-227998966D01*
X537887074Y-228210487D01*
X537983337Y-228442886D01*
X538123089Y-228652040D01*
X538300960Y-228829911D01*
X538510114Y-228969663D01*
X538742513Y-229065926D01*
X538989226Y-229115000D01*
X539240774Y-229115000D01*
X539487487Y-229065926D01*
X539719886Y-228969663D01*
X539929040Y-228829911D01*
X540106911Y-228652040D01*
X540246663Y-228442886D01*
X540342926Y-228210487D01*
X540385000Y-227998966D01*
X540427074Y-228210487D01*
X540523337Y-228442886D01*
X540663089Y-228652040D01*
X540840960Y-228829911D01*
X541050114Y-228969663D01*
X541282513Y-229065926D01*
X541529226Y-229115000D01*
X541780774Y-229115000D01*
X542027487Y-229065926D01*
X542259886Y-228969663D01*
X542469040Y-228829911D01*
X542646911Y-228652040D01*
X542786663Y-228442886D01*
X542882926Y-228210487D01*
X542925000Y-227998966D01*
X542967074Y-228210487D01*
X543063337Y-228442886D01*
X543203089Y-228652040D01*
X543380960Y-228829911D01*
X543590114Y-228969663D01*
X543822513Y-229065926D01*
X544069226Y-229115000D01*
X544320774Y-229115000D01*
X544567487Y-229065926D01*
X544799886Y-228969663D01*
X545009040Y-228829911D01*
X545186911Y-228652040D01*
X545326663Y-228442886D01*
X545422926Y-228210487D01*
X545465000Y-227998966D01*
X545507074Y-228210487D01*
X545603337Y-228442886D01*
X545743089Y-228652040D01*
X545920960Y-228829911D01*
X546130114Y-228969663D01*
X546362513Y-229065926D01*
X546609226Y-229115000D01*
X546860774Y-229115000D01*
X547107487Y-229065926D01*
X547339886Y-228969663D01*
X547549040Y-228829911D01*
X547726911Y-228652040D01*
X547866663Y-228442886D01*
X547962926Y-228210487D01*
X548005000Y-227998966D01*
X548047074Y-228210487D01*
X548143337Y-228442886D01*
X548283089Y-228652040D01*
X548460960Y-228829911D01*
X548670114Y-228969663D01*
X548902513Y-229065926D01*
X549149226Y-229115000D01*
X549400774Y-229115000D01*
X549647487Y-229065926D01*
X549879886Y-228969663D01*
X550089040Y-228829911D01*
X550157690Y-228761261D01*
X550815783Y-229419354D01*
X550833727Y-229441219D01*
X550920985Y-229512829D01*
X551020537Y-229566041D01*
X551128558Y-229598809D01*
X551212750Y-229607101D01*
X551212752Y-229607101D01*
X551240895Y-229609873D01*
X551269037Y-229607101D01*
X555670807Y-229607101D01*
X555698949Y-229609873D01*
X555727091Y-229607101D01*
X555727094Y-229607101D01*
X555811286Y-229598809D01*
X555919307Y-229566041D01*
X556018859Y-229512829D01*
X556106117Y-229441219D01*
X556124061Y-229419354D01*
X556426349Y-229117066D01*
X557745000Y-229117066D01*
X557828707Y-229108822D01*
X557909196Y-229084405D01*
X557983376Y-229044755D01*
X558048395Y-228991395D01*
X558101755Y-228926376D01*
X558141405Y-228852196D01*
X558165822Y-228771707D01*
X558174066Y-228688000D01*
X558174066Y-227692281D01*
X558222224Y-227740439D01*
X558248723Y-227873658D01*
X558303887Y-228006837D01*
X558383974Y-228126695D01*
X558485905Y-228228626D01*
X558605763Y-228308713D01*
X558738942Y-228363877D01*
X558880324Y-228392000D01*
X559024476Y-228392000D01*
X559165858Y-228363877D01*
X559299037Y-228308713D01*
X559418895Y-228228626D01*
X559520826Y-228126695D01*
X559600913Y-228006837D01*
X559656077Y-227873658D01*
X559684200Y-227732276D01*
X559684200Y-227588124D01*
X559656077Y-227446742D01*
X559600913Y-227313563D01*
X559520826Y-227193705D01*
X559418895Y-227091774D01*
X559299037Y-227011687D01*
X559165858Y-226956523D01*
X559032639Y-226930024D01*
X557955112Y-225852497D01*
X557937168Y-225830632D01*
X557849910Y-225759022D01*
X557750358Y-225705810D01*
X557642337Y-225673042D01*
X557558145Y-225664750D01*
X557558142Y-225664750D01*
X557530000Y-225661978D01*
X557501858Y-225664750D01*
X555715505Y-225664750D01*
X554211379Y-224160624D01*
X554193438Y-224138762D01*
X554106180Y-224067152D01*
X554006628Y-224013940D01*
X553898607Y-223981172D01*
X553814415Y-223972880D01*
X553814412Y-223972880D01*
X553786270Y-223970108D01*
X553758128Y-223972880D01*
X551628557Y-223972880D01*
X547241360Y-219585683D01*
X547241360Y-214168775D01*
X549211856Y-216139271D01*
X549229800Y-216161136D01*
X549317058Y-216232746D01*
X549416610Y-216285958D01*
X549524631Y-216318726D01*
X549608823Y-216327018D01*
X549608825Y-216327018D01*
X549636968Y-216329790D01*
X549665110Y-216327018D01*
X555844555Y-216327018D01*
X555957493Y-216402481D01*
X556090672Y-216457645D01*
X556232054Y-216485768D01*
X556376206Y-216485768D01*
X556381941Y-216484627D01*
X556381941Y-216964068D01*
X556368145Y-217009547D01*
X556356540Y-217127372D01*
X556356540Y-217127379D01*
X556352661Y-217166765D01*
X556356540Y-217206152D01*
X556356541Y-217971259D01*
X553475408Y-220852394D01*
X548792298Y-216169286D01*
X548700778Y-216094177D01*
X548561451Y-216019705D01*
X548410274Y-215973846D01*
X548253055Y-215958362D01*
X548095836Y-215973846D01*
X547944659Y-216019705D01*
X547805332Y-216094177D01*
X547683212Y-216194398D01*
X547582991Y-216316518D01*
X547508519Y-216455845D01*
X547462660Y-216607022D01*
X547447176Y-216764241D01*
X547462660Y-216921460D01*
X547508519Y-217072637D01*
X547582991Y-217211964D01*
X547658100Y-217303484D01*
X552508235Y-222153621D01*
X552511600Y-222187786D01*
X552511600Y-222187793D01*
X552519058Y-222263513D01*
X552523205Y-222305619D01*
X552563390Y-222438090D01*
X552569064Y-222456796D01*
X552643535Y-222596122D01*
X552743757Y-222718243D01*
X552865877Y-222818465D01*
X553005203Y-222892936D01*
X553156381Y-222938795D01*
X553313600Y-222954280D01*
X553456722Y-222940183D01*
X553470819Y-222938795D01*
X553621996Y-222892936D01*
X553645823Y-222880200D01*
X553761322Y-222818465D01*
X553883443Y-222718243D01*
X553908560Y-222687638D01*
X557525610Y-219070590D01*
X557525610Y-219742175D01*
X555163761Y-222104024D01*
X555030542Y-222130523D01*
X554897363Y-222185687D01*
X554777505Y-222265774D01*
X554675574Y-222367705D01*
X554595487Y-222487563D01*
X554540323Y-222620742D01*
X554512200Y-222762124D01*
X554512200Y-222906276D01*
X554540323Y-223047658D01*
X554595487Y-223180837D01*
X554675574Y-223300695D01*
X554777505Y-223402626D01*
X554897363Y-223482713D01*
X555030542Y-223537877D01*
X555171924Y-223566000D01*
X555316076Y-223566000D01*
X555457458Y-223537877D01*
X555590637Y-223482713D01*
X555710495Y-223402626D01*
X555812426Y-223300695D01*
X555890033Y-223184548D01*
X558862000Y-223184548D01*
X558862000Y-223347452D01*
X558893782Y-223507227D01*
X558956123Y-223657731D01*
X559046628Y-223793181D01*
X559161819Y-223908372D01*
X559297269Y-223998877D01*
X559447773Y-224061218D01*
X559607548Y-224093000D01*
X559770452Y-224093000D01*
X559930227Y-224061218D01*
X560080731Y-223998877D01*
X560216181Y-223908372D01*
X560331372Y-223793181D01*
X560421877Y-223657731D01*
X560484218Y-223507227D01*
X560516000Y-223347452D01*
X560516000Y-223184548D01*
X560484218Y-223024773D01*
X560421877Y-222874269D01*
X560331372Y-222738819D01*
X560216181Y-222623628D01*
X560080731Y-222533123D01*
X559930227Y-222470782D01*
X559770452Y-222439000D01*
X559607548Y-222439000D01*
X559447773Y-222470782D01*
X559297269Y-222533123D01*
X559161819Y-222623628D01*
X559046628Y-222738819D01*
X558956123Y-222874269D01*
X558893782Y-223024773D01*
X558862000Y-223184548D01*
X555890033Y-223184548D01*
X555892513Y-223180837D01*
X555947677Y-223047658D01*
X555974176Y-222914439D01*
X558483964Y-220404651D01*
X558505828Y-220386708D01*
X558577438Y-220299450D01*
X558630650Y-220199898D01*
X558663418Y-220091877D01*
X558671710Y-220007685D01*
X558671710Y-220007683D01*
X558674482Y-219979540D01*
X558671710Y-219951398D01*
X558671710Y-215945548D01*
X558862000Y-215945548D01*
X558862000Y-216108452D01*
X558893782Y-216268227D01*
X558956123Y-216418731D01*
X559046628Y-216554181D01*
X559161819Y-216669372D01*
X559297269Y-216759877D01*
X559447773Y-216822218D01*
X559607548Y-216854000D01*
X559770452Y-216854000D01*
X559930227Y-216822218D01*
X560080731Y-216759877D01*
X560216181Y-216669372D01*
X560331372Y-216554181D01*
X560421877Y-216418731D01*
X560484218Y-216268227D01*
X560516000Y-216108452D01*
X560516000Y-215945548D01*
X560484218Y-215785773D01*
X560421877Y-215635269D01*
X560331372Y-215499819D01*
X560216181Y-215384628D01*
X560080731Y-215294123D01*
X559930227Y-215231782D01*
X559770452Y-215200000D01*
X559607548Y-215200000D01*
X559447773Y-215231782D01*
X559297269Y-215294123D01*
X559161819Y-215384628D01*
X559046628Y-215499819D01*
X558956123Y-215635269D01*
X558893782Y-215785773D01*
X558862000Y-215945548D01*
X558671710Y-215945548D01*
X558671710Y-214033002D01*
X558674482Y-214004860D01*
X558670854Y-213968026D01*
X558663418Y-213892523D01*
X558630650Y-213784502D01*
X558577438Y-213684950D01*
X558505828Y-213597692D01*
X558483963Y-213579748D01*
X557554111Y-212649896D01*
X557554111Y-210992548D01*
X558862000Y-210992548D01*
X558862000Y-211155452D01*
X558893782Y-211315227D01*
X558956123Y-211465731D01*
X559046628Y-211601181D01*
X559161819Y-211716372D01*
X559297269Y-211806877D01*
X559447773Y-211869218D01*
X559607548Y-211901000D01*
X559770452Y-211901000D01*
X559930227Y-211869218D01*
X560080731Y-211806877D01*
X560216181Y-211716372D01*
X560331372Y-211601181D01*
X560421877Y-211465731D01*
X560484218Y-211315227D01*
X560516000Y-211155452D01*
X560516000Y-210992548D01*
X560484218Y-210832773D01*
X560421877Y-210682269D01*
X560331372Y-210546819D01*
X560216181Y-210431628D01*
X560080731Y-210341123D01*
X559930227Y-210278782D01*
X559770452Y-210247000D01*
X559607548Y-210247000D01*
X559447773Y-210278782D01*
X559297269Y-210341123D01*
X559161819Y-210431628D01*
X559046628Y-210546819D01*
X558956123Y-210682269D01*
X558893782Y-210832773D01*
X558862000Y-210992548D01*
X557554111Y-210992548D01*
X557554111Y-207111201D01*
X559233427Y-205431885D01*
X559313389Y-205407629D01*
X559412941Y-205354417D01*
X559500199Y-205282807D01*
X559518143Y-205260942D01*
X559836509Y-204942575D01*
X559858378Y-204924628D01*
X559929988Y-204837370D01*
X559983200Y-204737818D01*
X560015968Y-204629797D01*
X560024260Y-204545605D01*
X560024260Y-204545603D01*
X560027032Y-204517460D01*
X560024260Y-204489318D01*
X560024260Y-200130352D01*
X560027032Y-200102210D01*
X560024051Y-200071942D01*
X560015968Y-199989873D01*
X559983200Y-199881852D01*
X559929988Y-199782300D01*
X559858378Y-199695042D01*
X559836513Y-199677098D01*
X557658944Y-197499529D01*
X557650201Y-197410756D01*
X557617433Y-197302736D01*
X557564221Y-197203183D01*
X557538372Y-197171686D01*
X557492611Y-197115925D01*
X557470746Y-197097981D01*
X552284774Y-191912009D01*
X552414342Y-191965677D01*
X552555724Y-191993800D01*
X552699876Y-191993800D01*
X552841258Y-191965677D01*
X552974437Y-191910513D01*
X553094295Y-191830426D01*
X553196226Y-191728495D01*
X553276313Y-191608637D01*
X553331477Y-191475458D01*
X553359600Y-191334076D01*
X553359600Y-191189924D01*
X553331477Y-191048542D01*
X553276313Y-190915363D01*
X553200850Y-190802425D01*
X553200850Y-188262542D01*
X553203622Y-188234400D01*
X553199240Y-188189911D01*
X553192558Y-188122063D01*
X553159790Y-188014042D01*
X553106578Y-187914490D01*
X553034968Y-187827232D01*
X553013103Y-187809288D01*
X552911815Y-187708000D01*
X553807515Y-187708000D01*
X553825413Y-187889724D01*
X553878420Y-188064464D01*
X553964499Y-188225505D01*
X554080341Y-188366659D01*
X554221495Y-188482501D01*
X554382536Y-188568580D01*
X554557276Y-188621587D01*
X554693462Y-188635000D01*
X555884538Y-188635000D01*
X556020724Y-188621587D01*
X556195464Y-188568580D01*
X556356505Y-188482501D01*
X556497659Y-188366659D01*
X556613501Y-188225505D01*
X556699580Y-188064464D01*
X556752587Y-187889724D01*
X556770485Y-187708000D01*
X558237515Y-187708000D01*
X558255413Y-187889724D01*
X558308420Y-188064464D01*
X558394499Y-188225505D01*
X558510341Y-188366659D01*
X558651495Y-188482501D01*
X558812536Y-188568580D01*
X558987276Y-188621587D01*
X559123462Y-188635000D01*
X559814538Y-188635000D01*
X559950724Y-188621587D01*
X560125464Y-188568580D01*
X560286505Y-188482501D01*
X560427659Y-188366659D01*
X560543501Y-188225505D01*
X560629580Y-188064464D01*
X560682587Y-187889724D01*
X560700485Y-187708000D01*
X560682587Y-187526276D01*
X560629580Y-187351536D01*
X560543501Y-187190495D01*
X560427659Y-187049341D01*
X560286505Y-186933499D01*
X560125464Y-186847420D01*
X559950724Y-186794413D01*
X559814538Y-186781000D01*
X559123462Y-186781000D01*
X558987276Y-186794413D01*
X558812536Y-186847420D01*
X558651495Y-186933499D01*
X558510341Y-187049341D01*
X558394499Y-187190495D01*
X558308420Y-187351536D01*
X558255413Y-187526276D01*
X558237515Y-187708000D01*
X556770485Y-187708000D01*
X556752587Y-187526276D01*
X556699580Y-187351536D01*
X556613501Y-187190495D01*
X556497659Y-187049341D01*
X556356505Y-186933499D01*
X556264856Y-186884511D01*
X556298372Y-186862117D01*
X556403117Y-186757372D01*
X556485414Y-186634206D01*
X556542101Y-186497350D01*
X556571000Y-186352066D01*
X556571000Y-186203934D01*
X556542101Y-186058650D01*
X556485414Y-185921794D01*
X556403117Y-185798628D01*
X556298372Y-185693883D01*
X556175206Y-185611586D01*
X556038350Y-185554899D01*
X555893066Y-185526000D01*
X555744934Y-185526000D01*
X555599650Y-185554899D01*
X555462794Y-185611586D01*
X555339628Y-185693883D01*
X555234883Y-185798628D01*
X555152586Y-185921794D01*
X555095899Y-186058650D01*
X555067000Y-186203934D01*
X555067000Y-186352066D01*
X555095899Y-186497350D01*
X555152586Y-186634206D01*
X555234883Y-186757372D01*
X555258511Y-186781000D01*
X554693462Y-186781000D01*
X554557276Y-186794413D01*
X554382536Y-186847420D01*
X554221495Y-186933499D01*
X554080341Y-187049341D01*
X553964499Y-187190495D01*
X553878420Y-187351536D01*
X553825413Y-187526276D01*
X553807515Y-187708000D01*
X552911815Y-187708000D01*
X550635338Y-185431523D01*
X550635338Y-183738348D01*
X551267400Y-183738348D01*
X551267400Y-183901252D01*
X551299182Y-184061027D01*
X551361523Y-184211531D01*
X551452028Y-184346981D01*
X551567219Y-184462172D01*
X551702669Y-184552677D01*
X551853173Y-184615018D01*
X551951818Y-184634640D01*
X552204801Y-184887623D01*
X552204800Y-185376443D01*
X552148923Y-185460069D01*
X552086582Y-185610573D01*
X552054800Y-185770348D01*
X552054800Y-185933252D01*
X552086582Y-186093027D01*
X552148923Y-186243531D01*
X552239428Y-186378981D01*
X552354619Y-186494172D01*
X552490069Y-186584677D01*
X552640573Y-186647018D01*
X552800348Y-186678800D01*
X552963252Y-186678800D01*
X553123027Y-186647018D01*
X553273531Y-186584677D01*
X553408981Y-186494172D01*
X553524172Y-186378981D01*
X553614677Y-186243531D01*
X553677018Y-186093027D01*
X553708800Y-185933252D01*
X553708800Y-185770348D01*
X553677018Y-185610573D01*
X553614677Y-185460069D01*
X553558800Y-185376443D01*
X553558800Y-184640452D01*
X553562075Y-184607200D01*
X553549004Y-184474485D01*
X553510292Y-184346870D01*
X553447428Y-184229259D01*
X553384024Y-184152001D01*
X553384022Y-184151999D01*
X553362827Y-184126173D01*
X553337001Y-184104978D01*
X552909240Y-183677218D01*
X552889618Y-183578573D01*
X552827277Y-183428069D01*
X552736772Y-183292619D01*
X552621581Y-183177428D01*
X552486131Y-183086923D01*
X552335627Y-183024582D01*
X552175852Y-182992800D01*
X552012948Y-182992800D01*
X551853173Y-183024582D01*
X551702669Y-183086923D01*
X551567219Y-183177428D01*
X551452028Y-183292619D01*
X551361523Y-183428069D01*
X551299182Y-183578573D01*
X551267400Y-183738348D01*
X550635338Y-183738348D01*
X550635338Y-181203600D01*
X551186921Y-181203600D01*
X551202405Y-181360819D01*
X551248264Y-181511996D01*
X551322736Y-181651323D01*
X551397845Y-181742843D01*
X552109044Y-182454043D01*
X552134157Y-182484643D01*
X552256277Y-182584865D01*
X552371776Y-182646600D01*
X552395603Y-182659336D01*
X552546780Y-182705195D01*
X552560215Y-182706518D01*
X552664606Y-182716800D01*
X552664614Y-182716800D01*
X552704000Y-182720679D01*
X552743386Y-182716800D01*
X555294079Y-182716800D01*
X555272809Y-182768150D01*
X555244686Y-182909532D01*
X555244686Y-183053684D01*
X555272809Y-183195066D01*
X555327973Y-183328245D01*
X555408060Y-183448103D01*
X555509991Y-183550034D01*
X555629849Y-183630121D01*
X555763028Y-183685285D01*
X555896247Y-183711784D01*
X556246760Y-184062297D01*
X556251313Y-184085187D01*
X556306477Y-184218366D01*
X556386564Y-184338224D01*
X556488495Y-184440155D01*
X556608353Y-184520242D01*
X556741532Y-184575406D01*
X556882914Y-184603529D01*
X557027066Y-184603529D01*
X557168448Y-184575406D01*
X557301627Y-184520242D01*
X557421485Y-184440155D01*
X557523416Y-184338224D01*
X557603503Y-184218366D01*
X557658667Y-184085187D01*
X557686790Y-183943805D01*
X557686790Y-183799653D01*
X557658667Y-183658271D01*
X557603503Y-183525092D01*
X557523416Y-183405234D01*
X557421485Y-183303303D01*
X557301627Y-183223216D01*
X557168448Y-183168052D01*
X557027066Y-183139929D01*
X556945222Y-183139929D01*
X556706662Y-182901369D01*
X556680163Y-182768150D01*
X556658893Y-182716800D01*
X557874194Y-182716800D01*
X557992019Y-182705195D01*
X558143197Y-182659336D01*
X558282523Y-182584865D01*
X558404643Y-182484643D01*
X558504865Y-182362523D01*
X558579336Y-182223197D01*
X558625195Y-182072019D01*
X558640680Y-181914800D01*
X558625195Y-181757581D01*
X558579336Y-181606403D01*
X558504865Y-181467077D01*
X558404643Y-181344957D01*
X558282523Y-181244735D01*
X558143197Y-181170264D01*
X557992019Y-181124405D01*
X557874194Y-181112800D01*
X556252452Y-181112800D01*
X556298372Y-181082117D01*
X556403117Y-180977372D01*
X556485414Y-180854206D01*
X556542101Y-180717350D01*
X556571000Y-180572066D01*
X556571000Y-180423934D01*
X556542101Y-180278650D01*
X556485414Y-180141794D01*
X556403117Y-180018628D01*
X556298372Y-179913883D01*
X556264856Y-179891489D01*
X556356505Y-179842501D01*
X556497659Y-179726659D01*
X556613501Y-179585505D01*
X556699580Y-179424464D01*
X556752587Y-179249724D01*
X556770485Y-179068000D01*
X558237515Y-179068000D01*
X558255413Y-179249724D01*
X558308420Y-179424464D01*
X558394499Y-179585505D01*
X558510341Y-179726659D01*
X558651495Y-179842501D01*
X558812536Y-179928580D01*
X558987276Y-179981587D01*
X559123462Y-179995000D01*
X559814538Y-179995000D01*
X559950724Y-179981587D01*
X560125464Y-179928580D01*
X560286505Y-179842501D01*
X560427659Y-179726659D01*
X560543501Y-179585505D01*
X560629580Y-179424464D01*
X560682587Y-179249724D01*
X560700485Y-179068000D01*
X560682587Y-178886276D01*
X560629580Y-178711536D01*
X560543501Y-178550495D01*
X560427659Y-178409341D01*
X560286505Y-178293499D01*
X560125464Y-178207420D01*
X559950724Y-178154413D01*
X559814538Y-178141000D01*
X559123462Y-178141000D01*
X558987276Y-178154413D01*
X558812536Y-178207420D01*
X558651495Y-178293499D01*
X558510341Y-178409341D01*
X558394499Y-178550495D01*
X558308420Y-178711536D01*
X558255413Y-178886276D01*
X558237515Y-179068000D01*
X556770485Y-179068000D01*
X556752587Y-178886276D01*
X556699580Y-178711536D01*
X556613501Y-178550495D01*
X556497659Y-178409341D01*
X556356505Y-178293499D01*
X556195464Y-178207420D01*
X556020724Y-178154413D01*
X555884538Y-178141000D01*
X554693462Y-178141000D01*
X554557276Y-178154413D01*
X554382536Y-178207420D01*
X554221495Y-178293499D01*
X554080341Y-178409341D01*
X553964499Y-178550495D01*
X553878420Y-178711536D01*
X553825413Y-178886276D01*
X553807515Y-179068000D01*
X553825413Y-179249724D01*
X553878420Y-179424464D01*
X553964499Y-179585505D01*
X554080341Y-179726659D01*
X554221495Y-179842501D01*
X554382536Y-179928580D01*
X554557276Y-179981587D01*
X554693462Y-179995000D01*
X555258511Y-179995000D01*
X555234883Y-180018628D01*
X555152586Y-180141794D01*
X555095899Y-180278650D01*
X555067000Y-180423934D01*
X555067000Y-180572066D01*
X555095899Y-180717350D01*
X555152586Y-180854206D01*
X555234883Y-180977372D01*
X555339628Y-181082117D01*
X555385548Y-181112800D01*
X553036199Y-181112800D01*
X552532043Y-180608645D01*
X552440523Y-180533536D01*
X552301196Y-180459064D01*
X552150019Y-180413205D01*
X551992800Y-180397721D01*
X551835581Y-180413205D01*
X551684404Y-180459064D01*
X551545077Y-180533536D01*
X551422957Y-180633757D01*
X551322736Y-180755877D01*
X551248264Y-180895204D01*
X551202405Y-181046381D01*
X551186921Y-181203600D01*
X550635338Y-181203600D01*
X550635338Y-181065077D01*
X552332662Y-179367754D01*
X552354520Y-179349816D01*
X552372905Y-179327414D01*
X552426130Y-179262559D01*
X552479342Y-179163006D01*
X552491120Y-179124178D01*
X552512110Y-179054985D01*
X552520402Y-178970793D01*
X552520402Y-178970791D01*
X552523174Y-178942649D01*
X552520402Y-178914506D01*
X552520402Y-175467324D01*
X555655200Y-175467324D01*
X555655200Y-175611476D01*
X555683323Y-175752858D01*
X555738487Y-175886037D01*
X555818574Y-176005895D01*
X555920505Y-176107826D01*
X556040363Y-176187913D01*
X556173542Y-176243077D01*
X556314924Y-176271200D01*
X556459076Y-176271200D01*
X556600458Y-176243077D01*
X556733637Y-176187913D01*
X556840663Y-176116400D01*
X557976799Y-176116400D01*
X558122011Y-176261612D01*
X558147123Y-176387858D01*
X558202287Y-176521037D01*
X558282374Y-176640895D01*
X558384305Y-176742826D01*
X558504163Y-176822913D01*
X558637342Y-176878077D01*
X558778724Y-176906200D01*
X558922876Y-176906200D01*
X559064258Y-176878077D01*
X559197437Y-176822913D01*
X559317295Y-176742826D01*
X559419226Y-176640895D01*
X559499313Y-176521037D01*
X559554477Y-176387858D01*
X559582600Y-176246476D01*
X559582600Y-176102324D01*
X559554477Y-175960942D01*
X559499313Y-175827763D01*
X559419226Y-175707905D01*
X559317295Y-175605974D01*
X559197437Y-175525887D01*
X559064258Y-175470723D01*
X558938012Y-175445611D01*
X558643839Y-175151438D01*
X558625774Y-175129426D01*
X558537915Y-175057321D01*
X558437676Y-175003743D01*
X558360955Y-174980470D01*
X558328911Y-174970749D01*
X558273845Y-174965326D01*
X558244136Y-174962400D01*
X558244131Y-174962400D01*
X558215800Y-174959610D01*
X558187469Y-174962400D01*
X556840663Y-174962400D01*
X556733637Y-174890887D01*
X556600458Y-174835723D01*
X556459076Y-174807600D01*
X556314924Y-174807600D01*
X556173542Y-174835723D01*
X556040363Y-174890887D01*
X555920505Y-174970974D01*
X555818574Y-175072905D01*
X555738487Y-175192763D01*
X555683323Y-175325942D01*
X555655200Y-175467324D01*
X552520402Y-175467324D01*
X552520402Y-173515209D01*
X553008282Y-173515209D01*
X553090191Y-173772422D01*
X553220705Y-174008713D01*
X553394810Y-174215002D01*
X553605814Y-174383361D01*
X553845609Y-174507320D01*
X554067791Y-174574715D01*
X554282000Y-174471108D01*
X554282000Y-173301000D01*
X554428000Y-173301000D01*
X554428000Y-174471108D01*
X554642209Y-174574715D01*
X554864391Y-174507320D01*
X555104186Y-174383361D01*
X555315190Y-174215002D01*
X555489295Y-174008713D01*
X555515914Y-173960520D01*
X555515450Y-174078000D01*
X555525625Y-174181310D01*
X555555760Y-174280650D01*
X555604695Y-174372202D01*
X555670552Y-174452448D01*
X555750798Y-174518305D01*
X555842350Y-174567240D01*
X555941690Y-174597375D01*
X556045000Y-174607550D01*
X556690250Y-174605000D01*
X556822000Y-174473250D01*
X556822000Y-173301000D01*
X556968000Y-173301000D01*
X556968000Y-174473250D01*
X557099750Y-174605000D01*
X557745000Y-174607550D01*
X557848310Y-174597375D01*
X557947650Y-174567240D01*
X558039202Y-174518305D01*
X558119448Y-174452448D01*
X558185305Y-174372202D01*
X558234240Y-174280650D01*
X558264375Y-174181310D01*
X558274550Y-174078000D01*
X558272000Y-173432750D01*
X558140250Y-173301000D01*
X556968000Y-173301000D01*
X556822000Y-173301000D01*
X555649750Y-173301000D01*
X555615062Y-173335688D01*
X555598317Y-173301000D01*
X554428000Y-173301000D01*
X554282000Y-173301000D01*
X553111683Y-173301000D01*
X553008282Y-173515209D01*
X552520402Y-173515209D01*
X552520402Y-172940791D01*
X553008282Y-172940791D01*
X553111683Y-173155000D01*
X554282000Y-173155000D01*
X554282000Y-171984892D01*
X554428000Y-171984892D01*
X554428000Y-173155000D01*
X555598317Y-173155000D01*
X555615062Y-173120312D01*
X555649750Y-173155000D01*
X556822000Y-173155000D01*
X556822000Y-171982750D01*
X556968000Y-171982750D01*
X556968000Y-173155000D01*
X558140250Y-173155000D01*
X558272000Y-173023250D01*
X558274550Y-172378000D01*
X558264375Y-172274690D01*
X558234240Y-172175350D01*
X558185305Y-172083798D01*
X558119448Y-172003552D01*
X558039202Y-171937695D01*
X557947650Y-171888760D01*
X557848310Y-171858625D01*
X557745000Y-171848450D01*
X557099750Y-171851000D01*
X556968000Y-171982750D01*
X556822000Y-171982750D01*
X556690250Y-171851000D01*
X556045000Y-171848450D01*
X555941690Y-171858625D01*
X555842350Y-171888760D01*
X555750798Y-171937695D01*
X555670552Y-172003552D01*
X555604695Y-172083798D01*
X555555760Y-172175350D01*
X555525625Y-172274690D01*
X555515450Y-172378000D01*
X555515914Y-172495480D01*
X555489295Y-172447287D01*
X555315190Y-172240998D01*
X555104186Y-172072639D01*
X554864391Y-171948680D01*
X554642209Y-171881285D01*
X554428000Y-171984892D01*
X554282000Y-171984892D01*
X554067791Y-171881285D01*
X553845609Y-171948680D01*
X553605814Y-172072639D01*
X553394810Y-172240998D01*
X553220705Y-172447287D01*
X553090191Y-172683578D01*
X553008282Y-172940791D01*
X552520402Y-172940791D01*
X552520402Y-172442975D01*
X552595865Y-172330037D01*
X552651029Y-172196858D01*
X552679152Y-172055476D01*
X552679152Y-171911324D01*
X552651029Y-171769942D01*
X552600519Y-171648000D01*
X560888001Y-171648000D01*
X560888000Y-229926000D01*
G37*
%TD.AperFunction*%
D22*
X548974449Y-226595765D02*
X548902513Y-226610074D01*
X548670114Y-226706337D01*
X548460960Y-226846089D01*
X548283089Y-227023960D01*
X548143337Y-227233114D01*
X548047074Y-227465513D01*
X548005000Y-227677034D01*
X547962926Y-227465513D01*
X547866663Y-227233114D01*
X547726911Y-227023960D01*
X547549040Y-226846089D01*
X547339886Y-226706337D01*
X547107487Y-226610074D01*
X546860774Y-226561000D01*
X546609226Y-226561000D01*
X546362513Y-226610074D01*
X546130114Y-226706337D01*
X545920960Y-226846089D01*
X545743089Y-227023960D01*
X545603337Y-227233114D01*
X545507074Y-227465513D01*
X545465000Y-227677034D01*
X545422926Y-227465513D01*
X545326663Y-227233114D01*
X545186911Y-227023960D01*
X545009040Y-226846089D01*
X544799886Y-226706337D01*
X544567487Y-226610074D01*
X544320774Y-226561000D01*
X544069226Y-226561000D01*
X543822513Y-226610074D01*
X543590114Y-226706337D01*
X543380960Y-226846089D01*
X543203089Y-227023960D01*
X543063337Y-227233114D01*
X542967074Y-227465513D01*
X542925000Y-227677034D01*
X542882926Y-227465513D01*
X542786663Y-227233114D01*
X542646911Y-227023960D01*
X542469040Y-226846089D01*
X542259886Y-226706337D01*
X542027487Y-226610074D01*
X541780774Y-226561000D01*
X541529226Y-226561000D01*
X541282513Y-226610074D01*
X541050114Y-226706337D01*
X540840960Y-226846089D01*
X540663089Y-227023960D01*
X540523337Y-227233114D01*
X540427074Y-227465513D01*
X540385000Y-227677034D01*
X540342926Y-227465513D01*
X540246663Y-227233114D01*
X540106911Y-227023960D01*
X539929040Y-226846089D01*
X539719886Y-226706337D01*
X539487487Y-226610074D01*
X539240774Y-226561000D01*
X538989226Y-226561000D01*
X538742513Y-226610074D01*
X538510114Y-226706337D01*
X538300960Y-226846089D01*
X538123089Y-227023960D01*
X537983337Y-227233114D01*
X537887074Y-227465513D01*
X537845000Y-227677034D01*
X537802926Y-227465513D01*
X537706663Y-227233114D01*
X537566911Y-227023960D01*
X537389040Y-226846089D01*
X537179886Y-226706337D01*
X536947487Y-226610074D01*
X536700774Y-226561000D01*
X536449226Y-226561000D01*
X536202513Y-226610074D01*
X535970114Y-226706337D01*
X535760960Y-226846089D01*
X535583089Y-227023960D01*
X535443337Y-227233114D01*
X535347074Y-227465513D01*
X535305000Y-227677034D01*
X535262926Y-227465513D01*
X535166663Y-227233114D01*
X535026911Y-227023960D01*
X534849040Y-226846089D01*
X534639886Y-226706337D01*
X534407487Y-226610074D01*
X534160774Y-226561000D01*
X533909226Y-226561000D01*
X533662513Y-226610074D01*
X533430114Y-226706337D01*
X533220960Y-226846089D01*
X533043089Y-227023960D01*
X532903337Y-227233114D01*
X532807074Y-227465513D01*
X532765000Y-227677034D01*
X532722926Y-227465513D01*
X532626663Y-227233114D01*
X532486911Y-227023960D01*
X532309040Y-226846089D01*
X532099886Y-226706337D01*
X531867487Y-226610074D01*
X531620774Y-226561000D01*
X531369226Y-226561000D01*
X531199998Y-226594661D01*
X532304609Y-225490050D01*
X532755312Y-225490050D01*
X532783454Y-225492822D01*
X532811596Y-225490050D01*
X532811599Y-225490050D01*
X532895791Y-225481758D01*
X533003812Y-225448990D01*
X533103364Y-225395778D01*
X533190622Y-225324168D01*
X533208566Y-225302303D01*
X535671968Y-222838901D01*
X541105427Y-222838901D01*
X541133569Y-222841673D01*
X541161711Y-222838901D01*
X541161714Y-222838901D01*
X541245906Y-222830609D01*
X541353927Y-222797841D01*
X541453479Y-222744629D01*
X541540737Y-222673019D01*
X541558680Y-222651155D01*
X542294309Y-221915527D01*
X542316168Y-221897588D01*
X542348096Y-221858684D01*
X542387778Y-221810330D01*
X542440990Y-221710778D01*
X542448180Y-221687076D01*
X542473758Y-221602757D01*
X542482050Y-221518565D01*
X542482050Y-221518563D01*
X542484822Y-221490421D01*
X542482050Y-221462278D01*
X542482050Y-220373142D01*
X542484822Y-220345000D01*
X542482050Y-220316855D01*
X542473758Y-220232663D01*
X542440990Y-220124642D01*
X542387778Y-220025090D01*
X542316168Y-219937832D01*
X542294304Y-219919889D01*
X541711800Y-219337385D01*
X541716069Y-219337385D01*
X548974449Y-226595765D01*
%TA.AperFunction,Conductor*%
D23*
G36*
X548974449Y-226595765D02*
G01*
X548902513Y-226610074D01*
X548670114Y-226706337D01*
X548460960Y-226846089D01*
X548283089Y-227023960D01*
X548143337Y-227233114D01*
X548047074Y-227465513D01*
X548005000Y-227677034D01*
X547962926Y-227465513D01*
X547866663Y-227233114D01*
X547726911Y-227023960D01*
X547549040Y-226846089D01*
X547339886Y-226706337D01*
X547107487Y-226610074D01*
X546860774Y-226561000D01*
X546609226Y-226561000D01*
X546362513Y-226610074D01*
X546130114Y-226706337D01*
X545920960Y-226846089D01*
X545743089Y-227023960D01*
X545603337Y-227233114D01*
X545507074Y-227465513D01*
X545465000Y-227677034D01*
X545422926Y-227465513D01*
X545326663Y-227233114D01*
X545186911Y-227023960D01*
X545009040Y-226846089D01*
X544799886Y-226706337D01*
X544567487Y-226610074D01*
X544320774Y-226561000D01*
X544069226Y-226561000D01*
X543822513Y-226610074D01*
X543590114Y-226706337D01*
X543380960Y-226846089D01*
X543203089Y-227023960D01*
X543063337Y-227233114D01*
X542967074Y-227465513D01*
X542925000Y-227677034D01*
X542882926Y-227465513D01*
X542786663Y-227233114D01*
X542646911Y-227023960D01*
X542469040Y-226846089D01*
X542259886Y-226706337D01*
X542027487Y-226610074D01*
X541780774Y-226561000D01*
X541529226Y-226561000D01*
X541282513Y-226610074D01*
X541050114Y-226706337D01*
X540840960Y-226846089D01*
X540663089Y-227023960D01*
X540523337Y-227233114D01*
X540427074Y-227465513D01*
X540385000Y-227677034D01*
X540342926Y-227465513D01*
X540246663Y-227233114D01*
X540106911Y-227023960D01*
X539929040Y-226846089D01*
X539719886Y-226706337D01*
X539487487Y-226610074D01*
X539240774Y-226561000D01*
X538989226Y-226561000D01*
X538742513Y-226610074D01*
X538510114Y-226706337D01*
X538300960Y-226846089D01*
X538123089Y-227023960D01*
X537983337Y-227233114D01*
X537887074Y-227465513D01*
X537845000Y-227677034D01*
X537802926Y-227465513D01*
X537706663Y-227233114D01*
X537566911Y-227023960D01*
X537389040Y-226846089D01*
X537179886Y-226706337D01*
X536947487Y-226610074D01*
X536700774Y-226561000D01*
X536449226Y-226561000D01*
X536202513Y-226610074D01*
X535970114Y-226706337D01*
X535760960Y-226846089D01*
X535583089Y-227023960D01*
X535443337Y-227233114D01*
X535347074Y-227465513D01*
X535305000Y-227677034D01*
X535262926Y-227465513D01*
X535166663Y-227233114D01*
X535026911Y-227023960D01*
X534849040Y-226846089D01*
X534639886Y-226706337D01*
X534407487Y-226610074D01*
X534160774Y-226561000D01*
X533909226Y-226561000D01*
X533662513Y-226610074D01*
X533430114Y-226706337D01*
X533220960Y-226846089D01*
X533043089Y-227023960D01*
X532903337Y-227233114D01*
X532807074Y-227465513D01*
X532765000Y-227677034D01*
X532722926Y-227465513D01*
X532626663Y-227233114D01*
X532486911Y-227023960D01*
X532309040Y-226846089D01*
X532099886Y-226706337D01*
X531867487Y-226610074D01*
X531620774Y-226561000D01*
X531369226Y-226561000D01*
X531199998Y-226594661D01*
X532304609Y-225490050D01*
X532755312Y-225490050D01*
X532783454Y-225492822D01*
X532811596Y-225490050D01*
X532811599Y-225490050D01*
X532895791Y-225481758D01*
X533003812Y-225448990D01*
X533103364Y-225395778D01*
X533190622Y-225324168D01*
X533208566Y-225302303D01*
X535671968Y-222838901D01*
X541105427Y-222838901D01*
X541133569Y-222841673D01*
X541161711Y-222838901D01*
X541161714Y-222838901D01*
X541245906Y-222830609D01*
X541353927Y-222797841D01*
X541453479Y-222744629D01*
X541540737Y-222673019D01*
X541558680Y-222651155D01*
X542294309Y-221915527D01*
X542316168Y-221897588D01*
X542348096Y-221858684D01*
X542387778Y-221810330D01*
X542440990Y-221710778D01*
X542448180Y-221687076D01*
X542473758Y-221602757D01*
X542482050Y-221518565D01*
X542482050Y-221518563D01*
X542484822Y-221490421D01*
X542482050Y-221462278D01*
X542482050Y-220373142D01*
X542484822Y-220345000D01*
X542482050Y-220316855D01*
X542473758Y-220232663D01*
X542440990Y-220124642D01*
X542387778Y-220025090D01*
X542316168Y-219937832D01*
X542294304Y-219919889D01*
X541711800Y-219337385D01*
X541716069Y-219337385D01*
X548974449Y-226595765D01*
G37*
%TD.AperFunction*%
D22*
X541258755Y-209033140D02*
X541157577Y-209053266D01*
X541024398Y-209108430D01*
X540904540Y-209188517D01*
X540802609Y-209290448D01*
X540722522Y-209410306D01*
X540667358Y-209543485D01*
X540639235Y-209684867D01*
X540639235Y-209829019D01*
X540667358Y-209970401D01*
X540722522Y-210103580D01*
X540802609Y-210223438D01*
X540904540Y-210325369D01*
X541024398Y-210405456D01*
X541064493Y-210422064D01*
X541050199Y-210493925D01*
X541050199Y-210638077D01*
X541078322Y-210779459D01*
X541133486Y-210912638D01*
X541213573Y-211032496D01*
X541315504Y-211134427D01*
X541435362Y-211214514D01*
X541568541Y-211269678D01*
X541595938Y-211275128D01*
X542106232Y-211785422D01*
X542074661Y-211806517D01*
X541972730Y-211908448D01*
X541892643Y-212028306D01*
X541837479Y-212161485D01*
X541810980Y-212294704D01*
X540634697Y-213470987D01*
X540612832Y-213488931D01*
X540541222Y-213576190D01*
X540488010Y-213675742D01*
X540455242Y-213783763D01*
X540448862Y-213848542D01*
X540444178Y-213896099D01*
X540446950Y-213924241D01*
X540446951Y-219427848D01*
X540444178Y-219456000D01*
X540449746Y-219512526D01*
X540455243Y-219568337D01*
X540464395Y-219598506D01*
X540488010Y-219676357D01*
X540541222Y-219775909D01*
X540594891Y-219841306D01*
X540594894Y-219841309D01*
X540612833Y-219863168D01*
X540634692Y-219881107D01*
X541335950Y-220582365D01*
X541335950Y-220660006D01*
X541300584Y-220645357D01*
X541167365Y-220618858D01*
X541056484Y-220507977D01*
X541038541Y-220486113D01*
X540951283Y-220414503D01*
X540851731Y-220361291D01*
X540743710Y-220328523D01*
X540659518Y-220320231D01*
X540659515Y-220320231D01*
X540631373Y-220317459D01*
X540603231Y-220320231D01*
X532772000Y-220320231D01*
X532772000Y-220092226D01*
X532722926Y-219845513D01*
X532626663Y-219613114D01*
X532486911Y-219403960D01*
X532309040Y-219226089D01*
X532099886Y-219086337D01*
X531867487Y-218990074D01*
X531655966Y-218948000D01*
X531867487Y-218905926D01*
X532099886Y-218809663D01*
X532309040Y-218669911D01*
X532486911Y-218492040D01*
X532626663Y-218282886D01*
X532722926Y-218050487D01*
X532772000Y-217803774D01*
X532772000Y-217552226D01*
X532722926Y-217305513D01*
X532626663Y-217073114D01*
X532486911Y-216863960D01*
X532309040Y-216686089D01*
X532099886Y-216546337D01*
X531877706Y-216454307D01*
X532039422Y-216402809D01*
X532275713Y-216272295D01*
X532482002Y-216098190D01*
X532650361Y-215887186D01*
X532774320Y-215647391D01*
X532841715Y-215425209D01*
X532738108Y-215211000D01*
X531568000Y-215211000D01*
X531568000Y-215231000D01*
X531422000Y-215231000D01*
X531422000Y-215211000D01*
X531402000Y-215211000D01*
X531402000Y-215065000D01*
X531422000Y-215065000D01*
X531422000Y-213894683D01*
X531568000Y-213894683D01*
X531568000Y-215065000D01*
X532738108Y-215065000D01*
X532841715Y-214850791D01*
X532774320Y-214628609D01*
X532650361Y-214388814D01*
X532482002Y-214177810D01*
X532275713Y-214003705D01*
X532039422Y-213873191D01*
X531782209Y-213791282D01*
X531568000Y-213894683D01*
X531422000Y-213894683D01*
X531207791Y-213791282D01*
X530950578Y-213873191D01*
X530871999Y-213916594D01*
X530871999Y-213614000D01*
X532892000Y-213614000D01*
X532892000Y-215392000D01*
X532894440Y-215416776D01*
X532901667Y-215440601D01*
X532913403Y-215462557D01*
X532929197Y-215481803D01*
X536358197Y-218910803D01*
X536377443Y-218926597D01*
X536399399Y-218938333D01*
X536423224Y-218945560D01*
X536448000Y-218948000D01*
X538099000Y-218948000D01*
X538123776Y-218945560D01*
X538147601Y-218938333D01*
X538169557Y-218926597D01*
X538188803Y-218910803D01*
X539712803Y-217386803D01*
X539728597Y-217367557D01*
X539740333Y-217345601D01*
X539747560Y-217321776D01*
X539750000Y-217297000D01*
X539750000Y-215265000D01*
X539747560Y-215240224D01*
X539740333Y-215216399D01*
X539728597Y-215194443D01*
X539712803Y-215175197D01*
X539294606Y-214757000D01*
X540347803Y-213703803D01*
X540363597Y-213684557D01*
X540375333Y-213662601D01*
X540382560Y-213638776D01*
X540385000Y-213614000D01*
X540382560Y-213589224D01*
X540375333Y-213565399D01*
X540363597Y-213543443D01*
X540347803Y-213524197D01*
X539802606Y-212979000D01*
X541236803Y-211544803D01*
X541252597Y-211525557D01*
X541264333Y-211503601D01*
X541271560Y-211479776D01*
X541274000Y-211455000D01*
X541271560Y-211430224D01*
X541264333Y-211406399D01*
X541252597Y-211384443D01*
X541236803Y-211365197D01*
X540347803Y-210476197D01*
X540328557Y-210460403D01*
X540306601Y-210448667D01*
X540282776Y-210441440D01*
X540258000Y-210439000D01*
X540233224Y-210441440D01*
X540209399Y-210448667D01*
X540187443Y-210460403D01*
X540168197Y-210476197D01*
X537792394Y-212852000D01*
X537135606Y-212852000D01*
X536283803Y-212000197D01*
X536264557Y-211984403D01*
X536242601Y-211972667D01*
X536218776Y-211965440D01*
X536194000Y-211963000D01*
X534543000Y-211963000D01*
X534518224Y-211965440D01*
X534494399Y-211972667D01*
X534472443Y-211984403D01*
X534453197Y-212000197D01*
X532929197Y-213524197D01*
X532913403Y-213543443D01*
X532901667Y-213565399D01*
X532894440Y-213589224D01*
X532892000Y-213614000D01*
X530871999Y-213614000D01*
X530871999Y-212814154D01*
X530906180Y-212779973D01*
X530926574Y-212810495D01*
X531028505Y-212912426D01*
X531148363Y-212992513D01*
X531281542Y-213047677D01*
X531422924Y-213075800D01*
X531567076Y-213075800D01*
X531708458Y-213047677D01*
X531841637Y-212992513D01*
X531954575Y-212917050D01*
X532645408Y-212917050D01*
X532673550Y-212919822D01*
X532701692Y-212917050D01*
X532701695Y-212917050D01*
X532785887Y-212908758D01*
X532893908Y-212875990D01*
X532993460Y-212822778D01*
X533080718Y-212751168D01*
X533098662Y-212729303D01*
X536075853Y-209752112D01*
X538976509Y-209752112D01*
X539004651Y-209754884D01*
X539032793Y-209752112D01*
X539032796Y-209752112D01*
X539116988Y-209743820D01*
X539225009Y-209711052D01*
X539324561Y-209657840D01*
X539389612Y-209604455D01*
X539522908Y-209577940D01*
X539612369Y-209540884D01*
X539642355Y-209570870D01*
X539762213Y-209650957D01*
X539895392Y-209706121D01*
X540036774Y-209734244D01*
X540180926Y-209734244D01*
X540322308Y-209706121D01*
X540455487Y-209650957D01*
X540575345Y-209570870D01*
X540677276Y-209468939D01*
X540757363Y-209349081D01*
X540812527Y-209215902D01*
X540840650Y-209074520D01*
X540840650Y-208930368D01*
X540812527Y-208788986D01*
X540757363Y-208655807D01*
X540681856Y-208542804D01*
X540681181Y-208535949D01*
X540673608Y-208459055D01*
X540668791Y-208443177D01*
X541258755Y-209033140D01*
%TA.AperFunction,Conductor*%
D23*
G36*
X541258755Y-209033140D02*
G01*
X541157577Y-209053266D01*
X541024398Y-209108430D01*
X540904540Y-209188517D01*
X540802609Y-209290448D01*
X540722522Y-209410306D01*
X540667358Y-209543485D01*
X540639235Y-209684867D01*
X540639235Y-209829019D01*
X540667358Y-209970401D01*
X540722522Y-210103580D01*
X540802609Y-210223438D01*
X540904540Y-210325369D01*
X541024398Y-210405456D01*
X541064493Y-210422064D01*
X541050199Y-210493925D01*
X541050199Y-210638077D01*
X541078322Y-210779459D01*
X541133486Y-210912638D01*
X541213573Y-211032496D01*
X541315504Y-211134427D01*
X541435362Y-211214514D01*
X541568541Y-211269678D01*
X541595938Y-211275128D01*
X542106232Y-211785422D01*
X542074661Y-211806517D01*
X541972730Y-211908448D01*
X541892643Y-212028306D01*
X541837479Y-212161485D01*
X541810980Y-212294704D01*
X540634697Y-213470987D01*
X540612832Y-213488931D01*
X540541222Y-213576190D01*
X540488010Y-213675742D01*
X540455242Y-213783763D01*
X540448862Y-213848542D01*
X540444178Y-213896099D01*
X540446950Y-213924241D01*
X540446951Y-219427848D01*
X540444178Y-219456000D01*
X540449746Y-219512526D01*
X540455243Y-219568337D01*
X540464395Y-219598506D01*
X540488010Y-219676357D01*
X540541222Y-219775909D01*
X540594891Y-219841306D01*
X540594894Y-219841309D01*
X540612833Y-219863168D01*
X540634692Y-219881107D01*
X541335950Y-220582365D01*
X541335950Y-220660006D01*
X541300584Y-220645357D01*
X541167365Y-220618858D01*
X541056484Y-220507977D01*
X541038541Y-220486113D01*
X540951283Y-220414503D01*
X540851731Y-220361291D01*
X540743710Y-220328523D01*
X540659518Y-220320231D01*
X540659515Y-220320231D01*
X540631373Y-220317459D01*
X540603231Y-220320231D01*
X532772000Y-220320231D01*
X532772000Y-220092226D01*
X532722926Y-219845513D01*
X532626663Y-219613114D01*
X532486911Y-219403960D01*
X532309040Y-219226089D01*
X532099886Y-219086337D01*
X531867487Y-218990074D01*
X531655966Y-218948000D01*
X531867487Y-218905926D01*
X532099886Y-218809663D01*
X532309040Y-218669911D01*
X532486911Y-218492040D01*
X532626663Y-218282886D01*
X532722926Y-218050487D01*
X532772000Y-217803774D01*
X532772000Y-217552226D01*
X532722926Y-217305513D01*
X532626663Y-217073114D01*
X532486911Y-216863960D01*
X532309040Y-216686089D01*
X532099886Y-216546337D01*
X531877706Y-216454307D01*
X532039422Y-216402809D01*
X532275713Y-216272295D01*
X532482002Y-216098190D01*
X532650361Y-215887186D01*
X532774320Y-215647391D01*
X532841715Y-215425209D01*
X532738108Y-215211000D01*
X531568000Y-215211000D01*
X531568000Y-215231000D01*
X531422000Y-215231000D01*
X531422000Y-215211000D01*
X531402000Y-215211000D01*
X531402000Y-215065000D01*
X531422000Y-215065000D01*
X531422000Y-213894683D01*
X531568000Y-213894683D01*
X531568000Y-215065000D01*
X532738108Y-215065000D01*
X532841715Y-214850791D01*
X532774320Y-214628609D01*
X532650361Y-214388814D01*
X532482002Y-214177810D01*
X532275713Y-214003705D01*
X532039422Y-213873191D01*
X531782209Y-213791282D01*
X531568000Y-213894683D01*
X531422000Y-213894683D01*
X531207791Y-213791282D01*
X530950578Y-213873191D01*
X530871999Y-213916594D01*
X530871999Y-213614000D01*
X532892000Y-213614000D01*
X532892000Y-215392000D01*
X532894440Y-215416776D01*
X532901667Y-215440601D01*
X532913403Y-215462557D01*
X532929197Y-215481803D01*
X536358197Y-218910803D01*
X536377443Y-218926597D01*
X536399399Y-218938333D01*
X536423224Y-218945560D01*
X536448000Y-218948000D01*
X538099000Y-218948000D01*
X538123776Y-218945560D01*
X538147601Y-218938333D01*
X538169557Y-218926597D01*
X538188803Y-218910803D01*
X539712803Y-217386803D01*
X539728597Y-217367557D01*
X539740333Y-217345601D01*
X539747560Y-217321776D01*
X539750000Y-217297000D01*
X539750000Y-215265000D01*
X539747560Y-215240224D01*
X539740333Y-215216399D01*
X539728597Y-215194443D01*
X539712803Y-215175197D01*
X539294606Y-214757000D01*
X540347803Y-213703803D01*
X540363597Y-213684557D01*
X540375333Y-213662601D01*
X540382560Y-213638776D01*
X540385000Y-213614000D01*
X540382560Y-213589224D01*
X540375333Y-213565399D01*
X540363597Y-213543443D01*
X540347803Y-213524197D01*
X539802606Y-212979000D01*
X541236803Y-211544803D01*
X541252597Y-211525557D01*
X541264333Y-211503601D01*
X541271560Y-211479776D01*
X541274000Y-211455000D01*
X541271560Y-211430224D01*
X541264333Y-211406399D01*
X541252597Y-211384443D01*
X541236803Y-211365197D01*
X540347803Y-210476197D01*
X540328557Y-210460403D01*
X540306601Y-210448667D01*
X540282776Y-210441440D01*
X540258000Y-210439000D01*
X540233224Y-210441440D01*
X540209399Y-210448667D01*
X540187443Y-210460403D01*
X540168197Y-210476197D01*
X537792394Y-212852000D01*
X537135606Y-212852000D01*
X536283803Y-212000197D01*
X536264557Y-211984403D01*
X536242601Y-211972667D01*
X536218776Y-211965440D01*
X536194000Y-211963000D01*
X534543000Y-211963000D01*
X534518224Y-211965440D01*
X534494399Y-211972667D01*
X534472443Y-211984403D01*
X534453197Y-212000197D01*
X532929197Y-213524197D01*
X532913403Y-213543443D01*
X532901667Y-213565399D01*
X532894440Y-213589224D01*
X532892000Y-213614000D01*
X530871999Y-213614000D01*
X530871999Y-212814154D01*
X530906180Y-212779973D01*
X530926574Y-212810495D01*
X531028505Y-212912426D01*
X531148363Y-212992513D01*
X531281542Y-213047677D01*
X531422924Y-213075800D01*
X531567076Y-213075800D01*
X531708458Y-213047677D01*
X531841637Y-212992513D01*
X531954575Y-212917050D01*
X532645408Y-212917050D01*
X532673550Y-212919822D01*
X532701692Y-212917050D01*
X532701695Y-212917050D01*
X532785887Y-212908758D01*
X532893908Y-212875990D01*
X532993460Y-212822778D01*
X533080718Y-212751168D01*
X533098662Y-212729303D01*
X536075853Y-209752112D01*
X538976509Y-209752112D01*
X539004651Y-209754884D01*
X539032793Y-209752112D01*
X539032796Y-209752112D01*
X539116988Y-209743820D01*
X539225009Y-209711052D01*
X539324561Y-209657840D01*
X539389612Y-209604455D01*
X539522908Y-209577940D01*
X539612369Y-209540884D01*
X539642355Y-209570870D01*
X539762213Y-209650957D01*
X539895392Y-209706121D01*
X540036774Y-209734244D01*
X540180926Y-209734244D01*
X540322308Y-209706121D01*
X540455487Y-209650957D01*
X540575345Y-209570870D01*
X540677276Y-209468939D01*
X540757363Y-209349081D01*
X540812527Y-209215902D01*
X540840650Y-209074520D01*
X540840650Y-208930368D01*
X540812527Y-208788986D01*
X540757363Y-208655807D01*
X540681856Y-208542804D01*
X540681181Y-208535949D01*
X540673608Y-208459055D01*
X540668791Y-208443177D01*
X541258755Y-209033140D01*
G37*
%TD.AperFunction*%
D22*
X544742737Y-214421928D02*
X544615196Y-214421928D01*
X544473814Y-214450051D01*
X544340635Y-214505215D01*
X544220777Y-214585302D01*
X544118846Y-214687233D01*
X544038759Y-214807091D01*
X543983595Y-214940270D01*
X543957096Y-215073489D01*
X543809734Y-215220851D01*
X543787869Y-215238795D01*
X543716259Y-215326054D01*
X543663047Y-215425606D01*
X543630279Y-215533627D01*
X543622992Y-215607613D01*
X543619215Y-215645963D01*
X543621987Y-215674106D01*
X543621988Y-218834569D01*
X543462243Y-218674824D01*
X543464959Y-218661167D01*
X543464959Y-218517015D01*
X543436836Y-218375633D01*
X543381672Y-218242454D01*
X543301585Y-218122596D01*
X543199654Y-218020665D01*
X543079796Y-217940578D01*
X542946617Y-217885414D01*
X542805235Y-217857291D01*
X542661083Y-217857291D01*
X542519701Y-217885414D01*
X542386522Y-217940578D01*
X542266664Y-218020665D01*
X542193763Y-218093567D01*
X542137355Y-218037159D01*
X542017497Y-217957072D01*
X541884318Y-217901908D01*
X541742936Y-217873785D01*
X541598784Y-217873785D01*
X541593050Y-217874926D01*
X541593050Y-214133464D01*
X542621395Y-213105119D01*
X542754614Y-213078620D01*
X542887793Y-213023456D01*
X543007651Y-212943369D01*
X543109582Y-212841438D01*
X543130677Y-212809867D01*
X544742737Y-214421928D01*
%TA.AperFunction,Conductor*%
D23*
G36*
X544742737Y-214421928D02*
G01*
X544615196Y-214421928D01*
X544473814Y-214450051D01*
X544340635Y-214505215D01*
X544220777Y-214585302D01*
X544118846Y-214687233D01*
X544038759Y-214807091D01*
X543983595Y-214940270D01*
X543957096Y-215073489D01*
X543809734Y-215220851D01*
X543787869Y-215238795D01*
X543716259Y-215326054D01*
X543663047Y-215425606D01*
X543630279Y-215533627D01*
X543622992Y-215607613D01*
X543619215Y-215645963D01*
X543621987Y-215674106D01*
X543621988Y-218834569D01*
X543462243Y-218674824D01*
X543464959Y-218661167D01*
X543464959Y-218517015D01*
X543436836Y-218375633D01*
X543381672Y-218242454D01*
X543301585Y-218122596D01*
X543199654Y-218020665D01*
X543079796Y-217940578D01*
X542946617Y-217885414D01*
X542805235Y-217857291D01*
X542661083Y-217857291D01*
X542519701Y-217885414D01*
X542386522Y-217940578D01*
X542266664Y-218020665D01*
X542193763Y-218093567D01*
X542137355Y-218037159D01*
X542017497Y-217957072D01*
X541884318Y-217901908D01*
X541742936Y-217873785D01*
X541598784Y-217873785D01*
X541593050Y-217874926D01*
X541593050Y-214133464D01*
X542621395Y-213105119D01*
X542754614Y-213078620D01*
X542887793Y-213023456D01*
X543007651Y-212943369D01*
X543109582Y-212841438D01*
X543130677Y-212809867D01*
X544742737Y-214421928D01*
G37*
%TD.AperFunction*%
D22*
X528350114Y-208649663D02*
X528582513Y-208745926D01*
X528829226Y-208795000D01*
X529080774Y-208795000D01*
X529327487Y-208745926D01*
X529359323Y-208732739D01*
X529807053Y-209180469D01*
X529824992Y-209202328D01*
X529846851Y-209220267D01*
X529846853Y-209220269D01*
X529902334Y-209265800D01*
X529912250Y-209273938D01*
X530011802Y-209327150D01*
X530119823Y-209359918D01*
X530204015Y-209368210D01*
X530204017Y-209368210D01*
X530232160Y-209370982D01*
X530260302Y-209368210D01*
X533609575Y-209368210D01*
X531857687Y-211120098D01*
X531210732Y-211120098D01*
X531182589Y-211117326D01*
X531154447Y-211120098D01*
X531154445Y-211120098D01*
X531070253Y-211128390D01*
X530962232Y-211161158D01*
X530862679Y-211214370D01*
X530797283Y-211268039D01*
X530775422Y-211285980D01*
X530757483Y-211307839D01*
X529913641Y-212151682D01*
X529891782Y-212169621D01*
X529873843Y-212191480D01*
X529873840Y-212191483D01*
X529820171Y-212256880D01*
X529766959Y-212356432D01*
X529761344Y-212374944D01*
X529737135Y-212454752D01*
X529734192Y-212464453D01*
X529723127Y-212576789D01*
X529725900Y-212604941D01*
X529725900Y-214117263D01*
X529559886Y-214006337D01*
X529327487Y-213910074D01*
X529080774Y-213861000D01*
X528829226Y-213861000D01*
X528582513Y-213910074D01*
X528350114Y-214006337D01*
X528331999Y-214018441D01*
X528331999Y-208637559D01*
X528350114Y-208649663D01*
%TA.AperFunction,Conductor*%
D23*
G36*
X528350114Y-208649663D02*
G01*
X528582513Y-208745926D01*
X528829226Y-208795000D01*
X529080774Y-208795000D01*
X529327487Y-208745926D01*
X529359323Y-208732739D01*
X529807053Y-209180469D01*
X529824992Y-209202328D01*
X529846851Y-209220267D01*
X529846853Y-209220269D01*
X529902334Y-209265800D01*
X529912250Y-209273938D01*
X530011802Y-209327150D01*
X530119823Y-209359918D01*
X530204015Y-209368210D01*
X530204017Y-209368210D01*
X530232160Y-209370982D01*
X530260302Y-209368210D01*
X533609575Y-209368210D01*
X531857687Y-211120098D01*
X531210732Y-211120098D01*
X531182589Y-211117326D01*
X531154447Y-211120098D01*
X531154445Y-211120098D01*
X531070253Y-211128390D01*
X530962232Y-211161158D01*
X530862679Y-211214370D01*
X530797283Y-211268039D01*
X530775422Y-211285980D01*
X530757483Y-211307839D01*
X529913641Y-212151682D01*
X529891782Y-212169621D01*
X529873843Y-212191480D01*
X529873840Y-212191483D01*
X529820171Y-212256880D01*
X529766959Y-212356432D01*
X529761344Y-212374944D01*
X529737135Y-212454752D01*
X529734192Y-212464453D01*
X529723127Y-212576789D01*
X529725900Y-212604941D01*
X529725900Y-214117263D01*
X529559886Y-214006337D01*
X529327487Y-213910074D01*
X529080774Y-213861000D01*
X528829226Y-213861000D01*
X528582513Y-213910074D01*
X528350114Y-214006337D01*
X528331999Y-214018441D01*
X528331999Y-208637559D01*
X528350114Y-208649663D01*
G37*
%TD.AperFunction*%
D22*
X545916513Y-206433813D02*
X545916513Y-206452440D01*
X545944636Y-206593822D01*
X545999800Y-206727001D01*
X546079887Y-206846859D01*
X546181818Y-206948790D01*
X546301676Y-207028877D01*
X546434855Y-207084041D01*
X546576237Y-207112164D01*
X546678991Y-207112164D01*
X546696087Y-207153437D01*
X546776174Y-207273295D01*
X546878105Y-207375226D01*
X546997963Y-207455313D01*
X547131142Y-207510477D01*
X547272524Y-207538600D01*
X547416676Y-207538600D01*
X547558058Y-207510477D01*
X547691237Y-207455313D01*
X547811095Y-207375226D01*
X547913026Y-207273295D01*
X547993113Y-207153437D01*
X548048277Y-207020258D01*
X548076400Y-206878876D01*
X548076400Y-206734724D01*
X548048277Y-206593342D01*
X547993113Y-206460163D01*
X547917650Y-206347225D01*
X547917650Y-206043138D01*
X547920422Y-206014996D01*
X547917650Y-205986851D01*
X547909358Y-205902659D01*
X547876590Y-205794638D01*
X547823378Y-205695086D01*
X547814608Y-205684400D01*
X547848476Y-205684400D01*
X547989858Y-205656277D01*
X548123037Y-205601113D01*
X548221226Y-205535505D01*
X548305484Y-205591805D01*
X548438663Y-205646969D01*
X548580045Y-205675092D01*
X548724197Y-205675092D01*
X548865579Y-205646969D01*
X548998758Y-205591805D01*
X549118616Y-205511718D01*
X549192031Y-205438303D01*
X549224373Y-205451700D01*
X549365755Y-205479823D01*
X549509907Y-205479823D01*
X549599428Y-205462016D01*
X549596813Y-205475164D01*
X549596813Y-205619316D01*
X549624936Y-205760698D01*
X549680100Y-205893877D01*
X549760187Y-206013735D01*
X549862118Y-206115666D01*
X549879774Y-206127463D01*
X547966645Y-208040592D01*
X547888258Y-208008123D01*
X547746876Y-207980000D01*
X547602724Y-207980000D01*
X547461342Y-208008123D01*
X547328163Y-208063287D01*
X547208305Y-208143374D01*
X547106374Y-208245305D01*
X547026287Y-208365163D01*
X546971123Y-208498342D01*
X546943000Y-208639724D01*
X546943000Y-208783876D01*
X546971123Y-208925258D01*
X547026287Y-209058437D01*
X547106374Y-209178295D01*
X547208305Y-209280226D01*
X547328163Y-209360313D01*
X547461342Y-209415477D01*
X547602724Y-209443600D01*
X547746876Y-209443600D01*
X547888258Y-209415477D01*
X548021437Y-209360313D01*
X548134440Y-209284806D01*
X548218189Y-209276558D01*
X548326210Y-209243790D01*
X548389864Y-209209766D01*
X548404802Y-209232123D01*
X548506733Y-209334054D01*
X548626591Y-209414141D01*
X548759770Y-209469305D01*
X548901152Y-209497428D01*
X549045304Y-209497428D01*
X549186686Y-209469305D01*
X549319865Y-209414141D01*
X549436735Y-209336051D01*
X549515591Y-209388741D01*
X549648770Y-209443905D01*
X549790152Y-209472028D01*
X549934304Y-209472028D01*
X550075686Y-209443905D01*
X550208865Y-209388741D01*
X550328723Y-209308654D01*
X550423196Y-209214181D01*
X550530145Y-209258480D01*
X550671527Y-209286603D01*
X550815679Y-209286603D01*
X550957061Y-209258480D01*
X551090240Y-209203316D01*
X551210098Y-209123229D01*
X551277868Y-209055459D01*
X551315963Y-209080913D01*
X551449142Y-209136077D01*
X551590524Y-209164200D01*
X551734676Y-209164200D01*
X551876058Y-209136077D01*
X552009237Y-209080913D01*
X552103612Y-209017853D01*
X552221026Y-209096307D01*
X552354205Y-209151471D01*
X552495587Y-209179594D01*
X552639739Y-209179594D01*
X552645465Y-209178455D01*
X552645464Y-211450630D01*
X551390070Y-212706024D01*
X551256851Y-212732523D01*
X551123672Y-212787687D01*
X551003814Y-212867774D01*
X550901883Y-212969705D01*
X550821796Y-213089563D01*
X550766632Y-213222742D01*
X550738509Y-213364124D01*
X550738509Y-213406984D01*
X550649447Y-213443874D01*
X550536509Y-213519337D01*
X550013259Y-213519337D01*
X549367890Y-212873969D01*
X549401755Y-212851341D01*
X549503686Y-212749410D01*
X549583773Y-212629552D01*
X549638937Y-212496373D01*
X549667060Y-212354991D01*
X549667060Y-212210839D01*
X549638937Y-212069457D01*
X549583773Y-211936278D01*
X549503686Y-211816420D01*
X549401755Y-211714489D01*
X549281897Y-211634402D01*
X549148718Y-211579238D01*
X549015499Y-211552739D01*
X546410108Y-208947348D01*
X546392164Y-208925483D01*
X546304906Y-208853873D01*
X546205354Y-208800661D01*
X546097333Y-208767893D01*
X546013141Y-208759601D01*
X546013138Y-208759601D01*
X545984996Y-208756829D01*
X545956854Y-208759601D01*
X544047367Y-208759601D01*
X543278402Y-207990636D01*
X544861622Y-207990636D01*
X544889764Y-207993408D01*
X544917906Y-207990636D01*
X544917909Y-207990636D01*
X545002101Y-207982344D01*
X545110122Y-207949576D01*
X545209674Y-207896364D01*
X545274725Y-207842979D01*
X545408021Y-207816464D01*
X545541200Y-207761300D01*
X545661058Y-207681213D01*
X545762989Y-207579282D01*
X545843076Y-207459424D01*
X545898240Y-207326245D01*
X545926363Y-207184863D01*
X545926363Y-207040711D01*
X545898240Y-206899329D01*
X545843076Y-206766150D01*
X545762989Y-206646292D01*
X545661058Y-206544361D01*
X545541200Y-206464274D01*
X545408021Y-206409110D01*
X545266639Y-206380987D01*
X545122487Y-206380987D01*
X544981105Y-206409110D01*
X544847926Y-206464274D01*
X544728068Y-206544361D01*
X544626137Y-206646292D01*
X544546050Y-206766150D01*
X544513582Y-206844536D01*
X544313926Y-206844536D01*
X544317200Y-206828076D01*
X544317200Y-206683924D01*
X544289077Y-206542542D01*
X544233913Y-206409363D01*
X544153826Y-206289505D01*
X544051895Y-206187574D01*
X543932037Y-206107487D01*
X543798858Y-206052323D01*
X543657476Y-206024200D01*
X543513324Y-206024200D01*
X543371942Y-206052323D01*
X543238763Y-206107487D01*
X543125825Y-206182950D01*
X542862613Y-206182950D01*
X542754798Y-206075135D01*
X542823525Y-206029213D01*
X542925456Y-205927282D01*
X543005543Y-205807424D01*
X543060707Y-205674245D01*
X543088830Y-205532863D01*
X543088830Y-205465947D01*
X543156266Y-205438014D01*
X543276124Y-205357927D01*
X543378055Y-205255996D01*
X543458142Y-205136138D01*
X543513306Y-205002959D01*
X543539666Y-204870441D01*
X543581276Y-204870441D01*
X543722658Y-204842318D01*
X543855837Y-204787154D01*
X543975695Y-204707067D01*
X544077626Y-204605136D01*
X544081716Y-204599015D01*
X545916513Y-206433813D01*
%TA.AperFunction,Conductor*%
D23*
G36*
X545916513Y-206433813D02*
G01*
X545916513Y-206452440D01*
X545944636Y-206593822D01*
X545999800Y-206727001D01*
X546079887Y-206846859D01*
X546181818Y-206948790D01*
X546301676Y-207028877D01*
X546434855Y-207084041D01*
X546576237Y-207112164D01*
X546678991Y-207112164D01*
X546696087Y-207153437D01*
X546776174Y-207273295D01*
X546878105Y-207375226D01*
X546997963Y-207455313D01*
X547131142Y-207510477D01*
X547272524Y-207538600D01*
X547416676Y-207538600D01*
X547558058Y-207510477D01*
X547691237Y-207455313D01*
X547811095Y-207375226D01*
X547913026Y-207273295D01*
X547993113Y-207153437D01*
X548048277Y-207020258D01*
X548076400Y-206878876D01*
X548076400Y-206734724D01*
X548048277Y-206593342D01*
X547993113Y-206460163D01*
X547917650Y-206347225D01*
X547917650Y-206043138D01*
X547920422Y-206014996D01*
X547917650Y-205986851D01*
X547909358Y-205902659D01*
X547876590Y-205794638D01*
X547823378Y-205695086D01*
X547814608Y-205684400D01*
X547848476Y-205684400D01*
X547989858Y-205656277D01*
X548123037Y-205601113D01*
X548221226Y-205535505D01*
X548305484Y-205591805D01*
X548438663Y-205646969D01*
X548580045Y-205675092D01*
X548724197Y-205675092D01*
X548865579Y-205646969D01*
X548998758Y-205591805D01*
X549118616Y-205511718D01*
X549192031Y-205438303D01*
X549224373Y-205451700D01*
X549365755Y-205479823D01*
X549509907Y-205479823D01*
X549599428Y-205462016D01*
X549596813Y-205475164D01*
X549596813Y-205619316D01*
X549624936Y-205760698D01*
X549680100Y-205893877D01*
X549760187Y-206013735D01*
X549862118Y-206115666D01*
X549879774Y-206127463D01*
X547966645Y-208040592D01*
X547888258Y-208008123D01*
X547746876Y-207980000D01*
X547602724Y-207980000D01*
X547461342Y-208008123D01*
X547328163Y-208063287D01*
X547208305Y-208143374D01*
X547106374Y-208245305D01*
X547026287Y-208365163D01*
X546971123Y-208498342D01*
X546943000Y-208639724D01*
X546943000Y-208783876D01*
X546971123Y-208925258D01*
X547026287Y-209058437D01*
X547106374Y-209178295D01*
X547208305Y-209280226D01*
X547328163Y-209360313D01*
X547461342Y-209415477D01*
X547602724Y-209443600D01*
X547746876Y-209443600D01*
X547888258Y-209415477D01*
X548021437Y-209360313D01*
X548134440Y-209284806D01*
X548218189Y-209276558D01*
X548326210Y-209243790D01*
X548389864Y-209209766D01*
X548404802Y-209232123D01*
X548506733Y-209334054D01*
X548626591Y-209414141D01*
X548759770Y-209469305D01*
X548901152Y-209497428D01*
X549045304Y-209497428D01*
X549186686Y-209469305D01*
X549319865Y-209414141D01*
X549436735Y-209336051D01*
X549515591Y-209388741D01*
X549648770Y-209443905D01*
X549790152Y-209472028D01*
X549934304Y-209472028D01*
X550075686Y-209443905D01*
X550208865Y-209388741D01*
X550328723Y-209308654D01*
X550423196Y-209214181D01*
X550530145Y-209258480D01*
X550671527Y-209286603D01*
X550815679Y-209286603D01*
X550957061Y-209258480D01*
X551090240Y-209203316D01*
X551210098Y-209123229D01*
X551277868Y-209055459D01*
X551315963Y-209080913D01*
X551449142Y-209136077D01*
X551590524Y-209164200D01*
X551734676Y-209164200D01*
X551876058Y-209136077D01*
X552009237Y-209080913D01*
X552103612Y-209017853D01*
X552221026Y-209096307D01*
X552354205Y-209151471D01*
X552495587Y-209179594D01*
X552639739Y-209179594D01*
X552645465Y-209178455D01*
X552645464Y-211450630D01*
X551390070Y-212706024D01*
X551256851Y-212732523D01*
X551123672Y-212787687D01*
X551003814Y-212867774D01*
X550901883Y-212969705D01*
X550821796Y-213089563D01*
X550766632Y-213222742D01*
X550738509Y-213364124D01*
X550738509Y-213406984D01*
X550649447Y-213443874D01*
X550536509Y-213519337D01*
X550013259Y-213519337D01*
X549367890Y-212873969D01*
X549401755Y-212851341D01*
X549503686Y-212749410D01*
X549583773Y-212629552D01*
X549638937Y-212496373D01*
X549667060Y-212354991D01*
X549667060Y-212210839D01*
X549638937Y-212069457D01*
X549583773Y-211936278D01*
X549503686Y-211816420D01*
X549401755Y-211714489D01*
X549281897Y-211634402D01*
X549148718Y-211579238D01*
X549015499Y-211552739D01*
X546410108Y-208947348D01*
X546392164Y-208925483D01*
X546304906Y-208853873D01*
X546205354Y-208800661D01*
X546097333Y-208767893D01*
X546013141Y-208759601D01*
X546013138Y-208759601D01*
X545984996Y-208756829D01*
X545956854Y-208759601D01*
X544047367Y-208759601D01*
X543278402Y-207990636D01*
X544861622Y-207990636D01*
X544889764Y-207993408D01*
X544917906Y-207990636D01*
X544917909Y-207990636D01*
X545002101Y-207982344D01*
X545110122Y-207949576D01*
X545209674Y-207896364D01*
X545274725Y-207842979D01*
X545408021Y-207816464D01*
X545541200Y-207761300D01*
X545661058Y-207681213D01*
X545762989Y-207579282D01*
X545843076Y-207459424D01*
X545898240Y-207326245D01*
X545926363Y-207184863D01*
X545926363Y-207040711D01*
X545898240Y-206899329D01*
X545843076Y-206766150D01*
X545762989Y-206646292D01*
X545661058Y-206544361D01*
X545541200Y-206464274D01*
X545408021Y-206409110D01*
X545266639Y-206380987D01*
X545122487Y-206380987D01*
X544981105Y-206409110D01*
X544847926Y-206464274D01*
X544728068Y-206544361D01*
X544626137Y-206646292D01*
X544546050Y-206766150D01*
X544513582Y-206844536D01*
X544313926Y-206844536D01*
X544317200Y-206828076D01*
X544317200Y-206683924D01*
X544289077Y-206542542D01*
X544233913Y-206409363D01*
X544153826Y-206289505D01*
X544051895Y-206187574D01*
X543932037Y-206107487D01*
X543798858Y-206052323D01*
X543657476Y-206024200D01*
X543513324Y-206024200D01*
X543371942Y-206052323D01*
X543238763Y-206107487D01*
X543125825Y-206182950D01*
X542862613Y-206182950D01*
X542754798Y-206075135D01*
X542823525Y-206029213D01*
X542925456Y-205927282D01*
X543005543Y-205807424D01*
X543060707Y-205674245D01*
X543088830Y-205532863D01*
X543088830Y-205465947D01*
X543156266Y-205438014D01*
X543276124Y-205357927D01*
X543378055Y-205255996D01*
X543458142Y-205136138D01*
X543513306Y-205002959D01*
X543539666Y-204870441D01*
X543581276Y-204870441D01*
X543722658Y-204842318D01*
X543855837Y-204787154D01*
X543975695Y-204707067D01*
X544077626Y-204605136D01*
X544081716Y-204599015D01*
X545916513Y-206433813D01*
G37*
%TD.AperFunction*%
D22*
X535540288Y-204474303D02*
X535558232Y-204496168D01*
X535609271Y-204538054D01*
X535645489Y-204567778D01*
X535728311Y-204612047D01*
X535745042Y-204620990D01*
X535853063Y-204653758D01*
X535937255Y-204662050D01*
X535937257Y-204662050D01*
X535965399Y-204664822D01*
X535993542Y-204662050D01*
X537633035Y-204662050D01*
X539204735Y-206233750D01*
X537745775Y-206233750D01*
X537632837Y-206158287D01*
X537499658Y-206103123D01*
X537358276Y-206075000D01*
X537214124Y-206075000D01*
X537072742Y-206103123D01*
X536939563Y-206158287D01*
X536819705Y-206238374D01*
X536717774Y-206340305D01*
X536637687Y-206460163D01*
X536582523Y-206593342D01*
X536554400Y-206734724D01*
X536554400Y-206878876D01*
X536578394Y-206999502D01*
X535547840Y-206999502D01*
X535519698Y-206996730D01*
X535491555Y-206999502D01*
X535491553Y-206999502D01*
X535407361Y-207007794D01*
X535299340Y-207040562D01*
X535199788Y-207093774D01*
X535112530Y-207165384D01*
X535094586Y-207187249D01*
X534059725Y-208222110D01*
X532560364Y-208222110D01*
X532626663Y-208122886D01*
X532722926Y-207890487D01*
X532772000Y-207643774D01*
X532772000Y-207392226D01*
X532722926Y-207145513D01*
X532626663Y-206913114D01*
X532486911Y-206703960D01*
X532418261Y-206635310D01*
X533632903Y-205420668D01*
X533654768Y-205402724D01*
X533726378Y-205315466D01*
X533779590Y-205215914D01*
X533812358Y-205107893D01*
X533820650Y-205023701D01*
X533820650Y-205023699D01*
X533823422Y-204995556D01*
X533820650Y-204967414D01*
X533820650Y-203608775D01*
X533896113Y-203495837D01*
X533951277Y-203362658D01*
X533979400Y-203221276D01*
X533979400Y-203077124D01*
X533951277Y-202935742D01*
X533915604Y-202849619D01*
X535540288Y-204474303D01*
%TA.AperFunction,Conductor*%
D23*
G36*
X535540288Y-204474303D02*
G01*
X535558232Y-204496168D01*
X535609271Y-204538054D01*
X535645489Y-204567778D01*
X535728311Y-204612047D01*
X535745042Y-204620990D01*
X535853063Y-204653758D01*
X535937255Y-204662050D01*
X535937257Y-204662050D01*
X535965399Y-204664822D01*
X535993542Y-204662050D01*
X537633035Y-204662050D01*
X539204735Y-206233750D01*
X537745775Y-206233750D01*
X537632837Y-206158287D01*
X537499658Y-206103123D01*
X537358276Y-206075000D01*
X537214124Y-206075000D01*
X537072742Y-206103123D01*
X536939563Y-206158287D01*
X536819705Y-206238374D01*
X536717774Y-206340305D01*
X536637687Y-206460163D01*
X536582523Y-206593342D01*
X536554400Y-206734724D01*
X536554400Y-206878876D01*
X536578394Y-206999502D01*
X535547840Y-206999502D01*
X535519698Y-206996730D01*
X535491555Y-206999502D01*
X535491553Y-206999502D01*
X535407361Y-207007794D01*
X535299340Y-207040562D01*
X535199788Y-207093774D01*
X535112530Y-207165384D01*
X535094586Y-207187249D01*
X534059725Y-208222110D01*
X532560364Y-208222110D01*
X532626663Y-208122886D01*
X532722926Y-207890487D01*
X532772000Y-207643774D01*
X532772000Y-207392226D01*
X532722926Y-207145513D01*
X532626663Y-206913114D01*
X532486911Y-206703960D01*
X532418261Y-206635310D01*
X533632903Y-205420668D01*
X533654768Y-205402724D01*
X533726378Y-205315466D01*
X533779590Y-205215914D01*
X533812358Y-205107893D01*
X533820650Y-205023701D01*
X533820650Y-205023699D01*
X533823422Y-204995556D01*
X533820650Y-204967414D01*
X533820650Y-203608775D01*
X533896113Y-203495837D01*
X533951277Y-203362658D01*
X533979400Y-203221276D01*
X533979400Y-203077124D01*
X533951277Y-202935742D01*
X533915604Y-202849619D01*
X535540288Y-204474303D01*
G37*
%TD.AperFunction*%
D22*
X545524179Y-179222401D02*
X545526952Y-179250553D01*
X545526951Y-184871525D01*
X545517071Y-184864923D01*
X545366567Y-184802582D01*
X545206792Y-184770800D01*
X545043888Y-184770800D01*
X544884113Y-184802582D01*
X544733609Y-184864923D01*
X544598159Y-184955428D01*
X544482968Y-185070619D01*
X544392463Y-185206069D01*
X544330122Y-185356573D01*
X544298340Y-185516348D01*
X544298340Y-185679252D01*
X544323341Y-185804937D01*
X544323340Y-192847600D01*
X544021132Y-192847600D01*
X543895452Y-192822600D01*
X543732548Y-192822600D01*
X543572773Y-192854382D01*
X543422269Y-192916723D01*
X543286819Y-193007228D01*
X543171628Y-193122419D01*
X543081123Y-193257869D01*
X543018782Y-193408373D01*
X542987000Y-193568148D01*
X542987000Y-193731052D01*
X543018782Y-193890827D01*
X543081123Y-194041331D01*
X543171628Y-194176781D01*
X543286819Y-194291972D01*
X543422269Y-194382477D01*
X543572773Y-194444818D01*
X543732548Y-194476600D01*
X543895452Y-194476600D01*
X544021132Y-194451600D01*
X544323340Y-194451600D01*
X544323340Y-195023161D01*
X544319461Y-195062548D01*
X544323340Y-195101934D01*
X544323340Y-195101941D01*
X544334945Y-195219766D01*
X544380804Y-195370944D01*
X544455275Y-195510270D01*
X544555497Y-195632391D01*
X544586102Y-195657508D01*
X545691241Y-196762648D01*
X545762433Y-196869194D01*
X545877624Y-196984385D01*
X546013074Y-197074890D01*
X546163578Y-197137231D01*
X546323353Y-197169013D01*
X546486257Y-197169013D01*
X546646032Y-197137231D01*
X546796536Y-197074890D01*
X546909118Y-196999665D01*
X546949299Y-197074838D01*
X547002968Y-197140235D01*
X547002971Y-197140238D01*
X547020910Y-197162097D01*
X547042769Y-197180036D01*
X552934985Y-203072252D01*
X551803210Y-204204027D01*
X551803210Y-203634653D01*
X551805982Y-203606508D01*
X551794918Y-203494171D01*
X551782637Y-203453686D01*
X551762150Y-203386150D01*
X551708938Y-203286598D01*
X551637328Y-203199340D01*
X551615464Y-203181397D01*
X542977573Y-194543506D01*
X542977573Y-180256775D01*
X542980345Y-180228632D01*
X542977493Y-180199676D01*
X542969281Y-180116296D01*
X542936513Y-180008275D01*
X542927992Y-179992333D01*
X542883301Y-179908722D01*
X542847164Y-179864690D01*
X542811691Y-179821465D01*
X542789827Y-179803522D01*
X542176903Y-179190598D01*
X545527312Y-179190598D01*
X545524179Y-179222401D01*
%TA.AperFunction,Conductor*%
D23*
G36*
X545524179Y-179222401D02*
G01*
X545526952Y-179250553D01*
X545526951Y-184871525D01*
X545517071Y-184864923D01*
X545366567Y-184802582D01*
X545206792Y-184770800D01*
X545043888Y-184770800D01*
X544884113Y-184802582D01*
X544733609Y-184864923D01*
X544598159Y-184955428D01*
X544482968Y-185070619D01*
X544392463Y-185206069D01*
X544330122Y-185356573D01*
X544298340Y-185516348D01*
X544298340Y-185679252D01*
X544323341Y-185804937D01*
X544323340Y-192847600D01*
X544021132Y-192847600D01*
X543895452Y-192822600D01*
X543732548Y-192822600D01*
X543572773Y-192854382D01*
X543422269Y-192916723D01*
X543286819Y-193007228D01*
X543171628Y-193122419D01*
X543081123Y-193257869D01*
X543018782Y-193408373D01*
X542987000Y-193568148D01*
X542987000Y-193731052D01*
X543018782Y-193890827D01*
X543081123Y-194041331D01*
X543171628Y-194176781D01*
X543286819Y-194291972D01*
X543422269Y-194382477D01*
X543572773Y-194444818D01*
X543732548Y-194476600D01*
X543895452Y-194476600D01*
X544021132Y-194451600D01*
X544323340Y-194451600D01*
X544323340Y-195023161D01*
X544319461Y-195062548D01*
X544323340Y-195101934D01*
X544323340Y-195101941D01*
X544334945Y-195219766D01*
X544380804Y-195370944D01*
X544455275Y-195510270D01*
X544555497Y-195632391D01*
X544586102Y-195657508D01*
X545691241Y-196762648D01*
X545762433Y-196869194D01*
X545877624Y-196984385D01*
X546013074Y-197074890D01*
X546163578Y-197137231D01*
X546323353Y-197169013D01*
X546486257Y-197169013D01*
X546646032Y-197137231D01*
X546796536Y-197074890D01*
X546909118Y-196999665D01*
X546949299Y-197074838D01*
X547002968Y-197140235D01*
X547002971Y-197140238D01*
X547020910Y-197162097D01*
X547042769Y-197180036D01*
X552934985Y-203072252D01*
X551803210Y-204204027D01*
X551803210Y-203634653D01*
X551805982Y-203606508D01*
X551794918Y-203494171D01*
X551782637Y-203453686D01*
X551762150Y-203386150D01*
X551708938Y-203286598D01*
X551637328Y-203199340D01*
X551615464Y-203181397D01*
X542977573Y-194543506D01*
X542977573Y-180256775D01*
X542980345Y-180228632D01*
X542977493Y-180199676D01*
X542969281Y-180116296D01*
X542936513Y-180008275D01*
X542927992Y-179992333D01*
X542883301Y-179908722D01*
X542847164Y-179864690D01*
X542811691Y-179821465D01*
X542789827Y-179803522D01*
X542176903Y-179190598D01*
X545527312Y-179190598D01*
X545524179Y-179222401D01*
G37*
%TD.AperFunction*%
D22*
X553883551Y-198611366D02*
X553883550Y-202399987D01*
X548001127Y-196517564D01*
X548001127Y-192728942D01*
X553883551Y-198611366D01*
%TA.AperFunction,Conductor*%
D23*
G36*
X553883551Y-198611366D02*
G01*
X553883550Y-202399987D01*
X548001127Y-196517564D01*
X548001127Y-192728942D01*
X553883551Y-198611366D01*
G37*
%TD.AperFunction*%
D22*
X545938305Y-190103226D02*
X546058163Y-190183313D01*
X546191342Y-190238477D01*
X546332724Y-190266600D01*
X546476876Y-190266600D01*
X546618258Y-190238477D01*
X546751437Y-190183313D01*
X546855027Y-190114096D01*
X546855028Y-195648219D01*
X546825440Y-195628449D01*
X545927340Y-194730350D01*
X545927340Y-193647646D01*
X545931219Y-193608260D01*
X545927340Y-193568874D01*
X545927340Y-190092261D01*
X545938305Y-190103226D01*
%TA.AperFunction,Conductor*%
D23*
G36*
X545938305Y-190103226D02*
G01*
X546058163Y-190183313D01*
X546191342Y-190238477D01*
X546332724Y-190266600D01*
X546476876Y-190266600D01*
X546618258Y-190238477D01*
X546751437Y-190183313D01*
X546855027Y-190114096D01*
X546855028Y-195648219D01*
X546825440Y-195628449D01*
X545927340Y-194730350D01*
X545927340Y-193647646D01*
X545931219Y-193608260D01*
X545927340Y-193568874D01*
X545927340Y-190092261D01*
X545938305Y-190103226D01*
G37*
%TD.AperFunction*%
D22*
X544156938Y-176640763D02*
X544258869Y-176742694D01*
X544378727Y-176822781D01*
X544511906Y-176877945D01*
X544653288Y-176906068D01*
X544797440Y-176906068D01*
X544938822Y-176877945D01*
X545017209Y-176845476D01*
X545508331Y-177336598D01*
X542350174Y-177336598D01*
X542304976Y-177291400D01*
X542346289Y-177263795D01*
X543260288Y-177263795D01*
X543288430Y-177266567D01*
X543316572Y-177263795D01*
X543316575Y-177263795D01*
X543400767Y-177255503D01*
X543508788Y-177222735D01*
X543608340Y-177169523D01*
X543695598Y-177097913D01*
X543713542Y-177076048D01*
X544153689Y-176635901D01*
X544156938Y-176640763D01*
%TA.AperFunction,Conductor*%
D23*
G36*
X544156938Y-176640763D02*
G01*
X544258869Y-176742694D01*
X544378727Y-176822781D01*
X544511906Y-176877945D01*
X544653288Y-176906068D01*
X544797440Y-176906068D01*
X544938822Y-176877945D01*
X545017209Y-176845476D01*
X545508331Y-177336598D01*
X542350174Y-177336598D01*
X542304976Y-177291400D01*
X542346289Y-177263795D01*
X543260288Y-177263795D01*
X543288430Y-177266567D01*
X543316572Y-177263795D01*
X543316575Y-177263795D01*
X543400767Y-177255503D01*
X543508788Y-177222735D01*
X543608340Y-177169523D01*
X543695598Y-177097913D01*
X543713542Y-177076048D01*
X544153689Y-176635901D01*
X544156938Y-176640763D01*
G37*
%TD.AperFunction*%
D22*
X549247110Y-174736105D02*
X549219234Y-174788257D01*
X549208511Y-174823607D01*
X549187600Y-174892544D01*
X549186467Y-174896278D01*
X549175402Y-175008614D01*
X549178175Y-175036766D01*
X549178174Y-175913651D01*
X547771589Y-174507066D01*
X548855000Y-174507066D01*
X548938707Y-174498822D01*
X549019196Y-174474405D01*
X549093376Y-174434755D01*
X549158395Y-174381395D01*
X549211755Y-174316376D01*
X549247110Y-174250231D01*
X549247110Y-174736105D01*
%TA.AperFunction,Conductor*%
D23*
G36*
X549247110Y-174736105D02*
G01*
X549219234Y-174788257D01*
X549208511Y-174823607D01*
X549187600Y-174892544D01*
X549186467Y-174896278D01*
X549175402Y-175008614D01*
X549178175Y-175036766D01*
X549178174Y-175913651D01*
X547771589Y-174507066D01*
X548855000Y-174507066D01*
X548938707Y-174498822D01*
X549019196Y-174474405D01*
X549093376Y-174434755D01*
X549158395Y-174381395D01*
X549211755Y-174316376D01*
X549247110Y-174250231D01*
X549247110Y-174736105D01*
G37*
%TD.AperFunction*%
D22*
X551998000Y-158001934D02*
X548608000Y-158001934D01*
X548524293Y-158010178D01*
X548443804Y-158034595D01*
X548369624Y-158074245D01*
X548304605Y-158127605D01*
X548251245Y-158192624D01*
X548211595Y-158266804D01*
X548187178Y-158347293D01*
X548178934Y-158431000D01*
X548178934Y-158573713D01*
X548095542Y-158599010D01*
X548014066Y-158642560D01*
X548014066Y-158408000D01*
X548005822Y-158324293D01*
X547981405Y-158243804D01*
X547941755Y-158169624D01*
X547888395Y-158104605D01*
X547823376Y-158051245D01*
X547749196Y-158011595D01*
X547668707Y-157987178D01*
X547585000Y-157978934D01*
X545885000Y-157978934D01*
X545801293Y-157987178D01*
X545720804Y-158011595D01*
X545646624Y-158051245D01*
X545581605Y-158104605D01*
X545528245Y-158169624D01*
X545488595Y-158243804D01*
X545464178Y-158324293D01*
X545455934Y-158408000D01*
X545455934Y-159051456D01*
X545422926Y-158885513D01*
X545326663Y-158653114D01*
X545186911Y-158443960D01*
X545009040Y-158266089D01*
X544799886Y-158126337D01*
X544567487Y-158030074D01*
X544320774Y-157981000D01*
X544069226Y-157981000D01*
X543822513Y-158030074D01*
X543590114Y-158126337D01*
X543380960Y-158266089D01*
X543203089Y-158443960D01*
X543063337Y-158653114D01*
X542967074Y-158885513D01*
X542925000Y-159097034D01*
X542882926Y-158885513D01*
X542786663Y-158653114D01*
X542646911Y-158443960D01*
X542469040Y-158266089D01*
X542259886Y-158126337D01*
X542027487Y-158030074D01*
X541780774Y-157981000D01*
X541529226Y-157981000D01*
X541282513Y-158030074D01*
X541050114Y-158126337D01*
X540840960Y-158266089D01*
X540663089Y-158443960D01*
X540523337Y-158653114D01*
X540427074Y-158885513D01*
X540385000Y-159097034D01*
X540342926Y-158885513D01*
X540246663Y-158653114D01*
X540106911Y-158443960D01*
X539929040Y-158266089D01*
X539719886Y-158126337D01*
X539487487Y-158030074D01*
X539240774Y-157981000D01*
X538989226Y-157981000D01*
X538742513Y-158030074D01*
X538510114Y-158126337D01*
X538300960Y-158266089D01*
X538123089Y-158443960D01*
X537983337Y-158653114D01*
X537891307Y-158875294D01*
X537839809Y-158713578D01*
X537709295Y-158477287D01*
X537535190Y-158270998D01*
X537324186Y-158102639D01*
X537084391Y-157978680D01*
X536862209Y-157911285D01*
X536648000Y-158014892D01*
X536648000Y-159185000D01*
X536668000Y-159185000D01*
X536668000Y-159331000D01*
X536648000Y-159331000D01*
X536648000Y-160501108D01*
X536703600Y-160528000D01*
X536648000Y-160554892D01*
X536648000Y-161725000D01*
X536668000Y-161725000D01*
X536668000Y-161871000D01*
X536648000Y-161871000D01*
X536648000Y-163041108D01*
X536862209Y-163144715D01*
X537084391Y-163077320D01*
X537324186Y-162953361D01*
X537535190Y-162785002D01*
X537709295Y-162578713D01*
X537839809Y-162342422D01*
X537891307Y-162180706D01*
X537983337Y-162402886D01*
X538123089Y-162612040D01*
X538300960Y-162789911D01*
X538510114Y-162929663D01*
X538541950Y-162942850D01*
X538541951Y-169097004D01*
X538539178Y-169125156D01*
X538550243Y-169237492D01*
X538583010Y-169345513D01*
X538636222Y-169445065D01*
X538689891Y-169510462D01*
X538689894Y-169510465D01*
X538707833Y-169532324D01*
X538729692Y-169550263D01*
X541155899Y-171976470D01*
X541155899Y-172089964D01*
X541134186Y-172072639D01*
X540894391Y-171948680D01*
X540672209Y-171881285D01*
X540458000Y-171984892D01*
X540458000Y-173155000D01*
X540478000Y-173155000D01*
X540478000Y-173301000D01*
X540458000Y-173301000D01*
X540458000Y-174471108D01*
X540672209Y-174574715D01*
X540894391Y-174507320D01*
X541134186Y-174383361D01*
X541218247Y-174316289D01*
X541250171Y-174376014D01*
X541303840Y-174441411D01*
X541303843Y-174441414D01*
X541321782Y-174463273D01*
X541343641Y-174481212D01*
X542052783Y-175190354D01*
X542070727Y-175212219D01*
X542157985Y-175283829D01*
X542181784Y-175296550D01*
X541708175Y-175296550D01*
X541595237Y-175221087D01*
X541462058Y-175165923D01*
X541320676Y-175137800D01*
X541176524Y-175137800D01*
X541035142Y-175165923D01*
X540901963Y-175221087D01*
X540782105Y-175301174D01*
X540680174Y-175403105D01*
X540600087Y-175522963D01*
X540581474Y-175567899D01*
X538528784Y-173515209D01*
X539038282Y-173515209D01*
X539120191Y-173772422D01*
X539250705Y-174008713D01*
X539424810Y-174215002D01*
X539635814Y-174383361D01*
X539875609Y-174507320D01*
X540097791Y-174574715D01*
X540312000Y-174471108D01*
X540312000Y-173301000D01*
X539141683Y-173301000D01*
X539038282Y-173515209D01*
X538528784Y-173515209D01*
X537954366Y-172940791D01*
X539038282Y-172940791D01*
X539141683Y-173155000D01*
X540312000Y-173155000D01*
X540312000Y-171984892D01*
X540097791Y-171881285D01*
X539875609Y-171948680D01*
X539635814Y-172072639D01*
X539424810Y-172240998D01*
X539250705Y-172447287D01*
X539120191Y-172683578D01*
X539038282Y-172940791D01*
X537954366Y-172940791D01*
X536587600Y-171574025D01*
X536587600Y-164383527D01*
X536592084Y-164338000D01*
X536587600Y-164292473D01*
X536587600Y-164292462D01*
X536574187Y-164156276D01*
X536521180Y-163981536D01*
X536517164Y-163974022D01*
X536435102Y-163820495D01*
X536348288Y-163714712D01*
X536348284Y-163714708D01*
X536319259Y-163679341D01*
X536283892Y-163650316D01*
X535114512Y-162480936D01*
X535166663Y-162402886D01*
X535258693Y-162180706D01*
X535310191Y-162342422D01*
X535440705Y-162578713D01*
X535614810Y-162785002D01*
X535825814Y-162953361D01*
X536065609Y-163077320D01*
X536287791Y-163144715D01*
X536502000Y-163041108D01*
X536502000Y-161871000D01*
X536482000Y-161871000D01*
X536482000Y-161725000D01*
X536502000Y-161725000D01*
X536502000Y-160554892D01*
X536446400Y-160528000D01*
X536502000Y-160501108D01*
X536502000Y-159331000D01*
X536482000Y-159331000D01*
X536482000Y-159185000D01*
X536502000Y-159185000D01*
X536502000Y-158014892D01*
X536287791Y-157911285D01*
X536065609Y-157978680D01*
X535825814Y-158102639D01*
X535614810Y-158270998D01*
X535440705Y-158477287D01*
X535310191Y-158713578D01*
X535258693Y-158875294D01*
X535166663Y-158653114D01*
X535026911Y-158443960D01*
X534849040Y-158266089D01*
X534639886Y-158126337D01*
X534407487Y-158030074D01*
X534160774Y-157981000D01*
X533909226Y-157981000D01*
X533662513Y-158030074D01*
X533430114Y-158126337D01*
X533220960Y-158266089D01*
X533043089Y-158443960D01*
X532903337Y-158653114D01*
X532807074Y-158885513D01*
X532774066Y-159051456D01*
X532774066Y-158408000D01*
X532765822Y-158324293D01*
X532741405Y-158243804D01*
X532701755Y-158169624D01*
X532648395Y-158104605D01*
X532583376Y-158051245D01*
X532509196Y-158011595D01*
X532428707Y-157987178D01*
X532345000Y-157978934D01*
X530645000Y-157978934D01*
X530561293Y-157987178D01*
X530480804Y-158011595D01*
X530406624Y-158051245D01*
X530341605Y-158104605D01*
X530288245Y-158169624D01*
X530248595Y-158243804D01*
X530224178Y-158324293D01*
X530215934Y-158408000D01*
X530215934Y-159051456D01*
X530182926Y-158885513D01*
X530086663Y-158653114D01*
X529946911Y-158443960D01*
X529769040Y-158266089D01*
X529559886Y-158126337D01*
X529327487Y-158030074D01*
X529080774Y-157981000D01*
X528829226Y-157981000D01*
X528582513Y-158030074D01*
X528350114Y-158126337D01*
X528140960Y-158266089D01*
X527963089Y-158443960D01*
X527823337Y-158653114D01*
X527727074Y-158885513D01*
X527678000Y-159132226D01*
X527678000Y-159383774D01*
X527727074Y-159630487D01*
X527823337Y-159862886D01*
X527963089Y-160072040D01*
X528140960Y-160249911D01*
X528350114Y-160389663D01*
X528582513Y-160485926D01*
X528794034Y-160528000D01*
X528582513Y-160570074D01*
X528350114Y-160666337D01*
X528140960Y-160806089D01*
X527963089Y-160983960D01*
X527823337Y-161193114D01*
X527727074Y-161425513D01*
X527678000Y-161672226D01*
X527678000Y-161923774D01*
X527727074Y-162170487D01*
X527823337Y-162402886D01*
X527963089Y-162612040D01*
X528140960Y-162789911D01*
X528350114Y-162929663D01*
X528582513Y-163025926D01*
X528794034Y-163068000D01*
X528582513Y-163110074D01*
X528350114Y-163206337D01*
X528140960Y-163346089D01*
X527963089Y-163523960D01*
X527823337Y-163733114D01*
X527727074Y-163965513D01*
X527678000Y-164212226D01*
X527678000Y-164463774D01*
X527727074Y-164710487D01*
X527740261Y-164742324D01*
X526881535Y-165601050D01*
X526867000Y-165612978D01*
X526867000Y-164233205D01*
X526869187Y-164211000D01*
X526862549Y-164143601D01*
X526928275Y-164045234D01*
X526982739Y-163913747D01*
X527010504Y-163774160D01*
X527010504Y-163631840D01*
X526982739Y-163492253D01*
X526928275Y-163360766D01*
X526902373Y-163322000D01*
X526928275Y-163283234D01*
X526982739Y-163151747D01*
X527010504Y-163012160D01*
X527010504Y-162869840D01*
X526982739Y-162730253D01*
X526928275Y-162598766D01*
X526902373Y-162560000D01*
X526928275Y-162521234D01*
X526982739Y-162389747D01*
X527010504Y-162250160D01*
X527010504Y-162107840D01*
X526982739Y-161968253D01*
X526928275Y-161836766D01*
X526902373Y-161798000D01*
X526928275Y-161759234D01*
X526982739Y-161627747D01*
X527010504Y-161488160D01*
X527010504Y-161345840D01*
X526982739Y-161206253D01*
X526928275Y-161074766D01*
X526902373Y-161036000D01*
X526928275Y-160997234D01*
X526982739Y-160865747D01*
X527010504Y-160726160D01*
X527010504Y-160583840D01*
X526982739Y-160444253D01*
X526928275Y-160312766D01*
X526902373Y-160274000D01*
X526928275Y-160235234D01*
X526982739Y-160103747D01*
X527010504Y-159964160D01*
X527010504Y-159821840D01*
X526982739Y-159682253D01*
X526928275Y-159550766D01*
X526902373Y-159512000D01*
X526928275Y-159473234D01*
X526982739Y-159341747D01*
X527010504Y-159202160D01*
X527010504Y-159059840D01*
X526982739Y-158920253D01*
X526928275Y-158788766D01*
X526862549Y-158690399D01*
X526869187Y-158623000D01*
X526867000Y-158600795D01*
X526867000Y-157805000D01*
X551998000Y-157805000D01*
X551998000Y-158001934D01*
%TA.AperFunction,Conductor*%
D23*
G36*
X551998000Y-158001934D02*
G01*
X548608000Y-158001934D01*
X548524293Y-158010178D01*
X548443804Y-158034595D01*
X548369624Y-158074245D01*
X548304605Y-158127605D01*
X548251245Y-158192624D01*
X548211595Y-158266804D01*
X548187178Y-158347293D01*
X548178934Y-158431000D01*
X548178934Y-158573713D01*
X548095542Y-158599010D01*
X548014066Y-158642560D01*
X548014066Y-158408000D01*
X548005822Y-158324293D01*
X547981405Y-158243804D01*
X547941755Y-158169624D01*
X547888395Y-158104605D01*
X547823376Y-158051245D01*
X547749196Y-158011595D01*
X547668707Y-157987178D01*
X547585000Y-157978934D01*
X545885000Y-157978934D01*
X545801293Y-157987178D01*
X545720804Y-158011595D01*
X545646624Y-158051245D01*
X545581605Y-158104605D01*
X545528245Y-158169624D01*
X545488595Y-158243804D01*
X545464178Y-158324293D01*
X545455934Y-158408000D01*
X545455934Y-159051456D01*
X545422926Y-158885513D01*
X545326663Y-158653114D01*
X545186911Y-158443960D01*
X545009040Y-158266089D01*
X544799886Y-158126337D01*
X544567487Y-158030074D01*
X544320774Y-157981000D01*
X544069226Y-157981000D01*
X543822513Y-158030074D01*
X543590114Y-158126337D01*
X543380960Y-158266089D01*
X543203089Y-158443960D01*
X543063337Y-158653114D01*
X542967074Y-158885513D01*
X542925000Y-159097034D01*
X542882926Y-158885513D01*
X542786663Y-158653114D01*
X542646911Y-158443960D01*
X542469040Y-158266089D01*
X542259886Y-158126337D01*
X542027487Y-158030074D01*
X541780774Y-157981000D01*
X541529226Y-157981000D01*
X541282513Y-158030074D01*
X541050114Y-158126337D01*
X540840960Y-158266089D01*
X540663089Y-158443960D01*
X540523337Y-158653114D01*
X540427074Y-158885513D01*
X540385000Y-159097034D01*
X540342926Y-158885513D01*
X540246663Y-158653114D01*
X540106911Y-158443960D01*
X539929040Y-158266089D01*
X539719886Y-158126337D01*
X539487487Y-158030074D01*
X539240774Y-157981000D01*
X538989226Y-157981000D01*
X538742513Y-158030074D01*
X538510114Y-158126337D01*
X538300960Y-158266089D01*
X538123089Y-158443960D01*
X537983337Y-158653114D01*
X537891307Y-158875294D01*
X537839809Y-158713578D01*
X537709295Y-158477287D01*
X537535190Y-158270998D01*
X537324186Y-158102639D01*
X537084391Y-157978680D01*
X536862209Y-157911285D01*
X536648000Y-158014892D01*
X536648000Y-159185000D01*
X536668000Y-159185000D01*
X536668000Y-159331000D01*
X536648000Y-159331000D01*
X536648000Y-160501108D01*
X536703600Y-160528000D01*
X536648000Y-160554892D01*
X536648000Y-161725000D01*
X536668000Y-161725000D01*
X536668000Y-161871000D01*
X536648000Y-161871000D01*
X536648000Y-163041108D01*
X536862209Y-163144715D01*
X537084391Y-163077320D01*
X537324186Y-162953361D01*
X537535190Y-162785002D01*
X537709295Y-162578713D01*
X537839809Y-162342422D01*
X537891307Y-162180706D01*
X537983337Y-162402886D01*
X538123089Y-162612040D01*
X538300960Y-162789911D01*
X538510114Y-162929663D01*
X538541950Y-162942850D01*
X538541951Y-169097004D01*
X538539178Y-169125156D01*
X538550243Y-169237492D01*
X538583010Y-169345513D01*
X538636222Y-169445065D01*
X538689891Y-169510462D01*
X538689894Y-169510465D01*
X538707833Y-169532324D01*
X538729692Y-169550263D01*
X541155899Y-171976470D01*
X541155899Y-172089964D01*
X541134186Y-172072639D01*
X540894391Y-171948680D01*
X540672209Y-171881285D01*
X540458000Y-171984892D01*
X540458000Y-173155000D01*
X540478000Y-173155000D01*
X540478000Y-173301000D01*
X540458000Y-173301000D01*
X540458000Y-174471108D01*
X540672209Y-174574715D01*
X540894391Y-174507320D01*
X541134186Y-174383361D01*
X541218247Y-174316289D01*
X541250171Y-174376014D01*
X541303840Y-174441411D01*
X541303843Y-174441414D01*
X541321782Y-174463273D01*
X541343641Y-174481212D01*
X542052783Y-175190354D01*
X542070727Y-175212219D01*
X542157985Y-175283829D01*
X542181784Y-175296550D01*
X541708175Y-175296550D01*
X541595237Y-175221087D01*
X541462058Y-175165923D01*
X541320676Y-175137800D01*
X541176524Y-175137800D01*
X541035142Y-175165923D01*
X540901963Y-175221087D01*
X540782105Y-175301174D01*
X540680174Y-175403105D01*
X540600087Y-175522963D01*
X540581474Y-175567899D01*
X538528784Y-173515209D01*
X539038282Y-173515209D01*
X539120191Y-173772422D01*
X539250705Y-174008713D01*
X539424810Y-174215002D01*
X539635814Y-174383361D01*
X539875609Y-174507320D01*
X540097791Y-174574715D01*
X540312000Y-174471108D01*
X540312000Y-173301000D01*
X539141683Y-173301000D01*
X539038282Y-173515209D01*
X538528784Y-173515209D01*
X537954366Y-172940791D01*
X539038282Y-172940791D01*
X539141683Y-173155000D01*
X540312000Y-173155000D01*
X540312000Y-171984892D01*
X540097791Y-171881285D01*
X539875609Y-171948680D01*
X539635814Y-172072639D01*
X539424810Y-172240998D01*
X539250705Y-172447287D01*
X539120191Y-172683578D01*
X539038282Y-172940791D01*
X537954366Y-172940791D01*
X536587600Y-171574025D01*
X536587600Y-164383527D01*
X536592084Y-164338000D01*
X536587600Y-164292473D01*
X536587600Y-164292462D01*
X536574187Y-164156276D01*
X536521180Y-163981536D01*
X536517164Y-163974022D01*
X536435102Y-163820495D01*
X536348288Y-163714712D01*
X536348284Y-163714708D01*
X536319259Y-163679341D01*
X536283892Y-163650316D01*
X535114512Y-162480936D01*
X535166663Y-162402886D01*
X535258693Y-162180706D01*
X535310191Y-162342422D01*
X535440705Y-162578713D01*
X535614810Y-162785002D01*
X535825814Y-162953361D01*
X536065609Y-163077320D01*
X536287791Y-163144715D01*
X536502000Y-163041108D01*
X536502000Y-161871000D01*
X536482000Y-161871000D01*
X536482000Y-161725000D01*
X536502000Y-161725000D01*
X536502000Y-160554892D01*
X536446400Y-160528000D01*
X536502000Y-160501108D01*
X536502000Y-159331000D01*
X536482000Y-159331000D01*
X536482000Y-159185000D01*
X536502000Y-159185000D01*
X536502000Y-158014892D01*
X536287791Y-157911285D01*
X536065609Y-157978680D01*
X535825814Y-158102639D01*
X535614810Y-158270998D01*
X535440705Y-158477287D01*
X535310191Y-158713578D01*
X535258693Y-158875294D01*
X535166663Y-158653114D01*
X535026911Y-158443960D01*
X534849040Y-158266089D01*
X534639886Y-158126337D01*
X534407487Y-158030074D01*
X534160774Y-157981000D01*
X533909226Y-157981000D01*
X533662513Y-158030074D01*
X533430114Y-158126337D01*
X533220960Y-158266089D01*
X533043089Y-158443960D01*
X532903337Y-158653114D01*
X532807074Y-158885513D01*
X532774066Y-159051456D01*
X532774066Y-158408000D01*
X532765822Y-158324293D01*
X532741405Y-158243804D01*
X532701755Y-158169624D01*
X532648395Y-158104605D01*
X532583376Y-158051245D01*
X532509196Y-158011595D01*
X532428707Y-157987178D01*
X532345000Y-157978934D01*
X530645000Y-157978934D01*
X530561293Y-157987178D01*
X530480804Y-158011595D01*
X530406624Y-158051245D01*
X530341605Y-158104605D01*
X530288245Y-158169624D01*
X530248595Y-158243804D01*
X530224178Y-158324293D01*
X530215934Y-158408000D01*
X530215934Y-159051456D01*
X530182926Y-158885513D01*
X530086663Y-158653114D01*
X529946911Y-158443960D01*
X529769040Y-158266089D01*
X529559886Y-158126337D01*
X529327487Y-158030074D01*
X529080774Y-157981000D01*
X528829226Y-157981000D01*
X528582513Y-158030074D01*
X528350114Y-158126337D01*
X528140960Y-158266089D01*
X527963089Y-158443960D01*
X527823337Y-158653114D01*
X527727074Y-158885513D01*
X527678000Y-159132226D01*
X527678000Y-159383774D01*
X527727074Y-159630487D01*
X527823337Y-159862886D01*
X527963089Y-160072040D01*
X528140960Y-160249911D01*
X528350114Y-160389663D01*
X528582513Y-160485926D01*
X528794034Y-160528000D01*
X528582513Y-160570074D01*
X528350114Y-160666337D01*
X528140960Y-160806089D01*
X527963089Y-160983960D01*
X527823337Y-161193114D01*
X527727074Y-161425513D01*
X527678000Y-161672226D01*
X527678000Y-161923774D01*
X527727074Y-162170487D01*
X527823337Y-162402886D01*
X527963089Y-162612040D01*
X528140960Y-162789911D01*
X528350114Y-162929663D01*
X528582513Y-163025926D01*
X528794034Y-163068000D01*
X528582513Y-163110074D01*
X528350114Y-163206337D01*
X528140960Y-163346089D01*
X527963089Y-163523960D01*
X527823337Y-163733114D01*
X527727074Y-163965513D01*
X527678000Y-164212226D01*
X527678000Y-164463774D01*
X527727074Y-164710487D01*
X527740261Y-164742324D01*
X526881535Y-165601050D01*
X526867000Y-165612978D01*
X526867000Y-164233205D01*
X526869187Y-164211000D01*
X526862549Y-164143601D01*
X526928275Y-164045234D01*
X526982739Y-163913747D01*
X527010504Y-163774160D01*
X527010504Y-163631840D01*
X526982739Y-163492253D01*
X526928275Y-163360766D01*
X526902373Y-163322000D01*
X526928275Y-163283234D01*
X526982739Y-163151747D01*
X527010504Y-163012160D01*
X527010504Y-162869840D01*
X526982739Y-162730253D01*
X526928275Y-162598766D01*
X526902373Y-162560000D01*
X526928275Y-162521234D01*
X526982739Y-162389747D01*
X527010504Y-162250160D01*
X527010504Y-162107840D01*
X526982739Y-161968253D01*
X526928275Y-161836766D01*
X526902373Y-161798000D01*
X526928275Y-161759234D01*
X526982739Y-161627747D01*
X527010504Y-161488160D01*
X527010504Y-161345840D01*
X526982739Y-161206253D01*
X526928275Y-161074766D01*
X526902373Y-161036000D01*
X526928275Y-160997234D01*
X526982739Y-160865747D01*
X527010504Y-160726160D01*
X527010504Y-160583840D01*
X526982739Y-160444253D01*
X526928275Y-160312766D01*
X526902373Y-160274000D01*
X526928275Y-160235234D01*
X526982739Y-160103747D01*
X527010504Y-159964160D01*
X527010504Y-159821840D01*
X526982739Y-159682253D01*
X526928275Y-159550766D01*
X526902373Y-159512000D01*
X526928275Y-159473234D01*
X526982739Y-159341747D01*
X527010504Y-159202160D01*
X527010504Y-159059840D01*
X526982739Y-158920253D01*
X526928275Y-158788766D01*
X526862549Y-158690399D01*
X526869187Y-158623000D01*
X526867000Y-158600795D01*
X526867000Y-157805000D01*
X551998000Y-157805000D01*
X551998000Y-158001934D01*
G37*
%TD.AperFunction*%
D22*
X539742628Y-168040181D02*
X539857819Y-168155372D01*
X539964368Y-168226566D01*
X542036940Y-170299139D01*
X542036940Y-171236681D01*
X539688050Y-168887791D01*
X539688050Y-167958499D01*
X539742628Y-168040181D01*
%TA.AperFunction,Conductor*%
D23*
G36*
X539742628Y-168040181D02*
G01*
X539857819Y-168155372D01*
X539964368Y-168226566D01*
X542036940Y-170299139D01*
X542036940Y-171236681D01*
X539688050Y-168887791D01*
X539688050Y-167958499D01*
X539742628Y-168040181D01*
G37*
%TD.AperFunction*%
D22*
X539738001Y-165829117D02*
X539735229Y-165857259D01*
X539738001Y-165885401D01*
X539738001Y-165885403D01*
X539746293Y-165969595D01*
X539779061Y-166077616D01*
X539832273Y-166177168D01*
X539903883Y-166264427D01*
X539925748Y-166282371D01*
X540329377Y-166686000D01*
X540303548Y-166686000D01*
X540143773Y-166717782D01*
X539993269Y-166780123D01*
X539857819Y-166870628D01*
X539742628Y-166985819D01*
X539688050Y-167067501D01*
X539688050Y-162942850D01*
X539719886Y-162929663D01*
X539738002Y-162917559D01*
X539738001Y-165829117D01*
%TA.AperFunction,Conductor*%
D23*
G36*
X539738001Y-165829117D02*
G01*
X539735229Y-165857259D01*
X539738001Y-165885401D01*
X539738001Y-165885403D01*
X539746293Y-165969595D01*
X539779061Y-166077616D01*
X539832273Y-166177168D01*
X539903883Y-166264427D01*
X539925748Y-166282371D01*
X540329377Y-166686000D01*
X540303548Y-166686000D01*
X540143773Y-166717782D01*
X539993269Y-166780123D01*
X539857819Y-166870628D01*
X539742628Y-166985819D01*
X539688050Y-167067501D01*
X539688050Y-162942850D01*
X539719886Y-162929663D01*
X539738002Y-162917559D01*
X539738001Y-165829117D01*
G37*
%TD.AperFunction*%
D22*
X542466959Y-162881644D02*
X542520171Y-162981196D01*
X542591781Y-163068455D01*
X542613646Y-163086399D01*
X542990399Y-163463152D01*
X542971256Y-163475943D01*
X542869325Y-163577874D01*
X542789238Y-163697732D01*
X542734074Y-163830911D01*
X542707559Y-163964208D01*
X542654174Y-164029259D01*
X542600962Y-164128811D01*
X542589438Y-164166802D01*
X542570759Y-164228381D01*
X542568195Y-164236832D01*
X542557130Y-164349168D01*
X542559903Y-164377320D01*
X542559902Y-166539177D01*
X542228050Y-166207325D01*
X542228050Y-162942850D01*
X542259886Y-162929663D01*
X542444172Y-162806527D01*
X542466959Y-162881644D01*
%TA.AperFunction,Conductor*%
D23*
G36*
X542466959Y-162881644D02*
G01*
X542520171Y-162981196D01*
X542591781Y-163068455D01*
X542613646Y-163086399D01*
X542990399Y-163463152D01*
X542971256Y-163475943D01*
X542869325Y-163577874D01*
X542789238Y-163697732D01*
X542734074Y-163830911D01*
X542707559Y-163964208D01*
X542654174Y-164029259D01*
X542600962Y-164128811D01*
X542589438Y-164166802D01*
X542570759Y-164228381D01*
X542568195Y-164236832D01*
X542557130Y-164349168D01*
X542559903Y-164377320D01*
X542559902Y-166539177D01*
X542228050Y-166207325D01*
X542228050Y-162942850D01*
X542259886Y-162929663D01*
X542444172Y-162806527D01*
X542466959Y-162881644D01*
G37*
%TD.AperFunction*%
%TD*%
M02*
