%TF.GenerationSoftware,KiCad,Pcbnew,(5.1.9)-1*%
%TF.CreationDate,2021-03-10T22:07:46+01:00*%
%TF.ProjectId,poly_kb,706f6c79-5f6b-4622-9e6b-696361645f70,rev?*%
%TF.SameCoordinates,Original*%
%TF.FileFunction,Legend,Top*%
%TF.FilePolarity,Positive*%
%FSLAX46Y46*%
G04 Gerber Fmt 4.6, Leading zero omitted, Abs format (unit mm)*
G04 Created by KiCad (PCBNEW (5.1.9)-1) date 2021-03-10 22:07:46*
%MOMM*%
%LPD*%
G01*
G04 APERTURE LIST*
%ADD10C,0.120000*%
%ADD11C,0.300000*%
%ADD12C,0.150000*%
G04 APERTURE END LIST*
D10*
X551180000Y-225933000D02*
X552831000Y-225933000D01*
X548259000Y-225933000D02*
X550291000Y-225933000D01*
X545973000Y-225933000D02*
X547243000Y-225933000D01*
X530479000Y-210693000D02*
X532511000Y-210693000D01*
X537845000Y-198374000D02*
X537845000Y-200914000D01*
X537845000Y-176403000D02*
X537845000Y-181483000D01*
X550545000Y-187198000D02*
X550545000Y-197993000D01*
X550545000Y-171323000D02*
X550545000Y-177038000D01*
X539115000Y-171323000D02*
X550545000Y-171323000D01*
X552831000Y-225933000D02*
X552831000Y-224663000D01*
X527431000Y-225933000D02*
X527939000Y-225933000D01*
X535813000Y-225933000D02*
X533146000Y-225933000D01*
X539623000Y-225933000D02*
X535813000Y-225933000D01*
X543687000Y-225933000D02*
X539623000Y-225933000D01*
X527431000Y-213233000D02*
X527431000Y-225933000D01*
X527431000Y-210693000D02*
X527431000Y-211709000D01*
X529590000Y-210693000D02*
X527431000Y-210693000D01*
X552831000Y-220218000D02*
X552831000Y-211582000D01*
X543687000Y-225933000D02*
X545084000Y-225933000D01*
D11*
X537222228Y-182263742D02*
X538722228Y-182263742D01*
X538722228Y-182835171D01*
X538650800Y-182978028D01*
X538579371Y-183049457D01*
X538436514Y-183120885D01*
X538222228Y-183120885D01*
X538079371Y-183049457D01*
X538007942Y-182978028D01*
X537936514Y-182835171D01*
X537936514Y-182263742D01*
X537222228Y-183978028D02*
X537293657Y-183835171D01*
X537365085Y-183763742D01*
X537507942Y-183692314D01*
X537936514Y-183692314D01*
X538079371Y-183763742D01*
X538150800Y-183835171D01*
X538222228Y-183978028D01*
X538222228Y-184192314D01*
X538150800Y-184335171D01*
X538079371Y-184406600D01*
X537936514Y-184478028D01*
X537507942Y-184478028D01*
X537365085Y-184406600D01*
X537293657Y-184335171D01*
X537222228Y-184192314D01*
X537222228Y-183978028D01*
X537222228Y-185335171D02*
X537293657Y-185192314D01*
X537436514Y-185120885D01*
X538722228Y-185120885D01*
X538222228Y-185763742D02*
X537222228Y-186120885D01*
X538222228Y-186478028D02*
X537222228Y-186120885D01*
X536865085Y-185978028D01*
X536793657Y-185906600D01*
X536722228Y-185763742D01*
X537222228Y-188192314D02*
X538722228Y-188192314D01*
X537222228Y-189049457D02*
X538079371Y-188406600D01*
X538722228Y-189049457D02*
X537865085Y-188192314D01*
X537293657Y-190263742D02*
X537222228Y-190120885D01*
X537222228Y-189835171D01*
X537293657Y-189692314D01*
X537436514Y-189620885D01*
X538007942Y-189620885D01*
X538150800Y-189692314D01*
X538222228Y-189835171D01*
X538222228Y-190120885D01*
X538150800Y-190263742D01*
X538007942Y-190335171D01*
X537865085Y-190335171D01*
X537722228Y-189620885D01*
X538222228Y-190835171D02*
X537222228Y-191192314D01*
X538222228Y-191549457D02*
X537222228Y-191192314D01*
X536865085Y-191049457D01*
X536793657Y-190978028D01*
X536722228Y-190835171D01*
X537222228Y-192120885D02*
X538722228Y-192120885D01*
X538150800Y-192120885D02*
X538222228Y-192263742D01*
X538222228Y-192549457D01*
X538150800Y-192692314D01*
X538079371Y-192763742D01*
X537936514Y-192835171D01*
X537507942Y-192835171D01*
X537365085Y-192763742D01*
X537293657Y-192692314D01*
X537222228Y-192549457D01*
X537222228Y-192263742D01*
X537293657Y-192120885D01*
X537222228Y-193692314D02*
X537293657Y-193549457D01*
X537365085Y-193478028D01*
X537507942Y-193406600D01*
X537936514Y-193406600D01*
X538079371Y-193478028D01*
X538150800Y-193549457D01*
X538222228Y-193692314D01*
X538222228Y-193906600D01*
X538150800Y-194049457D01*
X538079371Y-194120885D01*
X537936514Y-194192314D01*
X537507942Y-194192314D01*
X537365085Y-194120885D01*
X537293657Y-194049457D01*
X537222228Y-193906600D01*
X537222228Y-193692314D01*
X537222228Y-195478028D02*
X538007942Y-195478028D01*
X538150800Y-195406600D01*
X538222228Y-195263742D01*
X538222228Y-194978028D01*
X538150800Y-194835171D01*
X537293657Y-195478028D02*
X537222228Y-195335171D01*
X537222228Y-194978028D01*
X537293657Y-194835171D01*
X537436514Y-194763742D01*
X537579371Y-194763742D01*
X537722228Y-194835171D01*
X537793657Y-194978028D01*
X537793657Y-195335171D01*
X537865085Y-195478028D01*
X537222228Y-196192314D02*
X538222228Y-196192314D01*
X537936514Y-196192314D02*
X538079371Y-196263742D01*
X538150800Y-196335171D01*
X538222228Y-196478028D01*
X538222228Y-196620885D01*
X537222228Y-197763742D02*
X538722228Y-197763742D01*
X537293657Y-197763742D02*
X537222228Y-197620885D01*
X537222228Y-197335171D01*
X537293657Y-197192314D01*
X537365085Y-197120885D01*
X537507942Y-197049457D01*
X537936514Y-197049457D01*
X538079371Y-197120885D01*
X538150800Y-197192314D01*
X538222228Y-197335171D01*
X538222228Y-197620885D01*
X538150800Y-197763742D01*
X534672228Y-182263742D02*
X536172228Y-182263742D01*
X535100800Y-182763742D01*
X536172228Y-183263742D01*
X534672228Y-183263742D01*
X534672228Y-184620885D02*
X535457942Y-184620885D01*
X535600800Y-184549457D01*
X535672228Y-184406600D01*
X535672228Y-184120885D01*
X535600800Y-183978028D01*
X534743657Y-184620885D02*
X534672228Y-184478028D01*
X534672228Y-184120885D01*
X534743657Y-183978028D01*
X534886514Y-183906600D01*
X535029371Y-183906600D01*
X535172228Y-183978028D01*
X535243657Y-184120885D01*
X535243657Y-184478028D01*
X535315085Y-184620885D01*
X534672228Y-185335171D02*
X535672228Y-185335171D01*
X536172228Y-185335171D02*
X536100800Y-185263742D01*
X536029371Y-185335171D01*
X536100800Y-185406600D01*
X536172228Y-185335171D01*
X536029371Y-185335171D01*
X535672228Y-186049457D02*
X534672228Y-186049457D01*
X535529371Y-186049457D02*
X535600800Y-186120885D01*
X535672228Y-186263742D01*
X535672228Y-186478028D01*
X535600800Y-186620885D01*
X535457942Y-186692314D01*
X534672228Y-186692314D01*
X534672228Y-187406600D02*
X536172228Y-187406600D01*
X535600800Y-187406600D02*
X535672228Y-187549457D01*
X535672228Y-187835171D01*
X535600800Y-187978028D01*
X535529371Y-188049457D01*
X535386514Y-188120885D01*
X534957942Y-188120885D01*
X534815085Y-188049457D01*
X534743657Y-187978028D01*
X534672228Y-187835171D01*
X534672228Y-187549457D01*
X534743657Y-187406600D01*
X534672228Y-188978028D02*
X534743657Y-188835171D01*
X534815085Y-188763742D01*
X534957942Y-188692314D01*
X535386514Y-188692314D01*
X535529371Y-188763742D01*
X535600800Y-188835171D01*
X535672228Y-188978028D01*
X535672228Y-189192314D01*
X535600800Y-189335171D01*
X535529371Y-189406600D01*
X535386514Y-189478028D01*
X534957942Y-189478028D01*
X534815085Y-189406600D01*
X534743657Y-189335171D01*
X534672228Y-189192314D01*
X534672228Y-188978028D01*
X534672228Y-190763742D02*
X535457942Y-190763742D01*
X535600800Y-190692314D01*
X535672228Y-190549457D01*
X535672228Y-190263742D01*
X535600800Y-190120885D01*
X534743657Y-190763742D02*
X534672228Y-190620885D01*
X534672228Y-190263742D01*
X534743657Y-190120885D01*
X534886514Y-190049457D01*
X535029371Y-190049457D01*
X535172228Y-190120885D01*
X535243657Y-190263742D01*
X535243657Y-190620885D01*
X535315085Y-190763742D01*
X534672228Y-191478028D02*
X535672228Y-191478028D01*
X535386514Y-191478028D02*
X535529371Y-191549457D01*
X535600800Y-191620885D01*
X535672228Y-191763742D01*
X535672228Y-191906600D01*
X534672228Y-193049457D02*
X536172228Y-193049457D01*
X534743657Y-193049457D02*
X534672228Y-192906600D01*
X534672228Y-192620885D01*
X534743657Y-192478028D01*
X534815085Y-192406600D01*
X534957942Y-192335171D01*
X535386514Y-192335171D01*
X535529371Y-192406600D01*
X535600800Y-192478028D01*
X535672228Y-192620885D01*
X535672228Y-192906600D01*
X535600800Y-193049457D01*
X534672228Y-195763742D02*
X535386514Y-195263742D01*
X534672228Y-194906600D02*
X536172228Y-194906600D01*
X536172228Y-195478028D01*
X536100800Y-195620885D01*
X536029371Y-195692314D01*
X535886514Y-195763742D01*
X535672228Y-195763742D01*
X535529371Y-195692314D01*
X535457942Y-195620885D01*
X535386514Y-195478028D01*
X535386514Y-194906600D01*
X534743657Y-196978028D02*
X534672228Y-196835171D01*
X534672228Y-196549457D01*
X534743657Y-196406600D01*
X534886514Y-196335171D01*
X535457942Y-196335171D01*
X535600800Y-196406600D01*
X535672228Y-196549457D01*
X535672228Y-196835171D01*
X535600800Y-196978028D01*
X535457942Y-197049457D01*
X535315085Y-197049457D01*
X535172228Y-196335171D01*
X535672228Y-197549457D02*
X534672228Y-197906600D01*
X535672228Y-198263742D01*
X534672228Y-199620885D02*
X534672228Y-198763742D01*
X534672228Y-199192314D02*
X536172228Y-199192314D01*
X535957942Y-199049457D01*
X535815085Y-198906600D01*
X535743657Y-198763742D01*
X534815085Y-200263742D02*
X534743657Y-200335171D01*
X534672228Y-200263742D01*
X534743657Y-200192314D01*
X534815085Y-200263742D01*
X534672228Y-200263742D01*
X536172228Y-201263742D02*
X536172228Y-201406600D01*
X536100800Y-201549457D01*
X536029371Y-201620885D01*
X535886514Y-201692314D01*
X535600800Y-201763742D01*
X535243657Y-201763742D01*
X534957942Y-201692314D01*
X534815085Y-201620885D01*
X534743657Y-201549457D01*
X534672228Y-201406600D01*
X534672228Y-201263742D01*
X534743657Y-201120885D01*
X534815085Y-201049457D01*
X534957942Y-200978028D01*
X535243657Y-200906600D01*
X535600800Y-200906600D01*
X535886514Y-200978028D01*
X536029371Y-201049457D01*
X536100800Y-201120885D01*
X536172228Y-201263742D01*
D12*
X559893838Y-190987847D02*
X559846219Y-191130704D01*
X559846219Y-191368800D01*
X559893838Y-191464038D01*
X559941457Y-191511657D01*
X560036695Y-191559276D01*
X560131933Y-191559276D01*
X560227171Y-191511657D01*
X560274790Y-191464038D01*
X560322409Y-191368800D01*
X560370028Y-191178323D01*
X560417647Y-191083085D01*
X560465266Y-191035466D01*
X560560504Y-190987847D01*
X560655742Y-190987847D01*
X560750980Y-191035466D01*
X560798600Y-191083085D01*
X560846219Y-191178323D01*
X560846219Y-191416419D01*
X560798600Y-191559276D01*
X559846219Y-191987847D02*
X560846219Y-191987847D01*
X560846219Y-192368800D01*
X560798600Y-192464038D01*
X560750980Y-192511657D01*
X560655742Y-192559276D01*
X560512885Y-192559276D01*
X560417647Y-192511657D01*
X560370028Y-192464038D01*
X560322409Y-192368800D01*
X560322409Y-191987847D01*
X559846219Y-192987847D02*
X560846219Y-192987847D01*
X560750980Y-193416419D02*
X560798600Y-193464038D01*
X560846219Y-193559276D01*
X560846219Y-193797371D01*
X560798600Y-193892609D01*
X560750980Y-193940228D01*
X560655742Y-193987847D01*
X560560504Y-193987847D01*
X560417647Y-193940228D01*
X559846219Y-193368800D01*
X559846219Y-193987847D01*
X560370028Y-195511657D02*
X560370028Y-195178323D01*
X559846219Y-195178323D02*
X560846219Y-195178323D01*
X560846219Y-195654514D01*
X559846219Y-196178323D02*
X559893838Y-196083085D01*
X559989076Y-196035466D01*
X560846219Y-196035466D01*
X559846219Y-196987847D02*
X560370028Y-196987847D01*
X560465266Y-196940228D01*
X560512885Y-196844990D01*
X560512885Y-196654514D01*
X560465266Y-196559276D01*
X559893838Y-196987847D02*
X559846219Y-196892609D01*
X559846219Y-196654514D01*
X559893838Y-196559276D01*
X559989076Y-196511657D01*
X560084314Y-196511657D01*
X560179552Y-196559276D01*
X560227171Y-196654514D01*
X560227171Y-196892609D01*
X560274790Y-196987847D01*
X559893838Y-197416419D02*
X559846219Y-197511657D01*
X559846219Y-197702133D01*
X559893838Y-197797371D01*
X559989076Y-197844990D01*
X560036695Y-197844990D01*
X560131933Y-197797371D01*
X560179552Y-197702133D01*
X560179552Y-197559276D01*
X560227171Y-197464038D01*
X560322409Y-197416419D01*
X560370028Y-197416419D01*
X560465266Y-197464038D01*
X560512885Y-197559276D01*
X560512885Y-197702133D01*
X560465266Y-197797371D01*
X559846219Y-198273561D02*
X560846219Y-198273561D01*
X559846219Y-198702133D02*
X560370028Y-198702133D01*
X560465266Y-198654514D01*
X560512885Y-198559276D01*
X560512885Y-198416419D01*
X560465266Y-198321180D01*
X560417647Y-198273561D01*
X560234266Y-171445880D02*
X560200933Y-171560166D01*
X560200933Y-171750642D01*
X560234266Y-171826833D01*
X560267600Y-171864928D01*
X560334266Y-171903023D01*
X560400933Y-171903023D01*
X560467600Y-171864928D01*
X560500933Y-171826833D01*
X560534266Y-171750642D01*
X560567600Y-171598261D01*
X560600933Y-171522071D01*
X560634266Y-171483976D01*
X560700933Y-171445880D01*
X560767600Y-171445880D01*
X560834266Y-171483976D01*
X560867600Y-171522071D01*
X560900933Y-171598261D01*
X560900933Y-171788738D01*
X560867600Y-171903023D01*
X560900933Y-172169690D02*
X560200933Y-172360166D01*
X560700933Y-172512547D01*
X560200933Y-172664928D01*
X560900933Y-172855404D01*
X560200933Y-173160166D02*
X560900933Y-173160166D01*
X560900933Y-173350642D01*
X560867600Y-173464928D01*
X560800933Y-173541119D01*
X560734266Y-173579214D01*
X560600933Y-173617309D01*
X560500933Y-173617309D01*
X560367600Y-173579214D01*
X560300933Y-173541119D01*
X560234266Y-173464928D01*
X560200933Y-173350642D01*
X560200933Y-173160166D01*
X559467600Y-172093500D02*
X559267600Y-171483976D01*
X559067600Y-172093500D01*
X537604838Y-171061333D02*
X537557219Y-171204190D01*
X537557219Y-171442285D01*
X537604838Y-171537523D01*
X537652457Y-171585142D01*
X537747695Y-171632761D01*
X537842933Y-171632761D01*
X537938171Y-171585142D01*
X537985790Y-171537523D01*
X538033409Y-171442285D01*
X538081028Y-171251809D01*
X538128647Y-171156571D01*
X538176266Y-171108952D01*
X538271504Y-171061333D01*
X538366742Y-171061333D01*
X538461980Y-171108952D01*
X538509600Y-171156571D01*
X538557219Y-171251809D01*
X538557219Y-171489904D01*
X538509600Y-171632761D01*
X538223885Y-171918476D02*
X538223885Y-172299428D01*
X538557219Y-172061333D02*
X537700076Y-172061333D01*
X537604838Y-172108952D01*
X537557219Y-172204190D01*
X537557219Y-172299428D01*
X537557219Y-173061333D02*
X538081028Y-173061333D01*
X538176266Y-173013714D01*
X538223885Y-172918476D01*
X538223885Y-172728000D01*
X538176266Y-172632761D01*
X537604838Y-173061333D02*
X537557219Y-172966095D01*
X537557219Y-172728000D01*
X537604838Y-172632761D01*
X537700076Y-172585142D01*
X537795314Y-172585142D01*
X537890552Y-172632761D01*
X537938171Y-172728000D01*
X537938171Y-172966095D01*
X537985790Y-173061333D01*
X538223885Y-173394666D02*
X538223885Y-173775619D01*
X538557219Y-173537523D02*
X537700076Y-173537523D01*
X537604838Y-173585142D01*
X537557219Y-173680380D01*
X537557219Y-173775619D01*
X538223885Y-174537523D02*
X537557219Y-174537523D01*
X538223885Y-174108952D02*
X537700076Y-174108952D01*
X537604838Y-174156571D01*
X537557219Y-174251809D01*
X537557219Y-174394666D01*
X537604838Y-174489904D01*
X537652457Y-174537523D01*
X537604838Y-174966095D02*
X537557219Y-175061333D01*
X537557219Y-175251809D01*
X537604838Y-175347047D01*
X537700076Y-175394666D01*
X537747695Y-175394666D01*
X537842933Y-175347047D01*
X537890552Y-175251809D01*
X537890552Y-175108952D01*
X537938171Y-175013714D01*
X538033409Y-174966095D01*
X538081028Y-174966095D01*
X538176266Y-175013714D01*
X538223885Y-175108952D01*
X538223885Y-175251809D01*
X538176266Y-175347047D01*
X535907219Y-170775619D02*
X536907219Y-170775619D01*
X536907219Y-171013714D01*
X536859600Y-171156571D01*
X536764361Y-171251809D01*
X536669123Y-171299428D01*
X536478647Y-171347047D01*
X536335790Y-171347047D01*
X536145314Y-171299428D01*
X536050076Y-171251809D01*
X535954838Y-171156571D01*
X535907219Y-171013714D01*
X535907219Y-170775619D01*
X535907219Y-171775619D02*
X536573885Y-171775619D01*
X536907219Y-171775619D02*
X536859600Y-171728000D01*
X536811980Y-171775619D01*
X536859600Y-171823238D01*
X536907219Y-171775619D01*
X536811980Y-171775619D01*
X535954838Y-172204190D02*
X535907219Y-172299428D01*
X535907219Y-172489904D01*
X535954838Y-172585142D01*
X536050076Y-172632761D01*
X536097695Y-172632761D01*
X536192933Y-172585142D01*
X536240552Y-172489904D01*
X536240552Y-172347047D01*
X536288171Y-172251809D01*
X536383409Y-172204190D01*
X536431028Y-172204190D01*
X536526266Y-172251809D01*
X536573885Y-172347047D01*
X536573885Y-172489904D01*
X536526266Y-172585142D01*
X536573885Y-173061333D02*
X535573885Y-173061333D01*
X536526266Y-173061333D02*
X536573885Y-173156571D01*
X536573885Y-173347047D01*
X536526266Y-173442285D01*
X536478647Y-173489904D01*
X536383409Y-173537523D01*
X536097695Y-173537523D01*
X536002457Y-173489904D01*
X535954838Y-173442285D01*
X535907219Y-173347047D01*
X535907219Y-173156571D01*
X535954838Y-173061333D01*
X535907219Y-174108952D02*
X535954838Y-174013714D01*
X536050076Y-173966095D01*
X536907219Y-173966095D01*
X535907219Y-174918476D02*
X536431028Y-174918476D01*
X536526266Y-174870857D01*
X536573885Y-174775619D01*
X536573885Y-174585142D01*
X536526266Y-174489904D01*
X535954838Y-174918476D02*
X535907219Y-174823238D01*
X535907219Y-174585142D01*
X535954838Y-174489904D01*
X536050076Y-174442285D01*
X536145314Y-174442285D01*
X536240552Y-174489904D01*
X536288171Y-174585142D01*
X536288171Y-174823238D01*
X536335790Y-174918476D01*
X536573885Y-175299428D02*
X535907219Y-175537523D01*
X536573885Y-175775619D02*
X535907219Y-175537523D01*
X535669123Y-175442285D01*
X535621504Y-175394666D01*
X535573885Y-175299428D01*
X550854619Y-172182019D02*
X551854619Y-172182019D01*
X551759380Y-172610590D02*
X551807000Y-172658209D01*
X551854619Y-172753447D01*
X551854619Y-172991542D01*
X551807000Y-173086780D01*
X551759380Y-173134400D01*
X551664142Y-173182019D01*
X551568904Y-173182019D01*
X551426047Y-173134400D01*
X550854619Y-172562971D01*
X550854619Y-173182019D01*
X550949857Y-174182019D02*
X550902238Y-174134400D01*
X550854619Y-173991542D01*
X550854619Y-173896304D01*
X550902238Y-173753447D01*
X550997476Y-173658209D01*
X551092714Y-173610590D01*
X551283190Y-173562971D01*
X551426047Y-173562971D01*
X551616523Y-173610590D01*
X551711761Y-173658209D01*
X551807000Y-173753447D01*
X551854619Y-173896304D01*
X551854619Y-173991542D01*
X551807000Y-174134400D01*
X551759380Y-174182019D01*
X550854619Y-175134400D02*
X550854619Y-174562971D01*
X550854619Y-174848685D02*
X551854619Y-174848685D01*
X551711761Y-174753447D01*
X551616523Y-174658209D01*
X551568904Y-174562971D01*
X540885000Y-168910095D02*
X540932619Y-168814857D01*
X540932619Y-168672000D01*
X540885000Y-168529142D01*
X540789761Y-168433904D01*
X540694523Y-168386285D01*
X540504047Y-168338666D01*
X540361190Y-168338666D01*
X540170714Y-168386285D01*
X540075476Y-168433904D01*
X539980238Y-168529142D01*
X539932619Y-168672000D01*
X539932619Y-168767238D01*
X539980238Y-168910095D01*
X540027857Y-168957714D01*
X540361190Y-168957714D01*
X540361190Y-168767238D01*
X539932619Y-169386285D02*
X540932619Y-169386285D01*
X539932619Y-169957714D01*
X540932619Y-169957714D01*
X539932619Y-170433904D02*
X540932619Y-170433904D01*
X540932619Y-170672000D01*
X540885000Y-170814857D01*
X540789761Y-170910095D01*
X540694523Y-170957714D01*
X540504047Y-171005333D01*
X540361190Y-171005333D01*
X540170714Y-170957714D01*
X540075476Y-170910095D01*
X539980238Y-170814857D01*
X539932619Y-170672000D01*
X539932619Y-170433904D01*
X543218619Y-168433904D02*
X543218619Y-169052952D01*
X542837666Y-168719619D01*
X542837666Y-168862476D01*
X542790047Y-168957714D01*
X542742428Y-169005333D01*
X542647190Y-169052952D01*
X542409095Y-169052952D01*
X542313857Y-169005333D01*
X542266238Y-168957714D01*
X542218619Y-168862476D01*
X542218619Y-168576761D01*
X542266238Y-168481523D01*
X542313857Y-168433904D01*
X543218619Y-169338666D02*
X542218619Y-169672000D01*
X543218619Y-170005333D01*
X543218619Y-170243428D02*
X543218619Y-170862476D01*
X542837666Y-170529142D01*
X542837666Y-170672000D01*
X542790047Y-170767238D01*
X542742428Y-170814857D01*
X542647190Y-170862476D01*
X542409095Y-170862476D01*
X542313857Y-170814857D01*
X542266238Y-170767238D01*
X542218619Y-170672000D01*
X542218619Y-170386285D01*
X542266238Y-170291047D01*
X542313857Y-170243428D01*
X545263438Y-168481523D02*
X545215819Y-168624380D01*
X545215819Y-168862476D01*
X545263438Y-168957714D01*
X545311057Y-169005333D01*
X545406295Y-169052952D01*
X545501533Y-169052952D01*
X545596771Y-169005333D01*
X545644390Y-168957714D01*
X545692009Y-168862476D01*
X545739628Y-168672000D01*
X545787247Y-168576761D01*
X545834866Y-168529142D01*
X545930104Y-168481523D01*
X546025342Y-168481523D01*
X546120580Y-168529142D01*
X546168200Y-168576761D01*
X546215819Y-168672000D01*
X546215819Y-168910095D01*
X546168200Y-169052952D01*
X545311057Y-170052952D02*
X545263438Y-170005333D01*
X545215819Y-169862476D01*
X545215819Y-169767238D01*
X545263438Y-169624380D01*
X545358676Y-169529142D01*
X545453914Y-169481523D01*
X545644390Y-169433904D01*
X545787247Y-169433904D01*
X545977723Y-169481523D01*
X546072961Y-169529142D01*
X546168200Y-169624380D01*
X546215819Y-169767238D01*
X546215819Y-169862476D01*
X546168200Y-170005333D01*
X546120580Y-170052952D01*
X545215819Y-170957714D02*
X545215819Y-170481523D01*
X546215819Y-170481523D01*
X547498638Y-168457714D02*
X547451019Y-168600571D01*
X547451019Y-168838666D01*
X547498638Y-168933904D01*
X547546257Y-168981523D01*
X547641495Y-169029142D01*
X547736733Y-169029142D01*
X547831971Y-168981523D01*
X547879590Y-168933904D01*
X547927209Y-168838666D01*
X547974828Y-168648190D01*
X548022447Y-168552952D01*
X548070066Y-168505333D01*
X548165304Y-168457714D01*
X548260542Y-168457714D01*
X548355780Y-168505333D01*
X548403400Y-168552952D01*
X548451019Y-168648190D01*
X548451019Y-168886285D01*
X548403400Y-169029142D01*
X547451019Y-169457714D02*
X548451019Y-169457714D01*
X548451019Y-169695809D01*
X548403400Y-169838666D01*
X548308161Y-169933904D01*
X548212923Y-169981523D01*
X548022447Y-170029142D01*
X547879590Y-170029142D01*
X547689114Y-169981523D01*
X547593876Y-169933904D01*
X547498638Y-169838666D01*
X547451019Y-169695809D01*
X547451019Y-169457714D01*
X547736733Y-170410095D02*
X547736733Y-170886285D01*
X547451019Y-170314857D02*
X548451019Y-170648190D01*
X547451019Y-170981523D01*
X550240276Y-160127200D02*
X550164085Y-160093866D01*
X550049800Y-160093866D01*
X549935514Y-160127200D01*
X549859323Y-160193866D01*
X549821228Y-160260533D01*
X549783133Y-160393866D01*
X549783133Y-160493866D01*
X549821228Y-160627200D01*
X549859323Y-160693866D01*
X549935514Y-160760533D01*
X550049800Y-160793866D01*
X550125990Y-160793866D01*
X550240276Y-160760533D01*
X550278371Y-160727200D01*
X550278371Y-160493866D01*
X550125990Y-160493866D01*
X550621228Y-160793866D02*
X550621228Y-160093866D01*
X551078371Y-160793866D01*
X551078371Y-160093866D01*
X551459323Y-160793866D02*
X551459323Y-160093866D01*
X551649800Y-160093866D01*
X551764085Y-160127200D01*
X551840276Y-160193866D01*
X551878371Y-160260533D01*
X551916466Y-160393866D01*
X551916466Y-160493866D01*
X551878371Y-160627200D01*
X551840276Y-160693866D01*
X551764085Y-160760533D01*
X551649800Y-160793866D01*
X551459323Y-160793866D01*
X550240276Y-162667200D02*
X550164085Y-162633866D01*
X550049800Y-162633866D01*
X549935514Y-162667200D01*
X549859323Y-162733866D01*
X549821228Y-162800533D01*
X549783133Y-162933866D01*
X549783133Y-163033866D01*
X549821228Y-163167200D01*
X549859323Y-163233866D01*
X549935514Y-163300533D01*
X550049800Y-163333866D01*
X550125990Y-163333866D01*
X550240276Y-163300533D01*
X550278371Y-163267200D01*
X550278371Y-163033866D01*
X550125990Y-163033866D01*
X550621228Y-163333866D02*
X550621228Y-162633866D01*
X551078371Y-163333866D01*
X551078371Y-162633866D01*
X551459323Y-163333866D02*
X551459323Y-162633866D01*
X551649800Y-162633866D01*
X551764085Y-162667200D01*
X551840276Y-162733866D01*
X551878371Y-162800533D01*
X551916466Y-162933866D01*
X551916466Y-163033866D01*
X551878371Y-163167200D01*
X551840276Y-163233866D01*
X551764085Y-163300533D01*
X551649800Y-163333866D01*
X551459323Y-163333866D01*
X549859323Y-157553866D02*
X550354561Y-157553866D01*
X550087895Y-157820533D01*
X550202180Y-157820533D01*
X550278371Y-157853866D01*
X550316466Y-157887200D01*
X550354561Y-157953866D01*
X550354561Y-158120533D01*
X550316466Y-158187200D01*
X550278371Y-158220533D01*
X550202180Y-158253866D01*
X549973609Y-158253866D01*
X549897419Y-158220533D01*
X549859323Y-158187200D01*
X550583133Y-157553866D02*
X550849800Y-158253866D01*
X551116466Y-157553866D01*
X551306942Y-157553866D02*
X551802180Y-157553866D01*
X551535514Y-157820533D01*
X551649800Y-157820533D01*
X551725990Y-157853866D01*
X551764085Y-157887200D01*
X551802180Y-157953866D01*
X551802180Y-158120533D01*
X551764085Y-158187200D01*
X551725990Y-158220533D01*
X551649800Y-158253866D01*
X551421228Y-158253866D01*
X551345038Y-158220533D01*
X551306942Y-158187200D01*
X549986314Y-165873866D02*
X549986314Y-165173866D01*
X550443457Y-165873866D02*
X550100600Y-165473866D01*
X550443457Y-165173866D02*
X549986314Y-165573866D01*
X550786314Y-165507200D02*
X551052980Y-165507200D01*
X551167266Y-165873866D02*
X550786314Y-165873866D01*
X550786314Y-165173866D01*
X551167266Y-165173866D01*
X551662504Y-165540533D02*
X551662504Y-165873866D01*
X551395838Y-165173866D02*
X551662504Y-165540533D01*
X551929171Y-165173866D01*
X550138676Y-167747200D02*
X550062485Y-167713866D01*
X549948200Y-167713866D01*
X549833914Y-167747200D01*
X549757723Y-167813866D01*
X549719628Y-167880533D01*
X549681533Y-168013866D01*
X549681533Y-168113866D01*
X549719628Y-168247200D01*
X549757723Y-168313866D01*
X549833914Y-168380533D01*
X549948200Y-168413866D01*
X550024390Y-168413866D01*
X550138676Y-168380533D01*
X550176771Y-168347200D01*
X550176771Y-168113866D01*
X550024390Y-168113866D01*
X550519628Y-168413866D02*
X550519628Y-167713866D01*
X550976771Y-168413866D01*
X550976771Y-167713866D01*
X551357723Y-168413866D02*
X551357723Y-167713866D01*
X551548200Y-167713866D01*
X551662485Y-167747200D01*
X551738676Y-167813866D01*
X551776771Y-167880533D01*
X551814866Y-168013866D01*
X551814866Y-168113866D01*
X551776771Y-168247200D01*
X551738676Y-168313866D01*
X551662485Y-168380533D01*
X551548200Y-168413866D01*
X551357723Y-168413866D01*
D10*
X560070000Y-226314000D02*
X560070000Y-225577400D01*
X559206400Y-175437800D02*
X558342800Y-175437800D01*
X559257200Y-203530200D02*
X558190400Y-203530200D01*
D12*
X557252238Y-201566733D02*
X557204619Y-201709590D01*
X557204619Y-201947685D01*
X557252238Y-202042923D01*
X557299857Y-202090542D01*
X557395095Y-202138161D01*
X557490333Y-202138161D01*
X557585571Y-202090542D01*
X557633190Y-202042923D01*
X557680809Y-201947685D01*
X557728428Y-201757209D01*
X557776047Y-201661971D01*
X557823666Y-201614352D01*
X557918904Y-201566733D01*
X558014142Y-201566733D01*
X558109380Y-201614352D01*
X558157000Y-201661971D01*
X558204619Y-201757209D01*
X558204619Y-201995304D01*
X558157000Y-202138161D01*
X557871285Y-202423876D02*
X557871285Y-202804828D01*
X558204619Y-202566733D02*
X557347476Y-202566733D01*
X557252238Y-202614352D01*
X557204619Y-202709590D01*
X557204619Y-202804828D01*
X557204619Y-203566733D02*
X557728428Y-203566733D01*
X557823666Y-203519114D01*
X557871285Y-203423876D01*
X557871285Y-203233400D01*
X557823666Y-203138161D01*
X557252238Y-203566733D02*
X557204619Y-203471495D01*
X557204619Y-203233400D01*
X557252238Y-203138161D01*
X557347476Y-203090542D01*
X557442714Y-203090542D01*
X557537952Y-203138161D01*
X557585571Y-203233400D01*
X557585571Y-203471495D01*
X557633190Y-203566733D01*
X557871285Y-203900066D02*
X557871285Y-204281019D01*
X558204619Y-204042923D02*
X557347476Y-204042923D01*
X557252238Y-204090542D01*
X557204619Y-204185780D01*
X557204619Y-204281019D01*
X557871285Y-205042923D02*
X557204619Y-205042923D01*
X557871285Y-204614352D02*
X557347476Y-204614352D01*
X557252238Y-204661971D01*
X557204619Y-204757209D01*
X557204619Y-204900066D01*
X557252238Y-204995304D01*
X557299857Y-205042923D01*
X557252238Y-205471495D02*
X557204619Y-205566733D01*
X557204619Y-205757209D01*
X557252238Y-205852447D01*
X557347476Y-205900066D01*
X557395095Y-205900066D01*
X557490333Y-205852447D01*
X557537952Y-205757209D01*
X557537952Y-205614352D01*
X557585571Y-205519114D01*
X557680809Y-205471495D01*
X557728428Y-205471495D01*
X557823666Y-205519114D01*
X557871285Y-205614352D01*
X557871285Y-205757209D01*
X557823666Y-205852447D01*
X557331619Y-174553809D02*
X558331619Y-174553809D01*
X558331619Y-174934761D01*
X558284000Y-175030000D01*
X558236380Y-175077619D01*
X558141142Y-175125238D01*
X557998285Y-175125238D01*
X557903047Y-175077619D01*
X557855428Y-175030000D01*
X557807809Y-174934761D01*
X557807809Y-174553809D01*
X557331619Y-175696666D02*
X557379238Y-175601428D01*
X557426857Y-175553809D01*
X557522095Y-175506190D01*
X557807809Y-175506190D01*
X557903047Y-175553809D01*
X557950666Y-175601428D01*
X557998285Y-175696666D01*
X557998285Y-175839523D01*
X557950666Y-175934761D01*
X557903047Y-175982380D01*
X557807809Y-176030000D01*
X557522095Y-176030000D01*
X557426857Y-175982380D01*
X557379238Y-175934761D01*
X557331619Y-175839523D01*
X557331619Y-175696666D01*
X557998285Y-176363333D02*
X557331619Y-176553809D01*
X557807809Y-176744285D01*
X557331619Y-176934761D01*
X557998285Y-177125238D01*
X557379238Y-177887142D02*
X557331619Y-177791904D01*
X557331619Y-177601428D01*
X557379238Y-177506190D01*
X557474476Y-177458571D01*
X557855428Y-177458571D01*
X557950666Y-177506190D01*
X557998285Y-177601428D01*
X557998285Y-177791904D01*
X557950666Y-177887142D01*
X557855428Y-177934761D01*
X557760190Y-177934761D01*
X557664952Y-177458571D01*
X557331619Y-178363333D02*
X557998285Y-178363333D01*
X557807809Y-178363333D02*
X557903047Y-178410952D01*
X557950666Y-178458571D01*
X557998285Y-178553809D01*
X557998285Y-178649047D01*
X559261971Y-173050247D02*
X559261971Y-173812152D01*
X558881019Y-173431200D02*
X559642923Y-173431200D01*
X558779371Y-201549047D02*
X558779371Y-202310952D01*
X558398419Y-201930000D02*
X559160323Y-201930000D01*
X558779371Y-228041247D02*
X558779371Y-228803152D01*
X558398419Y-228422200D02*
X559160323Y-228422200D01*
X534820857Y-207213200D02*
X534773238Y-207260819D01*
X534725619Y-207213200D01*
X534773238Y-207165580D01*
X534820857Y-207213200D01*
X534725619Y-207213200D01*
X554182161Y-212932971D02*
X554325019Y-212980590D01*
X554372638Y-213028209D01*
X554420257Y-213123447D01*
X554420257Y-213266304D01*
X554372638Y-213361542D01*
X554325019Y-213409161D01*
X554229780Y-213456780D01*
X553848828Y-213456780D01*
X553848828Y-212456780D01*
X554182161Y-212456780D01*
X554277400Y-212504400D01*
X554325019Y-212552019D01*
X554372638Y-212647257D01*
X554372638Y-212742495D01*
X554325019Y-212837733D01*
X554277400Y-212885352D01*
X554182161Y-212932971D01*
X553848828Y-212932971D01*
X554991685Y-213456780D02*
X554896447Y-213409161D01*
X554848828Y-213361542D01*
X554801209Y-213266304D01*
X554801209Y-212980590D01*
X554848828Y-212885352D01*
X554896447Y-212837733D01*
X554991685Y-212790114D01*
X555134542Y-212790114D01*
X555229780Y-212837733D01*
X555277400Y-212885352D01*
X555325019Y-212980590D01*
X555325019Y-213266304D01*
X555277400Y-213361542D01*
X555229780Y-213409161D01*
X555134542Y-213456780D01*
X554991685Y-213456780D01*
X555896447Y-213456780D02*
X555801209Y-213409161D01*
X555753590Y-213361542D01*
X555705971Y-213266304D01*
X555705971Y-212980590D01*
X555753590Y-212885352D01*
X555801209Y-212837733D01*
X555896447Y-212790114D01*
X556039304Y-212790114D01*
X556134542Y-212837733D01*
X556182161Y-212885352D01*
X556229780Y-212980590D01*
X556229780Y-213266304D01*
X556182161Y-213361542D01*
X556134542Y-213409161D01*
X556039304Y-213456780D01*
X555896447Y-213456780D01*
X556515495Y-212790114D02*
X556896447Y-212790114D01*
X556658352Y-212456780D02*
X556658352Y-213313923D01*
X556705971Y-213409161D01*
X556801209Y-213456780D01*
X556896447Y-213456780D01*
X557753590Y-213456780D02*
X557182161Y-213456780D01*
X557467876Y-213456780D02*
X557467876Y-212456780D01*
X557372638Y-212599638D01*
X557277400Y-212694876D01*
X557182161Y-212742495D01*
X554182161Y-214380771D02*
X554325019Y-214428390D01*
X554372638Y-214476009D01*
X554420257Y-214571247D01*
X554420257Y-214714104D01*
X554372638Y-214809342D01*
X554325019Y-214856961D01*
X554229780Y-214904580D01*
X553848828Y-214904580D01*
X553848828Y-213904580D01*
X554182161Y-213904580D01*
X554277400Y-213952200D01*
X554325019Y-213999819D01*
X554372638Y-214095057D01*
X554372638Y-214190295D01*
X554325019Y-214285533D01*
X554277400Y-214333152D01*
X554182161Y-214380771D01*
X553848828Y-214380771D01*
X554991685Y-214904580D02*
X554896447Y-214856961D01*
X554848828Y-214809342D01*
X554801209Y-214714104D01*
X554801209Y-214428390D01*
X554848828Y-214333152D01*
X554896447Y-214285533D01*
X554991685Y-214237914D01*
X555134542Y-214237914D01*
X555229780Y-214285533D01*
X555277400Y-214333152D01*
X555325019Y-214428390D01*
X555325019Y-214714104D01*
X555277400Y-214809342D01*
X555229780Y-214856961D01*
X555134542Y-214904580D01*
X554991685Y-214904580D01*
X555896447Y-214904580D02*
X555801209Y-214856961D01*
X555753590Y-214809342D01*
X555705971Y-214714104D01*
X555705971Y-214428390D01*
X555753590Y-214333152D01*
X555801209Y-214285533D01*
X555896447Y-214237914D01*
X556039304Y-214237914D01*
X556134542Y-214285533D01*
X556182161Y-214333152D01*
X556229780Y-214428390D01*
X556229780Y-214714104D01*
X556182161Y-214809342D01*
X556134542Y-214856961D01*
X556039304Y-214904580D01*
X555896447Y-214904580D01*
X556515495Y-214237914D02*
X556896447Y-214237914D01*
X556658352Y-213904580D02*
X556658352Y-214761723D01*
X556705971Y-214856961D01*
X556801209Y-214904580D01*
X556896447Y-214904580D01*
X557420257Y-213904580D02*
X557515495Y-213904580D01*
X557610733Y-213952200D01*
X557658352Y-213999819D01*
X557705971Y-214095057D01*
X557753590Y-214285533D01*
X557753590Y-214523628D01*
X557705971Y-214714104D01*
X557658352Y-214809342D01*
X557610733Y-214856961D01*
X557515495Y-214904580D01*
X557420257Y-214904580D01*
X557325019Y-214856961D01*
X557277400Y-214809342D01*
X557229780Y-214714104D01*
X557182161Y-214523628D01*
X557182161Y-214285533D01*
X557229780Y-214095057D01*
X557277400Y-213999819D01*
X557325019Y-213952200D01*
X557420257Y-213904580D01*
X529811205Y-211654898D02*
X529777533Y-211553883D01*
X529676518Y-211452868D01*
X529541831Y-211385524D01*
X529407144Y-211385524D01*
X529306129Y-211419196D01*
X529137770Y-211520211D01*
X529036755Y-211621226D01*
X528935739Y-211789585D01*
X528902068Y-211890600D01*
X528902068Y-212025287D01*
X528969411Y-212159974D01*
X529036755Y-212227318D01*
X529171442Y-212294661D01*
X529238785Y-212294661D01*
X529474487Y-212058959D01*
X529339800Y-211924272D01*
X529474487Y-212665051D02*
X530181594Y-211957944D01*
X529878548Y-213069112D01*
X530585655Y-212362005D01*
X530215266Y-213405829D02*
X530922373Y-212698722D01*
X531090731Y-212867081D01*
X531158075Y-213001768D01*
X531158075Y-213136455D01*
X531124403Y-213237470D01*
X531023388Y-213405829D01*
X530922373Y-213506844D01*
X530754014Y-213607860D01*
X530652999Y-213641531D01*
X530518312Y-213641531D01*
X530383625Y-213574188D01*
X530215266Y-213405829D01*
X529504062Y-223965347D02*
X529850229Y-224478561D01*
X529348008Y-224415241D01*
X529427892Y-224533675D01*
X529441671Y-224639259D01*
X529428821Y-224705365D01*
X529376493Y-224798100D01*
X529179104Y-224931241D01*
X529073519Y-224945020D01*
X529007413Y-224932170D01*
X528914679Y-224879842D01*
X528754909Y-224642974D01*
X528741131Y-224537390D01*
X528753981Y-224471284D01*
X530009999Y-224715429D02*
X529367359Y-225550968D01*
X530382794Y-225268121D01*
X530515935Y-225465511D02*
X530862102Y-225978724D01*
X530359881Y-225915404D01*
X530439765Y-226033838D01*
X530453544Y-226139422D01*
X530440694Y-226205529D01*
X530388366Y-226298263D01*
X530190976Y-226431404D01*
X530085392Y-226445183D01*
X530019286Y-226432333D01*
X529926552Y-226380005D01*
X529766782Y-226143137D01*
X529753004Y-226037553D01*
X529765853Y-225971447D01*
X527501267Y-212927030D02*
X527602282Y-212354610D01*
X527097206Y-212522969D02*
X527804312Y-211815862D01*
X528073687Y-212085236D01*
X528107358Y-212186251D01*
X528107358Y-212253595D01*
X528073687Y-212354610D01*
X527972671Y-212455625D01*
X527871656Y-212489297D01*
X527804312Y-212489297D01*
X527703297Y-212455625D01*
X527433923Y-212186251D01*
X528444076Y-212455625D02*
X528208374Y-213634137D01*
X528915480Y-212927030D02*
X527736969Y-213162732D01*
X531343477Y-224194226D02*
X531747538Y-224598287D01*
X530838400Y-225103364D02*
X531545507Y-224396257D01*
X531915896Y-224766646D02*
X531680194Y-225945157D01*
X532387301Y-225238051D02*
X531208790Y-225473753D01*
X536554419Y-219156114D02*
X537554419Y-219156114D01*
X537078228Y-219156114D02*
X537078228Y-219727542D01*
X536554419Y-219727542D02*
X537554419Y-219727542D01*
X536602038Y-220156114D02*
X536554419Y-220298971D01*
X536554419Y-220537066D01*
X536602038Y-220632304D01*
X536649657Y-220679923D01*
X536744895Y-220727542D01*
X536840133Y-220727542D01*
X536935371Y-220679923D01*
X536982990Y-220632304D01*
X537030609Y-220537066D01*
X537078228Y-220346590D01*
X537125847Y-220251352D01*
X537173466Y-220203733D01*
X537268704Y-220156114D01*
X537363942Y-220156114D01*
X537459180Y-220203733D01*
X537506800Y-220251352D01*
X537554419Y-220346590D01*
X537554419Y-220584685D01*
X537506800Y-220727542D01*
X537078228Y-221156114D02*
X537078228Y-221489447D01*
X536554419Y-221632304D02*
X536554419Y-221156114D01*
X537554419Y-221156114D01*
X537554419Y-221632304D01*
D10*
X539445200Y-213029800D02*
X539572200Y-213182200D01*
X541070800Y-211404200D02*
X539445200Y-213029800D01*
X540308800Y-210642200D02*
X541070800Y-211404200D01*
X537819600Y-213131400D02*
X540308800Y-210642200D01*
X537413200Y-213131400D02*
X537819600Y-213131400D01*
X534593800Y-212242400D02*
X535762200Y-212242400D01*
X533171400Y-213664800D02*
X534593800Y-212242400D01*
X533171400Y-215265000D02*
X533171400Y-213664800D01*
X536549600Y-218643200D02*
X533171400Y-215265000D01*
X537972000Y-218643200D02*
X536549600Y-218643200D01*
X539419800Y-217195400D02*
X537972000Y-218643200D01*
X539419800Y-217017600D02*
X539419800Y-217195400D01*
X539419800Y-215315800D02*
X539419800Y-215671400D01*
X538861000Y-214757000D02*
X539419800Y-215315800D01*
X540004000Y-213614000D02*
X538861000Y-214757000D01*
X539572200Y-213182200D02*
X540004000Y-213614000D01*
D12*
X540440619Y-182554809D02*
X541440619Y-182554809D01*
X541440619Y-182935761D01*
X541393000Y-183031000D01*
X541345380Y-183078619D01*
X541250142Y-183126238D01*
X541107285Y-183126238D01*
X541012047Y-183078619D01*
X540964428Y-183031000D01*
X540916809Y-182935761D01*
X540916809Y-182554809D01*
X540440619Y-183697666D02*
X540488238Y-183602428D01*
X540535857Y-183554809D01*
X540631095Y-183507190D01*
X540916809Y-183507190D01*
X541012047Y-183554809D01*
X541059666Y-183602428D01*
X541107285Y-183697666D01*
X541107285Y-183840523D01*
X541059666Y-183935761D01*
X541012047Y-183983380D01*
X540916809Y-184031000D01*
X540631095Y-184031000D01*
X540535857Y-183983380D01*
X540488238Y-183935761D01*
X540440619Y-183840523D01*
X540440619Y-183697666D01*
X541107285Y-184364333D02*
X540440619Y-184554809D01*
X540916809Y-184745285D01*
X540440619Y-184935761D01*
X541107285Y-185126238D01*
X540488238Y-185888142D02*
X540440619Y-185792904D01*
X540440619Y-185602428D01*
X540488238Y-185507190D01*
X540583476Y-185459571D01*
X540964428Y-185459571D01*
X541059666Y-185507190D01*
X541107285Y-185602428D01*
X541107285Y-185792904D01*
X541059666Y-185888142D01*
X540964428Y-185935761D01*
X540869190Y-185935761D01*
X540773952Y-185459571D01*
X540440619Y-186364333D02*
X541107285Y-186364333D01*
X540916809Y-186364333D02*
X541012047Y-186411952D01*
X541059666Y-186459571D01*
X541107285Y-186554809D01*
X541107285Y-186650047D01*
D10*
X540054800Y-177342800D02*
X551332400Y-177342800D01*
X540054800Y-186918600D02*
X540054800Y-177342800D01*
X551332400Y-186918600D02*
X540054800Y-186918600D01*
X551332400Y-177342800D02*
X551332400Y-186918600D01*
D12*
X535763219Y-220235347D02*
X534953695Y-220235347D01*
X534858457Y-220282966D01*
X534810838Y-220330585D01*
X534763219Y-220425823D01*
X534763219Y-220616300D01*
X534810838Y-220711538D01*
X534858457Y-220759157D01*
X534953695Y-220806776D01*
X535763219Y-220806776D01*
X535048933Y-221235347D02*
X535048933Y-221711538D01*
X534763219Y-221140109D02*
X535763219Y-221473442D01*
X534763219Y-221806776D01*
X534763219Y-222711538D02*
X535239409Y-222378204D01*
X534763219Y-222140109D02*
X535763219Y-222140109D01*
X535763219Y-222521061D01*
X535715600Y-222616300D01*
X535667980Y-222663919D01*
X535572742Y-222711538D01*
X535429885Y-222711538D01*
X535334647Y-222663919D01*
X535287028Y-222616300D01*
X535239409Y-222521061D01*
X535239409Y-222140109D01*
X535763219Y-222997252D02*
X535763219Y-223568680D01*
X534763219Y-223282966D02*
X535763219Y-223282966D01*
X535667980Y-223854395D02*
X535715600Y-223902014D01*
X535763219Y-223997252D01*
X535763219Y-224235347D01*
X535715600Y-224330585D01*
X535667980Y-224378204D01*
X535572742Y-224425823D01*
X535477504Y-224425823D01*
X535334647Y-224378204D01*
X534763219Y-223806776D01*
X534763219Y-224425823D01*
X533637028Y-219140109D02*
X533637028Y-219473442D01*
X533113219Y-219616300D02*
X533113219Y-219140109D01*
X534113219Y-219140109D01*
X534113219Y-219616300D01*
X533160838Y-219997252D02*
X533113219Y-220140109D01*
X533113219Y-220378204D01*
X533160838Y-220473442D01*
X533208457Y-220521061D01*
X533303695Y-220568680D01*
X533398933Y-220568680D01*
X533494171Y-220521061D01*
X533541790Y-220473442D01*
X533589409Y-220378204D01*
X533637028Y-220187728D01*
X533684647Y-220092490D01*
X533732266Y-220044871D01*
X533827504Y-219997252D01*
X533922742Y-219997252D01*
X534017980Y-220044871D01*
X534065600Y-220092490D01*
X534113219Y-220187728D01*
X534113219Y-220425823D01*
X534065600Y-220568680D01*
X533113219Y-220997252D02*
X534113219Y-220997252D01*
X534113219Y-221378204D01*
X534065600Y-221473442D01*
X534017980Y-221521061D01*
X533922742Y-221568680D01*
X533779885Y-221568680D01*
X533684647Y-221521061D01*
X533637028Y-221473442D01*
X533589409Y-221378204D01*
X533589409Y-220997252D01*
X534113219Y-222187728D02*
X534113219Y-222282966D01*
X534065600Y-222378204D01*
X534017980Y-222425823D01*
X533922742Y-222473442D01*
X533732266Y-222521061D01*
X533494171Y-222521061D01*
X533303695Y-222473442D01*
X533208457Y-222425823D01*
X533160838Y-222378204D01*
X533113219Y-222282966D01*
X533113219Y-222187728D01*
X533160838Y-222092490D01*
X533208457Y-222044871D01*
X533303695Y-221997252D01*
X533494171Y-221949633D01*
X533732266Y-221949633D01*
X533922742Y-221997252D01*
X534017980Y-222044871D01*
X534065600Y-222092490D01*
X534113219Y-222187728D01*
X533113219Y-223473442D02*
X533113219Y-222902014D01*
X533113219Y-223187728D02*
X534113219Y-223187728D01*
X533970361Y-223092490D01*
X533875123Y-222997252D01*
X533827504Y-222902014D01*
X533160838Y-223854395D02*
X533113219Y-223997252D01*
X533113219Y-224235347D01*
X533160838Y-224330585D01*
X533208457Y-224378204D01*
X533303695Y-224425823D01*
X533398933Y-224425823D01*
X533494171Y-224378204D01*
X533541790Y-224330585D01*
X533589409Y-224235347D01*
X533637028Y-224044871D01*
X533684647Y-223949633D01*
X533732266Y-223902014D01*
X533827504Y-223854395D01*
X533922742Y-223854395D01*
X534017980Y-223902014D01*
X534065600Y-223949633D01*
X534113219Y-224044871D01*
X534113219Y-224282966D01*
X534065600Y-224425823D01*
X557249052Y-218798816D02*
X557350068Y-218226396D01*
X556844991Y-218394755D02*
X557552098Y-217687648D01*
X557821472Y-217957022D01*
X557855144Y-218058037D01*
X557855144Y-218125381D01*
X557821472Y-218226396D01*
X557720457Y-218327411D01*
X557619442Y-218361083D01*
X557552098Y-218361083D01*
X557451083Y-218327411D01*
X557181709Y-218058037D01*
X557855144Y-219337564D02*
X557754129Y-219303892D01*
X557619442Y-219169205D01*
X557585770Y-219068190D01*
X557619442Y-218967174D01*
X557888816Y-218697800D01*
X557989831Y-218664129D01*
X558090846Y-218697800D01*
X558225533Y-218832487D01*
X558259205Y-218933503D01*
X558225533Y-219034518D01*
X558158190Y-219101861D01*
X557754129Y-218832487D01*
X558158190Y-219640609D02*
X558191861Y-219741625D01*
X558326548Y-219876312D01*
X558427564Y-219909983D01*
X558528579Y-219876312D01*
X558562251Y-219842640D01*
X558595922Y-219741625D01*
X558562251Y-219640609D01*
X558461235Y-219539594D01*
X558427564Y-219438579D01*
X558461235Y-219337564D01*
X558494907Y-219303892D01*
X558595922Y-219270220D01*
X558696938Y-219303892D01*
X558797953Y-219404907D01*
X558831625Y-219505922D01*
X559033655Y-220516075D02*
X558932640Y-220482403D01*
X558797953Y-220347716D01*
X558764281Y-220246701D01*
X558797953Y-220145686D01*
X559067327Y-219876312D01*
X559168342Y-219842640D01*
X559269357Y-219876312D01*
X559404044Y-220010999D01*
X559437716Y-220112014D01*
X559404044Y-220213029D01*
X559336701Y-220280373D01*
X558932640Y-220010999D01*
X559707090Y-220314044D02*
X559976464Y-220583418D01*
X560043808Y-220179357D02*
X559437716Y-220785449D01*
X559404044Y-220886464D01*
X559437716Y-220987479D01*
X559505060Y-221054823D01*
D10*
%TO.C,J12*%
X441900000Y-191068000D02*
X441900000Y-188468000D01*
X441900000Y-191068000D02*
X492820000Y-191068000D01*
X492820000Y-191068000D02*
X492820000Y-185868000D01*
X444500000Y-185868000D02*
X492820000Y-185868000D01*
X444500000Y-188468000D02*
X444500000Y-185868000D01*
X441900000Y-188468000D02*
X444500000Y-188468000D01*
X441900000Y-185868000D02*
X443230000Y-185868000D01*
X441900000Y-187198000D02*
X441900000Y-185868000D01*
%TO.C,J11*%
X510480000Y-191068000D02*
X513140000Y-191068000D01*
X510480000Y-163068000D02*
X510480000Y-191068000D01*
X513140000Y-163068000D02*
X513140000Y-191068000D01*
X510480000Y-163068000D02*
X513140000Y-163068000D01*
X510480000Y-161798000D02*
X510480000Y-160468000D01*
X510480000Y-160468000D02*
X511810000Y-160468000D01*
%TO.C,J9*%
X455870000Y-160468000D02*
X457200000Y-160468000D01*
X455870000Y-161798000D02*
X455870000Y-160468000D01*
X455870000Y-163068000D02*
X458530000Y-163068000D01*
X458530000Y-163068000D02*
X458530000Y-165668000D01*
X455870000Y-163068000D02*
X455870000Y-165668000D01*
X455870000Y-165668000D02*
X458530000Y-165668000D01*
%TO.C,J8*%
X553025000Y-171898000D02*
X553025000Y-174558000D01*
X555625000Y-171898000D02*
X553025000Y-171898000D01*
X555625000Y-174558000D02*
X553025000Y-174558000D01*
X555625000Y-171898000D02*
X555625000Y-174558000D01*
X556895000Y-171898000D02*
X558225000Y-171898000D01*
X558225000Y-171898000D02*
X558225000Y-173228000D01*
%TO.C,J3*%
X532705000Y-157928000D02*
X532705000Y-163128000D01*
X545465000Y-157928000D02*
X532705000Y-157928000D01*
X548065000Y-163128000D02*
X532705000Y-163128000D01*
X545465000Y-157928000D02*
X545465000Y-160528000D01*
X545465000Y-160528000D02*
X548065000Y-160528000D01*
X548065000Y-160528000D02*
X548065000Y-163128000D01*
X546735000Y-157928000D02*
X548065000Y-157928000D01*
X548065000Y-157928000D02*
X548065000Y-159258000D01*
%TO.C,R12*%
X555423041Y-175970200D02*
X555115759Y-175970200D01*
X555423041Y-175210200D02*
X555115759Y-175210200D01*
%TO.C,R7*%
X559588641Y-206374000D02*
X559281359Y-206374000D01*
X559588641Y-205614000D02*
X559281359Y-205614000D01*
%TO.C,R6*%
X557048641Y-225551000D02*
X556741359Y-225551000D01*
X557048641Y-224791000D02*
X556741359Y-224791000D01*
%TO.C,R3*%
X559281359Y-206884000D02*
X559588641Y-206884000D01*
X559281359Y-207644000D02*
X559588641Y-207644000D01*
%TO.C,R1*%
X557023000Y-216180641D02*
X557023000Y-215873359D01*
X557783000Y-216180641D02*
X557783000Y-215873359D01*
%TO.C,U3*%
X558611000Y-190960000D02*
G75*
G03*
X558611000Y-190960000I-60000J0D01*
G01*
X559141000Y-191580000D02*
X559641000Y-191580000D01*
X559641000Y-191580000D02*
X559641000Y-199580000D01*
X559641000Y-199580000D02*
X559141000Y-199580000D01*
X554141000Y-191580000D02*
X553641000Y-191580000D01*
X553641000Y-191580000D02*
X553641000Y-199580000D01*
X553641000Y-199580000D02*
X554141000Y-199580000D01*
X555641000Y-199580000D02*
X555141000Y-199580000D01*
X556391000Y-199580000D02*
X556891000Y-199580000D01*
X557641000Y-199580000D02*
X558141000Y-199580000D01*
X557641000Y-191580000D02*
X558141000Y-191580000D01*
X556391000Y-191580000D02*
X556891000Y-191580000D01*
X555141000Y-191580000D02*
X555641000Y-191580000D01*
%TO.C,R13*%
X538548540Y-213439859D02*
X538331259Y-213657140D01*
X539085941Y-213977260D02*
X538868660Y-214194541D01*
%TO.C,C16*%
X534594307Y-213817810D02*
X534746810Y-213665307D01*
X534085190Y-213308693D02*
X534237693Y-213156190D01*
%TO.C,Y1*%
X536073513Y-212811060D02*
X533740060Y-215144513D01*
X533740060Y-215144513D02*
X536568487Y-217972940D01*
%TO.C,U1*%
X545698800Y-179681600D02*
X544768800Y-179681600D01*
X542538800Y-179681600D02*
X543468800Y-179681600D01*
X542538800Y-179681600D02*
X542538800Y-181841600D01*
X545698800Y-179681600D02*
X545698800Y-181141600D01*
%TO.C,SW3*%
X561789000Y-222766000D02*
X561409000Y-222266000D01*
X561409000Y-222266000D02*
X561089000Y-222266000D01*
X561789000Y-222766000D02*
X561789000Y-223766000D01*
X561789000Y-223766000D02*
X561409000Y-224266000D01*
X561409000Y-224266000D02*
X561089000Y-224266000D01*
X558289000Y-221616000D02*
X558289000Y-224916000D01*
X558589000Y-221616000D02*
X558289000Y-221616000D01*
X558289000Y-224916000D02*
X558589000Y-224916000D01*
X560789000Y-221616000D02*
X561089000Y-221616000D01*
X561089000Y-221616000D02*
X561089000Y-224916000D01*
X561089000Y-224916000D02*
X560789000Y-224916000D01*
%TO.C,SW2*%
X561789000Y-210574000D02*
X561409000Y-210074000D01*
X561409000Y-210074000D02*
X561089000Y-210074000D01*
X561789000Y-210574000D02*
X561789000Y-211574000D01*
X561789000Y-211574000D02*
X561409000Y-212074000D01*
X561409000Y-212074000D02*
X561089000Y-212074000D01*
X558289000Y-209424000D02*
X558289000Y-212724000D01*
X558589000Y-209424000D02*
X558289000Y-209424000D01*
X558289000Y-212724000D02*
X558589000Y-212724000D01*
X560789000Y-209424000D02*
X561089000Y-209424000D01*
X561089000Y-209424000D02*
X561089000Y-212724000D01*
X561089000Y-212724000D02*
X560789000Y-212724000D01*
%TO.C,SW1*%
X561789000Y-215527000D02*
X561409000Y-215027000D01*
X561409000Y-215027000D02*
X561089000Y-215027000D01*
X561789000Y-215527000D02*
X561789000Y-216527000D01*
X561789000Y-216527000D02*
X561409000Y-217027000D01*
X561409000Y-217027000D02*
X561089000Y-217027000D01*
X558289000Y-214377000D02*
X558289000Y-217677000D01*
X558589000Y-214377000D02*
X558289000Y-214377000D01*
X558289000Y-217677000D02*
X558589000Y-217677000D01*
X560789000Y-214377000D02*
X561089000Y-214377000D01*
X561089000Y-214377000D02*
X561089000Y-217677000D01*
X561089000Y-217677000D02*
X560789000Y-217677000D01*
%TO.C,R4*%
X545999400Y-190856841D02*
X545999400Y-190549559D01*
X546759400Y-190856841D02*
X546759400Y-190549559D01*
%TO.C,R15*%
X558189641Y-201294000D02*
X557882359Y-201294000D01*
X558189641Y-200534000D02*
X557882359Y-200534000D01*
%TO.C,R14*%
X557556641Y-190118000D02*
X557249359Y-190118000D01*
X557556641Y-189358000D02*
X557249359Y-189358000D01*
%TO.C,R11*%
X555090359Y-176607200D02*
X555397641Y-176607200D01*
X555090359Y-177367200D02*
X555397641Y-177367200D01*
%TO.C,R2*%
X556513000Y-223112359D02*
X556513000Y-223419641D01*
X555753000Y-223112359D02*
X555753000Y-223419641D01*
%TO.C,J5*%
X532825000Y-213808000D02*
X527625000Y-213808000D01*
X532825000Y-221488000D02*
X532825000Y-213808000D01*
X527625000Y-224088000D02*
X527625000Y-213808000D01*
X532825000Y-221488000D02*
X530225000Y-221488000D01*
X530225000Y-221488000D02*
X530225000Y-224088000D01*
X530225000Y-224088000D02*
X527625000Y-224088000D01*
X532825000Y-222758000D02*
X532825000Y-224088000D01*
X532825000Y-224088000D02*
X531495000Y-224088000D01*
%TO.C,J6*%
X539055000Y-171898000D02*
X539055000Y-174558000D01*
X546735000Y-171898000D02*
X539055000Y-171898000D01*
X546735000Y-174558000D02*
X539055000Y-174558000D01*
X546735000Y-171898000D02*
X546735000Y-174558000D01*
X548005000Y-171898000D02*
X549335000Y-171898000D01*
X549335000Y-171898000D02*
X549335000Y-173228000D01*
%TO.C,J2*%
X560419000Y-188088000D02*
X562319000Y-188088000D01*
X556519000Y-188088000D02*
X558519000Y-188088000D01*
X560419000Y-178688000D02*
X562319000Y-178688000D01*
X556519000Y-178688000D02*
X558519000Y-178688000D01*
X562319000Y-188088000D02*
X562319000Y-178688000D01*
%TO.C,FB1*%
X547650600Y-180092778D02*
X547650600Y-180892022D01*
X546530600Y-180092778D02*
X546530600Y-180892022D01*
%TO.C,D3*%
X559208000Y-174587000D02*
X559208000Y-176872000D01*
X559208000Y-176872000D02*
X560678000Y-176872000D01*
X560678000Y-176872000D02*
X560678000Y-174587000D01*
%TO.C,D2*%
X559335000Y-202781000D02*
X559335000Y-205066000D01*
X559335000Y-205066000D02*
X560805000Y-205066000D01*
X560805000Y-205066000D02*
X560805000Y-202781000D01*
%TO.C,D1*%
X560805000Y-228638000D02*
X560805000Y-226353000D01*
X560805000Y-226353000D02*
X559335000Y-226353000D01*
X559335000Y-226353000D02*
X559335000Y-228638000D01*
%TO.C,C1*%
X557043000Y-223373836D02*
X557043000Y-223158164D01*
X557763000Y-223373836D02*
X557763000Y-223158164D01*
%TO.C,C3*%
X544709236Y-183595600D02*
X544493564Y-183595600D01*
X544709236Y-182875600D02*
X544493564Y-182875600D01*
%TO.C,C2*%
X549675164Y-179091000D02*
X549890836Y-179091000D01*
X549675164Y-179811000D02*
X549890836Y-179811000D01*
%TO.C,C15*%
X547642181Y-195811430D02*
X547443370Y-195612619D01*
X548363430Y-195090181D02*
X548164619Y-194891370D01*
%TO.C,C14*%
X556897000Y-210679420D02*
X556897000Y-210960580D01*
X555877000Y-210679420D02*
X555877000Y-210960580D01*
%TO.C,C13*%
X533929000Y-203841236D02*
X533929000Y-203625564D01*
X534649000Y-203841236D02*
X534649000Y-203625564D01*
%TO.C,C12*%
X545591493Y-195783810D02*
X545438990Y-195631307D01*
X546100610Y-195274693D02*
X545948107Y-195122190D01*
%TO.C,C5*%
X554452200Y-221113236D02*
X554452200Y-220897564D01*
X555172200Y-221113236D02*
X555172200Y-220897564D01*
%TO.C,C4*%
X555595200Y-221113236D02*
X555595200Y-220897564D01*
X556315200Y-221113236D02*
X556315200Y-220897564D01*
%TO.C,C11*%
X542015000Y-216554164D02*
X542015000Y-216769836D01*
X541295000Y-216554164D02*
X541295000Y-216769836D01*
%TO.C,C10*%
X556662000Y-207422636D02*
X556662000Y-207206964D01*
X557382000Y-207422636D02*
X557382000Y-207206964D01*
%TO.C,C9*%
X535412836Y-211434000D02*
X535197164Y-211434000D01*
X535412836Y-210714000D02*
X535197164Y-210714000D01*
%TO.C,C8*%
X537244104Y-212252221D02*
X537091601Y-212099718D01*
X537753221Y-211743104D02*
X537600718Y-211590601D01*
%TO.C,C7*%
X548513610Y-217678507D02*
X548361107Y-217831010D01*
X548004493Y-217169390D02*
X547851990Y-217321893D01*
%TO.C,C6*%
X546549811Y-217863762D02*
X546748622Y-218062573D01*
X545828562Y-218585011D02*
X546027373Y-218783822D01*
%TO.C,R10*%
X555088359Y-189358000D02*
X555395641Y-189358000D01*
X555088359Y-190118000D02*
X555395641Y-190118000D01*
%TO.C,R9*%
X554356000Y-223419641D02*
X554356000Y-223112359D01*
X555116000Y-223419641D02*
X555116000Y-223112359D01*
%TO.C,R8*%
X535661600Y-177928241D02*
X535661600Y-177620959D01*
X536421600Y-177928241D02*
X536421600Y-177620959D01*
%TO.C,R5*%
X543916600Y-170460641D02*
X543916600Y-170153359D01*
X544676600Y-170460641D02*
X544676600Y-170153359D01*
%TO.C,J4*%
X527625000Y-226508000D02*
X527625000Y-229168000D01*
X555625000Y-226508000D02*
X527625000Y-226508000D01*
X555625000Y-229168000D02*
X527625000Y-229168000D01*
X555625000Y-226508000D02*
X555625000Y-229168000D01*
X556895000Y-226508000D02*
X558225000Y-226508000D01*
X558225000Y-226508000D02*
X558225000Y-227838000D01*
%TO.C,FB2*%
X553873600Y-221647178D02*
X553873600Y-222446422D01*
X552753600Y-221647178D02*
X552753600Y-222446422D01*
%TO.C,F1*%
X547885536Y-182808200D02*
X549089664Y-182808200D01*
X547885536Y-184628200D02*
X549089664Y-184628200D01*
%TO.C,C17*%
X538556810Y-217475307D02*
X538404307Y-217627810D01*
X538047693Y-216966190D02*
X537895190Y-217118693D01*
%TO.C,U2*%
X554991129Y-207157930D02*
X555486103Y-206662955D01*
X555486103Y-206662955D02*
X554991129Y-206167980D01*
X545926020Y-216223039D02*
X545431045Y-216718013D01*
X545431045Y-216718013D02*
X544936070Y-216223039D01*
X544936070Y-197102871D02*
X545431045Y-196607897D01*
X545431045Y-196607897D02*
X545926020Y-197102871D01*
X535870961Y-206167980D02*
X535375987Y-206662955D01*
X535375987Y-206662955D02*
X535870961Y-207157930D01*
X535870961Y-207157930D02*
X534905761Y-208123131D01*
%TO.C,J12*%
D12*
X441007619Y-187658476D02*
X440293333Y-187658476D01*
X440150476Y-187610857D01*
X440055238Y-187515619D01*
X440007619Y-187372761D01*
X440007619Y-187277523D01*
X440007619Y-188658476D02*
X440007619Y-188087047D01*
X440007619Y-188372761D02*
X441007619Y-188372761D01*
X440864761Y-188277523D01*
X440769523Y-188182285D01*
X440721904Y-188087047D01*
X440912380Y-189039428D02*
X440960000Y-189087047D01*
X441007619Y-189182285D01*
X441007619Y-189420380D01*
X440960000Y-189515619D01*
X440912380Y-189563238D01*
X440817142Y-189610857D01*
X440721904Y-189610857D01*
X440579047Y-189563238D01*
X440007619Y-188991809D01*
X440007619Y-189610857D01*
%TO.C,J11*%
X511000476Y-158920380D02*
X511000476Y-159634666D01*
X510952857Y-159777523D01*
X510857619Y-159872761D01*
X510714761Y-159920380D01*
X510619523Y-159920380D01*
X512000476Y-159920380D02*
X511429047Y-159920380D01*
X511714761Y-159920380D02*
X511714761Y-158920380D01*
X511619523Y-159063238D01*
X511524285Y-159158476D01*
X511429047Y-159206095D01*
X512952857Y-159920380D02*
X512381428Y-159920380D01*
X512667142Y-159920380D02*
X512667142Y-158920380D01*
X512571904Y-159063238D01*
X512476666Y-159158476D01*
X512381428Y-159206095D01*
%TO.C,J9*%
X456866666Y-158920380D02*
X456866666Y-159634666D01*
X456819047Y-159777523D01*
X456723809Y-159872761D01*
X456580952Y-159920380D01*
X456485714Y-159920380D01*
X457390476Y-159920380D02*
X457580952Y-159920380D01*
X457676190Y-159872761D01*
X457723809Y-159825142D01*
X457819047Y-159682285D01*
X457866666Y-159491809D01*
X457866666Y-159110857D01*
X457819047Y-159015619D01*
X457771428Y-158968000D01*
X457676190Y-158920380D01*
X457485714Y-158920380D01*
X457390476Y-158968000D01*
X457342857Y-159015619D01*
X457295238Y-159110857D01*
X457295238Y-159348952D01*
X457342857Y-159444190D01*
X457390476Y-159491809D01*
X457485714Y-159539428D01*
X457676190Y-159539428D01*
X457771428Y-159491809D01*
X457819047Y-159444190D01*
X457866666Y-159348952D01*
%TO.C,R12*%
X556983066Y-177374485D02*
X556649733Y-177641152D01*
X556983066Y-177831628D02*
X556283066Y-177831628D01*
X556283066Y-177526866D01*
X556316400Y-177450676D01*
X556349733Y-177412580D01*
X556416400Y-177374485D01*
X556516400Y-177374485D01*
X556583066Y-177412580D01*
X556616400Y-177450676D01*
X556649733Y-177526866D01*
X556649733Y-177831628D01*
X556983066Y-176612580D02*
X556983066Y-177069723D01*
X556983066Y-176841152D02*
X556283066Y-176841152D01*
X556383066Y-176917342D01*
X556449733Y-176993533D01*
X556483066Y-177069723D01*
X556349733Y-176307819D02*
X556316400Y-176269723D01*
X556283066Y-176193533D01*
X556283066Y-176003057D01*
X556316400Y-175926866D01*
X556349733Y-175888771D01*
X556416400Y-175850676D01*
X556483066Y-175850676D01*
X556583066Y-175888771D01*
X556983066Y-176345914D01*
X556983066Y-175850676D01*
%TO.C,R7*%
X561081180Y-206084466D02*
X560604990Y-206417800D01*
X561081180Y-206655895D02*
X560081180Y-206655895D01*
X560081180Y-206274942D01*
X560128800Y-206179704D01*
X560176419Y-206132085D01*
X560271657Y-206084466D01*
X560414514Y-206084466D01*
X560509752Y-206132085D01*
X560557371Y-206179704D01*
X560604990Y-206274942D01*
X560604990Y-206655895D01*
X560081180Y-205751133D02*
X560081180Y-205084466D01*
X561081180Y-205513038D01*
%TO.C,R6*%
X558404733Y-226537780D02*
X558071400Y-226061590D01*
X557833304Y-226537780D02*
X557833304Y-225537780D01*
X558214257Y-225537780D01*
X558309495Y-225585400D01*
X558357114Y-225633019D01*
X558404733Y-225728257D01*
X558404733Y-225871114D01*
X558357114Y-225966352D01*
X558309495Y-226013971D01*
X558214257Y-226061590D01*
X557833304Y-226061590D01*
X559261876Y-225537780D02*
X559071400Y-225537780D01*
X558976161Y-225585400D01*
X558928542Y-225633019D01*
X558833304Y-225775876D01*
X558785685Y-225966352D01*
X558785685Y-226347304D01*
X558833304Y-226442542D01*
X558880923Y-226490161D01*
X558976161Y-226537780D01*
X559166638Y-226537780D01*
X559261876Y-226490161D01*
X559309495Y-226442542D01*
X559357114Y-226347304D01*
X559357114Y-226109209D01*
X559309495Y-226013971D01*
X559261876Y-225966352D01*
X559166638Y-225918733D01*
X558976161Y-225918733D01*
X558880923Y-225966352D01*
X558833304Y-226013971D01*
X558785685Y-226109209D01*
%TO.C,R3*%
X561081180Y-207938666D02*
X560604990Y-208272000D01*
X561081180Y-208510095D02*
X560081180Y-208510095D01*
X560081180Y-208129142D01*
X560128800Y-208033904D01*
X560176419Y-207986285D01*
X560271657Y-207938666D01*
X560414514Y-207938666D01*
X560509752Y-207986285D01*
X560557371Y-208033904D01*
X560604990Y-208129142D01*
X560604990Y-208510095D01*
X560081180Y-207605333D02*
X560081180Y-206986285D01*
X560462133Y-207319619D01*
X560462133Y-207176761D01*
X560509752Y-207081523D01*
X560557371Y-207033904D01*
X560652609Y-206986285D01*
X560890704Y-206986285D01*
X560985942Y-207033904D01*
X561033561Y-207081523D01*
X561081180Y-207176761D01*
X561081180Y-207462476D01*
X561033561Y-207557714D01*
X560985942Y-207605333D01*
%TO.C,R1*%
X555823380Y-216727066D02*
X555347190Y-217060400D01*
X555823380Y-217298495D02*
X554823380Y-217298495D01*
X554823380Y-216917542D01*
X554871000Y-216822304D01*
X554918619Y-216774685D01*
X555013857Y-216727066D01*
X555156714Y-216727066D01*
X555251952Y-216774685D01*
X555299571Y-216822304D01*
X555347190Y-216917542D01*
X555347190Y-217298495D01*
X555823380Y-215774685D02*
X555823380Y-216346114D01*
X555823380Y-216060400D02*
X554823380Y-216060400D01*
X554966238Y-216155638D01*
X555061476Y-216250876D01*
X555109095Y-216346114D01*
%TO.C,U3*%
X552130980Y-196291104D02*
X552940504Y-196291104D01*
X553035742Y-196243485D01*
X553083361Y-196195866D01*
X553130980Y-196100628D01*
X553130980Y-195910152D01*
X553083361Y-195814914D01*
X553035742Y-195767295D01*
X552940504Y-195719676D01*
X552130980Y-195719676D01*
X552130980Y-195338723D02*
X552130980Y-194719676D01*
X552511933Y-195053009D01*
X552511933Y-194910152D01*
X552559552Y-194814914D01*
X552607171Y-194767295D01*
X552702409Y-194719676D01*
X552940504Y-194719676D01*
X553035742Y-194767295D01*
X553083361Y-194814914D01*
X553130980Y-194910152D01*
X553130980Y-195195866D01*
X553083361Y-195291104D01*
X553035742Y-195338723D01*
%TO.C,R13*%
X540021712Y-216623650D02*
X539449293Y-216522635D01*
X539617651Y-217027711D02*
X538910545Y-216320604D01*
X539179919Y-216051230D01*
X539280934Y-216017558D01*
X539348277Y-216017558D01*
X539449293Y-216051230D01*
X539550308Y-216152245D01*
X539583980Y-216253261D01*
X539583980Y-216320604D01*
X539550308Y-216421619D01*
X539280934Y-216690993D01*
X540695148Y-215950215D02*
X540291087Y-216354276D01*
X540493117Y-216152245D02*
X539786010Y-215445138D01*
X539819682Y-215613497D01*
X539819682Y-215748184D01*
X539786010Y-215849199D01*
X540223743Y-215007406D02*
X540661476Y-214569673D01*
X540695148Y-215074749D01*
X540796163Y-214973734D01*
X540897178Y-214940062D01*
X540964522Y-214940062D01*
X541065537Y-214973734D01*
X541233896Y-215142093D01*
X541267567Y-215243108D01*
X541267567Y-215310451D01*
X541233896Y-215411467D01*
X541031865Y-215613497D01*
X540930850Y-215647169D01*
X540863506Y-215647169D01*
%TO.C,C16*%
X532816969Y-211984306D02*
X532816969Y-212051650D01*
X532749625Y-212186337D01*
X532682282Y-212253680D01*
X532547595Y-212321024D01*
X532412908Y-212321024D01*
X532311893Y-212287352D01*
X532143534Y-212186337D01*
X532042519Y-212085322D01*
X531941503Y-211916963D01*
X531907832Y-211815948D01*
X531907832Y-211681261D01*
X531975175Y-211546574D01*
X532042519Y-211479230D01*
X532177206Y-211411887D01*
X532244549Y-211411887D01*
X533557748Y-211378215D02*
X533153687Y-211782276D01*
X533355717Y-211580245D02*
X532648610Y-210873138D01*
X532682282Y-211041497D01*
X532682282Y-211176184D01*
X532648610Y-211277200D01*
X533456732Y-210065016D02*
X533322045Y-210199703D01*
X533288374Y-210300719D01*
X533288374Y-210368062D01*
X533322045Y-210536421D01*
X533423061Y-210704780D01*
X533692435Y-210974154D01*
X533793450Y-211007825D01*
X533860793Y-211007825D01*
X533961809Y-210974154D01*
X534096496Y-210839467D01*
X534130167Y-210738451D01*
X534130167Y-210671108D01*
X534096496Y-210570093D01*
X533928137Y-210401734D01*
X533827122Y-210368062D01*
X533759778Y-210368062D01*
X533658763Y-210401734D01*
X533524076Y-210536421D01*
X533490404Y-210637436D01*
X533490404Y-210704780D01*
X533524076Y-210805795D01*
%TO.C,Y1*%
X533435718Y-216664046D02*
X533099000Y-217000764D01*
X533570405Y-216057955D02*
X533435718Y-216664046D01*
X534041809Y-216529359D01*
X533940794Y-217842557D02*
X533536733Y-217438496D01*
X533738764Y-217640527D02*
X534445870Y-216933420D01*
X534277512Y-216967092D01*
X534142825Y-216967092D01*
X534041809Y-216933420D01*
%TO.C,U1*%
X541107380Y-180847904D02*
X541916904Y-180847904D01*
X542012142Y-180800285D01*
X542059761Y-180752666D01*
X542107380Y-180657428D01*
X542107380Y-180466952D01*
X542059761Y-180371714D01*
X542012142Y-180324095D01*
X541916904Y-180276476D01*
X541107380Y-180276476D01*
X542107380Y-179276476D02*
X542107380Y-179847904D01*
X542107380Y-179562190D02*
X541107380Y-179562190D01*
X541250238Y-179657428D01*
X541345476Y-179752666D01*
X541393095Y-179847904D01*
%TO.C,R4*%
X548050980Y-190844466D02*
X547574790Y-191177800D01*
X548050980Y-191415895D02*
X547050980Y-191415895D01*
X547050980Y-191034942D01*
X547098600Y-190939704D01*
X547146219Y-190892085D01*
X547241457Y-190844466D01*
X547384314Y-190844466D01*
X547479552Y-190892085D01*
X547527171Y-190939704D01*
X547574790Y-191034942D01*
X547574790Y-191415895D01*
X547384314Y-189987323D02*
X548050980Y-189987323D01*
X547003361Y-190225419D02*
X547717647Y-190463514D01*
X547717647Y-189844466D01*
%TO.C,R15*%
X554956742Y-201518780D02*
X554623409Y-201042590D01*
X554385314Y-201518780D02*
X554385314Y-200518780D01*
X554766266Y-200518780D01*
X554861504Y-200566400D01*
X554909123Y-200614019D01*
X554956742Y-200709257D01*
X554956742Y-200852114D01*
X554909123Y-200947352D01*
X554861504Y-200994971D01*
X554766266Y-201042590D01*
X554385314Y-201042590D01*
X555909123Y-201518780D02*
X555337695Y-201518780D01*
X555623409Y-201518780D02*
X555623409Y-200518780D01*
X555528171Y-200661638D01*
X555432933Y-200756876D01*
X555337695Y-200804495D01*
X556813885Y-200518780D02*
X556337695Y-200518780D01*
X556290076Y-200994971D01*
X556337695Y-200947352D01*
X556432933Y-200899733D01*
X556671028Y-200899733D01*
X556766266Y-200947352D01*
X556813885Y-200994971D01*
X556861504Y-201090209D01*
X556861504Y-201328304D01*
X556813885Y-201423542D01*
X556766266Y-201471161D01*
X556671028Y-201518780D01*
X556432933Y-201518780D01*
X556337695Y-201471161D01*
X556290076Y-201423542D01*
%TO.C,R14*%
X559988980Y-190380857D02*
X559512790Y-190714190D01*
X559988980Y-190952285D02*
X558988980Y-190952285D01*
X558988980Y-190571333D01*
X559036600Y-190476095D01*
X559084219Y-190428476D01*
X559179457Y-190380857D01*
X559322314Y-190380857D01*
X559417552Y-190428476D01*
X559465171Y-190476095D01*
X559512790Y-190571333D01*
X559512790Y-190952285D01*
X559988980Y-189428476D02*
X559988980Y-189999904D01*
X559988980Y-189714190D02*
X558988980Y-189714190D01*
X559131838Y-189809428D01*
X559227076Y-189904666D01*
X559274695Y-189999904D01*
X559322314Y-188571333D02*
X559988980Y-188571333D01*
X558941361Y-188809428D02*
X559655647Y-189047523D01*
X559655647Y-188428476D01*
%TO.C,R11*%
X552442142Y-178252380D02*
X552108809Y-177776190D01*
X551870714Y-178252380D02*
X551870714Y-177252380D01*
X552251666Y-177252380D01*
X552346904Y-177300000D01*
X552394523Y-177347619D01*
X552442142Y-177442857D01*
X552442142Y-177585714D01*
X552394523Y-177680952D01*
X552346904Y-177728571D01*
X552251666Y-177776190D01*
X551870714Y-177776190D01*
X553394523Y-178252380D02*
X552823095Y-178252380D01*
X553108809Y-178252380D02*
X553108809Y-177252380D01*
X553013571Y-177395238D01*
X552918333Y-177490476D01*
X552823095Y-177538095D01*
X554346904Y-178252380D02*
X553775476Y-178252380D01*
X554061190Y-178252380D02*
X554061190Y-177252380D01*
X553965952Y-177395238D01*
X553870714Y-177490476D01*
X553775476Y-177538095D01*
%TO.C,R2*%
X557271180Y-221121266D02*
X556794990Y-221454600D01*
X557271180Y-221692695D02*
X556271180Y-221692695D01*
X556271180Y-221311742D01*
X556318800Y-221216504D01*
X556366419Y-221168885D01*
X556461657Y-221121266D01*
X556604514Y-221121266D01*
X556699752Y-221168885D01*
X556747371Y-221216504D01*
X556794990Y-221311742D01*
X556794990Y-221692695D01*
X556366419Y-220740314D02*
X556318800Y-220692695D01*
X556271180Y-220597457D01*
X556271180Y-220359361D01*
X556318800Y-220264123D01*
X556366419Y-220216504D01*
X556461657Y-220168885D01*
X556556895Y-220168885D01*
X556699752Y-220216504D01*
X557271180Y-220787933D01*
X557271180Y-220168885D01*
%TO.C,FB1*%
X548593971Y-182087733D02*
X548593971Y-182421066D01*
X549117780Y-182421066D02*
X548117780Y-182421066D01*
X548117780Y-181944876D01*
X548593971Y-181230590D02*
X548641590Y-181087733D01*
X548689209Y-181040114D01*
X548784447Y-180992495D01*
X548927304Y-180992495D01*
X549022542Y-181040114D01*
X549070161Y-181087733D01*
X549117780Y-181182971D01*
X549117780Y-181563923D01*
X548117780Y-181563923D01*
X548117780Y-181230590D01*
X548165400Y-181135352D01*
X548213019Y-181087733D01*
X548308257Y-181040114D01*
X548403495Y-181040114D01*
X548498733Y-181087733D01*
X548546352Y-181135352D01*
X548593971Y-181230590D01*
X548593971Y-181563923D01*
X549117780Y-180040114D02*
X549117780Y-180611542D01*
X549117780Y-180325828D02*
X548117780Y-180325828D01*
X548260638Y-180421066D01*
X548355876Y-180516304D01*
X548403495Y-180611542D01*
%TO.C,D3*%
X559306504Y-178099980D02*
X559306504Y-177099980D01*
X559544600Y-177099980D01*
X559687457Y-177147600D01*
X559782695Y-177242838D01*
X559830314Y-177338076D01*
X559877933Y-177528552D01*
X559877933Y-177671409D01*
X559830314Y-177861885D01*
X559782695Y-177957123D01*
X559687457Y-178052361D01*
X559544600Y-178099980D01*
X559306504Y-178099980D01*
X560211266Y-177099980D02*
X560830314Y-177099980D01*
X560496980Y-177480933D01*
X560639838Y-177480933D01*
X560735076Y-177528552D01*
X560782695Y-177576171D01*
X560830314Y-177671409D01*
X560830314Y-177909504D01*
X560782695Y-178004742D01*
X560735076Y-178052361D01*
X560639838Y-178099980D01*
X560354123Y-178099980D01*
X560258885Y-178052361D01*
X560211266Y-178004742D01*
%TO.C,D2*%
X559408104Y-202026780D02*
X559408104Y-201026780D01*
X559646200Y-201026780D01*
X559789057Y-201074400D01*
X559884295Y-201169638D01*
X559931914Y-201264876D01*
X559979533Y-201455352D01*
X559979533Y-201598209D01*
X559931914Y-201788685D01*
X559884295Y-201883923D01*
X559789057Y-201979161D01*
X559646200Y-202026780D01*
X559408104Y-202026780D01*
X560360485Y-201122019D02*
X560408104Y-201074400D01*
X560503342Y-201026780D01*
X560741438Y-201026780D01*
X560836676Y-201074400D01*
X560884295Y-201122019D01*
X560931914Y-201217257D01*
X560931914Y-201312495D01*
X560884295Y-201455352D01*
X560312866Y-202026780D01*
X560931914Y-202026780D01*
%TO.C,D1*%
X559382704Y-230144580D02*
X559382704Y-229144580D01*
X559620800Y-229144580D01*
X559763657Y-229192200D01*
X559858895Y-229287438D01*
X559906514Y-229382676D01*
X559954133Y-229573152D01*
X559954133Y-229716009D01*
X559906514Y-229906485D01*
X559858895Y-230001723D01*
X559763657Y-230096961D01*
X559620800Y-230144580D01*
X559382704Y-230144580D01*
X560906514Y-230144580D02*
X560335085Y-230144580D01*
X560620800Y-230144580D02*
X560620800Y-229144580D01*
X560525561Y-229287438D01*
X560430323Y-229382676D01*
X560335085Y-229430295D01*
%TO.C,C1*%
X558344342Y-221095866D02*
X558391961Y-221143485D01*
X558439580Y-221286342D01*
X558439580Y-221381580D01*
X558391961Y-221524438D01*
X558296723Y-221619676D01*
X558201485Y-221667295D01*
X558011009Y-221714914D01*
X557868152Y-221714914D01*
X557677676Y-221667295D01*
X557582438Y-221619676D01*
X557487200Y-221524438D01*
X557439580Y-221381580D01*
X557439580Y-221286342D01*
X557487200Y-221143485D01*
X557534819Y-221095866D01*
X558439580Y-220143485D02*
X558439580Y-220714914D01*
X558439580Y-220429200D02*
X557439580Y-220429200D01*
X557582438Y-220524438D01*
X557677676Y-220619676D01*
X557725295Y-220714914D01*
%TO.C,C3*%
X544806142Y-184926266D02*
X544853761Y-184973885D01*
X544901380Y-185116742D01*
X544901380Y-185211980D01*
X544853761Y-185354838D01*
X544758523Y-185450076D01*
X544663285Y-185497695D01*
X544472809Y-185545314D01*
X544329952Y-185545314D01*
X544139476Y-185497695D01*
X544044238Y-185450076D01*
X543949000Y-185354838D01*
X543901380Y-185211980D01*
X543901380Y-185116742D01*
X543949000Y-184973885D01*
X543996619Y-184926266D01*
X543901380Y-184592933D02*
X543901380Y-183973885D01*
X544282333Y-184307219D01*
X544282333Y-184164361D01*
X544329952Y-184069123D01*
X544377571Y-184021504D01*
X544472809Y-183973885D01*
X544710904Y-183973885D01*
X544806142Y-184021504D01*
X544853761Y-184069123D01*
X544901380Y-184164361D01*
X544901380Y-184450076D01*
X544853761Y-184545314D01*
X544806142Y-184592933D01*
%TO.C,C2*%
X550648142Y-181014666D02*
X550695761Y-181062285D01*
X550743380Y-181205142D01*
X550743380Y-181300380D01*
X550695761Y-181443238D01*
X550600523Y-181538476D01*
X550505285Y-181586095D01*
X550314809Y-181633714D01*
X550171952Y-181633714D01*
X549981476Y-181586095D01*
X549886238Y-181538476D01*
X549791000Y-181443238D01*
X549743380Y-181300380D01*
X549743380Y-181205142D01*
X549791000Y-181062285D01*
X549838619Y-181014666D01*
X549838619Y-180633714D02*
X549791000Y-180586095D01*
X549743380Y-180490857D01*
X549743380Y-180252761D01*
X549791000Y-180157523D01*
X549838619Y-180109904D01*
X549933857Y-180062285D01*
X550029095Y-180062285D01*
X550171952Y-180109904D01*
X550743380Y-180681333D01*
X550743380Y-180062285D01*
%TO.C,C15*%
X547907493Y-193726969D02*
X547840149Y-193726969D01*
X547705462Y-193659625D01*
X547638119Y-193592282D01*
X547570775Y-193457595D01*
X547570775Y-193322908D01*
X547604447Y-193221893D01*
X547705462Y-193053534D01*
X547806477Y-192952519D01*
X547974836Y-192851503D01*
X548075851Y-192817832D01*
X548210538Y-192817832D01*
X548345225Y-192885175D01*
X548412569Y-192952519D01*
X548479912Y-193087206D01*
X548479912Y-193154549D01*
X548513584Y-194467748D02*
X548109523Y-194063687D01*
X548311554Y-194265717D02*
X549018661Y-193558610D01*
X548850302Y-193592282D01*
X548715615Y-193592282D01*
X548614600Y-193558610D01*
X549860454Y-194400404D02*
X549523737Y-194063687D01*
X549153348Y-194366732D01*
X549220691Y-194366732D01*
X549321706Y-194400404D01*
X549490065Y-194568763D01*
X549523737Y-194669778D01*
X549523737Y-194737122D01*
X549490065Y-194838137D01*
X549321706Y-195006496D01*
X549220691Y-195040167D01*
X549153348Y-195040167D01*
X549052332Y-195006496D01*
X548883974Y-194838137D01*
X548850302Y-194737122D01*
X548850302Y-194669778D01*
%TO.C,C14*%
X557963342Y-211031057D02*
X558010961Y-211078676D01*
X558058580Y-211221533D01*
X558058580Y-211316771D01*
X558010961Y-211459628D01*
X557915723Y-211554866D01*
X557820485Y-211602485D01*
X557630009Y-211650104D01*
X557487152Y-211650104D01*
X557296676Y-211602485D01*
X557201438Y-211554866D01*
X557106200Y-211459628D01*
X557058580Y-211316771D01*
X557058580Y-211221533D01*
X557106200Y-211078676D01*
X557153819Y-211031057D01*
X558058580Y-210078676D02*
X558058580Y-210650104D01*
X558058580Y-210364390D02*
X557058580Y-210364390D01*
X557201438Y-210459628D01*
X557296676Y-210554866D01*
X557344295Y-210650104D01*
X557391914Y-209221533D02*
X558058580Y-209221533D01*
X557010961Y-209459628D02*
X557725247Y-209697723D01*
X557725247Y-209078676D01*
%TO.C,C13*%
X533985742Y-206636857D02*
X534033361Y-206684476D01*
X534080980Y-206827333D01*
X534080980Y-206922571D01*
X534033361Y-207065428D01*
X533938123Y-207160666D01*
X533842885Y-207208285D01*
X533652409Y-207255904D01*
X533509552Y-207255904D01*
X533319076Y-207208285D01*
X533223838Y-207160666D01*
X533128600Y-207065428D01*
X533080980Y-206922571D01*
X533080980Y-206827333D01*
X533128600Y-206684476D01*
X533176219Y-206636857D01*
X534080980Y-205684476D02*
X534080980Y-206255904D01*
X534080980Y-205970190D02*
X533080980Y-205970190D01*
X533223838Y-206065428D01*
X533319076Y-206160666D01*
X533366695Y-206255904D01*
X533080980Y-205351142D02*
X533080980Y-204732095D01*
X533461933Y-205065428D01*
X533461933Y-204922571D01*
X533509552Y-204827333D01*
X533557171Y-204779714D01*
X533652409Y-204732095D01*
X533890504Y-204732095D01*
X533985742Y-204779714D01*
X534033361Y-204827333D01*
X534080980Y-204922571D01*
X534080980Y-205208285D01*
X534033361Y-205303523D01*
X533985742Y-205351142D01*
%TO.C,C12*%
X543995893Y-193015768D02*
X543928549Y-193015768D01*
X543793862Y-192948424D01*
X543726519Y-192881081D01*
X543659175Y-192746394D01*
X543659175Y-192611707D01*
X543692847Y-192510692D01*
X543793862Y-192342333D01*
X543894877Y-192241318D01*
X544063236Y-192140302D01*
X544164251Y-192106631D01*
X544298938Y-192106631D01*
X544433625Y-192173974D01*
X544500969Y-192241318D01*
X544568312Y-192376005D01*
X544568312Y-192443348D01*
X544601984Y-193756547D02*
X544197923Y-193352486D01*
X544399954Y-193554516D02*
X545107061Y-192847409D01*
X544938702Y-192881081D01*
X544804015Y-192881081D01*
X544703000Y-192847409D01*
X545511122Y-193386157D02*
X545578465Y-193386157D01*
X545679480Y-193419829D01*
X545847839Y-193588188D01*
X545881511Y-193689203D01*
X545881511Y-193756547D01*
X545847839Y-193857562D01*
X545780496Y-193924905D01*
X545645809Y-193992249D01*
X544837687Y-193992249D01*
X545275419Y-194429982D01*
%TO.C,C5*%
X555245542Y-219216266D02*
X555293161Y-219263885D01*
X555340780Y-219406742D01*
X555340780Y-219501980D01*
X555293161Y-219644838D01*
X555197923Y-219740076D01*
X555102685Y-219787695D01*
X554912209Y-219835314D01*
X554769352Y-219835314D01*
X554578876Y-219787695D01*
X554483638Y-219740076D01*
X554388400Y-219644838D01*
X554340780Y-219501980D01*
X554340780Y-219406742D01*
X554388400Y-219263885D01*
X554436019Y-219216266D01*
X554340780Y-218311504D02*
X554340780Y-218787695D01*
X554816971Y-218835314D01*
X554769352Y-218787695D01*
X554721733Y-218692457D01*
X554721733Y-218454361D01*
X554769352Y-218359123D01*
X554816971Y-218311504D01*
X554912209Y-218263885D01*
X555150304Y-218263885D01*
X555245542Y-218311504D01*
X555293161Y-218359123D01*
X555340780Y-218454361D01*
X555340780Y-218692457D01*
X555293161Y-218787695D01*
X555245542Y-218835314D01*
%TO.C,C4*%
X556490142Y-219190866D02*
X556537761Y-219238485D01*
X556585380Y-219381342D01*
X556585380Y-219476580D01*
X556537761Y-219619438D01*
X556442523Y-219714676D01*
X556347285Y-219762295D01*
X556156809Y-219809914D01*
X556013952Y-219809914D01*
X555823476Y-219762295D01*
X555728238Y-219714676D01*
X555633000Y-219619438D01*
X555585380Y-219476580D01*
X555585380Y-219381342D01*
X555633000Y-219238485D01*
X555680619Y-219190866D01*
X555918714Y-218333723D02*
X556585380Y-218333723D01*
X555537761Y-218571819D02*
X556252047Y-218809914D01*
X556252047Y-218190866D01*
%TO.C,C11*%
X542520142Y-220835457D02*
X542567761Y-220883076D01*
X542615380Y-221025933D01*
X542615380Y-221121171D01*
X542567761Y-221264028D01*
X542472523Y-221359266D01*
X542377285Y-221406885D01*
X542186809Y-221454504D01*
X542043952Y-221454504D01*
X541853476Y-221406885D01*
X541758238Y-221359266D01*
X541663000Y-221264028D01*
X541615380Y-221121171D01*
X541615380Y-221025933D01*
X541663000Y-220883076D01*
X541710619Y-220835457D01*
X542615380Y-219883076D02*
X542615380Y-220454504D01*
X542615380Y-220168790D02*
X541615380Y-220168790D01*
X541758238Y-220264028D01*
X541853476Y-220359266D01*
X541901095Y-220454504D01*
X542615380Y-218930695D02*
X542615380Y-219502123D01*
X542615380Y-219216409D02*
X541615380Y-219216409D01*
X541758238Y-219311647D01*
X541853476Y-219406885D01*
X541901095Y-219502123D01*
%TO.C,C10*%
X556413942Y-207398857D02*
X556461561Y-207446476D01*
X556509180Y-207589333D01*
X556509180Y-207684571D01*
X556461561Y-207827428D01*
X556366323Y-207922666D01*
X556271085Y-207970285D01*
X556080609Y-208017904D01*
X555937752Y-208017904D01*
X555747276Y-207970285D01*
X555652038Y-207922666D01*
X555556800Y-207827428D01*
X555509180Y-207684571D01*
X555509180Y-207589333D01*
X555556800Y-207446476D01*
X555604419Y-207398857D01*
X556509180Y-206446476D02*
X556509180Y-207017904D01*
X556509180Y-206732190D02*
X555509180Y-206732190D01*
X555652038Y-206827428D01*
X555747276Y-206922666D01*
X555794895Y-207017904D01*
X555509180Y-205827428D02*
X555509180Y-205732190D01*
X555556800Y-205636952D01*
X555604419Y-205589333D01*
X555699657Y-205541714D01*
X555890133Y-205494095D01*
X556128228Y-205494095D01*
X556318704Y-205541714D01*
X556413942Y-205589333D01*
X556461561Y-205636952D01*
X556509180Y-205732190D01*
X556509180Y-205827428D01*
X556461561Y-205922666D01*
X556413942Y-205970285D01*
X556318704Y-206017904D01*
X556128228Y-206065523D01*
X555890133Y-206065523D01*
X555699657Y-206017904D01*
X555604419Y-205970285D01*
X555556800Y-205922666D01*
X555509180Y-205827428D01*
%TO.C,C9*%
X534808133Y-210288142D02*
X534760514Y-210335761D01*
X534617657Y-210383380D01*
X534522419Y-210383380D01*
X534379561Y-210335761D01*
X534284323Y-210240523D01*
X534236704Y-210145285D01*
X534189085Y-209954809D01*
X534189085Y-209811952D01*
X534236704Y-209621476D01*
X534284323Y-209526238D01*
X534379561Y-209431000D01*
X534522419Y-209383380D01*
X534617657Y-209383380D01*
X534760514Y-209431000D01*
X534808133Y-209478619D01*
X535284323Y-210383380D02*
X535474800Y-210383380D01*
X535570038Y-210335761D01*
X535617657Y-210288142D01*
X535712895Y-210145285D01*
X535760514Y-209954809D01*
X535760514Y-209573857D01*
X535712895Y-209478619D01*
X535665276Y-209431000D01*
X535570038Y-209383380D01*
X535379561Y-209383380D01*
X535284323Y-209431000D01*
X535236704Y-209478619D01*
X535189085Y-209573857D01*
X535189085Y-209811952D01*
X535236704Y-209907190D01*
X535284323Y-209954809D01*
X535379561Y-210002428D01*
X535570038Y-210002428D01*
X535665276Y-209954809D01*
X535712895Y-209907190D01*
X535760514Y-209811952D01*
%TO.C,C8*%
X536306210Y-212656487D02*
X536238867Y-212656487D01*
X536104180Y-212589143D01*
X536036836Y-212521800D01*
X535969493Y-212387112D01*
X535969493Y-212252425D01*
X536003164Y-212151410D01*
X536104180Y-211983051D01*
X536205195Y-211882036D01*
X536373554Y-211781021D01*
X536474569Y-211747349D01*
X536609256Y-211747349D01*
X536743943Y-211814693D01*
X536811287Y-211882036D01*
X536878630Y-212016723D01*
X536878630Y-212084067D01*
X537046989Y-212723830D02*
X537013317Y-212622815D01*
X537013317Y-212555471D01*
X537046989Y-212454456D01*
X537080661Y-212420784D01*
X537181676Y-212387112D01*
X537249019Y-212387112D01*
X537350035Y-212420784D01*
X537484722Y-212555471D01*
X537518393Y-212656487D01*
X537518393Y-212723830D01*
X537484722Y-212824845D01*
X537451050Y-212858517D01*
X537350035Y-212892189D01*
X537282691Y-212892189D01*
X537181676Y-212858517D01*
X537046989Y-212723830D01*
X536945974Y-212690158D01*
X536878630Y-212690158D01*
X536777615Y-212723830D01*
X536642928Y-212858517D01*
X536609256Y-212959532D01*
X536609256Y-213026876D01*
X536642928Y-213127891D01*
X536777615Y-213262578D01*
X536878630Y-213296250D01*
X536945974Y-213296250D01*
X537046989Y-213262578D01*
X537181676Y-213127891D01*
X537215348Y-213026876D01*
X537215348Y-212959532D01*
X537181676Y-212858517D01*
%TO.C,C7*%
X549137731Y-218690833D02*
X549137731Y-218758176D01*
X549070387Y-218892863D01*
X549003044Y-218960207D01*
X548868356Y-219027550D01*
X548733669Y-219027550D01*
X548632654Y-218993879D01*
X548464295Y-218892863D01*
X548363280Y-218791848D01*
X548262265Y-218623489D01*
X548228593Y-218522474D01*
X548228593Y-218387787D01*
X548295937Y-218253100D01*
X548363280Y-218185756D01*
X548497967Y-218118413D01*
X548565311Y-218118413D01*
X548733669Y-217815367D02*
X549205074Y-217343963D01*
X549609135Y-218354115D01*
%TO.C,C6*%
X545399410Y-219997087D02*
X545332067Y-219997087D01*
X545197380Y-219929743D01*
X545130036Y-219862400D01*
X545062693Y-219727712D01*
X545062693Y-219593025D01*
X545096364Y-219492010D01*
X545197380Y-219323651D01*
X545298395Y-219222636D01*
X545466754Y-219121621D01*
X545567769Y-219087949D01*
X545702456Y-219087949D01*
X545837143Y-219155293D01*
X545904487Y-219222636D01*
X545971830Y-219357323D01*
X545971830Y-219424667D01*
X546645265Y-219963415D02*
X546510578Y-219828728D01*
X546409563Y-219795056D01*
X546342219Y-219795056D01*
X546173861Y-219828728D01*
X546005502Y-219929743D01*
X545736128Y-220199117D01*
X545702456Y-220300132D01*
X545702456Y-220367476D01*
X545736128Y-220468491D01*
X545870815Y-220603178D01*
X545971830Y-220636850D01*
X546039174Y-220636850D01*
X546140189Y-220603178D01*
X546308548Y-220434819D01*
X546342219Y-220333804D01*
X546342219Y-220266461D01*
X546308548Y-220165445D01*
X546173861Y-220030758D01*
X546072845Y-219997087D01*
X546005502Y-219997087D01*
X545904487Y-220030758D01*
%TO.C,R10*%
X553842180Y-190431657D02*
X553365990Y-190764990D01*
X553842180Y-191003085D02*
X552842180Y-191003085D01*
X552842180Y-190622133D01*
X552889800Y-190526895D01*
X552937419Y-190479276D01*
X553032657Y-190431657D01*
X553175514Y-190431657D01*
X553270752Y-190479276D01*
X553318371Y-190526895D01*
X553365990Y-190622133D01*
X553365990Y-191003085D01*
X553842180Y-189479276D02*
X553842180Y-190050704D01*
X553842180Y-189764990D02*
X552842180Y-189764990D01*
X552985038Y-189860228D01*
X553080276Y-189955466D01*
X553127895Y-190050704D01*
X552842180Y-188860228D02*
X552842180Y-188764990D01*
X552889800Y-188669752D01*
X552937419Y-188622133D01*
X553032657Y-188574514D01*
X553223133Y-188526895D01*
X553461228Y-188526895D01*
X553651704Y-188574514D01*
X553746942Y-188622133D01*
X553794561Y-188669752D01*
X553842180Y-188764990D01*
X553842180Y-188860228D01*
X553794561Y-188955466D01*
X553746942Y-189003085D01*
X553651704Y-189050704D01*
X553461228Y-189098323D01*
X553223133Y-189098323D01*
X553032657Y-189050704D01*
X552937419Y-189003085D01*
X552889800Y-188955466D01*
X552842180Y-188860228D01*
%TO.C,R9*%
X553121533Y-224683580D02*
X552788200Y-224207390D01*
X552550104Y-224683580D02*
X552550104Y-223683580D01*
X552931057Y-223683580D01*
X553026295Y-223731200D01*
X553073914Y-223778819D01*
X553121533Y-223874057D01*
X553121533Y-224016914D01*
X553073914Y-224112152D01*
X553026295Y-224159771D01*
X552931057Y-224207390D01*
X552550104Y-224207390D01*
X553597723Y-224683580D02*
X553788200Y-224683580D01*
X553883438Y-224635961D01*
X553931057Y-224588342D01*
X554026295Y-224445485D01*
X554073914Y-224255009D01*
X554073914Y-223874057D01*
X554026295Y-223778819D01*
X553978676Y-223731200D01*
X553883438Y-223683580D01*
X553692961Y-223683580D01*
X553597723Y-223731200D01*
X553550104Y-223778819D01*
X553502485Y-223874057D01*
X553502485Y-224112152D01*
X553550104Y-224207390D01*
X553597723Y-224255009D01*
X553692961Y-224302628D01*
X553883438Y-224302628D01*
X553978676Y-224255009D01*
X554026295Y-224207390D01*
X554073914Y-224112152D01*
%TO.C,R8*%
X536468580Y-179947866D02*
X535992390Y-180281200D01*
X536468580Y-180519295D02*
X535468580Y-180519295D01*
X535468580Y-180138342D01*
X535516200Y-180043104D01*
X535563819Y-179995485D01*
X535659057Y-179947866D01*
X535801914Y-179947866D01*
X535897152Y-179995485D01*
X535944771Y-180043104D01*
X535992390Y-180138342D01*
X535992390Y-180519295D01*
X535897152Y-179376438D02*
X535849533Y-179471676D01*
X535801914Y-179519295D01*
X535706676Y-179566914D01*
X535659057Y-179566914D01*
X535563819Y-179519295D01*
X535516200Y-179471676D01*
X535468580Y-179376438D01*
X535468580Y-179185961D01*
X535516200Y-179090723D01*
X535563819Y-179043104D01*
X535659057Y-178995485D01*
X535706676Y-178995485D01*
X535801914Y-179043104D01*
X535849533Y-179090723D01*
X535897152Y-179185961D01*
X535897152Y-179376438D01*
X535944771Y-179471676D01*
X535992390Y-179519295D01*
X536087628Y-179566914D01*
X536278104Y-179566914D01*
X536373342Y-179519295D01*
X536420961Y-179471676D01*
X536468580Y-179376438D01*
X536468580Y-179185961D01*
X536420961Y-179090723D01*
X536373342Y-179043104D01*
X536278104Y-178995485D01*
X536087628Y-178995485D01*
X535992390Y-179043104D01*
X535944771Y-179090723D01*
X535897152Y-179185961D01*
%TO.C,R5*%
X544647380Y-168314666D02*
X544171190Y-168648000D01*
X544647380Y-168886095D02*
X543647380Y-168886095D01*
X543647380Y-168505142D01*
X543695000Y-168409904D01*
X543742619Y-168362285D01*
X543837857Y-168314666D01*
X543980714Y-168314666D01*
X544075952Y-168362285D01*
X544123571Y-168409904D01*
X544171190Y-168505142D01*
X544171190Y-168886095D01*
X543647380Y-167409904D02*
X543647380Y-167886095D01*
X544123571Y-167933714D01*
X544075952Y-167886095D01*
X544028333Y-167790857D01*
X544028333Y-167552761D01*
X544075952Y-167457523D01*
X544123571Y-167409904D01*
X544218809Y-167362285D01*
X544456904Y-167362285D01*
X544552142Y-167409904D01*
X544599761Y-167457523D01*
X544647380Y-167552761D01*
X544647380Y-167790857D01*
X544599761Y-167886095D01*
X544552142Y-167933714D01*
%TO.C,FB2*%
X551591171Y-221178333D02*
X551591171Y-221511666D01*
X552114980Y-221511666D02*
X551114980Y-221511666D01*
X551114980Y-221035476D01*
X551591171Y-220321190D02*
X551638790Y-220178333D01*
X551686409Y-220130714D01*
X551781647Y-220083095D01*
X551924504Y-220083095D01*
X552019742Y-220130714D01*
X552067361Y-220178333D01*
X552114980Y-220273571D01*
X552114980Y-220654523D01*
X551114980Y-220654523D01*
X551114980Y-220321190D01*
X551162600Y-220225952D01*
X551210219Y-220178333D01*
X551305457Y-220130714D01*
X551400695Y-220130714D01*
X551495933Y-220178333D01*
X551543552Y-220225952D01*
X551591171Y-220321190D01*
X551591171Y-220654523D01*
X551210219Y-219702142D02*
X551162600Y-219654523D01*
X551114980Y-219559285D01*
X551114980Y-219321190D01*
X551162600Y-219225952D01*
X551210219Y-219178333D01*
X551305457Y-219130714D01*
X551400695Y-219130714D01*
X551543552Y-219178333D01*
X552114980Y-219749761D01*
X552114980Y-219130714D01*
%TO.C,F1*%
X548517771Y-186134333D02*
X548517771Y-186467666D01*
X549041580Y-186467666D02*
X548041580Y-186467666D01*
X548041580Y-185991476D01*
X549041580Y-185086714D02*
X549041580Y-185658142D01*
X549041580Y-185372428D02*
X548041580Y-185372428D01*
X548184438Y-185467666D01*
X548279676Y-185562904D01*
X548327295Y-185658142D01*
%TO.C,C17*%
X539065369Y-220594906D02*
X539065369Y-220662250D01*
X538998025Y-220796937D01*
X538930682Y-220864280D01*
X538795995Y-220931624D01*
X538661308Y-220931624D01*
X538560293Y-220897952D01*
X538391934Y-220796937D01*
X538290919Y-220695922D01*
X538189903Y-220527563D01*
X538156232Y-220426548D01*
X538156232Y-220291861D01*
X538223575Y-220157174D01*
X538290919Y-220089830D01*
X538425606Y-220022487D01*
X538492949Y-220022487D01*
X539806148Y-219988815D02*
X539402087Y-220392876D01*
X539604117Y-220190845D02*
X538897010Y-219483738D01*
X538930682Y-219652097D01*
X538930682Y-219786784D01*
X538897010Y-219887799D01*
X539334743Y-219046006D02*
X539806148Y-218574601D01*
X540210209Y-219584754D01*
%TO.C,U2*%
X538824026Y-198779522D02*
X539396446Y-199351942D01*
X539497461Y-199385614D01*
X539564805Y-199385614D01*
X539665820Y-199351942D01*
X539800507Y-199217255D01*
X539834179Y-199116240D01*
X539834179Y-199048896D01*
X539800507Y-198947881D01*
X539228087Y-198375461D01*
X539598477Y-198139759D02*
X539598477Y-198072416D01*
X539632148Y-197971400D01*
X539800507Y-197803042D01*
X539901522Y-197769370D01*
X539968866Y-197769370D01*
X540069881Y-197803042D01*
X540137225Y-197870385D01*
X540204568Y-198005072D01*
X540204568Y-198813194D01*
X540642301Y-198375461D01*
%TD*%
M02*
