%TF.GenerationSoftware,KiCad,Pcbnew,(5.1.9)-1*%
%TF.CreationDate,2021-03-10T22:07:46+01:00*%
%TF.ProjectId,poly_kb,706f6c79-5f6b-4622-9e6b-696361645f70,rev?*%
%TF.SameCoordinates,Original*%
%TF.FileFunction,Other,Fab,Top*%
%FSLAX46Y46*%
G04 Gerber Fmt 4.6, Leading zero omitted, Abs format (unit mm)*
G04 Created by KiCad (PCBNEW (5.1.9)-1) date 2021-03-10 22:07:46*
%MOMM*%
%LPD*%
G01*
G04 APERTURE LIST*
%ADD10C,0.100000*%
%ADD11C,0.150000*%
%ADD12C,0.040000*%
%ADD13C,0.105000*%
%ADD14C,0.075000*%
%ADD15C,0.080000*%
%ADD16C,0.060000*%
%ADD17C,0.120000*%
G04 APERTURE END LIST*
D10*
%TO.C,J12*%
X441960000Y-191008000D02*
X441960000Y-186928000D01*
X441960000Y-186928000D02*
X442960000Y-185928000D01*
X442960000Y-185928000D02*
X492760000Y-185928000D01*
X492760000Y-185928000D02*
X492760000Y-191008000D01*
X492760000Y-191008000D02*
X441960000Y-191008000D01*
%TO.C,J11*%
X511175000Y-160528000D02*
X513080000Y-160528000D01*
X513080000Y-160528000D02*
X513080000Y-191008000D01*
X513080000Y-191008000D02*
X510540000Y-191008000D01*
X510540000Y-191008000D02*
X510540000Y-161163000D01*
X510540000Y-161163000D02*
X511175000Y-160528000D01*
%TO.C,J9*%
X455930000Y-161163000D02*
X456565000Y-160528000D01*
X455930000Y-165608000D02*
X455930000Y-161163000D01*
X458470000Y-165608000D02*
X455930000Y-165608000D01*
X458470000Y-160528000D02*
X458470000Y-165608000D01*
X456565000Y-160528000D02*
X458470000Y-160528000D01*
%TO.C,J8*%
X558165000Y-172593000D02*
X558165000Y-174498000D01*
X558165000Y-174498000D02*
X553085000Y-174498000D01*
X553085000Y-174498000D02*
X553085000Y-171958000D01*
X553085000Y-171958000D02*
X557530000Y-171958000D01*
X557530000Y-171958000D02*
X558165000Y-172593000D01*
%TO.C,J3*%
X548005000Y-159258000D02*
X548005000Y-163068000D01*
X548005000Y-163068000D02*
X532765000Y-163068000D01*
X532765000Y-163068000D02*
X532765000Y-157988000D01*
X532765000Y-157988000D02*
X546735000Y-157988000D01*
X546735000Y-157988000D02*
X548005000Y-159258000D01*
%TO.C,R12*%
X555794400Y-175320200D02*
X555794400Y-175860200D01*
X555794400Y-175860200D02*
X554744400Y-175860200D01*
X554744400Y-175860200D02*
X554744400Y-175320200D01*
X554744400Y-175320200D02*
X555794400Y-175320200D01*
%TO.C,R7*%
X559960000Y-205724000D02*
X559960000Y-206264000D01*
X559960000Y-206264000D02*
X558910000Y-206264000D01*
X558910000Y-206264000D02*
X558910000Y-205724000D01*
X558910000Y-205724000D02*
X559960000Y-205724000D01*
%TO.C,R6*%
X557420000Y-224901000D02*
X557420000Y-225441000D01*
X557420000Y-225441000D02*
X556370000Y-225441000D01*
X556370000Y-225441000D02*
X556370000Y-224901000D01*
X556370000Y-224901000D02*
X557420000Y-224901000D01*
%TO.C,R3*%
X558910000Y-207534000D02*
X558910000Y-206994000D01*
X558910000Y-206994000D02*
X559960000Y-206994000D01*
X559960000Y-206994000D02*
X559960000Y-207534000D01*
X559960000Y-207534000D02*
X558910000Y-207534000D01*
%TO.C,R1*%
X557673000Y-216552000D02*
X557133000Y-216552000D01*
X557133000Y-216552000D02*
X557133000Y-215502000D01*
X557133000Y-215502000D02*
X557673000Y-215502000D01*
X557673000Y-215502000D02*
X557673000Y-216552000D01*
%TO.C,R13*%
X538146450Y-213997512D02*
X538888912Y-213255050D01*
X538528288Y-214379350D02*
X538146450Y-213997512D01*
X539270750Y-213636888D02*
X538528288Y-214379350D01*
X538888912Y-213255050D02*
X539270750Y-213636888D01*
%TO.C,C16*%
X534946330Y-213310223D02*
X534239223Y-214017330D01*
X534592777Y-212956670D02*
X534946330Y-213310223D01*
X533885670Y-213663777D02*
X534592777Y-212956670D01*
X534239223Y-214017330D02*
X533885670Y-213663777D01*
%TO.C,Y1*%
X536073513Y-213376746D02*
X534305746Y-215144513D01*
X534305746Y-215144513D02*
X536568487Y-217407254D01*
X536568487Y-217407254D02*
X538336254Y-215639487D01*
X538336254Y-215639487D02*
X536073513Y-213376746D01*
X535012852Y-214437406D02*
X535012852Y-215851619D01*
%TO.C,U1*%
X543168800Y-181141600D02*
X545618800Y-181141600D01*
X542598800Y-180591600D02*
X542598800Y-179741600D01*
X543168800Y-181141600D02*
X542598800Y-180591600D01*
X542598800Y-179741600D02*
X545638800Y-179741600D01*
X545638800Y-181141600D02*
X545638800Y-179741600D01*
%TO.C,SW3*%
X560939000Y-222416000D02*
X561339000Y-222416000D01*
X561339000Y-222416000D02*
X561639000Y-222816000D01*
X561639000Y-222816000D02*
X561639000Y-223716000D01*
X561639000Y-223716000D02*
X561339000Y-224116000D01*
X561339000Y-224116000D02*
X560939000Y-224116000D01*
X560939000Y-221766000D02*
X560939000Y-224766000D01*
X560939000Y-224766000D02*
X558439000Y-224766000D01*
X558439000Y-224766000D02*
X558439000Y-221766000D01*
X558439000Y-221766000D02*
X560939000Y-221766000D01*
%TO.C,SW2*%
X560939000Y-210224000D02*
X561339000Y-210224000D01*
X561339000Y-210224000D02*
X561639000Y-210624000D01*
X561639000Y-210624000D02*
X561639000Y-211524000D01*
X561639000Y-211524000D02*
X561339000Y-211924000D01*
X561339000Y-211924000D02*
X560939000Y-211924000D01*
X560939000Y-209574000D02*
X560939000Y-212574000D01*
X560939000Y-212574000D02*
X558439000Y-212574000D01*
X558439000Y-212574000D02*
X558439000Y-209574000D01*
X558439000Y-209574000D02*
X560939000Y-209574000D01*
%TO.C,SW1*%
X560939000Y-215177000D02*
X561339000Y-215177000D01*
X561339000Y-215177000D02*
X561639000Y-215577000D01*
X561639000Y-215577000D02*
X561639000Y-216477000D01*
X561639000Y-216477000D02*
X561339000Y-216877000D01*
X561339000Y-216877000D02*
X560939000Y-216877000D01*
X560939000Y-214527000D02*
X560939000Y-217527000D01*
X560939000Y-217527000D02*
X558439000Y-217527000D01*
X558439000Y-217527000D02*
X558439000Y-214527000D01*
X558439000Y-214527000D02*
X560939000Y-214527000D01*
%TO.C,R4*%
X546649400Y-191228200D02*
X546109400Y-191228200D01*
X546109400Y-191228200D02*
X546109400Y-190178200D01*
X546109400Y-190178200D02*
X546649400Y-190178200D01*
X546649400Y-190178200D02*
X546649400Y-191228200D01*
%TO.C,R15*%
X558561000Y-200644000D02*
X558561000Y-201184000D01*
X558561000Y-201184000D02*
X557511000Y-201184000D01*
X557511000Y-201184000D02*
X557511000Y-200644000D01*
X557511000Y-200644000D02*
X558561000Y-200644000D01*
%TO.C,R14*%
X557928000Y-189468000D02*
X557928000Y-190008000D01*
X557928000Y-190008000D02*
X556878000Y-190008000D01*
X556878000Y-190008000D02*
X556878000Y-189468000D01*
X556878000Y-189468000D02*
X557928000Y-189468000D01*
%TO.C,R11*%
X554719000Y-177257200D02*
X554719000Y-176717200D01*
X554719000Y-176717200D02*
X555769000Y-176717200D01*
X555769000Y-176717200D02*
X555769000Y-177257200D01*
X555769000Y-177257200D02*
X554719000Y-177257200D01*
%TO.C,R2*%
X555863000Y-222741000D02*
X556403000Y-222741000D01*
X556403000Y-222741000D02*
X556403000Y-223791000D01*
X556403000Y-223791000D02*
X555863000Y-223791000D01*
X555863000Y-223791000D02*
X555863000Y-222741000D01*
%TO.C,J5*%
X531495000Y-224028000D02*
X527685000Y-224028000D01*
X527685000Y-224028000D02*
X527685000Y-213868000D01*
X527685000Y-213868000D02*
X532765000Y-213868000D01*
X532765000Y-213868000D02*
X532765000Y-222758000D01*
X532765000Y-222758000D02*
X531495000Y-224028000D01*
%TO.C,J6*%
X549275000Y-172593000D02*
X549275000Y-174498000D01*
X549275000Y-174498000D02*
X539115000Y-174498000D01*
X539115000Y-174498000D02*
X539115000Y-171958000D01*
X539115000Y-171958000D02*
X548640000Y-171958000D01*
X548640000Y-171958000D02*
X549275000Y-172593000D01*
%TO.C,J2*%
X554769000Y-178918000D02*
X562069000Y-178918000D01*
X562069000Y-187858000D02*
X562069000Y-178918000D01*
X554769000Y-187858000D02*
X562069000Y-187858000D01*
X554769000Y-187858000D02*
X554769000Y-178918000D01*
%TO.C,FB1*%
X546640600Y-179492400D02*
X547540600Y-179492400D01*
X547540600Y-179492400D02*
X547540600Y-181492400D01*
X547540600Y-181492400D02*
X546640600Y-181492400D01*
X546640600Y-181492400D02*
X546640600Y-179492400D01*
%TO.C,D3*%
X559543000Y-174587000D02*
X559543000Y-175887000D01*
X559543000Y-175887000D02*
X559843000Y-176187000D01*
X559843000Y-176187000D02*
X560343000Y-176187000D01*
X560343000Y-176187000D02*
X560343000Y-174587000D01*
X560343000Y-174587000D02*
X559543000Y-174587000D01*
%TO.C,D2*%
X559670000Y-202781000D02*
X559670000Y-204081000D01*
X559670000Y-204081000D02*
X559970000Y-204381000D01*
X559970000Y-204381000D02*
X560470000Y-204381000D01*
X560470000Y-204381000D02*
X560470000Y-202781000D01*
X560470000Y-202781000D02*
X559670000Y-202781000D01*
%TO.C,D1*%
X560470000Y-228638000D02*
X560470000Y-227338000D01*
X560470000Y-227338000D02*
X560170000Y-227038000D01*
X560170000Y-227038000D02*
X559670000Y-227038000D01*
X559670000Y-227038000D02*
X559670000Y-228638000D01*
X559670000Y-228638000D02*
X560470000Y-228638000D01*
%TO.C,C1*%
X557653000Y-223766000D02*
X557153000Y-223766000D01*
X557153000Y-223766000D02*
X557153000Y-222766000D01*
X557153000Y-222766000D02*
X557653000Y-222766000D01*
X557653000Y-222766000D02*
X557653000Y-223766000D01*
%TO.C,C3*%
X545101400Y-182985600D02*
X545101400Y-183485600D01*
X545101400Y-183485600D02*
X544101400Y-183485600D01*
X544101400Y-183485600D02*
X544101400Y-182985600D01*
X544101400Y-182985600D02*
X545101400Y-182985600D01*
%TO.C,C2*%
X549283000Y-179701000D02*
X549283000Y-179201000D01*
X549283000Y-179201000D02*
X550283000Y-179201000D01*
X550283000Y-179201000D02*
X550283000Y-179701000D01*
X550283000Y-179701000D02*
X549283000Y-179701000D01*
%TO.C,C15*%
X548751928Y-195634243D02*
X548186243Y-196199928D01*
X548186243Y-196199928D02*
X547054872Y-195068557D01*
X547054872Y-195068557D02*
X547620557Y-194502872D01*
X547620557Y-194502872D02*
X548751928Y-195634243D01*
%TO.C,C14*%
X555987000Y-210020000D02*
X556787000Y-210020000D01*
X556787000Y-210020000D02*
X556787000Y-211620000D01*
X556787000Y-211620000D02*
X555987000Y-211620000D01*
X555987000Y-211620000D02*
X555987000Y-210020000D01*
%TO.C,C13*%
X534539000Y-204233400D02*
X534039000Y-204233400D01*
X534039000Y-204233400D02*
X534039000Y-203233400D01*
X534039000Y-203233400D02*
X534539000Y-203233400D01*
X534539000Y-203233400D02*
X534539000Y-204233400D01*
%TO.C,C12*%
X546300130Y-195629777D02*
X545946577Y-195983330D01*
X545946577Y-195983330D02*
X545239470Y-195276223D01*
X545239470Y-195276223D02*
X545593023Y-194922670D01*
X545593023Y-194922670D02*
X546300130Y-195629777D01*
%TO.C,C5*%
X555062200Y-221505400D02*
X554562200Y-221505400D01*
X554562200Y-221505400D02*
X554562200Y-220505400D01*
X554562200Y-220505400D02*
X555062200Y-220505400D01*
X555062200Y-220505400D02*
X555062200Y-221505400D01*
%TO.C,C4*%
X556205200Y-221505400D02*
X555705200Y-221505400D01*
X555705200Y-221505400D02*
X555705200Y-220505400D01*
X555705200Y-220505400D02*
X556205200Y-220505400D01*
X556205200Y-220505400D02*
X556205200Y-221505400D01*
%TO.C,C11*%
X541405000Y-216162000D02*
X541905000Y-216162000D01*
X541905000Y-216162000D02*
X541905000Y-217162000D01*
X541905000Y-217162000D02*
X541405000Y-217162000D01*
X541405000Y-217162000D02*
X541405000Y-216162000D01*
%TO.C,C10*%
X557272000Y-207814800D02*
X556772000Y-207814800D01*
X556772000Y-207814800D02*
X556772000Y-206814800D01*
X556772000Y-206814800D02*
X557272000Y-206814800D01*
X557272000Y-206814800D02*
X557272000Y-207814800D01*
%TO.C,C9*%
X535805000Y-210824000D02*
X535805000Y-211324000D01*
X535805000Y-211324000D02*
X534805000Y-211324000D01*
X534805000Y-211324000D02*
X534805000Y-210824000D01*
X534805000Y-210824000D02*
X535805000Y-210824000D01*
%TO.C,C8*%
X537952741Y-212098188D02*
X537599188Y-212451741D01*
X537599188Y-212451741D02*
X536892081Y-211744634D01*
X536892081Y-211744634D02*
X537245634Y-211391081D01*
X537245634Y-211391081D02*
X537952741Y-212098188D01*
%TO.C,C7*%
X548359577Y-216969870D02*
X548713130Y-217323423D01*
X548713130Y-217323423D02*
X548006023Y-218030530D01*
X548006023Y-218030530D02*
X547652470Y-217676977D01*
X547652470Y-217676977D02*
X548359577Y-216969870D01*
%TO.C,C6*%
X545440064Y-218040949D02*
X546005749Y-217475264D01*
X546005749Y-217475264D02*
X547137120Y-218606635D01*
X547137120Y-218606635D02*
X546571435Y-219172320D01*
X546571435Y-219172320D02*
X545440064Y-218040949D01*
%TO.C,R10*%
X554717000Y-190008000D02*
X554717000Y-189468000D01*
X554717000Y-189468000D02*
X555767000Y-189468000D01*
X555767000Y-189468000D02*
X555767000Y-190008000D01*
X555767000Y-190008000D02*
X554717000Y-190008000D01*
%TO.C,R9*%
X555006000Y-223791000D02*
X554466000Y-223791000D01*
X554466000Y-223791000D02*
X554466000Y-222741000D01*
X554466000Y-222741000D02*
X555006000Y-222741000D01*
X555006000Y-222741000D02*
X555006000Y-223791000D01*
%TO.C,R8*%
X536311600Y-178299600D02*
X535771600Y-178299600D01*
X535771600Y-178299600D02*
X535771600Y-177249600D01*
X535771600Y-177249600D02*
X536311600Y-177249600D01*
X536311600Y-177249600D02*
X536311600Y-178299600D01*
%TO.C,R5*%
X544566600Y-170832000D02*
X544026600Y-170832000D01*
X544026600Y-170832000D02*
X544026600Y-169782000D01*
X544026600Y-169782000D02*
X544566600Y-169782000D01*
X544566600Y-169782000D02*
X544566600Y-170832000D01*
%TO.C,J4*%
X558165000Y-227203000D02*
X558165000Y-229108000D01*
X558165000Y-229108000D02*
X527685000Y-229108000D01*
X527685000Y-229108000D02*
X527685000Y-226568000D01*
X527685000Y-226568000D02*
X557530000Y-226568000D01*
X557530000Y-226568000D02*
X558165000Y-227203000D01*
%TO.C,FB2*%
X552863600Y-221046800D02*
X553763600Y-221046800D01*
X553763600Y-221046800D02*
X553763600Y-223046800D01*
X553763600Y-223046800D02*
X552863600Y-223046800D01*
X552863600Y-223046800D02*
X552863600Y-221046800D01*
%TO.C,F1*%
X546887600Y-184518200D02*
X546887600Y-182918200D01*
X546887600Y-182918200D02*
X550087600Y-182918200D01*
X550087600Y-182918200D02*
X550087600Y-184518200D01*
X550087600Y-184518200D02*
X546887600Y-184518200D01*
%TO.C,C17*%
X538402777Y-216766670D02*
X538756330Y-217120223D01*
X538756330Y-217120223D02*
X538049223Y-217827330D01*
X538049223Y-217827330D02*
X537695670Y-217473777D01*
X537695670Y-217473777D02*
X538402777Y-216766670D01*
%TO.C,U2*%
X536238657Y-205955848D02*
X545431045Y-196763460D01*
X545431045Y-196763460D02*
X555330540Y-206662955D01*
X555330540Y-206662955D02*
X545431045Y-216562450D01*
X545431045Y-216562450D02*
X536238657Y-207370062D01*
X536238657Y-207370062D02*
X536238657Y-205955848D01*
%TD*%
%TO.C,J12*%
D11*
X494331428Y-186396571D02*
X494283809Y-186539428D01*
X494236190Y-186587047D01*
X494140952Y-186634666D01*
X493998095Y-186634666D01*
X493902857Y-186587047D01*
X493855238Y-186539428D01*
X493807619Y-186444190D01*
X493807619Y-186063238D01*
X494807619Y-186063238D01*
X494807619Y-186396571D01*
X494760000Y-186491809D01*
X494712380Y-186539428D01*
X494617142Y-186587047D01*
X494521904Y-186587047D01*
X494426666Y-186539428D01*
X494379047Y-186491809D01*
X494331428Y-186396571D01*
X494331428Y-186063238D01*
X493807619Y-187206095D02*
X493855238Y-187110857D01*
X493902857Y-187063238D01*
X493998095Y-187015619D01*
X494283809Y-187015619D01*
X494379047Y-187063238D01*
X494426666Y-187110857D01*
X494474285Y-187206095D01*
X494474285Y-187348952D01*
X494426666Y-187444190D01*
X494379047Y-187491809D01*
X494283809Y-187539428D01*
X493998095Y-187539428D01*
X493902857Y-187491809D01*
X493855238Y-187444190D01*
X493807619Y-187348952D01*
X493807619Y-187206095D01*
X494474285Y-187825142D02*
X494474285Y-188206095D01*
X494807619Y-187968000D02*
X493950476Y-187968000D01*
X493855238Y-188015619D01*
X493807619Y-188110857D01*
X493807619Y-188206095D01*
X494474285Y-188396571D02*
X494474285Y-188777523D01*
X494807619Y-188539428D02*
X493950476Y-188539428D01*
X493855238Y-188587047D01*
X493807619Y-188682285D01*
X493807619Y-188777523D01*
X493807619Y-189253714D02*
X493855238Y-189158476D01*
X493902857Y-189110857D01*
X493998095Y-189063238D01*
X494283809Y-189063238D01*
X494379047Y-189110857D01*
X494426666Y-189158476D01*
X494474285Y-189253714D01*
X494474285Y-189396571D01*
X494426666Y-189491809D01*
X494379047Y-189539428D01*
X494283809Y-189587047D01*
X493998095Y-189587047D01*
X493902857Y-189539428D01*
X493855238Y-189491809D01*
X493807619Y-189396571D01*
X493807619Y-189253714D01*
X493807619Y-190015619D02*
X494474285Y-190015619D01*
X494379047Y-190015619D02*
X494426666Y-190063238D01*
X494474285Y-190158476D01*
X494474285Y-190301333D01*
X494426666Y-190396571D01*
X494331428Y-190444190D01*
X493807619Y-190444190D01*
X494331428Y-190444190D02*
X494426666Y-190491809D01*
X494474285Y-190587047D01*
X494474285Y-190729904D01*
X494426666Y-190825142D01*
X494331428Y-190872761D01*
X493807619Y-190872761D01*
X466550476Y-187920380D02*
X466550476Y-188634666D01*
X466502857Y-188777523D01*
X466407619Y-188872761D01*
X466264761Y-188920380D01*
X466169523Y-188920380D01*
X467550476Y-188920380D02*
X466979047Y-188920380D01*
X467264761Y-188920380D02*
X467264761Y-187920380D01*
X467169523Y-188063238D01*
X467074285Y-188158476D01*
X466979047Y-188206095D01*
X467931428Y-188015619D02*
X467979047Y-187968000D01*
X468074285Y-187920380D01*
X468312380Y-187920380D01*
X468407619Y-187968000D01*
X468455238Y-188015619D01*
X468502857Y-188110857D01*
X468502857Y-188206095D01*
X468455238Y-188348952D01*
X467883809Y-188920380D01*
X468502857Y-188920380D01*
%TO.C,J11*%
X510690952Y-192520380D02*
X510357619Y-192044190D01*
X510119523Y-192520380D02*
X510119523Y-191520380D01*
X510500476Y-191520380D01*
X510595714Y-191568000D01*
X510643333Y-191615619D01*
X510690952Y-191710857D01*
X510690952Y-191853714D01*
X510643333Y-191948952D01*
X510595714Y-191996571D01*
X510500476Y-192044190D01*
X510119523Y-192044190D01*
X511119523Y-192520380D02*
X511119523Y-191853714D01*
X511119523Y-191520380D02*
X511071904Y-191568000D01*
X511119523Y-191615619D01*
X511167142Y-191568000D01*
X511119523Y-191520380D01*
X511119523Y-191615619D01*
X512024285Y-191853714D02*
X512024285Y-192663238D01*
X511976666Y-192758476D01*
X511929047Y-192806095D01*
X511833809Y-192853714D01*
X511690952Y-192853714D01*
X511595714Y-192806095D01*
X512024285Y-192472761D02*
X511929047Y-192520380D01*
X511738571Y-192520380D01*
X511643333Y-192472761D01*
X511595714Y-192425142D01*
X511548095Y-192329904D01*
X511548095Y-192044190D01*
X511595714Y-191948952D01*
X511643333Y-191901333D01*
X511738571Y-191853714D01*
X511929047Y-191853714D01*
X512024285Y-191901333D01*
X512500476Y-192520380D02*
X512500476Y-191520380D01*
X512929047Y-192520380D02*
X512929047Y-191996571D01*
X512881428Y-191901333D01*
X512786190Y-191853714D01*
X512643333Y-191853714D01*
X512548095Y-191901333D01*
X512500476Y-191948952D01*
X513262380Y-191853714D02*
X513643333Y-191853714D01*
X513405238Y-191520380D02*
X513405238Y-192377523D01*
X513452857Y-192472761D01*
X513548095Y-192520380D01*
X513643333Y-192520380D01*
X511262380Y-176577523D02*
X511976666Y-176577523D01*
X512119523Y-176625142D01*
X512214761Y-176720380D01*
X512262380Y-176863238D01*
X512262380Y-176958476D01*
X512262380Y-175577523D02*
X512262380Y-176148952D01*
X512262380Y-175863238D02*
X511262380Y-175863238D01*
X511405238Y-175958476D01*
X511500476Y-176053714D01*
X511548095Y-176148952D01*
X512262380Y-174625142D02*
X512262380Y-175196571D01*
X512262380Y-174910857D02*
X511262380Y-174910857D01*
X511405238Y-175006095D01*
X511500476Y-175101333D01*
X511548095Y-175196571D01*
%TO.C,J9*%
X453461904Y-167025142D02*
X453414285Y-167072761D01*
X453271428Y-167120380D01*
X453176190Y-167120380D01*
X453033333Y-167072761D01*
X452938095Y-166977523D01*
X452890476Y-166882285D01*
X452842857Y-166691809D01*
X452842857Y-166548952D01*
X452890476Y-166358476D01*
X452938095Y-166263238D01*
X453033333Y-166168000D01*
X453176190Y-166120380D01*
X453271428Y-166120380D01*
X453414285Y-166168000D01*
X453461904Y-166215619D01*
X454033333Y-167120380D02*
X453938095Y-167072761D01*
X453890476Y-167025142D01*
X453842857Y-166929904D01*
X453842857Y-166644190D01*
X453890476Y-166548952D01*
X453938095Y-166501333D01*
X454033333Y-166453714D01*
X454176190Y-166453714D01*
X454271428Y-166501333D01*
X454319047Y-166548952D01*
X454366666Y-166644190D01*
X454366666Y-166929904D01*
X454319047Y-167025142D01*
X454271428Y-167072761D01*
X454176190Y-167120380D01*
X454033333Y-167120380D01*
X454795238Y-166453714D02*
X454795238Y-167120380D01*
X454795238Y-166548952D02*
X454842857Y-166501333D01*
X454938095Y-166453714D01*
X455080952Y-166453714D01*
X455176190Y-166501333D01*
X455223809Y-166596571D01*
X455223809Y-167120380D01*
X455700000Y-166453714D02*
X455700000Y-167120380D01*
X455700000Y-166548952D02*
X455747619Y-166501333D01*
X455842857Y-166453714D01*
X455985714Y-166453714D01*
X456080952Y-166501333D01*
X456128571Y-166596571D01*
X456128571Y-167120380D01*
X456366666Y-167215619D02*
X457128571Y-167215619D01*
X457557142Y-166120380D02*
X457652380Y-166120380D01*
X457747619Y-166168000D01*
X457795238Y-166215619D01*
X457842857Y-166310857D01*
X457890476Y-166501333D01*
X457890476Y-166739428D01*
X457842857Y-166929904D01*
X457795238Y-167025142D01*
X457747619Y-167072761D01*
X457652380Y-167120380D01*
X457557142Y-167120380D01*
X457461904Y-167072761D01*
X457414285Y-167025142D01*
X457366666Y-166929904D01*
X457319047Y-166739428D01*
X457319047Y-166501333D01*
X457366666Y-166310857D01*
X457414285Y-166215619D01*
X457461904Y-166168000D01*
X457557142Y-166120380D01*
X458842857Y-167120380D02*
X458271428Y-167120380D01*
X458557142Y-167120380D02*
X458557142Y-166120380D01*
X458461904Y-166263238D01*
X458366666Y-166358476D01*
X458271428Y-166406095D01*
X459176190Y-167120380D02*
X459700000Y-166453714D01*
X459176190Y-166453714D02*
X459700000Y-167120380D01*
X460271428Y-166120380D02*
X460366666Y-166120380D01*
X460461904Y-166168000D01*
X460509523Y-166215619D01*
X460557142Y-166310857D01*
X460604761Y-166501333D01*
X460604761Y-166739428D01*
X460557142Y-166929904D01*
X460509523Y-167025142D01*
X460461904Y-167072761D01*
X460366666Y-167120380D01*
X460271428Y-167120380D01*
X460176190Y-167072761D01*
X460128571Y-167025142D01*
X460080952Y-166929904D01*
X460033333Y-166739428D01*
X460033333Y-166501333D01*
X460080952Y-166310857D01*
X460128571Y-166215619D01*
X460176190Y-166168000D01*
X460271428Y-166120380D01*
X460985714Y-166215619D02*
X461033333Y-166168000D01*
X461128571Y-166120380D01*
X461366666Y-166120380D01*
X461461904Y-166168000D01*
X461509523Y-166215619D01*
X461557142Y-166310857D01*
X461557142Y-166406095D01*
X461509523Y-166548952D01*
X460938095Y-167120380D01*
X461557142Y-167120380D01*
X456652380Y-163401333D02*
X457366666Y-163401333D01*
X457509523Y-163448952D01*
X457604761Y-163544190D01*
X457652380Y-163687047D01*
X457652380Y-163782285D01*
X457652380Y-162877523D02*
X457652380Y-162687047D01*
X457604761Y-162591809D01*
X457557142Y-162544190D01*
X457414285Y-162448952D01*
X457223809Y-162401333D01*
X456842857Y-162401333D01*
X456747619Y-162448952D01*
X456700000Y-162496571D01*
X456652380Y-162591809D01*
X456652380Y-162782285D01*
X456700000Y-162877523D01*
X456747619Y-162925142D01*
X456842857Y-162972761D01*
X457080952Y-162972761D01*
X457176190Y-162925142D01*
X457223809Y-162877523D01*
X457271428Y-162782285D01*
X457271428Y-162591809D01*
X457223809Y-162496571D01*
X457176190Y-162448952D01*
X457080952Y-162401333D01*
%TO.C,J8*%
X552382142Y-176966095D02*
X552429761Y-177013714D01*
X552477380Y-177156571D01*
X552477380Y-177251809D01*
X552429761Y-177394666D01*
X552334523Y-177489904D01*
X552239285Y-177537523D01*
X552048809Y-177585142D01*
X551905952Y-177585142D01*
X551715476Y-177537523D01*
X551620238Y-177489904D01*
X551525000Y-177394666D01*
X551477380Y-177251809D01*
X551477380Y-177156571D01*
X551525000Y-177013714D01*
X551572619Y-176966095D01*
X552477380Y-176394666D02*
X552429761Y-176489904D01*
X552382142Y-176537523D01*
X552286904Y-176585142D01*
X552001190Y-176585142D01*
X551905952Y-176537523D01*
X551858333Y-176489904D01*
X551810714Y-176394666D01*
X551810714Y-176251809D01*
X551858333Y-176156571D01*
X551905952Y-176108952D01*
X552001190Y-176061333D01*
X552286904Y-176061333D01*
X552382142Y-176108952D01*
X552429761Y-176156571D01*
X552477380Y-176251809D01*
X552477380Y-176394666D01*
X551810714Y-175632761D02*
X552477380Y-175632761D01*
X551905952Y-175632761D02*
X551858333Y-175585142D01*
X551810714Y-175489904D01*
X551810714Y-175347047D01*
X551858333Y-175251809D01*
X551953571Y-175204190D01*
X552477380Y-175204190D01*
X551810714Y-174728000D02*
X552477380Y-174728000D01*
X551905952Y-174728000D02*
X551858333Y-174680380D01*
X551810714Y-174585142D01*
X551810714Y-174442285D01*
X551858333Y-174347047D01*
X551953571Y-174299428D01*
X552477380Y-174299428D01*
X552572619Y-174061333D02*
X552572619Y-173299428D01*
X551477380Y-172870857D02*
X551477380Y-172775619D01*
X551525000Y-172680380D01*
X551572619Y-172632761D01*
X551667857Y-172585142D01*
X551858333Y-172537523D01*
X552096428Y-172537523D01*
X552286904Y-172585142D01*
X552382142Y-172632761D01*
X552429761Y-172680380D01*
X552477380Y-172775619D01*
X552477380Y-172870857D01*
X552429761Y-172966095D01*
X552382142Y-173013714D01*
X552286904Y-173061333D01*
X552096428Y-173108952D01*
X551858333Y-173108952D01*
X551667857Y-173061333D01*
X551572619Y-173013714D01*
X551525000Y-172966095D01*
X551477380Y-172870857D01*
X552477380Y-171585142D02*
X552477380Y-172156571D01*
X552477380Y-171870857D02*
X551477380Y-171870857D01*
X551620238Y-171966095D01*
X551715476Y-172061333D01*
X551763095Y-172156571D01*
X552477380Y-171251809D02*
X551810714Y-170728000D01*
X551810714Y-171251809D02*
X552477380Y-170728000D01*
X551477380Y-170156571D02*
X551477380Y-170061333D01*
X551525000Y-169966095D01*
X551572619Y-169918476D01*
X551667857Y-169870857D01*
X551858333Y-169823238D01*
X552096428Y-169823238D01*
X552286904Y-169870857D01*
X552382142Y-169918476D01*
X552429761Y-169966095D01*
X552477380Y-170061333D01*
X552477380Y-170156571D01*
X552429761Y-170251809D01*
X552382142Y-170299428D01*
X552286904Y-170347047D01*
X552096428Y-170394666D01*
X551858333Y-170394666D01*
X551667857Y-170347047D01*
X551572619Y-170299428D01*
X551525000Y-170251809D01*
X551477380Y-170156571D01*
X551572619Y-169442285D02*
X551525000Y-169394666D01*
X551477380Y-169299428D01*
X551477380Y-169061333D01*
X551525000Y-168966095D01*
X551572619Y-168918476D01*
X551667857Y-168870857D01*
X551763095Y-168870857D01*
X551905952Y-168918476D01*
X552477380Y-169489904D01*
X552477380Y-168870857D01*
X555291666Y-172680380D02*
X555291666Y-173394666D01*
X555244047Y-173537523D01*
X555148809Y-173632761D01*
X555005952Y-173680380D01*
X554910714Y-173680380D01*
X555910714Y-173108952D02*
X555815476Y-173061333D01*
X555767857Y-173013714D01*
X555720238Y-172918476D01*
X555720238Y-172870857D01*
X555767857Y-172775619D01*
X555815476Y-172728000D01*
X555910714Y-172680380D01*
X556101190Y-172680380D01*
X556196428Y-172728000D01*
X556244047Y-172775619D01*
X556291666Y-172870857D01*
X556291666Y-172918476D01*
X556244047Y-173013714D01*
X556196428Y-173061333D01*
X556101190Y-173108952D01*
X555910714Y-173108952D01*
X555815476Y-173156571D01*
X555767857Y-173204190D01*
X555720238Y-173299428D01*
X555720238Y-173489904D01*
X555767857Y-173585142D01*
X555815476Y-173632761D01*
X555910714Y-173680380D01*
X556101190Y-173680380D01*
X556196428Y-173632761D01*
X556244047Y-173585142D01*
X556291666Y-173489904D01*
X556291666Y-173299428D01*
X556244047Y-173204190D01*
X556196428Y-173156571D01*
X556101190Y-173108952D01*
%TO.C,J3*%
X532157380Y-161218476D02*
X532157380Y-161694666D01*
X531157380Y-161694666D01*
X532109761Y-160504190D02*
X532157380Y-160599428D01*
X532157380Y-160789904D01*
X532109761Y-160885142D01*
X532014523Y-160932761D01*
X531633571Y-160932761D01*
X531538333Y-160885142D01*
X531490714Y-160789904D01*
X531490714Y-160599428D01*
X531538333Y-160504190D01*
X531633571Y-160456571D01*
X531728809Y-160456571D01*
X531824047Y-160932761D01*
X531490714Y-160170857D02*
X531490714Y-159789904D01*
X532157380Y-160028000D02*
X531300238Y-160028000D01*
X531205000Y-159980380D01*
X531157380Y-159885142D01*
X531157380Y-159789904D01*
X531490714Y-159599428D02*
X531490714Y-159218476D01*
X531157380Y-159456571D02*
X532014523Y-159456571D01*
X532109761Y-159408952D01*
X532157380Y-159313714D01*
X532157380Y-159218476D01*
X540051666Y-159980380D02*
X540051666Y-160694666D01*
X540004047Y-160837523D01*
X539908809Y-160932761D01*
X539765952Y-160980380D01*
X539670714Y-160980380D01*
X540432619Y-159980380D02*
X541051666Y-159980380D01*
X540718333Y-160361333D01*
X540861190Y-160361333D01*
X540956428Y-160408952D01*
X541004047Y-160456571D01*
X541051666Y-160551809D01*
X541051666Y-160789904D01*
X541004047Y-160885142D01*
X540956428Y-160932761D01*
X540861190Y-160980380D01*
X540575476Y-160980380D01*
X540480238Y-160932761D01*
X540432619Y-160885142D01*
%TO.C,J1*%
X548054161Y-165542742D02*
X548101780Y-165399885D01*
X548101780Y-165161790D01*
X548054161Y-165066552D01*
X548006542Y-165018933D01*
X547911304Y-164971314D01*
X547816066Y-164971314D01*
X547720828Y-165018933D01*
X547673209Y-165066552D01*
X547625590Y-165161790D01*
X547577971Y-165352266D01*
X547530352Y-165447504D01*
X547482733Y-165495123D01*
X547387495Y-165542742D01*
X547292257Y-165542742D01*
X547197019Y-165495123D01*
X547149400Y-165447504D01*
X547101780Y-165352266D01*
X547101780Y-165114171D01*
X547149400Y-164971314D01*
X547101780Y-164637980D02*
X548101780Y-164399885D01*
X547387495Y-164209409D01*
X548101780Y-164018933D01*
X547101780Y-163780838D01*
X548101780Y-163399885D02*
X547101780Y-163399885D01*
X547101780Y-163161790D01*
X547149400Y-163018933D01*
X547244638Y-162923695D01*
X547339876Y-162876076D01*
X547530352Y-162828457D01*
X547673209Y-162828457D01*
X547863685Y-162876076D01*
X547958923Y-162923695D01*
X548054161Y-163018933D01*
X548101780Y-163161790D01*
X548101780Y-163399885D01*
%TO.C,R12*%
X554674161Y-174872580D02*
X554102733Y-174872580D01*
X554388447Y-174872580D02*
X554388447Y-173872580D01*
X554293209Y-174015438D01*
X554197971Y-174110676D01*
X554102733Y-174158295D01*
X555102733Y-174872580D02*
X555102733Y-173872580D01*
X555197971Y-174491628D02*
X555483685Y-174872580D01*
X555483685Y-174205914D02*
X555102733Y-174586866D01*
X556388447Y-173872580D02*
X555912257Y-173872580D01*
X555864638Y-174348771D01*
X555912257Y-174301152D01*
X556007495Y-174253533D01*
X556245590Y-174253533D01*
X556340828Y-174301152D01*
X556388447Y-174348771D01*
X556436066Y-174444009D01*
X556436066Y-174682104D01*
X556388447Y-174777342D01*
X556340828Y-174824961D01*
X556245590Y-174872580D01*
X556007495Y-174872580D01*
X555912257Y-174824961D01*
X555864638Y-174777342D01*
D12*
X555102257Y-175707819D02*
X555015590Y-175584009D01*
X554953685Y-175707819D02*
X554953685Y-175447819D01*
X555052733Y-175447819D01*
X555077495Y-175460200D01*
X555089876Y-175472580D01*
X555102257Y-175497342D01*
X555102257Y-175534485D01*
X555089876Y-175559247D01*
X555077495Y-175571628D01*
X555052733Y-175584009D01*
X554953685Y-175584009D01*
X555349876Y-175707819D02*
X555201304Y-175707819D01*
X555275590Y-175707819D02*
X555275590Y-175447819D01*
X555250828Y-175484961D01*
X555226066Y-175509723D01*
X555201304Y-175522104D01*
X555448923Y-175472580D02*
X555461304Y-175460200D01*
X555486066Y-175447819D01*
X555547971Y-175447819D01*
X555572733Y-175460200D01*
X555585114Y-175472580D01*
X555597495Y-175497342D01*
X555597495Y-175522104D01*
X555585114Y-175559247D01*
X555436542Y-175707819D01*
X555597495Y-175707819D01*
%TO.C,R7*%
D11*
X558839761Y-205276380D02*
X558268333Y-205276380D01*
X558554047Y-205276380D02*
X558554047Y-204276380D01*
X558458809Y-204419238D01*
X558363571Y-204514476D01*
X558268333Y-204562095D01*
X559268333Y-205276380D02*
X559268333Y-204276380D01*
X559363571Y-204895428D02*
X559649285Y-205276380D01*
X559649285Y-204609714D02*
X559268333Y-204990666D01*
X560554047Y-204276380D02*
X560077857Y-204276380D01*
X560030238Y-204752571D01*
X560077857Y-204704952D01*
X560173095Y-204657333D01*
X560411190Y-204657333D01*
X560506428Y-204704952D01*
X560554047Y-204752571D01*
X560601666Y-204847809D01*
X560601666Y-205085904D01*
X560554047Y-205181142D01*
X560506428Y-205228761D01*
X560411190Y-205276380D01*
X560173095Y-205276380D01*
X560077857Y-205228761D01*
X560030238Y-205181142D01*
D12*
X559391666Y-206111619D02*
X559305000Y-205987809D01*
X559243095Y-206111619D02*
X559243095Y-205851619D01*
X559342142Y-205851619D01*
X559366904Y-205864000D01*
X559379285Y-205876380D01*
X559391666Y-205901142D01*
X559391666Y-205938285D01*
X559379285Y-205963047D01*
X559366904Y-205975428D01*
X559342142Y-205987809D01*
X559243095Y-205987809D01*
X559478333Y-205851619D02*
X559651666Y-205851619D01*
X559540238Y-206111619D01*
%TO.C,R6*%
D11*
X556299761Y-224453380D02*
X555728333Y-224453380D01*
X556014047Y-224453380D02*
X556014047Y-223453380D01*
X555918809Y-223596238D01*
X555823571Y-223691476D01*
X555728333Y-223739095D01*
X556728333Y-224453380D02*
X556728333Y-223453380D01*
X556823571Y-224072428D02*
X557109285Y-224453380D01*
X557109285Y-223786714D02*
X556728333Y-224167666D01*
X558014047Y-223453380D02*
X557537857Y-223453380D01*
X557490238Y-223929571D01*
X557537857Y-223881952D01*
X557633095Y-223834333D01*
X557871190Y-223834333D01*
X557966428Y-223881952D01*
X558014047Y-223929571D01*
X558061666Y-224024809D01*
X558061666Y-224262904D01*
X558014047Y-224358142D01*
X557966428Y-224405761D01*
X557871190Y-224453380D01*
X557633095Y-224453380D01*
X557537857Y-224405761D01*
X557490238Y-224358142D01*
D12*
X556851666Y-225288619D02*
X556765000Y-225164809D01*
X556703095Y-225288619D02*
X556703095Y-225028619D01*
X556802142Y-225028619D01*
X556826904Y-225041000D01*
X556839285Y-225053380D01*
X556851666Y-225078142D01*
X556851666Y-225115285D01*
X556839285Y-225140047D01*
X556826904Y-225152428D01*
X556802142Y-225164809D01*
X556703095Y-225164809D01*
X557074523Y-225028619D02*
X557025000Y-225028619D01*
X557000238Y-225041000D01*
X556987857Y-225053380D01*
X556963095Y-225090523D01*
X556950714Y-225140047D01*
X556950714Y-225239095D01*
X556963095Y-225263857D01*
X556975476Y-225276238D01*
X557000238Y-225288619D01*
X557049761Y-225288619D01*
X557074523Y-225276238D01*
X557086904Y-225263857D01*
X557099285Y-225239095D01*
X557099285Y-225177190D01*
X557086904Y-225152428D01*
X557074523Y-225140047D01*
X557049761Y-225127666D01*
X557000238Y-225127666D01*
X556975476Y-225140047D01*
X556963095Y-225152428D01*
X556950714Y-225177190D01*
%TO.C,R3*%
D11*
X558363571Y-208886380D02*
X557792142Y-208886380D01*
X558077857Y-208886380D02*
X558077857Y-207886380D01*
X557982619Y-208029238D01*
X557887380Y-208124476D01*
X557792142Y-208172095D01*
X558982619Y-207886380D02*
X559077857Y-207886380D01*
X559173095Y-207934000D01*
X559220714Y-207981619D01*
X559268333Y-208076857D01*
X559315952Y-208267333D01*
X559315952Y-208505428D01*
X559268333Y-208695904D01*
X559220714Y-208791142D01*
X559173095Y-208838761D01*
X559077857Y-208886380D01*
X558982619Y-208886380D01*
X558887380Y-208838761D01*
X558839761Y-208791142D01*
X558792142Y-208695904D01*
X558744523Y-208505428D01*
X558744523Y-208267333D01*
X558792142Y-208076857D01*
X558839761Y-207981619D01*
X558887380Y-207934000D01*
X558982619Y-207886380D01*
X559935000Y-207886380D02*
X560030238Y-207886380D01*
X560125476Y-207934000D01*
X560173095Y-207981619D01*
X560220714Y-208076857D01*
X560268333Y-208267333D01*
X560268333Y-208505428D01*
X560220714Y-208695904D01*
X560173095Y-208791142D01*
X560125476Y-208838761D01*
X560030238Y-208886380D01*
X559935000Y-208886380D01*
X559839761Y-208838761D01*
X559792142Y-208791142D01*
X559744523Y-208695904D01*
X559696904Y-208505428D01*
X559696904Y-208267333D01*
X559744523Y-208076857D01*
X559792142Y-207981619D01*
X559839761Y-207934000D01*
X559935000Y-207886380D01*
X560696904Y-208886380D02*
X560696904Y-207886380D01*
X560792142Y-208505428D02*
X561077857Y-208886380D01*
X561077857Y-208219714D02*
X560696904Y-208600666D01*
D12*
X559391666Y-207381619D02*
X559305000Y-207257809D01*
X559243095Y-207381619D02*
X559243095Y-207121619D01*
X559342142Y-207121619D01*
X559366904Y-207134000D01*
X559379285Y-207146380D01*
X559391666Y-207171142D01*
X559391666Y-207208285D01*
X559379285Y-207233047D01*
X559366904Y-207245428D01*
X559342142Y-207257809D01*
X559243095Y-207257809D01*
X559478333Y-207121619D02*
X559639285Y-207121619D01*
X559552619Y-207220666D01*
X559589761Y-207220666D01*
X559614523Y-207233047D01*
X559626904Y-207245428D01*
X559639285Y-207270190D01*
X559639285Y-207332095D01*
X559626904Y-207356857D01*
X559614523Y-207369238D01*
X559589761Y-207381619D01*
X559515476Y-207381619D01*
X559490714Y-207369238D01*
X559478333Y-207356857D01*
%TO.C,R1*%
D11*
X559025380Y-217098428D02*
X559025380Y-217669857D01*
X559025380Y-217384142D02*
X558025380Y-217384142D01*
X558168238Y-217479380D01*
X558263476Y-217574619D01*
X558311095Y-217669857D01*
X558025380Y-216479380D02*
X558025380Y-216384142D01*
X558073000Y-216288904D01*
X558120619Y-216241285D01*
X558215857Y-216193666D01*
X558406333Y-216146047D01*
X558644428Y-216146047D01*
X558834904Y-216193666D01*
X558930142Y-216241285D01*
X558977761Y-216288904D01*
X559025380Y-216384142D01*
X559025380Y-216479380D01*
X558977761Y-216574619D01*
X558930142Y-216622238D01*
X558834904Y-216669857D01*
X558644428Y-216717476D01*
X558406333Y-216717476D01*
X558215857Y-216669857D01*
X558120619Y-216622238D01*
X558073000Y-216574619D01*
X558025380Y-216479380D01*
X558025380Y-215527000D02*
X558025380Y-215431761D01*
X558073000Y-215336523D01*
X558120619Y-215288904D01*
X558215857Y-215241285D01*
X558406333Y-215193666D01*
X558644428Y-215193666D01*
X558834904Y-215241285D01*
X558930142Y-215288904D01*
X558977761Y-215336523D01*
X559025380Y-215431761D01*
X559025380Y-215527000D01*
X558977761Y-215622238D01*
X558930142Y-215669857D01*
X558834904Y-215717476D01*
X558644428Y-215765095D01*
X558406333Y-215765095D01*
X558215857Y-215717476D01*
X558120619Y-215669857D01*
X558073000Y-215622238D01*
X558025380Y-215527000D01*
X559025380Y-214765095D02*
X558025380Y-214765095D01*
X558644428Y-214669857D02*
X559025380Y-214384142D01*
X558358714Y-214384142D02*
X558739666Y-214765095D01*
D12*
X557520619Y-216070333D02*
X557396809Y-216157000D01*
X557520619Y-216218904D02*
X557260619Y-216218904D01*
X557260619Y-216119857D01*
X557273000Y-216095095D01*
X557285380Y-216082714D01*
X557310142Y-216070333D01*
X557347285Y-216070333D01*
X557372047Y-216082714D01*
X557384428Y-216095095D01*
X557396809Y-216119857D01*
X557396809Y-216218904D01*
X557520619Y-215822714D02*
X557520619Y-215971285D01*
X557520619Y-215897000D02*
X557260619Y-215897000D01*
X557297761Y-215921761D01*
X557322523Y-215946523D01*
X557334904Y-215971285D01*
%TO.C,U3*%
D11*
X551793380Y-201032380D02*
X552793380Y-200794285D01*
X552079095Y-200603809D01*
X552793380Y-200413333D01*
X551793380Y-200175238D01*
X551888619Y-199841904D02*
X551841000Y-199794285D01*
X551793380Y-199699047D01*
X551793380Y-199460952D01*
X551841000Y-199365714D01*
X551888619Y-199318095D01*
X551983857Y-199270476D01*
X552079095Y-199270476D01*
X552221952Y-199318095D01*
X552793380Y-199889523D01*
X552793380Y-199270476D01*
X551793380Y-198365714D02*
X551793380Y-198841904D01*
X552269571Y-198889523D01*
X552221952Y-198841904D01*
X552174333Y-198746666D01*
X552174333Y-198508571D01*
X552221952Y-198413333D01*
X552269571Y-198365714D01*
X552364809Y-198318095D01*
X552602904Y-198318095D01*
X552698142Y-198365714D01*
X552745761Y-198413333D01*
X552793380Y-198508571D01*
X552793380Y-198746666D01*
X552745761Y-198841904D01*
X552698142Y-198889523D01*
X552793380Y-197889523D02*
X551793380Y-197889523D01*
X552793380Y-197318095D01*
X551793380Y-197318095D01*
X551793380Y-196651428D02*
X551793380Y-196556190D01*
X551841000Y-196460952D01*
X551888619Y-196413333D01*
X551983857Y-196365714D01*
X552174333Y-196318095D01*
X552412428Y-196318095D01*
X552602904Y-196365714D01*
X552698142Y-196413333D01*
X552745761Y-196460952D01*
X552793380Y-196556190D01*
X552793380Y-196651428D01*
X552745761Y-196746666D01*
X552698142Y-196794285D01*
X552602904Y-196841904D01*
X552412428Y-196889523D01*
X552174333Y-196889523D01*
X551983857Y-196841904D01*
X551888619Y-196794285D01*
X551841000Y-196746666D01*
X551793380Y-196651428D01*
X552793380Y-195365714D02*
X552793380Y-195937142D01*
X552793380Y-195651428D02*
X551793380Y-195651428D01*
X551936238Y-195746666D01*
X552031476Y-195841904D01*
X552079095Y-195937142D01*
X551841000Y-194413333D02*
X551793380Y-194508571D01*
X551793380Y-194651428D01*
X551841000Y-194794285D01*
X551936238Y-194889523D01*
X552031476Y-194937142D01*
X552221952Y-194984761D01*
X552364809Y-194984761D01*
X552555285Y-194937142D01*
X552650523Y-194889523D01*
X552745761Y-194794285D01*
X552793380Y-194651428D01*
X552793380Y-194556190D01*
X552745761Y-194413333D01*
X552698142Y-194365714D01*
X552364809Y-194365714D01*
X552364809Y-194556190D01*
X551793380Y-194080000D02*
X552793380Y-193746666D01*
X551793380Y-193413333D01*
X551793380Y-193175238D02*
X551793380Y-192508571D01*
X552793380Y-193175238D01*
X552793380Y-192508571D01*
X552269571Y-192127619D02*
X552269571Y-191794285D01*
X552793380Y-191651428D02*
X552793380Y-192127619D01*
X551793380Y-192127619D01*
X551793380Y-191651428D01*
X552793380Y-191222857D02*
X551793380Y-191222857D01*
X551841000Y-190222857D02*
X551793380Y-190318095D01*
X551793380Y-190460952D01*
X551841000Y-190603809D01*
X551936238Y-190699047D01*
X552031476Y-190746666D01*
X552221952Y-190794285D01*
X552364809Y-190794285D01*
X552555285Y-190746666D01*
X552650523Y-190699047D01*
X552745761Y-190603809D01*
X552793380Y-190460952D01*
X552793380Y-190365714D01*
X552745761Y-190222857D01*
X552698142Y-190175238D01*
X552364809Y-190175238D01*
X552364809Y-190365714D01*
%TO.C,R13*%
X537527731Y-213040392D02*
X537999136Y-213511797D01*
X537089998Y-212939377D02*
X537426716Y-213612812D01*
X537864449Y-213175079D01*
X537595075Y-212501644D02*
X538066479Y-212030240D01*
X538470540Y-213040392D01*
D12*
X538673581Y-214018557D02*
X538524752Y-213992293D01*
X538568525Y-214123612D02*
X538384677Y-213939765D01*
X538454714Y-213869727D01*
X538480978Y-213860973D01*
X538498488Y-213860973D01*
X538524752Y-213869727D01*
X538551016Y-213895991D01*
X538559770Y-213922255D01*
X538559770Y-213939765D01*
X538551016Y-213966029D01*
X538480978Y-214036066D01*
X538848674Y-213843463D02*
X538743618Y-213948519D01*
X538796146Y-213895991D02*
X538612298Y-213712144D01*
X538621053Y-213755917D01*
X538621053Y-213790936D01*
X538612298Y-213817200D01*
X538726109Y-213598333D02*
X538839919Y-213484523D01*
X538848674Y-213615842D01*
X538874938Y-213589578D01*
X538901202Y-213580824D01*
X538918711Y-213580824D01*
X538944975Y-213589578D01*
X538988748Y-213633352D01*
X538997503Y-213659616D01*
X538997503Y-213677125D01*
X538988748Y-213703389D01*
X538936221Y-213755917D01*
X538909957Y-213764672D01*
X538892447Y-213764672D01*
%TO.C,C16*%
D11*
X535101556Y-215081694D02*
X534697495Y-215485755D01*
X534899526Y-215283724D02*
X534192419Y-214576618D01*
X534226091Y-214744976D01*
X534226091Y-214879663D01*
X534192419Y-214980679D01*
X534731167Y-214172556D02*
X534731167Y-214105213D01*
X534764839Y-214004198D01*
X534933198Y-213835839D01*
X535034213Y-213802167D01*
X535101556Y-213802167D01*
X535202572Y-213835839D01*
X535269915Y-213903182D01*
X535337259Y-214037869D01*
X535337259Y-214845992D01*
X535774992Y-214408259D01*
X535606633Y-213633808D02*
X536313740Y-214340915D01*
X535640305Y-213667480D02*
X535673976Y-213566465D01*
X535808663Y-213431778D01*
X535909679Y-213398106D01*
X535977022Y-213398106D01*
X536078037Y-213431778D01*
X536280068Y-213633808D01*
X536313740Y-213734824D01*
X536313740Y-213802167D01*
X536280068Y-213903182D01*
X536145381Y-214037869D01*
X536044366Y-214071541D01*
D12*
X534365492Y-213663776D02*
X534365492Y-213680612D01*
X534348656Y-213714284D01*
X534331820Y-213731120D01*
X534298148Y-213747956D01*
X534264477Y-213747956D01*
X534239223Y-213739538D01*
X534197133Y-213714284D01*
X534171879Y-213689030D01*
X534146625Y-213646940D01*
X534138208Y-213621687D01*
X534138208Y-213588015D01*
X534155043Y-213554343D01*
X534171879Y-213537507D01*
X534205551Y-213520671D01*
X534222387Y-213520671D01*
X534550687Y-213512253D02*
X534449671Y-213613269D01*
X534500179Y-213562761D02*
X534323402Y-213385984D01*
X534331820Y-213428074D01*
X534331820Y-213461746D01*
X534323402Y-213487000D01*
X534525433Y-213183954D02*
X534491761Y-213217625D01*
X534483343Y-213242879D01*
X534483343Y-213259715D01*
X534491761Y-213301805D01*
X534517015Y-213343895D01*
X534584358Y-213411238D01*
X534609612Y-213419656D01*
X534626448Y-213419656D01*
X534651702Y-213411238D01*
X534685374Y-213377566D01*
X534693791Y-213352312D01*
X534693791Y-213335477D01*
X534685374Y-213310223D01*
X534643284Y-213268133D01*
X534618030Y-213259715D01*
X534601194Y-213259715D01*
X534575940Y-213268133D01*
X534542269Y-213301805D01*
X534533851Y-213327059D01*
X534533851Y-213343895D01*
X534542269Y-213369148D01*
%TO.C,Y1*%
D11*
X533073359Y-216248946D02*
X532669298Y-215844885D01*
X532871328Y-216046915D02*
X533578435Y-215339809D01*
X533410076Y-215373480D01*
X533275389Y-215373480D01*
X533174374Y-215339809D01*
X534386557Y-216147931D02*
X534251870Y-216013244D01*
X534150855Y-215979572D01*
X534083511Y-215979572D01*
X533915152Y-216013244D01*
X533746794Y-216114259D01*
X533477420Y-216383633D01*
X533443748Y-216484648D01*
X533443748Y-216551992D01*
X533477420Y-216653007D01*
X533612107Y-216787694D01*
X533713122Y-216821366D01*
X533780465Y-216821366D01*
X533881481Y-216787694D01*
X534049839Y-216619335D01*
X534083511Y-216518320D01*
X534083511Y-216450976D01*
X534049839Y-216349961D01*
X533915152Y-216215274D01*
X533814137Y-216181602D01*
X533746794Y-216181602D01*
X533645778Y-216215274D01*
X534049839Y-217225427D02*
X534756946Y-216518320D01*
X534487572Y-217259099D01*
X535228351Y-216989724D01*
X534521244Y-217696831D01*
X534857962Y-218033549D02*
X535565068Y-217326442D01*
X535228351Y-217663160D02*
X535632412Y-218067221D01*
X535262023Y-218437610D02*
X535969129Y-217730503D01*
X536002801Y-218235579D02*
X536373190Y-218605969D01*
X535531397Y-218706984D01*
X535901786Y-219077373D01*
D13*
X536097082Y-215144512D02*
X535861380Y-215380214D01*
X536191363Y-214720248D02*
X536097082Y-215144512D01*
X536521346Y-215050231D01*
X536450636Y-215969470D02*
X536167793Y-215686627D01*
X536309214Y-215828049D02*
X536804189Y-215333074D01*
X536686338Y-215356644D01*
X536592057Y-215356644D01*
X536521346Y-215333074D01*
%TO.C,U1*%
D11*
X546071180Y-186179695D02*
X547071180Y-185513028D01*
X546071180Y-185513028D02*
X547071180Y-186179695D01*
X546975942Y-184560647D02*
X547023561Y-184608266D01*
X547071180Y-184751123D01*
X547071180Y-184846361D01*
X547023561Y-184989219D01*
X546928323Y-185084457D01*
X546833085Y-185132076D01*
X546642609Y-185179695D01*
X546499752Y-185179695D01*
X546309276Y-185132076D01*
X546214038Y-185084457D01*
X546118800Y-184989219D01*
X546071180Y-184846361D01*
X546071180Y-184751123D01*
X546118800Y-184608266D01*
X546166419Y-184560647D01*
X546071180Y-183703504D02*
X546071180Y-183893980D01*
X546118800Y-183989219D01*
X546166419Y-184036838D01*
X546309276Y-184132076D01*
X546499752Y-184179695D01*
X546880704Y-184179695D01*
X546975942Y-184132076D01*
X547023561Y-184084457D01*
X547071180Y-183989219D01*
X547071180Y-183798742D01*
X547023561Y-183703504D01*
X546975942Y-183655885D01*
X546880704Y-183608266D01*
X546642609Y-183608266D01*
X546547371Y-183655885D01*
X546499752Y-183703504D01*
X546452133Y-183798742D01*
X546452133Y-183989219D01*
X546499752Y-184084457D01*
X546547371Y-184132076D01*
X546642609Y-184179695D01*
X546166419Y-183227314D02*
X546118800Y-183179695D01*
X546071180Y-183084457D01*
X546071180Y-182846361D01*
X546118800Y-182751123D01*
X546166419Y-182703504D01*
X546261657Y-182655885D01*
X546356895Y-182655885D01*
X546499752Y-182703504D01*
X547071180Y-183274933D01*
X547071180Y-182655885D01*
X546071180Y-182036838D02*
X546071180Y-181941600D01*
X546118800Y-181846361D01*
X546166419Y-181798742D01*
X546261657Y-181751123D01*
X546452133Y-181703504D01*
X546690228Y-181703504D01*
X546880704Y-181751123D01*
X546975942Y-181798742D01*
X547023561Y-181846361D01*
X547071180Y-181941600D01*
X547071180Y-182036838D01*
X547023561Y-182132076D01*
X546975942Y-182179695D01*
X546880704Y-182227314D01*
X546690228Y-182274933D01*
X546452133Y-182274933D01*
X546261657Y-182227314D01*
X546166419Y-182179695D01*
X546118800Y-182132076D01*
X546071180Y-182036838D01*
X546071180Y-180846361D02*
X546071180Y-181036838D01*
X546118800Y-181132076D01*
X546166419Y-181179695D01*
X546309276Y-181274933D01*
X546499752Y-181322552D01*
X546880704Y-181322552D01*
X546975942Y-181274933D01*
X547023561Y-181227314D01*
X547071180Y-181132076D01*
X547071180Y-180941600D01*
X547023561Y-180846361D01*
X546975942Y-180798742D01*
X546880704Y-180751123D01*
X546642609Y-180751123D01*
X546547371Y-180798742D01*
X546499752Y-180846361D01*
X546452133Y-180941600D01*
X546452133Y-181132076D01*
X546499752Y-181227314D01*
X546547371Y-181274933D01*
X546642609Y-181322552D01*
X547071180Y-180322552D02*
X546071180Y-180322552D01*
X546071180Y-179941600D01*
X546118800Y-179846361D01*
X546166419Y-179798742D01*
X546261657Y-179751123D01*
X546404514Y-179751123D01*
X546499752Y-179798742D01*
X546547371Y-179846361D01*
X546594990Y-179941600D01*
X546594990Y-180322552D01*
X546071180Y-179417790D02*
X546071180Y-178798742D01*
X546452133Y-179132076D01*
X546452133Y-178989219D01*
X546499752Y-178893980D01*
X546547371Y-178846361D01*
X546642609Y-178798742D01*
X546880704Y-178798742D01*
X546975942Y-178846361D01*
X547023561Y-178893980D01*
X547071180Y-178989219D01*
X547071180Y-179274933D01*
X547023561Y-179370171D01*
X546975942Y-179417790D01*
X546071180Y-178465409D02*
X546071180Y-177846361D01*
X546452133Y-178179695D01*
X546452133Y-178036838D01*
X546499752Y-177941600D01*
X546547371Y-177893980D01*
X546642609Y-177846361D01*
X546880704Y-177846361D01*
X546975942Y-177893980D01*
X547023561Y-177941600D01*
X547071180Y-178036838D01*
X547071180Y-178322552D01*
X547023561Y-178417790D01*
X546975942Y-178465409D01*
X546166419Y-177465409D02*
X546118800Y-177417790D01*
X546071180Y-177322552D01*
X546071180Y-177084457D01*
X546118800Y-176989219D01*
X546166419Y-176941600D01*
X546261657Y-176893980D01*
X546356895Y-176893980D01*
X546499752Y-176941600D01*
X547071180Y-177513028D01*
X547071180Y-176893980D01*
X547071180Y-176465409D02*
X546071180Y-176465409D01*
X546785466Y-176132076D01*
X546071180Y-175798742D01*
X547071180Y-175798742D01*
X547071180Y-174751123D02*
X546594990Y-175084457D01*
X547071180Y-175322552D02*
X546071180Y-175322552D01*
X546071180Y-174941600D01*
X546118800Y-174846361D01*
X546166419Y-174798742D01*
X546261657Y-174751123D01*
X546404514Y-174751123D01*
X546499752Y-174798742D01*
X546547371Y-174846361D01*
X546594990Y-174941600D01*
X546594990Y-175322552D01*
D14*
X543737847Y-180167790D02*
X543737847Y-180572552D01*
X543761657Y-180620171D01*
X543785466Y-180643980D01*
X543833085Y-180667790D01*
X543928323Y-180667790D01*
X543975942Y-180643980D01*
X543999752Y-180620171D01*
X544023561Y-180572552D01*
X544023561Y-180167790D01*
X544523561Y-180667790D02*
X544237847Y-180667790D01*
X544380704Y-180667790D02*
X544380704Y-180167790D01*
X544333085Y-180239219D01*
X544285466Y-180286838D01*
X544237847Y-180310647D01*
%TO.C,SW3*%
D11*
X557641380Y-224504095D02*
X557165190Y-224837428D01*
X557641380Y-225075523D02*
X556641380Y-225075523D01*
X556641380Y-224694571D01*
X556689000Y-224599333D01*
X556736619Y-224551714D01*
X556831857Y-224504095D01*
X556974714Y-224504095D01*
X557069952Y-224551714D01*
X557117571Y-224599333D01*
X557165190Y-224694571D01*
X557165190Y-225075523D01*
X557593761Y-223694571D02*
X557641380Y-223789809D01*
X557641380Y-223980285D01*
X557593761Y-224075523D01*
X557498523Y-224123142D01*
X557117571Y-224123142D01*
X557022333Y-224075523D01*
X556974714Y-223980285D01*
X556974714Y-223789809D01*
X557022333Y-223694571D01*
X557117571Y-223646952D01*
X557212809Y-223646952D01*
X557308047Y-224123142D01*
X557593761Y-223266000D02*
X557641380Y-223170761D01*
X557641380Y-222980285D01*
X557593761Y-222885047D01*
X557498523Y-222837428D01*
X557450904Y-222837428D01*
X557355666Y-222885047D01*
X557308047Y-222980285D01*
X557308047Y-223123142D01*
X557260428Y-223218380D01*
X557165190Y-223266000D01*
X557117571Y-223266000D01*
X557022333Y-223218380D01*
X556974714Y-223123142D01*
X556974714Y-222980285D01*
X557022333Y-222885047D01*
X557593761Y-222027904D02*
X557641380Y-222123142D01*
X557641380Y-222313619D01*
X557593761Y-222408857D01*
X557498523Y-222456476D01*
X557117571Y-222456476D01*
X557022333Y-222408857D01*
X556974714Y-222313619D01*
X556974714Y-222123142D01*
X557022333Y-222027904D01*
X557117571Y-221980285D01*
X557212809Y-221980285D01*
X557308047Y-222456476D01*
X556974714Y-221694571D02*
X556974714Y-221313619D01*
X556641380Y-221551714D02*
X557498523Y-221551714D01*
X557593761Y-221504095D01*
X557641380Y-221408857D01*
X557641380Y-221313619D01*
X563193761Y-224599333D02*
X563241380Y-224456476D01*
X563241380Y-224218380D01*
X563193761Y-224123142D01*
X563146142Y-224075523D01*
X563050904Y-224027904D01*
X562955666Y-224027904D01*
X562860428Y-224075523D01*
X562812809Y-224123142D01*
X562765190Y-224218380D01*
X562717571Y-224408857D01*
X562669952Y-224504095D01*
X562622333Y-224551714D01*
X562527095Y-224599333D01*
X562431857Y-224599333D01*
X562336619Y-224551714D01*
X562289000Y-224504095D01*
X562241380Y-224408857D01*
X562241380Y-224170761D01*
X562289000Y-224027904D01*
X562241380Y-223694571D02*
X563241380Y-223456476D01*
X562527095Y-223266000D01*
X563241380Y-223075523D01*
X562241380Y-222837428D01*
X562241380Y-222551714D02*
X562241380Y-221932666D01*
X562622333Y-222266000D01*
X562622333Y-222123142D01*
X562669952Y-222027904D01*
X562717571Y-221980285D01*
X562812809Y-221932666D01*
X563050904Y-221932666D01*
X563146142Y-221980285D01*
X563193761Y-222027904D01*
X563241380Y-222123142D01*
X563241380Y-222408857D01*
X563193761Y-222504095D01*
X563146142Y-222551714D01*
%TO.C,SW2*%
X557117571Y-212669238D02*
X557165190Y-212526380D01*
X557212809Y-212478761D01*
X557308047Y-212431142D01*
X557450904Y-212431142D01*
X557546142Y-212478761D01*
X557593761Y-212526380D01*
X557641380Y-212621619D01*
X557641380Y-213002571D01*
X556641380Y-213002571D01*
X556641380Y-212669238D01*
X556689000Y-212574000D01*
X556736619Y-212526380D01*
X556831857Y-212478761D01*
X556927095Y-212478761D01*
X557022333Y-212526380D01*
X557069952Y-212574000D01*
X557117571Y-212669238D01*
X557117571Y-213002571D01*
X557641380Y-211859714D02*
X557593761Y-211954952D01*
X557546142Y-212002571D01*
X557450904Y-212050190D01*
X557165190Y-212050190D01*
X557069952Y-212002571D01*
X557022333Y-211954952D01*
X556974714Y-211859714D01*
X556974714Y-211716857D01*
X557022333Y-211621619D01*
X557069952Y-211574000D01*
X557165190Y-211526380D01*
X557450904Y-211526380D01*
X557546142Y-211574000D01*
X557593761Y-211621619D01*
X557641380Y-211716857D01*
X557641380Y-211859714D01*
X557641380Y-210954952D02*
X557593761Y-211050190D01*
X557546142Y-211097809D01*
X557450904Y-211145428D01*
X557165190Y-211145428D01*
X557069952Y-211097809D01*
X557022333Y-211050190D01*
X556974714Y-210954952D01*
X556974714Y-210812095D01*
X557022333Y-210716857D01*
X557069952Y-210669238D01*
X557165190Y-210621619D01*
X557450904Y-210621619D01*
X557546142Y-210669238D01*
X557593761Y-210716857D01*
X557641380Y-210812095D01*
X557641380Y-210954952D01*
X556974714Y-210335904D02*
X556974714Y-209954952D01*
X556641380Y-210193047D02*
X557498523Y-210193047D01*
X557593761Y-210145428D01*
X557641380Y-210050190D01*
X557641380Y-209954952D01*
X557641380Y-209097809D02*
X557641380Y-209669238D01*
X557641380Y-209383523D02*
X556641380Y-209383523D01*
X556784238Y-209478761D01*
X556879476Y-209574000D01*
X556927095Y-209669238D01*
X563193761Y-212407333D02*
X563241380Y-212264476D01*
X563241380Y-212026380D01*
X563193761Y-211931142D01*
X563146142Y-211883523D01*
X563050904Y-211835904D01*
X562955666Y-211835904D01*
X562860428Y-211883523D01*
X562812809Y-211931142D01*
X562765190Y-212026380D01*
X562717571Y-212216857D01*
X562669952Y-212312095D01*
X562622333Y-212359714D01*
X562527095Y-212407333D01*
X562431857Y-212407333D01*
X562336619Y-212359714D01*
X562289000Y-212312095D01*
X562241380Y-212216857D01*
X562241380Y-211978761D01*
X562289000Y-211835904D01*
X562241380Y-211502571D02*
X563241380Y-211264476D01*
X562527095Y-211074000D01*
X563241380Y-210883523D01*
X562241380Y-210645428D01*
X562336619Y-210312095D02*
X562289000Y-210264476D01*
X562241380Y-210169238D01*
X562241380Y-209931142D01*
X562289000Y-209835904D01*
X562336619Y-209788285D01*
X562431857Y-209740666D01*
X562527095Y-209740666D01*
X562669952Y-209788285D01*
X563241380Y-210359714D01*
X563241380Y-209740666D01*
%TO.C,SW1*%
X557117571Y-217622238D02*
X557165190Y-217479380D01*
X557212809Y-217431761D01*
X557308047Y-217384142D01*
X557450904Y-217384142D01*
X557546142Y-217431761D01*
X557593761Y-217479380D01*
X557641380Y-217574619D01*
X557641380Y-217955571D01*
X556641380Y-217955571D01*
X556641380Y-217622238D01*
X556689000Y-217527000D01*
X556736619Y-217479380D01*
X556831857Y-217431761D01*
X556927095Y-217431761D01*
X557022333Y-217479380D01*
X557069952Y-217527000D01*
X557117571Y-217622238D01*
X557117571Y-217955571D01*
X557641380Y-216812714D02*
X557593761Y-216907952D01*
X557546142Y-216955571D01*
X557450904Y-217003190D01*
X557165190Y-217003190D01*
X557069952Y-216955571D01*
X557022333Y-216907952D01*
X556974714Y-216812714D01*
X556974714Y-216669857D01*
X557022333Y-216574619D01*
X557069952Y-216527000D01*
X557165190Y-216479380D01*
X557450904Y-216479380D01*
X557546142Y-216527000D01*
X557593761Y-216574619D01*
X557641380Y-216669857D01*
X557641380Y-216812714D01*
X557641380Y-215907952D02*
X557593761Y-216003190D01*
X557546142Y-216050809D01*
X557450904Y-216098428D01*
X557165190Y-216098428D01*
X557069952Y-216050809D01*
X557022333Y-216003190D01*
X556974714Y-215907952D01*
X556974714Y-215765095D01*
X557022333Y-215669857D01*
X557069952Y-215622238D01*
X557165190Y-215574619D01*
X557450904Y-215574619D01*
X557546142Y-215622238D01*
X557593761Y-215669857D01*
X557641380Y-215765095D01*
X557641380Y-215907952D01*
X556974714Y-215288904D02*
X556974714Y-214907952D01*
X556641380Y-215146047D02*
X557498523Y-215146047D01*
X557593761Y-215098428D01*
X557641380Y-215003190D01*
X557641380Y-214907952D01*
X556641380Y-214384142D02*
X556641380Y-214288904D01*
X556689000Y-214193666D01*
X556736619Y-214146047D01*
X556831857Y-214098428D01*
X557022333Y-214050809D01*
X557260428Y-214050809D01*
X557450904Y-214098428D01*
X557546142Y-214146047D01*
X557593761Y-214193666D01*
X557641380Y-214288904D01*
X557641380Y-214384142D01*
X557593761Y-214479380D01*
X557546142Y-214527000D01*
X557450904Y-214574619D01*
X557260428Y-214622238D01*
X557022333Y-214622238D01*
X556831857Y-214574619D01*
X556736619Y-214527000D01*
X556689000Y-214479380D01*
X556641380Y-214384142D01*
X563193761Y-217360333D02*
X563241380Y-217217476D01*
X563241380Y-216979380D01*
X563193761Y-216884142D01*
X563146142Y-216836523D01*
X563050904Y-216788904D01*
X562955666Y-216788904D01*
X562860428Y-216836523D01*
X562812809Y-216884142D01*
X562765190Y-216979380D01*
X562717571Y-217169857D01*
X562669952Y-217265095D01*
X562622333Y-217312714D01*
X562527095Y-217360333D01*
X562431857Y-217360333D01*
X562336619Y-217312714D01*
X562289000Y-217265095D01*
X562241380Y-217169857D01*
X562241380Y-216931761D01*
X562289000Y-216788904D01*
X562241380Y-216455571D02*
X563241380Y-216217476D01*
X562527095Y-216027000D01*
X563241380Y-215836523D01*
X562241380Y-215598428D01*
X563241380Y-214693666D02*
X563241380Y-215265095D01*
X563241380Y-214979380D02*
X562241380Y-214979380D01*
X562384238Y-215074619D01*
X562479476Y-215169857D01*
X562527095Y-215265095D01*
%TO.C,R4*%
X547097019Y-191465104D02*
X547049400Y-191417485D01*
X547001780Y-191322247D01*
X547001780Y-191084152D01*
X547049400Y-190988914D01*
X547097019Y-190941295D01*
X547192257Y-190893676D01*
X547287495Y-190893676D01*
X547430352Y-190941295D01*
X548001780Y-191512723D01*
X548001780Y-190893676D01*
X547097019Y-190512723D02*
X547049400Y-190465104D01*
X547001780Y-190369866D01*
X547001780Y-190131771D01*
X547049400Y-190036533D01*
X547097019Y-189988914D01*
X547192257Y-189941295D01*
X547287495Y-189941295D01*
X547430352Y-189988914D01*
X548001780Y-190560342D01*
X548001780Y-189941295D01*
D12*
X546497019Y-190746533D02*
X546373209Y-190833200D01*
X546497019Y-190895104D02*
X546237019Y-190895104D01*
X546237019Y-190796057D01*
X546249400Y-190771295D01*
X546261780Y-190758914D01*
X546286542Y-190746533D01*
X546323685Y-190746533D01*
X546348447Y-190758914D01*
X546360828Y-190771295D01*
X546373209Y-190796057D01*
X546373209Y-190895104D01*
X546323685Y-190523676D02*
X546497019Y-190523676D01*
X546224638Y-190585580D02*
X546410352Y-190647485D01*
X546410352Y-190486533D01*
%TO.C,R15*%
D11*
X557440761Y-200196380D02*
X556869333Y-200196380D01*
X557155047Y-200196380D02*
X557155047Y-199196380D01*
X557059809Y-199339238D01*
X556964571Y-199434476D01*
X556869333Y-199482095D01*
X558059809Y-199196380D02*
X558155047Y-199196380D01*
X558250285Y-199244000D01*
X558297904Y-199291619D01*
X558345523Y-199386857D01*
X558393142Y-199577333D01*
X558393142Y-199815428D01*
X558345523Y-200005904D01*
X558297904Y-200101142D01*
X558250285Y-200148761D01*
X558155047Y-200196380D01*
X558059809Y-200196380D01*
X557964571Y-200148761D01*
X557916952Y-200101142D01*
X557869333Y-200005904D01*
X557821714Y-199815428D01*
X557821714Y-199577333D01*
X557869333Y-199386857D01*
X557916952Y-199291619D01*
X557964571Y-199244000D01*
X558059809Y-199196380D01*
X558821714Y-200196380D02*
X558821714Y-199196380D01*
X558916952Y-199815428D02*
X559202666Y-200196380D01*
X559202666Y-199529714D02*
X558821714Y-199910666D01*
D12*
X557868857Y-201031619D02*
X557782190Y-200907809D01*
X557720285Y-201031619D02*
X557720285Y-200771619D01*
X557819333Y-200771619D01*
X557844095Y-200784000D01*
X557856476Y-200796380D01*
X557868857Y-200821142D01*
X557868857Y-200858285D01*
X557856476Y-200883047D01*
X557844095Y-200895428D01*
X557819333Y-200907809D01*
X557720285Y-200907809D01*
X558116476Y-201031619D02*
X557967904Y-201031619D01*
X558042190Y-201031619D02*
X558042190Y-200771619D01*
X558017428Y-200808761D01*
X557992666Y-200833523D01*
X557967904Y-200845904D01*
X558351714Y-200771619D02*
X558227904Y-200771619D01*
X558215523Y-200895428D01*
X558227904Y-200883047D01*
X558252666Y-200870666D01*
X558314571Y-200870666D01*
X558339333Y-200883047D01*
X558351714Y-200895428D01*
X558364095Y-200920190D01*
X558364095Y-200982095D01*
X558351714Y-201006857D01*
X558339333Y-201019238D01*
X558314571Y-201031619D01*
X558252666Y-201031619D01*
X558227904Y-201019238D01*
X558215523Y-201006857D01*
%TO.C,R14*%
D11*
X556807761Y-189020380D02*
X556236333Y-189020380D01*
X556522047Y-189020380D02*
X556522047Y-188020380D01*
X556426809Y-188163238D01*
X556331571Y-188258476D01*
X556236333Y-188306095D01*
X557426809Y-188020380D02*
X557522047Y-188020380D01*
X557617285Y-188068000D01*
X557664904Y-188115619D01*
X557712523Y-188210857D01*
X557760142Y-188401333D01*
X557760142Y-188639428D01*
X557712523Y-188829904D01*
X557664904Y-188925142D01*
X557617285Y-188972761D01*
X557522047Y-189020380D01*
X557426809Y-189020380D01*
X557331571Y-188972761D01*
X557283952Y-188925142D01*
X557236333Y-188829904D01*
X557188714Y-188639428D01*
X557188714Y-188401333D01*
X557236333Y-188210857D01*
X557283952Y-188115619D01*
X557331571Y-188068000D01*
X557426809Y-188020380D01*
X558188714Y-189020380D02*
X558188714Y-188020380D01*
X558283952Y-188639428D02*
X558569666Y-189020380D01*
X558569666Y-188353714D02*
X558188714Y-188734666D01*
D12*
X557235857Y-189855619D02*
X557149190Y-189731809D01*
X557087285Y-189855619D02*
X557087285Y-189595619D01*
X557186333Y-189595619D01*
X557211095Y-189608000D01*
X557223476Y-189620380D01*
X557235857Y-189645142D01*
X557235857Y-189682285D01*
X557223476Y-189707047D01*
X557211095Y-189719428D01*
X557186333Y-189731809D01*
X557087285Y-189731809D01*
X557483476Y-189855619D02*
X557334904Y-189855619D01*
X557409190Y-189855619D02*
X557409190Y-189595619D01*
X557384428Y-189632761D01*
X557359666Y-189657523D01*
X557334904Y-189669904D01*
X557706333Y-189682285D02*
X557706333Y-189855619D01*
X557644428Y-189583238D02*
X557582523Y-189768952D01*
X557743476Y-189768952D01*
%TO.C,R11*%
D11*
X554601142Y-177609580D02*
X554124952Y-177609580D01*
X554077333Y-178085771D01*
X554124952Y-178038152D01*
X554220190Y-177990533D01*
X554458285Y-177990533D01*
X554553523Y-178038152D01*
X554601142Y-178085771D01*
X554648761Y-178181009D01*
X554648761Y-178419104D01*
X554601142Y-178514342D01*
X554553523Y-178561961D01*
X554458285Y-178609580D01*
X554220190Y-178609580D01*
X554124952Y-178561961D01*
X554077333Y-178514342D01*
X555077333Y-178609580D02*
X555077333Y-177609580D01*
X555172571Y-178228628D02*
X555458285Y-178609580D01*
X555458285Y-177942914D02*
X555077333Y-178323866D01*
X556410666Y-178609580D02*
X555839238Y-178609580D01*
X556124952Y-178609580D02*
X556124952Y-177609580D01*
X556029714Y-177752438D01*
X555934476Y-177847676D01*
X555839238Y-177895295D01*
D12*
X555076857Y-177104819D02*
X554990190Y-176981009D01*
X554928285Y-177104819D02*
X554928285Y-176844819D01*
X555027333Y-176844819D01*
X555052095Y-176857200D01*
X555064476Y-176869580D01*
X555076857Y-176894342D01*
X555076857Y-176931485D01*
X555064476Y-176956247D01*
X555052095Y-176968628D01*
X555027333Y-176981009D01*
X554928285Y-176981009D01*
X555324476Y-177104819D02*
X555175904Y-177104819D01*
X555250190Y-177104819D02*
X555250190Y-176844819D01*
X555225428Y-176881961D01*
X555200666Y-176906723D01*
X555175904Y-176919104D01*
X555572095Y-177104819D02*
X555423523Y-177104819D01*
X555497809Y-177104819D02*
X555497809Y-176844819D01*
X555473047Y-176881961D01*
X555448285Y-176906723D01*
X555423523Y-176919104D01*
%TO.C,R2*%
D11*
X555415380Y-223861238D02*
X555415380Y-224432666D01*
X555415380Y-224146952D02*
X554415380Y-224146952D01*
X554558238Y-224242190D01*
X554653476Y-224337428D01*
X554701095Y-224432666D01*
X554415380Y-223242190D02*
X554415380Y-223146952D01*
X554463000Y-223051714D01*
X554510619Y-223004095D01*
X554605857Y-222956476D01*
X554796333Y-222908857D01*
X555034428Y-222908857D01*
X555224904Y-222956476D01*
X555320142Y-223004095D01*
X555367761Y-223051714D01*
X555415380Y-223146952D01*
X555415380Y-223242190D01*
X555367761Y-223337428D01*
X555320142Y-223385047D01*
X555224904Y-223432666D01*
X555034428Y-223480285D01*
X554796333Y-223480285D01*
X554605857Y-223432666D01*
X554510619Y-223385047D01*
X554463000Y-223337428D01*
X554415380Y-223242190D01*
X555415380Y-222480285D02*
X554415380Y-222480285D01*
X555034428Y-222385047D02*
X555415380Y-222099333D01*
X554748714Y-222099333D02*
X555129666Y-222480285D01*
D12*
X556250619Y-223309333D02*
X556126809Y-223396000D01*
X556250619Y-223457904D02*
X555990619Y-223457904D01*
X555990619Y-223358857D01*
X556003000Y-223334095D01*
X556015380Y-223321714D01*
X556040142Y-223309333D01*
X556077285Y-223309333D01*
X556102047Y-223321714D01*
X556114428Y-223334095D01*
X556126809Y-223358857D01*
X556126809Y-223457904D01*
X556015380Y-223210285D02*
X556003000Y-223197904D01*
X555990619Y-223173142D01*
X555990619Y-223111238D01*
X556003000Y-223086476D01*
X556015380Y-223074095D01*
X556040142Y-223061714D01*
X556064904Y-223061714D01*
X556102047Y-223074095D01*
X556250619Y-223222666D01*
X556250619Y-223061714D01*
%TO.C,J5*%
D11*
X527677380Y-212260380D02*
X527677380Y-213069904D01*
X527725000Y-213165142D01*
X527772619Y-213212761D01*
X527867857Y-213260380D01*
X528058333Y-213260380D01*
X528153571Y-213212761D01*
X528201190Y-213165142D01*
X528248809Y-213069904D01*
X528248809Y-212260380D01*
X528677380Y-213212761D02*
X528820238Y-213260380D01*
X529058333Y-213260380D01*
X529153571Y-213212761D01*
X529201190Y-213165142D01*
X529248809Y-213069904D01*
X529248809Y-212974666D01*
X529201190Y-212879428D01*
X529153571Y-212831809D01*
X529058333Y-212784190D01*
X528867857Y-212736571D01*
X528772619Y-212688952D01*
X528725000Y-212641333D01*
X528677380Y-212546095D01*
X528677380Y-212450857D01*
X528725000Y-212355619D01*
X528772619Y-212308000D01*
X528867857Y-212260380D01*
X529105952Y-212260380D01*
X529248809Y-212308000D01*
X529629761Y-212974666D02*
X530105952Y-212974666D01*
X529534523Y-213260380D02*
X529867857Y-212260380D01*
X530201190Y-213260380D01*
X531105952Y-213260380D02*
X530772619Y-212784190D01*
X530534523Y-213260380D02*
X530534523Y-212260380D01*
X530915476Y-212260380D01*
X531010714Y-212308000D01*
X531058333Y-212355619D01*
X531105952Y-212450857D01*
X531105952Y-212593714D01*
X531058333Y-212688952D01*
X531010714Y-212736571D01*
X530915476Y-212784190D01*
X530534523Y-212784190D01*
X531391666Y-212260380D02*
X531963095Y-212260380D01*
X531677380Y-213260380D02*
X531677380Y-212260380D01*
X532248809Y-212355619D02*
X532296428Y-212308000D01*
X532391666Y-212260380D01*
X532629761Y-212260380D01*
X532725000Y-212308000D01*
X532772619Y-212355619D01*
X532820238Y-212450857D01*
X532820238Y-212546095D01*
X532772619Y-212688952D01*
X532201190Y-213260380D01*
X532820238Y-213260380D01*
X529677380Y-219281333D02*
X530391666Y-219281333D01*
X530534523Y-219328952D01*
X530629761Y-219424190D01*
X530677380Y-219567047D01*
X530677380Y-219662285D01*
X529677380Y-218328952D02*
X529677380Y-218805142D01*
X530153571Y-218852761D01*
X530105952Y-218805142D01*
X530058333Y-218709904D01*
X530058333Y-218471809D01*
X530105952Y-218376571D01*
X530153571Y-218328952D01*
X530248809Y-218281333D01*
X530486904Y-218281333D01*
X530582142Y-218328952D01*
X530629761Y-218376571D01*
X530677380Y-218471809D01*
X530677380Y-218709904D01*
X530629761Y-218805142D01*
X530582142Y-218852761D01*
%TO.C,J6*%
X538507380Y-174680380D02*
X537507380Y-174680380D01*
X537602619Y-174251809D02*
X537555000Y-174204190D01*
X537507380Y-174108952D01*
X537507380Y-173870857D01*
X537555000Y-173775619D01*
X537602619Y-173728000D01*
X537697857Y-173680380D01*
X537793095Y-173680380D01*
X537935952Y-173728000D01*
X538507380Y-174299428D01*
X538507380Y-173680380D01*
X538412142Y-172680380D02*
X538459761Y-172728000D01*
X538507380Y-172870857D01*
X538507380Y-172966095D01*
X538459761Y-173108952D01*
X538364523Y-173204190D01*
X538269285Y-173251809D01*
X538078809Y-173299428D01*
X537935952Y-173299428D01*
X537745476Y-173251809D01*
X537650238Y-173204190D01*
X537555000Y-173108952D01*
X537507380Y-172966095D01*
X537507380Y-172870857D01*
X537555000Y-172728000D01*
X537602619Y-172680380D01*
X538507380Y-171728000D02*
X538507380Y-172299428D01*
X538507380Y-172013714D02*
X537507380Y-172013714D01*
X537650238Y-172108952D01*
X537745476Y-172204190D01*
X537793095Y-172299428D01*
X543861666Y-172680380D02*
X543861666Y-173394666D01*
X543814047Y-173537523D01*
X543718809Y-173632761D01*
X543575952Y-173680380D01*
X543480714Y-173680380D01*
X544766428Y-172680380D02*
X544575952Y-172680380D01*
X544480714Y-172728000D01*
X544433095Y-172775619D01*
X544337857Y-172918476D01*
X544290238Y-173108952D01*
X544290238Y-173489904D01*
X544337857Y-173585142D01*
X544385476Y-173632761D01*
X544480714Y-173680380D01*
X544671190Y-173680380D01*
X544766428Y-173632761D01*
X544814047Y-173585142D01*
X544861666Y-173489904D01*
X544861666Y-173251809D01*
X544814047Y-173156571D01*
X544766428Y-173108952D01*
X544671190Y-173061333D01*
X544480714Y-173061333D01*
X544385476Y-173108952D01*
X544337857Y-173156571D01*
X544290238Y-173251809D01*
%TO.C,J2*%
X562971380Y-193078476D02*
X563780904Y-193078476D01*
X563876142Y-193030857D01*
X563923761Y-192983238D01*
X563971380Y-192888000D01*
X563971380Y-192697523D01*
X563923761Y-192602285D01*
X563876142Y-192554666D01*
X563780904Y-192507047D01*
X562971380Y-192507047D01*
X563923761Y-192078476D02*
X563971380Y-191935619D01*
X563971380Y-191697523D01*
X563923761Y-191602285D01*
X563876142Y-191554666D01*
X563780904Y-191507047D01*
X563685666Y-191507047D01*
X563590428Y-191554666D01*
X563542809Y-191602285D01*
X563495190Y-191697523D01*
X563447571Y-191888000D01*
X563399952Y-191983238D01*
X563352333Y-192030857D01*
X563257095Y-192078476D01*
X563161857Y-192078476D01*
X563066619Y-192030857D01*
X563019000Y-191983238D01*
X562971380Y-191888000D01*
X562971380Y-191649904D01*
X563019000Y-191507047D01*
X563447571Y-190745142D02*
X563495190Y-190602285D01*
X563542809Y-190554666D01*
X563638047Y-190507047D01*
X563780904Y-190507047D01*
X563876142Y-190554666D01*
X563923761Y-190602285D01*
X563971380Y-190697523D01*
X563971380Y-191078476D01*
X562971380Y-191078476D01*
X562971380Y-190745142D01*
X563019000Y-190649904D01*
X563066619Y-190602285D01*
X563161857Y-190554666D01*
X563257095Y-190554666D01*
X563352333Y-190602285D01*
X563399952Y-190649904D01*
X563447571Y-190745142D01*
X563447571Y-191078476D01*
X564066619Y-190316571D02*
X564066619Y-189554666D01*
X563876142Y-188745142D02*
X563923761Y-188792761D01*
X563971380Y-188935619D01*
X563971380Y-189030857D01*
X563923761Y-189173714D01*
X563828523Y-189268952D01*
X563733285Y-189316571D01*
X563542809Y-189364190D01*
X563399952Y-189364190D01*
X563209476Y-189316571D01*
X563114238Y-189268952D01*
X563019000Y-189173714D01*
X562971380Y-189030857D01*
X562971380Y-188935619D01*
X563019000Y-188792761D01*
X563066619Y-188745142D01*
X564066619Y-188554666D02*
X564066619Y-187792761D01*
X563971380Y-186983238D02*
X563495190Y-187316571D01*
X563971380Y-187554666D02*
X562971380Y-187554666D01*
X562971380Y-187173714D01*
X563019000Y-187078476D01*
X563066619Y-187030857D01*
X563161857Y-186983238D01*
X563304714Y-186983238D01*
X563399952Y-187030857D01*
X563447571Y-187078476D01*
X563495190Y-187173714D01*
X563495190Y-187554666D01*
X563923761Y-186173714D02*
X563971380Y-186268952D01*
X563971380Y-186459428D01*
X563923761Y-186554666D01*
X563828523Y-186602285D01*
X563447571Y-186602285D01*
X563352333Y-186554666D01*
X563304714Y-186459428D01*
X563304714Y-186268952D01*
X563352333Y-186173714D01*
X563447571Y-186126095D01*
X563542809Y-186126095D01*
X563638047Y-186602285D01*
X563923761Y-185268952D02*
X563971380Y-185364190D01*
X563971380Y-185554666D01*
X563923761Y-185649904D01*
X563876142Y-185697523D01*
X563780904Y-185745142D01*
X563495190Y-185745142D01*
X563399952Y-185697523D01*
X563352333Y-185649904D01*
X563304714Y-185554666D01*
X563304714Y-185364190D01*
X563352333Y-185268952D01*
X563923761Y-184459428D02*
X563971380Y-184554666D01*
X563971380Y-184745142D01*
X563923761Y-184840380D01*
X563828523Y-184888000D01*
X563447571Y-184888000D01*
X563352333Y-184840380D01*
X563304714Y-184745142D01*
X563304714Y-184554666D01*
X563352333Y-184459428D01*
X563447571Y-184411809D01*
X563542809Y-184411809D01*
X563638047Y-184888000D01*
X563304714Y-183983238D02*
X564304714Y-183983238D01*
X563352333Y-183983238D02*
X563304714Y-183888000D01*
X563304714Y-183697523D01*
X563352333Y-183602285D01*
X563399952Y-183554666D01*
X563495190Y-183507047D01*
X563780904Y-183507047D01*
X563876142Y-183554666D01*
X563923761Y-183602285D01*
X563971380Y-183697523D01*
X563971380Y-183888000D01*
X563923761Y-183983238D01*
X563304714Y-183221333D02*
X563304714Y-182840380D01*
X562971380Y-183078476D02*
X563828523Y-183078476D01*
X563923761Y-183030857D01*
X563971380Y-182935619D01*
X563971380Y-182840380D01*
X563971380Y-182078476D02*
X563447571Y-182078476D01*
X563352333Y-182126095D01*
X563304714Y-182221333D01*
X563304714Y-182411809D01*
X563352333Y-182507047D01*
X563923761Y-182078476D02*
X563971380Y-182173714D01*
X563971380Y-182411809D01*
X563923761Y-182507047D01*
X563828523Y-182554666D01*
X563733285Y-182554666D01*
X563638047Y-182507047D01*
X563590428Y-182411809D01*
X563590428Y-182173714D01*
X563542809Y-182078476D01*
X563923761Y-181173714D02*
X563971380Y-181268952D01*
X563971380Y-181459428D01*
X563923761Y-181554666D01*
X563876142Y-181602285D01*
X563780904Y-181649904D01*
X563495190Y-181649904D01*
X563399952Y-181602285D01*
X563352333Y-181554666D01*
X563304714Y-181459428D01*
X563304714Y-181268952D01*
X563352333Y-181173714D01*
X563971380Y-180602285D02*
X563923761Y-180697523D01*
X563828523Y-180745142D01*
X562971380Y-180745142D01*
X563923761Y-179840380D02*
X563971380Y-179935619D01*
X563971380Y-180126095D01*
X563923761Y-180221333D01*
X563828523Y-180268952D01*
X563447571Y-180268952D01*
X563352333Y-180221333D01*
X563304714Y-180126095D01*
X563304714Y-179935619D01*
X563352333Y-179840380D01*
X563447571Y-179792761D01*
X563542809Y-179792761D01*
X563638047Y-180268952D01*
X564066619Y-179602285D02*
X564066619Y-178840380D01*
X562971380Y-178602285D02*
X563780904Y-178602285D01*
X563876142Y-178554666D01*
X563923761Y-178507047D01*
X563971380Y-178411809D01*
X563971380Y-178221333D01*
X563923761Y-178126095D01*
X563876142Y-178078476D01*
X563780904Y-178030857D01*
X562971380Y-178030857D01*
X563923761Y-177602285D02*
X563971380Y-177459428D01*
X563971380Y-177221333D01*
X563923761Y-177126095D01*
X563876142Y-177078476D01*
X563780904Y-177030857D01*
X563685666Y-177030857D01*
X563590428Y-177078476D01*
X563542809Y-177126095D01*
X563495190Y-177221333D01*
X563447571Y-177411809D01*
X563399952Y-177507047D01*
X563352333Y-177554666D01*
X563257095Y-177602285D01*
X563161857Y-177602285D01*
X563066619Y-177554666D01*
X563019000Y-177507047D01*
X562971380Y-177411809D01*
X562971380Y-177173714D01*
X563019000Y-177030857D01*
X563447571Y-176268952D02*
X563495190Y-176126095D01*
X563542809Y-176078476D01*
X563638047Y-176030857D01*
X563780904Y-176030857D01*
X563876142Y-176078476D01*
X563923761Y-176126095D01*
X563971380Y-176221333D01*
X563971380Y-176602285D01*
X562971380Y-176602285D01*
X562971380Y-176268952D01*
X563019000Y-176173714D01*
X563066619Y-176126095D01*
X563161857Y-176078476D01*
X563257095Y-176078476D01*
X563352333Y-176126095D01*
X563399952Y-176173714D01*
X563447571Y-176268952D01*
X563447571Y-176602285D01*
X563066619Y-175649904D02*
X563019000Y-175602285D01*
X562971380Y-175507047D01*
X562971380Y-175268952D01*
X563019000Y-175173714D01*
X563066619Y-175126095D01*
X563161857Y-175078476D01*
X563257095Y-175078476D01*
X563399952Y-175126095D01*
X563971380Y-175697523D01*
X563971380Y-175078476D01*
X563876142Y-174649904D02*
X563923761Y-174602285D01*
X563971380Y-174649904D01*
X563923761Y-174697523D01*
X563876142Y-174649904D01*
X563971380Y-174649904D01*
X562971380Y-173983238D02*
X562971380Y-173888000D01*
X563019000Y-173792761D01*
X563066619Y-173745142D01*
X563161857Y-173697523D01*
X563352333Y-173649904D01*
X563590428Y-173649904D01*
X563780904Y-173697523D01*
X563876142Y-173745142D01*
X563923761Y-173792761D01*
X563971380Y-173888000D01*
X563971380Y-173983238D01*
X563923761Y-174078476D01*
X563876142Y-174126095D01*
X563780904Y-174173714D01*
X563590428Y-174221333D01*
X563352333Y-174221333D01*
X563161857Y-174173714D01*
X563066619Y-174126095D01*
X563019000Y-174078476D01*
X562971380Y-173983238D01*
X557871380Y-183721333D02*
X558585666Y-183721333D01*
X558728523Y-183768952D01*
X558823761Y-183864190D01*
X558871380Y-184007047D01*
X558871380Y-184102285D01*
X557966619Y-183292761D02*
X557919000Y-183245142D01*
X557871380Y-183149904D01*
X557871380Y-182911809D01*
X557919000Y-182816571D01*
X557966619Y-182768952D01*
X558061857Y-182721333D01*
X558157095Y-182721333D01*
X558299952Y-182768952D01*
X558871380Y-183340380D01*
X558871380Y-182721333D01*
%TO.C,FB1*%
X544992980Y-185968590D02*
X544992980Y-186159066D01*
X545040600Y-186254304D01*
X545088219Y-186301923D01*
X545231076Y-186397161D01*
X545421552Y-186444780D01*
X545802504Y-186444780D01*
X545897742Y-186397161D01*
X545945361Y-186349542D01*
X545992980Y-186254304D01*
X545992980Y-186063828D01*
X545945361Y-185968590D01*
X545897742Y-185920971D01*
X545802504Y-185873352D01*
X545564409Y-185873352D01*
X545469171Y-185920971D01*
X545421552Y-185968590D01*
X545373933Y-186063828D01*
X545373933Y-186254304D01*
X545421552Y-186349542D01*
X545469171Y-186397161D01*
X545564409Y-186444780D01*
X544992980Y-185254304D02*
X544992980Y-185159066D01*
X545040600Y-185063828D01*
X545088219Y-185016209D01*
X545183457Y-184968590D01*
X545373933Y-184920971D01*
X545612028Y-184920971D01*
X545802504Y-184968590D01*
X545897742Y-185016209D01*
X545945361Y-185063828D01*
X545992980Y-185159066D01*
X545992980Y-185254304D01*
X545945361Y-185349542D01*
X545897742Y-185397161D01*
X545802504Y-185444780D01*
X545612028Y-185492400D01*
X545373933Y-185492400D01*
X545183457Y-185444780D01*
X545088219Y-185397161D01*
X545040600Y-185349542D01*
X544992980Y-185254304D01*
X544992980Y-184301923D02*
X544992980Y-184206685D01*
X545040600Y-184111447D01*
X545088219Y-184063828D01*
X545183457Y-184016209D01*
X545373933Y-183968590D01*
X545612028Y-183968590D01*
X545802504Y-184016209D01*
X545897742Y-184063828D01*
X545945361Y-184111447D01*
X545992980Y-184206685D01*
X545992980Y-184301923D01*
X545945361Y-184397161D01*
X545897742Y-184444780D01*
X545802504Y-184492400D01*
X545612028Y-184540019D01*
X545373933Y-184540019D01*
X545183457Y-184492400D01*
X545088219Y-184444780D01*
X545040600Y-184397161D01*
X544992980Y-184301923D01*
X545516790Y-182159066D02*
X545469171Y-182206685D01*
X545421552Y-182301923D01*
X545421552Y-182397161D01*
X545469171Y-182492400D01*
X545516790Y-182540019D01*
X545612028Y-182587638D01*
X545707266Y-182587638D01*
X545802504Y-182540019D01*
X545850123Y-182492400D01*
X545897742Y-182397161D01*
X545897742Y-182301923D01*
X545850123Y-182206685D01*
X545802504Y-182159066D01*
X545421552Y-182159066D02*
X545802504Y-182159066D01*
X545850123Y-182111447D01*
X545850123Y-182063828D01*
X545802504Y-181968590D01*
X545707266Y-181920971D01*
X545469171Y-181920971D01*
X545326314Y-182016209D01*
X545231076Y-182159066D01*
X545183457Y-182349542D01*
X545231076Y-182540019D01*
X545326314Y-182682876D01*
X545469171Y-182778114D01*
X545659647Y-182825733D01*
X545850123Y-182778114D01*
X545992980Y-182682876D01*
X546088219Y-182540019D01*
X546135838Y-182349542D01*
X546088219Y-182159066D01*
X545992980Y-182016209D01*
X544992980Y-180301923D02*
X544992980Y-180492400D01*
X545040600Y-180587638D01*
X545088219Y-180635257D01*
X545231076Y-180730495D01*
X545421552Y-180778114D01*
X545802504Y-180778114D01*
X545897742Y-180730495D01*
X545945361Y-180682876D01*
X545992980Y-180587638D01*
X545992980Y-180397161D01*
X545945361Y-180301923D01*
X545897742Y-180254304D01*
X545802504Y-180206685D01*
X545564409Y-180206685D01*
X545469171Y-180254304D01*
X545421552Y-180301923D01*
X545373933Y-180397161D01*
X545373933Y-180587638D01*
X545421552Y-180682876D01*
X545469171Y-180730495D01*
X545564409Y-180778114D01*
X544992980Y-179587638D02*
X544992980Y-179492400D01*
X545040600Y-179397161D01*
X545088219Y-179349542D01*
X545183457Y-179301923D01*
X545373933Y-179254304D01*
X545612028Y-179254304D01*
X545802504Y-179301923D01*
X545897742Y-179349542D01*
X545945361Y-179397161D01*
X545992980Y-179492400D01*
X545992980Y-179587638D01*
X545945361Y-179682876D01*
X545897742Y-179730495D01*
X545802504Y-179778114D01*
X545612028Y-179825733D01*
X545373933Y-179825733D01*
X545183457Y-179778114D01*
X545088219Y-179730495D01*
X545040600Y-179682876D01*
X544992980Y-179587638D01*
X544992980Y-178635257D02*
X544992980Y-178540019D01*
X545040600Y-178444780D01*
X545088219Y-178397161D01*
X545183457Y-178349542D01*
X545373933Y-178301923D01*
X545612028Y-178301923D01*
X545802504Y-178349542D01*
X545897742Y-178397161D01*
X545945361Y-178444780D01*
X545992980Y-178540019D01*
X545992980Y-178635257D01*
X545945361Y-178730495D01*
X545897742Y-178778114D01*
X545802504Y-178825733D01*
X545612028Y-178873352D01*
X545373933Y-178873352D01*
X545183457Y-178825733D01*
X545088219Y-178778114D01*
X545040600Y-178730495D01*
X544992980Y-178635257D01*
X545992980Y-177111447D02*
X544992980Y-177111447D01*
X545707266Y-176778114D01*
X544992980Y-176444780D01*
X545992980Y-176444780D01*
X545992980Y-175968590D02*
X544992980Y-175968590D01*
X545469171Y-175968590D02*
X545469171Y-175397161D01*
X545992980Y-175397161D02*
X544992980Y-175397161D01*
X545326314Y-175016209D02*
X545326314Y-174492400D01*
X545992980Y-175016209D01*
X545992980Y-174492400D01*
D15*
X547054885Y-180909066D02*
X547054885Y-181075733D01*
X547316790Y-181075733D02*
X546816790Y-181075733D01*
X546816790Y-180837638D01*
X547054885Y-180480495D02*
X547078695Y-180409066D01*
X547102504Y-180385257D01*
X547150123Y-180361447D01*
X547221552Y-180361447D01*
X547269171Y-180385257D01*
X547292980Y-180409066D01*
X547316790Y-180456685D01*
X547316790Y-180647161D01*
X546816790Y-180647161D01*
X546816790Y-180480495D01*
X546840600Y-180432876D01*
X546864409Y-180409066D01*
X546912028Y-180385257D01*
X546959647Y-180385257D01*
X547007266Y-180409066D01*
X547031076Y-180432876D01*
X547054885Y-180480495D01*
X547054885Y-180647161D01*
X547316790Y-179885257D02*
X547316790Y-180170971D01*
X547316790Y-180028114D02*
X546816790Y-180028114D01*
X546888219Y-180075733D01*
X546935838Y-180123352D01*
X546959647Y-180170971D01*
%TO.C,D3*%
D11*
X561825380Y-177363190D02*
X560825380Y-177363190D01*
X560825380Y-176982238D01*
X560873000Y-176887000D01*
X560920619Y-176839380D01*
X561015857Y-176791761D01*
X561158714Y-176791761D01*
X561253952Y-176839380D01*
X561301571Y-176887000D01*
X561349190Y-176982238D01*
X561349190Y-177363190D01*
X561825380Y-176220333D02*
X561777761Y-176315571D01*
X561730142Y-176363190D01*
X561634904Y-176410809D01*
X561349190Y-176410809D01*
X561253952Y-176363190D01*
X561206333Y-176315571D01*
X561158714Y-176220333D01*
X561158714Y-176077476D01*
X561206333Y-175982238D01*
X561253952Y-175934619D01*
X561349190Y-175887000D01*
X561634904Y-175887000D01*
X561730142Y-175934619D01*
X561777761Y-175982238D01*
X561825380Y-176077476D01*
X561825380Y-176220333D01*
X561158714Y-175553666D02*
X561825380Y-175363190D01*
X561349190Y-175172714D01*
X561825380Y-174982238D01*
X561158714Y-174791761D01*
X561777761Y-174029857D02*
X561825380Y-174125095D01*
X561825380Y-174315571D01*
X561777761Y-174410809D01*
X561682523Y-174458428D01*
X561301571Y-174458428D01*
X561206333Y-174410809D01*
X561158714Y-174315571D01*
X561158714Y-174125095D01*
X561206333Y-174029857D01*
X561301571Y-173982238D01*
X561396809Y-173982238D01*
X561492047Y-174458428D01*
X561825380Y-173553666D02*
X561158714Y-173553666D01*
X561349190Y-173553666D02*
X561253952Y-173506047D01*
X561206333Y-173458428D01*
X561158714Y-173363190D01*
X561158714Y-173267952D01*
D16*
X560123952Y-175682238D02*
X559723952Y-175682238D01*
X559723952Y-175587000D01*
X559743000Y-175529857D01*
X559781095Y-175491761D01*
X559819190Y-175472714D01*
X559895380Y-175453666D01*
X559952523Y-175453666D01*
X560028714Y-175472714D01*
X560066809Y-175491761D01*
X560104904Y-175529857D01*
X560123952Y-175587000D01*
X560123952Y-175682238D01*
X559723952Y-175320333D02*
X559723952Y-175072714D01*
X559876333Y-175206047D01*
X559876333Y-175148904D01*
X559895380Y-175110809D01*
X559914428Y-175091761D01*
X559952523Y-175072714D01*
X560047761Y-175072714D01*
X560085857Y-175091761D01*
X560104904Y-175110809D01*
X560123952Y-175148904D01*
X560123952Y-175263190D01*
X560104904Y-175301285D01*
X560085857Y-175320333D01*
%TO.C,D2*%
D11*
X561904761Y-205747666D02*
X561952380Y-205604809D01*
X561952380Y-205366714D01*
X561904761Y-205271476D01*
X561857142Y-205223857D01*
X561761904Y-205176238D01*
X561666666Y-205176238D01*
X561571428Y-205223857D01*
X561523809Y-205271476D01*
X561476190Y-205366714D01*
X561428571Y-205557190D01*
X561380952Y-205652428D01*
X561333333Y-205700047D01*
X561238095Y-205747666D01*
X561142857Y-205747666D01*
X561047619Y-205700047D01*
X561000000Y-205652428D01*
X560952380Y-205557190D01*
X560952380Y-205319095D01*
X561000000Y-205176238D01*
X561285714Y-204890523D02*
X561285714Y-204509571D01*
X560952380Y-204747666D02*
X561809523Y-204747666D01*
X561904761Y-204700047D01*
X561952380Y-204604809D01*
X561952380Y-204509571D01*
X561952380Y-203747666D02*
X561428571Y-203747666D01*
X561333333Y-203795285D01*
X561285714Y-203890523D01*
X561285714Y-204081000D01*
X561333333Y-204176238D01*
X561904761Y-203747666D02*
X561952380Y-203842904D01*
X561952380Y-204081000D01*
X561904761Y-204176238D01*
X561809523Y-204223857D01*
X561714285Y-204223857D01*
X561619047Y-204176238D01*
X561571428Y-204081000D01*
X561571428Y-203842904D01*
X561523809Y-203747666D01*
X561285714Y-203414333D02*
X561285714Y-203033380D01*
X560952380Y-203271476D02*
X561809523Y-203271476D01*
X561904761Y-203223857D01*
X561952380Y-203128619D01*
X561952380Y-203033380D01*
X561285714Y-202271476D02*
X561952380Y-202271476D01*
X561285714Y-202700047D02*
X561809523Y-202700047D01*
X561904761Y-202652428D01*
X561952380Y-202557190D01*
X561952380Y-202414333D01*
X561904761Y-202319095D01*
X561857142Y-202271476D01*
X561904761Y-201842904D02*
X561952380Y-201747666D01*
X561952380Y-201557190D01*
X561904761Y-201461952D01*
X561809523Y-201414333D01*
X561761904Y-201414333D01*
X561666666Y-201461952D01*
X561619047Y-201557190D01*
X561619047Y-201700047D01*
X561571428Y-201795285D01*
X561476190Y-201842904D01*
X561428571Y-201842904D01*
X561333333Y-201795285D01*
X561285714Y-201700047D01*
X561285714Y-201557190D01*
X561333333Y-201461952D01*
D16*
X560250952Y-203876238D02*
X559850952Y-203876238D01*
X559850952Y-203781000D01*
X559870000Y-203723857D01*
X559908095Y-203685761D01*
X559946190Y-203666714D01*
X560022380Y-203647666D01*
X560079523Y-203647666D01*
X560155714Y-203666714D01*
X560193809Y-203685761D01*
X560231904Y-203723857D01*
X560250952Y-203781000D01*
X560250952Y-203876238D01*
X559889047Y-203495285D02*
X559870000Y-203476238D01*
X559850952Y-203438142D01*
X559850952Y-203342904D01*
X559870000Y-203304809D01*
X559889047Y-203285761D01*
X559927142Y-203266714D01*
X559965238Y-203266714D01*
X560022380Y-203285761D01*
X560250952Y-203514333D01*
X560250952Y-203266714D01*
%TO.C,D1*%
D11*
X559092380Y-229076095D02*
X558616190Y-229409428D01*
X559092380Y-229647523D02*
X558092380Y-229647523D01*
X558092380Y-229266571D01*
X558140000Y-229171333D01*
X558187619Y-229123714D01*
X558282857Y-229076095D01*
X558425714Y-229076095D01*
X558520952Y-229123714D01*
X558568571Y-229171333D01*
X558616190Y-229266571D01*
X558616190Y-229647523D01*
X559044761Y-228266571D02*
X559092380Y-228361809D01*
X559092380Y-228552285D01*
X559044761Y-228647523D01*
X558949523Y-228695142D01*
X558568571Y-228695142D01*
X558473333Y-228647523D01*
X558425714Y-228552285D01*
X558425714Y-228361809D01*
X558473333Y-228266571D01*
X558568571Y-228218952D01*
X558663809Y-228218952D01*
X558759047Y-228695142D01*
X559044761Y-227838000D02*
X559092380Y-227742761D01*
X559092380Y-227552285D01*
X559044761Y-227457047D01*
X558949523Y-227409428D01*
X558901904Y-227409428D01*
X558806666Y-227457047D01*
X558759047Y-227552285D01*
X558759047Y-227695142D01*
X558711428Y-227790380D01*
X558616190Y-227838000D01*
X558568571Y-227838000D01*
X558473333Y-227790380D01*
X558425714Y-227695142D01*
X558425714Y-227552285D01*
X558473333Y-227457047D01*
X559044761Y-226599904D02*
X559092380Y-226695142D01*
X559092380Y-226885619D01*
X559044761Y-226980857D01*
X558949523Y-227028476D01*
X558568571Y-227028476D01*
X558473333Y-226980857D01*
X558425714Y-226885619D01*
X558425714Y-226695142D01*
X558473333Y-226599904D01*
X558568571Y-226552285D01*
X558663809Y-226552285D01*
X558759047Y-227028476D01*
X558425714Y-226266571D02*
X558425714Y-225885619D01*
X558092380Y-226123714D02*
X558949523Y-226123714D01*
X559044761Y-226076095D01*
X559092380Y-225980857D01*
X559092380Y-225885619D01*
D16*
X560250952Y-228133238D02*
X559850952Y-228133238D01*
X559850952Y-228038000D01*
X559870000Y-227980857D01*
X559908095Y-227942761D01*
X559946190Y-227923714D01*
X560022380Y-227904666D01*
X560079523Y-227904666D01*
X560155714Y-227923714D01*
X560193809Y-227942761D01*
X560231904Y-227980857D01*
X560250952Y-228038000D01*
X560250952Y-228133238D01*
X560250952Y-227523714D02*
X560250952Y-227752285D01*
X560250952Y-227638000D02*
X559850952Y-227638000D01*
X559908095Y-227676095D01*
X559946190Y-227714190D01*
X559965238Y-227752285D01*
%TO.C,C1*%
D11*
X559015380Y-223432666D02*
X559015380Y-224004095D01*
X559015380Y-223718380D02*
X558015380Y-223718380D01*
X558158238Y-223813619D01*
X558253476Y-223908857D01*
X558301095Y-224004095D01*
X558348714Y-222575523D02*
X559015380Y-222575523D01*
X558348714Y-223004095D02*
X558872523Y-223004095D01*
X558967761Y-222956476D01*
X559015380Y-222861238D01*
X559015380Y-222718380D01*
X558967761Y-222623142D01*
X558920142Y-222575523D01*
D12*
X557492285Y-223307666D02*
X557504190Y-223319571D01*
X557516095Y-223355285D01*
X557516095Y-223379095D01*
X557504190Y-223414809D01*
X557480380Y-223438619D01*
X557456571Y-223450523D01*
X557408952Y-223462428D01*
X557373238Y-223462428D01*
X557325619Y-223450523D01*
X557301809Y-223438619D01*
X557278000Y-223414809D01*
X557266095Y-223379095D01*
X557266095Y-223355285D01*
X557278000Y-223319571D01*
X557289904Y-223307666D01*
X557516095Y-223069571D02*
X557516095Y-223212428D01*
X557516095Y-223141000D02*
X557266095Y-223141000D01*
X557301809Y-223164809D01*
X557325619Y-223188619D01*
X557337523Y-223212428D01*
%TO.C,C3*%
D11*
X544434733Y-182527980D02*
X543863304Y-182527980D01*
X544149019Y-182527980D02*
X544149019Y-181527980D01*
X544053780Y-181670838D01*
X543958542Y-181766076D01*
X543863304Y-181813695D01*
X545291876Y-181861314D02*
X545291876Y-182527980D01*
X544863304Y-181861314D02*
X544863304Y-182385123D01*
X544910923Y-182480361D01*
X545006161Y-182527980D01*
X545149019Y-182527980D01*
X545244257Y-182480361D01*
X545291876Y-182432742D01*
D12*
X544559733Y-183324885D02*
X544547828Y-183336790D01*
X544512114Y-183348695D01*
X544488304Y-183348695D01*
X544452590Y-183336790D01*
X544428780Y-183312980D01*
X544416876Y-183289171D01*
X544404971Y-183241552D01*
X544404971Y-183205838D01*
X544416876Y-183158219D01*
X544428780Y-183134409D01*
X544452590Y-183110600D01*
X544488304Y-183098695D01*
X544512114Y-183098695D01*
X544547828Y-183110600D01*
X544559733Y-183122504D01*
X544643066Y-183098695D02*
X544797828Y-183098695D01*
X544714495Y-183193933D01*
X544750209Y-183193933D01*
X544774019Y-183205838D01*
X544785923Y-183217742D01*
X544797828Y-183241552D01*
X544797828Y-183301076D01*
X544785923Y-183324885D01*
X544774019Y-183336790D01*
X544750209Y-183348695D01*
X544678780Y-183348695D01*
X544654971Y-183336790D01*
X544643066Y-183324885D01*
%TO.C,C2*%
D11*
X549616333Y-181063380D02*
X549044904Y-181063380D01*
X549330619Y-181063380D02*
X549330619Y-180063380D01*
X549235380Y-180206238D01*
X549140142Y-180301476D01*
X549044904Y-180349095D01*
X550473476Y-180396714D02*
X550473476Y-181063380D01*
X550044904Y-180396714D02*
X550044904Y-180920523D01*
X550092523Y-181015761D01*
X550187761Y-181063380D01*
X550330619Y-181063380D01*
X550425857Y-181015761D01*
X550473476Y-180968142D01*
D12*
X549741333Y-179540285D02*
X549729428Y-179552190D01*
X549693714Y-179564095D01*
X549669904Y-179564095D01*
X549634190Y-179552190D01*
X549610380Y-179528380D01*
X549598476Y-179504571D01*
X549586571Y-179456952D01*
X549586571Y-179421238D01*
X549598476Y-179373619D01*
X549610380Y-179349809D01*
X549634190Y-179326000D01*
X549669904Y-179314095D01*
X549693714Y-179314095D01*
X549729428Y-179326000D01*
X549741333Y-179337904D01*
X549836571Y-179337904D02*
X549848476Y-179326000D01*
X549872285Y-179314095D01*
X549931809Y-179314095D01*
X549955619Y-179326000D01*
X549967523Y-179337904D01*
X549979428Y-179361714D01*
X549979428Y-179385523D01*
X549967523Y-179421238D01*
X549824666Y-179564095D01*
X549979428Y-179564095D01*
%TO.C,C15*%
D11*
X548375814Y-193161725D02*
X548443158Y-193161725D01*
X548544173Y-193195397D01*
X548712532Y-193363756D01*
X548746204Y-193464771D01*
X548746204Y-193532114D01*
X548712532Y-193633130D01*
X548645188Y-193700473D01*
X548510501Y-193767817D01*
X547702379Y-193767817D01*
X548140112Y-194205549D01*
X549217608Y-194340237D02*
X548746204Y-194811641D01*
X548914563Y-194037191D02*
X548544173Y-194407580D01*
X548510501Y-194508595D01*
X548544173Y-194609611D01*
X548645188Y-194710626D01*
X548746204Y-194744298D01*
X548813547Y-194744298D01*
X549689013Y-194474924D02*
X549756356Y-194474924D01*
X549857372Y-194508595D01*
X550025730Y-194676954D01*
X550059402Y-194777969D01*
X550059402Y-194845313D01*
X550025730Y-194946328D01*
X549958387Y-195013672D01*
X549823700Y-195081015D01*
X549015578Y-195081015D01*
X549453311Y-195518748D01*
D16*
X547620557Y-195270587D02*
X547593619Y-195270587D01*
X547539745Y-195243650D01*
X547512807Y-195216712D01*
X547485870Y-195162838D01*
X547485870Y-195108963D01*
X547499338Y-195068557D01*
X547539745Y-195001213D01*
X547580151Y-194960807D01*
X547647494Y-194920401D01*
X547687900Y-194906932D01*
X547741775Y-194906932D01*
X547795650Y-194933870D01*
X547822587Y-194960807D01*
X547849525Y-195014682D01*
X547849525Y-195041619D01*
X547862993Y-195566899D02*
X547701369Y-195405274D01*
X547782181Y-195486087D02*
X548065024Y-195203244D01*
X547997680Y-195216712D01*
X547943806Y-195216712D01*
X547903400Y-195203244D01*
X548401741Y-195539961D02*
X548267054Y-195405274D01*
X548118899Y-195526493D01*
X548145836Y-195526493D01*
X548186242Y-195539961D01*
X548253586Y-195607305D01*
X548267054Y-195647711D01*
X548267054Y-195674648D01*
X548253586Y-195715054D01*
X548186242Y-195782398D01*
X548145836Y-195795867D01*
X548118899Y-195795867D01*
X548078493Y-195782398D01*
X548011149Y-195715054D01*
X547997680Y-195674648D01*
X547997680Y-195647711D01*
%TO.C,C14*%
D11*
X554504619Y-212034285D02*
X554457000Y-211986666D01*
X554409380Y-211891428D01*
X554409380Y-211653333D01*
X554457000Y-211558095D01*
X554504619Y-211510476D01*
X554599857Y-211462857D01*
X554695095Y-211462857D01*
X554837952Y-211510476D01*
X555409380Y-212081904D01*
X555409380Y-211462857D01*
X554742714Y-210605714D02*
X555409380Y-210605714D01*
X554742714Y-211034285D02*
X555266523Y-211034285D01*
X555361761Y-210986666D01*
X555409380Y-210891428D01*
X555409380Y-210748571D01*
X555361761Y-210653333D01*
X555314142Y-210605714D01*
X554504619Y-210177142D02*
X554457000Y-210129523D01*
X554409380Y-210034285D01*
X554409380Y-209796190D01*
X554457000Y-209700952D01*
X554504619Y-209653333D01*
X554599857Y-209605714D01*
X554695095Y-209605714D01*
X554837952Y-209653333D01*
X555409380Y-210224761D01*
X555409380Y-209605714D01*
D16*
X556529857Y-211077142D02*
X556548904Y-211096190D01*
X556567952Y-211153333D01*
X556567952Y-211191428D01*
X556548904Y-211248571D01*
X556510809Y-211286666D01*
X556472714Y-211305714D01*
X556396523Y-211324761D01*
X556339380Y-211324761D01*
X556263190Y-211305714D01*
X556225095Y-211286666D01*
X556187000Y-211248571D01*
X556167952Y-211191428D01*
X556167952Y-211153333D01*
X556187000Y-211096190D01*
X556206047Y-211077142D01*
X556567952Y-210696190D02*
X556567952Y-210924761D01*
X556567952Y-210810476D02*
X556167952Y-210810476D01*
X556225095Y-210848571D01*
X556263190Y-210886666D01*
X556282238Y-210924761D01*
X556301285Y-210353333D02*
X556567952Y-210353333D01*
X556148904Y-210448571D02*
X556434619Y-210543809D01*
X556434619Y-210296190D01*
%TO.C,C13*%
D11*
X535901380Y-204852447D02*
X535901380Y-205423876D01*
X535901380Y-205138161D02*
X534901380Y-205138161D01*
X535044238Y-205233400D01*
X535139476Y-205328638D01*
X535187095Y-205423876D01*
X534901380Y-204233400D02*
X534901380Y-204138161D01*
X534949000Y-204042923D01*
X534996619Y-203995304D01*
X535091857Y-203947685D01*
X535282333Y-203900066D01*
X535520428Y-203900066D01*
X535710904Y-203947685D01*
X535806142Y-203995304D01*
X535853761Y-204042923D01*
X535901380Y-204138161D01*
X535901380Y-204233400D01*
X535853761Y-204328638D01*
X535806142Y-204376257D01*
X535710904Y-204423876D01*
X535520428Y-204471495D01*
X535282333Y-204471495D01*
X535091857Y-204423876D01*
X534996619Y-204376257D01*
X534949000Y-204328638D01*
X534901380Y-204233400D01*
X534901380Y-203281019D02*
X534901380Y-203185780D01*
X534949000Y-203090542D01*
X534996619Y-203042923D01*
X535091857Y-202995304D01*
X535282333Y-202947685D01*
X535520428Y-202947685D01*
X535710904Y-202995304D01*
X535806142Y-203042923D01*
X535853761Y-203090542D01*
X535901380Y-203185780D01*
X535901380Y-203281019D01*
X535853761Y-203376257D01*
X535806142Y-203423876D01*
X535710904Y-203471495D01*
X535520428Y-203519114D01*
X535282333Y-203519114D01*
X535091857Y-203471495D01*
X534996619Y-203423876D01*
X534949000Y-203376257D01*
X534901380Y-203281019D01*
X535234714Y-202519114D02*
X535901380Y-202519114D01*
X535329952Y-202519114D02*
X535282333Y-202471495D01*
X535234714Y-202376257D01*
X535234714Y-202233400D01*
X535282333Y-202138161D01*
X535377571Y-202090542D01*
X535901380Y-202090542D01*
D12*
X534378285Y-203894114D02*
X534390190Y-203906019D01*
X534402095Y-203941733D01*
X534402095Y-203965542D01*
X534390190Y-204001257D01*
X534366380Y-204025066D01*
X534342571Y-204036971D01*
X534294952Y-204048876D01*
X534259238Y-204048876D01*
X534211619Y-204036971D01*
X534187809Y-204025066D01*
X534164000Y-204001257D01*
X534152095Y-203965542D01*
X534152095Y-203941733D01*
X534164000Y-203906019D01*
X534175904Y-203894114D01*
X534402095Y-203656019D02*
X534402095Y-203798876D01*
X534402095Y-203727447D02*
X534152095Y-203727447D01*
X534187809Y-203751257D01*
X534211619Y-203775066D01*
X534223523Y-203798876D01*
X534152095Y-203572685D02*
X534152095Y-203417923D01*
X534247333Y-203501257D01*
X534247333Y-203465542D01*
X534259238Y-203441733D01*
X534271142Y-203429828D01*
X534294952Y-203417923D01*
X534354476Y-203417923D01*
X534378285Y-203429828D01*
X534390190Y-203441733D01*
X534402095Y-203465542D01*
X534402095Y-203536971D01*
X534390190Y-203560780D01*
X534378285Y-203572685D01*
%TO.C,C12*%
D11*
X545478876Y-194161351D02*
X545074815Y-193757290D01*
X545276845Y-193959320D02*
X545983952Y-193252214D01*
X545815593Y-193285885D01*
X545680906Y-193285885D01*
X545579891Y-193252214D01*
X546623715Y-193891977D02*
X546691059Y-193959320D01*
X546724731Y-194060336D01*
X546724731Y-194127679D01*
X546691059Y-194228694D01*
X546590044Y-194397053D01*
X546421685Y-194565412D01*
X546253326Y-194666427D01*
X546152311Y-194700099D01*
X546084967Y-194700099D01*
X545983952Y-194666427D01*
X545916608Y-194599084D01*
X545882937Y-194498068D01*
X545882937Y-194430725D01*
X545916608Y-194329710D01*
X546017624Y-194161351D01*
X546185982Y-193992992D01*
X546354341Y-193891977D01*
X546455356Y-193858305D01*
X546522700Y-193858305D01*
X546623715Y-193891977D01*
X547297150Y-194565412D02*
X547364494Y-194632756D01*
X547398166Y-194733771D01*
X547398166Y-194801114D01*
X547364494Y-194902130D01*
X547263479Y-195070488D01*
X547095120Y-195238847D01*
X546926761Y-195339862D01*
X546825746Y-195373534D01*
X546758402Y-195373534D01*
X546657387Y-195339862D01*
X546590044Y-195272519D01*
X546556372Y-195171504D01*
X546556372Y-195104160D01*
X546590044Y-195003145D01*
X546691059Y-194834786D01*
X546859418Y-194666427D01*
X547027776Y-194565412D01*
X547128792Y-194531740D01*
X547196135Y-194531740D01*
X547297150Y-194565412D01*
X547600196Y-195339862D02*
X547128792Y-195811267D01*
X547532853Y-195407206D02*
X547600196Y-195407206D01*
X547701211Y-195440878D01*
X547802227Y-195541893D01*
X547835898Y-195642908D01*
X547802227Y-195743923D01*
X547431837Y-196114313D01*
D12*
X545593023Y-195402492D02*
X545576187Y-195402492D01*
X545542515Y-195385656D01*
X545525679Y-195368820D01*
X545508843Y-195335148D01*
X545508843Y-195301477D01*
X545517261Y-195276223D01*
X545542515Y-195234133D01*
X545567769Y-195208879D01*
X545609859Y-195183625D01*
X545635112Y-195175208D01*
X545668784Y-195175208D01*
X545702456Y-195192043D01*
X545719292Y-195208879D01*
X545736128Y-195242551D01*
X545736128Y-195259387D01*
X545744546Y-195587687D02*
X545643530Y-195486671D01*
X545694038Y-195537179D02*
X545870815Y-195360402D01*
X545828725Y-195368820D01*
X545795053Y-195368820D01*
X545769800Y-195360402D01*
X545971830Y-195495089D02*
X545988666Y-195495089D01*
X546013920Y-195503507D01*
X546056009Y-195545597D01*
X546064427Y-195570851D01*
X546064427Y-195587687D01*
X546056009Y-195612940D01*
X546039174Y-195629776D01*
X546005502Y-195646612D01*
X545803471Y-195646612D01*
X545912904Y-195756045D01*
%TO.C,C5*%
D11*
X556424580Y-221648257D02*
X556424580Y-222219685D01*
X556424580Y-221933971D02*
X555424580Y-221933971D01*
X555567438Y-222029209D01*
X555662676Y-222124447D01*
X555710295Y-222219685D01*
X555424580Y-221029209D02*
X555424580Y-220933971D01*
X555472200Y-220838733D01*
X555519819Y-220791114D01*
X555615057Y-220743495D01*
X555805533Y-220695876D01*
X556043628Y-220695876D01*
X556234104Y-220743495D01*
X556329342Y-220791114D01*
X556376961Y-220838733D01*
X556424580Y-220933971D01*
X556424580Y-221029209D01*
X556376961Y-221124447D01*
X556329342Y-221172066D01*
X556234104Y-221219685D01*
X556043628Y-221267304D01*
X555805533Y-221267304D01*
X555615057Y-221219685D01*
X555519819Y-221172066D01*
X555472200Y-221124447D01*
X555424580Y-221029209D01*
X555757914Y-220267304D02*
X556424580Y-220267304D01*
X555853152Y-220267304D02*
X555805533Y-220219685D01*
X555757914Y-220124447D01*
X555757914Y-219981590D01*
X555805533Y-219886352D01*
X555900771Y-219838733D01*
X556424580Y-219838733D01*
D12*
X554901485Y-221047066D02*
X554913390Y-221058971D01*
X554925295Y-221094685D01*
X554925295Y-221118495D01*
X554913390Y-221154209D01*
X554889580Y-221178019D01*
X554865771Y-221189923D01*
X554818152Y-221201828D01*
X554782438Y-221201828D01*
X554734819Y-221189923D01*
X554711009Y-221178019D01*
X554687200Y-221154209D01*
X554675295Y-221118495D01*
X554675295Y-221094685D01*
X554687200Y-221058971D01*
X554699104Y-221047066D01*
X554675295Y-220820876D02*
X554675295Y-220939923D01*
X554794342Y-220951828D01*
X554782438Y-220939923D01*
X554770533Y-220916114D01*
X554770533Y-220856590D01*
X554782438Y-220832780D01*
X554794342Y-220820876D01*
X554818152Y-220808971D01*
X554877676Y-220808971D01*
X554901485Y-220820876D01*
X554913390Y-220832780D01*
X554925295Y-220856590D01*
X554925295Y-220916114D01*
X554913390Y-220939923D01*
X554901485Y-220951828D01*
%TO.C,C4*%
D11*
X557567580Y-221172066D02*
X557567580Y-221743495D01*
X557567580Y-221457780D02*
X556567580Y-221457780D01*
X556710438Y-221553019D01*
X556805676Y-221648257D01*
X556853295Y-221743495D01*
X556900914Y-220314923D02*
X557567580Y-220314923D01*
X556900914Y-220743495D02*
X557424723Y-220743495D01*
X557519961Y-220695876D01*
X557567580Y-220600638D01*
X557567580Y-220457780D01*
X557519961Y-220362542D01*
X557472342Y-220314923D01*
D12*
X556044485Y-221047066D02*
X556056390Y-221058971D01*
X556068295Y-221094685D01*
X556068295Y-221118495D01*
X556056390Y-221154209D01*
X556032580Y-221178019D01*
X556008771Y-221189923D01*
X555961152Y-221201828D01*
X555925438Y-221201828D01*
X555877819Y-221189923D01*
X555854009Y-221178019D01*
X555830200Y-221154209D01*
X555818295Y-221118495D01*
X555818295Y-221094685D01*
X555830200Y-221058971D01*
X555842104Y-221047066D01*
X555901628Y-220832780D02*
X556068295Y-220832780D01*
X555806390Y-220892304D02*
X555984961Y-220951828D01*
X555984961Y-220797066D01*
%TO.C,C11*%
D11*
X540947380Y-217781047D02*
X540947380Y-218352476D01*
X540947380Y-218066761D02*
X539947380Y-218066761D01*
X540090238Y-218162000D01*
X540185476Y-218257238D01*
X540233095Y-218352476D01*
X539947380Y-217162000D02*
X539947380Y-217066761D01*
X539995000Y-216971523D01*
X540042619Y-216923904D01*
X540137857Y-216876285D01*
X540328333Y-216828666D01*
X540566428Y-216828666D01*
X540756904Y-216876285D01*
X540852142Y-216923904D01*
X540899761Y-216971523D01*
X540947380Y-217066761D01*
X540947380Y-217162000D01*
X540899761Y-217257238D01*
X540852142Y-217304857D01*
X540756904Y-217352476D01*
X540566428Y-217400095D01*
X540328333Y-217400095D01*
X540137857Y-217352476D01*
X540042619Y-217304857D01*
X539995000Y-217257238D01*
X539947380Y-217162000D01*
X539947380Y-216209619D02*
X539947380Y-216114380D01*
X539995000Y-216019142D01*
X540042619Y-215971523D01*
X540137857Y-215923904D01*
X540328333Y-215876285D01*
X540566428Y-215876285D01*
X540756904Y-215923904D01*
X540852142Y-215971523D01*
X540899761Y-216019142D01*
X540947380Y-216114380D01*
X540947380Y-216209619D01*
X540899761Y-216304857D01*
X540852142Y-216352476D01*
X540756904Y-216400095D01*
X540566428Y-216447714D01*
X540328333Y-216447714D01*
X540137857Y-216400095D01*
X540042619Y-216352476D01*
X539995000Y-216304857D01*
X539947380Y-216209619D01*
X540280714Y-215447714D02*
X540947380Y-215447714D01*
X540375952Y-215447714D02*
X540328333Y-215400095D01*
X540280714Y-215304857D01*
X540280714Y-215162000D01*
X540328333Y-215066761D01*
X540423571Y-215019142D01*
X540947380Y-215019142D01*
D12*
X541744285Y-216822714D02*
X541756190Y-216834619D01*
X541768095Y-216870333D01*
X541768095Y-216894142D01*
X541756190Y-216929857D01*
X541732380Y-216953666D01*
X541708571Y-216965571D01*
X541660952Y-216977476D01*
X541625238Y-216977476D01*
X541577619Y-216965571D01*
X541553809Y-216953666D01*
X541530000Y-216929857D01*
X541518095Y-216894142D01*
X541518095Y-216870333D01*
X541530000Y-216834619D01*
X541541904Y-216822714D01*
X541768095Y-216584619D02*
X541768095Y-216727476D01*
X541768095Y-216656047D02*
X541518095Y-216656047D01*
X541553809Y-216679857D01*
X541577619Y-216703666D01*
X541589523Y-216727476D01*
X541768095Y-216346523D02*
X541768095Y-216489380D01*
X541768095Y-216417952D02*
X541518095Y-216417952D01*
X541553809Y-216441761D01*
X541577619Y-216465571D01*
X541589523Y-216489380D01*
%TO.C,C10*%
D11*
X558634380Y-208433847D02*
X558634380Y-209005276D01*
X558634380Y-208719561D02*
X557634380Y-208719561D01*
X557777238Y-208814800D01*
X557872476Y-208910038D01*
X557920095Y-209005276D01*
X557634380Y-207814800D02*
X557634380Y-207719561D01*
X557682000Y-207624323D01*
X557729619Y-207576704D01*
X557824857Y-207529085D01*
X558015333Y-207481466D01*
X558253428Y-207481466D01*
X558443904Y-207529085D01*
X558539142Y-207576704D01*
X558586761Y-207624323D01*
X558634380Y-207719561D01*
X558634380Y-207814800D01*
X558586761Y-207910038D01*
X558539142Y-207957657D01*
X558443904Y-208005276D01*
X558253428Y-208052895D01*
X558015333Y-208052895D01*
X557824857Y-208005276D01*
X557729619Y-207957657D01*
X557682000Y-207910038D01*
X557634380Y-207814800D01*
X557634380Y-206862419D02*
X557634380Y-206767180D01*
X557682000Y-206671942D01*
X557729619Y-206624323D01*
X557824857Y-206576704D01*
X558015333Y-206529085D01*
X558253428Y-206529085D01*
X558443904Y-206576704D01*
X558539142Y-206624323D01*
X558586761Y-206671942D01*
X558634380Y-206767180D01*
X558634380Y-206862419D01*
X558586761Y-206957657D01*
X558539142Y-207005276D01*
X558443904Y-207052895D01*
X558253428Y-207100514D01*
X558015333Y-207100514D01*
X557824857Y-207052895D01*
X557729619Y-207005276D01*
X557682000Y-206957657D01*
X557634380Y-206862419D01*
X557967714Y-206100514D02*
X558634380Y-206100514D01*
X558062952Y-206100514D02*
X558015333Y-206052895D01*
X557967714Y-205957657D01*
X557967714Y-205814800D01*
X558015333Y-205719561D01*
X558110571Y-205671942D01*
X558634380Y-205671942D01*
D12*
X557111285Y-207475514D02*
X557123190Y-207487419D01*
X557135095Y-207523133D01*
X557135095Y-207546942D01*
X557123190Y-207582657D01*
X557099380Y-207606466D01*
X557075571Y-207618371D01*
X557027952Y-207630276D01*
X556992238Y-207630276D01*
X556944619Y-207618371D01*
X556920809Y-207606466D01*
X556897000Y-207582657D01*
X556885095Y-207546942D01*
X556885095Y-207523133D01*
X556897000Y-207487419D01*
X556908904Y-207475514D01*
X557135095Y-207237419D02*
X557135095Y-207380276D01*
X557135095Y-207308847D02*
X556885095Y-207308847D01*
X556920809Y-207332657D01*
X556944619Y-207356466D01*
X556956523Y-207380276D01*
X556885095Y-207082657D02*
X556885095Y-207058847D01*
X556897000Y-207035038D01*
X556908904Y-207023133D01*
X556932714Y-207011228D01*
X556980333Y-206999323D01*
X557039857Y-206999323D01*
X557087476Y-207011228D01*
X557111285Y-207023133D01*
X557123190Y-207035038D01*
X557135095Y-207058847D01*
X557135095Y-207082657D01*
X557123190Y-207106466D01*
X557111285Y-207118371D01*
X557087476Y-207130276D01*
X557039857Y-207142180D01*
X556980333Y-207142180D01*
X556932714Y-207130276D01*
X556908904Y-207118371D01*
X556897000Y-207106466D01*
X556885095Y-207082657D01*
%TO.C,C9*%
D11*
X534185952Y-210366380D02*
X533614523Y-210366380D01*
X533900238Y-210366380D02*
X533900238Y-209366380D01*
X533805000Y-209509238D01*
X533709761Y-209604476D01*
X533614523Y-209652095D01*
X534805000Y-209366380D02*
X534900238Y-209366380D01*
X534995476Y-209414000D01*
X535043095Y-209461619D01*
X535090714Y-209556857D01*
X535138333Y-209747333D01*
X535138333Y-209985428D01*
X535090714Y-210175904D01*
X535043095Y-210271142D01*
X534995476Y-210318761D01*
X534900238Y-210366380D01*
X534805000Y-210366380D01*
X534709761Y-210318761D01*
X534662142Y-210271142D01*
X534614523Y-210175904D01*
X534566904Y-209985428D01*
X534566904Y-209747333D01*
X534614523Y-209556857D01*
X534662142Y-209461619D01*
X534709761Y-209414000D01*
X534805000Y-209366380D01*
X535757380Y-209366380D02*
X535852619Y-209366380D01*
X535947857Y-209414000D01*
X535995476Y-209461619D01*
X536043095Y-209556857D01*
X536090714Y-209747333D01*
X536090714Y-209985428D01*
X536043095Y-210175904D01*
X535995476Y-210271142D01*
X535947857Y-210318761D01*
X535852619Y-210366380D01*
X535757380Y-210366380D01*
X535662142Y-210318761D01*
X535614523Y-210271142D01*
X535566904Y-210175904D01*
X535519285Y-209985428D01*
X535519285Y-209747333D01*
X535566904Y-209556857D01*
X535614523Y-209461619D01*
X535662142Y-209414000D01*
X535757380Y-209366380D01*
X536519285Y-209699714D02*
X536519285Y-210366380D01*
X536519285Y-209794952D02*
X536566904Y-209747333D01*
X536662142Y-209699714D01*
X536805000Y-209699714D01*
X536900238Y-209747333D01*
X536947857Y-209842571D01*
X536947857Y-210366380D01*
D12*
X535263333Y-211163285D02*
X535251428Y-211175190D01*
X535215714Y-211187095D01*
X535191904Y-211187095D01*
X535156190Y-211175190D01*
X535132380Y-211151380D01*
X535120476Y-211127571D01*
X535108571Y-211079952D01*
X535108571Y-211044238D01*
X535120476Y-210996619D01*
X535132380Y-210972809D01*
X535156190Y-210949000D01*
X535191904Y-210937095D01*
X535215714Y-210937095D01*
X535251428Y-210949000D01*
X535263333Y-210960904D01*
X535382380Y-211187095D02*
X535430000Y-211187095D01*
X535453809Y-211175190D01*
X535465714Y-211163285D01*
X535489523Y-211127571D01*
X535501428Y-211079952D01*
X535501428Y-210984714D01*
X535489523Y-210960904D01*
X535477619Y-210949000D01*
X535453809Y-210937095D01*
X535406190Y-210937095D01*
X535382380Y-210949000D01*
X535370476Y-210960904D01*
X535358571Y-210984714D01*
X535358571Y-211044238D01*
X535370476Y-211068047D01*
X535382380Y-211079952D01*
X535406190Y-211091857D01*
X535453809Y-211091857D01*
X535477619Y-211079952D01*
X535489523Y-211068047D01*
X535501428Y-211044238D01*
%TO.C,C8*%
D11*
X537131487Y-210629762D02*
X536727426Y-210225701D01*
X536929456Y-210427731D02*
X537636563Y-209720625D01*
X537468204Y-209754296D01*
X537333517Y-209754296D01*
X537232502Y-209720625D01*
X538276326Y-210360388D02*
X538343670Y-210427731D01*
X538377342Y-210528747D01*
X538377342Y-210596090D01*
X538343670Y-210697105D01*
X538242655Y-210865464D01*
X538074296Y-211033823D01*
X537905937Y-211134838D01*
X537804922Y-211168510D01*
X537737578Y-211168510D01*
X537636563Y-211134838D01*
X537569219Y-211067495D01*
X537535548Y-210966479D01*
X537535548Y-210899136D01*
X537569219Y-210798121D01*
X537670235Y-210629762D01*
X537838593Y-210461403D01*
X538006952Y-210360388D01*
X538107967Y-210326716D01*
X538175311Y-210326716D01*
X538276326Y-210360388D01*
X538949761Y-211033823D02*
X539017105Y-211101167D01*
X539050777Y-211202182D01*
X539050777Y-211269525D01*
X539017105Y-211370541D01*
X538916090Y-211538899D01*
X538747731Y-211707258D01*
X538579372Y-211808273D01*
X538478357Y-211841945D01*
X538411013Y-211841945D01*
X538309998Y-211808273D01*
X538242655Y-211740930D01*
X538208983Y-211639915D01*
X538208983Y-211572571D01*
X538242655Y-211471556D01*
X538343670Y-211303197D01*
X538512029Y-211134838D01*
X538680387Y-211033823D01*
X538781403Y-211000151D01*
X538848746Y-211000151D01*
X538949761Y-211033823D01*
X539252807Y-211808273D02*
X538781403Y-212279678D01*
X539185464Y-211875617D02*
X539252807Y-211875617D01*
X539353822Y-211909289D01*
X539454838Y-212010304D01*
X539488509Y-212111319D01*
X539454838Y-212212334D01*
X539084448Y-212582724D01*
D12*
X537329813Y-211955082D02*
X537312977Y-211955082D01*
X537279306Y-211938246D01*
X537262470Y-211921410D01*
X537245634Y-211887739D01*
X537245634Y-211854067D01*
X537254052Y-211828813D01*
X537279306Y-211786723D01*
X537304559Y-211761470D01*
X537346649Y-211736216D01*
X537371903Y-211727798D01*
X537405575Y-211727798D01*
X537439246Y-211744634D01*
X537456082Y-211761470D01*
X537472918Y-211795141D01*
X537472918Y-211811977D01*
X537515008Y-211971918D02*
X537506590Y-211946664D01*
X537506590Y-211929828D01*
X537515008Y-211904575D01*
X537523426Y-211896157D01*
X537548680Y-211887739D01*
X537565515Y-211887739D01*
X537590769Y-211896157D01*
X537624441Y-211929828D01*
X537632859Y-211955082D01*
X537632859Y-211971918D01*
X537624441Y-211997172D01*
X537616023Y-212005590D01*
X537590769Y-212014008D01*
X537573933Y-212014008D01*
X537548680Y-212005590D01*
X537515008Y-211971918D01*
X537489754Y-211963500D01*
X537472918Y-211963500D01*
X537447664Y-211971918D01*
X537413993Y-212005590D01*
X537405575Y-212030844D01*
X537405575Y-212047680D01*
X537413993Y-212072933D01*
X537447664Y-212106605D01*
X537472918Y-212115023D01*
X537489754Y-212115023D01*
X537515008Y-212106605D01*
X537548680Y-212072933D01*
X537557098Y-212047680D01*
X537557098Y-212030844D01*
X537548680Y-212005590D01*
%TO.C,C7*%
D11*
X546891151Y-217791123D02*
X546487090Y-218195184D01*
X546689120Y-217993154D02*
X545982014Y-217286047D01*
X546015685Y-217454406D01*
X546015685Y-217589093D01*
X545982014Y-217690108D01*
X546621777Y-216646284D02*
X546689120Y-216578940D01*
X546790136Y-216545268D01*
X546857479Y-216545268D01*
X546958494Y-216578940D01*
X547126853Y-216679955D01*
X547295212Y-216848314D01*
X547396227Y-217016673D01*
X547429899Y-217117688D01*
X547429899Y-217185032D01*
X547396227Y-217286047D01*
X547328884Y-217353391D01*
X547227868Y-217387062D01*
X547160525Y-217387062D01*
X547059510Y-217353391D01*
X546891151Y-217252375D01*
X546722792Y-217084017D01*
X546621777Y-216915658D01*
X546588105Y-216814643D01*
X546588105Y-216747299D01*
X546621777Y-216646284D01*
X547295212Y-215972849D02*
X547362556Y-215905505D01*
X547463571Y-215871833D01*
X547530914Y-215871833D01*
X547631930Y-215905505D01*
X547800288Y-216006520D01*
X547968647Y-216174879D01*
X548069662Y-216343238D01*
X548103334Y-216444253D01*
X548103334Y-216511597D01*
X548069662Y-216612612D01*
X548002319Y-216679955D01*
X547901304Y-216713627D01*
X547833960Y-216713627D01*
X547732945Y-216679955D01*
X547564586Y-216578940D01*
X547396227Y-216410581D01*
X547295212Y-216242223D01*
X547261540Y-216141207D01*
X547261540Y-216073864D01*
X547295212Y-215972849D01*
X548069662Y-215669803D02*
X548541067Y-216141207D01*
X548137006Y-215737146D02*
X548137006Y-215669803D01*
X548170678Y-215568788D01*
X548271693Y-215467772D01*
X548372708Y-215434101D01*
X548473723Y-215467772D01*
X548844113Y-215838162D01*
D12*
X548216471Y-217592797D02*
X548216471Y-217609633D01*
X548199635Y-217643304D01*
X548182800Y-217660140D01*
X548149128Y-217676976D01*
X548115456Y-217676976D01*
X548090202Y-217668558D01*
X548048112Y-217643304D01*
X548022859Y-217618051D01*
X547997605Y-217575961D01*
X547989187Y-217550707D01*
X547989187Y-217517035D01*
X548006023Y-217483364D01*
X548022859Y-217466528D01*
X548056530Y-217449692D01*
X548073366Y-217449692D01*
X548115456Y-217373930D02*
X548233307Y-217256079D01*
X548334322Y-217508617D01*
%TO.C,C6*%
D11*
X544907039Y-218661519D02*
X544435635Y-219132924D01*
X545008054Y-218223787D02*
X544334619Y-218560504D01*
X544772352Y-218998237D01*
X545580474Y-219334955D02*
X545109070Y-219806359D01*
X545277429Y-219031909D02*
X544907039Y-219402298D01*
X544873367Y-219503313D01*
X544907039Y-219604329D01*
X545008054Y-219705344D01*
X545109070Y-219739016D01*
X545176413Y-219739016D01*
X546085551Y-219368626D02*
X546556955Y-219840031D01*
X545546803Y-220244092D01*
D16*
X546140436Y-218377666D02*
X546113498Y-218377666D01*
X546059624Y-218350729D01*
X546032686Y-218323792D01*
X546005749Y-218269917D01*
X546005749Y-218216042D01*
X546019217Y-218175636D01*
X546059624Y-218108292D01*
X546100030Y-218067886D01*
X546167373Y-218027480D01*
X546207779Y-218014011D01*
X546261654Y-218014011D01*
X546315529Y-218040949D01*
X546342466Y-218067886D01*
X546369404Y-218121761D01*
X546369404Y-218148698D01*
X546638778Y-218364198D02*
X546584903Y-218310323D01*
X546544497Y-218296854D01*
X546517559Y-218296854D01*
X546450216Y-218310323D01*
X546382872Y-218350729D01*
X546275123Y-218458479D01*
X546261654Y-218498885D01*
X546261654Y-218525822D01*
X546275123Y-218566228D01*
X546328998Y-218620103D01*
X546369404Y-218633572D01*
X546396341Y-218633572D01*
X546436747Y-218620103D01*
X546504091Y-218552759D01*
X546517559Y-218512353D01*
X546517559Y-218485416D01*
X546504091Y-218445010D01*
X546450216Y-218391135D01*
X546409810Y-218377666D01*
X546382872Y-218377666D01*
X546342466Y-218391135D01*
%TO.C,R10*%
D11*
X554599142Y-190360380D02*
X554122952Y-190360380D01*
X554075333Y-190836571D01*
X554122952Y-190788952D01*
X554218190Y-190741333D01*
X554456285Y-190741333D01*
X554551523Y-190788952D01*
X554599142Y-190836571D01*
X554646761Y-190931809D01*
X554646761Y-191169904D01*
X554599142Y-191265142D01*
X554551523Y-191312761D01*
X554456285Y-191360380D01*
X554218190Y-191360380D01*
X554122952Y-191312761D01*
X554075333Y-191265142D01*
X555075333Y-191360380D02*
X555075333Y-190360380D01*
X555170571Y-190979428D02*
X555456285Y-191360380D01*
X555456285Y-190693714D02*
X555075333Y-191074666D01*
X556408666Y-191360380D02*
X555837238Y-191360380D01*
X556122952Y-191360380D02*
X556122952Y-190360380D01*
X556027714Y-190503238D01*
X555932476Y-190598476D01*
X555837238Y-190646095D01*
D12*
X555074857Y-189855619D02*
X554988190Y-189731809D01*
X554926285Y-189855619D02*
X554926285Y-189595619D01*
X555025333Y-189595619D01*
X555050095Y-189608000D01*
X555062476Y-189620380D01*
X555074857Y-189645142D01*
X555074857Y-189682285D01*
X555062476Y-189707047D01*
X555050095Y-189719428D01*
X555025333Y-189731809D01*
X554926285Y-189731809D01*
X555322476Y-189855619D02*
X555173904Y-189855619D01*
X555248190Y-189855619D02*
X555248190Y-189595619D01*
X555223428Y-189632761D01*
X555198666Y-189657523D01*
X555173904Y-189669904D01*
X555483428Y-189595619D02*
X555508190Y-189595619D01*
X555532952Y-189608000D01*
X555545333Y-189620380D01*
X555557714Y-189645142D01*
X555570095Y-189694666D01*
X555570095Y-189756571D01*
X555557714Y-189806095D01*
X555545333Y-189830857D01*
X555532952Y-189843238D01*
X555508190Y-189855619D01*
X555483428Y-189855619D01*
X555458666Y-189843238D01*
X555446285Y-189830857D01*
X555433904Y-189806095D01*
X555421523Y-189756571D01*
X555421523Y-189694666D01*
X555433904Y-189645142D01*
X555446285Y-189620380D01*
X555458666Y-189608000D01*
X555483428Y-189595619D01*
%TO.C,R9*%
D11*
X555453619Y-224027904D02*
X555406000Y-223980285D01*
X555358380Y-223885047D01*
X555358380Y-223646952D01*
X555406000Y-223551714D01*
X555453619Y-223504095D01*
X555548857Y-223456476D01*
X555644095Y-223456476D01*
X555786952Y-223504095D01*
X556358380Y-224075523D01*
X556358380Y-223456476D01*
X555453619Y-223075523D02*
X555406000Y-223027904D01*
X555358380Y-222932666D01*
X555358380Y-222694571D01*
X555406000Y-222599333D01*
X555453619Y-222551714D01*
X555548857Y-222504095D01*
X555644095Y-222504095D01*
X555786952Y-222551714D01*
X556358380Y-223123142D01*
X556358380Y-222504095D01*
D12*
X554853619Y-223309333D02*
X554729809Y-223396000D01*
X554853619Y-223457904D02*
X554593619Y-223457904D01*
X554593619Y-223358857D01*
X554606000Y-223334095D01*
X554618380Y-223321714D01*
X554643142Y-223309333D01*
X554680285Y-223309333D01*
X554705047Y-223321714D01*
X554717428Y-223334095D01*
X554729809Y-223358857D01*
X554729809Y-223457904D01*
X554853619Y-223185523D02*
X554853619Y-223136000D01*
X554841238Y-223111238D01*
X554828857Y-223098857D01*
X554791714Y-223074095D01*
X554742190Y-223061714D01*
X554643142Y-223061714D01*
X554618380Y-223074095D01*
X554606000Y-223086476D01*
X554593619Y-223111238D01*
X554593619Y-223160761D01*
X554606000Y-223185523D01*
X554618380Y-223197904D01*
X554643142Y-223210285D01*
X554705047Y-223210285D01*
X554729809Y-223197904D01*
X554742190Y-223185523D01*
X554754571Y-223160761D01*
X554754571Y-223111238D01*
X554742190Y-223086476D01*
X554729809Y-223074095D01*
X554705047Y-223061714D01*
%TO.C,R8*%
D11*
X536759219Y-178536504D02*
X536711600Y-178488885D01*
X536663980Y-178393647D01*
X536663980Y-178155552D01*
X536711600Y-178060314D01*
X536759219Y-178012695D01*
X536854457Y-177965076D01*
X536949695Y-177965076D01*
X537092552Y-178012695D01*
X537663980Y-178584123D01*
X537663980Y-177965076D01*
X536759219Y-177584123D02*
X536711600Y-177536504D01*
X536663980Y-177441266D01*
X536663980Y-177203171D01*
X536711600Y-177107933D01*
X536759219Y-177060314D01*
X536854457Y-177012695D01*
X536949695Y-177012695D01*
X537092552Y-177060314D01*
X537663980Y-177631742D01*
X537663980Y-177012695D01*
D12*
X536159219Y-177817933D02*
X536035409Y-177904600D01*
X536159219Y-177966504D02*
X535899219Y-177966504D01*
X535899219Y-177867457D01*
X535911600Y-177842695D01*
X535923980Y-177830314D01*
X535948742Y-177817933D01*
X535985885Y-177817933D01*
X536010647Y-177830314D01*
X536023028Y-177842695D01*
X536035409Y-177867457D01*
X536035409Y-177966504D01*
X536010647Y-177669361D02*
X535998266Y-177694123D01*
X535985885Y-177706504D01*
X535961123Y-177718885D01*
X535948742Y-177718885D01*
X535923980Y-177706504D01*
X535911600Y-177694123D01*
X535899219Y-177669361D01*
X535899219Y-177619838D01*
X535911600Y-177595076D01*
X535923980Y-177582695D01*
X535948742Y-177570314D01*
X535961123Y-177570314D01*
X535985885Y-177582695D01*
X535998266Y-177595076D01*
X536010647Y-177619838D01*
X536010647Y-177669361D01*
X536023028Y-177694123D01*
X536035409Y-177706504D01*
X536060171Y-177718885D01*
X536109695Y-177718885D01*
X536134457Y-177706504D01*
X536146838Y-177694123D01*
X536159219Y-177669361D01*
X536159219Y-177619838D01*
X536146838Y-177595076D01*
X536134457Y-177582695D01*
X536109695Y-177570314D01*
X536060171Y-177570314D01*
X536035409Y-177582695D01*
X536023028Y-177595076D01*
X536010647Y-177619838D01*
%TO.C,R5*%
D11*
X545014219Y-171068904D02*
X544966600Y-171021285D01*
X544918980Y-170926047D01*
X544918980Y-170687952D01*
X544966600Y-170592714D01*
X545014219Y-170545095D01*
X545109457Y-170497476D01*
X545204695Y-170497476D01*
X545347552Y-170545095D01*
X545918980Y-171116523D01*
X545918980Y-170497476D01*
X545014219Y-170116523D02*
X544966600Y-170068904D01*
X544918980Y-169973666D01*
X544918980Y-169735571D01*
X544966600Y-169640333D01*
X545014219Y-169592714D01*
X545109457Y-169545095D01*
X545204695Y-169545095D01*
X545347552Y-169592714D01*
X545918980Y-170164142D01*
X545918980Y-169545095D01*
D12*
X544414219Y-170350333D02*
X544290409Y-170437000D01*
X544414219Y-170498904D02*
X544154219Y-170498904D01*
X544154219Y-170399857D01*
X544166600Y-170375095D01*
X544178980Y-170362714D01*
X544203742Y-170350333D01*
X544240885Y-170350333D01*
X544265647Y-170362714D01*
X544278028Y-170375095D01*
X544290409Y-170399857D01*
X544290409Y-170498904D01*
X544154219Y-170115095D02*
X544154219Y-170238904D01*
X544278028Y-170251285D01*
X544265647Y-170238904D01*
X544253266Y-170214142D01*
X544253266Y-170152238D01*
X544265647Y-170127476D01*
X544278028Y-170115095D01*
X544302790Y-170102714D01*
X544364695Y-170102714D01*
X544389457Y-170115095D01*
X544401838Y-170127476D01*
X544414219Y-170152238D01*
X544414219Y-170214142D01*
X544401838Y-170238904D01*
X544389457Y-170251285D01*
%TO.C,J7*%
D11*
X528153571Y-209776571D02*
X528296428Y-209824190D01*
X528344047Y-209871809D01*
X528391666Y-209967047D01*
X528391666Y-210109904D01*
X528344047Y-210205142D01*
X528296428Y-210252761D01*
X528201190Y-210300380D01*
X527820238Y-210300380D01*
X527820238Y-209300380D01*
X528153571Y-209300380D01*
X528248809Y-209348000D01*
X528296428Y-209395619D01*
X528344047Y-209490857D01*
X528344047Y-209586095D01*
X528296428Y-209681333D01*
X528248809Y-209728952D01*
X528153571Y-209776571D01*
X527820238Y-209776571D01*
X528963095Y-210300380D02*
X528867857Y-210252761D01*
X528820238Y-210205142D01*
X528772619Y-210109904D01*
X528772619Y-209824190D01*
X528820238Y-209728952D01*
X528867857Y-209681333D01*
X528963095Y-209633714D01*
X529105952Y-209633714D01*
X529201190Y-209681333D01*
X529248809Y-209728952D01*
X529296428Y-209824190D01*
X529296428Y-210109904D01*
X529248809Y-210205142D01*
X529201190Y-210252761D01*
X529105952Y-210300380D01*
X528963095Y-210300380D01*
X529582142Y-209633714D02*
X529963095Y-209633714D01*
X529725000Y-209300380D02*
X529725000Y-210157523D01*
X529772619Y-210252761D01*
X529867857Y-210300380D01*
X529963095Y-210300380D01*
X530153571Y-209633714D02*
X530534523Y-209633714D01*
X530296428Y-209300380D02*
X530296428Y-210157523D01*
X530344047Y-210252761D01*
X530439285Y-210300380D01*
X530534523Y-210300380D01*
X531010714Y-210300380D02*
X530915476Y-210252761D01*
X530867857Y-210205142D01*
X530820238Y-210109904D01*
X530820238Y-209824190D01*
X530867857Y-209728952D01*
X530915476Y-209681333D01*
X531010714Y-209633714D01*
X531153571Y-209633714D01*
X531248809Y-209681333D01*
X531296428Y-209728952D01*
X531344047Y-209824190D01*
X531344047Y-210109904D01*
X531296428Y-210205142D01*
X531248809Y-210252761D01*
X531153571Y-210300380D01*
X531010714Y-210300380D01*
X531772619Y-210300380D02*
X531772619Y-209633714D01*
X531772619Y-209728952D02*
X531820238Y-209681333D01*
X531915476Y-209633714D01*
X532058333Y-209633714D01*
X532153571Y-209681333D01*
X532201190Y-209776571D01*
X532201190Y-210300380D01*
X532201190Y-209776571D02*
X532248809Y-209681333D01*
X532344047Y-209633714D01*
X532486904Y-209633714D01*
X532582142Y-209681333D01*
X532629761Y-209776571D01*
X532629761Y-210300380D01*
X529677380Y-183721333D02*
X530391666Y-183721333D01*
X530534523Y-183768952D01*
X530629761Y-183864190D01*
X530677380Y-184007047D01*
X530677380Y-184102285D01*
X529677380Y-183340380D02*
X529677380Y-182673714D01*
X530677380Y-183102285D01*
%TO.C,J4*%
X527077380Y-228957047D02*
X526601190Y-229290380D01*
X527077380Y-229528476D02*
X526077380Y-229528476D01*
X526077380Y-229147523D01*
X526125000Y-229052285D01*
X526172619Y-229004666D01*
X526267857Y-228957047D01*
X526410714Y-228957047D01*
X526505952Y-229004666D01*
X526553571Y-229052285D01*
X526601190Y-229147523D01*
X526601190Y-229528476D01*
X527077380Y-228528476D02*
X526410714Y-228528476D01*
X526077380Y-228528476D02*
X526125000Y-228576095D01*
X526172619Y-228528476D01*
X526125000Y-228480857D01*
X526077380Y-228528476D01*
X526172619Y-228528476D01*
X526410714Y-227623714D02*
X527220238Y-227623714D01*
X527315476Y-227671333D01*
X527363095Y-227718952D01*
X527410714Y-227814190D01*
X527410714Y-227957047D01*
X527363095Y-228052285D01*
X527029761Y-227623714D02*
X527077380Y-227718952D01*
X527077380Y-227909428D01*
X527029761Y-228004666D01*
X526982142Y-228052285D01*
X526886904Y-228099904D01*
X526601190Y-228099904D01*
X526505952Y-228052285D01*
X526458333Y-228004666D01*
X526410714Y-227909428D01*
X526410714Y-227718952D01*
X526458333Y-227623714D01*
X527077380Y-227147523D02*
X526077380Y-227147523D01*
X527077380Y-226718952D02*
X526553571Y-226718952D01*
X526458333Y-226766571D01*
X526410714Y-226861809D01*
X526410714Y-227004666D01*
X526458333Y-227099904D01*
X526505952Y-227147523D01*
X526410714Y-226385619D02*
X526410714Y-226004666D01*
X526077380Y-226242761D02*
X526934523Y-226242761D01*
X527029761Y-226195142D01*
X527077380Y-226099904D01*
X527077380Y-226004666D01*
X542591666Y-227290380D02*
X542591666Y-228004666D01*
X542544047Y-228147523D01*
X542448809Y-228242761D01*
X542305952Y-228290380D01*
X542210714Y-228290380D01*
X543496428Y-227623714D02*
X543496428Y-228290380D01*
X543258333Y-227242761D02*
X543020238Y-227957047D01*
X543639285Y-227957047D01*
%TO.C,FB2*%
X551215980Y-227522990D02*
X551215980Y-227713466D01*
X551263600Y-227808704D01*
X551311219Y-227856323D01*
X551454076Y-227951561D01*
X551644552Y-227999180D01*
X552025504Y-227999180D01*
X552120742Y-227951561D01*
X552168361Y-227903942D01*
X552215980Y-227808704D01*
X552215980Y-227618228D01*
X552168361Y-227522990D01*
X552120742Y-227475371D01*
X552025504Y-227427752D01*
X551787409Y-227427752D01*
X551692171Y-227475371D01*
X551644552Y-227522990D01*
X551596933Y-227618228D01*
X551596933Y-227808704D01*
X551644552Y-227903942D01*
X551692171Y-227951561D01*
X551787409Y-227999180D01*
X551215980Y-226808704D02*
X551215980Y-226713466D01*
X551263600Y-226618228D01*
X551311219Y-226570609D01*
X551406457Y-226522990D01*
X551596933Y-226475371D01*
X551835028Y-226475371D01*
X552025504Y-226522990D01*
X552120742Y-226570609D01*
X552168361Y-226618228D01*
X552215980Y-226713466D01*
X552215980Y-226808704D01*
X552168361Y-226903942D01*
X552120742Y-226951561D01*
X552025504Y-226999180D01*
X551835028Y-227046800D01*
X551596933Y-227046800D01*
X551406457Y-226999180D01*
X551311219Y-226951561D01*
X551263600Y-226903942D01*
X551215980Y-226808704D01*
X551215980Y-225856323D02*
X551215980Y-225761085D01*
X551263600Y-225665847D01*
X551311219Y-225618228D01*
X551406457Y-225570609D01*
X551596933Y-225522990D01*
X551835028Y-225522990D01*
X552025504Y-225570609D01*
X552120742Y-225618228D01*
X552168361Y-225665847D01*
X552215980Y-225761085D01*
X552215980Y-225856323D01*
X552168361Y-225951561D01*
X552120742Y-225999180D01*
X552025504Y-226046800D01*
X551835028Y-226094419D01*
X551596933Y-226094419D01*
X551406457Y-226046800D01*
X551311219Y-225999180D01*
X551263600Y-225951561D01*
X551215980Y-225856323D01*
X551739790Y-223713466D02*
X551692171Y-223761085D01*
X551644552Y-223856323D01*
X551644552Y-223951561D01*
X551692171Y-224046800D01*
X551739790Y-224094419D01*
X551835028Y-224142038D01*
X551930266Y-224142038D01*
X552025504Y-224094419D01*
X552073123Y-224046800D01*
X552120742Y-223951561D01*
X552120742Y-223856323D01*
X552073123Y-223761085D01*
X552025504Y-223713466D01*
X551644552Y-223713466D02*
X552025504Y-223713466D01*
X552073123Y-223665847D01*
X552073123Y-223618228D01*
X552025504Y-223522990D01*
X551930266Y-223475371D01*
X551692171Y-223475371D01*
X551549314Y-223570609D01*
X551454076Y-223713466D01*
X551406457Y-223903942D01*
X551454076Y-224094419D01*
X551549314Y-224237276D01*
X551692171Y-224332514D01*
X551882647Y-224380133D01*
X552073123Y-224332514D01*
X552215980Y-224237276D01*
X552311219Y-224094419D01*
X552358838Y-223903942D01*
X552311219Y-223713466D01*
X552215980Y-223570609D01*
X551215980Y-221856323D02*
X551215980Y-222046800D01*
X551263600Y-222142038D01*
X551311219Y-222189657D01*
X551454076Y-222284895D01*
X551644552Y-222332514D01*
X552025504Y-222332514D01*
X552120742Y-222284895D01*
X552168361Y-222237276D01*
X552215980Y-222142038D01*
X552215980Y-221951561D01*
X552168361Y-221856323D01*
X552120742Y-221808704D01*
X552025504Y-221761085D01*
X551787409Y-221761085D01*
X551692171Y-221808704D01*
X551644552Y-221856323D01*
X551596933Y-221951561D01*
X551596933Y-222142038D01*
X551644552Y-222237276D01*
X551692171Y-222284895D01*
X551787409Y-222332514D01*
X551215980Y-221142038D02*
X551215980Y-221046800D01*
X551263600Y-220951561D01*
X551311219Y-220903942D01*
X551406457Y-220856323D01*
X551596933Y-220808704D01*
X551835028Y-220808704D01*
X552025504Y-220856323D01*
X552120742Y-220903942D01*
X552168361Y-220951561D01*
X552215980Y-221046800D01*
X552215980Y-221142038D01*
X552168361Y-221237276D01*
X552120742Y-221284895D01*
X552025504Y-221332514D01*
X551835028Y-221380133D01*
X551596933Y-221380133D01*
X551406457Y-221332514D01*
X551311219Y-221284895D01*
X551263600Y-221237276D01*
X551215980Y-221142038D01*
X551215980Y-220189657D02*
X551215980Y-220094419D01*
X551263600Y-219999180D01*
X551311219Y-219951561D01*
X551406457Y-219903942D01*
X551596933Y-219856323D01*
X551835028Y-219856323D01*
X552025504Y-219903942D01*
X552120742Y-219951561D01*
X552168361Y-219999180D01*
X552215980Y-220094419D01*
X552215980Y-220189657D01*
X552168361Y-220284895D01*
X552120742Y-220332514D01*
X552025504Y-220380133D01*
X551835028Y-220427752D01*
X551596933Y-220427752D01*
X551406457Y-220380133D01*
X551311219Y-220332514D01*
X551263600Y-220284895D01*
X551215980Y-220189657D01*
X552215980Y-218665847D02*
X551215980Y-218665847D01*
X551930266Y-218332514D01*
X551215980Y-217999180D01*
X552215980Y-217999180D01*
X552215980Y-217522990D02*
X551215980Y-217522990D01*
X551692171Y-217522990D02*
X551692171Y-216951561D01*
X552215980Y-216951561D02*
X551215980Y-216951561D01*
X551549314Y-216570609D02*
X551549314Y-216046800D01*
X552215980Y-216570609D01*
X552215980Y-216046800D01*
D15*
X553277885Y-222463466D02*
X553277885Y-222630133D01*
X553539790Y-222630133D02*
X553039790Y-222630133D01*
X553039790Y-222392038D01*
X553277885Y-222034895D02*
X553301695Y-221963466D01*
X553325504Y-221939657D01*
X553373123Y-221915847D01*
X553444552Y-221915847D01*
X553492171Y-221939657D01*
X553515980Y-221963466D01*
X553539790Y-222011085D01*
X553539790Y-222201561D01*
X553039790Y-222201561D01*
X553039790Y-222034895D01*
X553063600Y-221987276D01*
X553087409Y-221963466D01*
X553135028Y-221939657D01*
X553182647Y-221939657D01*
X553230266Y-221963466D01*
X553254076Y-221987276D01*
X553277885Y-222034895D01*
X553277885Y-222201561D01*
X553087409Y-221725371D02*
X553063600Y-221701561D01*
X553039790Y-221653942D01*
X553039790Y-221534895D01*
X553063600Y-221487276D01*
X553087409Y-221463466D01*
X553135028Y-221439657D01*
X553182647Y-221439657D01*
X553254076Y-221463466D01*
X553539790Y-221749180D01*
X553539790Y-221439657D01*
%TO.C,F1*%
D11*
X547773314Y-185085819D02*
X547820933Y-185038200D01*
X547916171Y-184990580D01*
X548154266Y-184990580D01*
X548249504Y-185038200D01*
X548297123Y-185085819D01*
X548344742Y-185181057D01*
X548344742Y-185276295D01*
X548297123Y-185419152D01*
X547725695Y-185990580D01*
X548344742Y-185990580D01*
X548725695Y-185704866D02*
X549201885Y-185704866D01*
X548630457Y-185990580D02*
X548963790Y-184990580D01*
X549297123Y-185990580D01*
D17*
X548220933Y-183661057D02*
X547954266Y-183661057D01*
X547954266Y-184080104D02*
X547954266Y-183280104D01*
X548335219Y-183280104D01*
X549059028Y-184080104D02*
X548601885Y-184080104D01*
X548830457Y-184080104D02*
X548830457Y-183280104D01*
X548754266Y-183394390D01*
X548678076Y-183470580D01*
X548601885Y-183508676D01*
%TO.C,C17*%
D11*
X537271068Y-217251206D02*
X536867007Y-217655267D01*
X537069038Y-217453236D02*
X536361931Y-216746130D01*
X536395603Y-216914488D01*
X536395603Y-217049175D01*
X536361931Y-217150191D01*
X536900679Y-216342068D02*
X536900679Y-216274725D01*
X536934351Y-216173710D01*
X537102710Y-216005351D01*
X537203725Y-215971679D01*
X537271068Y-215971679D01*
X537372084Y-216005351D01*
X537439427Y-216072694D01*
X537506771Y-216207381D01*
X537506771Y-217015504D01*
X537944504Y-216577771D01*
X537776145Y-215803320D02*
X538483252Y-216510427D01*
X537809817Y-215836992D02*
X537843488Y-215735977D01*
X537978175Y-215601290D01*
X538079191Y-215567618D01*
X538146534Y-215567618D01*
X538247549Y-215601290D01*
X538449580Y-215803320D01*
X538483252Y-215904336D01*
X538483252Y-215971679D01*
X538449580Y-216072694D01*
X538314893Y-216207381D01*
X538213878Y-216241053D01*
D12*
X538175492Y-217473776D02*
X538175492Y-217490612D01*
X538158656Y-217524284D01*
X538141820Y-217541120D01*
X538108148Y-217557956D01*
X538074477Y-217557956D01*
X538049223Y-217549538D01*
X538007133Y-217524284D01*
X537981879Y-217499030D01*
X537956625Y-217456940D01*
X537948208Y-217431687D01*
X537948208Y-217398015D01*
X537965043Y-217364343D01*
X537981879Y-217347507D01*
X538015551Y-217330671D01*
X538032387Y-217330671D01*
X538360687Y-217322253D02*
X538259671Y-217423269D01*
X538310179Y-217372761D02*
X538133402Y-217195984D01*
X538141820Y-217238074D01*
X538141820Y-217271746D01*
X538133402Y-217297000D01*
X538242835Y-217086551D02*
X538360687Y-216968700D01*
X538461702Y-217221238D01*
%TO.C,U2*%
D11*
X548337590Y-217650721D02*
X548472277Y-217583377D01*
X548640636Y-217415018D01*
X548674308Y-217314003D01*
X548674308Y-217246660D01*
X548640636Y-217145644D01*
X548573292Y-217078301D01*
X548472277Y-217044629D01*
X548404934Y-217044629D01*
X548303918Y-217078301D01*
X548135560Y-217179316D01*
X548034544Y-217212988D01*
X547967201Y-217212988D01*
X547866186Y-217179316D01*
X547798842Y-217111973D01*
X547765170Y-217010957D01*
X547765170Y-216943614D01*
X547798842Y-216842599D01*
X547967201Y-216674240D01*
X548101888Y-216606896D01*
X548270247Y-216371194D02*
X548674308Y-215967133D01*
X549179384Y-216876270D02*
X548472277Y-216169164D01*
X549617117Y-216438538D02*
X548910010Y-215731431D01*
X549650789Y-216000805D01*
X549381415Y-215260026D01*
X550088521Y-215967133D01*
X549650789Y-214990652D02*
X550088521Y-214552919D01*
X550122193Y-215057996D01*
X550223208Y-214956980D01*
X550324224Y-214923309D01*
X550391567Y-214923309D01*
X550492582Y-214956980D01*
X550660941Y-215125339D01*
X550694613Y-215226354D01*
X550694613Y-215293698D01*
X550660941Y-215394713D01*
X550458911Y-215596744D01*
X550357895Y-215630415D01*
X550290552Y-215630415D01*
X550425239Y-214350889D02*
X550425239Y-214283545D01*
X550458911Y-214182530D01*
X550627269Y-214014171D01*
X550728285Y-213980500D01*
X550795628Y-213980500D01*
X550896643Y-214014171D01*
X550963987Y-214081515D01*
X551031330Y-214216202D01*
X551031330Y-215024324D01*
X551469063Y-214586591D01*
X551637422Y-213677454D02*
X551401720Y-213913156D01*
X551772109Y-214283545D02*
X551065002Y-213576439D01*
X551401720Y-213239721D01*
X552209842Y-212903004D02*
X552681246Y-213374408D01*
X551772109Y-212801988D02*
X552108826Y-213475423D01*
X552546559Y-213037691D01*
X552479216Y-212162225D02*
X552546559Y-212094882D01*
X552647574Y-212061210D01*
X552714918Y-212061210D01*
X552815933Y-212094882D01*
X552984292Y-212195897D01*
X553152651Y-212364256D01*
X553253666Y-212532614D01*
X553287338Y-212633630D01*
X553287338Y-212700973D01*
X553253666Y-212801988D01*
X553186322Y-212869332D01*
X553085307Y-212903004D01*
X553017964Y-212903004D01*
X552916948Y-212869332D01*
X552748590Y-212768317D01*
X552580231Y-212599958D01*
X552479216Y-212431599D01*
X552445544Y-212330584D01*
X552445544Y-212263240D01*
X552479216Y-212162225D01*
X552950620Y-211690821D02*
X553422025Y-211219416D01*
X553826086Y-212229569D01*
X553590383Y-211051057D02*
X554533192Y-211522462D01*
X554061788Y-210579653D01*
X554634208Y-210680668D02*
X554869910Y-210444966D01*
X555341315Y-210714340D02*
X555004597Y-211051057D01*
X554297490Y-210343950D01*
X554634208Y-210007233D01*
X554836238Y-209805202D02*
X555240299Y-209401141D01*
X555745376Y-210310279D02*
X555038269Y-209603172D01*
X556115765Y-209939889D02*
X556014750Y-209098096D01*
X555644360Y-209468485D02*
X556486154Y-209569500D01*
X544505071Y-206814477D02*
X545077491Y-207386897D01*
X545178506Y-207420569D01*
X545245850Y-207420569D01*
X545346865Y-207386897D01*
X545481552Y-207252210D01*
X545515224Y-207151195D01*
X545515224Y-207083851D01*
X545481552Y-206982836D01*
X544909132Y-206410416D01*
X545279522Y-206174714D02*
X545279522Y-206107371D01*
X545313193Y-206006355D01*
X545481552Y-205837997D01*
X545582567Y-205804325D01*
X545649911Y-205804325D01*
X545750926Y-205837997D01*
X545818270Y-205905340D01*
X545885613Y-206040027D01*
X545885613Y-206848149D01*
X546323346Y-206410416D01*
%TD*%
M02*
