M48
; DRILL file {KiCad (5.1.9)-1} date 03/09/21 20:47:20
; FORMAT={-:-/ absolute / metric / decimal}
; #@! TF.CreationDate,2021-03-09T20:47:20+01:00
; #@! TF.GenerationSoftware,Kicad,Pcbnew,(5.1.9)-1
; #@! TF.FileFunction,Plated,1,2,PTH
FMAT,2
METRIC
T1C0.356
T2C0.400
T3C0.600
T4C1.000
%
G90
G05
T1
X421.346Y-46.477
X421.418Y-43.25
X422.01Y-46.013
X422.453Y-43.364
X422.656Y-47.498
X423.774Y-55.499
X423.799Y-50.038
X423.875Y-43.866
X425.171Y-56.14
X427.953Y-39.41
X429.285Y-37.968
X432.308Y-41.021
X432.77Y-46.366
X432.841Y-33.528
X433.172Y-48.666
X433.243Y-43.988
X433.476Y-45.19
X433.476Y-31.064
X433.993Y-48.028
X434.467Y-44.831
X437.21Y-53.848
X438.506Y-37.922
X439.135Y-51.114
X439.217Y-32.08
X440.046Y-50.622
X440.284Y-33.939
X441.174Y-32.96
X446.837Y-43.51
X448.06Y-35.183
X448.564Y-37.287
X449.834Y-43.434
X450.723Y-31.877
X452.45Y-39.7
X455.041Y-31.877
X455.092Y-38.837
X456.971Y-37.008
X457.072Y-52.477
X458.368Y-47.574
X458.996Y-47.015
X460.106Y-31.115
X460.451Y-56.667
X460.79Y-47.414
X461.441Y-46.406
X461.529Y-31.115
X462.03Y-39.574
X462.05Y-40.477
X462.092Y-47.105
X462.245Y-41.263
X462.255Y-42.139
X462.307Y-42.974
X462.763Y-47.558
X462.788Y-52.07
X462.849Y-39.586
X463.682Y-43.267
X463.94Y-31.778
X464.058Y-46.33
X464.109Y-42.57
X464.109Y-52.629
X464.415Y-44.72
X464.875Y-50.438
X465.328Y-43.688
X465.734Y-38.252
X465.75Y-37.347
X465.836Y-33.655
X465.857Y-39.171
X466.014Y-42.24
X466.042Y-40.053
X466.068Y-40.942
X466.176Y-50.606
X466.304Y-49.806
X467.059Y-48.544
X467.088Y-49.602
X467.843Y-59.817
X467.868Y-48.133
X467.944Y-45.39
X468.27Y-46.811
X468.671Y-53.086
X468.811Y-55.486
X469.23Y-32.283
X469.585Y-40.98
X469.646Y-58.42
X469.677Y-47.374
X469.743Y-56.418
X470.062Y-45.103
X470.433Y-54.407
X470.738Y-38.445
X470.789Y-57.404
X470.983Y-46.515
X471.394Y-38.919
X472.059Y-50.292
X472.202Y-38.861
X472.456Y-45.228
X473.056Y-33.611
X473.202Y-57.023
X474.066Y-41.662
X474.469Y-32.756
X474.701Y-52.629
X474.98Y-55.245
X475.086Y-48.244
X475.234Y-56.896
X475.361Y-50.165
X475.513Y-42.52
X475.742Y-54.483
X475.891Y-47.182
X475.894Y-44.577
X475.908Y-48.244
X476.123Y-50.927
X476.529Y-53.772
X476.758Y-51.994
X478.651Y-48.828
X478.917Y-51.816
X479.45Y-36.601
X479.527Y-32.512
X480.136Y-34.671
X482.473Y-34.138
X482.499Y-36.697
X482.879Y-52.07
X483.102Y-39.154
X484.962Y-30.963
T2
X420.903Y-44.399
X423.926Y-52.908
X424.815Y-49.53
X426.212Y-49.911
X426.237Y-52.908
X432.867Y-36.373
X434.289Y-36.424
X435.566Y-44.064
X436.753Y-37.262
X440.715Y-30.124
X441.122Y-37.821
X442.9Y-44.79
X442.925Y-46.279
X443.154Y-37.033
X444.475Y-37.236
X446.913Y-29.464
X447.015Y-36.297
X448.424Y-46.241
X450.952Y-46.101
X453.644Y-43.51
X456.54Y-29.439
X457.86Y-29.388
X466.24Y-31.778
X468.145Y-31.778
X474.853Y-34.061
X476.758Y-35.966
X479.755Y-39.091
X482.321Y-61.595
X482.702Y-46.914
X482.702Y-49.606
X482.727Y-54.61
X483.057Y-57.506
X483.514Y-42.139
X483.641Y-44.348
X486.562Y-41.859
X486.588Y-31.267
X486.613Y-51.994
T4
X416.56Y-43.18
X416.56Y-45.72
X416.56Y-48.26
X416.56Y-50.8
X416.56Y-53.34
X416.56Y-55.88
X416.56Y-58.42
X416.56Y-60.96
X419.1Y-43.18
X419.1Y-45.72
X419.1Y-48.26
X419.1Y-50.8
X419.1Y-53.34
X419.1Y-55.88
X419.1Y-58.42
X419.1Y-60.96
X421.64Y-58.42
X421.64Y-60.96
X424.18Y-58.42
X424.18Y-60.96
X426.72Y-58.42
X426.72Y-60.96
X429.26Y-58.42
X429.26Y-60.96
X430.53Y-33.02
X430.53Y-35.56
X430.53Y-41.91
X430.53Y-44.45
X430.53Y-46.99
X430.53Y-49.53
X431.8Y-58.42
X431.8Y-60.96
X434.34Y-58.42
X434.34Y-60.96
X436.88Y-58.42
X436.88Y-60.96
X439.42Y-58.42
X439.42Y-60.96
X441.96Y-58.42
X441.96Y-60.96
X444.5Y-58.42
X444.5Y-60.96
X447.04Y-58.42
X447.04Y-60.96
X449.58Y-58.42
X449.58Y-60.96
X452.12Y-58.42
X452.12Y-60.96
X454.66Y-58.42
X454.66Y-60.96
X457.2Y-58.42
X457.2Y-60.96
X459.74Y-58.42
X459.74Y-60.96
X462.28Y-58.42
X462.28Y-60.96
X464.82Y-58.42
X464.82Y-60.96
X472.44Y-58.42
X472.44Y-60.96
X474.98Y-58.42
X474.98Y-60.96
X477.52Y-58.42
X477.52Y-60.96
X480.06Y-58.42
X480.06Y-60.96
X485.14Y-33.02
X485.14Y-35.56
X485.14Y-38.1
X485.14Y-40.64
X485.14Y-43.18
X485.14Y-45.72
X485.14Y-48.26
X485.14Y-50.8
X485.14Y-53.34
X485.14Y-55.88
X485.14Y-58.42
X485.14Y-60.96
T3
G00X436.37Y-30.746
M15
G01X436.37Y-30.146
M16
G05
G00X436.37Y-35.176
M15
G01X436.37Y-34.076
M16
G05
G00X445.01Y-30.746
M15
G01X445.01Y-30.146
M16
G05
G00X445.01Y-35.176
M15
G01X445.01Y-34.076
M16
G05
T0
M30
