%TF.GenerationSoftware,KiCad,Pcbnew,(5.1.9)-1*%
%TF.CreationDate,2021-03-10T22:07:46+01:00*%
%TF.ProjectId,poly_kb,706f6c79-5f6b-4622-9e6b-696361645f70,rev?*%
%TF.SameCoordinates,Original*%
%TF.FileFunction,Profile,NP*%
%FSLAX46Y46*%
G04 Gerber Fmt 4.6, Leading zero omitted, Abs format (unit mm)*
G04 Created by KiCad (PCBNEW (5.1.9)-1) date 2021-03-10 22:07:46*
%MOMM*%
%LPD*%
G01*
G04 APERTURE LIST*
%TA.AperFunction,Profile*%
%ADD10C,0.050000*%
%TD*%
%TA.AperFunction,Profile*%
%ADD11C,0.150000*%
%TD*%
%TA.AperFunction,Profile*%
%ADD12C,0.100000*%
%TD*%
G04 APERTURE END LIST*
D10*
X524510000Y-206248000D02*
X524510000Y-223520000D01*
X524510000Y-157353000D02*
X524510000Y-158623000D01*
X524510000Y-200660000D02*
X524510000Y-164211000D01*
X526542000Y-224790000D02*
G75*
G03*
X526542000Y-224790000I-254000J0D01*
G01*
X526542000Y-228600000D02*
G75*
G03*
X526542000Y-228600000I-254000J0D01*
G01*
X526542000Y-226314000D02*
G75*
G03*
X526542000Y-226314000I-254000J0D01*
G01*
X524891000Y-227076000D02*
G75*
G03*
X524891000Y-227076000I-254000J0D01*
G01*
X526542000Y-227838000D02*
G75*
G03*
X526542000Y-227838000I-254000J0D01*
G01*
X526542000Y-225552000D02*
G75*
G03*
X526542000Y-225552000I-254000J0D01*
G01*
X524891000Y-227838000D02*
G75*
G03*
X524891000Y-227838000I-254000J0D01*
G01*
X524891000Y-228600000D02*
G75*
G03*
X524891000Y-228600000I-254000J0D01*
G01*
X524891000Y-226314000D02*
G75*
G03*
X524891000Y-226314000I-254000J0D01*
G01*
X524891000Y-224028000D02*
G75*
G03*
X524891000Y-224028000I-254000J0D01*
G01*
X524891000Y-225552000D02*
G75*
G03*
X524891000Y-225552000I-254000J0D01*
G01*
X526542000Y-227076000D02*
G75*
G03*
X526542000Y-227076000I-254000J0D01*
G01*
X524891000Y-224790000D02*
G75*
G03*
X524891000Y-224790000I-254000J0D01*
G01*
X526542000Y-224028000D02*
G75*
G03*
X526542000Y-224028000I-254000J0D01*
G01*
X526542000Y-201930000D02*
G75*
G03*
X526542000Y-201930000I-254000J0D01*
G01*
X526542000Y-205740000D02*
G75*
G03*
X526542000Y-205740000I-254000J0D01*
G01*
X526542000Y-203454000D02*
G75*
G03*
X526542000Y-203454000I-254000J0D01*
G01*
X524891000Y-204216000D02*
G75*
G03*
X524891000Y-204216000I-254000J0D01*
G01*
X526542000Y-204978000D02*
G75*
G03*
X526542000Y-204978000I-254000J0D01*
G01*
X526542000Y-202692000D02*
G75*
G03*
X526542000Y-202692000I-254000J0D01*
G01*
X524891000Y-204978000D02*
G75*
G03*
X524891000Y-204978000I-254000J0D01*
G01*
X524891000Y-205740000D02*
G75*
G03*
X524891000Y-205740000I-254000J0D01*
G01*
X524891000Y-203454000D02*
G75*
G03*
X524891000Y-203454000I-254000J0D01*
G01*
X524891000Y-201168000D02*
G75*
G03*
X524891000Y-201168000I-254000J0D01*
G01*
X524891000Y-202692000D02*
G75*
G03*
X524891000Y-202692000I-254000J0D01*
G01*
X526542000Y-204216000D02*
G75*
G03*
X526542000Y-204216000I-254000J0D01*
G01*
X524891000Y-201930000D02*
G75*
G03*
X524891000Y-201930000I-254000J0D01*
G01*
X526542000Y-201168000D02*
G75*
G03*
X526542000Y-201168000I-254000J0D01*
G01*
X524891000Y-159893000D02*
G75*
G03*
X524891000Y-159893000I-254000J0D01*
G01*
X524891000Y-163703000D02*
G75*
G03*
X524891000Y-163703000I-254000J0D01*
G01*
X524891000Y-161417000D02*
G75*
G03*
X524891000Y-161417000I-254000J0D01*
G01*
X524891000Y-162941000D02*
G75*
G03*
X524891000Y-162941000I-254000J0D01*
G01*
X524891000Y-160655000D02*
G75*
G03*
X524891000Y-160655000I-254000J0D01*
G01*
X524891000Y-162179000D02*
G75*
G03*
X524891000Y-162179000I-254000J0D01*
G01*
X524891000Y-159131000D02*
G75*
G03*
X524891000Y-159131000I-254000J0D01*
G01*
X526542000Y-163703000D02*
G75*
G03*
X526542000Y-163703000I-254000J0D01*
G01*
X526542000Y-162941000D02*
G75*
G03*
X526542000Y-162941000I-254000J0D01*
G01*
X526542000Y-162179000D02*
G75*
G03*
X526542000Y-162179000I-254000J0D01*
G01*
X526542000Y-161417000D02*
G75*
G03*
X526542000Y-161417000I-254000J0D01*
G01*
X526542000Y-160655000D02*
G75*
G03*
X526542000Y-160655000I-254000J0D01*
G01*
X526542000Y-159893000D02*
G75*
G03*
X526542000Y-159893000I-254000J0D01*
G01*
X526542000Y-159131000D02*
G75*
G03*
X526542000Y-159131000I-254000J0D01*
G01*
X526415000Y-200660000D02*
X526415000Y-164211000D01*
X526415000Y-206248000D02*
X526415000Y-223520000D01*
X526415000Y-206248000D02*
X524510000Y-206248000D01*
X526415000Y-200660000D02*
X524510000Y-200660000D01*
X524510000Y-223520000D02*
X526415000Y-223520000D01*
X524510000Y-229108000D02*
X526415000Y-229108000D01*
X524510000Y-164211000D02*
X526415000Y-164211000D01*
X526415000Y-158623000D02*
X524510000Y-158623000D01*
X524510000Y-157353000D02*
X67310000Y-157353000D01*
D11*
X452755000Y-167259000D02*
X454406000Y-167259000D01*
X452755000Y-182118000D02*
X452755000Y-167259000D01*
X493776000Y-182118000D02*
X452755000Y-182118000D01*
X493776000Y-192278000D02*
X493776000Y-182118000D01*
X510286000Y-192278000D02*
X493776000Y-192278000D01*
X510286000Y-163576000D02*
X510286000Y-192278000D01*
X493776000Y-163576000D02*
X510286000Y-163576000D01*
X493776000Y-167259000D02*
X493776000Y-163576000D01*
X454406000Y-167259000D02*
X493776000Y-167259000D01*
D12*
X354965000Y-230695500D02*
X341630000Y-230695500D01*
X341630000Y-230695500D02*
X341630000Y-217360500D01*
X341630000Y-217360500D02*
X354965000Y-217360500D01*
X354965000Y-217360500D02*
X354965000Y-230695500D01*
X343058750Y-268795500D02*
X329723750Y-268795500D01*
X329723750Y-268795500D02*
X329723750Y-255460500D01*
X329723750Y-255460500D02*
X343058750Y-255460500D01*
X343058750Y-255460500D02*
X343058750Y-268795500D01*
X347821250Y-249745500D02*
X334486250Y-249745500D01*
X334486250Y-249745500D02*
X334486250Y-236410500D01*
X334486250Y-236410500D02*
X347821250Y-236410500D01*
X347821250Y-236410500D02*
X347821250Y-249745500D01*
X357346250Y-287845500D02*
X344011250Y-287845500D01*
X344011250Y-287845500D02*
X344011250Y-274510500D01*
X344011250Y-274510500D02*
X357346250Y-274510500D01*
X357346250Y-274510500D02*
X357346250Y-287845500D01*
X426402500Y-230695500D02*
X413067500Y-230695500D01*
X413067500Y-230695500D02*
X413067500Y-217360500D01*
X413067500Y-217360500D02*
X426402500Y-217360500D01*
X426402500Y-217360500D02*
X426402500Y-230695500D01*
X407352500Y-230695500D02*
X394017500Y-230695500D01*
X394017500Y-230695500D02*
X394017500Y-217360500D01*
X394017500Y-217360500D02*
X407352500Y-217360500D01*
X407352500Y-217360500D02*
X407352500Y-230695500D01*
X388302500Y-230695500D02*
X374967500Y-230695500D01*
X374967500Y-230695500D02*
X374967500Y-217360500D01*
X374967500Y-217360500D02*
X388302500Y-217360500D01*
X388302500Y-217360500D02*
X388302500Y-230695500D01*
X407352500Y-287845500D02*
X394017500Y-287845500D01*
X394017500Y-287845500D02*
X394017500Y-274510500D01*
X394017500Y-274510500D02*
X407352500Y-274510500D01*
X407352500Y-274510500D02*
X407352500Y-287845500D01*
X388302500Y-287845500D02*
X374967500Y-287845500D01*
X374967500Y-287845500D02*
X374967500Y-274510500D01*
X374967500Y-274510500D02*
X388302500Y-274510500D01*
X388302500Y-274510500D02*
X388302500Y-287845500D01*
X426402500Y-287845500D02*
X413067500Y-287845500D01*
X413067500Y-287845500D02*
X413067500Y-274510500D01*
X413067500Y-274510500D02*
X426402500Y-274510500D01*
X426402500Y-274510500D02*
X426402500Y-287845500D01*
X407352500Y-268795500D02*
X394017500Y-268795500D01*
X394017500Y-268795500D02*
X394017500Y-255460500D01*
X394017500Y-255460500D02*
X407352500Y-255460500D01*
X407352500Y-255460500D02*
X407352500Y-268795500D01*
X104933750Y-268795500D02*
X91598750Y-268795500D01*
X91598750Y-268795500D02*
X91598750Y-255460500D01*
X91598750Y-255460500D02*
X104933750Y-255460500D01*
X104933750Y-255460500D02*
X104933750Y-268795500D01*
X100171250Y-249745500D02*
X86836250Y-249745500D01*
X86836250Y-249745500D02*
X86836250Y-236410500D01*
X86836250Y-236410500D02*
X100171250Y-236410500D01*
X100171250Y-236410500D02*
X100171250Y-249745500D01*
D10*
X561340000Y-230378000D02*
X561340000Y-171196000D01*
X552450000Y-171196000D02*
X561340000Y-171196000D01*
X552450000Y-157353000D02*
X552450000Y-171196000D01*
X526415000Y-157353000D02*
X552450000Y-157353000D01*
X526415000Y-229108000D02*
X526415000Y-230378000D01*
X526415000Y-157353000D02*
X526415000Y-158623000D01*
X526415000Y-230378000D02*
X561340000Y-230378000D01*
D12*
X93027500Y-211645500D02*
X79692500Y-211645500D01*
X79692500Y-211645500D02*
X79692500Y-198310500D01*
X79692500Y-198310500D02*
X93027500Y-198310500D01*
X93027500Y-198310500D02*
X93027500Y-211645500D01*
X140652500Y-230695500D02*
X127317500Y-230695500D01*
X127317500Y-230695500D02*
X127317500Y-217360500D01*
X127317500Y-217360500D02*
X140652500Y-217360500D01*
X140652500Y-217360500D02*
X140652500Y-230695500D01*
X131127500Y-211645500D02*
X117792500Y-211645500D01*
X117792500Y-211645500D02*
X117792500Y-198310500D01*
X117792500Y-198310500D02*
X131127500Y-198310500D01*
X131127500Y-198310500D02*
X131127500Y-211645500D01*
X145415000Y-249745500D02*
X132080000Y-249745500D01*
X132080000Y-249745500D02*
X132080000Y-236410500D01*
X132080000Y-236410500D02*
X145415000Y-236410500D01*
X145415000Y-236410500D02*
X145415000Y-249745500D01*
X121602500Y-230695500D02*
X108267500Y-230695500D01*
X108267500Y-230695500D02*
X108267500Y-217360500D01*
X108267500Y-217360500D02*
X121602500Y-217360500D01*
X121602500Y-217360500D02*
X121602500Y-230695500D01*
X112077500Y-211645500D02*
X98742500Y-211645500D01*
X98742500Y-211645500D02*
X98742500Y-198310500D01*
X98742500Y-198310500D02*
X112077500Y-198310500D01*
X112077500Y-198310500D02*
X112077500Y-211645500D01*
X126365000Y-249745500D02*
X113030000Y-249745500D01*
X113030000Y-249745500D02*
X113030000Y-236410500D01*
X113030000Y-236410500D02*
X126365000Y-236410500D01*
X126365000Y-236410500D02*
X126365000Y-249745500D01*
X97790000Y-230695500D02*
X84455000Y-230695500D01*
X84455000Y-230695500D02*
X84455000Y-217360500D01*
X84455000Y-217360500D02*
X97790000Y-217360500D01*
X97790000Y-217360500D02*
X97790000Y-230695500D01*
X271621250Y-183070500D02*
X258286250Y-183070500D01*
X258286250Y-183070500D02*
X258286250Y-169735500D01*
X258286250Y-169735500D02*
X271621250Y-169735500D01*
X271621250Y-169735500D02*
X271621250Y-183070500D01*
X252571250Y-183070500D02*
X239236250Y-183070500D01*
X239236250Y-183070500D02*
X239236250Y-169735500D01*
X239236250Y-169735500D02*
X252571250Y-169735500D01*
X252571250Y-169735500D02*
X252571250Y-183070500D01*
X233521250Y-183070500D02*
X220186250Y-183070500D01*
X220186250Y-183070500D02*
X220186250Y-169735500D01*
X220186250Y-169735500D02*
X233521250Y-169735500D01*
X233521250Y-169735500D02*
X233521250Y-183070500D01*
X214471250Y-183070500D02*
X201136250Y-183070500D01*
X201136250Y-183070500D02*
X201136250Y-169735500D01*
X201136250Y-169735500D02*
X214471250Y-169735500D01*
X214471250Y-169735500D02*
X214471250Y-183070500D01*
X512127500Y-278320500D02*
X498792500Y-278320500D01*
X498792500Y-278320500D02*
X498792500Y-264985500D01*
X498792500Y-264985500D02*
X512127500Y-264985500D01*
X512127500Y-264985500D02*
X512127500Y-278320500D01*
X512127500Y-240220500D02*
X498792500Y-240220500D01*
X498792500Y-240220500D02*
X498792500Y-226885500D01*
X498792500Y-226885500D02*
X512127500Y-226885500D01*
X512127500Y-226885500D02*
X512127500Y-240220500D01*
X464502500Y-287845500D02*
X451167500Y-287845500D01*
X451167500Y-287845500D02*
X451167500Y-274510500D01*
X451167500Y-274510500D02*
X464502500Y-274510500D01*
X464502500Y-274510500D02*
X464502500Y-287845500D01*
X350202500Y-211645500D02*
X336867500Y-211645500D01*
X336867500Y-211645500D02*
X336867500Y-198310500D01*
X336867500Y-198310500D02*
X350202500Y-198310500D01*
X350202500Y-198310500D02*
X350202500Y-211645500D01*
X333533750Y-287845500D02*
X320198750Y-287845500D01*
X320198750Y-287845500D02*
X320198750Y-274510500D01*
X320198750Y-274510500D02*
X333533750Y-274510500D01*
X333533750Y-274510500D02*
X333533750Y-287845500D01*
X309721250Y-287845500D02*
X296386250Y-287845500D01*
X296386250Y-287845500D02*
X296386250Y-274510500D01*
X296386250Y-274510500D02*
X309721250Y-274510500D01*
X309721250Y-274510500D02*
X309721250Y-287845500D01*
X285908750Y-287845500D02*
X272573750Y-287845500D01*
X272573750Y-287845500D02*
X272573750Y-274510500D01*
X272573750Y-274510500D02*
X285908750Y-274510500D01*
X285908750Y-274510500D02*
X285908750Y-287845500D01*
X226377500Y-287845500D02*
X213042500Y-287845500D01*
X213042500Y-287845500D02*
X213042500Y-274510500D01*
X213042500Y-274510500D02*
X226377500Y-274510500D01*
X226377500Y-274510500D02*
X226377500Y-287845500D01*
X166846250Y-287845500D02*
X153511250Y-287845500D01*
X153511250Y-287845500D02*
X153511250Y-274510500D01*
X153511250Y-274510500D02*
X166846250Y-274510500D01*
X166846250Y-274510500D02*
X166846250Y-287845500D01*
X143033750Y-287845500D02*
X129698750Y-287845500D01*
X129698750Y-287845500D02*
X129698750Y-274510500D01*
X129698750Y-274510500D02*
X143033750Y-274510500D01*
X143033750Y-274510500D02*
X143033750Y-287845500D01*
X119221250Y-287845500D02*
X105886250Y-287845500D01*
X105886250Y-287845500D02*
X105886250Y-274510500D01*
X105886250Y-274510500D02*
X119221250Y-274510500D01*
X119221250Y-274510500D02*
X119221250Y-287845500D01*
X95408750Y-287845500D02*
X82073750Y-287845500D01*
X82073750Y-287845500D02*
X82073750Y-274510500D01*
X82073750Y-274510500D02*
X95408750Y-274510500D01*
X95408750Y-274510500D02*
X95408750Y-287845500D01*
D10*
X524510000Y-300228000D02*
X524510000Y-229108000D01*
X67310000Y-300228000D02*
X524510000Y-300228000D01*
X67310000Y-157353000D02*
X67310000Y-300228000D01*
D12*
X493077500Y-287845500D02*
X479742500Y-287845500D01*
X479742500Y-287845500D02*
X479742500Y-274510500D01*
X479742500Y-274510500D02*
X493077500Y-274510500D01*
X493077500Y-274510500D02*
X493077500Y-287845500D01*
X493077500Y-268795500D02*
X479742500Y-268795500D01*
X479742500Y-268795500D02*
X479742500Y-255460500D01*
X479742500Y-255460500D02*
X493077500Y-255460500D01*
X493077500Y-255460500D02*
X493077500Y-268795500D01*
X474027500Y-268795500D02*
X460692500Y-268795500D01*
X460692500Y-268795500D02*
X460692500Y-255460500D01*
X460692500Y-255460500D02*
X474027500Y-255460500D01*
X474027500Y-255460500D02*
X474027500Y-268795500D01*
X454977500Y-268795500D02*
X441642500Y-268795500D01*
X441642500Y-268795500D02*
X441642500Y-255460500D01*
X441642500Y-255460500D02*
X454977500Y-255460500D01*
X454977500Y-255460500D02*
X454977500Y-268795500D01*
X493077500Y-249745500D02*
X479742500Y-249745500D01*
X479742500Y-249745500D02*
X479742500Y-236410500D01*
X479742500Y-236410500D02*
X493077500Y-236410500D01*
X493077500Y-236410500D02*
X493077500Y-249745500D01*
X474027500Y-249745500D02*
X460692500Y-249745500D01*
X460692500Y-249745500D02*
X460692500Y-236410500D01*
X460692500Y-236410500D02*
X474027500Y-236410500D01*
X474027500Y-236410500D02*
X474027500Y-249745500D01*
X454977500Y-249745500D02*
X441642500Y-249745500D01*
X441642500Y-249745500D02*
X441642500Y-236410500D01*
X441642500Y-236410500D02*
X454977500Y-236410500D01*
X454977500Y-236410500D02*
X454977500Y-249745500D01*
X493077500Y-230695500D02*
X479742500Y-230695500D01*
X479742500Y-230695500D02*
X479742500Y-217360500D01*
X479742500Y-217360500D02*
X493077500Y-217360500D01*
X493077500Y-217360500D02*
X493077500Y-230695500D01*
X474027500Y-230695500D02*
X460692500Y-230695500D01*
X460692500Y-230695500D02*
X460692500Y-217360500D01*
X460692500Y-217360500D02*
X474027500Y-217360500D01*
X474027500Y-217360500D02*
X474027500Y-230695500D01*
X454977500Y-230695500D02*
X441642500Y-230695500D01*
X441642500Y-230695500D02*
X441642500Y-217360500D01*
X441642500Y-217360500D02*
X454977500Y-217360500D01*
X454977500Y-217360500D02*
X454977500Y-230695500D01*
X512127500Y-211645500D02*
X498792500Y-211645500D01*
X498792500Y-211645500D02*
X498792500Y-198310500D01*
X498792500Y-198310500D02*
X512127500Y-198310500D01*
X512127500Y-198310500D02*
X512127500Y-211645500D01*
X493077500Y-211645500D02*
X479742500Y-211645500D01*
X479742500Y-211645500D02*
X479742500Y-198310500D01*
X479742500Y-198310500D02*
X493077500Y-198310500D01*
X493077500Y-198310500D02*
X493077500Y-211645500D01*
X474027500Y-211645500D02*
X460692500Y-211645500D01*
X460692500Y-211645500D02*
X460692500Y-198310500D01*
X460692500Y-198310500D02*
X474027500Y-198310500D01*
X474027500Y-198310500D02*
X474027500Y-211645500D01*
X454977500Y-211645500D02*
X441642500Y-211645500D01*
X441642500Y-211645500D02*
X441642500Y-198310500D01*
X441642500Y-198310500D02*
X454977500Y-198310500D01*
X454977500Y-198310500D02*
X454977500Y-211645500D01*
X426402500Y-183070500D02*
X413067500Y-183070500D01*
X413067500Y-183070500D02*
X413067500Y-169735500D01*
X413067500Y-169735500D02*
X426402500Y-169735500D01*
X426402500Y-169735500D02*
X426402500Y-183070500D01*
X407352500Y-183070500D02*
X394017500Y-183070500D01*
X394017500Y-183070500D02*
X394017500Y-169735500D01*
X394017500Y-169735500D02*
X407352500Y-169735500D01*
X407352500Y-169735500D02*
X407352500Y-183070500D01*
X388302500Y-183070500D02*
X374967500Y-183070500D01*
X374967500Y-183070500D02*
X374967500Y-169735500D01*
X374967500Y-169735500D02*
X388302500Y-169735500D01*
X388302500Y-169735500D02*
X388302500Y-183070500D01*
X426402500Y-211645500D02*
X413067500Y-211645500D01*
X413067500Y-211645500D02*
X413067500Y-198310500D01*
X413067500Y-198310500D02*
X426402500Y-198310500D01*
X426402500Y-198310500D02*
X426402500Y-211645500D01*
X407352500Y-211645500D02*
X394017500Y-211645500D01*
X394017500Y-211645500D02*
X394017500Y-198310500D01*
X394017500Y-198310500D02*
X407352500Y-198310500D01*
X407352500Y-198310500D02*
X407352500Y-211645500D01*
X388302500Y-211645500D02*
X374967500Y-211645500D01*
X374967500Y-211645500D02*
X374967500Y-198310500D01*
X374967500Y-198310500D02*
X388302500Y-198310500D01*
X388302500Y-198310500D02*
X388302500Y-211645500D01*
X302577500Y-183070500D02*
X289242500Y-183070500D01*
X289242500Y-183070500D02*
X289242500Y-169735500D01*
X289242500Y-169735500D02*
X302577500Y-169735500D01*
X302577500Y-169735500D02*
X302577500Y-183070500D01*
X359727500Y-183070500D02*
X346392500Y-183070500D01*
X346392500Y-183070500D02*
X346392500Y-169735500D01*
X346392500Y-169735500D02*
X359727500Y-169735500D01*
X359727500Y-169735500D02*
X359727500Y-183070500D01*
X340677500Y-183070500D02*
X327342500Y-183070500D01*
X327342500Y-183070500D02*
X327342500Y-169735500D01*
X327342500Y-169735500D02*
X340677500Y-169735500D01*
X340677500Y-169735500D02*
X340677500Y-183070500D01*
X321627500Y-183070500D02*
X308292500Y-183070500D01*
X308292500Y-183070500D02*
X308292500Y-169735500D01*
X308292500Y-169735500D02*
X321627500Y-169735500D01*
X321627500Y-169735500D02*
X321627500Y-183070500D01*
X183515000Y-183070500D02*
X170180000Y-183070500D01*
X170180000Y-183070500D02*
X170180000Y-169735500D01*
X170180000Y-169735500D02*
X183515000Y-169735500D01*
X183515000Y-169735500D02*
X183515000Y-183070500D01*
X164465000Y-183070500D02*
X151130000Y-183070500D01*
X151130000Y-183070500D02*
X151130000Y-169735500D01*
X151130000Y-169735500D02*
X164465000Y-169735500D01*
X164465000Y-169735500D02*
X164465000Y-183070500D01*
X145415000Y-183070500D02*
X132080000Y-183070500D01*
X132080000Y-183070500D02*
X132080000Y-169735500D01*
X132080000Y-169735500D02*
X145415000Y-169735500D01*
X145415000Y-169735500D02*
X145415000Y-183070500D01*
X126365000Y-183070500D02*
X113030000Y-183070500D01*
X113030000Y-183070500D02*
X113030000Y-169735500D01*
X113030000Y-169735500D02*
X126365000Y-169735500D01*
X126365000Y-169735500D02*
X126365000Y-183070500D01*
X307340000Y-268795500D02*
X294005000Y-268795500D01*
X294005000Y-268795500D02*
X294005000Y-255460500D01*
X294005000Y-255460500D02*
X307340000Y-255460500D01*
X307340000Y-255460500D02*
X307340000Y-268795500D01*
X288290000Y-268795500D02*
X274955000Y-268795500D01*
X274955000Y-268795500D02*
X274955000Y-255460500D01*
X274955000Y-255460500D02*
X288290000Y-255460500D01*
X288290000Y-255460500D02*
X288290000Y-268795500D01*
X269240000Y-268795500D02*
X255905000Y-268795500D01*
X255905000Y-268795500D02*
X255905000Y-255460500D01*
X255905000Y-255460500D02*
X269240000Y-255460500D01*
X269240000Y-255460500D02*
X269240000Y-268795500D01*
X250190000Y-268795500D02*
X236855000Y-268795500D01*
X236855000Y-268795500D02*
X236855000Y-255460500D01*
X236855000Y-255460500D02*
X250190000Y-255460500D01*
X250190000Y-255460500D02*
X250190000Y-268795500D01*
X231140000Y-268795500D02*
X217805000Y-268795500D01*
X217805000Y-268795500D02*
X217805000Y-255460500D01*
X217805000Y-255460500D02*
X231140000Y-255460500D01*
X231140000Y-255460500D02*
X231140000Y-268795500D01*
X212090000Y-268795500D02*
X198755000Y-268795500D01*
X198755000Y-268795500D02*
X198755000Y-255460500D01*
X198755000Y-255460500D02*
X212090000Y-255460500D01*
X212090000Y-255460500D02*
X212090000Y-268795500D01*
X193040000Y-268795500D02*
X179705000Y-268795500D01*
X179705000Y-268795500D02*
X179705000Y-255460500D01*
X179705000Y-255460500D02*
X193040000Y-255460500D01*
X193040000Y-255460500D02*
X193040000Y-268795500D01*
X173990000Y-268795500D02*
X160655000Y-268795500D01*
X160655000Y-268795500D02*
X160655000Y-255460500D01*
X160655000Y-255460500D02*
X173990000Y-255460500D01*
X173990000Y-255460500D02*
X173990000Y-268795500D01*
X154940000Y-268795500D02*
X141605000Y-268795500D01*
X141605000Y-268795500D02*
X141605000Y-255460500D01*
X141605000Y-255460500D02*
X154940000Y-255460500D01*
X154940000Y-255460500D02*
X154940000Y-268795500D01*
X135890000Y-268795500D02*
X122555000Y-268795500D01*
X122555000Y-268795500D02*
X122555000Y-255460500D01*
X122555000Y-255460500D02*
X135890000Y-255460500D01*
X135890000Y-255460500D02*
X135890000Y-268795500D01*
X316865000Y-249745500D02*
X303530000Y-249745500D01*
X303530000Y-249745500D02*
X303530000Y-236410500D01*
X303530000Y-236410500D02*
X316865000Y-236410500D01*
X316865000Y-236410500D02*
X316865000Y-249745500D01*
X297815000Y-249745500D02*
X284480000Y-249745500D01*
X284480000Y-249745500D02*
X284480000Y-236410500D01*
X284480000Y-236410500D02*
X297815000Y-236410500D01*
X297815000Y-236410500D02*
X297815000Y-249745500D01*
X278765000Y-249745500D02*
X265430000Y-249745500D01*
X265430000Y-249745500D02*
X265430000Y-236410500D01*
X265430000Y-236410500D02*
X278765000Y-236410500D01*
X278765000Y-236410500D02*
X278765000Y-249745500D01*
X259715000Y-249745500D02*
X246380000Y-249745500D01*
X246380000Y-249745500D02*
X246380000Y-236410500D01*
X246380000Y-236410500D02*
X259715000Y-236410500D01*
X259715000Y-236410500D02*
X259715000Y-249745500D01*
X240665000Y-249745500D02*
X227330000Y-249745500D01*
X227330000Y-249745500D02*
X227330000Y-236410500D01*
X227330000Y-236410500D02*
X240665000Y-236410500D01*
X240665000Y-236410500D02*
X240665000Y-249745500D01*
X221615000Y-249745500D02*
X208280000Y-249745500D01*
X208280000Y-249745500D02*
X208280000Y-236410500D01*
X208280000Y-236410500D02*
X221615000Y-236410500D01*
X221615000Y-236410500D02*
X221615000Y-249745500D01*
X202565000Y-249745500D02*
X189230000Y-249745500D01*
X189230000Y-249745500D02*
X189230000Y-236410500D01*
X189230000Y-236410500D02*
X202565000Y-236410500D01*
X202565000Y-236410500D02*
X202565000Y-249745500D01*
X183515000Y-249745500D02*
X170180000Y-249745500D01*
X170180000Y-249745500D02*
X170180000Y-236410500D01*
X170180000Y-236410500D02*
X183515000Y-236410500D01*
X183515000Y-236410500D02*
X183515000Y-249745500D01*
X164465000Y-249745500D02*
X151130000Y-249745500D01*
X151130000Y-249745500D02*
X151130000Y-236410500D01*
X151130000Y-236410500D02*
X164465000Y-236410500D01*
X164465000Y-236410500D02*
X164465000Y-249745500D01*
X331152500Y-230695500D02*
X317817500Y-230695500D01*
X317817500Y-230695500D02*
X317817500Y-217360500D01*
X317817500Y-217360500D02*
X331152500Y-217360500D01*
X331152500Y-217360500D02*
X331152500Y-230695500D01*
X312102500Y-230695500D02*
X298767500Y-230695500D01*
X298767500Y-230695500D02*
X298767500Y-217360500D01*
X298767500Y-217360500D02*
X312102500Y-217360500D01*
X312102500Y-217360500D02*
X312102500Y-230695500D01*
X293052500Y-230695500D02*
X279717500Y-230695500D01*
X279717500Y-230695500D02*
X279717500Y-217360500D01*
X279717500Y-217360500D02*
X293052500Y-217360500D01*
X293052500Y-217360500D02*
X293052500Y-230695500D01*
X274002500Y-230695500D02*
X260667500Y-230695500D01*
X260667500Y-230695500D02*
X260667500Y-217360500D01*
X260667500Y-217360500D02*
X274002500Y-217360500D01*
X274002500Y-217360500D02*
X274002500Y-230695500D01*
X254952500Y-230695500D02*
X241617500Y-230695500D01*
X241617500Y-230695500D02*
X241617500Y-217360500D01*
X241617500Y-217360500D02*
X254952500Y-217360500D01*
X254952500Y-217360500D02*
X254952500Y-230695500D01*
X235902500Y-230695500D02*
X222567500Y-230695500D01*
X222567500Y-230695500D02*
X222567500Y-217360500D01*
X222567500Y-217360500D02*
X235902500Y-217360500D01*
X235902500Y-217360500D02*
X235902500Y-230695500D01*
X216852500Y-230695500D02*
X203517500Y-230695500D01*
X203517500Y-230695500D02*
X203517500Y-217360500D01*
X203517500Y-217360500D02*
X216852500Y-217360500D01*
X216852500Y-217360500D02*
X216852500Y-230695500D01*
X197802500Y-230695500D02*
X184467500Y-230695500D01*
X184467500Y-230695500D02*
X184467500Y-217360500D01*
X184467500Y-217360500D02*
X197802500Y-217360500D01*
X197802500Y-217360500D02*
X197802500Y-230695500D01*
X178752500Y-230695500D02*
X165417500Y-230695500D01*
X165417500Y-230695500D02*
X165417500Y-217360500D01*
X165417500Y-217360500D02*
X178752500Y-217360500D01*
X178752500Y-217360500D02*
X178752500Y-230695500D01*
X159702500Y-230695500D02*
X146367500Y-230695500D01*
X146367500Y-230695500D02*
X146367500Y-217360500D01*
X146367500Y-217360500D02*
X159702500Y-217360500D01*
X159702500Y-217360500D02*
X159702500Y-230695500D01*
X321627500Y-211645500D02*
X308292500Y-211645500D01*
X308292500Y-211645500D02*
X308292500Y-198310500D01*
X308292500Y-198310500D02*
X321627500Y-198310500D01*
X321627500Y-198310500D02*
X321627500Y-211645500D01*
X302577500Y-211645500D02*
X289242500Y-211645500D01*
X289242500Y-211645500D02*
X289242500Y-198310500D01*
X289242500Y-198310500D02*
X302577500Y-198310500D01*
X302577500Y-198310500D02*
X302577500Y-211645500D01*
X283527500Y-211645500D02*
X270192500Y-211645500D01*
X270192500Y-211645500D02*
X270192500Y-198310500D01*
X270192500Y-198310500D02*
X283527500Y-198310500D01*
X283527500Y-198310500D02*
X283527500Y-211645500D01*
X264477500Y-211645500D02*
X251142500Y-211645500D01*
X251142500Y-211645500D02*
X251142500Y-198310500D01*
X251142500Y-198310500D02*
X264477500Y-198310500D01*
X264477500Y-198310500D02*
X264477500Y-211645500D01*
X245427500Y-211645500D02*
X232092500Y-211645500D01*
X232092500Y-211645500D02*
X232092500Y-198310500D01*
X232092500Y-198310500D02*
X245427500Y-198310500D01*
X245427500Y-198310500D02*
X245427500Y-211645500D01*
X226377500Y-211645500D02*
X213042500Y-211645500D01*
X213042500Y-211645500D02*
X213042500Y-198310500D01*
X213042500Y-198310500D02*
X226377500Y-198310500D01*
X226377500Y-198310500D02*
X226377500Y-211645500D01*
X207327500Y-211645500D02*
X193992500Y-211645500D01*
X193992500Y-211645500D02*
X193992500Y-198310500D01*
X193992500Y-198310500D02*
X207327500Y-198310500D01*
X207327500Y-198310500D02*
X207327500Y-211645500D01*
X188277500Y-211645500D02*
X174942500Y-211645500D01*
X174942500Y-211645500D02*
X174942500Y-198310500D01*
X174942500Y-198310500D02*
X188277500Y-198310500D01*
X188277500Y-198310500D02*
X188277500Y-211645500D01*
X169227500Y-211645500D02*
X155892500Y-211645500D01*
X155892500Y-211645500D02*
X155892500Y-198310500D01*
X155892500Y-198310500D02*
X169227500Y-198310500D01*
X169227500Y-198310500D02*
X169227500Y-211645500D01*
X150177500Y-211645500D02*
X136842500Y-211645500D01*
X136842500Y-211645500D02*
X136842500Y-198310500D01*
X136842500Y-198310500D02*
X150177500Y-198310500D01*
X150177500Y-198310500D02*
X150177500Y-211645500D01*
X93027500Y-183070500D02*
X79692500Y-183070500D01*
X79692500Y-183070500D02*
X79692500Y-169735500D01*
X79692500Y-169735500D02*
X93027500Y-169735500D01*
X93027500Y-169735500D02*
X93027500Y-183070500D01*
M02*
