%TF.GenerationSoftware,KiCad,Pcbnew,(5.1.9)-1*%
%TF.CreationDate,2021-03-10T22:07:46+01:00*%
%TF.ProjectId,poly_kb,706f6c79-5f6b-4622-9e6b-696361645f70,rev?*%
%TF.SameCoordinates,Original*%
%TF.FileFunction,Legend,Bot*%
%TF.FilePolarity,Positive*%
%FSLAX46Y46*%
G04 Gerber Fmt 4.6, Leading zero omitted, Abs format (unit mm)*
G04 Created by KiCad (PCBNEW (5.1.9)-1) date 2021-03-10 22:07:46*
%MOMM*%
%LPD*%
G01*
G04 APERTURE LIST*
%ADD10C,0.120000*%
%ADD11C,0.150000*%
%ADD12C,0.500000*%
%ADD13C,0.300000*%
G04 APERTURE END LIST*
D10*
X553593000Y-179171600D02*
X549681400Y-173278800D01*
D11*
X553442238Y-186997504D02*
X553394619Y-186854647D01*
X553394619Y-186616552D01*
X553442238Y-186521314D01*
X553489857Y-186473695D01*
X553585095Y-186426076D01*
X553680333Y-186426076D01*
X553775571Y-186473695D01*
X553823190Y-186521314D01*
X553870809Y-186616552D01*
X553918428Y-186807028D01*
X553966047Y-186902266D01*
X554013666Y-186949885D01*
X554108904Y-186997504D01*
X554204142Y-186997504D01*
X554299380Y-186949885D01*
X554347000Y-186902266D01*
X554394619Y-186807028D01*
X554394619Y-186568933D01*
X554347000Y-186426076D01*
X554061285Y-186140361D02*
X554061285Y-185759409D01*
X554394619Y-185997504D02*
X553537476Y-185997504D01*
X553442238Y-185949885D01*
X553394619Y-185854647D01*
X553394619Y-185759409D01*
X553394619Y-184997504D02*
X553918428Y-184997504D01*
X554013666Y-185045123D01*
X554061285Y-185140361D01*
X554061285Y-185330838D01*
X554013666Y-185426076D01*
X553442238Y-184997504D02*
X553394619Y-185092742D01*
X553394619Y-185330838D01*
X553442238Y-185426076D01*
X553537476Y-185473695D01*
X553632714Y-185473695D01*
X553727952Y-185426076D01*
X553775571Y-185330838D01*
X553775571Y-185092742D01*
X553823190Y-184997504D01*
X554061285Y-184664171D02*
X554061285Y-184283219D01*
X554394619Y-184521314D02*
X553537476Y-184521314D01*
X553442238Y-184473695D01*
X553394619Y-184378457D01*
X553394619Y-184283219D01*
X554061285Y-183521314D02*
X553394619Y-183521314D01*
X554061285Y-183949885D02*
X553537476Y-183949885D01*
X553442238Y-183902266D01*
X553394619Y-183807028D01*
X553394619Y-183664171D01*
X553442238Y-183568933D01*
X553489857Y-183521314D01*
X553442238Y-183092742D02*
X553394619Y-182997504D01*
X553394619Y-182807028D01*
X553442238Y-182711790D01*
X553537476Y-182664171D01*
X553585095Y-182664171D01*
X553680333Y-182711790D01*
X553727952Y-182807028D01*
X553727952Y-182949885D01*
X553775571Y-183045123D01*
X553870809Y-183092742D01*
X553918428Y-183092742D01*
X554013666Y-183045123D01*
X554061285Y-182949885D01*
X554061285Y-182807028D01*
X554013666Y-182711790D01*
X553394619Y-182235600D02*
X554394619Y-182235600D01*
X554394619Y-181997504D01*
X554347000Y-181854647D01*
X554251761Y-181759409D01*
X554156523Y-181711790D01*
X553966047Y-181664171D01*
X553823190Y-181664171D01*
X553632714Y-181711790D01*
X553537476Y-181759409D01*
X553442238Y-181854647D01*
X553394619Y-181997504D01*
X553394619Y-182235600D01*
X553394619Y-181235600D02*
X554061285Y-181235600D01*
X554394619Y-181235600D02*
X554347000Y-181283219D01*
X554299380Y-181235600D01*
X554347000Y-181187980D01*
X554394619Y-181235600D01*
X554299380Y-181235600D01*
X553442238Y-180807028D02*
X553394619Y-180711790D01*
X553394619Y-180521314D01*
X553442238Y-180426076D01*
X553537476Y-180378457D01*
X553585095Y-180378457D01*
X553680333Y-180426076D01*
X553727952Y-180521314D01*
X553727952Y-180664171D01*
X553775571Y-180759409D01*
X553870809Y-180807028D01*
X553918428Y-180807028D01*
X554013666Y-180759409D01*
X554061285Y-180664171D01*
X554061285Y-180521314D01*
X554013666Y-180426076D01*
X554061285Y-179949885D02*
X553061285Y-179949885D01*
X554013666Y-179949885D02*
X554061285Y-179854647D01*
X554061285Y-179664171D01*
X554013666Y-179568933D01*
X553966047Y-179521314D01*
X553870809Y-179473695D01*
X553585095Y-179473695D01*
X553489857Y-179521314D01*
X553442238Y-179568933D01*
X553394619Y-179664171D01*
X553394619Y-179854647D01*
X553442238Y-179949885D01*
X554736095Y-175125000D02*
X554640857Y-175172619D01*
X554498000Y-175172619D01*
X554355142Y-175125000D01*
X554259904Y-175029761D01*
X554212285Y-174934523D01*
X554164666Y-174744047D01*
X554164666Y-174601190D01*
X554212285Y-174410714D01*
X554259904Y-174315476D01*
X554355142Y-174220238D01*
X554498000Y-174172619D01*
X554593238Y-174172619D01*
X554736095Y-174220238D01*
X554783714Y-174267857D01*
X554783714Y-174601190D01*
X554593238Y-174601190D01*
X555212285Y-174172619D02*
X555212285Y-175172619D01*
X555783714Y-174172619D01*
X555783714Y-175172619D01*
X556259904Y-174172619D02*
X556259904Y-175172619D01*
X556498000Y-175172619D01*
X556640857Y-175125000D01*
X556736095Y-175029761D01*
X556783714Y-174934523D01*
X556831333Y-174744047D01*
X556831333Y-174601190D01*
X556783714Y-174410714D01*
X556736095Y-174315476D01*
X556640857Y-174220238D01*
X556498000Y-174172619D01*
X556259904Y-174172619D01*
X552324638Y-175302223D02*
X552277019Y-175159366D01*
X552277019Y-174921271D01*
X552324638Y-174826033D01*
X552372257Y-174778414D01*
X552467495Y-174730795D01*
X552562733Y-174730795D01*
X552657971Y-174778414D01*
X552705590Y-174826033D01*
X552753209Y-174921271D01*
X552800828Y-175111747D01*
X552848447Y-175206985D01*
X552896066Y-175254604D01*
X552991304Y-175302223D01*
X553086542Y-175302223D01*
X553181780Y-175254604D01*
X553229400Y-175206985D01*
X553277019Y-175111747D01*
X553277019Y-174873652D01*
X553229400Y-174730795D01*
X553277019Y-174397461D02*
X552277019Y-174159366D01*
X552991304Y-173968890D01*
X552277019Y-173778414D01*
X553277019Y-173540319D01*
X552277019Y-173159366D02*
X553277019Y-173159366D01*
X553277019Y-172921271D01*
X553229400Y-172778414D01*
X553134161Y-172683176D01*
X553038923Y-172635557D01*
X552848447Y-172587938D01*
X552705590Y-172587938D01*
X552515114Y-172635557D01*
X552419876Y-172683176D01*
X552324638Y-172778414D01*
X552277019Y-172921271D01*
X552277019Y-173159366D01*
X552943685Y-172159366D02*
X552657971Y-171397461D01*
X552372257Y-172159366D01*
X552243047Y-220305380D02*
X552243047Y-221019666D01*
X552290666Y-221162523D01*
X552385904Y-221257761D01*
X552528761Y-221305380D01*
X552624000Y-221305380D01*
X551290666Y-221305380D02*
X551766857Y-221305380D01*
X551766857Y-220305380D01*
X550385904Y-221210142D02*
X550433523Y-221257761D01*
X550576380Y-221305380D01*
X550671619Y-221305380D01*
X550814476Y-221257761D01*
X550909714Y-221162523D01*
X550957333Y-221067285D01*
X551004952Y-220876809D01*
X551004952Y-220733952D01*
X550957333Y-220543476D01*
X550909714Y-220448238D01*
X550814476Y-220353000D01*
X550671619Y-220305380D01*
X550576380Y-220305380D01*
X550433523Y-220353000D01*
X550385904Y-220400619D01*
X549671619Y-220305380D02*
X549671619Y-221019666D01*
X549719238Y-221162523D01*
X549814476Y-221257761D01*
X549957333Y-221305380D01*
X550052571Y-221305380D01*
X548719238Y-221305380D02*
X549195428Y-221305380D01*
X549195428Y-220305380D01*
X547814476Y-221210142D02*
X547862095Y-221257761D01*
X548004952Y-221305380D01*
X548100190Y-221305380D01*
X548243047Y-221257761D01*
X548338285Y-221162523D01*
X548385904Y-221067285D01*
X548433523Y-220876809D01*
X548433523Y-220733952D01*
X548385904Y-220543476D01*
X548338285Y-220448238D01*
X548243047Y-220353000D01*
X548100190Y-220305380D01*
X548004952Y-220305380D01*
X547862095Y-220353000D01*
X547814476Y-220400619D01*
X547100190Y-220305380D02*
X547100190Y-221019666D01*
X547147809Y-221162523D01*
X547243047Y-221257761D01*
X547385904Y-221305380D01*
X547481142Y-221305380D01*
X546147809Y-221305380D02*
X546624000Y-221305380D01*
X546624000Y-220305380D01*
X545243047Y-221210142D02*
X545290666Y-221257761D01*
X545433523Y-221305380D01*
X545528761Y-221305380D01*
X545671619Y-221257761D01*
X545766857Y-221162523D01*
X545814476Y-221067285D01*
X545862095Y-220876809D01*
X545862095Y-220733952D01*
X545814476Y-220543476D01*
X545766857Y-220448238D01*
X545671619Y-220353000D01*
X545528761Y-220305380D01*
X545433523Y-220305380D01*
X545290666Y-220353000D01*
X545243047Y-220400619D01*
X544528761Y-220305380D02*
X544528761Y-221019666D01*
X544576380Y-221162523D01*
X544671619Y-221257761D01*
X544814476Y-221305380D01*
X544909714Y-221305380D01*
X543576380Y-221305380D02*
X544052571Y-221305380D01*
X544052571Y-220305380D01*
X542671619Y-221210142D02*
X542719238Y-221257761D01*
X542862095Y-221305380D01*
X542957333Y-221305380D01*
X543100190Y-221257761D01*
X543195428Y-221162523D01*
X543243047Y-221067285D01*
X543290666Y-220876809D01*
X543290666Y-220733952D01*
X543243047Y-220543476D01*
X543195428Y-220448238D01*
X543100190Y-220353000D01*
X542957333Y-220305380D01*
X542862095Y-220305380D01*
X542719238Y-220353000D01*
X542671619Y-220400619D01*
D10*
X553643800Y-191566800D02*
X553643800Y-199593200D01*
X559638200Y-191566800D02*
X553643800Y-191566800D01*
X559638200Y-199542400D02*
X559638200Y-191566800D01*
X553643800Y-199593200D02*
X559638200Y-199542400D01*
D11*
X557435828Y-197008571D02*
X557435828Y-197341904D01*
X556912019Y-197341904D02*
X557912019Y-197341904D01*
X557912019Y-196865714D01*
X556912019Y-196341904D02*
X556959638Y-196437142D01*
X557054876Y-196484761D01*
X557912019Y-196484761D01*
X556912019Y-195532380D02*
X557435828Y-195532380D01*
X557531066Y-195580000D01*
X557578685Y-195675238D01*
X557578685Y-195865714D01*
X557531066Y-195960952D01*
X556959638Y-195532380D02*
X556912019Y-195627619D01*
X556912019Y-195865714D01*
X556959638Y-195960952D01*
X557054876Y-196008571D01*
X557150114Y-196008571D01*
X557245352Y-195960952D01*
X557292971Y-195865714D01*
X557292971Y-195627619D01*
X557340590Y-195532380D01*
X556959638Y-195103809D02*
X556912019Y-195008571D01*
X556912019Y-194818095D01*
X556959638Y-194722857D01*
X557054876Y-194675238D01*
X557102495Y-194675238D01*
X557197733Y-194722857D01*
X557245352Y-194818095D01*
X557245352Y-194960952D01*
X557292971Y-195056190D01*
X557388209Y-195103809D01*
X557435828Y-195103809D01*
X557531066Y-195056190D01*
X557578685Y-194960952D01*
X557578685Y-194818095D01*
X557531066Y-194722857D01*
X556912019Y-194246666D02*
X557912019Y-194246666D01*
X556912019Y-193818095D02*
X557435828Y-193818095D01*
X557531066Y-193865714D01*
X557578685Y-193960952D01*
X557578685Y-194103809D01*
X557531066Y-194199047D01*
X557483447Y-194246666D01*
X555309638Y-197080000D02*
X555262019Y-196937142D01*
X555262019Y-196699047D01*
X555309638Y-196603809D01*
X555357257Y-196556190D01*
X555452495Y-196508571D01*
X555547733Y-196508571D01*
X555642971Y-196556190D01*
X555690590Y-196603809D01*
X555738209Y-196699047D01*
X555785828Y-196889523D01*
X555833447Y-196984761D01*
X555881066Y-197032380D01*
X555976304Y-197080000D01*
X556071542Y-197080000D01*
X556166780Y-197032380D01*
X556214400Y-196984761D01*
X556262019Y-196889523D01*
X556262019Y-196651428D01*
X556214400Y-196508571D01*
X555262019Y-196080000D02*
X556262019Y-196080000D01*
X556262019Y-195699047D01*
X556214400Y-195603809D01*
X556166780Y-195556190D01*
X556071542Y-195508571D01*
X555928685Y-195508571D01*
X555833447Y-195556190D01*
X555785828Y-195603809D01*
X555738209Y-195699047D01*
X555738209Y-196080000D01*
X555262019Y-195080000D02*
X556262019Y-195080000D01*
X556166780Y-194651428D02*
X556214400Y-194603809D01*
X556262019Y-194508571D01*
X556262019Y-194270476D01*
X556214400Y-194175238D01*
X556166780Y-194127619D01*
X556071542Y-194080000D01*
X555976304Y-194080000D01*
X555833447Y-194127619D01*
X555262019Y-194699047D01*
X555262019Y-194080000D01*
X526733333Y-181412190D02*
X527433333Y-181412190D01*
X527433333Y-181221714D01*
X527400000Y-181107428D01*
X527333333Y-181031238D01*
X527266666Y-180993142D01*
X527133333Y-180955047D01*
X527033333Y-180955047D01*
X526900000Y-180993142D01*
X526833333Y-181031238D01*
X526766666Y-181107428D01*
X526733333Y-181221714D01*
X526733333Y-181412190D01*
X526733333Y-180612190D02*
X527200000Y-180612190D01*
X527433333Y-180612190D02*
X527400000Y-180650285D01*
X527366666Y-180612190D01*
X527400000Y-180574095D01*
X527433333Y-180612190D01*
X527366666Y-180612190D01*
X526766666Y-180269333D02*
X526733333Y-180193142D01*
X526733333Y-180040761D01*
X526766666Y-179964571D01*
X526833333Y-179926476D01*
X526866666Y-179926476D01*
X526933333Y-179964571D01*
X526966666Y-180040761D01*
X526966666Y-180155047D01*
X527000000Y-180231238D01*
X527066666Y-180269333D01*
X527100000Y-180269333D01*
X527166666Y-180231238D01*
X527200000Y-180155047D01*
X527200000Y-180040761D01*
X527166666Y-179964571D01*
X527200000Y-179583619D02*
X526500000Y-179583619D01*
X527166666Y-179583619D02*
X527200000Y-179507428D01*
X527200000Y-179355047D01*
X527166666Y-179278857D01*
X527133333Y-179240761D01*
X527066666Y-179202666D01*
X526866666Y-179202666D01*
X526800000Y-179240761D01*
X526766666Y-179278857D01*
X526733333Y-179355047D01*
X526733333Y-179507428D01*
X526766666Y-179583619D01*
X526733333Y-178745523D02*
X526766666Y-178821714D01*
X526833333Y-178859809D01*
X527433333Y-178859809D01*
X526733333Y-178097904D02*
X527100000Y-178097904D01*
X527166666Y-178136000D01*
X527200000Y-178212190D01*
X527200000Y-178364571D01*
X527166666Y-178440761D01*
X526766666Y-178097904D02*
X526733333Y-178174095D01*
X526733333Y-178364571D01*
X526766666Y-178440761D01*
X526833333Y-178478857D01*
X526900000Y-178478857D01*
X526966666Y-178440761D01*
X527000000Y-178364571D01*
X527000000Y-178174095D01*
X527033333Y-178097904D01*
X527200000Y-177793142D02*
X526733333Y-177602666D01*
X527200000Y-177412190D02*
X526733333Y-177602666D01*
X526566666Y-177678857D01*
X526533333Y-177716952D01*
X526500000Y-177793142D01*
X526766666Y-176536000D02*
X526733333Y-176421714D01*
X526733333Y-176231238D01*
X526766666Y-176155047D01*
X526800000Y-176116952D01*
X526866666Y-176078857D01*
X526933333Y-176078857D01*
X527000000Y-176116952D01*
X527033333Y-176155047D01*
X527066666Y-176231238D01*
X527100000Y-176383619D01*
X527133333Y-176459809D01*
X527166666Y-176497904D01*
X527233333Y-176536000D01*
X527300000Y-176536000D01*
X527366666Y-176497904D01*
X527400000Y-176459809D01*
X527433333Y-176383619D01*
X527433333Y-176193142D01*
X527400000Y-176078857D01*
X526766666Y-175431238D02*
X526733333Y-175507428D01*
X526733333Y-175659809D01*
X526766666Y-175736000D01*
X526833333Y-175774095D01*
X527100000Y-175774095D01*
X527166666Y-175736000D01*
X527200000Y-175659809D01*
X527200000Y-175507428D01*
X527166666Y-175431238D01*
X527100000Y-175393142D01*
X527033333Y-175393142D01*
X526966666Y-175774095D01*
X526733333Y-174936000D02*
X526766666Y-175012190D01*
X526833333Y-175050285D01*
X527433333Y-175050285D01*
X526766666Y-174326476D02*
X526733333Y-174402666D01*
X526733333Y-174555047D01*
X526766666Y-174631238D01*
X526833333Y-174669333D01*
X527100000Y-174669333D01*
X527166666Y-174631238D01*
X527200000Y-174555047D01*
X527200000Y-174402666D01*
X527166666Y-174326476D01*
X527100000Y-174288380D01*
X527033333Y-174288380D01*
X526966666Y-174669333D01*
X526766666Y-173602666D02*
X526733333Y-173678857D01*
X526733333Y-173831238D01*
X526766666Y-173907428D01*
X526800000Y-173945523D01*
X526866666Y-173983619D01*
X527066666Y-173983619D01*
X527133333Y-173945523D01*
X527166666Y-173907428D01*
X527200000Y-173831238D01*
X527200000Y-173678857D01*
X527166666Y-173602666D01*
X527200000Y-173374095D02*
X527200000Y-173069333D01*
X527433333Y-173259809D02*
X526833333Y-173259809D01*
X526766666Y-173221714D01*
X526733333Y-173145523D01*
X526733333Y-173069333D01*
X526733333Y-172802666D02*
X527200000Y-172802666D01*
X527433333Y-172802666D02*
X527400000Y-172840761D01*
X527366666Y-172802666D01*
X527400000Y-172764571D01*
X527433333Y-172802666D01*
X527366666Y-172802666D01*
X526733333Y-172307428D02*
X526766666Y-172383619D01*
X526800000Y-172421714D01*
X526866666Y-172459809D01*
X527066666Y-172459809D01*
X527133333Y-172421714D01*
X527166666Y-172383619D01*
X527200000Y-172307428D01*
X527200000Y-172193142D01*
X527166666Y-172116952D01*
X527133333Y-172078857D01*
X527066666Y-172040761D01*
X526866666Y-172040761D01*
X526800000Y-172078857D01*
X526766666Y-172116952D01*
X526733333Y-172193142D01*
X526733333Y-172307428D01*
X527200000Y-171697904D02*
X526733333Y-171697904D01*
X527133333Y-171697904D02*
X527166666Y-171659809D01*
X527200000Y-171583619D01*
X527200000Y-171469333D01*
X527166666Y-171393142D01*
X527100000Y-171355047D01*
X526733333Y-171355047D01*
X527000000Y-170974095D02*
X527000000Y-170364571D01*
X526766666Y-170021714D02*
X526733333Y-169907428D01*
X526733333Y-169716952D01*
X526766666Y-169640761D01*
X526800000Y-169602666D01*
X526866666Y-169564571D01*
X526933333Y-169564571D01*
X527000000Y-169602666D01*
X527033333Y-169640761D01*
X527066666Y-169716952D01*
X527100000Y-169869333D01*
X527133333Y-169945523D01*
X527166666Y-169983619D01*
X527233333Y-170021714D01*
X527300000Y-170021714D01*
X527366666Y-169983619D01*
X527400000Y-169945523D01*
X527433333Y-169869333D01*
X527433333Y-169678857D01*
X527400000Y-169564571D01*
X526733333Y-169221714D02*
X527433333Y-169221714D01*
X527433333Y-168916952D01*
X527400000Y-168840761D01*
X527366666Y-168802666D01*
X527300000Y-168764571D01*
X527200000Y-168764571D01*
X527133333Y-168802666D01*
X527100000Y-168840761D01*
X527066666Y-168916952D01*
X527066666Y-169221714D01*
X526733333Y-168421714D02*
X527433333Y-168421714D01*
X527433333Y-168116952D02*
X527433333Y-167621714D01*
X527166666Y-167888380D01*
X527166666Y-167774095D01*
X527133333Y-167697904D01*
X527100000Y-167659809D01*
X527033333Y-167621714D01*
X526866666Y-167621714D01*
X526800000Y-167659809D01*
X526766666Y-167697904D01*
X526733333Y-167774095D01*
X526733333Y-168002666D01*
X526766666Y-168078857D01*
X526800000Y-168116952D01*
X527200000Y-166669333D02*
X527000000Y-166059809D01*
X526800000Y-166669333D01*
D12*
X536673514Y-206908400D02*
X536578276Y-206813161D01*
X536483038Y-206908400D01*
X536578276Y-207003638D01*
X536673514Y-206908400D01*
X536483038Y-206908400D01*
D11*
X553994307Y-206916927D02*
X553859620Y-206849584D01*
X553691262Y-206681225D01*
X553657590Y-206580210D01*
X553657590Y-206512866D01*
X553691262Y-206411851D01*
X553758605Y-206344507D01*
X553859620Y-206310836D01*
X553926964Y-206310836D01*
X554027979Y-206344507D01*
X554196338Y-206445523D01*
X554297353Y-206479194D01*
X554364697Y-206479194D01*
X554465712Y-206445523D01*
X554533055Y-206378179D01*
X554566727Y-206277164D01*
X554566727Y-206209820D01*
X554533055Y-206108805D01*
X554364697Y-205940446D01*
X554230010Y-205873103D01*
X554061651Y-205637401D02*
X553657590Y-205233340D01*
X553152514Y-206142477D02*
X553859620Y-205435370D01*
X552714781Y-205704744D02*
X553421888Y-204997637D01*
X552681109Y-205267011D01*
X552950483Y-204526233D01*
X552243376Y-205233340D01*
X552681109Y-204256859D02*
X552243376Y-203819126D01*
X552209705Y-204324202D01*
X552108689Y-204223187D01*
X552007674Y-204189515D01*
X551940331Y-204189515D01*
X551839315Y-204223187D01*
X551670957Y-204391546D01*
X551637285Y-204492561D01*
X551637285Y-204559905D01*
X551670957Y-204660920D01*
X551872987Y-204862950D01*
X551974002Y-204896622D01*
X552041346Y-204896622D01*
X551906659Y-203617096D02*
X551906659Y-203549752D01*
X551872987Y-203448737D01*
X551704628Y-203280378D01*
X551603613Y-203246706D01*
X551536270Y-203246706D01*
X551435254Y-203280378D01*
X551367911Y-203347722D01*
X551300567Y-203482409D01*
X551300567Y-204290531D01*
X550862835Y-203852798D01*
X550694476Y-202943661D02*
X550930178Y-203179363D01*
X550559789Y-203549752D02*
X551266896Y-202842645D01*
X550930178Y-202505928D01*
X550122056Y-202169210D02*
X549650651Y-202640615D01*
X550559789Y-202068195D02*
X550223071Y-202741630D01*
X549785338Y-202303897D01*
X549852682Y-201428432D02*
X549785338Y-201361088D01*
X549684323Y-201327416D01*
X549616980Y-201327416D01*
X549515964Y-201361088D01*
X549347606Y-201462103D01*
X549179247Y-201630462D01*
X549078232Y-201798821D01*
X549044560Y-201899836D01*
X549044560Y-201967180D01*
X549078232Y-202068195D01*
X549145575Y-202135538D01*
X549246590Y-202169210D01*
X549313934Y-202169210D01*
X549414949Y-202135538D01*
X549583308Y-202034523D01*
X549751667Y-201866164D01*
X549852682Y-201697806D01*
X549886354Y-201596790D01*
X549886354Y-201529447D01*
X549852682Y-201428432D01*
X549381277Y-200957027D02*
X548909873Y-200485623D01*
X548505812Y-201495775D01*
X548741514Y-200317264D02*
X547798705Y-200788668D01*
X548270110Y-199845859D01*
X547697690Y-199946875D02*
X547461988Y-199711172D01*
X546990583Y-199980546D02*
X547327301Y-200317264D01*
X548034407Y-199610157D01*
X547697690Y-199273440D01*
X547495659Y-199071409D02*
X547091598Y-198667348D01*
X546586522Y-199576485D02*
X547293629Y-198869379D01*
X546552850Y-198128600D02*
X546687537Y-198263287D01*
X546721209Y-198364302D01*
X546721209Y-198431646D01*
X546687537Y-198600005D01*
X546586522Y-198768363D01*
X546317148Y-199037737D01*
X546216133Y-199071409D01*
X546148789Y-199071409D01*
X546047774Y-199037737D01*
X545913087Y-198903050D01*
X545879415Y-198802035D01*
X545879415Y-198734692D01*
X545913087Y-198633676D01*
X546081446Y-198465318D01*
X546182461Y-198431646D01*
X546249805Y-198431646D01*
X546350820Y-198465318D01*
X546485507Y-198600005D01*
X546519179Y-198701020D01*
X546519179Y-198768363D01*
X546485507Y-198869379D01*
D10*
X545769800Y-194868800D02*
X545973000Y-195072000D01*
X541909000Y-198678800D02*
X545719000Y-194868800D01*
X535305000Y-205282800D02*
X537540200Y-203047600D01*
X539064200Y-211632800D02*
X536473400Y-208889600D01*
X545719000Y-218389200D02*
X539978600Y-212648800D01*
X557250600Y-206552800D02*
X545719000Y-218389200D01*
X545973000Y-195072000D02*
X557250600Y-206552800D01*
X555472600Y-229057200D02*
X555472600Y-224282000D01*
X550443400Y-229057200D02*
X550443400Y-224282000D01*
X530225000Y-229057200D02*
X530225000Y-224282000D01*
D13*
X540422628Y-205899057D02*
X541922628Y-205899057D01*
X541922628Y-205327628D01*
X541851200Y-205184771D01*
X541779771Y-205113342D01*
X541636914Y-205041914D01*
X541422628Y-205041914D01*
X541279771Y-205113342D01*
X541208342Y-205184771D01*
X541136914Y-205327628D01*
X541136914Y-205899057D01*
X540422628Y-204184771D02*
X540494057Y-204327628D01*
X540565485Y-204399057D01*
X540708342Y-204470485D01*
X541136914Y-204470485D01*
X541279771Y-204399057D01*
X541351200Y-204327628D01*
X541422628Y-204184771D01*
X541422628Y-203970485D01*
X541351200Y-203827628D01*
X541279771Y-203756200D01*
X541136914Y-203684771D01*
X540708342Y-203684771D01*
X540565485Y-203756200D01*
X540494057Y-203827628D01*
X540422628Y-203970485D01*
X540422628Y-204184771D01*
X540422628Y-202827628D02*
X540494057Y-202970485D01*
X540636914Y-203041914D01*
X541922628Y-203041914D01*
X541422628Y-202399057D02*
X540422628Y-202041914D01*
X541422628Y-201684771D02*
X540422628Y-202041914D01*
X540065485Y-202184771D01*
X539994057Y-202256200D01*
X539922628Y-202399057D01*
X540422628Y-199970485D02*
X541922628Y-199970485D01*
X540422628Y-199113342D02*
X541279771Y-199756200D01*
X541922628Y-199113342D02*
X541065485Y-199970485D01*
X540494057Y-197899057D02*
X540422628Y-198041914D01*
X540422628Y-198327628D01*
X540494057Y-198470485D01*
X540636914Y-198541914D01*
X541208342Y-198541914D01*
X541351200Y-198470485D01*
X541422628Y-198327628D01*
X541422628Y-198041914D01*
X541351200Y-197899057D01*
X541208342Y-197827628D01*
X541065485Y-197827628D01*
X540922628Y-198541914D01*
X541422628Y-197327628D02*
X540422628Y-196970485D01*
X541422628Y-196613342D02*
X540422628Y-196970485D01*
X540065485Y-197113342D01*
X539994057Y-197184771D01*
X539922628Y-197327628D01*
X540422628Y-196041914D02*
X541922628Y-196041914D01*
X541351200Y-196041914D02*
X541422628Y-195899057D01*
X541422628Y-195613342D01*
X541351200Y-195470485D01*
X541279771Y-195399057D01*
X541136914Y-195327628D01*
X540708342Y-195327628D01*
X540565485Y-195399057D01*
X540494057Y-195470485D01*
X540422628Y-195613342D01*
X540422628Y-195899057D01*
X540494057Y-196041914D01*
X540422628Y-194470485D02*
X540494057Y-194613342D01*
X540565485Y-194684771D01*
X540708342Y-194756200D01*
X541136914Y-194756200D01*
X541279771Y-194684771D01*
X541351200Y-194613342D01*
X541422628Y-194470485D01*
X541422628Y-194256200D01*
X541351200Y-194113342D01*
X541279771Y-194041914D01*
X541136914Y-193970485D01*
X540708342Y-193970485D01*
X540565485Y-194041914D01*
X540494057Y-194113342D01*
X540422628Y-194256200D01*
X540422628Y-194470485D01*
X540422628Y-192684771D02*
X541208342Y-192684771D01*
X541351200Y-192756200D01*
X541422628Y-192899057D01*
X541422628Y-193184771D01*
X541351200Y-193327628D01*
X540494057Y-192684771D02*
X540422628Y-192827628D01*
X540422628Y-193184771D01*
X540494057Y-193327628D01*
X540636914Y-193399057D01*
X540779771Y-193399057D01*
X540922628Y-193327628D01*
X540994057Y-193184771D01*
X540994057Y-192827628D01*
X541065485Y-192684771D01*
X540422628Y-191970485D02*
X541422628Y-191970485D01*
X541136914Y-191970485D02*
X541279771Y-191899057D01*
X541351200Y-191827628D01*
X541422628Y-191684771D01*
X541422628Y-191541914D01*
X540422628Y-190399057D02*
X541922628Y-190399057D01*
X540494057Y-190399057D02*
X540422628Y-190541914D01*
X540422628Y-190827628D01*
X540494057Y-190970485D01*
X540565485Y-191041914D01*
X540708342Y-191113342D01*
X541136914Y-191113342D01*
X541279771Y-191041914D01*
X541351200Y-190970485D01*
X541422628Y-190827628D01*
X541422628Y-190541914D01*
X541351200Y-190399057D01*
X537872628Y-205899057D02*
X539372628Y-205899057D01*
X538301200Y-205399057D01*
X539372628Y-204899057D01*
X537872628Y-204899057D01*
X537872628Y-203541914D02*
X538658342Y-203541914D01*
X538801200Y-203613342D01*
X538872628Y-203756200D01*
X538872628Y-204041914D01*
X538801200Y-204184771D01*
X537944057Y-203541914D02*
X537872628Y-203684771D01*
X537872628Y-204041914D01*
X537944057Y-204184771D01*
X538086914Y-204256200D01*
X538229771Y-204256200D01*
X538372628Y-204184771D01*
X538444057Y-204041914D01*
X538444057Y-203684771D01*
X538515485Y-203541914D01*
X537872628Y-202827628D02*
X538872628Y-202827628D01*
X539372628Y-202827628D02*
X539301200Y-202899057D01*
X539229771Y-202827628D01*
X539301200Y-202756200D01*
X539372628Y-202827628D01*
X539229771Y-202827628D01*
X538872628Y-202113342D02*
X537872628Y-202113342D01*
X538729771Y-202113342D02*
X538801200Y-202041914D01*
X538872628Y-201899057D01*
X538872628Y-201684771D01*
X538801200Y-201541914D01*
X538658342Y-201470485D01*
X537872628Y-201470485D01*
X537872628Y-200756200D02*
X539372628Y-200756200D01*
X538801200Y-200756200D02*
X538872628Y-200613342D01*
X538872628Y-200327628D01*
X538801200Y-200184771D01*
X538729771Y-200113342D01*
X538586914Y-200041914D01*
X538158342Y-200041914D01*
X538015485Y-200113342D01*
X537944057Y-200184771D01*
X537872628Y-200327628D01*
X537872628Y-200613342D01*
X537944057Y-200756200D01*
X537872628Y-199184771D02*
X537944057Y-199327628D01*
X538015485Y-199399057D01*
X538158342Y-199470485D01*
X538586914Y-199470485D01*
X538729771Y-199399057D01*
X538801200Y-199327628D01*
X538872628Y-199184771D01*
X538872628Y-198970485D01*
X538801200Y-198827628D01*
X538729771Y-198756200D01*
X538586914Y-198684771D01*
X538158342Y-198684771D01*
X538015485Y-198756200D01*
X537944057Y-198827628D01*
X537872628Y-198970485D01*
X537872628Y-199184771D01*
X537872628Y-197399057D02*
X538658342Y-197399057D01*
X538801200Y-197470485D01*
X538872628Y-197613342D01*
X538872628Y-197899057D01*
X538801200Y-198041914D01*
X537944057Y-197399057D02*
X537872628Y-197541914D01*
X537872628Y-197899057D01*
X537944057Y-198041914D01*
X538086914Y-198113342D01*
X538229771Y-198113342D01*
X538372628Y-198041914D01*
X538444057Y-197899057D01*
X538444057Y-197541914D01*
X538515485Y-197399057D01*
X537872628Y-196684771D02*
X538872628Y-196684771D01*
X538586914Y-196684771D02*
X538729771Y-196613342D01*
X538801200Y-196541914D01*
X538872628Y-196399057D01*
X538872628Y-196256200D01*
X537872628Y-195113342D02*
X539372628Y-195113342D01*
X537944057Y-195113342D02*
X537872628Y-195256200D01*
X537872628Y-195541914D01*
X537944057Y-195684771D01*
X538015485Y-195756200D01*
X538158342Y-195827628D01*
X538586914Y-195827628D01*
X538729771Y-195756200D01*
X538801200Y-195684771D01*
X538872628Y-195541914D01*
X538872628Y-195256200D01*
X538801200Y-195113342D01*
X537872628Y-192399057D02*
X538586914Y-192899057D01*
X537872628Y-193256200D02*
X539372628Y-193256200D01*
X539372628Y-192684771D01*
X539301200Y-192541914D01*
X539229771Y-192470485D01*
X539086914Y-192399057D01*
X538872628Y-192399057D01*
X538729771Y-192470485D01*
X538658342Y-192541914D01*
X538586914Y-192684771D01*
X538586914Y-193256200D01*
X537944057Y-191184771D02*
X537872628Y-191327628D01*
X537872628Y-191613342D01*
X537944057Y-191756200D01*
X538086914Y-191827628D01*
X538658342Y-191827628D01*
X538801200Y-191756200D01*
X538872628Y-191613342D01*
X538872628Y-191327628D01*
X538801200Y-191184771D01*
X538658342Y-191113342D01*
X538515485Y-191113342D01*
X538372628Y-191827628D01*
X538872628Y-190613342D02*
X537872628Y-190256200D01*
X538872628Y-189899057D01*
X537872628Y-188541914D02*
X537872628Y-189399057D01*
X537872628Y-188970485D02*
X539372628Y-188970485D01*
X539158342Y-189113342D01*
X539015485Y-189256200D01*
X538944057Y-189399057D01*
X538015485Y-187899057D02*
X537944057Y-187827628D01*
X537872628Y-187899057D01*
X537944057Y-187970485D01*
X538015485Y-187899057D01*
X537872628Y-187899057D01*
X539372628Y-186899057D02*
X539372628Y-186756200D01*
X539301200Y-186613342D01*
X539229771Y-186541914D01*
X539086914Y-186470485D01*
X538801200Y-186399057D01*
X538444057Y-186399057D01*
X538158342Y-186470485D01*
X538015485Y-186541914D01*
X537944057Y-186613342D01*
X537872628Y-186756200D01*
X537872628Y-186899057D01*
X537944057Y-187041914D01*
X538015485Y-187113342D01*
X538158342Y-187184771D01*
X538444057Y-187256200D01*
X538801200Y-187256200D01*
X539086914Y-187184771D01*
X539229771Y-187113342D01*
X539301200Y-187041914D01*
X539372628Y-186899057D01*
D10*
X560909875Y-200675910D02*
G75*
G02*
X561213000Y-200660000I303125J-2879690D01*
G01*
X559792874Y-230323358D02*
G75*
G02*
X559028600Y-229666800I1470926J2485358D01*
G01*
X558532345Y-228799068D02*
G75*
G02*
X561263800Y-224942400I2731455J961068D01*
G01*
X561213000Y-206433320D02*
G75*
G02*
X560197000Y-200863200I0J2877720D01*
G01*
X561314600Y-178257200D02*
G75*
G02*
X561314600Y-172466000I0J2895600D01*
G01*
X558114200Y-229057200D02*
X558114200Y-226568000D01*
X548462200Y-229057200D02*
X558114200Y-229057200D01*
X538302200Y-229108000D02*
X547649400Y-229057200D01*
X527685000Y-229108000D02*
X537540200Y-229108000D01*
X527685000Y-226618800D02*
X527685000Y-229108000D01*
X558114200Y-226568000D02*
X527685000Y-226618800D01*
D11*
X560012695Y-222041980D02*
X560346028Y-221565790D01*
X560584123Y-222041980D02*
X560584123Y-221041980D01*
X560203171Y-221041980D01*
X560107933Y-221089600D01*
X560060314Y-221137219D01*
X560012695Y-221232457D01*
X560012695Y-221375314D01*
X560060314Y-221470552D01*
X560107933Y-221518171D01*
X560203171Y-221565790D01*
X560584123Y-221565790D01*
X559203171Y-221994361D02*
X559298409Y-222041980D01*
X559488885Y-222041980D01*
X559584123Y-221994361D01*
X559631742Y-221899123D01*
X559631742Y-221518171D01*
X559584123Y-221422933D01*
X559488885Y-221375314D01*
X559298409Y-221375314D01*
X559203171Y-221422933D01*
X559155552Y-221518171D01*
X559155552Y-221613409D01*
X559631742Y-221708647D01*
X558774600Y-221994361D02*
X558679361Y-222041980D01*
X558488885Y-222041980D01*
X558393647Y-221994361D01*
X558346028Y-221899123D01*
X558346028Y-221851504D01*
X558393647Y-221756266D01*
X558488885Y-221708647D01*
X558631742Y-221708647D01*
X558726980Y-221661028D01*
X558774600Y-221565790D01*
X558774600Y-221518171D01*
X558726980Y-221422933D01*
X558631742Y-221375314D01*
X558488885Y-221375314D01*
X558393647Y-221422933D01*
X557536504Y-221994361D02*
X557631742Y-222041980D01*
X557822219Y-222041980D01*
X557917457Y-221994361D01*
X557965076Y-221899123D01*
X557965076Y-221518171D01*
X557917457Y-221422933D01*
X557822219Y-221375314D01*
X557631742Y-221375314D01*
X557536504Y-221422933D01*
X557488885Y-221518171D01*
X557488885Y-221613409D01*
X557965076Y-221708647D01*
X557203171Y-221375314D02*
X556822219Y-221375314D01*
X557060314Y-221041980D02*
X557060314Y-221899123D01*
X557012695Y-221994361D01*
X556917457Y-222041980D01*
X556822219Y-222041980D01*
X560115838Y-209732571D02*
X559972980Y-209780190D01*
X559925361Y-209827809D01*
X559877742Y-209923047D01*
X559877742Y-210065904D01*
X559925361Y-210161142D01*
X559972980Y-210208761D01*
X560068219Y-210256380D01*
X560449171Y-210256380D01*
X560449171Y-209256380D01*
X560115838Y-209256380D01*
X560020600Y-209304000D01*
X559972980Y-209351619D01*
X559925361Y-209446857D01*
X559925361Y-209542095D01*
X559972980Y-209637333D01*
X560020600Y-209684952D01*
X560115838Y-209732571D01*
X560449171Y-209732571D01*
X559306314Y-210256380D02*
X559401552Y-210208761D01*
X559449171Y-210161142D01*
X559496790Y-210065904D01*
X559496790Y-209780190D01*
X559449171Y-209684952D01*
X559401552Y-209637333D01*
X559306314Y-209589714D01*
X559163457Y-209589714D01*
X559068219Y-209637333D01*
X559020600Y-209684952D01*
X558972980Y-209780190D01*
X558972980Y-210065904D01*
X559020600Y-210161142D01*
X559068219Y-210208761D01*
X559163457Y-210256380D01*
X559306314Y-210256380D01*
X558401552Y-210256380D02*
X558496790Y-210208761D01*
X558544409Y-210161142D01*
X558592028Y-210065904D01*
X558592028Y-209780190D01*
X558544409Y-209684952D01*
X558496790Y-209637333D01*
X558401552Y-209589714D01*
X558258695Y-209589714D01*
X558163457Y-209637333D01*
X558115838Y-209684952D01*
X558068219Y-209780190D01*
X558068219Y-210065904D01*
X558115838Y-210161142D01*
X558163457Y-210208761D01*
X558258695Y-210256380D01*
X558401552Y-210256380D01*
X557782504Y-209589714D02*
X557401552Y-209589714D01*
X557639647Y-209256380D02*
X557639647Y-210113523D01*
X557592028Y-210208761D01*
X557496790Y-210256380D01*
X557401552Y-210256380D01*
X556544409Y-210256380D02*
X557115838Y-210256380D01*
X556830123Y-210256380D02*
X556830123Y-209256380D01*
X556925361Y-209399238D01*
X557020600Y-209494476D01*
X557115838Y-209542095D01*
X560166638Y-214710971D02*
X560023780Y-214758590D01*
X559976161Y-214806209D01*
X559928542Y-214901447D01*
X559928542Y-215044304D01*
X559976161Y-215139542D01*
X560023780Y-215187161D01*
X560119019Y-215234780D01*
X560499971Y-215234780D01*
X560499971Y-214234780D01*
X560166638Y-214234780D01*
X560071400Y-214282400D01*
X560023780Y-214330019D01*
X559976161Y-214425257D01*
X559976161Y-214520495D01*
X560023780Y-214615733D01*
X560071400Y-214663352D01*
X560166638Y-214710971D01*
X560499971Y-214710971D01*
X559357114Y-215234780D02*
X559452352Y-215187161D01*
X559499971Y-215139542D01*
X559547590Y-215044304D01*
X559547590Y-214758590D01*
X559499971Y-214663352D01*
X559452352Y-214615733D01*
X559357114Y-214568114D01*
X559214257Y-214568114D01*
X559119019Y-214615733D01*
X559071400Y-214663352D01*
X559023780Y-214758590D01*
X559023780Y-215044304D01*
X559071400Y-215139542D01*
X559119019Y-215187161D01*
X559214257Y-215234780D01*
X559357114Y-215234780D01*
X558452352Y-215234780D02*
X558547590Y-215187161D01*
X558595209Y-215139542D01*
X558642828Y-215044304D01*
X558642828Y-214758590D01*
X558595209Y-214663352D01*
X558547590Y-214615733D01*
X558452352Y-214568114D01*
X558309495Y-214568114D01*
X558214257Y-214615733D01*
X558166638Y-214663352D01*
X558119019Y-214758590D01*
X558119019Y-215044304D01*
X558166638Y-215139542D01*
X558214257Y-215187161D01*
X558309495Y-215234780D01*
X558452352Y-215234780D01*
X557833304Y-214568114D02*
X557452352Y-214568114D01*
X557690447Y-214234780D02*
X557690447Y-215091923D01*
X557642828Y-215187161D01*
X557547590Y-215234780D01*
X557452352Y-215234780D01*
X556928542Y-214234780D02*
X556833304Y-214234780D01*
X556738066Y-214282400D01*
X556690447Y-214330019D01*
X556642828Y-214425257D01*
X556595209Y-214615733D01*
X556595209Y-214853828D01*
X556642828Y-215044304D01*
X556690447Y-215139542D01*
X556738066Y-215187161D01*
X556833304Y-215234780D01*
X556928542Y-215234780D01*
X557023780Y-215187161D01*
X557071400Y-215139542D01*
X557119019Y-215044304D01*
X557166638Y-214853828D01*
X557166638Y-214615733D01*
X557119019Y-214425257D01*
X557071400Y-214330019D01*
X557023780Y-214282400D01*
X556928542Y-214234780D01*
X559592219Y-229025295D02*
X560068409Y-229358628D01*
X559592219Y-229596723D02*
X560592219Y-229596723D01*
X560592219Y-229215771D01*
X560544600Y-229120533D01*
X560496980Y-229072914D01*
X560401742Y-229025295D01*
X560258885Y-229025295D01*
X560163647Y-229072914D01*
X560116028Y-229120533D01*
X560068409Y-229215771D01*
X560068409Y-229596723D01*
X559639838Y-228215771D02*
X559592219Y-228311009D01*
X559592219Y-228501485D01*
X559639838Y-228596723D01*
X559735076Y-228644342D01*
X560116028Y-228644342D01*
X560211266Y-228596723D01*
X560258885Y-228501485D01*
X560258885Y-228311009D01*
X560211266Y-228215771D01*
X560116028Y-228168152D01*
X560020790Y-228168152D01*
X559925552Y-228644342D01*
X559639838Y-227787200D02*
X559592219Y-227691961D01*
X559592219Y-227501485D01*
X559639838Y-227406247D01*
X559735076Y-227358628D01*
X559782695Y-227358628D01*
X559877933Y-227406247D01*
X559925552Y-227501485D01*
X559925552Y-227644342D01*
X559973171Y-227739580D01*
X560068409Y-227787200D01*
X560116028Y-227787200D01*
X560211266Y-227739580D01*
X560258885Y-227644342D01*
X560258885Y-227501485D01*
X560211266Y-227406247D01*
X559639838Y-226549104D02*
X559592219Y-226644342D01*
X559592219Y-226834819D01*
X559639838Y-226930057D01*
X559735076Y-226977676D01*
X560116028Y-226977676D01*
X560211266Y-226930057D01*
X560258885Y-226834819D01*
X560258885Y-226644342D01*
X560211266Y-226549104D01*
X560116028Y-226501485D01*
X560020790Y-226501485D01*
X559925552Y-226977676D01*
X560258885Y-226215771D02*
X560258885Y-225834819D01*
X560592219Y-226072914D02*
X559735076Y-226072914D01*
X559639838Y-226025295D01*
X559592219Y-225930057D01*
X559592219Y-225834819D01*
X559690638Y-205722266D02*
X559643019Y-205579409D01*
X559643019Y-205341314D01*
X559690638Y-205246076D01*
X559738257Y-205198457D01*
X559833495Y-205150838D01*
X559928733Y-205150838D01*
X560023971Y-205198457D01*
X560071590Y-205246076D01*
X560119209Y-205341314D01*
X560166828Y-205531790D01*
X560214447Y-205627028D01*
X560262066Y-205674647D01*
X560357304Y-205722266D01*
X560452542Y-205722266D01*
X560547780Y-205674647D01*
X560595400Y-205627028D01*
X560643019Y-205531790D01*
X560643019Y-205293695D01*
X560595400Y-205150838D01*
X560309685Y-204865123D02*
X560309685Y-204484171D01*
X560643019Y-204722266D02*
X559785876Y-204722266D01*
X559690638Y-204674647D01*
X559643019Y-204579409D01*
X559643019Y-204484171D01*
X559643019Y-203722266D02*
X560166828Y-203722266D01*
X560262066Y-203769885D01*
X560309685Y-203865123D01*
X560309685Y-204055600D01*
X560262066Y-204150838D01*
X559690638Y-203722266D02*
X559643019Y-203817504D01*
X559643019Y-204055600D01*
X559690638Y-204150838D01*
X559785876Y-204198457D01*
X559881114Y-204198457D01*
X559976352Y-204150838D01*
X560023971Y-204055600D01*
X560023971Y-203817504D01*
X560071590Y-203722266D01*
X560309685Y-203388933D02*
X560309685Y-203007980D01*
X560643019Y-203246076D02*
X559785876Y-203246076D01*
X559690638Y-203198457D01*
X559643019Y-203103219D01*
X559643019Y-203007980D01*
X560309685Y-202246076D02*
X559643019Y-202246076D01*
X560309685Y-202674647D02*
X559785876Y-202674647D01*
X559690638Y-202627028D01*
X559643019Y-202531790D01*
X559643019Y-202388933D01*
X559690638Y-202293695D01*
X559738257Y-202246076D01*
X559690638Y-201817504D02*
X559643019Y-201722266D01*
X559643019Y-201531790D01*
X559690638Y-201436552D01*
X559785876Y-201388933D01*
X559833495Y-201388933D01*
X559928733Y-201436552D01*
X559976352Y-201531790D01*
X559976352Y-201674647D01*
X560023971Y-201769885D01*
X560119209Y-201817504D01*
X560166828Y-201817504D01*
X560262066Y-201769885D01*
X560309685Y-201674647D01*
X560309685Y-201531790D01*
X560262066Y-201436552D01*
X559693819Y-177236190D02*
X560693819Y-177236190D01*
X560693819Y-176855238D01*
X560646200Y-176760000D01*
X560598580Y-176712380D01*
X560503342Y-176664761D01*
X560360485Y-176664761D01*
X560265247Y-176712380D01*
X560217628Y-176760000D01*
X560170009Y-176855238D01*
X560170009Y-177236190D01*
X559693819Y-176093333D02*
X559741438Y-176188571D01*
X559789057Y-176236190D01*
X559884295Y-176283809D01*
X560170009Y-176283809D01*
X560265247Y-176236190D01*
X560312866Y-176188571D01*
X560360485Y-176093333D01*
X560360485Y-175950476D01*
X560312866Y-175855238D01*
X560265247Y-175807619D01*
X560170009Y-175760000D01*
X559884295Y-175760000D01*
X559789057Y-175807619D01*
X559741438Y-175855238D01*
X559693819Y-175950476D01*
X559693819Y-176093333D01*
X560360485Y-175426666D02*
X559693819Y-175236190D01*
X560170009Y-175045714D01*
X559693819Y-174855238D01*
X560360485Y-174664761D01*
X559741438Y-173902857D02*
X559693819Y-173998095D01*
X559693819Y-174188571D01*
X559741438Y-174283809D01*
X559836676Y-174331428D01*
X560217628Y-174331428D01*
X560312866Y-174283809D01*
X560360485Y-174188571D01*
X560360485Y-173998095D01*
X560312866Y-173902857D01*
X560217628Y-173855238D01*
X560122390Y-173855238D01*
X560027152Y-174331428D01*
X559693819Y-173426666D02*
X560360485Y-173426666D01*
X560170009Y-173426666D02*
X560265247Y-173379047D01*
X560312866Y-173331428D01*
X560360485Y-173236190D01*
X560360485Y-173140952D01*
X559373019Y-185718152D02*
X558563495Y-185718152D01*
X558468257Y-185670533D01*
X558420638Y-185622914D01*
X558373019Y-185527676D01*
X558373019Y-185337200D01*
X558420638Y-185241961D01*
X558468257Y-185194342D01*
X558563495Y-185146723D01*
X559373019Y-185146723D01*
X558420638Y-184718152D02*
X558373019Y-184575295D01*
X558373019Y-184337200D01*
X558420638Y-184241961D01*
X558468257Y-184194342D01*
X558563495Y-184146723D01*
X558658733Y-184146723D01*
X558753971Y-184194342D01*
X558801590Y-184241961D01*
X558849209Y-184337200D01*
X558896828Y-184527676D01*
X558944447Y-184622914D01*
X558992066Y-184670533D01*
X559087304Y-184718152D01*
X559182542Y-184718152D01*
X559277780Y-184670533D01*
X559325400Y-184622914D01*
X559373019Y-184527676D01*
X559373019Y-184289580D01*
X559325400Y-184146723D01*
X558896828Y-183384819D02*
X558849209Y-183241961D01*
X558801590Y-183194342D01*
X558706352Y-183146723D01*
X558563495Y-183146723D01*
X558468257Y-183194342D01*
X558420638Y-183241961D01*
X558373019Y-183337200D01*
X558373019Y-183718152D01*
X559373019Y-183718152D01*
X559373019Y-183384819D01*
X559325400Y-183289580D01*
X559277780Y-183241961D01*
X559182542Y-183194342D01*
X559087304Y-183194342D01*
X558992066Y-183241961D01*
X558944447Y-183289580D01*
X558896828Y-183384819D01*
X558896828Y-183718152D01*
X558753971Y-182718152D02*
X558753971Y-181956247D01*
X558468257Y-180908628D02*
X558420638Y-180956247D01*
X558373019Y-181099104D01*
X558373019Y-181194342D01*
X558420638Y-181337200D01*
X558515876Y-181432438D01*
X558611114Y-181480057D01*
X558801590Y-181527676D01*
X558944447Y-181527676D01*
X559134923Y-181480057D01*
X559230161Y-181432438D01*
X559325400Y-181337200D01*
X559373019Y-181194342D01*
X559373019Y-181099104D01*
X559325400Y-180956247D01*
X559277780Y-180908628D01*
X536244592Y-222859977D02*
X536008890Y-222624275D01*
X535537486Y-222893649D02*
X535874203Y-223230366D01*
X536581310Y-222523260D01*
X536244592Y-222186542D01*
X535301783Y-222590603D02*
X535167096Y-222523260D01*
X534998738Y-222354901D01*
X534965066Y-222253886D01*
X534965066Y-222186542D01*
X534998738Y-222085527D01*
X535066081Y-222018183D01*
X535167096Y-221984512D01*
X535234440Y-221984512D01*
X535335455Y-222018183D01*
X535503814Y-222119199D01*
X535604829Y-222152870D01*
X535672173Y-222152870D01*
X535773188Y-222119199D01*
X535840531Y-222051855D01*
X535874203Y-221950840D01*
X535874203Y-221883496D01*
X535840531Y-221782481D01*
X535672173Y-221614122D01*
X535537486Y-221546779D01*
X534561005Y-221917168D02*
X535268112Y-221210061D01*
X534998738Y-220940687D01*
X534897722Y-220907016D01*
X534830379Y-220907016D01*
X534729364Y-220940687D01*
X534628348Y-221041703D01*
X534594677Y-221142718D01*
X534594677Y-221210061D01*
X534628348Y-221311077D01*
X534897722Y-221580451D01*
X533954913Y-221445764D02*
X533416165Y-220907016D01*
X533887570Y-219829520D02*
X533820226Y-219762176D01*
X533719211Y-219728504D01*
X533651868Y-219728504D01*
X533550852Y-219762176D01*
X533382494Y-219863191D01*
X533214135Y-220031550D01*
X533113120Y-220199909D01*
X533079448Y-220300924D01*
X533079448Y-220368268D01*
X533113120Y-220469283D01*
X533180463Y-220536626D01*
X533281478Y-220570298D01*
X533348822Y-220570298D01*
X533449837Y-220536626D01*
X533618196Y-220435611D01*
X533786555Y-220267252D01*
X533887570Y-220098894D01*
X533921242Y-219997878D01*
X533921242Y-219930535D01*
X533887570Y-219829520D01*
X536396992Y-220472377D02*
X536161290Y-220236675D01*
X535689886Y-220506049D02*
X536026603Y-220842766D01*
X536733710Y-220135660D01*
X536396992Y-219798942D01*
X535454183Y-220203003D02*
X535319496Y-220135660D01*
X535151138Y-219967301D01*
X535117466Y-219866286D01*
X535117466Y-219798942D01*
X535151138Y-219697927D01*
X535218481Y-219630583D01*
X535319496Y-219596912D01*
X535386840Y-219596912D01*
X535487855Y-219630583D01*
X535656214Y-219731599D01*
X535757229Y-219765270D01*
X535824573Y-219765270D01*
X535925588Y-219731599D01*
X535992931Y-219664255D01*
X536026603Y-219563240D01*
X536026603Y-219495896D01*
X535992931Y-219394881D01*
X535824573Y-219226522D01*
X535689886Y-219159179D01*
X534713405Y-219529568D02*
X535420512Y-218822461D01*
X535151138Y-218553087D01*
X535050122Y-218519416D01*
X534982779Y-218519416D01*
X534881764Y-218553087D01*
X534780748Y-218654103D01*
X534747077Y-218755118D01*
X534747077Y-218822461D01*
X534780748Y-218923477D01*
X535050122Y-219192851D01*
X534107313Y-219058164D02*
X533568565Y-218519416D01*
X534140985Y-217677622D02*
X534140985Y-217610278D01*
X534107313Y-217509263D01*
X533938955Y-217340904D01*
X533837939Y-217307233D01*
X533770596Y-217307233D01*
X533669581Y-217340904D01*
X533602237Y-217408248D01*
X533534894Y-217542935D01*
X533534894Y-218351057D01*
X533097161Y-217913324D01*
X527314610Y-223833656D02*
X528004881Y-223581118D01*
X527752343Y-224271389D01*
X527810428Y-220614904D02*
X528210428Y-220853000D01*
X527810428Y-221091095D01*
X527810428Y-216804904D02*
X528210428Y-217043000D01*
X527810428Y-217281095D01*
X527509533Y-225944904D02*
X527509533Y-225449666D01*
X527242866Y-225716333D01*
X527242866Y-225602047D01*
X527209533Y-225525857D01*
X527176200Y-225487761D01*
X527109533Y-225449666D01*
X526942866Y-225449666D01*
X526876200Y-225487761D01*
X526842866Y-225525857D01*
X526809533Y-225602047D01*
X526809533Y-225830619D01*
X526842866Y-225906809D01*
X526876200Y-225944904D01*
X527509533Y-225221095D02*
X526809533Y-224954428D01*
X527509533Y-224687761D01*
X527509533Y-224497285D02*
X527509533Y-224002047D01*
X527242866Y-224268714D01*
X527242866Y-224154428D01*
X527209533Y-224078238D01*
X527176200Y-224040142D01*
X527109533Y-224002047D01*
X526942866Y-224002047D01*
X526876200Y-224040142D01*
X526842866Y-224078238D01*
X526809533Y-224154428D01*
X526809533Y-224383000D01*
X526842866Y-224459190D01*
X526876200Y-224497285D01*
X527176200Y-223049666D02*
X527176200Y-222783000D01*
X526809533Y-222668714D02*
X526809533Y-223049666D01*
X527509533Y-223049666D01*
X527509533Y-222668714D01*
X526842866Y-222363952D02*
X526809533Y-222249666D01*
X526809533Y-222059190D01*
X526842866Y-221983000D01*
X526876200Y-221944904D01*
X526942866Y-221906809D01*
X527009533Y-221906809D01*
X527076200Y-221944904D01*
X527109533Y-221983000D01*
X527142866Y-222059190D01*
X527176200Y-222211571D01*
X527209533Y-222287761D01*
X527242866Y-222325857D01*
X527309533Y-222363952D01*
X527376200Y-222363952D01*
X527442866Y-222325857D01*
X527476200Y-222287761D01*
X527509533Y-222211571D01*
X527509533Y-222021095D01*
X527476200Y-221906809D01*
X526809533Y-221563952D02*
X527509533Y-221563952D01*
X527509533Y-221259190D01*
X527476200Y-221183000D01*
X527442866Y-221144904D01*
X527376200Y-221106809D01*
X527276200Y-221106809D01*
X527209533Y-221144904D01*
X527176200Y-221183000D01*
X527142866Y-221259190D01*
X527142866Y-221563952D01*
X526742866Y-220954428D02*
X526742866Y-220344904D01*
X526809533Y-219697285D02*
X527142866Y-219963952D01*
X526809533Y-220154428D02*
X527509533Y-220154428D01*
X527509533Y-219849666D01*
X527476200Y-219773476D01*
X527442866Y-219735380D01*
X527376200Y-219697285D01*
X527276200Y-219697285D01*
X527209533Y-219735380D01*
X527176200Y-219773476D01*
X527142866Y-219849666D01*
X527142866Y-220154428D01*
X526842866Y-219392523D02*
X526809533Y-219278238D01*
X526809533Y-219087761D01*
X526842866Y-219011571D01*
X526876200Y-218973476D01*
X526942866Y-218935380D01*
X527009533Y-218935380D01*
X527076200Y-218973476D01*
X527109533Y-219011571D01*
X527142866Y-219087761D01*
X527176200Y-219240142D01*
X527209533Y-219316333D01*
X527242866Y-219354428D01*
X527309533Y-219392523D01*
X527376200Y-219392523D01*
X527442866Y-219354428D01*
X527476200Y-219316333D01*
X527509533Y-219240142D01*
X527509533Y-219049666D01*
X527476200Y-218935380D01*
X527509533Y-218706809D02*
X527509533Y-218249666D01*
X526809533Y-218478238D02*
X527509533Y-218478238D01*
X527176200Y-217373476D02*
X527176200Y-217106809D01*
X526809533Y-216992523D02*
X526809533Y-217373476D01*
X527509533Y-217373476D01*
X527509533Y-216992523D01*
X526842866Y-216687761D02*
X526809533Y-216573476D01*
X526809533Y-216383000D01*
X526842866Y-216306809D01*
X526876200Y-216268714D01*
X526942866Y-216230619D01*
X527009533Y-216230619D01*
X527076200Y-216268714D01*
X527109533Y-216306809D01*
X527142866Y-216383000D01*
X527176200Y-216535380D01*
X527209533Y-216611571D01*
X527242866Y-216649666D01*
X527309533Y-216687761D01*
X527376200Y-216687761D01*
X527442866Y-216649666D01*
X527476200Y-216611571D01*
X527509533Y-216535380D01*
X527509533Y-216344904D01*
X527476200Y-216230619D01*
X526809533Y-215887761D02*
X527509533Y-215887761D01*
X527509533Y-215583000D01*
X527476200Y-215506809D01*
X527442866Y-215468714D01*
X527376200Y-215430619D01*
X527276200Y-215430619D01*
X527209533Y-215468714D01*
X527176200Y-215506809D01*
X527142866Y-215583000D01*
X527142866Y-215887761D01*
X526742866Y-215278238D02*
X526742866Y-214668714D01*
X527176200Y-214478238D02*
X527176200Y-214211571D01*
X526809533Y-214097285D02*
X526809533Y-214478238D01*
X527509533Y-214478238D01*
X527509533Y-214097285D01*
X526809533Y-213754428D02*
X527509533Y-213754428D01*
X526809533Y-213297285D01*
X527509533Y-213297285D01*
X534176219Y-224104104D02*
X534176219Y-223532676D01*
X533176219Y-223818390D02*
X534176219Y-223818390D01*
X534176219Y-223294580D02*
X533176219Y-222627914D01*
X534176219Y-222627914D02*
X533176219Y-223294580D01*
X528502619Y-212840866D02*
X528978809Y-213174200D01*
X528502619Y-213412295D02*
X529502619Y-213412295D01*
X529502619Y-213031342D01*
X529455000Y-212936104D01*
X529407380Y-212888485D01*
X529312142Y-212840866D01*
X529169285Y-212840866D01*
X529074047Y-212888485D01*
X529026428Y-212936104D01*
X528978809Y-213031342D01*
X528978809Y-213412295D01*
X529502619Y-212507533D02*
X528502619Y-211840866D01*
X529502619Y-211840866D02*
X528502619Y-212507533D01*
X531995000Y-212978904D02*
X532042619Y-213074142D01*
X532042619Y-213217000D01*
X531995000Y-213359857D01*
X531899761Y-213455095D01*
X531804523Y-213502714D01*
X531614047Y-213550333D01*
X531471190Y-213550333D01*
X531280714Y-213502714D01*
X531185476Y-213455095D01*
X531090238Y-213359857D01*
X531042619Y-213217000D01*
X531042619Y-213121761D01*
X531090238Y-212978904D01*
X531137857Y-212931285D01*
X531471190Y-212931285D01*
X531471190Y-213121761D01*
X531042619Y-212502714D02*
X532042619Y-212502714D01*
X531042619Y-211931285D01*
X532042619Y-211931285D01*
X531042619Y-211455095D02*
X532042619Y-211455095D01*
X532042619Y-211217000D01*
X531995000Y-211074142D01*
X531899761Y-210978904D01*
X531804523Y-210931285D01*
X531614047Y-210883666D01*
X531471190Y-210883666D01*
X531280714Y-210931285D01*
X531185476Y-210978904D01*
X531090238Y-211074142D01*
X531042619Y-211217000D01*
X531042619Y-211455095D01*
X549304356Y-176909250D02*
X549199974Y-176852008D01*
X549065287Y-176717321D01*
X549034982Y-176639876D01*
X549031615Y-176589369D01*
X549051818Y-176515291D01*
X549098959Y-176468150D01*
X549173036Y-176447947D01*
X549223544Y-176451314D01*
X549300989Y-176481619D01*
X549432309Y-176565798D01*
X549509754Y-176596103D01*
X549560262Y-176599470D01*
X549634339Y-176579267D01*
X549681480Y-176532127D01*
X549701683Y-176458049D01*
X549698316Y-176407541D01*
X549668011Y-176330096D01*
X549533324Y-176195409D01*
X549428942Y-176138167D01*
X548715101Y-176367135D02*
X549210075Y-175872160D01*
X549075388Y-175737473D01*
X548971006Y-175680231D01*
X548869991Y-175673497D01*
X548795913Y-175693700D01*
X548674695Y-175761043D01*
X548603984Y-175831754D01*
X548536640Y-175952972D01*
X548516437Y-176027050D01*
X548523172Y-176128066D01*
X548580414Y-176232448D01*
X548715101Y-176367135D01*
X548317774Y-175686966D02*
X548048400Y-175417592D01*
X548230227Y-175882262D02*
X548536640Y-175198725D01*
X547853104Y-175505138D01*
X547055688Y-176844981D02*
X546951305Y-176787739D01*
X546816618Y-176653052D01*
X546786314Y-176575607D01*
X546782946Y-176525100D01*
X546803149Y-176451022D01*
X546850290Y-176403882D01*
X546924368Y-176383678D01*
X546974875Y-176387046D01*
X547052320Y-176417350D01*
X547183640Y-176501530D01*
X547261085Y-176531834D01*
X547311593Y-176535201D01*
X547385671Y-176514998D01*
X547432811Y-176467858D01*
X547453014Y-176393780D01*
X547449647Y-176343272D01*
X547419343Y-176265827D01*
X547284656Y-176131140D01*
X547180273Y-176073898D01*
X546190324Y-175932477D02*
X546193691Y-175982985D01*
X546250933Y-176087367D01*
X546304808Y-176141242D01*
X546409190Y-176198484D01*
X546510205Y-176205218D01*
X546584283Y-176185015D01*
X546705501Y-176117672D01*
X546776212Y-176046961D01*
X546843556Y-175925743D01*
X546863759Y-175851665D01*
X546857024Y-175750650D01*
X546799782Y-175646267D01*
X546745907Y-175592392D01*
X546641525Y-175535150D01*
X546591017Y-175531783D01*
X545631373Y-175467807D02*
X545900747Y-175737181D01*
X546395721Y-175242206D01*
X544709230Y-176603714D02*
X544359043Y-176253528D01*
X544359043Y-176630652D01*
X544278231Y-176549840D01*
X544200786Y-176519535D01*
X544150278Y-176516168D01*
X544076201Y-176536371D01*
X543958349Y-176654222D01*
X543938146Y-176728300D01*
X543941514Y-176778807D01*
X543971818Y-176856252D01*
X544133443Y-177017877D01*
X544210888Y-177048181D01*
X544261395Y-177051549D01*
X544197419Y-176091904D02*
X543513882Y-176398317D01*
X543820295Y-175714780D01*
X543685608Y-175580093D02*
X543335422Y-175229907D01*
X543335422Y-175607030D01*
X543254610Y-175526218D01*
X543177165Y-175495914D01*
X543126657Y-175492547D01*
X543052579Y-175512750D01*
X542934728Y-175630601D01*
X542914525Y-175704679D01*
X542917892Y-175755186D01*
X542948197Y-175832631D01*
X543109821Y-175994256D01*
X543187266Y-176024560D01*
X543237774Y-176027927D01*
X544427533Y-165853471D02*
X544427533Y-166234423D01*
X545127533Y-166234423D01*
X544794200Y-165586804D02*
X544794200Y-165320138D01*
X544427533Y-165205852D02*
X544427533Y-165586804D01*
X545127533Y-165586804D01*
X545127533Y-165205852D01*
X544427533Y-164862995D02*
X545127533Y-164862995D01*
X545127533Y-164672519D01*
X545094200Y-164558233D01*
X545027533Y-164482042D01*
X544960866Y-164443947D01*
X544827533Y-164405852D01*
X544727533Y-164405852D01*
X544594200Y-164443947D01*
X544527533Y-164482042D01*
X544460866Y-164558233D01*
X544427533Y-164672519D01*
X544427533Y-164862995D01*
X543427533Y-166272519D02*
X543427533Y-165891566D01*
X543227533Y-166348709D02*
X543927533Y-166082042D01*
X543227533Y-165815376D01*
X543227533Y-165091566D02*
X543560866Y-165358233D01*
X543227533Y-165548709D02*
X543927533Y-165548709D01*
X543927533Y-165243947D01*
X543894200Y-165167757D01*
X543860866Y-165129661D01*
X543794200Y-165091566D01*
X543694200Y-165091566D01*
X543627533Y-165129661D01*
X543594200Y-165167757D01*
X543560866Y-165243947D01*
X543560866Y-165548709D01*
X549764028Y-165975466D02*
X549764028Y-165275466D01*
X550221171Y-165975466D01*
X550221171Y-165275466D01*
X551059266Y-165908800D02*
X551021171Y-165942133D01*
X550906885Y-165975466D01*
X550830695Y-165975466D01*
X550716409Y-165942133D01*
X550640219Y-165875466D01*
X550602123Y-165808800D01*
X550564028Y-165675466D01*
X550564028Y-165575466D01*
X550602123Y-165442133D01*
X550640219Y-165375466D01*
X550716409Y-165308800D01*
X550830695Y-165275466D01*
X550906885Y-165275466D01*
X551021171Y-165308800D01*
X551059266Y-165342133D01*
X548976714Y-168413866D02*
X548976714Y-167713866D01*
X549433857Y-168413866D01*
X549433857Y-167713866D01*
X550271952Y-168413866D02*
X550005285Y-168080533D01*
X549814809Y-168413866D02*
X549814809Y-167713866D01*
X550119571Y-167713866D01*
X550195761Y-167747200D01*
X550233857Y-167780533D01*
X550271952Y-167847200D01*
X550271952Y-167947200D01*
X550233857Y-168013866D01*
X550195761Y-168047200D01*
X550119571Y-168080533D01*
X549814809Y-168080533D01*
X550576714Y-168380533D02*
X550691000Y-168413866D01*
X550881476Y-168413866D01*
X550957666Y-168380533D01*
X550995761Y-168347200D01*
X551033857Y-168280533D01*
X551033857Y-168213866D01*
X550995761Y-168147200D01*
X550957666Y-168113866D01*
X550881476Y-168080533D01*
X550729095Y-168047200D01*
X550652904Y-168013866D01*
X550614809Y-167980533D01*
X550576714Y-167913866D01*
X550576714Y-167847200D01*
X550614809Y-167780533D01*
X550652904Y-167747200D01*
X550729095Y-167713866D01*
X550919571Y-167713866D01*
X551033857Y-167747200D01*
X551262428Y-167713866D02*
X551719571Y-167713866D01*
X551491000Y-168413866D02*
X551491000Y-167713866D01*
X549186238Y-163351333D02*
X549300523Y-163384666D01*
X549491000Y-163384666D01*
X549567190Y-163351333D01*
X549605285Y-163318000D01*
X549643380Y-163251333D01*
X549643380Y-163184666D01*
X549605285Y-163118000D01*
X549567190Y-163084666D01*
X549491000Y-163051333D01*
X549338619Y-163018000D01*
X549262428Y-162984666D01*
X549224333Y-162951333D01*
X549186238Y-162884666D01*
X549186238Y-162818000D01*
X549224333Y-162751333D01*
X549262428Y-162718000D01*
X549338619Y-162684666D01*
X549529095Y-162684666D01*
X549643380Y-162718000D01*
X549910047Y-162684666D02*
X550100523Y-163384666D01*
X550252904Y-162884666D01*
X550405285Y-163384666D01*
X550595761Y-162684666D01*
X551052904Y-162684666D02*
X551205285Y-162684666D01*
X551281476Y-162718000D01*
X551357666Y-162784666D01*
X551395761Y-162918000D01*
X551395761Y-163151333D01*
X551357666Y-163284666D01*
X551281476Y-163351333D01*
X551205285Y-163384666D01*
X551052904Y-163384666D01*
X550976714Y-163351333D01*
X550900523Y-163284666D01*
X550862428Y-163151333D01*
X550862428Y-162918000D01*
X550900523Y-162784666D01*
X550976714Y-162718000D01*
X551052904Y-162684666D01*
X548481476Y-160811333D02*
X548595761Y-160844666D01*
X548786238Y-160844666D01*
X548862428Y-160811333D01*
X548900523Y-160778000D01*
X548938619Y-160711333D01*
X548938619Y-160644666D01*
X548900523Y-160578000D01*
X548862428Y-160544666D01*
X548786238Y-160511333D01*
X548633857Y-160478000D01*
X548557666Y-160444666D01*
X548519571Y-160411333D01*
X548481476Y-160344666D01*
X548481476Y-160278000D01*
X548519571Y-160211333D01*
X548557666Y-160178000D01*
X548633857Y-160144666D01*
X548824333Y-160144666D01*
X548938619Y-160178000D01*
X549205285Y-160144666D02*
X549395761Y-160844666D01*
X549548142Y-160344666D01*
X549700523Y-160844666D01*
X549891000Y-160144666D01*
X550652904Y-160778000D02*
X550614809Y-160811333D01*
X550500523Y-160844666D01*
X550424333Y-160844666D01*
X550310047Y-160811333D01*
X550233857Y-160744666D01*
X550195761Y-160678000D01*
X550157666Y-160544666D01*
X550157666Y-160444666D01*
X550195761Y-160311333D01*
X550233857Y-160244666D01*
X550310047Y-160178000D01*
X550424333Y-160144666D01*
X550500523Y-160144666D01*
X550614809Y-160178000D01*
X550652904Y-160211333D01*
X551376714Y-160844666D02*
X550995761Y-160844666D01*
X550995761Y-160144666D01*
X551643380Y-160844666D02*
X551643380Y-160144666D01*
X552100523Y-160844666D02*
X551757666Y-160444666D01*
X552100523Y-160144666D02*
X551643380Y-160544666D01*
X548595761Y-158271333D02*
X548710047Y-158304666D01*
X548900523Y-158304666D01*
X548976714Y-158271333D01*
X549014809Y-158238000D01*
X549052904Y-158171333D01*
X549052904Y-158104666D01*
X549014809Y-158038000D01*
X548976714Y-158004666D01*
X548900523Y-157971333D01*
X548748142Y-157938000D01*
X548671952Y-157904666D01*
X548633857Y-157871333D01*
X548595761Y-157804666D01*
X548595761Y-157738000D01*
X548633857Y-157671333D01*
X548671952Y-157638000D01*
X548748142Y-157604666D01*
X548938619Y-157604666D01*
X549052904Y-157638000D01*
X549319571Y-157604666D02*
X549510047Y-158304666D01*
X549662428Y-157804666D01*
X549814809Y-158304666D01*
X550005285Y-157604666D01*
X550310047Y-158304666D02*
X550310047Y-157604666D01*
X550500523Y-157604666D01*
X550614809Y-157638000D01*
X550691000Y-157704666D01*
X550729095Y-157771333D01*
X550767190Y-157904666D01*
X550767190Y-158004666D01*
X550729095Y-158138000D01*
X550691000Y-158204666D01*
X550614809Y-158271333D01*
X550500523Y-158304666D01*
X550310047Y-158304666D01*
X551110047Y-158304666D02*
X551110047Y-157604666D01*
X551643380Y-157604666D02*
X551795761Y-157604666D01*
X551871952Y-157638000D01*
X551948142Y-157704666D01*
X551986238Y-157838000D01*
X551986238Y-158071333D01*
X551948142Y-158204666D01*
X551871952Y-158271333D01*
X551795761Y-158304666D01*
X551643380Y-158304666D01*
X551567190Y-158271333D01*
X551491000Y-158204666D01*
X551452904Y-158071333D01*
X551452904Y-157838000D01*
X551491000Y-157704666D01*
X551567190Y-157638000D01*
X551643380Y-157604666D01*
X544397828Y-170793533D02*
X544283542Y-170826866D01*
X544093066Y-170826866D01*
X544016876Y-170793533D01*
X543978780Y-170760200D01*
X543940685Y-170693533D01*
X543940685Y-170626866D01*
X543978780Y-170560200D01*
X544016876Y-170526866D01*
X544093066Y-170493533D01*
X544245447Y-170460200D01*
X544321638Y-170426866D01*
X544359733Y-170393533D01*
X544397828Y-170326866D01*
X544397828Y-170260200D01*
X544359733Y-170193533D01*
X544321638Y-170160200D01*
X544245447Y-170126866D01*
X544054971Y-170126866D01*
X543940685Y-170160200D01*
X543597828Y-170826866D02*
X543597828Y-170126866D01*
X543293066Y-170126866D01*
X543216876Y-170160200D01*
X543178780Y-170193533D01*
X543140685Y-170260200D01*
X543140685Y-170360200D01*
X543178780Y-170426866D01*
X543216876Y-170460200D01*
X543293066Y-170493533D01*
X543597828Y-170493533D01*
X542797828Y-170826866D02*
X542797828Y-170126866D01*
X541997828Y-170826866D02*
X542454971Y-170826866D01*
X542226400Y-170826866D02*
X542226400Y-170126866D01*
X542302590Y-170226866D01*
X542378780Y-170293533D01*
X542454971Y-170326866D01*
X541654971Y-170560200D02*
X541045447Y-170560200D01*
X540664495Y-170826866D02*
X540664495Y-170126866D01*
X540474019Y-170126866D01*
X540359733Y-170160200D01*
X540283542Y-170226866D01*
X540245447Y-170293533D01*
X540207352Y-170426866D01*
X540207352Y-170526866D01*
X540245447Y-170660200D01*
X540283542Y-170726866D01*
X540359733Y-170793533D01*
X540474019Y-170826866D01*
X540664495Y-170826866D01*
X539864495Y-170826866D02*
X539864495Y-170360200D01*
X539864495Y-170126866D02*
X539902590Y-170160200D01*
X539864495Y-170193533D01*
X539826400Y-170160200D01*
X539864495Y-170126866D01*
X539864495Y-170193533D01*
X539521638Y-170793533D02*
X539445447Y-170826866D01*
X539293066Y-170826866D01*
X539216876Y-170793533D01*
X539178780Y-170726866D01*
X539178780Y-170693533D01*
X539216876Y-170626866D01*
X539293066Y-170593533D01*
X539407352Y-170593533D01*
X539483542Y-170560200D01*
X539521638Y-170493533D01*
X539521638Y-170460200D01*
X539483542Y-170393533D01*
X539407352Y-170360200D01*
X539293066Y-170360200D01*
X539216876Y-170393533D01*
X538835923Y-170360200D02*
X538835923Y-171060200D01*
X538835923Y-170393533D02*
X538759733Y-170360200D01*
X538607352Y-170360200D01*
X538531161Y-170393533D01*
X538493066Y-170426866D01*
X538454971Y-170493533D01*
X538454971Y-170693533D01*
X538493066Y-170760200D01*
X538531161Y-170793533D01*
X538607352Y-170826866D01*
X538759733Y-170826866D01*
X538835923Y-170793533D01*
D10*
X545414200Y-166674800D02*
X542925000Y-166674800D01*
D11*
X538557838Y-169150990D02*
X538510219Y-169036704D01*
X538510219Y-168846228D01*
X538557838Y-168770038D01*
X538605457Y-168731942D01*
X538700695Y-168693847D01*
X538795933Y-168693847D01*
X538891171Y-168731942D01*
X538938790Y-168770038D01*
X538986409Y-168846228D01*
X539034028Y-168998609D01*
X539081647Y-169074800D01*
X539129266Y-169112895D01*
X539224504Y-169150990D01*
X539319742Y-169150990D01*
X539414980Y-169112895D01*
X539462600Y-169074800D01*
X539510219Y-168998609D01*
X539510219Y-168808133D01*
X539462600Y-168693847D01*
X538557838Y-168389085D02*
X538510219Y-168274800D01*
X538510219Y-168084323D01*
X538557838Y-168008133D01*
X538605457Y-167970038D01*
X538700695Y-167931942D01*
X538795933Y-167931942D01*
X538891171Y-167970038D01*
X538938790Y-168008133D01*
X538986409Y-168084323D01*
X539034028Y-168236704D01*
X539081647Y-168312895D01*
X539129266Y-168350990D01*
X539224504Y-168389085D01*
X539319742Y-168389085D01*
X539414980Y-168350990D01*
X539462600Y-168312895D01*
X539510219Y-168236704D01*
X539510219Y-168046228D01*
X539462600Y-167931942D01*
X538510219Y-167170038D02*
X538510219Y-167627180D01*
X538510219Y-167398609D02*
X539510219Y-167398609D01*
X539367361Y-167474800D01*
X539272123Y-167550990D01*
X539224504Y-167627180D01*
X538557838Y-166255752D02*
X538510219Y-166141466D01*
X538510219Y-165950990D01*
X538557838Y-165874800D01*
X538605457Y-165836704D01*
X538700695Y-165798609D01*
X538795933Y-165798609D01*
X538891171Y-165836704D01*
X538938790Y-165874800D01*
X538986409Y-165950990D01*
X539034028Y-166103371D01*
X539081647Y-166179561D01*
X539129266Y-166217657D01*
X539224504Y-166255752D01*
X539319742Y-166255752D01*
X539414980Y-166217657D01*
X539462600Y-166179561D01*
X539510219Y-166103371D01*
X539510219Y-165912895D01*
X539462600Y-165798609D01*
X538605457Y-164998609D02*
X538557838Y-165036704D01*
X538510219Y-165150990D01*
X538510219Y-165227180D01*
X538557838Y-165341466D01*
X538653076Y-165417657D01*
X538748314Y-165455752D01*
X538938790Y-165493847D01*
X539081647Y-165493847D01*
X539272123Y-165455752D01*
X539367361Y-165417657D01*
X539462600Y-165341466D01*
X539510219Y-165227180D01*
X539510219Y-165150990D01*
X539462600Y-165036704D01*
X539414980Y-164998609D01*
X538510219Y-164655752D02*
X539510219Y-164655752D01*
X538510219Y-164198609D02*
X539081647Y-164541466D01*
X539510219Y-164198609D02*
X538938790Y-164655752D01*
X541101019Y-169582723D02*
X542101019Y-169582723D01*
X541386733Y-169316057D01*
X542101019Y-169049390D01*
X541101019Y-169049390D01*
X541101019Y-168668438D02*
X542101019Y-168668438D01*
X541148638Y-168325580D02*
X541101019Y-168211295D01*
X541101019Y-168020819D01*
X541148638Y-167944628D01*
X541196257Y-167906533D01*
X541291495Y-167868438D01*
X541386733Y-167868438D01*
X541481971Y-167906533D01*
X541529590Y-167944628D01*
X541577209Y-168020819D01*
X541624828Y-168173200D01*
X541672447Y-168249390D01*
X541720066Y-168287485D01*
X541815304Y-168325580D01*
X541910542Y-168325580D01*
X542005780Y-168287485D01*
X542053400Y-168249390D01*
X542101019Y-168173200D01*
X542101019Y-167982723D01*
X542053400Y-167868438D01*
X542101019Y-167373200D02*
X542101019Y-167220819D01*
X542053400Y-167144628D01*
X541958161Y-167068438D01*
X541767685Y-167030342D01*
X541434352Y-167030342D01*
X541243876Y-167068438D01*
X541148638Y-167144628D01*
X541101019Y-167220819D01*
X541101019Y-167373200D01*
X541148638Y-167449390D01*
X541243876Y-167525580D01*
X541434352Y-167563676D01*
X541767685Y-167563676D01*
X541958161Y-167525580D01*
X542053400Y-167449390D01*
X542101019Y-167373200D01*
X541101019Y-166077961D02*
X542101019Y-166077961D01*
X541386733Y-165811295D01*
X542101019Y-165544628D01*
X541101019Y-165544628D01*
X542101019Y-165011295D02*
X542101019Y-164858914D01*
X542053400Y-164782723D01*
X541958161Y-164706533D01*
X541767685Y-164668438D01*
X541434352Y-164668438D01*
X541243876Y-164706533D01*
X541148638Y-164782723D01*
X541101019Y-164858914D01*
X541101019Y-165011295D01*
X541148638Y-165087485D01*
X541243876Y-165163676D01*
X541434352Y-165201771D01*
X541767685Y-165201771D01*
X541958161Y-165163676D01*
X542053400Y-165087485D01*
X542101019Y-165011295D01*
X541148638Y-164363676D02*
X541101019Y-164249390D01*
X541101019Y-164058914D01*
X541148638Y-163982723D01*
X541196257Y-163944628D01*
X541291495Y-163906533D01*
X541386733Y-163906533D01*
X541481971Y-163944628D01*
X541529590Y-163982723D01*
X541577209Y-164058914D01*
X541624828Y-164211295D01*
X541672447Y-164287485D01*
X541720066Y-164325580D01*
X541815304Y-164363676D01*
X541910542Y-164363676D01*
X542005780Y-164325580D01*
X542053400Y-164287485D01*
X542101019Y-164211295D01*
X542101019Y-164020819D01*
X542053400Y-163906533D01*
X541101019Y-163563676D02*
X542101019Y-163563676D01*
D10*
X542925000Y-157937200D02*
X542925000Y-166674800D01*
X545465000Y-157937200D02*
X545465000Y-169621200D01*
X537845000Y-157937200D02*
X537845000Y-169570400D01*
X535305000Y-157988000D02*
X535305000Y-164642800D01*
D11*
X530248828Y-161051904D02*
X530648828Y-161290000D01*
X530248828Y-161528095D01*
X527759628Y-159527904D02*
X528159628Y-159766000D01*
X527759628Y-160004095D01*
X527759628Y-162118704D02*
X528159628Y-162356800D01*
X527759628Y-162594895D01*
D10*
X527685000Y-163068000D02*
X529513800Y-163068000D01*
X532815800Y-163068000D02*
X530885400Y-163068000D01*
D11*
X534033457Y-170249790D02*
X533985838Y-170202171D01*
X533938219Y-170249790D01*
X533985838Y-170297409D01*
X534033457Y-170249790D01*
X533938219Y-170249790D01*
X534033457Y-169773600D02*
X533985838Y-169725980D01*
X533938219Y-169773600D01*
X533985838Y-169821219D01*
X534033457Y-169773600D01*
X533938219Y-169773600D01*
X534033457Y-169297409D02*
X533985838Y-169249790D01*
X533938219Y-169297409D01*
X533985838Y-169345028D01*
X534033457Y-169297409D01*
X533938219Y-169297409D01*
X535055819Y-172929428D02*
X536055819Y-172929428D01*
X536055819Y-172738952D01*
X536008200Y-172624666D01*
X535912961Y-172548476D01*
X535817723Y-172510380D01*
X535627247Y-172472285D01*
X535484390Y-172472285D01*
X535293914Y-172510380D01*
X535198676Y-172548476D01*
X535103438Y-172624666D01*
X535055819Y-172738952D01*
X535055819Y-172929428D01*
X535055819Y-171710380D02*
X535055819Y-172167523D01*
X535055819Y-171938952D02*
X536055819Y-171938952D01*
X535912961Y-172015142D01*
X535817723Y-172091333D01*
X535770104Y-172167523D01*
X535722485Y-171024666D02*
X535055819Y-171024666D01*
X536103438Y-171215142D02*
X535389152Y-171405619D01*
X535389152Y-170910380D01*
X533328619Y-167944780D02*
X533328619Y-168401923D01*
X533328619Y-168173352D02*
X534328619Y-168173352D01*
X534185761Y-168249542D01*
X534090523Y-168325733D01*
X534042904Y-168401923D01*
X533328619Y-167182876D02*
X533328619Y-167640019D01*
X533328619Y-167411447D02*
X534328619Y-167411447D01*
X534185761Y-167487638D01*
X534090523Y-167563828D01*
X534042904Y-167640019D01*
X533328619Y-172929428D02*
X534328619Y-172929428D01*
X534328619Y-172738952D01*
X534281000Y-172624666D01*
X534185761Y-172548476D01*
X534090523Y-172510380D01*
X533900047Y-172472285D01*
X533757190Y-172472285D01*
X533566714Y-172510380D01*
X533471476Y-172548476D01*
X533376238Y-172624666D01*
X533328619Y-172738952D01*
X533328619Y-172929428D01*
X533328619Y-171710380D02*
X533328619Y-172167523D01*
X533328619Y-171938952D02*
X534328619Y-171938952D01*
X534185761Y-172015142D01*
X534090523Y-172091333D01*
X534042904Y-172167523D01*
X534328619Y-170986571D02*
X534328619Y-171367523D01*
X533852428Y-171405619D01*
X533900047Y-171367523D01*
X533947666Y-171291333D01*
X533947666Y-171100857D01*
X533900047Y-171024666D01*
X533852428Y-170986571D01*
X533757190Y-170948476D01*
X533519095Y-170948476D01*
X533423857Y-170986571D01*
X533376238Y-171024666D01*
X533328619Y-171100857D01*
X533328619Y-171291333D01*
X533376238Y-171367523D01*
X533423857Y-171405619D01*
X534598619Y-169265580D02*
X534598619Y-169722723D01*
X534598619Y-169494152D02*
X535598619Y-169494152D01*
X535455761Y-169570342D01*
X535360523Y-169646533D01*
X535312904Y-169722723D01*
X535598619Y-168770342D02*
X535598619Y-168694152D01*
X535551000Y-168617961D01*
X535503380Y-168579866D01*
X535408142Y-168541771D01*
X535217666Y-168503676D01*
X534979571Y-168503676D01*
X534789095Y-168541771D01*
X534693857Y-168579866D01*
X534646238Y-168617961D01*
X534598619Y-168694152D01*
X534598619Y-168770342D01*
X534646238Y-168846533D01*
X534693857Y-168884628D01*
X534789095Y-168922723D01*
X534979571Y-168960819D01*
X535217666Y-168960819D01*
X535408142Y-168922723D01*
X535503380Y-168884628D01*
X535551000Y-168846533D01*
X535598619Y-168770342D01*
X533852428Y-165830209D02*
X533804809Y-165715923D01*
X533757190Y-165677828D01*
X533661952Y-165639733D01*
X533519095Y-165639733D01*
X533423857Y-165677828D01*
X533376238Y-165715923D01*
X533328619Y-165792114D01*
X533328619Y-166096876D01*
X534328619Y-166096876D01*
X534328619Y-165830209D01*
X534281000Y-165754019D01*
X534233380Y-165715923D01*
X534138142Y-165677828D01*
X534042904Y-165677828D01*
X533947666Y-165715923D01*
X533900047Y-165754019D01*
X533852428Y-165830209D01*
X533852428Y-166096876D01*
X533328619Y-164877828D02*
X533328619Y-165334971D01*
X533328619Y-165106400D02*
X534328619Y-165106400D01*
X534185761Y-165182590D01*
X534090523Y-165258780D01*
X534042904Y-165334971D01*
X535579628Y-167303409D02*
X535532009Y-167189123D01*
X535484390Y-167151028D01*
X535389152Y-167112933D01*
X535246295Y-167112933D01*
X535151057Y-167151028D01*
X535103438Y-167189123D01*
X535055819Y-167265314D01*
X535055819Y-167570076D01*
X536055819Y-167570076D01*
X536055819Y-167303409D01*
X536008200Y-167227219D01*
X535960580Y-167189123D01*
X535865342Y-167151028D01*
X535770104Y-167151028D01*
X535674866Y-167189123D01*
X535627247Y-167227219D01*
X535579628Y-167303409D01*
X535579628Y-167570076D01*
X536055819Y-166617695D02*
X536055819Y-166541504D01*
X536008200Y-166465314D01*
X535960580Y-166427219D01*
X535865342Y-166389123D01*
X535674866Y-166351028D01*
X535436771Y-166351028D01*
X535246295Y-166389123D01*
X535151057Y-166427219D01*
X535103438Y-166465314D01*
X535055819Y-166541504D01*
X535055819Y-166617695D01*
X535103438Y-166693885D01*
X535151057Y-166731980D01*
X535246295Y-166770076D01*
X535436771Y-166808171D01*
X535674866Y-166808171D01*
X535865342Y-166770076D01*
X535960580Y-166731980D01*
X536008200Y-166693885D01*
X536055819Y-166617695D01*
D10*
X532815800Y-165658800D02*
X536321000Y-169113200D01*
X527634200Y-165658800D02*
X532815800Y-165658800D01*
D11*
X531710066Y-158064171D02*
X531676733Y-157949885D01*
X531676733Y-157759409D01*
X531710066Y-157683219D01*
X531743400Y-157645123D01*
X531810066Y-157607028D01*
X531876733Y-157607028D01*
X531943400Y-157645123D01*
X531976733Y-157683219D01*
X532010066Y-157759409D01*
X532043400Y-157911790D01*
X532076733Y-157987980D01*
X532110066Y-158026076D01*
X532176733Y-158064171D01*
X532243400Y-158064171D01*
X532310066Y-158026076D01*
X532343400Y-157987980D01*
X532376733Y-157911790D01*
X532376733Y-157721314D01*
X532343400Y-157607028D01*
X530476733Y-157587980D02*
X530810066Y-157854647D01*
X530476733Y-158045123D02*
X531176733Y-158045123D01*
X531176733Y-157740361D01*
X531143400Y-157664171D01*
X531110066Y-157626076D01*
X531043400Y-157587980D01*
X530943400Y-157587980D01*
X530876733Y-157626076D01*
X530843400Y-157664171D01*
X530810066Y-157740361D01*
X530810066Y-158045123D01*
X526792066Y-160813580D02*
X526758733Y-160699295D01*
X526758733Y-160508819D01*
X526792066Y-160432628D01*
X526825400Y-160394533D01*
X526892066Y-160356438D01*
X526958733Y-160356438D01*
X527025400Y-160394533D01*
X527058733Y-160432628D01*
X527092066Y-160508819D01*
X527125400Y-160661200D01*
X527158733Y-160737390D01*
X527192066Y-160775485D01*
X527258733Y-160813580D01*
X527325400Y-160813580D01*
X527392066Y-160775485D01*
X527425400Y-160737390D01*
X527458733Y-160661200D01*
X527458733Y-160470723D01*
X527425400Y-160356438D01*
X526825400Y-159556438D02*
X526792066Y-159594533D01*
X526758733Y-159708819D01*
X526758733Y-159785009D01*
X526792066Y-159899295D01*
X526858733Y-159975485D01*
X526925400Y-160013580D01*
X527058733Y-160051676D01*
X527158733Y-160051676D01*
X527292066Y-160013580D01*
X527358733Y-159975485D01*
X527425400Y-159899295D01*
X527458733Y-159785009D01*
X527458733Y-159708819D01*
X527425400Y-159594533D01*
X527392066Y-159556438D01*
X526758733Y-158832628D02*
X526758733Y-159213580D01*
X527458733Y-159213580D01*
X526758733Y-158565961D02*
X527458733Y-158565961D01*
X526758733Y-158108819D02*
X527158733Y-158451676D01*
X527458733Y-158108819D02*
X527058733Y-158565961D01*
X526792066Y-165595047D02*
X526758733Y-165480761D01*
X526758733Y-165290285D01*
X526792066Y-165214095D01*
X526825400Y-165176000D01*
X526892066Y-165137904D01*
X526958733Y-165137904D01*
X527025400Y-165176000D01*
X527058733Y-165214095D01*
X527092066Y-165290285D01*
X527125400Y-165442666D01*
X527158733Y-165518857D01*
X527192066Y-165556952D01*
X527258733Y-165595047D01*
X527325400Y-165595047D01*
X527392066Y-165556952D01*
X527425400Y-165518857D01*
X527458733Y-165442666D01*
X527458733Y-165252190D01*
X527425400Y-165137904D01*
X526758733Y-164414095D02*
X526758733Y-164795047D01*
X527458733Y-164795047D01*
X526958733Y-164185523D02*
X526958733Y-163804571D01*
X526758733Y-164261714D02*
X527458733Y-163995047D01*
X526758733Y-163728380D01*
X527458733Y-163576000D02*
X527458733Y-163118857D01*
X526758733Y-163347428D02*
X527458733Y-163347428D01*
X526825400Y-162395047D02*
X526792066Y-162433142D01*
X526758733Y-162547428D01*
X526758733Y-162623619D01*
X526792066Y-162737904D01*
X526858733Y-162814095D01*
X526925400Y-162852190D01*
X527058733Y-162890285D01*
X527158733Y-162890285D01*
X527292066Y-162852190D01*
X527358733Y-162814095D01*
X527425400Y-162737904D01*
X527458733Y-162623619D01*
X527458733Y-162547428D01*
X527425400Y-162433142D01*
X527392066Y-162395047D01*
X526758733Y-162052190D02*
X527458733Y-162052190D01*
X527125400Y-162052190D02*
X527125400Y-161595047D01*
X526758733Y-161595047D02*
X527458733Y-161595047D01*
X529890866Y-164941047D02*
X529857533Y-164826761D01*
X529857533Y-164636285D01*
X529890866Y-164560095D01*
X529924200Y-164522000D01*
X529990866Y-164483904D01*
X530057533Y-164483904D01*
X530124200Y-164522000D01*
X530157533Y-164560095D01*
X530190866Y-164636285D01*
X530224200Y-164788666D01*
X530257533Y-164864857D01*
X530290866Y-164902952D01*
X530357533Y-164941047D01*
X530424200Y-164941047D01*
X530490866Y-164902952D01*
X530524200Y-164864857D01*
X530557533Y-164788666D01*
X530557533Y-164598190D01*
X530524200Y-164483904D01*
X529857533Y-164141047D02*
X530557533Y-164141047D01*
X530557533Y-163950571D01*
X530524200Y-163836285D01*
X530457533Y-163760095D01*
X530390866Y-163722000D01*
X530257533Y-163683904D01*
X530157533Y-163683904D01*
X530024200Y-163722000D01*
X529957533Y-163760095D01*
X529890866Y-163836285D01*
X529857533Y-163950571D01*
X529857533Y-164141047D01*
X530057533Y-163379142D02*
X530057533Y-162998190D01*
X529857533Y-163455333D02*
X530557533Y-163188666D01*
X529857533Y-162922000D01*
X530557533Y-162769619D02*
X530557533Y-162312476D01*
X529857533Y-162541047D02*
X530557533Y-162541047D01*
X530057533Y-162083904D02*
X530057533Y-161702952D01*
X529857533Y-162160095D02*
X530557533Y-161893428D01*
X529857533Y-161626761D01*
X537125800Y-164998323D02*
X537173419Y-165074514D01*
X537173419Y-165188800D01*
X537125800Y-165303085D01*
X537030561Y-165379276D01*
X536935323Y-165417371D01*
X536744847Y-165455466D01*
X536601990Y-165455466D01*
X536411514Y-165417371D01*
X536316276Y-165379276D01*
X536221038Y-165303085D01*
X536173419Y-165188800D01*
X536173419Y-165112609D01*
X536221038Y-164998323D01*
X536268657Y-164960228D01*
X536601990Y-164960228D01*
X536601990Y-165112609D01*
X536173419Y-164617371D02*
X537173419Y-164617371D01*
X536173419Y-164160228D01*
X537173419Y-164160228D01*
X536173419Y-163779276D02*
X537173419Y-163779276D01*
X537173419Y-163588800D01*
X537125800Y-163474514D01*
X537030561Y-163398323D01*
X536935323Y-163360228D01*
X536744847Y-163322133D01*
X536601990Y-163322133D01*
X536411514Y-163360228D01*
X536316276Y-163398323D01*
X536221038Y-163474514D01*
X536173419Y-163588800D01*
X536173419Y-163779276D01*
X543691819Y-169119447D02*
X544168009Y-169386114D01*
X543691819Y-169576590D02*
X544691819Y-169576590D01*
X544691819Y-169271828D01*
X544644200Y-169195638D01*
X544596580Y-169157542D01*
X544501342Y-169119447D01*
X544358485Y-169119447D01*
X544263247Y-169157542D01*
X544215628Y-169195638D01*
X544168009Y-169271828D01*
X544168009Y-169576590D01*
X543739438Y-168814685D02*
X543691819Y-168700400D01*
X543691819Y-168509923D01*
X543739438Y-168433733D01*
X543787057Y-168395638D01*
X543882295Y-168357542D01*
X543977533Y-168357542D01*
X544072771Y-168395638D01*
X544120390Y-168433733D01*
X544168009Y-168509923D01*
X544215628Y-168662304D01*
X544263247Y-168738495D01*
X544310866Y-168776590D01*
X544406104Y-168814685D01*
X544501342Y-168814685D01*
X544596580Y-168776590D01*
X544644200Y-168738495D01*
X544691819Y-168662304D01*
X544691819Y-168471828D01*
X544644200Y-168357542D01*
X544691819Y-168128971D02*
X544691819Y-167671828D01*
X543691819Y-167900400D02*
X544691819Y-167900400D01*
X543691819Y-166986114D02*
X543691819Y-167443257D01*
X543691819Y-167214685D02*
X544691819Y-167214685D01*
X544548961Y-167290876D01*
X544453723Y-167367066D01*
X544406104Y-167443257D01*
X547282619Y-168655657D02*
X547282619Y-168160419D01*
X546901666Y-168427085D01*
X546901666Y-168312800D01*
X546854047Y-168236609D01*
X546806428Y-168198514D01*
X546711190Y-168160419D01*
X546473095Y-168160419D01*
X546377857Y-168198514D01*
X546330238Y-168236609D01*
X546282619Y-168312800D01*
X546282619Y-168541371D01*
X546330238Y-168617561D01*
X546377857Y-168655657D01*
X547282619Y-167931847D02*
X546282619Y-167665180D01*
X547282619Y-167398514D01*
X547282619Y-167208038D02*
X547282619Y-166712800D01*
X546901666Y-166979466D01*
X546901666Y-166865180D01*
X546854047Y-166788990D01*
X546806428Y-166750895D01*
X546711190Y-166712800D01*
X546473095Y-166712800D01*
X546377857Y-166750895D01*
X546330238Y-166788990D01*
X546282619Y-166865180D01*
X546282619Y-167093752D01*
X546330238Y-167169942D01*
X546377857Y-167208038D01*
X546330238Y-165798514D02*
X546282619Y-165684228D01*
X546282619Y-165493752D01*
X546330238Y-165417561D01*
X546377857Y-165379466D01*
X546473095Y-165341371D01*
X546568333Y-165341371D01*
X546663571Y-165379466D01*
X546711190Y-165417561D01*
X546758809Y-165493752D01*
X546806428Y-165646133D01*
X546854047Y-165722323D01*
X546901666Y-165760419D01*
X546996904Y-165798514D01*
X547092142Y-165798514D01*
X547187380Y-165760419D01*
X547235000Y-165722323D01*
X547282619Y-165646133D01*
X547282619Y-165455657D01*
X547235000Y-165341371D01*
X546330238Y-165036609D02*
X546282619Y-164922323D01*
X546282619Y-164731847D01*
X546330238Y-164655657D01*
X546377857Y-164617561D01*
X546473095Y-164579466D01*
X546568333Y-164579466D01*
X546663571Y-164617561D01*
X546711190Y-164655657D01*
X546758809Y-164731847D01*
X546806428Y-164884228D01*
X546854047Y-164960419D01*
X546901666Y-164998514D01*
X546996904Y-165036609D01*
X547092142Y-165036609D01*
X547187380Y-164998514D01*
X547235000Y-164960419D01*
X547282619Y-164884228D01*
X547282619Y-164693752D01*
X547235000Y-164579466D01*
X547282619Y-164312800D02*
X547282619Y-163817561D01*
X546901666Y-164084228D01*
X546901666Y-163969942D01*
X546854047Y-163893752D01*
X546806428Y-163855657D01*
X546711190Y-163817561D01*
X546473095Y-163817561D01*
X546377857Y-163855657D01*
X546330238Y-163893752D01*
X546282619Y-163969942D01*
X546282619Y-164198514D01*
X546330238Y-164274704D01*
X546377857Y-164312800D01*
D10*
X527634200Y-173228000D02*
X536321000Y-173228000D01*
X532825000Y-208848000D02*
X536317500Y-208848000D01*
X527634200Y-175818800D02*
X536321000Y-175818800D01*
X527634200Y-178257200D02*
X536270200Y-178257200D01*
X527634200Y-180848000D02*
X536321000Y-180848000D01*
X532828500Y-183388000D02*
X536321000Y-183388000D01*
D11*
X538341073Y-176356307D02*
X538836048Y-175861333D01*
X538546471Y-175666036D02*
X538543104Y-175615529D01*
X538512799Y-175538084D01*
X538378112Y-175403397D01*
X538300667Y-175373092D01*
X538250159Y-175369725D01*
X538176082Y-175389928D01*
X538128941Y-175437069D01*
X538085168Y-175534717D01*
X538125574Y-176140808D01*
X537775388Y-175790622D01*
X537256843Y-175177796D02*
X537260210Y-175228304D01*
X537317452Y-175332686D01*
X537371327Y-175386561D01*
X537475709Y-175443803D01*
X537576724Y-175450537D01*
X537650802Y-175430334D01*
X537772020Y-175362991D01*
X537842731Y-175292280D01*
X537910075Y-175171062D01*
X537930278Y-175096984D01*
X537923543Y-174995969D01*
X537866301Y-174891586D01*
X537812427Y-174837711D01*
X537708044Y-174780469D01*
X537657537Y-174777102D01*
X537442037Y-174561603D02*
X537438670Y-174511095D01*
X537408366Y-174433650D01*
X537273679Y-174298963D01*
X537196234Y-174268659D01*
X537145726Y-174265292D01*
X537071648Y-174285495D01*
X537024508Y-174332635D01*
X536980734Y-174430283D01*
X537021140Y-175036375D01*
X536670954Y-174686189D01*
X539287834Y-179005519D02*
X538887140Y-179406213D01*
X538813062Y-179426416D01*
X538762555Y-179423049D01*
X538685110Y-179392744D01*
X538577360Y-179284994D01*
X538547056Y-179207549D01*
X538543688Y-179157042D01*
X538563891Y-179082964D01*
X538964585Y-178682270D01*
X538368595Y-178793387D02*
X538099221Y-178524013D01*
X538281049Y-178988683D02*
X538587462Y-178305146D01*
X537903925Y-178611559D01*
X537392114Y-178099749D02*
X537816379Y-178052608D01*
X537715363Y-178422998D02*
X538210338Y-177928023D01*
X537994839Y-177712524D01*
X537917394Y-177682219D01*
X537866886Y-177678852D01*
X537792808Y-177699055D01*
X537722098Y-177769766D01*
X537701895Y-177843843D01*
X537705262Y-177894351D01*
X537735566Y-177971796D01*
X537951066Y-178187295D01*
X537725465Y-177443150D02*
X537402216Y-177119901D01*
X537068866Y-177776500D02*
X537563840Y-177281525D01*
X536422368Y-177130002D02*
X536745617Y-177453251D01*
X536583992Y-177291627D02*
X537078967Y-176796652D01*
X537062131Y-176921237D01*
X537068866Y-177022253D01*
X537099170Y-177099698D01*
X538315673Y-181588707D02*
X538810648Y-181093733D01*
X538521071Y-180898436D02*
X538517704Y-180847929D01*
X538487399Y-180770484D01*
X538352712Y-180635797D01*
X538275267Y-180605492D01*
X538224759Y-180602125D01*
X538150682Y-180622328D01*
X538103541Y-180669469D01*
X538059768Y-180767117D01*
X538100174Y-181373208D01*
X537749988Y-181023022D01*
X537231443Y-180410196D02*
X537234810Y-180460704D01*
X537292052Y-180565086D01*
X537345927Y-180618961D01*
X537450309Y-180676203D01*
X537551324Y-180682937D01*
X537625402Y-180662734D01*
X537746620Y-180595391D01*
X537817331Y-180524680D01*
X537884675Y-180403462D01*
X537904878Y-180329384D01*
X537898143Y-180228369D01*
X537840901Y-180123986D01*
X537787027Y-180070111D01*
X537682644Y-180012869D01*
X537632137Y-180009502D01*
X537490715Y-179773800D02*
X537140529Y-179423614D01*
X537140529Y-179800737D01*
X537059717Y-179719925D01*
X536982272Y-179689621D01*
X536931764Y-179686253D01*
X536857686Y-179706456D01*
X536739835Y-179824308D01*
X536719632Y-179898385D01*
X536722999Y-179948893D01*
X536753304Y-180026338D01*
X536914928Y-180187963D01*
X536992373Y-180218267D01*
X537042881Y-180221634D01*
X539440234Y-184034719D02*
X539039540Y-184435413D01*
X538965462Y-184455616D01*
X538914955Y-184452249D01*
X538837510Y-184421944D01*
X538729760Y-184314194D01*
X538699456Y-184236749D01*
X538696088Y-184186242D01*
X538716291Y-184112164D01*
X539116985Y-183711470D01*
X538520995Y-183822587D02*
X538251621Y-183553213D01*
X538433449Y-184017883D02*
X538739862Y-183334346D01*
X538056325Y-183640759D01*
X537544514Y-183128949D02*
X537968779Y-183081808D01*
X537867763Y-183452198D02*
X538362738Y-182957223D01*
X538147239Y-182741724D01*
X538069794Y-182711419D01*
X538019286Y-182708052D01*
X537945208Y-182728255D01*
X537874498Y-182798966D01*
X537854295Y-182873043D01*
X537857662Y-182923551D01*
X537887966Y-183000996D01*
X538103466Y-183216495D01*
X537877865Y-182472350D02*
X537554616Y-182149101D01*
X537221266Y-182805700D02*
X537716240Y-182310725D01*
X537123618Y-181718102D02*
X537231367Y-181825852D01*
X537261672Y-181903297D01*
X537265039Y-181953805D01*
X537248203Y-182078390D01*
X537180860Y-182199608D01*
X536992298Y-182388170D01*
X536918220Y-182408373D01*
X536867712Y-182405006D01*
X536790267Y-182374702D01*
X536682518Y-182266952D01*
X536652213Y-182189507D01*
X536648846Y-182138999D01*
X536669049Y-182064921D01*
X536786900Y-181947070D01*
X536860978Y-181926867D01*
X536911486Y-181930234D01*
X536988931Y-181960539D01*
X537096680Y-182068289D01*
X537126985Y-182145734D01*
X537130352Y-182196241D01*
X537110149Y-182270319D01*
X535090238Y-175513880D02*
X535042619Y-175399595D01*
X535042619Y-175209119D01*
X535090238Y-175132928D01*
X535137857Y-175094833D01*
X535233095Y-175056738D01*
X535328333Y-175056738D01*
X535423571Y-175094833D01*
X535471190Y-175132928D01*
X535518809Y-175209119D01*
X535566428Y-175361500D01*
X535614047Y-175437690D01*
X535661666Y-175475785D01*
X535756904Y-175513880D01*
X535852142Y-175513880D01*
X535947380Y-175475785D01*
X535995000Y-175437690D01*
X536042619Y-175361500D01*
X536042619Y-175171023D01*
X535995000Y-175056738D01*
X535137857Y-174256738D02*
X535090238Y-174294833D01*
X535042619Y-174409119D01*
X535042619Y-174485309D01*
X535090238Y-174599595D01*
X535185476Y-174675785D01*
X535280714Y-174713880D01*
X535471190Y-174751976D01*
X535614047Y-174751976D01*
X535804523Y-174713880D01*
X535899761Y-174675785D01*
X535995000Y-174599595D01*
X536042619Y-174485309D01*
X536042619Y-174409119D01*
X535995000Y-174294833D01*
X535947380Y-174256738D01*
X535042619Y-173532928D02*
X535042619Y-173913880D01*
X536042619Y-173913880D01*
X533440238Y-175532928D02*
X533392619Y-175418642D01*
X533392619Y-175228166D01*
X533440238Y-175151976D01*
X533487857Y-175113880D01*
X533583095Y-175075785D01*
X533678333Y-175075785D01*
X533773571Y-175113880D01*
X533821190Y-175151976D01*
X533868809Y-175228166D01*
X533916428Y-175380547D01*
X533964047Y-175456738D01*
X534011666Y-175494833D01*
X534106904Y-175532928D01*
X534202142Y-175532928D01*
X534297380Y-175494833D01*
X534345000Y-175456738D01*
X534392619Y-175380547D01*
X534392619Y-175190071D01*
X534345000Y-175075785D01*
X533392619Y-174732928D02*
X534392619Y-174732928D01*
X534392619Y-174542452D01*
X534345000Y-174428166D01*
X534249761Y-174351976D01*
X534154523Y-174313880D01*
X533964047Y-174275785D01*
X533821190Y-174275785D01*
X533630714Y-174313880D01*
X533535476Y-174351976D01*
X533440238Y-174428166D01*
X533392619Y-174542452D01*
X533392619Y-174732928D01*
X533678333Y-173971023D02*
X533678333Y-173590071D01*
X533392619Y-174047214D02*
X534392619Y-173780547D01*
X533392619Y-173513880D01*
X535026738Y-180593880D02*
X534979119Y-180479595D01*
X534979119Y-180289119D01*
X535026738Y-180212928D01*
X535074357Y-180174833D01*
X535169595Y-180136738D01*
X535264833Y-180136738D01*
X535360071Y-180174833D01*
X535407690Y-180212928D01*
X535455309Y-180289119D01*
X535502928Y-180441500D01*
X535550547Y-180517690D01*
X535598166Y-180555785D01*
X535693404Y-180593880D01*
X535788642Y-180593880D01*
X535883880Y-180555785D01*
X535931500Y-180517690D01*
X535979119Y-180441500D01*
X535979119Y-180251023D01*
X535931500Y-180136738D01*
X535074357Y-179336738D02*
X535026738Y-179374833D01*
X534979119Y-179489119D01*
X534979119Y-179565309D01*
X535026738Y-179679595D01*
X535121976Y-179755785D01*
X535217214Y-179793880D01*
X535407690Y-179831976D01*
X535550547Y-179831976D01*
X535741023Y-179793880D01*
X535836261Y-179755785D01*
X535931500Y-179679595D01*
X535979119Y-179565309D01*
X535979119Y-179489119D01*
X535931500Y-179374833D01*
X535883880Y-179336738D01*
X534979119Y-178612928D02*
X534979119Y-178993880D01*
X535979119Y-178993880D01*
X533376738Y-180612928D02*
X533329119Y-180498642D01*
X533329119Y-180308166D01*
X533376738Y-180231976D01*
X533424357Y-180193880D01*
X533519595Y-180155785D01*
X533614833Y-180155785D01*
X533710071Y-180193880D01*
X533757690Y-180231976D01*
X533805309Y-180308166D01*
X533852928Y-180460547D01*
X533900547Y-180536738D01*
X533948166Y-180574833D01*
X534043404Y-180612928D01*
X534138642Y-180612928D01*
X534233880Y-180574833D01*
X534281500Y-180536738D01*
X534329119Y-180460547D01*
X534329119Y-180270071D01*
X534281500Y-180155785D01*
X533329119Y-179812928D02*
X534329119Y-179812928D01*
X534329119Y-179622452D01*
X534281500Y-179508166D01*
X534186261Y-179431976D01*
X534091023Y-179393880D01*
X533900547Y-179355785D01*
X533757690Y-179355785D01*
X533567214Y-179393880D01*
X533471976Y-179431976D01*
X533376738Y-179508166D01*
X533329119Y-179622452D01*
X533329119Y-179812928D01*
X533614833Y-179051023D02*
X533614833Y-178670071D01*
X533329119Y-179127214D02*
X534329119Y-178860547D01*
X533329119Y-178593880D01*
X534979119Y-177268166D02*
X535455309Y-177601500D01*
X534979119Y-177839595D02*
X535979119Y-177839595D01*
X535979119Y-177458642D01*
X535931500Y-177363404D01*
X535883880Y-177315785D01*
X535788642Y-177268166D01*
X535645785Y-177268166D01*
X535550547Y-177315785D01*
X535502928Y-177363404D01*
X535455309Y-177458642D01*
X535455309Y-177839595D01*
X535979119Y-176934833D02*
X534979119Y-176268166D01*
X535979119Y-176268166D02*
X534979119Y-176934833D01*
X534329119Y-177863404D02*
X534329119Y-177291976D01*
X533329119Y-177577690D02*
X534329119Y-177577690D01*
X534329119Y-177053880D02*
X533329119Y-176387214D01*
X534329119Y-176387214D02*
X533329119Y-177053880D01*
X534979119Y-182411666D02*
X535455309Y-182745000D01*
X534979119Y-182983095D02*
X535979119Y-182983095D01*
X535979119Y-182602142D01*
X535931500Y-182506904D01*
X535883880Y-182459285D01*
X535788642Y-182411666D01*
X535645785Y-182411666D01*
X535550547Y-182459285D01*
X535502928Y-182506904D01*
X535455309Y-182602142D01*
X535455309Y-182983095D01*
X535979119Y-182078333D02*
X534979119Y-181411666D01*
X535979119Y-181411666D02*
X534979119Y-182078333D01*
X534329119Y-183006904D02*
X534329119Y-182435476D01*
X533329119Y-182721190D02*
X534329119Y-182721190D01*
X534329119Y-182197380D02*
X533329119Y-181530714D01*
X534329119Y-181530714D02*
X533329119Y-182197380D01*
X534693857Y-204184190D02*
X534646238Y-204136571D01*
X534598619Y-204184190D01*
X534646238Y-204231809D01*
X534693857Y-204184190D01*
X534598619Y-204184190D01*
X534693857Y-203708000D02*
X534646238Y-203660380D01*
X534598619Y-203708000D01*
X534646238Y-203755619D01*
X534693857Y-203708000D01*
X534598619Y-203708000D01*
X534693857Y-203231809D02*
X534646238Y-203184190D01*
X534598619Y-203231809D01*
X534646238Y-203279428D01*
X534693857Y-203231809D01*
X534598619Y-203231809D01*
X534630357Y-196564190D02*
X534582738Y-196516571D01*
X534535119Y-196564190D01*
X534582738Y-196611809D01*
X534630357Y-196564190D01*
X534535119Y-196564190D01*
X534630357Y-196088000D02*
X534582738Y-196040380D01*
X534535119Y-196088000D01*
X534582738Y-196135619D01*
X534630357Y-196088000D01*
X534535119Y-196088000D01*
X534630357Y-195611809D02*
X534582738Y-195564190D01*
X534535119Y-195611809D01*
X534582738Y-195659428D01*
X534630357Y-195611809D01*
X534535119Y-195611809D01*
X534693857Y-188944190D02*
X534646238Y-188896571D01*
X534598619Y-188944190D01*
X534646238Y-188991809D01*
X534693857Y-188944190D01*
X534598619Y-188944190D01*
X534693857Y-188468000D02*
X534646238Y-188420380D01*
X534598619Y-188468000D01*
X534646238Y-188515619D01*
X534693857Y-188468000D01*
X534598619Y-188468000D01*
X534693857Y-187991809D02*
X534646238Y-187944190D01*
X534598619Y-187991809D01*
X534646238Y-188039428D01*
X534693857Y-187991809D01*
X534598619Y-187991809D01*
X535074357Y-200540857D02*
X535026738Y-200588476D01*
X534979119Y-200731333D01*
X534979119Y-200826571D01*
X535026738Y-200969428D01*
X535121976Y-201064666D01*
X535217214Y-201112285D01*
X535407690Y-201159904D01*
X535550547Y-201159904D01*
X535741023Y-201112285D01*
X535836261Y-201064666D01*
X535931500Y-200969428D01*
X535979119Y-200826571D01*
X535979119Y-200731333D01*
X535931500Y-200588476D01*
X535883880Y-200540857D01*
X534979119Y-199588476D02*
X534979119Y-200159904D01*
X534979119Y-199874190D02*
X535979119Y-199874190D01*
X535836261Y-199969428D01*
X535741023Y-200064666D01*
X535693404Y-200159904D01*
X535883880Y-199207523D02*
X535931500Y-199159904D01*
X535979119Y-199064666D01*
X535979119Y-198826571D01*
X535931500Y-198731333D01*
X535883880Y-198683714D01*
X535788642Y-198636095D01*
X535693404Y-198636095D01*
X535550547Y-198683714D01*
X534979119Y-199255142D01*
X534979119Y-198636095D01*
X533424357Y-200540857D02*
X533376738Y-200588476D01*
X533329119Y-200731333D01*
X533329119Y-200826571D01*
X533376738Y-200969428D01*
X533471976Y-201064666D01*
X533567214Y-201112285D01*
X533757690Y-201159904D01*
X533900547Y-201159904D01*
X534091023Y-201112285D01*
X534186261Y-201064666D01*
X534281500Y-200969428D01*
X534329119Y-200826571D01*
X534329119Y-200731333D01*
X534281500Y-200588476D01*
X534233880Y-200540857D01*
X533329119Y-199588476D02*
X533329119Y-200159904D01*
X533329119Y-199874190D02*
X534329119Y-199874190D01*
X534186261Y-199969428D01*
X534091023Y-200064666D01*
X534043404Y-200159904D01*
X534329119Y-199255142D02*
X534329119Y-198636095D01*
X533948166Y-198969428D01*
X533948166Y-198826571D01*
X533900547Y-198731333D01*
X533852928Y-198683714D01*
X533757690Y-198636095D01*
X533519595Y-198636095D01*
X533424357Y-198683714D01*
X533376738Y-198731333D01*
X533329119Y-198826571D01*
X533329119Y-199112285D01*
X533376738Y-199207523D01*
X533424357Y-199255142D01*
X535137857Y-192444666D02*
X535090238Y-192492285D01*
X535042619Y-192635142D01*
X535042619Y-192730380D01*
X535090238Y-192873238D01*
X535185476Y-192968476D01*
X535280714Y-193016095D01*
X535471190Y-193063714D01*
X535614047Y-193063714D01*
X535804523Y-193016095D01*
X535899761Y-192968476D01*
X535995000Y-192873238D01*
X536042619Y-192730380D01*
X536042619Y-192635142D01*
X535995000Y-192492285D01*
X535947380Y-192444666D01*
X536042619Y-191587523D02*
X536042619Y-191778000D01*
X535995000Y-191873238D01*
X535947380Y-191920857D01*
X535804523Y-192016095D01*
X535614047Y-192063714D01*
X535233095Y-192063714D01*
X535137857Y-192016095D01*
X535090238Y-191968476D01*
X535042619Y-191873238D01*
X535042619Y-191682761D01*
X535090238Y-191587523D01*
X535137857Y-191539904D01*
X535233095Y-191492285D01*
X535471190Y-191492285D01*
X535566428Y-191539904D01*
X535614047Y-191587523D01*
X535661666Y-191682761D01*
X535661666Y-191873238D01*
X535614047Y-191968476D01*
X535566428Y-192016095D01*
X535471190Y-192063714D01*
X533487857Y-192444666D02*
X533440238Y-192492285D01*
X533392619Y-192635142D01*
X533392619Y-192730380D01*
X533440238Y-192873238D01*
X533535476Y-192968476D01*
X533630714Y-193016095D01*
X533821190Y-193063714D01*
X533964047Y-193063714D01*
X534154523Y-193016095D01*
X534249761Y-192968476D01*
X534345000Y-192873238D01*
X534392619Y-192730380D01*
X534392619Y-192635142D01*
X534345000Y-192492285D01*
X534297380Y-192444666D01*
X534392619Y-192111333D02*
X534392619Y-191444666D01*
X533392619Y-191873238D01*
X535074357Y-207843357D02*
X535026738Y-207890976D01*
X534979119Y-208033833D01*
X534979119Y-208129071D01*
X535026738Y-208271928D01*
X535121976Y-208367166D01*
X535217214Y-208414785D01*
X535407690Y-208462404D01*
X535550547Y-208462404D01*
X535741023Y-208414785D01*
X535836261Y-208367166D01*
X535931500Y-208271928D01*
X535979119Y-208129071D01*
X535979119Y-208033833D01*
X535931500Y-207890976D01*
X535883880Y-207843357D01*
X534979119Y-206890976D02*
X534979119Y-207462404D01*
X534979119Y-207176690D02*
X535979119Y-207176690D01*
X535836261Y-207271928D01*
X535741023Y-207367166D01*
X535693404Y-207462404D01*
X535550547Y-206319547D02*
X535598166Y-206414785D01*
X535645785Y-206462404D01*
X535741023Y-206510023D01*
X535788642Y-206510023D01*
X535883880Y-206462404D01*
X535931500Y-206414785D01*
X535979119Y-206319547D01*
X535979119Y-206129071D01*
X535931500Y-206033833D01*
X535883880Y-205986214D01*
X535788642Y-205938595D01*
X535741023Y-205938595D01*
X535645785Y-205986214D01*
X535598166Y-206033833D01*
X535550547Y-206129071D01*
X535550547Y-206319547D01*
X535502928Y-206414785D01*
X535455309Y-206462404D01*
X535360071Y-206510023D01*
X535169595Y-206510023D01*
X535074357Y-206462404D01*
X535026738Y-206414785D01*
X534979119Y-206319547D01*
X534979119Y-206129071D01*
X535026738Y-206033833D01*
X535074357Y-205986214D01*
X535169595Y-205938595D01*
X535360071Y-205938595D01*
X535455309Y-205986214D01*
X535502928Y-206033833D01*
X535550547Y-206129071D01*
X533424357Y-207843357D02*
X533376738Y-207890976D01*
X533329119Y-208033833D01*
X533329119Y-208129071D01*
X533376738Y-208271928D01*
X533471976Y-208367166D01*
X533567214Y-208414785D01*
X533757690Y-208462404D01*
X533900547Y-208462404D01*
X534091023Y-208414785D01*
X534186261Y-208367166D01*
X534281500Y-208271928D01*
X534329119Y-208129071D01*
X534329119Y-208033833D01*
X534281500Y-207890976D01*
X534233880Y-207843357D01*
X533329119Y-206890976D02*
X533329119Y-207462404D01*
X533329119Y-207176690D02*
X534329119Y-207176690D01*
X534186261Y-207271928D01*
X534091023Y-207367166D01*
X534043404Y-207462404D01*
X533329119Y-206414785D02*
X533329119Y-206224309D01*
X533376738Y-206129071D01*
X533424357Y-206081452D01*
X533567214Y-205986214D01*
X533757690Y-205938595D01*
X534138642Y-205938595D01*
X534233880Y-205986214D01*
X534281500Y-206033833D01*
X534329119Y-206129071D01*
X534329119Y-206319547D01*
X534281500Y-206414785D01*
X534233880Y-206462404D01*
X534138642Y-206510023D01*
X533900547Y-206510023D01*
X533805309Y-206462404D01*
X533757690Y-206414785D01*
X533710071Y-206319547D01*
X533710071Y-206129071D01*
X533757690Y-206033833D01*
X533805309Y-205986214D01*
X533900547Y-205938595D01*
X535074357Y-184888166D02*
X535026738Y-184935785D01*
X534979119Y-185078642D01*
X534979119Y-185173880D01*
X535026738Y-185316738D01*
X535121976Y-185411976D01*
X535217214Y-185459595D01*
X535407690Y-185507214D01*
X535550547Y-185507214D01*
X535741023Y-185459595D01*
X535836261Y-185411976D01*
X535931500Y-185316738D01*
X535979119Y-185173880D01*
X535979119Y-185078642D01*
X535931500Y-184935785D01*
X535883880Y-184888166D01*
X535979119Y-184269119D02*
X535979119Y-184173880D01*
X535931500Y-184078642D01*
X535883880Y-184031023D01*
X535788642Y-183983404D01*
X535598166Y-183935785D01*
X535360071Y-183935785D01*
X535169595Y-183983404D01*
X535074357Y-184031023D01*
X535026738Y-184078642D01*
X534979119Y-184173880D01*
X534979119Y-184269119D01*
X535026738Y-184364357D01*
X535074357Y-184411976D01*
X535169595Y-184459595D01*
X535360071Y-184507214D01*
X535598166Y-184507214D01*
X535788642Y-184459595D01*
X535883880Y-184411976D01*
X535931500Y-184364357D01*
X535979119Y-184269119D01*
X533424357Y-184888166D02*
X533376738Y-184935785D01*
X533329119Y-185078642D01*
X533329119Y-185173880D01*
X533376738Y-185316738D01*
X533471976Y-185411976D01*
X533567214Y-185459595D01*
X533757690Y-185507214D01*
X533900547Y-185507214D01*
X534091023Y-185459595D01*
X534186261Y-185411976D01*
X534281500Y-185316738D01*
X534329119Y-185173880D01*
X534329119Y-185078642D01*
X534281500Y-184935785D01*
X534233880Y-184888166D01*
X533329119Y-183935785D02*
X533329119Y-184507214D01*
X533329119Y-184221500D02*
X534329119Y-184221500D01*
X534186261Y-184316738D01*
X534091023Y-184411976D01*
X534043404Y-184507214D01*
D10*
X532765000Y-183388000D02*
X527621500Y-183388000D01*
D11*
X541114285Y-176307111D02*
X541191730Y-176337415D01*
X541272543Y-176418227D01*
X541329785Y-176522610D01*
X541336519Y-176623625D01*
X541316316Y-176697703D01*
X541248972Y-176818921D01*
X541178262Y-176889632D01*
X541057043Y-176956975D01*
X540982965Y-176977178D01*
X540881950Y-176970444D01*
X540777568Y-176913202D01*
X540723693Y-176859327D01*
X540666451Y-176754945D01*
X540663084Y-176704437D01*
X540828075Y-176539446D01*
X540935825Y-176647195D01*
X540373507Y-176509141D02*
X540868482Y-176014166D01*
X540050258Y-176185892D01*
X540545233Y-175690917D01*
X539780884Y-175916518D02*
X540275859Y-175421543D01*
X540141172Y-175286856D01*
X540036789Y-175229614D01*
X539935774Y-175222880D01*
X539861696Y-175243083D01*
X539740478Y-175310427D01*
X539669767Y-175381137D01*
X539602424Y-175502356D01*
X539582221Y-175576434D01*
X539588955Y-175677449D01*
X539646197Y-175781831D01*
X539780884Y-175916518D01*
X535039819Y-164134780D02*
X535039819Y-164515733D01*
X534563628Y-164553828D01*
X534611247Y-164515733D01*
X534658866Y-164439542D01*
X534658866Y-164249066D01*
X534611247Y-164172876D01*
X534563628Y-164134780D01*
X534468390Y-164096685D01*
X534230295Y-164096685D01*
X534135057Y-164134780D01*
X534087438Y-164172876D01*
X534039819Y-164249066D01*
X534039819Y-164439542D01*
X534087438Y-164515733D01*
X534135057Y-164553828D01*
X535039819Y-163868114D02*
X534039819Y-163601447D01*
X535039819Y-163334780D01*
X536071819Y-216504685D02*
X537071819Y-216504685D01*
X536595628Y-216504685D02*
X536595628Y-215933257D01*
X536071819Y-215933257D02*
X537071819Y-215933257D01*
X536119438Y-215504685D02*
X536071819Y-215361828D01*
X536071819Y-215123733D01*
X536119438Y-215028495D01*
X536167057Y-214980876D01*
X536262295Y-214933257D01*
X536357533Y-214933257D01*
X536452771Y-214980876D01*
X536500390Y-215028495D01*
X536548009Y-215123733D01*
X536595628Y-215314209D01*
X536643247Y-215409447D01*
X536690866Y-215457066D01*
X536786104Y-215504685D01*
X536881342Y-215504685D01*
X536976580Y-215457066D01*
X537024200Y-215409447D01*
X537071819Y-215314209D01*
X537071819Y-215076114D01*
X537024200Y-214933257D01*
X536595628Y-214504685D02*
X536595628Y-214171352D01*
X536071819Y-214028495D02*
X536071819Y-214504685D01*
X537071819Y-214504685D01*
X537071819Y-214028495D01*
D10*
X536575000Y-218630500D02*
X533209500Y-215265000D01*
X537972000Y-218630500D02*
X536575000Y-218630500D01*
X539432500Y-217170000D02*
X537972000Y-218630500D01*
X539432500Y-215328500D02*
X539432500Y-217170000D01*
X538861000Y-214757000D02*
X539432500Y-215328500D01*
X540004000Y-213614000D02*
X538861000Y-214757000D01*
X539432500Y-213042500D02*
X540004000Y-213614000D01*
X541083500Y-211391500D02*
X539432500Y-213042500D01*
X540321500Y-210629500D02*
X541083500Y-211391500D01*
X537845000Y-213106000D02*
X540321500Y-210629500D01*
X537400500Y-213106000D02*
X537845000Y-213106000D01*
X536575000Y-212280500D02*
X537400500Y-213106000D01*
X534606500Y-212280500D02*
X536575000Y-212280500D01*
X533209500Y-213677500D02*
X534606500Y-212280500D01*
X533209500Y-215265000D02*
X533209500Y-213677500D01*
D11*
X545393619Y-184221190D02*
X546393619Y-184221190D01*
X546393619Y-183840238D01*
X546346000Y-183745000D01*
X546298380Y-183697380D01*
X546203142Y-183649761D01*
X546060285Y-183649761D01*
X545965047Y-183697380D01*
X545917428Y-183745000D01*
X545869809Y-183840238D01*
X545869809Y-184221190D01*
X545393619Y-183078333D02*
X545441238Y-183173571D01*
X545488857Y-183221190D01*
X545584095Y-183268809D01*
X545869809Y-183268809D01*
X545965047Y-183221190D01*
X546012666Y-183173571D01*
X546060285Y-183078333D01*
X546060285Y-182935476D01*
X546012666Y-182840238D01*
X545965047Y-182792619D01*
X545869809Y-182745000D01*
X545584095Y-182745000D01*
X545488857Y-182792619D01*
X545441238Y-182840238D01*
X545393619Y-182935476D01*
X545393619Y-183078333D01*
X546060285Y-182411666D02*
X545393619Y-182221190D01*
X545869809Y-182030714D01*
X545393619Y-181840238D01*
X546060285Y-181649761D01*
X545441238Y-180887857D02*
X545393619Y-180983095D01*
X545393619Y-181173571D01*
X545441238Y-181268809D01*
X545536476Y-181316428D01*
X545917428Y-181316428D01*
X546012666Y-181268809D01*
X546060285Y-181173571D01*
X546060285Y-180983095D01*
X546012666Y-180887857D01*
X545917428Y-180840238D01*
X545822190Y-180840238D01*
X545726952Y-181316428D01*
X545393619Y-180411666D02*
X546060285Y-180411666D01*
X545869809Y-180411666D02*
X545965047Y-180364047D01*
X546012666Y-180316428D01*
X546060285Y-180221190D01*
X546060285Y-180125952D01*
D10*
X551180000Y-177342800D02*
X540092900Y-177342800D01*
X551180000Y-186944000D02*
X551180000Y-177342800D01*
X540092900Y-186944000D02*
X551180000Y-186944000D01*
X540092900Y-177342800D02*
X540092900Y-186944000D01*
X527685000Y-213868000D02*
X532828500Y-213868000D01*
X527685000Y-224028000D02*
X527685000Y-213868000D01*
X532828500Y-224028000D02*
X527685000Y-224028000D01*
X532828500Y-213868000D02*
X532828500Y-224028000D01*
X548068500Y-163068000D02*
X532828500Y-163068000D01*
X548068500Y-157924500D02*
X548068500Y-163068000D01*
X532828500Y-157924500D02*
X548068500Y-157924500D01*
X538988000Y-171704000D02*
X549656000Y-171704000D01*
X538988000Y-174752000D02*
X538988000Y-171704000D01*
X549656000Y-174752000D02*
X538988000Y-174752000D01*
X549656000Y-171704000D02*
X549656000Y-174752000D01*
D11*
X528851857Y-225939285D02*
X528804238Y-225977380D01*
X528756619Y-226091666D01*
X528756619Y-226167857D01*
X528804238Y-226282142D01*
X528899476Y-226358333D01*
X528994714Y-226396428D01*
X529185190Y-226434523D01*
X529328047Y-226434523D01*
X529518523Y-226396428D01*
X529613761Y-226358333D01*
X529709000Y-226282142D01*
X529756619Y-226167857D01*
X529756619Y-226091666D01*
X529709000Y-225977380D01*
X529661380Y-225939285D01*
X529661380Y-225634523D02*
X529709000Y-225596428D01*
X529756619Y-225520238D01*
X529756619Y-225329761D01*
X529709000Y-225253571D01*
X529661380Y-225215476D01*
X529566142Y-225177380D01*
X529470904Y-225177380D01*
X529328047Y-225215476D01*
X528756619Y-225672619D01*
X528756619Y-225177380D01*
X529756619Y-224682142D02*
X529756619Y-224605952D01*
X529709000Y-224529761D01*
X529661380Y-224491666D01*
X529566142Y-224453571D01*
X529375666Y-224415476D01*
X529137571Y-224415476D01*
X528947095Y-224453571D01*
X528851857Y-224491666D01*
X528804238Y-224529761D01*
X528756619Y-224605952D01*
X528756619Y-224682142D01*
X528804238Y-224758333D01*
X528851857Y-224796428D01*
X528947095Y-224834523D01*
X529137571Y-224872619D01*
X529375666Y-224872619D01*
X529566142Y-224834523D01*
X529661380Y-224796428D01*
X529709000Y-224758333D01*
X529756619Y-224682142D01*
X530966419Y-225617066D02*
X531442609Y-225950400D01*
X530966419Y-226188495D02*
X531966419Y-226188495D01*
X531966419Y-225807542D01*
X531918800Y-225712304D01*
X531871180Y-225664685D01*
X531775942Y-225617066D01*
X531633085Y-225617066D01*
X531537847Y-225664685D01*
X531490228Y-225712304D01*
X531442609Y-225807542D01*
X531442609Y-226188495D01*
X531966419Y-224998019D02*
X531966419Y-224902780D01*
X531918800Y-224807542D01*
X531871180Y-224759923D01*
X531775942Y-224712304D01*
X531585466Y-224664685D01*
X531347371Y-224664685D01*
X531156895Y-224712304D01*
X531061657Y-224759923D01*
X531014038Y-224807542D01*
X530966419Y-224902780D01*
X530966419Y-224998019D01*
X531014038Y-225093257D01*
X531061657Y-225140876D01*
X531156895Y-225188495D01*
X531347371Y-225236114D01*
X531585466Y-225236114D01*
X531775942Y-225188495D01*
X531871180Y-225140876D01*
X531918800Y-225093257D01*
X531966419Y-224998019D01*
X533582619Y-225617066D02*
X534058809Y-225950400D01*
X533582619Y-226188495D02*
X534582619Y-226188495D01*
X534582619Y-225807542D01*
X534535000Y-225712304D01*
X534487380Y-225664685D01*
X534392142Y-225617066D01*
X534249285Y-225617066D01*
X534154047Y-225664685D01*
X534106428Y-225712304D01*
X534058809Y-225807542D01*
X534058809Y-226188495D01*
X533582619Y-224664685D02*
X533582619Y-225236114D01*
X533582619Y-224950400D02*
X534582619Y-224950400D01*
X534439761Y-225045638D01*
X534344523Y-225140876D01*
X534296904Y-225236114D01*
X536122619Y-225617066D02*
X536598809Y-225950400D01*
X536122619Y-226188495D02*
X537122619Y-226188495D01*
X537122619Y-225807542D01*
X537075000Y-225712304D01*
X537027380Y-225664685D01*
X536932142Y-225617066D01*
X536789285Y-225617066D01*
X536694047Y-225664685D01*
X536646428Y-225712304D01*
X536598809Y-225807542D01*
X536598809Y-226188495D01*
X537027380Y-225236114D02*
X537075000Y-225188495D01*
X537122619Y-225093257D01*
X537122619Y-224855161D01*
X537075000Y-224759923D01*
X537027380Y-224712304D01*
X536932142Y-224664685D01*
X536836904Y-224664685D01*
X536694047Y-224712304D01*
X536122619Y-225283733D01*
X536122619Y-224664685D01*
X538662619Y-225617066D02*
X539138809Y-225950400D01*
X538662619Y-226188495D02*
X539662619Y-226188495D01*
X539662619Y-225807542D01*
X539615000Y-225712304D01*
X539567380Y-225664685D01*
X539472142Y-225617066D01*
X539329285Y-225617066D01*
X539234047Y-225664685D01*
X539186428Y-225712304D01*
X539138809Y-225807542D01*
X539138809Y-226188495D01*
X539662619Y-225283733D02*
X539662619Y-224664685D01*
X539281666Y-224998019D01*
X539281666Y-224855161D01*
X539234047Y-224759923D01*
X539186428Y-224712304D01*
X539091190Y-224664685D01*
X538853095Y-224664685D01*
X538757857Y-224712304D01*
X538710238Y-224759923D01*
X538662619Y-224855161D01*
X538662619Y-225140876D01*
X538710238Y-225236114D01*
X538757857Y-225283733D01*
X541202619Y-225617066D02*
X541678809Y-225950400D01*
X541202619Y-226188495D02*
X542202619Y-226188495D01*
X542202619Y-225807542D01*
X542155000Y-225712304D01*
X542107380Y-225664685D01*
X542012142Y-225617066D01*
X541869285Y-225617066D01*
X541774047Y-225664685D01*
X541726428Y-225712304D01*
X541678809Y-225807542D01*
X541678809Y-226188495D01*
X541869285Y-224759923D02*
X541202619Y-224759923D01*
X542250238Y-224998019D02*
X541535952Y-225236114D01*
X541535952Y-224617066D01*
X543717219Y-225642466D02*
X544193409Y-225975800D01*
X543717219Y-226213895D02*
X544717219Y-226213895D01*
X544717219Y-225832942D01*
X544669600Y-225737704D01*
X544621980Y-225690085D01*
X544526742Y-225642466D01*
X544383885Y-225642466D01*
X544288647Y-225690085D01*
X544241028Y-225737704D01*
X544193409Y-225832942D01*
X544193409Y-226213895D01*
X544717219Y-224737704D02*
X544717219Y-225213895D01*
X544241028Y-225261514D01*
X544288647Y-225213895D01*
X544336266Y-225118657D01*
X544336266Y-224880561D01*
X544288647Y-224785323D01*
X544241028Y-224737704D01*
X544145790Y-224690085D01*
X543907695Y-224690085D01*
X543812457Y-224737704D01*
X543764838Y-224785323D01*
X543717219Y-224880561D01*
X543717219Y-225118657D01*
X543764838Y-225213895D01*
X543812457Y-225261514D01*
X546282619Y-225617066D02*
X546758809Y-225950400D01*
X546282619Y-226188495D02*
X547282619Y-226188495D01*
X547282619Y-225807542D01*
X547235000Y-225712304D01*
X547187380Y-225664685D01*
X547092142Y-225617066D01*
X546949285Y-225617066D01*
X546854047Y-225664685D01*
X546806428Y-225712304D01*
X546758809Y-225807542D01*
X546758809Y-226188495D01*
X547282619Y-224759923D02*
X547282619Y-224950400D01*
X547235000Y-225045638D01*
X547187380Y-225093257D01*
X547044523Y-225188495D01*
X546854047Y-225236114D01*
X546473095Y-225236114D01*
X546377857Y-225188495D01*
X546330238Y-225140876D01*
X546282619Y-225045638D01*
X546282619Y-224855161D01*
X546330238Y-224759923D01*
X546377857Y-224712304D01*
X546473095Y-224664685D01*
X546711190Y-224664685D01*
X546806428Y-224712304D01*
X546854047Y-224759923D01*
X546901666Y-224855161D01*
X546901666Y-225045638D01*
X546854047Y-225140876D01*
X546806428Y-225188495D01*
X546711190Y-225236114D01*
X548822619Y-225642466D02*
X549298809Y-225975800D01*
X548822619Y-226213895D02*
X549822619Y-226213895D01*
X549822619Y-225832942D01*
X549775000Y-225737704D01*
X549727380Y-225690085D01*
X549632142Y-225642466D01*
X549489285Y-225642466D01*
X549394047Y-225690085D01*
X549346428Y-225737704D01*
X549298809Y-225832942D01*
X549298809Y-226213895D01*
X549822619Y-225309133D02*
X549822619Y-224642466D01*
X548822619Y-225071038D01*
X551648333Y-226139190D02*
X551648333Y-225663000D01*
X551362619Y-226234428D02*
X552362619Y-225901095D01*
X551362619Y-225567761D01*
X551362619Y-225234428D02*
X552362619Y-225234428D01*
X551362619Y-224758238D02*
X552362619Y-224758238D01*
X551362619Y-224186809D01*
X552362619Y-224186809D01*
X552267380Y-223758238D02*
X552315000Y-223710619D01*
X552362619Y-223615380D01*
X552362619Y-223377285D01*
X552315000Y-223282047D01*
X552267380Y-223234428D01*
X552172142Y-223186809D01*
X552076904Y-223186809D01*
X551934047Y-223234428D01*
X551362619Y-223805857D01*
X551362619Y-223186809D01*
X554213733Y-226113790D02*
X554213733Y-225637600D01*
X553928019Y-226209028D02*
X554928019Y-225875695D01*
X553928019Y-225542361D01*
X553928019Y-225209028D02*
X554928019Y-225209028D01*
X553928019Y-224732838D02*
X554928019Y-224732838D01*
X553928019Y-224161409D01*
X554928019Y-224161409D01*
X553928019Y-223161409D02*
X553928019Y-223732838D01*
X553928019Y-223447123D02*
X554928019Y-223447123D01*
X554785161Y-223542361D01*
X554689923Y-223637600D01*
X554642304Y-223732838D01*
X557442619Y-226177266D02*
X557442619Y-225558219D01*
X557061666Y-225891552D01*
X557061666Y-225748695D01*
X557014047Y-225653457D01*
X556966428Y-225605838D01*
X556871190Y-225558219D01*
X556633095Y-225558219D01*
X556537857Y-225605838D01*
X556490238Y-225653457D01*
X556442619Y-225748695D01*
X556442619Y-226034409D01*
X556490238Y-226129647D01*
X556537857Y-226177266D01*
X557442619Y-225272504D02*
X556442619Y-224939171D01*
X557442619Y-224605838D01*
X557442619Y-224367742D02*
X557442619Y-223748695D01*
X557061666Y-224082028D01*
X557061666Y-223939171D01*
X557014047Y-223843933D01*
X556966428Y-223796314D01*
X556871190Y-223748695D01*
X556633095Y-223748695D01*
X556537857Y-223796314D01*
X556490238Y-223843933D01*
X556442619Y-223939171D01*
X556442619Y-224224885D01*
X556490238Y-224320123D01*
X556537857Y-224367742D01*
X556728333Y-223367742D02*
X556728333Y-222891552D01*
X556442619Y-223462980D02*
X557442619Y-223129647D01*
X556442619Y-222796314D01*
D10*
%TO.C,J10*%
X447100000Y-170628000D02*
X444500000Y-170628000D01*
X447100000Y-170628000D02*
X447100000Y-185988000D01*
X447100000Y-185988000D02*
X441900000Y-185988000D01*
X441900000Y-173228000D02*
X441900000Y-185988000D01*
X444500000Y-173228000D02*
X441900000Y-173228000D01*
X444500000Y-170628000D02*
X444500000Y-173228000D01*
X441900000Y-170628000D02*
X441900000Y-171958000D01*
X443230000Y-170628000D02*
X441900000Y-170628000D01*
%TO.C,J7*%
X532825000Y-208848000D02*
X527625000Y-208848000D01*
X532825000Y-160528000D02*
X532825000Y-208848000D01*
X527625000Y-157928000D02*
X527625000Y-208848000D01*
X532825000Y-160528000D02*
X530225000Y-160528000D01*
X530225000Y-160528000D02*
X530225000Y-157928000D01*
X530225000Y-157928000D02*
X527625000Y-157928000D01*
X532825000Y-159258000D02*
X532825000Y-157928000D01*
X532825000Y-157928000D02*
X531495000Y-157928000D01*
%TO.C,J10*%
D11*
X445309523Y-168640380D02*
X445309523Y-169354666D01*
X445357142Y-169497523D01*
X445452380Y-169592761D01*
X445595238Y-169640380D01*
X445690476Y-169640380D01*
X444309523Y-169640380D02*
X444880952Y-169640380D01*
X444595238Y-169640380D02*
X444595238Y-168640380D01*
X444690476Y-168783238D01*
X444785714Y-168878476D01*
X444880952Y-168926095D01*
X443690476Y-168640380D02*
X443595238Y-168640380D01*
X443500000Y-168688000D01*
X443452380Y-168735619D01*
X443404761Y-168830857D01*
X443357142Y-169021333D01*
X443357142Y-169259428D01*
X443404761Y-169449904D01*
X443452380Y-169545142D01*
X443500000Y-169592761D01*
X443595238Y-169640380D01*
X443690476Y-169640380D01*
X443785714Y-169592761D01*
X443833333Y-169545142D01*
X443880952Y-169449904D01*
X443928571Y-169259428D01*
X443928571Y-169021333D01*
X443880952Y-168830857D01*
X443833333Y-168735619D01*
X443785714Y-168688000D01*
X443690476Y-168640380D01*
%TD*%
M02*
