%TF.GenerationSoftware,KiCad,Pcbnew,(5.1.9)-1*%
%TF.CreationDate,2021-03-09T20:48:28+01:00*%
%TF.ProjectId,poly_kb,706f6c79-5f6b-4622-9e6b-696361645f70,rev?*%
%TF.SameCoordinates,Original*%
%TF.FileFunction,Other,Fab,Top*%
%FSLAX46Y46*%
G04 Gerber Fmt 4.6, Leading zero omitted, Abs format (unit mm)*
G04 Created by KiCad (PCBNEW (5.1.9)-1) date 2021-03-09 20:48:28*
%MOMM*%
%LPD*%
G01*
G04 APERTURE LIST*
%ADD10C,0.100000*%
%ADD11C,0.150000*%
%ADD12C,0.040000*%
%ADD13C,0.105000*%
%ADD14C,0.075000*%
%ADD15C,0.080000*%
%ADD16C,0.060000*%
%ADD17C,0.120000*%
G04 APERTURE END LIST*
D10*
%TO.C,J8*%
X429895000Y-31750000D02*
X431800000Y-31750000D01*
X431800000Y-31750000D02*
X431800000Y-36830000D01*
X431800000Y-36830000D02*
X429260000Y-36830000D01*
X429260000Y-36830000D02*
X429260000Y-32385000D01*
X429260000Y-32385000D02*
X429895000Y-31750000D01*
%TO.C,J3*%
X416560000Y-41910000D02*
X420370000Y-41910000D01*
X420370000Y-41910000D02*
X420370000Y-57150000D01*
X420370000Y-57150000D02*
X415290000Y-57150000D01*
X415290000Y-57150000D02*
X415290000Y-43180000D01*
X415290000Y-43180000D02*
X416560000Y-41910000D01*
%TO.C,R12*%
X432622200Y-34120600D02*
X433162200Y-34120600D01*
X433162200Y-34120600D02*
X433162200Y-35170600D01*
X433162200Y-35170600D02*
X432622200Y-35170600D01*
X432622200Y-35170600D02*
X432622200Y-34120600D01*
%TO.C,R7*%
X463026000Y-29955000D02*
X463566000Y-29955000D01*
X463566000Y-29955000D02*
X463566000Y-31005000D01*
X463566000Y-31005000D02*
X463026000Y-31005000D01*
X463026000Y-31005000D02*
X463026000Y-29955000D01*
%TO.C,R6*%
X482203000Y-32495000D02*
X482743000Y-32495000D01*
X482743000Y-32495000D02*
X482743000Y-33545000D01*
X482743000Y-33545000D02*
X482203000Y-33545000D01*
X482203000Y-33545000D02*
X482203000Y-32495000D01*
%TO.C,R3*%
X464836000Y-31005000D02*
X464296000Y-31005000D01*
X464296000Y-31005000D02*
X464296000Y-29955000D01*
X464296000Y-29955000D02*
X464836000Y-29955000D01*
X464836000Y-29955000D02*
X464836000Y-31005000D01*
%TO.C,R1*%
X473854000Y-32242000D02*
X473854000Y-32782000D01*
X473854000Y-32782000D02*
X472804000Y-32782000D01*
X472804000Y-32782000D02*
X472804000Y-32242000D01*
X472804000Y-32242000D02*
X473854000Y-32242000D01*
%TO.C,R13*%
X471299512Y-51768550D02*
X470557050Y-51026088D01*
X471681350Y-51386712D02*
X471299512Y-51768550D01*
X470938888Y-50644250D02*
X471681350Y-51386712D01*
X470557050Y-51026088D02*
X470938888Y-50644250D01*
%TO.C,C16*%
X470612223Y-54968670D02*
X471319330Y-55675777D01*
X470258670Y-55322223D02*
X470612223Y-54968670D01*
X470965777Y-56029330D02*
X470258670Y-55322223D01*
X471319330Y-55675777D02*
X470965777Y-56029330D01*
%TO.C,Y1*%
X470678746Y-53841487D02*
X472446513Y-55609254D01*
X472446513Y-55609254D02*
X474709254Y-53346513D01*
X474709254Y-53346513D02*
X472941487Y-51578746D01*
X472941487Y-51578746D02*
X470678746Y-53841487D01*
X471739406Y-54902148D02*
X473153619Y-54902148D01*
%TO.C,U1*%
X438443600Y-46746200D02*
X438443600Y-44296200D01*
X437893600Y-47316200D02*
X437043600Y-47316200D01*
X438443600Y-46746200D02*
X437893600Y-47316200D01*
X437043600Y-47316200D02*
X437043600Y-44276200D01*
X438443600Y-44276200D02*
X437043600Y-44276200D01*
%TO.C,SW3*%
X479718000Y-28976000D02*
X479718000Y-28576000D01*
X479718000Y-28576000D02*
X480118000Y-28276000D01*
X480118000Y-28276000D02*
X481018000Y-28276000D01*
X481018000Y-28276000D02*
X481418000Y-28576000D01*
X481418000Y-28576000D02*
X481418000Y-28976000D01*
X479068000Y-28976000D02*
X482068000Y-28976000D01*
X482068000Y-28976000D02*
X482068000Y-31476000D01*
X482068000Y-31476000D02*
X479068000Y-31476000D01*
X479068000Y-31476000D02*
X479068000Y-28976000D01*
%TO.C,SW2*%
X467526000Y-28976000D02*
X467526000Y-28576000D01*
X467526000Y-28576000D02*
X467926000Y-28276000D01*
X467926000Y-28276000D02*
X468826000Y-28276000D01*
X468826000Y-28276000D02*
X469226000Y-28576000D01*
X469226000Y-28576000D02*
X469226000Y-28976000D01*
X466876000Y-28976000D02*
X469876000Y-28976000D01*
X469876000Y-28976000D02*
X469876000Y-31476000D01*
X469876000Y-31476000D02*
X466876000Y-31476000D01*
X466876000Y-31476000D02*
X466876000Y-28976000D01*
%TO.C,SW1*%
X472479000Y-28976000D02*
X472479000Y-28576000D01*
X472479000Y-28576000D02*
X472879000Y-28276000D01*
X472879000Y-28276000D02*
X473779000Y-28276000D01*
X473779000Y-28276000D02*
X474179000Y-28576000D01*
X474179000Y-28576000D02*
X474179000Y-28976000D01*
X471829000Y-28976000D02*
X474829000Y-28976000D01*
X474829000Y-28976000D02*
X474829000Y-31476000D01*
X474829000Y-31476000D02*
X471829000Y-31476000D01*
X471829000Y-31476000D02*
X471829000Y-28976000D01*
%TO.C,R4*%
X448530200Y-43265600D02*
X448530200Y-43805600D01*
X448530200Y-43805600D02*
X447480200Y-43805600D01*
X447480200Y-43805600D02*
X447480200Y-43265600D01*
X447480200Y-43265600D02*
X448530200Y-43265600D01*
%TO.C,R15*%
X457946000Y-31354000D02*
X458486000Y-31354000D01*
X458486000Y-31354000D02*
X458486000Y-32404000D01*
X458486000Y-32404000D02*
X457946000Y-32404000D01*
X457946000Y-32404000D02*
X457946000Y-31354000D01*
%TO.C,R14*%
X446770000Y-31987000D02*
X447310000Y-31987000D01*
X447310000Y-31987000D02*
X447310000Y-33037000D01*
X447310000Y-33037000D02*
X446770000Y-33037000D01*
X446770000Y-33037000D02*
X446770000Y-31987000D01*
%TO.C,R11*%
X434559200Y-35196000D02*
X434019200Y-35196000D01*
X434019200Y-35196000D02*
X434019200Y-34146000D01*
X434019200Y-34146000D02*
X434559200Y-34146000D01*
X434559200Y-34146000D02*
X434559200Y-35196000D01*
%TO.C,R2*%
X480043000Y-34052000D02*
X480043000Y-33512000D01*
X480043000Y-33512000D02*
X481093000Y-33512000D01*
X481093000Y-33512000D02*
X481093000Y-34052000D01*
X481093000Y-34052000D02*
X480043000Y-34052000D01*
%TO.C,J5*%
X481330000Y-58420000D02*
X481330000Y-62230000D01*
X481330000Y-62230000D02*
X471170000Y-62230000D01*
X471170000Y-62230000D02*
X471170000Y-57150000D01*
X471170000Y-57150000D02*
X480060000Y-57150000D01*
X480060000Y-57150000D02*
X481330000Y-58420000D01*
%TO.C,J6*%
X429895000Y-40640000D02*
X431800000Y-40640000D01*
X431800000Y-40640000D02*
X431800000Y-50800000D01*
X431800000Y-50800000D02*
X429260000Y-50800000D01*
X429260000Y-50800000D02*
X429260000Y-41275000D01*
X429260000Y-41275000D02*
X429895000Y-40640000D01*
%TO.C,J2*%
X436220000Y-35146000D02*
X436220000Y-27846000D01*
X445160000Y-27846000D02*
X436220000Y-27846000D01*
X445160000Y-35146000D02*
X445160000Y-27846000D01*
X445160000Y-35146000D02*
X436220000Y-35146000D01*
%TO.C,FB1*%
X436794400Y-43274400D02*
X436794400Y-42374400D01*
X436794400Y-42374400D02*
X438794400Y-42374400D01*
X438794400Y-42374400D02*
X438794400Y-43274400D01*
X438794400Y-43274400D02*
X436794400Y-43274400D01*
%TO.C,D3*%
X431889000Y-30372000D02*
X433189000Y-30372000D01*
X433189000Y-30372000D02*
X433489000Y-30072000D01*
X433489000Y-30072000D02*
X433489000Y-29572000D01*
X433489000Y-29572000D02*
X431889000Y-29572000D01*
X431889000Y-29572000D02*
X431889000Y-30372000D01*
%TO.C,D2*%
X460083000Y-30245000D02*
X461383000Y-30245000D01*
X461383000Y-30245000D02*
X461683000Y-29945000D01*
X461683000Y-29945000D02*
X461683000Y-29445000D01*
X461683000Y-29445000D02*
X460083000Y-29445000D01*
X460083000Y-29445000D02*
X460083000Y-30245000D01*
%TO.C,D1*%
X485940000Y-29445000D02*
X484640000Y-29445000D01*
X484640000Y-29445000D02*
X484340000Y-29745000D01*
X484340000Y-29745000D02*
X484340000Y-30245000D01*
X484340000Y-30245000D02*
X485940000Y-30245000D01*
X485940000Y-30245000D02*
X485940000Y-29445000D01*
%TO.C,C1*%
X481068000Y-32262000D02*
X481068000Y-32762000D01*
X481068000Y-32762000D02*
X480068000Y-32762000D01*
X480068000Y-32762000D02*
X480068000Y-32262000D01*
X480068000Y-32262000D02*
X481068000Y-32262000D01*
%TO.C,C3*%
X440287600Y-44813600D02*
X440787600Y-44813600D01*
X440787600Y-44813600D02*
X440787600Y-45813600D01*
X440787600Y-45813600D02*
X440287600Y-45813600D01*
X440287600Y-45813600D02*
X440287600Y-44813600D01*
%TO.C,C2*%
X437003000Y-40632000D02*
X436503000Y-40632000D01*
X436503000Y-40632000D02*
X436503000Y-39632000D01*
X436503000Y-39632000D02*
X437003000Y-39632000D01*
X437003000Y-39632000D02*
X437003000Y-40632000D01*
%TO.C,C15*%
X452936243Y-41163072D02*
X453501928Y-41728757D01*
X453501928Y-41728757D02*
X452370557Y-42860128D01*
X452370557Y-42860128D02*
X451804872Y-42294443D01*
X451804872Y-42294443D02*
X452936243Y-41163072D01*
%TO.C,C14*%
X467322000Y-33928000D02*
X467322000Y-33128000D01*
X467322000Y-33128000D02*
X468922000Y-33128000D01*
X468922000Y-33128000D02*
X468922000Y-33928000D01*
X468922000Y-33928000D02*
X467322000Y-33928000D01*
%TO.C,C13*%
X461535400Y-55376000D02*
X461535400Y-55876000D01*
X461535400Y-55876000D02*
X460535400Y-55876000D01*
X460535400Y-55876000D02*
X460535400Y-55376000D01*
X460535400Y-55376000D02*
X461535400Y-55376000D01*
%TO.C,C12*%
X452931777Y-43614870D02*
X453285330Y-43968423D01*
X453285330Y-43968423D02*
X452578223Y-44675530D01*
X452578223Y-44675530D02*
X452224670Y-44321977D01*
X452224670Y-44321977D02*
X452931777Y-43614870D01*
%TO.C,C5*%
X478807400Y-34852800D02*
X478807400Y-35352800D01*
X478807400Y-35352800D02*
X477807400Y-35352800D01*
X477807400Y-35352800D02*
X477807400Y-34852800D01*
X477807400Y-34852800D02*
X478807400Y-34852800D01*
%TO.C,C4*%
X478807400Y-33709800D02*
X478807400Y-34209800D01*
X478807400Y-34209800D02*
X477807400Y-34209800D01*
X477807400Y-34209800D02*
X477807400Y-33709800D01*
X477807400Y-33709800D02*
X478807400Y-33709800D01*
%TO.C,C11*%
X473464000Y-48510000D02*
X473464000Y-48010000D01*
X473464000Y-48010000D02*
X474464000Y-48010000D01*
X474464000Y-48010000D02*
X474464000Y-48510000D01*
X474464000Y-48510000D02*
X473464000Y-48510000D01*
%TO.C,C10*%
X465116800Y-32643000D02*
X465116800Y-33143000D01*
X465116800Y-33143000D02*
X464116800Y-33143000D01*
X464116800Y-33143000D02*
X464116800Y-32643000D01*
X464116800Y-32643000D02*
X465116800Y-32643000D01*
%TO.C,C9*%
X468126000Y-54110000D02*
X468626000Y-54110000D01*
X468626000Y-54110000D02*
X468626000Y-55110000D01*
X468626000Y-55110000D02*
X468126000Y-55110000D01*
X468126000Y-55110000D02*
X468126000Y-54110000D01*
%TO.C,C8*%
X469400188Y-51962259D02*
X469753741Y-52315812D01*
X469753741Y-52315812D02*
X469046634Y-53022919D01*
X469046634Y-53022919D02*
X468693081Y-52669366D01*
X468693081Y-52669366D02*
X469400188Y-51962259D01*
%TO.C,C7*%
X474271870Y-41555423D02*
X474625423Y-41201870D01*
X474625423Y-41201870D02*
X475332530Y-41908977D01*
X475332530Y-41908977D02*
X474978977Y-42262530D01*
X474978977Y-42262530D02*
X474271870Y-41555423D01*
%TO.C,C6*%
X475342949Y-44474936D02*
X474777264Y-43909251D01*
X474777264Y-43909251D02*
X475908635Y-42777880D01*
X475908635Y-42777880D02*
X476474320Y-43343565D01*
X476474320Y-43343565D02*
X475342949Y-44474936D01*
%TO.C,R10*%
X447310000Y-35198000D02*
X446770000Y-35198000D01*
X446770000Y-35198000D02*
X446770000Y-34148000D01*
X446770000Y-34148000D02*
X447310000Y-34148000D01*
X447310000Y-34148000D02*
X447310000Y-35198000D01*
%TO.C,R9*%
X481093000Y-34909000D02*
X481093000Y-35449000D01*
X481093000Y-35449000D02*
X480043000Y-35449000D01*
X480043000Y-35449000D02*
X480043000Y-34909000D01*
X480043000Y-34909000D02*
X481093000Y-34909000D01*
%TO.C,R8*%
X435601600Y-53603400D02*
X435601600Y-54143400D01*
X435601600Y-54143400D02*
X434551600Y-54143400D01*
X434551600Y-54143400D02*
X434551600Y-53603400D01*
X434551600Y-53603400D02*
X435601600Y-53603400D01*
%TO.C,R5*%
X428134000Y-45348400D02*
X428134000Y-45888400D01*
X428134000Y-45888400D02*
X427084000Y-45888400D01*
X427084000Y-45888400D02*
X427084000Y-45348400D01*
X427084000Y-45348400D02*
X428134000Y-45348400D01*
%TO.C,J4*%
X484505000Y-31750000D02*
X486410000Y-31750000D01*
X486410000Y-31750000D02*
X486410000Y-62230000D01*
X486410000Y-62230000D02*
X483870000Y-62230000D01*
X483870000Y-62230000D02*
X483870000Y-32385000D01*
X483870000Y-32385000D02*
X484505000Y-31750000D01*
%TO.C,FB2*%
X478348800Y-37051400D02*
X478348800Y-36151400D01*
X478348800Y-36151400D02*
X480348800Y-36151400D01*
X480348800Y-36151400D02*
X480348800Y-37051400D01*
X480348800Y-37051400D02*
X478348800Y-37051400D01*
%TO.C,F1*%
X441820200Y-43027400D02*
X440220200Y-43027400D01*
X440220200Y-43027400D02*
X440220200Y-39827400D01*
X440220200Y-39827400D02*
X441820200Y-39827400D01*
X441820200Y-39827400D02*
X441820200Y-43027400D01*
%TO.C,C17*%
X474068670Y-51512223D02*
X474422223Y-51158670D01*
X474422223Y-51158670D02*
X475129330Y-51865777D01*
X475129330Y-51865777D02*
X474775777Y-52219330D01*
X474775777Y-52219330D02*
X474068670Y-51512223D01*
%TO.C,U2*%
X463257848Y-53676343D02*
X454065460Y-44483955D01*
X454065460Y-44483955D02*
X463964955Y-34584460D01*
X463964955Y-34584460D02*
X473864450Y-44483955D01*
X473864450Y-44483955D02*
X464672062Y-53676343D01*
X464672062Y-53676343D02*
X463257848Y-53676343D01*
%TD*%
%TO.C,J8*%
D11*
X426791904Y-38247142D02*
X426744285Y-38294761D01*
X426601428Y-38342380D01*
X426506190Y-38342380D01*
X426363333Y-38294761D01*
X426268095Y-38199523D01*
X426220476Y-38104285D01*
X426172857Y-37913809D01*
X426172857Y-37770952D01*
X426220476Y-37580476D01*
X426268095Y-37485238D01*
X426363333Y-37390000D01*
X426506190Y-37342380D01*
X426601428Y-37342380D01*
X426744285Y-37390000D01*
X426791904Y-37437619D01*
X427363333Y-38342380D02*
X427268095Y-38294761D01*
X427220476Y-38247142D01*
X427172857Y-38151904D01*
X427172857Y-37866190D01*
X427220476Y-37770952D01*
X427268095Y-37723333D01*
X427363333Y-37675714D01*
X427506190Y-37675714D01*
X427601428Y-37723333D01*
X427649047Y-37770952D01*
X427696666Y-37866190D01*
X427696666Y-38151904D01*
X427649047Y-38247142D01*
X427601428Y-38294761D01*
X427506190Y-38342380D01*
X427363333Y-38342380D01*
X428125238Y-37675714D02*
X428125238Y-38342380D01*
X428125238Y-37770952D02*
X428172857Y-37723333D01*
X428268095Y-37675714D01*
X428410952Y-37675714D01*
X428506190Y-37723333D01*
X428553809Y-37818571D01*
X428553809Y-38342380D01*
X429030000Y-37675714D02*
X429030000Y-38342380D01*
X429030000Y-37770952D02*
X429077619Y-37723333D01*
X429172857Y-37675714D01*
X429315714Y-37675714D01*
X429410952Y-37723333D01*
X429458571Y-37818571D01*
X429458571Y-38342380D01*
X429696666Y-38437619D02*
X430458571Y-38437619D01*
X430887142Y-37342380D02*
X430982380Y-37342380D01*
X431077619Y-37390000D01*
X431125238Y-37437619D01*
X431172857Y-37532857D01*
X431220476Y-37723333D01*
X431220476Y-37961428D01*
X431172857Y-38151904D01*
X431125238Y-38247142D01*
X431077619Y-38294761D01*
X430982380Y-38342380D01*
X430887142Y-38342380D01*
X430791904Y-38294761D01*
X430744285Y-38247142D01*
X430696666Y-38151904D01*
X430649047Y-37961428D01*
X430649047Y-37723333D01*
X430696666Y-37532857D01*
X430744285Y-37437619D01*
X430791904Y-37390000D01*
X430887142Y-37342380D01*
X432172857Y-38342380D02*
X431601428Y-38342380D01*
X431887142Y-38342380D02*
X431887142Y-37342380D01*
X431791904Y-37485238D01*
X431696666Y-37580476D01*
X431601428Y-37628095D01*
X432506190Y-38342380D02*
X433030000Y-37675714D01*
X432506190Y-37675714D02*
X433030000Y-38342380D01*
X433601428Y-37342380D02*
X433696666Y-37342380D01*
X433791904Y-37390000D01*
X433839523Y-37437619D01*
X433887142Y-37532857D01*
X433934761Y-37723333D01*
X433934761Y-37961428D01*
X433887142Y-38151904D01*
X433839523Y-38247142D01*
X433791904Y-38294761D01*
X433696666Y-38342380D01*
X433601428Y-38342380D01*
X433506190Y-38294761D01*
X433458571Y-38247142D01*
X433410952Y-38151904D01*
X433363333Y-37961428D01*
X433363333Y-37723333D01*
X433410952Y-37532857D01*
X433458571Y-37437619D01*
X433506190Y-37390000D01*
X433601428Y-37342380D01*
X434315714Y-37437619D02*
X434363333Y-37390000D01*
X434458571Y-37342380D01*
X434696666Y-37342380D01*
X434791904Y-37390000D01*
X434839523Y-37437619D01*
X434887142Y-37532857D01*
X434887142Y-37628095D01*
X434839523Y-37770952D01*
X434268095Y-38342380D01*
X434887142Y-38342380D01*
X429982380Y-34623333D02*
X430696666Y-34623333D01*
X430839523Y-34670952D01*
X430934761Y-34766190D01*
X430982380Y-34909047D01*
X430982380Y-35004285D01*
X430410952Y-34004285D02*
X430363333Y-34099523D01*
X430315714Y-34147142D01*
X430220476Y-34194761D01*
X430172857Y-34194761D01*
X430077619Y-34147142D01*
X430030000Y-34099523D01*
X429982380Y-34004285D01*
X429982380Y-33813809D01*
X430030000Y-33718571D01*
X430077619Y-33670952D01*
X430172857Y-33623333D01*
X430220476Y-33623333D01*
X430315714Y-33670952D01*
X430363333Y-33718571D01*
X430410952Y-33813809D01*
X430410952Y-34004285D01*
X430458571Y-34099523D01*
X430506190Y-34147142D01*
X430601428Y-34194761D01*
X430791904Y-34194761D01*
X430887142Y-34147142D01*
X430934761Y-34099523D01*
X430982380Y-34004285D01*
X430982380Y-33813809D01*
X430934761Y-33718571D01*
X430887142Y-33670952D01*
X430791904Y-33623333D01*
X430601428Y-33623333D01*
X430506190Y-33670952D01*
X430458571Y-33718571D01*
X430410952Y-33813809D01*
%TO.C,J3*%
X417139523Y-58662380D02*
X416663333Y-58662380D01*
X416663333Y-57662380D01*
X417853809Y-58614761D02*
X417758571Y-58662380D01*
X417568095Y-58662380D01*
X417472857Y-58614761D01*
X417425238Y-58519523D01*
X417425238Y-58138571D01*
X417472857Y-58043333D01*
X417568095Y-57995714D01*
X417758571Y-57995714D01*
X417853809Y-58043333D01*
X417901428Y-58138571D01*
X417901428Y-58233809D01*
X417425238Y-58329047D01*
X418187142Y-57995714D02*
X418568095Y-57995714D01*
X418330000Y-58662380D02*
X418330000Y-57805238D01*
X418377619Y-57710000D01*
X418472857Y-57662380D01*
X418568095Y-57662380D01*
X418758571Y-57995714D02*
X419139523Y-57995714D01*
X418901428Y-57662380D02*
X418901428Y-58519523D01*
X418949047Y-58614761D01*
X419044285Y-58662380D01*
X419139523Y-58662380D01*
X417282380Y-49863333D02*
X417996666Y-49863333D01*
X418139523Y-49910952D01*
X418234761Y-50006190D01*
X418282380Y-50149047D01*
X418282380Y-50244285D01*
X417282380Y-49482380D02*
X417282380Y-48863333D01*
X417663333Y-49196666D01*
X417663333Y-49053809D01*
X417710952Y-48958571D01*
X417758571Y-48910952D01*
X417853809Y-48863333D01*
X418091904Y-48863333D01*
X418187142Y-48910952D01*
X418234761Y-48958571D01*
X418282380Y-49053809D01*
X418282380Y-49339523D01*
X418234761Y-49434761D01*
X418187142Y-49482380D01*
%TO.C,J1*%
X420130457Y-42670361D02*
X420273314Y-42717980D01*
X420511409Y-42717980D01*
X420606647Y-42670361D01*
X420654266Y-42622742D01*
X420701885Y-42527504D01*
X420701885Y-42432266D01*
X420654266Y-42337028D01*
X420606647Y-42289409D01*
X420511409Y-42241790D01*
X420320933Y-42194171D01*
X420225695Y-42146552D01*
X420178076Y-42098933D01*
X420130457Y-42003695D01*
X420130457Y-41908457D01*
X420178076Y-41813219D01*
X420225695Y-41765600D01*
X420320933Y-41717980D01*
X420559028Y-41717980D01*
X420701885Y-41765600D01*
X421035219Y-41717980D02*
X421273314Y-42717980D01*
X421463790Y-42003695D01*
X421654266Y-42717980D01*
X421892361Y-41717980D01*
X422273314Y-42717980D02*
X422273314Y-41717980D01*
X422511409Y-41717980D01*
X422654266Y-41765600D01*
X422749504Y-41860838D01*
X422797123Y-41956076D01*
X422844742Y-42146552D01*
X422844742Y-42289409D01*
X422797123Y-42479885D01*
X422749504Y-42575123D01*
X422654266Y-42670361D01*
X422511409Y-42717980D01*
X422273314Y-42717980D01*
%TO.C,R12*%
X432174580Y-35240838D02*
X432174580Y-35812266D01*
X432174580Y-35526552D02*
X431174580Y-35526552D01*
X431317438Y-35621790D01*
X431412676Y-35717028D01*
X431460295Y-35812266D01*
X432174580Y-34812266D02*
X431174580Y-34812266D01*
X431793628Y-34717028D02*
X432174580Y-34431314D01*
X431507914Y-34431314D02*
X431888866Y-34812266D01*
X431174580Y-33526552D02*
X431174580Y-34002742D01*
X431650771Y-34050361D01*
X431603152Y-34002742D01*
X431555533Y-33907504D01*
X431555533Y-33669409D01*
X431603152Y-33574171D01*
X431650771Y-33526552D01*
X431746009Y-33478933D01*
X431984104Y-33478933D01*
X432079342Y-33526552D01*
X432126961Y-33574171D01*
X432174580Y-33669409D01*
X432174580Y-33907504D01*
X432126961Y-34002742D01*
X432079342Y-34050361D01*
D12*
X433009819Y-34812742D02*
X432886009Y-34899409D01*
X433009819Y-34961314D02*
X432749819Y-34961314D01*
X432749819Y-34862266D01*
X432762200Y-34837504D01*
X432774580Y-34825123D01*
X432799342Y-34812742D01*
X432836485Y-34812742D01*
X432861247Y-34825123D01*
X432873628Y-34837504D01*
X432886009Y-34862266D01*
X432886009Y-34961314D01*
X433009819Y-34565123D02*
X433009819Y-34713695D01*
X433009819Y-34639409D02*
X432749819Y-34639409D01*
X432786961Y-34664171D01*
X432811723Y-34688933D01*
X432824104Y-34713695D01*
X432774580Y-34466076D02*
X432762200Y-34453695D01*
X432749819Y-34428933D01*
X432749819Y-34367028D01*
X432762200Y-34342266D01*
X432774580Y-34329885D01*
X432799342Y-34317504D01*
X432824104Y-34317504D01*
X432861247Y-34329885D01*
X433009819Y-34478457D01*
X433009819Y-34317504D01*
%TO.C,R7*%
D11*
X462578380Y-31075238D02*
X462578380Y-31646666D01*
X462578380Y-31360952D02*
X461578380Y-31360952D01*
X461721238Y-31456190D01*
X461816476Y-31551428D01*
X461864095Y-31646666D01*
X462578380Y-30646666D02*
X461578380Y-30646666D01*
X462197428Y-30551428D02*
X462578380Y-30265714D01*
X461911714Y-30265714D02*
X462292666Y-30646666D01*
X461578380Y-29360952D02*
X461578380Y-29837142D01*
X462054571Y-29884761D01*
X462006952Y-29837142D01*
X461959333Y-29741904D01*
X461959333Y-29503809D01*
X462006952Y-29408571D01*
X462054571Y-29360952D01*
X462149809Y-29313333D01*
X462387904Y-29313333D01*
X462483142Y-29360952D01*
X462530761Y-29408571D01*
X462578380Y-29503809D01*
X462578380Y-29741904D01*
X462530761Y-29837142D01*
X462483142Y-29884761D01*
D12*
X463413619Y-30523333D02*
X463289809Y-30610000D01*
X463413619Y-30671904D02*
X463153619Y-30671904D01*
X463153619Y-30572857D01*
X463166000Y-30548095D01*
X463178380Y-30535714D01*
X463203142Y-30523333D01*
X463240285Y-30523333D01*
X463265047Y-30535714D01*
X463277428Y-30548095D01*
X463289809Y-30572857D01*
X463289809Y-30671904D01*
X463153619Y-30436666D02*
X463153619Y-30263333D01*
X463413619Y-30374761D01*
%TO.C,R6*%
D11*
X481755380Y-33615238D02*
X481755380Y-34186666D01*
X481755380Y-33900952D02*
X480755380Y-33900952D01*
X480898238Y-33996190D01*
X480993476Y-34091428D01*
X481041095Y-34186666D01*
X481755380Y-33186666D02*
X480755380Y-33186666D01*
X481374428Y-33091428D02*
X481755380Y-32805714D01*
X481088714Y-32805714D02*
X481469666Y-33186666D01*
X480755380Y-31900952D02*
X480755380Y-32377142D01*
X481231571Y-32424761D01*
X481183952Y-32377142D01*
X481136333Y-32281904D01*
X481136333Y-32043809D01*
X481183952Y-31948571D01*
X481231571Y-31900952D01*
X481326809Y-31853333D01*
X481564904Y-31853333D01*
X481660142Y-31900952D01*
X481707761Y-31948571D01*
X481755380Y-32043809D01*
X481755380Y-32281904D01*
X481707761Y-32377142D01*
X481660142Y-32424761D01*
D12*
X482590619Y-33063333D02*
X482466809Y-33150000D01*
X482590619Y-33211904D02*
X482330619Y-33211904D01*
X482330619Y-33112857D01*
X482343000Y-33088095D01*
X482355380Y-33075714D01*
X482380142Y-33063333D01*
X482417285Y-33063333D01*
X482442047Y-33075714D01*
X482454428Y-33088095D01*
X482466809Y-33112857D01*
X482466809Y-33211904D01*
X482330619Y-32840476D02*
X482330619Y-32890000D01*
X482343000Y-32914761D01*
X482355380Y-32927142D01*
X482392523Y-32951904D01*
X482442047Y-32964285D01*
X482541095Y-32964285D01*
X482565857Y-32951904D01*
X482578238Y-32939523D01*
X482590619Y-32914761D01*
X482590619Y-32865238D01*
X482578238Y-32840476D01*
X482565857Y-32828095D01*
X482541095Y-32815714D01*
X482479190Y-32815714D01*
X482454428Y-32828095D01*
X482442047Y-32840476D01*
X482429666Y-32865238D01*
X482429666Y-32914761D01*
X482442047Y-32939523D01*
X482454428Y-32951904D01*
X482479190Y-32964285D01*
%TO.C,R3*%
D11*
X466188380Y-31551428D02*
X466188380Y-32122857D01*
X466188380Y-31837142D02*
X465188380Y-31837142D01*
X465331238Y-31932380D01*
X465426476Y-32027619D01*
X465474095Y-32122857D01*
X465188380Y-30932380D02*
X465188380Y-30837142D01*
X465236000Y-30741904D01*
X465283619Y-30694285D01*
X465378857Y-30646666D01*
X465569333Y-30599047D01*
X465807428Y-30599047D01*
X465997904Y-30646666D01*
X466093142Y-30694285D01*
X466140761Y-30741904D01*
X466188380Y-30837142D01*
X466188380Y-30932380D01*
X466140761Y-31027619D01*
X466093142Y-31075238D01*
X465997904Y-31122857D01*
X465807428Y-31170476D01*
X465569333Y-31170476D01*
X465378857Y-31122857D01*
X465283619Y-31075238D01*
X465236000Y-31027619D01*
X465188380Y-30932380D01*
X465188380Y-29980000D02*
X465188380Y-29884761D01*
X465236000Y-29789523D01*
X465283619Y-29741904D01*
X465378857Y-29694285D01*
X465569333Y-29646666D01*
X465807428Y-29646666D01*
X465997904Y-29694285D01*
X466093142Y-29741904D01*
X466140761Y-29789523D01*
X466188380Y-29884761D01*
X466188380Y-29980000D01*
X466140761Y-30075238D01*
X466093142Y-30122857D01*
X465997904Y-30170476D01*
X465807428Y-30218095D01*
X465569333Y-30218095D01*
X465378857Y-30170476D01*
X465283619Y-30122857D01*
X465236000Y-30075238D01*
X465188380Y-29980000D01*
X466188380Y-29218095D02*
X465188380Y-29218095D01*
X465807428Y-29122857D02*
X466188380Y-28837142D01*
X465521714Y-28837142D02*
X465902666Y-29218095D01*
D12*
X464683619Y-30523333D02*
X464559809Y-30610000D01*
X464683619Y-30671904D02*
X464423619Y-30671904D01*
X464423619Y-30572857D01*
X464436000Y-30548095D01*
X464448380Y-30535714D01*
X464473142Y-30523333D01*
X464510285Y-30523333D01*
X464535047Y-30535714D01*
X464547428Y-30548095D01*
X464559809Y-30572857D01*
X464559809Y-30671904D01*
X464423619Y-30436666D02*
X464423619Y-30275714D01*
X464522666Y-30362380D01*
X464522666Y-30325238D01*
X464535047Y-30300476D01*
X464547428Y-30288095D01*
X464572190Y-30275714D01*
X464634095Y-30275714D01*
X464658857Y-30288095D01*
X464671238Y-30300476D01*
X464683619Y-30325238D01*
X464683619Y-30399523D01*
X464671238Y-30424285D01*
X464658857Y-30436666D01*
%TO.C,R1*%
D11*
X472257571Y-31794380D02*
X471686142Y-31794380D01*
X471971857Y-31794380D02*
X471971857Y-30794380D01*
X471876619Y-30937238D01*
X471781380Y-31032476D01*
X471686142Y-31080095D01*
X472876619Y-30794380D02*
X472971857Y-30794380D01*
X473067095Y-30842000D01*
X473114714Y-30889619D01*
X473162333Y-30984857D01*
X473209952Y-31175333D01*
X473209952Y-31413428D01*
X473162333Y-31603904D01*
X473114714Y-31699142D01*
X473067095Y-31746761D01*
X472971857Y-31794380D01*
X472876619Y-31794380D01*
X472781380Y-31746761D01*
X472733761Y-31699142D01*
X472686142Y-31603904D01*
X472638523Y-31413428D01*
X472638523Y-31175333D01*
X472686142Y-30984857D01*
X472733761Y-30889619D01*
X472781380Y-30842000D01*
X472876619Y-30794380D01*
X473829000Y-30794380D02*
X473924238Y-30794380D01*
X474019476Y-30842000D01*
X474067095Y-30889619D01*
X474114714Y-30984857D01*
X474162333Y-31175333D01*
X474162333Y-31413428D01*
X474114714Y-31603904D01*
X474067095Y-31699142D01*
X474019476Y-31746761D01*
X473924238Y-31794380D01*
X473829000Y-31794380D01*
X473733761Y-31746761D01*
X473686142Y-31699142D01*
X473638523Y-31603904D01*
X473590904Y-31413428D01*
X473590904Y-31175333D01*
X473638523Y-30984857D01*
X473686142Y-30889619D01*
X473733761Y-30842000D01*
X473829000Y-30794380D01*
X474590904Y-31794380D02*
X474590904Y-30794380D01*
X474686142Y-31413428D02*
X474971857Y-31794380D01*
X474971857Y-31127714D02*
X474590904Y-31508666D01*
D12*
X473285666Y-32629619D02*
X473199000Y-32505809D01*
X473137095Y-32629619D02*
X473137095Y-32369619D01*
X473236142Y-32369619D01*
X473260904Y-32382000D01*
X473273285Y-32394380D01*
X473285666Y-32419142D01*
X473285666Y-32456285D01*
X473273285Y-32481047D01*
X473260904Y-32493428D01*
X473236142Y-32505809D01*
X473137095Y-32505809D01*
X473533285Y-32629619D02*
X473384714Y-32629619D01*
X473459000Y-32629619D02*
X473459000Y-32369619D01*
X473434238Y-32406761D01*
X473409476Y-32431523D01*
X473384714Y-32443904D01*
%TO.C,U3*%
D11*
X447429619Y-37026380D02*
X447667714Y-38026380D01*
X447858190Y-37312095D01*
X448048666Y-38026380D01*
X448286761Y-37026380D01*
X448620095Y-37121619D02*
X448667714Y-37074000D01*
X448762952Y-37026380D01*
X449001047Y-37026380D01*
X449096285Y-37074000D01*
X449143904Y-37121619D01*
X449191523Y-37216857D01*
X449191523Y-37312095D01*
X449143904Y-37454952D01*
X448572476Y-38026380D01*
X449191523Y-38026380D01*
X450096285Y-37026380D02*
X449620095Y-37026380D01*
X449572476Y-37502571D01*
X449620095Y-37454952D01*
X449715333Y-37407333D01*
X449953428Y-37407333D01*
X450048666Y-37454952D01*
X450096285Y-37502571D01*
X450143904Y-37597809D01*
X450143904Y-37835904D01*
X450096285Y-37931142D01*
X450048666Y-37978761D01*
X449953428Y-38026380D01*
X449715333Y-38026380D01*
X449620095Y-37978761D01*
X449572476Y-37931142D01*
X450572476Y-38026380D02*
X450572476Y-37026380D01*
X451143904Y-38026380D01*
X451143904Y-37026380D01*
X451810571Y-37026380D02*
X451905809Y-37026380D01*
X452001047Y-37074000D01*
X452048666Y-37121619D01*
X452096285Y-37216857D01*
X452143904Y-37407333D01*
X452143904Y-37645428D01*
X452096285Y-37835904D01*
X452048666Y-37931142D01*
X452001047Y-37978761D01*
X451905809Y-38026380D01*
X451810571Y-38026380D01*
X451715333Y-37978761D01*
X451667714Y-37931142D01*
X451620095Y-37835904D01*
X451572476Y-37645428D01*
X451572476Y-37407333D01*
X451620095Y-37216857D01*
X451667714Y-37121619D01*
X451715333Y-37074000D01*
X451810571Y-37026380D01*
X453096285Y-38026380D02*
X452524857Y-38026380D01*
X452810571Y-38026380D02*
X452810571Y-37026380D01*
X452715333Y-37169238D01*
X452620095Y-37264476D01*
X452524857Y-37312095D01*
X454048666Y-37074000D02*
X453953428Y-37026380D01*
X453810571Y-37026380D01*
X453667714Y-37074000D01*
X453572476Y-37169238D01*
X453524857Y-37264476D01*
X453477238Y-37454952D01*
X453477238Y-37597809D01*
X453524857Y-37788285D01*
X453572476Y-37883523D01*
X453667714Y-37978761D01*
X453810571Y-38026380D01*
X453905809Y-38026380D01*
X454048666Y-37978761D01*
X454096285Y-37931142D01*
X454096285Y-37597809D01*
X453905809Y-37597809D01*
X454382000Y-37026380D02*
X454715333Y-38026380D01*
X455048666Y-37026380D01*
X455286761Y-37026380D02*
X455953428Y-37026380D01*
X455286761Y-38026380D01*
X455953428Y-38026380D01*
X456334380Y-37502571D02*
X456667714Y-37502571D01*
X456810571Y-38026380D02*
X456334380Y-38026380D01*
X456334380Y-37026380D01*
X456810571Y-37026380D01*
X457239142Y-38026380D02*
X457239142Y-37026380D01*
X458239142Y-37074000D02*
X458143904Y-37026380D01*
X458001047Y-37026380D01*
X457858190Y-37074000D01*
X457762952Y-37169238D01*
X457715333Y-37264476D01*
X457667714Y-37454952D01*
X457667714Y-37597809D01*
X457715333Y-37788285D01*
X457762952Y-37883523D01*
X457858190Y-37978761D01*
X458001047Y-38026380D01*
X458096285Y-38026380D01*
X458239142Y-37978761D01*
X458286761Y-37931142D01*
X458286761Y-37597809D01*
X458096285Y-37597809D01*
%TO.C,R13*%
X470241377Y-51680161D02*
X469769972Y-52151566D01*
X470342392Y-51242428D02*
X469668957Y-51579146D01*
X470106690Y-52016879D01*
X470780125Y-51747505D02*
X471251529Y-52218909D01*
X470241377Y-52622970D01*
D12*
X470917842Y-51171381D02*
X470944106Y-51022552D01*
X470812787Y-51066325D02*
X470996634Y-50882477D01*
X471066672Y-50952514D01*
X471075426Y-50978778D01*
X471075426Y-50996288D01*
X471066672Y-51022552D01*
X471040408Y-51048816D01*
X471014144Y-51057570D01*
X470996634Y-51057570D01*
X470970370Y-51048816D01*
X470900333Y-50978778D01*
X471092936Y-51346474D02*
X470987880Y-51241418D01*
X471040408Y-51293946D02*
X471224255Y-51110098D01*
X471180482Y-51118853D01*
X471145463Y-51118853D01*
X471119200Y-51110098D01*
X471338066Y-51223909D02*
X471451876Y-51337719D01*
X471320557Y-51346474D01*
X471346821Y-51372738D01*
X471355575Y-51399002D01*
X471355575Y-51416511D01*
X471346821Y-51442775D01*
X471303047Y-51486548D01*
X471276783Y-51495303D01*
X471259274Y-51495303D01*
X471233010Y-51486548D01*
X471180482Y-51434021D01*
X471171727Y-51407757D01*
X471171727Y-51390247D01*
%TO.C,C16*%
D11*
X470834793Y-54544068D02*
X470430732Y-54140007D01*
X470632763Y-54342038D02*
X471339869Y-53634931D01*
X471171511Y-53668603D01*
X471036824Y-53668603D01*
X470935808Y-53634931D01*
X471743931Y-54173679D02*
X471811274Y-54173679D01*
X471912289Y-54207351D01*
X472080648Y-54375710D01*
X472114320Y-54476725D01*
X472114320Y-54544068D01*
X472080648Y-54645084D01*
X472013305Y-54712427D01*
X471878618Y-54779771D01*
X471070495Y-54779771D01*
X471508228Y-55217504D01*
X472282679Y-55049145D02*
X471575572Y-55756252D01*
X472249007Y-55082817D02*
X472350022Y-55116488D01*
X472484709Y-55251175D01*
X472518381Y-55352191D01*
X472518381Y-55419534D01*
X472484709Y-55520549D01*
X472282679Y-55722580D01*
X472181663Y-55756252D01*
X472114320Y-55756252D01*
X472013305Y-55722580D01*
X471878618Y-55587893D01*
X471844946Y-55486878D01*
D12*
X470612223Y-55448492D02*
X470595387Y-55448492D01*
X470561715Y-55431656D01*
X470544879Y-55414820D01*
X470528043Y-55381148D01*
X470528043Y-55347477D01*
X470536461Y-55322223D01*
X470561715Y-55280133D01*
X470586969Y-55254879D01*
X470629059Y-55229625D01*
X470654312Y-55221208D01*
X470687984Y-55221208D01*
X470721656Y-55238043D01*
X470738492Y-55254879D01*
X470755328Y-55288551D01*
X470755328Y-55305387D01*
X470763746Y-55633687D02*
X470662730Y-55532671D01*
X470713238Y-55583179D02*
X470890015Y-55406402D01*
X470847925Y-55414820D01*
X470814253Y-55414820D01*
X470789000Y-55406402D01*
X471092045Y-55608433D02*
X471058374Y-55574761D01*
X471033120Y-55566343D01*
X471016284Y-55566343D01*
X470974194Y-55574761D01*
X470932104Y-55600015D01*
X470864761Y-55667358D01*
X470856343Y-55692612D01*
X470856343Y-55709448D01*
X470864761Y-55734702D01*
X470898433Y-55768374D01*
X470923687Y-55776791D01*
X470940522Y-55776791D01*
X470965776Y-55768374D01*
X471007866Y-55726284D01*
X471016284Y-55701030D01*
X471016284Y-55684194D01*
X471007866Y-55658940D01*
X470974194Y-55625269D01*
X470948940Y-55616851D01*
X470932104Y-55616851D01*
X470906851Y-55625269D01*
%TO.C,Y1*%
D11*
X473550946Y-56841640D02*
X473146885Y-57245701D01*
X473348915Y-57043671D02*
X472641809Y-56336564D01*
X472675480Y-56504923D01*
X472675480Y-56639610D01*
X472641809Y-56740625D01*
X473449931Y-55528442D02*
X473315244Y-55663129D01*
X473281572Y-55764144D01*
X473281572Y-55831488D01*
X473315244Y-55999847D01*
X473416259Y-56168205D01*
X473685633Y-56437579D01*
X473786648Y-56471251D01*
X473853992Y-56471251D01*
X473955007Y-56437579D01*
X474089694Y-56302892D01*
X474123366Y-56201877D01*
X474123366Y-56134534D01*
X474089694Y-56033518D01*
X473921335Y-55865160D01*
X473820320Y-55831488D01*
X473752976Y-55831488D01*
X473651961Y-55865160D01*
X473517274Y-55999847D01*
X473483602Y-56100862D01*
X473483602Y-56168205D01*
X473517274Y-56269221D01*
X474527427Y-55865160D02*
X473820320Y-55158053D01*
X474561099Y-55427427D01*
X474291724Y-54686648D01*
X474998831Y-55393755D01*
X475335549Y-55057037D02*
X474628442Y-54349931D01*
X474965160Y-54686648D02*
X475369221Y-54282587D01*
X475739610Y-54652976D02*
X475032503Y-53945870D01*
X475537579Y-53912198D02*
X475907969Y-53541809D01*
X476008984Y-54383602D01*
X476379373Y-54013213D01*
D13*
X472446512Y-53817917D02*
X472682214Y-54053619D01*
X472022248Y-53723636D02*
X472446512Y-53817917D01*
X472352231Y-53393653D01*
X473271470Y-53464363D02*
X472988627Y-53747206D01*
X473130049Y-53605785D02*
X472635074Y-53110810D01*
X472658644Y-53228661D01*
X472658644Y-53322942D01*
X472635074Y-53393653D01*
%TO.C,U1*%
D11*
X432005504Y-42748580D02*
X432672171Y-43748580D01*
X432672171Y-42748580D02*
X432005504Y-43748580D01*
X433624552Y-43653342D02*
X433576933Y-43700961D01*
X433434076Y-43748580D01*
X433338838Y-43748580D01*
X433195980Y-43700961D01*
X433100742Y-43605723D01*
X433053123Y-43510485D01*
X433005504Y-43320009D01*
X433005504Y-43177152D01*
X433053123Y-42986676D01*
X433100742Y-42891438D01*
X433195980Y-42796200D01*
X433338838Y-42748580D01*
X433434076Y-42748580D01*
X433576933Y-42796200D01*
X433624552Y-42843819D01*
X434481695Y-42748580D02*
X434291219Y-42748580D01*
X434195980Y-42796200D01*
X434148361Y-42843819D01*
X434053123Y-42986676D01*
X434005504Y-43177152D01*
X434005504Y-43558104D01*
X434053123Y-43653342D01*
X434100742Y-43700961D01*
X434195980Y-43748580D01*
X434386457Y-43748580D01*
X434481695Y-43700961D01*
X434529314Y-43653342D01*
X434576933Y-43558104D01*
X434576933Y-43320009D01*
X434529314Y-43224771D01*
X434481695Y-43177152D01*
X434386457Y-43129533D01*
X434195980Y-43129533D01*
X434100742Y-43177152D01*
X434053123Y-43224771D01*
X434005504Y-43320009D01*
X434957885Y-42843819D02*
X435005504Y-42796200D01*
X435100742Y-42748580D01*
X435338838Y-42748580D01*
X435434076Y-42796200D01*
X435481695Y-42843819D01*
X435529314Y-42939057D01*
X435529314Y-43034295D01*
X435481695Y-43177152D01*
X434910266Y-43748580D01*
X435529314Y-43748580D01*
X436148361Y-42748580D02*
X436243600Y-42748580D01*
X436338838Y-42796200D01*
X436386457Y-42843819D01*
X436434076Y-42939057D01*
X436481695Y-43129533D01*
X436481695Y-43367628D01*
X436434076Y-43558104D01*
X436386457Y-43653342D01*
X436338838Y-43700961D01*
X436243600Y-43748580D01*
X436148361Y-43748580D01*
X436053123Y-43700961D01*
X436005504Y-43653342D01*
X435957885Y-43558104D01*
X435910266Y-43367628D01*
X435910266Y-43129533D01*
X435957885Y-42939057D01*
X436005504Y-42843819D01*
X436053123Y-42796200D01*
X436148361Y-42748580D01*
X437338838Y-42748580D02*
X437148361Y-42748580D01*
X437053123Y-42796200D01*
X437005504Y-42843819D01*
X436910266Y-42986676D01*
X436862647Y-43177152D01*
X436862647Y-43558104D01*
X436910266Y-43653342D01*
X436957885Y-43700961D01*
X437053123Y-43748580D01*
X437243600Y-43748580D01*
X437338838Y-43700961D01*
X437386457Y-43653342D01*
X437434076Y-43558104D01*
X437434076Y-43320009D01*
X437386457Y-43224771D01*
X437338838Y-43177152D01*
X437243600Y-43129533D01*
X437053123Y-43129533D01*
X436957885Y-43177152D01*
X436910266Y-43224771D01*
X436862647Y-43320009D01*
X437862647Y-43748580D02*
X437862647Y-42748580D01*
X438243600Y-42748580D01*
X438338838Y-42796200D01*
X438386457Y-42843819D01*
X438434076Y-42939057D01*
X438434076Y-43081914D01*
X438386457Y-43177152D01*
X438338838Y-43224771D01*
X438243600Y-43272390D01*
X437862647Y-43272390D01*
X438767409Y-42748580D02*
X439386457Y-42748580D01*
X439053123Y-43129533D01*
X439195980Y-43129533D01*
X439291219Y-43177152D01*
X439338838Y-43224771D01*
X439386457Y-43320009D01*
X439386457Y-43558104D01*
X439338838Y-43653342D01*
X439291219Y-43700961D01*
X439195980Y-43748580D01*
X438910266Y-43748580D01*
X438815028Y-43700961D01*
X438767409Y-43653342D01*
X439719790Y-42748580D02*
X440338838Y-42748580D01*
X440005504Y-43129533D01*
X440148361Y-43129533D01*
X440243600Y-43177152D01*
X440291219Y-43224771D01*
X440338838Y-43320009D01*
X440338838Y-43558104D01*
X440291219Y-43653342D01*
X440243600Y-43700961D01*
X440148361Y-43748580D01*
X439862647Y-43748580D01*
X439767409Y-43700961D01*
X439719790Y-43653342D01*
X440719790Y-42843819D02*
X440767409Y-42796200D01*
X440862647Y-42748580D01*
X441100742Y-42748580D01*
X441195980Y-42796200D01*
X441243600Y-42843819D01*
X441291219Y-42939057D01*
X441291219Y-43034295D01*
X441243600Y-43177152D01*
X440672171Y-43748580D01*
X441291219Y-43748580D01*
X441719790Y-43748580D02*
X441719790Y-42748580D01*
X442053123Y-43462866D01*
X442386457Y-42748580D01*
X442386457Y-43748580D01*
X443434076Y-43748580D02*
X443100742Y-43272390D01*
X442862647Y-43748580D02*
X442862647Y-42748580D01*
X443243600Y-42748580D01*
X443338838Y-42796200D01*
X443386457Y-42843819D01*
X443434076Y-42939057D01*
X443434076Y-43081914D01*
X443386457Y-43177152D01*
X443338838Y-43224771D01*
X443243600Y-43272390D01*
X442862647Y-43272390D01*
D14*
X437469790Y-46177152D02*
X437874552Y-46177152D01*
X437922171Y-46153342D01*
X437945980Y-46129533D01*
X437969790Y-46081914D01*
X437969790Y-45986676D01*
X437945980Y-45939057D01*
X437922171Y-45915247D01*
X437874552Y-45891438D01*
X437469790Y-45891438D01*
X437969790Y-45391438D02*
X437969790Y-45677152D01*
X437969790Y-45534295D02*
X437469790Y-45534295D01*
X437541219Y-45581914D01*
X437588838Y-45629533D01*
X437612647Y-45677152D01*
%TO.C,SW3*%
D11*
X479329904Y-33178380D02*
X478996571Y-32702190D01*
X478758476Y-33178380D02*
X478758476Y-32178380D01*
X479139428Y-32178380D01*
X479234666Y-32226000D01*
X479282285Y-32273619D01*
X479329904Y-32368857D01*
X479329904Y-32511714D01*
X479282285Y-32606952D01*
X479234666Y-32654571D01*
X479139428Y-32702190D01*
X478758476Y-32702190D01*
X480139428Y-33130761D02*
X480044190Y-33178380D01*
X479853714Y-33178380D01*
X479758476Y-33130761D01*
X479710857Y-33035523D01*
X479710857Y-32654571D01*
X479758476Y-32559333D01*
X479853714Y-32511714D01*
X480044190Y-32511714D01*
X480139428Y-32559333D01*
X480187047Y-32654571D01*
X480187047Y-32749809D01*
X479710857Y-32845047D01*
X480568000Y-33130761D02*
X480663238Y-33178380D01*
X480853714Y-33178380D01*
X480948952Y-33130761D01*
X480996571Y-33035523D01*
X480996571Y-32987904D01*
X480948952Y-32892666D01*
X480853714Y-32845047D01*
X480710857Y-32845047D01*
X480615619Y-32797428D01*
X480568000Y-32702190D01*
X480568000Y-32654571D01*
X480615619Y-32559333D01*
X480710857Y-32511714D01*
X480853714Y-32511714D01*
X480948952Y-32559333D01*
X481806095Y-33130761D02*
X481710857Y-33178380D01*
X481520380Y-33178380D01*
X481425142Y-33130761D01*
X481377523Y-33035523D01*
X481377523Y-32654571D01*
X481425142Y-32559333D01*
X481520380Y-32511714D01*
X481710857Y-32511714D01*
X481806095Y-32559333D01*
X481853714Y-32654571D01*
X481853714Y-32749809D01*
X481377523Y-32845047D01*
X482139428Y-32511714D02*
X482520380Y-32511714D01*
X482282285Y-32178380D02*
X482282285Y-33035523D01*
X482329904Y-33130761D01*
X482425142Y-33178380D01*
X482520380Y-33178380D01*
X479234666Y-27530761D02*
X479377523Y-27578380D01*
X479615619Y-27578380D01*
X479710857Y-27530761D01*
X479758476Y-27483142D01*
X479806095Y-27387904D01*
X479806095Y-27292666D01*
X479758476Y-27197428D01*
X479710857Y-27149809D01*
X479615619Y-27102190D01*
X479425142Y-27054571D01*
X479329904Y-27006952D01*
X479282285Y-26959333D01*
X479234666Y-26864095D01*
X479234666Y-26768857D01*
X479282285Y-26673619D01*
X479329904Y-26626000D01*
X479425142Y-26578380D01*
X479663238Y-26578380D01*
X479806095Y-26626000D01*
X480139428Y-26578380D02*
X480377523Y-27578380D01*
X480568000Y-26864095D01*
X480758476Y-27578380D01*
X480996571Y-26578380D01*
X481282285Y-26578380D02*
X481901333Y-26578380D01*
X481568000Y-26959333D01*
X481710857Y-26959333D01*
X481806095Y-27006952D01*
X481853714Y-27054571D01*
X481901333Y-27149809D01*
X481901333Y-27387904D01*
X481853714Y-27483142D01*
X481806095Y-27530761D01*
X481710857Y-27578380D01*
X481425142Y-27578380D01*
X481329904Y-27530761D01*
X481282285Y-27483142D01*
%TO.C,SW2*%
X466780761Y-32654571D02*
X466923619Y-32702190D01*
X466971238Y-32749809D01*
X467018857Y-32845047D01*
X467018857Y-32987904D01*
X466971238Y-33083142D01*
X466923619Y-33130761D01*
X466828380Y-33178380D01*
X466447428Y-33178380D01*
X466447428Y-32178380D01*
X466780761Y-32178380D01*
X466876000Y-32226000D01*
X466923619Y-32273619D01*
X466971238Y-32368857D01*
X466971238Y-32464095D01*
X466923619Y-32559333D01*
X466876000Y-32606952D01*
X466780761Y-32654571D01*
X466447428Y-32654571D01*
X467590285Y-33178380D02*
X467495047Y-33130761D01*
X467447428Y-33083142D01*
X467399809Y-32987904D01*
X467399809Y-32702190D01*
X467447428Y-32606952D01*
X467495047Y-32559333D01*
X467590285Y-32511714D01*
X467733142Y-32511714D01*
X467828380Y-32559333D01*
X467876000Y-32606952D01*
X467923619Y-32702190D01*
X467923619Y-32987904D01*
X467876000Y-33083142D01*
X467828380Y-33130761D01*
X467733142Y-33178380D01*
X467590285Y-33178380D01*
X468495047Y-33178380D02*
X468399809Y-33130761D01*
X468352190Y-33083142D01*
X468304571Y-32987904D01*
X468304571Y-32702190D01*
X468352190Y-32606952D01*
X468399809Y-32559333D01*
X468495047Y-32511714D01*
X468637904Y-32511714D01*
X468733142Y-32559333D01*
X468780761Y-32606952D01*
X468828380Y-32702190D01*
X468828380Y-32987904D01*
X468780761Y-33083142D01*
X468733142Y-33130761D01*
X468637904Y-33178380D01*
X468495047Y-33178380D01*
X469114095Y-32511714D02*
X469495047Y-32511714D01*
X469256952Y-32178380D02*
X469256952Y-33035523D01*
X469304571Y-33130761D01*
X469399809Y-33178380D01*
X469495047Y-33178380D01*
X470352190Y-33178380D02*
X469780761Y-33178380D01*
X470066476Y-33178380D02*
X470066476Y-32178380D01*
X469971238Y-32321238D01*
X469876000Y-32416476D01*
X469780761Y-32464095D01*
X467042666Y-27530761D02*
X467185523Y-27578380D01*
X467423619Y-27578380D01*
X467518857Y-27530761D01*
X467566476Y-27483142D01*
X467614095Y-27387904D01*
X467614095Y-27292666D01*
X467566476Y-27197428D01*
X467518857Y-27149809D01*
X467423619Y-27102190D01*
X467233142Y-27054571D01*
X467137904Y-27006952D01*
X467090285Y-26959333D01*
X467042666Y-26864095D01*
X467042666Y-26768857D01*
X467090285Y-26673619D01*
X467137904Y-26626000D01*
X467233142Y-26578380D01*
X467471238Y-26578380D01*
X467614095Y-26626000D01*
X467947428Y-26578380D02*
X468185523Y-27578380D01*
X468376000Y-26864095D01*
X468566476Y-27578380D01*
X468804571Y-26578380D01*
X469137904Y-26673619D02*
X469185523Y-26626000D01*
X469280761Y-26578380D01*
X469518857Y-26578380D01*
X469614095Y-26626000D01*
X469661714Y-26673619D01*
X469709333Y-26768857D01*
X469709333Y-26864095D01*
X469661714Y-27006952D01*
X469090285Y-27578380D01*
X469709333Y-27578380D01*
%TO.C,SW1*%
X471733761Y-32654571D02*
X471876619Y-32702190D01*
X471924238Y-32749809D01*
X471971857Y-32845047D01*
X471971857Y-32987904D01*
X471924238Y-33083142D01*
X471876619Y-33130761D01*
X471781380Y-33178380D01*
X471400428Y-33178380D01*
X471400428Y-32178380D01*
X471733761Y-32178380D01*
X471829000Y-32226000D01*
X471876619Y-32273619D01*
X471924238Y-32368857D01*
X471924238Y-32464095D01*
X471876619Y-32559333D01*
X471829000Y-32606952D01*
X471733761Y-32654571D01*
X471400428Y-32654571D01*
X472543285Y-33178380D02*
X472448047Y-33130761D01*
X472400428Y-33083142D01*
X472352809Y-32987904D01*
X472352809Y-32702190D01*
X472400428Y-32606952D01*
X472448047Y-32559333D01*
X472543285Y-32511714D01*
X472686142Y-32511714D01*
X472781380Y-32559333D01*
X472829000Y-32606952D01*
X472876619Y-32702190D01*
X472876619Y-32987904D01*
X472829000Y-33083142D01*
X472781380Y-33130761D01*
X472686142Y-33178380D01*
X472543285Y-33178380D01*
X473448047Y-33178380D02*
X473352809Y-33130761D01*
X473305190Y-33083142D01*
X473257571Y-32987904D01*
X473257571Y-32702190D01*
X473305190Y-32606952D01*
X473352809Y-32559333D01*
X473448047Y-32511714D01*
X473590904Y-32511714D01*
X473686142Y-32559333D01*
X473733761Y-32606952D01*
X473781380Y-32702190D01*
X473781380Y-32987904D01*
X473733761Y-33083142D01*
X473686142Y-33130761D01*
X473590904Y-33178380D01*
X473448047Y-33178380D01*
X474067095Y-32511714D02*
X474448047Y-32511714D01*
X474209952Y-32178380D02*
X474209952Y-33035523D01*
X474257571Y-33130761D01*
X474352809Y-33178380D01*
X474448047Y-33178380D01*
X474971857Y-32178380D02*
X475067095Y-32178380D01*
X475162333Y-32226000D01*
X475209952Y-32273619D01*
X475257571Y-32368857D01*
X475305190Y-32559333D01*
X475305190Y-32797428D01*
X475257571Y-32987904D01*
X475209952Y-33083142D01*
X475162333Y-33130761D01*
X475067095Y-33178380D01*
X474971857Y-33178380D01*
X474876619Y-33130761D01*
X474829000Y-33083142D01*
X474781380Y-32987904D01*
X474733761Y-32797428D01*
X474733761Y-32559333D01*
X474781380Y-32368857D01*
X474829000Y-32273619D01*
X474876619Y-32226000D01*
X474971857Y-32178380D01*
X471995666Y-27530761D02*
X472138523Y-27578380D01*
X472376619Y-27578380D01*
X472471857Y-27530761D01*
X472519476Y-27483142D01*
X472567095Y-27387904D01*
X472567095Y-27292666D01*
X472519476Y-27197428D01*
X472471857Y-27149809D01*
X472376619Y-27102190D01*
X472186142Y-27054571D01*
X472090904Y-27006952D01*
X472043285Y-26959333D01*
X471995666Y-26864095D01*
X471995666Y-26768857D01*
X472043285Y-26673619D01*
X472090904Y-26626000D01*
X472186142Y-26578380D01*
X472424238Y-26578380D01*
X472567095Y-26626000D01*
X472900428Y-26578380D02*
X473138523Y-27578380D01*
X473329000Y-26864095D01*
X473519476Y-27578380D01*
X473757571Y-26578380D01*
X474662333Y-27578380D02*
X474090904Y-27578380D01*
X474376619Y-27578380D02*
X474376619Y-26578380D01*
X474281380Y-26721238D01*
X474186142Y-26816476D01*
X474090904Y-26864095D01*
%TO.C,R4*%
X447243295Y-41913219D02*
X447290914Y-41865600D01*
X447386152Y-41817980D01*
X447624247Y-41817980D01*
X447719485Y-41865600D01*
X447767104Y-41913219D01*
X447814723Y-42008457D01*
X447814723Y-42103695D01*
X447767104Y-42246552D01*
X447195676Y-42817980D01*
X447814723Y-42817980D01*
X448195676Y-41913219D02*
X448243295Y-41865600D01*
X448338533Y-41817980D01*
X448576628Y-41817980D01*
X448671866Y-41865600D01*
X448719485Y-41913219D01*
X448767104Y-42008457D01*
X448767104Y-42103695D01*
X448719485Y-42246552D01*
X448148057Y-42817980D01*
X448767104Y-42817980D01*
D12*
X447961866Y-43653219D02*
X447875200Y-43529409D01*
X447813295Y-43653219D02*
X447813295Y-43393219D01*
X447912342Y-43393219D01*
X447937104Y-43405600D01*
X447949485Y-43417980D01*
X447961866Y-43442742D01*
X447961866Y-43479885D01*
X447949485Y-43504647D01*
X447937104Y-43517028D01*
X447912342Y-43529409D01*
X447813295Y-43529409D01*
X448184723Y-43479885D02*
X448184723Y-43653219D01*
X448122819Y-43380838D02*
X448060914Y-43566552D01*
X448221866Y-43566552D01*
%TO.C,R15*%
D11*
X457498380Y-32474238D02*
X457498380Y-33045666D01*
X457498380Y-32759952D02*
X456498380Y-32759952D01*
X456641238Y-32855190D01*
X456736476Y-32950428D01*
X456784095Y-33045666D01*
X456498380Y-31855190D02*
X456498380Y-31759952D01*
X456546000Y-31664714D01*
X456593619Y-31617095D01*
X456688857Y-31569476D01*
X456879333Y-31521857D01*
X457117428Y-31521857D01*
X457307904Y-31569476D01*
X457403142Y-31617095D01*
X457450761Y-31664714D01*
X457498380Y-31759952D01*
X457498380Y-31855190D01*
X457450761Y-31950428D01*
X457403142Y-31998047D01*
X457307904Y-32045666D01*
X457117428Y-32093285D01*
X456879333Y-32093285D01*
X456688857Y-32045666D01*
X456593619Y-31998047D01*
X456546000Y-31950428D01*
X456498380Y-31855190D01*
X457498380Y-31093285D02*
X456498380Y-31093285D01*
X457117428Y-30998047D02*
X457498380Y-30712333D01*
X456831714Y-30712333D02*
X457212666Y-31093285D01*
D12*
X458333619Y-32046142D02*
X458209809Y-32132809D01*
X458333619Y-32194714D02*
X458073619Y-32194714D01*
X458073619Y-32095666D01*
X458086000Y-32070904D01*
X458098380Y-32058523D01*
X458123142Y-32046142D01*
X458160285Y-32046142D01*
X458185047Y-32058523D01*
X458197428Y-32070904D01*
X458209809Y-32095666D01*
X458209809Y-32194714D01*
X458333619Y-31798523D02*
X458333619Y-31947095D01*
X458333619Y-31872809D02*
X458073619Y-31872809D01*
X458110761Y-31897571D01*
X458135523Y-31922333D01*
X458147904Y-31947095D01*
X458073619Y-31563285D02*
X458073619Y-31687095D01*
X458197428Y-31699476D01*
X458185047Y-31687095D01*
X458172666Y-31662333D01*
X458172666Y-31600428D01*
X458185047Y-31575666D01*
X458197428Y-31563285D01*
X458222190Y-31550904D01*
X458284095Y-31550904D01*
X458308857Y-31563285D01*
X458321238Y-31575666D01*
X458333619Y-31600428D01*
X458333619Y-31662333D01*
X458321238Y-31687095D01*
X458308857Y-31699476D01*
%TO.C,R14*%
D11*
X446322380Y-33107238D02*
X446322380Y-33678666D01*
X446322380Y-33392952D02*
X445322380Y-33392952D01*
X445465238Y-33488190D01*
X445560476Y-33583428D01*
X445608095Y-33678666D01*
X445322380Y-32488190D02*
X445322380Y-32392952D01*
X445370000Y-32297714D01*
X445417619Y-32250095D01*
X445512857Y-32202476D01*
X445703333Y-32154857D01*
X445941428Y-32154857D01*
X446131904Y-32202476D01*
X446227142Y-32250095D01*
X446274761Y-32297714D01*
X446322380Y-32392952D01*
X446322380Y-32488190D01*
X446274761Y-32583428D01*
X446227142Y-32631047D01*
X446131904Y-32678666D01*
X445941428Y-32726285D01*
X445703333Y-32726285D01*
X445512857Y-32678666D01*
X445417619Y-32631047D01*
X445370000Y-32583428D01*
X445322380Y-32488190D01*
X446322380Y-31726285D02*
X445322380Y-31726285D01*
X445941428Y-31631047D02*
X446322380Y-31345333D01*
X445655714Y-31345333D02*
X446036666Y-31726285D01*
D12*
X447157619Y-32679142D02*
X447033809Y-32765809D01*
X447157619Y-32827714D02*
X446897619Y-32827714D01*
X446897619Y-32728666D01*
X446910000Y-32703904D01*
X446922380Y-32691523D01*
X446947142Y-32679142D01*
X446984285Y-32679142D01*
X447009047Y-32691523D01*
X447021428Y-32703904D01*
X447033809Y-32728666D01*
X447033809Y-32827714D01*
X447157619Y-32431523D02*
X447157619Y-32580095D01*
X447157619Y-32505809D02*
X446897619Y-32505809D01*
X446934761Y-32530571D01*
X446959523Y-32555333D01*
X446971904Y-32580095D01*
X446984285Y-32208666D02*
X447157619Y-32208666D01*
X446885238Y-32270571D02*
X447070952Y-32332476D01*
X447070952Y-32171523D01*
%TO.C,R11*%
D11*
X434911580Y-35313857D02*
X434911580Y-35790047D01*
X435387771Y-35837666D01*
X435340152Y-35790047D01*
X435292533Y-35694809D01*
X435292533Y-35456714D01*
X435340152Y-35361476D01*
X435387771Y-35313857D01*
X435483009Y-35266238D01*
X435721104Y-35266238D01*
X435816342Y-35313857D01*
X435863961Y-35361476D01*
X435911580Y-35456714D01*
X435911580Y-35694809D01*
X435863961Y-35790047D01*
X435816342Y-35837666D01*
X435911580Y-34837666D02*
X434911580Y-34837666D01*
X435530628Y-34742428D02*
X435911580Y-34456714D01*
X435244914Y-34456714D02*
X435625866Y-34837666D01*
X435911580Y-33504333D02*
X435911580Y-34075761D01*
X435911580Y-33790047D02*
X434911580Y-33790047D01*
X435054438Y-33885285D01*
X435149676Y-33980523D01*
X435197295Y-34075761D01*
D12*
X434406819Y-34838142D02*
X434283009Y-34924809D01*
X434406819Y-34986714D02*
X434146819Y-34986714D01*
X434146819Y-34887666D01*
X434159200Y-34862904D01*
X434171580Y-34850523D01*
X434196342Y-34838142D01*
X434233485Y-34838142D01*
X434258247Y-34850523D01*
X434270628Y-34862904D01*
X434283009Y-34887666D01*
X434283009Y-34986714D01*
X434406819Y-34590523D02*
X434406819Y-34739095D01*
X434406819Y-34664809D02*
X434146819Y-34664809D01*
X434183961Y-34689571D01*
X434208723Y-34714333D01*
X434221104Y-34739095D01*
X434406819Y-34342904D02*
X434406819Y-34491476D01*
X434406819Y-34417190D02*
X434146819Y-34417190D01*
X434183961Y-34441952D01*
X434208723Y-34466714D01*
X434221104Y-34491476D01*
%TO.C,R2*%
D11*
X479972761Y-35404380D02*
X479401333Y-35404380D01*
X479687047Y-35404380D02*
X479687047Y-34404380D01*
X479591809Y-34547238D01*
X479496571Y-34642476D01*
X479401333Y-34690095D01*
X480591809Y-34404380D02*
X480687047Y-34404380D01*
X480782285Y-34452000D01*
X480829904Y-34499619D01*
X480877523Y-34594857D01*
X480925142Y-34785333D01*
X480925142Y-35023428D01*
X480877523Y-35213904D01*
X480829904Y-35309142D01*
X480782285Y-35356761D01*
X480687047Y-35404380D01*
X480591809Y-35404380D01*
X480496571Y-35356761D01*
X480448952Y-35309142D01*
X480401333Y-35213904D01*
X480353714Y-35023428D01*
X480353714Y-34785333D01*
X480401333Y-34594857D01*
X480448952Y-34499619D01*
X480496571Y-34452000D01*
X480591809Y-34404380D01*
X481353714Y-35404380D02*
X481353714Y-34404380D01*
X481448952Y-35023428D02*
X481734666Y-35404380D01*
X481734666Y-34737714D02*
X481353714Y-35118666D01*
D12*
X480524666Y-33899619D02*
X480438000Y-33775809D01*
X480376095Y-33899619D02*
X480376095Y-33639619D01*
X480475142Y-33639619D01*
X480499904Y-33652000D01*
X480512285Y-33664380D01*
X480524666Y-33689142D01*
X480524666Y-33726285D01*
X480512285Y-33751047D01*
X480499904Y-33763428D01*
X480475142Y-33775809D01*
X480376095Y-33775809D01*
X480623714Y-33664380D02*
X480636095Y-33652000D01*
X480660857Y-33639619D01*
X480722761Y-33639619D01*
X480747523Y-33652000D01*
X480759904Y-33664380D01*
X480772285Y-33689142D01*
X480772285Y-33713904D01*
X480759904Y-33751047D01*
X480611333Y-33899619D01*
X480772285Y-33899619D01*
%TO.C,J5*%
D11*
X469562380Y-62237619D02*
X470371904Y-62237619D01*
X470467142Y-62190000D01*
X470514761Y-62142380D01*
X470562380Y-62047142D01*
X470562380Y-61856666D01*
X470514761Y-61761428D01*
X470467142Y-61713809D01*
X470371904Y-61666190D01*
X469562380Y-61666190D01*
X470514761Y-61237619D02*
X470562380Y-61094761D01*
X470562380Y-60856666D01*
X470514761Y-60761428D01*
X470467142Y-60713809D01*
X470371904Y-60666190D01*
X470276666Y-60666190D01*
X470181428Y-60713809D01*
X470133809Y-60761428D01*
X470086190Y-60856666D01*
X470038571Y-61047142D01*
X469990952Y-61142380D01*
X469943333Y-61190000D01*
X469848095Y-61237619D01*
X469752857Y-61237619D01*
X469657619Y-61190000D01*
X469610000Y-61142380D01*
X469562380Y-61047142D01*
X469562380Y-60809047D01*
X469610000Y-60666190D01*
X470276666Y-60285238D02*
X470276666Y-59809047D01*
X470562380Y-60380476D02*
X469562380Y-60047142D01*
X470562380Y-59713809D01*
X470562380Y-58809047D02*
X470086190Y-59142380D01*
X470562380Y-59380476D02*
X469562380Y-59380476D01*
X469562380Y-58999523D01*
X469610000Y-58904285D01*
X469657619Y-58856666D01*
X469752857Y-58809047D01*
X469895714Y-58809047D01*
X469990952Y-58856666D01*
X470038571Y-58904285D01*
X470086190Y-58999523D01*
X470086190Y-59380476D01*
X469562380Y-58523333D02*
X469562380Y-57951904D01*
X470562380Y-58237619D02*
X469562380Y-58237619D01*
X469657619Y-57666190D02*
X469610000Y-57618571D01*
X469562380Y-57523333D01*
X469562380Y-57285238D01*
X469610000Y-57190000D01*
X469657619Y-57142380D01*
X469752857Y-57094761D01*
X469848095Y-57094761D01*
X469990952Y-57142380D01*
X470562380Y-57713809D01*
X470562380Y-57094761D01*
X475916666Y-59142380D02*
X475916666Y-59856666D01*
X475869047Y-59999523D01*
X475773809Y-60094761D01*
X475630952Y-60142380D01*
X475535714Y-60142380D01*
X476869047Y-59142380D02*
X476392857Y-59142380D01*
X476345238Y-59618571D01*
X476392857Y-59570952D01*
X476488095Y-59523333D01*
X476726190Y-59523333D01*
X476821428Y-59570952D01*
X476869047Y-59618571D01*
X476916666Y-59713809D01*
X476916666Y-59951904D01*
X476869047Y-60047142D01*
X476821428Y-60094761D01*
X476726190Y-60142380D01*
X476488095Y-60142380D01*
X476392857Y-60094761D01*
X476345238Y-60047142D01*
%TO.C,J6*%
X429077619Y-52312380D02*
X429077619Y-51312380D01*
X429506190Y-51407619D02*
X429553809Y-51360000D01*
X429649047Y-51312380D01*
X429887142Y-51312380D01*
X429982380Y-51360000D01*
X430030000Y-51407619D01*
X430077619Y-51502857D01*
X430077619Y-51598095D01*
X430030000Y-51740952D01*
X429458571Y-52312380D01*
X430077619Y-52312380D01*
X431077619Y-52217142D02*
X431030000Y-52264761D01*
X430887142Y-52312380D01*
X430791904Y-52312380D01*
X430649047Y-52264761D01*
X430553809Y-52169523D01*
X430506190Y-52074285D01*
X430458571Y-51883809D01*
X430458571Y-51740952D01*
X430506190Y-51550476D01*
X430553809Y-51455238D01*
X430649047Y-51360000D01*
X430791904Y-51312380D01*
X430887142Y-51312380D01*
X431030000Y-51360000D01*
X431077619Y-51407619D01*
X432030000Y-52312380D02*
X431458571Y-52312380D01*
X431744285Y-52312380D02*
X431744285Y-51312380D01*
X431649047Y-51455238D01*
X431553809Y-51550476D01*
X431458571Y-51598095D01*
X429982380Y-46053333D02*
X430696666Y-46053333D01*
X430839523Y-46100952D01*
X430934761Y-46196190D01*
X430982380Y-46339047D01*
X430982380Y-46434285D01*
X429982380Y-45148571D02*
X429982380Y-45339047D01*
X430030000Y-45434285D01*
X430077619Y-45481904D01*
X430220476Y-45577142D01*
X430410952Y-45624761D01*
X430791904Y-45624761D01*
X430887142Y-45577142D01*
X430934761Y-45529523D01*
X430982380Y-45434285D01*
X430982380Y-45243809D01*
X430934761Y-45148571D01*
X430887142Y-45100952D01*
X430791904Y-45053333D01*
X430553809Y-45053333D01*
X430458571Y-45100952D01*
X430410952Y-45148571D01*
X430363333Y-45243809D01*
X430363333Y-45434285D01*
X430410952Y-45529523D01*
X430458571Y-45577142D01*
X430553809Y-45624761D01*
%TO.C,J2*%
X430999523Y-25848380D02*
X430999523Y-26657904D01*
X431047142Y-26753142D01*
X431094761Y-26800761D01*
X431190000Y-26848380D01*
X431380476Y-26848380D01*
X431475714Y-26800761D01*
X431523333Y-26753142D01*
X431570952Y-26657904D01*
X431570952Y-25848380D01*
X431999523Y-26800761D02*
X432142380Y-26848380D01*
X432380476Y-26848380D01*
X432475714Y-26800761D01*
X432523333Y-26753142D01*
X432570952Y-26657904D01*
X432570952Y-26562666D01*
X432523333Y-26467428D01*
X432475714Y-26419809D01*
X432380476Y-26372190D01*
X432190000Y-26324571D01*
X432094761Y-26276952D01*
X432047142Y-26229333D01*
X431999523Y-26134095D01*
X431999523Y-26038857D01*
X432047142Y-25943619D01*
X432094761Y-25896000D01*
X432190000Y-25848380D01*
X432428095Y-25848380D01*
X432570952Y-25896000D01*
X433332857Y-26324571D02*
X433475714Y-26372190D01*
X433523333Y-26419809D01*
X433570952Y-26515047D01*
X433570952Y-26657904D01*
X433523333Y-26753142D01*
X433475714Y-26800761D01*
X433380476Y-26848380D01*
X432999523Y-26848380D01*
X432999523Y-25848380D01*
X433332857Y-25848380D01*
X433428095Y-25896000D01*
X433475714Y-25943619D01*
X433523333Y-26038857D01*
X433523333Y-26134095D01*
X433475714Y-26229333D01*
X433428095Y-26276952D01*
X433332857Y-26324571D01*
X432999523Y-26324571D01*
X433761428Y-26943619D02*
X434523333Y-26943619D01*
X435332857Y-26753142D02*
X435285238Y-26800761D01*
X435142380Y-26848380D01*
X435047142Y-26848380D01*
X434904285Y-26800761D01*
X434809047Y-26705523D01*
X434761428Y-26610285D01*
X434713809Y-26419809D01*
X434713809Y-26276952D01*
X434761428Y-26086476D01*
X434809047Y-25991238D01*
X434904285Y-25896000D01*
X435047142Y-25848380D01*
X435142380Y-25848380D01*
X435285238Y-25896000D01*
X435332857Y-25943619D01*
X435523333Y-26943619D02*
X436285238Y-26943619D01*
X437094761Y-26848380D02*
X436761428Y-26372190D01*
X436523333Y-26848380D02*
X436523333Y-25848380D01*
X436904285Y-25848380D01*
X436999523Y-25896000D01*
X437047142Y-25943619D01*
X437094761Y-26038857D01*
X437094761Y-26181714D01*
X437047142Y-26276952D01*
X436999523Y-26324571D01*
X436904285Y-26372190D01*
X436523333Y-26372190D01*
X437904285Y-26800761D02*
X437809047Y-26848380D01*
X437618571Y-26848380D01*
X437523333Y-26800761D01*
X437475714Y-26705523D01*
X437475714Y-26324571D01*
X437523333Y-26229333D01*
X437618571Y-26181714D01*
X437809047Y-26181714D01*
X437904285Y-26229333D01*
X437951904Y-26324571D01*
X437951904Y-26419809D01*
X437475714Y-26515047D01*
X438809047Y-26800761D02*
X438713809Y-26848380D01*
X438523333Y-26848380D01*
X438428095Y-26800761D01*
X438380476Y-26753142D01*
X438332857Y-26657904D01*
X438332857Y-26372190D01*
X438380476Y-26276952D01*
X438428095Y-26229333D01*
X438523333Y-26181714D01*
X438713809Y-26181714D01*
X438809047Y-26229333D01*
X439618571Y-26800761D02*
X439523333Y-26848380D01*
X439332857Y-26848380D01*
X439237619Y-26800761D01*
X439190000Y-26705523D01*
X439190000Y-26324571D01*
X439237619Y-26229333D01*
X439332857Y-26181714D01*
X439523333Y-26181714D01*
X439618571Y-26229333D01*
X439666190Y-26324571D01*
X439666190Y-26419809D01*
X439190000Y-26515047D01*
X440094761Y-26181714D02*
X440094761Y-27181714D01*
X440094761Y-26229333D02*
X440190000Y-26181714D01*
X440380476Y-26181714D01*
X440475714Y-26229333D01*
X440523333Y-26276952D01*
X440570952Y-26372190D01*
X440570952Y-26657904D01*
X440523333Y-26753142D01*
X440475714Y-26800761D01*
X440380476Y-26848380D01*
X440190000Y-26848380D01*
X440094761Y-26800761D01*
X440856666Y-26181714D02*
X441237619Y-26181714D01*
X440999523Y-25848380D02*
X440999523Y-26705523D01*
X441047142Y-26800761D01*
X441142380Y-26848380D01*
X441237619Y-26848380D01*
X441999523Y-26848380D02*
X441999523Y-26324571D01*
X441951904Y-26229333D01*
X441856666Y-26181714D01*
X441666190Y-26181714D01*
X441570952Y-26229333D01*
X441999523Y-26800761D02*
X441904285Y-26848380D01*
X441666190Y-26848380D01*
X441570952Y-26800761D01*
X441523333Y-26705523D01*
X441523333Y-26610285D01*
X441570952Y-26515047D01*
X441666190Y-26467428D01*
X441904285Y-26467428D01*
X441999523Y-26419809D01*
X442904285Y-26800761D02*
X442809047Y-26848380D01*
X442618571Y-26848380D01*
X442523333Y-26800761D01*
X442475714Y-26753142D01*
X442428095Y-26657904D01*
X442428095Y-26372190D01*
X442475714Y-26276952D01*
X442523333Y-26229333D01*
X442618571Y-26181714D01*
X442809047Y-26181714D01*
X442904285Y-26229333D01*
X443475714Y-26848380D02*
X443380476Y-26800761D01*
X443332857Y-26705523D01*
X443332857Y-25848380D01*
X444237619Y-26800761D02*
X444142380Y-26848380D01*
X443951904Y-26848380D01*
X443856666Y-26800761D01*
X443809047Y-26705523D01*
X443809047Y-26324571D01*
X443856666Y-26229333D01*
X443951904Y-26181714D01*
X444142380Y-26181714D01*
X444237619Y-26229333D01*
X444285238Y-26324571D01*
X444285238Y-26419809D01*
X443809047Y-26515047D01*
X444475714Y-26943619D02*
X445237619Y-26943619D01*
X445475714Y-25848380D02*
X445475714Y-26657904D01*
X445523333Y-26753142D01*
X445570952Y-26800761D01*
X445666190Y-26848380D01*
X445856666Y-26848380D01*
X445951904Y-26800761D01*
X445999523Y-26753142D01*
X446047142Y-26657904D01*
X446047142Y-25848380D01*
X446475714Y-26800761D02*
X446618571Y-26848380D01*
X446856666Y-26848380D01*
X446951904Y-26800761D01*
X446999523Y-26753142D01*
X447047142Y-26657904D01*
X447047142Y-26562666D01*
X446999523Y-26467428D01*
X446951904Y-26419809D01*
X446856666Y-26372190D01*
X446666190Y-26324571D01*
X446570952Y-26276952D01*
X446523333Y-26229333D01*
X446475714Y-26134095D01*
X446475714Y-26038857D01*
X446523333Y-25943619D01*
X446570952Y-25896000D01*
X446666190Y-25848380D01*
X446904285Y-25848380D01*
X447047142Y-25896000D01*
X447809047Y-26324571D02*
X447951904Y-26372190D01*
X447999523Y-26419809D01*
X448047142Y-26515047D01*
X448047142Y-26657904D01*
X447999523Y-26753142D01*
X447951904Y-26800761D01*
X447856666Y-26848380D01*
X447475714Y-26848380D01*
X447475714Y-25848380D01*
X447809047Y-25848380D01*
X447904285Y-25896000D01*
X447951904Y-25943619D01*
X447999523Y-26038857D01*
X447999523Y-26134095D01*
X447951904Y-26229333D01*
X447904285Y-26276952D01*
X447809047Y-26324571D01*
X447475714Y-26324571D01*
X448428095Y-25943619D02*
X448475714Y-25896000D01*
X448570952Y-25848380D01*
X448809047Y-25848380D01*
X448904285Y-25896000D01*
X448951904Y-25943619D01*
X448999523Y-26038857D01*
X448999523Y-26134095D01*
X448951904Y-26276952D01*
X448380476Y-26848380D01*
X448999523Y-26848380D01*
X449428095Y-26753142D02*
X449475714Y-26800761D01*
X449428095Y-26848380D01*
X449380476Y-26800761D01*
X449428095Y-26753142D01*
X449428095Y-26848380D01*
X450094761Y-25848380D02*
X450190000Y-25848380D01*
X450285238Y-25896000D01*
X450332857Y-25943619D01*
X450380476Y-26038857D01*
X450428095Y-26229333D01*
X450428095Y-26467428D01*
X450380476Y-26657904D01*
X450332857Y-26753142D01*
X450285238Y-26800761D01*
X450190000Y-26848380D01*
X450094761Y-26848380D01*
X449999523Y-26800761D01*
X449951904Y-26753142D01*
X449904285Y-26657904D01*
X449856666Y-26467428D01*
X449856666Y-26229333D01*
X449904285Y-26038857D01*
X449951904Y-25943619D01*
X449999523Y-25896000D01*
X450094761Y-25848380D01*
X440356666Y-30948380D02*
X440356666Y-31662666D01*
X440309047Y-31805523D01*
X440213809Y-31900761D01*
X440070952Y-31948380D01*
X439975714Y-31948380D01*
X440785238Y-31043619D02*
X440832857Y-30996000D01*
X440928095Y-30948380D01*
X441166190Y-30948380D01*
X441261428Y-30996000D01*
X441309047Y-31043619D01*
X441356666Y-31138857D01*
X441356666Y-31234095D01*
X441309047Y-31376952D01*
X440737619Y-31948380D01*
X441356666Y-31948380D01*
%TO.C,FB1*%
X432318209Y-43826780D02*
X432127733Y-43826780D01*
X432032495Y-43874400D01*
X431984876Y-43922019D01*
X431889638Y-44064876D01*
X431842019Y-44255352D01*
X431842019Y-44636304D01*
X431889638Y-44731542D01*
X431937257Y-44779161D01*
X432032495Y-44826780D01*
X432222971Y-44826780D01*
X432318209Y-44779161D01*
X432365828Y-44731542D01*
X432413447Y-44636304D01*
X432413447Y-44398209D01*
X432365828Y-44302971D01*
X432318209Y-44255352D01*
X432222971Y-44207733D01*
X432032495Y-44207733D01*
X431937257Y-44255352D01*
X431889638Y-44302971D01*
X431842019Y-44398209D01*
X433032495Y-43826780D02*
X433127733Y-43826780D01*
X433222971Y-43874400D01*
X433270590Y-43922019D01*
X433318209Y-44017257D01*
X433365828Y-44207733D01*
X433365828Y-44445828D01*
X433318209Y-44636304D01*
X433270590Y-44731542D01*
X433222971Y-44779161D01*
X433127733Y-44826780D01*
X433032495Y-44826780D01*
X432937257Y-44779161D01*
X432889638Y-44731542D01*
X432842019Y-44636304D01*
X432794400Y-44445828D01*
X432794400Y-44207733D01*
X432842019Y-44017257D01*
X432889638Y-43922019D01*
X432937257Y-43874400D01*
X433032495Y-43826780D01*
X433984876Y-43826780D02*
X434080114Y-43826780D01*
X434175352Y-43874400D01*
X434222971Y-43922019D01*
X434270590Y-44017257D01*
X434318209Y-44207733D01*
X434318209Y-44445828D01*
X434270590Y-44636304D01*
X434222971Y-44731542D01*
X434175352Y-44779161D01*
X434080114Y-44826780D01*
X433984876Y-44826780D01*
X433889638Y-44779161D01*
X433842019Y-44731542D01*
X433794400Y-44636304D01*
X433746780Y-44445828D01*
X433746780Y-44207733D01*
X433794400Y-44017257D01*
X433842019Y-43922019D01*
X433889638Y-43874400D01*
X433984876Y-43826780D01*
X436127733Y-44350590D02*
X436080114Y-44302971D01*
X435984876Y-44255352D01*
X435889638Y-44255352D01*
X435794400Y-44302971D01*
X435746780Y-44350590D01*
X435699161Y-44445828D01*
X435699161Y-44541066D01*
X435746780Y-44636304D01*
X435794400Y-44683923D01*
X435889638Y-44731542D01*
X435984876Y-44731542D01*
X436080114Y-44683923D01*
X436127733Y-44636304D01*
X436127733Y-44255352D02*
X436127733Y-44636304D01*
X436175352Y-44683923D01*
X436222971Y-44683923D01*
X436318209Y-44636304D01*
X436365828Y-44541066D01*
X436365828Y-44302971D01*
X436270590Y-44160114D01*
X436127733Y-44064876D01*
X435937257Y-44017257D01*
X435746780Y-44064876D01*
X435603923Y-44160114D01*
X435508685Y-44302971D01*
X435461066Y-44493447D01*
X435508685Y-44683923D01*
X435603923Y-44826780D01*
X435746780Y-44922019D01*
X435937257Y-44969638D01*
X436127733Y-44922019D01*
X436270590Y-44826780D01*
X437984876Y-43826780D02*
X437794400Y-43826780D01*
X437699161Y-43874400D01*
X437651542Y-43922019D01*
X437556304Y-44064876D01*
X437508685Y-44255352D01*
X437508685Y-44636304D01*
X437556304Y-44731542D01*
X437603923Y-44779161D01*
X437699161Y-44826780D01*
X437889638Y-44826780D01*
X437984876Y-44779161D01*
X438032495Y-44731542D01*
X438080114Y-44636304D01*
X438080114Y-44398209D01*
X438032495Y-44302971D01*
X437984876Y-44255352D01*
X437889638Y-44207733D01*
X437699161Y-44207733D01*
X437603923Y-44255352D01*
X437556304Y-44302971D01*
X437508685Y-44398209D01*
X438699161Y-43826780D02*
X438794400Y-43826780D01*
X438889638Y-43874400D01*
X438937257Y-43922019D01*
X438984876Y-44017257D01*
X439032495Y-44207733D01*
X439032495Y-44445828D01*
X438984876Y-44636304D01*
X438937257Y-44731542D01*
X438889638Y-44779161D01*
X438794400Y-44826780D01*
X438699161Y-44826780D01*
X438603923Y-44779161D01*
X438556304Y-44731542D01*
X438508685Y-44636304D01*
X438461066Y-44445828D01*
X438461066Y-44207733D01*
X438508685Y-44017257D01*
X438556304Y-43922019D01*
X438603923Y-43874400D01*
X438699161Y-43826780D01*
X439651542Y-43826780D02*
X439746780Y-43826780D01*
X439842019Y-43874400D01*
X439889638Y-43922019D01*
X439937257Y-44017257D01*
X439984876Y-44207733D01*
X439984876Y-44445828D01*
X439937257Y-44636304D01*
X439889638Y-44731542D01*
X439842019Y-44779161D01*
X439746780Y-44826780D01*
X439651542Y-44826780D01*
X439556304Y-44779161D01*
X439508685Y-44731542D01*
X439461066Y-44636304D01*
X439413447Y-44445828D01*
X439413447Y-44207733D01*
X439461066Y-44017257D01*
X439508685Y-43922019D01*
X439556304Y-43874400D01*
X439651542Y-43826780D01*
X441175352Y-44826780D02*
X441175352Y-43826780D01*
X441508685Y-44541066D01*
X441842019Y-43826780D01*
X441842019Y-44826780D01*
X442318209Y-44826780D02*
X442318209Y-43826780D01*
X442318209Y-44302971D02*
X442889638Y-44302971D01*
X442889638Y-44826780D02*
X442889638Y-43826780D01*
X443270590Y-44160114D02*
X443794400Y-44160114D01*
X443270590Y-44826780D01*
X443794400Y-44826780D01*
D15*
X437377733Y-42788685D02*
X437211066Y-42788685D01*
X437211066Y-43050590D02*
X437211066Y-42550590D01*
X437449161Y-42550590D01*
X437806304Y-42788685D02*
X437877733Y-42812495D01*
X437901542Y-42836304D01*
X437925352Y-42883923D01*
X437925352Y-42955352D01*
X437901542Y-43002971D01*
X437877733Y-43026780D01*
X437830114Y-43050590D01*
X437639638Y-43050590D01*
X437639638Y-42550590D01*
X437806304Y-42550590D01*
X437853923Y-42574400D01*
X437877733Y-42598209D01*
X437901542Y-42645828D01*
X437901542Y-42693447D01*
X437877733Y-42741066D01*
X437853923Y-42764876D01*
X437806304Y-42788685D01*
X437639638Y-42788685D01*
X438401542Y-43050590D02*
X438115828Y-43050590D01*
X438258685Y-43050590D02*
X438258685Y-42550590D01*
X438211066Y-42622019D01*
X438163447Y-42669638D01*
X438115828Y-42693447D01*
%TO.C,D3*%
D11*
X430712809Y-28994380D02*
X430712809Y-27994380D01*
X431093761Y-27994380D01*
X431189000Y-28042000D01*
X431236619Y-28089619D01*
X431284238Y-28184857D01*
X431284238Y-28327714D01*
X431236619Y-28422952D01*
X431189000Y-28470571D01*
X431093761Y-28518190D01*
X430712809Y-28518190D01*
X431855666Y-28994380D02*
X431760428Y-28946761D01*
X431712809Y-28899142D01*
X431665190Y-28803904D01*
X431665190Y-28518190D01*
X431712809Y-28422952D01*
X431760428Y-28375333D01*
X431855666Y-28327714D01*
X431998523Y-28327714D01*
X432093761Y-28375333D01*
X432141380Y-28422952D01*
X432189000Y-28518190D01*
X432189000Y-28803904D01*
X432141380Y-28899142D01*
X432093761Y-28946761D01*
X431998523Y-28994380D01*
X431855666Y-28994380D01*
X432522333Y-28327714D02*
X432712809Y-28994380D01*
X432903285Y-28518190D01*
X433093761Y-28994380D01*
X433284238Y-28327714D01*
X434046142Y-28946761D02*
X433950904Y-28994380D01*
X433760428Y-28994380D01*
X433665190Y-28946761D01*
X433617571Y-28851523D01*
X433617571Y-28470571D01*
X433665190Y-28375333D01*
X433760428Y-28327714D01*
X433950904Y-28327714D01*
X434046142Y-28375333D01*
X434093761Y-28470571D01*
X434093761Y-28565809D01*
X433617571Y-28661047D01*
X434522333Y-28994380D02*
X434522333Y-28327714D01*
X434522333Y-28518190D02*
X434569952Y-28422952D01*
X434617571Y-28375333D01*
X434712809Y-28327714D01*
X434808047Y-28327714D01*
D16*
X432393761Y-30152952D02*
X432393761Y-29752952D01*
X432489000Y-29752952D01*
X432546142Y-29772000D01*
X432584238Y-29810095D01*
X432603285Y-29848190D01*
X432622333Y-29924380D01*
X432622333Y-29981523D01*
X432603285Y-30057714D01*
X432584238Y-30095809D01*
X432546142Y-30133904D01*
X432489000Y-30152952D01*
X432393761Y-30152952D01*
X432755666Y-29752952D02*
X433003285Y-29752952D01*
X432869952Y-29905333D01*
X432927095Y-29905333D01*
X432965190Y-29924380D01*
X432984238Y-29943428D01*
X433003285Y-29981523D01*
X433003285Y-30076761D01*
X432984238Y-30114857D01*
X432965190Y-30133904D01*
X432927095Y-30152952D01*
X432812809Y-30152952D01*
X432774714Y-30133904D01*
X432755666Y-30114857D01*
%TO.C,D2*%
D11*
X458716333Y-28819761D02*
X458859190Y-28867380D01*
X459097285Y-28867380D01*
X459192523Y-28819761D01*
X459240142Y-28772142D01*
X459287761Y-28676904D01*
X459287761Y-28581666D01*
X459240142Y-28486428D01*
X459192523Y-28438809D01*
X459097285Y-28391190D01*
X458906809Y-28343571D01*
X458811571Y-28295952D01*
X458763952Y-28248333D01*
X458716333Y-28153095D01*
X458716333Y-28057857D01*
X458763952Y-27962619D01*
X458811571Y-27915000D01*
X458906809Y-27867380D01*
X459144904Y-27867380D01*
X459287761Y-27915000D01*
X459573476Y-28200714D02*
X459954428Y-28200714D01*
X459716333Y-27867380D02*
X459716333Y-28724523D01*
X459763952Y-28819761D01*
X459859190Y-28867380D01*
X459954428Y-28867380D01*
X460716333Y-28867380D02*
X460716333Y-28343571D01*
X460668714Y-28248333D01*
X460573476Y-28200714D01*
X460383000Y-28200714D01*
X460287761Y-28248333D01*
X460716333Y-28819761D02*
X460621095Y-28867380D01*
X460383000Y-28867380D01*
X460287761Y-28819761D01*
X460240142Y-28724523D01*
X460240142Y-28629285D01*
X460287761Y-28534047D01*
X460383000Y-28486428D01*
X460621095Y-28486428D01*
X460716333Y-28438809D01*
X461049666Y-28200714D02*
X461430619Y-28200714D01*
X461192523Y-27867380D02*
X461192523Y-28724523D01*
X461240142Y-28819761D01*
X461335380Y-28867380D01*
X461430619Y-28867380D01*
X462192523Y-28200714D02*
X462192523Y-28867380D01*
X461763952Y-28200714D02*
X461763952Y-28724523D01*
X461811571Y-28819761D01*
X461906809Y-28867380D01*
X462049666Y-28867380D01*
X462144904Y-28819761D01*
X462192523Y-28772142D01*
X462621095Y-28819761D02*
X462716333Y-28867380D01*
X462906809Y-28867380D01*
X463002047Y-28819761D01*
X463049666Y-28724523D01*
X463049666Y-28676904D01*
X463002047Y-28581666D01*
X462906809Y-28534047D01*
X462763952Y-28534047D01*
X462668714Y-28486428D01*
X462621095Y-28391190D01*
X462621095Y-28343571D01*
X462668714Y-28248333D01*
X462763952Y-28200714D01*
X462906809Y-28200714D01*
X463002047Y-28248333D01*
D16*
X460587761Y-30025952D02*
X460587761Y-29625952D01*
X460683000Y-29625952D01*
X460740142Y-29645000D01*
X460778238Y-29683095D01*
X460797285Y-29721190D01*
X460816333Y-29797380D01*
X460816333Y-29854523D01*
X460797285Y-29930714D01*
X460778238Y-29968809D01*
X460740142Y-30006904D01*
X460683000Y-30025952D01*
X460587761Y-30025952D01*
X460968714Y-29664047D02*
X460987761Y-29645000D01*
X461025857Y-29625952D01*
X461121095Y-29625952D01*
X461159190Y-29645000D01*
X461178238Y-29664047D01*
X461197285Y-29702142D01*
X461197285Y-29740238D01*
X461178238Y-29797380D01*
X460949666Y-30025952D01*
X461197285Y-30025952D01*
%TO.C,D1*%
D11*
X483901904Y-31727380D02*
X483568571Y-31251190D01*
X483330476Y-31727380D02*
X483330476Y-30727380D01*
X483711428Y-30727380D01*
X483806666Y-30775000D01*
X483854285Y-30822619D01*
X483901904Y-30917857D01*
X483901904Y-31060714D01*
X483854285Y-31155952D01*
X483806666Y-31203571D01*
X483711428Y-31251190D01*
X483330476Y-31251190D01*
X484711428Y-31679761D02*
X484616190Y-31727380D01*
X484425714Y-31727380D01*
X484330476Y-31679761D01*
X484282857Y-31584523D01*
X484282857Y-31203571D01*
X484330476Y-31108333D01*
X484425714Y-31060714D01*
X484616190Y-31060714D01*
X484711428Y-31108333D01*
X484759047Y-31203571D01*
X484759047Y-31298809D01*
X484282857Y-31394047D01*
X485140000Y-31679761D02*
X485235238Y-31727380D01*
X485425714Y-31727380D01*
X485520952Y-31679761D01*
X485568571Y-31584523D01*
X485568571Y-31536904D01*
X485520952Y-31441666D01*
X485425714Y-31394047D01*
X485282857Y-31394047D01*
X485187619Y-31346428D01*
X485140000Y-31251190D01*
X485140000Y-31203571D01*
X485187619Y-31108333D01*
X485282857Y-31060714D01*
X485425714Y-31060714D01*
X485520952Y-31108333D01*
X486378095Y-31679761D02*
X486282857Y-31727380D01*
X486092380Y-31727380D01*
X485997142Y-31679761D01*
X485949523Y-31584523D01*
X485949523Y-31203571D01*
X485997142Y-31108333D01*
X486092380Y-31060714D01*
X486282857Y-31060714D01*
X486378095Y-31108333D01*
X486425714Y-31203571D01*
X486425714Y-31298809D01*
X485949523Y-31394047D01*
X486711428Y-31060714D02*
X487092380Y-31060714D01*
X486854285Y-30727380D02*
X486854285Y-31584523D01*
X486901904Y-31679761D01*
X486997142Y-31727380D01*
X487092380Y-31727380D01*
D16*
X484844761Y-30025952D02*
X484844761Y-29625952D01*
X484940000Y-29625952D01*
X484997142Y-29645000D01*
X485035238Y-29683095D01*
X485054285Y-29721190D01*
X485073333Y-29797380D01*
X485073333Y-29854523D01*
X485054285Y-29930714D01*
X485035238Y-29968809D01*
X484997142Y-30006904D01*
X484940000Y-30025952D01*
X484844761Y-30025952D01*
X485454285Y-30025952D02*
X485225714Y-30025952D01*
X485340000Y-30025952D02*
X485340000Y-29625952D01*
X485301904Y-29683095D01*
X485263809Y-29721190D01*
X485225714Y-29740238D01*
%TO.C,C1*%
D11*
X480401333Y-31804380D02*
X479829904Y-31804380D01*
X480115619Y-31804380D02*
X480115619Y-30804380D01*
X480020380Y-30947238D01*
X479925142Y-31042476D01*
X479829904Y-31090095D01*
X481258476Y-31137714D02*
X481258476Y-31804380D01*
X480829904Y-31137714D02*
X480829904Y-31661523D01*
X480877523Y-31756761D01*
X480972761Y-31804380D01*
X481115619Y-31804380D01*
X481210857Y-31756761D01*
X481258476Y-31709142D01*
D12*
X480526333Y-32601285D02*
X480514428Y-32613190D01*
X480478714Y-32625095D01*
X480454904Y-32625095D01*
X480419190Y-32613190D01*
X480395380Y-32589380D01*
X480383476Y-32565571D01*
X480371571Y-32517952D01*
X480371571Y-32482238D01*
X480383476Y-32434619D01*
X480395380Y-32410809D01*
X480419190Y-32387000D01*
X480454904Y-32375095D01*
X480478714Y-32375095D01*
X480514428Y-32387000D01*
X480526333Y-32398904D01*
X480764428Y-32625095D02*
X480621571Y-32625095D01*
X480693000Y-32625095D02*
X480693000Y-32375095D01*
X480669190Y-32410809D01*
X480645380Y-32434619D01*
X480621571Y-32446523D01*
%TO.C,C3*%
D11*
X439829980Y-45480266D02*
X439829980Y-46051695D01*
X439829980Y-45765980D02*
X438829980Y-45765980D01*
X438972838Y-45861219D01*
X439068076Y-45956457D01*
X439115695Y-46051695D01*
X439163314Y-44623123D02*
X439829980Y-44623123D01*
X439163314Y-45051695D02*
X439687123Y-45051695D01*
X439782361Y-45004076D01*
X439829980Y-44908838D01*
X439829980Y-44765980D01*
X439782361Y-44670742D01*
X439734742Y-44623123D01*
D12*
X440626885Y-45355266D02*
X440638790Y-45367171D01*
X440650695Y-45402885D01*
X440650695Y-45426695D01*
X440638790Y-45462409D01*
X440614980Y-45486219D01*
X440591171Y-45498123D01*
X440543552Y-45510028D01*
X440507838Y-45510028D01*
X440460219Y-45498123D01*
X440436409Y-45486219D01*
X440412600Y-45462409D01*
X440400695Y-45426695D01*
X440400695Y-45402885D01*
X440412600Y-45367171D01*
X440424504Y-45355266D01*
X440400695Y-45271933D02*
X440400695Y-45117171D01*
X440495933Y-45200504D01*
X440495933Y-45164790D01*
X440507838Y-45140980D01*
X440519742Y-45129076D01*
X440543552Y-45117171D01*
X440603076Y-45117171D01*
X440626885Y-45129076D01*
X440638790Y-45140980D01*
X440650695Y-45164790D01*
X440650695Y-45236219D01*
X440638790Y-45260028D01*
X440626885Y-45271933D01*
%TO.C,C2*%
D11*
X438365380Y-40298666D02*
X438365380Y-40870095D01*
X438365380Y-40584380D02*
X437365380Y-40584380D01*
X437508238Y-40679619D01*
X437603476Y-40774857D01*
X437651095Y-40870095D01*
X437698714Y-39441523D02*
X438365380Y-39441523D01*
X437698714Y-39870095D02*
X438222523Y-39870095D01*
X438317761Y-39822476D01*
X438365380Y-39727238D01*
X438365380Y-39584380D01*
X438317761Y-39489142D01*
X438270142Y-39441523D01*
D12*
X436842285Y-40173666D02*
X436854190Y-40185571D01*
X436866095Y-40221285D01*
X436866095Y-40245095D01*
X436854190Y-40280809D01*
X436830380Y-40304619D01*
X436806571Y-40316523D01*
X436758952Y-40328428D01*
X436723238Y-40328428D01*
X436675619Y-40316523D01*
X436651809Y-40304619D01*
X436628000Y-40280809D01*
X436616095Y-40245095D01*
X436616095Y-40221285D01*
X436628000Y-40185571D01*
X436639904Y-40173666D01*
X436639904Y-40078428D02*
X436628000Y-40066523D01*
X436616095Y-40042714D01*
X436616095Y-39983190D01*
X436628000Y-39959380D01*
X436639904Y-39947476D01*
X436663714Y-39935571D01*
X436687523Y-39935571D01*
X436723238Y-39947476D01*
X436866095Y-40090333D01*
X436866095Y-39935571D01*
%TO.C,C15*%
D11*
X450463725Y-41539185D02*
X450463725Y-41471841D01*
X450497397Y-41370826D01*
X450665756Y-41202467D01*
X450766771Y-41168795D01*
X450834114Y-41168795D01*
X450935130Y-41202467D01*
X451002473Y-41269811D01*
X451069817Y-41404498D01*
X451069817Y-42212620D01*
X451507549Y-41774887D01*
X451642237Y-40697391D02*
X452113641Y-41168795D01*
X451339191Y-41000437D02*
X451709580Y-41370826D01*
X451810595Y-41404498D01*
X451911611Y-41370826D01*
X452012626Y-41269811D01*
X452046298Y-41168795D01*
X452046298Y-41101452D01*
X451776924Y-40225986D02*
X451776924Y-40158643D01*
X451810595Y-40057627D01*
X451978954Y-39889269D01*
X452079969Y-39855597D01*
X452147313Y-39855597D01*
X452248328Y-39889269D01*
X452315672Y-39956612D01*
X452383015Y-40091299D01*
X452383015Y-40899421D01*
X452820748Y-40461688D01*
D16*
X452572587Y-42294442D02*
X452572587Y-42321380D01*
X452545650Y-42375254D01*
X452518712Y-42402192D01*
X452464838Y-42429129D01*
X452410963Y-42429129D01*
X452370557Y-42415661D01*
X452303213Y-42375254D01*
X452262807Y-42334848D01*
X452222401Y-42267505D01*
X452208932Y-42227099D01*
X452208932Y-42173224D01*
X452235870Y-42119349D01*
X452262807Y-42092412D01*
X452316682Y-42065474D01*
X452343619Y-42065474D01*
X452868899Y-42052006D02*
X452707274Y-42213630D01*
X452788087Y-42132818D02*
X452505244Y-41849975D01*
X452518712Y-41917319D01*
X452518712Y-41971193D01*
X452505244Y-42011600D01*
X452841961Y-41513258D02*
X452707274Y-41647945D01*
X452828493Y-41796100D01*
X452828493Y-41769163D01*
X452841961Y-41728757D01*
X452909305Y-41661413D01*
X452949711Y-41647945D01*
X452976648Y-41647945D01*
X453017054Y-41661413D01*
X453084398Y-41728757D01*
X453097867Y-41769163D01*
X453097867Y-41796100D01*
X453084398Y-41836506D01*
X453017054Y-41903850D01*
X452976648Y-41917319D01*
X452949711Y-41917319D01*
%TO.C,C14*%
D11*
X466907714Y-34505619D02*
X466955333Y-34458000D01*
X467050571Y-34410380D01*
X467288666Y-34410380D01*
X467383904Y-34458000D01*
X467431523Y-34505619D01*
X467479142Y-34600857D01*
X467479142Y-34696095D01*
X467431523Y-34838952D01*
X466860095Y-35410380D01*
X467479142Y-35410380D01*
X468336285Y-34743714D02*
X468336285Y-35410380D01*
X467907714Y-34743714D02*
X467907714Y-35267523D01*
X467955333Y-35362761D01*
X468050571Y-35410380D01*
X468193428Y-35410380D01*
X468288666Y-35362761D01*
X468336285Y-35315142D01*
X468764857Y-34505619D02*
X468812476Y-34458000D01*
X468907714Y-34410380D01*
X469145809Y-34410380D01*
X469241047Y-34458000D01*
X469288666Y-34505619D01*
X469336285Y-34600857D01*
X469336285Y-34696095D01*
X469288666Y-34838952D01*
X468717238Y-35410380D01*
X469336285Y-35410380D01*
D16*
X467864857Y-33670857D02*
X467845809Y-33689904D01*
X467788666Y-33708952D01*
X467750571Y-33708952D01*
X467693428Y-33689904D01*
X467655333Y-33651809D01*
X467636285Y-33613714D01*
X467617238Y-33537523D01*
X467617238Y-33480380D01*
X467636285Y-33404190D01*
X467655333Y-33366095D01*
X467693428Y-33328000D01*
X467750571Y-33308952D01*
X467788666Y-33308952D01*
X467845809Y-33328000D01*
X467864857Y-33347047D01*
X468245809Y-33708952D02*
X468017238Y-33708952D01*
X468131523Y-33708952D02*
X468131523Y-33308952D01*
X468093428Y-33366095D01*
X468055333Y-33404190D01*
X468017238Y-33423238D01*
X468588666Y-33442285D02*
X468588666Y-33708952D01*
X468493428Y-33289904D02*
X468398190Y-33575619D01*
X468645809Y-33575619D01*
%TO.C,C13*%
D11*
X459916352Y-54918380D02*
X459344923Y-54918380D01*
X459630638Y-54918380D02*
X459630638Y-53918380D01*
X459535400Y-54061238D01*
X459440161Y-54156476D01*
X459344923Y-54204095D01*
X460535400Y-53918380D02*
X460630638Y-53918380D01*
X460725876Y-53966000D01*
X460773495Y-54013619D01*
X460821114Y-54108857D01*
X460868733Y-54299333D01*
X460868733Y-54537428D01*
X460821114Y-54727904D01*
X460773495Y-54823142D01*
X460725876Y-54870761D01*
X460630638Y-54918380D01*
X460535400Y-54918380D01*
X460440161Y-54870761D01*
X460392542Y-54823142D01*
X460344923Y-54727904D01*
X460297304Y-54537428D01*
X460297304Y-54299333D01*
X460344923Y-54108857D01*
X460392542Y-54013619D01*
X460440161Y-53966000D01*
X460535400Y-53918380D01*
X461487780Y-53918380D02*
X461583019Y-53918380D01*
X461678257Y-53966000D01*
X461725876Y-54013619D01*
X461773495Y-54108857D01*
X461821114Y-54299333D01*
X461821114Y-54537428D01*
X461773495Y-54727904D01*
X461725876Y-54823142D01*
X461678257Y-54870761D01*
X461583019Y-54918380D01*
X461487780Y-54918380D01*
X461392542Y-54870761D01*
X461344923Y-54823142D01*
X461297304Y-54727904D01*
X461249685Y-54537428D01*
X461249685Y-54299333D01*
X461297304Y-54108857D01*
X461344923Y-54013619D01*
X461392542Y-53966000D01*
X461487780Y-53918380D01*
X462249685Y-54251714D02*
X462249685Y-54918380D01*
X462249685Y-54346952D02*
X462297304Y-54299333D01*
X462392542Y-54251714D01*
X462535400Y-54251714D01*
X462630638Y-54299333D01*
X462678257Y-54394571D01*
X462678257Y-54918380D01*
D12*
X460874685Y-55715285D02*
X460862780Y-55727190D01*
X460827066Y-55739095D01*
X460803257Y-55739095D01*
X460767542Y-55727190D01*
X460743733Y-55703380D01*
X460731828Y-55679571D01*
X460719923Y-55631952D01*
X460719923Y-55596238D01*
X460731828Y-55548619D01*
X460743733Y-55524809D01*
X460767542Y-55501000D01*
X460803257Y-55489095D01*
X460827066Y-55489095D01*
X460862780Y-55501000D01*
X460874685Y-55512904D01*
X461112780Y-55739095D02*
X460969923Y-55739095D01*
X461041352Y-55739095D02*
X461041352Y-55489095D01*
X461017542Y-55524809D01*
X460993733Y-55548619D01*
X460969923Y-55560523D01*
X461196114Y-55489095D02*
X461350876Y-55489095D01*
X461267542Y-55584333D01*
X461303257Y-55584333D01*
X461327066Y-55596238D01*
X461338971Y-55608142D01*
X461350876Y-55631952D01*
X461350876Y-55691476D01*
X461338971Y-55715285D01*
X461327066Y-55727190D01*
X461303257Y-55739095D01*
X461231828Y-55739095D01*
X461208019Y-55727190D01*
X461196114Y-55715285D01*
%TO.C,C12*%
D11*
X451463351Y-44436123D02*
X451059290Y-44840184D01*
X451261320Y-44638154D02*
X450554214Y-43931047D01*
X450587885Y-44099406D01*
X450587885Y-44234093D01*
X450554214Y-44335108D01*
X451193977Y-43291284D02*
X451261320Y-43223940D01*
X451362336Y-43190268D01*
X451429679Y-43190268D01*
X451530694Y-43223940D01*
X451699053Y-43324955D01*
X451867412Y-43493314D01*
X451968427Y-43661673D01*
X452002099Y-43762688D01*
X452002099Y-43830032D01*
X451968427Y-43931047D01*
X451901084Y-43998391D01*
X451800068Y-44032062D01*
X451732725Y-44032062D01*
X451631710Y-43998391D01*
X451463351Y-43897375D01*
X451294992Y-43729017D01*
X451193977Y-43560658D01*
X451160305Y-43459643D01*
X451160305Y-43392299D01*
X451193977Y-43291284D01*
X451867412Y-42617849D02*
X451934756Y-42550505D01*
X452035771Y-42516833D01*
X452103114Y-42516833D01*
X452204130Y-42550505D01*
X452372488Y-42651520D01*
X452540847Y-42819879D01*
X452641862Y-42988238D01*
X452675534Y-43089253D01*
X452675534Y-43156597D01*
X452641862Y-43257612D01*
X452574519Y-43324956D01*
X452473504Y-43358627D01*
X452406160Y-43358627D01*
X452305145Y-43324955D01*
X452136786Y-43223940D01*
X451968427Y-43055581D01*
X451867412Y-42887223D01*
X451833740Y-42786207D01*
X451833740Y-42718864D01*
X451867412Y-42617849D01*
X452641862Y-42314803D02*
X453113267Y-42786207D01*
X452709206Y-42382146D02*
X452709206Y-42314803D01*
X452742878Y-42213788D01*
X452843893Y-42112772D01*
X452944908Y-42079101D01*
X453045923Y-42112772D01*
X453416313Y-42483162D01*
D12*
X452704492Y-44321976D02*
X452704492Y-44338812D01*
X452687656Y-44372484D01*
X452670820Y-44389320D01*
X452637148Y-44406156D01*
X452603477Y-44406156D01*
X452578223Y-44397738D01*
X452536133Y-44372484D01*
X452510879Y-44347230D01*
X452485625Y-44305140D01*
X452477208Y-44279887D01*
X452477208Y-44246215D01*
X452494043Y-44212543D01*
X452510879Y-44195707D01*
X452544551Y-44178871D01*
X452561387Y-44178871D01*
X452889687Y-44170453D02*
X452788671Y-44271469D01*
X452839179Y-44220961D02*
X452662402Y-44044184D01*
X452670820Y-44086274D01*
X452670820Y-44119946D01*
X452662402Y-44145199D01*
X452797089Y-43943169D02*
X452797089Y-43926333D01*
X452805507Y-43901079D01*
X452847597Y-43858990D01*
X452872851Y-43850572D01*
X452889687Y-43850572D01*
X452914940Y-43858990D01*
X452931776Y-43875825D01*
X452948612Y-43909497D01*
X452948612Y-44111528D01*
X453058045Y-44002095D01*
%TO.C,C5*%
D11*
X477664542Y-34395180D02*
X477093114Y-34395180D01*
X477378828Y-34395180D02*
X477378828Y-33395180D01*
X477283590Y-33538038D01*
X477188352Y-33633276D01*
X477093114Y-33680895D01*
X478283590Y-33395180D02*
X478378828Y-33395180D01*
X478474066Y-33442800D01*
X478521685Y-33490419D01*
X478569304Y-33585657D01*
X478616923Y-33776133D01*
X478616923Y-34014228D01*
X478569304Y-34204704D01*
X478521685Y-34299942D01*
X478474066Y-34347561D01*
X478378828Y-34395180D01*
X478283590Y-34395180D01*
X478188352Y-34347561D01*
X478140733Y-34299942D01*
X478093114Y-34204704D01*
X478045495Y-34014228D01*
X478045495Y-33776133D01*
X478093114Y-33585657D01*
X478140733Y-33490419D01*
X478188352Y-33442800D01*
X478283590Y-33395180D01*
X479045495Y-33728514D02*
X479045495Y-34395180D01*
X479045495Y-33823752D02*
X479093114Y-33776133D01*
X479188352Y-33728514D01*
X479331209Y-33728514D01*
X479426447Y-33776133D01*
X479474066Y-33871371D01*
X479474066Y-34395180D01*
D12*
X478265733Y-35192085D02*
X478253828Y-35203990D01*
X478218114Y-35215895D01*
X478194304Y-35215895D01*
X478158590Y-35203990D01*
X478134780Y-35180180D01*
X478122876Y-35156371D01*
X478110971Y-35108752D01*
X478110971Y-35073038D01*
X478122876Y-35025419D01*
X478134780Y-35001609D01*
X478158590Y-34977800D01*
X478194304Y-34965895D01*
X478218114Y-34965895D01*
X478253828Y-34977800D01*
X478265733Y-34989704D01*
X478491923Y-34965895D02*
X478372876Y-34965895D01*
X478360971Y-35084942D01*
X478372876Y-35073038D01*
X478396685Y-35061133D01*
X478456209Y-35061133D01*
X478480019Y-35073038D01*
X478491923Y-35084942D01*
X478503828Y-35108752D01*
X478503828Y-35168276D01*
X478491923Y-35192085D01*
X478480019Y-35203990D01*
X478456209Y-35215895D01*
X478396685Y-35215895D01*
X478372876Y-35203990D01*
X478360971Y-35192085D01*
%TO.C,C4*%
D11*
X478140733Y-33252180D02*
X477569304Y-33252180D01*
X477855019Y-33252180D02*
X477855019Y-32252180D01*
X477759780Y-32395038D01*
X477664542Y-32490276D01*
X477569304Y-32537895D01*
X478997876Y-32585514D02*
X478997876Y-33252180D01*
X478569304Y-32585514D02*
X478569304Y-33109323D01*
X478616923Y-33204561D01*
X478712161Y-33252180D01*
X478855019Y-33252180D01*
X478950257Y-33204561D01*
X478997876Y-33156942D01*
D12*
X478265733Y-34049085D02*
X478253828Y-34060990D01*
X478218114Y-34072895D01*
X478194304Y-34072895D01*
X478158590Y-34060990D01*
X478134780Y-34037180D01*
X478122876Y-34013371D01*
X478110971Y-33965752D01*
X478110971Y-33930038D01*
X478122876Y-33882419D01*
X478134780Y-33858609D01*
X478158590Y-33834800D01*
X478194304Y-33822895D01*
X478218114Y-33822895D01*
X478253828Y-33834800D01*
X478265733Y-33846704D01*
X478480019Y-33906228D02*
X478480019Y-34072895D01*
X478420495Y-33810990D02*
X478360971Y-33989561D01*
X478515733Y-33989561D01*
%TO.C,C11*%
D11*
X472844952Y-49872380D02*
X472273523Y-49872380D01*
X472559238Y-49872380D02*
X472559238Y-48872380D01*
X472464000Y-49015238D01*
X472368761Y-49110476D01*
X472273523Y-49158095D01*
X473464000Y-48872380D02*
X473559238Y-48872380D01*
X473654476Y-48920000D01*
X473702095Y-48967619D01*
X473749714Y-49062857D01*
X473797333Y-49253333D01*
X473797333Y-49491428D01*
X473749714Y-49681904D01*
X473702095Y-49777142D01*
X473654476Y-49824761D01*
X473559238Y-49872380D01*
X473464000Y-49872380D01*
X473368761Y-49824761D01*
X473321142Y-49777142D01*
X473273523Y-49681904D01*
X473225904Y-49491428D01*
X473225904Y-49253333D01*
X473273523Y-49062857D01*
X473321142Y-48967619D01*
X473368761Y-48920000D01*
X473464000Y-48872380D01*
X474416380Y-48872380D02*
X474511619Y-48872380D01*
X474606857Y-48920000D01*
X474654476Y-48967619D01*
X474702095Y-49062857D01*
X474749714Y-49253333D01*
X474749714Y-49491428D01*
X474702095Y-49681904D01*
X474654476Y-49777142D01*
X474606857Y-49824761D01*
X474511619Y-49872380D01*
X474416380Y-49872380D01*
X474321142Y-49824761D01*
X474273523Y-49777142D01*
X474225904Y-49681904D01*
X474178285Y-49491428D01*
X474178285Y-49253333D01*
X474225904Y-49062857D01*
X474273523Y-48967619D01*
X474321142Y-48920000D01*
X474416380Y-48872380D01*
X475178285Y-49205714D02*
X475178285Y-49872380D01*
X475178285Y-49300952D02*
X475225904Y-49253333D01*
X475321142Y-49205714D01*
X475464000Y-49205714D01*
X475559238Y-49253333D01*
X475606857Y-49348571D01*
X475606857Y-49872380D01*
D12*
X473803285Y-48349285D02*
X473791380Y-48361190D01*
X473755666Y-48373095D01*
X473731857Y-48373095D01*
X473696142Y-48361190D01*
X473672333Y-48337380D01*
X473660428Y-48313571D01*
X473648523Y-48265952D01*
X473648523Y-48230238D01*
X473660428Y-48182619D01*
X473672333Y-48158809D01*
X473696142Y-48135000D01*
X473731857Y-48123095D01*
X473755666Y-48123095D01*
X473791380Y-48135000D01*
X473803285Y-48146904D01*
X474041380Y-48373095D02*
X473898523Y-48373095D01*
X473969952Y-48373095D02*
X473969952Y-48123095D01*
X473946142Y-48158809D01*
X473922333Y-48182619D01*
X473898523Y-48194523D01*
X474279476Y-48373095D02*
X474136619Y-48373095D01*
X474208047Y-48373095D02*
X474208047Y-48123095D01*
X474184238Y-48158809D01*
X474160428Y-48182619D01*
X474136619Y-48194523D01*
%TO.C,C10*%
D11*
X463497752Y-32185380D02*
X462926323Y-32185380D01*
X463212038Y-32185380D02*
X463212038Y-31185380D01*
X463116800Y-31328238D01*
X463021561Y-31423476D01*
X462926323Y-31471095D01*
X464116800Y-31185380D02*
X464212038Y-31185380D01*
X464307276Y-31233000D01*
X464354895Y-31280619D01*
X464402514Y-31375857D01*
X464450133Y-31566333D01*
X464450133Y-31804428D01*
X464402514Y-31994904D01*
X464354895Y-32090142D01*
X464307276Y-32137761D01*
X464212038Y-32185380D01*
X464116800Y-32185380D01*
X464021561Y-32137761D01*
X463973942Y-32090142D01*
X463926323Y-31994904D01*
X463878704Y-31804428D01*
X463878704Y-31566333D01*
X463926323Y-31375857D01*
X463973942Y-31280619D01*
X464021561Y-31233000D01*
X464116800Y-31185380D01*
X465069180Y-31185380D02*
X465164419Y-31185380D01*
X465259657Y-31233000D01*
X465307276Y-31280619D01*
X465354895Y-31375857D01*
X465402514Y-31566333D01*
X465402514Y-31804428D01*
X465354895Y-31994904D01*
X465307276Y-32090142D01*
X465259657Y-32137761D01*
X465164419Y-32185380D01*
X465069180Y-32185380D01*
X464973942Y-32137761D01*
X464926323Y-32090142D01*
X464878704Y-31994904D01*
X464831085Y-31804428D01*
X464831085Y-31566333D01*
X464878704Y-31375857D01*
X464926323Y-31280619D01*
X464973942Y-31233000D01*
X465069180Y-31185380D01*
X465831085Y-31518714D02*
X465831085Y-32185380D01*
X465831085Y-31613952D02*
X465878704Y-31566333D01*
X465973942Y-31518714D01*
X466116800Y-31518714D01*
X466212038Y-31566333D01*
X466259657Y-31661571D01*
X466259657Y-32185380D01*
D12*
X464456085Y-32982285D02*
X464444180Y-32994190D01*
X464408466Y-33006095D01*
X464384657Y-33006095D01*
X464348942Y-32994190D01*
X464325133Y-32970380D01*
X464313228Y-32946571D01*
X464301323Y-32898952D01*
X464301323Y-32863238D01*
X464313228Y-32815619D01*
X464325133Y-32791809D01*
X464348942Y-32768000D01*
X464384657Y-32756095D01*
X464408466Y-32756095D01*
X464444180Y-32768000D01*
X464456085Y-32779904D01*
X464694180Y-33006095D02*
X464551323Y-33006095D01*
X464622752Y-33006095D02*
X464622752Y-32756095D01*
X464598942Y-32791809D01*
X464575133Y-32815619D01*
X464551323Y-32827523D01*
X464848942Y-32756095D02*
X464872752Y-32756095D01*
X464896561Y-32768000D01*
X464908466Y-32779904D01*
X464920371Y-32803714D01*
X464932276Y-32851333D01*
X464932276Y-32910857D01*
X464920371Y-32958476D01*
X464908466Y-32982285D01*
X464896561Y-32994190D01*
X464872752Y-33006095D01*
X464848942Y-33006095D01*
X464825133Y-32994190D01*
X464813228Y-32982285D01*
X464801323Y-32958476D01*
X464789419Y-32910857D01*
X464789419Y-32851333D01*
X464801323Y-32803714D01*
X464813228Y-32779904D01*
X464825133Y-32768000D01*
X464848942Y-32756095D01*
%TO.C,C9*%
D11*
X467668380Y-55729047D02*
X467668380Y-56300476D01*
X467668380Y-56014761D02*
X466668380Y-56014761D01*
X466811238Y-56110000D01*
X466906476Y-56205238D01*
X466954095Y-56300476D01*
X466668380Y-55110000D02*
X466668380Y-55014761D01*
X466716000Y-54919523D01*
X466763619Y-54871904D01*
X466858857Y-54824285D01*
X467049333Y-54776666D01*
X467287428Y-54776666D01*
X467477904Y-54824285D01*
X467573142Y-54871904D01*
X467620761Y-54919523D01*
X467668380Y-55014761D01*
X467668380Y-55110000D01*
X467620761Y-55205238D01*
X467573142Y-55252857D01*
X467477904Y-55300476D01*
X467287428Y-55348095D01*
X467049333Y-55348095D01*
X466858857Y-55300476D01*
X466763619Y-55252857D01*
X466716000Y-55205238D01*
X466668380Y-55110000D01*
X466668380Y-54157619D02*
X466668380Y-54062380D01*
X466716000Y-53967142D01*
X466763619Y-53919523D01*
X466858857Y-53871904D01*
X467049333Y-53824285D01*
X467287428Y-53824285D01*
X467477904Y-53871904D01*
X467573142Y-53919523D01*
X467620761Y-53967142D01*
X467668380Y-54062380D01*
X467668380Y-54157619D01*
X467620761Y-54252857D01*
X467573142Y-54300476D01*
X467477904Y-54348095D01*
X467287428Y-54395714D01*
X467049333Y-54395714D01*
X466858857Y-54348095D01*
X466763619Y-54300476D01*
X466716000Y-54252857D01*
X466668380Y-54157619D01*
X467001714Y-53395714D02*
X467668380Y-53395714D01*
X467096952Y-53395714D02*
X467049333Y-53348095D01*
X467001714Y-53252857D01*
X467001714Y-53110000D01*
X467049333Y-53014761D01*
X467144571Y-52967142D01*
X467668380Y-52967142D01*
D12*
X468465285Y-54651666D02*
X468477190Y-54663571D01*
X468489095Y-54699285D01*
X468489095Y-54723095D01*
X468477190Y-54758809D01*
X468453380Y-54782619D01*
X468429571Y-54794523D01*
X468381952Y-54806428D01*
X468346238Y-54806428D01*
X468298619Y-54794523D01*
X468274809Y-54782619D01*
X468251000Y-54758809D01*
X468239095Y-54723095D01*
X468239095Y-54699285D01*
X468251000Y-54663571D01*
X468262904Y-54651666D01*
X468489095Y-54532619D02*
X468489095Y-54485000D01*
X468477190Y-54461190D01*
X468465285Y-54449285D01*
X468429571Y-54425476D01*
X468381952Y-54413571D01*
X468286714Y-54413571D01*
X468262904Y-54425476D01*
X468251000Y-54437380D01*
X468239095Y-54461190D01*
X468239095Y-54508809D01*
X468251000Y-54532619D01*
X468262904Y-54544523D01*
X468286714Y-54556428D01*
X468346238Y-54556428D01*
X468370047Y-54544523D01*
X468381952Y-54532619D01*
X468393857Y-54508809D01*
X468393857Y-54461190D01*
X468381952Y-54437380D01*
X468370047Y-54425476D01*
X468346238Y-54413571D01*
%TO.C,C8*%
D11*
X467931762Y-52783512D02*
X467527701Y-53187573D01*
X467729731Y-52985543D02*
X467022625Y-52278436D01*
X467056296Y-52446795D01*
X467056296Y-52581482D01*
X467022625Y-52682497D01*
X467662388Y-51638673D02*
X467729731Y-51571329D01*
X467830747Y-51537657D01*
X467898090Y-51537657D01*
X467999105Y-51571329D01*
X468167464Y-51672344D01*
X468335823Y-51840703D01*
X468436838Y-52009062D01*
X468470510Y-52110077D01*
X468470510Y-52177421D01*
X468436838Y-52278436D01*
X468369495Y-52345780D01*
X468268479Y-52379451D01*
X468201136Y-52379451D01*
X468100121Y-52345780D01*
X467931762Y-52244764D01*
X467763403Y-52076406D01*
X467662388Y-51908047D01*
X467628716Y-51807032D01*
X467628716Y-51739688D01*
X467662388Y-51638673D01*
X468335823Y-50965238D02*
X468403167Y-50897894D01*
X468504182Y-50864222D01*
X468571525Y-50864222D01*
X468672541Y-50897894D01*
X468840899Y-50998909D01*
X469009258Y-51167268D01*
X469110273Y-51335627D01*
X469143945Y-51436642D01*
X469143945Y-51503986D01*
X469110273Y-51605001D01*
X469042930Y-51672345D01*
X468941915Y-51706016D01*
X468874571Y-51706016D01*
X468773556Y-51672344D01*
X468605197Y-51571329D01*
X468436838Y-51402970D01*
X468335823Y-51234612D01*
X468302151Y-51133596D01*
X468302151Y-51066253D01*
X468335823Y-50965238D01*
X469110273Y-50662192D02*
X469581678Y-51133596D01*
X469177617Y-50729535D02*
X469177617Y-50662192D01*
X469211289Y-50561177D01*
X469312304Y-50460161D01*
X469413319Y-50426490D01*
X469514334Y-50460161D01*
X469884724Y-50830551D01*
D12*
X469257082Y-52585186D02*
X469257082Y-52602022D01*
X469240246Y-52635693D01*
X469223410Y-52652529D01*
X469189739Y-52669365D01*
X469156067Y-52669365D01*
X469130813Y-52660947D01*
X469088723Y-52635693D01*
X469063470Y-52610440D01*
X469038216Y-52568350D01*
X469029798Y-52543096D01*
X469029798Y-52509424D01*
X469046634Y-52475753D01*
X469063470Y-52458917D01*
X469097141Y-52442081D01*
X469113977Y-52442081D01*
X469273918Y-52399991D02*
X469248664Y-52408409D01*
X469231828Y-52408409D01*
X469206575Y-52399991D01*
X469198157Y-52391573D01*
X469189739Y-52366319D01*
X469189739Y-52349484D01*
X469198157Y-52324230D01*
X469231828Y-52290558D01*
X469257082Y-52282140D01*
X469273918Y-52282140D01*
X469299172Y-52290558D01*
X469307590Y-52298976D01*
X469316008Y-52324230D01*
X469316008Y-52341066D01*
X469307590Y-52366319D01*
X469273918Y-52399991D01*
X469265500Y-52425245D01*
X469265500Y-52442081D01*
X469273918Y-52467335D01*
X469307590Y-52501006D01*
X469332844Y-52509424D01*
X469349680Y-52509424D01*
X469374933Y-52501006D01*
X469408605Y-52467335D01*
X469417023Y-52442081D01*
X469417023Y-52425245D01*
X469408605Y-52399991D01*
X469374933Y-52366319D01*
X469349680Y-52357901D01*
X469332844Y-52357901D01*
X469307590Y-52366319D01*
%TO.C,C7*%
D11*
X472870788Y-42081039D02*
X472466727Y-41676978D01*
X472668757Y-41879008D02*
X473375864Y-41171902D01*
X473207505Y-41205573D01*
X473072818Y-41205573D01*
X472971803Y-41171902D01*
X474015627Y-41811665D02*
X474082971Y-41879008D01*
X474116643Y-41980024D01*
X474116643Y-42047367D01*
X474082971Y-42148382D01*
X473981956Y-42316741D01*
X473813597Y-42485100D01*
X473645238Y-42586115D01*
X473544223Y-42619787D01*
X473476879Y-42619787D01*
X473375864Y-42586115D01*
X473308520Y-42518772D01*
X473274849Y-42417756D01*
X473274849Y-42350413D01*
X473308520Y-42249398D01*
X473409536Y-42081039D01*
X473577894Y-41912680D01*
X473746253Y-41811665D01*
X473847268Y-41777993D01*
X473914612Y-41777993D01*
X474015627Y-41811665D01*
X474689062Y-42485100D02*
X474756406Y-42552444D01*
X474790078Y-42653459D01*
X474790078Y-42720802D01*
X474756406Y-42821818D01*
X474655391Y-42990176D01*
X474487032Y-43158535D01*
X474318673Y-43259550D01*
X474217658Y-43293222D01*
X474150314Y-43293222D01*
X474049299Y-43259550D01*
X473981956Y-43192207D01*
X473948284Y-43091192D01*
X473948284Y-43023848D01*
X473981956Y-42922833D01*
X474082971Y-42754474D01*
X474251330Y-42586115D01*
X474419688Y-42485100D01*
X474520704Y-42451428D01*
X474588047Y-42451428D01*
X474689062Y-42485100D01*
X474992108Y-43259550D02*
X474520704Y-43730955D01*
X474924765Y-43326894D02*
X474992108Y-43326894D01*
X475093123Y-43360566D01*
X475194139Y-43461581D01*
X475227810Y-43562596D01*
X475194139Y-43663611D01*
X474823749Y-44034001D01*
D12*
X474709602Y-41765871D02*
X474692766Y-41765871D01*
X474659095Y-41749035D01*
X474642259Y-41732199D01*
X474625423Y-41698528D01*
X474625423Y-41664856D01*
X474633841Y-41639602D01*
X474659095Y-41597512D01*
X474684348Y-41572259D01*
X474726438Y-41547005D01*
X474751692Y-41538587D01*
X474785364Y-41538587D01*
X474819035Y-41555423D01*
X474835871Y-41572259D01*
X474852707Y-41605930D01*
X474852707Y-41622766D01*
X474928469Y-41664856D02*
X475046320Y-41782707D01*
X474793782Y-41883722D01*
%TO.C,C6*%
D11*
X475963519Y-45007960D02*
X476434924Y-45479364D01*
X475525787Y-44906945D02*
X475862504Y-45580380D01*
X476300237Y-45142647D01*
X476636955Y-44334525D02*
X477108359Y-44805929D01*
X476333909Y-44637571D02*
X476704298Y-45007960D01*
X476805313Y-45041632D01*
X476906329Y-45007960D01*
X477007344Y-44906945D01*
X477041016Y-44805929D01*
X477041016Y-44738586D01*
X476670626Y-43829448D02*
X477142031Y-43358044D01*
X477546092Y-44368196D01*
D16*
X475679666Y-43774563D02*
X475679666Y-43801501D01*
X475652729Y-43855375D01*
X475625792Y-43882313D01*
X475571917Y-43909250D01*
X475518042Y-43909250D01*
X475477636Y-43895782D01*
X475410292Y-43855375D01*
X475369886Y-43814969D01*
X475329480Y-43747626D01*
X475316011Y-43707220D01*
X475316011Y-43653345D01*
X475342949Y-43599470D01*
X475369886Y-43572533D01*
X475423761Y-43545595D01*
X475450698Y-43545595D01*
X475666198Y-43276221D02*
X475612323Y-43330096D01*
X475598854Y-43370502D01*
X475598854Y-43397440D01*
X475612323Y-43464783D01*
X475652729Y-43532127D01*
X475760479Y-43639876D01*
X475800885Y-43653345D01*
X475827822Y-43653345D01*
X475868228Y-43639876D01*
X475922103Y-43586001D01*
X475935572Y-43545595D01*
X475935572Y-43518658D01*
X475922103Y-43478252D01*
X475854759Y-43410908D01*
X475814353Y-43397440D01*
X475787416Y-43397440D01*
X475747010Y-43410908D01*
X475693135Y-43464783D01*
X475679666Y-43505189D01*
X475679666Y-43532127D01*
X475693135Y-43572533D01*
%TO.C,R10*%
D11*
X447662380Y-35315857D02*
X447662380Y-35792047D01*
X448138571Y-35839666D01*
X448090952Y-35792047D01*
X448043333Y-35696809D01*
X448043333Y-35458714D01*
X448090952Y-35363476D01*
X448138571Y-35315857D01*
X448233809Y-35268238D01*
X448471904Y-35268238D01*
X448567142Y-35315857D01*
X448614761Y-35363476D01*
X448662380Y-35458714D01*
X448662380Y-35696809D01*
X448614761Y-35792047D01*
X448567142Y-35839666D01*
X448662380Y-34839666D02*
X447662380Y-34839666D01*
X448281428Y-34744428D02*
X448662380Y-34458714D01*
X447995714Y-34458714D02*
X448376666Y-34839666D01*
X448662380Y-33506333D02*
X448662380Y-34077761D01*
X448662380Y-33792047D02*
X447662380Y-33792047D01*
X447805238Y-33887285D01*
X447900476Y-33982523D01*
X447948095Y-34077761D01*
D12*
X447157619Y-34840142D02*
X447033809Y-34926809D01*
X447157619Y-34988714D02*
X446897619Y-34988714D01*
X446897619Y-34889666D01*
X446910000Y-34864904D01*
X446922380Y-34852523D01*
X446947142Y-34840142D01*
X446984285Y-34840142D01*
X447009047Y-34852523D01*
X447021428Y-34864904D01*
X447033809Y-34889666D01*
X447033809Y-34988714D01*
X447157619Y-34592523D02*
X447157619Y-34741095D01*
X447157619Y-34666809D02*
X446897619Y-34666809D01*
X446934761Y-34691571D01*
X446959523Y-34716333D01*
X446971904Y-34741095D01*
X446897619Y-34431571D02*
X446897619Y-34406809D01*
X446910000Y-34382047D01*
X446922380Y-34369666D01*
X446947142Y-34357285D01*
X446996666Y-34344904D01*
X447058571Y-34344904D01*
X447108095Y-34357285D01*
X447132857Y-34369666D01*
X447145238Y-34382047D01*
X447157619Y-34406809D01*
X447157619Y-34431571D01*
X447145238Y-34456333D01*
X447132857Y-34468714D01*
X447108095Y-34481095D01*
X447058571Y-34493476D01*
X446996666Y-34493476D01*
X446947142Y-34481095D01*
X446922380Y-34468714D01*
X446910000Y-34456333D01*
X446897619Y-34431571D01*
%TO.C,R9*%
D11*
X479806095Y-33556619D02*
X479853714Y-33509000D01*
X479948952Y-33461380D01*
X480187047Y-33461380D01*
X480282285Y-33509000D01*
X480329904Y-33556619D01*
X480377523Y-33651857D01*
X480377523Y-33747095D01*
X480329904Y-33889952D01*
X479758476Y-34461380D01*
X480377523Y-34461380D01*
X480758476Y-33556619D02*
X480806095Y-33509000D01*
X480901333Y-33461380D01*
X481139428Y-33461380D01*
X481234666Y-33509000D01*
X481282285Y-33556619D01*
X481329904Y-33651857D01*
X481329904Y-33747095D01*
X481282285Y-33889952D01*
X480710857Y-34461380D01*
X481329904Y-34461380D01*
D12*
X480524666Y-35296619D02*
X480438000Y-35172809D01*
X480376095Y-35296619D02*
X480376095Y-35036619D01*
X480475142Y-35036619D01*
X480499904Y-35049000D01*
X480512285Y-35061380D01*
X480524666Y-35086142D01*
X480524666Y-35123285D01*
X480512285Y-35148047D01*
X480499904Y-35160428D01*
X480475142Y-35172809D01*
X480376095Y-35172809D01*
X480648476Y-35296619D02*
X480698000Y-35296619D01*
X480722761Y-35284238D01*
X480735142Y-35271857D01*
X480759904Y-35234714D01*
X480772285Y-35185190D01*
X480772285Y-35086142D01*
X480759904Y-35061380D01*
X480747523Y-35049000D01*
X480722761Y-35036619D01*
X480673238Y-35036619D01*
X480648476Y-35049000D01*
X480636095Y-35061380D01*
X480623714Y-35086142D01*
X480623714Y-35148047D01*
X480636095Y-35172809D01*
X480648476Y-35185190D01*
X480673238Y-35197571D01*
X480722761Y-35197571D01*
X480747523Y-35185190D01*
X480759904Y-35172809D01*
X480772285Y-35148047D01*
%TO.C,R8*%
D11*
X434314695Y-52251019D02*
X434362314Y-52203400D01*
X434457552Y-52155780D01*
X434695647Y-52155780D01*
X434790885Y-52203400D01*
X434838504Y-52251019D01*
X434886123Y-52346257D01*
X434886123Y-52441495D01*
X434838504Y-52584352D01*
X434267076Y-53155780D01*
X434886123Y-53155780D01*
X435267076Y-52251019D02*
X435314695Y-52203400D01*
X435409933Y-52155780D01*
X435648028Y-52155780D01*
X435743266Y-52203400D01*
X435790885Y-52251019D01*
X435838504Y-52346257D01*
X435838504Y-52441495D01*
X435790885Y-52584352D01*
X435219457Y-53155780D01*
X435838504Y-53155780D01*
D12*
X435033266Y-53991019D02*
X434946600Y-53867209D01*
X434884695Y-53991019D02*
X434884695Y-53731019D01*
X434983742Y-53731019D01*
X435008504Y-53743400D01*
X435020885Y-53755780D01*
X435033266Y-53780542D01*
X435033266Y-53817685D01*
X435020885Y-53842447D01*
X435008504Y-53854828D01*
X434983742Y-53867209D01*
X434884695Y-53867209D01*
X435181838Y-53842447D02*
X435157076Y-53830066D01*
X435144695Y-53817685D01*
X435132314Y-53792923D01*
X435132314Y-53780542D01*
X435144695Y-53755780D01*
X435157076Y-53743400D01*
X435181838Y-53731019D01*
X435231361Y-53731019D01*
X435256123Y-53743400D01*
X435268504Y-53755780D01*
X435280885Y-53780542D01*
X435280885Y-53792923D01*
X435268504Y-53817685D01*
X435256123Y-53830066D01*
X435231361Y-53842447D01*
X435181838Y-53842447D01*
X435157076Y-53854828D01*
X435144695Y-53867209D01*
X435132314Y-53891971D01*
X435132314Y-53941495D01*
X435144695Y-53966257D01*
X435157076Y-53978638D01*
X435181838Y-53991019D01*
X435231361Y-53991019D01*
X435256123Y-53978638D01*
X435268504Y-53966257D01*
X435280885Y-53941495D01*
X435280885Y-53891971D01*
X435268504Y-53867209D01*
X435256123Y-53854828D01*
X435231361Y-53842447D01*
%TO.C,R5*%
D11*
X426847095Y-43996019D02*
X426894714Y-43948400D01*
X426989952Y-43900780D01*
X427228047Y-43900780D01*
X427323285Y-43948400D01*
X427370904Y-43996019D01*
X427418523Y-44091257D01*
X427418523Y-44186495D01*
X427370904Y-44329352D01*
X426799476Y-44900780D01*
X427418523Y-44900780D01*
X427799476Y-43996019D02*
X427847095Y-43948400D01*
X427942333Y-43900780D01*
X428180428Y-43900780D01*
X428275666Y-43948400D01*
X428323285Y-43996019D01*
X428370904Y-44091257D01*
X428370904Y-44186495D01*
X428323285Y-44329352D01*
X427751857Y-44900780D01*
X428370904Y-44900780D01*
D12*
X427565666Y-45736019D02*
X427479000Y-45612209D01*
X427417095Y-45736019D02*
X427417095Y-45476019D01*
X427516142Y-45476019D01*
X427540904Y-45488400D01*
X427553285Y-45500780D01*
X427565666Y-45525542D01*
X427565666Y-45562685D01*
X427553285Y-45587447D01*
X427540904Y-45599828D01*
X427516142Y-45612209D01*
X427417095Y-45612209D01*
X427800904Y-45476019D02*
X427677095Y-45476019D01*
X427664714Y-45599828D01*
X427677095Y-45587447D01*
X427701857Y-45575066D01*
X427763761Y-45575066D01*
X427788523Y-45587447D01*
X427800904Y-45599828D01*
X427813285Y-45624590D01*
X427813285Y-45686495D01*
X427800904Y-45711257D01*
X427788523Y-45723638D01*
X427763761Y-45736019D01*
X427701857Y-45736019D01*
X427677095Y-45723638D01*
X427664714Y-45711257D01*
%TO.C,J7*%
D11*
X467078571Y-61761428D02*
X467126190Y-61618571D01*
X467173809Y-61570952D01*
X467269047Y-61523333D01*
X467411904Y-61523333D01*
X467507142Y-61570952D01*
X467554761Y-61618571D01*
X467602380Y-61713809D01*
X467602380Y-62094761D01*
X466602380Y-62094761D01*
X466602380Y-61761428D01*
X466650000Y-61666190D01*
X466697619Y-61618571D01*
X466792857Y-61570952D01*
X466888095Y-61570952D01*
X466983333Y-61618571D01*
X467030952Y-61666190D01*
X467078571Y-61761428D01*
X467078571Y-62094761D01*
X467602380Y-60951904D02*
X467554761Y-61047142D01*
X467507142Y-61094761D01*
X467411904Y-61142380D01*
X467126190Y-61142380D01*
X467030952Y-61094761D01*
X466983333Y-61047142D01*
X466935714Y-60951904D01*
X466935714Y-60809047D01*
X466983333Y-60713809D01*
X467030952Y-60666190D01*
X467126190Y-60618571D01*
X467411904Y-60618571D01*
X467507142Y-60666190D01*
X467554761Y-60713809D01*
X467602380Y-60809047D01*
X467602380Y-60951904D01*
X466935714Y-60332857D02*
X466935714Y-59951904D01*
X466602380Y-60190000D02*
X467459523Y-60190000D01*
X467554761Y-60142380D01*
X467602380Y-60047142D01*
X467602380Y-59951904D01*
X466935714Y-59761428D02*
X466935714Y-59380476D01*
X466602380Y-59618571D02*
X467459523Y-59618571D01*
X467554761Y-59570952D01*
X467602380Y-59475714D01*
X467602380Y-59380476D01*
X467602380Y-58904285D02*
X467554761Y-58999523D01*
X467507142Y-59047142D01*
X467411904Y-59094761D01*
X467126190Y-59094761D01*
X467030952Y-59047142D01*
X466983333Y-58999523D01*
X466935714Y-58904285D01*
X466935714Y-58761428D01*
X466983333Y-58666190D01*
X467030952Y-58618571D01*
X467126190Y-58570952D01*
X467411904Y-58570952D01*
X467507142Y-58618571D01*
X467554761Y-58666190D01*
X467602380Y-58761428D01*
X467602380Y-58904285D01*
X467602380Y-58142380D02*
X466935714Y-58142380D01*
X467030952Y-58142380D02*
X466983333Y-58094761D01*
X466935714Y-57999523D01*
X466935714Y-57856666D01*
X466983333Y-57761428D01*
X467078571Y-57713809D01*
X467602380Y-57713809D01*
X467078571Y-57713809D02*
X466983333Y-57666190D01*
X466935714Y-57570952D01*
X466935714Y-57428095D01*
X466983333Y-57332857D01*
X467078571Y-57285238D01*
X467602380Y-57285238D01*
X440356666Y-59142380D02*
X440356666Y-59856666D01*
X440309047Y-59999523D01*
X440213809Y-60094761D01*
X440070952Y-60142380D01*
X439975714Y-60142380D01*
X440737619Y-59142380D02*
X441404285Y-59142380D01*
X440975714Y-60142380D01*
%TO.C,J4*%
X484020952Y-63742380D02*
X483687619Y-63266190D01*
X483449523Y-63742380D02*
X483449523Y-62742380D01*
X483830476Y-62742380D01*
X483925714Y-62790000D01*
X483973333Y-62837619D01*
X484020952Y-62932857D01*
X484020952Y-63075714D01*
X483973333Y-63170952D01*
X483925714Y-63218571D01*
X483830476Y-63266190D01*
X483449523Y-63266190D01*
X484449523Y-63742380D02*
X484449523Y-63075714D01*
X484449523Y-62742380D02*
X484401904Y-62790000D01*
X484449523Y-62837619D01*
X484497142Y-62790000D01*
X484449523Y-62742380D01*
X484449523Y-62837619D01*
X485354285Y-63075714D02*
X485354285Y-63885238D01*
X485306666Y-63980476D01*
X485259047Y-64028095D01*
X485163809Y-64075714D01*
X485020952Y-64075714D01*
X484925714Y-64028095D01*
X485354285Y-63694761D02*
X485259047Y-63742380D01*
X485068571Y-63742380D01*
X484973333Y-63694761D01*
X484925714Y-63647142D01*
X484878095Y-63551904D01*
X484878095Y-63266190D01*
X484925714Y-63170952D01*
X484973333Y-63123333D01*
X485068571Y-63075714D01*
X485259047Y-63075714D01*
X485354285Y-63123333D01*
X485830476Y-63742380D02*
X485830476Y-62742380D01*
X486259047Y-63742380D02*
X486259047Y-63218571D01*
X486211428Y-63123333D01*
X486116190Y-63075714D01*
X485973333Y-63075714D01*
X485878095Y-63123333D01*
X485830476Y-63170952D01*
X486592380Y-63075714D02*
X486973333Y-63075714D01*
X486735238Y-62742380D02*
X486735238Y-63599523D01*
X486782857Y-63694761D01*
X486878095Y-63742380D01*
X486973333Y-63742380D01*
X484592380Y-47323333D02*
X485306666Y-47323333D01*
X485449523Y-47370952D01*
X485544761Y-47466190D01*
X485592380Y-47609047D01*
X485592380Y-47704285D01*
X484925714Y-46418571D02*
X485592380Y-46418571D01*
X484544761Y-46656666D02*
X485259047Y-46894761D01*
X485259047Y-46275714D01*
%TO.C,FB2*%
X473872609Y-37603780D02*
X473682133Y-37603780D01*
X473586895Y-37651400D01*
X473539276Y-37699019D01*
X473444038Y-37841876D01*
X473396419Y-38032352D01*
X473396419Y-38413304D01*
X473444038Y-38508542D01*
X473491657Y-38556161D01*
X473586895Y-38603780D01*
X473777371Y-38603780D01*
X473872609Y-38556161D01*
X473920228Y-38508542D01*
X473967847Y-38413304D01*
X473967847Y-38175209D01*
X473920228Y-38079971D01*
X473872609Y-38032352D01*
X473777371Y-37984733D01*
X473586895Y-37984733D01*
X473491657Y-38032352D01*
X473444038Y-38079971D01*
X473396419Y-38175209D01*
X474586895Y-37603780D02*
X474682133Y-37603780D01*
X474777371Y-37651400D01*
X474824990Y-37699019D01*
X474872609Y-37794257D01*
X474920228Y-37984733D01*
X474920228Y-38222828D01*
X474872609Y-38413304D01*
X474824990Y-38508542D01*
X474777371Y-38556161D01*
X474682133Y-38603780D01*
X474586895Y-38603780D01*
X474491657Y-38556161D01*
X474444038Y-38508542D01*
X474396419Y-38413304D01*
X474348800Y-38222828D01*
X474348800Y-37984733D01*
X474396419Y-37794257D01*
X474444038Y-37699019D01*
X474491657Y-37651400D01*
X474586895Y-37603780D01*
X475539276Y-37603780D02*
X475634514Y-37603780D01*
X475729752Y-37651400D01*
X475777371Y-37699019D01*
X475824990Y-37794257D01*
X475872609Y-37984733D01*
X475872609Y-38222828D01*
X475824990Y-38413304D01*
X475777371Y-38508542D01*
X475729752Y-38556161D01*
X475634514Y-38603780D01*
X475539276Y-38603780D01*
X475444038Y-38556161D01*
X475396419Y-38508542D01*
X475348800Y-38413304D01*
X475301180Y-38222828D01*
X475301180Y-37984733D01*
X475348800Y-37794257D01*
X475396419Y-37699019D01*
X475444038Y-37651400D01*
X475539276Y-37603780D01*
X477682133Y-38127590D02*
X477634514Y-38079971D01*
X477539276Y-38032352D01*
X477444038Y-38032352D01*
X477348800Y-38079971D01*
X477301180Y-38127590D01*
X477253561Y-38222828D01*
X477253561Y-38318066D01*
X477301180Y-38413304D01*
X477348800Y-38460923D01*
X477444038Y-38508542D01*
X477539276Y-38508542D01*
X477634514Y-38460923D01*
X477682133Y-38413304D01*
X477682133Y-38032352D02*
X477682133Y-38413304D01*
X477729752Y-38460923D01*
X477777371Y-38460923D01*
X477872609Y-38413304D01*
X477920228Y-38318066D01*
X477920228Y-38079971D01*
X477824990Y-37937114D01*
X477682133Y-37841876D01*
X477491657Y-37794257D01*
X477301180Y-37841876D01*
X477158323Y-37937114D01*
X477063085Y-38079971D01*
X477015466Y-38270447D01*
X477063085Y-38460923D01*
X477158323Y-38603780D01*
X477301180Y-38699019D01*
X477491657Y-38746638D01*
X477682133Y-38699019D01*
X477824990Y-38603780D01*
X479539276Y-37603780D02*
X479348800Y-37603780D01*
X479253561Y-37651400D01*
X479205942Y-37699019D01*
X479110704Y-37841876D01*
X479063085Y-38032352D01*
X479063085Y-38413304D01*
X479110704Y-38508542D01*
X479158323Y-38556161D01*
X479253561Y-38603780D01*
X479444038Y-38603780D01*
X479539276Y-38556161D01*
X479586895Y-38508542D01*
X479634514Y-38413304D01*
X479634514Y-38175209D01*
X479586895Y-38079971D01*
X479539276Y-38032352D01*
X479444038Y-37984733D01*
X479253561Y-37984733D01*
X479158323Y-38032352D01*
X479110704Y-38079971D01*
X479063085Y-38175209D01*
X480253561Y-37603780D02*
X480348800Y-37603780D01*
X480444038Y-37651400D01*
X480491657Y-37699019D01*
X480539276Y-37794257D01*
X480586895Y-37984733D01*
X480586895Y-38222828D01*
X480539276Y-38413304D01*
X480491657Y-38508542D01*
X480444038Y-38556161D01*
X480348800Y-38603780D01*
X480253561Y-38603780D01*
X480158323Y-38556161D01*
X480110704Y-38508542D01*
X480063085Y-38413304D01*
X480015466Y-38222828D01*
X480015466Y-37984733D01*
X480063085Y-37794257D01*
X480110704Y-37699019D01*
X480158323Y-37651400D01*
X480253561Y-37603780D01*
X481205942Y-37603780D02*
X481301180Y-37603780D01*
X481396419Y-37651400D01*
X481444038Y-37699019D01*
X481491657Y-37794257D01*
X481539276Y-37984733D01*
X481539276Y-38222828D01*
X481491657Y-38413304D01*
X481444038Y-38508542D01*
X481396419Y-38556161D01*
X481301180Y-38603780D01*
X481205942Y-38603780D01*
X481110704Y-38556161D01*
X481063085Y-38508542D01*
X481015466Y-38413304D01*
X480967847Y-38222828D01*
X480967847Y-37984733D01*
X481015466Y-37794257D01*
X481063085Y-37699019D01*
X481110704Y-37651400D01*
X481205942Y-37603780D01*
X482729752Y-38603780D02*
X482729752Y-37603780D01*
X483063085Y-38318066D01*
X483396419Y-37603780D01*
X483396419Y-38603780D01*
X483872609Y-38603780D02*
X483872609Y-37603780D01*
X483872609Y-38079971D02*
X484444038Y-38079971D01*
X484444038Y-38603780D02*
X484444038Y-37603780D01*
X484824990Y-37937114D02*
X485348800Y-37937114D01*
X484824990Y-38603780D01*
X485348800Y-38603780D01*
D15*
X478932133Y-36565685D02*
X478765466Y-36565685D01*
X478765466Y-36827590D02*
X478765466Y-36327590D01*
X479003561Y-36327590D01*
X479360704Y-36565685D02*
X479432133Y-36589495D01*
X479455942Y-36613304D01*
X479479752Y-36660923D01*
X479479752Y-36732352D01*
X479455942Y-36779971D01*
X479432133Y-36803780D01*
X479384514Y-36827590D01*
X479194038Y-36827590D01*
X479194038Y-36327590D01*
X479360704Y-36327590D01*
X479408323Y-36351400D01*
X479432133Y-36375209D01*
X479455942Y-36422828D01*
X479455942Y-36470447D01*
X479432133Y-36518066D01*
X479408323Y-36541876D01*
X479360704Y-36565685D01*
X479194038Y-36565685D01*
X479670228Y-36375209D02*
X479694038Y-36351400D01*
X479741657Y-36327590D01*
X479860704Y-36327590D01*
X479908323Y-36351400D01*
X479932133Y-36375209D01*
X479955942Y-36422828D01*
X479955942Y-36470447D01*
X479932133Y-36541876D01*
X479646419Y-36827590D01*
X479955942Y-36827590D01*
%TO.C,F1*%
D11*
X442387819Y-42141685D02*
X442340200Y-42094066D01*
X442292580Y-41998828D01*
X442292580Y-41760733D01*
X442340200Y-41665495D01*
X442387819Y-41617876D01*
X442483057Y-41570257D01*
X442578295Y-41570257D01*
X442721152Y-41617876D01*
X443292580Y-42189304D01*
X443292580Y-41570257D01*
X443006866Y-41189304D02*
X443006866Y-40713114D01*
X443292580Y-41284542D02*
X442292580Y-40951209D01*
X443292580Y-40617876D01*
D17*
X440963057Y-41694066D02*
X440963057Y-41960733D01*
X441382104Y-41960733D02*
X440582104Y-41960733D01*
X440582104Y-41579780D01*
X441382104Y-40855971D02*
X441382104Y-41313114D01*
X441382104Y-41084542D02*
X440582104Y-41084542D01*
X440696390Y-41160733D01*
X440772580Y-41236923D01*
X440810676Y-41313114D01*
%TO.C,C17*%
D11*
X473004305Y-52374556D02*
X472600244Y-51970495D01*
X472802275Y-52172526D02*
X473509381Y-51465419D01*
X473341023Y-51499091D01*
X473206336Y-51499091D01*
X473105320Y-51465419D01*
X473913443Y-52004167D02*
X473980786Y-52004167D01*
X474081801Y-52037839D01*
X474250160Y-52206198D01*
X474283832Y-52307213D01*
X474283832Y-52374556D01*
X474250160Y-52475572D01*
X474182817Y-52542915D01*
X474048130Y-52610259D01*
X473240007Y-52610259D01*
X473677740Y-53047992D01*
X474452191Y-52879633D02*
X473745084Y-53586740D01*
X474418519Y-52913305D02*
X474519534Y-52946976D01*
X474654221Y-53081663D01*
X474687893Y-53182679D01*
X474687893Y-53250022D01*
X474654221Y-53351037D01*
X474452191Y-53553068D01*
X474351175Y-53586740D01*
X474283832Y-53586740D01*
X474182817Y-53553068D01*
X474048130Y-53418381D01*
X474014458Y-53317366D01*
D12*
X474422223Y-51638492D02*
X474405387Y-51638492D01*
X474371715Y-51621656D01*
X474354879Y-51604820D01*
X474338043Y-51571148D01*
X474338043Y-51537477D01*
X474346461Y-51512223D01*
X474371715Y-51470133D01*
X474396969Y-51444879D01*
X474439059Y-51419625D01*
X474464312Y-51411208D01*
X474497984Y-51411208D01*
X474531656Y-51428043D01*
X474548492Y-51444879D01*
X474565328Y-51478551D01*
X474565328Y-51495387D01*
X474573746Y-51823687D02*
X474472730Y-51722671D01*
X474523238Y-51773179D02*
X474700015Y-51596402D01*
X474657925Y-51604820D01*
X474624253Y-51604820D01*
X474599000Y-51596402D01*
X474809448Y-51705835D02*
X474927299Y-51823687D01*
X474674761Y-51924702D01*
%TO.C,U2*%
D11*
X466299080Y-34068608D02*
X466366424Y-34203295D01*
X466534783Y-34371654D01*
X466635798Y-34405326D01*
X466703141Y-34405326D01*
X466804157Y-34371654D01*
X466871500Y-34304310D01*
X466905172Y-34203295D01*
X466905172Y-34135952D01*
X466871500Y-34034936D01*
X466770485Y-33866578D01*
X466736813Y-33765562D01*
X466736813Y-33698219D01*
X466770485Y-33597204D01*
X466837828Y-33529860D01*
X466938844Y-33496188D01*
X467006187Y-33496188D01*
X467107202Y-33529860D01*
X467275561Y-33698219D01*
X467342905Y-33832906D01*
X467578607Y-34001265D02*
X467982668Y-34405326D01*
X467073531Y-34910402D02*
X467780637Y-34203295D01*
X467511263Y-35348135D02*
X468218370Y-34641028D01*
X467948996Y-35381807D01*
X468689775Y-35112433D01*
X467982668Y-35819539D01*
X468959149Y-35381807D02*
X469396882Y-35819539D01*
X468891805Y-35853211D01*
X468992821Y-35954226D01*
X469026492Y-36055242D01*
X469026492Y-36122585D01*
X468992821Y-36223600D01*
X468824462Y-36391959D01*
X468723447Y-36425631D01*
X468656103Y-36425631D01*
X468555088Y-36391959D01*
X468353057Y-36189929D01*
X468319386Y-36088913D01*
X468319386Y-36021570D01*
X469598912Y-36156257D02*
X469666256Y-36156257D01*
X469767271Y-36189929D01*
X469935630Y-36358287D01*
X469969301Y-36459303D01*
X469969301Y-36526646D01*
X469935630Y-36627661D01*
X469868286Y-36695005D01*
X469733599Y-36762348D01*
X468925477Y-36762348D01*
X469363210Y-37200081D01*
X470272347Y-37368440D02*
X470036645Y-37132738D01*
X469666256Y-37503127D02*
X470373362Y-36796020D01*
X470710080Y-37132738D01*
X471046797Y-37940860D02*
X470575393Y-38412264D01*
X471147813Y-37503127D02*
X470474378Y-37839844D01*
X470912110Y-38277577D01*
X471787576Y-38210234D02*
X471854919Y-38277577D01*
X471888591Y-38378592D01*
X471888591Y-38445936D01*
X471854919Y-38546951D01*
X471753904Y-38715310D01*
X471585545Y-38883669D01*
X471417187Y-38984684D01*
X471316171Y-39018356D01*
X471248828Y-39018356D01*
X471147813Y-38984684D01*
X471080469Y-38917340D01*
X471046797Y-38816325D01*
X471046797Y-38748982D01*
X471080469Y-38647966D01*
X471181484Y-38479608D01*
X471349843Y-38311249D01*
X471518202Y-38210234D01*
X471619217Y-38176562D01*
X471686561Y-38176562D01*
X471787576Y-38210234D01*
X472258980Y-38681638D02*
X472730385Y-39153043D01*
X471720232Y-39557104D01*
X472898744Y-39321401D02*
X472427339Y-40264210D01*
X473370148Y-39792806D01*
X473269133Y-40365226D02*
X473504835Y-40600928D01*
X473235461Y-41072333D02*
X472898744Y-40735615D01*
X473605851Y-40028508D01*
X473942568Y-40365226D01*
X474144599Y-40567256D02*
X474548660Y-40971317D01*
X473639522Y-41476394D02*
X474346629Y-40769287D01*
X474009912Y-41846783D02*
X474851705Y-41745768D01*
X474481316Y-41375378D02*
X474380301Y-42217172D01*
X463813432Y-43557981D02*
X463241012Y-44130401D01*
X463207340Y-44231416D01*
X463207340Y-44298760D01*
X463241012Y-44399775D01*
X463375699Y-44534462D01*
X463476714Y-44568134D01*
X463544058Y-44568134D01*
X463645073Y-44534462D01*
X464217493Y-43962042D01*
X464453195Y-44332432D02*
X464520538Y-44332432D01*
X464621554Y-44366103D01*
X464789912Y-44534462D01*
X464823584Y-44635477D01*
X464823584Y-44702821D01*
X464789912Y-44803836D01*
X464722569Y-44871180D01*
X464587882Y-44938523D01*
X463779760Y-44938523D01*
X464217493Y-45376256D01*
%TD*%
M02*
