%TF.GenerationSoftware,KiCad,Pcbnew,(5.1.9)-1*%
%TF.CreationDate,2021-03-09T20:48:28+01:00*%
%TF.ProjectId,poly_kb,706f6c79-5f6b-4622-9e6b-696361645f70,rev?*%
%TF.SameCoordinates,Original*%
%TF.FileFunction,Soldermask,Bot*%
%TF.FilePolarity,Negative*%
%FSLAX46Y46*%
G04 Gerber Fmt 4.6, Leading zero omitted, Abs format (unit mm)*
G04 Created by KiCad (PCBNEW (5.1.9)-1) date 2021-03-09 20:48:28*
%MOMM*%
%LPD*%
G01*
G04 APERTURE LIST*
%ADD10O,1.700000X1.700000*%
%ADD11R,1.700000X1.700000*%
%ADD12R,1.400000X3.500000*%
%ADD13C,0.800000*%
%ADD14O,1.000000X2.100000*%
%ADD15C,0.650000*%
%ADD16O,1.000000X1.600000*%
G04 APERTURE END LIST*
D10*
%TO.C,J8*%
X430530000Y-35560000D03*
D11*
X430530000Y-33020000D03*
%TD*%
D10*
%TO.C,J3*%
X419100000Y-55880000D03*
X416560000Y-55880000D03*
X419100000Y-53340000D03*
X416560000Y-53340000D03*
X419100000Y-50800000D03*
X416560000Y-50800000D03*
X419100000Y-48260000D03*
X416560000Y-48260000D03*
X419100000Y-45720000D03*
X416560000Y-45720000D03*
X419100000Y-43180000D03*
D11*
X416560000Y-43180000D03*
%TD*%
D12*
%TO.C,J1*%
X426593000Y-39557000D03*
X424053000Y-39557000D03*
X421513000Y-39557000D03*
X418973000Y-39557000D03*
X416433000Y-39557000D03*
%TD*%
D13*
%TO.C,SW3*%
X480568000Y-30226000D03*
%TD*%
%TO.C,SW2*%
X468376000Y-30226000D03*
%TD*%
%TO.C,SW1*%
X473329000Y-30226000D03*
%TD*%
D10*
%TO.C,J5*%
X472440000Y-60960000D03*
X472440000Y-58420000D03*
X474980000Y-60960000D03*
X474980000Y-58420000D03*
X477520000Y-60960000D03*
X477520000Y-58420000D03*
X480060000Y-60960000D03*
D11*
X480060000Y-58420000D03*
%TD*%
D10*
%TO.C,J6*%
X430530000Y-49530000D03*
X430530000Y-46990000D03*
X430530000Y-44450000D03*
D11*
X430530000Y-41910000D03*
%TD*%
D14*
%TO.C,J2*%
X436370000Y-34626000D03*
X445010000Y-34626000D03*
D15*
X443580000Y-34096000D03*
D16*
X445010000Y-30446000D03*
D15*
X437800000Y-34096000D03*
D16*
X436370000Y-30446000D03*
%TD*%
D10*
%TO.C,J7*%
X464820000Y-60960000D03*
X464820000Y-58420000D03*
X462280000Y-60960000D03*
X462280000Y-58420000D03*
X459740000Y-60960000D03*
X459740000Y-58420000D03*
X457200000Y-60960000D03*
X457200000Y-58420000D03*
X454660000Y-60960000D03*
X454660000Y-58420000D03*
X452120000Y-60960000D03*
X452120000Y-58420000D03*
X449580000Y-60960000D03*
X449580000Y-58420000D03*
X447040000Y-60960000D03*
X447040000Y-58420000D03*
X444500000Y-60960000D03*
X444500000Y-58420000D03*
X441960000Y-60960000D03*
X441960000Y-58420000D03*
X439420000Y-60960000D03*
X439420000Y-58420000D03*
X436880000Y-60960000D03*
X436880000Y-58420000D03*
X434340000Y-60960000D03*
X434340000Y-58420000D03*
X431800000Y-60960000D03*
X431800000Y-58420000D03*
X429260000Y-60960000D03*
X429260000Y-58420000D03*
X426720000Y-60960000D03*
X426720000Y-58420000D03*
X424180000Y-60960000D03*
X424180000Y-58420000D03*
X421640000Y-60960000D03*
X421640000Y-58420000D03*
X419100000Y-60960000D03*
X419100000Y-58420000D03*
X416560000Y-60960000D03*
D11*
X416560000Y-58420000D03*
%TD*%
D10*
%TO.C,J4*%
X485140000Y-60960000D03*
X485140000Y-58420000D03*
X485140000Y-55880000D03*
X485140000Y-53340000D03*
X485140000Y-50800000D03*
X485140000Y-48260000D03*
X485140000Y-45720000D03*
X485140000Y-43180000D03*
X485140000Y-40640000D03*
X485140000Y-38100000D03*
X485140000Y-35560000D03*
D11*
X485140000Y-33020000D03*
%TD*%
M02*
