%TF.GenerationSoftware,KiCad,Pcbnew,(5.1.9)-1*%
%TF.CreationDate,2021-03-09T20:48:28+01:00*%
%TF.ProjectId,poly_kb,706f6c79-5f6b-4622-9e6b-696361645f70,rev?*%
%TF.SameCoordinates,Original*%
%TF.FileFunction,Other,User*%
%FSLAX46Y46*%
G04 Gerber Fmt 4.6, Leading zero omitted, Abs format (unit mm)*
G04 Created by KiCad (PCBNEW (5.1.9)-1) date 2021-03-09 20:48:28*
%MOMM*%
%LPD*%
G01*
G04 APERTURE LIST*
%ADD10C,0.050000*%
%ADD11C,0.120000*%
G04 APERTURE END LIST*
D10*
%TO.C,J8*%
X428730000Y-31220000D02*
X428730000Y-37370000D01*
X428730000Y-37370000D02*
X432330000Y-37370000D01*
X432330000Y-37370000D02*
X432330000Y-31220000D01*
X432330000Y-31220000D02*
X428730000Y-31220000D01*
%TO.C,J3*%
X414760000Y-41380000D02*
X414760000Y-57680000D01*
X414760000Y-57680000D02*
X420910000Y-57680000D01*
X420910000Y-57680000D02*
X420910000Y-41380000D01*
X420910000Y-41380000D02*
X414760000Y-41380000D01*
D11*
%TO.C,J1*%
X427329600Y-37642800D02*
X427329600Y-36474400D01*
X427329600Y-36474400D02*
X415696400Y-36474400D01*
X415696400Y-36474400D02*
X415696400Y-37693600D01*
X418490400Y-30327600D02*
X419455600Y-30327600D01*
X419455600Y-30327600D02*
X419455600Y-36474400D01*
X418439600Y-40614600D02*
X419455600Y-40614600D01*
X418490400Y-30327600D02*
X418490400Y-36423600D01*
X415696400Y-37693600D02*
X427329600Y-37693600D01*
X418439600Y-40589200D02*
X418439600Y-37744400D01*
X419455600Y-40614600D02*
X419455600Y-37719000D01*
X415899600Y-40614600D02*
X416915600Y-40614600D01*
X415950400Y-30327600D02*
X416915600Y-30327600D01*
X416915600Y-30327600D02*
X416915600Y-36474400D01*
X415950400Y-30327600D02*
X415950400Y-36423600D01*
X416915600Y-40614600D02*
X416915600Y-37719000D01*
X415899600Y-40589200D02*
X415899600Y-37744400D01*
X420979600Y-40614600D02*
X421995600Y-40614600D01*
X421030400Y-30327600D02*
X421995600Y-30327600D01*
X421995600Y-30327600D02*
X421995600Y-36474400D01*
X421030400Y-30327600D02*
X421030400Y-36423600D01*
X421995600Y-40614600D02*
X421995600Y-37719000D01*
X420979600Y-40589200D02*
X420979600Y-37744400D01*
X423519600Y-40614600D02*
X424535600Y-40614600D01*
X423570400Y-30327600D02*
X424535600Y-30327600D01*
X424535600Y-30327600D02*
X424535600Y-36474400D01*
X423570400Y-30327600D02*
X423570400Y-36423600D01*
X424535600Y-40614600D02*
X424535600Y-37719000D01*
X423519600Y-40589200D02*
X423519600Y-37744400D01*
X426059600Y-40614600D02*
X427075600Y-40614600D01*
X426110400Y-30327600D02*
X427075600Y-30327600D01*
X427075600Y-30327600D02*
X427075600Y-36474400D01*
X426110400Y-30327600D02*
X426110400Y-36423600D01*
X427075600Y-40614600D02*
X427075600Y-37719000D01*
X426059600Y-40589200D02*
X426059600Y-37744400D01*
D10*
%TO.C,R12*%
X432422200Y-33715600D02*
X433362200Y-33715600D01*
X433362200Y-33715600D02*
X433362200Y-35575600D01*
X433362200Y-35575600D02*
X432422200Y-35575600D01*
X432422200Y-35575600D02*
X432422200Y-33715600D01*
%TO.C,R7*%
X462826000Y-29550000D02*
X463766000Y-29550000D01*
X463766000Y-29550000D02*
X463766000Y-31410000D01*
X463766000Y-31410000D02*
X462826000Y-31410000D01*
X462826000Y-31410000D02*
X462826000Y-29550000D01*
%TO.C,R6*%
X482003000Y-32090000D02*
X482943000Y-32090000D01*
X482943000Y-32090000D02*
X482943000Y-33950000D01*
X482943000Y-33950000D02*
X482003000Y-33950000D01*
X482003000Y-33950000D02*
X482003000Y-32090000D01*
%TO.C,R3*%
X465036000Y-31410000D02*
X464096000Y-31410000D01*
X464096000Y-31410000D02*
X464096000Y-29550000D01*
X464096000Y-29550000D02*
X465036000Y-29550000D01*
X465036000Y-29550000D02*
X465036000Y-31410000D01*
%TO.C,R1*%
X474259000Y-32042000D02*
X474259000Y-32982000D01*
X474259000Y-32982000D02*
X472399000Y-32982000D01*
X472399000Y-32982000D02*
X472399000Y-32042000D01*
X472399000Y-32042000D02*
X474259000Y-32042000D01*
D11*
%TO.C,U3*%
X448482000Y-36574000D02*
X448782000Y-36574000D01*
X448482000Y-31374000D02*
X448482000Y-36574000D01*
X457282000Y-36574000D02*
X448782000Y-36574000D01*
X457282000Y-31474000D02*
X457282000Y-36574000D01*
X457282000Y-29974000D02*
X457182000Y-29974000D01*
X457282000Y-31474000D02*
X457282000Y-29974000D01*
X448482000Y-29974000D02*
X457182000Y-29974000D01*
X448482000Y-31374000D02*
X448482000Y-29974000D01*
D10*
%TO.C,R13*%
X471444469Y-52196349D02*
X470129251Y-50881131D01*
X472109149Y-51531669D02*
X471444469Y-52196349D01*
X470793931Y-50216451D02*
X472109149Y-51531669D01*
X470129251Y-50881131D02*
X470793931Y-50216451D01*
%TO.C,C16*%
X470470802Y-54530264D02*
X471757736Y-55817198D01*
X469820264Y-55180802D02*
X470470802Y-54530264D01*
X471107198Y-56467736D02*
X469820264Y-55180802D01*
X471757736Y-55817198D02*
X471107198Y-56467736D01*
%TO.C,Y1*%
X470006994Y-53876843D02*
X472411157Y-56281006D01*
X472411157Y-56281006D02*
X475381006Y-53311157D01*
X475381006Y-53311157D02*
X472976843Y-50906994D01*
X472976843Y-50906994D02*
X470006994Y-53876843D01*
%TO.C,U1*%
X439443600Y-47546200D02*
X436043600Y-47546200D01*
X436043600Y-47546200D02*
X436043600Y-44046200D01*
X436043600Y-44046200D02*
X439443600Y-44046200D01*
X439443600Y-44046200D02*
X439443600Y-47546200D01*
%TO.C,SW3*%
X479318000Y-28576000D02*
X479318000Y-27876000D01*
X479318000Y-27876000D02*
X481818000Y-27876000D01*
X481818000Y-27876000D02*
X481818000Y-28576000D01*
X481818000Y-28576000D02*
X482968000Y-28576000D01*
X478168000Y-31876000D02*
X482968000Y-31876000D01*
X482968000Y-31876000D02*
X482968000Y-28576000D01*
X479318000Y-28576000D02*
X478168000Y-28576000D01*
X478168000Y-28576000D02*
X478168000Y-31876000D01*
%TO.C,SW2*%
X467126000Y-28576000D02*
X467126000Y-27876000D01*
X467126000Y-27876000D02*
X469626000Y-27876000D01*
X469626000Y-27876000D02*
X469626000Y-28576000D01*
X469626000Y-28576000D02*
X470776000Y-28576000D01*
X465976000Y-31876000D02*
X470776000Y-31876000D01*
X470776000Y-31876000D02*
X470776000Y-28576000D01*
X467126000Y-28576000D02*
X465976000Y-28576000D01*
X465976000Y-28576000D02*
X465976000Y-31876000D01*
%TO.C,SW1*%
X472079000Y-28576000D02*
X472079000Y-27876000D01*
X472079000Y-27876000D02*
X474579000Y-27876000D01*
X474579000Y-27876000D02*
X474579000Y-28576000D01*
X474579000Y-28576000D02*
X475729000Y-28576000D01*
X470929000Y-31876000D02*
X475729000Y-31876000D01*
X475729000Y-31876000D02*
X475729000Y-28576000D01*
X472079000Y-28576000D02*
X470929000Y-28576000D01*
X470929000Y-28576000D02*
X470929000Y-31876000D01*
%TO.C,R4*%
X448935200Y-43065600D02*
X448935200Y-44005600D01*
X448935200Y-44005600D02*
X447075200Y-44005600D01*
X447075200Y-44005600D02*
X447075200Y-43065600D01*
X447075200Y-43065600D02*
X448935200Y-43065600D01*
%TO.C,R15*%
X457746000Y-30949000D02*
X458686000Y-30949000D01*
X458686000Y-30949000D02*
X458686000Y-32809000D01*
X458686000Y-32809000D02*
X457746000Y-32809000D01*
X457746000Y-32809000D02*
X457746000Y-30949000D01*
%TO.C,R14*%
X446570000Y-31582000D02*
X447510000Y-31582000D01*
X447510000Y-31582000D02*
X447510000Y-33442000D01*
X447510000Y-33442000D02*
X446570000Y-33442000D01*
X446570000Y-33442000D02*
X446570000Y-31582000D01*
%TO.C,R11*%
X434759200Y-35601000D02*
X433819200Y-35601000D01*
X433819200Y-35601000D02*
X433819200Y-33741000D01*
X433819200Y-33741000D02*
X434759200Y-33741000D01*
X434759200Y-33741000D02*
X434759200Y-35601000D01*
%TO.C,R2*%
X479638000Y-34252000D02*
X479638000Y-33312000D01*
X479638000Y-33312000D02*
X481498000Y-33312000D01*
X481498000Y-33312000D02*
X481498000Y-34252000D01*
X481498000Y-34252000D02*
X479638000Y-34252000D01*
%TO.C,J5*%
X481860000Y-56620000D02*
X470660000Y-56620000D01*
X470660000Y-56620000D02*
X470660000Y-62770000D01*
X470660000Y-62770000D02*
X481860000Y-62770000D01*
X481860000Y-62770000D02*
X481860000Y-56620000D01*
%TO.C,J6*%
X428730000Y-40110000D02*
X428730000Y-51310000D01*
X428730000Y-51310000D02*
X432330000Y-51310000D01*
X432330000Y-51310000D02*
X432330000Y-40110000D01*
X432330000Y-40110000D02*
X428730000Y-40110000D01*
%TO.C,J2*%
X435370000Y-36766000D02*
X435370000Y-27346000D01*
X446010000Y-36766000D02*
X446010000Y-27346000D01*
X446010000Y-27346000D02*
X435370000Y-27346000D01*
X446010000Y-36766000D02*
X435370000Y-36766000D01*
%TO.C,FB1*%
X436044400Y-43674400D02*
X436044400Y-41974400D01*
X436044400Y-41974400D02*
X439544400Y-41974400D01*
X439544400Y-41974400D02*
X439544400Y-43674400D01*
X439544400Y-43674400D02*
X436044400Y-43674400D01*
%TO.C,D3*%
X434169000Y-29242000D02*
X434169000Y-30702000D01*
X434169000Y-30702000D02*
X431209000Y-30702000D01*
X431209000Y-30702000D02*
X431209000Y-29242000D01*
X431209000Y-29242000D02*
X434169000Y-29242000D01*
%TO.C,D2*%
X462363000Y-29115000D02*
X462363000Y-30575000D01*
X462363000Y-30575000D02*
X459403000Y-30575000D01*
X459403000Y-30575000D02*
X459403000Y-29115000D01*
X459403000Y-29115000D02*
X462363000Y-29115000D01*
%TO.C,D1*%
X483660000Y-30575000D02*
X483660000Y-29115000D01*
X483660000Y-29115000D02*
X486620000Y-29115000D01*
X486620000Y-29115000D02*
X486620000Y-30575000D01*
X486620000Y-30575000D02*
X483660000Y-30575000D01*
%TO.C,C1*%
X481478000Y-32052000D02*
X481478000Y-32972000D01*
X481478000Y-32972000D02*
X479658000Y-32972000D01*
X479658000Y-32972000D02*
X479658000Y-32052000D01*
X479658000Y-32052000D02*
X481478000Y-32052000D01*
%TO.C,C3*%
X440077600Y-44403600D02*
X440997600Y-44403600D01*
X440997600Y-44403600D02*
X440997600Y-46223600D01*
X440997600Y-46223600D02*
X440077600Y-46223600D01*
X440077600Y-46223600D02*
X440077600Y-44403600D01*
%TO.C,C2*%
X437213000Y-41042000D02*
X436293000Y-41042000D01*
X436293000Y-41042000D02*
X436293000Y-39222000D01*
X436293000Y-39222000D02*
X437213000Y-39222000D01*
X437213000Y-39222000D02*
X437213000Y-41042000D01*
%TO.C,C15*%
X453183730Y-40448894D02*
X454216106Y-41481270D01*
X454216106Y-41481270D02*
X452123070Y-43574306D01*
X452123070Y-43574306D02*
X451090694Y-42541930D01*
X451090694Y-42541930D02*
X453183730Y-40448894D01*
%TO.C,C14*%
X466642000Y-34258000D02*
X466642000Y-32798000D01*
X466642000Y-32798000D02*
X469602000Y-32798000D01*
X469602000Y-32798000D02*
X469602000Y-34258000D01*
X469602000Y-34258000D02*
X466642000Y-34258000D01*
%TO.C,C13*%
X461945400Y-55166000D02*
X461945400Y-56086000D01*
X461945400Y-56086000D02*
X460125400Y-56086000D01*
X460125400Y-56086000D02*
X460125400Y-55166000D01*
X460125400Y-55166000D02*
X461945400Y-55166000D01*
%TO.C,C12*%
X453073198Y-43176464D02*
X453723736Y-43827002D01*
X453723736Y-43827002D02*
X452436802Y-45113936D01*
X452436802Y-45113936D02*
X451786264Y-44463398D01*
X451786264Y-44463398D02*
X453073198Y-43176464D01*
%TO.C,C5*%
X479217400Y-34642800D02*
X479217400Y-35562800D01*
X479217400Y-35562800D02*
X477397400Y-35562800D01*
X477397400Y-35562800D02*
X477397400Y-34642800D01*
X477397400Y-34642800D02*
X479217400Y-34642800D01*
%TO.C,C4*%
X479217400Y-33499800D02*
X479217400Y-34419800D01*
X479217400Y-34419800D02*
X477397400Y-34419800D01*
X477397400Y-34419800D02*
X477397400Y-33499800D01*
X477397400Y-33499800D02*
X479217400Y-33499800D01*
%TO.C,C11*%
X473054000Y-48720000D02*
X473054000Y-47800000D01*
X473054000Y-47800000D02*
X474874000Y-47800000D01*
X474874000Y-47800000D02*
X474874000Y-48720000D01*
X474874000Y-48720000D02*
X473054000Y-48720000D01*
%TO.C,C10*%
X465526800Y-32433000D02*
X465526800Y-33353000D01*
X465526800Y-33353000D02*
X463706800Y-33353000D01*
X463706800Y-33353000D02*
X463706800Y-32433000D01*
X463706800Y-32433000D02*
X465526800Y-32433000D01*
%TO.C,C9*%
X467916000Y-53700000D02*
X468836000Y-53700000D01*
X468836000Y-53700000D02*
X468836000Y-55520000D01*
X468836000Y-55520000D02*
X467916000Y-55520000D01*
X467916000Y-55520000D02*
X467916000Y-53700000D01*
%TO.C,C8*%
X469541609Y-51523853D02*
X470192147Y-52174391D01*
X470192147Y-52174391D02*
X468905213Y-53461325D01*
X468905213Y-53461325D02*
X468254675Y-52810787D01*
X468254675Y-52810787D02*
X469541609Y-51523853D01*
%TO.C,C7*%
X473833464Y-41414002D02*
X474484002Y-40763464D01*
X474484002Y-40763464D02*
X475770936Y-42050398D01*
X475770936Y-42050398D02*
X475120398Y-42700936D01*
X475120398Y-42700936D02*
X473833464Y-41414002D01*
%TO.C,C6*%
X475095462Y-45189114D02*
X474063086Y-44156738D01*
X474063086Y-44156738D02*
X476156122Y-42063702D01*
X476156122Y-42063702D02*
X477188498Y-43096078D01*
X477188498Y-43096078D02*
X475095462Y-45189114D01*
%TO.C,R10*%
X447510000Y-35603000D02*
X446570000Y-35603000D01*
X446570000Y-35603000D02*
X446570000Y-33743000D01*
X446570000Y-33743000D02*
X447510000Y-33743000D01*
X447510000Y-33743000D02*
X447510000Y-35603000D01*
%TO.C,R9*%
X481498000Y-34709000D02*
X481498000Y-35649000D01*
X481498000Y-35649000D02*
X479638000Y-35649000D01*
X479638000Y-35649000D02*
X479638000Y-34709000D01*
X479638000Y-34709000D02*
X481498000Y-34709000D01*
%TO.C,R8*%
X436006600Y-53403400D02*
X436006600Y-54343400D01*
X436006600Y-54343400D02*
X434146600Y-54343400D01*
X434146600Y-54343400D02*
X434146600Y-53403400D01*
X434146600Y-53403400D02*
X436006600Y-53403400D01*
%TO.C,R5*%
X428539000Y-45148400D02*
X428539000Y-46088400D01*
X428539000Y-46088400D02*
X426679000Y-46088400D01*
X426679000Y-46088400D02*
X426679000Y-45148400D01*
X426679000Y-45148400D02*
X428539000Y-45148400D01*
%TO.C,J4*%
X483340000Y-31220000D02*
X483340000Y-62770000D01*
X483340000Y-62770000D02*
X486940000Y-62770000D01*
X486940000Y-62770000D02*
X486940000Y-31220000D01*
X486940000Y-31220000D02*
X483340000Y-31220000D01*
%TO.C,FB2*%
X477598800Y-37451400D02*
X477598800Y-35751400D01*
X477598800Y-35751400D02*
X481098800Y-35751400D01*
X481098800Y-35751400D02*
X481098800Y-37451400D01*
X481098800Y-37451400D02*
X477598800Y-37451400D01*
%TO.C,F1*%
X442140200Y-43707400D02*
X439900200Y-43707400D01*
X439900200Y-43707400D02*
X439900200Y-39147400D01*
X439900200Y-39147400D02*
X442140200Y-39147400D01*
X442140200Y-39147400D02*
X442140200Y-43707400D01*
%TO.C,C17*%
X473630264Y-51370802D02*
X474280802Y-50720264D01*
X474280802Y-50720264D02*
X475567736Y-52007198D01*
X475567736Y-52007198D02*
X474917198Y-52657736D01*
X474917198Y-52657736D02*
X473630264Y-51370802D01*
%TO.C,U2*%
X457798984Y-50649926D02*
X462324467Y-55175410D01*
X462324467Y-55175410D02*
X463363914Y-54135963D01*
X463363914Y-54135963D02*
X463964955Y-54737003D01*
X463964955Y-54737003D02*
X464565996Y-54135963D01*
X464565996Y-54135963D02*
X465605443Y-55175410D01*
X465605443Y-55175410D02*
X470130926Y-50649926D01*
X457798984Y-50649926D02*
X453273500Y-46124443D01*
X453273500Y-46124443D02*
X454312947Y-45084996D01*
X454312947Y-45084996D02*
X453711907Y-44483955D01*
X453711907Y-44483955D02*
X454312947Y-43882914D01*
X454312947Y-43882914D02*
X453273500Y-42843467D01*
X453273500Y-42843467D02*
X457798984Y-38317984D01*
X470130926Y-38317984D02*
X474656410Y-42843467D01*
X474656410Y-42843467D02*
X473616963Y-43882914D01*
X473616963Y-43882914D02*
X474218003Y-44483955D01*
X474218003Y-44483955D02*
X473616963Y-45084996D01*
X473616963Y-45084996D02*
X474656410Y-46124443D01*
X474656410Y-46124443D02*
X470130926Y-50649926D01*
X470130926Y-38317984D02*
X465605443Y-33792500D01*
X465605443Y-33792500D02*
X464565996Y-34831947D01*
X464565996Y-34831947D02*
X463964955Y-34230907D01*
X463964955Y-34230907D02*
X463363914Y-34831947D01*
X463363914Y-34831947D02*
X462324467Y-33792500D01*
X462324467Y-33792500D02*
X457798984Y-38317984D01*
%TD*%
M02*
