%TF.GenerationSoftware,KiCad,Pcbnew,(5.1.9)-1*%
%TF.CreationDate,2021-03-09T20:48:28+01:00*%
%TF.ProjectId,poly_kb,706f6c79-5f6b-4622-9e6b-696361645f70,rev?*%
%TF.SameCoordinates,Original*%
%TF.FileFunction,Legend,Top*%
%TF.FilePolarity,Positive*%
%FSLAX46Y46*%
G04 Gerber Fmt 4.6, Leading zero omitted, Abs format (unit mm)*
G04 Created by KiCad (PCBNEW (5.1.9)-1) date 2021-03-09 20:48:28*
%MOMM*%
%LPD*%
G01*
G04 APERTURE LIST*
%ADD10C,0.120000*%
%ADD11C,0.300000*%
%ADD12C,0.150000*%
G04 APERTURE END LIST*
D10*
X483235000Y-38735000D02*
X483235000Y-37084000D01*
X483235000Y-41656000D02*
X483235000Y-39624000D01*
X483235000Y-43942000D02*
X483235000Y-42672000D01*
X467995000Y-59436000D02*
X467995000Y-57404000D01*
X455676000Y-52070000D02*
X458216000Y-52070000D01*
X433705000Y-52070000D02*
X438785000Y-52070000D01*
X444500000Y-39370000D02*
X455295000Y-39370000D01*
X428625000Y-39370000D02*
X434340000Y-39370000D01*
X428625000Y-50800000D02*
X428625000Y-39370000D01*
X483235000Y-37084000D02*
X481965000Y-37084000D01*
X483235000Y-62484000D02*
X483235000Y-61976000D01*
X483235000Y-54102000D02*
X483235000Y-56769000D01*
X483235000Y-50292000D02*
X483235000Y-54102000D01*
X483235000Y-46228000D02*
X483235000Y-50292000D01*
X470535000Y-62484000D02*
X483235000Y-62484000D01*
X467995000Y-62484000D02*
X469011000Y-62484000D01*
X467995000Y-60325000D02*
X467995000Y-62484000D01*
X477520000Y-37084000D02*
X468884000Y-37084000D01*
X483235000Y-46228000D02*
X483235000Y-44831000D01*
D11*
X439565742Y-52692771D02*
X439565742Y-51192771D01*
X440137171Y-51192771D01*
X440280028Y-51264200D01*
X440351457Y-51335628D01*
X440422885Y-51478485D01*
X440422885Y-51692771D01*
X440351457Y-51835628D01*
X440280028Y-51907057D01*
X440137171Y-51978485D01*
X439565742Y-51978485D01*
X441280028Y-52692771D02*
X441137171Y-52621342D01*
X441065742Y-52549914D01*
X440994314Y-52407057D01*
X440994314Y-51978485D01*
X441065742Y-51835628D01*
X441137171Y-51764200D01*
X441280028Y-51692771D01*
X441494314Y-51692771D01*
X441637171Y-51764200D01*
X441708600Y-51835628D01*
X441780028Y-51978485D01*
X441780028Y-52407057D01*
X441708600Y-52549914D01*
X441637171Y-52621342D01*
X441494314Y-52692771D01*
X441280028Y-52692771D01*
X442637171Y-52692771D02*
X442494314Y-52621342D01*
X442422885Y-52478485D01*
X442422885Y-51192771D01*
X443065742Y-51692771D02*
X443422885Y-52692771D01*
X443780028Y-51692771D02*
X443422885Y-52692771D01*
X443280028Y-53049914D01*
X443208600Y-53121342D01*
X443065742Y-53192771D01*
X445494314Y-52692771D02*
X445494314Y-51192771D01*
X446351457Y-52692771D02*
X445708600Y-51835628D01*
X446351457Y-51192771D02*
X445494314Y-52049914D01*
X447565742Y-52621342D02*
X447422885Y-52692771D01*
X447137171Y-52692771D01*
X446994314Y-52621342D01*
X446922885Y-52478485D01*
X446922885Y-51907057D01*
X446994314Y-51764200D01*
X447137171Y-51692771D01*
X447422885Y-51692771D01*
X447565742Y-51764200D01*
X447637171Y-51907057D01*
X447637171Y-52049914D01*
X446922885Y-52192771D01*
X448137171Y-51692771D02*
X448494314Y-52692771D01*
X448851457Y-51692771D02*
X448494314Y-52692771D01*
X448351457Y-53049914D01*
X448280028Y-53121342D01*
X448137171Y-53192771D01*
X449422885Y-52692771D02*
X449422885Y-51192771D01*
X449422885Y-51764200D02*
X449565742Y-51692771D01*
X449851457Y-51692771D01*
X449994314Y-51764200D01*
X450065742Y-51835628D01*
X450137171Y-51978485D01*
X450137171Y-52407057D01*
X450065742Y-52549914D01*
X449994314Y-52621342D01*
X449851457Y-52692771D01*
X449565742Y-52692771D01*
X449422885Y-52621342D01*
X450994314Y-52692771D02*
X450851457Y-52621342D01*
X450780028Y-52549914D01*
X450708600Y-52407057D01*
X450708600Y-51978485D01*
X450780028Y-51835628D01*
X450851457Y-51764200D01*
X450994314Y-51692771D01*
X451208600Y-51692771D01*
X451351457Y-51764200D01*
X451422885Y-51835628D01*
X451494314Y-51978485D01*
X451494314Y-52407057D01*
X451422885Y-52549914D01*
X451351457Y-52621342D01*
X451208600Y-52692771D01*
X450994314Y-52692771D01*
X452780028Y-52692771D02*
X452780028Y-51907057D01*
X452708600Y-51764200D01*
X452565742Y-51692771D01*
X452280028Y-51692771D01*
X452137171Y-51764200D01*
X452780028Y-52621342D02*
X452637171Y-52692771D01*
X452280028Y-52692771D01*
X452137171Y-52621342D01*
X452065742Y-52478485D01*
X452065742Y-52335628D01*
X452137171Y-52192771D01*
X452280028Y-52121342D01*
X452637171Y-52121342D01*
X452780028Y-52049914D01*
X453494314Y-52692771D02*
X453494314Y-51692771D01*
X453494314Y-51978485D02*
X453565742Y-51835628D01*
X453637171Y-51764200D01*
X453780028Y-51692771D01*
X453922885Y-51692771D01*
X455065742Y-52692771D02*
X455065742Y-51192771D01*
X455065742Y-52621342D02*
X454922885Y-52692771D01*
X454637171Y-52692771D01*
X454494314Y-52621342D01*
X454422885Y-52549914D01*
X454351457Y-52407057D01*
X454351457Y-51978485D01*
X454422885Y-51835628D01*
X454494314Y-51764200D01*
X454637171Y-51692771D01*
X454922885Y-51692771D01*
X455065742Y-51764200D01*
X439565742Y-55242771D02*
X439565742Y-53742771D01*
X440065742Y-54814200D01*
X440565742Y-53742771D01*
X440565742Y-55242771D01*
X441922885Y-55242771D02*
X441922885Y-54457057D01*
X441851457Y-54314200D01*
X441708600Y-54242771D01*
X441422885Y-54242771D01*
X441280028Y-54314200D01*
X441922885Y-55171342D02*
X441780028Y-55242771D01*
X441422885Y-55242771D01*
X441280028Y-55171342D01*
X441208600Y-55028485D01*
X441208600Y-54885628D01*
X441280028Y-54742771D01*
X441422885Y-54671342D01*
X441780028Y-54671342D01*
X441922885Y-54599914D01*
X442637171Y-55242771D02*
X442637171Y-54242771D01*
X442637171Y-53742771D02*
X442565742Y-53814200D01*
X442637171Y-53885628D01*
X442708600Y-53814200D01*
X442637171Y-53742771D01*
X442637171Y-53885628D01*
X443351457Y-54242771D02*
X443351457Y-55242771D01*
X443351457Y-54385628D02*
X443422885Y-54314200D01*
X443565742Y-54242771D01*
X443780028Y-54242771D01*
X443922885Y-54314200D01*
X443994314Y-54457057D01*
X443994314Y-55242771D01*
X444708600Y-55242771D02*
X444708600Y-53742771D01*
X444708600Y-54314200D02*
X444851457Y-54242771D01*
X445137171Y-54242771D01*
X445280028Y-54314200D01*
X445351457Y-54385628D01*
X445422885Y-54528485D01*
X445422885Y-54957057D01*
X445351457Y-55099914D01*
X445280028Y-55171342D01*
X445137171Y-55242771D01*
X444851457Y-55242771D01*
X444708600Y-55171342D01*
X446280028Y-55242771D02*
X446137171Y-55171342D01*
X446065742Y-55099914D01*
X445994314Y-54957057D01*
X445994314Y-54528485D01*
X446065742Y-54385628D01*
X446137171Y-54314200D01*
X446280028Y-54242771D01*
X446494314Y-54242771D01*
X446637171Y-54314200D01*
X446708600Y-54385628D01*
X446780028Y-54528485D01*
X446780028Y-54957057D01*
X446708600Y-55099914D01*
X446637171Y-55171342D01*
X446494314Y-55242771D01*
X446280028Y-55242771D01*
X448065742Y-55242771D02*
X448065742Y-54457057D01*
X447994314Y-54314200D01*
X447851457Y-54242771D01*
X447565742Y-54242771D01*
X447422885Y-54314200D01*
X448065742Y-55171342D02*
X447922885Y-55242771D01*
X447565742Y-55242771D01*
X447422885Y-55171342D01*
X447351457Y-55028485D01*
X447351457Y-54885628D01*
X447422885Y-54742771D01*
X447565742Y-54671342D01*
X447922885Y-54671342D01*
X448065742Y-54599914D01*
X448780028Y-55242771D02*
X448780028Y-54242771D01*
X448780028Y-54528485D02*
X448851457Y-54385628D01*
X448922885Y-54314200D01*
X449065742Y-54242771D01*
X449208600Y-54242771D01*
X450351457Y-55242771D02*
X450351457Y-53742771D01*
X450351457Y-55171342D02*
X450208600Y-55242771D01*
X449922885Y-55242771D01*
X449780028Y-55171342D01*
X449708600Y-55099914D01*
X449637171Y-54957057D01*
X449637171Y-54528485D01*
X449708600Y-54385628D01*
X449780028Y-54314200D01*
X449922885Y-54242771D01*
X450208600Y-54242771D01*
X450351457Y-54314200D01*
X453065742Y-55242771D02*
X452565742Y-54528485D01*
X452208600Y-55242771D02*
X452208600Y-53742771D01*
X452780028Y-53742771D01*
X452922885Y-53814200D01*
X452994314Y-53885628D01*
X453065742Y-54028485D01*
X453065742Y-54242771D01*
X452994314Y-54385628D01*
X452922885Y-54457057D01*
X452780028Y-54528485D01*
X452208600Y-54528485D01*
X454280028Y-55171342D02*
X454137171Y-55242771D01*
X453851457Y-55242771D01*
X453708600Y-55171342D01*
X453637171Y-55028485D01*
X453637171Y-54457057D01*
X453708600Y-54314200D01*
X453851457Y-54242771D01*
X454137171Y-54242771D01*
X454280028Y-54314200D01*
X454351457Y-54457057D01*
X454351457Y-54599914D01*
X453637171Y-54742771D01*
X454851457Y-54242771D02*
X455208600Y-55242771D01*
X455565742Y-54242771D01*
X456922885Y-55242771D02*
X456065742Y-55242771D01*
X456494314Y-55242771D02*
X456494314Y-53742771D01*
X456351457Y-53957057D01*
X456208600Y-54099914D01*
X456065742Y-54171342D01*
X457565742Y-55099914D02*
X457637171Y-55171342D01*
X457565742Y-55242771D01*
X457494314Y-55171342D01*
X457565742Y-55099914D01*
X457565742Y-55242771D01*
X458565742Y-53742771D02*
X458708600Y-53742771D01*
X458851457Y-53814200D01*
X458922885Y-53885628D01*
X458994314Y-54028485D01*
X459065742Y-54314200D01*
X459065742Y-54671342D01*
X458994314Y-54957057D01*
X458922885Y-55099914D01*
X458851457Y-55171342D01*
X458708600Y-55242771D01*
X458565742Y-55242771D01*
X458422885Y-55171342D01*
X458351457Y-55099914D01*
X458280028Y-54957057D01*
X458208600Y-54671342D01*
X458208600Y-54314200D01*
X458280028Y-54028485D01*
X458351457Y-53885628D01*
X458422885Y-53814200D01*
X458565742Y-53742771D01*
D12*
X448289847Y-30021161D02*
X448432704Y-30068780D01*
X448670800Y-30068780D01*
X448766038Y-30021161D01*
X448813657Y-29973542D01*
X448861276Y-29878304D01*
X448861276Y-29783066D01*
X448813657Y-29687828D01*
X448766038Y-29640209D01*
X448670800Y-29592590D01*
X448480323Y-29544971D01*
X448385085Y-29497352D01*
X448337466Y-29449733D01*
X448289847Y-29354495D01*
X448289847Y-29259257D01*
X448337466Y-29164019D01*
X448385085Y-29116400D01*
X448480323Y-29068780D01*
X448718419Y-29068780D01*
X448861276Y-29116400D01*
X449289847Y-30068780D02*
X449289847Y-29068780D01*
X449670800Y-29068780D01*
X449766038Y-29116400D01*
X449813657Y-29164019D01*
X449861276Y-29259257D01*
X449861276Y-29402114D01*
X449813657Y-29497352D01*
X449766038Y-29544971D01*
X449670800Y-29592590D01*
X449289847Y-29592590D01*
X450289847Y-30068780D02*
X450289847Y-29068780D01*
X450718419Y-29164019D02*
X450766038Y-29116400D01*
X450861276Y-29068780D01*
X451099371Y-29068780D01*
X451194609Y-29116400D01*
X451242228Y-29164019D01*
X451289847Y-29259257D01*
X451289847Y-29354495D01*
X451242228Y-29497352D01*
X450670800Y-30068780D01*
X451289847Y-30068780D01*
X452813657Y-29544971D02*
X452480323Y-29544971D01*
X452480323Y-30068780D02*
X452480323Y-29068780D01*
X452956514Y-29068780D01*
X453480323Y-30068780D02*
X453385085Y-30021161D01*
X453337466Y-29925923D01*
X453337466Y-29068780D01*
X454289847Y-30068780D02*
X454289847Y-29544971D01*
X454242228Y-29449733D01*
X454146990Y-29402114D01*
X453956514Y-29402114D01*
X453861276Y-29449733D01*
X454289847Y-30021161D02*
X454194609Y-30068780D01*
X453956514Y-30068780D01*
X453861276Y-30021161D01*
X453813657Y-29925923D01*
X453813657Y-29830685D01*
X453861276Y-29735447D01*
X453956514Y-29687828D01*
X454194609Y-29687828D01*
X454289847Y-29640209D01*
X454718419Y-30021161D02*
X454813657Y-30068780D01*
X455004133Y-30068780D01*
X455099371Y-30021161D01*
X455146990Y-29925923D01*
X455146990Y-29878304D01*
X455099371Y-29783066D01*
X455004133Y-29735447D01*
X454861276Y-29735447D01*
X454766038Y-29687828D01*
X454718419Y-29592590D01*
X454718419Y-29544971D01*
X454766038Y-29449733D01*
X454861276Y-29402114D01*
X455004133Y-29402114D01*
X455099371Y-29449733D01*
X455575561Y-30068780D02*
X455575561Y-29068780D01*
X456004133Y-30068780D02*
X456004133Y-29544971D01*
X455956514Y-29449733D01*
X455861276Y-29402114D01*
X455718419Y-29402114D01*
X455623180Y-29449733D01*
X455575561Y-29497352D01*
X428747880Y-29680733D02*
X428862166Y-29714066D01*
X429052642Y-29714066D01*
X429128833Y-29680733D01*
X429166928Y-29647400D01*
X429205023Y-29580733D01*
X429205023Y-29514066D01*
X429166928Y-29447400D01*
X429128833Y-29414066D01*
X429052642Y-29380733D01*
X428900261Y-29347400D01*
X428824071Y-29314066D01*
X428785976Y-29280733D01*
X428747880Y-29214066D01*
X428747880Y-29147400D01*
X428785976Y-29080733D01*
X428824071Y-29047400D01*
X428900261Y-29014066D01*
X429090738Y-29014066D01*
X429205023Y-29047400D01*
X429471690Y-29014066D02*
X429662166Y-29714066D01*
X429814547Y-29214066D01*
X429966928Y-29714066D01*
X430157404Y-29014066D01*
X430462166Y-29714066D02*
X430462166Y-29014066D01*
X430652642Y-29014066D01*
X430766928Y-29047400D01*
X430843119Y-29114066D01*
X430881214Y-29180733D01*
X430919309Y-29314066D01*
X430919309Y-29414066D01*
X430881214Y-29547400D01*
X430843119Y-29614066D01*
X430766928Y-29680733D01*
X430652642Y-29714066D01*
X430462166Y-29714066D01*
X429395500Y-30447400D02*
X428785976Y-30647400D01*
X429395500Y-30847400D01*
X428363333Y-52310161D02*
X428506190Y-52357780D01*
X428744285Y-52357780D01*
X428839523Y-52310161D01*
X428887142Y-52262542D01*
X428934761Y-52167304D01*
X428934761Y-52072066D01*
X428887142Y-51976828D01*
X428839523Y-51929209D01*
X428744285Y-51881590D01*
X428553809Y-51833971D01*
X428458571Y-51786352D01*
X428410952Y-51738733D01*
X428363333Y-51643495D01*
X428363333Y-51548257D01*
X428410952Y-51453019D01*
X428458571Y-51405400D01*
X428553809Y-51357780D01*
X428791904Y-51357780D01*
X428934761Y-51405400D01*
X429220476Y-51691114D02*
X429601428Y-51691114D01*
X429363333Y-51357780D02*
X429363333Y-52214923D01*
X429410952Y-52310161D01*
X429506190Y-52357780D01*
X429601428Y-52357780D01*
X430363333Y-52357780D02*
X430363333Y-51833971D01*
X430315714Y-51738733D01*
X430220476Y-51691114D01*
X430030000Y-51691114D01*
X429934761Y-51738733D01*
X430363333Y-52310161D02*
X430268095Y-52357780D01*
X430030000Y-52357780D01*
X429934761Y-52310161D01*
X429887142Y-52214923D01*
X429887142Y-52119685D01*
X429934761Y-52024447D01*
X430030000Y-51976828D01*
X430268095Y-51976828D01*
X430363333Y-51929209D01*
X430696666Y-51691114D02*
X431077619Y-51691114D01*
X430839523Y-51357780D02*
X430839523Y-52214923D01*
X430887142Y-52310161D01*
X430982380Y-52357780D01*
X431077619Y-52357780D01*
X431839523Y-51691114D02*
X431839523Y-52357780D01*
X431410952Y-51691114D02*
X431410952Y-52214923D01*
X431458571Y-52310161D01*
X431553809Y-52357780D01*
X431696666Y-52357780D01*
X431791904Y-52310161D01*
X431839523Y-52262542D01*
X432268095Y-52310161D02*
X432363333Y-52357780D01*
X432553809Y-52357780D01*
X432649047Y-52310161D01*
X432696666Y-52214923D01*
X432696666Y-52167304D01*
X432649047Y-52072066D01*
X432553809Y-52024447D01*
X432410952Y-52024447D01*
X432315714Y-51976828D01*
X432268095Y-51881590D01*
X432268095Y-51833971D01*
X432315714Y-51738733D01*
X432410952Y-51691114D01*
X432553809Y-51691114D01*
X432649047Y-51738733D01*
X428077619Y-54007780D02*
X428077619Y-53007780D01*
X428315714Y-53007780D01*
X428458571Y-53055400D01*
X428553809Y-53150638D01*
X428601428Y-53245876D01*
X428649047Y-53436352D01*
X428649047Y-53579209D01*
X428601428Y-53769685D01*
X428553809Y-53864923D01*
X428458571Y-53960161D01*
X428315714Y-54007780D01*
X428077619Y-54007780D01*
X429077619Y-54007780D02*
X429077619Y-53341114D01*
X429077619Y-53007780D02*
X429030000Y-53055400D01*
X429077619Y-53103019D01*
X429125238Y-53055400D01*
X429077619Y-53007780D01*
X429077619Y-53103019D01*
X429506190Y-53960161D02*
X429601428Y-54007780D01*
X429791904Y-54007780D01*
X429887142Y-53960161D01*
X429934761Y-53864923D01*
X429934761Y-53817304D01*
X429887142Y-53722066D01*
X429791904Y-53674447D01*
X429649047Y-53674447D01*
X429553809Y-53626828D01*
X429506190Y-53531590D01*
X429506190Y-53483971D01*
X429553809Y-53388733D01*
X429649047Y-53341114D01*
X429791904Y-53341114D01*
X429887142Y-53388733D01*
X430363333Y-53341114D02*
X430363333Y-54341114D01*
X430363333Y-53388733D02*
X430458571Y-53341114D01*
X430649047Y-53341114D01*
X430744285Y-53388733D01*
X430791904Y-53436352D01*
X430839523Y-53531590D01*
X430839523Y-53817304D01*
X430791904Y-53912542D01*
X430744285Y-53960161D01*
X430649047Y-54007780D01*
X430458571Y-54007780D01*
X430363333Y-53960161D01*
X431410952Y-54007780D02*
X431315714Y-53960161D01*
X431268095Y-53864923D01*
X431268095Y-53007780D01*
X432220476Y-54007780D02*
X432220476Y-53483971D01*
X432172857Y-53388733D01*
X432077619Y-53341114D01*
X431887142Y-53341114D01*
X431791904Y-53388733D01*
X432220476Y-53960161D02*
X432125238Y-54007780D01*
X431887142Y-54007780D01*
X431791904Y-53960161D01*
X431744285Y-53864923D01*
X431744285Y-53769685D01*
X431791904Y-53674447D01*
X431887142Y-53626828D01*
X432125238Y-53626828D01*
X432220476Y-53579209D01*
X432601428Y-53341114D02*
X432839523Y-54007780D01*
X433077619Y-53341114D02*
X432839523Y-54007780D01*
X432744285Y-54245876D01*
X432696666Y-54293495D01*
X432601428Y-54341114D01*
X429484019Y-39060380D02*
X429484019Y-38060380D01*
X429912590Y-38155619D02*
X429960209Y-38108000D01*
X430055447Y-38060380D01*
X430293542Y-38060380D01*
X430388780Y-38108000D01*
X430436400Y-38155619D01*
X430484019Y-38250857D01*
X430484019Y-38346095D01*
X430436400Y-38488952D01*
X429864971Y-39060380D01*
X430484019Y-39060380D01*
X431484019Y-38965142D02*
X431436400Y-39012761D01*
X431293542Y-39060380D01*
X431198304Y-39060380D01*
X431055447Y-39012761D01*
X430960209Y-38917523D01*
X430912590Y-38822285D01*
X430864971Y-38631809D01*
X430864971Y-38488952D01*
X430912590Y-38298476D01*
X430960209Y-38203238D01*
X431055447Y-38108000D01*
X431198304Y-38060380D01*
X431293542Y-38060380D01*
X431436400Y-38108000D01*
X431484019Y-38155619D01*
X432436400Y-39060380D02*
X431864971Y-39060380D01*
X432150685Y-39060380D02*
X432150685Y-38060380D01*
X432055447Y-38203238D01*
X431960209Y-38298476D01*
X431864971Y-38346095D01*
X426212095Y-49030000D02*
X426116857Y-48982380D01*
X425974000Y-48982380D01*
X425831142Y-49030000D01*
X425735904Y-49125238D01*
X425688285Y-49220476D01*
X425640666Y-49410952D01*
X425640666Y-49553809D01*
X425688285Y-49744285D01*
X425735904Y-49839523D01*
X425831142Y-49934761D01*
X425974000Y-49982380D01*
X426069238Y-49982380D01*
X426212095Y-49934761D01*
X426259714Y-49887142D01*
X426259714Y-49553809D01*
X426069238Y-49553809D01*
X426688285Y-49982380D02*
X426688285Y-48982380D01*
X427259714Y-49982380D01*
X427259714Y-48982380D01*
X427735904Y-49982380D02*
X427735904Y-48982380D01*
X427974000Y-48982380D01*
X428116857Y-49030000D01*
X428212095Y-49125238D01*
X428259714Y-49220476D01*
X428307333Y-49410952D01*
X428307333Y-49553809D01*
X428259714Y-49744285D01*
X428212095Y-49839523D01*
X428116857Y-49934761D01*
X427974000Y-49982380D01*
X427735904Y-49982380D01*
X425735904Y-46696380D02*
X426354952Y-46696380D01*
X426021619Y-47077333D01*
X426164476Y-47077333D01*
X426259714Y-47124952D01*
X426307333Y-47172571D01*
X426354952Y-47267809D01*
X426354952Y-47505904D01*
X426307333Y-47601142D01*
X426259714Y-47648761D01*
X426164476Y-47696380D01*
X425878761Y-47696380D01*
X425783523Y-47648761D01*
X425735904Y-47601142D01*
X426640666Y-46696380D02*
X426974000Y-47696380D01*
X427307333Y-46696380D01*
X427545428Y-46696380D02*
X428164476Y-46696380D01*
X427831142Y-47077333D01*
X427974000Y-47077333D01*
X428069238Y-47124952D01*
X428116857Y-47172571D01*
X428164476Y-47267809D01*
X428164476Y-47505904D01*
X428116857Y-47601142D01*
X428069238Y-47648761D01*
X427974000Y-47696380D01*
X427688285Y-47696380D01*
X427593047Y-47648761D01*
X427545428Y-47601142D01*
X425783523Y-44651561D02*
X425926380Y-44699180D01*
X426164476Y-44699180D01*
X426259714Y-44651561D01*
X426307333Y-44603942D01*
X426354952Y-44508704D01*
X426354952Y-44413466D01*
X426307333Y-44318228D01*
X426259714Y-44270609D01*
X426164476Y-44222990D01*
X425974000Y-44175371D01*
X425878761Y-44127752D01*
X425831142Y-44080133D01*
X425783523Y-43984895D01*
X425783523Y-43889657D01*
X425831142Y-43794419D01*
X425878761Y-43746800D01*
X425974000Y-43699180D01*
X426212095Y-43699180D01*
X426354952Y-43746800D01*
X427354952Y-44603942D02*
X427307333Y-44651561D01*
X427164476Y-44699180D01*
X427069238Y-44699180D01*
X426926380Y-44651561D01*
X426831142Y-44556323D01*
X426783523Y-44461085D01*
X426735904Y-44270609D01*
X426735904Y-44127752D01*
X426783523Y-43937276D01*
X426831142Y-43842038D01*
X426926380Y-43746800D01*
X427069238Y-43699180D01*
X427164476Y-43699180D01*
X427307333Y-43746800D01*
X427354952Y-43794419D01*
X428259714Y-44699180D02*
X427783523Y-44699180D01*
X427783523Y-43699180D01*
X425759714Y-42416361D02*
X425902571Y-42463980D01*
X426140666Y-42463980D01*
X426235904Y-42416361D01*
X426283523Y-42368742D01*
X426331142Y-42273504D01*
X426331142Y-42178266D01*
X426283523Y-42083028D01*
X426235904Y-42035409D01*
X426140666Y-41987790D01*
X425950190Y-41940171D01*
X425854952Y-41892552D01*
X425807333Y-41844933D01*
X425759714Y-41749695D01*
X425759714Y-41654457D01*
X425807333Y-41559219D01*
X425854952Y-41511600D01*
X425950190Y-41463980D01*
X426188285Y-41463980D01*
X426331142Y-41511600D01*
X426759714Y-42463980D02*
X426759714Y-41463980D01*
X426997809Y-41463980D01*
X427140666Y-41511600D01*
X427235904Y-41606838D01*
X427283523Y-41702076D01*
X427331142Y-41892552D01*
X427331142Y-42035409D01*
X427283523Y-42225885D01*
X427235904Y-42321123D01*
X427140666Y-42416361D01*
X426997809Y-42463980D01*
X426759714Y-42463980D01*
X427712095Y-42178266D02*
X428188285Y-42178266D01*
X427616857Y-42463980D02*
X427950190Y-41463980D01*
X428283523Y-42463980D01*
X417429200Y-39674723D02*
X417395866Y-39750914D01*
X417395866Y-39865200D01*
X417429200Y-39979485D01*
X417495866Y-40055676D01*
X417562533Y-40093771D01*
X417695866Y-40131866D01*
X417795866Y-40131866D01*
X417929200Y-40093771D01*
X417995866Y-40055676D01*
X418062533Y-39979485D01*
X418095866Y-39865200D01*
X418095866Y-39789009D01*
X418062533Y-39674723D01*
X418029200Y-39636628D01*
X417795866Y-39636628D01*
X417795866Y-39789009D01*
X418095866Y-39293771D02*
X417395866Y-39293771D01*
X418095866Y-38836628D01*
X417395866Y-38836628D01*
X418095866Y-38455676D02*
X417395866Y-38455676D01*
X417395866Y-38265200D01*
X417429200Y-38150914D01*
X417495866Y-38074723D01*
X417562533Y-38036628D01*
X417695866Y-37998533D01*
X417795866Y-37998533D01*
X417929200Y-38036628D01*
X417995866Y-38074723D01*
X418062533Y-38150914D01*
X418095866Y-38265200D01*
X418095866Y-38455676D01*
X419969200Y-39674723D02*
X419935866Y-39750914D01*
X419935866Y-39865200D01*
X419969200Y-39979485D01*
X420035866Y-40055676D01*
X420102533Y-40093771D01*
X420235866Y-40131866D01*
X420335866Y-40131866D01*
X420469200Y-40093771D01*
X420535866Y-40055676D01*
X420602533Y-39979485D01*
X420635866Y-39865200D01*
X420635866Y-39789009D01*
X420602533Y-39674723D01*
X420569200Y-39636628D01*
X420335866Y-39636628D01*
X420335866Y-39789009D01*
X420635866Y-39293771D02*
X419935866Y-39293771D01*
X420635866Y-38836628D01*
X419935866Y-38836628D01*
X420635866Y-38455676D02*
X419935866Y-38455676D01*
X419935866Y-38265200D01*
X419969200Y-38150914D01*
X420035866Y-38074723D01*
X420102533Y-38036628D01*
X420235866Y-37998533D01*
X420335866Y-37998533D01*
X420469200Y-38036628D01*
X420535866Y-38074723D01*
X420602533Y-38150914D01*
X420635866Y-38265200D01*
X420635866Y-38455676D01*
X414855866Y-40055676D02*
X414855866Y-39560438D01*
X415122533Y-39827104D01*
X415122533Y-39712819D01*
X415155866Y-39636628D01*
X415189200Y-39598533D01*
X415255866Y-39560438D01*
X415422533Y-39560438D01*
X415489200Y-39598533D01*
X415522533Y-39636628D01*
X415555866Y-39712819D01*
X415555866Y-39941390D01*
X415522533Y-40017580D01*
X415489200Y-40055676D01*
X414855866Y-39331866D02*
X415555866Y-39065200D01*
X414855866Y-38798533D01*
X414855866Y-38608057D02*
X414855866Y-38112819D01*
X415122533Y-38379485D01*
X415122533Y-38265200D01*
X415155866Y-38189009D01*
X415189200Y-38150914D01*
X415255866Y-38112819D01*
X415422533Y-38112819D01*
X415489200Y-38150914D01*
X415522533Y-38189009D01*
X415555866Y-38265200D01*
X415555866Y-38493771D01*
X415522533Y-38569961D01*
X415489200Y-38608057D01*
X423175866Y-39928685D02*
X422475866Y-39928685D01*
X423175866Y-39471542D02*
X422775866Y-39814400D01*
X422475866Y-39471542D02*
X422875866Y-39928685D01*
X422809200Y-39128685D02*
X422809200Y-38862019D01*
X423175866Y-38747733D02*
X423175866Y-39128685D01*
X422475866Y-39128685D01*
X422475866Y-38747733D01*
X422842533Y-38252495D02*
X423175866Y-38252495D01*
X422475866Y-38519161D02*
X422842533Y-38252495D01*
X422475866Y-37985828D01*
X425049200Y-39776323D02*
X425015866Y-39852514D01*
X425015866Y-39966800D01*
X425049200Y-40081085D01*
X425115866Y-40157276D01*
X425182533Y-40195371D01*
X425315866Y-40233466D01*
X425415866Y-40233466D01*
X425549200Y-40195371D01*
X425615866Y-40157276D01*
X425682533Y-40081085D01*
X425715866Y-39966800D01*
X425715866Y-39890609D01*
X425682533Y-39776323D01*
X425649200Y-39738228D01*
X425415866Y-39738228D01*
X425415866Y-39890609D01*
X425715866Y-39395371D02*
X425015866Y-39395371D01*
X425715866Y-38938228D01*
X425015866Y-38938228D01*
X425715866Y-38557276D02*
X425015866Y-38557276D01*
X425015866Y-38366800D01*
X425049200Y-38252514D01*
X425115866Y-38176323D01*
X425182533Y-38138228D01*
X425315866Y-38100133D01*
X425415866Y-38100133D01*
X425549200Y-38138228D01*
X425615866Y-38176323D01*
X425682533Y-38252514D01*
X425715866Y-38366800D01*
X425715866Y-38557276D01*
D10*
X483616000Y-29845000D02*
X482879400Y-29845000D01*
X432739800Y-30708600D02*
X432739800Y-31572200D01*
X460832200Y-30657800D02*
X460832200Y-31724600D01*
D12*
X458868733Y-32662761D02*
X459011590Y-32710380D01*
X459249685Y-32710380D01*
X459344923Y-32662761D01*
X459392542Y-32615142D01*
X459440161Y-32519904D01*
X459440161Y-32424666D01*
X459392542Y-32329428D01*
X459344923Y-32281809D01*
X459249685Y-32234190D01*
X459059209Y-32186571D01*
X458963971Y-32138952D01*
X458916352Y-32091333D01*
X458868733Y-31996095D01*
X458868733Y-31900857D01*
X458916352Y-31805619D01*
X458963971Y-31758000D01*
X459059209Y-31710380D01*
X459297304Y-31710380D01*
X459440161Y-31758000D01*
X459725876Y-32043714D02*
X460106828Y-32043714D01*
X459868733Y-31710380D02*
X459868733Y-32567523D01*
X459916352Y-32662761D01*
X460011590Y-32710380D01*
X460106828Y-32710380D01*
X460868733Y-32710380D02*
X460868733Y-32186571D01*
X460821114Y-32091333D01*
X460725876Y-32043714D01*
X460535400Y-32043714D01*
X460440161Y-32091333D01*
X460868733Y-32662761D02*
X460773495Y-32710380D01*
X460535400Y-32710380D01*
X460440161Y-32662761D01*
X460392542Y-32567523D01*
X460392542Y-32472285D01*
X460440161Y-32377047D01*
X460535400Y-32329428D01*
X460773495Y-32329428D01*
X460868733Y-32281809D01*
X461202066Y-32043714D02*
X461583019Y-32043714D01*
X461344923Y-31710380D02*
X461344923Y-32567523D01*
X461392542Y-32662761D01*
X461487780Y-32710380D01*
X461583019Y-32710380D01*
X462344923Y-32043714D02*
X462344923Y-32710380D01*
X461916352Y-32043714D02*
X461916352Y-32567523D01*
X461963971Y-32662761D01*
X462059209Y-32710380D01*
X462202066Y-32710380D01*
X462297304Y-32662761D01*
X462344923Y-32615142D01*
X462773495Y-32662761D02*
X462868733Y-32710380D01*
X463059209Y-32710380D01*
X463154447Y-32662761D01*
X463202066Y-32567523D01*
X463202066Y-32519904D01*
X463154447Y-32424666D01*
X463059209Y-32377047D01*
X462916352Y-32377047D01*
X462821114Y-32329428D01*
X462773495Y-32234190D01*
X462773495Y-32186571D01*
X462821114Y-32091333D01*
X462916352Y-32043714D01*
X463059209Y-32043714D01*
X463154447Y-32091333D01*
X431855809Y-32583380D02*
X431855809Y-31583380D01*
X432236761Y-31583380D01*
X432332000Y-31631000D01*
X432379619Y-31678619D01*
X432427238Y-31773857D01*
X432427238Y-31916714D01*
X432379619Y-32011952D01*
X432332000Y-32059571D01*
X432236761Y-32107190D01*
X431855809Y-32107190D01*
X432998666Y-32583380D02*
X432903428Y-32535761D01*
X432855809Y-32488142D01*
X432808190Y-32392904D01*
X432808190Y-32107190D01*
X432855809Y-32011952D01*
X432903428Y-31964333D01*
X432998666Y-31916714D01*
X433141523Y-31916714D01*
X433236761Y-31964333D01*
X433284380Y-32011952D01*
X433332000Y-32107190D01*
X433332000Y-32392904D01*
X433284380Y-32488142D01*
X433236761Y-32535761D01*
X433141523Y-32583380D01*
X432998666Y-32583380D01*
X433665333Y-31916714D02*
X433855809Y-32583380D01*
X434046285Y-32107190D01*
X434236761Y-32583380D01*
X434427238Y-31916714D01*
X435189142Y-32535761D02*
X435093904Y-32583380D01*
X434903428Y-32583380D01*
X434808190Y-32535761D01*
X434760571Y-32440523D01*
X434760571Y-32059571D01*
X434808190Y-31964333D01*
X434903428Y-31916714D01*
X435093904Y-31916714D01*
X435189142Y-31964333D01*
X435236761Y-32059571D01*
X435236761Y-32154809D01*
X434760571Y-32250047D01*
X435665333Y-32583380D02*
X435665333Y-31916714D01*
X435665333Y-32107190D02*
X435712952Y-32011952D01*
X435760571Y-31964333D01*
X435855809Y-31916714D01*
X435951047Y-31916714D01*
X430352247Y-30653028D02*
X431114152Y-30653028D01*
X430733200Y-31033980D02*
X430733200Y-30272076D01*
X458851047Y-31135628D02*
X459612952Y-31135628D01*
X459232000Y-31516580D02*
X459232000Y-30754676D01*
X485343247Y-31135628D02*
X486105152Y-31135628D01*
X485724200Y-31516580D02*
X485724200Y-30754676D01*
X464515200Y-55094142D02*
X464562819Y-55141761D01*
X464515200Y-55189380D01*
X464467580Y-55141761D01*
X464515200Y-55094142D01*
X464515200Y-55189380D01*
X470234971Y-35732838D02*
X470282590Y-35589980D01*
X470330209Y-35542361D01*
X470425447Y-35494742D01*
X470568304Y-35494742D01*
X470663542Y-35542361D01*
X470711161Y-35589980D01*
X470758780Y-35685219D01*
X470758780Y-36066171D01*
X469758780Y-36066171D01*
X469758780Y-35732838D01*
X469806400Y-35637600D01*
X469854019Y-35589980D01*
X469949257Y-35542361D01*
X470044495Y-35542361D01*
X470139733Y-35589980D01*
X470187352Y-35637600D01*
X470234971Y-35732838D01*
X470234971Y-36066171D01*
X470758780Y-34923314D02*
X470711161Y-35018552D01*
X470663542Y-35066171D01*
X470568304Y-35113790D01*
X470282590Y-35113790D01*
X470187352Y-35066171D01*
X470139733Y-35018552D01*
X470092114Y-34923314D01*
X470092114Y-34780457D01*
X470139733Y-34685219D01*
X470187352Y-34637600D01*
X470282590Y-34589980D01*
X470568304Y-34589980D01*
X470663542Y-34637600D01*
X470711161Y-34685219D01*
X470758780Y-34780457D01*
X470758780Y-34923314D01*
X470758780Y-34018552D02*
X470711161Y-34113790D01*
X470663542Y-34161409D01*
X470568304Y-34209028D01*
X470282590Y-34209028D01*
X470187352Y-34161409D01*
X470139733Y-34113790D01*
X470092114Y-34018552D01*
X470092114Y-33875695D01*
X470139733Y-33780457D01*
X470187352Y-33732838D01*
X470282590Y-33685219D01*
X470568304Y-33685219D01*
X470663542Y-33732838D01*
X470711161Y-33780457D01*
X470758780Y-33875695D01*
X470758780Y-34018552D01*
X470092114Y-33399504D02*
X470092114Y-33018552D01*
X469758780Y-33256647D02*
X470615923Y-33256647D01*
X470711161Y-33209028D01*
X470758780Y-33113790D01*
X470758780Y-33018552D01*
X470758780Y-32161409D02*
X470758780Y-32732838D01*
X470758780Y-32447123D02*
X469758780Y-32447123D01*
X469901638Y-32542361D01*
X469996876Y-32637600D01*
X470044495Y-32732838D01*
X471682771Y-35732838D02*
X471730390Y-35589980D01*
X471778009Y-35542361D01*
X471873247Y-35494742D01*
X472016104Y-35494742D01*
X472111342Y-35542361D01*
X472158961Y-35589980D01*
X472206580Y-35685219D01*
X472206580Y-36066171D01*
X471206580Y-36066171D01*
X471206580Y-35732838D01*
X471254200Y-35637600D01*
X471301819Y-35589980D01*
X471397057Y-35542361D01*
X471492295Y-35542361D01*
X471587533Y-35589980D01*
X471635152Y-35637600D01*
X471682771Y-35732838D01*
X471682771Y-36066171D01*
X472206580Y-34923314D02*
X472158961Y-35018552D01*
X472111342Y-35066171D01*
X472016104Y-35113790D01*
X471730390Y-35113790D01*
X471635152Y-35066171D01*
X471587533Y-35018552D01*
X471539914Y-34923314D01*
X471539914Y-34780457D01*
X471587533Y-34685219D01*
X471635152Y-34637600D01*
X471730390Y-34589980D01*
X472016104Y-34589980D01*
X472111342Y-34637600D01*
X472158961Y-34685219D01*
X472206580Y-34780457D01*
X472206580Y-34923314D01*
X472206580Y-34018552D02*
X472158961Y-34113790D01*
X472111342Y-34161409D01*
X472016104Y-34209028D01*
X471730390Y-34209028D01*
X471635152Y-34161409D01*
X471587533Y-34113790D01*
X471539914Y-34018552D01*
X471539914Y-33875695D01*
X471587533Y-33780457D01*
X471635152Y-33732838D01*
X471730390Y-33685219D01*
X472016104Y-33685219D01*
X472111342Y-33732838D01*
X472158961Y-33780457D01*
X472206580Y-33875695D01*
X472206580Y-34018552D01*
X471539914Y-33399504D02*
X471539914Y-33018552D01*
X471206580Y-33256647D02*
X472063723Y-33256647D01*
X472158961Y-33209028D01*
X472206580Y-33113790D01*
X472206580Y-33018552D01*
X471206580Y-32494742D02*
X471206580Y-32399504D01*
X471254200Y-32304266D01*
X471301819Y-32256647D01*
X471397057Y-32209028D01*
X471587533Y-32161409D01*
X471825628Y-32161409D01*
X472016104Y-32209028D01*
X472111342Y-32256647D01*
X472158961Y-32304266D01*
X472206580Y-32399504D01*
X472206580Y-32494742D01*
X472158961Y-32589980D01*
X472111342Y-32637600D01*
X472016104Y-32685219D01*
X471825628Y-32732838D01*
X471587533Y-32732838D01*
X471397057Y-32685219D01*
X471301819Y-32637600D01*
X471254200Y-32589980D01*
X471206580Y-32494742D01*
X468956898Y-60103794D02*
X468855883Y-60137466D01*
X468754868Y-60238481D01*
X468687524Y-60373168D01*
X468687524Y-60507855D01*
X468721196Y-60608870D01*
X468822211Y-60777229D01*
X468923226Y-60878244D01*
X469091585Y-60979260D01*
X469192600Y-61012931D01*
X469327287Y-61012931D01*
X469461974Y-60945588D01*
X469529318Y-60878244D01*
X469596661Y-60743557D01*
X469596661Y-60676214D01*
X469360959Y-60440512D01*
X469226272Y-60575199D01*
X469967051Y-60440512D02*
X469259944Y-59733405D01*
X470371112Y-60036451D01*
X469664005Y-59329344D01*
X470707829Y-59699733D02*
X470000722Y-58992626D01*
X470169081Y-58824268D01*
X470303768Y-58756924D01*
X470438455Y-58756924D01*
X470539470Y-58790596D01*
X470707829Y-58891611D01*
X470808844Y-58992626D01*
X470909860Y-59160985D01*
X470943531Y-59262000D01*
X470943531Y-59396687D01*
X470876188Y-59531374D01*
X470707829Y-59699733D01*
X481267347Y-60410937D02*
X481780561Y-60064770D01*
X481717241Y-60566991D01*
X481835675Y-60487107D01*
X481941259Y-60473328D01*
X482007365Y-60486178D01*
X482100100Y-60538506D01*
X482233241Y-60735895D01*
X482247020Y-60841480D01*
X482234170Y-60907586D01*
X482181842Y-61000320D01*
X481944974Y-61160090D01*
X481839390Y-61173868D01*
X481773284Y-61161018D01*
X482017429Y-59905000D02*
X482852968Y-60547640D01*
X482570121Y-59532205D01*
X482767511Y-59399064D02*
X483280724Y-59052897D01*
X483217404Y-59555118D01*
X483335838Y-59475234D01*
X483441422Y-59461455D01*
X483507529Y-59474305D01*
X483600263Y-59526633D01*
X483733404Y-59724023D01*
X483747183Y-59829607D01*
X483734333Y-59895713D01*
X483682005Y-59988447D01*
X483445137Y-60148217D01*
X483339553Y-60161995D01*
X483273447Y-60149146D01*
X470229030Y-62413732D02*
X469656610Y-62312717D01*
X469824969Y-62817793D02*
X469117862Y-62110687D01*
X469387236Y-61841312D01*
X469488251Y-61807641D01*
X469555595Y-61807641D01*
X469656610Y-61841312D01*
X469757625Y-61942328D01*
X469791297Y-62043343D01*
X469791297Y-62110687D01*
X469757625Y-62211702D01*
X469488251Y-62481076D01*
X469757625Y-61470923D02*
X470936137Y-61706625D01*
X470229030Y-60999519D02*
X470464732Y-62178030D01*
X481496226Y-58571522D02*
X481900287Y-58167461D01*
X482405364Y-59076599D02*
X481698257Y-58369492D01*
X482068646Y-57999103D02*
X483247157Y-58234805D01*
X482540051Y-57527698D02*
X482775753Y-58706209D01*
X476458114Y-53360580D02*
X476458114Y-52360580D01*
X476458114Y-52836771D02*
X477029542Y-52836771D01*
X477029542Y-53360580D02*
X477029542Y-52360580D01*
X477458114Y-53312961D02*
X477600971Y-53360580D01*
X477839066Y-53360580D01*
X477934304Y-53312961D01*
X477981923Y-53265342D01*
X478029542Y-53170104D01*
X478029542Y-53074866D01*
X477981923Y-52979628D01*
X477934304Y-52932009D01*
X477839066Y-52884390D01*
X477648590Y-52836771D01*
X477553352Y-52789152D01*
X477505733Y-52741533D01*
X477458114Y-52646295D01*
X477458114Y-52551057D01*
X477505733Y-52455819D01*
X477553352Y-52408200D01*
X477648590Y-52360580D01*
X477886685Y-52360580D01*
X478029542Y-52408200D01*
X478458114Y-52836771D02*
X478791447Y-52836771D01*
X478934304Y-53360580D02*
X478458114Y-53360580D01*
X478458114Y-52360580D01*
X478934304Y-52360580D01*
D10*
X470331800Y-50469800D02*
X470484200Y-50342800D01*
X468706200Y-48844200D02*
X470331800Y-50469800D01*
X467944200Y-49606200D02*
X468706200Y-48844200D01*
X470433400Y-52095400D02*
X467944200Y-49606200D01*
X470433400Y-52501800D02*
X470433400Y-52095400D01*
X469544400Y-55321200D02*
X469544400Y-54152800D01*
X470966800Y-56743600D02*
X469544400Y-55321200D01*
X472567000Y-56743600D02*
X470966800Y-56743600D01*
X475945200Y-53365400D02*
X472567000Y-56743600D01*
X475945200Y-51943000D02*
X475945200Y-53365400D01*
X474497400Y-50495200D02*
X475945200Y-51943000D01*
X474319600Y-50495200D02*
X474497400Y-50495200D01*
X472617800Y-50495200D02*
X472973400Y-50495200D01*
X472059000Y-51054000D02*
X472617800Y-50495200D01*
X470916000Y-49911000D02*
X472059000Y-51054000D01*
X470484200Y-50342800D02*
X470916000Y-49911000D01*
D12*
X439856809Y-49474380D02*
X439856809Y-48474380D01*
X440237761Y-48474380D01*
X440333000Y-48522000D01*
X440380619Y-48569619D01*
X440428238Y-48664857D01*
X440428238Y-48807714D01*
X440380619Y-48902952D01*
X440333000Y-48950571D01*
X440237761Y-48998190D01*
X439856809Y-48998190D01*
X440999666Y-49474380D02*
X440904428Y-49426761D01*
X440856809Y-49379142D01*
X440809190Y-49283904D01*
X440809190Y-48998190D01*
X440856809Y-48902952D01*
X440904428Y-48855333D01*
X440999666Y-48807714D01*
X441142523Y-48807714D01*
X441237761Y-48855333D01*
X441285380Y-48902952D01*
X441333000Y-48998190D01*
X441333000Y-49283904D01*
X441285380Y-49379142D01*
X441237761Y-49426761D01*
X441142523Y-49474380D01*
X440999666Y-49474380D01*
X441666333Y-48807714D02*
X441856809Y-49474380D01*
X442047285Y-48998190D01*
X442237761Y-49474380D01*
X442428238Y-48807714D01*
X443190142Y-49426761D02*
X443094904Y-49474380D01*
X442904428Y-49474380D01*
X442809190Y-49426761D01*
X442761571Y-49331523D01*
X442761571Y-48950571D01*
X442809190Y-48855333D01*
X442904428Y-48807714D01*
X443094904Y-48807714D01*
X443190142Y-48855333D01*
X443237761Y-48950571D01*
X443237761Y-49045809D01*
X442761571Y-49141047D01*
X443666333Y-49474380D02*
X443666333Y-48807714D01*
X443666333Y-48998190D02*
X443713952Y-48902952D01*
X443761571Y-48855333D01*
X443856809Y-48807714D01*
X443952047Y-48807714D01*
D10*
X434644800Y-49860200D02*
X434644800Y-38582600D01*
X444220600Y-49860200D02*
X434644800Y-49860200D01*
X444220600Y-38582600D02*
X444220600Y-49860200D01*
X434644800Y-38582600D02*
X444220600Y-38582600D01*
D12*
X477537347Y-54151780D02*
X477537347Y-54961304D01*
X477584966Y-55056542D01*
X477632585Y-55104161D01*
X477727823Y-55151780D01*
X477918300Y-55151780D01*
X478013538Y-55104161D01*
X478061157Y-55056542D01*
X478108776Y-54961304D01*
X478108776Y-54151780D01*
X478537347Y-54866066D02*
X479013538Y-54866066D01*
X478442109Y-55151780D02*
X478775442Y-54151780D01*
X479108776Y-55151780D01*
X480013538Y-55151780D02*
X479680204Y-54675590D01*
X479442109Y-55151780D02*
X479442109Y-54151780D01*
X479823061Y-54151780D01*
X479918300Y-54199400D01*
X479965919Y-54247019D01*
X480013538Y-54342257D01*
X480013538Y-54485114D01*
X479965919Y-54580352D01*
X479918300Y-54627971D01*
X479823061Y-54675590D01*
X479442109Y-54675590D01*
X480299252Y-54151780D02*
X480870680Y-54151780D01*
X480584966Y-55151780D02*
X480584966Y-54151780D01*
X481156395Y-54247019D02*
X481204014Y-54199400D01*
X481299252Y-54151780D01*
X481537347Y-54151780D01*
X481632585Y-54199400D01*
X481680204Y-54247019D01*
X481727823Y-54342257D01*
X481727823Y-54437495D01*
X481680204Y-54580352D01*
X481108776Y-55151780D01*
X481727823Y-55151780D01*
X476442109Y-56277971D02*
X476775442Y-56277971D01*
X476918300Y-56801780D02*
X476442109Y-56801780D01*
X476442109Y-55801780D01*
X476918300Y-55801780D01*
X477299252Y-56754161D02*
X477442109Y-56801780D01*
X477680204Y-56801780D01*
X477775442Y-56754161D01*
X477823061Y-56706542D01*
X477870680Y-56611304D01*
X477870680Y-56516066D01*
X477823061Y-56420828D01*
X477775442Y-56373209D01*
X477680204Y-56325590D01*
X477489728Y-56277971D01*
X477394490Y-56230352D01*
X477346871Y-56182733D01*
X477299252Y-56087495D01*
X477299252Y-55992257D01*
X477346871Y-55897019D01*
X477394490Y-55849400D01*
X477489728Y-55801780D01*
X477727823Y-55801780D01*
X477870680Y-55849400D01*
X478299252Y-56801780D02*
X478299252Y-55801780D01*
X478680204Y-55801780D01*
X478775442Y-55849400D01*
X478823061Y-55897019D01*
X478870680Y-55992257D01*
X478870680Y-56135114D01*
X478823061Y-56230352D01*
X478775442Y-56277971D01*
X478680204Y-56325590D01*
X478299252Y-56325590D01*
X479489728Y-55801780D02*
X479584966Y-55801780D01*
X479680204Y-55849400D01*
X479727823Y-55897019D01*
X479775442Y-55992257D01*
X479823061Y-56182733D01*
X479823061Y-56420828D01*
X479775442Y-56611304D01*
X479727823Y-56706542D01*
X479680204Y-56754161D01*
X479584966Y-56801780D01*
X479489728Y-56801780D01*
X479394490Y-56754161D01*
X479346871Y-56706542D01*
X479299252Y-56611304D01*
X479251633Y-56420828D01*
X479251633Y-56182733D01*
X479299252Y-55992257D01*
X479346871Y-55897019D01*
X479394490Y-55849400D01*
X479489728Y-55801780D01*
X480775442Y-56801780D02*
X480204014Y-56801780D01*
X480489728Y-56801780D02*
X480489728Y-55801780D01*
X480394490Y-55944638D01*
X480299252Y-56039876D01*
X480204014Y-56087495D01*
X481156395Y-56754161D02*
X481299252Y-56801780D01*
X481537347Y-56801780D01*
X481632585Y-56754161D01*
X481680204Y-56706542D01*
X481727823Y-56611304D01*
X481727823Y-56516066D01*
X481680204Y-56420828D01*
X481632585Y-56373209D01*
X481537347Y-56325590D01*
X481346871Y-56277971D01*
X481251633Y-56230352D01*
X481204014Y-56182733D01*
X481156395Y-56087495D01*
X481156395Y-55992257D01*
X481204014Y-55897019D01*
X481251633Y-55849400D01*
X481346871Y-55801780D01*
X481584966Y-55801780D01*
X481727823Y-55849400D01*
X476100816Y-32665947D02*
X475528396Y-32564931D01*
X475696755Y-33070008D02*
X474989648Y-32362901D01*
X475259022Y-32093527D01*
X475360037Y-32059855D01*
X475427381Y-32059855D01*
X475528396Y-32093527D01*
X475629411Y-32194542D01*
X475663083Y-32295557D01*
X475663083Y-32362901D01*
X475629411Y-32463916D01*
X475360037Y-32733290D01*
X476639564Y-32059855D02*
X476605892Y-32160870D01*
X476471205Y-32295557D01*
X476370190Y-32329229D01*
X476269174Y-32295557D01*
X475999800Y-32026183D01*
X475966129Y-31925168D01*
X475999800Y-31824153D01*
X476134487Y-31689466D01*
X476235503Y-31655794D01*
X476336518Y-31689466D01*
X476403861Y-31756809D01*
X476134487Y-32160870D01*
X476942609Y-31756809D02*
X477043625Y-31723138D01*
X477178312Y-31588451D01*
X477211983Y-31487435D01*
X477178312Y-31386420D01*
X477144640Y-31352748D01*
X477043625Y-31319077D01*
X476942609Y-31352748D01*
X476841594Y-31453764D01*
X476740579Y-31487435D01*
X476639564Y-31453764D01*
X476605892Y-31420092D01*
X476572220Y-31319077D01*
X476605892Y-31218061D01*
X476706907Y-31117046D01*
X476807922Y-31083374D01*
X477818075Y-30881344D02*
X477784403Y-30982359D01*
X477649716Y-31117046D01*
X477548701Y-31150718D01*
X477447686Y-31117046D01*
X477178312Y-30847672D01*
X477144640Y-30746657D01*
X477178312Y-30645642D01*
X477312999Y-30510955D01*
X477414014Y-30477283D01*
X477515029Y-30510955D01*
X477582373Y-30578298D01*
X477312999Y-30982359D01*
X477616044Y-30207909D02*
X477885418Y-29938535D01*
X477481357Y-29871191D02*
X478087449Y-30477283D01*
X478188464Y-30510955D01*
X478289479Y-30477283D01*
X478356823Y-30409939D01*
D10*
%TO.C,J8*%
X429200000Y-36890000D02*
X431860000Y-36890000D01*
X429200000Y-34290000D02*
X429200000Y-36890000D01*
X431860000Y-34290000D02*
X431860000Y-36890000D01*
X429200000Y-34290000D02*
X431860000Y-34290000D01*
X429200000Y-33020000D02*
X429200000Y-31690000D01*
X429200000Y-31690000D02*
X430530000Y-31690000D01*
%TO.C,J3*%
X415230000Y-57210000D02*
X420430000Y-57210000D01*
X415230000Y-44450000D02*
X415230000Y-57210000D01*
X420430000Y-41850000D02*
X420430000Y-57210000D01*
X415230000Y-44450000D02*
X417830000Y-44450000D01*
X417830000Y-44450000D02*
X417830000Y-41850000D01*
X417830000Y-41850000D02*
X420430000Y-41850000D01*
X415230000Y-43180000D02*
X415230000Y-41850000D01*
X415230000Y-41850000D02*
X416560000Y-41850000D01*
%TO.C,R12*%
X433272200Y-34491959D02*
X433272200Y-34799241D01*
X432512200Y-34491959D02*
X432512200Y-34799241D01*
%TO.C,R7*%
X463676000Y-30326359D02*
X463676000Y-30633641D01*
X462916000Y-30326359D02*
X462916000Y-30633641D01*
%TO.C,R6*%
X482853000Y-32866359D02*
X482853000Y-33173641D01*
X482093000Y-32866359D02*
X482093000Y-33173641D01*
%TO.C,R3*%
X464186000Y-30633641D02*
X464186000Y-30326359D01*
X464946000Y-30633641D02*
X464946000Y-30326359D01*
%TO.C,R1*%
X473482641Y-32892000D02*
X473175359Y-32892000D01*
X473482641Y-32132000D02*
X473175359Y-32132000D01*
%TO.C,U3*%
X448322000Y-31364000D02*
G75*
G03*
X448322000Y-31364000I-60000J0D01*
G01*
X448882000Y-30774000D02*
X448882000Y-30274000D01*
X448882000Y-30274000D02*
X456882000Y-30274000D01*
X456882000Y-30274000D02*
X456882000Y-30774000D01*
X448882000Y-35774000D02*
X448882000Y-36274000D01*
X448882000Y-36274000D02*
X456882000Y-36274000D01*
X456882000Y-36274000D02*
X456882000Y-35774000D01*
X456882000Y-34274000D02*
X456882000Y-34774000D01*
X456882000Y-33524000D02*
X456882000Y-33024000D01*
X456882000Y-32274000D02*
X456882000Y-31774000D01*
X448882000Y-32274000D02*
X448882000Y-31774000D01*
X448882000Y-33524000D02*
X448882000Y-33024000D01*
X448882000Y-34774000D02*
X448882000Y-34274000D01*
%TO.C,R13*%
X470741859Y-51366460D02*
X470959140Y-51583741D01*
X471279260Y-50829059D02*
X471496541Y-51046340D01*
%TO.C,C16*%
X471119810Y-55320693D02*
X470967307Y-55168190D01*
X470610693Y-55829810D02*
X470458190Y-55677307D01*
%TO.C,Y1*%
X470113060Y-53841487D02*
X472446513Y-56174940D01*
X472446513Y-56174940D02*
X475274940Y-53346513D01*
%TO.C,U1*%
X436983600Y-44216200D02*
X436983600Y-45146200D01*
X436983600Y-47376200D02*
X436983600Y-46446200D01*
X436983600Y-47376200D02*
X439143600Y-47376200D01*
X436983600Y-44216200D02*
X438443600Y-44216200D01*
%TO.C,SW3*%
X480068000Y-28126000D02*
X479568000Y-28506000D01*
X479568000Y-28506000D02*
X479568000Y-28826000D01*
X480068000Y-28126000D02*
X481068000Y-28126000D01*
X481068000Y-28126000D02*
X481568000Y-28506000D01*
X481568000Y-28506000D02*
X481568000Y-28826000D01*
X478918000Y-31626000D02*
X482218000Y-31626000D01*
X478918000Y-31326000D02*
X478918000Y-31626000D01*
X482218000Y-31626000D02*
X482218000Y-31326000D01*
X478918000Y-29126000D02*
X478918000Y-28826000D01*
X478918000Y-28826000D02*
X482218000Y-28826000D01*
X482218000Y-28826000D02*
X482218000Y-29126000D01*
%TO.C,SW2*%
X467876000Y-28126000D02*
X467376000Y-28506000D01*
X467376000Y-28506000D02*
X467376000Y-28826000D01*
X467876000Y-28126000D02*
X468876000Y-28126000D01*
X468876000Y-28126000D02*
X469376000Y-28506000D01*
X469376000Y-28506000D02*
X469376000Y-28826000D01*
X466726000Y-31626000D02*
X470026000Y-31626000D01*
X466726000Y-31326000D02*
X466726000Y-31626000D01*
X470026000Y-31626000D02*
X470026000Y-31326000D01*
X466726000Y-29126000D02*
X466726000Y-28826000D01*
X466726000Y-28826000D02*
X470026000Y-28826000D01*
X470026000Y-28826000D02*
X470026000Y-29126000D01*
%TO.C,SW1*%
X472829000Y-28126000D02*
X472329000Y-28506000D01*
X472329000Y-28506000D02*
X472329000Y-28826000D01*
X472829000Y-28126000D02*
X473829000Y-28126000D01*
X473829000Y-28126000D02*
X474329000Y-28506000D01*
X474329000Y-28506000D02*
X474329000Y-28826000D01*
X471679000Y-31626000D02*
X474979000Y-31626000D01*
X471679000Y-31326000D02*
X471679000Y-31626000D01*
X474979000Y-31626000D02*
X474979000Y-31326000D01*
X471679000Y-29126000D02*
X471679000Y-28826000D01*
X471679000Y-28826000D02*
X474979000Y-28826000D01*
X474979000Y-28826000D02*
X474979000Y-29126000D01*
%TO.C,R4*%
X448158841Y-43915600D02*
X447851559Y-43915600D01*
X448158841Y-43155600D02*
X447851559Y-43155600D01*
%TO.C,R15*%
X458596000Y-31725359D02*
X458596000Y-32032641D01*
X457836000Y-31725359D02*
X457836000Y-32032641D01*
%TO.C,R14*%
X447420000Y-32358359D02*
X447420000Y-32665641D01*
X446660000Y-32358359D02*
X446660000Y-32665641D01*
%TO.C,R11*%
X433909200Y-34824641D02*
X433909200Y-34517359D01*
X434669200Y-34824641D02*
X434669200Y-34517359D01*
%TO.C,R2*%
X480414359Y-33402000D02*
X480721641Y-33402000D01*
X480414359Y-34162000D02*
X480721641Y-34162000D01*
%TO.C,J5*%
X471110000Y-57090000D02*
X471110000Y-62290000D01*
X478790000Y-57090000D02*
X471110000Y-57090000D01*
X481390000Y-62290000D02*
X471110000Y-62290000D01*
X478790000Y-57090000D02*
X478790000Y-59690000D01*
X478790000Y-59690000D02*
X481390000Y-59690000D01*
X481390000Y-59690000D02*
X481390000Y-62290000D01*
X480060000Y-57090000D02*
X481390000Y-57090000D01*
X481390000Y-57090000D02*
X481390000Y-58420000D01*
%TO.C,J6*%
X429200000Y-50860000D02*
X431860000Y-50860000D01*
X429200000Y-43180000D02*
X429200000Y-50860000D01*
X431860000Y-43180000D02*
X431860000Y-50860000D01*
X429200000Y-43180000D02*
X431860000Y-43180000D01*
X429200000Y-41910000D02*
X429200000Y-40580000D01*
X429200000Y-40580000D02*
X430530000Y-40580000D01*
%TO.C,J2*%
X445390000Y-29496000D02*
X445390000Y-27596000D01*
X445390000Y-33396000D02*
X445390000Y-31396000D01*
X435990000Y-29496000D02*
X435990000Y-27596000D01*
X435990000Y-33396000D02*
X435990000Y-31396000D01*
X445390000Y-27596000D02*
X435990000Y-27596000D01*
%TO.C,FB1*%
X437394778Y-42264400D02*
X438194022Y-42264400D01*
X437394778Y-43384400D02*
X438194022Y-43384400D01*
%TO.C,D3*%
X431889000Y-30707000D02*
X434174000Y-30707000D01*
X434174000Y-30707000D02*
X434174000Y-29237000D01*
X434174000Y-29237000D02*
X431889000Y-29237000D01*
%TO.C,D2*%
X460083000Y-30580000D02*
X462368000Y-30580000D01*
X462368000Y-30580000D02*
X462368000Y-29110000D01*
X462368000Y-29110000D02*
X460083000Y-29110000D01*
%TO.C,D1*%
X485940000Y-29110000D02*
X483655000Y-29110000D01*
X483655000Y-29110000D02*
X483655000Y-30580000D01*
X483655000Y-30580000D02*
X485940000Y-30580000D01*
%TO.C,C1*%
X480675836Y-32872000D02*
X480460164Y-32872000D01*
X480675836Y-32152000D02*
X480460164Y-32152000D01*
%TO.C,C3*%
X440897600Y-45205764D02*
X440897600Y-45421436D01*
X440177600Y-45205764D02*
X440177600Y-45421436D01*
%TO.C,C2*%
X436393000Y-40239836D02*
X436393000Y-40024164D01*
X437113000Y-40239836D02*
X437113000Y-40024164D01*
%TO.C,C15*%
X453113430Y-42272819D02*
X452914619Y-42471630D01*
X452392181Y-41551570D02*
X452193370Y-41750381D01*
%TO.C,C14*%
X467981420Y-33018000D02*
X468262580Y-33018000D01*
X467981420Y-34038000D02*
X468262580Y-34038000D01*
%TO.C,C13*%
X461143236Y-55986000D02*
X460927564Y-55986000D01*
X461143236Y-55266000D02*
X460927564Y-55266000D01*
%TO.C,C12*%
X453085810Y-44323507D02*
X452933307Y-44476010D01*
X452576693Y-43814390D02*
X452424190Y-43966893D01*
%TO.C,C5*%
X478415236Y-35462800D02*
X478199564Y-35462800D01*
X478415236Y-34742800D02*
X478199564Y-34742800D01*
%TO.C,C4*%
X478415236Y-34319800D02*
X478199564Y-34319800D01*
X478415236Y-33599800D02*
X478199564Y-33599800D01*
%TO.C,C11*%
X473856164Y-47900000D02*
X474071836Y-47900000D01*
X473856164Y-48620000D02*
X474071836Y-48620000D01*
%TO.C,C10*%
X464724636Y-33253000D02*
X464508964Y-33253000D01*
X464724636Y-32533000D02*
X464508964Y-32533000D01*
%TO.C,C9*%
X468736000Y-54502164D02*
X468736000Y-54717836D01*
X468016000Y-54502164D02*
X468016000Y-54717836D01*
%TO.C,C8*%
X469554221Y-52670896D02*
X469401718Y-52823399D01*
X469045104Y-52161779D02*
X468892601Y-52314282D01*
%TO.C,C7*%
X474980507Y-41401390D02*
X475133010Y-41553893D01*
X474471390Y-41910507D02*
X474623893Y-42063010D01*
%TO.C,C6*%
X475165762Y-43365189D02*
X475364573Y-43166378D01*
X475887011Y-44086438D02*
X476085822Y-43887627D01*
%TO.C,R10*%
X446660000Y-34826641D02*
X446660000Y-34519359D01*
X447420000Y-34826641D02*
X447420000Y-34519359D01*
%TO.C,R9*%
X480721641Y-35559000D02*
X480414359Y-35559000D01*
X480721641Y-34799000D02*
X480414359Y-34799000D01*
%TO.C,R8*%
X435230241Y-54253400D02*
X434922959Y-54253400D01*
X435230241Y-53493400D02*
X434922959Y-53493400D01*
%TO.C,R5*%
X427762641Y-45998400D02*
X427455359Y-45998400D01*
X427762641Y-45238400D02*
X427455359Y-45238400D01*
%TO.C,J4*%
X483810000Y-62290000D02*
X486470000Y-62290000D01*
X483810000Y-34290000D02*
X483810000Y-62290000D01*
X486470000Y-34290000D02*
X486470000Y-62290000D01*
X483810000Y-34290000D02*
X486470000Y-34290000D01*
X483810000Y-33020000D02*
X483810000Y-31690000D01*
X483810000Y-31690000D02*
X485140000Y-31690000D01*
%TO.C,FB2*%
X478949178Y-36041400D02*
X479748422Y-36041400D01*
X478949178Y-37161400D02*
X479748422Y-37161400D01*
%TO.C,F1*%
X440110200Y-42029464D02*
X440110200Y-40825336D01*
X441930200Y-42029464D02*
X441930200Y-40825336D01*
%TO.C,C17*%
X474777307Y-51358190D02*
X474929810Y-51510693D01*
X474268190Y-51867307D02*
X474420693Y-52019810D01*
%TO.C,U2*%
X464459930Y-34923871D02*
X463964955Y-34428897D01*
X463964955Y-34428897D02*
X463469980Y-34923871D01*
X473525039Y-43988980D02*
X474020013Y-44483955D01*
X474020013Y-44483955D02*
X473525039Y-44978930D01*
X454404871Y-44978930D02*
X453909897Y-44483955D01*
X453909897Y-44483955D02*
X454404871Y-43988980D01*
X463469980Y-54044039D02*
X463964955Y-54539013D01*
X463964955Y-54539013D02*
X464459930Y-54044039D01*
X464459930Y-54044039D02*
X465425131Y-55009239D01*
%TO.C,R12*%
D12*
X433647914Y-33565266D02*
X433381247Y-33231933D01*
X433190771Y-33565266D02*
X433190771Y-32865266D01*
X433495533Y-32865266D01*
X433571723Y-32898600D01*
X433609819Y-32931933D01*
X433647914Y-32998600D01*
X433647914Y-33098600D01*
X433609819Y-33165266D01*
X433571723Y-33198600D01*
X433495533Y-33231933D01*
X433190771Y-33231933D01*
X434409819Y-33565266D02*
X433952676Y-33565266D01*
X434181247Y-33565266D02*
X434181247Y-32865266D01*
X434105057Y-32965266D01*
X434028866Y-33031933D01*
X433952676Y-33065266D01*
X434714580Y-32931933D02*
X434752676Y-32898600D01*
X434828866Y-32865266D01*
X435019342Y-32865266D01*
X435095533Y-32898600D01*
X435133628Y-32931933D01*
X435171723Y-32998600D01*
X435171723Y-33065266D01*
X435133628Y-33165266D01*
X434676485Y-33565266D01*
X435171723Y-33565266D01*
%TO.C,R7*%
X463053133Y-29738580D02*
X462719800Y-29262390D01*
X462481704Y-29738580D02*
X462481704Y-28738580D01*
X462862657Y-28738580D01*
X462957895Y-28786200D01*
X463005514Y-28833819D01*
X463053133Y-28929057D01*
X463053133Y-29071914D01*
X463005514Y-29167152D01*
X462957895Y-29214771D01*
X462862657Y-29262390D01*
X462481704Y-29262390D01*
X463386466Y-28738580D02*
X464053133Y-28738580D01*
X463624561Y-29738580D01*
%TO.C,R6*%
X483839780Y-31510266D02*
X483363590Y-31843600D01*
X483839780Y-32081695D02*
X482839780Y-32081695D01*
X482839780Y-31700742D01*
X482887400Y-31605504D01*
X482935019Y-31557885D01*
X483030257Y-31510266D01*
X483173114Y-31510266D01*
X483268352Y-31557885D01*
X483315971Y-31605504D01*
X483363590Y-31700742D01*
X483363590Y-32081695D01*
X482839780Y-30653123D02*
X482839780Y-30843600D01*
X482887400Y-30938838D01*
X482935019Y-30986457D01*
X483077876Y-31081695D01*
X483268352Y-31129314D01*
X483649304Y-31129314D01*
X483744542Y-31081695D01*
X483792161Y-31034076D01*
X483839780Y-30938838D01*
X483839780Y-30748361D01*
X483792161Y-30653123D01*
X483744542Y-30605504D01*
X483649304Y-30557885D01*
X483411209Y-30557885D01*
X483315971Y-30605504D01*
X483268352Y-30653123D01*
X483220733Y-30748361D01*
X483220733Y-30938838D01*
X483268352Y-31034076D01*
X483315971Y-31081695D01*
X483411209Y-31129314D01*
%TO.C,R3*%
X464907333Y-29738580D02*
X464574000Y-29262390D01*
X464335904Y-29738580D02*
X464335904Y-28738580D01*
X464716857Y-28738580D01*
X464812095Y-28786200D01*
X464859714Y-28833819D01*
X464907333Y-28929057D01*
X464907333Y-29071914D01*
X464859714Y-29167152D01*
X464812095Y-29214771D01*
X464716857Y-29262390D01*
X464335904Y-29262390D01*
X465240666Y-28738580D02*
X465859714Y-28738580D01*
X465526380Y-29119533D01*
X465669238Y-29119533D01*
X465764476Y-29167152D01*
X465812095Y-29214771D01*
X465859714Y-29310009D01*
X465859714Y-29548104D01*
X465812095Y-29643342D01*
X465764476Y-29690961D01*
X465669238Y-29738580D01*
X465383523Y-29738580D01*
X465288285Y-29690961D01*
X465240666Y-29643342D01*
%TO.C,R1*%
X473695733Y-34996380D02*
X473362400Y-34520190D01*
X473124304Y-34996380D02*
X473124304Y-33996380D01*
X473505257Y-33996380D01*
X473600495Y-34044000D01*
X473648114Y-34091619D01*
X473695733Y-34186857D01*
X473695733Y-34329714D01*
X473648114Y-34424952D01*
X473600495Y-34472571D01*
X473505257Y-34520190D01*
X473124304Y-34520190D01*
X474648114Y-34996380D02*
X474076685Y-34996380D01*
X474362400Y-34996380D02*
X474362400Y-33996380D01*
X474267161Y-34139238D01*
X474171923Y-34234476D01*
X474076685Y-34282095D01*
%TO.C,U3*%
X452069295Y-36688780D02*
X452069295Y-37498304D01*
X452116914Y-37593542D01*
X452164533Y-37641161D01*
X452259771Y-37688780D01*
X452450247Y-37688780D01*
X452545485Y-37641161D01*
X452593104Y-37593542D01*
X452640723Y-37498304D01*
X452640723Y-36688780D01*
X453021676Y-36688780D02*
X453640723Y-36688780D01*
X453307390Y-37069733D01*
X453450247Y-37069733D01*
X453545485Y-37117352D01*
X453593104Y-37164971D01*
X453640723Y-37260209D01*
X453640723Y-37498304D01*
X453593104Y-37593542D01*
X453545485Y-37641161D01*
X453450247Y-37688780D01*
X453164533Y-37688780D01*
X453069295Y-37641161D01*
X453021676Y-37593542D01*
%TO.C,R13*%
X472376749Y-49623912D02*
X472477764Y-49051493D01*
X471972688Y-49219851D02*
X472679795Y-48512745D01*
X472949169Y-48782119D01*
X472982841Y-48883134D01*
X472982841Y-48950477D01*
X472949169Y-49051493D01*
X472848154Y-49152508D01*
X472747138Y-49186180D01*
X472679795Y-49186180D01*
X472578780Y-49152508D01*
X472309406Y-48883134D01*
X473050184Y-50297348D02*
X472646123Y-49893287D01*
X472848154Y-50095317D02*
X473555261Y-49388210D01*
X473386902Y-49421882D01*
X473252215Y-49421882D01*
X473151200Y-49388210D01*
X473992993Y-49825943D02*
X474430726Y-50263676D01*
X473925650Y-50297348D01*
X474026665Y-50398363D01*
X474060337Y-50499378D01*
X474060337Y-50566722D01*
X474026665Y-50667737D01*
X473858306Y-50836096D01*
X473757291Y-50869767D01*
X473689948Y-50869767D01*
X473588932Y-50836096D01*
X473386902Y-50634065D01*
X473353230Y-50533050D01*
X473353230Y-50465706D01*
%TO.C,C16*%
X467872093Y-56693969D02*
X467804749Y-56693969D01*
X467670062Y-56626625D01*
X467602719Y-56559282D01*
X467535375Y-56424595D01*
X467535375Y-56289908D01*
X467569047Y-56188893D01*
X467670062Y-56020534D01*
X467771077Y-55919519D01*
X467939436Y-55818503D01*
X468040451Y-55784832D01*
X468175138Y-55784832D01*
X468309825Y-55852175D01*
X468377169Y-55919519D01*
X468444512Y-56054206D01*
X468444512Y-56121549D01*
X468478184Y-57434748D02*
X468074123Y-57030687D01*
X468276154Y-57232717D02*
X468983261Y-56525610D01*
X468814902Y-56559282D01*
X468680215Y-56559282D01*
X468579200Y-56525610D01*
X469791383Y-57333732D02*
X469656696Y-57199045D01*
X469555680Y-57165374D01*
X469488337Y-57165374D01*
X469319978Y-57199045D01*
X469151619Y-57300061D01*
X468882245Y-57569435D01*
X468848574Y-57670450D01*
X468848574Y-57737793D01*
X468882245Y-57838809D01*
X469016932Y-57973496D01*
X469117948Y-58007167D01*
X469185291Y-58007167D01*
X469286306Y-57973496D01*
X469454665Y-57805137D01*
X469488337Y-57704122D01*
X469488337Y-57636778D01*
X469454665Y-57535763D01*
X469319978Y-57401076D01*
X469218963Y-57367404D01*
X469151619Y-57367404D01*
X469050604Y-57401076D01*
%TO.C,Y1*%
X473966046Y-56479281D02*
X474302764Y-56815999D01*
X473359955Y-56344594D02*
X473966046Y-56479281D01*
X473831359Y-55873190D01*
X475144557Y-55974205D02*
X474740496Y-56378266D01*
X474942527Y-56176235D02*
X474235420Y-55469129D01*
X474269092Y-55637487D01*
X474269092Y-55772174D01*
X474235420Y-55873190D01*
%TO.C,U1*%
X436626095Y-47712380D02*
X436626095Y-48521904D01*
X436673714Y-48617142D01*
X436721333Y-48664761D01*
X436816571Y-48712380D01*
X437007047Y-48712380D01*
X437102285Y-48664761D01*
X437149904Y-48617142D01*
X437197523Y-48521904D01*
X437197523Y-47712380D01*
X438197523Y-48712380D02*
X437626095Y-48712380D01*
X437911809Y-48712380D02*
X437911809Y-47712380D01*
X437816571Y-47855238D01*
X437721333Y-47950476D01*
X437626095Y-47998095D01*
%TO.C,R4*%
X447813133Y-42768780D02*
X447479800Y-42292590D01*
X447241704Y-42768780D02*
X447241704Y-41768780D01*
X447622657Y-41768780D01*
X447717895Y-41816400D01*
X447765514Y-41864019D01*
X447813133Y-41959257D01*
X447813133Y-42102114D01*
X447765514Y-42197352D01*
X447717895Y-42244971D01*
X447622657Y-42292590D01*
X447241704Y-42292590D01*
X448670276Y-42102114D02*
X448670276Y-42768780D01*
X448432180Y-41721161D02*
X448194085Y-42435447D01*
X448813133Y-42435447D01*
%TO.C,R15*%
X458820780Y-34958257D02*
X458344590Y-35291590D01*
X458820780Y-35529685D02*
X457820780Y-35529685D01*
X457820780Y-35148733D01*
X457868400Y-35053495D01*
X457916019Y-35005876D01*
X458011257Y-34958257D01*
X458154114Y-34958257D01*
X458249352Y-35005876D01*
X458296971Y-35053495D01*
X458344590Y-35148733D01*
X458344590Y-35529685D01*
X458820780Y-34005876D02*
X458820780Y-34577304D01*
X458820780Y-34291590D02*
X457820780Y-34291590D01*
X457963638Y-34386828D01*
X458058876Y-34482066D01*
X458106495Y-34577304D01*
X457820780Y-33101114D02*
X457820780Y-33577304D01*
X458296971Y-33624923D01*
X458249352Y-33577304D01*
X458201733Y-33482066D01*
X458201733Y-33243971D01*
X458249352Y-33148733D01*
X458296971Y-33101114D01*
X458392209Y-33053495D01*
X458630304Y-33053495D01*
X458725542Y-33101114D01*
X458773161Y-33148733D01*
X458820780Y-33243971D01*
X458820780Y-33482066D01*
X458773161Y-33577304D01*
X458725542Y-33624923D01*
%TO.C,R14*%
X446397142Y-30830780D02*
X446063809Y-30354590D01*
X445825714Y-30830780D02*
X445825714Y-29830780D01*
X446206666Y-29830780D01*
X446301904Y-29878400D01*
X446349523Y-29926019D01*
X446397142Y-30021257D01*
X446397142Y-30164114D01*
X446349523Y-30259352D01*
X446301904Y-30306971D01*
X446206666Y-30354590D01*
X445825714Y-30354590D01*
X447349523Y-30830780D02*
X446778095Y-30830780D01*
X447063809Y-30830780D02*
X447063809Y-29830780D01*
X446968571Y-29973638D01*
X446873333Y-30068876D01*
X446778095Y-30116495D01*
X448206666Y-30164114D02*
X448206666Y-30830780D01*
X447968571Y-29783161D02*
X447730476Y-30497447D01*
X448349523Y-30497447D01*
%TO.C,R11*%
X435554380Y-37472857D02*
X435078190Y-37806190D01*
X435554380Y-38044285D02*
X434554380Y-38044285D01*
X434554380Y-37663333D01*
X434602000Y-37568095D01*
X434649619Y-37520476D01*
X434744857Y-37472857D01*
X434887714Y-37472857D01*
X434982952Y-37520476D01*
X435030571Y-37568095D01*
X435078190Y-37663333D01*
X435078190Y-38044285D01*
X435554380Y-36520476D02*
X435554380Y-37091904D01*
X435554380Y-36806190D02*
X434554380Y-36806190D01*
X434697238Y-36901428D01*
X434792476Y-36996666D01*
X434840095Y-37091904D01*
X435554380Y-35568095D02*
X435554380Y-36139523D01*
X435554380Y-35853809D02*
X434554380Y-35853809D01*
X434697238Y-35949047D01*
X434792476Y-36044285D01*
X434840095Y-36139523D01*
%TO.C,R2*%
X478089933Y-33548580D02*
X477756600Y-33072390D01*
X477518504Y-33548580D02*
X477518504Y-32548580D01*
X477899457Y-32548580D01*
X477994695Y-32596200D01*
X478042314Y-32643819D01*
X478089933Y-32739057D01*
X478089933Y-32881914D01*
X478042314Y-32977152D01*
X477994695Y-33024771D01*
X477899457Y-33072390D01*
X477518504Y-33072390D01*
X478470885Y-32643819D02*
X478518504Y-32596200D01*
X478613742Y-32548580D01*
X478851838Y-32548580D01*
X478947076Y-32596200D01*
X478994695Y-32643819D01*
X479042314Y-32739057D01*
X479042314Y-32834295D01*
X478994695Y-32977152D01*
X478423266Y-33548580D01*
X479042314Y-33548580D01*
%TO.C,FB1*%
X437723066Y-41178171D02*
X437389733Y-41178171D01*
X437389733Y-41701980D02*
X437389733Y-40701980D01*
X437865923Y-40701980D01*
X438580209Y-41178171D02*
X438723066Y-41225790D01*
X438770685Y-41273409D01*
X438818304Y-41368647D01*
X438818304Y-41511504D01*
X438770685Y-41606742D01*
X438723066Y-41654361D01*
X438627828Y-41701980D01*
X438246876Y-41701980D01*
X438246876Y-40701980D01*
X438580209Y-40701980D01*
X438675447Y-40749600D01*
X438723066Y-40797219D01*
X438770685Y-40892457D01*
X438770685Y-40987695D01*
X438723066Y-41082933D01*
X438675447Y-41130552D01*
X438580209Y-41178171D01*
X438246876Y-41178171D01*
X439770685Y-41701980D02*
X439199257Y-41701980D01*
X439484971Y-41701980D02*
X439484971Y-40701980D01*
X439389733Y-40844838D01*
X439294495Y-40940076D01*
X439199257Y-40987695D01*
%TO.C,D3*%
X435401980Y-30608495D02*
X434401980Y-30608495D01*
X434401980Y-30370400D01*
X434449600Y-30227542D01*
X434544838Y-30132304D01*
X434640076Y-30084685D01*
X434830552Y-30037066D01*
X434973409Y-30037066D01*
X435163885Y-30084685D01*
X435259123Y-30132304D01*
X435354361Y-30227542D01*
X435401980Y-30370400D01*
X435401980Y-30608495D01*
X434401980Y-29703733D02*
X434401980Y-29084685D01*
X434782933Y-29418019D01*
X434782933Y-29275161D01*
X434830552Y-29179923D01*
X434878171Y-29132304D01*
X434973409Y-29084685D01*
X435211504Y-29084685D01*
X435306742Y-29132304D01*
X435354361Y-29179923D01*
X435401980Y-29275161D01*
X435401980Y-29560876D01*
X435354361Y-29656114D01*
X435306742Y-29703733D01*
%TO.C,D2*%
X459328780Y-30506895D02*
X458328780Y-30506895D01*
X458328780Y-30268800D01*
X458376400Y-30125942D01*
X458471638Y-30030704D01*
X458566876Y-29983085D01*
X458757352Y-29935466D01*
X458900209Y-29935466D01*
X459090685Y-29983085D01*
X459185923Y-30030704D01*
X459281161Y-30125942D01*
X459328780Y-30268800D01*
X459328780Y-30506895D01*
X458424019Y-29554514D02*
X458376400Y-29506895D01*
X458328780Y-29411657D01*
X458328780Y-29173561D01*
X458376400Y-29078323D01*
X458424019Y-29030704D01*
X458519257Y-28983085D01*
X458614495Y-28983085D01*
X458757352Y-29030704D01*
X459328780Y-29602133D01*
X459328780Y-28983085D01*
%TO.C,D1*%
X487446580Y-30532295D02*
X486446580Y-30532295D01*
X486446580Y-30294200D01*
X486494200Y-30151342D01*
X486589438Y-30056104D01*
X486684676Y-30008485D01*
X486875152Y-29960866D01*
X487018009Y-29960866D01*
X487208485Y-30008485D01*
X487303723Y-30056104D01*
X487398961Y-30151342D01*
X487446580Y-30294200D01*
X487446580Y-30532295D01*
X487446580Y-29008485D02*
X487446580Y-29579914D01*
X487446580Y-29294200D02*
X486446580Y-29294200D01*
X486589438Y-29389438D01*
X486684676Y-29484676D01*
X486732295Y-29579914D01*
%TO.C,C1*%
X478064533Y-32284942D02*
X478016914Y-32332561D01*
X477874057Y-32380180D01*
X477778819Y-32380180D01*
X477635961Y-32332561D01*
X477540723Y-32237323D01*
X477493104Y-32142085D01*
X477445485Y-31951609D01*
X477445485Y-31808752D01*
X477493104Y-31618276D01*
X477540723Y-31523038D01*
X477635961Y-31427800D01*
X477778819Y-31380180D01*
X477874057Y-31380180D01*
X478016914Y-31427800D01*
X478064533Y-31475419D01*
X479016914Y-32380180D02*
X478445485Y-32380180D01*
X478731200Y-32380180D02*
X478731200Y-31380180D01*
X478635961Y-31523038D01*
X478540723Y-31618276D01*
X478445485Y-31665895D01*
%TO.C,C3*%
X441894933Y-45823142D02*
X441847314Y-45870761D01*
X441704457Y-45918380D01*
X441609219Y-45918380D01*
X441466361Y-45870761D01*
X441371123Y-45775523D01*
X441323504Y-45680285D01*
X441275885Y-45489809D01*
X441275885Y-45346952D01*
X441323504Y-45156476D01*
X441371123Y-45061238D01*
X441466361Y-44966000D01*
X441609219Y-44918380D01*
X441704457Y-44918380D01*
X441847314Y-44966000D01*
X441894933Y-45013619D01*
X442228266Y-44918380D02*
X442847314Y-44918380D01*
X442513980Y-45299333D01*
X442656838Y-45299333D01*
X442752076Y-45346952D01*
X442799695Y-45394571D01*
X442847314Y-45489809D01*
X442847314Y-45727904D01*
X442799695Y-45823142D01*
X442752076Y-45870761D01*
X442656838Y-45918380D01*
X442371123Y-45918380D01*
X442275885Y-45870761D01*
X442228266Y-45823142D01*
%TO.C,C2*%
X437983333Y-39981142D02*
X437935714Y-40028761D01*
X437792857Y-40076380D01*
X437697619Y-40076380D01*
X437554761Y-40028761D01*
X437459523Y-39933523D01*
X437411904Y-39838285D01*
X437364285Y-39647809D01*
X437364285Y-39504952D01*
X437411904Y-39314476D01*
X437459523Y-39219238D01*
X437554761Y-39124000D01*
X437697619Y-39076380D01*
X437792857Y-39076380D01*
X437935714Y-39124000D01*
X437983333Y-39171619D01*
X438364285Y-39171619D02*
X438411904Y-39124000D01*
X438507142Y-39076380D01*
X438745238Y-39076380D01*
X438840476Y-39124000D01*
X438888095Y-39171619D01*
X438935714Y-39266857D01*
X438935714Y-39362095D01*
X438888095Y-39504952D01*
X438316666Y-40076380D01*
X438935714Y-40076380D01*
%TO.C,C15*%
X451028969Y-42007506D02*
X451028969Y-42074850D01*
X450961625Y-42209537D01*
X450894282Y-42276880D01*
X450759595Y-42344224D01*
X450624908Y-42344224D01*
X450523893Y-42310552D01*
X450355534Y-42209537D01*
X450254519Y-42108522D01*
X450153503Y-41940163D01*
X450119832Y-41839148D01*
X450119832Y-41704461D01*
X450187175Y-41569774D01*
X450254519Y-41502430D01*
X450389206Y-41435087D01*
X450456549Y-41435087D01*
X451769748Y-41401415D02*
X451365687Y-41805476D01*
X451567717Y-41603445D02*
X450860610Y-40896338D01*
X450894282Y-41064697D01*
X450894282Y-41199384D01*
X450860610Y-41300400D01*
X451702404Y-40054545D02*
X451365687Y-40391262D01*
X451668732Y-40761651D01*
X451668732Y-40694308D01*
X451702404Y-40593293D01*
X451870763Y-40424934D01*
X451971778Y-40391262D01*
X452039122Y-40391262D01*
X452140137Y-40424934D01*
X452308496Y-40593293D01*
X452342167Y-40694308D01*
X452342167Y-40761651D01*
X452308496Y-40862667D01*
X452140137Y-41031025D01*
X452039122Y-41064697D01*
X451971778Y-41064697D01*
%TO.C,C14*%
X467047342Y-32665942D02*
X466999723Y-32713561D01*
X466856866Y-32761180D01*
X466761628Y-32761180D01*
X466618771Y-32713561D01*
X466523533Y-32618323D01*
X466475914Y-32523085D01*
X466428295Y-32332609D01*
X466428295Y-32189752D01*
X466475914Y-31999276D01*
X466523533Y-31904038D01*
X466618771Y-31808800D01*
X466761628Y-31761180D01*
X466856866Y-31761180D01*
X466999723Y-31808800D01*
X467047342Y-31856419D01*
X467999723Y-32761180D02*
X467428295Y-32761180D01*
X467714009Y-32761180D02*
X467714009Y-31761180D01*
X467618771Y-31904038D01*
X467523533Y-31999276D01*
X467428295Y-32046895D01*
X468856866Y-32094514D02*
X468856866Y-32761180D01*
X468618771Y-31713561D02*
X468380676Y-32427847D01*
X468999723Y-32427847D01*
%TO.C,C13*%
X462653142Y-56643542D02*
X462605523Y-56691161D01*
X462462666Y-56738780D01*
X462367428Y-56738780D01*
X462224571Y-56691161D01*
X462129333Y-56595923D01*
X462081714Y-56500685D01*
X462034095Y-56310209D01*
X462034095Y-56167352D01*
X462081714Y-55976876D01*
X462129333Y-55881638D01*
X462224571Y-55786400D01*
X462367428Y-55738780D01*
X462462666Y-55738780D01*
X462605523Y-55786400D01*
X462653142Y-55834019D01*
X463605523Y-56738780D02*
X463034095Y-56738780D01*
X463319809Y-56738780D02*
X463319809Y-55738780D01*
X463224571Y-55881638D01*
X463129333Y-55976876D01*
X463034095Y-56024495D01*
X463938857Y-55738780D02*
X464557904Y-55738780D01*
X464224571Y-56119733D01*
X464367428Y-56119733D01*
X464462666Y-56167352D01*
X464510285Y-56214971D01*
X464557904Y-56310209D01*
X464557904Y-56548304D01*
X464510285Y-56643542D01*
X464462666Y-56691161D01*
X464367428Y-56738780D01*
X464081714Y-56738780D01*
X463986476Y-56691161D01*
X463938857Y-56643542D01*
%TO.C,C12*%
X450317768Y-45919106D02*
X450317768Y-45986450D01*
X450250424Y-46121137D01*
X450183081Y-46188480D01*
X450048394Y-46255824D01*
X449913707Y-46255824D01*
X449812692Y-46222152D01*
X449644333Y-46121137D01*
X449543318Y-46020122D01*
X449442302Y-45851763D01*
X449408631Y-45750748D01*
X449408631Y-45616061D01*
X449475974Y-45481374D01*
X449543318Y-45414030D01*
X449678005Y-45346687D01*
X449745348Y-45346687D01*
X451058547Y-45313015D02*
X450654486Y-45717076D01*
X450856516Y-45515045D02*
X450149409Y-44807938D01*
X450183081Y-44976297D01*
X450183081Y-45110984D01*
X450149409Y-45212000D01*
X450688157Y-44403877D02*
X450688157Y-44336534D01*
X450721829Y-44235519D01*
X450890188Y-44067160D01*
X450991203Y-44033488D01*
X451058547Y-44033488D01*
X451159562Y-44067160D01*
X451226905Y-44134503D01*
X451294249Y-44269190D01*
X451294249Y-45077312D01*
X451731982Y-44639580D01*
%TO.C,C5*%
X476184933Y-35383742D02*
X476137314Y-35431361D01*
X475994457Y-35478980D01*
X475899219Y-35478980D01*
X475756361Y-35431361D01*
X475661123Y-35336123D01*
X475613504Y-35240885D01*
X475565885Y-35050409D01*
X475565885Y-34907552D01*
X475613504Y-34717076D01*
X475661123Y-34621838D01*
X475756361Y-34526600D01*
X475899219Y-34478980D01*
X475994457Y-34478980D01*
X476137314Y-34526600D01*
X476184933Y-34574219D01*
X477089695Y-34478980D02*
X476613504Y-34478980D01*
X476565885Y-34955171D01*
X476613504Y-34907552D01*
X476708742Y-34859933D01*
X476946838Y-34859933D01*
X477042076Y-34907552D01*
X477089695Y-34955171D01*
X477137314Y-35050409D01*
X477137314Y-35288504D01*
X477089695Y-35383742D01*
X477042076Y-35431361D01*
X476946838Y-35478980D01*
X476708742Y-35478980D01*
X476613504Y-35431361D01*
X476565885Y-35383742D01*
%TO.C,C4*%
X476159533Y-34139142D02*
X476111914Y-34186761D01*
X475969057Y-34234380D01*
X475873819Y-34234380D01*
X475730961Y-34186761D01*
X475635723Y-34091523D01*
X475588104Y-33996285D01*
X475540485Y-33805809D01*
X475540485Y-33662952D01*
X475588104Y-33472476D01*
X475635723Y-33377238D01*
X475730961Y-33282000D01*
X475873819Y-33234380D01*
X475969057Y-33234380D01*
X476111914Y-33282000D01*
X476159533Y-33329619D01*
X477016676Y-33567714D02*
X477016676Y-34234380D01*
X476778580Y-33186761D02*
X476540485Y-33901047D01*
X477159533Y-33901047D01*
%TO.C,C11*%
X476851742Y-48109142D02*
X476804123Y-48156761D01*
X476661266Y-48204380D01*
X476566028Y-48204380D01*
X476423171Y-48156761D01*
X476327933Y-48061523D01*
X476280314Y-47966285D01*
X476232695Y-47775809D01*
X476232695Y-47632952D01*
X476280314Y-47442476D01*
X476327933Y-47347238D01*
X476423171Y-47252000D01*
X476566028Y-47204380D01*
X476661266Y-47204380D01*
X476804123Y-47252000D01*
X476851742Y-47299619D01*
X477804123Y-48204380D02*
X477232695Y-48204380D01*
X477518409Y-48204380D02*
X477518409Y-47204380D01*
X477423171Y-47347238D01*
X477327933Y-47442476D01*
X477232695Y-47490095D01*
X478756504Y-48204380D02*
X478185076Y-48204380D01*
X478470790Y-48204380D02*
X478470790Y-47204380D01*
X478375552Y-47347238D01*
X478280314Y-47442476D01*
X478185076Y-47490095D01*
%TO.C,C10*%
X463415142Y-34215342D02*
X463367523Y-34262961D01*
X463224666Y-34310580D01*
X463129428Y-34310580D01*
X462986571Y-34262961D01*
X462891333Y-34167723D01*
X462843714Y-34072485D01*
X462796095Y-33882009D01*
X462796095Y-33739152D01*
X462843714Y-33548676D01*
X462891333Y-33453438D01*
X462986571Y-33358200D01*
X463129428Y-33310580D01*
X463224666Y-33310580D01*
X463367523Y-33358200D01*
X463415142Y-33405819D01*
X464367523Y-34310580D02*
X463796095Y-34310580D01*
X464081809Y-34310580D02*
X464081809Y-33310580D01*
X463986571Y-33453438D01*
X463891333Y-33548676D01*
X463796095Y-33596295D01*
X464986571Y-33310580D02*
X465081809Y-33310580D01*
X465177047Y-33358200D01*
X465224666Y-33405819D01*
X465272285Y-33501057D01*
X465319904Y-33691533D01*
X465319904Y-33929628D01*
X465272285Y-34120104D01*
X465224666Y-34215342D01*
X465177047Y-34262961D01*
X465081809Y-34310580D01*
X464986571Y-34310580D01*
X464891333Y-34262961D01*
X464843714Y-34215342D01*
X464796095Y-34120104D01*
X464748476Y-33929628D01*
X464748476Y-33691533D01*
X464796095Y-33501057D01*
X464843714Y-33405819D01*
X464891333Y-33358200D01*
X464986571Y-33310580D01*
%TO.C,C9*%
X467590142Y-55106866D02*
X467637761Y-55154485D01*
X467685380Y-55297342D01*
X467685380Y-55392580D01*
X467637761Y-55535438D01*
X467542523Y-55630676D01*
X467447285Y-55678295D01*
X467256809Y-55725914D01*
X467113952Y-55725914D01*
X466923476Y-55678295D01*
X466828238Y-55630676D01*
X466733000Y-55535438D01*
X466685380Y-55392580D01*
X466685380Y-55297342D01*
X466733000Y-55154485D01*
X466780619Y-55106866D01*
X467685380Y-54630676D02*
X467685380Y-54440200D01*
X467637761Y-54344961D01*
X467590142Y-54297342D01*
X467447285Y-54202104D01*
X467256809Y-54154485D01*
X466875857Y-54154485D01*
X466780619Y-54202104D01*
X466733000Y-54249723D01*
X466685380Y-54344961D01*
X466685380Y-54535438D01*
X466733000Y-54630676D01*
X466780619Y-54678295D01*
X466875857Y-54725914D01*
X467113952Y-54725914D01*
X467209190Y-54678295D01*
X467256809Y-54630676D01*
X467304428Y-54535438D01*
X467304428Y-54344961D01*
X467256809Y-54249723D01*
X467209190Y-54202104D01*
X467113952Y-54154485D01*
%TO.C,C8*%
X469958487Y-53608789D02*
X469958487Y-53676132D01*
X469891143Y-53810819D01*
X469823800Y-53878163D01*
X469689112Y-53945506D01*
X469554425Y-53945506D01*
X469453410Y-53911835D01*
X469285051Y-53810819D01*
X469184036Y-53709804D01*
X469083021Y-53541445D01*
X469049349Y-53440430D01*
X469049349Y-53305743D01*
X469116693Y-53171056D01*
X469184036Y-53103712D01*
X469318723Y-53036369D01*
X469386067Y-53036369D01*
X470025830Y-52868010D02*
X469924815Y-52901682D01*
X469857471Y-52901682D01*
X469756456Y-52868010D01*
X469722784Y-52834338D01*
X469689112Y-52733323D01*
X469689112Y-52665980D01*
X469722784Y-52564964D01*
X469857471Y-52430277D01*
X469958487Y-52396606D01*
X470025830Y-52396606D01*
X470126845Y-52430277D01*
X470160517Y-52463949D01*
X470194189Y-52564964D01*
X470194189Y-52632308D01*
X470160517Y-52733323D01*
X470025830Y-52868010D01*
X469992158Y-52969025D01*
X469992158Y-53036369D01*
X470025830Y-53137384D01*
X470160517Y-53272071D01*
X470261532Y-53305743D01*
X470328876Y-53305743D01*
X470429891Y-53272071D01*
X470564578Y-53137384D01*
X470598250Y-53036369D01*
X470598250Y-52969025D01*
X470564578Y-52868010D01*
X470429891Y-52733323D01*
X470328876Y-52699651D01*
X470261532Y-52699651D01*
X470160517Y-52733323D01*
%TO.C,C7*%
X475252054Y-41046643D02*
X475184711Y-41046643D01*
X475050024Y-40979299D01*
X474982680Y-40911956D01*
X474915337Y-40777268D01*
X474915337Y-40642581D01*
X474949008Y-40541566D01*
X475050024Y-40373207D01*
X475151039Y-40272192D01*
X475319398Y-40171177D01*
X475420413Y-40137505D01*
X475555100Y-40137505D01*
X475689787Y-40204849D01*
X475757131Y-40272192D01*
X475824474Y-40406879D01*
X475824474Y-40474223D01*
X476127520Y-40642581D02*
X476598924Y-41113986D01*
X475588772Y-41518047D01*
%TO.C,C6*%
X477299087Y-44515589D02*
X477299087Y-44582932D01*
X477231743Y-44717619D01*
X477164400Y-44784963D01*
X477029712Y-44852306D01*
X476895025Y-44852306D01*
X476794010Y-44818635D01*
X476625651Y-44717619D01*
X476524636Y-44616604D01*
X476423621Y-44448245D01*
X476389949Y-44347230D01*
X476389949Y-44212543D01*
X476457293Y-44077856D01*
X476524636Y-44010512D01*
X476659323Y-43943169D01*
X476726667Y-43943169D01*
X477265415Y-43269734D02*
X477130728Y-43404421D01*
X477097056Y-43505436D01*
X477097056Y-43572780D01*
X477130728Y-43741138D01*
X477231743Y-43909497D01*
X477501117Y-44178871D01*
X477602132Y-44212543D01*
X477669476Y-44212543D01*
X477770491Y-44178871D01*
X477905178Y-44044184D01*
X477938850Y-43943169D01*
X477938850Y-43875825D01*
X477905178Y-43774810D01*
X477736819Y-43606451D01*
X477635804Y-43572780D01*
X477568461Y-43572780D01*
X477467445Y-43606451D01*
X477332758Y-43741138D01*
X477299087Y-43842154D01*
X477299087Y-43909497D01*
X477332758Y-44010512D01*
%TO.C,R10*%
X446447942Y-36977580D02*
X446114609Y-36501390D01*
X445876514Y-36977580D02*
X445876514Y-35977580D01*
X446257466Y-35977580D01*
X446352704Y-36025200D01*
X446400323Y-36072819D01*
X446447942Y-36168057D01*
X446447942Y-36310914D01*
X446400323Y-36406152D01*
X446352704Y-36453771D01*
X446257466Y-36501390D01*
X445876514Y-36501390D01*
X447400323Y-36977580D02*
X446828895Y-36977580D01*
X447114609Y-36977580D02*
X447114609Y-35977580D01*
X447019371Y-36120438D01*
X446924133Y-36215676D01*
X446828895Y-36263295D01*
X448019371Y-35977580D02*
X448114609Y-35977580D01*
X448209847Y-36025200D01*
X448257466Y-36072819D01*
X448305085Y-36168057D01*
X448352704Y-36358533D01*
X448352704Y-36596628D01*
X448305085Y-36787104D01*
X448257466Y-36882342D01*
X448209847Y-36929961D01*
X448114609Y-36977580D01*
X448019371Y-36977580D01*
X447924133Y-36929961D01*
X447876514Y-36882342D01*
X447828895Y-36787104D01*
X447781276Y-36596628D01*
X447781276Y-36358533D01*
X447828895Y-36168057D01*
X447876514Y-36072819D01*
X447924133Y-36025200D01*
X448019371Y-35977580D01*
%TO.C,R9*%
X481985580Y-36793466D02*
X481509390Y-37126800D01*
X481985580Y-37364895D02*
X480985580Y-37364895D01*
X480985580Y-36983942D01*
X481033200Y-36888704D01*
X481080819Y-36841085D01*
X481176057Y-36793466D01*
X481318914Y-36793466D01*
X481414152Y-36841085D01*
X481461771Y-36888704D01*
X481509390Y-36983942D01*
X481509390Y-37364895D01*
X481985580Y-36317276D02*
X481985580Y-36126800D01*
X481937961Y-36031561D01*
X481890342Y-35983942D01*
X481747485Y-35888704D01*
X481557009Y-35841085D01*
X481176057Y-35841085D01*
X481080819Y-35888704D01*
X481033200Y-35936323D01*
X480985580Y-36031561D01*
X480985580Y-36222038D01*
X481033200Y-36317276D01*
X481080819Y-36364895D01*
X481176057Y-36412514D01*
X481414152Y-36412514D01*
X481509390Y-36364895D01*
X481557009Y-36317276D01*
X481604628Y-36222038D01*
X481604628Y-36031561D01*
X481557009Y-35936323D01*
X481509390Y-35888704D01*
X481414152Y-35841085D01*
%TO.C,R8*%
X436916533Y-54351180D02*
X436583200Y-53874990D01*
X436345104Y-54351180D02*
X436345104Y-53351180D01*
X436726057Y-53351180D01*
X436821295Y-53398800D01*
X436868914Y-53446419D01*
X436916533Y-53541657D01*
X436916533Y-53684514D01*
X436868914Y-53779752D01*
X436821295Y-53827371D01*
X436726057Y-53874990D01*
X436345104Y-53874990D01*
X437487961Y-53779752D02*
X437392723Y-53732133D01*
X437345104Y-53684514D01*
X437297485Y-53589276D01*
X437297485Y-53541657D01*
X437345104Y-53446419D01*
X437392723Y-53398800D01*
X437487961Y-53351180D01*
X437678438Y-53351180D01*
X437773676Y-53398800D01*
X437821295Y-53446419D01*
X437868914Y-53541657D01*
X437868914Y-53589276D01*
X437821295Y-53684514D01*
X437773676Y-53732133D01*
X437678438Y-53779752D01*
X437487961Y-53779752D01*
X437392723Y-53827371D01*
X437345104Y-53874990D01*
X437297485Y-53970228D01*
X437297485Y-54160704D01*
X437345104Y-54255942D01*
X437392723Y-54303561D01*
X437487961Y-54351180D01*
X437678438Y-54351180D01*
X437773676Y-54303561D01*
X437821295Y-54255942D01*
X437868914Y-54160704D01*
X437868914Y-53970228D01*
X437821295Y-53874990D01*
X437773676Y-53827371D01*
X437678438Y-53779752D01*
%TO.C,R5*%
X425283333Y-46172380D02*
X424950000Y-45696190D01*
X424711904Y-46172380D02*
X424711904Y-45172380D01*
X425092857Y-45172380D01*
X425188095Y-45220000D01*
X425235714Y-45267619D01*
X425283333Y-45362857D01*
X425283333Y-45505714D01*
X425235714Y-45600952D01*
X425188095Y-45648571D01*
X425092857Y-45696190D01*
X424711904Y-45696190D01*
X426188095Y-45172380D02*
X425711904Y-45172380D01*
X425664285Y-45648571D01*
X425711904Y-45600952D01*
X425807142Y-45553333D01*
X426045238Y-45553333D01*
X426140476Y-45600952D01*
X426188095Y-45648571D01*
X426235714Y-45743809D01*
X426235714Y-45981904D01*
X426188095Y-46077142D01*
X426140476Y-46124761D01*
X426045238Y-46172380D01*
X425807142Y-46172380D01*
X425711904Y-46124761D01*
X425664285Y-46077142D01*
%TO.C,FB2*%
X476813666Y-38180971D02*
X476480333Y-38180971D01*
X476480333Y-38704780D02*
X476480333Y-37704780D01*
X476956523Y-37704780D01*
X477670809Y-38180971D02*
X477813666Y-38228590D01*
X477861285Y-38276209D01*
X477908904Y-38371447D01*
X477908904Y-38514304D01*
X477861285Y-38609542D01*
X477813666Y-38657161D01*
X477718428Y-38704780D01*
X477337476Y-38704780D01*
X477337476Y-37704780D01*
X477670809Y-37704780D01*
X477766047Y-37752400D01*
X477813666Y-37800019D01*
X477861285Y-37895257D01*
X477861285Y-37990495D01*
X477813666Y-38085733D01*
X477766047Y-38133352D01*
X477670809Y-38180971D01*
X477337476Y-38180971D01*
X478289857Y-37800019D02*
X478337476Y-37752400D01*
X478432714Y-37704780D01*
X478670809Y-37704780D01*
X478766047Y-37752400D01*
X478813666Y-37800019D01*
X478861285Y-37895257D01*
X478861285Y-37990495D01*
X478813666Y-38133352D01*
X478242238Y-38704780D01*
X478861285Y-38704780D01*
%TO.C,F1*%
X442769666Y-41254371D02*
X442436333Y-41254371D01*
X442436333Y-41778180D02*
X442436333Y-40778180D01*
X442912523Y-40778180D01*
X443817285Y-41778180D02*
X443245857Y-41778180D01*
X443531571Y-41778180D02*
X443531571Y-40778180D01*
X443436333Y-40921038D01*
X443341095Y-41016276D01*
X443245857Y-41063895D01*
%TO.C,C17*%
X476482693Y-50445569D02*
X476415349Y-50445569D01*
X476280662Y-50378225D01*
X476213319Y-50310882D01*
X476145975Y-50176195D01*
X476145975Y-50041508D01*
X476179647Y-49940493D01*
X476280662Y-49772134D01*
X476381677Y-49671119D01*
X476550036Y-49570103D01*
X476651051Y-49536432D01*
X476785738Y-49536432D01*
X476920425Y-49603775D01*
X476987769Y-49671119D01*
X477055112Y-49805806D01*
X477055112Y-49873149D01*
X477088784Y-51186348D02*
X476684723Y-50782287D01*
X476886754Y-50984317D02*
X477593861Y-50277210D01*
X477425502Y-50310882D01*
X477290815Y-50310882D01*
X477189800Y-50277210D01*
X478031593Y-50714943D02*
X478502998Y-51186348D01*
X477492845Y-51590409D01*
%TO.C,U2*%
X455778477Y-49239026D02*
X455206057Y-49811446D01*
X455172385Y-49912461D01*
X455172385Y-49979805D01*
X455206057Y-50080820D01*
X455340744Y-50215507D01*
X455441759Y-50249179D01*
X455509103Y-50249179D01*
X455610118Y-50215507D01*
X456182538Y-49643087D01*
X456418240Y-50013477D02*
X456485583Y-50013477D01*
X456586599Y-50047148D01*
X456754957Y-50215507D01*
X456788629Y-50316522D01*
X456788629Y-50383866D01*
X456754957Y-50484881D01*
X456687614Y-50552225D01*
X456552927Y-50619568D01*
X455744805Y-50619568D01*
X456182538Y-51057301D01*
%TD*%
M02*
