%TF.GenerationSoftware,KiCad,Pcbnew,(5.1.9)-1*%
%TF.CreationDate,2021-03-09T20:48:28+01:00*%
%TF.ProjectId,poly_kb,706f6c79-5f6b-4622-9e6b-696361645f70,rev?*%
%TF.SameCoordinates,Original*%
%TF.FileFunction,Legend,Bot*%
%TF.FilePolarity,Positive*%
%FSLAX46Y46*%
G04 Gerber Fmt 4.6, Leading zero omitted, Abs format (unit mm)*
G04 Created by KiCad (PCBNEW (5.1.9)-1) date 2021-03-09 20:48:28*
%MOMM*%
%LPD*%
G01*
G04 APERTURE LIST*
%ADD10C,0.120000*%
%ADD11C,0.150000*%
%ADD12C,0.500000*%
%ADD13C,0.300000*%
G04 APERTURE END LIST*
D10*
X436473600Y-36322000D02*
X430580800Y-40233600D01*
D11*
X444299504Y-36472761D02*
X444156647Y-36520380D01*
X443918552Y-36520380D01*
X443823314Y-36472761D01*
X443775695Y-36425142D01*
X443728076Y-36329904D01*
X443728076Y-36234666D01*
X443775695Y-36139428D01*
X443823314Y-36091809D01*
X443918552Y-36044190D01*
X444109028Y-35996571D01*
X444204266Y-35948952D01*
X444251885Y-35901333D01*
X444299504Y-35806095D01*
X444299504Y-35710857D01*
X444251885Y-35615619D01*
X444204266Y-35568000D01*
X444109028Y-35520380D01*
X443870933Y-35520380D01*
X443728076Y-35568000D01*
X443442361Y-35853714D02*
X443061409Y-35853714D01*
X443299504Y-35520380D02*
X443299504Y-36377523D01*
X443251885Y-36472761D01*
X443156647Y-36520380D01*
X443061409Y-36520380D01*
X442299504Y-36520380D02*
X442299504Y-35996571D01*
X442347123Y-35901333D01*
X442442361Y-35853714D01*
X442632838Y-35853714D01*
X442728076Y-35901333D01*
X442299504Y-36472761D02*
X442394742Y-36520380D01*
X442632838Y-36520380D01*
X442728076Y-36472761D01*
X442775695Y-36377523D01*
X442775695Y-36282285D01*
X442728076Y-36187047D01*
X442632838Y-36139428D01*
X442394742Y-36139428D01*
X442299504Y-36091809D01*
X441966171Y-35853714D02*
X441585219Y-35853714D01*
X441823314Y-35520380D02*
X441823314Y-36377523D01*
X441775695Y-36472761D01*
X441680457Y-36520380D01*
X441585219Y-36520380D01*
X440823314Y-35853714D02*
X440823314Y-36520380D01*
X441251885Y-35853714D02*
X441251885Y-36377523D01*
X441204266Y-36472761D01*
X441109028Y-36520380D01*
X440966171Y-36520380D01*
X440870933Y-36472761D01*
X440823314Y-36425142D01*
X440394742Y-36472761D02*
X440299504Y-36520380D01*
X440109028Y-36520380D01*
X440013790Y-36472761D01*
X439966171Y-36377523D01*
X439966171Y-36329904D01*
X440013790Y-36234666D01*
X440109028Y-36187047D01*
X440251885Y-36187047D01*
X440347123Y-36139428D01*
X440394742Y-36044190D01*
X440394742Y-35996571D01*
X440347123Y-35901333D01*
X440251885Y-35853714D01*
X440109028Y-35853714D01*
X440013790Y-35901333D01*
X439537600Y-36520380D02*
X439537600Y-35520380D01*
X439299504Y-35520380D01*
X439156647Y-35568000D01*
X439061409Y-35663238D01*
X439013790Y-35758476D01*
X438966171Y-35948952D01*
X438966171Y-36091809D01*
X439013790Y-36282285D01*
X439061409Y-36377523D01*
X439156647Y-36472761D01*
X439299504Y-36520380D01*
X439537600Y-36520380D01*
X438537600Y-36520380D02*
X438537600Y-35853714D01*
X438537600Y-35520380D02*
X438585219Y-35568000D01*
X438537600Y-35615619D01*
X438489980Y-35568000D01*
X438537600Y-35520380D01*
X438537600Y-35615619D01*
X438109028Y-36472761D02*
X438013790Y-36520380D01*
X437823314Y-36520380D01*
X437728076Y-36472761D01*
X437680457Y-36377523D01*
X437680457Y-36329904D01*
X437728076Y-36234666D01*
X437823314Y-36187047D01*
X437966171Y-36187047D01*
X438061409Y-36139428D01*
X438109028Y-36044190D01*
X438109028Y-35996571D01*
X438061409Y-35901333D01*
X437966171Y-35853714D01*
X437823314Y-35853714D01*
X437728076Y-35901333D01*
X437251885Y-35853714D02*
X437251885Y-36853714D01*
X437251885Y-35901333D02*
X437156647Y-35853714D01*
X436966171Y-35853714D01*
X436870933Y-35901333D01*
X436823314Y-35948952D01*
X436775695Y-36044190D01*
X436775695Y-36329904D01*
X436823314Y-36425142D01*
X436870933Y-36472761D01*
X436966171Y-36520380D01*
X437156647Y-36520380D01*
X437251885Y-36472761D01*
X432427000Y-35178904D02*
X432474619Y-35274142D01*
X432474619Y-35417000D01*
X432427000Y-35559857D01*
X432331761Y-35655095D01*
X432236523Y-35702714D01*
X432046047Y-35750333D01*
X431903190Y-35750333D01*
X431712714Y-35702714D01*
X431617476Y-35655095D01*
X431522238Y-35559857D01*
X431474619Y-35417000D01*
X431474619Y-35321761D01*
X431522238Y-35178904D01*
X431569857Y-35131285D01*
X431903190Y-35131285D01*
X431903190Y-35321761D01*
X431474619Y-34702714D02*
X432474619Y-34702714D01*
X431474619Y-34131285D01*
X432474619Y-34131285D01*
X431474619Y-33655095D02*
X432474619Y-33655095D01*
X432474619Y-33417000D01*
X432427000Y-33274142D01*
X432331761Y-33178904D01*
X432236523Y-33131285D01*
X432046047Y-33083666D01*
X431903190Y-33083666D01*
X431712714Y-33131285D01*
X431617476Y-33178904D01*
X431522238Y-33274142D01*
X431474619Y-33417000D01*
X431474619Y-33655095D01*
X432604223Y-37590361D02*
X432461366Y-37637980D01*
X432223271Y-37637980D01*
X432128033Y-37590361D01*
X432080414Y-37542742D01*
X432032795Y-37447504D01*
X432032795Y-37352266D01*
X432080414Y-37257028D01*
X432128033Y-37209409D01*
X432223271Y-37161790D01*
X432413747Y-37114171D01*
X432508985Y-37066552D01*
X432556604Y-37018933D01*
X432604223Y-36923695D01*
X432604223Y-36828457D01*
X432556604Y-36733219D01*
X432508985Y-36685600D01*
X432413747Y-36637980D01*
X432175652Y-36637980D01*
X432032795Y-36685600D01*
X431699461Y-36637980D02*
X431461366Y-37637980D01*
X431270890Y-36923695D01*
X431080414Y-37637980D01*
X430842319Y-36637980D01*
X430461366Y-37637980D02*
X430461366Y-36637980D01*
X430223271Y-36637980D01*
X430080414Y-36685600D01*
X429985176Y-36780838D01*
X429937557Y-36876076D01*
X429889938Y-37066552D01*
X429889938Y-37209409D01*
X429937557Y-37399885D01*
X429985176Y-37495123D01*
X430080414Y-37590361D01*
X430223271Y-37637980D01*
X430461366Y-37637980D01*
X429461366Y-36971314D02*
X428699461Y-37257028D01*
X429461366Y-37542742D01*
X477607380Y-37671952D02*
X478321666Y-37671952D01*
X478464523Y-37624333D01*
X478559761Y-37529095D01*
X478607380Y-37386238D01*
X478607380Y-37291000D01*
X478607380Y-38624333D02*
X478607380Y-38148142D01*
X477607380Y-38148142D01*
X478512142Y-39529095D02*
X478559761Y-39481476D01*
X478607380Y-39338619D01*
X478607380Y-39243380D01*
X478559761Y-39100523D01*
X478464523Y-39005285D01*
X478369285Y-38957666D01*
X478178809Y-38910047D01*
X478035952Y-38910047D01*
X477845476Y-38957666D01*
X477750238Y-39005285D01*
X477655000Y-39100523D01*
X477607380Y-39243380D01*
X477607380Y-39338619D01*
X477655000Y-39481476D01*
X477702619Y-39529095D01*
X477607380Y-40243380D02*
X478321666Y-40243380D01*
X478464523Y-40195761D01*
X478559761Y-40100523D01*
X478607380Y-39957666D01*
X478607380Y-39862428D01*
X478607380Y-41195761D02*
X478607380Y-40719571D01*
X477607380Y-40719571D01*
X478512142Y-42100523D02*
X478559761Y-42052904D01*
X478607380Y-41910047D01*
X478607380Y-41814809D01*
X478559761Y-41671952D01*
X478464523Y-41576714D01*
X478369285Y-41529095D01*
X478178809Y-41481476D01*
X478035952Y-41481476D01*
X477845476Y-41529095D01*
X477750238Y-41576714D01*
X477655000Y-41671952D01*
X477607380Y-41814809D01*
X477607380Y-41910047D01*
X477655000Y-42052904D01*
X477702619Y-42100523D01*
X477607380Y-42814809D02*
X478321666Y-42814809D01*
X478464523Y-42767190D01*
X478559761Y-42671952D01*
X478607380Y-42529095D01*
X478607380Y-42433857D01*
X478607380Y-43767190D02*
X478607380Y-43291000D01*
X477607380Y-43291000D01*
X478512142Y-44671952D02*
X478559761Y-44624333D01*
X478607380Y-44481476D01*
X478607380Y-44386238D01*
X478559761Y-44243380D01*
X478464523Y-44148142D01*
X478369285Y-44100523D01*
X478178809Y-44052904D01*
X478035952Y-44052904D01*
X477845476Y-44100523D01*
X477750238Y-44148142D01*
X477655000Y-44243380D01*
X477607380Y-44386238D01*
X477607380Y-44481476D01*
X477655000Y-44624333D01*
X477702619Y-44671952D01*
X477607380Y-45386238D02*
X478321666Y-45386238D01*
X478464523Y-45338619D01*
X478559761Y-45243380D01*
X478607380Y-45100523D01*
X478607380Y-45005285D01*
X478607380Y-46338619D02*
X478607380Y-45862428D01*
X477607380Y-45862428D01*
X478512142Y-47243380D02*
X478559761Y-47195761D01*
X478607380Y-47052904D01*
X478607380Y-46957666D01*
X478559761Y-46814809D01*
X478464523Y-46719571D01*
X478369285Y-46671952D01*
X478178809Y-46624333D01*
X478035952Y-46624333D01*
X477845476Y-46671952D01*
X477750238Y-46719571D01*
X477655000Y-46814809D01*
X477607380Y-46957666D01*
X477607380Y-47052904D01*
X477655000Y-47195761D01*
X477702619Y-47243380D01*
D10*
X448868800Y-36271200D02*
X456895200Y-36271200D01*
X448868800Y-30276800D02*
X448868800Y-36271200D01*
X456844400Y-30276800D02*
X448868800Y-30276800D01*
X456895200Y-36271200D02*
X456844400Y-30276800D01*
D11*
X454310571Y-32479171D02*
X454643904Y-32479171D01*
X454643904Y-33002980D02*
X454643904Y-32002980D01*
X454167714Y-32002980D01*
X453643904Y-33002980D02*
X453739142Y-32955361D01*
X453786761Y-32860123D01*
X453786761Y-32002980D01*
X452834380Y-33002980D02*
X452834380Y-32479171D01*
X452882000Y-32383933D01*
X452977238Y-32336314D01*
X453167714Y-32336314D01*
X453262952Y-32383933D01*
X452834380Y-32955361D02*
X452929619Y-33002980D01*
X453167714Y-33002980D01*
X453262952Y-32955361D01*
X453310571Y-32860123D01*
X453310571Y-32764885D01*
X453262952Y-32669647D01*
X453167714Y-32622028D01*
X452929619Y-32622028D01*
X452834380Y-32574409D01*
X452405809Y-32955361D02*
X452310571Y-33002980D01*
X452120095Y-33002980D01*
X452024857Y-32955361D01*
X451977238Y-32860123D01*
X451977238Y-32812504D01*
X452024857Y-32717266D01*
X452120095Y-32669647D01*
X452262952Y-32669647D01*
X452358190Y-32622028D01*
X452405809Y-32526790D01*
X452405809Y-32479171D01*
X452358190Y-32383933D01*
X452262952Y-32336314D01*
X452120095Y-32336314D01*
X452024857Y-32383933D01*
X451548666Y-33002980D02*
X451548666Y-32002980D01*
X451120095Y-33002980D02*
X451120095Y-32479171D01*
X451167714Y-32383933D01*
X451262952Y-32336314D01*
X451405809Y-32336314D01*
X451501047Y-32383933D01*
X451548666Y-32431552D01*
X454382000Y-34605361D02*
X454239142Y-34652980D01*
X454001047Y-34652980D01*
X453905809Y-34605361D01*
X453858190Y-34557742D01*
X453810571Y-34462504D01*
X453810571Y-34367266D01*
X453858190Y-34272028D01*
X453905809Y-34224409D01*
X454001047Y-34176790D01*
X454191523Y-34129171D01*
X454286761Y-34081552D01*
X454334380Y-34033933D01*
X454382000Y-33938695D01*
X454382000Y-33843457D01*
X454334380Y-33748219D01*
X454286761Y-33700600D01*
X454191523Y-33652980D01*
X453953428Y-33652980D01*
X453810571Y-33700600D01*
X453382000Y-34652980D02*
X453382000Y-33652980D01*
X453001047Y-33652980D01*
X452905809Y-33700600D01*
X452858190Y-33748219D01*
X452810571Y-33843457D01*
X452810571Y-33986314D01*
X452858190Y-34081552D01*
X452905809Y-34129171D01*
X453001047Y-34176790D01*
X453382000Y-34176790D01*
X452382000Y-34652980D02*
X452382000Y-33652980D01*
X451953428Y-33748219D02*
X451905809Y-33700600D01*
X451810571Y-33652980D01*
X451572476Y-33652980D01*
X451477238Y-33700600D01*
X451429619Y-33748219D01*
X451382000Y-33843457D01*
X451382000Y-33938695D01*
X451429619Y-34081552D01*
X452001047Y-34652980D01*
X451382000Y-34652980D01*
X438714190Y-63181666D02*
X438714190Y-62481666D01*
X438523714Y-62481666D01*
X438409428Y-62515000D01*
X438333238Y-62581666D01*
X438295142Y-62648333D01*
X438257047Y-62781666D01*
X438257047Y-62881666D01*
X438295142Y-63015000D01*
X438333238Y-63081666D01*
X438409428Y-63148333D01*
X438523714Y-63181666D01*
X438714190Y-63181666D01*
X437914190Y-63181666D02*
X437914190Y-62715000D01*
X437914190Y-62481666D02*
X437952285Y-62515000D01*
X437914190Y-62548333D01*
X437876095Y-62515000D01*
X437914190Y-62481666D01*
X437914190Y-62548333D01*
X437571333Y-63148333D02*
X437495142Y-63181666D01*
X437342761Y-63181666D01*
X437266571Y-63148333D01*
X437228476Y-63081666D01*
X437228476Y-63048333D01*
X437266571Y-62981666D01*
X437342761Y-62948333D01*
X437457047Y-62948333D01*
X437533238Y-62915000D01*
X437571333Y-62848333D01*
X437571333Y-62815000D01*
X437533238Y-62748333D01*
X437457047Y-62715000D01*
X437342761Y-62715000D01*
X437266571Y-62748333D01*
X436885619Y-62715000D02*
X436885619Y-63415000D01*
X436885619Y-62748333D02*
X436809428Y-62715000D01*
X436657047Y-62715000D01*
X436580857Y-62748333D01*
X436542761Y-62781666D01*
X436504666Y-62848333D01*
X436504666Y-63048333D01*
X436542761Y-63115000D01*
X436580857Y-63148333D01*
X436657047Y-63181666D01*
X436809428Y-63181666D01*
X436885619Y-63148333D01*
X436047523Y-63181666D02*
X436123714Y-63148333D01*
X436161809Y-63081666D01*
X436161809Y-62481666D01*
X435399904Y-63181666D02*
X435399904Y-62815000D01*
X435438000Y-62748333D01*
X435514190Y-62715000D01*
X435666571Y-62715000D01*
X435742761Y-62748333D01*
X435399904Y-63148333D02*
X435476095Y-63181666D01*
X435666571Y-63181666D01*
X435742761Y-63148333D01*
X435780857Y-63081666D01*
X435780857Y-63015000D01*
X435742761Y-62948333D01*
X435666571Y-62915000D01*
X435476095Y-62915000D01*
X435399904Y-62881666D01*
X435095142Y-62715000D02*
X434904666Y-63181666D01*
X434714190Y-62715000D02*
X434904666Y-63181666D01*
X434980857Y-63348333D01*
X435018952Y-63381666D01*
X435095142Y-63415000D01*
X433838000Y-63148333D02*
X433723714Y-63181666D01*
X433533238Y-63181666D01*
X433457047Y-63148333D01*
X433418952Y-63115000D01*
X433380857Y-63048333D01*
X433380857Y-62981666D01*
X433418952Y-62915000D01*
X433457047Y-62881666D01*
X433533238Y-62848333D01*
X433685619Y-62815000D01*
X433761809Y-62781666D01*
X433799904Y-62748333D01*
X433838000Y-62681666D01*
X433838000Y-62615000D01*
X433799904Y-62548333D01*
X433761809Y-62515000D01*
X433685619Y-62481666D01*
X433495142Y-62481666D01*
X433380857Y-62515000D01*
X432733238Y-63148333D02*
X432809428Y-63181666D01*
X432961809Y-63181666D01*
X433038000Y-63148333D01*
X433076095Y-63081666D01*
X433076095Y-62815000D01*
X433038000Y-62748333D01*
X432961809Y-62715000D01*
X432809428Y-62715000D01*
X432733238Y-62748333D01*
X432695142Y-62815000D01*
X432695142Y-62881666D01*
X433076095Y-62948333D01*
X432238000Y-63181666D02*
X432314190Y-63148333D01*
X432352285Y-63081666D01*
X432352285Y-62481666D01*
X431628476Y-63148333D02*
X431704666Y-63181666D01*
X431857047Y-63181666D01*
X431933238Y-63148333D01*
X431971333Y-63081666D01*
X431971333Y-62815000D01*
X431933238Y-62748333D01*
X431857047Y-62715000D01*
X431704666Y-62715000D01*
X431628476Y-62748333D01*
X431590380Y-62815000D01*
X431590380Y-62881666D01*
X431971333Y-62948333D01*
X430904666Y-63148333D02*
X430980857Y-63181666D01*
X431133238Y-63181666D01*
X431209428Y-63148333D01*
X431247523Y-63115000D01*
X431285619Y-63048333D01*
X431285619Y-62848333D01*
X431247523Y-62781666D01*
X431209428Y-62748333D01*
X431133238Y-62715000D01*
X430980857Y-62715000D01*
X430904666Y-62748333D01*
X430676095Y-62715000D02*
X430371333Y-62715000D01*
X430561809Y-62481666D02*
X430561809Y-63081666D01*
X430523714Y-63148333D01*
X430447523Y-63181666D01*
X430371333Y-63181666D01*
X430104666Y-63181666D02*
X430104666Y-62715000D01*
X430104666Y-62481666D02*
X430142761Y-62515000D01*
X430104666Y-62548333D01*
X430066571Y-62515000D01*
X430104666Y-62481666D01*
X430104666Y-62548333D01*
X429609428Y-63181666D02*
X429685619Y-63148333D01*
X429723714Y-63115000D01*
X429761809Y-63048333D01*
X429761809Y-62848333D01*
X429723714Y-62781666D01*
X429685619Y-62748333D01*
X429609428Y-62715000D01*
X429495142Y-62715000D01*
X429418952Y-62748333D01*
X429380857Y-62781666D01*
X429342761Y-62848333D01*
X429342761Y-63048333D01*
X429380857Y-63115000D01*
X429418952Y-63148333D01*
X429495142Y-63181666D01*
X429609428Y-63181666D01*
X428999904Y-62715000D02*
X428999904Y-63181666D01*
X428999904Y-62781666D02*
X428961809Y-62748333D01*
X428885619Y-62715000D01*
X428771333Y-62715000D01*
X428695142Y-62748333D01*
X428657047Y-62815000D01*
X428657047Y-63181666D01*
X428276095Y-62915000D02*
X427666571Y-62915000D01*
X427323714Y-63148333D02*
X427209428Y-63181666D01*
X427018952Y-63181666D01*
X426942761Y-63148333D01*
X426904666Y-63115000D01*
X426866571Y-63048333D01*
X426866571Y-62981666D01*
X426904666Y-62915000D01*
X426942761Y-62881666D01*
X427018952Y-62848333D01*
X427171333Y-62815000D01*
X427247523Y-62781666D01*
X427285619Y-62748333D01*
X427323714Y-62681666D01*
X427323714Y-62615000D01*
X427285619Y-62548333D01*
X427247523Y-62515000D01*
X427171333Y-62481666D01*
X426980857Y-62481666D01*
X426866571Y-62515000D01*
X426523714Y-63181666D02*
X426523714Y-62481666D01*
X426218952Y-62481666D01*
X426142761Y-62515000D01*
X426104666Y-62548333D01*
X426066571Y-62615000D01*
X426066571Y-62715000D01*
X426104666Y-62781666D01*
X426142761Y-62815000D01*
X426218952Y-62848333D01*
X426523714Y-62848333D01*
X425723714Y-63181666D02*
X425723714Y-62481666D01*
X425418952Y-62481666D02*
X424923714Y-62481666D01*
X425190380Y-62748333D01*
X425076095Y-62748333D01*
X424999904Y-62781666D01*
X424961809Y-62815000D01*
X424923714Y-62881666D01*
X424923714Y-63048333D01*
X424961809Y-63115000D01*
X424999904Y-63148333D01*
X425076095Y-63181666D01*
X425304666Y-63181666D01*
X425380857Y-63148333D01*
X425418952Y-63115000D01*
X423971333Y-62715000D02*
X423361809Y-62915000D01*
X423971333Y-63115000D01*
D12*
X464210400Y-53241485D02*
X464115161Y-53336723D01*
X464210400Y-53431961D01*
X464305638Y-53336723D01*
X464210400Y-53241485D01*
X464210400Y-53431961D01*
D11*
X464218927Y-35920692D02*
X464151584Y-36055379D01*
X463983225Y-36223737D01*
X463882210Y-36257409D01*
X463814866Y-36257409D01*
X463713851Y-36223737D01*
X463646507Y-36156394D01*
X463612836Y-36055379D01*
X463612836Y-35988035D01*
X463646507Y-35887020D01*
X463747523Y-35718661D01*
X463781194Y-35617646D01*
X463781194Y-35550302D01*
X463747523Y-35449287D01*
X463680179Y-35381944D01*
X463579164Y-35348272D01*
X463511820Y-35348272D01*
X463410805Y-35381944D01*
X463242446Y-35550302D01*
X463175103Y-35684989D01*
X462939401Y-35853348D02*
X462535340Y-36257409D01*
X463444477Y-36762485D02*
X462737370Y-36055379D01*
X463006744Y-37200218D02*
X462299637Y-36493111D01*
X462569011Y-37233890D01*
X461828233Y-36964516D01*
X462535340Y-37671623D01*
X461558859Y-37233890D02*
X461121126Y-37671623D01*
X461626202Y-37705294D01*
X461525187Y-37806310D01*
X461491515Y-37907325D01*
X461491515Y-37974668D01*
X461525187Y-38075684D01*
X461693546Y-38244042D01*
X461794561Y-38277714D01*
X461861905Y-38277714D01*
X461962920Y-38244042D01*
X462164950Y-38042012D01*
X462198622Y-37940997D01*
X462198622Y-37873653D01*
X460919096Y-38008340D02*
X460851752Y-38008340D01*
X460750737Y-38042012D01*
X460582378Y-38210371D01*
X460548706Y-38311386D01*
X460548706Y-38378729D01*
X460582378Y-38479745D01*
X460649722Y-38547088D01*
X460784409Y-38614432D01*
X461592531Y-38614432D01*
X461154798Y-39052164D01*
X460245661Y-39220523D02*
X460481363Y-38984821D01*
X460851752Y-39355210D02*
X460144645Y-38648103D01*
X459807928Y-38984821D01*
X459471210Y-39792943D02*
X459942615Y-40264348D01*
X459370195Y-39355210D02*
X460043630Y-39691928D01*
X459605897Y-40129661D01*
X458730432Y-40062317D02*
X458663088Y-40129661D01*
X458629416Y-40230676D01*
X458629416Y-40298019D01*
X458663088Y-40399035D01*
X458764103Y-40567393D01*
X458932462Y-40735752D01*
X459100821Y-40836767D01*
X459201836Y-40870439D01*
X459269180Y-40870439D01*
X459370195Y-40836767D01*
X459437538Y-40769424D01*
X459471210Y-40668409D01*
X459471210Y-40601065D01*
X459437538Y-40500050D01*
X459336523Y-40331691D01*
X459168164Y-40163332D01*
X458999806Y-40062317D01*
X458898790Y-40028645D01*
X458831447Y-40028645D01*
X458730432Y-40062317D01*
X458259027Y-40533722D02*
X457787623Y-41005126D01*
X458797775Y-41409187D01*
X457619264Y-41173485D02*
X458090668Y-42116294D01*
X457147859Y-41644889D01*
X457248875Y-42217309D02*
X457013172Y-42453011D01*
X457282546Y-42924416D02*
X457619264Y-42587698D01*
X456912157Y-41880592D01*
X456575440Y-42217309D01*
X456373409Y-42419340D02*
X455969348Y-42823401D01*
X456878485Y-43328477D02*
X456171379Y-42621370D01*
X455430600Y-43362149D02*
X455565287Y-43227462D01*
X455666302Y-43193790D01*
X455733646Y-43193790D01*
X455902005Y-43227462D01*
X456070363Y-43328477D01*
X456339737Y-43597851D01*
X456373409Y-43698866D01*
X456373409Y-43766210D01*
X456339737Y-43867225D01*
X456205050Y-44001912D01*
X456104035Y-44035584D01*
X456036692Y-44035584D01*
X455935676Y-44001912D01*
X455767318Y-43833553D01*
X455733646Y-43732538D01*
X455733646Y-43665194D01*
X455767318Y-43564179D01*
X455902005Y-43429492D01*
X456003020Y-43395820D01*
X456070363Y-43395820D01*
X456171379Y-43429492D01*
D10*
X452170800Y-44145200D02*
X452374000Y-43942000D01*
X455980800Y-48006000D02*
X452170800Y-44196000D01*
X462584800Y-54610000D02*
X460349600Y-52374800D01*
X468934800Y-50850800D02*
X466191600Y-53441600D01*
X475691200Y-44196000D02*
X469950800Y-49936400D01*
X463854800Y-32664400D02*
X475691200Y-44196000D01*
X452374000Y-43942000D02*
X463854800Y-32664400D01*
X486359200Y-34442400D02*
X481584000Y-34442400D01*
X486359200Y-39471600D02*
X481584000Y-39471600D01*
X486359200Y-59690000D02*
X481584000Y-59690000D01*
D13*
X463201057Y-49492371D02*
X463201057Y-47992371D01*
X462629628Y-47992371D01*
X462486771Y-48063800D01*
X462415342Y-48135228D01*
X462343914Y-48278085D01*
X462343914Y-48492371D01*
X462415342Y-48635228D01*
X462486771Y-48706657D01*
X462629628Y-48778085D01*
X463201057Y-48778085D01*
X461486771Y-49492371D02*
X461629628Y-49420942D01*
X461701057Y-49349514D01*
X461772485Y-49206657D01*
X461772485Y-48778085D01*
X461701057Y-48635228D01*
X461629628Y-48563800D01*
X461486771Y-48492371D01*
X461272485Y-48492371D01*
X461129628Y-48563800D01*
X461058200Y-48635228D01*
X460986771Y-48778085D01*
X460986771Y-49206657D01*
X461058200Y-49349514D01*
X461129628Y-49420942D01*
X461272485Y-49492371D01*
X461486771Y-49492371D01*
X460129628Y-49492371D02*
X460272485Y-49420942D01*
X460343914Y-49278085D01*
X460343914Y-47992371D01*
X459701057Y-48492371D02*
X459343914Y-49492371D01*
X458986771Y-48492371D02*
X459343914Y-49492371D01*
X459486771Y-49849514D01*
X459558200Y-49920942D01*
X459701057Y-49992371D01*
X457272485Y-49492371D02*
X457272485Y-47992371D01*
X456415342Y-49492371D02*
X457058200Y-48635228D01*
X456415342Y-47992371D02*
X457272485Y-48849514D01*
X455201057Y-49420942D02*
X455343914Y-49492371D01*
X455629628Y-49492371D01*
X455772485Y-49420942D01*
X455843914Y-49278085D01*
X455843914Y-48706657D01*
X455772485Y-48563800D01*
X455629628Y-48492371D01*
X455343914Y-48492371D01*
X455201057Y-48563800D01*
X455129628Y-48706657D01*
X455129628Y-48849514D01*
X455843914Y-48992371D01*
X454629628Y-48492371D02*
X454272485Y-49492371D01*
X453915342Y-48492371D02*
X454272485Y-49492371D01*
X454415342Y-49849514D01*
X454486771Y-49920942D01*
X454629628Y-49992371D01*
X453343914Y-49492371D02*
X453343914Y-47992371D01*
X453343914Y-48563800D02*
X453201057Y-48492371D01*
X452915342Y-48492371D01*
X452772485Y-48563800D01*
X452701057Y-48635228D01*
X452629628Y-48778085D01*
X452629628Y-49206657D01*
X452701057Y-49349514D01*
X452772485Y-49420942D01*
X452915342Y-49492371D01*
X453201057Y-49492371D01*
X453343914Y-49420942D01*
X451772485Y-49492371D02*
X451915342Y-49420942D01*
X451986771Y-49349514D01*
X452058200Y-49206657D01*
X452058200Y-48778085D01*
X451986771Y-48635228D01*
X451915342Y-48563800D01*
X451772485Y-48492371D01*
X451558200Y-48492371D01*
X451415342Y-48563800D01*
X451343914Y-48635228D01*
X451272485Y-48778085D01*
X451272485Y-49206657D01*
X451343914Y-49349514D01*
X451415342Y-49420942D01*
X451558200Y-49492371D01*
X451772485Y-49492371D01*
X449986771Y-49492371D02*
X449986771Y-48706657D01*
X450058200Y-48563800D01*
X450201057Y-48492371D01*
X450486771Y-48492371D01*
X450629628Y-48563800D01*
X449986771Y-49420942D02*
X450129628Y-49492371D01*
X450486771Y-49492371D01*
X450629628Y-49420942D01*
X450701057Y-49278085D01*
X450701057Y-49135228D01*
X450629628Y-48992371D01*
X450486771Y-48920942D01*
X450129628Y-48920942D01*
X449986771Y-48849514D01*
X449272485Y-49492371D02*
X449272485Y-48492371D01*
X449272485Y-48778085D02*
X449201057Y-48635228D01*
X449129628Y-48563800D01*
X448986771Y-48492371D01*
X448843914Y-48492371D01*
X447701057Y-49492371D02*
X447701057Y-47992371D01*
X447701057Y-49420942D02*
X447843914Y-49492371D01*
X448129628Y-49492371D01*
X448272485Y-49420942D01*
X448343914Y-49349514D01*
X448415342Y-49206657D01*
X448415342Y-48778085D01*
X448343914Y-48635228D01*
X448272485Y-48563800D01*
X448129628Y-48492371D01*
X447843914Y-48492371D01*
X447701057Y-48563800D01*
X463201057Y-52042371D02*
X463201057Y-50542371D01*
X462701057Y-51613800D01*
X462201057Y-50542371D01*
X462201057Y-52042371D01*
X460843914Y-52042371D02*
X460843914Y-51256657D01*
X460915342Y-51113800D01*
X461058200Y-51042371D01*
X461343914Y-51042371D01*
X461486771Y-51113800D01*
X460843914Y-51970942D02*
X460986771Y-52042371D01*
X461343914Y-52042371D01*
X461486771Y-51970942D01*
X461558200Y-51828085D01*
X461558200Y-51685228D01*
X461486771Y-51542371D01*
X461343914Y-51470942D01*
X460986771Y-51470942D01*
X460843914Y-51399514D01*
X460129628Y-52042371D02*
X460129628Y-51042371D01*
X460129628Y-50542371D02*
X460201057Y-50613800D01*
X460129628Y-50685228D01*
X460058200Y-50613800D01*
X460129628Y-50542371D01*
X460129628Y-50685228D01*
X459415342Y-51042371D02*
X459415342Y-52042371D01*
X459415342Y-51185228D02*
X459343914Y-51113800D01*
X459201057Y-51042371D01*
X458986771Y-51042371D01*
X458843914Y-51113800D01*
X458772485Y-51256657D01*
X458772485Y-52042371D01*
X458058200Y-52042371D02*
X458058200Y-50542371D01*
X458058200Y-51113800D02*
X457915342Y-51042371D01*
X457629628Y-51042371D01*
X457486771Y-51113800D01*
X457415342Y-51185228D01*
X457343914Y-51328085D01*
X457343914Y-51756657D01*
X457415342Y-51899514D01*
X457486771Y-51970942D01*
X457629628Y-52042371D01*
X457915342Y-52042371D01*
X458058200Y-51970942D01*
X456486771Y-52042371D02*
X456629628Y-51970942D01*
X456701057Y-51899514D01*
X456772485Y-51756657D01*
X456772485Y-51328085D01*
X456701057Y-51185228D01*
X456629628Y-51113800D01*
X456486771Y-51042371D01*
X456272485Y-51042371D01*
X456129628Y-51113800D01*
X456058200Y-51185228D01*
X455986771Y-51328085D01*
X455986771Y-51756657D01*
X456058200Y-51899514D01*
X456129628Y-51970942D01*
X456272485Y-52042371D01*
X456486771Y-52042371D01*
X454701057Y-52042371D02*
X454701057Y-51256657D01*
X454772485Y-51113800D01*
X454915342Y-51042371D01*
X455201057Y-51042371D01*
X455343914Y-51113800D01*
X454701057Y-51970942D02*
X454843914Y-52042371D01*
X455201057Y-52042371D01*
X455343914Y-51970942D01*
X455415342Y-51828085D01*
X455415342Y-51685228D01*
X455343914Y-51542371D01*
X455201057Y-51470942D01*
X454843914Y-51470942D01*
X454701057Y-51399514D01*
X453986771Y-52042371D02*
X453986771Y-51042371D01*
X453986771Y-51328085D02*
X453915342Y-51185228D01*
X453843914Y-51113800D01*
X453701057Y-51042371D01*
X453558200Y-51042371D01*
X452415342Y-52042371D02*
X452415342Y-50542371D01*
X452415342Y-51970942D02*
X452558200Y-52042371D01*
X452843914Y-52042371D01*
X452986771Y-51970942D01*
X453058200Y-51899514D01*
X453129628Y-51756657D01*
X453129628Y-51328085D01*
X453058200Y-51185228D01*
X452986771Y-51113800D01*
X452843914Y-51042371D01*
X452558200Y-51042371D01*
X452415342Y-51113800D01*
X449701057Y-52042371D02*
X450201057Y-51328085D01*
X450558200Y-52042371D02*
X450558200Y-50542371D01*
X449986771Y-50542371D01*
X449843914Y-50613800D01*
X449772485Y-50685228D01*
X449701057Y-50828085D01*
X449701057Y-51042371D01*
X449772485Y-51185228D01*
X449843914Y-51256657D01*
X449986771Y-51328085D01*
X450558200Y-51328085D01*
X448486771Y-51970942D02*
X448629628Y-52042371D01*
X448915342Y-52042371D01*
X449058200Y-51970942D01*
X449129628Y-51828085D01*
X449129628Y-51256657D01*
X449058200Y-51113800D01*
X448915342Y-51042371D01*
X448629628Y-51042371D01*
X448486771Y-51113800D01*
X448415342Y-51256657D01*
X448415342Y-51399514D01*
X449129628Y-51542371D01*
X447915342Y-51042371D02*
X447558200Y-52042371D01*
X447201057Y-51042371D01*
X445843914Y-52042371D02*
X446701057Y-52042371D01*
X446272485Y-52042371D02*
X446272485Y-50542371D01*
X446415342Y-50756657D01*
X446558200Y-50899514D01*
X446701057Y-50970942D01*
X445201057Y-51899514D02*
X445129628Y-51970942D01*
X445201057Y-52042371D01*
X445272485Y-51970942D01*
X445201057Y-51899514D01*
X445201057Y-52042371D01*
X444201057Y-50542371D02*
X444058200Y-50542371D01*
X443915342Y-50613800D01*
X443843914Y-50685228D01*
X443772485Y-50828085D01*
X443701057Y-51113800D01*
X443701057Y-51470942D01*
X443772485Y-51756657D01*
X443843914Y-51899514D01*
X443915342Y-51970942D01*
X444058200Y-52042371D01*
X444201057Y-52042371D01*
X444343914Y-51970942D01*
X444415342Y-51899514D01*
X444486771Y-51756657D01*
X444558200Y-51470942D01*
X444558200Y-51113800D01*
X444486771Y-50828085D01*
X444415342Y-50685228D01*
X444343914Y-50613800D01*
X444201057Y-50542371D01*
D10*
X457977910Y-29005125D02*
G75*
G02*
X457962000Y-28702000I2879690J303125D01*
G01*
X487625358Y-30122126D02*
G75*
G02*
X486968800Y-30886400I-2485358J1470926D01*
G01*
X486101068Y-31382655D02*
G75*
G02*
X482244400Y-28651200I-961068J2731455D01*
G01*
X463735320Y-28702000D02*
G75*
G02*
X458165200Y-29718000I-2877720J0D01*
G01*
X435559200Y-28600400D02*
G75*
G02*
X429768000Y-28600400I-2895600J0D01*
G01*
X486359200Y-31800800D02*
X483870000Y-31800800D01*
X486359200Y-41452800D02*
X486359200Y-31800800D01*
X486410000Y-51612800D02*
X486359200Y-42265600D01*
X486410000Y-62230000D02*
X486410000Y-52374800D01*
X483920800Y-62230000D02*
X486410000Y-62230000D01*
X483870000Y-31800800D02*
X483920800Y-62230000D01*
D11*
X479343980Y-29902304D02*
X478867790Y-29568971D01*
X479343980Y-29330876D02*
X478343980Y-29330876D01*
X478343980Y-29711828D01*
X478391600Y-29807066D01*
X478439219Y-29854685D01*
X478534457Y-29902304D01*
X478677314Y-29902304D01*
X478772552Y-29854685D01*
X478820171Y-29807066D01*
X478867790Y-29711828D01*
X478867790Y-29330876D01*
X479296361Y-30711828D02*
X479343980Y-30616590D01*
X479343980Y-30426114D01*
X479296361Y-30330876D01*
X479201123Y-30283257D01*
X478820171Y-30283257D01*
X478724933Y-30330876D01*
X478677314Y-30426114D01*
X478677314Y-30616590D01*
X478724933Y-30711828D01*
X478820171Y-30759447D01*
X478915409Y-30759447D01*
X479010647Y-30283257D01*
X479296361Y-31140400D02*
X479343980Y-31235638D01*
X479343980Y-31426114D01*
X479296361Y-31521352D01*
X479201123Y-31568971D01*
X479153504Y-31568971D01*
X479058266Y-31521352D01*
X479010647Y-31426114D01*
X479010647Y-31283257D01*
X478963028Y-31188019D01*
X478867790Y-31140400D01*
X478820171Y-31140400D01*
X478724933Y-31188019D01*
X478677314Y-31283257D01*
X478677314Y-31426114D01*
X478724933Y-31521352D01*
X479296361Y-32378495D02*
X479343980Y-32283257D01*
X479343980Y-32092780D01*
X479296361Y-31997542D01*
X479201123Y-31949923D01*
X478820171Y-31949923D01*
X478724933Y-31997542D01*
X478677314Y-32092780D01*
X478677314Y-32283257D01*
X478724933Y-32378495D01*
X478820171Y-32426114D01*
X478915409Y-32426114D01*
X479010647Y-31949923D01*
X478677314Y-32711828D02*
X478677314Y-33092780D01*
X478343980Y-32854685D02*
X479201123Y-32854685D01*
X479296361Y-32902304D01*
X479343980Y-32997542D01*
X479343980Y-33092780D01*
X467034571Y-29799161D02*
X467082190Y-29942019D01*
X467129809Y-29989638D01*
X467225047Y-30037257D01*
X467367904Y-30037257D01*
X467463142Y-29989638D01*
X467510761Y-29942019D01*
X467558380Y-29846780D01*
X467558380Y-29465828D01*
X466558380Y-29465828D01*
X466558380Y-29799161D01*
X466606000Y-29894400D01*
X466653619Y-29942019D01*
X466748857Y-29989638D01*
X466844095Y-29989638D01*
X466939333Y-29942019D01*
X466986952Y-29894400D01*
X467034571Y-29799161D01*
X467034571Y-29465828D01*
X467558380Y-30608685D02*
X467510761Y-30513447D01*
X467463142Y-30465828D01*
X467367904Y-30418209D01*
X467082190Y-30418209D01*
X466986952Y-30465828D01*
X466939333Y-30513447D01*
X466891714Y-30608685D01*
X466891714Y-30751542D01*
X466939333Y-30846780D01*
X466986952Y-30894400D01*
X467082190Y-30942019D01*
X467367904Y-30942019D01*
X467463142Y-30894400D01*
X467510761Y-30846780D01*
X467558380Y-30751542D01*
X467558380Y-30608685D01*
X467558380Y-31513447D02*
X467510761Y-31418209D01*
X467463142Y-31370590D01*
X467367904Y-31322971D01*
X467082190Y-31322971D01*
X466986952Y-31370590D01*
X466939333Y-31418209D01*
X466891714Y-31513447D01*
X466891714Y-31656304D01*
X466939333Y-31751542D01*
X466986952Y-31799161D01*
X467082190Y-31846780D01*
X467367904Y-31846780D01*
X467463142Y-31799161D01*
X467510761Y-31751542D01*
X467558380Y-31656304D01*
X467558380Y-31513447D01*
X466891714Y-32132495D02*
X466891714Y-32513447D01*
X466558380Y-32275352D02*
X467415523Y-32275352D01*
X467510761Y-32322971D01*
X467558380Y-32418209D01*
X467558380Y-32513447D01*
X467558380Y-33370590D02*
X467558380Y-32799161D01*
X467558380Y-33084876D02*
X466558380Y-33084876D01*
X466701238Y-32989638D01*
X466796476Y-32894400D01*
X466844095Y-32799161D01*
X472012971Y-29748361D02*
X472060590Y-29891219D01*
X472108209Y-29938838D01*
X472203447Y-29986457D01*
X472346304Y-29986457D01*
X472441542Y-29938838D01*
X472489161Y-29891219D01*
X472536780Y-29795980D01*
X472536780Y-29415028D01*
X471536780Y-29415028D01*
X471536780Y-29748361D01*
X471584400Y-29843600D01*
X471632019Y-29891219D01*
X471727257Y-29938838D01*
X471822495Y-29938838D01*
X471917733Y-29891219D01*
X471965352Y-29843600D01*
X472012971Y-29748361D01*
X472012971Y-29415028D01*
X472536780Y-30557885D02*
X472489161Y-30462647D01*
X472441542Y-30415028D01*
X472346304Y-30367409D01*
X472060590Y-30367409D01*
X471965352Y-30415028D01*
X471917733Y-30462647D01*
X471870114Y-30557885D01*
X471870114Y-30700742D01*
X471917733Y-30795980D01*
X471965352Y-30843600D01*
X472060590Y-30891219D01*
X472346304Y-30891219D01*
X472441542Y-30843600D01*
X472489161Y-30795980D01*
X472536780Y-30700742D01*
X472536780Y-30557885D01*
X472536780Y-31462647D02*
X472489161Y-31367409D01*
X472441542Y-31319790D01*
X472346304Y-31272171D01*
X472060590Y-31272171D01*
X471965352Y-31319790D01*
X471917733Y-31367409D01*
X471870114Y-31462647D01*
X471870114Y-31605504D01*
X471917733Y-31700742D01*
X471965352Y-31748361D01*
X472060590Y-31795980D01*
X472346304Y-31795980D01*
X472441542Y-31748361D01*
X472489161Y-31700742D01*
X472536780Y-31605504D01*
X472536780Y-31462647D01*
X471870114Y-32081695D02*
X471870114Y-32462647D01*
X471536780Y-32224552D02*
X472393923Y-32224552D01*
X472489161Y-32272171D01*
X472536780Y-32367409D01*
X472536780Y-32462647D01*
X471536780Y-32986457D02*
X471536780Y-33081695D01*
X471584400Y-33176933D01*
X471632019Y-33224552D01*
X471727257Y-33272171D01*
X471917733Y-33319790D01*
X472155828Y-33319790D01*
X472346304Y-33272171D01*
X472441542Y-33224552D01*
X472489161Y-33176933D01*
X472536780Y-33081695D01*
X472536780Y-32986457D01*
X472489161Y-32891219D01*
X472441542Y-32843600D01*
X472346304Y-32795980D01*
X472155828Y-32748361D01*
X471917733Y-32748361D01*
X471727257Y-32795980D01*
X471632019Y-32843600D01*
X471584400Y-32891219D01*
X471536780Y-32986457D01*
X486327295Y-30322780D02*
X486660628Y-29846590D01*
X486898723Y-30322780D02*
X486898723Y-29322780D01*
X486517771Y-29322780D01*
X486422533Y-29370400D01*
X486374914Y-29418019D01*
X486327295Y-29513257D01*
X486327295Y-29656114D01*
X486374914Y-29751352D01*
X486422533Y-29798971D01*
X486517771Y-29846590D01*
X486898723Y-29846590D01*
X485517771Y-30275161D02*
X485613009Y-30322780D01*
X485803485Y-30322780D01*
X485898723Y-30275161D01*
X485946342Y-30179923D01*
X485946342Y-29798971D01*
X485898723Y-29703733D01*
X485803485Y-29656114D01*
X485613009Y-29656114D01*
X485517771Y-29703733D01*
X485470152Y-29798971D01*
X485470152Y-29894209D01*
X485946342Y-29989447D01*
X485089200Y-30275161D02*
X484993961Y-30322780D01*
X484803485Y-30322780D01*
X484708247Y-30275161D01*
X484660628Y-30179923D01*
X484660628Y-30132304D01*
X484708247Y-30037066D01*
X484803485Y-29989447D01*
X484946342Y-29989447D01*
X485041580Y-29941828D01*
X485089200Y-29846590D01*
X485089200Y-29798971D01*
X485041580Y-29703733D01*
X484946342Y-29656114D01*
X484803485Y-29656114D01*
X484708247Y-29703733D01*
X483851104Y-30275161D02*
X483946342Y-30322780D01*
X484136819Y-30322780D01*
X484232057Y-30275161D01*
X484279676Y-30179923D01*
X484279676Y-29798971D01*
X484232057Y-29703733D01*
X484136819Y-29656114D01*
X483946342Y-29656114D01*
X483851104Y-29703733D01*
X483803485Y-29798971D01*
X483803485Y-29894209D01*
X484279676Y-29989447D01*
X483517771Y-29656114D02*
X483136819Y-29656114D01*
X483374914Y-29322780D02*
X483374914Y-30179923D01*
X483327295Y-30275161D01*
X483232057Y-30322780D01*
X483136819Y-30322780D01*
X463024266Y-30224361D02*
X462881409Y-30271980D01*
X462643314Y-30271980D01*
X462548076Y-30224361D01*
X462500457Y-30176742D01*
X462452838Y-30081504D01*
X462452838Y-29986266D01*
X462500457Y-29891028D01*
X462548076Y-29843409D01*
X462643314Y-29795790D01*
X462833790Y-29748171D01*
X462929028Y-29700552D01*
X462976647Y-29652933D01*
X463024266Y-29557695D01*
X463024266Y-29462457D01*
X462976647Y-29367219D01*
X462929028Y-29319600D01*
X462833790Y-29271980D01*
X462595695Y-29271980D01*
X462452838Y-29319600D01*
X462167123Y-29605314D02*
X461786171Y-29605314D01*
X462024266Y-29271980D02*
X462024266Y-30129123D01*
X461976647Y-30224361D01*
X461881409Y-30271980D01*
X461786171Y-30271980D01*
X461024266Y-30271980D02*
X461024266Y-29748171D01*
X461071885Y-29652933D01*
X461167123Y-29605314D01*
X461357600Y-29605314D01*
X461452838Y-29652933D01*
X461024266Y-30224361D02*
X461119504Y-30271980D01*
X461357600Y-30271980D01*
X461452838Y-30224361D01*
X461500457Y-30129123D01*
X461500457Y-30033885D01*
X461452838Y-29938647D01*
X461357600Y-29891028D01*
X461119504Y-29891028D01*
X461024266Y-29843409D01*
X460690933Y-29605314D02*
X460309980Y-29605314D01*
X460548076Y-29271980D02*
X460548076Y-30129123D01*
X460500457Y-30224361D01*
X460405219Y-30271980D01*
X460309980Y-30271980D01*
X459548076Y-29605314D02*
X459548076Y-30271980D01*
X459976647Y-29605314D02*
X459976647Y-30129123D01*
X459929028Y-30224361D01*
X459833790Y-30271980D01*
X459690933Y-30271980D01*
X459595695Y-30224361D01*
X459548076Y-30176742D01*
X459119504Y-30224361D02*
X459024266Y-30271980D01*
X458833790Y-30271980D01*
X458738552Y-30224361D01*
X458690933Y-30129123D01*
X458690933Y-30081504D01*
X458738552Y-29986266D01*
X458833790Y-29938647D01*
X458976647Y-29938647D01*
X459071885Y-29891028D01*
X459119504Y-29795790D01*
X459119504Y-29748171D01*
X459071885Y-29652933D01*
X458976647Y-29605314D01*
X458833790Y-29605314D01*
X458738552Y-29652933D01*
X434538190Y-30221180D02*
X434538190Y-29221180D01*
X434157238Y-29221180D01*
X434062000Y-29268800D01*
X434014380Y-29316419D01*
X433966761Y-29411657D01*
X433966761Y-29554514D01*
X434014380Y-29649752D01*
X434062000Y-29697371D01*
X434157238Y-29744990D01*
X434538190Y-29744990D01*
X433395333Y-30221180D02*
X433490571Y-30173561D01*
X433538190Y-30125942D01*
X433585809Y-30030704D01*
X433585809Y-29744990D01*
X433538190Y-29649752D01*
X433490571Y-29602133D01*
X433395333Y-29554514D01*
X433252476Y-29554514D01*
X433157238Y-29602133D01*
X433109619Y-29649752D01*
X433062000Y-29744990D01*
X433062000Y-30030704D01*
X433109619Y-30125942D01*
X433157238Y-30173561D01*
X433252476Y-30221180D01*
X433395333Y-30221180D01*
X432728666Y-29554514D02*
X432538190Y-30221180D01*
X432347714Y-29744990D01*
X432157238Y-30221180D01*
X431966761Y-29554514D01*
X431204857Y-30173561D02*
X431300095Y-30221180D01*
X431490571Y-30221180D01*
X431585809Y-30173561D01*
X431633428Y-30078323D01*
X431633428Y-29697371D01*
X431585809Y-29602133D01*
X431490571Y-29554514D01*
X431300095Y-29554514D01*
X431204857Y-29602133D01*
X431157238Y-29697371D01*
X431157238Y-29792609D01*
X431633428Y-29887847D01*
X430728666Y-30221180D02*
X430728666Y-29554514D01*
X430728666Y-29744990D02*
X430681047Y-29649752D01*
X430633428Y-29602133D01*
X430538190Y-29554514D01*
X430442952Y-29554514D01*
X443020152Y-30541980D02*
X443020152Y-31351504D01*
X442972533Y-31446742D01*
X442924914Y-31494361D01*
X442829676Y-31541980D01*
X442639200Y-31541980D01*
X442543961Y-31494361D01*
X442496342Y-31446742D01*
X442448723Y-31351504D01*
X442448723Y-30541980D01*
X442020152Y-31494361D02*
X441877295Y-31541980D01*
X441639200Y-31541980D01*
X441543961Y-31494361D01*
X441496342Y-31446742D01*
X441448723Y-31351504D01*
X441448723Y-31256266D01*
X441496342Y-31161028D01*
X441543961Y-31113409D01*
X441639200Y-31065790D01*
X441829676Y-31018171D01*
X441924914Y-30970552D01*
X441972533Y-30922933D01*
X442020152Y-30827695D01*
X442020152Y-30732457D01*
X441972533Y-30637219D01*
X441924914Y-30589600D01*
X441829676Y-30541980D01*
X441591580Y-30541980D01*
X441448723Y-30589600D01*
X440686819Y-31018171D02*
X440543961Y-31065790D01*
X440496342Y-31113409D01*
X440448723Y-31208647D01*
X440448723Y-31351504D01*
X440496342Y-31446742D01*
X440543961Y-31494361D01*
X440639200Y-31541980D01*
X441020152Y-31541980D01*
X441020152Y-30541980D01*
X440686819Y-30541980D01*
X440591580Y-30589600D01*
X440543961Y-30637219D01*
X440496342Y-30732457D01*
X440496342Y-30827695D01*
X440543961Y-30922933D01*
X440591580Y-30970552D01*
X440686819Y-31018171D01*
X441020152Y-31018171D01*
X440020152Y-31161028D02*
X439258247Y-31161028D01*
X438210628Y-31446742D02*
X438258247Y-31494361D01*
X438401104Y-31541980D01*
X438496342Y-31541980D01*
X438639200Y-31494361D01*
X438734438Y-31399123D01*
X438782057Y-31303885D01*
X438829676Y-31113409D01*
X438829676Y-30970552D01*
X438782057Y-30780076D01*
X438734438Y-30684838D01*
X438639200Y-30589600D01*
X438496342Y-30541980D01*
X438401104Y-30541980D01*
X438258247Y-30589600D01*
X438210628Y-30637219D01*
X480161977Y-53670407D02*
X479926275Y-53906109D01*
X480195649Y-54377513D02*
X480532366Y-54040796D01*
X479825260Y-53333689D01*
X479488542Y-53670407D01*
X479892603Y-54613216D02*
X479825260Y-54747903D01*
X479656901Y-54916261D01*
X479555886Y-54949933D01*
X479488542Y-54949933D01*
X479387527Y-54916261D01*
X479320183Y-54848918D01*
X479286512Y-54747903D01*
X479286512Y-54680559D01*
X479320183Y-54579544D01*
X479421199Y-54411185D01*
X479454870Y-54310170D01*
X479454870Y-54242826D01*
X479421199Y-54141811D01*
X479353855Y-54074468D01*
X479252840Y-54040796D01*
X479185496Y-54040796D01*
X479084481Y-54074468D01*
X478916122Y-54242826D01*
X478848779Y-54377513D01*
X479219168Y-55353994D02*
X478512061Y-54646887D01*
X478242687Y-54916261D01*
X478209016Y-55017277D01*
X478209016Y-55084620D01*
X478242687Y-55185635D01*
X478343703Y-55286651D01*
X478444718Y-55320322D01*
X478512061Y-55320322D01*
X478613077Y-55286651D01*
X478882451Y-55017277D01*
X478747764Y-55960086D02*
X478209016Y-56498834D01*
X477131520Y-56027429D02*
X477064176Y-56094773D01*
X477030504Y-56195788D01*
X477030504Y-56263131D01*
X477064176Y-56364147D01*
X477165191Y-56532505D01*
X477333550Y-56700864D01*
X477501909Y-56801879D01*
X477602924Y-56835551D01*
X477670268Y-56835551D01*
X477771283Y-56801879D01*
X477838626Y-56734536D01*
X477872298Y-56633521D01*
X477872298Y-56566177D01*
X477838626Y-56465162D01*
X477737611Y-56296803D01*
X477569252Y-56128444D01*
X477400894Y-56027429D01*
X477299878Y-55993757D01*
X477232535Y-55993757D01*
X477131520Y-56027429D01*
X477774377Y-53518007D02*
X477538675Y-53753709D01*
X477808049Y-54225113D02*
X478144766Y-53888396D01*
X477437660Y-53181289D01*
X477100942Y-53518007D01*
X477505003Y-54460816D02*
X477437660Y-54595503D01*
X477269301Y-54763861D01*
X477168286Y-54797533D01*
X477100942Y-54797533D01*
X476999927Y-54763861D01*
X476932583Y-54696518D01*
X476898912Y-54595503D01*
X476898912Y-54528159D01*
X476932583Y-54427144D01*
X477033599Y-54258785D01*
X477067270Y-54157770D01*
X477067270Y-54090426D01*
X477033599Y-53989411D01*
X476966255Y-53922068D01*
X476865240Y-53888396D01*
X476797896Y-53888396D01*
X476696881Y-53922068D01*
X476528522Y-54090426D01*
X476461179Y-54225113D01*
X476831568Y-55201594D02*
X476124461Y-54494487D01*
X475855087Y-54763861D01*
X475821416Y-54864877D01*
X475821416Y-54932220D01*
X475855087Y-55033235D01*
X475956103Y-55134251D01*
X476057118Y-55167922D01*
X476124461Y-55167922D01*
X476225477Y-55134251D01*
X476494851Y-54864877D01*
X476360164Y-55807686D02*
X475821416Y-56346434D01*
X474979622Y-55774014D02*
X474912278Y-55774014D01*
X474811263Y-55807686D01*
X474642904Y-55976044D01*
X474609233Y-56077060D01*
X474609233Y-56144403D01*
X474642904Y-56245418D01*
X474710248Y-56312762D01*
X474844935Y-56380105D01*
X475653057Y-56380105D01*
X475215324Y-56817838D01*
X481135656Y-62600389D02*
X480883118Y-61910118D01*
X481573389Y-62162656D01*
X477916904Y-62104571D02*
X478155000Y-61704571D01*
X478393095Y-62104571D01*
X474106904Y-62104571D02*
X474345000Y-61704571D01*
X474583095Y-62104571D01*
X483246904Y-62405466D02*
X482751666Y-62405466D01*
X483018333Y-62672133D01*
X482904047Y-62672133D01*
X482827857Y-62705466D01*
X482789761Y-62738800D01*
X482751666Y-62805466D01*
X482751666Y-62972133D01*
X482789761Y-63038800D01*
X482827857Y-63072133D01*
X482904047Y-63105466D01*
X483132619Y-63105466D01*
X483208809Y-63072133D01*
X483246904Y-63038800D01*
X482523095Y-62405466D02*
X482256428Y-63105466D01*
X481989761Y-62405466D01*
X481799285Y-62405466D02*
X481304047Y-62405466D01*
X481570714Y-62672133D01*
X481456428Y-62672133D01*
X481380238Y-62705466D01*
X481342142Y-62738800D01*
X481304047Y-62805466D01*
X481304047Y-62972133D01*
X481342142Y-63038800D01*
X481380238Y-63072133D01*
X481456428Y-63105466D01*
X481685000Y-63105466D01*
X481761190Y-63072133D01*
X481799285Y-63038800D01*
X480351666Y-62738800D02*
X480085000Y-62738800D01*
X479970714Y-63105466D02*
X480351666Y-63105466D01*
X480351666Y-62405466D01*
X479970714Y-62405466D01*
X479665952Y-63072133D02*
X479551666Y-63105466D01*
X479361190Y-63105466D01*
X479285000Y-63072133D01*
X479246904Y-63038800D01*
X479208809Y-62972133D01*
X479208809Y-62905466D01*
X479246904Y-62838800D01*
X479285000Y-62805466D01*
X479361190Y-62772133D01*
X479513571Y-62738800D01*
X479589761Y-62705466D01*
X479627857Y-62672133D01*
X479665952Y-62605466D01*
X479665952Y-62538800D01*
X479627857Y-62472133D01*
X479589761Y-62438800D01*
X479513571Y-62405466D01*
X479323095Y-62405466D01*
X479208809Y-62438800D01*
X478865952Y-63105466D02*
X478865952Y-62405466D01*
X478561190Y-62405466D01*
X478485000Y-62438800D01*
X478446904Y-62472133D01*
X478408809Y-62538800D01*
X478408809Y-62638800D01*
X478446904Y-62705466D01*
X478485000Y-62738800D01*
X478561190Y-62772133D01*
X478865952Y-62772133D01*
X478256428Y-63172133D02*
X477646904Y-63172133D01*
X476999285Y-63105466D02*
X477265952Y-62772133D01*
X477456428Y-63105466D02*
X477456428Y-62405466D01*
X477151666Y-62405466D01*
X477075476Y-62438800D01*
X477037380Y-62472133D01*
X476999285Y-62538800D01*
X476999285Y-62638800D01*
X477037380Y-62705466D01*
X477075476Y-62738800D01*
X477151666Y-62772133D01*
X477456428Y-62772133D01*
X476694523Y-63072133D02*
X476580238Y-63105466D01*
X476389761Y-63105466D01*
X476313571Y-63072133D01*
X476275476Y-63038800D01*
X476237380Y-62972133D01*
X476237380Y-62905466D01*
X476275476Y-62838800D01*
X476313571Y-62805466D01*
X476389761Y-62772133D01*
X476542142Y-62738800D01*
X476618333Y-62705466D01*
X476656428Y-62672133D01*
X476694523Y-62605466D01*
X476694523Y-62538800D01*
X476656428Y-62472133D01*
X476618333Y-62438800D01*
X476542142Y-62405466D01*
X476351666Y-62405466D01*
X476237380Y-62438800D01*
X476008809Y-62405466D02*
X475551666Y-62405466D01*
X475780238Y-63105466D02*
X475780238Y-62405466D01*
X474675476Y-62738800D02*
X474408809Y-62738800D01*
X474294523Y-63105466D02*
X474675476Y-63105466D01*
X474675476Y-62405466D01*
X474294523Y-62405466D01*
X473989761Y-63072133D02*
X473875476Y-63105466D01*
X473685000Y-63105466D01*
X473608809Y-63072133D01*
X473570714Y-63038800D01*
X473532619Y-62972133D01*
X473532619Y-62905466D01*
X473570714Y-62838800D01*
X473608809Y-62805466D01*
X473685000Y-62772133D01*
X473837380Y-62738800D01*
X473913571Y-62705466D01*
X473951666Y-62672133D01*
X473989761Y-62605466D01*
X473989761Y-62538800D01*
X473951666Y-62472133D01*
X473913571Y-62438800D01*
X473837380Y-62405466D01*
X473646904Y-62405466D01*
X473532619Y-62438800D01*
X473189761Y-63105466D02*
X473189761Y-62405466D01*
X472885000Y-62405466D01*
X472808809Y-62438800D01*
X472770714Y-62472133D01*
X472732619Y-62538800D01*
X472732619Y-62638800D01*
X472770714Y-62705466D01*
X472808809Y-62738800D01*
X472885000Y-62772133D01*
X473189761Y-62772133D01*
X472580238Y-63172133D02*
X471970714Y-63172133D01*
X471780238Y-62738800D02*
X471513571Y-62738800D01*
X471399285Y-63105466D02*
X471780238Y-63105466D01*
X471780238Y-62405466D01*
X471399285Y-62405466D01*
X471056428Y-63105466D02*
X471056428Y-62405466D01*
X470599285Y-63105466D01*
X470599285Y-62405466D01*
X481406104Y-55738780D02*
X480834676Y-55738780D01*
X481120390Y-56738780D02*
X481120390Y-55738780D01*
X480596580Y-55738780D02*
X479929914Y-56738780D01*
X479929914Y-55738780D02*
X480596580Y-56738780D01*
X470142866Y-61412380D02*
X470476200Y-60936190D01*
X470714295Y-61412380D02*
X470714295Y-60412380D01*
X470333342Y-60412380D01*
X470238104Y-60460000D01*
X470190485Y-60507619D01*
X470142866Y-60602857D01*
X470142866Y-60745714D01*
X470190485Y-60840952D01*
X470238104Y-60888571D01*
X470333342Y-60936190D01*
X470714295Y-60936190D01*
X469809533Y-60412380D02*
X469142866Y-61412380D01*
X469142866Y-60412380D02*
X469809533Y-61412380D01*
X470280904Y-57920000D02*
X470376142Y-57872380D01*
X470519000Y-57872380D01*
X470661857Y-57920000D01*
X470757095Y-58015238D01*
X470804714Y-58110476D01*
X470852333Y-58300952D01*
X470852333Y-58443809D01*
X470804714Y-58634285D01*
X470757095Y-58729523D01*
X470661857Y-58824761D01*
X470519000Y-58872380D01*
X470423761Y-58872380D01*
X470280904Y-58824761D01*
X470233285Y-58777142D01*
X470233285Y-58443809D01*
X470423761Y-58443809D01*
X469804714Y-58872380D02*
X469804714Y-57872380D01*
X469233285Y-58872380D01*
X469233285Y-57872380D01*
X468757095Y-58872380D02*
X468757095Y-57872380D01*
X468519000Y-57872380D01*
X468376142Y-57920000D01*
X468280904Y-58015238D01*
X468233285Y-58110476D01*
X468185666Y-58300952D01*
X468185666Y-58443809D01*
X468233285Y-58634285D01*
X468280904Y-58729523D01*
X468376142Y-58824761D01*
X468519000Y-58872380D01*
X468757095Y-58872380D01*
X434211250Y-40610643D02*
X434154008Y-40715025D01*
X434019321Y-40849712D01*
X433941876Y-40880017D01*
X433891369Y-40883384D01*
X433817291Y-40863181D01*
X433770150Y-40816040D01*
X433749947Y-40741963D01*
X433753314Y-40691455D01*
X433783619Y-40614010D01*
X433867798Y-40482690D01*
X433898103Y-40405245D01*
X433901470Y-40354737D01*
X433881267Y-40280660D01*
X433834127Y-40233519D01*
X433760049Y-40213316D01*
X433709541Y-40216683D01*
X433632096Y-40246988D01*
X433497409Y-40381675D01*
X433440167Y-40486057D01*
X433669135Y-41199898D02*
X433174160Y-40704924D01*
X433039473Y-40839611D01*
X432982231Y-40943993D01*
X432975497Y-41045008D01*
X432995700Y-41119086D01*
X433063043Y-41240304D01*
X433133754Y-41311015D01*
X433254972Y-41378359D01*
X433329050Y-41398562D01*
X433430066Y-41391827D01*
X433534448Y-41334585D01*
X433669135Y-41199898D01*
X432988966Y-41597225D02*
X432719592Y-41866599D01*
X433184262Y-41684772D02*
X432500725Y-41378359D01*
X432807138Y-42061895D01*
X434146981Y-42859311D02*
X434089739Y-42963694D01*
X433955052Y-43098381D01*
X433877607Y-43128685D01*
X433827100Y-43132053D01*
X433753022Y-43111850D01*
X433705882Y-43064709D01*
X433685678Y-42990631D01*
X433689046Y-42940124D01*
X433719350Y-42862679D01*
X433803530Y-42731359D01*
X433833834Y-42653914D01*
X433837201Y-42603406D01*
X433816998Y-42529328D01*
X433769858Y-42482188D01*
X433695780Y-42461985D01*
X433645272Y-42465352D01*
X433567827Y-42495656D01*
X433433140Y-42630343D01*
X433375898Y-42734726D01*
X433234477Y-43724675D02*
X433284985Y-43721308D01*
X433389367Y-43664066D01*
X433443242Y-43610191D01*
X433500484Y-43505809D01*
X433507218Y-43404794D01*
X433487015Y-43330716D01*
X433419672Y-43209498D01*
X433348961Y-43138787D01*
X433227743Y-43071443D01*
X433153665Y-43051240D01*
X433052650Y-43057975D01*
X432948267Y-43115217D01*
X432894392Y-43169092D01*
X432837150Y-43273474D01*
X432833783Y-43323982D01*
X432769807Y-44283626D02*
X433039181Y-44014252D01*
X432544206Y-43519278D01*
X433905714Y-45205769D02*
X433555528Y-45555956D01*
X433932652Y-45555956D01*
X433851840Y-45636768D01*
X433821535Y-45714213D01*
X433818168Y-45764721D01*
X433838371Y-45838798D01*
X433956222Y-45956650D01*
X434030300Y-45976853D01*
X434080807Y-45973485D01*
X434158252Y-45943181D01*
X434319877Y-45781556D01*
X434350181Y-45704111D01*
X434353549Y-45653604D01*
X433393904Y-45717580D02*
X433700317Y-46401117D01*
X433016780Y-46094704D01*
X432882093Y-46229391D02*
X432531907Y-46579577D01*
X432909030Y-46579577D01*
X432828218Y-46660389D01*
X432797914Y-46737834D01*
X432794547Y-46788342D01*
X432814750Y-46862420D01*
X432932601Y-46980271D01*
X433006679Y-47000474D01*
X433057186Y-46997107D01*
X433134631Y-46966802D01*
X433296256Y-46805178D01*
X433326560Y-46727733D01*
X433329927Y-46677225D01*
X423155471Y-45487466D02*
X423536423Y-45487466D01*
X423536423Y-44787466D01*
X422888804Y-45120800D02*
X422622138Y-45120800D01*
X422507852Y-45487466D02*
X422888804Y-45487466D01*
X422888804Y-44787466D01*
X422507852Y-44787466D01*
X422164995Y-45487466D02*
X422164995Y-44787466D01*
X421974519Y-44787466D01*
X421860233Y-44820800D01*
X421784042Y-44887466D01*
X421745947Y-44954133D01*
X421707852Y-45087466D01*
X421707852Y-45187466D01*
X421745947Y-45320800D01*
X421784042Y-45387466D01*
X421860233Y-45454133D01*
X421974519Y-45487466D01*
X422164995Y-45487466D01*
X423574519Y-46487466D02*
X423193566Y-46487466D01*
X423650709Y-46687466D02*
X423384042Y-45987466D01*
X423117376Y-46687466D01*
X422393566Y-46687466D02*
X422660233Y-46354133D01*
X422850709Y-46687466D02*
X422850709Y-45987466D01*
X422545947Y-45987466D01*
X422469757Y-46020800D01*
X422431661Y-46054133D01*
X422393566Y-46120800D01*
X422393566Y-46220800D01*
X422431661Y-46287466D01*
X422469757Y-46320800D01*
X422545947Y-46354133D01*
X422850709Y-46354133D01*
X423277466Y-40150971D02*
X422577466Y-40150971D01*
X423277466Y-39693828D01*
X422577466Y-39693828D01*
X423210800Y-38855733D02*
X423244133Y-38893828D01*
X423277466Y-39008114D01*
X423277466Y-39084304D01*
X423244133Y-39198590D01*
X423177466Y-39274780D01*
X423110800Y-39312876D01*
X422977466Y-39350971D01*
X422877466Y-39350971D01*
X422744133Y-39312876D01*
X422677466Y-39274780D01*
X422610800Y-39198590D01*
X422577466Y-39084304D01*
X422577466Y-39008114D01*
X422610800Y-38893828D01*
X422644133Y-38855733D01*
X425715866Y-40938285D02*
X425015866Y-40938285D01*
X425715866Y-40481142D01*
X425015866Y-40481142D01*
X425715866Y-39643047D02*
X425382533Y-39909714D01*
X425715866Y-40100190D02*
X425015866Y-40100190D01*
X425015866Y-39795428D01*
X425049200Y-39719238D01*
X425082533Y-39681142D01*
X425149200Y-39643047D01*
X425249200Y-39643047D01*
X425315866Y-39681142D01*
X425349200Y-39719238D01*
X425382533Y-39795428D01*
X425382533Y-40100190D01*
X425682533Y-39338285D02*
X425715866Y-39224000D01*
X425715866Y-39033523D01*
X425682533Y-38957333D01*
X425649200Y-38919238D01*
X425582533Y-38881142D01*
X425515866Y-38881142D01*
X425449200Y-38919238D01*
X425415866Y-38957333D01*
X425382533Y-39033523D01*
X425349200Y-39185904D01*
X425315866Y-39262095D01*
X425282533Y-39300190D01*
X425215866Y-39338285D01*
X425149200Y-39338285D01*
X425082533Y-39300190D01*
X425049200Y-39262095D01*
X425015866Y-39185904D01*
X425015866Y-38995428D01*
X425049200Y-38881142D01*
X425015866Y-38652571D02*
X425015866Y-38195428D01*
X425715866Y-38424000D02*
X425015866Y-38424000D01*
X420653333Y-40728761D02*
X420686666Y-40614476D01*
X420686666Y-40424000D01*
X420653333Y-40347809D01*
X420620000Y-40309714D01*
X420553333Y-40271619D01*
X420486666Y-40271619D01*
X420420000Y-40309714D01*
X420386666Y-40347809D01*
X420353333Y-40424000D01*
X420320000Y-40576380D01*
X420286666Y-40652571D01*
X420253333Y-40690666D01*
X420186666Y-40728761D01*
X420120000Y-40728761D01*
X420053333Y-40690666D01*
X420020000Y-40652571D01*
X419986666Y-40576380D01*
X419986666Y-40385904D01*
X420020000Y-40271619D01*
X419986666Y-40004952D02*
X420686666Y-39814476D01*
X420186666Y-39662095D01*
X420686666Y-39509714D01*
X419986666Y-39319238D01*
X419986666Y-38862095D02*
X419986666Y-38709714D01*
X420020000Y-38633523D01*
X420086666Y-38557333D01*
X420220000Y-38519238D01*
X420453333Y-38519238D01*
X420586666Y-38557333D01*
X420653333Y-38633523D01*
X420686666Y-38709714D01*
X420686666Y-38862095D01*
X420653333Y-38938285D01*
X420586666Y-39014476D01*
X420453333Y-39052571D01*
X420220000Y-39052571D01*
X420086666Y-39014476D01*
X420020000Y-38938285D01*
X419986666Y-38862095D01*
X418113333Y-41433523D02*
X418146666Y-41319238D01*
X418146666Y-41128761D01*
X418113333Y-41052571D01*
X418080000Y-41014476D01*
X418013333Y-40976380D01*
X417946666Y-40976380D01*
X417880000Y-41014476D01*
X417846666Y-41052571D01*
X417813333Y-41128761D01*
X417780000Y-41281142D01*
X417746666Y-41357333D01*
X417713333Y-41395428D01*
X417646666Y-41433523D01*
X417580000Y-41433523D01*
X417513333Y-41395428D01*
X417480000Y-41357333D01*
X417446666Y-41281142D01*
X417446666Y-41090666D01*
X417480000Y-40976380D01*
X417446666Y-40709714D02*
X418146666Y-40519238D01*
X417646666Y-40366857D01*
X418146666Y-40214476D01*
X417446666Y-40024000D01*
X418080000Y-39262095D02*
X418113333Y-39300190D01*
X418146666Y-39414476D01*
X418146666Y-39490666D01*
X418113333Y-39604952D01*
X418046666Y-39681142D01*
X417980000Y-39719238D01*
X417846666Y-39757333D01*
X417746666Y-39757333D01*
X417613333Y-39719238D01*
X417546666Y-39681142D01*
X417480000Y-39604952D01*
X417446666Y-39490666D01*
X417446666Y-39414476D01*
X417480000Y-39300190D01*
X417513333Y-39262095D01*
X418146666Y-38538285D02*
X418146666Y-38919238D01*
X417446666Y-38919238D01*
X418146666Y-38271619D02*
X417446666Y-38271619D01*
X418146666Y-37814476D02*
X417746666Y-38157333D01*
X417446666Y-37814476D02*
X417846666Y-38271619D01*
X415573333Y-41319238D02*
X415606666Y-41204952D01*
X415606666Y-41014476D01*
X415573333Y-40938285D01*
X415540000Y-40900190D01*
X415473333Y-40862095D01*
X415406666Y-40862095D01*
X415340000Y-40900190D01*
X415306666Y-40938285D01*
X415273333Y-41014476D01*
X415240000Y-41166857D01*
X415206666Y-41243047D01*
X415173333Y-41281142D01*
X415106666Y-41319238D01*
X415040000Y-41319238D01*
X414973333Y-41281142D01*
X414940000Y-41243047D01*
X414906666Y-41166857D01*
X414906666Y-40976380D01*
X414940000Y-40862095D01*
X414906666Y-40595428D02*
X415606666Y-40404952D01*
X415106666Y-40252571D01*
X415606666Y-40100190D01*
X414906666Y-39909714D01*
X415606666Y-39604952D02*
X414906666Y-39604952D01*
X414906666Y-39414476D01*
X414940000Y-39300190D01*
X415006666Y-39224000D01*
X415073333Y-39185904D01*
X415206666Y-39147809D01*
X415306666Y-39147809D01*
X415440000Y-39185904D01*
X415506666Y-39224000D01*
X415573333Y-39300190D01*
X415606666Y-39414476D01*
X415606666Y-39604952D01*
X415606666Y-38804952D02*
X414906666Y-38804952D01*
X414906666Y-38271619D02*
X414906666Y-38119238D01*
X414940000Y-38043047D01*
X415006666Y-37966857D01*
X415140000Y-37928761D01*
X415373333Y-37928761D01*
X415506666Y-37966857D01*
X415573333Y-38043047D01*
X415606666Y-38119238D01*
X415606666Y-38271619D01*
X415573333Y-38347809D01*
X415506666Y-38424000D01*
X415373333Y-38462095D01*
X415140000Y-38462095D01*
X415006666Y-38424000D01*
X414940000Y-38347809D01*
X414906666Y-38271619D01*
X428095533Y-45517171D02*
X428128866Y-45631457D01*
X428128866Y-45821933D01*
X428095533Y-45898123D01*
X428062200Y-45936219D01*
X427995533Y-45974314D01*
X427928866Y-45974314D01*
X427862200Y-45936219D01*
X427828866Y-45898123D01*
X427795533Y-45821933D01*
X427762200Y-45669552D01*
X427728866Y-45593361D01*
X427695533Y-45555266D01*
X427628866Y-45517171D01*
X427562200Y-45517171D01*
X427495533Y-45555266D01*
X427462200Y-45593361D01*
X427428866Y-45669552D01*
X427428866Y-45860028D01*
X427462200Y-45974314D01*
X428128866Y-46317171D02*
X427428866Y-46317171D01*
X427428866Y-46621933D01*
X427462200Y-46698123D01*
X427495533Y-46736219D01*
X427562200Y-46774314D01*
X427662200Y-46774314D01*
X427728866Y-46736219D01*
X427762200Y-46698123D01*
X427795533Y-46621933D01*
X427795533Y-46317171D01*
X428128866Y-47117171D02*
X427428866Y-47117171D01*
X428128866Y-47917171D02*
X428128866Y-47460028D01*
X428128866Y-47688600D02*
X427428866Y-47688600D01*
X427528866Y-47612409D01*
X427595533Y-47536219D01*
X427628866Y-47460028D01*
X427862200Y-48260028D02*
X427862200Y-48869552D01*
X428128866Y-49250504D02*
X427428866Y-49250504D01*
X427428866Y-49440980D01*
X427462200Y-49555266D01*
X427528866Y-49631457D01*
X427595533Y-49669552D01*
X427728866Y-49707647D01*
X427828866Y-49707647D01*
X427962200Y-49669552D01*
X428028866Y-49631457D01*
X428095533Y-49555266D01*
X428128866Y-49440980D01*
X428128866Y-49250504D01*
X428128866Y-50050504D02*
X427662200Y-50050504D01*
X427428866Y-50050504D02*
X427462200Y-50012409D01*
X427495533Y-50050504D01*
X427462200Y-50088600D01*
X427428866Y-50050504D01*
X427495533Y-50050504D01*
X428095533Y-50393361D02*
X428128866Y-50469552D01*
X428128866Y-50621933D01*
X428095533Y-50698123D01*
X428028866Y-50736219D01*
X427995533Y-50736219D01*
X427928866Y-50698123D01*
X427895533Y-50621933D01*
X427895533Y-50507647D01*
X427862200Y-50431457D01*
X427795533Y-50393361D01*
X427762200Y-50393361D01*
X427695533Y-50431457D01*
X427662200Y-50507647D01*
X427662200Y-50621933D01*
X427695533Y-50698123D01*
X427662200Y-51079076D02*
X428362200Y-51079076D01*
X427695533Y-51079076D02*
X427662200Y-51155266D01*
X427662200Y-51307647D01*
X427695533Y-51383838D01*
X427728866Y-51421933D01*
X427795533Y-51460028D01*
X427995533Y-51460028D01*
X428062200Y-51421933D01*
X428095533Y-51383838D01*
X428128866Y-51307647D01*
X428128866Y-51155266D01*
X428095533Y-51079076D01*
D10*
X423976800Y-44500800D02*
X423976800Y-46990000D01*
D11*
X426452990Y-51357161D02*
X426338704Y-51404780D01*
X426148228Y-51404780D01*
X426072038Y-51357161D01*
X426033942Y-51309542D01*
X425995847Y-51214304D01*
X425995847Y-51119066D01*
X426033942Y-51023828D01*
X426072038Y-50976209D01*
X426148228Y-50928590D01*
X426300609Y-50880971D01*
X426376800Y-50833352D01*
X426414895Y-50785733D01*
X426452990Y-50690495D01*
X426452990Y-50595257D01*
X426414895Y-50500019D01*
X426376800Y-50452400D01*
X426300609Y-50404780D01*
X426110133Y-50404780D01*
X425995847Y-50452400D01*
X425691085Y-51357161D02*
X425576800Y-51404780D01*
X425386323Y-51404780D01*
X425310133Y-51357161D01*
X425272038Y-51309542D01*
X425233942Y-51214304D01*
X425233942Y-51119066D01*
X425272038Y-51023828D01*
X425310133Y-50976209D01*
X425386323Y-50928590D01*
X425538704Y-50880971D01*
X425614895Y-50833352D01*
X425652990Y-50785733D01*
X425691085Y-50690495D01*
X425691085Y-50595257D01*
X425652990Y-50500019D01*
X425614895Y-50452400D01*
X425538704Y-50404780D01*
X425348228Y-50404780D01*
X425233942Y-50452400D01*
X424472038Y-51404780D02*
X424929180Y-51404780D01*
X424700609Y-51404780D02*
X424700609Y-50404780D01*
X424776800Y-50547638D01*
X424852990Y-50642876D01*
X424929180Y-50690495D01*
X423557752Y-51357161D02*
X423443466Y-51404780D01*
X423252990Y-51404780D01*
X423176800Y-51357161D01*
X423138704Y-51309542D01*
X423100609Y-51214304D01*
X423100609Y-51119066D01*
X423138704Y-51023828D01*
X423176800Y-50976209D01*
X423252990Y-50928590D01*
X423405371Y-50880971D01*
X423481561Y-50833352D01*
X423519657Y-50785733D01*
X423557752Y-50690495D01*
X423557752Y-50595257D01*
X423519657Y-50500019D01*
X423481561Y-50452400D01*
X423405371Y-50404780D01*
X423214895Y-50404780D01*
X423100609Y-50452400D01*
X422300609Y-51309542D02*
X422338704Y-51357161D01*
X422452990Y-51404780D01*
X422529180Y-51404780D01*
X422643466Y-51357161D01*
X422719657Y-51261923D01*
X422757752Y-51166685D01*
X422795847Y-50976209D01*
X422795847Y-50833352D01*
X422757752Y-50642876D01*
X422719657Y-50547638D01*
X422643466Y-50452400D01*
X422529180Y-50404780D01*
X422452990Y-50404780D01*
X422338704Y-50452400D01*
X422300609Y-50500019D01*
X421957752Y-51404780D02*
X421957752Y-50404780D01*
X421500609Y-51404780D02*
X421843466Y-50833352D01*
X421500609Y-50404780D02*
X421957752Y-50976209D01*
X426884723Y-48813980D02*
X426884723Y-47813980D01*
X426618057Y-48528266D01*
X426351390Y-47813980D01*
X426351390Y-48813980D01*
X425970438Y-48813980D02*
X425970438Y-47813980D01*
X425627580Y-48766361D02*
X425513295Y-48813980D01*
X425322819Y-48813980D01*
X425246628Y-48766361D01*
X425208533Y-48718742D01*
X425170438Y-48623504D01*
X425170438Y-48528266D01*
X425208533Y-48433028D01*
X425246628Y-48385409D01*
X425322819Y-48337790D01*
X425475200Y-48290171D01*
X425551390Y-48242552D01*
X425589485Y-48194933D01*
X425627580Y-48099695D01*
X425627580Y-48004457D01*
X425589485Y-47909219D01*
X425551390Y-47861600D01*
X425475200Y-47813980D01*
X425284723Y-47813980D01*
X425170438Y-47861600D01*
X424675200Y-47813980D02*
X424522819Y-47813980D01*
X424446628Y-47861600D01*
X424370438Y-47956838D01*
X424332342Y-48147314D01*
X424332342Y-48480647D01*
X424370438Y-48671123D01*
X424446628Y-48766361D01*
X424522819Y-48813980D01*
X424675200Y-48813980D01*
X424751390Y-48766361D01*
X424827580Y-48671123D01*
X424865676Y-48480647D01*
X424865676Y-48147314D01*
X424827580Y-47956838D01*
X424751390Y-47861600D01*
X424675200Y-47813980D01*
X423379961Y-48813980D02*
X423379961Y-47813980D01*
X423113295Y-48528266D01*
X422846628Y-47813980D01*
X422846628Y-48813980D01*
X422313295Y-47813980D02*
X422160914Y-47813980D01*
X422084723Y-47861600D01*
X422008533Y-47956838D01*
X421970438Y-48147314D01*
X421970438Y-48480647D01*
X422008533Y-48671123D01*
X422084723Y-48766361D01*
X422160914Y-48813980D01*
X422313295Y-48813980D01*
X422389485Y-48766361D01*
X422465676Y-48671123D01*
X422503771Y-48480647D01*
X422503771Y-48147314D01*
X422465676Y-47956838D01*
X422389485Y-47861600D01*
X422313295Y-47813980D01*
X421665676Y-48766361D02*
X421551390Y-48813980D01*
X421360914Y-48813980D01*
X421284723Y-48766361D01*
X421246628Y-48718742D01*
X421208533Y-48623504D01*
X421208533Y-48528266D01*
X421246628Y-48433028D01*
X421284723Y-48385409D01*
X421360914Y-48337790D01*
X421513295Y-48290171D01*
X421589485Y-48242552D01*
X421627580Y-48194933D01*
X421665676Y-48099695D01*
X421665676Y-48004457D01*
X421627580Y-47909219D01*
X421589485Y-47861600D01*
X421513295Y-47813980D01*
X421322819Y-47813980D01*
X421208533Y-47861600D01*
X420865676Y-48813980D02*
X420865676Y-47813980D01*
D10*
X415239200Y-46990000D02*
X423976800Y-46990000D01*
X415239200Y-44450000D02*
X426923200Y-44450000D01*
X415239200Y-52070000D02*
X426872400Y-52070000D01*
X415290000Y-54610000D02*
X421944800Y-54610000D01*
D11*
X418353904Y-59666171D02*
X418592000Y-59266171D01*
X418830095Y-59666171D01*
X416829904Y-62155371D02*
X417068000Y-61755371D01*
X417306095Y-62155371D01*
X419420704Y-62155371D02*
X419658800Y-61755371D01*
X419896895Y-62155371D01*
D10*
X420370000Y-62230000D02*
X420370000Y-60401200D01*
X420370000Y-57099200D02*
X420370000Y-59029600D01*
D11*
X427551790Y-55881542D02*
X427504171Y-55929161D01*
X427551790Y-55976780D01*
X427599409Y-55929161D01*
X427551790Y-55881542D01*
X427551790Y-55976780D01*
X427075600Y-55881542D02*
X427027980Y-55929161D01*
X427075600Y-55976780D01*
X427123219Y-55929161D01*
X427075600Y-55881542D01*
X427075600Y-55976780D01*
X426599409Y-55881542D02*
X426551790Y-55929161D01*
X426599409Y-55976780D01*
X426647028Y-55929161D01*
X426599409Y-55881542D01*
X426599409Y-55976780D01*
X430231428Y-54859180D02*
X430231428Y-53859180D01*
X430040952Y-53859180D01*
X429926666Y-53906800D01*
X429850476Y-54002038D01*
X429812380Y-54097276D01*
X429774285Y-54287752D01*
X429774285Y-54430609D01*
X429812380Y-54621085D01*
X429850476Y-54716323D01*
X429926666Y-54811561D01*
X430040952Y-54859180D01*
X430231428Y-54859180D01*
X429012380Y-54859180D02*
X429469523Y-54859180D01*
X429240952Y-54859180D02*
X429240952Y-53859180D01*
X429317142Y-54002038D01*
X429393333Y-54097276D01*
X429469523Y-54144895D01*
X428326666Y-54192514D02*
X428326666Y-54859180D01*
X428517142Y-53811561D02*
X428707619Y-54525847D01*
X428212380Y-54525847D01*
X425246780Y-56586380D02*
X425703923Y-56586380D01*
X425475352Y-56586380D02*
X425475352Y-55586380D01*
X425551542Y-55729238D01*
X425627733Y-55824476D01*
X425703923Y-55872095D01*
X424484876Y-56586380D02*
X424942019Y-56586380D01*
X424713447Y-56586380D02*
X424713447Y-55586380D01*
X424789638Y-55729238D01*
X424865828Y-55824476D01*
X424942019Y-55872095D01*
X430231428Y-56586380D02*
X430231428Y-55586380D01*
X430040952Y-55586380D01*
X429926666Y-55634000D01*
X429850476Y-55729238D01*
X429812380Y-55824476D01*
X429774285Y-56014952D01*
X429774285Y-56157809D01*
X429812380Y-56348285D01*
X429850476Y-56443523D01*
X429926666Y-56538761D01*
X430040952Y-56586380D01*
X430231428Y-56586380D01*
X429012380Y-56586380D02*
X429469523Y-56586380D01*
X429240952Y-56586380D02*
X429240952Y-55586380D01*
X429317142Y-55729238D01*
X429393333Y-55824476D01*
X429469523Y-55872095D01*
X428288571Y-55586380D02*
X428669523Y-55586380D01*
X428707619Y-56062571D01*
X428669523Y-56014952D01*
X428593333Y-55967333D01*
X428402857Y-55967333D01*
X428326666Y-56014952D01*
X428288571Y-56062571D01*
X428250476Y-56157809D01*
X428250476Y-56395904D01*
X428288571Y-56491142D01*
X428326666Y-56538761D01*
X428402857Y-56586380D01*
X428593333Y-56586380D01*
X428669523Y-56538761D01*
X428707619Y-56491142D01*
X426567580Y-55316380D02*
X427024723Y-55316380D01*
X426796152Y-55316380D02*
X426796152Y-54316380D01*
X426872342Y-54459238D01*
X426948533Y-54554476D01*
X427024723Y-54602095D01*
X426072342Y-54316380D02*
X425996152Y-54316380D01*
X425919961Y-54364000D01*
X425881866Y-54411619D01*
X425843771Y-54506857D01*
X425805676Y-54697333D01*
X425805676Y-54935428D01*
X425843771Y-55125904D01*
X425881866Y-55221142D01*
X425919961Y-55268761D01*
X425996152Y-55316380D01*
X426072342Y-55316380D01*
X426148533Y-55268761D01*
X426186628Y-55221142D01*
X426224723Y-55125904D01*
X426262819Y-54935428D01*
X426262819Y-54697333D01*
X426224723Y-54506857D01*
X426186628Y-54411619D01*
X426148533Y-54364000D01*
X426072342Y-54316380D01*
X423132209Y-56062571D02*
X423017923Y-56110190D01*
X422979828Y-56157809D01*
X422941733Y-56253047D01*
X422941733Y-56395904D01*
X422979828Y-56491142D01*
X423017923Y-56538761D01*
X423094114Y-56586380D01*
X423398876Y-56586380D01*
X423398876Y-55586380D01*
X423132209Y-55586380D01*
X423056019Y-55634000D01*
X423017923Y-55681619D01*
X422979828Y-55776857D01*
X422979828Y-55872095D01*
X423017923Y-55967333D01*
X423056019Y-56014952D01*
X423132209Y-56062571D01*
X423398876Y-56062571D01*
X422179828Y-56586380D02*
X422636971Y-56586380D01*
X422408400Y-56586380D02*
X422408400Y-55586380D01*
X422484590Y-55729238D01*
X422560780Y-55824476D01*
X422636971Y-55872095D01*
X424605409Y-54335371D02*
X424491123Y-54382990D01*
X424453028Y-54430609D01*
X424414933Y-54525847D01*
X424414933Y-54668704D01*
X424453028Y-54763942D01*
X424491123Y-54811561D01*
X424567314Y-54859180D01*
X424872076Y-54859180D01*
X424872076Y-53859180D01*
X424605409Y-53859180D01*
X424529219Y-53906800D01*
X424491123Y-53954419D01*
X424453028Y-54049657D01*
X424453028Y-54144895D01*
X424491123Y-54240133D01*
X424529219Y-54287752D01*
X424605409Y-54335371D01*
X424872076Y-54335371D01*
X423919695Y-53859180D02*
X423843504Y-53859180D01*
X423767314Y-53906800D01*
X423729219Y-53954419D01*
X423691123Y-54049657D01*
X423653028Y-54240133D01*
X423653028Y-54478228D01*
X423691123Y-54668704D01*
X423729219Y-54763942D01*
X423767314Y-54811561D01*
X423843504Y-54859180D01*
X423919695Y-54859180D01*
X423995885Y-54811561D01*
X424033980Y-54763942D01*
X424072076Y-54668704D01*
X424110171Y-54478228D01*
X424110171Y-54240133D01*
X424072076Y-54049657D01*
X424033980Y-53954419D01*
X423995885Y-53906800D01*
X423919695Y-53859180D01*
D10*
X422960800Y-57099200D02*
X426415200Y-53594000D01*
X422960800Y-62280800D02*
X422960800Y-57099200D01*
D11*
X415366171Y-58204933D02*
X415251885Y-58238266D01*
X415061409Y-58238266D01*
X414985219Y-58204933D01*
X414947123Y-58171600D01*
X414909028Y-58104933D01*
X414909028Y-58038266D01*
X414947123Y-57971600D01*
X414985219Y-57938266D01*
X415061409Y-57904933D01*
X415213790Y-57871600D01*
X415289980Y-57838266D01*
X415328076Y-57804933D01*
X415366171Y-57738266D01*
X415366171Y-57671600D01*
X415328076Y-57604933D01*
X415289980Y-57571600D01*
X415213790Y-57538266D01*
X415023314Y-57538266D01*
X414909028Y-57571600D01*
X414889980Y-59438266D02*
X415156647Y-59104933D01*
X415347123Y-59438266D02*
X415347123Y-58738266D01*
X415042361Y-58738266D01*
X414966171Y-58771600D01*
X414928076Y-58804933D01*
X414889980Y-58871600D01*
X414889980Y-58971600D01*
X414928076Y-59038266D01*
X414966171Y-59071600D01*
X415042361Y-59104933D01*
X415347123Y-59104933D01*
X418115580Y-63122933D02*
X418001295Y-63156266D01*
X417810819Y-63156266D01*
X417734628Y-63122933D01*
X417696533Y-63089600D01*
X417658438Y-63022933D01*
X417658438Y-62956266D01*
X417696533Y-62889600D01*
X417734628Y-62856266D01*
X417810819Y-62822933D01*
X417963200Y-62789600D01*
X418039390Y-62756266D01*
X418077485Y-62722933D01*
X418115580Y-62656266D01*
X418115580Y-62589600D01*
X418077485Y-62522933D01*
X418039390Y-62489600D01*
X417963200Y-62456266D01*
X417772723Y-62456266D01*
X417658438Y-62489600D01*
X416858438Y-63089600D02*
X416896533Y-63122933D01*
X417010819Y-63156266D01*
X417087009Y-63156266D01*
X417201295Y-63122933D01*
X417277485Y-63056266D01*
X417315580Y-62989600D01*
X417353676Y-62856266D01*
X417353676Y-62756266D01*
X417315580Y-62622933D01*
X417277485Y-62556266D01*
X417201295Y-62489600D01*
X417087009Y-62456266D01*
X417010819Y-62456266D01*
X416896533Y-62489600D01*
X416858438Y-62522933D01*
X416134628Y-63156266D02*
X416515580Y-63156266D01*
X416515580Y-62456266D01*
X415867961Y-63156266D02*
X415867961Y-62456266D01*
X415410819Y-63156266D02*
X415753676Y-62756266D01*
X415410819Y-62456266D02*
X415867961Y-62856266D01*
X422897047Y-63122933D02*
X422782761Y-63156266D01*
X422592285Y-63156266D01*
X422516095Y-63122933D01*
X422478000Y-63089600D01*
X422439904Y-63022933D01*
X422439904Y-62956266D01*
X422478000Y-62889600D01*
X422516095Y-62856266D01*
X422592285Y-62822933D01*
X422744666Y-62789600D01*
X422820857Y-62756266D01*
X422858952Y-62722933D01*
X422897047Y-62656266D01*
X422897047Y-62589600D01*
X422858952Y-62522933D01*
X422820857Y-62489600D01*
X422744666Y-62456266D01*
X422554190Y-62456266D01*
X422439904Y-62489600D01*
X421716095Y-63156266D02*
X422097047Y-63156266D01*
X422097047Y-62456266D01*
X421487523Y-62956266D02*
X421106571Y-62956266D01*
X421563714Y-63156266D02*
X421297047Y-62456266D01*
X421030380Y-63156266D01*
X420878000Y-62456266D02*
X420420857Y-62456266D01*
X420649428Y-63156266D02*
X420649428Y-62456266D01*
X419697047Y-63089600D02*
X419735142Y-63122933D01*
X419849428Y-63156266D01*
X419925619Y-63156266D01*
X420039904Y-63122933D01*
X420116095Y-63056266D01*
X420154190Y-62989600D01*
X420192285Y-62856266D01*
X420192285Y-62756266D01*
X420154190Y-62622933D01*
X420116095Y-62556266D01*
X420039904Y-62489600D01*
X419925619Y-62456266D01*
X419849428Y-62456266D01*
X419735142Y-62489600D01*
X419697047Y-62522933D01*
X419354190Y-63156266D02*
X419354190Y-62456266D01*
X419354190Y-62789600D02*
X418897047Y-62789600D01*
X418897047Y-63156266D02*
X418897047Y-62456266D01*
X422243047Y-60024133D02*
X422128761Y-60057466D01*
X421938285Y-60057466D01*
X421862095Y-60024133D01*
X421824000Y-59990800D01*
X421785904Y-59924133D01*
X421785904Y-59857466D01*
X421824000Y-59790800D01*
X421862095Y-59757466D01*
X421938285Y-59724133D01*
X422090666Y-59690800D01*
X422166857Y-59657466D01*
X422204952Y-59624133D01*
X422243047Y-59557466D01*
X422243047Y-59490800D01*
X422204952Y-59424133D01*
X422166857Y-59390800D01*
X422090666Y-59357466D01*
X421900190Y-59357466D01*
X421785904Y-59390800D01*
X421443047Y-60057466D02*
X421443047Y-59357466D01*
X421252571Y-59357466D01*
X421138285Y-59390800D01*
X421062095Y-59457466D01*
X421024000Y-59524133D01*
X420985904Y-59657466D01*
X420985904Y-59757466D01*
X421024000Y-59890800D01*
X421062095Y-59957466D01*
X421138285Y-60024133D01*
X421252571Y-60057466D01*
X421443047Y-60057466D01*
X420681142Y-59857466D02*
X420300190Y-59857466D01*
X420757333Y-60057466D02*
X420490666Y-59357466D01*
X420224000Y-60057466D01*
X420071619Y-59357466D02*
X419614476Y-59357466D01*
X419843047Y-60057466D02*
X419843047Y-59357466D01*
X419385904Y-59857466D02*
X419004952Y-59857466D01*
X419462095Y-60057466D02*
X419195428Y-59357466D01*
X418928761Y-60057466D01*
X422300323Y-52789200D02*
X422376514Y-52741580D01*
X422490800Y-52741580D01*
X422605085Y-52789200D01*
X422681276Y-52884438D01*
X422719371Y-52979676D01*
X422757466Y-53170152D01*
X422757466Y-53313009D01*
X422719371Y-53503485D01*
X422681276Y-53598723D01*
X422605085Y-53693961D01*
X422490800Y-53741580D01*
X422414609Y-53741580D01*
X422300323Y-53693961D01*
X422262228Y-53646342D01*
X422262228Y-53313009D01*
X422414609Y-53313009D01*
X421919371Y-53741580D02*
X421919371Y-52741580D01*
X421462228Y-53741580D01*
X421462228Y-52741580D01*
X421081276Y-53741580D02*
X421081276Y-52741580D01*
X420890800Y-52741580D01*
X420776514Y-52789200D01*
X420700323Y-52884438D01*
X420662228Y-52979676D01*
X420624133Y-53170152D01*
X420624133Y-53313009D01*
X420662228Y-53503485D01*
X420700323Y-53598723D01*
X420776514Y-53693961D01*
X420890800Y-53741580D01*
X421081276Y-53741580D01*
X426421447Y-46223180D02*
X426688114Y-45746990D01*
X426878590Y-46223180D02*
X426878590Y-45223180D01*
X426573828Y-45223180D01*
X426497638Y-45270800D01*
X426459542Y-45318419D01*
X426421447Y-45413657D01*
X426421447Y-45556514D01*
X426459542Y-45651752D01*
X426497638Y-45699371D01*
X426573828Y-45746990D01*
X426878590Y-45746990D01*
X426116685Y-46175561D02*
X426002400Y-46223180D01*
X425811923Y-46223180D01*
X425735733Y-46175561D01*
X425697638Y-46127942D01*
X425659542Y-46032704D01*
X425659542Y-45937466D01*
X425697638Y-45842228D01*
X425735733Y-45794609D01*
X425811923Y-45746990D01*
X425964304Y-45699371D01*
X426040495Y-45651752D01*
X426078590Y-45604133D01*
X426116685Y-45508895D01*
X426116685Y-45413657D01*
X426078590Y-45318419D01*
X426040495Y-45270800D01*
X425964304Y-45223180D01*
X425773828Y-45223180D01*
X425659542Y-45270800D01*
X425430971Y-45223180D02*
X424973828Y-45223180D01*
X425202400Y-46223180D02*
X425202400Y-45223180D01*
X424288114Y-46223180D02*
X424745257Y-46223180D01*
X424516685Y-46223180D02*
X424516685Y-45223180D01*
X424592876Y-45366038D01*
X424669066Y-45461276D01*
X424745257Y-45508895D01*
X425957657Y-42632380D02*
X425462419Y-42632380D01*
X425729085Y-43013333D01*
X425614800Y-43013333D01*
X425538609Y-43060952D01*
X425500514Y-43108571D01*
X425462419Y-43203809D01*
X425462419Y-43441904D01*
X425500514Y-43537142D01*
X425538609Y-43584761D01*
X425614800Y-43632380D01*
X425843371Y-43632380D01*
X425919561Y-43584761D01*
X425957657Y-43537142D01*
X425233847Y-42632380D02*
X424967180Y-43632380D01*
X424700514Y-42632380D01*
X424510038Y-42632380D02*
X424014800Y-42632380D01*
X424281466Y-43013333D01*
X424167180Y-43013333D01*
X424090990Y-43060952D01*
X424052895Y-43108571D01*
X424014800Y-43203809D01*
X424014800Y-43441904D01*
X424052895Y-43537142D01*
X424090990Y-43584761D01*
X424167180Y-43632380D01*
X424395752Y-43632380D01*
X424471942Y-43584761D01*
X424510038Y-43537142D01*
X423100514Y-43584761D02*
X422986228Y-43632380D01*
X422795752Y-43632380D01*
X422719561Y-43584761D01*
X422681466Y-43537142D01*
X422643371Y-43441904D01*
X422643371Y-43346666D01*
X422681466Y-43251428D01*
X422719561Y-43203809D01*
X422795752Y-43156190D01*
X422948133Y-43108571D01*
X423024323Y-43060952D01*
X423062419Y-43013333D01*
X423100514Y-42918095D01*
X423100514Y-42822857D01*
X423062419Y-42727619D01*
X423024323Y-42680000D01*
X422948133Y-42632380D01*
X422757657Y-42632380D01*
X422643371Y-42680000D01*
X422338609Y-43584761D02*
X422224323Y-43632380D01*
X422033847Y-43632380D01*
X421957657Y-43584761D01*
X421919561Y-43537142D01*
X421881466Y-43441904D01*
X421881466Y-43346666D01*
X421919561Y-43251428D01*
X421957657Y-43203809D01*
X422033847Y-43156190D01*
X422186228Y-43108571D01*
X422262419Y-43060952D01*
X422300514Y-43013333D01*
X422338609Y-42918095D01*
X422338609Y-42822857D01*
X422300514Y-42727619D01*
X422262419Y-42680000D01*
X422186228Y-42632380D01*
X421995752Y-42632380D01*
X421881466Y-42680000D01*
X421614800Y-42632380D02*
X421119561Y-42632380D01*
X421386228Y-43013333D01*
X421271942Y-43013333D01*
X421195752Y-43060952D01*
X421157657Y-43108571D01*
X421119561Y-43203809D01*
X421119561Y-43441904D01*
X421157657Y-43537142D01*
X421195752Y-43584761D01*
X421271942Y-43632380D01*
X421500514Y-43632380D01*
X421576704Y-43584761D01*
X421614800Y-43537142D01*
D10*
X430530000Y-62280800D02*
X430530000Y-53594000D01*
X466150000Y-57090000D02*
X466150000Y-53597500D01*
X433120800Y-62280800D02*
X433120800Y-53594000D01*
X435559200Y-62280800D02*
X435559200Y-53644800D01*
X438150000Y-62280800D02*
X438150000Y-53594000D01*
X440690000Y-57086500D02*
X440690000Y-53594000D01*
D11*
X433658307Y-51573926D02*
X433163333Y-51078951D01*
X432968036Y-51368528D02*
X432917529Y-51371895D01*
X432840084Y-51402200D01*
X432705397Y-51536887D01*
X432675092Y-51614332D01*
X432671725Y-51664840D01*
X432691928Y-51738917D01*
X432739069Y-51786058D01*
X432836717Y-51829831D01*
X433442808Y-51789425D01*
X433092622Y-52139611D01*
X432479796Y-52658156D02*
X432530304Y-52654789D01*
X432634686Y-52597547D01*
X432688561Y-52543672D01*
X432745803Y-52439290D01*
X432752537Y-52338275D01*
X432732334Y-52264197D01*
X432664991Y-52142979D01*
X432594280Y-52072268D01*
X432473062Y-52004924D01*
X432398984Y-51984721D01*
X432297969Y-51991456D01*
X432193586Y-52048698D01*
X432139711Y-52102572D01*
X432082469Y-52206955D01*
X432079102Y-52257462D01*
X431863603Y-52472962D02*
X431813095Y-52476329D01*
X431735650Y-52506633D01*
X431600963Y-52641320D01*
X431570659Y-52718765D01*
X431567292Y-52769273D01*
X431587495Y-52843351D01*
X431634635Y-52890491D01*
X431732283Y-52934265D01*
X432338375Y-52893859D01*
X431988189Y-53244045D01*
X436307519Y-50627165D02*
X436708213Y-51027859D01*
X436728416Y-51101937D01*
X436725049Y-51152444D01*
X436694744Y-51229889D01*
X436586994Y-51337639D01*
X436509549Y-51367943D01*
X436459042Y-51371311D01*
X436384964Y-51351108D01*
X435984270Y-50950414D01*
X436095387Y-51546404D02*
X435826013Y-51815778D01*
X436290683Y-51633950D02*
X435607146Y-51327537D01*
X435913559Y-52011074D01*
X435401749Y-52522885D02*
X435354608Y-52098620D01*
X435724998Y-52199636D02*
X435230023Y-51704661D01*
X435014524Y-51920160D01*
X434984219Y-51997605D01*
X434980852Y-52048113D01*
X435001055Y-52122191D01*
X435071766Y-52192901D01*
X435145843Y-52213104D01*
X435196351Y-52209737D01*
X435273796Y-52179433D01*
X435489295Y-51963933D01*
X434745150Y-52189534D02*
X434421901Y-52512783D01*
X435078500Y-52846133D02*
X434583525Y-52351159D01*
X434432002Y-53492631D02*
X434755251Y-53169382D01*
X434593627Y-53331007D02*
X434098652Y-52836032D01*
X434223237Y-52852868D01*
X434324253Y-52846133D01*
X434401698Y-52815829D01*
X438890707Y-51599326D02*
X438395733Y-51104351D01*
X438200436Y-51393928D02*
X438149929Y-51397295D01*
X438072484Y-51427600D01*
X437937797Y-51562287D01*
X437907492Y-51639732D01*
X437904125Y-51690240D01*
X437924328Y-51764317D01*
X437971469Y-51811458D01*
X438069117Y-51855231D01*
X438675208Y-51814825D01*
X438325022Y-52165011D01*
X437712196Y-52683556D02*
X437762704Y-52680189D01*
X437867086Y-52622947D01*
X437920961Y-52569072D01*
X437978203Y-52464690D01*
X437984937Y-52363675D01*
X437964734Y-52289597D01*
X437897391Y-52168379D01*
X437826680Y-52097668D01*
X437705462Y-52030324D01*
X437631384Y-52010121D01*
X437530369Y-52016856D01*
X437425986Y-52074098D01*
X437372111Y-52127972D01*
X437314869Y-52232355D01*
X437311502Y-52282862D01*
X437075800Y-52424284D02*
X436725614Y-52774470D01*
X437102737Y-52774470D01*
X437021925Y-52855282D01*
X436991621Y-52932727D01*
X436988253Y-52983235D01*
X437008456Y-53057313D01*
X437126308Y-53175164D01*
X437200385Y-53195367D01*
X437250893Y-53192000D01*
X437328338Y-53161695D01*
X437489963Y-53000071D01*
X437520267Y-52922626D01*
X437523634Y-52872118D01*
X441336719Y-50474765D02*
X441737413Y-50875459D01*
X441757616Y-50949537D01*
X441754249Y-51000044D01*
X441723944Y-51077489D01*
X441616194Y-51185239D01*
X441538749Y-51215543D01*
X441488242Y-51218911D01*
X441414164Y-51198708D01*
X441013470Y-50798014D01*
X441124587Y-51394004D02*
X440855213Y-51663378D01*
X441319883Y-51481550D02*
X440636346Y-51175137D01*
X440942759Y-51858674D01*
X440430949Y-52370485D02*
X440383808Y-51946220D01*
X440754198Y-52047236D02*
X440259223Y-51552261D01*
X440043724Y-51767760D01*
X440013419Y-51845205D01*
X440010052Y-51895713D01*
X440030255Y-51969791D01*
X440100966Y-52040501D01*
X440175043Y-52060704D01*
X440225551Y-52057337D01*
X440302996Y-52027033D01*
X440518495Y-51811533D01*
X439774350Y-52037134D02*
X439451101Y-52360383D01*
X440107700Y-52693733D02*
X439612725Y-52198759D01*
X439020102Y-52791381D02*
X439127852Y-52683632D01*
X439205297Y-52653327D01*
X439255805Y-52649960D01*
X439380390Y-52666796D01*
X439501608Y-52734139D01*
X439690170Y-52922701D01*
X439710373Y-52996779D01*
X439707006Y-53047287D01*
X439676702Y-53124732D01*
X439568952Y-53232481D01*
X439491507Y-53262786D01*
X439440999Y-53266153D01*
X439366921Y-53245950D01*
X439249070Y-53128099D01*
X439228867Y-53054021D01*
X439232234Y-53003513D01*
X439262539Y-52926068D01*
X439370289Y-52818319D01*
X439447734Y-52788014D01*
X439498241Y-52784647D01*
X439572319Y-52804850D01*
X432815880Y-54824761D02*
X432701595Y-54872380D01*
X432511119Y-54872380D01*
X432434928Y-54824761D01*
X432396833Y-54777142D01*
X432358738Y-54681904D01*
X432358738Y-54586666D01*
X432396833Y-54491428D01*
X432434928Y-54443809D01*
X432511119Y-54396190D01*
X432663500Y-54348571D01*
X432739690Y-54300952D01*
X432777785Y-54253333D01*
X432815880Y-54158095D01*
X432815880Y-54062857D01*
X432777785Y-53967619D01*
X432739690Y-53920000D01*
X432663500Y-53872380D01*
X432473023Y-53872380D01*
X432358738Y-53920000D01*
X431558738Y-54777142D02*
X431596833Y-54824761D01*
X431711119Y-54872380D01*
X431787309Y-54872380D01*
X431901595Y-54824761D01*
X431977785Y-54729523D01*
X432015880Y-54634285D01*
X432053976Y-54443809D01*
X432053976Y-54300952D01*
X432015880Y-54110476D01*
X431977785Y-54015238D01*
X431901595Y-53920000D01*
X431787309Y-53872380D01*
X431711119Y-53872380D01*
X431596833Y-53920000D01*
X431558738Y-53967619D01*
X430834928Y-54872380D02*
X431215880Y-54872380D01*
X431215880Y-53872380D01*
X432834928Y-56474761D02*
X432720642Y-56522380D01*
X432530166Y-56522380D01*
X432453976Y-56474761D01*
X432415880Y-56427142D01*
X432377785Y-56331904D01*
X432377785Y-56236666D01*
X432415880Y-56141428D01*
X432453976Y-56093809D01*
X432530166Y-56046190D01*
X432682547Y-55998571D01*
X432758738Y-55950952D01*
X432796833Y-55903333D01*
X432834928Y-55808095D01*
X432834928Y-55712857D01*
X432796833Y-55617619D01*
X432758738Y-55570000D01*
X432682547Y-55522380D01*
X432492071Y-55522380D01*
X432377785Y-55570000D01*
X432034928Y-56522380D02*
X432034928Y-55522380D01*
X431844452Y-55522380D01*
X431730166Y-55570000D01*
X431653976Y-55665238D01*
X431615880Y-55760476D01*
X431577785Y-55950952D01*
X431577785Y-56093809D01*
X431615880Y-56284285D01*
X431653976Y-56379523D01*
X431730166Y-56474761D01*
X431844452Y-56522380D01*
X432034928Y-56522380D01*
X431273023Y-56236666D02*
X430892071Y-56236666D01*
X431349214Y-56522380D02*
X431082547Y-55522380D01*
X430815880Y-56522380D01*
X437895880Y-54888261D02*
X437781595Y-54935880D01*
X437591119Y-54935880D01*
X437514928Y-54888261D01*
X437476833Y-54840642D01*
X437438738Y-54745404D01*
X437438738Y-54650166D01*
X437476833Y-54554928D01*
X437514928Y-54507309D01*
X437591119Y-54459690D01*
X437743500Y-54412071D01*
X437819690Y-54364452D01*
X437857785Y-54316833D01*
X437895880Y-54221595D01*
X437895880Y-54126357D01*
X437857785Y-54031119D01*
X437819690Y-53983500D01*
X437743500Y-53935880D01*
X437553023Y-53935880D01*
X437438738Y-53983500D01*
X436638738Y-54840642D02*
X436676833Y-54888261D01*
X436791119Y-54935880D01*
X436867309Y-54935880D01*
X436981595Y-54888261D01*
X437057785Y-54793023D01*
X437095880Y-54697785D01*
X437133976Y-54507309D01*
X437133976Y-54364452D01*
X437095880Y-54173976D01*
X437057785Y-54078738D01*
X436981595Y-53983500D01*
X436867309Y-53935880D01*
X436791119Y-53935880D01*
X436676833Y-53983500D01*
X436638738Y-54031119D01*
X435914928Y-54935880D02*
X436295880Y-54935880D01*
X436295880Y-53935880D01*
X437914928Y-56538261D02*
X437800642Y-56585880D01*
X437610166Y-56585880D01*
X437533976Y-56538261D01*
X437495880Y-56490642D01*
X437457785Y-56395404D01*
X437457785Y-56300166D01*
X437495880Y-56204928D01*
X437533976Y-56157309D01*
X437610166Y-56109690D01*
X437762547Y-56062071D01*
X437838738Y-56014452D01*
X437876833Y-55966833D01*
X437914928Y-55871595D01*
X437914928Y-55776357D01*
X437876833Y-55681119D01*
X437838738Y-55633500D01*
X437762547Y-55585880D01*
X437572071Y-55585880D01*
X437457785Y-55633500D01*
X437114928Y-56585880D02*
X437114928Y-55585880D01*
X436924452Y-55585880D01*
X436810166Y-55633500D01*
X436733976Y-55728738D01*
X436695880Y-55823976D01*
X436657785Y-56014452D01*
X436657785Y-56157309D01*
X436695880Y-56347785D01*
X436733976Y-56443023D01*
X436810166Y-56538261D01*
X436924452Y-56585880D01*
X437114928Y-56585880D01*
X436353023Y-56300166D02*
X435972071Y-56300166D01*
X436429214Y-56585880D02*
X436162547Y-55585880D01*
X435895880Y-56585880D01*
X434570166Y-54935880D02*
X434903500Y-54459690D01*
X435141595Y-54935880D02*
X435141595Y-53935880D01*
X434760642Y-53935880D01*
X434665404Y-53983500D01*
X434617785Y-54031119D01*
X434570166Y-54126357D01*
X434570166Y-54269214D01*
X434617785Y-54364452D01*
X434665404Y-54412071D01*
X434760642Y-54459690D01*
X435141595Y-54459690D01*
X434236833Y-53935880D02*
X433570166Y-54935880D01*
X433570166Y-53935880D02*
X434236833Y-54935880D01*
X435165404Y-55585880D02*
X434593976Y-55585880D01*
X434879690Y-56585880D02*
X434879690Y-55585880D01*
X434355880Y-55585880D02*
X433689214Y-56585880D01*
X433689214Y-55585880D02*
X434355880Y-56585880D01*
X439713666Y-54935880D02*
X440047000Y-54459690D01*
X440285095Y-54935880D02*
X440285095Y-53935880D01*
X439904142Y-53935880D01*
X439808904Y-53983500D01*
X439761285Y-54031119D01*
X439713666Y-54126357D01*
X439713666Y-54269214D01*
X439761285Y-54364452D01*
X439808904Y-54412071D01*
X439904142Y-54459690D01*
X440285095Y-54459690D01*
X439380333Y-53935880D02*
X438713666Y-54935880D01*
X438713666Y-53935880D02*
X439380333Y-54935880D01*
X440308904Y-55585880D02*
X439737476Y-55585880D01*
X440023190Y-56585880D02*
X440023190Y-55585880D01*
X439499380Y-55585880D02*
X438832714Y-56585880D01*
X438832714Y-55585880D02*
X439499380Y-56585880D01*
X461486190Y-55221142D02*
X461438571Y-55268761D01*
X461486190Y-55316380D01*
X461533809Y-55268761D01*
X461486190Y-55221142D01*
X461486190Y-55316380D01*
X461010000Y-55221142D02*
X460962380Y-55268761D01*
X461010000Y-55316380D01*
X461057619Y-55268761D01*
X461010000Y-55221142D01*
X461010000Y-55316380D01*
X460533809Y-55221142D02*
X460486190Y-55268761D01*
X460533809Y-55316380D01*
X460581428Y-55268761D01*
X460533809Y-55221142D01*
X460533809Y-55316380D01*
X453866190Y-55284642D02*
X453818571Y-55332261D01*
X453866190Y-55379880D01*
X453913809Y-55332261D01*
X453866190Y-55284642D01*
X453866190Y-55379880D01*
X453390000Y-55284642D02*
X453342380Y-55332261D01*
X453390000Y-55379880D01*
X453437619Y-55332261D01*
X453390000Y-55284642D01*
X453390000Y-55379880D01*
X452913809Y-55284642D02*
X452866190Y-55332261D01*
X452913809Y-55379880D01*
X452961428Y-55332261D01*
X452913809Y-55284642D01*
X452913809Y-55379880D01*
X446246190Y-55221142D02*
X446198571Y-55268761D01*
X446246190Y-55316380D01*
X446293809Y-55268761D01*
X446246190Y-55221142D01*
X446246190Y-55316380D01*
X445770000Y-55221142D02*
X445722380Y-55268761D01*
X445770000Y-55316380D01*
X445817619Y-55268761D01*
X445770000Y-55221142D01*
X445770000Y-55316380D01*
X445293809Y-55221142D02*
X445246190Y-55268761D01*
X445293809Y-55316380D01*
X445341428Y-55268761D01*
X445293809Y-55221142D01*
X445293809Y-55316380D01*
X457842857Y-54840642D02*
X457890476Y-54888261D01*
X458033333Y-54935880D01*
X458128571Y-54935880D01*
X458271428Y-54888261D01*
X458366666Y-54793023D01*
X458414285Y-54697785D01*
X458461904Y-54507309D01*
X458461904Y-54364452D01*
X458414285Y-54173976D01*
X458366666Y-54078738D01*
X458271428Y-53983500D01*
X458128571Y-53935880D01*
X458033333Y-53935880D01*
X457890476Y-53983500D01*
X457842857Y-54031119D01*
X456890476Y-54935880D02*
X457461904Y-54935880D01*
X457176190Y-54935880D02*
X457176190Y-53935880D01*
X457271428Y-54078738D01*
X457366666Y-54173976D01*
X457461904Y-54221595D01*
X456509523Y-54031119D02*
X456461904Y-53983500D01*
X456366666Y-53935880D01*
X456128571Y-53935880D01*
X456033333Y-53983500D01*
X455985714Y-54031119D01*
X455938095Y-54126357D01*
X455938095Y-54221595D01*
X455985714Y-54364452D01*
X456557142Y-54935880D01*
X455938095Y-54935880D01*
X457842857Y-56490642D02*
X457890476Y-56538261D01*
X458033333Y-56585880D01*
X458128571Y-56585880D01*
X458271428Y-56538261D01*
X458366666Y-56443023D01*
X458414285Y-56347785D01*
X458461904Y-56157309D01*
X458461904Y-56014452D01*
X458414285Y-55823976D01*
X458366666Y-55728738D01*
X458271428Y-55633500D01*
X458128571Y-55585880D01*
X458033333Y-55585880D01*
X457890476Y-55633500D01*
X457842857Y-55681119D01*
X456890476Y-56585880D02*
X457461904Y-56585880D01*
X457176190Y-56585880D02*
X457176190Y-55585880D01*
X457271428Y-55728738D01*
X457366666Y-55823976D01*
X457461904Y-55871595D01*
X456557142Y-55585880D02*
X455938095Y-55585880D01*
X456271428Y-55966833D01*
X456128571Y-55966833D01*
X456033333Y-56014452D01*
X455985714Y-56062071D01*
X455938095Y-56157309D01*
X455938095Y-56395404D01*
X455985714Y-56490642D01*
X456033333Y-56538261D01*
X456128571Y-56585880D01*
X456414285Y-56585880D01*
X456509523Y-56538261D01*
X456557142Y-56490642D01*
X449746666Y-54777142D02*
X449794285Y-54824761D01*
X449937142Y-54872380D01*
X450032380Y-54872380D01*
X450175238Y-54824761D01*
X450270476Y-54729523D01*
X450318095Y-54634285D01*
X450365714Y-54443809D01*
X450365714Y-54300952D01*
X450318095Y-54110476D01*
X450270476Y-54015238D01*
X450175238Y-53920000D01*
X450032380Y-53872380D01*
X449937142Y-53872380D01*
X449794285Y-53920000D01*
X449746666Y-53967619D01*
X448889523Y-53872380D02*
X449080000Y-53872380D01*
X449175238Y-53920000D01*
X449222857Y-53967619D01*
X449318095Y-54110476D01*
X449365714Y-54300952D01*
X449365714Y-54681904D01*
X449318095Y-54777142D01*
X449270476Y-54824761D01*
X449175238Y-54872380D01*
X448984761Y-54872380D01*
X448889523Y-54824761D01*
X448841904Y-54777142D01*
X448794285Y-54681904D01*
X448794285Y-54443809D01*
X448841904Y-54348571D01*
X448889523Y-54300952D01*
X448984761Y-54253333D01*
X449175238Y-54253333D01*
X449270476Y-54300952D01*
X449318095Y-54348571D01*
X449365714Y-54443809D01*
X449746666Y-56427142D02*
X449794285Y-56474761D01*
X449937142Y-56522380D01*
X450032380Y-56522380D01*
X450175238Y-56474761D01*
X450270476Y-56379523D01*
X450318095Y-56284285D01*
X450365714Y-56093809D01*
X450365714Y-55950952D01*
X450318095Y-55760476D01*
X450270476Y-55665238D01*
X450175238Y-55570000D01*
X450032380Y-55522380D01*
X449937142Y-55522380D01*
X449794285Y-55570000D01*
X449746666Y-55617619D01*
X449413333Y-55522380D02*
X448746666Y-55522380D01*
X449175238Y-56522380D01*
X465145357Y-54840642D02*
X465192976Y-54888261D01*
X465335833Y-54935880D01*
X465431071Y-54935880D01*
X465573928Y-54888261D01*
X465669166Y-54793023D01*
X465716785Y-54697785D01*
X465764404Y-54507309D01*
X465764404Y-54364452D01*
X465716785Y-54173976D01*
X465669166Y-54078738D01*
X465573928Y-53983500D01*
X465431071Y-53935880D01*
X465335833Y-53935880D01*
X465192976Y-53983500D01*
X465145357Y-54031119D01*
X464192976Y-54935880D02*
X464764404Y-54935880D01*
X464478690Y-54935880D02*
X464478690Y-53935880D01*
X464573928Y-54078738D01*
X464669166Y-54173976D01*
X464764404Y-54221595D01*
X463621547Y-54364452D02*
X463716785Y-54316833D01*
X463764404Y-54269214D01*
X463812023Y-54173976D01*
X463812023Y-54126357D01*
X463764404Y-54031119D01*
X463716785Y-53983500D01*
X463621547Y-53935880D01*
X463431071Y-53935880D01*
X463335833Y-53983500D01*
X463288214Y-54031119D01*
X463240595Y-54126357D01*
X463240595Y-54173976D01*
X463288214Y-54269214D01*
X463335833Y-54316833D01*
X463431071Y-54364452D01*
X463621547Y-54364452D01*
X463716785Y-54412071D01*
X463764404Y-54459690D01*
X463812023Y-54554928D01*
X463812023Y-54745404D01*
X463764404Y-54840642D01*
X463716785Y-54888261D01*
X463621547Y-54935880D01*
X463431071Y-54935880D01*
X463335833Y-54888261D01*
X463288214Y-54840642D01*
X463240595Y-54745404D01*
X463240595Y-54554928D01*
X463288214Y-54459690D01*
X463335833Y-54412071D01*
X463431071Y-54364452D01*
X465145357Y-56490642D02*
X465192976Y-56538261D01*
X465335833Y-56585880D01*
X465431071Y-56585880D01*
X465573928Y-56538261D01*
X465669166Y-56443023D01*
X465716785Y-56347785D01*
X465764404Y-56157309D01*
X465764404Y-56014452D01*
X465716785Y-55823976D01*
X465669166Y-55728738D01*
X465573928Y-55633500D01*
X465431071Y-55585880D01*
X465335833Y-55585880D01*
X465192976Y-55633500D01*
X465145357Y-55681119D01*
X464192976Y-56585880D02*
X464764404Y-56585880D01*
X464478690Y-56585880D02*
X464478690Y-55585880D01*
X464573928Y-55728738D01*
X464669166Y-55823976D01*
X464764404Y-55871595D01*
X463716785Y-56585880D02*
X463526309Y-56585880D01*
X463431071Y-56538261D01*
X463383452Y-56490642D01*
X463288214Y-56347785D01*
X463240595Y-56157309D01*
X463240595Y-55776357D01*
X463288214Y-55681119D01*
X463335833Y-55633500D01*
X463431071Y-55585880D01*
X463621547Y-55585880D01*
X463716785Y-55633500D01*
X463764404Y-55681119D01*
X463812023Y-55776357D01*
X463812023Y-56014452D01*
X463764404Y-56109690D01*
X463716785Y-56157309D01*
X463621547Y-56204928D01*
X463431071Y-56204928D01*
X463335833Y-56157309D01*
X463288214Y-56109690D01*
X463240595Y-56014452D01*
X442190166Y-54840642D02*
X442237785Y-54888261D01*
X442380642Y-54935880D01*
X442475880Y-54935880D01*
X442618738Y-54888261D01*
X442713976Y-54793023D01*
X442761595Y-54697785D01*
X442809214Y-54507309D01*
X442809214Y-54364452D01*
X442761595Y-54173976D01*
X442713976Y-54078738D01*
X442618738Y-53983500D01*
X442475880Y-53935880D01*
X442380642Y-53935880D01*
X442237785Y-53983500D01*
X442190166Y-54031119D01*
X441571119Y-53935880D02*
X441475880Y-53935880D01*
X441380642Y-53983500D01*
X441333023Y-54031119D01*
X441285404Y-54126357D01*
X441237785Y-54316833D01*
X441237785Y-54554928D01*
X441285404Y-54745404D01*
X441333023Y-54840642D01*
X441380642Y-54888261D01*
X441475880Y-54935880D01*
X441571119Y-54935880D01*
X441666357Y-54888261D01*
X441713976Y-54840642D01*
X441761595Y-54745404D01*
X441809214Y-54554928D01*
X441809214Y-54316833D01*
X441761595Y-54126357D01*
X441713976Y-54031119D01*
X441666357Y-53983500D01*
X441571119Y-53935880D01*
X442190166Y-56490642D02*
X442237785Y-56538261D01*
X442380642Y-56585880D01*
X442475880Y-56585880D01*
X442618738Y-56538261D01*
X442713976Y-56443023D01*
X442761595Y-56347785D01*
X442809214Y-56157309D01*
X442809214Y-56014452D01*
X442761595Y-55823976D01*
X442713976Y-55728738D01*
X442618738Y-55633500D01*
X442475880Y-55585880D01*
X442380642Y-55585880D01*
X442237785Y-55633500D01*
X442190166Y-55681119D01*
X441237785Y-56585880D02*
X441809214Y-56585880D01*
X441523500Y-56585880D02*
X441523500Y-55585880D01*
X441618738Y-55728738D01*
X441713976Y-55823976D01*
X441809214Y-55871595D01*
D10*
X440690000Y-57150000D02*
X440690000Y-62293500D01*
D11*
X433609111Y-48800714D02*
X433639415Y-48723269D01*
X433720227Y-48642456D01*
X433824610Y-48585214D01*
X433925625Y-48578480D01*
X433999703Y-48598683D01*
X434120921Y-48666027D01*
X434191632Y-48736737D01*
X434258975Y-48857956D01*
X434279178Y-48932034D01*
X434272444Y-49033049D01*
X434215202Y-49137431D01*
X434161327Y-49191306D01*
X434056945Y-49248548D01*
X434006437Y-49251915D01*
X433841446Y-49086924D01*
X433949195Y-48979174D01*
X433811141Y-49541492D02*
X433316166Y-49046517D01*
X433487892Y-49864741D01*
X432992917Y-49369766D01*
X433218518Y-50134115D02*
X432723543Y-49639140D01*
X432588856Y-49773827D01*
X432531614Y-49878210D01*
X432524880Y-49979225D01*
X432545083Y-50053303D01*
X432612427Y-50174521D01*
X432683137Y-50245232D01*
X432804356Y-50312575D01*
X432878434Y-50332778D01*
X432979449Y-50326044D01*
X433083831Y-50268802D01*
X433218518Y-50134115D01*
X421436780Y-54875180D02*
X421817733Y-54875180D01*
X421855828Y-55351371D01*
X421817733Y-55303752D01*
X421741542Y-55256133D01*
X421551066Y-55256133D01*
X421474876Y-55303752D01*
X421436780Y-55351371D01*
X421398685Y-55446609D01*
X421398685Y-55684704D01*
X421436780Y-55779942D01*
X421474876Y-55827561D01*
X421551066Y-55875180D01*
X421741542Y-55875180D01*
X421817733Y-55827561D01*
X421855828Y-55779942D01*
X421170114Y-54875180D02*
X420903447Y-55875180D01*
X420636780Y-54875180D01*
X473806685Y-53843180D02*
X473806685Y-52843180D01*
X473806685Y-53319371D02*
X473235257Y-53319371D01*
X473235257Y-53843180D02*
X473235257Y-52843180D01*
X472806685Y-53795561D02*
X472663828Y-53843180D01*
X472425733Y-53843180D01*
X472330495Y-53795561D01*
X472282876Y-53747942D01*
X472235257Y-53652704D01*
X472235257Y-53557466D01*
X472282876Y-53462228D01*
X472330495Y-53414609D01*
X472425733Y-53366990D01*
X472616209Y-53319371D01*
X472711447Y-53271752D01*
X472759066Y-53224133D01*
X472806685Y-53128895D01*
X472806685Y-53033657D01*
X472759066Y-52938419D01*
X472711447Y-52890800D01*
X472616209Y-52843180D01*
X472378114Y-52843180D01*
X472235257Y-52890800D01*
X471806685Y-53319371D02*
X471473352Y-53319371D01*
X471330495Y-53843180D02*
X471806685Y-53843180D01*
X471806685Y-52843180D01*
X471330495Y-52843180D01*
D10*
X475932500Y-53340000D02*
X472567000Y-56705500D01*
X475932500Y-51943000D02*
X475932500Y-53340000D01*
X474472000Y-50482500D02*
X475932500Y-51943000D01*
X472630500Y-50482500D02*
X474472000Y-50482500D01*
X472059000Y-51054000D02*
X472630500Y-50482500D01*
X470916000Y-49911000D02*
X472059000Y-51054000D01*
X470344500Y-50482500D02*
X470916000Y-49911000D01*
X468693500Y-48831500D02*
X470344500Y-50482500D01*
X467931500Y-49593500D02*
X468693500Y-48831500D01*
X470408000Y-52070000D02*
X467931500Y-49593500D01*
X470408000Y-52514500D02*
X470408000Y-52070000D01*
X469582500Y-53340000D02*
X470408000Y-52514500D01*
X469582500Y-55308500D02*
X469582500Y-53340000D01*
X470979500Y-56705500D02*
X469582500Y-55308500D01*
X472567000Y-56705500D02*
X470979500Y-56705500D01*
D11*
X441523190Y-44521380D02*
X441523190Y-43521380D01*
X441142238Y-43521380D01*
X441047000Y-43569000D01*
X440999380Y-43616619D01*
X440951761Y-43711857D01*
X440951761Y-43854714D01*
X440999380Y-43949952D01*
X441047000Y-43997571D01*
X441142238Y-44045190D01*
X441523190Y-44045190D01*
X440380333Y-44521380D02*
X440475571Y-44473761D01*
X440523190Y-44426142D01*
X440570809Y-44330904D01*
X440570809Y-44045190D01*
X440523190Y-43949952D01*
X440475571Y-43902333D01*
X440380333Y-43854714D01*
X440237476Y-43854714D01*
X440142238Y-43902333D01*
X440094619Y-43949952D01*
X440047000Y-44045190D01*
X440047000Y-44330904D01*
X440094619Y-44426142D01*
X440142238Y-44473761D01*
X440237476Y-44521380D01*
X440380333Y-44521380D01*
X439713666Y-43854714D02*
X439523190Y-44521380D01*
X439332714Y-44045190D01*
X439142238Y-44521380D01*
X438951761Y-43854714D01*
X438189857Y-44473761D02*
X438285095Y-44521380D01*
X438475571Y-44521380D01*
X438570809Y-44473761D01*
X438618428Y-44378523D01*
X438618428Y-43997571D01*
X438570809Y-43902333D01*
X438475571Y-43854714D01*
X438285095Y-43854714D01*
X438189857Y-43902333D01*
X438142238Y-43997571D01*
X438142238Y-44092809D01*
X438618428Y-44188047D01*
X437713666Y-44521380D02*
X437713666Y-43854714D01*
X437713666Y-44045190D02*
X437666047Y-43949952D01*
X437618428Y-43902333D01*
X437523190Y-43854714D01*
X437427952Y-43854714D01*
D10*
X434644800Y-38735000D02*
X434644800Y-49822100D01*
X444246000Y-38735000D02*
X434644800Y-38735000D01*
X444246000Y-49822100D02*
X444246000Y-38735000D01*
X434644800Y-49822100D02*
X444246000Y-49822100D01*
X471170000Y-62230000D02*
X471170000Y-57086500D01*
X481330000Y-62230000D02*
X471170000Y-62230000D01*
X481330000Y-57086500D02*
X481330000Y-62230000D01*
X471170000Y-57086500D02*
X481330000Y-57086500D01*
X420370000Y-41846500D02*
X420370000Y-57086500D01*
X415226500Y-41846500D02*
X420370000Y-41846500D01*
X415226500Y-57086500D02*
X415226500Y-41846500D01*
X429006000Y-50927000D02*
X429006000Y-40259000D01*
X432054000Y-50927000D02*
X429006000Y-50927000D01*
X432054000Y-40259000D02*
X432054000Y-50927000D01*
X429006000Y-40259000D02*
X432054000Y-40259000D01*
D11*
X483241285Y-61063142D02*
X483279380Y-61110761D01*
X483393666Y-61158380D01*
X483469857Y-61158380D01*
X483584142Y-61110761D01*
X483660333Y-61015523D01*
X483698428Y-60920285D01*
X483736523Y-60729809D01*
X483736523Y-60586952D01*
X483698428Y-60396476D01*
X483660333Y-60301238D01*
X483584142Y-60206000D01*
X483469857Y-60158380D01*
X483393666Y-60158380D01*
X483279380Y-60206000D01*
X483241285Y-60253619D01*
X482936523Y-60253619D02*
X482898428Y-60206000D01*
X482822238Y-60158380D01*
X482631761Y-60158380D01*
X482555571Y-60206000D01*
X482517476Y-60253619D01*
X482479380Y-60348857D01*
X482479380Y-60444095D01*
X482517476Y-60586952D01*
X482974619Y-61158380D01*
X482479380Y-61158380D01*
X481984142Y-60158380D02*
X481907952Y-60158380D01*
X481831761Y-60206000D01*
X481793666Y-60253619D01*
X481755571Y-60348857D01*
X481717476Y-60539333D01*
X481717476Y-60777428D01*
X481755571Y-60967904D01*
X481793666Y-61063142D01*
X481831761Y-61110761D01*
X481907952Y-61158380D01*
X481984142Y-61158380D01*
X482060333Y-61110761D01*
X482098428Y-61063142D01*
X482136523Y-60967904D01*
X482174619Y-60777428D01*
X482174619Y-60539333D01*
X482136523Y-60348857D01*
X482098428Y-60253619D01*
X482060333Y-60206000D01*
X481984142Y-60158380D01*
X482919066Y-58948580D02*
X483252400Y-58472390D01*
X483490495Y-58948580D02*
X483490495Y-57948580D01*
X483109542Y-57948580D01*
X483014304Y-57996200D01*
X482966685Y-58043819D01*
X482919066Y-58139057D01*
X482919066Y-58281914D01*
X482966685Y-58377152D01*
X483014304Y-58424771D01*
X483109542Y-58472390D01*
X483490495Y-58472390D01*
X482300019Y-57948580D02*
X482204780Y-57948580D01*
X482109542Y-57996200D01*
X482061923Y-58043819D01*
X482014304Y-58139057D01*
X481966685Y-58329533D01*
X481966685Y-58567628D01*
X482014304Y-58758104D01*
X482061923Y-58853342D01*
X482109542Y-58900961D01*
X482204780Y-58948580D01*
X482300019Y-58948580D01*
X482395257Y-58900961D01*
X482442876Y-58853342D01*
X482490495Y-58758104D01*
X482538114Y-58567628D01*
X482538114Y-58329533D01*
X482490495Y-58139057D01*
X482442876Y-58043819D01*
X482395257Y-57996200D01*
X482300019Y-57948580D01*
X482919066Y-56332380D02*
X483252400Y-55856190D01*
X483490495Y-56332380D02*
X483490495Y-55332380D01*
X483109542Y-55332380D01*
X483014304Y-55380000D01*
X482966685Y-55427619D01*
X482919066Y-55522857D01*
X482919066Y-55665714D01*
X482966685Y-55760952D01*
X483014304Y-55808571D01*
X483109542Y-55856190D01*
X483490495Y-55856190D01*
X481966685Y-56332380D02*
X482538114Y-56332380D01*
X482252400Y-56332380D02*
X482252400Y-55332380D01*
X482347638Y-55475238D01*
X482442876Y-55570476D01*
X482538114Y-55618095D01*
X482919066Y-53792380D02*
X483252400Y-53316190D01*
X483490495Y-53792380D02*
X483490495Y-52792380D01*
X483109542Y-52792380D01*
X483014304Y-52840000D01*
X482966685Y-52887619D01*
X482919066Y-52982857D01*
X482919066Y-53125714D01*
X482966685Y-53220952D01*
X483014304Y-53268571D01*
X483109542Y-53316190D01*
X483490495Y-53316190D01*
X482538114Y-52887619D02*
X482490495Y-52840000D01*
X482395257Y-52792380D01*
X482157161Y-52792380D01*
X482061923Y-52840000D01*
X482014304Y-52887619D01*
X481966685Y-52982857D01*
X481966685Y-53078095D01*
X482014304Y-53220952D01*
X482585733Y-53792380D01*
X481966685Y-53792380D01*
X482919066Y-51252380D02*
X483252400Y-50776190D01*
X483490495Y-51252380D02*
X483490495Y-50252380D01*
X483109542Y-50252380D01*
X483014304Y-50300000D01*
X482966685Y-50347619D01*
X482919066Y-50442857D01*
X482919066Y-50585714D01*
X482966685Y-50680952D01*
X483014304Y-50728571D01*
X483109542Y-50776190D01*
X483490495Y-50776190D01*
X482585733Y-50252380D02*
X481966685Y-50252380D01*
X482300019Y-50633333D01*
X482157161Y-50633333D01*
X482061923Y-50680952D01*
X482014304Y-50728571D01*
X481966685Y-50823809D01*
X481966685Y-51061904D01*
X482014304Y-51157142D01*
X482061923Y-51204761D01*
X482157161Y-51252380D01*
X482442876Y-51252380D01*
X482538114Y-51204761D01*
X482585733Y-51157142D01*
X482919066Y-48712380D02*
X483252400Y-48236190D01*
X483490495Y-48712380D02*
X483490495Y-47712380D01*
X483109542Y-47712380D01*
X483014304Y-47760000D01*
X482966685Y-47807619D01*
X482919066Y-47902857D01*
X482919066Y-48045714D01*
X482966685Y-48140952D01*
X483014304Y-48188571D01*
X483109542Y-48236190D01*
X483490495Y-48236190D01*
X482061923Y-48045714D02*
X482061923Y-48712380D01*
X482300019Y-47664761D02*
X482538114Y-48379047D01*
X481919066Y-48379047D01*
X482944466Y-46197780D02*
X483277800Y-45721590D01*
X483515895Y-46197780D02*
X483515895Y-45197780D01*
X483134942Y-45197780D01*
X483039704Y-45245400D01*
X482992085Y-45293019D01*
X482944466Y-45388257D01*
X482944466Y-45531114D01*
X482992085Y-45626352D01*
X483039704Y-45673971D01*
X483134942Y-45721590D01*
X483515895Y-45721590D01*
X482039704Y-45197780D02*
X482515895Y-45197780D01*
X482563514Y-45673971D01*
X482515895Y-45626352D01*
X482420657Y-45578733D01*
X482182561Y-45578733D01*
X482087323Y-45626352D01*
X482039704Y-45673971D01*
X481992085Y-45769209D01*
X481992085Y-46007304D01*
X482039704Y-46102542D01*
X482087323Y-46150161D01*
X482182561Y-46197780D01*
X482420657Y-46197780D01*
X482515895Y-46150161D01*
X482563514Y-46102542D01*
X482919066Y-43632380D02*
X483252400Y-43156190D01*
X483490495Y-43632380D02*
X483490495Y-42632380D01*
X483109542Y-42632380D01*
X483014304Y-42680000D01*
X482966685Y-42727619D01*
X482919066Y-42822857D01*
X482919066Y-42965714D01*
X482966685Y-43060952D01*
X483014304Y-43108571D01*
X483109542Y-43156190D01*
X483490495Y-43156190D01*
X482061923Y-42632380D02*
X482252400Y-42632380D01*
X482347638Y-42680000D01*
X482395257Y-42727619D01*
X482490495Y-42870476D01*
X482538114Y-43060952D01*
X482538114Y-43441904D01*
X482490495Y-43537142D01*
X482442876Y-43584761D01*
X482347638Y-43632380D01*
X482157161Y-43632380D01*
X482061923Y-43584761D01*
X482014304Y-43537142D01*
X481966685Y-43441904D01*
X481966685Y-43203809D01*
X482014304Y-43108571D01*
X482061923Y-43060952D01*
X482157161Y-43013333D01*
X482347638Y-43013333D01*
X482442876Y-43060952D01*
X482490495Y-43108571D01*
X482538114Y-43203809D01*
X482944466Y-41092380D02*
X483277800Y-40616190D01*
X483515895Y-41092380D02*
X483515895Y-40092380D01*
X483134942Y-40092380D01*
X483039704Y-40140000D01*
X482992085Y-40187619D01*
X482944466Y-40282857D01*
X482944466Y-40425714D01*
X482992085Y-40520952D01*
X483039704Y-40568571D01*
X483134942Y-40616190D01*
X483515895Y-40616190D01*
X482611133Y-40092380D02*
X481944466Y-40092380D01*
X482373038Y-41092380D01*
X483441190Y-38266666D02*
X482965000Y-38266666D01*
X483536428Y-38552380D02*
X483203095Y-37552380D01*
X482869761Y-38552380D01*
X482536428Y-38552380D02*
X482536428Y-37552380D01*
X482060238Y-38552380D02*
X482060238Y-37552380D01*
X481488809Y-38552380D01*
X481488809Y-37552380D01*
X481060238Y-37647619D02*
X481012619Y-37600000D01*
X480917380Y-37552380D01*
X480679285Y-37552380D01*
X480584047Y-37600000D01*
X480536428Y-37647619D01*
X480488809Y-37742857D01*
X480488809Y-37838095D01*
X480536428Y-37980952D01*
X481107857Y-38552380D01*
X480488809Y-38552380D01*
X483415790Y-35701266D02*
X482939600Y-35701266D01*
X483511028Y-35986980D02*
X483177695Y-34986980D01*
X482844361Y-35986980D01*
X482511028Y-35986980D02*
X482511028Y-34986980D01*
X482034838Y-35986980D02*
X482034838Y-34986980D01*
X481463409Y-35986980D01*
X481463409Y-34986980D01*
X480463409Y-35986980D02*
X481034838Y-35986980D01*
X480749123Y-35986980D02*
X480749123Y-34986980D01*
X480844361Y-35129838D01*
X480939600Y-35225076D01*
X481034838Y-35272695D01*
X483479266Y-32472380D02*
X482860219Y-32472380D01*
X483193552Y-32853333D01*
X483050695Y-32853333D01*
X482955457Y-32900952D01*
X482907838Y-32948571D01*
X482860219Y-33043809D01*
X482860219Y-33281904D01*
X482907838Y-33377142D01*
X482955457Y-33424761D01*
X483050695Y-33472380D01*
X483336409Y-33472380D01*
X483431647Y-33424761D01*
X483479266Y-33377142D01*
X482574504Y-32472380D02*
X482241171Y-33472380D01*
X481907838Y-32472380D01*
X481669742Y-32472380D02*
X481050695Y-32472380D01*
X481384028Y-32853333D01*
X481241171Y-32853333D01*
X481145933Y-32900952D01*
X481098314Y-32948571D01*
X481050695Y-33043809D01*
X481050695Y-33281904D01*
X481098314Y-33377142D01*
X481145933Y-33424761D01*
X481241171Y-33472380D01*
X481526885Y-33472380D01*
X481622123Y-33424761D01*
X481669742Y-33377142D01*
X480669742Y-33186666D02*
X480193552Y-33186666D01*
X480764980Y-33472380D02*
X480431647Y-32472380D01*
X480098314Y-33472380D01*
D10*
%TO.C,J7*%
X466150000Y-57090000D02*
X466150000Y-62290000D01*
X417830000Y-57090000D02*
X466150000Y-57090000D01*
X415230000Y-62290000D02*
X466150000Y-62290000D01*
X417830000Y-57090000D02*
X417830000Y-59690000D01*
X417830000Y-59690000D02*
X415230000Y-59690000D01*
X415230000Y-59690000D02*
X415230000Y-62290000D01*
X416560000Y-57090000D02*
X415230000Y-57090000D01*
X415230000Y-57090000D02*
X415230000Y-58420000D01*
%TD*%
M02*
