M48
; DRILL file {KiCad (5.1.9)-1} date 03/10/21 22:07:53
; FORMAT={-:-/ absolute / metric / decimal}
; #@! TF.CreationDate,2021-03-10T22:07:53+01:00
; #@! TF.GenerationSoftware,Kicad,Pcbnew,(5.1.9)-1
; #@! TF.FileFunction,Plated,1,2,PTH
FMAT,2
METRIC
T1C0.356
T2C0.400
T3C0.600
T4C1.000
%
G90
G05
T1
X530.098Y-210.541
X531.495Y-212.344
X532.511Y-213.487
X532.892Y-215.9
X533.019Y-217.932
X533.248Y-203.149
X533.497Y-212.441
X533.775Y-167.869
X534.416Y-166.472
X534.429Y-211.509
X534.67Y-217.678
X535.432Y-218.44
X535.508Y-213.131
X536.067Y-179.908
X536.143Y-219.227
X536.829Y-211.369
X537.286Y-206.807
X537.286Y-217.399
X537.438Y-199.77
X537.845Y-205.486
X537.845Y-225.577
X537.921Y-219.456
X538.099Y-221.615
X538.801Y-181.833
X538.988Y-218.821
X539.293Y-182.744
X539.309Y-208.874
X539.477Y-207.573
X539.623Y-214.757
X539.75Y-218.059
X539.877Y-166.497
X540.109Y-209.002
X540.313Y-209.786
X541.087Y-221.349
X541.249Y-175.87
X541.371Y-209.757
X541.671Y-217.784
X541.671Y-218.606
X541.782Y-210.566
X541.887Y-176.691
X542.341Y-201.066
X542.357Y-205.461
X542.417Y-165.354
X542.501Y-203.488
X542.541Y-212.375
X542.733Y-218.589
X542.81Y-204.79
X542.9Y-201.694
X543.104Y-210.968
X543.4Y-213.681
X543.438Y-164.044
X543.509Y-204.139
X543.549Y-175.468
X543.585Y-206.756
X543.902Y-164.708
X544.525Y-210.642
X544.687Y-215.154
X544.725Y-176.174
X544.812Y-212.76
X545.084Y-177.165
X545.195Y-207.113
X545.338Y-218.592
X545.927Y-175.941
X546.049Y-166.573
X546.227Y-208.026
X546.405Y-189.535
X546.481Y-192.532
X546.551Y-165.151
X546.648Y-206.38
X546.665Y-164.116
X546.941Y-205.005
X547.345Y-206.807
X547.395Y-218.211
X547.675Y-208.712
X547.776Y-204.953
X548.253Y-216.764
X548.652Y-204.943
X548.894Y-175.006
X548.935Y-212.283
X548.973Y-208.766
X549.438Y-204.748
X549.862Y-208.74
X550.215Y-195.148
X550.329Y-205.547
X550.341Y-204.728
X550.505Y-170.651
X550.744Y-208.555
X550.761Y-225.8
X550.996Y-214.092
X551.054Y-214.9
X551.078Y-197.79
X551.47Y-213.436
X551.663Y-208.432
X551.947Y-171.983
X551.993Y-181.204
X552.568Y-208.448
X552.628Y-191.262
X552.907Y-199.669
X553.218Y-225.197
X553.314Y-222.148
X554.732Y-190.758
X555.244Y-222.834
X555.777Y-225.171
X555.976Y-182.982
X556.26Y-208.534
X556.304Y-215.754
X556.387Y-175.539
X556.955Y-183.872
X557.159Y-217.167
X557.403Y-222.225
X557.632Y-211.928
X557.835Y-181.915
X558.038Y-193.421
X558.038Y-197.739
X558.137Y-206.638
X558.8Y-202.804
X558.8Y-204.227
X558.851Y-176.174
X558.952Y-227.66
T2
X528.32Y-225.019
X532.409Y-225.755
X535.305Y-225.425
X537.007Y-166.624
X537.007Y-168.935
X537.921Y-229.311
X540.004Y-168.91
X540.309Y-225.4
X540.385Y-167.513
X543.001Y-225.4
X543.636Y-185.623
X543.674Y-191.122
X543.814Y-193.65
X545.125Y-185.598
X545.516Y-163.601
X545.567Y-226.339
X545.851Y-178.264
X546.405Y-196.342
X547.776Y-226.212
X548.056Y-229.26
X550.824Y-222.453
X552.094Y-183.82
X552.653Y-179.451
X552.679Y-187.173
X552.882Y-185.852
X553.491Y-176.987
X553.542Y-175.565
X553.618Y-189.713
X553.949Y-219.456
X555.854Y-217.551
X558.137Y-208.938
X558.137Y-210.843
X558.648Y-229.286
X559.791Y-183.413
X560.451Y-189.611
X560.476Y-199.238
X560.527Y-200.558
T4
X443.23Y-171.958
X443.23Y-174.498
X443.23Y-177.038
X443.23Y-179.578
X443.23Y-182.118
X443.23Y-184.658
X443.23Y-187.198
X443.23Y-189.738
X445.77Y-171.958
X445.77Y-174.498
X445.77Y-177.038
X445.77Y-179.578
X445.77Y-182.118
X445.77Y-184.658
X445.77Y-187.198
X445.77Y-189.738
X448.31Y-187.198
X448.31Y-189.738
X450.85Y-187.198
X450.85Y-189.738
X453.39Y-187.198
X453.39Y-189.738
X455.93Y-187.198
X455.93Y-189.738
X457.2Y-161.798
X457.2Y-164.338
X458.47Y-187.198
X458.47Y-189.738
X461.01Y-187.198
X461.01Y-189.738
X463.55Y-187.198
X463.55Y-189.738
X466.09Y-187.198
X466.09Y-189.738
X468.63Y-187.198
X468.63Y-189.738
X471.17Y-187.198
X471.17Y-189.738
X473.71Y-187.198
X473.71Y-189.738
X476.25Y-187.198
X476.25Y-189.738
X478.79Y-187.198
X478.79Y-189.738
X481.33Y-187.198
X481.33Y-189.738
X483.87Y-187.198
X483.87Y-189.738
X486.41Y-187.198
X486.41Y-189.738
X488.95Y-187.198
X488.95Y-189.738
X491.49Y-187.198
X491.49Y-189.738
X511.81Y-161.798
X511.81Y-164.338
X511.81Y-166.878
X511.81Y-169.418
X511.81Y-171.958
X511.81Y-174.498
X511.81Y-177.038
X511.81Y-179.578
X511.81Y-182.118
X511.81Y-184.658
X511.81Y-187.198
X511.81Y-189.738
X528.955Y-159.258
X528.955Y-161.798
X528.955Y-164.338
X528.955Y-166.878
X528.955Y-169.418
X528.955Y-171.958
X528.955Y-174.498
X528.955Y-177.038
X528.955Y-179.578
X528.955Y-182.118
X528.955Y-184.658
X528.955Y-187.198
X528.955Y-189.738
X528.955Y-192.278
X528.955Y-194.818
X528.955Y-197.358
X528.955Y-199.898
X528.955Y-202.438
X528.955Y-204.978
X528.955Y-207.518
X528.955Y-215.138
X528.955Y-217.678
X528.955Y-220.218
X528.955Y-222.758
X528.955Y-227.838
X531.495Y-159.258
X531.495Y-161.798
X531.495Y-164.338
X531.495Y-166.878
X531.495Y-169.418
X531.495Y-171.958
X531.495Y-174.498
X531.495Y-177.038
X531.495Y-179.578
X531.495Y-182.118
X531.495Y-184.658
X531.495Y-187.198
X531.495Y-189.738
X531.495Y-192.278
X531.495Y-194.818
X531.495Y-197.358
X531.495Y-199.898
X531.495Y-202.438
X531.495Y-204.978
X531.495Y-207.518
X531.495Y-215.138
X531.495Y-217.678
X531.495Y-220.218
X531.495Y-222.758
X531.495Y-227.838
X534.035Y-159.258
X534.035Y-161.798
X534.035Y-227.838
X536.575Y-159.258
X536.575Y-161.798
X536.575Y-227.838
X539.115Y-159.258
X539.115Y-161.798
X539.115Y-227.838
X540.385Y-173.228
X541.655Y-159.258
X541.655Y-161.798
X541.655Y-227.838
X542.925Y-173.228
X544.195Y-159.258
X544.195Y-161.798
X544.195Y-227.838
X545.465Y-173.228
X546.735Y-159.258
X546.735Y-161.798
X546.735Y-227.838
X548.005Y-173.228
X549.275Y-227.838
X551.815Y-227.838
X554.355Y-173.228
X554.355Y-227.838
X556.895Y-173.228
X556.895Y-227.838
T3
G00X554.739Y-179.068
M15
G01X555.839Y-179.068
M16
G05
G00X554.739Y-187.708
M15
G01X555.839Y-187.708
M16
G05
G00X559.169Y-179.068
M15
G01X559.769Y-179.068
M16
G05
G00X559.169Y-187.708
M15
G01X559.769Y-187.708
M16
G05
T0
M30
